<svg xmlns="http://www.w3.org/2000/svg" xml:space="preserve" width="57.6" height="57.6" viewBox="2.58 -60.25 57.6 57.6"><path d="M2.58-60.25h57.6v57.6H2.58z" style="fill:none"/><path d="M2.58-60.25h57.6v57.6H2.58z"/><ellipse cx="58.33" cy="-9.58" rx=".79" ry=".75" style="fill:none;stroke:#fff;stroke-width:.5"/><ellipse cx="36.75" cy="-51.43" rx="1.05" ry=".71" style="fill:none;stroke:#fff;stroke-width:.5"/><ellipse cx="24.58" cy="-17.75" rx="1.05" ry=".71" style="fill:none;stroke:#fff;stroke-width:.5"/><ellipse cx="23" cy="-40.99" rx="1.05" ry=".71" style="fill:none;stroke:#fff;stroke-width:.5"/><ellipse cx="39.25" cy="-37.5" rx="1.05" ry=".71" style="fill:none;stroke:#fff;stroke-width:.5"/><ellipse cx="9.45" cy="-45.62" rx="1.05" ry=".71" style="fill:none;stroke:#fff;stroke-width:.5"/><ellipse cx="13.31" cy="-24.3" rx="1.05" ry=".83" style="fill:none;stroke:#fff;stroke-width:.5"/><ellipse cx="17.57" cy="-50.03" rx=".58" ry=".79" style="fill:none;stroke:#fff;stroke-width:.5"/><ellipse cx="27.67" cy="-26.72" rx=".51" ry=".7" style="fill:none;stroke:#fff;stroke-width:.5" transform="rotate(-88.19 27.67 -26.72)"/><ellipse cx="50.57" cy="-9.64" rx=".51" ry=".7" style="fill:none;stroke:#fff;stroke-width:.5" transform="rotate(-88.18 50.57 -9.64)"/><ellipse cx="52.43" cy="-18.43" rx=".51" ry=".7" style="fill:none;stroke:#fff;stroke-width:.5" transform="rotate(-88.17 52.43 -18.43)"/><ellipse cx="34.68" cy="-17.34" rx=".83" ry=".94" style="fill:none;stroke:#fff;stroke-width:.5"/><ellipse cx="16.32" cy="-14.54" rx=".71" ry=".74" style="fill:none;stroke:#fff;stroke-width:.5"/><ellipse cx="13.39" cy="-4.2" rx="1.15" ry=".76" style="fill:none;stroke:#fff;stroke-width:.5"/><ellipse cx="46.71" cy="-56.75" rx=".83" ry="1.13" style="fill:none;stroke:#fff;stroke-width:.5" transform="rotate(-75.24 46.7 -56.75)"/><ellipse cx="52.01" cy="-37.68" rx=".99" ry=".73" style="fill:none;stroke:#fff;stroke-width:.5" transform="rotate(-3.71 52.05 -37.68)"/><ellipse cx="29.15" cy="-58.76" rx=".99" ry=".73" style="fill:none;stroke:#fff;stroke-width:.5" transform="rotate(-79.2 29.15 -58.76)"/><path d="M32.08-41.87c-.54.3-1.16.22-1.38-.17-.23-.4.04-.97.58-1.27.54-.3.93.05 1.15.45.22.4.2.69-.35.99z" style="fill:none;stroke:#fff;stroke-width:.5"/><ellipse cx="8.42" cy="-53.73" rx=".82" ry=".7" style="fill:none;stroke:#fff;stroke-width:.5"/><ellipse cx="58.68" cy="-52.62" rx=".82" ry=".7" style="fill:none;stroke:#fff;stroke-width:.5"/><ellipse cx="51.75" cy="-49.44" rx=".82" ry=".7" style="fill:none;stroke:#fff;stroke-width:.5"/><path d="M14.93-36.28c.42-.05.6-.5.57-.71-.02-.21-.26-.4-.67-.36-.42.04-.74.25-.72.45s.4.66.82.62z" style="fill:none;stroke:#fff;stroke-width:.5"/><ellipse cx="27.77" cy="-51.12" rx=".9" ry=".45" style="fill:none;stroke:#fff;stroke-width:.5" transform="rotate(-80.74 27.77 -51.12)"/><path d="M51.63-57.2h0M49.25-55.04h0M55-58.58h0M58.88-58.08h0M55-53.83h0M47.63-50.45h0M48.13-44.83h0M56.69-47.27h0M51.58-43.79h0M57.5-37.95h0M57.5-33.87h0M52.17-32.87h0M53.63-26.95h0M55-22.2h0M58.5-17.16h0M47.5-17.2h0M50.63-13.83h0M47.08-11.37h0M45.08-7.95h0M34.5-10.95h0M39.17-4.29h0M25.67-4.79h0M23.42-8.7h0M24.08-12.37h0M30.17-12.29h0M29.17-8.79h0M32.08-8.37h0M34.08-4.45h0M20.58-16.2h0M17.25-8.79h0M16.75-4.87h0M12.17-6.79h0M13.67-11.29h0M5.58-4.37h0M8.75-6.95h0M5.17-10.7h0M8.5-3.45h0M15.67-21.29h0M9.67-23.87h0M5.08-22.87h0M3-13.87h0M14.58-18.45h0M10.42-18.87h0M6.17-17.87h0M20.17-20.95h0M29.67-16.95h0M48.33-4.87h0M54.17-7.37h0M59.42-3.95h0M59.67-7.29h0M54.58-3.62h0M55.5-13.7h0M43.38-13.33h0M38.5-13.95h0M36.63-19.83h0M40.25-17.7h0M35.63-24.08h0M32.63-22.45h0M28.17-21.7h0M22.5-24.45h0M17.63-27.2h0M4.13-42.2h0M47.08-39.29h0M48.25-32.87h0M44.17-50.04h0M40.63-48.33h0" style="fill:none;stroke:#fff;stroke-linecap:round"/><path d="M10.19-48.95h0M10.08-48.95h.11M39.19-26.79h0M39.08-26.79h.11M49.19-27.79h0M49.08-27.79h.11" style="fill:none;stroke:#fff;stroke-width:1.3;stroke-linecap:round;stroke-miterlimit:1.41"/><ellipse cx="59" cy="-24.47" rx=".9" ry=".64" style="fill:none;stroke:#fff;stroke-width:.5"/><ellipse cx="44.67" cy="-21.01" rx=".9" ry=".64" style="fill:none;stroke:#fff;stroke-width:.5"/><path d="M40.25-7.45c.5 0 .65-.29.65-.64 0-.36-.15-.64-.65-.64s-.9.28-.9.64c0 .35.4.64.9.64zM8.2-12.44c.5-.07.85-.42.8-.76-.05-.35-.5-.57-.99-.5-.49.08-.6.44-.55.79.05.35.25.55.75.47zM3.7-34.98c.5-.07.85-.42.8-.77-.05-.35-.5-.57-.99-.5-.49.08-.6.45-.55.8.05.35.25.55.75.47zM56.8-42.9c.49.09.94-.11 1.01-.46.07-.34-.27-.7-.76-.8-.48-.1-.72.2-.79.55-.07.34.05.6.54.7zM44.33-44.1c.5-.08.85-.42.8-.77-.06-.35-.5-.57-1-.5-.49.08-.6.44-.55.8.06.34.26.54.75.47zM27.7-32.98c.5-.07.85-.42.8-.77-.05-.35-.5-.57-.99-.5-.49.08-.6.45-.55.8.05.35.25.55.75.47z" style="fill:none;stroke:#fff;stroke-width:.5"/><path d="M42.75-54.7h0M39.25-55.2h0M33.17-55.87h0M25.92-55.2h0M21.58-57.87h0M19.75-54.87h0M15.92-55.37h0M12.17-51.29h0M5.25-51.37h0M4.67-56.29h0M5.67-47.37h0M14.58-45.95h0M10.67-37.79h0M5.67-38.87h0M18.08-45.29h0M19.67-38.87h0M21.67-33.79h0M18.67-34.79h0M24.83-36.62h0M15.17-40.29h0M13.17-33.87h0M14.17-28.7h0M7.17-27.7h0M20.17-30.12h0M7.67-34.29h0M9.75-31.37h0M3-31.7h0" style="fill:none;stroke:#fff;stroke-linecap:round"/><path d="M11.08-57.87h0" style="fill:#fff;stroke:#fff;stroke-linecap:round"/><path d="M22.58-51.7h0M32.42-51.87h0M34.08-46.87h0M37.58-42.79h0M35.17-39.79h0M41.58-40.29h0M45.08-36.37h0M29.83-46.7h0M27.67-39.79h0M31.08-36.29h0M35.58-33.7h0M25.58-31.29h0M24.67-28.79h0M31.17-29.87h0M33.67-28.87h0M39.08-30.79h0M42.58-27.79h0M45.08-24.95h0M49.25-22.83h0M40.67-22.95h0M45.75-28.7h0M58.75-28.2h0M42-33.87h0M25.17-45.45h0M22.67-47.37h0M36.08-59.37h0" style="fill:none;stroke:#fff;stroke-linecap:round"/></svg>