<svg xmlns="http://www.w3.org/2000/svg" xml:space="preserve" width="60.48" height="60.48" viewBox="0.22 -60.55 60.48 60.48"><path d="M.22-60.55H60.7V-.07H.22z" style="fill:none"/><path d="M3.1-47.87c.44.53 1.06.75 1.4.48.35-.27.57-1.11.14-1.65-.43-.54-1.34-.57-1.69-.3-.34.27-.27.93.16 1.47z" style="fill-rule:evenodd;clip-rule:evenodd;fill:none;stroke:#ed1b2e;stroke-width:.5"/><ellipse cx="58.25" cy="-35.19" rx="1.12" ry=".71" style="fill-rule:evenodd;clip-rule:evenodd;fill:none;stroke:#ed1b2e;stroke-width:.5" transform="rotate(-69.81 58.25 -35.2)"/><ellipse cx="37.45" cy="-23.69" rx="1.12" ry=".71" style="fill-rule:evenodd;clip-rule:evenodd;fill:none;stroke:#ed1b2e;stroke-width:.5" transform="rotate(-69.77 37.45 -23.7)"/><path d="M44.74-28.94c.51-.14.3-.79 0-1.4-.3-.61-.57-.97-1.09-.83-.52.15-.7.76-.4 1.38.3.61.97 1 1.49.85z" style="fill-rule:evenodd;clip-rule:evenodd;fill:none;stroke:#ed1b2e;stroke-width:.5"/><ellipse cx="27.53" cy="-55.1" rx="1.24" ry=".79" style="fill-rule:evenodd;clip-rule:evenodd;fill:none;stroke:#ed1b2e;stroke-width:.5" transform="rotate(-58.38 27.53 -55.1)"/><ellipse cx="54.28" cy="-39.1" rx="1.25" ry=".79" style="fill-rule:evenodd;clip-rule:evenodd;fill:none;stroke:#ed1b2e;stroke-width:.5" transform="rotate(-58.39 54.28 -39.1)"/><ellipse cx="7.95" cy="-39.5" rx="1.25" ry=".79" style="fill-rule:evenodd;clip-rule:evenodd;fill:none;stroke:#ed1b2e;stroke-width:.5" transform="rotate(-37.41 7.95 -39.5)"/><path d="M9.4-51.48c-.37.23-.78.77-.42 1.35.35.6.95.88 1.32.65.37-.22.46-1.1.1-1.7-.36-.58-.63-.52-1-.3z" style="fill-rule:evenodd;clip-rule:evenodd;fill:none;stroke:#ed1b2e;stroke-width:.5"/><ellipse cx="4.47" cy="-19.59" rx="1.24" ry=".79" style="fill-rule:evenodd;clip-rule:evenodd;fill:none;stroke:#ed1b2e;stroke-width:.5" transform="rotate(-67.82 4.47 -19.6)"/><ellipse cx="13.13" cy="-12.65" rx="1.24" ry=".79" style="fill-rule:evenodd;clip-rule:evenodd;fill:none;stroke:#ed1b2e;stroke-width:.5" transform="rotate(-51.86 13.13 -12.65)"/><ellipse cx="29.03" cy="-30.53" rx="1.24" ry=".79" style="fill-rule:evenodd;clip-rule:evenodd;fill:none;stroke:#ed1b2e;stroke-width:.5" transform="rotate(-60.9 29.03 -30.53)"/><ellipse cx="16.5" cy="-36.76" rx="1.25" ry=".79" style="fill-rule:evenodd;clip-rule:evenodd;fill:none;stroke:#ed1b2e;stroke-width:.5" transform="rotate(-60.87 16.5 -36.76)"/><ellipse cx="39.52" cy="-4.08" rx="1.25" ry=".79" style="fill-rule:evenodd;clip-rule:evenodd;fill:none;stroke:#ed1b2e;stroke-width:.5" transform="rotate(-89.29 39.52 -4.08)"/><ellipse cx="21.17" cy="-40.52" rx=".79" ry="1.25" style="fill-rule:evenodd;clip-rule:evenodd;fill:none;stroke:#ed1b2e;stroke-width:.5" transform="rotate(-18.08 21.17 -40.52)"/><path d="M8.54-56.94c-.34-.6-1.33-.89-1.71-.68-.39.22-.43.88-.09 1.48.33.6.91.91 1.3.7.38-.21.83-.9.5-1.5z" style="fill-rule:evenodd;clip-rule:evenodd;fill:none;stroke:#ed1b2e;stroke-width:.5"/><ellipse cx="26" cy="-47.28" rx=".71" ry="1.12" style="fill-rule:evenodd;clip-rule:evenodd;fill:none;stroke:#ed1b2e;stroke-width:.5" transform="rotate(-8.09 26 -47.27)"/><ellipse cx="58.68" cy="-51.37" rx="1.12" ry=".71" style="fill-rule:evenodd;clip-rule:evenodd;fill:none;stroke:#ed1b2e;stroke-width:.5" transform="rotate(-78.67 58.68 -51.37)"/><ellipse cx="22.63" cy="-11.88" rx="1.24" ry=".79" style="fill-rule:evenodd;clip-rule:evenodd;fill:none;stroke:#ed1b2e;stroke-width:.5" transform="rotate(-89.86 22.63 -11.89)"/><ellipse cx="39.59" cy="-10.48" rx="1.25" ry=".79" style="fill-rule:evenodd;clip-rule:evenodd;fill:none;stroke:#ed1b2e;stroke-width:.5" transform="rotate(-75.36 39.59 -10.48)"/><ellipse cx="31.02" cy="-6.81" rx="1.25" ry=".79" style="fill-rule:evenodd;clip-rule:evenodd;fill:none;stroke:#ed1b2e;stroke-width:.5" transform="rotate(-70.42 31.02 -6.81)"/><ellipse cx="2.92" cy="-44.66" rx=".51" ry=".71" style="fill-rule:evenodd;clip-rule:evenodd;fill:none;stroke:#ed1b2e;stroke-width:.5" transform="rotate(-25.12 2.93 -44.65)"/><ellipse cx="6.59" cy="-2.28" rx=".71" ry=".51" style="fill-rule:evenodd;clip-rule:evenodd;fill:none;stroke:#ed1b2e;stroke-width:.5" transform="rotate(-81.29 6.6 -2.28)"/><ellipse cx="4.3" cy="-13.24" rx=".51" ry=".71" style="fill-rule:evenodd;clip-rule:evenodd;fill:none;stroke:#ed1b2e;stroke-width:.5"/><ellipse cx="25.1" cy="-42.79" rx=".51" ry=".71" style="fill-rule:evenodd;clip-rule:evenodd;fill:none;stroke:#ed1b2e;stroke-width:.5"/><ellipse cx="18" cy="-58.69" rx=".51" ry=".71" style="fill-rule:evenodd;clip-rule:evenodd;fill:none;stroke:#ed1b2e;stroke-width:.5"/><ellipse cx="56.64" cy="-22.65" rx=".51" ry=".71" style="fill-rule:evenodd;clip-rule:evenodd;fill:none;stroke:#ed1b2e;stroke-width:.5"/><ellipse cx="45.24" cy="-25.25" rx=".51" ry=".71" style="fill-rule:evenodd;clip-rule:evenodd;fill:none;stroke:#ed1b2e;stroke-width:.5"/><ellipse cx="32.64" cy="-2.65" rx=".51" ry=".71" style="fill-rule:evenodd;clip-rule:evenodd;fill:none;stroke:#ed1b2e;stroke-width:.5"/><ellipse cx="19.7" cy="-33.19" rx=".51" ry=".71" style="fill-rule:evenodd;clip-rule:evenodd;fill:none;stroke:#ed1b2e;stroke-width:.5"/><ellipse cx="42.54" cy="-36.25" rx=".51" ry=".71" style="fill-rule:evenodd;clip-rule:evenodd;fill:none;stroke:#ed1b2e;stroke-width:.5"/><ellipse cx="29.96" cy="-40.5" rx=".71" ry=".51" style="fill-rule:evenodd;clip-rule:evenodd;fill:none;stroke:#ed1b2e;stroke-width:.5" transform="rotate(-61.24 29.96 -40.5)"/><ellipse cx="38.34" cy="-31.85" rx=".51" ry=".71" style="fill-rule:evenodd;clip-rule:evenodd;fill:none;stroke:#ed1b2e;stroke-width:.5"/><ellipse cx="37.45" cy="-55.69" rx=".51" ry=".71" style="fill-rule:evenodd;clip-rule:evenodd;fill:none;stroke:#ed1b2e;stroke-width:.5"/><ellipse cx="10.08" cy="-22.54" rx=".51" ry=".71" style="fill-rule:evenodd;clip-rule:evenodd;fill:none;stroke:#ed1b2e;stroke-width:.5"/><ellipse cx="25.9" cy="-26.79" rx=".51" ry=".71" style="fill-rule:evenodd;clip-rule:evenodd;fill:none;stroke:#ed1b2e;stroke-width:.5"/><ellipse cx="44.57" cy="-10.97" rx=".71" ry=".51" style="fill-rule:evenodd;clip-rule:evenodd;fill:none;stroke:#ed1b2e;stroke-width:.5" transform="rotate(-78.98 44.56 -10.98)"/><ellipse cx="43.3" cy="-42.19" rx=".51" ry=".71" style="fill-rule:evenodd;clip-rule:evenodd;fill:none;stroke:#ed1b2e;stroke-width:.5"/><ellipse cx="36.9" cy="-43.79" rx=".51" ry=".71" style="fill-rule:evenodd;clip-rule:evenodd;fill:none;stroke:#ed1b2e;stroke-width:.5"/><ellipse cx="38.77" cy="-40.51" rx=".78" ry=".56" style="fill-rule:evenodd;clip-rule:evenodd;fill:none;stroke:#ed1b2e;stroke-width:.5" transform="rotate(-78.09 38.77 -40.5)"/><ellipse cx="57.83" cy="-55.01" rx=".78" ry=".56" style="fill-rule:evenodd;clip-rule:evenodd;fill:none;stroke:#ed1b2e;stroke-width:.5" transform="rotate(-69.79 57.83 -55)"/><ellipse cx="29.57" cy="-49.81" rx=".78" ry=".56" style="fill-rule:evenodd;clip-rule:evenodd;fill:none;stroke:#ed1b2e;stroke-width:.5" transform="rotate(-78.06 29.57 -49.8)"/><ellipse cx="39.77" cy="-27.11" rx=".79" ry=".56" style="fill-rule:evenodd;clip-rule:evenodd;fill:none;stroke:#ed1b2e;stroke-width:.5" transform="rotate(-78.04 39.77 -27.1)"/><path d="M6.05-33.32c.42-.06.66-.47.54-.91-.13-.44-.57-.75-.99-.68-.42.07-.66.48-.54.92.13.44.57.74.99.67z" style="fill-rule:evenodd;clip-rule:evenodd;fill:none;stroke:#ed1b2e;stroke-width:.5"/><ellipse cx="41.36" cy="-49.62" rx=".71" ry=".51" style="fill-rule:evenodd;clip-rule:evenodd;fill:none;stroke:#ed1b2e;stroke-width:.5" transform="rotate(-65.56 41.36 -49.62)"/><ellipse cx="13.14" cy="-52.95" rx=".51" ry=".71" style="fill-rule:evenodd;clip-rule:evenodd;fill:none;stroke:#ed1b2e;stroke-width:.5"/><ellipse cx="49.1" cy="-30.79" rx=".51" ry=".71" style="fill-rule:evenodd;clip-rule:evenodd;fill:none;stroke:#ed1b2e;stroke-width:.5"/><ellipse cx="58.34" cy="-13.25" rx=".51" ry=".71" style="fill-rule:evenodd;clip-rule:evenodd;fill:none;stroke:#ed1b2e;stroke-width:.5"/><ellipse cx="32.49" cy="-16.5" rx=".51" ry=".71" style="fill-rule:evenodd;clip-rule:evenodd;fill:none;stroke:#ed1b2e;stroke-width:.5"/><ellipse cx="50.2" cy="-56.04" rx=".71" ry=".51" style="fill-rule:evenodd;clip-rule:evenodd;fill:none;stroke:#ed1b2e;stroke-width:.5" transform="rotate(-78.59 50.2 -56.04)"/><ellipse cx="36.16" cy="-35.98" rx=".71" ry=".51" style="fill-rule:evenodd;clip-rule:evenodd;fill:none;stroke:#ed1b2e;stroke-width:.5" transform="rotate(-78.59 36.16 -35.98)"/><ellipse cx="28.74" cy="-21.3" rx=".51" ry=".71" style="fill-rule:evenodd;clip-rule:evenodd;fill:none;stroke:#ed1b2e;stroke-width:.5"/><ellipse cx="6.78" cy="-25.84" rx=".51" ry=".71" style="fill-rule:evenodd;clip-rule:evenodd;fill:none;stroke:#ed1b2e;stroke-width:.5"/><ellipse cx="17.79" cy="-16.08" rx=".51" ry=".71" style="fill-rule:evenodd;clip-rule:evenodd;fill:none;stroke:#ed1b2e;stroke-width:.5"/><ellipse cx="48.24" cy="-19.45" rx=".51" ry=".71" style="fill-rule:evenodd;clip-rule:evenodd;fill:none;stroke:#ed1b2e;stroke-width:.5"/><ellipse cx="54.49" cy="-25.75" rx=".71" ry=".51" style="fill-rule:evenodd;clip-rule:evenodd;fill:none;stroke:#ed1b2e;stroke-width:.5" transform="rotate(-72.49 54.49 -25.76)"/><ellipse cx="16.74" cy="-42.72" rx=".71" ry=".99" style="fill-rule:evenodd;clip-rule:evenodd;fill:none;stroke:#ed1b2e;stroke-width:.5"/><ellipse cx="54.09" cy="-29.37" rx=".89" ry=".64" style="fill-rule:evenodd;clip-rule:evenodd;fill:none;stroke:#ed1b2e;stroke-width:.5" transform="rotate(-89.16 54.09 -29.37)"/><path d="M18.49-6c.3.5.84.73 1.21.53.37-.21.42-.78.12-1.28s-.85-.72-1.22-.52c-.37.21-.42.78-.11 1.28zM34.27-21.12c-.14-.63-.56-1-.94-.84-.37.17-.56.81-.43 1.44.14.62.56 1 .94.83.37-.16.56-.8.43-1.43zM49.73-26c-.37.16-.57.8-.43 1.43.14.62.56 1 .94.83.37-.17.56-.8.43-1.43-.14-.63-.56-1-.94-.84zM57.55-17.09c.18.56.56.86.85.68.3-.18.4-.78.22-1.34-.17-.56-.55-.86-.85-.68-.3.19-.4.79-.22 1.34z" style="fill-rule:evenodd;clip-rule:evenodd;fill:none;stroke:#ed1b2e;stroke-width:.5"/><ellipse cx="34.69" cy="-40.06" rx=".99" ry=".71" style="fill-rule:evenodd;clip-rule:evenodd;fill:none;stroke:#ed1b2e;stroke-width:.5" transform="rotate(-56.37 34.69 -40.06)"/><ellipse cx="47.09" cy="-38.97" rx=".99" ry=".71" style="fill-rule:evenodd;clip-rule:evenodd;fill:none;stroke:#ed1b2e;stroke-width:.5" transform="rotate(-56.32 47.09 -38.97)"/><ellipse cx="46.59" cy="-58.21" rx=".71" ry=".99" style="fill-rule:evenodd;clip-rule:evenodd;fill:none;stroke:#ed1b2e;stroke-width:.5" transform="rotate(-8.16 46.6 -58.22)"/><ellipse cx="56.89" cy="-44.06" rx=".99" ry=".71" style="fill-rule:evenodd;clip-rule:evenodd;fill:none;stroke:#ed1b2e;stroke-width:.5" transform="rotate(-56.36 56.89 -44.06)"/><ellipse cx="42.39" cy="-46.06" rx=".99" ry=".71" style="fill-rule:evenodd;clip-rule:evenodd;fill:none;stroke:#ed1b2e;stroke-width:.5" transform="rotate(-56.38 42.39 -46.06)"/><ellipse cx="37.53" cy="-51.09" rx=".99" ry=".71" style="fill-rule:evenodd;clip-rule:evenodd;fill:none;stroke:#ed1b2e;stroke-width:.5" transform="rotate(-68.11 37.53 -51.1)"/><ellipse cx="32.55" cy="-57.7" rx=".99" ry=".71" style="fill-rule:evenodd;clip-rule:evenodd;fill:none;stroke:#ed1b2e;stroke-width:.5" transform="rotate(-56.36 32.55 -57.7)"/><ellipse cx="23.39" cy="-57.56" rx=".99" ry=".71" style="fill-rule:evenodd;clip-rule:evenodd;fill:none;stroke:#ed1b2e;stroke-width:.5" transform="rotate(-56.33 23.39 -57.56)"/><ellipse cx="3.75" cy="-59.25" rx=".99" ry=".71" style="fill-rule:evenodd;clip-rule:evenodd;fill:none;stroke:#ed1b2e;stroke-width:.5" transform="rotate(-56.3 3.75 -59.25)"/><ellipse cx="31.04" cy="-36.73" rx=".71" ry=".99" style="fill-rule:evenodd;clip-rule:evenodd;fill:none;stroke:#ed1b2e;stroke-width:.5"/><ellipse cx="17.04" cy="-54.93" rx=".71" ry=".99" style="fill-rule:evenodd;clip-rule:evenodd;fill:none;stroke:#ed1b2e;stroke-width:.5"/><path d="M13.8-57.08c0-.54-.3-1.58-.7-1.58-.39 0-.7.45-.7 1 0 .54.31.98.7.98.4 0 .7.15.7-.4z" style="fill-rule:evenodd;clip-rule:evenodd;fill:none;stroke:#ed1b2e;stroke-width:.5"/><ellipse cx="53.74" cy="-19.43" rx=".71" ry=".99" style="fill-rule:evenodd;clip-rule:evenodd;fill:none;stroke:#ed1b2e;stroke-width:.5"/><ellipse cx="53.34" cy="-34.73" rx=".71" ry=".99" style="fill-rule:evenodd;clip-rule:evenodd;fill:none;stroke:#ed1b2e;stroke-width:.5"/><ellipse cx="24.24" cy="-22.63" rx=".71" ry=".99" style="fill-rule:evenodd;clip-rule:evenodd;fill:none;stroke:#ed1b2e;stroke-width:.5"/><ellipse cx="43.55" cy="-6.31" rx=".99" ry=".71" style="fill-rule:evenodd;clip-rule:evenodd;fill:none;stroke:#ed1b2e;stroke-width:.5" transform="rotate(-79.14 43.55 -6.31)"/><ellipse cx="20.04" cy="-19.93" rx=".71" ry=".99" style="fill-rule:evenodd;clip-rule:evenodd;fill:none;stroke:#ed1b2e;stroke-width:.5"/><ellipse cx="16.64" cy="-22.6" rx=".99" ry=".71" style="fill-rule:evenodd;clip-rule:evenodd;fill:none;stroke:#ed1b2e;stroke-width:.5" transform="rotate(-66.69 16.64 -22.6)"/><ellipse cx="31.31" cy="-44.78" rx=".99" ry=".71" style="fill-rule:evenodd;clip-rule:evenodd;fill:none;stroke:#ed1b2e;stroke-width:.5" transform="rotate(-66.69 31.3 -44.78)"/><ellipse cx="4.61" cy="-53.59" rx=".99" ry=".71" style="fill-rule:evenodd;clip-rule:evenodd;fill:none;stroke:#ed1b2e;stroke-width:.5" transform="rotate(-66.66 4.61 -53.58)"/><ellipse cx="33.3" cy="-11.87" rx=".71" ry=".99" style="fill-rule:evenodd;clip-rule:evenodd;fill:none;stroke:#ed1b2e;stroke-width:.5"/><ellipse cx="17.56" cy="-2.49" rx=".99" ry=".71" style="fill-rule:evenodd;clip-rule:evenodd;fill:none;stroke:#ed1b2e;stroke-width:.5" transform="rotate(-73.52 17.56 -2.49)"/><ellipse cx="55.14" cy="-4.48" rx=".71" ry=".99" style="fill-rule:evenodd;clip-rule:evenodd;fill:none;stroke:#ed1b2e;stroke-width:.5"/><ellipse cx="52.03" cy="-16.06" rx=".91" ry=".68" style="fill-rule:evenodd;clip-rule:evenodd;fill:none;stroke:#ed1b2e;stroke-width:.5" transform="rotate(-59.08 52.03 -16.06)"/><ellipse cx="40.07" cy="-20.42" rx=".91" ry=".69" style="fill-rule:evenodd;clip-rule:evenodd;fill:none;stroke:#ed1b2e;stroke-width:.5" transform="rotate(-59.07 40.07 -20.42)"/><ellipse cx="59.27" cy="-1.75" rx=".91" ry=".69" style="fill-rule:evenodd;clip-rule:evenodd;fill:none;stroke:#ed1b2e;stroke-width:.5" transform="rotate(-85.7 59.27 -1.75)"/><ellipse cx="14.03" cy="-7.86" rx=".91" ry=".69" style="fill-rule:evenodd;clip-rule:evenodd;fill:none;stroke:#ed1b2e;stroke-width:.5" transform="rotate(-59.12 14.03 -7.86)"/><ellipse cx="25.36" cy="-32.07" rx=".74" ry=".56" style="fill-rule:evenodd;clip-rule:evenodd;fill:none;stroke:#ed1b2e;stroke-width:.5" transform="rotate(-59.11 25.36 -32.07)"/><ellipse cx="14.67" cy="-31.32" rx=".91" ry=".68" style="fill-rule:evenodd;clip-rule:evenodd;fill:none;stroke:#ed1b2e;stroke-width:.5" transform="rotate(-59.08 14.67 -31.32)"/><ellipse cx="19.83" cy="-47.06" rx=".91" ry=".69" style="fill-rule:evenodd;clip-rule:evenodd;fill:none;stroke:#ed1b2e;stroke-width:.5" transform="rotate(-59.12 19.83 -47.05)"/><ellipse cx="8.77" cy="-30.37" rx=".91" ry=".69" style="fill-rule:evenodd;clip-rule:evenodd;fill:none;stroke:#ed1b2e;stroke-width:.5" transform="rotate(-59.06 8.77 -30.37)"/><ellipse cx="7.93" cy="-46.26" rx=".91" ry=".69" style="fill-rule:evenodd;clip-rule:evenodd;fill:none;stroke:#ed1b2e;stroke-width:.5" transform="rotate(-59.1 7.93 -46.26)"/><ellipse cx="35.72" cy="-6.61" rx=".89" ry=".64" style="fill-rule:evenodd;clip-rule:evenodd;fill:none;stroke:#ed1b2e;stroke-width:.5" transform="rotate(-76.05 35.72 -6.6)"/><ellipse cx="3.69" cy="-6.74" rx=".89" ry=".64" style="fill-rule:evenodd;clip-rule:evenodd;fill:none;stroke:#ed1b2e;stroke-width:.5" transform="rotate(-76.05 3.69 -6.74)"/><ellipse cx="56.81" cy="-8.86" rx=".64" ry=".89" style="fill-rule:evenodd;clip-rule:evenodd;fill:none;stroke:#ed1b2e;stroke-width:.5" transform="rotate(-11.57 56.8 -8.86)"/><ellipse cx="1.97" cy="-3.02" rx=".89" ry=".64" style="fill-rule:evenodd;clip-rule:evenodd;fill:none;stroke:#ed1b2e;stroke-width:.5" transform="rotate(-72.11 1.97 -3.02)"/><ellipse cx="8.44" cy="-6.64" rx=".89" ry=".64" style="fill-rule:evenodd;clip-rule:evenodd;fill:none;stroke:#ed1b2e;stroke-width:.5" transform="rotate(-76.06 8.44 -6.64)"/><ellipse cx="15.92" cy="-26.7" rx=".89" ry=".64" style="fill-rule:evenodd;clip-rule:evenodd;fill:none;stroke:#ed1b2e;stroke-width:.5" transform="rotate(-75.97 15.92 -26.7)"/><ellipse cx="11.59" cy="-41.93" rx=".89" ry=".64" style="fill-rule:evenodd;clip-rule:evenodd;fill:none;stroke:#ed1b2e;stroke-width:.5" transform="rotate(-76.02 11.59 -41.93)"/><ellipse cx="3.19" cy="-37.83" rx=".89" ry=".64" style="fill-rule:evenodd;clip-rule:evenodd;fill:none;stroke:#ed1b2e;stroke-width:.5" transform="rotate(-56.24 3.2 -37.83)"/><ellipse cx="23.31" cy="-1.83" rx=".89" ry=".64" style="fill-rule:evenodd;clip-rule:evenodd;fill:none;stroke:#ed1b2e;stroke-width:.5" transform="rotate(-88.02 23.3 -1.83)"/><ellipse cx="34.97" cy="-47.67" rx=".57" ry=".8" style="fill-rule:evenodd;clip-rule:evenodd;fill:none;stroke:#ed1b2e;stroke-width:.5" transform="rotate(-4.58 34.95 -47.64)"/><ellipse cx="40.86" cy="-59.25" rx=".8" ry=".57" style="fill-rule:evenodd;clip-rule:evenodd;fill:none;stroke:#ed1b2e;stroke-width:.5" transform="rotate(-62.17 40.86 -59.25)"/><ellipse cx="46.04" cy="-44.92" rx=".8" ry=".57" style="fill-rule:evenodd;clip-rule:evenodd;fill:none;stroke:#ed1b2e;stroke-width:.5" transform="rotate(-75.97 46.04 -44.92)"/><ellipse cx="50.02" cy="-5.66" rx=".99" ry=".71" style="fill-rule:evenodd;clip-rule:evenodd;fill:none;stroke:#ed1b2e;stroke-width:.5" transform="rotate(-85.41 50.02 -5.66)"/><ellipse cx="26.98" cy="-4.33" rx=".99" ry=".71" style="fill-rule:evenodd;clip-rule:evenodd;fill:none;stroke:#ed1b2e;stroke-width:.5" transform="rotate(-74.37 26.99 -4.33)"/><path d="M22.45-35.27c0 .55.38 1 .85 1s.85-.45.85-1c0-.54-.78-1.2-1.25-1.2s-.45.66-.45 1.2zM27.39-38.5c0-.55-.58-1.64-1.05-1.64-.47 0-.65 1.09-.65 1.63 0 .55.38 1 .85 1 .46 0 .85-.45.85-1zM56.01-59.4c-.5-.23-1.06-.06-1.25.36-.19.43.06.96.56 1.18.5.23 1.72.15 1.92-.28.19-.43-.73-1.04-1.23-1.26z" style="fill-rule:evenodd;clip-rule:evenodd;fill:none;stroke:#ed1b2e;stroke-width:.5"/><ellipse cx="13.44" cy="-3.83" rx=".76" ry=".89" style="fill-rule:evenodd;clip-rule:evenodd;fill:none;stroke:#ed1b2e;stroke-width:.5"/><ellipse cx="46.74" cy="-34.13" rx=".76" ry=".89" style="fill-rule:evenodd;clip-rule:evenodd;fill:none;stroke:#ed1b2e;stroke-width:.5"/><ellipse cx="43.3" cy="-55.57" rx=".76" ry=".89" style="fill-rule:evenodd;clip-rule:evenodd;fill:none;stroke:#ed1b2e;stroke-width:.5"/><ellipse cx="53.2" cy="-53.47" rx=".76" ry=".89" style="fill-rule:evenodd;clip-rule:evenodd;fill:none;stroke:#ed1b2e;stroke-width:.5"/><ellipse cx="32.54" cy="-53.34" rx=".69" ry=".8" style="fill-rule:evenodd;clip-rule:evenodd;fill:none;stroke:#ed1b2e;stroke-width:.5"/><ellipse cx="9.8" cy="-17.27" rx=".89" ry=".76" style="fill-rule:evenodd;clip-rule:evenodd;fill:none;stroke:#ed1b2e;stroke-width:.5" transform="rotate(-68.05 9.8 -17.27)"/><ellipse cx="11.6" cy="-26.4" rx=".99" ry=".57" style="fill-rule:evenodd;clip-rule:evenodd;fill:none;stroke:#ed1b2e;stroke-width:.5" transform="rotate(-50.05 11.6 -26.4)"/><ellipse cx="2.13" cy="-31.13" rx="1.04" ry=".62" style="fill-rule:evenodd;clip-rule:evenodd;fill:none;stroke:#ed1b2e;stroke-width:.5" transform="rotate(-73.01 2.13 -31.13)"/><ellipse cx="55.51" cy="-48.58" rx=".99" ry=".56" style="fill-rule:evenodd;clip-rule:evenodd;fill:none;stroke:#ed1b2e;stroke-width:.5" transform="rotate(-57.56 55.5 -48.57)"/><ellipse cx="13.88" cy="-17.64" rx=".99" ry=".57" style="fill-rule:evenodd;clip-rule:evenodd;fill:none;stroke:#ed1b2e;stroke-width:.5" transform="rotate(-76.91 13.88 -17.64)"/><ellipse cx="26.91" cy="-11.1" rx=".99" ry=".57" style="fill-rule:evenodd;clip-rule:evenodd;fill:none;stroke:#ed1b2e;stroke-width:.5" transform="rotate(-76.95 26.91 -11.1)"/><ellipse cx="43.81" cy="-15.11" rx=".99" ry=".56" style="fill-rule:evenodd;clip-rule:evenodd;fill:none;stroke:#ed1b2e;stroke-width:.5" transform="rotate(-76.93 43.81 -15.1)"/><ellipse cx="52.51" cy="-9.86" rx=".99" ry=".56" style="fill-rule:evenodd;clip-rule:evenodd;fill:none;stroke:#ed1b2e;stroke-width:.5" transform="rotate(-76.93 52.51 -9.86)"/><ellipse cx="47.48" cy="-1.84" rx=".99" ry=".57" style="fill-rule:evenodd;clip-rule:evenodd;fill:none;stroke:#ed1b2e;stroke-width:.5" transform="rotate(-76.89 47.48 -1.84)"/><ellipse cx="51.45" cy="-43.47" rx="1.27" ry=".64" style="fill-rule:evenodd;clip-rule:evenodd;fill:none;stroke:#ed1b2e;stroke-width:.5" transform="rotate(-62.51 51.45 -43.47)"/><ellipse cx="34.77" cy="-30.49" rx="1.15" ry=".57" style="fill-rule:evenodd;clip-rule:evenodd;fill:none;stroke:#ed1b2e;stroke-width:.5" transform="rotate(-62.55 34.77 -30.5)"/><ellipse cx="21.97" cy="-52.89" rx="1.15" ry=".57" style="fill-rule:evenodd;clip-rule:evenodd;fill:none;stroke:#ed1b2e;stroke-width:.5" transform="rotate(-62.48 21.97 -52.9)"/><ellipse cx="50.61" cy="-48.8" rx="1.27" ry=".64" style="fill-rule:evenodd;clip-rule:evenodd;fill:none;stroke:#ed1b2e;stroke-width:.5" transform="rotate(-62.51 50.61 -48.8)"/><path d="M45.26-52.18c-.26-.5-.85-.73-1.1-.6-.25.13-.24.64.02 1.14.26.5.67.8.92.66 1.12-.58.46-.62.16-1.2z" style="fill-rule:evenodd;clip-rule:evenodd;fill:none;stroke:#ed1b2e;stroke-width:.5"/><ellipse cx="24.66" cy="-18.37" rx="1.27" ry=".64" style="fill-rule:evenodd;clip-rule:evenodd;fill:none;stroke:#ed1b2e;stroke-width:.5" transform="rotate(-79.37 24.66 -18.37)"/><ellipse cx="31.31" cy="-25.8" rx="1.27" ry=".64" style="fill-rule:evenodd;clip-rule:evenodd;fill:none;stroke:#ed1b2e;stroke-width:.5" transform="rotate(-62.49 31.31 -25.8)"/><ellipse cx="9.3" cy="-11.39" rx="1.27" ry=".64" style="fill-rule:evenodd;clip-rule:evenodd;fill:none;stroke:#ed1b2e;stroke-width:.5" transform="rotate(-85.29 9.3 -11.4)"/><ellipse cx="2.75" cy="-25.68" rx="1.02" ry=".51" style="fill-rule:evenodd;clip-rule:evenodd;fill:none;stroke:#ed1b2e;stroke-width:.5" transform="rotate(-67.72 2.75 -25.68)"/><ellipse cx="14.81" cy="-47.32" rx="1.02" ry=".51" style="fill-rule:evenodd;clip-rule:evenodd;fill:none;stroke:#ed1b2e;stroke-width:.5" transform="rotate(-67.72 14.82 -47.32)"/><ellipse cx="43.33" cy="-21.09" rx=".81" ry=".41" style="fill-rule:evenodd;clip-rule:evenodd;fill:none;stroke:#ed1b2e;stroke-width:.5" transform="rotate(-67.71 43.33 -21.1)"/><circle cx="11.64" cy="-36.03" r=".89" style="fill-rule:evenodd;clip-rule:evenodd;fill:none;stroke:#ed1b2e;stroke-width:.5"/><ellipse cx="18.53" cy="-51.14" rx=".86" ry=".52" style="fill-rule:evenodd;clip-rule:evenodd;fill:none;stroke:#ed1b2e;stroke-width:.5" transform="rotate(-69.08 18.53 -51.14)"/><ellipse cx="19.04" cy="-11.9" rx=".86" ry=".52" style="fill-rule:evenodd;clip-rule:evenodd;fill:none;stroke:#ed1b2e;stroke-width:.5" transform="rotate(-62.59 19.04 -11.9)"/><ellipse cx="21.59" cy="-29.48" rx=".86" ry=".52" style="fill-rule:evenodd;clip-rule:evenodd;fill:none;stroke:#ed1b2e;stroke-width:.5" transform="rotate(-69.05 21.6 -29.48)"/><ellipse cx="1.29" cy="-15.78" rx=".86" ry=".52" style="fill-rule:evenodd;clip-rule:evenodd;fill:none;stroke:#ed1b2e;stroke-width:.5" transform="rotate(-69.08 1.3 -15.78)"/><path d="M27.97-14.34c.2.33.62.54.93.46.32-.07.41-.4.21-.74-.2-.34-.62-.55-.93-.47-.32.08-.41.41-.21.75zM24.1-6.88c.32-.07.4-.4.21-.74-.2-.34-.62-.55-.94-.47-.31.08-.4.41-.2.75.2.33.62.54.93.46z" style="fill-rule:evenodd;clip-rule:evenodd;fill:none;stroke:#ed1b2e;stroke-width:.5"/><ellipse cx="59.5" cy="-28.62" rx=".86" ry=".52" style="fill-rule:evenodd;clip-rule:evenodd;fill:none;stroke:#ed1b2e;stroke-width:.5" transform="rotate(-65.16 59.5 -28.62)"/><ellipse cx="49.64" cy="-12.73" rx=".86" ry=".52" style="fill-rule:evenodd;clip-rule:evenodd;fill:none;stroke:#ed1b2e;stroke-width:.5" transform="rotate(-85.82 49.64 -12.73)"/><ellipse cx="36.57" cy="-15.5" rx=".86" ry=".52" style="fill-rule:evenodd;clip-rule:evenodd;fill:none;stroke:#ed1b2e;stroke-width:.5" transform="rotate(-85.83 36.57 -15.5)"/><circle cx="48.18" cy="-42.11" r=".38" style="fill-rule:evenodd;clip-rule:evenodd;fill:none;stroke:#ed1b2e;stroke-width:.5;stroke-linecap:round;stroke-linejoin:round"/><circle cx="50.5" cy="-36.86" r=".38" style="fill-rule:evenodd;clip-rule:evenodd;fill:none;stroke:#ed1b2e;stroke-width:.5;stroke-linecap:round;stroke-linejoin:round"/><circle cx="40.84" cy="-33.42" r=".38" style="fill-rule:evenodd;clip-rule:evenodd;fill:none;stroke:#ed1b2e;stroke-width:.5;stroke-linecap:round;stroke-linejoin:round"/><circle cx="55.7" cy="-32.26" r=".38" style="fill-rule:evenodd;clip-rule:evenodd;fill:none;stroke:#ed1b2e;stroke-width:.5;stroke-linecap:round;stroke-linejoin:round"/><circle cx="27.5" cy="-34.86" r=".38" style="fill-rule:evenodd;clip-rule:evenodd;fill:none;stroke:#ed1b2e;stroke-width:.5;stroke-linecap:round;stroke-linejoin:round"/><circle cx="50.65" cy="-27.91" r=".38" style="fill-rule:evenodd;clip-rule:evenodd;fill:none;stroke:#ed1b2e;stroke-width:.5;stroke-linecap:round;stroke-linejoin:round"/><circle cx="34.54" cy="-26.62" r=".38" style="fill-rule:evenodd;clip-rule:evenodd;fill:none;stroke:#ed1b2e;stroke-width:.5;stroke-linecap:round;stroke-linejoin:round"/><circle cx="19.44" cy="-26.32" r=".38" style="fill-rule:evenodd;clip-rule:evenodd;fill:none;stroke:#ed1b2e;stroke-width:.5;stroke-linecap:round;stroke-linejoin:round"/><circle cx="39.84" cy="-14.72" r=".38" style="fill-rule:evenodd;clip-rule:evenodd;fill:none;stroke:#ed1b2e;stroke-width:.5;stroke-linecap:round;stroke-linejoin:round"/><circle cx="47.24" cy="-16.62" r=".38" style="fill-rule:evenodd;clip-rule:evenodd;fill:none;stroke:#ed1b2e;stroke-width:.5;stroke-linecap:round;stroke-linejoin:round"/><circle cx="46.84" cy="-6.72" r=".38" style="fill-rule:evenodd;clip-rule:evenodd;fill:none;stroke:#ed1b2e;stroke-width:.5;stroke-linecap:round;stroke-linejoin:round"/><circle cx="43.74" cy="-1.92" r=".38" style="fill-rule:evenodd;clip-rule:evenodd;fill:none;stroke:#ed1b2e;stroke-width:.5;stroke-linecap:round;stroke-linejoin:round"/><circle cx="6.85" cy="-15.46" r=".38" style="fill-rule:evenodd;clip-rule:evenodd;fill:none;stroke:#ed1b2e;stroke-width:.5;stroke-linecap:round;stroke-linejoin:round"/><circle cx="5.5" cy="-9.76" r=".38" style="fill-rule:evenodd;clip-rule:evenodd;fill:none;stroke:#ed1b2e;stroke-width:.5;stroke-linecap:round;stroke-linejoin:round"/><circle cx="13.42" cy="-38.7" r=".38" style="fill-rule:evenodd;clip-rule:evenodd;fill:none;stroke:#ed1b2e;stroke-width:.5;stroke-linecap:round;stroke-linejoin:round"/><circle cx="1.7" cy="-51.86" r=".38" style="fill-rule:evenodd;clip-rule:evenodd;fill:none;stroke:#ed1b2e;stroke-width:.5;stroke-linecap:round;stroke-linejoin:round"/><circle cx="6.5" cy="-43.46" r=".38" style="fill-rule:evenodd;clip-rule:evenodd;fill:none;stroke:#ed1b2e;stroke-width:.5;stroke-linecap:round;stroke-linejoin:round"/><circle cx="48.54" cy="-52.42" r=".38" style="fill-rule:evenodd;clip-rule:evenodd;fill:none;stroke:#ed1b2e;stroke-width:.5;stroke-linecap:round;stroke-linejoin:round"/><path d="M28.5-60.55c-.03.42-.27.76-.56.76-.3 0-.54-.34-.57-.77M28.5-.08v-.08c0-.47-.25-.85-.56-.85-.32 0-.57.38-.57.85v.08M10.7-60.55c-.03.42-.27.76-.56.76-.3 0-.54-.34-.57-.77M10.7-.08v-.08c0-.47-.25-.85-.56-.85-.32 0-.57.38-.57.85v.08M37.26-60.55c-.04.42-.34.76-.7.76-.38 0-.68-.34-.71-.77M37.26-.08v-.08c0-.47-.32-.85-.7-.85-.4 0-.72.38-.72.85v.08M52.99-60.55c-.04.42-.34.76-.7.76-.37 0-.67-.34-.7-.77M52.99-.08v-.08c0-.47-.31-.85-.7-.85-.4 0-.71.38-.71.85v.08M60.7-24.02a.38.38 0 0 0-.09-.01c-.33 0-.6.44-.6.99 0 .54.27.99.6.99l.1-.01M.22-22.06c.3-.07.51-.48.51-.98s-.22-.9-.5-.98M60.7-42.57a.34.34 0 0 0-.09-.01c-.33 0-.6.44-.6.99s.27.99.6.99l.1-.01M.22-40.61c.3-.07.51-.48.51-.98s-.22-.9-.5-.98M60.7-10.47l-.09-.01c-.33 0-.6.44-.6.99s.27.99.6.99l.1-.01M.22-8.51c.3-.07.51-.48.51-.98s-.22-.9-.5-.98M60.7-58.95a.34.34 0 0 0-.09-.02c-.33 0-.6.45-.6 1 0 .54.27.98.6.98h.1M.22-57c.3-.07.51-.48.51-.98s-.22-.9-.5-.98" style="fill-rule:evenodd;clip-rule:evenodd;fill:none;stroke:#ed1b2e;stroke-width:.5"/></svg>