<svg xmlns="http://www.w3.org/2000/svg" xml:space="preserve" width="60.48" height="60.48" viewBox="2 -62.48 60.48 60.48"><path d="M2-62.48h60.48V-2H2z" style="fill:none"/><path d="M4.89-49.8c.43.54 1.05.76 1.4.48.33-.27.55-1.1.13-1.65-.43-.53-1.35-.57-1.69-.3-.34.28-.27.94.16 1.48z" style="fill-rule:evenodd;clip-rule:evenodd;fill:none;stroke:#ec008c;stroke-width:.5"/><ellipse cx="60.03" cy="-37.11" rx="1.12" ry=".71" style="fill-rule:evenodd;clip-rule:evenodd;fill:none;stroke:#ec008c;stroke-width:.5" transform="rotate(-69.76 60.03 -37.12)"/><ellipse cx="39.23" cy="-25.61" rx="1.12" ry=".71" style="fill-rule:evenodd;clip-rule:evenodd;fill:none;stroke:#ec008c;stroke-width:.5" transform="rotate(-69.77 39.23 -25.62)"/><path d="M46.52-30.86c.51-.15.3-.79 0-1.4-.3-.62-.57-.98-1.09-.83-.52.14-.7.76-.4 1.38.3.6.97.99 1.49.85z" style="fill-rule:evenodd;clip-rule:evenodd;fill:none;stroke:#ec008c;stroke-width:.5"/><ellipse cx="29.31" cy="-57.02" rx="1.24" ry=".79" style="fill-rule:evenodd;clip-rule:evenodd;fill:none;stroke:#ec008c;stroke-width:.5" transform="rotate(-58.38 29.31 -57.03)"/><ellipse cx="56.06" cy="-41.02" rx="1.25" ry=".79" style="fill-rule:evenodd;clip-rule:evenodd;fill:none;stroke:#ec008c;stroke-width:.5" transform="rotate(-58.37 56.06 -41.03)"/><ellipse cx="9.73" cy="-41.42" rx="1.24" ry=".79" style="fill-rule:evenodd;clip-rule:evenodd;fill:none;stroke:#ec008c;stroke-width:.5" transform="rotate(-37.41 9.73 -41.42)"/><path d="M11.18-53.4c-.37.23-.78.77-.42 1.35.35.59.95.88 1.32.65.37-.23.46-1.11.1-1.7-.36-.59-.63-.53-1-.3z" style="fill-rule:evenodd;clip-rule:evenodd;fill:none;stroke:#ec008c;stroke-width:.5"/><ellipse cx="6.25" cy="-21.52" rx="1.24" ry=".79" style="fill-rule:evenodd;clip-rule:evenodd;fill:none;stroke:#ec008c;stroke-width:.5" transform="rotate(-67.8 6.25 -21.52)"/><ellipse cx="14.91" cy="-14.58" rx="1.25" ry=".79" style="fill-rule:evenodd;clip-rule:evenodd;fill:none;stroke:#ec008c;stroke-width:.5" transform="rotate(-51.84 14.91 -14.58)"/><ellipse cx="30.81" cy="-32.45" rx="1.24" ry=".79" style="fill-rule:evenodd;clip-rule:evenodd;fill:none;stroke:#ec008c;stroke-width:.5" transform="rotate(-60.85 30.81 -32.45)"/><ellipse cx="18.27" cy="-38.69" rx="1.24" ry=".79" style="fill-rule:evenodd;clip-rule:evenodd;fill:none;stroke:#ec008c;stroke-width:.5" transform="rotate(-60.86 18.28 -38.69)"/><ellipse cx="41.3" cy="-6.01" rx="1.24" ry=".79" style="fill-rule:evenodd;clip-rule:evenodd;fill:none;stroke:#ec008c;stroke-width:.5" transform="rotate(-89.29 41.3 -6)"/><ellipse cx="22.95" cy="-42.45" rx=".79" ry="1.25" style="fill-rule:evenodd;clip-rule:evenodd;fill:none;stroke:#ec008c;stroke-width:.5" transform="rotate(-18.08 22.95 -42.45)"/><path d="M10.31-58.86c-.33-.6-1.32-.9-1.7-.68-.39.22-.43.87-.1 1.48.34.6.92.9 1.3.7.39-.22.84-.9.5-1.5z" style="fill-rule:evenodd;clip-rule:evenodd;fill:none;stroke:#ec008c;stroke-width:.5"/><ellipse cx="27.77" cy="-49.2" rx=".71" ry="1.12" style="fill-rule:evenodd;clip-rule:evenodd;fill:none;stroke:#ec008c;stroke-width:.5" transform="rotate(-8.09 27.77 -49.2)"/><ellipse cx="60.46" cy="-53.3" rx="1.12" ry=".71" style="fill-rule:evenodd;clip-rule:evenodd;fill:none;stroke:#ec008c;stroke-width:.5" transform="rotate(-78.62 60.46 -53.3)"/><ellipse cx="24.41" cy="-13.81" rx="1.24" ry=".79" style="fill-rule:evenodd;clip-rule:evenodd;fill:none;stroke:#ec008c;stroke-width:.5" transform="rotate(-89.86 24.41 -13.8)"/><ellipse cx="41.37" cy="-12.4" rx="1.24" ry=".79" style="fill-rule:evenodd;clip-rule:evenodd;fill:none;stroke:#ec008c;stroke-width:.5" transform="rotate(-75.36 41.37 -12.4)"/><ellipse cx="32.8" cy="-8.74" rx="1.24" ry=".79" style="fill-rule:evenodd;clip-rule:evenodd;fill:none;stroke:#ec008c;stroke-width:.5" transform="rotate(-70.41 32.8 -8.74)"/><ellipse cx="4.7" cy="-46.58" rx=".51" ry=".71" style="fill-rule:evenodd;clip-rule:evenodd;fill:none;stroke:#ec008c;stroke-width:.5" transform="rotate(-25.04 4.7 -46.58)"/><ellipse cx="8.37" cy="-4.2" rx=".71" ry=".51" style="fill-rule:evenodd;clip-rule:evenodd;fill:none;stroke:#ec008c;stroke-width:.5" transform="rotate(-81.35 8.37 -4.2)"/><ellipse cx="6.08" cy="-15.16" rx=".51" ry=".71" style="fill-rule:evenodd;clip-rule:evenodd;fill:none;stroke:#ec008c;stroke-width:.5"/><ellipse cx="26.88" cy="-44.71" rx=".51" ry=".71" style="fill-rule:evenodd;clip-rule:evenodd;fill:none;stroke:#ec008c;stroke-width:.5"/><ellipse cx="19.78" cy="-60.61" rx=".51" ry=".71" style="fill-rule:evenodd;clip-rule:evenodd;fill:none;stroke:#ec008c;stroke-width:.5"/><ellipse cx="58.41" cy="-24.58" rx=".51" ry=".71" style="fill-rule:evenodd;clip-rule:evenodd;fill:none;stroke:#ec008c;stroke-width:.5"/><ellipse cx="47.02" cy="-27.18" rx=".51" ry=".71" style="fill-rule:evenodd;clip-rule:evenodd;fill:none;stroke:#ec008c;stroke-width:.5"/><ellipse cx="34.41" cy="-4.58" rx=".51" ry=".71" style="fill-rule:evenodd;clip-rule:evenodd;fill:none;stroke:#ec008c;stroke-width:.5"/><ellipse cx="21.48" cy="-35.11" rx=".51" ry=".71" style="fill-rule:evenodd;clip-rule:evenodd;fill:none;stroke:#ec008c;stroke-width:.5"/><ellipse cx="44.31" cy="-38.18" rx=".51" ry=".71" style="fill-rule:evenodd;clip-rule:evenodd;fill:none;stroke:#ec008c;stroke-width:.5"/><ellipse cx="31.74" cy="-42.42" rx=".71" ry=".51" style="fill-rule:evenodd;clip-rule:evenodd;fill:none;stroke:#ec008c;stroke-width:.5" transform="rotate(-61.22 31.74 -42.42)"/><ellipse cx="40.12" cy="-33.78" rx=".51" ry=".71" style="fill-rule:evenodd;clip-rule:evenodd;fill:none;stroke:#ec008c;stroke-width:.5"/><ellipse cx="39.23" cy="-57.61" rx=".51" ry=".71" style="fill-rule:evenodd;clip-rule:evenodd;fill:none;stroke:#ec008c;stroke-width:.5"/><ellipse cx="11.86" cy="-24.46" rx=".51" ry=".71" style="fill-rule:evenodd;clip-rule:evenodd;fill:none;stroke:#ec008c;stroke-width:.5"/><ellipse cx="27.68" cy="-28.71" rx=".51" ry=".71" style="fill-rule:evenodd;clip-rule:evenodd;fill:none;stroke:#ec008c;stroke-width:.5"/><ellipse cx="46.34" cy="-12.9" rx=".71" ry=".51" style="fill-rule:evenodd;clip-rule:evenodd;fill:none;stroke:#ec008c;stroke-width:.5" transform="rotate(-78.97 46.35 -12.9)"/><ellipse cx="45.08" cy="-44.11" rx=".51" ry=".71" style="fill-rule:evenodd;clip-rule:evenodd;fill:none;stroke:#ec008c;stroke-width:.5"/><ellipse cx="38.68" cy="-45.71" rx=".51" ry=".71" style="fill-rule:evenodd;clip-rule:evenodd;fill:none;stroke:#ec008c;stroke-width:.5"/><ellipse cx="40.55" cy="-42.43" rx=".78" ry=".56" style="fill-rule:evenodd;clip-rule:evenodd;fill:none;stroke:#ec008c;stroke-width:.5" transform="rotate(-78.02 40.55 -42.43)"/><ellipse cx="59.61" cy="-56.94" rx=".78" ry=".56" style="fill-rule:evenodd;clip-rule:evenodd;fill:none;stroke:#ec008c;stroke-width:.5" transform="rotate(-69.81 59.6 -56.93)"/><ellipse cx="31.35" cy="-51.73" rx=".78" ry=".56" style="fill-rule:evenodd;clip-rule:evenodd;fill:none;stroke:#ec008c;stroke-width:.5" transform="rotate(-78.01 31.35 -51.73)"/><ellipse cx="41.55" cy="-29.03" rx=".78" ry=".56" style="fill-rule:evenodd;clip-rule:evenodd;fill:none;stroke:#ec008c;stroke-width:.5" transform="rotate(-78.03 41.55 -29.03)"/><path d="M7.83-35.24c.42-.07.66-.48.53-.92-.12-.44-.56-.74-.98-.67-.42.06-.66.47-.54.91.13.44.57.75.99.68z" style="fill-rule:evenodd;clip-rule:evenodd;fill:none;stroke:#ec008c;stroke-width:.5"/><ellipse cx="43.13" cy="-51.55" rx=".71" ry=".51" style="fill-rule:evenodd;clip-rule:evenodd;fill:none;stroke:#ec008c;stroke-width:.5" transform="rotate(-65.58 43.14 -51.55)"/><ellipse cx="14.91" cy="-54.88" rx=".51" ry=".71" style="fill-rule:evenodd;clip-rule:evenodd;fill:none;stroke:#ec008c;stroke-width:.5"/><ellipse cx="50.88" cy="-32.71" rx=".51" ry=".71" style="fill-rule:evenodd;clip-rule:evenodd;fill:none;stroke:#ec008c;stroke-width:.5"/><ellipse cx="60.12" cy="-15.18" rx=".51" ry=".71" style="fill-rule:evenodd;clip-rule:evenodd;fill:none;stroke:#ec008c;stroke-width:.5"/><ellipse cx="34.27" cy="-18.43" rx=".51" ry=".71" style="fill-rule:evenodd;clip-rule:evenodd;fill:none;stroke:#ec008c;stroke-width:.5"/><ellipse cx="51.97" cy="-57.96" rx=".71" ry=".51" style="fill-rule:evenodd;clip-rule:evenodd;fill:none;stroke:#ec008c;stroke-width:.5" transform="rotate(-78.58 51.97 -57.97)"/><ellipse cx="37.94" cy="-37.9" rx=".71" ry=".51" style="fill-rule:evenodd;clip-rule:evenodd;fill:none;stroke:#ec008c;stroke-width:.5" transform="rotate(-78.5 37.94 -37.9)"/><ellipse cx="30.52" cy="-23.23" rx=".51" ry=".71" style="fill-rule:evenodd;clip-rule:evenodd;fill:none;stroke:#ec008c;stroke-width:.5"/><ellipse cx="8.56" cy="-27.76" rx=".51" ry=".71" style="fill-rule:evenodd;clip-rule:evenodd;fill:none;stroke:#ec008c;stroke-width:.5"/><ellipse cx="19.57" cy="-18" rx=".51" ry=".71" style="fill-rule:evenodd;clip-rule:evenodd;fill:none;stroke:#ec008c;stroke-width:.5"/><ellipse cx="50.02" cy="-21.38" rx=".51" ry=".71" style="fill-rule:evenodd;clip-rule:evenodd;fill:none;stroke:#ec008c;stroke-width:.5"/><ellipse cx="56.27" cy="-27.68" rx=".71" ry=".51" style="fill-rule:evenodd;clip-rule:evenodd;fill:none;stroke:#ec008c;stroke-width:.5" transform="rotate(-72.52 56.27 -27.68)"/><ellipse cx="18.52" cy="-44.65" rx=".71" ry=".99" style="fill-rule:evenodd;clip-rule:evenodd;fill:none;stroke:#ec008c;stroke-width:.5"/><ellipse cx="55.87" cy="-31.29" rx=".89" ry=".64" style="fill-rule:evenodd;clip-rule:evenodd;fill:none;stroke:#ec008c;stroke-width:.5" transform="rotate(-89.17 55.87 -31.29)"/><path d="M20.27-7.92c.3.5.84.73 1.21.52.37-.2.42-.78.12-1.27-.3-.5-.85-.73-1.22-.52-.37.2-.42.78-.11 1.27zM36.05-23.05c-.14-.62-.56-1-.94-.83-.37.17-.57.8-.43 1.43.14.63.56 1 .94.84.37-.17.57-.81.43-1.44zM51.51-27.93c-.37.17-.57.8-.43 1.43.14.63.56 1 .94.84.37-.17.56-.81.43-1.44-.14-.62-.56-1-.94-.83zM59.33-19.01c.17.56.56.86.85.68.3-.19.4-.79.22-1.34-.17-.56-.56-.86-.85-.68-.3.18-.4.78-.22 1.34z" style="fill-rule:evenodd;clip-rule:evenodd;fill:none;stroke:#ec008c;stroke-width:.5"/><ellipse cx="36.47" cy="-41.99" rx=".99" ry=".71" style="fill-rule:evenodd;clip-rule:evenodd;fill:none;stroke:#ec008c;stroke-width:.5" transform="rotate(-56.32 36.47 -41.99)"/><ellipse cx="48.87" cy="-40.89" rx=".99" ry=".71" style="fill-rule:evenodd;clip-rule:evenodd;fill:none;stroke:#ec008c;stroke-width:.5" transform="rotate(-56.38 48.87 -40.89)"/><ellipse cx="48.37" cy="-60.13" rx=".71" ry=".99" style="fill-rule:evenodd;clip-rule:evenodd;fill:none;stroke:#ec008c;stroke-width:.5" transform="rotate(-8.19 48.36 -60.13)"/><ellipse cx="58.67" cy="-45.99" rx=".99" ry=".71" style="fill-rule:evenodd;clip-rule:evenodd;fill:none;stroke:#ec008c;stroke-width:.5" transform="rotate(-56.34 58.67 -45.99)"/><ellipse cx="44.17" cy="-47.99" rx=".99" ry=".71" style="fill-rule:evenodd;clip-rule:evenodd;fill:none;stroke:#ec008c;stroke-width:.5" transform="rotate(-56.34 44.17 -47.99)"/><ellipse cx="39.31" cy="-53.02" rx=".99" ry=".71" style="fill-rule:evenodd;clip-rule:evenodd;fill:none;stroke:#ec008c;stroke-width:.5" transform="rotate(-68.11 39.31 -53.02)"/><ellipse cx="34.33" cy="-59.62" rx=".99" ry=".71" style="fill-rule:evenodd;clip-rule:evenodd;fill:none;stroke:#ec008c;stroke-width:.5" transform="rotate(-56.37 34.33 -59.62)"/><ellipse cx="25.17" cy="-59.49" rx=".99" ry=".71" style="fill-rule:evenodd;clip-rule:evenodd;fill:none;stroke:#ec008c;stroke-width:.5" transform="rotate(-56.32 25.17 -59.48)"/><ellipse cx="5.53" cy="-61.17" rx=".99" ry=".71" style="fill-rule:evenodd;clip-rule:evenodd;fill:none;stroke:#ec008c;stroke-width:.5" transform="rotate(-56.35 5.53 -61.17)"/><ellipse cx="32.81" cy="-38.65" rx=".71" ry=".99" style="fill-rule:evenodd;clip-rule:evenodd;fill:none;stroke:#ec008c;stroke-width:.5"/><ellipse cx="18.82" cy="-56.85" rx=".71" ry=".99" style="fill-rule:evenodd;clip-rule:evenodd;fill:none;stroke:#ec008c;stroke-width:.5"/><path d="M15.58-59c0-.55-.31-1.58-.7-1.58-.39 0-.7.44-.7 1 0 .54.31.98.7.98.4 0 .7.15.7-.4z" style="fill-rule:evenodd;clip-rule:evenodd;fill:none;stroke:#ec008c;stroke-width:.5"/><ellipse cx="55.52" cy="-21.35" rx=".71" ry=".99" style="fill-rule:evenodd;clip-rule:evenodd;fill:none;stroke:#ec008c;stroke-width:.5"/><ellipse cx="55.12" cy="-36.65" rx=".71" ry=".99" style="fill-rule:evenodd;clip-rule:evenodd;fill:none;stroke:#ec008c;stroke-width:.5"/><ellipse cx="26.02" cy="-24.55" rx=".71" ry=".99" style="fill-rule:evenodd;clip-rule:evenodd;fill:none;stroke:#ec008c;stroke-width:.5"/><ellipse cx="45.33" cy="-8.24" rx=".99" ry=".71" style="fill-rule:evenodd;clip-rule:evenodd;fill:none;stroke:#ec008c;stroke-width:.5" transform="rotate(-79.14 45.33 -8.23)"/><ellipse cx="21.82" cy="-21.85" rx=".71" ry=".99" style="fill-rule:evenodd;clip-rule:evenodd;fill:none;stroke:#ec008c;stroke-width:.5"/><ellipse cx="18.42" cy="-24.52" rx=".99" ry=".71" style="fill-rule:evenodd;clip-rule:evenodd;fill:none;stroke:#ec008c;stroke-width:.5" transform="rotate(-66.69 18.42 -24.52)"/><ellipse cx="33.09" cy="-46.71" rx=".99" ry=".71" style="fill-rule:evenodd;clip-rule:evenodd;fill:none;stroke:#ec008c;stroke-width:.5" transform="rotate(-66.65 33.09 -46.7)"/><ellipse cx="6.39" cy="-55.51" rx=".99" ry=".71" style="fill-rule:evenodd;clip-rule:evenodd;fill:none;stroke:#ec008c;stroke-width:.5" transform="rotate(-66.65 6.39 -55.5)"/><ellipse cx="35.08" cy="-13.79" rx=".71" ry=".99" style="fill-rule:evenodd;clip-rule:evenodd;fill:none;stroke:#ec008c;stroke-width:.5"/><ellipse cx="19.34" cy="-4.41" rx=".99" ry=".71" style="fill-rule:evenodd;clip-rule:evenodd;fill:none;stroke:#ec008c;stroke-width:.5" transform="rotate(-73.52 19.34 -4.41)"/><ellipse cx="56.91" cy="-6.4" rx=".71" ry=".99" style="fill-rule:evenodd;clip-rule:evenodd;fill:none;stroke:#ec008c;stroke-width:.5"/><ellipse cx="53.81" cy="-17.98" rx=".91" ry=".69" style="fill-rule:evenodd;clip-rule:evenodd;fill:none;stroke:#ec008c;stroke-width:.5" transform="rotate(-59.12 53.8 -17.98)"/><ellipse cx="41.85" cy="-22.35" rx=".91" ry=".69" style="fill-rule:evenodd;clip-rule:evenodd;fill:none;stroke:#ec008c;stroke-width:.5" transform="rotate(-59.02 41.85 -22.35)"/><ellipse cx="61.05" cy="-3.67" rx=".91" ry=".69" style="fill-rule:evenodd;clip-rule:evenodd;fill:none;stroke:#ec008c;stroke-width:.5" transform="rotate(-85.67 61.05 -3.67)"/><ellipse cx="15.81" cy="-9.78" rx=".91" ry=".69" style="fill-rule:evenodd;clip-rule:evenodd;fill:none;stroke:#ec008c;stroke-width:.5" transform="rotate(-59.05 15.81 -9.78)"/><ellipse cx="27.14" cy="-34" rx=".74" ry=".55" style="fill-rule:evenodd;clip-rule:evenodd;fill:none;stroke:#ec008c;stroke-width:.5" transform="rotate(-59.06 27.14 -34)"/><ellipse cx="16.45" cy="-33.25" rx=".91" ry=".69" style="fill-rule:evenodd;clip-rule:evenodd;fill:none;stroke:#ec008c;stroke-width:.5" transform="rotate(-59.07 16.45 -33.24)"/><ellipse cx="21.61" cy="-48.98" rx=".91" ry=".68" style="fill-rule:evenodd;clip-rule:evenodd;fill:none;stroke:#ec008c;stroke-width:.5" transform="rotate(-59.04 21.61 -48.98)"/><ellipse cx="10.55" cy="-32.3" rx=".91" ry=".69" style="fill-rule:evenodd;clip-rule:evenodd;fill:none;stroke:#ec008c;stroke-width:.5" transform="rotate(-59.1 10.55 -32.3)"/><ellipse cx="9.71" cy="-48.18" rx=".91" ry=".68" style="fill-rule:evenodd;clip-rule:evenodd;fill:none;stroke:#ec008c;stroke-width:.5" transform="rotate(-59.04 9.71 -48.18)"/><ellipse cx="37.5" cy="-8.53" rx=".89" ry=".64" style="fill-rule:evenodd;clip-rule:evenodd;fill:none;stroke:#ec008c;stroke-width:.5" transform="rotate(-76.06 37.5 -8.53)"/><ellipse cx="5.46" cy="-8.66" rx=".89" ry=".64" style="fill-rule:evenodd;clip-rule:evenodd;fill:none;stroke:#ec008c;stroke-width:.5" transform="rotate(-76.06 5.46 -8.66)"/><ellipse cx="58.59" cy="-10.79" rx=".64" ry=".89" style="fill-rule:evenodd;clip-rule:evenodd;fill:none;stroke:#ec008c;stroke-width:.5" transform="rotate(-11.55 58.58 -10.78)"/><ellipse cx="3.75" cy="-4.94" rx=".89" ry=".64" style="fill-rule:evenodd;clip-rule:evenodd;fill:none;stroke:#ec008c;stroke-width:.5" transform="rotate(-72.18 3.75 -4.94)"/><ellipse cx="10.21" cy="-8.56" rx=".89" ry=".64" style="fill-rule:evenodd;clip-rule:evenodd;fill:none;stroke:#ec008c;stroke-width:.5" transform="rotate(-76.05 10.21 -8.56)"/><ellipse cx="17.7" cy="-28.63" rx=".89" ry=".64" style="fill-rule:evenodd;clip-rule:evenodd;fill:none;stroke:#ec008c;stroke-width:.5" transform="rotate(-76.06 17.7 -28.63)"/><ellipse cx="13.37" cy="-43.86" rx=".89" ry=".64" style="fill-rule:evenodd;clip-rule:evenodd;fill:none;stroke:#ec008c;stroke-width:.5" transform="rotate(-75.97 13.37 -43.86)"/><ellipse cx="4.97" cy="-39.75" rx=".89" ry=".64" style="fill-rule:evenodd;clip-rule:evenodd;fill:none;stroke:#ec008c;stroke-width:.5" transform="rotate(-56.21 4.97 -39.76)"/><ellipse cx="25.09" cy="-3.75" rx=".89" ry=".64" style="fill-rule:evenodd;clip-rule:evenodd;fill:none;stroke:#ec008c;stroke-width:.5" transform="rotate(-88.02 25.09 -3.75)"/><ellipse cx="36.74" cy="-49.6" rx=".57" ry=".8" style="fill-rule:evenodd;clip-rule:evenodd;fill:none;stroke:#ec008c;stroke-width:.5" transform="rotate(-4.54 36.76 -49.62)"/><ellipse cx="42.64" cy="-61.17" rx=".8" ry=".57" style="fill-rule:evenodd;clip-rule:evenodd;fill:none;stroke:#ec008c;stroke-width:.5" transform="rotate(-62.17 42.64 -61.18)"/><ellipse cx="47.82" cy="-46.84" rx=".8" ry=".57" style="fill-rule:evenodd;clip-rule:evenodd;fill:none;stroke:#ec008c;stroke-width:.5" transform="rotate(-75.97 47.82 -46.84)"/><ellipse cx="51.8" cy="-7.59" rx=".99" ry=".71" style="fill-rule:evenodd;clip-rule:evenodd;fill:none;stroke:#ec008c;stroke-width:.5" transform="rotate(-85.41 51.8 -7.59)"/><ellipse cx="28.76" cy="-6.25" rx=".99" ry=".71" style="fill-rule:evenodd;clip-rule:evenodd;fill:none;stroke:#ec008c;stroke-width:.5" transform="rotate(-74.38 28.76 -6.25)"/><path d="M24.23-37.19c0 .55.38 1 .85 1s.85-.45.85-1-.78-1.2-1.25-1.2-.45.65-.45 1.2zM29.16-40.43c0-.55-.58-1.63-1.04-1.63-.47 0-.65 1.08-.65 1.63 0 .55.38 1 .85 1 .46 0 .84-.45.84-1zM57.8-61.33c-.5-.22-1.07-.06-1.26.37-.2.43.06.95.55 1.18.5.23 1.73.14 1.93-.28.19-.43-.73-1.04-1.23-1.27z" style="fill-rule:evenodd;clip-rule:evenodd;fill:none;stroke:#ec008c;stroke-width:.5"/><ellipse cx="15.21" cy="-5.75" rx=".76" ry=".89" style="fill-rule:evenodd;clip-rule:evenodd;fill:none;stroke:#ec008c;stroke-width:.5"/><ellipse cx="48.52" cy="-36.05" rx=".76" ry=".89" style="fill-rule:evenodd;clip-rule:evenodd;fill:none;stroke:#ec008c;stroke-width:.5"/><ellipse cx="45.08" cy="-57.49" rx=".76" ry=".89" style="fill-rule:evenodd;clip-rule:evenodd;fill:none;stroke:#ec008c;stroke-width:.5"/><ellipse cx="54.98" cy="-55.39" rx=".76" ry=".89" style="fill-rule:evenodd;clip-rule:evenodd;fill:none;stroke:#ec008c;stroke-width:.5"/><ellipse cx="34.31" cy="-55.27" rx=".69" ry=".8" style="fill-rule:evenodd;clip-rule:evenodd;fill:none;stroke:#ec008c;stroke-width:.5"/><ellipse cx="11.58" cy="-19.19" rx=".89" ry=".76" style="fill-rule:evenodd;clip-rule:evenodd;fill:none;stroke:#ec008c;stroke-width:.5" transform="rotate(-68.02 11.58 -19.19)"/><ellipse cx="13.38" cy="-28.32" rx=".99" ry=".57" style="fill-rule:evenodd;clip-rule:evenodd;fill:none;stroke:#ec008c;stroke-width:.5" transform="rotate(-50.05 13.38 -28.32)"/><ellipse cx="3.91" cy="-33.05" rx="1.04" ry=".62" style="fill-rule:evenodd;clip-rule:evenodd;fill:none;stroke:#ec008c;stroke-width:.5" transform="rotate(-73.03 3.91 -33.06)"/><ellipse cx="57.28" cy="-50.5" rx=".99" ry=".57" style="fill-rule:evenodd;clip-rule:evenodd;fill:none;stroke:#ec008c;stroke-width:.5" transform="rotate(-57.52 57.28 -50.5)"/><ellipse cx="15.66" cy="-19.56" rx=".99" ry=".57" style="fill-rule:evenodd;clip-rule:evenodd;fill:none;stroke:#ec008c;stroke-width:.5" transform="rotate(-76.91 15.66 -19.56)"/><ellipse cx="28.69" cy="-13.03" rx=".99" ry=".57" style="fill-rule:evenodd;clip-rule:evenodd;fill:none;stroke:#ec008c;stroke-width:.5" transform="rotate(-76.93 28.7 -13.03)"/><ellipse cx="45.59" cy="-17.03" rx=".99" ry=".56" style="fill-rule:evenodd;clip-rule:evenodd;fill:none;stroke:#ec008c;stroke-width:.5" transform="rotate(-76.97 45.59 -17.03)"/><ellipse cx="54.29" cy="-11.78" rx=".99" ry=".56" style="fill-rule:evenodd;clip-rule:evenodd;fill:none;stroke:#ec008c;stroke-width:.5" transform="rotate(-76.97 54.29 -11.78)"/><ellipse cx="49.26" cy="-3.76" rx=".99" ry=".56" style="fill-rule:evenodd;clip-rule:evenodd;fill:none;stroke:#ec008c;stroke-width:.5" transform="rotate(-76.97 49.25 -3.76)"/><ellipse cx="53.23" cy="-45.39" rx="1.27" ry=".64" style="fill-rule:evenodd;clip-rule:evenodd;fill:none;stroke:#ec008c;stroke-width:.5" transform="rotate(-62.51 53.23 -45.4)"/><ellipse cx="36.55" cy="-32.41" rx="1.15" ry=".57" style="fill-rule:evenodd;clip-rule:evenodd;fill:none;stroke:#ec008c;stroke-width:.5" transform="rotate(-62.51 36.55 -32.42)"/><ellipse cx="23.75" cy="-54.81" rx="1.15" ry=".57" style="fill-rule:evenodd;clip-rule:evenodd;fill:none;stroke:#ec008c;stroke-width:.5" transform="rotate(-62.52 23.75 -54.81)"/><ellipse cx="52.39" cy="-50.73" rx="1.27" ry=".64" style="fill-rule:evenodd;clip-rule:evenodd;fill:none;stroke:#ec008c;stroke-width:.5" transform="rotate(-62.55 52.4 -50.73)"/><path d="M47.04-54.1c-.26-.5-.85-.73-1.1-.6-.25.12-.24.63.02 1.13.26.5.67.8.92.67 1.11-.58.46-.63.16-1.2z" style="fill-rule:evenodd;clip-rule:evenodd;fill:none;stroke:#ec008c;stroke-width:.5"/><ellipse cx="26.44" cy="-20.3" rx="1.27" ry=".64" style="fill-rule:evenodd;clip-rule:evenodd;fill:none;stroke:#ec008c;stroke-width:.5" transform="rotate(-79.36 26.44 -20.3)"/><ellipse cx="33.09" cy="-27.73" rx="1.27" ry=".64" style="fill-rule:evenodd;clip-rule:evenodd;fill:none;stroke:#ec008c;stroke-width:.5" transform="rotate(-62.5 33.1 -27.73)"/><ellipse cx="11.08" cy="-13.32" rx="1.27" ry=".64" style="fill-rule:evenodd;clip-rule:evenodd;fill:none;stroke:#ec008c;stroke-width:.5" transform="rotate(-85.29 11.08 -13.32)"/><ellipse cx="4.53" cy="-27.61" rx="1.02" ry=".51" style="fill-rule:evenodd;clip-rule:evenodd;fill:none;stroke:#ec008c;stroke-width:.5" transform="rotate(-67.7 4.53 -27.6)"/><ellipse cx="16.59" cy="-49.24" rx="1.02" ry=".51" style="fill-rule:evenodd;clip-rule:evenodd;fill:none;stroke:#ec008c;stroke-width:.5" transform="rotate(-67.69 16.6 -49.24)"/><ellipse cx="45.11" cy="-23.02" rx=".81" ry=".41" style="fill-rule:evenodd;clip-rule:evenodd;fill:none;stroke:#ec008c;stroke-width:.5" transform="rotate(-67.7 45.1 -23.02)"/><circle cx="13.41" cy="-37.95" r=".89" style="fill-rule:evenodd;clip-rule:evenodd;fill:none;stroke:#ec008c;stroke-width:.5"/><ellipse cx="20.31" cy="-53.07" rx=".86" ry=".52" style="fill-rule:evenodd;clip-rule:evenodd;fill:none;stroke:#ec008c;stroke-width:.5" transform="rotate(-69.16 20.3 -53.07)"/><ellipse cx="20.82" cy="-13.83" rx=".86" ry=".52" style="fill-rule:evenodd;clip-rule:evenodd;fill:none;stroke:#ec008c;stroke-width:.5" transform="rotate(-62.58 20.82 -13.83)"/><ellipse cx="23.37" cy="-31.4" rx=".86" ry=".52" style="fill-rule:evenodd;clip-rule:evenodd;fill:none;stroke:#ec008c;stroke-width:.5" transform="rotate(-69.03 23.38 -31.4)"/><ellipse cx="3.07" cy="-17.7" rx=".86" ry=".52" style="fill-rule:evenodd;clip-rule:evenodd;fill:none;stroke:#ec008c;stroke-width:.5" transform="rotate(-69.06 3.07 -17.7)"/><path d="M29.75-16.27c.2.34.61.55.93.47.32-.08.4-.41.2-.74-.2-.34-.61-.55-.93-.47-.31.07-.4.4-.2.74zM25.88-8.8c.32-.08.4-.41.2-.74-.2-.34-.61-.55-.93-.47-.31.07-.4.4-.2.74.2.34.62.55.93.47z" style="fill-rule:evenodd;clip-rule:evenodd;fill:none;stroke:#ec008c;stroke-width:.5"/><ellipse cx="61.28" cy="-30.54" rx=".86" ry=".52" style="fill-rule:evenodd;clip-rule:evenodd;fill:none;stroke:#ec008c;stroke-width:.5" transform="rotate(-65.13 61.28 -30.54)"/><ellipse cx="51.42" cy="-14.66" rx=".86" ry=".52" style="fill-rule:evenodd;clip-rule:evenodd;fill:none;stroke:#ec008c;stroke-width:.5" transform="rotate(-85.76 51.42 -14.65)"/><ellipse cx="38.35" cy="-17.42" rx=".86" ry=".52" style="fill-rule:evenodd;clip-rule:evenodd;fill:none;stroke:#ec008c;stroke-width:.5" transform="rotate(-85.83 38.35 -17.42)"/><circle cx="49.95" cy="-44.03" r=".38" style="fill-rule:evenodd;clip-rule:evenodd;fill:none;stroke:#ec008c;stroke-width:.5;stroke-linecap:round;stroke-linejoin:round"/><circle cx="52.28" cy="-38.78" r=".38" style="fill-rule:evenodd;clip-rule:evenodd;fill:none;stroke:#ec008c;stroke-width:.5;stroke-linecap:round;stroke-linejoin:round"/><circle cx="42.62" cy="-35.35" r=".38" style="fill-rule:evenodd;clip-rule:evenodd;fill:none;stroke:#ec008c;stroke-width:.5;stroke-linecap:round;stroke-linejoin:round"/><circle cx="57.48" cy="-34.18" r=".38" style="fill-rule:evenodd;clip-rule:evenodd;fill:none;stroke:#ec008c;stroke-width:.5;stroke-linecap:round;stroke-linejoin:round"/><circle cx="29.28" cy="-36.78" r=".38" style="fill-rule:evenodd;clip-rule:evenodd;fill:none;stroke:#ec008c;stroke-width:.5;stroke-linecap:round;stroke-linejoin:round"/><circle cx="52.43" cy="-29.83" r=".38" style="fill-rule:evenodd;clip-rule:evenodd;fill:none;stroke:#ec008c;stroke-width:.5;stroke-linecap:round;stroke-linejoin:round"/><circle cx="36.32" cy="-28.55" r=".38" style="fill-rule:evenodd;clip-rule:evenodd;fill:none;stroke:#ec008c;stroke-width:.5;stroke-linecap:round;stroke-linejoin:round"/><circle cx="21.21" cy="-28.25" r=".38" style="fill-rule:evenodd;clip-rule:evenodd;fill:none;stroke:#ec008c;stroke-width:.5;stroke-linecap:round;stroke-linejoin:round"/><circle cx="41.62" cy="-16.64" r=".38" style="fill-rule:evenodd;clip-rule:evenodd;fill:none;stroke:#ec008c;stroke-width:.5;stroke-linecap:round;stroke-linejoin:round"/><circle cx="49.02" cy="-18.55" r=".38" style="fill-rule:evenodd;clip-rule:evenodd;fill:none;stroke:#ec008c;stroke-width:.5;stroke-linecap:round;stroke-linejoin:round"/><circle cx="48.62" cy="-8.65" r=".38" style="fill-rule:evenodd;clip-rule:evenodd;fill:none;stroke:#ec008c;stroke-width:.5;stroke-linecap:round;stroke-linejoin:round"/><circle cx="45.52" cy="-3.85" r=".38" style="fill-rule:evenodd;clip-rule:evenodd;fill:none;stroke:#ec008c;stroke-width:.5;stroke-linecap:round;stroke-linejoin:round"/><circle cx="8.63" cy="-17.38" r=".38" style="fill-rule:evenodd;clip-rule:evenodd;fill:none;stroke:#ec008c;stroke-width:.5;stroke-linecap:round;stroke-linejoin:round"/><circle cx="7.28" cy="-11.68" r=".38" style="fill-rule:evenodd;clip-rule:evenodd;fill:none;stroke:#ec008c;stroke-width:.5;stroke-linecap:round;stroke-linejoin:round"/><circle cx="15.2" cy="-40.63" r=".38" style="fill-rule:evenodd;clip-rule:evenodd;fill:none;stroke:#ec008c;stroke-width:.5;stroke-linecap:round;stroke-linejoin:round"/><circle cx="3.48" cy="-53.78" r=".38" style="fill-rule:evenodd;clip-rule:evenodd;fill:none;stroke:#ec008c;stroke-width:.5;stroke-linecap:round;stroke-linejoin:round"/><circle cx="8.28" cy="-45.38" r=".38" style="fill-rule:evenodd;clip-rule:evenodd;fill:none;stroke:#ec008c;stroke-width:.5;stroke-linecap:round;stroke-linejoin:round"/><circle cx="50.31" cy="-54.35" r=".38" style="fill-rule:evenodd;clip-rule:evenodd;fill:none;stroke:#ec008c;stroke-width:.5;stroke-linecap:round;stroke-linejoin:round"/><path d="M30.28-62.48c-.03.43-.27.76-.57.76-.29 0-.53-.33-.56-.76M30.28-2v-.08c0-.47-.25-.85-.56-.85-.32 0-.57.38-.57.85V-2M12.48-62.48c-.03.43-.27.76-.57.76-.29 0-.53-.33-.56-.76M12.48-2v-.08c0-.47-.25-.85-.57-.85-.3 0-.56.38-.56.85V-2M39.03-62.48c-.03.43-.33.76-.7.76-.37 0-.67-.33-.7-.76M39.03-2v-.08c0-.47-.3-.85-.7-.85-.4 0-.7.38-.7.85V-2M54.77-62.48c-.04.43-.34.76-.7.76-.37 0-.67-.33-.7-.76M54.77-2v-.08c0-.47-.31-.85-.7-.85-.4 0-.71.38-.71.85V-2M62.48-25.94a.33.33 0 0 0-.09-.01c-.33 0-.6.44-.6.99 0 .54.27.98.6.98a.3.3 0 0 0 .09 0M2-23.98c.29-.08.51-.49.51-.98 0-.5-.22-.91-.51-.98M62.48-44.5a.37.37 0 0 0-.09 0c-.33 0-.6.44-.6.98 0 .55.27 1 .6 1 .03 0 .06 0 .09-.02M2-42.53c.29-.08.51-.49.51-.98 0-.5-.22-.91-.51-.98M62.48-12.4a.33.33 0 0 0-.09 0c-.33 0-.6.44-.6.99 0 .54.27.99.6.99.03 0 .06 0 .09-.02M2-10.44c.29-.07.51-.48.51-.97 0-.5-.22-.91-.51-.98M62.48-60.88a.37.37 0 0 0-.09 0c-.33 0-.6.43-.6.98s.27.99.6.99l.09-.01M2-58.92c.29-.07.51-.48.51-.98s-.22-.9-.51-.98" style="fill-rule:evenodd;clip-rule:evenodd;fill:none;stroke:#ec008c;stroke-width:.5"/></svg>