<svg xmlns="http://www.w3.org/2000/svg" xml:space="preserve" width="60.48" height="60.48" viewBox="1.8 -62.28 60.48 60.48"><path d="M1.8-62.28h60.48V-1.8H1.8z" style="fill:none"/><path d="M4.69-49.6c.42.54 1.05.76 1.4.48.33-.27.55-1.1.13-1.65-.43-.53-1.35-.57-1.69-.3-.34.28-.27.94.16 1.47z" style="fill-rule:evenodd;clip-rule:evenodd;fill:none;stroke:#000;stroke-width:.4"/><ellipse cx="59.83" cy="-36.92" rx="1.12" ry=".71" style="fill-rule:evenodd;clip-rule:evenodd;fill:none;stroke:#000;stroke-width:.4" transform="rotate(-69.8 59.83 -36.92)"/><ellipse cx="39.03" cy="-25.42" rx="1.12" ry=".71" style="fill-rule:evenodd;clip-rule:evenodd;fill:none;stroke:#000;stroke-width:.4" transform="rotate(-69.76 39.03 -25.42)"/><path d="M46.31-30.66c.52-.15.3-.79 0-1.4-.3-.62-.56-.98-1.08-.83-.52.14-.7.76-.4 1.37.3.62.97 1 1.48.86z" style="fill-rule:evenodd;clip-rule:evenodd;fill:none;stroke:#000;stroke-width:.4"/><ellipse cx="29.11" cy="-56.83" rx="1.25" ry=".79" style="fill-rule:evenodd;clip-rule:evenodd;fill:none;stroke:#000;stroke-width:.4" transform="rotate(-58.39 29.11 -56.82)"/><ellipse cx="55.86" cy="-40.83" rx="1.25" ry=".79" style="fill-rule:evenodd;clip-rule:evenodd;fill:none;stroke:#000;stroke-width:.4" transform="rotate(-58.39 55.86 -40.82)"/><ellipse cx="9.53" cy="-41.22" rx="1.25" ry=".79" style="fill-rule:evenodd;clip-rule:evenodd;fill:none;stroke:#000;stroke-width:.4" transform="rotate(-37.41 9.53 -41.22)"/><path d="M10.98-53.2c-.37.23-.78.77-.43 1.35.36.59.96.88 1.33.65.37-.23.46-1.11.1-1.7-.36-.59-.63-.53-1-.3z" style="fill-rule:evenodd;clip-rule:evenodd;fill:none;stroke:#000;stroke-width:.4"/><ellipse cx="6.04" cy="-21.32" rx="1.25" ry=".79" style="fill-rule:evenodd;clip-rule:evenodd;fill:none;stroke:#000;stroke-width:.4" transform="rotate(-67.8 6.04 -21.32)"/><ellipse cx="14.71" cy="-14.38" rx="1.25" ry=".79" style="fill-rule:evenodd;clip-rule:evenodd;fill:none;stroke:#000;stroke-width:.4" transform="rotate(-51.89 14.71 -14.38)"/><ellipse cx="30.61" cy="-32.25" rx="1.24" ry=".79" style="fill-rule:evenodd;clip-rule:evenodd;fill:none;stroke:#000;stroke-width:.4" transform="rotate(-60.86 30.61 -32.25)"/><ellipse cx="18.07" cy="-38.49" rx="1.25" ry=".79" style="fill-rule:evenodd;clip-rule:evenodd;fill:none;stroke:#000;stroke-width:.4" transform="rotate(-60.87 18.07 -38.49)"/><ellipse cx="41.1" cy="-5.81" rx="1.25" ry=".79" style="fill-rule:evenodd;clip-rule:evenodd;fill:none;stroke:#000;stroke-width:.4" transform="rotate(-89.26 41.1 -5.8)"/><ellipse cx="22.75" cy="-42.25" rx=".79" ry="1.24" style="fill-rule:evenodd;clip-rule:evenodd;fill:none;stroke:#000;stroke-width:.4" transform="rotate(-18.07 22.75 -42.24)"/><path d="M10.11-58.66c-.33-.6-1.32-.9-1.7-.68-.39.21-.43.87-.1 1.47.34.6.92.92 1.3.7.39-.2.84-.9.5-1.5z" style="fill-rule:evenodd;clip-rule:evenodd;fill:none;stroke:#000;stroke-width:.4"/><ellipse cx="27.57" cy="-49" rx=".71" ry="1.12" style="fill-rule:evenodd;clip-rule:evenodd;fill:none;stroke:#000;stroke-width:.4" transform="rotate(-8.09 27.57 -49)"/><ellipse cx="60.26" cy="-53.1" rx="1.12" ry=".71" style="fill-rule:evenodd;clip-rule:evenodd;fill:none;stroke:#000;stroke-width:.4" transform="rotate(-78.67 60.26 -53.1)"/><ellipse cx="24.21" cy="-13.61" rx="1.25" ry=".79" style="fill-rule:evenodd;clip-rule:evenodd;fill:none;stroke:#000;stroke-width:.4" transform="rotate(-89.86 24.21 -13.61)"/><ellipse cx="41.16" cy="-12.2" rx="1.25" ry=".79" style="fill-rule:evenodd;clip-rule:evenodd;fill:none;stroke:#000;stroke-width:.4" transform="rotate(-75.36 41.17 -12.2)"/><ellipse cx="32.6" cy="-8.54" rx="1.25" ry=".79" style="fill-rule:evenodd;clip-rule:evenodd;fill:none;stroke:#000;stroke-width:.4" transform="rotate(-70.39 32.6 -8.54)"/><ellipse cx="4.5" cy="-46.38" rx=".51" ry=".71" style="fill-rule:evenodd;clip-rule:evenodd;fill:none;stroke:#000;stroke-width:.4" transform="rotate(-25.07 4.5 -46.39)"/><ellipse cx="8.17" cy="-4" rx=".71" ry=".51" style="fill-rule:evenodd;clip-rule:evenodd;fill:none;stroke:#000;stroke-width:.4" transform="rotate(-81.38 8.17 -4)"/><ellipse cx="5.88" cy="-14.96" rx=".51" ry=".71" style="fill-rule:evenodd;clip-rule:evenodd;fill:none;stroke:#000;stroke-width:.4"/><ellipse cx="26.68" cy="-44.51" rx=".51" ry=".71" style="fill-rule:evenodd;clip-rule:evenodd;fill:none;stroke:#000;stroke-width:.4"/><ellipse cx="19.58" cy="-60.41" rx=".51" ry=".71" style="fill-rule:evenodd;clip-rule:evenodd;fill:none;stroke:#000;stroke-width:.4"/><ellipse cx="58.22" cy="-24.38" rx=".51" ry=".71" style="fill-rule:evenodd;clip-rule:evenodd;fill:none;stroke:#000;stroke-width:.4"/><ellipse cx="46.81" cy="-26.98" rx=".51" ry=".71" style="fill-rule:evenodd;clip-rule:evenodd;fill:none;stroke:#000;stroke-width:.4"/><ellipse cx="34.22" cy="-4.38" rx=".51" ry=".71" style="fill-rule:evenodd;clip-rule:evenodd;fill:none;stroke:#000;stroke-width:.4"/><ellipse cx="21.28" cy="-34.91" rx=".51" ry=".71" style="fill-rule:evenodd;clip-rule:evenodd;fill:none;stroke:#000;stroke-width:.4"/><ellipse cx="44.12" cy="-37.98" rx=".51" ry=".71" style="fill-rule:evenodd;clip-rule:evenodd;fill:none;stroke:#000;stroke-width:.4"/><ellipse cx="31.54" cy="-42.23" rx=".71" ry=".51" style="fill-rule:evenodd;clip-rule:evenodd;fill:none;stroke:#000;stroke-width:.4" transform="rotate(-61.26 31.54 -42.22)"/><ellipse cx="39.91" cy="-33.58" rx=".51" ry=".71" style="fill-rule:evenodd;clip-rule:evenodd;fill:none;stroke:#000;stroke-width:.4"/><ellipse cx="39.03" cy="-57.41" rx=".51" ry=".71" style="fill-rule:evenodd;clip-rule:evenodd;fill:none;stroke:#000;stroke-width:.4"/><ellipse cx="11.65" cy="-24.27" rx=".51" ry=".71" style="fill-rule:evenodd;clip-rule:evenodd;fill:none;stroke:#000;stroke-width:.4"/><ellipse cx="27.48" cy="-28.51" rx=".51" ry=".71" style="fill-rule:evenodd;clip-rule:evenodd;fill:none;stroke:#000;stroke-width:.4"/><ellipse cx="46.14" cy="-12.7" rx=".71" ry=".51" style="fill-rule:evenodd;clip-rule:evenodd;fill:none;stroke:#000;stroke-width:.4" transform="rotate(-79.02 46.14 -12.7)"/><ellipse cx="44.88" cy="-43.91" rx=".51" ry=".71" style="fill-rule:evenodd;clip-rule:evenodd;fill:none;stroke:#000;stroke-width:.4"/><ellipse cx="38.48" cy="-45.51" rx=".51" ry=".71" style="fill-rule:evenodd;clip-rule:evenodd;fill:none;stroke:#000;stroke-width:.4"/><ellipse cx="40.35" cy="-42.23" rx=".78" ry=".56" style="fill-rule:evenodd;clip-rule:evenodd;fill:none;stroke:#000;stroke-width:.4" transform="rotate(-78.02 40.35 -42.23)"/><ellipse cx="59.41" cy="-56.74" rx=".78" ry=".56" style="fill-rule:evenodd;clip-rule:evenodd;fill:none;stroke:#000;stroke-width:.4" transform="rotate(-69.81 59.4 -56.74)"/><ellipse cx="31.15" cy="-51.53" rx=".78" ry=".56" style="fill-rule:evenodd;clip-rule:evenodd;fill:none;stroke:#000;stroke-width:.4" transform="rotate(-78.06 31.15 -51.53)"/><ellipse cx="41.35" cy="-28.83" rx=".79" ry=".56" style="fill-rule:evenodd;clip-rule:evenodd;fill:none;stroke:#000;stroke-width:.4" transform="rotate(-78.04 41.35 -28.83)"/><path d="M7.63-35.04c.42-.07.66-.48.53-.92-.12-.44-.56-.74-.98-.67-.42.06-.66.47-.54.91.13.44.57.75.99.68z" style="fill-rule:evenodd;clip-rule:evenodd;fill:none;stroke:#000;stroke-width:.4"/><ellipse cx="42.93" cy="-51.35" rx=".71" ry=".51" style="fill-rule:evenodd;clip-rule:evenodd;fill:none;stroke:#000;stroke-width:.4" transform="rotate(-65.54 42.93 -51.35)"/><ellipse cx="14.71" cy="-54.68" rx=".51" ry=".71" style="fill-rule:evenodd;clip-rule:evenodd;fill:none;stroke:#000;stroke-width:.4"/><ellipse cx="50.68" cy="-32.51" rx=".51" ry=".71" style="fill-rule:evenodd;clip-rule:evenodd;fill:none;stroke:#000;stroke-width:.4"/><ellipse cx="59.91" cy="-14.98" rx=".51" ry=".71" style="fill-rule:evenodd;clip-rule:evenodd;fill:none;stroke:#000;stroke-width:.4"/><ellipse cx="34.06" cy="-18.23" rx=".51" ry=".71" style="fill-rule:evenodd;clip-rule:evenodd;fill:none;stroke:#000;stroke-width:.4"/><ellipse cx="51.77" cy="-57.76" rx=".71" ry=".51" style="fill-rule:evenodd;clip-rule:evenodd;fill:none;stroke:#000;stroke-width:.4" transform="rotate(-78.58 51.77 -57.76)"/><ellipse cx="37.74" cy="-37.7" rx=".71" ry=".51" style="fill-rule:evenodd;clip-rule:evenodd;fill:none;stroke:#000;stroke-width:.4" transform="rotate(-78.54 37.74 -37.7)"/><ellipse cx="30.31" cy="-23.03" rx=".51" ry=".71" style="fill-rule:evenodd;clip-rule:evenodd;fill:none;stroke:#000;stroke-width:.4"/><ellipse cx="8.36" cy="-27.57" rx=".51" ry=".71" style="fill-rule:evenodd;clip-rule:evenodd;fill:none;stroke:#000;stroke-width:.4"/><ellipse cx="19.37" cy="-17.8" rx=".51" ry=".71" style="fill-rule:evenodd;clip-rule:evenodd;fill:none;stroke:#000;stroke-width:.4"/><ellipse cx="49.81" cy="-21.18" rx=".51" ry=".71" style="fill-rule:evenodd;clip-rule:evenodd;fill:none;stroke:#000;stroke-width:.4"/><ellipse cx="56.06" cy="-27.48" rx=".71" ry=".51" style="fill-rule:evenodd;clip-rule:evenodd;fill:none;stroke:#000;stroke-width:.4" transform="rotate(-72.49 56.06 -27.48)"/><ellipse cx="18.32" cy="-44.45" rx=".71" ry=".99" style="fill-rule:evenodd;clip-rule:evenodd;fill:none;stroke:#000;stroke-width:.4"/><ellipse cx="55.67" cy="-31.09" rx=".89" ry=".64" style="fill-rule:evenodd;clip-rule:evenodd;fill:none;stroke:#000;stroke-width:.4" transform="rotate(-89.17 55.67 -31.09)"/><path d="M20.07-7.72c.3.5.84.73 1.21.52.37-.2.42-.78.12-1.27-.3-.5-.85-.73-1.22-.52-.37.2-.42.78-.11 1.27zM35.84-22.85c-.13-.62-.55-1-.93-.83-.37.16-.57.8-.43 1.43.14.63.56 1 .93.83.38-.16.57-.8.44-1.43zM51.31-27.73c-.37.17-.57.8-.43 1.43.14.63.56 1 .93.84.38-.17.57-.81.44-1.44-.14-.62-.56-1-.94-.83zM59.13-18.81c.17.55.55.86.85.67.3-.18.4-.78.22-1.33-.17-.56-.56-.86-.85-.68-.3.18-.4.78-.22 1.34z" style="fill-rule:evenodd;clip-rule:evenodd;fill:none;stroke:#000;stroke-width:.4"/><ellipse cx="36.27" cy="-41.79" rx=".99" ry=".71" style="fill-rule:evenodd;clip-rule:evenodd;fill:none;stroke:#000;stroke-width:.4" transform="rotate(-56.37 36.27 -41.79)"/><ellipse cx="48.67" cy="-40.69" rx=".99" ry=".71" style="fill-rule:evenodd;clip-rule:evenodd;fill:none;stroke:#000;stroke-width:.4" transform="rotate(-56.32 48.66 -40.69)"/><ellipse cx="48.17" cy="-59.93" rx=".71" ry=".99" style="fill-rule:evenodd;clip-rule:evenodd;fill:none;stroke:#000;stroke-width:.4" transform="rotate(-8.17 48.17 -59.92)"/><ellipse cx="58.47" cy="-45.79" rx=".99" ry=".71" style="fill-rule:evenodd;clip-rule:evenodd;fill:none;stroke:#000;stroke-width:.4" transform="rotate(-56.32 58.46 -45.79)"/><ellipse cx="43.97" cy="-47.79" rx=".99" ry=".71" style="fill-rule:evenodd;clip-rule:evenodd;fill:none;stroke:#000;stroke-width:.4" transform="rotate(-56.37 43.96 -47.79)"/><ellipse cx="39.11" cy="-52.82" rx=".99" ry=".71" style="fill-rule:evenodd;clip-rule:evenodd;fill:none;stroke:#000;stroke-width:.4" transform="rotate(-68.11 39.11 -52.82)"/><ellipse cx="34.13" cy="-59.42" rx=".99" ry=".71" style="fill-rule:evenodd;clip-rule:evenodd;fill:none;stroke:#000;stroke-width:.4" transform="rotate(-56.37 34.13 -59.42)"/><ellipse cx="24.97" cy="-59.29" rx=".99" ry=".71" style="fill-rule:evenodd;clip-rule:evenodd;fill:none;stroke:#000;stroke-width:.4" transform="rotate(-56.32 24.97 -59.29)"/><ellipse cx="5.33" cy="-60.97" rx=".99" ry=".71" style="fill-rule:evenodd;clip-rule:evenodd;fill:none;stroke:#000;stroke-width:.4" transform="rotate(-56.34 5.33 -60.97)"/><ellipse cx="32.61" cy="-38.45" rx=".71" ry=".99" style="fill-rule:evenodd;clip-rule:evenodd;fill:none;stroke:#000;stroke-width:.4"/><ellipse cx="18.61" cy="-56.66" rx=".71" ry=".99" style="fill-rule:evenodd;clip-rule:evenodd;fill:none;stroke:#000;stroke-width:.4"/><path d="M15.38-58.8c0-.55-.31-1.58-.7-1.58s-.7.44-.7.99.3.99.7.99.7.15.7-.4z" style="fill-rule:evenodd;clip-rule:evenodd;fill:none;stroke:#000;stroke-width:.4"/><ellipse cx="55.31" cy="-21.16" rx=".71" ry=".99" style="fill-rule:evenodd;clip-rule:evenodd;fill:none;stroke:#000;stroke-width:.4"/><ellipse cx="54.91" cy="-36.45" rx=".71" ry=".99" style="fill-rule:evenodd;clip-rule:evenodd;fill:none;stroke:#000;stroke-width:.4"/><ellipse cx="25.81" cy="-24.36" rx=".71" ry=".99" style="fill-rule:evenodd;clip-rule:evenodd;fill:none;stroke:#000;stroke-width:.4"/><ellipse cx="45.13" cy="-8.04" rx=".99" ry=".71" style="fill-rule:evenodd;clip-rule:evenodd;fill:none;stroke:#000;stroke-width:.4" transform="rotate(-79.09 45.13 -8.04)"/><ellipse cx="21.61" cy="-21.66" rx=".71" ry=".99" style="fill-rule:evenodd;clip-rule:evenodd;fill:none;stroke:#000;stroke-width:.4"/><ellipse cx="18.22" cy="-24.32" rx=".99" ry=".71" style="fill-rule:evenodd;clip-rule:evenodd;fill:none;stroke:#000;stroke-width:.4" transform="rotate(-66.69 18.22 -24.32)"/><ellipse cx="32.89" cy="-46.51" rx=".99" ry=".71" style="fill-rule:evenodd;clip-rule:evenodd;fill:none;stroke:#000;stroke-width:.4" transform="rotate(-66.66 32.89 -46.5)"/><ellipse cx="6.19" cy="-55.31" rx=".99" ry=".71" style="fill-rule:evenodd;clip-rule:evenodd;fill:none;stroke:#000;stroke-width:.4" transform="rotate(-66.69 6.19 -55.3)"/><ellipse cx="34.88" cy="-13.59" rx=".71" ry=".99" style="fill-rule:evenodd;clip-rule:evenodd;fill:none;stroke:#000;stroke-width:.4"/><ellipse cx="19.13" cy="-4.21" rx=".99" ry=".71" style="fill-rule:evenodd;clip-rule:evenodd;fill:none;stroke:#000;stroke-width:.4" transform="rotate(-73.63 19.14 -4.21)"/><ellipse cx="56.72" cy="-6.21" rx=".71" ry=".99" style="fill-rule:evenodd;clip-rule:evenodd;fill:none;stroke:#000;stroke-width:.4"/><ellipse cx="53.61" cy="-17.78" rx=".91" ry=".69" style="fill-rule:evenodd;clip-rule:evenodd;fill:none;stroke:#000;stroke-width:.4" transform="rotate(-59.1 53.6 -17.78)"/><ellipse cx="41.65" cy="-22.15" rx=".91" ry=".69" style="fill-rule:evenodd;clip-rule:evenodd;fill:none;stroke:#000;stroke-width:.4" transform="rotate(-59.07 41.64 -22.15)"/><ellipse cx="60.84" cy="-3.47" rx=".91" ry=".69" style="fill-rule:evenodd;clip-rule:evenodd;fill:none;stroke:#000;stroke-width:.4" transform="rotate(-85.66 60.85 -3.47)"/><ellipse cx="15.61" cy="-9.58" rx=".91" ry=".69" style="fill-rule:evenodd;clip-rule:evenodd;fill:none;stroke:#000;stroke-width:.4" transform="rotate(-59.11 15.61 -9.58)"/><ellipse cx="26.93" cy="-33.8" rx=".74" ry=".55" style="fill-rule:evenodd;clip-rule:evenodd;fill:none;stroke:#000;stroke-width:.4" transform="rotate(-59.08 26.93 -33.8)"/><ellipse cx="16.25" cy="-33.05" rx=".91" ry=".69" style="fill-rule:evenodd;clip-rule:evenodd;fill:none;stroke:#000;stroke-width:.4" transform="rotate(-59.11 16.25 -33.05)"/><ellipse cx="21.41" cy="-48.78" rx=".91" ry=".69" style="fill-rule:evenodd;clip-rule:evenodd;fill:none;stroke:#000;stroke-width:.4" transform="rotate(-59.1 21.41 -48.78)"/><ellipse cx="10.35" cy="-32.1" rx=".91" ry=".69" style="fill-rule:evenodd;clip-rule:evenodd;fill:none;stroke:#000;stroke-width:.4" transform="rotate(-59.06 10.35 -32.1)"/><ellipse cx="9.51" cy="-47.98" rx=".91" ry=".69" style="fill-rule:evenodd;clip-rule:evenodd;fill:none;stroke:#000;stroke-width:.4" transform="rotate(-59.1 9.51 -47.98)"/><ellipse cx="37.3" cy="-8.33" rx=".89" ry=".64" style="fill-rule:evenodd;clip-rule:evenodd;fill:none;stroke:#000;stroke-width:.4" transform="rotate(-76.01 37.3 -8.33)"/><ellipse cx="5.26" cy="-8.46" rx=".89" ry=".64" style="fill-rule:evenodd;clip-rule:evenodd;fill:none;stroke:#000;stroke-width:.4" transform="rotate(-76.05 5.26 -8.46)"/><ellipse cx="58.39" cy="-10.59" rx=".64" ry=".89" style="fill-rule:evenodd;clip-rule:evenodd;fill:none;stroke:#000;stroke-width:.4" transform="rotate(-11.51 58.4 -10.59)"/><ellipse cx="3.55" cy="-4.74" rx=".89" ry=".64" style="fill-rule:evenodd;clip-rule:evenodd;fill:none;stroke:#000;stroke-width:.4" transform="rotate(-72.08 3.55 -4.74)"/><ellipse cx="10.01" cy="-8.36" rx=".89" ry=".64" style="fill-rule:evenodd;clip-rule:evenodd;fill:none;stroke:#000;stroke-width:.4" transform="rotate(-76.02 10.01 -8.36)"/><ellipse cx="17.5" cy="-28.43" rx=".89" ry=".64" style="fill-rule:evenodd;clip-rule:evenodd;fill:none;stroke:#000;stroke-width:.4" transform="rotate(-76.02 17.5 -28.43)"/><ellipse cx="13.17" cy="-43.66" rx=".89" ry=".64" style="fill-rule:evenodd;clip-rule:evenodd;fill:none;stroke:#000;stroke-width:.4" transform="rotate(-76.02 13.17 -43.66)"/><ellipse cx="4.77" cy="-39.56" rx=".89" ry=".64" style="fill-rule:evenodd;clip-rule:evenodd;fill:none;stroke:#000;stroke-width:.4" transform="rotate(-56.2 4.77 -39.55)"/><ellipse cx="24.88" cy="-3.56" rx=".89" ry=".64" style="fill-rule:evenodd;clip-rule:evenodd;fill:none;stroke:#000;stroke-width:.4" transform="rotate(-88.07 24.89 -3.56)"/><ellipse cx="36.54" cy="-49.4" rx=".57" ry=".8" style="fill-rule:evenodd;clip-rule:evenodd;fill:none;stroke:#000;stroke-width:.4" transform="rotate(-4.54 36.54 -49.39)"/><ellipse cx="42.44" cy="-60.97" rx=".8" ry=".57" style="fill-rule:evenodd;clip-rule:evenodd;fill:none;stroke:#000;stroke-width:.4" transform="rotate(-62.15 42.44 -60.97)"/><ellipse cx="47.62" cy="-46.64" rx=".8" ry=".57" style="fill-rule:evenodd;clip-rule:evenodd;fill:none;stroke:#000;stroke-width:.4" transform="rotate(-76.01 47.62 -46.64)"/><ellipse cx="51.6" cy="-7.39" rx=".99" ry=".71" style="fill-rule:evenodd;clip-rule:evenodd;fill:none;stroke:#000;stroke-width:.4" transform="rotate(-85.41 51.6 -7.39)"/><ellipse cx="28.56" cy="-6.05" rx=".99" ry=".71" style="fill-rule:evenodd;clip-rule:evenodd;fill:none;stroke:#000;stroke-width:.4" transform="rotate(-74.34 28.56 -6.05)"/><path d="M24.03-36.99c0 .55.38.99.85.99s.85-.44.85-.99-.78-1.21-1.25-1.21-.45.66-.45 1.21zM28.96-40.23c0-.55-.58-1.64-1.05-1.64-.46 0-.64 1.1-.64 1.64 0 .55.38 1 .84 1 .47 0 .85-.45.85-1zM57.6-61.13c-.5-.22-1.07-.06-1.26.37-.2.43.06.95.55 1.18.5.22 1.73.14 1.93-.29.19-.42-.73-1.03-1.23-1.26z" style="fill-rule:evenodd;clip-rule:evenodd;fill:none;stroke:#000;stroke-width:.4"/><ellipse cx="15.02" cy="-5.56" rx=".76" ry=".89" style="fill-rule:evenodd;clip-rule:evenodd;fill:none;stroke:#000;stroke-width:.4"/><ellipse cx="48.31" cy="-35.86" rx=".76" ry=".89" style="fill-rule:evenodd;clip-rule:evenodd;fill:none;stroke:#000;stroke-width:.4"/><ellipse cx="44.88" cy="-57.29" rx=".76" ry=".89" style="fill-rule:evenodd;clip-rule:evenodd;fill:none;stroke:#000;stroke-width:.4"/><ellipse cx="54.78" cy="-55.19" rx=".76" ry=".89" style="fill-rule:evenodd;clip-rule:evenodd;fill:none;stroke:#000;stroke-width:.4"/><ellipse cx="34.11" cy="-55.07" rx=".69" ry=".8" style="fill-rule:evenodd;clip-rule:evenodd;fill:none;stroke:#000;stroke-width:.4"/><ellipse cx="11.38" cy="-18.99" rx=".89" ry=".76" style="fill-rule:evenodd;clip-rule:evenodd;fill:none;stroke:#000;stroke-width:.4" transform="rotate(-68.02 11.38 -19)"/><ellipse cx="13.18" cy="-28.12" rx=".99" ry=".57" style="fill-rule:evenodd;clip-rule:evenodd;fill:none;stroke:#000;stroke-width:.4" transform="rotate(-50.05 13.18 -28.12)"/><ellipse cx="3.71" cy="-32.86" rx="1.04" ry=".62" style="fill-rule:evenodd;clip-rule:evenodd;fill:none;stroke:#000;stroke-width:.4" transform="rotate(-73.02 3.71 -32.86)"/><ellipse cx="57.08" cy="-50.3" rx=".99" ry=".56" style="fill-rule:evenodd;clip-rule:evenodd;fill:none;stroke:#000;stroke-width:.4" transform="rotate(-57.49 57.09 -50.3)"/><ellipse cx="15.46" cy="-19.36" rx=".99" ry=".57" style="fill-rule:evenodd;clip-rule:evenodd;fill:none;stroke:#000;stroke-width:.4" transform="rotate(-76.89 15.46 -19.36)"/><ellipse cx="28.49" cy="-12.83" rx=".99" ry=".56" style="fill-rule:evenodd;clip-rule:evenodd;fill:none;stroke:#000;stroke-width:.4" transform="rotate(-76.97 28.49 -12.83)"/><ellipse cx="45.39" cy="-16.83" rx=".99" ry=".56" style="fill-rule:evenodd;clip-rule:evenodd;fill:none;stroke:#000;stroke-width:.4" transform="rotate(-76.97 45.39 -16.83)"/><ellipse cx="54.09" cy="-11.58" rx=".99" ry=".56" style="fill-rule:evenodd;clip-rule:evenodd;fill:none;stroke:#000;stroke-width:.4" transform="rotate(-76.97 54.09 -11.58)"/><ellipse cx="49.05" cy="-3.56" rx=".99" ry=".56" style="fill-rule:evenodd;clip-rule:evenodd;fill:none;stroke:#000;stroke-width:.4" transform="rotate(-76.97 49.05 -3.56)"/><ellipse cx="53.03" cy="-45.19" rx="1.27" ry=".64" style="fill-rule:evenodd;clip-rule:evenodd;fill:none;stroke:#000;stroke-width:.4" transform="rotate(-62.51 53.03 -45.2)"/><ellipse cx="36.35" cy="-32.22" rx="1.15" ry=".57" style="fill-rule:evenodd;clip-rule:evenodd;fill:none;stroke:#000;stroke-width:.4" transform="rotate(-62.53 36.35 -32.22)"/><ellipse cx="23.55" cy="-54.62" rx="1.15" ry=".57" style="fill-rule:evenodd;clip-rule:evenodd;fill:none;stroke:#000;stroke-width:.4" transform="rotate(-62.5 23.55 -54.61)"/><ellipse cx="52.19" cy="-50.53" rx="1.27" ry=".64" style="fill-rule:evenodd;clip-rule:evenodd;fill:none;stroke:#000;stroke-width:.4" transform="rotate(-62.55 52.2 -50.53)"/><path d="M46.84-53.9c-.26-.5-.85-.74-1.1-.6-.25.12-.24.63.02 1.13.26.5.67.8.92.67 1.11-.58.46-.63.16-1.2z" style="fill-rule:evenodd;clip-rule:evenodd;fill:none;stroke:#000;stroke-width:.4"/><ellipse cx="26.24" cy="-20.1" rx="1.27" ry=".64" style="fill-rule:evenodd;clip-rule:evenodd;fill:none;stroke:#000;stroke-width:.4" transform="rotate(-79.35 26.24 -20.1)"/><ellipse cx="32.89" cy="-27.53" rx="1.27" ry=".64" style="fill-rule:evenodd;clip-rule:evenodd;fill:none;stroke:#000;stroke-width:.4" transform="rotate(-62.51 32.9 -27.53)"/><ellipse cx="10.88" cy="-13.12" rx="1.27" ry=".64" style="fill-rule:evenodd;clip-rule:evenodd;fill:none;stroke:#000;stroke-width:.4" transform="rotate(-85.28 10.88 -13.12)"/><ellipse cx="4.33" cy="-27.41" rx="1.02" ry=".51" style="fill-rule:evenodd;clip-rule:evenodd;fill:none;stroke:#000;stroke-width:.4" transform="rotate(-67.73 4.33 -27.4)"/><ellipse cx="16.39" cy="-49.04" rx="1.02" ry=".51" style="fill-rule:evenodd;clip-rule:evenodd;fill:none;stroke:#000;stroke-width:.4" transform="rotate(-67.74 16.4 -49.04)"/><ellipse cx="44.91" cy="-22.82" rx=".81" ry=".41" style="fill-rule:evenodd;clip-rule:evenodd;fill:none;stroke:#000;stroke-width:.4" transform="rotate(-67.74 44.9 -22.82)"/><circle cx="13.21" cy="-37.76" r=".89" style="fill-rule:evenodd;clip-rule:evenodd;fill:none;stroke:#000;stroke-width:.4"/><ellipse cx="20.11" cy="-52.87" rx=".86" ry=".52" style="fill-rule:evenodd;clip-rule:evenodd;fill:none;stroke:#000;stroke-width:.4" transform="rotate(-69.09 20.1 -52.86)"/><ellipse cx="20.62" cy="-13.63" rx=".86" ry=".52" style="fill-rule:evenodd;clip-rule:evenodd;fill:none;stroke:#000;stroke-width:.4" transform="rotate(-62.63 20.62 -13.63)"/><ellipse cx="23.17" cy="-31.2" rx=".86" ry=".52" style="fill-rule:evenodd;clip-rule:evenodd;fill:none;stroke:#000;stroke-width:.4" transform="rotate(-69.08 23.17 -31.2)"/><ellipse cx="2.87" cy="-17.5" rx=".86" ry=".52" style="fill-rule:evenodd;clip-rule:evenodd;fill:none;stroke:#000;stroke-width:.4" transform="rotate(-69.08 2.87 -17.5)"/><path d="M29.55-16.07c.2.34.61.55.93.47.31-.08.4-.41.2-.74-.2-.34-.61-.55-.93-.47-.31.07-.4.4-.2.74zM25.68-8.6c.31-.08.4-.41.2-.75-.2-.33-.61-.54-.93-.46-.31.07-.4.4-.2.74.2.34.61.55.93.47z" style="fill-rule:evenodd;clip-rule:evenodd;fill:none;stroke:#000;stroke-width:.4"/><ellipse cx="61.08" cy="-30.34" rx=".86" ry=".52" style="fill-rule:evenodd;clip-rule:evenodd;fill:none;stroke:#000;stroke-width:.4" transform="rotate(-65.16 61.08 -30.35)"/><ellipse cx="51.22" cy="-14.46" rx=".86" ry=".52" style="fill-rule:evenodd;clip-rule:evenodd;fill:none;stroke:#000;stroke-width:.4" transform="rotate(-85.81 51.22 -14.46)"/><ellipse cx="38.15" cy="-17.22" rx=".86" ry=".52" style="fill-rule:evenodd;clip-rule:evenodd;fill:none;stroke:#000;stroke-width:.4" transform="rotate(-85.8 38.15 -17.22)"/><circle cx="49.76" cy="-43.84" r=".38" style="fill-rule:evenodd;clip-rule:evenodd;fill:none;stroke:#000;stroke-width:.4;stroke-linecap:round;stroke-linejoin:round"/><circle cx="52.08" cy="-38.58" r=".38" style="fill-rule:evenodd;clip-rule:evenodd;fill:none;stroke:#000;stroke-width:.4;stroke-linecap:round;stroke-linejoin:round"/><circle cx="42.41" cy="-35.15" r=".38" style="fill-rule:evenodd;clip-rule:evenodd;fill:none;stroke:#000;stroke-width:.4;stroke-linecap:round;stroke-linejoin:round"/><circle cx="57.28" cy="-33.98" r=".38" style="fill-rule:evenodd;clip-rule:evenodd;fill:none;stroke:#000;stroke-width:.4;stroke-linecap:round;stroke-linejoin:round"/><circle cx="29.08" cy="-36.58" r=".38" style="fill-rule:evenodd;clip-rule:evenodd;fill:none;stroke:#000;stroke-width:.4;stroke-linecap:round;stroke-linejoin:round"/><circle cx="52.23" cy="-29.63" r=".38" style="fill-rule:evenodd;clip-rule:evenodd;fill:none;stroke:#000;stroke-width:.4;stroke-linecap:round;stroke-linejoin:round"/><circle cx="36.11" cy="-28.35" r=".38" style="fill-rule:evenodd;clip-rule:evenodd;fill:none;stroke:#000;stroke-width:.4;stroke-linecap:round;stroke-linejoin:round"/><circle cx="21.02" cy="-28.05" r=".38" style="fill-rule:evenodd;clip-rule:evenodd;fill:none;stroke:#000;stroke-width:.4;stroke-linecap:round;stroke-linejoin:round"/><circle cx="41.41" cy="-16.45" r=".38" style="fill-rule:evenodd;clip-rule:evenodd;fill:none;stroke:#000;stroke-width:.4;stroke-linecap:round;stroke-linejoin:round"/><circle cx="48.81" cy="-18.35" r=".38" style="fill-rule:evenodd;clip-rule:evenodd;fill:none;stroke:#000;stroke-width:.4;stroke-linecap:round;stroke-linejoin:round"/><circle cx="48.41" cy="-8.45" r=".38" style="fill-rule:evenodd;clip-rule:evenodd;fill:none;stroke:#000;stroke-width:.4;stroke-linecap:round;stroke-linejoin:round"/><circle cx="45.31" cy="-3.65" r=".38" style="fill-rule:evenodd;clip-rule:evenodd;fill:none;stroke:#000;stroke-width:.4;stroke-linecap:round;stroke-linejoin:round"/><circle cx="8.43" cy="-17.18" r=".38" style="fill-rule:evenodd;clip-rule:evenodd;fill:none;stroke:#000;stroke-width:.4;stroke-linecap:round;stroke-linejoin:round"/><circle cx="7.08" cy="-11.48" r=".38" style="fill-rule:evenodd;clip-rule:evenodd;fill:none;stroke:#000;stroke-width:.4;stroke-linecap:round;stroke-linejoin:round"/><circle cx="15" cy="-40.43" r=".38" style="fill-rule:evenodd;clip-rule:evenodd;fill:none;stroke:#000;stroke-width:.4;stroke-linecap:round;stroke-linejoin:round"/><circle cx="3.28" cy="-53.58" r=".38" style="fill-rule:evenodd;clip-rule:evenodd;fill:none;stroke:#000;stroke-width:.4;stroke-linecap:round;stroke-linejoin:round"/><circle cx="8.08" cy="-45.18" r=".38" style="fill-rule:evenodd;clip-rule:evenodd;fill:none;stroke:#000;stroke-width:.4;stroke-linecap:round;stroke-linejoin:round"/><circle cx="50.11" cy="-54.15" r=".38" style="fill-rule:evenodd;clip-rule:evenodd;fill:none;stroke:#000;stroke-width:.4;stroke-linecap:round;stroke-linejoin:round"/><path d="M30.08-62.28c-.03.43-.27.76-.56.76-.3 0-.54-.33-.57-.76M30.08-1.8v-.09c0-.46-.25-.84-.56-.84s-.57.38-.57.84v.09M12.28-62.28c-.03.43-.27.76-.57.76-.29 0-.53-.33-.56-.76M12.28-1.8v-.09c0-.46-.25-.84-.57-.84s-.56.38-.56.84v.09M38.83-62.28c-.03.43-.33.76-.7.76-.37 0-.67-.33-.7-.76M38.83-1.8v-.09c0-.46-.31-.84-.7-.84-.4 0-.7.38-.7.84v.09M54.57-62.28c-.04.43-.34.76-.7.76-.37 0-.67-.33-.7-.76M54.57-1.8v-.09c0-.46-.32-.84-.7-.84-.4 0-.71.38-.71.84v.09M62.28-25.74a.39.39 0 0 0-.1-.02c-.32 0-.6.45-.6 1 0 .54.28.98.6.98h.1M1.8-23.79c.29-.07.51-.48.51-.98s-.22-.9-.51-.97M62.28-44.3a.39.39 0 0 0-.1 0c-.32 0-.6.44-.6.98 0 .55.28 1 .6 1l.1-.02M1.8-42.34c.29-.07.51-.48.51-.97 0-.5-.22-.91-.51-.98M62.28-12.2a.34.34 0 0 0-.1 0c-.32 0-.6.44-.6.98s.28 1 .6 1c.04 0 .07 0 .1-.02M1.8-10.23c.29-.08.51-.49.51-.98 0-.5-.22-.91-.51-.98M62.28-60.68a.34.34 0 0 0-.1-.01c-.32 0-.6.44-.6.99s.28.99.6.99l.1-.01M1.8-58.72c.29-.07.51-.48.51-.98s-.22-.9-.51-.98" style="fill-rule:evenodd;clip-rule:evenodd;fill:none;stroke:#000;stroke-width:.4"/></svg>