<svg xmlns="http://www.w3.org/2000/svg" xml:space="preserve" width="60.48" height="60.48" viewBox="2 -62.48 60.48 60.48"><path d="M2-62.48h60.48V-2H2z" style="fill:none"/><path d="M2-62.48h60.48V-2H2z"/><path d="M4.89-49.8c.42.54 1.05.76 1.4.48.33-.27.55-1.1.13-1.64-.43-.54-1.35-.57-1.69-.3-.34.27-.27.93.16 1.46z" style="fill-rule:evenodd;clip-rule:evenodd;fill:none;stroke:#fff;stroke-width:.5"/><ellipse cx="60.03" cy="-37.12" rx="1.12" ry=".71" style="fill-rule:evenodd;clip-rule:evenodd;fill:none;stroke:#fff;stroke-width:.5" transform="rotate(-69.8 60.03 -37.12)"/><ellipse cx="39.23" cy="-25.62" rx="1.12" ry=".71" style="fill-rule:evenodd;clip-rule:evenodd;fill:none;stroke:#fff;stroke-width:.5" transform="rotate(-69.79 39.23 -25.61)"/><path d="M46.52-30.86c.51-.15.3-.79 0-1.4-.3-.62-.57-.98-1.09-.83-.52.14-.7.76-.4 1.37.3.62.97 1 1.48.86z" style="fill-rule:evenodd;clip-rule:evenodd;fill:none;stroke:#fff;stroke-width:.5"/><ellipse cx="29.31" cy="-57.02" rx="1.24" ry=".79" style="fill-rule:evenodd;clip-rule:evenodd;fill:none;stroke:#fff;stroke-width:.5" transform="rotate(-58.42 29.31 -57.03)"/><ellipse cx="56.06" cy="-41.02" rx="1.25" ry=".79" style="fill-rule:evenodd;clip-rule:evenodd;fill:none;stroke:#fff;stroke-width:.5" transform="rotate(-58.37 56.06 -41.02)"/><ellipse cx="9.72" cy="-41.42" rx="1.25" ry=".79" style="fill-rule:evenodd;clip-rule:evenodd;fill:none;stroke:#fff;stroke-width:.5" transform="rotate(-37.43 9.72 -41.42)"/><path d="M11.18-53.4c-.37.23-.78.77-.42 1.35.35.59.95.88 1.32.65.37-.23.46-1.11.1-1.7-.36-.59-.63-.53-1-.3z" style="fill-rule:evenodd;clip-rule:evenodd;fill:none;stroke:#fff;stroke-width:.5"/><ellipse cx="6.24" cy="-21.52" rx="1.25" ry=".79" style="fill-rule:evenodd;clip-rule:evenodd;fill:none;stroke:#fff;stroke-width:.5" transform="rotate(-67.83 6.24 -21.52)"/><ellipse cx="14.91" cy="-14.58" rx="1.24" ry=".79" style="fill-rule:evenodd;clip-rule:evenodd;fill:none;stroke:#fff;stroke-width:.5" transform="rotate(-51.82 14.91 -14.58)"/><ellipse cx="30.81" cy="-32.45" rx="1.24" ry=".79" style="fill-rule:evenodd;clip-rule:evenodd;fill:none;stroke:#fff;stroke-width:.5" transform="rotate(-60.85 30.8 -32.45)"/><ellipse cx="18.27" cy="-38.69" rx="1.25" ry=".79" style="fill-rule:evenodd;clip-rule:evenodd;fill:none;stroke:#fff;stroke-width:.5" transform="rotate(-60.84 18.27 -38.68)"/><ellipse cx="41.3" cy="-6.01" rx="1.24" ry=".79" style="fill-rule:evenodd;clip-rule:evenodd;fill:none;stroke:#fff;stroke-width:.5" transform="rotate(-89.29 41.3 -6)"/><ellipse cx="22.95" cy="-42.45" rx=".79" ry="1.24" style="fill-rule:evenodd;clip-rule:evenodd;fill:none;stroke:#fff;stroke-width:.5" transform="rotate(-18.08 22.95 -42.45)"/><path d="M10.31-58.86c-.33-.6-1.33-.9-1.7-.68-.4.22-.43.87-.1 1.48.34.6.92.9 1.3.7.38-.22.84-.9.5-1.5z" style="fill-rule:evenodd;clip-rule:evenodd;fill:none;stroke:#fff;stroke-width:.5"/><ellipse cx="27.77" cy="-49.2" rx=".71" ry="1.12" style="fill-rule:evenodd;clip-rule:evenodd;fill:none;stroke:#fff;stroke-width:.5" transform="rotate(-8.11 27.78 -49.2)"/><ellipse cx="60.46" cy="-53.3" rx="1.12" ry=".71" style="fill-rule:evenodd;clip-rule:evenodd;fill:none;stroke:#fff;stroke-width:.5" transform="rotate(-78.67 60.46 -53.3)"/><ellipse cx="24.41" cy="-13.81" rx="1.24" ry=".79" style="fill-rule:evenodd;clip-rule:evenodd;fill:none;stroke:#fff;stroke-width:.5" transform="rotate(-89.82 24.4 -13.8)"/><ellipse cx="41.37" cy="-12.4" rx="1.25" ry=".79" style="fill-rule:evenodd;clip-rule:evenodd;fill:none;stroke:#fff;stroke-width:.5" transform="rotate(-75.36 41.36 -12.4)"/><ellipse cx="32.8" cy="-8.74" rx="1.24" ry=".79" style="fill-rule:evenodd;clip-rule:evenodd;fill:none;stroke:#fff;stroke-width:.5" transform="rotate(-70.45 32.8 -8.74)"/><ellipse cx="4.7" cy="-46.58" rx=".51" ry=".71" style="fill-rule:evenodd;clip-rule:evenodd;fill:none;stroke:#fff;stroke-width:.5" transform="rotate(-25.07 4.7 -46.58)"/><ellipse cx="8.37" cy="-4.2" rx=".71" ry=".51" style="fill-rule:evenodd;clip-rule:evenodd;fill:none;stroke:#fff;stroke-width:.5" transform="rotate(-81.3 8.37 -4.2)"/><ellipse cx="6.08" cy="-15.16" rx=".51" ry=".71" style="fill-rule:evenodd;clip-rule:evenodd;fill:none;stroke:#fff;stroke-width:.5"/><ellipse cx="26.88" cy="-44.71" rx=".51" ry=".71" style="fill-rule:evenodd;clip-rule:evenodd;fill:none;stroke:#fff;stroke-width:.5"/><ellipse cx="19.78" cy="-60.61" rx=".51" ry=".71" style="fill-rule:evenodd;clip-rule:evenodd;fill:none;stroke:#fff;stroke-width:.5"/><ellipse cx="58.41" cy="-24.58" rx=".51" ry=".71" style="fill-rule:evenodd;clip-rule:evenodd;fill:none;stroke:#fff;stroke-width:.5"/><ellipse cx="47.01" cy="-27.18" rx=".51" ry=".71" style="fill-rule:evenodd;clip-rule:evenodd;fill:none;stroke:#fff;stroke-width:.5"/><ellipse cx="34.41" cy="-4.58" rx=".51" ry=".71" style="fill-rule:evenodd;clip-rule:evenodd;fill:none;stroke:#fff;stroke-width:.5"/><ellipse cx="21.48" cy="-35.11" rx=".51" ry=".71" style="fill-rule:evenodd;clip-rule:evenodd;fill:none;stroke:#fff;stroke-width:.5"/><ellipse cx="44.31" cy="-38.18" rx=".51" ry=".71" style="fill-rule:evenodd;clip-rule:evenodd;fill:none;stroke:#fff;stroke-width:.5"/><ellipse cx="31.74" cy="-42.42" rx=".71" ry=".51" style="fill-rule:evenodd;clip-rule:evenodd;fill:none;stroke:#fff;stroke-width:.5" transform="rotate(-61.22 31.74 -42.43)"/><ellipse cx="40.11" cy="-33.78" rx=".51" ry=".71" style="fill-rule:evenodd;clip-rule:evenodd;fill:none;stroke:#fff;stroke-width:.5"/><ellipse cx="39.23" cy="-57.61" rx=".51" ry=".71" style="fill-rule:evenodd;clip-rule:evenodd;fill:none;stroke:#fff;stroke-width:.5"/><ellipse cx="11.86" cy="-24.46" rx=".51" ry=".71" style="fill-rule:evenodd;clip-rule:evenodd;fill:none;stroke:#fff;stroke-width:.5"/><ellipse cx="27.68" cy="-28.71" rx=".51" ry=".71" style="fill-rule:evenodd;clip-rule:evenodd;fill:none;stroke:#fff;stroke-width:.5"/><ellipse cx="46.34" cy="-12.9" rx=".71" ry=".51" style="fill-rule:evenodd;clip-rule:evenodd;fill:none;stroke:#fff;stroke-width:.5" transform="rotate(-78.94 46.34 -12.9)"/><ellipse cx="45.08" cy="-44.11" rx=".51" ry=".71" style="fill-rule:evenodd;clip-rule:evenodd;fill:none;stroke:#fff;stroke-width:.5"/><ellipse cx="38.68" cy="-45.71" rx=".51" ry=".71" style="fill-rule:evenodd;clip-rule:evenodd;fill:none;stroke:#fff;stroke-width:.5"/><ellipse cx="40.55" cy="-42.43" rx=".78" ry=".56" style="fill-rule:evenodd;clip-rule:evenodd;fill:none;stroke:#fff;stroke-width:.5" transform="rotate(-78.07 40.55 -42.43)"/><ellipse cx="59.61" cy="-56.94" rx=".79" ry=".56" style="fill-rule:evenodd;clip-rule:evenodd;fill:none;stroke:#fff;stroke-width:.5" transform="rotate(-69.81 59.6 -56.93)"/><ellipse cx="31.35" cy="-51.73" rx=".78" ry=".56" style="fill-rule:evenodd;clip-rule:evenodd;fill:none;stroke:#fff;stroke-width:.5" transform="rotate(-78 31.35 -51.73)"/><ellipse cx="41.55" cy="-29.03" rx=".78" ry=".56" style="fill-rule:evenodd;clip-rule:evenodd;fill:none;stroke:#fff;stroke-width:.5" transform="rotate(-78 41.55 -29.03)"/><path d="M7.83-35.24c.42-.07.66-.48.53-.92-.12-.44-.56-.74-.98-.67-.42.06-.66.47-.54.91.13.44.57.75.99.68z" style="fill-rule:evenodd;clip-rule:evenodd;fill:none;stroke:#fff;stroke-width:.5"/><ellipse cx="43.13" cy="-51.55" rx=".71" ry=".51" style="fill-rule:evenodd;clip-rule:evenodd;fill:none;stroke:#fff;stroke-width:.5" transform="rotate(-65.6 43.13 -51.55)"/><ellipse cx="14.91" cy="-54.88" rx=".51" ry=".71" style="fill-rule:evenodd;clip-rule:evenodd;fill:none;stroke:#fff;stroke-width:.5"/><ellipse cx="50.88" cy="-32.71" rx=".51" ry=".71" style="fill-rule:evenodd;clip-rule:evenodd;fill:none;stroke:#fff;stroke-width:.5"/><ellipse cx="60.11" cy="-15.18" rx=".51" ry=".71" style="fill-rule:evenodd;clip-rule:evenodd;fill:none;stroke:#fff;stroke-width:.5"/><ellipse cx="34.26" cy="-18.43" rx=".51" ry=".71" style="fill-rule:evenodd;clip-rule:evenodd;fill:none;stroke:#fff;stroke-width:.5"/><ellipse cx="51.97" cy="-57.96" rx=".71" ry=".51" style="fill-rule:evenodd;clip-rule:evenodd;fill:none;stroke:#fff;stroke-width:.5" transform="rotate(-78.59 51.97 -57.96)"/><ellipse cx="37.94" cy="-37.9" rx=".71" ry=".51" style="fill-rule:evenodd;clip-rule:evenodd;fill:none;stroke:#fff;stroke-width:.5" transform="rotate(-78.54 37.94 -37.9)"/><ellipse cx="30.51" cy="-23.23" rx=".51" ry=".71" style="fill-rule:evenodd;clip-rule:evenodd;fill:none;stroke:#fff;stroke-width:.5"/><ellipse cx="8.55" cy="-27.77" rx=".51" ry=".71" style="fill-rule:evenodd;clip-rule:evenodd;fill:none;stroke:#fff;stroke-width:.5"/><ellipse cx="19.57" cy="-18" rx=".51" ry=".71" style="fill-rule:evenodd;clip-rule:evenodd;fill:none;stroke:#fff;stroke-width:.5"/><ellipse cx="50.01" cy="-21.38" rx=".51" ry=".71" style="fill-rule:evenodd;clip-rule:evenodd;fill:none;stroke:#fff;stroke-width:.5"/><ellipse cx="56.27" cy="-27.68" rx=".71" ry=".51" style="fill-rule:evenodd;clip-rule:evenodd;fill:none;stroke:#fff;stroke-width:.5" transform="matrix(.3 -.9539 .9539 .3 65.79 34.3)"/><ellipse cx="18.52" cy="-44.65" rx=".71" ry=".99" style="fill-rule:evenodd;clip-rule:evenodd;fill:none;stroke:#fff;stroke-width:.5"/><ellipse cx="55.87" cy="-31.29" rx=".89" ry=".64" style="fill-rule:evenodd;clip-rule:evenodd;fill:none;stroke:#fff;stroke-width:.5" transform="rotate(-89.17 55.86 -31.29)"/><path d="M20.27-7.92c.3.5.84.73 1.2.52.38-.2.43-.78.13-1.27-.3-.5-.85-.73-1.22-.52-.37.2-.42.78-.11 1.27zM36.04-23.05c-.14-.62-.55-1-.93-.83-.38.16-.57.8-.43 1.43.14.63.56 1 .93.84.38-.17.57-.81.43-1.44zM51.51-27.93c-.37.16-.57.8-.43 1.43.14.63.56 1 .93.84.38-.17.57-.81.44-1.44-.14-.62-.56-1-.94-.83zM59.33-19.01c.17.56.56.86.85.68.3-.19.4-.79.22-1.35-.17-.55-.56-.86-.85-.67-.3.18-.4.78-.22 1.34z" style="fill-rule:evenodd;clip-rule:evenodd;fill:none;stroke:#fff;stroke-width:.5"/><ellipse cx="36.47" cy="-41.99" rx=".99" ry=".71" style="fill-rule:evenodd;clip-rule:evenodd;fill:none;stroke:#fff;stroke-width:.5" transform="rotate(-56.37 36.46 -41.99)"/><ellipse cx="48.87" cy="-40.89" rx=".99" ry=".71" style="fill-rule:evenodd;clip-rule:evenodd;fill:none;stroke:#fff;stroke-width:.5" transform="rotate(-56.34 48.86 -40.89)"/><ellipse cx="48.37" cy="-60.13" rx=".71" ry=".99" style="fill-rule:evenodd;clip-rule:evenodd;fill:none;stroke:#fff;stroke-width:.5" transform="rotate(-8.19 48.35 -60.12)"/><ellipse cx="58.66" cy="-45.99" rx=".99" ry=".71" style="fill-rule:evenodd;clip-rule:evenodd;fill:none;stroke:#fff;stroke-width:.5" transform="rotate(-56.34 58.66 -45.98)"/><ellipse cx="44.16" cy="-47.99" rx=".99" ry=".71" style="fill-rule:evenodd;clip-rule:evenodd;fill:none;stroke:#fff;stroke-width:.5" transform="rotate(-56.34 44.16 -47.98)"/><ellipse cx="39.31" cy="-53.02" rx=".99" ry=".71" style="fill-rule:evenodd;clip-rule:evenodd;fill:none;stroke:#fff;stroke-width:.5" transform="rotate(-68.11 39.3 -53.02)"/><ellipse cx="34.33" cy="-59.62" rx=".99" ry=".71" style="fill-rule:evenodd;clip-rule:evenodd;fill:none;stroke:#fff;stroke-width:.5" transform="rotate(-56.34 34.33 -59.62)"/><ellipse cx="25.17" cy="-59.49" rx=".99" ry=".71" style="fill-rule:evenodd;clip-rule:evenodd;fill:none;stroke:#fff;stroke-width:.5" transform="rotate(-56.32 25.16 -59.48)"/><ellipse cx="5.53" cy="-61.17" rx=".99" ry=".71" style="fill-rule:evenodd;clip-rule:evenodd;fill:none;stroke:#fff;stroke-width:.5" transform="rotate(-56.34 5.53 -61.17)"/><ellipse cx="32.81" cy="-38.66" rx=".71" ry=".99" style="fill-rule:evenodd;clip-rule:evenodd;fill:none;stroke:#fff;stroke-width:.5"/><ellipse cx="18.81" cy="-56.85" rx=".71" ry=".99" style="fill-rule:evenodd;clip-rule:evenodd;fill:none;stroke:#fff;stroke-width:.5"/><path d="M15.58-59c0-.55-.31-1.58-.7-1.58-.4 0-.7.44-.7 1 0 .54.3.98.7.98.39 0 .7.15.7-.4z" style="fill-rule:evenodd;clip-rule:evenodd;fill:none;stroke:#fff;stroke-width:.5"/><ellipse cx="55.51" cy="-21.36" rx=".71" ry=".99" style="fill-rule:evenodd;clip-rule:evenodd;fill:none;stroke:#fff;stroke-width:.5"/><ellipse cx="55.11" cy="-36.66" rx=".71" ry=".99" style="fill-rule:evenodd;clip-rule:evenodd;fill:none;stroke:#fff;stroke-width:.5"/><ellipse cx="26.01" cy="-24.55" rx=".71" ry=".99" style="fill-rule:evenodd;clip-rule:evenodd;fill:none;stroke:#fff;stroke-width:.5"/><ellipse cx="45.33" cy="-8.24" rx=".99" ry=".71" style="fill-rule:evenodd;clip-rule:evenodd;fill:none;stroke:#fff;stroke-width:.5" transform="rotate(-79.17 45.33 -8.24)"/><ellipse cx="21.81" cy="-21.86" rx=".71" ry=".99" style="fill-rule:evenodd;clip-rule:evenodd;fill:none;stroke:#fff;stroke-width:.5"/><ellipse cx="18.42" cy="-24.52" rx=".99" ry=".71" style="fill-rule:evenodd;clip-rule:evenodd;fill:none;stroke:#fff;stroke-width:.5" transform="rotate(-66.67 18.42 -24.52)"/><ellipse cx="33.09" cy="-46.71" rx=".99" ry=".71" style="fill-rule:evenodd;clip-rule:evenodd;fill:none;stroke:#fff;stroke-width:.5" transform="rotate(-66.65 33.09 -46.71)"/><ellipse cx="6.39" cy="-55.51" rx=".99" ry=".71" style="fill-rule:evenodd;clip-rule:evenodd;fill:none;stroke:#fff;stroke-width:.5" transform="rotate(-66.67 6.39 -55.51)"/><ellipse cx="35.08" cy="-13.79" rx=".71" ry=".99" style="fill-rule:evenodd;clip-rule:evenodd;fill:none;stroke:#fff;stroke-width:.5"/><ellipse cx="19.33" cy="-4.41" rx=".99" ry=".71" style="fill-rule:evenodd;clip-rule:evenodd;fill:none;stroke:#fff;stroke-width:.5" transform="rotate(-73.52 19.33 -4.41)"/><ellipse cx="56.91" cy="-6.41" rx=".71" ry=".99" style="fill-rule:evenodd;clip-rule:evenodd;fill:none;stroke:#fff;stroke-width:.5"/><ellipse cx="53.81" cy="-17.98" rx=".91" ry=".69" style="fill-rule:evenodd;clip-rule:evenodd;fill:none;stroke:#fff;stroke-width:.5" transform="rotate(-59.1 53.8 -17.98)"/><ellipse cx="41.84" cy="-22.35" rx=".91" ry=".68" style="fill-rule:evenodd;clip-rule:evenodd;fill:none;stroke:#fff;stroke-width:.5" transform="rotate(-59.06 41.84 -22.35)"/><ellipse cx="61.04" cy="-3.67" rx=".91" ry=".69" style="fill-rule:evenodd;clip-rule:evenodd;fill:none;stroke:#fff;stroke-width:.5" transform="rotate(-85.67 61.05 -3.67)"/><ellipse cx="15.81" cy="-9.78" rx=".91" ry=".69" style="fill-rule:evenodd;clip-rule:evenodd;fill:none;stroke:#fff;stroke-width:.5" transform="rotate(-59.11 15.81 -9.78)"/><ellipse cx="27.13" cy="-34" rx=".74" ry=".56" style="fill-rule:evenodd;clip-rule:evenodd;fill:none;stroke:#fff;stroke-width:.5" transform="rotate(-59.04 27.14 -34)"/><ellipse cx="16.45" cy="-33.25" rx=".91" ry=".69" style="fill-rule:evenodd;clip-rule:evenodd;fill:none;stroke:#fff;stroke-width:.5" transform="rotate(-59.07 16.44 -33.25)"/><ellipse cx="21.61" cy="-48.98" rx=".91" ry=".69" style="fill-rule:evenodd;clip-rule:evenodd;fill:none;stroke:#fff;stroke-width:.5" transform="rotate(-59.1 21.6 -48.98)"/><ellipse cx="10.54" cy="-32.3" rx=".91" ry=".68" style="fill-rule:evenodd;clip-rule:evenodd;fill:none;stroke:#fff;stroke-width:.5" transform="rotate(-59.08 10.54 -32.3)"/><ellipse cx="9.71" cy="-48.18" rx=".91" ry=".69" style="fill-rule:evenodd;clip-rule:evenodd;fill:none;stroke:#fff;stroke-width:.5" transform="rotate(-59.12 9.71 -48.18)"/><ellipse cx="37.5" cy="-8.53" rx=".89" ry=".64" style="fill-rule:evenodd;clip-rule:evenodd;fill:none;stroke:#fff;stroke-width:.5" transform="rotate(-76.01 37.5 -8.53)"/><ellipse cx="5.46" cy="-8.66" rx=".89" ry=".64" style="fill-rule:evenodd;clip-rule:evenodd;fill:none;stroke:#fff;stroke-width:.5" transform="rotate(-76.02 5.46 -8.66)"/><ellipse cx="58.59" cy="-10.79" rx=".64" ry=".89" style="fill-rule:evenodd;clip-rule:evenodd;fill:none;stroke:#fff;stroke-width:.5" transform="rotate(-11.51 58.6 -10.8)"/><ellipse cx="3.75" cy="-4.94" rx=".89" ry=".64" style="fill-rule:evenodd;clip-rule:evenodd;fill:none;stroke:#fff;stroke-width:.5" transform="rotate(-72.16 3.75 -4.94)"/><ellipse cx="10.21" cy="-8.56" rx=".89" ry=".64" style="fill-rule:evenodd;clip-rule:evenodd;fill:none;stroke:#fff;stroke-width:.5" transform="rotate(-76.02 10.21 -8.56)"/><ellipse cx="17.7" cy="-28.63" rx=".89" ry=".64" style="fill-rule:evenodd;clip-rule:evenodd;fill:none;stroke:#fff;stroke-width:.5" transform="rotate(-76.06 17.7 -28.63)"/><ellipse cx="13.37" cy="-43.86" rx=".89" ry=".64" style="fill-rule:evenodd;clip-rule:evenodd;fill:none;stroke:#fff;stroke-width:.5" transform="rotate(-76.02 13.37 -43.86)"/><ellipse cx="4.97" cy="-39.76" rx=".89" ry=".64" style="fill-rule:evenodd;clip-rule:evenodd;fill:none;stroke:#fff;stroke-width:.5" transform="rotate(-56.18 4.97 -39.75)"/><ellipse cx="25.08" cy="-3.75" rx=".89" ry=".64" style="fill-rule:evenodd;clip-rule:evenodd;fill:none;stroke:#fff;stroke-width:.5" transform="rotate(-88.02 25.08 -3.76)"/><ellipse cx="36.74" cy="-49.6" rx=".57" ry=".8" style="fill-rule:evenodd;clip-rule:evenodd;fill:none;stroke:#fff;stroke-width:.5" transform="rotate(-4.58 36.75 -49.6)"/><ellipse cx="42.64" cy="-61.17" rx=".8" ry=".57" style="fill-rule:evenodd;clip-rule:evenodd;fill:none;stroke:#fff;stroke-width:.5" transform="rotate(-62.22 42.64 -61.17)"/><ellipse cx="47.82" cy="-46.84" rx=".8" ry=".57" style="fill-rule:evenodd;clip-rule:evenodd;fill:none;stroke:#fff;stroke-width:.5" transform="rotate(-75.93 47.82 -46.84)"/><ellipse cx="51.8" cy="-7.59" rx=".99" ry=".71" style="fill-rule:evenodd;clip-rule:evenodd;fill:none;stroke:#fff;stroke-width:.5" transform="rotate(-85.45 51.8 -7.59)"/><ellipse cx="28.76" cy="-6.25" rx=".99" ry=".71" style="fill-rule:evenodd;clip-rule:evenodd;fill:none;stroke:#fff;stroke-width:.5" transform="rotate(-74.37 28.76 -6.25)"/><path d="M24.23-37.19c0 .55.38.99.85.99s.85-.44.85-.99-.78-1.21-1.25-1.21-.45.66-.45 1.21zM29.16-40.43c0-.55-.58-1.64-1.05-1.64-.47 0-.64 1.1-.64 1.64 0 .55.38.99.84.99.47 0 .85-.44.85-.99zM57.79-61.33c-.5-.22-1.06-.06-1.25.37-.2.43.05.95.55 1.18.5.22 1.73.14 1.92-.28.2-.43-.72-1.04-1.22-1.27z" style="fill-rule:evenodd;clip-rule:evenodd;fill:none;stroke:#fff;stroke-width:.5"/><ellipse cx="15.21" cy="-5.76" rx=".76" ry=".89" style="fill-rule:evenodd;clip-rule:evenodd;fill:none;stroke:#fff;stroke-width:.5"/><ellipse cx="48.51" cy="-36.06" rx=".76" ry=".89" style="fill-rule:evenodd;clip-rule:evenodd;fill:none;stroke:#fff;stroke-width:.5"/><ellipse cx="45.08" cy="-57.49" rx=".76" ry=".89" style="fill-rule:evenodd;clip-rule:evenodd;fill:none;stroke:#fff;stroke-width:.5"/><ellipse cx="54.98" cy="-55.39" rx=".76" ry=".89" style="fill-rule:evenodd;clip-rule:evenodd;fill:none;stroke:#fff;stroke-width:.5"/><ellipse cx="34.31" cy="-55.27" rx=".69" ry=".8" style="fill-rule:evenodd;clip-rule:evenodd;fill:none;stroke:#fff;stroke-width:.5"/><ellipse cx="11.58" cy="-19.19" rx=".89" ry=".76" style="fill-rule:evenodd;clip-rule:evenodd;fill:none;stroke:#fff;stroke-width:.5" transform="rotate(-68.02 11.58 -19.19)"/><ellipse cx="13.38" cy="-28.32" rx=".99" ry=".56" style="fill-rule:evenodd;clip-rule:evenodd;fill:none;stroke:#fff;stroke-width:.5" transform="rotate(-49.98 13.38 -28.32)"/><ellipse cx="3.91" cy="-33.05" rx="1.04" ry=".62" style="fill-rule:evenodd;clip-rule:evenodd;fill:none;stroke:#fff;stroke-width:.5" transform="rotate(-73 3.91 -33.06)"/><ellipse cx="57.28" cy="-50.5" rx=".99" ry=".56" style="fill-rule:evenodd;clip-rule:evenodd;fill:none;stroke:#fff;stroke-width:.5" transform="rotate(-57.56 57.28 -50.5)"/><ellipse cx="15.65" cy="-19.56" rx=".99" ry=".57" style="fill-rule:evenodd;clip-rule:evenodd;fill:none;stroke:#fff;stroke-width:.5" transform="rotate(-76.91 15.65 -19.56)"/><ellipse cx="28.69" cy="-13.03" rx=".99" ry=".57" style="fill-rule:evenodd;clip-rule:evenodd;fill:none;stroke:#fff;stroke-width:.5" transform="rotate(-76.98 28.69 -13.03)"/><ellipse cx="45.59" cy="-17.03" rx=".99" ry=".57" style="fill-rule:evenodd;clip-rule:evenodd;fill:none;stroke:#fff;stroke-width:.5" transform="rotate(-76.93 45.59 -17.03)"/><ellipse cx="54.29" cy="-11.78" rx=".99" ry=".57" style="fill-rule:evenodd;clip-rule:evenodd;fill:none;stroke:#fff;stroke-width:.5" transform="rotate(-76.93 54.29 -11.78)"/><ellipse cx="49.25" cy="-3.76" rx=".99" ry=".56" style="fill-rule:evenodd;clip-rule:evenodd;fill:none;stroke:#fff;stroke-width:.5" transform="rotate(-76.97 49.25 -3.76)"/><ellipse cx="53.23" cy="-45.39" rx="1.27" ry=".64" style="fill-rule:evenodd;clip-rule:evenodd;fill:none;stroke:#fff;stroke-width:.5" transform="rotate(-62.52 53.22 -45.4)"/><ellipse cx="36.55" cy="-32.42" rx="1.15" ry=".57" style="fill-rule:evenodd;clip-rule:evenodd;fill:none;stroke:#fff;stroke-width:.5" transform="rotate(-62.51 36.55 -32.42)"/><ellipse cx="23.75" cy="-54.82" rx="1.15" ry=".57" style="fill-rule:evenodd;clip-rule:evenodd;fill:none;stroke:#fff;stroke-width:.5" transform="rotate(-62.54 23.75 -54.82)"/><ellipse cx="52.39" cy="-50.73" rx="1.27" ry=".64" style="fill-rule:evenodd;clip-rule:evenodd;fill:none;stroke:#fff;stroke-width:.5" transform="rotate(-62.55 52.4 -50.73)"/><path d="M47.04-54.1c-.26-.5-.85-.74-1.1-.6-.25.12-.24.63.02 1.13.26.5.67.8.92.67 1.11-.58.46-.63.16-1.2z" style="fill-rule:evenodd;clip-rule:evenodd;fill:none;stroke:#fff;stroke-width:.5"/><ellipse cx="26.44" cy="-20.3" rx="1.27" ry=".64" style="fill-rule:evenodd;clip-rule:evenodd;fill:none;stroke:#fff;stroke-width:.5" transform="rotate(-79.34 26.44 -20.3)"/><ellipse cx="33.09" cy="-27.73" rx="1.27" ry=".64" style="fill-rule:evenodd;clip-rule:evenodd;fill:none;stroke:#fff;stroke-width:.5" transform="rotate(-62.52 33.09 -27.73)"/><ellipse cx="11.07" cy="-13.32" rx="1.27" ry=".64" style="fill-rule:evenodd;clip-rule:evenodd;fill:none;stroke:#fff;stroke-width:.5" transform="rotate(-85.33 11.07 -13.32)"/><ellipse cx="4.53" cy="-27.61" rx="1.02" ry=".51" style="fill-rule:evenodd;clip-rule:evenodd;fill:none;stroke:#fff;stroke-width:.5" transform="rotate(-67.7 4.53 -27.6)"/><ellipse cx="16.59" cy="-49.24" rx="1.02" ry=".51" style="fill-rule:evenodd;clip-rule:evenodd;fill:none;stroke:#fff;stroke-width:.5" transform="rotate(-67.71 16.6 -49.24)"/><ellipse cx="45.1" cy="-23.02" rx=".81" ry=".41" style="fill-rule:evenodd;clip-rule:evenodd;fill:none;stroke:#fff;stroke-width:.5" transform="rotate(-67.76 45.1 -23.02)"/><circle cx="13.41" cy="-37.96" r=".89" style="fill-rule:evenodd;clip-rule:evenodd;fill:none;stroke:#fff;stroke-width:.5"/><ellipse cx="20.31" cy="-53.07" rx=".86" ry=".52" style="fill-rule:evenodd;clip-rule:evenodd;fill:none;stroke:#fff;stroke-width:.5" transform="rotate(-69.07 20.3 -53.07)"/><ellipse cx="20.82" cy="-13.83" rx=".86" ry=".52" style="fill-rule:evenodd;clip-rule:evenodd;fill:none;stroke:#fff;stroke-width:.5" transform="rotate(-62.58 20.82 -13.83)"/><ellipse cx="23.37" cy="-31.4" rx=".86" ry=".52" style="fill-rule:evenodd;clip-rule:evenodd;fill:none;stroke:#fff;stroke-width:.5" transform="rotate(-69.03 23.37 -31.4)"/><ellipse cx="3.07" cy="-17.7" rx=".86" ry=".52" style="fill-rule:evenodd;clip-rule:evenodd;fill:none;stroke:#fff;stroke-width:.5" transform="rotate(-69.06 3.07 -17.7)"/><path d="M29.75-16.27c.2.34.61.55.93.47.31-.08.4-.41.2-.75-.2-.33-.61-.54-.93-.46-.31.07-.4.4-.2.74zM25.88-8.8c.31-.08.4-.41.2-.75-.2-.33-.61-.54-.93-.46-.31.07-.4.4-.2.74.2.34.61.55.93.47z" style="fill-rule:evenodd;clip-rule:evenodd;fill:none;stroke:#fff;stroke-width:.5"/><ellipse cx="61.28" cy="-30.54" rx=".86" ry=".52" style="fill-rule:evenodd;clip-rule:evenodd;fill:none;stroke:#fff;stroke-width:.5" transform="rotate(-65.11 61.28 -30.55)"/><ellipse cx="51.42" cy="-14.66" rx=".86" ry=".52" style="fill-rule:evenodd;clip-rule:evenodd;fill:none;stroke:#fff;stroke-width:.5" transform="rotate(-85.76 51.41 -14.66)"/><ellipse cx="38.35" cy="-17.42" rx=".86" ry=".52" style="fill-rule:evenodd;clip-rule:evenodd;fill:none;stroke:#fff;stroke-width:.5" transform="rotate(-85.79 38.35 -17.42)"/><circle cx="49.95" cy="-44.03" r=".38" style="fill-rule:evenodd;clip-rule:evenodd;fill:none;stroke:#fff;stroke-width:.5;stroke-linecap:round;stroke-linejoin:round"/><circle cx="52.28" cy="-38.78" r=".38" style="fill-rule:evenodd;clip-rule:evenodd;fill:none;stroke:#fff;stroke-width:.5;stroke-linecap:round;stroke-linejoin:round"/><circle cx="42.61" cy="-35.35" r=".38" style="fill-rule:evenodd;clip-rule:evenodd;fill:none;stroke:#fff;stroke-width:.5;stroke-linecap:round;stroke-linejoin:round"/><circle cx="57.48" cy="-34.18" r=".38" style="fill-rule:evenodd;clip-rule:evenodd;fill:none;stroke:#fff;stroke-width:.5;stroke-linecap:round;stroke-linejoin:round"/><circle cx="29.28" cy="-36.78" r=".38" style="fill-rule:evenodd;clip-rule:evenodd;fill:none;stroke:#fff;stroke-width:.5;stroke-linecap:round;stroke-linejoin:round"/><circle cx="52.43" cy="-29.83" r=".38" style="fill-rule:evenodd;clip-rule:evenodd;fill:none;stroke:#fff;stroke-width:.5;stroke-linecap:round;stroke-linejoin:round"/><circle cx="36.31" cy="-28.55" r=".38" style="fill-rule:evenodd;clip-rule:evenodd;fill:none;stroke:#fff;stroke-width:.5;stroke-linecap:round;stroke-linejoin:round"/><circle cx="21.21" cy="-28.25" r=".38" style="fill-rule:evenodd;clip-rule:evenodd;fill:none;stroke:#fff;stroke-width:.5;stroke-linecap:round;stroke-linejoin:round"/><circle cx="41.61" cy="-16.65" r=".38" style="fill-rule:evenodd;clip-rule:evenodd;fill:none;stroke:#fff;stroke-width:.5;stroke-linecap:round;stroke-linejoin:round"/><circle cx="49.01" cy="-18.55" r=".38" style="fill-rule:evenodd;clip-rule:evenodd;fill:none;stroke:#fff;stroke-width:.5;stroke-linecap:round;stroke-linejoin:round"/><circle cx="48.61" cy="-8.65" r=".38" style="fill-rule:evenodd;clip-rule:evenodd;fill:none;stroke:#fff;stroke-width:.5;stroke-linecap:round;stroke-linejoin:round"/><circle cx="45.51" cy="-3.85" r=".38" style="fill-rule:evenodd;clip-rule:evenodd;fill:none;stroke:#fff;stroke-width:.5;stroke-linecap:round;stroke-linejoin:round"/><circle cx="8.63" cy="-17.38" r=".38" style="fill-rule:evenodd;clip-rule:evenodd;fill:none;stroke:#fff;stroke-width:.5;stroke-linecap:round;stroke-linejoin:round"/><circle cx="7.28" cy="-11.68" r=".38" style="fill-rule:evenodd;clip-rule:evenodd;fill:none;stroke:#fff;stroke-width:.5;stroke-linecap:round;stroke-linejoin:round"/><circle cx="15.2" cy="-40.63" r=".38" style="fill-rule:evenodd;clip-rule:evenodd;fill:none;stroke:#fff;stroke-width:.5;stroke-linecap:round;stroke-linejoin:round"/><circle cx="3.48" cy="-53.78" r=".38" style="fill-rule:evenodd;clip-rule:evenodd;fill:none;stroke:#fff;stroke-width:.5;stroke-linecap:round;stroke-linejoin:round"/><circle cx="8.28" cy="-45.38" r=".38" style="fill-rule:evenodd;clip-rule:evenodd;fill:none;stroke:#fff;stroke-width:.5;stroke-linecap:round;stroke-linejoin:round"/><circle cx="50.31" cy="-54.35" r=".38" style="fill-rule:evenodd;clip-rule:evenodd;fill:none;stroke:#fff;stroke-width:.5;stroke-linecap:round;stroke-linejoin:round"/><path d="M30.27-62.48c-.02.43-.27.76-.56.76-.3 0-.53-.33-.56-.76M30.27-2a.8.8 0 0 0 0-.09c0-.46-.24-.84-.56-.84-.3 0-.56.38-.56.84V-2M12.48-62.48c-.03.43-.27.76-.57.76s-.53-.33-.56-.76M12.48-2v-.09c0-.46-.25-.84-.57-.84-.3 0-.56.38-.56.84V-2M39.03-62.48c-.03.43-.34.76-.7.76-.37 0-.67-.33-.7-.76M39.03-2v-.09c0-.46-.31-.84-.7-.84-.4 0-.7.38-.7.84a.6.6 0 0 0 0 .09M54.77-62.48c-.04.43-.34.76-.7.76-.37 0-.67-.33-.7-.76M54.77-2a.6.6 0 0 0 0-.09c0-.46-.31-.84-.7-.84-.4 0-.71.38-.71.84V-2M62.48-25.94a.33.33 0 0 0-.1-.02c-.32 0-.6.45-.6 1 0 .54.28.98.6.98a.3.3 0 0 0 .1 0M2-23.99c.29-.07.51-.48.51-.98s-.22-.9-.51-.97M62.48-44.5a.37.37 0 0 0-.1 0c-.32 0-.6.44-.6.98 0 .55.28 1 .6 1 .04 0 .07 0 .1-.02M2-42.53c.29-.08.51-.49.51-.98 0-.5-.22-.91-.51-.98M62.48-12.4a.37.37 0 0 0-.1 0c-.32 0-.6.44-.6.98 0 .55.28 1 .6 1l.1-.02M2-10.44c.29-.07.51-.48.51-.98s-.22-.9-.51-.97M62.48-60.88a.33.33 0 0 0-.1-.01c-.32 0-.6.44-.6.99s.28.99.6.99l.1-.01M2-58.92c.29-.07.51-.48.51-.98s-.22-.9-.51-.98" style="fill-rule:evenodd;clip-rule:evenodd;fill:none;stroke:#fff;stroke-width:.5"/></svg>