<svg xmlns="http://www.w3.org/2000/svg" xml:space="preserve" width="58.32" height="58.32" viewBox="0.03 -58.36 58.32 58.32"><path d="M.03-58.36h58.32V-.04H.03z" style="fill:none"/><circle cx="12.02" cy="-53.82" r="1.17" style="fill:none;stroke:#000;stroke-width:.35"/><path d="M13.22-58.35a1.17 1.17 0 1 0 2.34 0" style="fill:none;stroke:#000;stroke-width:.35"/><circle cx="14.39" cy="-38.87" r="1.17" style="fill:none;stroke:#000;stroke-width:.35"/><path d="M3.79-58.35a1.17 1.17 0 1 0 2.33 0" style="fill:none;stroke:#000;stroke-width:.35"/><circle cx="4.96" cy="-38.92" r="1.17" style="fill:none;stroke:#000;stroke-width:.35"/><circle cx="19.49" cy="-56.19" r="1.17" style="fill:none;stroke:#000;stroke-width:.35"/><circle cx="19.49" cy="-51.37" r="1.17" style="fill:none;stroke:#000;stroke-width:.35"/><path d="M.04-50.2a1.17 1.17 0 1 0 0-2.34M.04-55.02a1.17 1.17 0 1 0 0-2.34" style="fill:none;stroke:#000;stroke-width:.35"/><circle cx="5.16" cy="-48.86" r="1.17" style="fill:none;stroke:#000;stroke-width:.35"/><circle cx="6.88" cy="-53.82" r="1.17" style="fill:none;stroke:#000;stroke-width:.35"/><circle cx="14.24" cy="-48.86" r="1.17" style="fill:none;stroke:#000;stroke-width:.35"/><circle cx="9.23" cy="-46.13" r="1.17" style="fill:none;stroke:#000;stroke-width:.35"/><circle cx="9.21" cy="-41.42" r="1.17" style="fill:none;stroke:#000;stroke-width:.35"/><circle cx="16.08" cy="-43.95" r="1.17" style="fill:none;stroke:#000;stroke-width:.35"/><circle cx="2.26" cy="-43.95" r="1.17" style="fill:none;stroke:#000;stroke-width:.35"/><circle cx="31.52" cy="-53.82" r="1.17" style="fill:none;stroke:#000;stroke-width:.35"/><path d="M32.72-58.35a1.17 1.17 0 1 0 2.34 0" style="fill:none;stroke:#000;stroke-width:.35"/><circle cx="33.89" cy="-38.87" r="1.17" style="fill:none;stroke:#000;stroke-width:.35"/><path d="M23.29-58.34a1.17 1.17 0 1 0 2.34 0" style="fill:none;stroke:#000;stroke-width:.35"/><circle cx="24.45" cy="-38.92" r="1.17" style="fill:none;stroke:#000;stroke-width:.35"/><circle cx="38.99" cy="-56.19" r="1.17" style="fill:none;stroke:#000;stroke-width:.35"/><circle cx="38.99" cy="-51.37" r="1.17" style="fill:none;stroke:#000;stroke-width:.35"/><circle cx="24.66" cy="-48.86" r="1.17" style="fill:none;stroke:#000;stroke-width:.35"/><circle cx="26.38" cy="-53.82" r="1.17" style="fill:none;stroke:#000;stroke-width:.35"/><circle cx="33.74" cy="-48.86" r="1.17" style="fill:none;stroke:#000;stroke-width:.35"/><circle cx="28.73" cy="-46.13" r="1.17" style="fill:none;stroke:#000;stroke-width:.35"/><circle cx="28.71" cy="-41.42" r="1.17" style="fill:none;stroke:#000;stroke-width:.35"/><circle cx="35.58" cy="-43.95" r="1.17" style="fill:none;stroke:#000;stroke-width:.35"/><circle cx="21.76" cy="-43.95" r="1.17" style="fill:none;stroke:#000;stroke-width:.35"/><circle cx="51.02" cy="-53.82" r="1.17" style="fill:none;stroke:#000;stroke-width:.35"/><path d="M52.22-58.35a1.17 1.17 0 1 0 2.34 0" style="fill:none;stroke:#000;stroke-width:.35"/><circle cx="53.39" cy="-38.87" r="1.17" style="fill:none;stroke:#000;stroke-width:.35"/><path d="M42.78-58.35a1.17 1.17 0 1 0 2.34 0" style="fill:none;stroke:#000;stroke-width:.35"/><circle cx="43.95" cy="-38.92" r="1.17" style="fill:none;stroke:#000;stroke-width:.35"/><path d="M58.37-57.35a1.17 1.17 0 0 0 0 2.34M58.35-52.54a1.17 1.17 0 0 0 0 2.34" style="fill:none;stroke:#000;stroke-width:.35"/><circle cx="44.16" cy="-48.86" r="1.17" style="fill:none;stroke:#000;stroke-width:.35"/><circle cx="45.88" cy="-53.82" r="1.17" style="fill:none;stroke:#000;stroke-width:.35"/><circle cx="53.24" cy="-48.86" r="1.17" style="fill:none;stroke:#000;stroke-width:.35"/><circle cx="48.23" cy="-46.13" r="1.17" style="fill:none;stroke:#000;stroke-width:.35"/><circle cx="48.21" cy="-41.42" r="1.17" style="fill:none;stroke:#000;stroke-width:.35"/><circle cx="55.08" cy="-43.95" r="1.17" style="fill:none;stroke:#000;stroke-width:.35"/><circle cx="41.26" cy="-43.95" r="1.17" style="fill:none;stroke:#000;stroke-width:.35"/><circle cx="12.02" cy="-34.39" r="1.17" style="fill:none;stroke:#000;stroke-width:.35"/><circle cx="14.39" cy="-38.87" r="1.17" style="fill:none;stroke:#000;stroke-width:.35"/><circle cx="14.39" cy="-19.44" r="1.17" style="fill:none;stroke:#000;stroke-width:.35"/><circle cx="4.96" cy="-19.48" r="1.17" style="fill:none;stroke:#000;stroke-width:.35"/><circle cx="19.49" cy="-36.75" r="1.17" style="fill:none;stroke:#000;stroke-width:.35"/><circle cx="19.49" cy="-31.93" r="1.17" style="fill:none;stroke:#000;stroke-width:.35"/><path d="M.04-30.77a1.17 1.17 0 1 0 0-2.34M.04-35.58a1.17 1.17 0 1 0 0-2.34" style="fill:none;stroke:#000;stroke-width:.35"/><circle cx="5.16" cy="-29.42" r="1.17" style="fill:none;stroke:#000;stroke-width:.35"/><circle cx="6.88" cy="-34.39" r="1.17" style="fill:none;stroke:#000;stroke-width:.35"/><circle cx="14.24" cy="-29.42" r="1.17" style="fill:none;stroke:#000;stroke-width:.35"/><circle cx="9.23" cy="-26.69" r="1.17" style="fill:none;stroke:#000;stroke-width:.35"/><circle cx="9.21" cy="-21.98" r="1.17" style="fill:none;stroke:#000;stroke-width:.35"/><circle cx="16.08" cy="-24.51" r="1.17" style="fill:none;stroke:#000;stroke-width:.35"/><circle cx="2.26" cy="-24.51" r="1.17" style="fill:none;stroke:#000;stroke-width:.35"/><circle cx="31.52" cy="-34.39" r="1.17" style="fill:none;stroke:#000;stroke-width:.35"/><circle cx="33.89" cy="-38.87" r="1.17" style="fill:none;stroke:#000;stroke-width:.35"/><circle cx="33.89" cy="-19.44" r="1.17" style="fill:none;stroke:#000;stroke-width:.35"/><circle cx="24.45" cy="-19.48" r="1.17" style="fill:none;stroke:#000;stroke-width:.35"/><circle cx="38.99" cy="-36.75" r="1.17" style="fill:none;stroke:#000;stroke-width:.35"/><circle cx="38.99" cy="-31.93" r="1.17" style="fill:none;stroke:#000;stroke-width:.35"/><circle cx="24.66" cy="-29.42" r="1.17" style="fill:none;stroke:#000;stroke-width:.35"/><circle cx="26.38" cy="-34.39" r="1.17" style="fill:none;stroke:#000;stroke-width:.35"/><circle cx="33.74" cy="-29.42" r="1.17" style="fill:none;stroke:#000;stroke-width:.35"/><circle cx="28.73" cy="-26.69" r="1.17" style="fill:none;stroke:#000;stroke-width:.35"/><circle cx="28.71" cy="-21.98" r="1.17" style="fill:none;stroke:#000;stroke-width:.35"/><circle cx="35.58" cy="-24.51" r="1.17" style="fill:none;stroke:#000;stroke-width:.35"/><circle cx="21.76" cy="-24.51" r="1.17" style="fill:none;stroke:#000;stroke-width:.35"/><circle cx="51.02" cy="-34.39" r="1.17" style="fill:none;stroke:#000;stroke-width:.35"/><circle cx="53.39" cy="-38.87" r="1.17" style="fill:none;stroke:#000;stroke-width:.35"/><circle cx="53.39" cy="-19.44" r="1.17" style="fill:none;stroke:#000;stroke-width:.35"/><path d="M58.35-37.92a1.17 1.17 0 0 0 0 2.34M58.37-33.1a1.17 1.17 0 0 0 0 2.34" style="fill:none;stroke:#000;stroke-width:.35"/><circle cx="44.16" cy="-29.42" r="1.17" style="fill:none;stroke:#000;stroke-width:.35"/><circle cx="45.88" cy="-34.39" r="1.17" style="fill:none;stroke:#000;stroke-width:.35"/><circle cx="53.24" cy="-29.42" r="1.17" style="fill:none;stroke:#000;stroke-width:.35"/><circle cx="48.23" cy="-26.69" r="1.17" style="fill:none;stroke:#000;stroke-width:.35"/><circle cx="48.21" cy="-21.98" r="1.17" style="fill:none;stroke:#000;stroke-width:.35"/><circle cx="55.08" cy="-24.51" r="1.17" style="fill:none;stroke:#000;stroke-width:.35"/><circle cx="41.26" cy="-24.51" r="1.17" style="fill:none;stroke:#000;stroke-width:.35"/><circle cx="12.02" cy="-14.95" r="1.17" style="fill:none;stroke:#000;stroke-width:.35"/><circle cx="14.39" cy="-19.44" r="1.17" style="fill:none;stroke:#000;stroke-width:.35"/><path d="M15.56-.04a1.17 1.17 0 0 0-2.34 0M6.13-.04a1.17 1.17 0 0 0-2.34 0" style="fill:none;stroke:#000;stroke-width:.35"/><circle cx="19.49" cy="-17.31" r="1.17" style="fill:none;stroke:#000;stroke-width:.35"/><circle cx="19.49" cy="-12.5" r="1.17" style="fill:none;stroke:#000;stroke-width:.35"/><path d="M.04-11.33a1.17 1.17 0 1 0 0-2.34M.03-16.14a1.17 1.17 0 1 0 0-2.34" style="fill:none;stroke:#000;stroke-width:.35"/><circle cx="5.16" cy="-9.99" r="1.17" style="fill:none;stroke:#000;stroke-width:.35"/><circle cx="6.88" cy="-14.95" r="1.17" style="fill:none;stroke:#000;stroke-width:.35"/><circle cx="14.24" cy="-9.99" r="1.17" style="fill:none;stroke:#000;stroke-width:.35"/><circle cx="9.23" cy="-7.25" r="1.17" style="fill:none;stroke:#000;stroke-width:.35"/><circle cx="9.21" cy="-2.55" r="1.17" style="fill:none;stroke:#000;stroke-width:.35"/><circle cx="16.08" cy="-5.07" r="1.17" style="fill:none;stroke:#000;stroke-width:.35"/><circle cx="2.26" cy="-5.07" r="1.17" style="fill:none;stroke:#000;stroke-width:.35"/><circle cx="31.52" cy="-14.95" r="1.17" style="fill:none;stroke:#000;stroke-width:.35"/><circle cx="33.89" cy="-19.44" r="1.17" style="fill:none;stroke:#000;stroke-width:.35"/><path d="M35.06-.04a1.17 1.17 0 0 0-2.34 0M25.63-.04a1.17 1.17 0 0 0-2.35 0" style="fill:none;stroke:#000;stroke-width:.35"/><circle cx="38.99" cy="-17.31" r="1.17" style="fill:none;stroke:#000;stroke-width:.35"/><circle cx="38.99" cy="-12.5" r="1.17" style="fill:none;stroke:#000;stroke-width:.35"/><circle cx="24.66" cy="-9.99" r="1.17" style="fill:none;stroke:#000;stroke-width:.35"/><circle cx="26.38" cy="-14.95" r="1.17" style="fill:none;stroke:#000;stroke-width:.35"/><circle cx="33.74" cy="-9.99" r="1.17" style="fill:none;stroke:#000;stroke-width:.35"/><circle cx="28.73" cy="-7.25" r="1.17" style="fill:none;stroke:#000;stroke-width:.35"/><circle cx="28.71" cy="-2.55" r="1.17" style="fill:none;stroke:#000;stroke-width:.35"/><circle cx="35.58" cy="-5.07" r="1.17" style="fill:none;stroke:#000;stroke-width:.35"/><circle cx="21.76" cy="-5.07" r="1.17" style="fill:none;stroke:#000;stroke-width:.35"/><circle cx="51.02" cy="-14.95" r="1.17" style="fill:none;stroke:#000;stroke-width:.35"/><circle cx="53.39" cy="-19.44" r="1.17" style="fill:none;stroke:#000;stroke-width:.35"/><path d="M54.56-.04a1.17 1.17 0 0 0-2.34 0" style="fill:none;stroke:#000;stroke-width:.35"/><circle cx="43.95" cy="-19.44" r="1.17" style="fill:none;stroke:#000;stroke-width:.35"/><path d="M45.13-.04a1.17 1.17 0 0 0-2.35 0M58.37-18.48a1.17 1.17 0 0 0 0 2.34M58.37-13.67a1.17 1.17 0 0 0 0 2.34" style="fill:none;stroke:#000;stroke-width:.35"/><circle cx="44.16" cy="-9.99" r="1.17" style="fill:none;stroke:#000;stroke-width:.35"/><circle cx="45.88" cy="-14.95" r="1.17" style="fill:none;stroke:#000;stroke-width:.35"/><circle cx="53.24" cy="-9.99" r="1.17" style="fill:none;stroke:#000;stroke-width:.35"/><circle cx="48.23" cy="-7.25" r="1.17" style="fill:none;stroke:#000;stroke-width:.35"/><circle cx="48.21" cy="-2.55" r="1.17" style="fill:none;stroke:#000;stroke-width:.35"/><circle cx="55.08" cy="-5.07" r="1.17" style="fill:none;stroke:#000;stroke-width:.35"/><circle cx="41.26" cy="-5.07" r="1.17" style="fill:none;stroke:#000;stroke-width:.35"/></svg>