<svg xmlns="http://www.w3.org/2000/svg" xmlns:xlink="http://www.w3.org/1999/xlink" width="33.5" height="33.5"><defs><path id="a" d="M0 0h33.5v33.5H0z"/></defs><clipPath id="b"><use xlink:href="#a" overflow="visible"/></clipPath><path fill="#00AEEF" d="M-.03 8.93c.32 0 .57-.26.57-.57S.3 7.8-.03 7.8m33.53 0c-.3 0-.56.24-.56.56s.25.57.57.57" clip-path="url(#b)"/><circle cx="1.94" cy="5.54" r=".57" fill="#00AEEF" clip-path="url(#b)"/><circle cx="1.88" cy="2.67" r=".57" fill="#00AEEF" clip-path="url(#b)"/><circle cx="7.04" cy="4.19" r=".57" fill="#00AEEF" clip-path="url(#b)"/><circle cx="5.69" cy="1.73" r=".57" fill="#00AEEF" clip-path="url(#b)"/><circle cx="4.38" cy="4.17" r=".57" fill="#00AEEF" clip-path="url(#b)"/><circle cx="5.63" cy="6.92" r=".57" fill="#00AEEF" clip-path="url(#b)"/><circle cx="2.88" cy="8.36" r=".57" fill="#00AEEF" clip-path="url(#b)"/><path fill="#00AEEF" d="M2.3 0c0 .3.26.57.58.57s.56-.25.56-.57M7.8 0c0 .3.26.57.57.57s.58-.25.58-.57M.57 0C.57.3.3.6 0 .6V0h.57z" clip-path="url(#b)"/><circle cx="8.38" cy="8.36" r=".57" fill="#00AEEF" clip-path="url(#b)"/><circle cx="10.31" cy="5.54" r=".57" fill="#00AEEF" clip-path="url(#b)"/><circle cx="10.25" cy="2.67" r=".57" fill="#00AEEF" clip-path="url(#b)"/><circle cx="15.42" cy="4.19" r=".57" fill="#00AEEF" clip-path="url(#b)"/><circle cx="14.06" cy="1.73" r=".57" fill="#00AEEF" clip-path="url(#b)"/><circle cx="12.75" cy="4.17" r=".57" fill="#00AEEF" clip-path="url(#b)"/><circle cx="14" cy="6.92" r=".57" fill="#00AEEF" clip-path="url(#b)"/><circle cx="11.25" cy="8.36" r=".57" fill="#00AEEF" clip-path="url(#b)"/><path fill="#00AEEF" d="M10.68.02c0 .3.26.57.57.57s.57-.27.57-.58" clip-path="url(#b)"/><circle cx="16.75" cy="8.29" r=".57" fill="#00AEEF" clip-path="url(#b)"/><path fill="#00AEEF" d="M16.18 0c0 .3.26.57.57.57s.57-.25.57-.57" clip-path="url(#b)"/><circle cx="18.69" cy="5.54" r=".57" fill="#00AEEF" clip-path="url(#b)"/><circle cx="18.63" cy="2.67" r=".57" fill="#00AEEF" clip-path="url(#b)"/><circle cx="23.79" cy="4.19" r=".57" fill="#00AEEF" clip-path="url(#b)"/><circle cx="22.44" cy="1.73" r=".57" fill="#00AEEF" clip-path="url(#b)"/><circle cx="21.13" cy="4.17" r=".57" fill="#00AEEF" clip-path="url(#b)"/><circle cx="22.38" cy="6.92" r=".57" fill="#00AEEF" clip-path="url(#b)"/><circle cx="19.63" cy="8.36" r=".57" fill="#00AEEF" clip-path="url(#b)"/><path fill="#00AEEF" d="M19.05 0c0 .3.26.57.57.57S20.2.3 20.2 0" clip-path="url(#b)"/><circle cx="25.13" cy="8.29" r=".57" fill="#00AEEF" clip-path="url(#b)"/><path fill="#00AEEF" d="M24.55 0c0 .3.26.57.57.57S25.7.3 25.7 0m-8.38 33.5a.57.57 0 0 0-1.14.01" clip-path="url(#b)"/><circle cx="27.06" cy="5.54" r=".57" fill="#00AEEF" clip-path="url(#b)"/><circle cx="27" cy="2.67" r=".57" fill="#00AEEF" clip-path="url(#b)"/><circle cx="32.17" cy="4.19" r=".57" fill="#00AEEF" clip-path="url(#b)"/><circle cx="30.81" cy="1.73" r=".57" fill="#00AEEF" clip-path="url(#b)"/><circle cx="29.5" cy="4.17" r=".57" fill="#00AEEF" clip-path="url(#b)"/><circle cx="30.75" cy="6.92" r=".57" fill="#00AEEF" clip-path="url(#b)"/><circle cx="28" cy="8.36" r=".57" fill="#00AEEF" clip-path="url(#b)"/><path fill="#00AEEF" d="M27.43 0c0 .3.26.57.57.57s.57-.25.57-.57M33.5.57a.58.58 0 0 1-.58-.57h.57v.57zM-.03 17.3c.32 0 .57-.25.57-.57s-.25-.57-.57-.57m33.53 0a.57.57 0 0 0 .01 1.14" clip-path="url(#b)"/><circle cx="1.94" cy="13.92" r=".57" fill="#00AEEF" clip-path="url(#b)"/><circle cx="1.88" cy="11.04" r=".57" fill="#00AEEF" clip-path="url(#b)"/><circle cx="7.04" cy="12.56" r=".57" fill="#00AEEF" clip-path="url(#b)"/><circle cx="5.69" cy="10.11" r=".57" fill="#00AEEF" clip-path="url(#b)"/><circle cx="4.38" cy="12.54" r=".57" fill="#00AEEF" clip-path="url(#b)"/><circle cx="5.63" cy="15.29" r=".57" fill="#00AEEF" clip-path="url(#b)"/><circle cx="2.88" cy="16.73" r=".57" fill="#00AEEF" clip-path="url(#b)"/><circle cx="8.38" cy="16.67" r=".57" fill="#00AEEF" clip-path="url(#b)"/><circle cx="10.31" cy="13.92" r=".57" fill="#00AEEF" clip-path="url(#b)"/><circle cx="10.25" cy="11.04" r=".57" fill="#00AEEF" clip-path="url(#b)"/><circle cx="15.42" cy="12.56" r=".57" fill="#00AEEF" clip-path="url(#b)"/><circle cx="14.06" cy="10.11" r=".57" fill="#00AEEF" clip-path="url(#b)"/><circle cx="12.75" cy="12.54" r=".57" fill="#00AEEF" clip-path="url(#b)"/><circle cx="14" cy="15.29" r=".57" fill="#00AEEF" clip-path="url(#b)"/><circle cx="11.25" cy="16.73" r=".57" fill="#00AEEF" clip-path="url(#b)"/><circle cx="18.69" cy="13.92" r=".57" fill="#00AEEF" clip-path="url(#b)"/><circle cx="18.63" cy="11.04" r=".57" fill="#00AEEF" clip-path="url(#b)"/><circle cx="23.79" cy="12.56" r=".57" fill="#00AEEF" clip-path="url(#b)"/><circle cx="22.44" cy="10.11" r=".57" fill="#00AEEF" clip-path="url(#b)"/><circle cx="21.13" cy="12.54" r=".57" fill="#00AEEF" clip-path="url(#b)"/><circle cx="22.38" cy="15.29" r=".57" fill="#00AEEF" clip-path="url(#b)"/><circle cx="19.63" cy="16.73" r=".57" fill="#00AEEF" clip-path="url(#b)"/><circle cx="25.13" cy="16.67" r=".57" fill="#00AEEF" clip-path="url(#b)"/><circle cx="27.06" cy="13.92" r=".57" fill="#00AEEF" clip-path="url(#b)"/><circle cx="27" cy="11.04" r=".57" fill="#00AEEF" clip-path="url(#b)"/><circle cx="32.17" cy="12.56" r=".57" fill="#00AEEF" clip-path="url(#b)"/><circle cx="30.81" cy="10.11" r=".57" fill="#00AEEF" clip-path="url(#b)"/><circle cx="29.5" cy="12.54" r=".57" fill="#00AEEF" clip-path="url(#b)"/><circle cx="30.75" cy="15.29" r=".57" fill="#00AEEF" clip-path="url(#b)"/><circle cx="28" cy="16.73" r=".57" fill="#00AEEF" clip-path="url(#b)"/><path fill="#00AEEF" d="M-.03 25.68c.32 0 .57-.26.57-.57s-.25-.56-.57-.56m33.53-.01c-.3 0-.56.25-.56.57s.25.58.57.58" clip-path="url(#b)"/><circle cx="1.94" cy="22.29" r=".57" fill="#00AEEF" clip-path="url(#b)"/><circle cx="1.88" cy="19.42" r=".57" fill="#00AEEF" clip-path="url(#b)"/><circle cx="7.04" cy="20.94" r=".57" fill="#00AEEF" clip-path="url(#b)"/><circle cx="5.69" cy="18.48" r=".57" fill="#00AEEF" clip-path="url(#b)"/><circle cx="4.38" cy="20.92" r=".57" fill="#00AEEF" clip-path="url(#b)"/><circle cx="5.63" cy="23.67" r=".57" fill="#00AEEF" clip-path="url(#b)"/><circle cx="2.88" cy="25.11" r=".57" fill="#00AEEF" clip-path="url(#b)"/><circle cx="8.38" cy="25.04" r=".57" fill="#00AEEF" clip-path="url(#b)"/><circle cx="10.31" cy="22.29" r=".57" fill="#00AEEF" clip-path="url(#b)"/><circle cx="10.25" cy="19.42" r=".57" fill="#00AEEF" clip-path="url(#b)"/><circle cx="15.42" cy="20.94" r=".57" fill="#00AEEF" clip-path="url(#b)"/><circle cx="14.06" cy="18.48" r=".57" fill="#00AEEF" clip-path="url(#b)"/><circle cx="12.75" cy="20.92" r=".57" fill="#00AEEF" clip-path="url(#b)"/><circle cx="14" cy="23.67" r=".57" fill="#00AEEF" clip-path="url(#b)"/><circle cx="11.25" cy="25.11" r=".57" fill="#00AEEF" clip-path="url(#b)"/><circle cx="16.75" cy="25.04" r=".57" fill="#00AEEF" clip-path="url(#b)"/><circle cx="16.75" cy="16.79" r=".57" fill="#00AEEF" clip-path="url(#b)"/><circle cx="18.69" cy="22.29" r=".57" fill="#00AEEF" clip-path="url(#b)"/><circle cx="18.63" cy="19.42" r=".57" fill="#00AEEF" clip-path="url(#b)"/><circle cx="23.79" cy="20.94" r=".57" fill="#00AEEF" clip-path="url(#b)"/><circle cx="22.44" cy="18.48" r=".57" fill="#00AEEF" clip-path="url(#b)"/><circle cx="21.13" cy="20.92" r=".57" fill="#00AEEF" clip-path="url(#b)"/><circle cx="22.38" cy="23.67" r=".57" fill="#00AEEF" clip-path="url(#b)"/><circle cx="19.63" cy="25.11" r=".57" fill="#00AEEF" clip-path="url(#b)"/><circle cx="25.13" cy="25.04" r=".57" fill="#00AEEF" clip-path="url(#b)"/><circle cx="27.06" cy="22.29" r=".57" fill="#00AEEF" clip-path="url(#b)"/><circle cx="27" cy="19.42" r=".57" fill="#00AEEF" clip-path="url(#b)"/><circle cx="32.17" cy="20.94" r=".57" fill="#00AEEF" clip-path="url(#b)"/><circle cx="30.81" cy="18.48" r=".57" fill="#00AEEF" clip-path="url(#b)"/><circle cx="29.5" cy="20.92" r=".57" fill="#00AEEF" clip-path="url(#b)"/><circle cx="30.75" cy="23.67" r=".57" fill="#00AEEF" clip-path="url(#b)"/><path fill="#00AEEF" d="M0 32.92c.3 0 .56.26.56.57H0v-.58zm33.5.02c-.3 0-.56.25-.56.57h.57v-.56z" clip-path="url(#b)"/><circle cx="1.94" cy="30.67" r=".57" fill="#00AEEF" clip-path="url(#b)"/><circle cx="1.88" cy="27.79" r=".57" fill="#00AEEF" clip-path="url(#b)"/><circle cx="7.04" cy="29.31" r=".57" fill="#00AEEF" clip-path="url(#b)"/><circle cx="5.69" cy="26.86" r=".57" fill="#00AEEF" clip-path="url(#b)"/><circle cx="4.38" cy="29.29" r=".57" fill="#00AEEF" clip-path="url(#b)"/><circle cx="5.63" cy="32.04" r=".57" fill="#00AEEF" clip-path="url(#b)"/><path fill="#00AEEF" d="M3.44 33.5c0-.3-.25-.56-.57-.56s-.57.25-.57.57m6.65-.01c0-.32-.26-.57-.57-.57s-.58.26-.58.57" clip-path="url(#b)"/><circle cx="10.31" cy="30.67" r=".57" fill="#00AEEF" clip-path="url(#b)"/><circle cx="10.25" cy="27.79" r=".57" fill="#00AEEF" clip-path="url(#b)"/><circle cx="15.42" cy="29.31" r=".57" fill="#00AEEF" clip-path="url(#b)"/><circle cx="14.06" cy="26.86" r=".57" fill="#00AEEF" clip-path="url(#b)"/><circle cx="12.75" cy="29.29" r=".57" fill="#00AEEF" clip-path="url(#b)"/><circle cx="14" cy="32.04" r=".57" fill="#00AEEF" clip-path="url(#b)"/><path fill="#00AEEF" d="M11.82 33.5a.57.57 0 0 0-1.14.01" clip-path="url(#b)"/><circle cx="18.69" cy="30.67" r=".57" fill="#00AEEF" clip-path="url(#b)"/><circle cx="18.63" cy="27.79" r=".57" fill="#00AEEF" clip-path="url(#b)"/><circle cx="23.79" cy="29.31" r=".57" fill="#00AEEF" clip-path="url(#b)"/><circle cx="22.44" cy="26.86" r=".57" fill="#00AEEF" clip-path="url(#b)"/><circle cx="21.13" cy="29.29" r=".57" fill="#00AEEF" clip-path="url(#b)"/><circle cx="22.38" cy="32.04" r=".57" fill="#00AEEF" clip-path="url(#b)"/><path fill="#00AEEF" d="M20.2 33.5a.57.57 0 0 0-1.14.01m6.64-.01a.57.57 0 1 0-1.14 0" clip-path="url(#b)"/><circle cx="27.06" cy="30.67" r=".57" fill="#00AEEF" clip-path="url(#b)"/><circle cx="27" cy="27.79" r=".57" fill="#00AEEF" clip-path="url(#b)"/><circle cx="32.17" cy="29.31" r=".57" fill="#00AEEF" clip-path="url(#b)"/><circle cx="30.81" cy="26.86" r=".57" fill="#00AEEF" clip-path="url(#b)"/><circle cx="29.5" cy="29.29" r=".57" fill="#00AEEF" clip-path="url(#b)"/><circle cx="30.75" cy="32.04" r=".57" fill="#00AEEF" clip-path="url(#b)"/><path fill="#00AEEF" d="M28.57 33.5a.57.57 0 0 0-1.14.01" clip-path="url(#b)"/><circle cx="28" cy="25.17" r=".57" fill="#00AEEF" clip-path="url(#b)"/></svg>