<?xml version="1.0" encoding="utf-8"?>
<svg version="1.1" xmlns="http://www.w3.org/2000/svg" x="0px" y="0px" xml:space="preserve" width="33.5" height="33.5" viewBox="1.026 -34.508 33.5 33.5">
	<g>
		<rect x="1.026" y="-34.508" style="fill:none;" width="33.5" height="33.5"/>
		<path style="fill:#EC008C;" d="M1-25.581c0.314,0,0.57-0.255,0.57-0.57c0-0.315-0.255-0.57-0.57-0.57"/>
		<path style="fill:#EC008C;" d="M34.534-26.721c-0.315,0-0.57,0.255-0.57,0.57c0,0.315,0.255,0.57,0.57,0.57"/>
		<circle style="fill:#EC008C;" cx="2.963" cy="-28.963" r="0.57"/>
		<circle style="fill:#EC008C;" cx="2.901" cy="-31.838" r="0.57"/>
		<circle style="fill:#EC008C;" cx="8.07" cy="-30.32" r="0.57"/>
		<circle style="fill:#EC008C;" cx="6.713" cy="-32.776" r="0.57"/>
		<circle style="fill:#EC008C;" cx="5.401" cy="-30.338" r="0.57"/>
		<circle style="fill:#EC008C;" cx="6.651" cy="-27.588" r="0.57"/>
		<circle style="fill:#EC008C;" cx="3.901" cy="-26.151" r="0.57"/>
		<path style="fill:#EC008C;" d="M3.331-34.507c0,0.314,0.255,0.57,0.57,0.57c0.315,0,0.57-0.255,0.57-0.57"/>
		<path style="fill:#EC008C;" d="M8.831-34.507c0,0.314,0.255,0.57,0.57,0.57c0.315,0,0.57-0.255,0.57-0.57"/>
		<path style="fill:#EC008C;" d="M1.593-34.521c0,0.315-0.263,0.619-0.577,0.619v-0.619H1.593z"/>
		<circle style="fill:#EC008C;" cx="9.401" cy="-26.151" r="0.57"/>
		<circle style="fill:#EC008C;" cx="11.338" cy="-28.963" r="0.57"/>
		<circle style="fill:#EC008C;" cx="11.276" cy="-31.838" r="0.57"/>
		<circle style="fill:#EC008C;" cx="16.445" cy="-30.32" r="0.57"/>
		<circle style="fill:#EC008C;" cx="15.088" cy="-32.776" r="0.57"/>
		<circle style="fill:#EC008C;" cx="13.776" cy="-30.338" r="0.57"/>
		<circle style="fill:#EC008C;" cx="15.026" cy="-27.588" r="0.57"/>
		<circle style="fill:#EC008C;" cx="12.276" cy="-26.151" r="0.57"/>
		<path style="fill:#EC008C;" d="M11.706-34.492c0,0.314,0.255,0.57,0.57,0.57c0.315,0,0.57-0.255,0.57-0.57"/>
		<circle style="fill:#EC008C;" cx="17.776" cy="-26.213" r="0.57"/>
		<path style="fill:#EC008C;" d="M17.206-34.507c0,0.314,0.255,0.57,0.57,0.57c0.315,0,0.57-0.255,0.57-0.57"/>
		<circle style="fill:#EC008C;" cx="19.713" cy="-28.963" r="0.57"/>
		<circle style="fill:#EC008C;" cx="19.651" cy="-31.838" r="0.57"/>
		<circle style="fill:#EC008C;" cx="24.82" cy="-30.32" r="0.57"/>
		<circle style="fill:#EC008C;" cx="23.463" cy="-32.776" r="0.57"/>
		<circle style="fill:#EC008C;" cx="22.151" cy="-30.338" r="0.57"/>
		<circle style="fill:#EC008C;" cx="23.401" cy="-27.588" r="0.57"/>
		<circle style="fill:#EC008C;" cx="20.651" cy="-26.151" r="0.57"/>
		<path style="fill:#EC008C;" d="M20.081-34.507c0,0.314,0.255,0.57,0.57,0.57c0.315,0,0.57-0.255,0.57-0.57"/>
		<circle style="fill:#EC008C;" cx="26.151" cy="-26.213" r="0.57"/>
		<path style="fill:#EC008C;" d="M25.581-34.507c0,0.314,0.255,0.57,0.57,0.57c0.315,0,0.57-0.255,0.57-0.57"/>
		<path style="fill:#EC008C;" d="M18.346-1c0-0.315-0.255-0.57-0.57-0.57c-0.315,0-0.57,0.255-0.57,0.57"/>
		<circle style="fill:#EC008C;" cx="28.088" cy="-28.963" r="0.57"/>
		<circle style="fill:#EC008C;" cx="28.026" cy="-31.838" r="0.57"/>
		<circle style="fill:#EC008C;" cx="33.195" cy="-30.32" r="0.57"/>
		<circle style="fill:#EC008C;" cx="31.838" cy="-32.776" r="0.57"/>
		<circle style="fill:#EC008C;" cx="30.526" cy="-30.338" r="0.57"/>
		<circle style="fill:#EC008C;" cx="31.776" cy="-27.588" r="0.57"/>
		<circle style="fill:#EC008C;" cx="29.026" cy="-26.151" r="0.57"/>
		<path style="fill:#EC008C;" d="M28.456-34.507c0,0.314,0.255,0.57,0.57,0.57c0.315,0,0.57-0.255,0.57-0.57"/>
		<path style="fill:#EC008C;" d="M34.518-33.938c-0.315,0-0.57-0.255-0.57-0.57h0.57V-33.938z"/>
		<path style="fill:#EC008C;" d="M1-17.206c0.314,0,0.57-0.255,0.57-0.57c0-0.315-0.255-0.57-0.57-0.57"/>
		<path style="fill:#EC008C;" d="M34.534-18.346c-0.315,0-0.57,0.255-0.57,0.57c0,0.315,0.255,0.57,0.57,0.57"/>
		<circle style="fill:#EC008C;" cx="2.963" cy="-20.588" r="0.57"/>
		<circle style="fill:#EC008C;" cx="2.901" cy="-23.463" r="0.57"/>
		<circle style="fill:#EC008C;" cx="8.07" cy="-21.945" r="0.57"/>
		<circle style="fill:#EC008C;" cx="6.713" cy="-24.401" r="0.57"/>
		<circle style="fill:#EC008C;" cx="5.401" cy="-21.963" r="0.57"/>
		<circle style="fill:#EC008C;" cx="6.651" cy="-19.213" r="0.57"/>
		<circle style="fill:#EC008C;" cx="3.901" cy="-17.776" r="0.57"/>
		<circle style="fill:#EC008C;" cx="9.401" cy="-17.838" r="0.57"/>
		<circle style="fill:#EC008C;" cx="11.338" cy="-20.588" r="0.57"/>
		<circle style="fill:#EC008C;" cx="11.276" cy="-23.463" r="0.57"/>
		<circle style="fill:#EC008C;" cx="16.445" cy="-21.945" r="0.57"/>
		<circle style="fill:#EC008C;" cx="15.088" cy="-24.401" r="0.57"/>
		<circle style="fill:#EC008C;" cx="13.776" cy="-21.963" r="0.57"/>
		<circle style="fill:#EC008C;" cx="15.026" cy="-19.213" r="0.57"/>
		<circle style="fill:#EC008C;" cx="12.276" cy="-17.776" r="0.57"/>
		<circle style="fill:#EC008C;" cx="19.713" cy="-20.588" r="0.57"/>
		<circle style="fill:#EC008C;" cx="19.651" cy="-23.463" r="0.57"/>
		<circle style="fill:#EC008C;" cx="24.82" cy="-21.945" r="0.57"/>
		<circle style="fill:#EC008C;" cx="23.463" cy="-24.401" r="0.57"/>
		<circle style="fill:#EC008C;" cx="22.151" cy="-21.963" r="0.57"/>
		<circle style="fill:#EC008C;" cx="23.401" cy="-19.213" r="0.57"/>
		<circle style="fill:#EC008C;" cx="20.651" cy="-17.776" r="0.57"/>
		<circle style="fill:#EC008C;" cx="26.151" cy="-17.838" r="0.57"/>
		<circle style="fill:#EC008C;" cx="28.088" cy="-20.588" r="0.57"/>
		<circle style="fill:#EC008C;" cx="28.026" cy="-23.463" r="0.57"/>
		<circle style="fill:#EC008C;" cx="33.195" cy="-21.945" r="0.57"/>
		<circle style="fill:#EC008C;" cx="31.838" cy="-24.401" r="0.57"/>
		<circle style="fill:#EC008C;" cx="30.526" cy="-21.963" r="0.57"/>
		<circle style="fill:#EC008C;" cx="31.776" cy="-19.213" r="0.57"/>
		<circle style="fill:#EC008C;" cx="29.026" cy="-17.776" r="0.57"/>
		<path style="fill:#EC008C;" d="M1-8.831c0.314,0,0.57-0.255,0.57-0.57c0-0.315-0.255-0.57-0.57-0.57"/>
		<path style="fill:#EC008C;" d="M34.534-9.971c-0.315,0-0.57,0.255-0.57,0.57c0,0.315,0.255,0.57,0.57,0.57"/>
		<circle style="fill:#EC008C;" cx="2.963" cy="-12.213" r="0.57"/>
		<circle style="fill:#EC008C;" cx="2.901" cy="-15.088" r="0.57"/>
		<circle style="fill:#EC008C;" cx="8.07" cy="-13.57" r="0.57"/>
		<circle style="fill:#EC008C;" cx="6.713" cy="-16.026" r="0.57"/>
		<circle style="fill:#EC008C;" cx="5.401" cy="-13.588" r="0.57"/>
		<circle style="fill:#EC008C;" cx="6.651" cy="-10.838" r="0.57"/>
		<circle style="fill:#EC008C;" cx="3.901" cy="-9.401" r="0.57"/>
		<circle style="fill:#EC008C;" cx="9.401" cy="-9.463" r="0.57"/>
		<circle style="fill:#EC008C;" cx="11.338" cy="-12.213" r="0.57"/>
		<circle style="fill:#EC008C;" cx="11.276" cy="-15.088" r="0.57"/>
		<circle style="fill:#EC008C;" cx="16.445" cy="-13.57" r="0.57"/>
		<circle style="fill:#EC008C;" cx="15.088" cy="-16.026" r="0.57"/>
		<circle style="fill:#EC008C;" cx="13.776" cy="-13.588" r="0.57"/>
		<circle style="fill:#EC008C;" cx="15.026" cy="-10.838" r="0.57"/>
		<circle style="fill:#EC008C;" cx="12.276" cy="-9.401" r="0.57"/>
		<circle style="fill:#EC008C;" cx="17.776" cy="-9.463" r="0.57"/>
		<circle style="fill:#EC008C;" cx="17.776" cy="-17.713" r="0.57"/>
		<circle style="fill:#EC008C;" cx="19.713" cy="-12.213" r="0.57"/>
		<circle style="fill:#EC008C;" cx="19.651" cy="-15.088" r="0.57"/>
		<circle style="fill:#EC008C;" cx="24.82" cy="-13.57" r="0.57"/>
		<circle style="fill:#EC008C;" cx="23.463" cy="-16.026" r="0.57"/>
		<circle style="fill:#EC008C;" cx="22.151" cy="-13.588" r="0.57"/>
		<circle style="fill:#EC008C;" cx="23.401" cy="-10.838" r="0.57"/>
		<circle style="fill:#EC008C;" cx="20.651" cy="-9.401" r="0.57"/>
		<circle style="fill:#EC008C;" cx="26.151" cy="-9.463" r="0.57"/>
		<circle style="fill:#EC008C;" cx="28.088" cy="-12.213" r="0.57"/>
		<circle style="fill:#EC008C;" cx="28.026" cy="-15.088" r="0.57"/>
		<circle style="fill:#EC008C;" cx="33.195" cy="-13.57" r="0.57"/>
		<circle style="fill:#EC008C;" cx="31.838" cy="-16.026" r="0.57"/>
		<circle style="fill:#EC008C;" cx="30.526" cy="-13.588" r="0.57"/>
		<circle style="fill:#EC008C;" cx="31.776" cy="-10.838" r="0.57"/>
		<path style="fill:#EC008C;" d="M1.016-1.583c0.315,0,0.57,0.255,0.57,0.57h-0.57V-1.583z"/>
		<path style="fill:#EC008C;" d="M34.536-1.57c-0.315,0-0.57,0.255-0.57,0.57h0.57V-1.57z"/>
		<circle style="fill:#EC008C;" cx="2.963" cy="-3.838" r="0.57"/>
		<circle style="fill:#EC008C;" cx="2.901" cy="-6.713" r="0.57"/>
		<circle style="fill:#EC008C;" cx="8.07" cy="-5.195" r="0.57"/>
		<circle style="fill:#EC008C;" cx="6.713" cy="-7.651" r="0.57"/>
		<circle style="fill:#EC008C;" cx="5.401" cy="-5.213" r="0.57"/>
		<circle style="fill:#EC008C;" cx="6.651" cy="-2.463" r="0.57"/>
		<path style="fill:#EC008C;" d="M4.471-1c0-0.315-0.255-0.57-0.57-0.57c-0.315,0-0.57,0.255-0.57,0.57"/>
		<path style="fill:#EC008C;" d="M9.971-1.008c0-0.315-0.255-0.57-0.57-0.57c-0.315,0-0.57,0.255-0.57,0.57"/>
		<circle style="fill:#EC008C;" cx="11.338" cy="-3.838" r="0.57"/>
		<circle style="fill:#EC008C;" cx="11.276" cy="-6.713" r="0.57"/>
		<circle style="fill:#EC008C;" cx="16.445" cy="-5.195" r="0.57"/>
		<circle style="fill:#EC008C;" cx="15.088" cy="-7.651" r="0.57"/>
		<circle style="fill:#EC008C;" cx="13.776" cy="-5.213" r="0.57"/>
		<circle style="fill:#EC008C;" cx="15.026" cy="-2.463" r="0.57"/>
		<path style="fill:#EC008C;" d="M12.846-1c0-0.315-0.255-0.57-0.57-0.57c-0.315,0-0.57,0.255-0.57,0.57"/>
		<circle style="fill:#EC008C;" cx="19.713" cy="-3.838" r="0.57"/>
		<circle style="fill:#EC008C;" cx="19.651" cy="-6.713" r="0.57"/>
		<circle style="fill:#EC008C;" cx="24.82" cy="-5.195" r="0.57"/>
		<circle style="fill:#EC008C;" cx="23.463" cy="-7.651" r="0.57"/>
		<circle style="fill:#EC008C;" cx="22.151" cy="-5.213" r="0.57"/>
		<circle style="fill:#EC008C;" cx="23.401" cy="-2.463" r="0.57"/>
		<path style="fill:#EC008C;" d="M21.221-1c0-0.315-0.255-0.57-0.57-0.57c-0.315,0-0.57,0.255-0.57,0.57"/>
		<path style="fill:#EC008C;" d="M26.721-1.008c0-0.315-0.255-0.57-0.57-0.57c-0.315,0-0.57,0.255-0.57,0.57"/>
		<circle style="fill:#EC008C;" cx="28.088" cy="-3.838" r="0.57"/>
		<circle style="fill:#EC008C;" cx="28.026" cy="-6.713" r="0.57"/>
		<circle style="fill:#EC008C;" cx="33.195" cy="-5.195" r="0.57"/>
		<circle style="fill:#EC008C;" cx="31.838" cy="-7.651" r="0.57"/>
		<circle style="fill:#EC008C;" cx="30.526" cy="-5.213" r="0.57"/>
		<circle style="fill:#EC008C;" cx="31.776" cy="-2.463" r="0.57"/>
		<path style="fill:#EC008C;" d="M29.596-1c0-0.315-0.255-0.57-0.57-0.57c-0.315,0-0.57,0.255-0.57,0.57"/>
		<circle style="fill:#EC008C;" cx="29.026" cy="-9.338" r="0.57"/>
	</g>
</svg>
