<?xml version="1.0" encoding="utf-8"?>
<svg version="1.1" xmlns="http://www.w3.org/2000/svg" x="0px" y="0px" xml:space="preserve" width="33.5" height="33.5" viewBox="0 -33.5 33.5 33.5">
	<g>
		<rect y="-33.5" style="fill:none;" width="33.5" height="33.5"/>
		<path d="M0-24.625c0.286,0,0.518-0.232,0.518-0.518c0-0.286-0.232-0.518-0.518-0.518"/>
		<path d="M33.482-25.661c-0.286,0-0.518,0.232-0.518,0.518c0,0.286,0.232,0.518,0.518,0.518"/>
		<circle cx="1.938" cy="-27.955" r="0.518"/>
		<circle cx="1.875" cy="-30.83" r="0.518"/>
		<circle cx="7.044" cy="-29.312" r="0.518"/>
		<circle cx="5.688" cy="-31.768" r="0.518"/>
		<circle cx="4.375" cy="-29.33" r="0.518"/>
		<circle cx="5.625" cy="-26.58" r="0.518"/>
		<circle cx="2.875" cy="-25.143" r="0.518"/>
		<path d="M2.357-33.455c0,0.286,0.232,0.518,0.518,0.518c0.286,0,0.518-0.232,0.518-0.518"/>
		<path d="M7.857-33.455c0,0.286,0.232,0.518,0.518,0.518c0.286,0,0.518-0.232,0.518-0.518"/>
		<path d="M0.518-33.455c0,0.286-0.232,0.518-0.518,0.518V-33.5L0.518-33.455z"/>
		<circle cx="8.375" cy="-25.143" r="0.518"/>
		<circle cx="10.313" cy="-27.955" r="0.518"/>
		<circle cx="10.25" cy="-30.83" r="0.518"/>
		<circle cx="15.419" cy="-29.312" r="0.518"/>
		<circle cx="14.063" cy="-31.768" r="0.518"/>
		<circle cx="12.75" cy="-29.33" r="0.518"/>
		<circle cx="14" cy="-26.58" r="0.518"/>
		<circle cx="11.25" cy="-25.143" r="0.518"/>
		<path d="M10.732-33.455c0,0.286,0.232,0.518,0.518,0.518c0.286,0,0.518-0.232,0.518-0.518"/>
		<circle cx="16.75" cy="-25.205" r="0.518"/>
		<path d="M16.232-33.455c0,0.286,0.232,0.518,0.518,0.518c0.286,0,0.518-0.232,0.518-0.518"/>
		<circle cx="18.688" cy="-27.955" r="0.518"/>
		<circle cx="18.625" cy="-30.83" r="0.518"/>
		<circle cx="23.794" cy="-29.312" r="0.518"/>
		<circle cx="22.438" cy="-31.768" r="0.518"/>
		<circle cx="21.125" cy="-29.33" r="0.518"/>
		<circle cx="22.375" cy="-26.58" r="0.518"/>
		<circle cx="19.625" cy="-25.143" r="0.518"/>
		<path d="M19.107-33.455c0,0.286,0.232,0.518,0.518,0.518c0.286,0,0.518-0.232,0.518-0.518"/>
		<circle cx="25.125" cy="-25.205" r="0.518"/>
		<path d="M24.607-33.455c0,0.286,0.232,0.518,0.518,0.518c0.286,0,0.518-0.232,0.518-0.518"/>
		<path d="M17.268-0.018c0-0.286-0.232-0.518-0.518-0.518c-0.286,0-0.518,0.232-0.518,0.518"/>
		<circle cx="27.063" cy="-27.955" r="0.518"/>
		<circle cx="27" cy="-30.83" r="0.518"/>
		<circle cx="32.169" cy="-29.312" r="0.518"/>
		<circle cx="30.813" cy="-31.768" r="0.518"/>
		<circle cx="29.5" cy="-29.33" r="0.518"/>
		<circle cx="30.75" cy="-26.58" r="0.518"/>
		<circle cx="28" cy="-25.143" r="0.518"/>
		<path d="M27.482-33.455c0,0.286,0.232,0.518,0.518,0.518c0.286,0,0.518-0.232,0.518-0.518"/>
		<path d="M33.5-32.937c-0.286,0-0.518-0.232-0.518-0.518H33.5V-32.937z"/>
		<path d="M0-16.25c0.286,0,0.518-0.232,0.518-0.518c0-0.286-0.232-0.518-0.518-0.518"/>
		<path d="M33.482-17.286c-0.286,0-0.518,0.232-0.518,0.518c0,0.286,0.232,0.518,0.518,0.518"/>
		<circle cx="1.938" cy="-19.58" r="0.518"/>
		<circle cx="1.875" cy="-22.455" r="0.518"/>
		<circle cx="7.044" cy="-20.937" r="0.518"/>
		<circle cx="5.688" cy="-23.393" r="0.518"/>
		<circle cx="4.375" cy="-20.955" r="0.518"/>
		<circle cx="5.625" cy="-18.205" r="0.518"/>
		<circle cx="2.875" cy="-16.768" r="0.518"/>
		<circle cx="8.375" cy="-16.83" r="0.518"/>
		<circle cx="10.313" cy="-19.58" r="0.518"/>
		<circle cx="10.25" cy="-22.455" r="0.518"/>
		<circle cx="15.419" cy="-20.937" r="0.518"/>
		<circle cx="14.063" cy="-23.393" r="0.518"/>
		<circle cx="12.75" cy="-20.955" r="0.518"/>
		<circle cx="14" cy="-18.205" r="0.518"/>
		<circle cx="11.25" cy="-16.768" r="0.518"/>
		<circle cx="18.688" cy="-19.58" r="0.518"/>
		<circle cx="18.625" cy="-22.455" r="0.518"/>
		<circle cx="23.794" cy="-20.937" r="0.518"/>
		<circle cx="22.438" cy="-23.393" r="0.518"/>
		<circle cx="21.125" cy="-20.955" r="0.518"/>
		<circle cx="22.375" cy="-18.205" r="0.518"/>
		<circle cx="19.625" cy="-16.768" r="0.518"/>
		<circle cx="25.125" cy="-16.83" r="0.518"/>
		<circle cx="27.063" cy="-19.58" r="0.518"/>
		<circle cx="27" cy="-22.455" r="0.518"/>
		<circle cx="32.169" cy="-20.937" r="0.518"/>
		<circle cx="30.813" cy="-23.393" r="0.518"/>
		<circle cx="29.5" cy="-20.955" r="0.518"/>
		<circle cx="30.75" cy="-18.205" r="0.518"/>
		<circle cx="28" cy="-16.768" r="0.518"/>
		<path d="M0-7.874c0.286,0,0.518-0.232,0.518-0.518c0-0.286-0.232-0.518-0.518-0.518"/>
		<path d="M33.482-8.911c-0.286,0-0.518,0.232-0.518,0.518c0,0.286,0.232,0.518,0.518,0.518"/>
		<circle cx="1.938" cy="-11.205" r="0.518"/>
		<circle cx="1.875" cy="-14.08" r="0.518"/>
		<circle cx="7.044" cy="-12.562" r="0.518"/>
		<circle cx="5.688" cy="-15.018" r="0.518"/>
		<circle cx="4.375" cy="-12.58" r="0.518"/>
		<circle cx="5.625" cy="-9.83" r="0.518"/>
		<circle cx="2.875" cy="-8.393" r="0.518"/>
		<circle cx="8.375" cy="-8.455" r="0.518"/>
		<circle cx="10.313" cy="-11.205" r="0.518"/>
		<circle cx="10.25" cy="-14.08" r="0.518"/>
		<circle cx="15.419" cy="-12.562" r="0.518"/>
		<circle cx="14.063" cy="-15.018" r="0.518"/>
		<circle cx="12.75" cy="-12.58" r="0.518"/>
		<circle cx="14" cy="-9.83" r="0.518"/>
		<circle cx="11.25" cy="-8.393" r="0.518"/>
		<circle cx="16.75" cy="-8.455" r="0.518"/>
		<circle cx="16.75" cy="-16.705" r="0.518"/>
		<circle cx="18.688" cy="-11.205" r="0.518"/>
		<circle cx="18.625" cy="-14.08" r="0.518"/>
		<circle cx="23.794" cy="-12.562" r="0.518"/>
		<circle cx="22.438" cy="-15.018" r="0.518"/>
		<circle cx="21.125" cy="-12.58" r="0.518"/>
		<circle cx="22.375" cy="-9.83" r="0.518"/>
		<circle cx="19.625" cy="-8.393" r="0.518"/>
		<circle cx="25.125" cy="-8.455" r="0.518"/>
		<circle cx="27.063" cy="-11.205" r="0.518"/>
		<circle cx="27" cy="-14.08" r="0.518"/>
		<circle cx="32.169" cy="-12.562" r="0.518"/>
		<circle cx="30.813" cy="-15.018" r="0.518"/>
		<circle cx="29.5" cy="-12.58" r="0.518"/>
		<circle cx="30.75" cy="-9.83" r="0.518"/>
		<path d="M0-0.518c0.286,0,0.518,0.232,0.518,0.518H0V-0.518z"/>
		<path d="M33.5-0.518c-0.286,0-0.518,0.232-0.518,0.518H33.5V-0.518z"/>
		<circle cx="1.938" cy="-2.83" r="0.518"/>
		<circle cx="1.875" cy="-5.705" r="0.518"/>
		<circle cx="7.044" cy="-4.187" r="0.518"/>
		<circle cx="5.688" cy="-6.643" r="0.518"/>
		<circle cx="4.375" cy="-4.205" r="0.518"/>
		<circle cx="5.625" cy="-1.455" r="0.518"/>
		<path d="M3.393-0.018c0-0.286-0.232-0.518-0.518-0.518c-0.286,0-0.518,0.232-0.518,0.518"/>
		<path d="M8.893-0.044c0-0.286-0.232-0.518-0.518-0.518c-0.286,0-0.518,0.232-0.518,0.518"/>
		<circle cx="10.313" cy="-2.83" r="0.518"/>
		<circle cx="10.25" cy="-5.705" r="0.518"/>
		<circle cx="15.419" cy="-4.187" r="0.518"/>
		<circle cx="14.063" cy="-6.643" r="0.518"/>
		<circle cx="12.75" cy="-4.205" r="0.518"/>
		<circle cx="14" cy="-1.455" r="0.518"/>
		<path d="M11.768-0.018c0-0.286-0.232-0.518-0.518-0.518c-0.286,0-0.518,0.232-0.518,0.518"/>
		<circle cx="18.688" cy="-2.83" r="0.518"/>
		<circle cx="18.625" cy="-5.705" r="0.518"/>
		<circle cx="23.794" cy="-4.187" r="0.518"/>
		<circle cx="22.438" cy="-6.643" r="0.518"/>
		<circle cx="21.125" cy="-4.205" r="0.518"/>
		<circle cx="22.375" cy="-1.455" r="0.518"/>
		<path d="M20.143-0.018c0-0.286-0.232-0.518-0.518-0.518c-0.286,0-0.518,0.232-0.518,0.518"/>
		<path d="M25.643-0.044c0-0.286-0.232-0.518-0.518-0.518c-0.286,0-0.518,0.232-0.518,0.518"/>
		<circle cx="27.063" cy="-2.83" r="0.518"/>
		<circle cx="27" cy="-5.705" r="0.518"/>
		<circle cx="32.169" cy="-4.187" r="0.518"/>
		<circle cx="30.813" cy="-6.643" r="0.518"/>
		<circle cx="29.5" cy="-4.205" r="0.518"/>
		<circle cx="30.75" cy="-1.455" r="0.518"/>
		<path d="M28.518-0.018c0-0.286-0.232-0.518-0.518-0.518c-0.286,0-0.518,0.232-0.518,0.518"/>
		<circle cx="28" cy="-8.33" r="0.518"/>
	</g>
</svg>
