<?xml version="1.0" encoding="utf-8"?>
<svg xmlns="http://www.w3.org/2000/svg" version="1.1" x="0px" y="0px" xml:space="preserve" width="39.737" height="39.737" viewBox="1.004 -40.737 39.737 39.737">
	<g>
		<rect x="1.004" y="-40.737" style="fill:none;" width="39.737" height="39.737"/>
		<rect x="1.004" y="-40.737" width="39.737" height="39.737"/>
		<circle style="fill:#FFFFFF;" cx="4.335" cy="-39.419" r="0.607"/>
		<circle style="fill:#FFFFFF;" cx="4.335" cy="-35.513" r="0.607"/>
		<path style="fill:#FFFFFF;" d="M1-37.999c0.335,0,0.606-0.271,0.606-0.607c0-0.335-0.271-0.607-0.606-0.607V-37.999z"/>
		<circle style="fill:#FFFFFF;" cx="7.62" cy="-38.606" r="0.607"/>
		<circle style="fill:#FFFFFF;" cx="7.62" cy="-36.329" r="0.607"/>
		<path style="fill:#FFFFFF;" d="M1.007-35.722c0.335,0,0.607-0.272,0.607-0.607c0-0.335-0.271-0.607-0.607-0.607V-35.722z"/>
		<circle style="fill:#FFFFFF;" cx="5.553" cy="-37.419" r="0.607"/>
		<circle style="fill:#FFFFFF;" cx="3.053" cy="-37.419" r="0.607"/>
		<path style="fill:#FFFFFF;" d="M5.763-40.738c0,0.335,0.272,0.607,0.607,0.607c0.335,0,0.607-0.272,0.607-0.607H5.763z"/>
		<circle style="fill:#FFFFFF;" cx="6.37" cy="-34.142" r="0.607"/>
		<path style="fill:#FFFFFF;" d="M1.701-40.74c0,0.335,0.272,0.608,0.607,0.608c0.336,0,0.607-0.272,0.607-0.608H1.701z"/>
		<circle style="fill:#FFFFFF;" cx="2.308" cy="-34.138" r="0.607"/>
		<circle style="fill:#FFFFFF;" cx="10.96" cy="-39.419" r="0.607"/>
		<circle style="fill:#FFFFFF;" cx="10.96" cy="-35.513" r="0.607"/>
		<circle style="fill:#FFFFFF;" cx="14.245" cy="-38.606" r="0.607"/>
		<circle style="fill:#FFFFFF;" cx="14.245" cy="-36.329" r="0.607"/>
		<circle style="fill:#FFFFFF;" cx="7.62" cy="-36.329" r="0.607"/>
		<circle style="fill:#FFFFFF;" cx="12.178" cy="-37.419" r="0.607"/>
		<circle style="fill:#FFFFFF;" cx="9.678" cy="-37.419" r="0.607"/>
		<path style="fill:#FFFFFF;" d="M12.388-40.738c0,0.335,0.272,0.607,0.607,0.607c0.336,0,0.607-0.272,0.607-0.607H12.388z"/>
		<circle style="fill:#FFFFFF;" cx="12.995" cy="-34.142" r="0.607"/>
		<path style="fill:#FFFFFF;" d="M8.326-40.738c0,0.335,0.272,0.607,0.607,0.607c0.336,0,0.607-0.272,0.607-0.607H8.326z"/>
		<circle style="fill:#FFFFFF;" cx="8.933" cy="-34.138" r="0.607"/>
		<circle style="fill:#FFFFFF;" cx="17.585" cy="-39.419" r="0.607"/>
		<circle style="fill:#FFFFFF;" cx="17.585" cy="-35.513" r="0.607"/>
		<circle style="fill:#FFFFFF;" cx="20.87" cy="-38.606" r="0.607"/>
		<circle style="fill:#FFFFFF;" cx="20.87" cy="-36.329" r="0.607"/>
		<circle style="fill:#FFFFFF;" cx="14.245" cy="-36.329" r="0.607"/>
		<circle style="fill:#FFFFFF;" cx="18.803" cy="-37.419" r="0.607"/>
		<circle style="fill:#FFFFFF;" cx="16.303" cy="-37.419" r="0.607"/>
		<path style="fill:#FFFFFF;" d="M19.013-40.738c0,0.335,0.272,0.607,0.607,0.607c0.336,0,0.607-0.272,0.607-0.607H19.013z"/>
		<circle style="fill:#FFFFFF;" cx="19.62" cy="-34.142" r="0.607"/>
		<path style="fill:#FFFFFF;" d="M14.951-40.738c0,0.335,0.272,0.607,0.607,0.607c0.336,0,0.607-0.272,0.607-0.607H14.951z"/>
		<circle style="fill:#FFFFFF;" cx="15.558" cy="-34.138" r="0.607"/>
		<circle style="fill:#FFFFFF;" cx="24.21" cy="-39.419" r="0.607"/>
		<circle style="fill:#FFFFFF;" cx="24.21" cy="-35.513" r="0.607"/>
		<circle style="fill:#FFFFFF;" cx="27.495" cy="-38.606" r="0.607"/>
		<circle style="fill:#FFFFFF;" cx="27.495" cy="-36.329" r="0.607"/>
		<circle style="fill:#FFFFFF;" cx="20.87" cy="-36.329" r="0.607"/>
		<circle style="fill:#FFFFFF;" cx="25.428" cy="-37.419" r="0.607"/>
		<circle style="fill:#FFFFFF;" cx="22.928" cy="-37.419" r="0.607"/>
		<path style="fill:#FFFFFF;" d="M25.638-40.738c0,0.335,0.272,0.607,0.607,0.607c0.336,0,0.607-0.272,0.607-0.607H25.638z"/>
		<circle style="fill:#FFFFFF;" cx="26.245" cy="-34.142" r="0.607"/>
		<path style="fill:#FFFFFF;" d="M21.576-40.738c0,0.335,0.272,0.607,0.607,0.607c0.336,0,0.607-0.272,0.607-0.607H21.576z"/>
		<circle style="fill:#FFFFFF;" cx="22.183" cy="-34.138" r="0.607"/>
		<circle style="fill:#FFFFFF;" cx="30.835" cy="-39.419" r="0.607"/>
		<circle style="fill:#FFFFFF;" cx="30.835" cy="-35.513" r="0.607"/>
		<circle style="fill:#FFFFFF;" cx="34.12" cy="-38.606" r="0.607"/>
		<circle style="fill:#FFFFFF;" cx="34.12" cy="-36.329" r="0.607"/>
		<circle style="fill:#FFFFFF;" cx="27.495" cy="-36.329" r="0.607"/>
		<circle style="fill:#FFFFFF;" cx="32.053" cy="-37.419" r="0.607"/>
		<circle style="fill:#FFFFFF;" cx="29.553" cy="-37.419" r="0.607"/>
		<path style="fill:#FFFFFF;" d="M32.263-40.738c0,0.335,0.272,0.607,0.607,0.607c0.335,0,0.607-0.272,0.607-0.607H32.263z"/>
		<circle style="fill:#FFFFFF;" cx="32.87" cy="-34.142" r="0.607"/>
		<path style="fill:#FFFFFF;" d="M28.201-40.738c0,0.335,0.272,0.607,0.607,0.607c0.336,0,0.607-0.272,0.607-0.607H28.201z"/>
		<circle style="fill:#FFFFFF;" cx="28.808" cy="-34.138" r="0.607"/>
		<circle style="fill:#FFFFFF;" cx="37.46" cy="-39.419" r="0.607"/>
		<circle style="fill:#FFFFFF;" cx="37.46" cy="-35.513" r="0.607"/>
		<path style="fill:#FFFFFF;" d="M40.741-39.213c-0.335,0-0.607,0.272-0.607,0.607c0,0.335,0.272,0.607,0.607,0.607V-39.213z"/>
		<path style="fill:#FFFFFF;" d="M40.745-36.937c-0.335,0-0.607,0.271-0.607,0.607c0,0.336,0.272,0.607,0.607,0.607V-36.937z"/>
		<circle style="fill:#FFFFFF;" cx="34.12" cy="-36.329" r="0.607"/>
		<circle style="fill:#FFFFFF;" cx="38.678" cy="-37.419" r="0.607"/>
		<circle style="fill:#FFFFFF;" cx="36.178" cy="-37.419" r="0.607"/>
		<path style="fill:#FFFFFF;" d="M38.888-40.738c0,0.335,0.272,0.607,0.607,0.607c0.335,0,0.607-0.272,0.607-0.607H38.888z"/>
		<circle style="fill:#FFFFFF;" cx="39.495" cy="-34.142" r="0.607"/>
		<path style="fill:#FFFFFF;" d="M34.826-40.738c0,0.335,0.272,0.607,0.607,0.607c0.335,0,0.607-0.272,0.607-0.607H34.826z"/>
		<circle style="fill:#FFFFFF;" cx="35.433" cy="-34.138" r="0.607"/>
		<circle style="fill:#FFFFFF;" cx="4.335" cy="-32.794" r="0.607"/>
		<circle style="fill:#FFFFFF;" cx="4.335" cy="-28.888" r="0.607"/>
		<path style="fill:#FFFFFF;" d="M1.002-31.374c0.335,0,0.606-0.271,0.606-0.607c0-0.335-0.271-0.607-0.606-0.607V-31.374z"/>
		<circle style="fill:#FFFFFF;" cx="7.62" cy="-31.981" r="0.607"/>
		<circle style="fill:#FFFFFF;" cx="7.62" cy="-29.704" r="0.607"/>
		<path style="fill:#FFFFFF;" d="M1.002-29.097c0.335,0,0.606-0.272,0.606-0.607c0-0.335-0.271-0.607-0.606-0.607V-29.097z"/>
		<circle style="fill:#FFFFFF;" cx="5.553" cy="-30.794" r="0.607"/>
		<circle style="fill:#FFFFFF;" cx="3.053" cy="-30.794" r="0.607"/>
		<circle style="fill:#FFFFFF;" cx="6.37" cy="-27.517" r="0.607"/>
		<circle style="fill:#FFFFFF;" cx="2.308" cy="-27.513" r="0.607"/>
		<circle style="fill:#FFFFFF;" cx="10.96" cy="-32.794" r="0.607"/>
		<circle style="fill:#FFFFFF;" cx="10.96" cy="-28.888" r="0.607"/>
		<circle style="fill:#FFFFFF;" cx="14.245" cy="-31.981" r="0.607"/>
		<circle style="fill:#FFFFFF;" cx="14.245" cy="-29.704" r="0.607"/>
		<circle style="fill:#FFFFFF;" cx="7.62" cy="-29.704" r="0.607"/>
		<circle style="fill:#FFFFFF;" cx="12.178" cy="-30.794" r="0.607"/>
		<circle style="fill:#FFFFFF;" cx="9.678" cy="-30.794" r="0.607"/>
		<circle style="fill:#FFFFFF;" cx="12.995" cy="-27.517" r="0.607"/>
		<circle style="fill:#FFFFFF;" cx="8.933" cy="-27.513" r="0.607"/>
		<circle style="fill:#FFFFFF;" cx="17.585" cy="-32.794" r="0.607"/>
		<circle style="fill:#FFFFFF;" cx="17.585" cy="-28.888" r="0.607"/>
		<circle style="fill:#FFFFFF;" cx="20.87" cy="-31.981" r="0.607"/>
		<circle style="fill:#FFFFFF;" cx="20.87" cy="-29.704" r="0.607"/>
		<circle style="fill:#FFFFFF;" cx="14.245" cy="-29.704" r="0.607"/>
		<circle style="fill:#FFFFFF;" cx="18.803" cy="-30.794" r="0.607"/>
		<circle style="fill:#FFFFFF;" cx="16.303" cy="-30.794" r="0.607"/>
		<circle style="fill:#FFFFFF;" cx="19.62" cy="-27.517" r="0.607"/>
		<circle style="fill:#FFFFFF;" cx="15.558" cy="-27.513" r="0.607"/>
		<circle style="fill:#FFFFFF;" cx="24.21" cy="-32.794" r="0.607"/>
		<circle style="fill:#FFFFFF;" cx="24.21" cy="-28.888" r="0.607"/>
		<circle style="fill:#FFFFFF;" cx="27.495" cy="-31.981" r="0.607"/>
		<circle style="fill:#FFFFFF;" cx="27.495" cy="-29.704" r="0.607"/>
		<circle style="fill:#FFFFFF;" cx="20.87" cy="-29.704" r="0.607"/>
		<circle style="fill:#FFFFFF;" cx="25.428" cy="-30.794" r="0.607"/>
		<circle style="fill:#FFFFFF;" cx="22.928" cy="-30.794" r="0.607"/>
		<circle style="fill:#FFFFFF;" cx="26.245" cy="-27.517" r="0.607"/>
		<circle style="fill:#FFFFFF;" cx="22.183" cy="-27.513" r="0.607"/>
		<circle style="fill:#FFFFFF;" cx="30.835" cy="-32.794" r="0.607"/>
		<circle style="fill:#FFFFFF;" cx="30.835" cy="-28.888" r="0.607"/>
		<circle style="fill:#FFFFFF;" cx="34.12" cy="-31.981" r="0.607"/>
		<circle style="fill:#FFFFFF;" cx="34.12" cy="-29.704" r="0.607"/>
		<circle style="fill:#FFFFFF;" cx="27.495" cy="-29.704" r="0.607"/>
		<circle style="fill:#FFFFFF;" cx="32.053" cy="-30.794" r="0.607"/>
		<circle style="fill:#FFFFFF;" cx="29.553" cy="-30.794" r="0.607"/>
		<circle style="fill:#FFFFFF;" cx="32.87" cy="-27.517" r="0.607"/>
		<circle style="fill:#FFFFFF;" cx="28.808" cy="-27.513" r="0.607"/>
		<circle style="fill:#FFFFFF;" cx="37.46" cy="-32.794" r="0.607"/>
		<circle style="fill:#FFFFFF;" cx="37.46" cy="-28.888" r="0.607"/>
		<path style="fill:#FFFFFF;" d="M40.739-32.588c-0.335,0-0.607,0.272-0.607,0.607c0,0.336,0.272,0.607,0.607,0.607V-32.588z"/>
		<path style="fill:#FFFFFF;" d="M40.75-30.312c-0.335,0-0.607,0.271-0.607,0.607c0,0.335,0.272,0.607,0.607,0.607V-30.312z"/>
		<circle style="fill:#FFFFFF;" cx="34.12" cy="-29.704" r="0.607"/>
		<circle style="fill:#FFFFFF;" cx="38.678" cy="-30.794" r="0.607"/>
		<circle style="fill:#FFFFFF;" cx="36.178" cy="-30.794" r="0.607"/>
		<circle style="fill:#FFFFFF;" cx="39.495" cy="-27.517" r="0.607"/>
		<circle style="fill:#FFFFFF;" cx="35.433" cy="-27.513" r="0.607"/>
		<circle style="fill:#FFFFFF;" cx="4.335" cy="-26.169" r="0.607"/>
		<circle style="fill:#FFFFFF;" cx="4.335" cy="-22.263" r="0.607"/>
		<path style="fill:#FFFFFF;" d="M1.002-24.749c0.335,0,0.606-0.271,0.606-0.607c0-0.335-0.271-0.607-0.606-0.607V-24.749z"/>
		<circle style="fill:#FFFFFF;" cx="7.62" cy="-25.356" r="0.607"/>
		<circle style="fill:#FFFFFF;" cx="7.62" cy="-23.079" r="0.607"/>
		<path style="fill:#FFFFFF;" d="M1.005-22.472c0.335,0,0.606-0.272,0.606-0.607c0-0.335-0.271-0.607-0.606-0.607V-22.472z"/>
		<circle style="fill:#FFFFFF;" cx="5.553" cy="-24.169" r="0.607"/>
		<circle style="fill:#FFFFFF;" cx="3.053" cy="-24.169" r="0.607"/>
		<circle style="fill:#FFFFFF;" cx="6.37" cy="-20.892" r="0.607"/>
		<circle style="fill:#FFFFFF;" cx="2.308" cy="-20.888" r="0.607"/>
		<circle style="fill:#FFFFFF;" cx="10.96" cy="-26.169" r="0.607"/>
		<circle style="fill:#FFFFFF;" cx="10.96" cy="-22.263" r="0.607"/>
		<circle style="fill:#FFFFFF;" cx="14.245" cy="-25.356" r="0.607"/>
		<circle style="fill:#FFFFFF;" cx="14.245" cy="-23.079" r="0.607"/>
		<circle style="fill:#FFFFFF;" cx="7.62" cy="-23.079" r="0.607"/>
		<circle style="fill:#FFFFFF;" cx="12.178" cy="-24.169" r="0.607"/>
		<circle style="fill:#FFFFFF;" cx="9.678" cy="-24.169" r="0.607"/>
		<circle style="fill:#FFFFFF;" cx="12.995" cy="-20.892" r="0.607"/>
		<circle style="fill:#FFFFFF;" cx="8.933" cy="-20.888" r="0.607"/>
		<circle style="fill:#FFFFFF;" cx="17.585" cy="-26.169" r="0.607"/>
		<circle style="fill:#FFFFFF;" cx="17.585" cy="-22.263" r="0.607"/>
		<circle style="fill:#FFFFFF;" cx="20.87" cy="-25.356" r="0.607"/>
		<circle style="fill:#FFFFFF;" cx="20.87" cy="-23.079" r="0.607"/>
		<circle style="fill:#FFFFFF;" cx="14.245" cy="-23.079" r="0.607"/>
		<circle style="fill:#FFFFFF;" cx="18.803" cy="-24.169" r="0.607"/>
		<circle style="fill:#FFFFFF;" cx="16.303" cy="-24.169" r="0.607"/>
		<circle style="fill:#FFFFFF;" cx="19.62" cy="-20.892" r="0.607"/>
		<circle style="fill:#FFFFFF;" cx="15.558" cy="-20.888" r="0.607"/>
		<circle style="fill:#FFFFFF;" cx="24.21" cy="-26.169" r="0.607"/>
		<circle style="fill:#FFFFFF;" cx="24.21" cy="-22.263" r="0.607"/>
		<circle style="fill:#FFFFFF;" cx="27.495" cy="-25.356" r="0.607"/>
		<circle style="fill:#FFFFFF;" cx="27.495" cy="-23.079" r="0.607"/>
		<circle style="fill:#FFFFFF;" cx="20.87" cy="-23.079" r="0.607"/>
		<circle style="fill:#FFFFFF;" cx="25.428" cy="-24.169" r="0.607"/>
		<circle style="fill:#FFFFFF;" cx="22.928" cy="-24.169" r="0.607"/>
		<circle style="fill:#FFFFFF;" cx="26.245" cy="-20.892" r="0.607"/>
		<circle style="fill:#FFFFFF;" cx="22.183" cy="-20.888" r="0.607"/>
		<circle style="fill:#FFFFFF;" cx="30.835" cy="-26.169" r="0.607"/>
		<circle style="fill:#FFFFFF;" cx="30.835" cy="-22.263" r="0.607"/>
		<circle style="fill:#FFFFFF;" cx="34.12" cy="-25.356" r="0.607"/>
		<circle style="fill:#FFFFFF;" cx="34.12" cy="-23.079" r="0.607"/>
		<circle style="fill:#FFFFFF;" cx="27.495" cy="-23.079" r="0.607"/>
		<circle style="fill:#FFFFFF;" cx="32.053" cy="-24.169" r="0.607"/>
		<circle style="fill:#FFFFFF;" cx="29.553" cy="-24.169" r="0.607"/>
		<circle style="fill:#FFFFFF;" cx="32.87" cy="-20.892" r="0.607"/>
		<circle style="fill:#FFFFFF;" cx="28.808" cy="-20.888" r="0.607"/>
		<circle style="fill:#FFFFFF;" cx="37.46" cy="-26.169" r="0.607"/>
		<circle style="fill:#FFFFFF;" cx="37.46" cy="-22.263" r="0.607"/>
		<path style="fill:#FFFFFF;" d="M40.736-25.963c-0.335,0-0.607,0.272-0.607,0.607c0,0.336,0.272,0.607,0.607,0.607V-25.963z"/>
		<path style="fill:#FFFFFF;" d="M40.736-23.687c-0.335,0-0.607,0.271-0.607,0.607c0,0.335,0.272,0.607,0.607,0.607V-23.687z"/>
		<circle style="fill:#FFFFFF;" cx="34.12" cy="-23.079" r="0.607"/>
		<circle style="fill:#FFFFFF;" cx="38.678" cy="-24.169" r="0.607"/>
		<circle style="fill:#FFFFFF;" cx="36.178" cy="-24.169" r="0.607"/>
		<circle style="fill:#FFFFFF;" cx="39.495" cy="-20.892" r="0.607"/>
		<circle style="fill:#FFFFFF;" cx="35.433" cy="-20.888" r="0.607"/>
		<circle style="fill:#FFFFFF;" cx="4.335" cy="-19.544" r="0.607"/>
		<circle style="fill:#FFFFFF;" cx="4.335" cy="-15.638" r="0.607"/>
		<path style="fill:#FFFFFF;" d="M1.001-18.124c0.335,0,0.606-0.271,0.606-0.607c0-0.335-0.271-0.607-0.606-0.607V-18.124z"/>
		<circle style="fill:#FFFFFF;" cx="7.62" cy="-18.731" r="0.607"/>
		<circle style="fill:#FFFFFF;" cx="7.62" cy="-16.454" r="0.607"/>
		<path style="fill:#FFFFFF;" d="M1.015-15.847c0.336,0,0.607-0.272,0.607-0.607c0-0.335-0.271-0.607-0.607-0.607V-15.847z"/>
		<circle style="fill:#FFFFFF;" cx="5.553" cy="-17.544" r="0.607"/>
		<circle style="fill:#FFFFFF;" cx="3.053" cy="-17.544" r="0.607"/>
		<circle style="fill:#FFFFFF;" cx="6.37" cy="-14.267" r="0.607"/>
		<circle style="fill:#FFFFFF;" cx="2.308" cy="-14.263" r="0.607"/>
		<circle style="fill:#FFFFFF;" cx="10.96" cy="-19.544" r="0.607"/>
		<circle style="fill:#FFFFFF;" cx="10.96" cy="-15.638" r="0.607"/>
		<circle style="fill:#FFFFFF;" cx="14.245" cy="-18.731" r="0.607"/>
		<circle style="fill:#FFFFFF;" cx="14.245" cy="-16.454" r="0.607"/>
		<circle style="fill:#FFFFFF;" cx="7.62" cy="-16.454" r="0.607"/>
		<circle style="fill:#FFFFFF;" cx="12.178" cy="-17.544" r="0.607"/>
		<circle style="fill:#FFFFFF;" cx="9.678" cy="-17.544" r="0.607"/>
		<circle style="fill:#FFFFFF;" cx="12.995" cy="-14.267" r="0.607"/>
		<circle style="fill:#FFFFFF;" cx="8.933" cy="-14.263" r="0.607"/>
		<circle style="fill:#FFFFFF;" cx="17.585" cy="-19.544" r="0.607"/>
		<circle style="fill:#FFFFFF;" cx="17.585" cy="-15.638" r="0.607"/>
		<circle style="fill:#FFFFFF;" cx="20.87" cy="-18.731" r="0.607"/>
		<circle style="fill:#FFFFFF;" cx="20.87" cy="-16.454" r="0.607"/>
		<circle style="fill:#FFFFFF;" cx="14.245" cy="-16.454" r="0.607"/>
		<circle style="fill:#FFFFFF;" cx="18.803" cy="-17.544" r="0.607"/>
		<circle style="fill:#FFFFFF;" cx="16.303" cy="-17.544" r="0.607"/>
		<circle style="fill:#FFFFFF;" cx="19.62" cy="-14.267" r="0.607"/>
		<circle style="fill:#FFFFFF;" cx="15.558" cy="-14.263" r="0.607"/>
		<circle style="fill:#FFFFFF;" cx="24.21" cy="-19.544" r="0.607"/>
		<circle style="fill:#FFFFFF;" cx="24.21" cy="-15.638" r="0.607"/>
		<circle style="fill:#FFFFFF;" cx="27.495" cy="-18.731" r="0.607"/>
		<circle style="fill:#FFFFFF;" cx="27.495" cy="-16.454" r="0.607"/>
		<circle style="fill:#FFFFFF;" cx="20.87" cy="-16.454" r="0.607"/>
		<circle style="fill:#FFFFFF;" cx="25.428" cy="-17.544" r="0.607"/>
		<circle style="fill:#FFFFFF;" cx="22.928" cy="-17.544" r="0.607"/>
		<circle style="fill:#FFFFFF;" cx="26.245" cy="-14.267" r="0.607"/>
		<circle style="fill:#FFFFFF;" cx="22.183" cy="-14.263" r="0.607"/>
		<circle style="fill:#FFFFFF;" cx="30.835" cy="-19.544" r="0.607"/>
		<circle style="fill:#FFFFFF;" cx="30.835" cy="-15.638" r="0.607"/>
		<circle style="fill:#FFFFFF;" cx="34.12" cy="-18.731" r="0.607"/>
		<circle style="fill:#FFFFFF;" cx="34.12" cy="-16.454" r="0.607"/>
		<circle style="fill:#FFFFFF;" cx="27.495" cy="-16.454" r="0.607"/>
		<circle style="fill:#FFFFFF;" cx="32.053" cy="-17.544" r="0.607"/>
		<circle style="fill:#FFFFFF;" cx="29.553" cy="-17.544" r="0.607"/>
		<circle style="fill:#FFFFFF;" cx="32.87" cy="-14.267" r="0.607"/>
		<circle style="fill:#FFFFFF;" cx="28.808" cy="-14.263" r="0.607"/>
		<circle style="fill:#FFFFFF;" cx="37.46" cy="-19.544" r="0.607"/>
		<circle style="fill:#FFFFFF;" cx="37.46" cy="-15.638" r="0.607"/>
		<path style="fill:#FFFFFF;" d="M40.736-19.338c-0.335,0-0.607,0.272-0.607,0.607c0,0.336,0.272,0.607,0.607,0.607V-19.338z"/>
		<path style="fill:#FFFFFF;" d="M40.736-17.062c-0.335,0-0.607,0.271-0.607,0.607c0,0.335,0.272,0.607,0.607,0.607V-17.062z"/>
		<circle style="fill:#FFFFFF;" cx="34.12" cy="-16.454" r="0.607"/>
		<circle style="fill:#FFFFFF;" cx="38.678" cy="-17.544" r="0.607"/>
		<circle style="fill:#FFFFFF;" cx="36.178" cy="-17.544" r="0.607"/>
		<circle style="fill:#FFFFFF;" cx="39.495" cy="-14.267" r="0.607"/>
		<circle style="fill:#FFFFFF;" cx="35.433" cy="-14.263" r="0.607"/>
		<circle style="fill:#FFFFFF;" cx="4.335" cy="-12.919" r="0.607"/>
		<circle style="fill:#FFFFFF;" cx="4.335" cy="-9.013" r="0.607"/>
		<path style="fill:#FFFFFF;" d="M1.002-11.499c0.335,0,0.606-0.272,0.606-0.607c0-0.335-0.271-0.607-0.606-0.607V-11.499z"/>
		<circle style="fill:#FFFFFF;" cx="7.62" cy="-12.106" r="0.607"/>
		<circle style="fill:#FFFFFF;" cx="7.62" cy="-9.829" r="0.607"/>
		<path style="fill:#FFFFFF;" d="M1.007-9.222c0.335,0,0.607-0.272,0.607-0.607c0-0.335-0.271-0.607-0.607-0.607V-9.222z"/>
		<circle style="fill:#FFFFFF;" cx="5.553" cy="-10.919" r="0.607"/>
		<circle style="fill:#FFFFFF;" cx="3.053" cy="-10.919" r="0.607"/>
		<circle style="fill:#FFFFFF;" cx="6.37" cy="-7.642" r="0.607"/>
		<circle style="fill:#FFFFFF;" cx="10.96" cy="-12.919" r="0.607"/>
		<circle style="fill:#FFFFFF;" cx="10.96" cy="-9.013" r="0.607"/>
		<circle style="fill:#FFFFFF;" cx="14.245" cy="-12.106" r="0.607"/>
		<circle style="fill:#FFFFFF;" cx="14.245" cy="-9.829" r="0.607"/>
		<circle style="fill:#FFFFFF;" cx="7.62" cy="-9.829" r="0.607"/>
		<circle style="fill:#FFFFFF;" cx="12.178" cy="-10.919" r="0.607"/>
		<circle style="fill:#FFFFFF;" cx="9.678" cy="-10.919" r="0.607"/>
		<circle style="fill:#FFFFFF;" cx="12.995" cy="-7.642" r="0.607"/>
		<circle style="fill:#FFFFFF;" cx="8.933" cy="-7.638" r="0.607"/>
		<circle style="fill:#FFFFFF;" cx="17.585" cy="-12.919" r="0.607"/>
		<circle style="fill:#FFFFFF;" cx="17.585" cy="-9.013" r="0.607"/>
		<circle style="fill:#FFFFFF;" cx="20.87" cy="-12.106" r="0.607"/>
		<circle style="fill:#FFFFFF;" cx="20.87" cy="-9.829" r="0.607"/>
		<circle style="fill:#FFFFFF;" cx="14.245" cy="-9.829" r="0.607"/>
		<circle style="fill:#FFFFFF;" cx="18.803" cy="-10.919" r="0.607"/>
		<circle style="fill:#FFFFFF;" cx="16.303" cy="-10.919" r="0.607"/>
		<circle style="fill:#FFFFFF;" cx="19.62" cy="-7.642" r="0.607"/>
		<circle style="fill:#FFFFFF;" cx="24.21" cy="-12.919" r="0.607"/>
		<circle style="fill:#FFFFFF;" cx="24.21" cy="-9.013" r="0.607"/>
		<circle style="fill:#FFFFFF;" cx="27.495" cy="-12.106" r="0.607"/>
		<circle style="fill:#FFFFFF;" cx="27.495" cy="-9.829" r="0.607"/>
		<circle style="fill:#FFFFFF;" cx="20.87" cy="-9.829" r="0.607"/>
		<circle style="fill:#FFFFFF;" cx="25.428" cy="-10.919" r="0.607"/>
		<circle style="fill:#FFFFFF;" cx="22.928" cy="-10.919" r="0.607"/>
		<circle style="fill:#FFFFFF;" cx="26.245" cy="-7.642" r="0.607"/>
		<circle style="fill:#FFFFFF;" cx="22.183" cy="-7.638" r="0.607"/>
		<circle style="fill:#FFFFFF;" cx="30.835" cy="-12.919" r="0.607"/>
		<circle style="fill:#FFFFFF;" cx="30.835" cy="-9.013" r="0.607"/>
		<circle style="fill:#FFFFFF;" cx="34.12" cy="-12.106" r="0.607"/>
		<circle style="fill:#FFFFFF;" cx="34.12" cy="-9.829" r="0.607"/>
		<circle style="fill:#FFFFFF;" cx="27.495" cy="-9.829" r="0.607"/>
		<circle style="fill:#FFFFFF;" cx="32.053" cy="-10.919" r="0.607"/>
		<circle style="fill:#FFFFFF;" cx="29.553" cy="-10.919" r="0.607"/>
		<circle style="fill:#FFFFFF;" cx="32.87" cy="-7.642" r="0.607"/>
		<circle style="fill:#FFFFFF;" cx="28.808" cy="-7.638" r="0.607"/>
		<circle style="fill:#FFFFFF;" cx="37.46" cy="-12.919" r="0.607"/>
		<circle style="fill:#FFFFFF;" cx="37.46" cy="-9.013" r="0.607"/>
		<path style="fill:#FFFFFF;" d="M40.736-12.713c-0.335,0-0.607,0.272-0.607,0.607c0,0.335,0.272,0.607,0.607,0.607V-12.713z"/>
		<path style="fill:#FFFFFF;" d="M40.745-10.436c-0.335,0-0.607,0.271-0.607,0.607c0,0.336,0.272,0.607,0.607,0.607V-10.436z"/>
		<circle style="fill:#FFFFFF;" cx="34.12" cy="-9.829" r="0.607"/>
		<circle style="fill:#FFFFFF;" cx="38.678" cy="-10.919" r="0.607"/>
		<circle style="fill:#FFFFFF;" cx="36.178" cy="-10.919" r="0.607"/>
		<circle style="fill:#FFFFFF;" cx="39.495" cy="-7.642" r="0.607"/>
		<circle style="fill:#FFFFFF;" cx="35.433" cy="-7.638" r="0.607"/>
		<circle style="fill:#FFFFFF;" cx="4.335" cy="-6.294" r="0.607"/>
		<circle style="fill:#FFFFFF;" cx="4.335" cy="-2.388" r="0.607"/>
		<path style="fill:#FFFFFF;" d="M1.005-4.874c0.335,0,0.606-0.272,0.606-0.607c0-0.335-0.271-0.607-0.606-0.607V-4.874z"/>
		<circle style="fill:#FFFFFF;" cx="7.62" cy="-5.481" r="0.607"/>
		<circle style="fill:#FFFFFF;" cx="7.62" cy="-3.204" r="0.607"/>
		<path style="fill:#FFFFFF;" d="M1.005-2.597c0.335,0,0.606-0.272,0.606-0.607c0-0.335-0.271-0.607-0.606-0.607V-2.597z"/>
		<circle style="fill:#FFFFFF;" cx="5.553" cy="-4.294" r="0.607"/>
		<circle style="fill:#FFFFFF;" cx="3.053" cy="-4.294" r="0.607"/>
		<path style="fill:#FFFFFF;" d="M6.977-1.012c0-0.334-0.271-0.607-0.607-0.607c-0.335,0-0.607,0.273-0.607,0.607H6.977z"/>
		<circle style="fill:#FFFFFF;" cx="2.308" cy="-7.579" r="0.607"/>
		<path style="fill:#FFFFFF;" d="M2.915-1.007c0-0.335-0.271-0.607-0.607-0.607c-0.335,0-0.607,0.271-0.607,0.607H2.915z"/>
		<circle style="fill:#FFFFFF;" cx="10.96" cy="-6.294" r="0.607"/>
		<circle style="fill:#FFFFFF;" cx="10.96" cy="-2.388" r="0.607"/>
		<circle style="fill:#FFFFFF;" cx="14.245" cy="-5.481" r="0.607"/>
		<circle style="fill:#FFFFFF;" cx="14.245" cy="-3.204" r="0.607"/>
		<circle style="fill:#FFFFFF;" cx="7.62" cy="-3.204" r="0.607"/>
		<circle style="fill:#FFFFFF;" cx="12.178" cy="-4.294" r="0.607"/>
		<circle style="fill:#FFFFFF;" cx="9.678" cy="-4.294" r="0.607"/>
		<path style="fill:#FFFFFF;" d="M13.602-1.012c0-0.334-0.271-0.607-0.607-0.607c-0.335,0-0.607,0.273-0.607,0.607H13.602z"/>
		<path style="fill:#FFFFFF;" d="M9.54-1.007c0-0.335-0.271-0.607-0.607-0.607c-0.335,0-0.607,0.271-0.607,0.607H9.54z"/>
		<circle style="fill:#FFFFFF;" cx="17.585" cy="-6.294" r="0.607"/>
		<circle style="fill:#FFFFFF;" cx="17.585" cy="-2.388" r="0.607"/>
		<circle style="fill:#FFFFFF;" cx="20.87" cy="-5.481" r="0.607"/>
		<circle style="fill:#FFFFFF;" cx="20.87" cy="-3.204" r="0.607"/>
		<circle style="fill:#FFFFFF;" cx="14.245" cy="-3.204" r="0.607"/>
		<circle style="fill:#FFFFFF;" cx="18.803" cy="-4.294" r="0.607"/>
		<circle style="fill:#FFFFFF;" cx="16.303" cy="-4.294" r="0.607"/>
		<path style="fill:#FFFFFF;" d="M20.228-1.012c0-0.334-0.271-0.607-0.607-0.607c-0.335,0-0.607,0.273-0.607,0.607H20.228z"/>
		<circle style="fill:#FFFFFF;" cx="15.558" cy="-7.579" r="0.607"/>
		<path style="fill:#FFFFFF;" d="M16.165-1.007c0-0.335-0.271-0.607-0.607-0.607c-0.335,0-0.607,0.271-0.607,0.607H16.165z"/>
		<circle style="fill:#FFFFFF;" cx="24.21" cy="-6.294" r="0.607"/>
		<circle style="fill:#FFFFFF;" cx="24.21" cy="-2.388" r="0.607"/>
		<circle style="fill:#FFFFFF;" cx="27.495" cy="-5.481" r="0.607"/>
		<circle style="fill:#FFFFFF;" cx="27.495" cy="-3.204" r="0.607"/>
		<circle style="fill:#FFFFFF;" cx="20.87" cy="-3.204" r="0.607"/>
		<circle style="fill:#FFFFFF;" cx="25.428" cy="-4.294" r="0.607"/>
		<circle style="fill:#FFFFFF;" cx="22.928" cy="-4.294" r="0.607"/>
		<path style="fill:#FFFFFF;" d="M26.853-1.012c0-0.334-0.271-0.607-0.607-0.607c-0.335,0-0.607,0.273-0.607,0.607H26.853z"/>
		<path style="fill:#FFFFFF;" d="M22.79-1.007c0-0.335-0.271-0.607-0.607-0.607c-0.335,0-0.607,0.271-0.607,0.607H22.79z"/>
		<circle style="fill:#FFFFFF;" cx="30.835" cy="-6.294" r="0.607"/>
		<circle style="fill:#FFFFFF;" cx="30.835" cy="-2.388" r="0.607"/>
		<circle style="fill:#FFFFFF;" cx="34.12" cy="-5.481" r="0.607"/>
		<circle style="fill:#FFFFFF;" cx="34.12" cy="-3.204" r="0.607"/>
		<circle style="fill:#FFFFFF;" cx="27.495" cy="-3.204" r="0.607"/>
		<circle style="fill:#FFFFFF;" cx="32.053" cy="-4.294" r="0.607"/>
		<circle style="fill:#FFFFFF;" cx="29.553" cy="-4.294" r="0.607"/>
		<path style="fill:#FFFFFF;" d="M33.478-1.012c0-0.334-0.271-0.607-0.607-0.607c-0.335,0-0.607,0.273-0.607,0.607H33.478z"/>
		<path style="fill:#FFFFFF;" d="M29.415-1.007c0-0.335-0.271-0.607-0.607-0.607c-0.335,0-0.607,0.271-0.607,0.607H29.415z"/>
		<circle style="fill:#FFFFFF;" cx="37.46" cy="-6.294" r="0.607"/>
		<circle style="fill:#FFFFFF;" cx="37.46" cy="-2.388" r="0.607"/>
		<path style="fill:#FFFFFF;" d="M40.745-6.088c-0.335,0-0.607,0.272-0.607,0.607c0,0.335,0.272,0.607,0.607,0.607V-6.088z"/>
		<path style="fill:#FFFFFF;" d="M40.745-3.812c-0.335,0-0.607,0.272-0.607,0.607c0,0.336,0.272,0.607,0.607,0.607V-3.812z"/>
		<circle style="fill:#FFFFFF;" cx="34.12" cy="-3.204" r="0.607"/>
		<circle style="fill:#FFFFFF;" cx="38.678" cy="-4.294" r="0.607"/>
		<circle style="fill:#FFFFFF;" cx="36.178" cy="-4.294" r="0.607"/>
		<path style="fill:#FFFFFF;" d="M40.103-1.012c0-0.334-0.271-0.607-0.607-0.607c-0.335,0-0.607,0.273-0.607,0.607H40.103z"/>
		<path style="fill:#FFFFFF;" d="M36.04-1.007c0-0.335-0.271-0.607-0.607-0.607c-0.335,0-0.607,0.271-0.607,0.607H36.04z"/>
	</g>
</svg>
