<?xml version="1.0" encoding="utf-8"?>
<svg version="1.1" xmlns="http://www.w3.org/2000/svg" x="0px" y="0px" xml:space="preserve" width="39.737" height="39.737" viewBox="1.315 -41.031 39.737 39.737">
	<g>
		<rect x="1.315" y="-41.031" style="fill:none;" width="39.737" height="39.737"/>
		<circle cx="4.646" cy="-39.713" r="0.557"/>
		<circle cx="4.646" cy="-35.807" r="0.557"/>
		<path d="M1.334-38.344c0.308,0,0.557-0.249,0.557-0.557c0-0.308-0.249-0.557-0.557-0.557"/>
		<circle cx="7.932" cy="-38.901" r="0.557"/>
		<circle cx="7.932" cy="-36.624" r="0.557"/>
		<path d="M1.308-36.067c0.308,0,0.557-0.25,0.557-0.557c0-0.308-0.249-0.557-0.557-0.557"/>
		<circle cx="5.865" cy="-37.713" r="0.557"/>
		<circle cx="3.365" cy="-37.713" r="0.557"/>
		<path d="M6.125-41.032c0,0.308,0.249,0.557,0.557,0.557s0.557-0.25,0.557-0.557"/>
		<circle cx="6.682" cy="-34.436" r="0.557"/>
		<path d="M2.062-41.029c0,0.308,0.25,0.558,0.557,0.558s0.557-0.25,0.557-0.558"/>
		<circle cx="2.619" cy="-34.432" r="0.557"/>
		<circle cx="11.271" cy="-39.713" r="0.557"/>
		<circle cx="11.271" cy="-35.807" r="0.557"/>
		<circle cx="14.557" cy="-38.901" r="0.557"/>
		<circle cx="14.557" cy="-36.624" r="0.557"/>
		<circle cx="7.932" cy="-36.624" r="0.557"/>
		<circle cx="12.49" cy="-37.713" r="0.557"/>
		<circle cx="9.99" cy="-37.713" r="0.557"/>
		<path d="M12.75-41.032c0,0.308,0.25,0.557,0.557,0.557s0.557-0.25,0.557-0.557"/>
		<circle cx="13.307" cy="-34.436" r="0.557"/>
		<path d="M8.688-41.032c0,0.308,0.25,0.557,0.557,0.557s0.557-0.25,0.557-0.557"/>
		<circle cx="9.245" cy="-34.432" r="0.557"/>
		<circle cx="17.896" cy="-39.713" r="0.557"/>
		<circle cx="17.896" cy="-35.807" r="0.557"/>
		<circle cx="21.182" cy="-38.901" r="0.557"/>
		<circle cx="21.182" cy="-36.624" r="0.557"/>
		<circle cx="14.557" cy="-36.624" r="0.557"/>
		<circle cx="19.115" cy="-37.713" r="0.557"/>
		<circle cx="16.615" cy="-37.713" r="0.557"/>
		<path d="M19.375-41.032c0,0.308,0.25,0.557,0.557,0.557s0.557-0.25,0.557-0.557"/>
		<circle cx="19.932" cy="-34.436" r="0.557"/>
		<path d="M15.312-41.032c0,0.308,0.25,0.557,0.557,0.557s0.557-0.25,0.557-0.557"/>
		<circle cx="15.87" cy="-34.432" r="0.557"/>
		<circle cx="24.521" cy="-39.713" r="0.557"/>
		<circle cx="24.521" cy="-35.807" r="0.557"/>
		<circle cx="27.807" cy="-38.901" r="0.557"/>
		<circle cx="27.807" cy="-36.624" r="0.557"/>
		<circle cx="21.182" cy="-36.624" r="0.557"/>
		<circle cx="25.74" cy="-37.713" r="0.557"/>
		<circle cx="23.24" cy="-37.713" r="0.557"/>
		<path d="M26-41.032c0,0.308,0.25,0.557,0.557,0.557s0.557-0.25,0.557-0.557"/>
		<circle cx="26.557" cy="-34.436" r="0.557"/>
		<path d="M21.938-41.032c0,0.308,0.25,0.557,0.557,0.557s0.557-0.25,0.557-0.557"/>
		<circle cx="22.494" cy="-34.432" r="0.557"/>
		<circle cx="31.146" cy="-39.713" r="0.557"/>
		<circle cx="31.146" cy="-35.807" r="0.557"/>
		<circle cx="34.432" cy="-38.901" r="0.557"/>
		<circle cx="34.432" cy="-36.624" r="0.557"/>
		<circle cx="27.807" cy="-36.624" r="0.557"/>
		<circle cx="32.365" cy="-37.713" r="0.557"/>
		<circle cx="29.865" cy="-37.713" r="0.557"/>
		<path d="M32.625-41.032c0,0.308,0.25,0.557,0.557,0.557c0.308,0,0.557-0.25,0.557-0.557"/>
		<circle cx="33.182" cy="-34.436" r="0.557"/>
		<path d="M28.562-41.032c0,0.308,0.25,0.557,0.557,0.557s0.557-0.25,0.557-0.557"/>
		<circle cx="29.119" cy="-34.432" r="0.557"/>
		<circle cx="37.771" cy="-39.713" r="0.557"/>
		<circle cx="37.771" cy="-35.807" r="0.557"/>
		<path d="M41.057-39.458c-0.308,0-0.557,0.25-0.557,0.557c0,0.308,0.25,0.557,0.557,0.557"/>
		<path d="M41.057-37.181c-0.308,0-0.557,0.249-0.557,0.557c0,0.308,0.25,0.557,0.557,0.557"/>
		<circle cx="34.432" cy="-36.624" r="0.557"/>
		<circle cx="38.99" cy="-37.713" r="0.557"/>
		<circle cx="36.49" cy="-37.713" r="0.557"/>
		<path d="M39.25-41.032c0,0.308,0.25,0.557,0.557,0.557c0.308,0,0.557-0.25,0.557-0.557"/>
		<circle cx="39.807" cy="-34.436" r="0.557"/>
		<path d="M35.188-41.032c0,0.308,0.25,0.557,0.557,0.557c0.308,0,0.557-0.25,0.557-0.557"/>
		<circle cx="35.744" cy="-34.432" r="0.557"/>
		<circle cx="4.646" cy="-33.088" r="0.557"/>
		<circle cx="4.646" cy="-29.182" r="0.557"/>
		<path d="M1.334-31.719c0.308,0,0.557-0.249,0.557-0.557c0-0.308-0.249-0.557-0.557-0.557"/>
		<circle cx="7.932" cy="-32.276" r="0.557"/>
		<circle cx="7.932" cy="-29.999" r="0.557"/>
		<path d="M1.308-29.442c0.308,0,0.557-0.25,0.557-0.557s-0.249-0.557-0.557-0.557"/>
		<circle cx="5.865" cy="-31.088" r="0.557"/>
		<circle cx="3.365" cy="-31.088" r="0.557"/>
		<circle cx="6.682" cy="-27.811" r="0.557"/>
		<circle cx="2.619" cy="-27.807" r="0.557"/>
		<circle cx="11.271" cy="-33.088" r="0.557"/>
		<circle cx="11.271" cy="-29.182" r="0.557"/>
		<circle cx="14.557" cy="-32.276" r="0.557"/>
		<circle cx="14.557" cy="-29.999" r="0.557"/>
		<circle cx="7.932" cy="-29.999" r="0.557"/>
		<circle cx="12.49" cy="-31.088" r="0.557"/>
		<circle cx="9.99" cy="-31.088" r="0.557"/>
		<circle cx="13.307" cy="-27.811" r="0.557"/>
		<circle cx="9.245" cy="-27.807" r="0.557"/>
		<circle cx="17.896" cy="-33.088" r="0.557"/>
		<circle cx="17.896" cy="-29.182" r="0.557"/>
		<circle cx="21.182" cy="-32.276" r="0.557"/>
		<circle cx="21.182" cy="-29.999" r="0.557"/>
		<circle cx="14.557" cy="-29.999" r="0.557"/>
		<circle cx="19.115" cy="-31.088" r="0.557"/>
		<circle cx="16.615" cy="-31.088" r="0.557"/>
		<circle cx="19.932" cy="-27.811" r="0.557"/>
		<circle cx="15.87" cy="-27.807" r="0.557"/>
		<circle cx="24.521" cy="-33.088" r="0.557"/>
		<circle cx="24.521" cy="-29.182" r="0.557"/>
		<circle cx="27.807" cy="-32.276" r="0.557"/>
		<circle cx="27.807" cy="-29.999" r="0.557"/>
		<circle cx="21.182" cy="-29.999" r="0.557"/>
		<circle cx="25.74" cy="-31.088" r="0.557"/>
		<circle cx="23.24" cy="-31.088" r="0.557"/>
		<circle cx="26.557" cy="-27.811" r="0.557"/>
		<circle cx="22.494" cy="-27.807" r="0.557"/>
		<circle cx="31.146" cy="-33.088" r="0.557"/>
		<circle cx="31.146" cy="-29.182" r="0.557"/>
		<circle cx="34.432" cy="-32.276" r="0.557"/>
		<circle cx="34.432" cy="-29.999" r="0.557"/>
		<circle cx="27.807" cy="-29.999" r="0.557"/>
		<circle cx="32.365" cy="-31.088" r="0.557"/>
		<circle cx="29.865" cy="-31.088" r="0.557"/>
		<circle cx="33.182" cy="-27.811" r="0.557"/>
		<circle cx="29.119" cy="-27.807" r="0.557"/>
		<circle cx="37.771" cy="-33.088" r="0.557"/>
		<circle cx="37.771" cy="-29.182" r="0.557"/>
		<path d="M41.057-32.833c-0.308,0-0.557,0.25-0.557,0.557c0,0.308,0.25,0.557,0.557,0.557"/>
		<path d="M41.057-30.556c-0.308,0-0.557,0.249-0.557,0.557s0.25,0.557,0.557,0.557"/>
		<circle cx="34.432" cy="-29.999" r="0.557"/>
		<circle cx="38.99" cy="-31.088" r="0.557"/>
		<circle cx="36.49" cy="-31.088" r="0.557"/>
		<circle cx="39.807" cy="-27.811" r="0.557"/>
		<circle cx="35.744" cy="-27.807" r="0.557"/>
		<circle cx="4.646" cy="-26.463" r="0.557"/>
		<circle cx="4.646" cy="-22.557" r="0.557"/>
		<path d="M1.334-25.094c0.308,0,0.557-0.249,0.557-0.557s-0.249-0.557-0.557-0.557"/>
		<circle cx="7.932" cy="-25.651" r="0.557"/>
		<circle cx="7.932" cy="-23.374" r="0.557"/>
		<path d="M1.308-22.817c0.308,0,0.557-0.25,0.557-0.557s-0.249-0.557-0.557-0.557"/>
		<circle cx="5.865" cy="-24.463" r="0.557"/>
		<circle cx="3.365" cy="-24.463" r="0.557"/>
		<circle cx="6.682" cy="-21.186" r="0.557"/>
		<circle cx="2.619" cy="-21.182" r="0.557"/>
		<circle cx="11.271" cy="-26.463" r="0.557"/>
		<circle cx="11.271" cy="-22.557" r="0.557"/>
		<circle cx="14.557" cy="-25.651" r="0.557"/>
		<circle cx="14.557" cy="-23.374" r="0.557"/>
		<circle cx="7.932" cy="-23.374" r="0.557"/>
		<circle cx="12.49" cy="-24.463" r="0.557"/>
		<circle cx="9.99" cy="-24.463" r="0.557"/>
		<circle cx="13.307" cy="-21.186" r="0.557"/>
		<circle cx="9.245" cy="-21.182" r="0.557"/>
		<circle cx="17.896" cy="-26.463" r="0.557"/>
		<circle cx="17.896" cy="-22.557" r="0.557"/>
		<circle cx="21.182" cy="-25.651" r="0.557"/>
		<circle cx="21.182" cy="-23.374" r="0.557"/>
		<circle cx="14.557" cy="-23.374" r="0.557"/>
		<circle cx="19.115" cy="-24.463" r="0.557"/>
		<circle cx="16.615" cy="-24.463" r="0.557"/>
		<circle cx="19.932" cy="-21.186" r="0.557"/>
		<circle cx="15.87" cy="-21.182" r="0.557"/>
		<circle cx="24.521" cy="-26.463" r="0.557"/>
		<circle cx="24.521" cy="-22.557" r="0.557"/>
		<circle cx="27.807" cy="-25.651" r="0.557"/>
		<circle cx="27.807" cy="-23.374" r="0.557"/>
		<circle cx="21.182" cy="-23.374" r="0.557"/>
		<circle cx="25.74" cy="-24.463" r="0.557"/>
		<circle cx="23.24" cy="-24.463" r="0.557"/>
		<circle cx="26.557" cy="-21.186" r="0.557"/>
		<circle cx="22.494" cy="-21.182" r="0.557"/>
		<circle cx="31.146" cy="-26.463" r="0.557"/>
		<circle cx="31.146" cy="-22.557" r="0.557"/>
		<circle cx="34.432" cy="-25.651" r="0.557"/>
		<circle cx="34.432" cy="-23.374" r="0.557"/>
		<circle cx="27.807" cy="-23.374" r="0.557"/>
		<circle cx="32.365" cy="-24.463" r="0.557"/>
		<circle cx="29.865" cy="-24.463" r="0.557"/>
		<circle cx="33.182" cy="-21.186" r="0.557"/>
		<circle cx="29.119" cy="-21.182" r="0.557"/>
		<circle cx="37.771" cy="-26.463" r="0.557"/>
		<circle cx="37.771" cy="-22.557" r="0.557"/>
		<path d="M41.057-26.208c-0.308,0-0.557,0.25-0.557,0.557s0.25,0.557,0.557,0.557"/>
		<path d="M41.057-23.931c-0.308,0-0.557,0.249-0.557,0.557s0.25,0.557,0.557,0.557"/>
		<circle cx="34.432" cy="-23.374" r="0.557"/>
		<circle cx="38.99" cy="-24.463" r="0.557"/>
		<circle cx="36.49" cy="-24.463" r="0.557"/>
		<circle cx="39.807" cy="-21.186" r="0.557"/>
		<circle cx="35.744" cy="-21.182" r="0.557"/>
		<circle cx="4.646" cy="-19.838" r="0.557"/>
		<circle cx="4.646" cy="-15.932" r="0.557"/>
		<path d="M1.334-18.469c0.308,0,0.557-0.249,0.557-0.557s-0.249-0.557-0.557-0.557"/>
		<circle cx="7.932" cy="-19.026" r="0.557"/>
		<circle cx="7.932" cy="-16.749" r="0.557"/>
		<path d="M1.332-16.192c0.308,0,0.557-0.25,0.557-0.557s-0.249-0.557-0.557-0.557"/>
		<circle cx="5.865" cy="-17.838" r="0.557"/>
		<circle cx="3.365" cy="-17.838" r="0.557"/>
		<circle cx="6.682" cy="-14.561" r="0.557"/>
		<circle cx="2.619" cy="-14.557" r="0.557"/>
		<circle cx="11.271" cy="-19.838" r="0.557"/>
		<circle cx="11.271" cy="-15.932" r="0.557"/>
		<circle cx="14.557" cy="-19.026" r="0.557"/>
		<circle cx="14.557" cy="-16.749" r="0.557"/>
		<circle cx="7.932" cy="-16.749" r="0.557"/>
		<circle cx="12.49" cy="-17.838" r="0.557"/>
		<circle cx="9.99" cy="-17.838" r="0.557"/>
		<circle cx="13.307" cy="-14.561" r="0.557"/>
		<circle cx="9.245" cy="-14.557" r="0.557"/>
		<circle cx="17.896" cy="-19.838" r="0.557"/>
		<circle cx="17.896" cy="-15.932" r="0.557"/>
		<circle cx="21.182" cy="-19.026" r="0.557"/>
		<circle cx="21.182" cy="-16.749" r="0.557"/>
		<circle cx="14.557" cy="-16.749" r="0.557"/>
		<circle cx="19.115" cy="-17.838" r="0.557"/>
		<circle cx="16.615" cy="-17.838" r="0.557"/>
		<circle cx="19.932" cy="-14.561" r="0.557"/>
		<circle cx="15.87" cy="-14.557" r="0.557"/>
		<circle cx="24.521" cy="-19.838" r="0.557"/>
		<circle cx="24.521" cy="-15.932" r="0.557"/>
		<circle cx="27.807" cy="-19.026" r="0.557"/>
		<circle cx="27.807" cy="-16.749" r="0.557"/>
		<circle cx="21.182" cy="-16.749" r="0.557"/>
		<circle cx="25.74" cy="-17.838" r="0.557"/>
		<circle cx="23.24" cy="-17.838" r="0.557"/>
		<circle cx="26.557" cy="-14.561" r="0.557"/>
		<circle cx="22.494" cy="-14.557" r="0.557"/>
		<circle cx="31.146" cy="-19.838" r="0.557"/>
		<circle cx="31.146" cy="-15.932" r="0.557"/>
		<circle cx="34.432" cy="-19.026" r="0.557"/>
		<circle cx="34.432" cy="-16.749" r="0.557"/>
		<circle cx="27.807" cy="-16.749" r="0.557"/>
		<circle cx="32.365" cy="-17.838" r="0.557"/>
		<circle cx="29.865" cy="-17.838" r="0.557"/>
		<circle cx="33.182" cy="-14.561" r="0.557"/>
		<circle cx="29.119" cy="-14.557" r="0.557"/>
		<circle cx="37.771" cy="-19.838" r="0.557"/>
		<circle cx="37.771" cy="-15.932" r="0.557"/>
		<path d="M41.057-19.583c-0.308,0-0.557,0.25-0.557,0.557s0.25,0.557,0.557,0.557"/>
		<path d="M41.057-17.306c-0.308,0-0.557,0.249-0.557,0.557s0.25,0.557,0.557,0.557"/>
		<circle cx="34.432" cy="-16.749" r="0.557"/>
		<circle cx="38.99" cy="-17.838" r="0.557"/>
		<circle cx="36.49" cy="-17.838" r="0.557"/>
		<circle cx="39.807" cy="-14.561" r="0.557"/>
		<circle cx="35.744" cy="-14.557" r="0.557"/>
		<circle cx="4.646" cy="-13.213" r="0.557"/>
		<circle cx="4.646" cy="-9.307" r="0.557"/>
		<path d="M1.334-11.844c0.308,0,0.557-0.249,0.557-0.557s-0.249-0.557-0.557-0.557"/>
		<circle cx="7.932" cy="-12.401" r="0.557"/>
		<circle cx="7.932" cy="-10.124" r="0.557"/>
		<path d="M1.308-9.567c0.308,0,0.557-0.249,0.557-0.557s-0.249-0.557-0.557-0.557"/>
		<circle cx="5.865" cy="-11.213" r="0.557"/>
		<circle cx="3.365" cy="-11.213" r="0.557"/>
		<circle cx="6.682" cy="-7.936" r="0.557"/>
		<circle cx="11.271" cy="-13.213" r="0.557"/>
		<circle cx="11.271" cy="-9.307" r="0.557"/>
		<circle cx="14.557" cy="-12.401" r="0.557"/>
		<circle cx="14.557" cy="-10.124" r="0.557"/>
		<circle cx="7.932" cy="-10.124" r="0.557"/>
		<circle cx="12.49" cy="-11.213" r="0.557"/>
		<circle cx="9.99" cy="-11.213" r="0.557"/>
		<circle cx="13.307" cy="-7.936" r="0.557"/>
		<circle cx="9.245" cy="-7.932" r="0.557"/>
		<circle cx="17.896" cy="-13.213" r="0.557"/>
		<circle cx="17.896" cy="-9.307" r="0.557"/>
		<circle cx="21.182" cy="-12.401" r="0.557"/>
		<circle cx="21.182" cy="-10.124" r="0.557"/>
		<circle cx="14.557" cy="-10.124" r="0.557"/>
		<circle cx="19.115" cy="-11.213" r="0.557"/>
		<circle cx="16.615" cy="-11.213" r="0.557"/>
		<circle cx="19.932" cy="-7.936" r="0.557"/>
		<circle cx="24.521" cy="-13.213" r="0.557"/>
		<circle cx="24.521" cy="-9.307" r="0.557"/>
		<circle cx="27.807" cy="-12.401" r="0.557"/>
		<circle cx="27.807" cy="-10.124" r="0.557"/>
		<circle cx="21.182" cy="-10.124" r="0.557"/>
		<circle cx="25.74" cy="-11.213" r="0.557"/>
		<circle cx="23.24" cy="-11.213" r="0.557"/>
		<circle cx="26.557" cy="-7.936" r="0.557"/>
		<circle cx="22.494" cy="-7.932" r="0.557"/>
		<circle cx="31.146" cy="-13.213" r="0.557"/>
		<circle cx="31.146" cy="-9.307" r="0.557"/>
		<circle cx="34.432" cy="-12.401" r="0.557"/>
		<circle cx="34.432" cy="-10.124" r="0.557"/>
		<circle cx="27.807" cy="-10.124" r="0.557"/>
		<circle cx="32.365" cy="-11.213" r="0.557"/>
		<circle cx="29.865" cy="-11.213" r="0.557"/>
		<circle cx="33.182" cy="-7.936" r="0.557"/>
		<circle cx="29.119" cy="-7.932" r="0.557"/>
		<circle cx="37.771" cy="-13.213" r="0.557"/>
		<circle cx="37.771" cy="-9.307" r="0.557"/>
		<path d="M41.057-12.958c-0.308,0-0.557,0.25-0.557,0.557s0.25,0.557,0.557,0.557"/>
		<path d="M41.057-10.681c-0.308,0-0.557,0.249-0.557,0.557s0.25,0.557,0.557,0.557"/>
		<circle cx="34.432" cy="-10.124" r="0.557"/>
		<circle cx="38.99" cy="-11.213" r="0.557"/>
		<circle cx="36.49" cy="-11.213" r="0.557"/>
		<circle cx="39.807" cy="-7.936" r="0.557"/>
		<circle cx="35.744" cy="-7.932" r="0.557"/>
		<circle cx="4.646" cy="-6.588" r="0.557"/>
		<circle cx="4.646" cy="-2.682" r="0.557"/>
		<path d="M1.334-5.219c0.308,0,0.557-0.249,0.557-0.557S1.642-6.332,1.334-6.332"/>
		<circle cx="7.932" cy="-5.776" r="0.557"/>
		<circle cx="7.932" cy="-3.499" r="0.557"/>
		<path d="M1.308-2.942c0.308,0,0.557-0.25,0.557-0.557S1.615-4.056,1.308-4.056"/>
		<circle cx="5.865" cy="-4.588" r="0.557"/>
		<circle cx="3.365" cy="-4.588" r="0.557"/>
		<path d="M7.239-1.312c0-0.307-0.249-0.557-0.557-0.557s-0.557,0.25-0.557,0.557"/>
		<circle cx="2.619" cy="-7.874" r="0.557"/>
		<path d="M3.176-1.308c0-0.308-0.249-0.557-0.557-0.557S2.062-1.615,2.062-1.308"/>
		<circle cx="11.271" cy="-6.588" r="0.557"/>
		<circle cx="11.271" cy="-2.682" r="0.557"/>
		<circle cx="14.557" cy="-5.776" r="0.557"/>
		<circle cx="14.557" cy="-3.499" r="0.557"/>
		<circle cx="7.932" cy="-3.499" r="0.557"/>
		<circle cx="12.49" cy="-4.588" r="0.557"/>
		<circle cx="9.99" cy="-4.588" r="0.557"/>
		<path d="M13.864-1.312c0-0.307-0.249-0.557-0.557-0.557s-0.557,0.25-0.557,0.557"/>
		<path d="M9.801-1.308c0-0.308-0.249-0.557-0.557-0.557S8.688-1.615,8.688-1.308"/>
		<circle cx="17.896" cy="-6.588" r="0.557"/>
		<circle cx="17.896" cy="-2.682" r="0.557"/>
		<circle cx="21.182" cy="-5.776" r="0.557"/>
		<circle cx="21.182" cy="-3.499" r="0.557"/>
		<circle cx="14.557" cy="-3.499" r="0.557"/>
		<circle cx="19.115" cy="-4.588" r="0.557"/>
		<circle cx="16.615" cy="-4.588" r="0.557"/>
		<path d="M20.489-1.312c0-0.307-0.249-0.557-0.557-0.557s-0.557,0.25-0.557,0.557"/>
		<circle cx="15.87" cy="-7.874" r="0.557"/>
		<path d="M16.426-1.308c0-0.308-0.249-0.557-0.557-0.557s-0.557,0.249-0.557,0.557"/>
		<circle cx="24.521" cy="-6.588" r="0.557"/>
		<circle cx="24.521" cy="-2.682" r="0.557"/>
		<circle cx="27.807" cy="-5.776" r="0.557"/>
		<circle cx="27.807" cy="-3.499" r="0.557"/>
		<circle cx="21.182" cy="-3.499" r="0.557"/>
		<circle cx="25.74" cy="-4.588" r="0.557"/>
		<circle cx="23.24" cy="-4.588" r="0.557"/>
		<path d="M27.114-1.312c0-0.307-0.249-0.557-0.557-0.557S26-1.619,26-1.312"/>
		<path d="M23.051-1.308c0-0.308-0.249-0.557-0.557-0.557s-0.557,0.249-0.557,0.557"/>
		<circle cx="31.146" cy="-6.588" r="0.557"/>
		<circle cx="31.146" cy="-2.682" r="0.557"/>
		<circle cx="34.432" cy="-5.776" r="0.557"/>
		<circle cx="34.432" cy="-3.499" r="0.557"/>
		<circle cx="27.807" cy="-3.499" r="0.557"/>
		<circle cx="32.365" cy="-4.588" r="0.557"/>
		<circle cx="29.865" cy="-4.588" r="0.557"/>
		<path d="M33.739-1.312c0-0.307-0.249-0.557-0.557-0.557c-0.308,0-0.557,0.25-0.557,0.557"/>
		<path d="M29.676-1.308c0-0.308-0.249-0.557-0.557-0.557s-0.557,0.249-0.557,0.557"/>
		<circle cx="37.771" cy="-6.588" r="0.557"/>
		<circle cx="37.771" cy="-2.682" r="0.557"/>
		<path d="M41.057-6.332c-0.308,0-0.557,0.249-0.557,0.557s0.25,0.557,0.557,0.557"/>
		<path d="M41.057-4.056c-0.308,0-0.557,0.249-0.557,0.557s0.25,0.557,0.557,0.557"/>
		<circle cx="34.432" cy="-3.499" r="0.557"/>
		<circle cx="38.99" cy="-4.588" r="0.557"/>
		<circle cx="36.49" cy="-4.588" r="0.557"/>
		<path d="M40.364-1.312c0-0.307-0.249-0.557-0.557-0.557c-0.308,0-0.557,0.25-0.557,0.557"/>
		<path d="M36.301-1.308c0-0.308-0.249-0.557-0.557-0.557c-0.308,0-0.557,0.249-0.557,0.557"/>
	</g>
</svg>
