<?xml version="1.0" encoding="utf-8"?>
<svg xmlns="http://www.w3.org/2000/svg" version="1.1" x="0px" y="0px" xml:space="preserve" width="39.737" height="39.737" viewBox="1.337 -41.065 39.737 39.737">
	<g>
		<rect x="1.337" y="-41.065" style="fill:none;" width="39.737" height="39.737"/>
		<circle style="fill:#EC008C;" cx="4.668" cy="-39.747" r="0.607"/>
		<circle style="fill:#EC008C;" cx="4.668" cy="-35.841" r="0.607"/>
		<path style="fill:#EC008C;" d="M1.351-38.327c0.335,0,0.606-0.271,0.606-0.607c0-0.335-0.271-0.607-0.606-0.607"/>
		<circle style="fill:#EC008C;" cx="7.953" cy="-38.934" r="0.607"/>
		<circle style="fill:#EC008C;" cx="7.953" cy="-36.658" r="0.607"/>
		<path style="fill:#EC008C;" d="M1.354-36.05c0.335,0,0.607-0.272,0.607-0.607c0-0.335-0.271-0.607-0.607-0.607"/>
		<circle style="fill:#EC008C;" cx="5.886" cy="-37.747" r="0.607"/>
		<circle style="fill:#EC008C;" cx="3.386" cy="-37.747" r="0.607"/>
		<path style="fill:#EC008C;" d="M6.096-41.053c0,0.335,0.272,0.607,0.607,0.607c0.336,0,0.607-0.272,0.607-0.607"/>
		<circle style="fill:#EC008C;" cx="6.703" cy="-34.47" r="0.607"/>
		<path style="fill:#EC008C;" d="M2.034-41.05c0,0.335,0.272,0.608,0.607,0.608c0.336,0,0.607-0.272,0.607-0.608"/>
		<circle style="fill:#EC008C;" cx="2.641" cy="-34.466" r="0.607"/>
		<circle style="fill:#EC008C;" cx="11.293" cy="-39.747" r="0.607"/>
		<circle style="fill:#EC008C;" cx="11.293" cy="-35.841" r="0.607"/>
		<circle style="fill:#EC008C;" cx="14.578" cy="-38.934" r="0.607"/>
		<circle style="fill:#EC008C;" cx="14.578" cy="-36.658" r="0.607"/>
		<circle style="fill:#EC008C;" cx="7.953" cy="-36.658" r="0.607"/>
		<circle style="fill:#EC008C;" cx="12.511" cy="-37.747" r="0.607"/>
		<circle style="fill:#EC008C;" cx="10.011" cy="-37.747" r="0.607"/>
		<path style="fill:#EC008C;" d="M12.721-41.053c0,0.335,0.272,0.607,0.607,0.607c0.335,0,0.607-0.272,0.607-0.607"/>
		<circle style="fill:#EC008C;" cx="13.328" cy="-34.47" r="0.607"/>
		<path style="fill:#EC008C;" d="M8.659-41.053c0,0.335,0.272,0.607,0.607,0.607c0.335,0,0.607-0.272,0.607-0.607"/>
		<circle style="fill:#EC008C;" cx="9.266" cy="-34.466" r="0.607"/>
		<circle style="fill:#EC008C;" cx="17.918" cy="-39.747" r="0.607"/>
		<circle style="fill:#EC008C;" cx="17.918" cy="-35.841" r="0.607"/>
		<circle style="fill:#EC008C;" cx="21.203" cy="-38.934" r="0.607"/>
		<circle style="fill:#EC008C;" cx="21.203" cy="-36.658" r="0.607"/>
		<circle style="fill:#EC008C;" cx="14.578" cy="-36.658" r="0.607"/>
		<circle style="fill:#EC008C;" cx="19.136" cy="-37.747" r="0.607"/>
		<circle style="fill:#EC008C;" cx="16.636" cy="-37.747" r="0.607"/>
		<path style="fill:#EC008C;" d="M19.346-41.053c0,0.335,0.272,0.607,0.607,0.607c0.336,0,0.607-0.272,0.607-0.607"/>
		<circle style="fill:#EC008C;" cx="19.953" cy="-34.47" r="0.607"/>
		<path style="fill:#EC008C;" d="M15.284-41.053c0,0.335,0.272,0.607,0.607,0.607c0.336,0,0.607-0.272,0.607-0.607"/>
		<circle style="fill:#EC008C;" cx="15.891" cy="-34.466" r="0.607"/>
		<circle style="fill:#EC008C;" cx="24.543" cy="-39.747" r="0.607"/>
		<circle style="fill:#EC008C;" cx="24.543" cy="-35.841" r="0.607"/>
		<circle style="fill:#EC008C;" cx="27.828" cy="-38.934" r="0.607"/>
		<circle style="fill:#EC008C;" cx="27.828" cy="-36.658" r="0.607"/>
		<circle style="fill:#EC008C;" cx="21.203" cy="-36.658" r="0.607"/>
		<circle style="fill:#EC008C;" cx="25.761" cy="-37.747" r="0.607"/>
		<circle style="fill:#EC008C;" cx="23.261" cy="-37.747" r="0.607"/>
		<path style="fill:#EC008C;" d="M25.971-41.053c0,0.335,0.272,0.607,0.607,0.607c0.336,0,0.607-0.272,0.607-0.607"/>
		<circle style="fill:#EC008C;" cx="26.578" cy="-34.47" r="0.607"/>
		<path style="fill:#EC008C;" d="M21.909-41.053c0,0.335,0.272,0.607,0.607,0.607c0.336,0,0.607-0.272,0.607-0.607"/>
		<circle style="fill:#EC008C;" cx="22.516" cy="-34.466" r="0.607"/>
		<circle style="fill:#EC008C;" cx="31.168" cy="-39.747" r="0.607"/>
		<circle style="fill:#EC008C;" cx="31.168" cy="-35.841" r="0.607"/>
		<circle style="fill:#EC008C;" cx="34.453" cy="-38.934" r="0.607"/>
		<circle style="fill:#EC008C;" cx="34.453" cy="-36.658" r="0.607"/>
		<circle style="fill:#EC008C;" cx="27.828" cy="-36.658" r="0.607"/>
		<circle style="fill:#EC008C;" cx="32.386" cy="-37.747" r="0.607"/>
		<circle style="fill:#EC008C;" cx="29.886" cy="-37.747" r="0.607"/>
		<path style="fill:#EC008C;" d="M32.596-41.053c0,0.335,0.272,0.607,0.607,0.607c0.335,0,0.607-0.272,0.607-0.607"/>
		<circle style="fill:#EC008C;" cx="33.203" cy="-34.47" r="0.607"/>
		<path style="fill:#EC008C;" d="M28.534-41.053c0,0.335,0.272,0.607,0.607,0.607c0.336,0,0.607-0.272,0.607-0.607"/>
		<circle style="fill:#EC008C;" cx="29.141" cy="-34.466" r="0.607"/>
		<circle style="fill:#EC008C;" cx="37.793" cy="-39.747" r="0.607"/>
		<circle style="fill:#EC008C;" cx="37.793" cy="-35.841" r="0.607"/>
		<path style="fill:#EC008C;" d="M41.056-39.542c-0.335,0-0.607,0.272-0.607,0.607c0,0.336,0.272,0.607,0.607,0.607"/>
		<path style="fill:#EC008C;" d="M41.056-37.265c-0.335,0-0.607,0.271-0.607,0.607c0,0.335,0.272,0.607,0.607,0.607"/>
		<circle style="fill:#EC008C;" cx="34.453" cy="-36.658" r="0.607"/>
		<circle style="fill:#EC008C;" cx="39.011" cy="-37.747" r="0.607"/>
		<circle style="fill:#EC008C;" cx="36.511" cy="-37.747" r="0.607"/>
		<path style="fill:#EC008C;" d="M39.221-41.053c0,0.335,0.272,0.607,0.607,0.607c0.335,0,0.607-0.272,0.607-0.607"/>
		<circle style="fill:#EC008C;" cx="39.828" cy="-34.47" r="0.607"/>
		<path style="fill:#EC008C;" d="M35.159-41.053c0,0.335,0.272,0.607,0.607,0.607c0.335,0,0.607-0.272,0.607-0.607"/>
		<circle style="fill:#EC008C;" cx="35.766" cy="-34.466" r="0.607"/>
		<circle style="fill:#EC008C;" cx="4.668" cy="-33.122" r="0.607"/>
		<circle style="fill:#EC008C;" cx="4.668" cy="-29.216" r="0.607"/>
		<path style="fill:#EC008C;" d="M1.349-31.702c0.335,0,0.607-0.271,0.607-0.607c0-0.335-0.272-0.607-0.607-0.607"/>
		<circle style="fill:#EC008C;" cx="7.953" cy="-32.309" r="0.607"/>
		<circle style="fill:#EC008C;" cx="7.953" cy="-30.033" r="0.607"/>
		<path style="fill:#EC008C;" d="M1.338-29.425c0.335,0,0.606-0.272,0.606-0.607c0-0.336-0.271-0.607-0.606-0.607"/>
		<circle style="fill:#EC008C;" cx="5.886" cy="-31.122" r="0.607"/>
		<circle style="fill:#EC008C;" cx="3.386" cy="-31.122" r="0.607"/>
		<circle style="fill:#EC008C;" cx="6.703" cy="-27.845" r="0.607"/>
		<circle style="fill:#EC008C;" cx="2.641" cy="-27.841" r="0.607"/>
		<circle style="fill:#EC008C;" cx="11.293" cy="-33.122" r="0.607"/>
		<circle style="fill:#EC008C;" cx="11.293" cy="-29.216" r="0.607"/>
		<circle style="fill:#EC008C;" cx="14.578" cy="-32.309" r="0.607"/>
		<circle style="fill:#EC008C;" cx="14.578" cy="-30.033" r="0.607"/>
		<circle style="fill:#EC008C;" cx="7.953" cy="-30.033" r="0.607"/>
		<circle style="fill:#EC008C;" cx="12.511" cy="-31.122" r="0.607"/>
		<circle style="fill:#EC008C;" cx="10.011" cy="-31.122" r="0.607"/>
		<circle style="fill:#EC008C;" cx="13.328" cy="-27.845" r="0.607"/>
		<circle style="fill:#EC008C;" cx="9.266" cy="-27.841" r="0.607"/>
		<circle style="fill:#EC008C;" cx="17.918" cy="-33.122" r="0.607"/>
		<circle style="fill:#EC008C;" cx="17.918" cy="-29.216" r="0.607"/>
		<circle style="fill:#EC008C;" cx="21.203" cy="-32.309" r="0.607"/>
		<circle style="fill:#EC008C;" cx="21.203" cy="-30.033" r="0.607"/>
		<circle style="fill:#EC008C;" cx="14.578" cy="-30.033" r="0.607"/>
		<circle style="fill:#EC008C;" cx="19.136" cy="-31.122" r="0.607"/>
		<circle style="fill:#EC008C;" cx="16.636" cy="-31.122" r="0.607"/>
		<circle style="fill:#EC008C;" cx="19.953" cy="-27.845" r="0.607"/>
		<circle style="fill:#EC008C;" cx="15.891" cy="-27.841" r="0.607"/>
		<circle style="fill:#EC008C;" cx="24.543" cy="-33.122" r="0.607"/>
		<circle style="fill:#EC008C;" cx="24.543" cy="-29.216" r="0.607"/>
		<circle style="fill:#EC008C;" cx="27.828" cy="-32.309" r="0.607"/>
		<circle style="fill:#EC008C;" cx="27.828" cy="-30.033" r="0.607"/>
		<circle style="fill:#EC008C;" cx="21.203" cy="-30.033" r="0.607"/>
		<circle style="fill:#EC008C;" cx="25.761" cy="-31.122" r="0.607"/>
		<circle style="fill:#EC008C;" cx="23.261" cy="-31.122" r="0.607"/>
		<circle style="fill:#EC008C;" cx="26.578" cy="-27.845" r="0.607"/>
		<circle style="fill:#EC008C;" cx="22.516" cy="-27.841" r="0.607"/>
		<circle style="fill:#EC008C;" cx="31.168" cy="-33.122" r="0.607"/>
		<circle style="fill:#EC008C;" cx="31.168" cy="-29.216" r="0.607"/>
		<circle style="fill:#EC008C;" cx="34.453" cy="-32.309" r="0.607"/>
		<circle style="fill:#EC008C;" cx="34.453" cy="-30.033" r="0.607"/>
		<circle style="fill:#EC008C;" cx="27.828" cy="-30.033" r="0.607"/>
		<circle style="fill:#EC008C;" cx="32.386" cy="-31.122" r="0.607"/>
		<circle style="fill:#EC008C;" cx="29.886" cy="-31.122" r="0.607"/>
		<circle style="fill:#EC008C;" cx="33.203" cy="-27.845" r="0.607"/>
		<circle style="fill:#EC008C;" cx="29.141" cy="-27.841" r="0.607"/>
		<circle style="fill:#EC008C;" cx="37.793" cy="-33.122" r="0.607"/>
		<circle style="fill:#EC008C;" cx="37.793" cy="-29.216" r="0.607"/>
		<path style="fill:#EC008C;" d="M41.054-32.917c-0.335,0-0.607,0.272-0.607,0.607c0,0.336,0.272,0.607,0.607,0.607"/>
		<path style="fill:#EC008C;" d="M41.054-30.64c-0.335,0-0.607,0.271-0.607,0.607c0,0.335,0.272,0.607,0.607,0.607"/>
		<circle style="fill:#EC008C;" cx="34.453" cy="-30.033" r="0.607"/>
		<circle style="fill:#EC008C;" cx="39.011" cy="-31.122" r="0.607"/>
		<circle style="fill:#EC008C;" cx="36.511" cy="-31.122" r="0.607"/>
		<circle style="fill:#EC008C;" cx="39.828" cy="-27.845" r="0.607"/>
		<circle style="fill:#EC008C;" cx="35.766" cy="-27.841" r="0.607"/>
		<circle style="fill:#EC008C;" cx="4.668" cy="-26.497" r="0.607"/>
		<circle style="fill:#EC008C;" cx="4.668" cy="-22.591" r="0.607"/>
		<path style="fill:#EC008C;" d="M1.335-25.077c0.335,0,0.607-0.271,0.607-0.607c0-0.335-0.271-0.607-0.607-0.607"/>
		<circle style="fill:#EC008C;" cx="7.953" cy="-25.684" r="0.607"/>
		<circle style="fill:#EC008C;" cx="7.953" cy="-23.408" r="0.607"/>
		<path style="fill:#EC008C;" d="M1.354-22.8c0.335,0,0.607-0.272,0.607-0.607c0-0.336-0.271-0.607-0.607-0.607"/>
		<circle style="fill:#EC008C;" cx="5.886" cy="-24.497" r="0.607"/>
		<circle style="fill:#EC008C;" cx="3.386" cy="-24.497" r="0.607"/>
		<circle style="fill:#EC008C;" cx="6.703" cy="-21.22" r="0.607"/>
		<circle style="fill:#EC008C;" cx="2.641" cy="-21.216" r="0.607"/>
		<circle style="fill:#EC008C;" cx="11.293" cy="-26.497" r="0.607"/>
		<circle style="fill:#EC008C;" cx="11.293" cy="-22.591" r="0.607"/>
		<circle style="fill:#EC008C;" cx="14.578" cy="-25.684" r="0.607"/>
		<circle style="fill:#EC008C;" cx="14.578" cy="-23.408" r="0.607"/>
		<circle style="fill:#EC008C;" cx="7.953" cy="-23.408" r="0.607"/>
		<circle style="fill:#EC008C;" cx="12.511" cy="-24.497" r="0.607"/>
		<circle style="fill:#EC008C;" cx="10.011" cy="-24.497" r="0.607"/>
		<circle style="fill:#EC008C;" cx="13.328" cy="-21.22" r="0.607"/>
		<circle style="fill:#EC008C;" cx="9.266" cy="-21.216" r="0.607"/>
		<circle style="fill:#EC008C;" cx="17.918" cy="-26.497" r="0.607"/>
		<circle style="fill:#EC008C;" cx="17.918" cy="-22.591" r="0.607"/>
		<circle style="fill:#EC008C;" cx="21.203" cy="-25.684" r="0.607"/>
		<circle style="fill:#EC008C;" cx="21.203" cy="-23.408" r="0.607"/>
		<circle style="fill:#EC008C;" cx="14.578" cy="-23.408" r="0.607"/>
		<circle style="fill:#EC008C;" cx="19.136" cy="-24.497" r="0.607"/>
		<circle style="fill:#EC008C;" cx="16.636" cy="-24.497" r="0.607"/>
		<circle style="fill:#EC008C;" cx="19.953" cy="-21.22" r="0.607"/>
		<circle style="fill:#EC008C;" cx="15.891" cy="-21.216" r="0.607"/>
		<circle style="fill:#EC008C;" cx="24.543" cy="-26.497" r="0.607"/>
		<circle style="fill:#EC008C;" cx="24.543" cy="-22.591" r="0.607"/>
		<circle style="fill:#EC008C;" cx="27.828" cy="-25.684" r="0.607"/>
		<circle style="fill:#EC008C;" cx="27.828" cy="-23.408" r="0.607"/>
		<circle style="fill:#EC008C;" cx="21.203" cy="-23.408" r="0.607"/>
		<circle style="fill:#EC008C;" cx="25.761" cy="-24.497" r="0.607"/>
		<circle style="fill:#EC008C;" cx="23.261" cy="-24.497" r="0.607"/>
		<circle style="fill:#EC008C;" cx="26.578" cy="-21.22" r="0.607"/>
		<circle style="fill:#EC008C;" cx="22.516" cy="-21.216" r="0.607"/>
		<circle style="fill:#EC008C;" cx="31.168" cy="-26.497" r="0.607"/>
		<circle style="fill:#EC008C;" cx="31.168" cy="-22.591" r="0.607"/>
		<circle style="fill:#EC008C;" cx="34.453" cy="-25.684" r="0.607"/>
		<circle style="fill:#EC008C;" cx="34.453" cy="-23.408" r="0.607"/>
		<circle style="fill:#EC008C;" cx="27.828" cy="-23.408" r="0.607"/>
		<circle style="fill:#EC008C;" cx="32.386" cy="-24.497" r="0.607"/>
		<circle style="fill:#EC008C;" cx="29.886" cy="-24.497" r="0.607"/>
		<circle style="fill:#EC008C;" cx="33.203" cy="-21.22" r="0.607"/>
		<circle style="fill:#EC008C;" cx="29.141" cy="-21.216" r="0.607"/>
		<circle style="fill:#EC008C;" cx="37.793" cy="-26.497" r="0.607"/>
		<circle style="fill:#EC008C;" cx="37.793" cy="-22.591" r="0.607"/>
		<path style="fill:#EC008C;" d="M41.069-26.292c-0.335,0-0.607,0.272-0.607,0.607c0,0.335,0.272,0.607,0.607,0.607"/>
		<path style="fill:#EC008C;" d="M41.069-24.015c-0.335,0-0.607,0.271-0.607,0.607c0,0.335,0.272,0.607,0.607,0.607"/>
		<circle style="fill:#EC008C;" cx="34.453" cy="-23.408" r="0.607"/>
		<circle style="fill:#EC008C;" cx="39.011" cy="-24.497" r="0.607"/>
		<circle style="fill:#EC008C;" cx="36.511" cy="-24.497" r="0.607"/>
		<circle style="fill:#EC008C;" cx="39.828" cy="-21.22" r="0.607"/>
		<circle style="fill:#EC008C;" cx="35.766" cy="-21.216" r="0.607"/>
		<circle style="fill:#EC008C;" cx="4.668" cy="-19.872" r="0.607"/>
		<circle style="fill:#EC008C;" cx="4.668" cy="-15.966" r="0.607"/>
		<path style="fill:#EC008C;" d="M1.363-18.452c0.335,0,0.606-0.271,0.606-0.607c0-0.335-0.271-0.607-0.606-0.607"/>
		<circle style="fill:#EC008C;" cx="7.953" cy="-19.059" r="0.607"/>
		<circle style="fill:#EC008C;" cx="7.953" cy="-16.783" r="0.607"/>
		<path style="fill:#EC008C;" d="M1.361-16.175c0.336,0,0.607-0.272,0.607-0.607c0-0.336-0.271-0.607-0.607-0.607"/>
		<circle style="fill:#EC008C;" cx="5.886" cy="-17.872" r="0.607"/>
		<circle style="fill:#EC008C;" cx="3.386" cy="-17.872" r="0.607"/>
		<circle style="fill:#EC008C;" cx="6.703" cy="-14.595" r="0.607"/>
		<circle style="fill:#EC008C;" cx="2.641" cy="-14.591" r="0.607"/>
		<circle style="fill:#EC008C;" cx="11.293" cy="-19.872" r="0.607"/>
		<circle style="fill:#EC008C;" cx="11.293" cy="-15.966" r="0.607"/>
		<circle style="fill:#EC008C;" cx="14.578" cy="-19.059" r="0.607"/>
		<circle style="fill:#EC008C;" cx="14.578" cy="-16.783" r="0.607"/>
		<circle style="fill:#EC008C;" cx="7.953" cy="-16.783" r="0.607"/>
		<circle style="fill:#EC008C;" cx="12.511" cy="-17.872" r="0.607"/>
		<circle style="fill:#EC008C;" cx="10.011" cy="-17.872" r="0.607"/>
		<circle style="fill:#EC008C;" cx="13.328" cy="-14.595" r="0.607"/>
		<circle style="fill:#EC008C;" cx="9.266" cy="-14.591" r="0.607"/>
		<circle style="fill:#EC008C;" cx="17.918" cy="-19.872" r="0.607"/>
		<circle style="fill:#EC008C;" cx="17.918" cy="-15.966" r="0.607"/>
		<circle style="fill:#EC008C;" cx="21.203" cy="-19.059" r="0.607"/>
		<circle style="fill:#EC008C;" cx="21.203" cy="-16.783" r="0.607"/>
		<circle style="fill:#EC008C;" cx="14.578" cy="-16.783" r="0.607"/>
		<circle style="fill:#EC008C;" cx="19.136" cy="-17.872" r="0.607"/>
		<circle style="fill:#EC008C;" cx="16.636" cy="-17.872" r="0.607"/>
		<circle style="fill:#EC008C;" cx="19.953" cy="-14.595" r="0.607"/>
		<circle style="fill:#EC008C;" cx="15.891" cy="-14.591" r="0.607"/>
		<circle style="fill:#EC008C;" cx="24.543" cy="-19.872" r="0.607"/>
		<circle style="fill:#EC008C;" cx="24.543" cy="-15.966" r="0.607"/>
		<circle style="fill:#EC008C;" cx="27.828" cy="-19.059" r="0.607"/>
		<circle style="fill:#EC008C;" cx="27.828" cy="-16.783" r="0.607"/>
		<circle style="fill:#EC008C;" cx="21.203" cy="-16.783" r="0.607"/>
		<circle style="fill:#EC008C;" cx="25.761" cy="-17.872" r="0.607"/>
		<circle style="fill:#EC008C;" cx="23.261" cy="-17.872" r="0.607"/>
		<circle style="fill:#EC008C;" cx="26.578" cy="-14.595" r="0.607"/>
		<circle style="fill:#EC008C;" cx="22.516" cy="-14.591" r="0.607"/>
		<circle style="fill:#EC008C;" cx="31.168" cy="-19.872" r="0.607"/>
		<circle style="fill:#EC008C;" cx="31.168" cy="-15.966" r="0.607"/>
		<circle style="fill:#EC008C;" cx="34.453" cy="-19.059" r="0.607"/>
		<circle style="fill:#EC008C;" cx="34.453" cy="-16.783" r="0.607"/>
		<circle style="fill:#EC008C;" cx="27.828" cy="-16.783" r="0.607"/>
		<circle style="fill:#EC008C;" cx="32.386" cy="-17.872" r="0.607"/>
		<circle style="fill:#EC008C;" cx="29.886" cy="-17.872" r="0.607"/>
		<circle style="fill:#EC008C;" cx="33.203" cy="-14.595" r="0.607"/>
		<circle style="fill:#EC008C;" cx="29.141" cy="-14.591" r="0.607"/>
		<circle style="fill:#EC008C;" cx="37.793" cy="-19.872" r="0.607"/>
		<circle style="fill:#EC008C;" cx="37.793" cy="-15.966" r="0.607"/>
		<path style="fill:#EC008C;" d="M41.069-19.667c-0.335,0-0.607,0.272-0.607,0.607c0,0.335,0.272,0.607,0.607,0.607"/>
		<path style="fill:#EC008C;" d="M41.069-17.39c-0.335,0-0.607,0.271-0.607,0.607c0,0.335,0.272,0.607,0.607,0.607"/>
		<circle style="fill:#EC008C;" cx="34.453" cy="-16.783" r="0.607"/>
		<circle style="fill:#EC008C;" cx="39.011" cy="-17.872" r="0.607"/>
		<circle style="fill:#EC008C;" cx="36.511" cy="-17.872" r="0.607"/>
		<circle style="fill:#EC008C;" cx="39.828" cy="-14.595" r="0.607"/>
		<circle style="fill:#EC008C;" cx="35.766" cy="-14.591" r="0.607"/>
		<circle style="fill:#EC008C;" cx="4.668" cy="-13.247" r="0.607"/>
		<circle style="fill:#EC008C;" cx="4.668" cy="-9.341" r="0.607"/>
		<path style="fill:#EC008C;" d="M1.349-11.827c0.335,0,0.607-0.272,0.607-0.607c0-0.335-0.272-0.607-0.607-0.607"/>
		<circle style="fill:#EC008C;" cx="7.953" cy="-12.434" r="0.607"/>
		<circle style="fill:#EC008C;" cx="7.953" cy="-10.158" r="0.607"/>
		<path style="fill:#EC008C;" d="M1.354-9.55c0.335,0,0.607-0.272,0.607-0.607c0-0.336-0.271-0.607-0.607-0.607"/>
		<circle style="fill:#EC008C;" cx="5.886" cy="-11.247" r="0.607"/>
		<circle style="fill:#EC008C;" cx="3.386" cy="-11.247" r="0.607"/>
		<circle style="fill:#EC008C;" cx="6.703" cy="-7.97" r="0.607"/>
		<circle style="fill:#EC008C;" cx="11.293" cy="-13.247" r="0.607"/>
		<circle style="fill:#EC008C;" cx="11.293" cy="-9.341" r="0.607"/>
		<circle style="fill:#EC008C;" cx="14.578" cy="-12.434" r="0.607"/>
		<circle style="fill:#EC008C;" cx="14.578" cy="-10.158" r="0.607"/>
		<circle style="fill:#EC008C;" cx="7.953" cy="-10.158" r="0.607"/>
		<circle style="fill:#EC008C;" cx="12.511" cy="-11.247" r="0.607"/>
		<circle style="fill:#EC008C;" cx="10.011" cy="-11.247" r="0.607"/>
		<circle style="fill:#EC008C;" cx="13.328" cy="-7.97" r="0.607"/>
		<circle style="fill:#EC008C;" cx="9.266" cy="-7.966" r="0.607"/>
		<circle style="fill:#EC008C;" cx="17.918" cy="-13.247" r="0.607"/>
		<circle style="fill:#EC008C;" cx="17.918" cy="-9.341" r="0.607"/>
		<circle style="fill:#EC008C;" cx="21.203" cy="-12.434" r="0.607"/>
		<circle style="fill:#EC008C;" cx="21.203" cy="-10.158" r="0.607"/>
		<circle style="fill:#EC008C;" cx="14.578" cy="-10.158" r="0.607"/>
		<circle style="fill:#EC008C;" cx="19.136" cy="-11.247" r="0.607"/>
		<circle style="fill:#EC008C;" cx="16.636" cy="-11.247" r="0.607"/>
		<circle style="fill:#EC008C;" cx="19.953" cy="-7.97" r="0.607"/>
		<circle style="fill:#EC008C;" cx="24.543" cy="-13.247" r="0.607"/>
		<circle style="fill:#EC008C;" cx="24.543" cy="-9.341" r="0.607"/>
		<circle style="fill:#EC008C;" cx="27.828" cy="-12.434" r="0.607"/>
		<circle style="fill:#EC008C;" cx="27.828" cy="-10.158" r="0.607"/>
		<circle style="fill:#EC008C;" cx="21.203" cy="-10.158" r="0.607"/>
		<circle style="fill:#EC008C;" cx="25.761" cy="-11.247" r="0.607"/>
		<circle style="fill:#EC008C;" cx="23.261" cy="-11.247" r="0.607"/>
		<circle style="fill:#EC008C;" cx="26.578" cy="-7.97" r="0.607"/>
		<circle style="fill:#EC008C;" cx="22.516" cy="-7.966" r="0.607"/>
		<circle style="fill:#EC008C;" cx="31.168" cy="-13.247" r="0.607"/>
		<circle style="fill:#EC008C;" cx="31.168" cy="-9.341" r="0.607"/>
		<circle style="fill:#EC008C;" cx="34.453" cy="-12.434" r="0.607"/>
		<circle style="fill:#EC008C;" cx="34.453" cy="-10.158" r="0.607"/>
		<circle style="fill:#EC008C;" cx="27.828" cy="-10.158" r="0.607"/>
		<circle style="fill:#EC008C;" cx="32.386" cy="-11.247" r="0.607"/>
		<circle style="fill:#EC008C;" cx="29.886" cy="-11.247" r="0.607"/>
		<circle style="fill:#EC008C;" cx="33.203" cy="-7.97" r="0.607"/>
		<circle style="fill:#EC008C;" cx="29.141" cy="-7.966" r="0.607"/>
		<circle style="fill:#EC008C;" cx="37.793" cy="-13.247" r="0.607"/>
		<circle style="fill:#EC008C;" cx="37.793" cy="-9.341" r="0.607"/>
		<path style="fill:#EC008C;" d="M41.069-13.042c-0.335,0-0.607,0.272-0.607,0.607c0,0.335,0.272,0.607,0.607,0.607"/>
		<path style="fill:#EC008C;" d="M41.065-10.765c-0.335,0-0.607,0.271-0.607,0.607c0,0.335,0.272,0.607,0.607,0.607"/>
		<circle style="fill:#EC008C;" cx="34.453" cy="-10.158" r="0.607"/>
		<circle style="fill:#EC008C;" cx="39.011" cy="-11.247" r="0.607"/>
		<circle style="fill:#EC008C;" cx="36.511" cy="-11.247" r="0.607"/>
		<circle style="fill:#EC008C;" cx="39.828" cy="-7.97" r="0.607"/>
		<circle style="fill:#EC008C;" cx="35.766" cy="-7.966" r="0.607"/>
		<circle style="fill:#EC008C;" cx="4.668" cy="-6.622" r="0.607"/>
		<circle style="fill:#EC008C;" cx="4.668" cy="-2.716" r="0.607"/>
		<path style="fill:#EC008C;" d="M1.351-5.202c0.335,0,0.606-0.272,0.606-0.607c0-0.335-0.271-0.607-0.606-0.607"/>
		<circle style="fill:#EC008C;" cx="7.953" cy="-5.809" r="0.607"/>
		<circle style="fill:#EC008C;" cx="7.953" cy="-3.533" r="0.607"/>
		<path style="fill:#EC008C;" d="M1.338-2.925c0.335,0,0.606-0.272,0.606-0.607c0-0.336-0.271-0.607-0.606-0.607"/>
		<circle style="fill:#EC008C;" cx="5.886" cy="-4.622" r="0.607"/>
		<circle style="fill:#EC008C;" cx="3.386" cy="-4.622" r="0.607"/>
		<path style="fill:#EC008C;" d="M7.311-1.34c0-0.334-0.271-0.607-0.607-0.607c-0.335,0-0.607,0.273-0.607,0.607"/>
		<circle style="fill:#EC008C;" cx="2.641" cy="-7.908" r="0.607"/>
		<path style="fill:#EC008C;" d="M3.248-1.335c0-0.335-0.271-0.607-0.607-0.607c-0.335,0-0.607,0.271-0.607,0.607"/>
		<circle style="fill:#EC008C;" cx="11.293" cy="-6.622" r="0.607"/>
		<circle style="fill:#EC008C;" cx="11.293" cy="-2.716" r="0.607"/>
		<circle style="fill:#EC008C;" cx="14.578" cy="-5.809" r="0.607"/>
		<circle style="fill:#EC008C;" cx="14.578" cy="-3.533" r="0.607"/>
		<circle style="fill:#EC008C;" cx="7.953" cy="-3.533" r="0.607"/>
		<circle style="fill:#EC008C;" cx="12.511" cy="-4.622" r="0.607"/>
		<circle style="fill:#EC008C;" cx="10.011" cy="-4.622" r="0.607"/>
		<path style="fill:#EC008C;" d="M13.936-1.34c0-0.334-0.271-0.607-0.607-0.607c-0.335,0-0.607,0.273-0.607,0.607"/>
		<path style="fill:#EC008C;" d="M9.873-1.335c0-0.335-0.271-0.607-0.607-0.607c-0.335,0-0.607,0.271-0.607,0.607"/>
		<circle style="fill:#EC008C;" cx="17.918" cy="-6.622" r="0.607"/>
		<circle style="fill:#EC008C;" cx="17.918" cy="-2.716" r="0.607"/>
		<circle style="fill:#EC008C;" cx="21.203" cy="-5.809" r="0.607"/>
		<circle style="fill:#EC008C;" cx="21.203" cy="-3.533" r="0.607"/>
		<circle style="fill:#EC008C;" cx="14.578" cy="-3.533" r="0.607"/>
		<circle style="fill:#EC008C;" cx="19.136" cy="-4.622" r="0.607"/>
		<circle style="fill:#EC008C;" cx="16.636" cy="-4.622" r="0.607"/>
		<path style="fill:#EC008C;" d="M20.56-1.34c0-0.334-0.271-0.607-0.607-0.607c-0.335,0-0.607,0.273-0.607,0.607"/>
		<circle style="fill:#EC008C;" cx="15.891" cy="-7.908" r="0.607"/>
		<path style="fill:#EC008C;" d="M16.498-1.335c0-0.335-0.271-0.607-0.607-0.607c-0.335,0-0.607,0.271-0.607,0.607"/>
		<circle style="fill:#EC008C;" cx="24.543" cy="-6.622" r="0.607"/>
		<circle style="fill:#EC008C;" cx="24.543" cy="-2.716" r="0.607"/>
		<circle style="fill:#EC008C;" cx="27.828" cy="-5.809" r="0.607"/>
		<circle style="fill:#EC008C;" cx="27.828" cy="-3.533" r="0.607"/>
		<circle style="fill:#EC008C;" cx="21.203" cy="-3.533" r="0.607"/>
		<circle style="fill:#EC008C;" cx="25.761" cy="-4.622" r="0.607"/>
		<circle style="fill:#EC008C;" cx="23.261" cy="-4.622" r="0.607"/>
		<path style="fill:#EC008C;" d="M27.185-1.34c0-0.334-0.271-0.607-0.607-0.607c-0.335,0-0.607,0.273-0.607,0.607"/>
		<path style="fill:#EC008C;" d="M23.123-1.335c0-0.335-0.271-0.607-0.607-0.607c-0.335,0-0.607,0.271-0.607,0.607"/>
		<circle style="fill:#EC008C;" cx="31.168" cy="-6.622" r="0.607"/>
		<circle style="fill:#EC008C;" cx="31.168" cy="-2.716" r="0.607"/>
		<circle style="fill:#EC008C;" cx="34.453" cy="-5.809" r="0.607"/>
		<circle style="fill:#EC008C;" cx="34.453" cy="-3.533" r="0.607"/>
		<circle style="fill:#EC008C;" cx="27.828" cy="-3.533" r="0.607"/>
		<circle style="fill:#EC008C;" cx="32.386" cy="-4.622" r="0.607"/>
		<circle style="fill:#EC008C;" cx="29.886" cy="-4.622" r="0.607"/>
		<path style="fill:#EC008C;" d="M33.811-1.34c0-0.334-0.271-0.607-0.607-0.607c-0.335,0-0.607,0.273-0.607,0.607"/>
		<path style="fill:#EC008C;" d="M29.748-1.335c0-0.335-0.271-0.607-0.607-0.607c-0.335,0-0.607,0.271-0.607,0.607"/>
		<circle style="fill:#EC008C;" cx="37.793" cy="-6.622" r="0.607"/>
		<circle style="fill:#EC008C;" cx="37.793" cy="-2.716" r="0.607"/>
		<path style="fill:#EC008C;" d="M41.065-6.417c-0.335,0-0.607,0.272-0.607,0.607c0,0.336,0.272,0.607,0.607,0.607"/>
		<path style="fill:#EC008C;" d="M41.065-4.14c-0.335,0-0.607,0.271-0.607,0.607c0,0.335,0.272,0.607,0.607,0.607"/>
		<circle style="fill:#EC008C;" cx="34.453" cy="-3.533" r="0.607"/>
		<circle style="fill:#EC008C;" cx="39.011" cy="-4.622" r="0.607"/>
		<circle style="fill:#EC008C;" cx="36.511" cy="-4.622" r="0.607"/>
		<path style="fill:#EC008C;" d="M40.436-1.34c0-0.334-0.271-0.607-0.607-0.607c-0.335,0-0.607,0.273-0.607,0.607"/>
		<path style="fill:#EC008C;" d="M36.373-1.335c0-0.335-0.271-0.607-0.607-0.607c-0.335,0-0.607,0.271-0.607,0.607"/>
	</g>
</svg>
