<svg xmlns="http://www.w3.org/2000/svg" xmlns:xlink="http://www.w3.org/1999/xlink" width="39.74" height="39.74"><defs><path id="a" d="M0 0h39.74v39.74H0z"/></defs><clipPath id="b"><use xlink:href="#a" overflow="visible"/></clipPath><circle cx="3.33" cy="1.32" r=".61" fill="#EC008C" clip-path="url(#b)"/><circle cx="3.33" cy="5.22" r=".61" fill="#EC008C" clip-path="url(#b)"/><path fill="#EC008C" d="M0 2.74c.35 0 .62-.27.62-.6S.35 1.5.02 1.5" clip-path="url(#b)"/><circle cx="6.62" cy="2.13" r=".61" fill="#EC008C" clip-path="url(#b)"/><circle cx="6.62" cy="4.41" r=".61" fill="#EC008C" clip-path="url(#b)"/><path fill="#EC008C" d="M.02 5c.33 0 .6-.26.6-.6s-.27-.6-.6-.6" clip-path="url(#b)"/><circle cx="4.55" cy="3.32" r=".61" fill="#EC008C" clip-path="url(#b)"/><circle cx="2.05" cy="3.32" r=".61" fill="#EC008C" clip-path="url(#b)"/><path fill="#EC008C" d="M4.76 0c0 .35.27.62.6.62s.6-.27.6-.6" clip-path="url(#b)"/><circle cx="5.37" cy="6.59" r=".61" fill="#EC008C" clip-path="url(#b)"/><path fill="#EC008C" d="M.7 0c0 .35.27.62.6.62s.6-.27.6-.6" clip-path="url(#b)"/><circle cx="1.3" cy="6.6" r=".61" fill="#EC008C" clip-path="url(#b)"/><circle cx="9.96" cy="1.32" r=".61" fill="#EC008C" clip-path="url(#b)"/><circle cx="9.96" cy="5.22" r=".61" fill="#EC008C" clip-path="url(#b)"/><circle cx="13.24" cy="2.13" r=".61" fill="#EC008C" clip-path="url(#b)"/><circle cx="13.24" cy="4.41" r=".61" fill="#EC008C" clip-path="url(#b)"/><circle cx="6.62" cy="4.41" r=".61" fill="#EC008C" clip-path="url(#b)"/><circle cx="11.17" cy="3.32" r=".61" fill="#EC008C" clip-path="url(#b)"/><circle cx="8.67" cy="3.32" r=".61" fill="#EC008C" clip-path="url(#b)"/><path fill="#EC008C" d="M11.38 0c0 .35.28.62.6.62s.62-.27.62-.6" clip-path="url(#b)"/><circle cx="11.99" cy="6.59" r=".61" fill="#EC008C" clip-path="url(#b)"/><path fill="#EC008C" d="M7.32 0c0 .35.27.62.6.62s.62-.27.62-.6" clip-path="url(#b)"/><circle cx="7.93" cy="6.6" r=".61" fill="#EC008C" clip-path="url(#b)"/><circle cx="16.58" cy="1.32" r=".61" fill="#EC008C" clip-path="url(#b)"/><circle cx="16.58" cy="5.22" r=".61" fill="#EC008C" clip-path="url(#b)"/><circle cx="19.87" cy="2.13" r=".61" fill="#EC008C" clip-path="url(#b)"/><circle cx="19.87" cy="4.41" r=".61" fill="#EC008C" clip-path="url(#b)"/><circle cx="13.24" cy="4.41" r=".61" fill="#EC008C" clip-path="url(#b)"/><circle cx="17.8" cy="3.32" r=".61" fill="#EC008C" clip-path="url(#b)"/><circle cx="15.3" cy="3.32" r=".61" fill="#EC008C" clip-path="url(#b)"/><path fill="#EC008C" d="M18 0c0 .35.28.62.62.62s.6-.27.6-.6" clip-path="url(#b)"/><circle cx="18.62" cy="6.59" r=".61" fill="#EC008C" clip-path="url(#b)"/><path fill="#EC008C" d="M13.95 0c0 .35.27.62.6.62s.6-.27.6-.6" clip-path="url(#b)"/><circle cx="14.55" cy="6.6" r=".61" fill="#EC008C" clip-path="url(#b)"/><circle cx="23.21" cy="1.32" r=".61" fill="#EC008C" clip-path="url(#b)"/><circle cx="23.21" cy="5.22" r=".61" fill="#EC008C" clip-path="url(#b)"/><circle cx="26.49" cy="2.13" r=".61" fill="#EC008C" clip-path="url(#b)"/><circle cx="26.49" cy="4.41" r=".61" fill="#EC008C" clip-path="url(#b)"/><circle cx="19.87" cy="4.41" r=".61" fill="#EC008C" clip-path="url(#b)"/><circle cx="24.42" cy="3.32" r=".61" fill="#EC008C" clip-path="url(#b)"/><circle cx="21.92" cy="3.32" r=".61" fill="#EC008C" clip-path="url(#b)"/><path fill="#EC008C" d="M24.63 0c0 .35.28.62.6.62s.62-.27.62-.6" clip-path="url(#b)"/><circle cx="25.24" cy="6.59" r=".61" fill="#EC008C" clip-path="url(#b)"/><path fill="#EC008C" d="M20.57 0c0 .35.27.62.6.62s.62-.27.62-.6" clip-path="url(#b)"/><circle cx="21.18" cy="6.6" r=".61" fill="#EC008C" clip-path="url(#b)"/><circle cx="29.83" cy="1.32" r=".61" fill="#EC008C" clip-path="url(#b)"/><circle cx="29.83" cy="5.22" r=".61" fill="#EC008C" clip-path="url(#b)"/><circle cx="33.12" cy="2.13" r=".61" fill="#EC008C" clip-path="url(#b)"/><circle cx="33.12" cy="4.41" r=".61" fill="#EC008C" clip-path="url(#b)"/><circle cx="26.49" cy="4.41" r=".61" fill="#EC008C" clip-path="url(#b)"/><circle cx="31.05" cy="3.32" r=".61" fill="#EC008C" clip-path="url(#b)"/><circle cx="28.55" cy="3.32" r=".61" fill="#EC008C" clip-path="url(#b)"/><path fill="#EC008C" d="M31.26 0c0 .35.27.62.6.62s.6-.27.6-.6" clip-path="url(#b)"/><circle cx="31.87" cy="6.59" r=".61" fill="#EC008C" clip-path="url(#b)"/><path fill="#EC008C" d="M27.2 0c0 .35.27.62.6.62s.6-.27.6-.6" clip-path="url(#b)"/><circle cx="27.8" cy="6.6" r=".61" fill="#EC008C" clip-path="url(#b)"/><circle cx="36.46" cy="1.32" r=".61" fill="#EC008C" clip-path="url(#b)"/><circle cx="36.46" cy="5.22" r=".61" fill="#EC008C" clip-path="url(#b)"/><path fill="#EC008C" d="M39.72 1.52c-.34 0-.6.27-.6.6s.26.62.6.62m0 1.06c-.34 0-.6.27-.6.6s.26.6.6.6" clip-path="url(#b)"/><circle cx="33.12" cy="4.41" r=".61" fill="#EC008C" clip-path="url(#b)"/><circle cx="37.67" cy="3.32" r=".61" fill="#EC008C" clip-path="url(#b)"/><circle cx="35.17" cy="3.32" r=".61" fill="#EC008C" clip-path="url(#b)"/><path fill="#EC008C" d="M37.88 0c0 .35.28.62.6.62s.62-.27.62-.6" clip-path="url(#b)"/><circle cx="38.49" cy="6.59" r=".61" fill="#EC008C" clip-path="url(#b)"/><path fill="#EC008C" d="M33.82 0c0 .35.27.62.6.62s.62-.27.62-.6" clip-path="url(#b)"/><circle cx="34.43" cy="6.6" r=".61" fill="#EC008C" clip-path="url(#b)"/><circle cx="3.33" cy="7.94" r=".61" fill="#EC008C" clip-path="url(#b)"/><circle cx="3.33" cy="11.85" r=".61" fill="#EC008C" clip-path="url(#b)"/><path fill="#EC008C" d="M0 9.36c.35 0 .62-.27.62-.6s-.27-.6-.6-.6" clip-path="url(#b)"/><circle cx="6.62" cy="8.76" r=".61" fill="#EC008C" clip-path="url(#b)"/><circle cx="6.62" cy="11.03" r=".61" fill="#EC008C" clip-path="url(#b)"/><path fill="#EC008C" d="M0 11.64c.34 0 .6-.27.6-.6s-.26-.6-.6-.6" clip-path="url(#b)"/><circle cx="4.55" cy="9.94" r=".61" fill="#EC008C" clip-path="url(#b)"/><circle cx="2.05" cy="9.94" r=".61" fill="#EC008C" clip-path="url(#b)"/><circle cx="5.37" cy="13.22" r=".61" fill="#EC008C" clip-path="url(#b)"/><circle cx="1.3" cy="13.22" r=".61" fill="#EC008C" clip-path="url(#b)"/><circle cx="9.96" cy="7.94" r=".61" fill="#EC008C" clip-path="url(#b)"/><circle cx="9.96" cy="11.85" r=".61" fill="#EC008C" clip-path="url(#b)"/><circle cx="13.24" cy="8.76" r=".61" fill="#EC008C" clip-path="url(#b)"/><circle cx="13.24" cy="11.03" r=".61" fill="#EC008C" clip-path="url(#b)"/><circle cx="6.62" cy="11.03" r=".61" fill="#EC008C" clip-path="url(#b)"/><circle cx="11.17" cy="9.94" r=".61" fill="#EC008C" clip-path="url(#b)"/><circle cx="8.67" cy="9.94" r=".61" fill="#EC008C" clip-path="url(#b)"/><circle cx="11.99" cy="13.22" r=".61" fill="#EC008C" clip-path="url(#b)"/><circle cx="7.93" cy="13.22" r=".61" fill="#EC008C" clip-path="url(#b)"/><circle cx="16.58" cy="7.94" r=".61" fill="#EC008C" clip-path="url(#b)"/><circle cx="16.58" cy="11.85" r=".61" fill="#EC008C" clip-path="url(#b)"/><circle cx="19.87" cy="8.76" r=".61" fill="#EC008C" clip-path="url(#b)"/><circle cx="19.87" cy="11.03" r=".61" fill="#EC008C" clip-path="url(#b)"/><circle cx="13.24" cy="11.03" r=".61" fill="#EC008C" clip-path="url(#b)"/><circle cx="17.8" cy="9.94" r=".61" fill="#EC008C" clip-path="url(#b)"/><circle cx="15.3" cy="9.94" r=".61" fill="#EC008C" clip-path="url(#b)"/><circle cx="18.62" cy="13.22" r=".61" fill="#EC008C" clip-path="url(#b)"/><circle cx="14.55" cy="13.22" r=".61" fill="#EC008C" clip-path="url(#b)"/><circle cx="23.21" cy="7.94" r=".61" fill="#EC008C" clip-path="url(#b)"/><circle cx="23.21" cy="11.85" r=".61" fill="#EC008C" clip-path="url(#b)"/><circle cx="26.49" cy="8.76" r=".61" fill="#EC008C" clip-path="url(#b)"/><circle cx="26.49" cy="11.03" r=".61" fill="#EC008C" clip-path="url(#b)"/><circle cx="19.87" cy="11.03" r=".61" fill="#EC008C" clip-path="url(#b)"/><circle cx="24.42" cy="9.94" r=".61" fill="#EC008C" clip-path="url(#b)"/><circle cx="21.92" cy="9.94" r=".61" fill="#EC008C" clip-path="url(#b)"/><circle cx="25.24" cy="13.22" r=".61" fill="#EC008C" clip-path="url(#b)"/><circle cx="21.18" cy="13.22" r=".61" fill="#EC008C" clip-path="url(#b)"/><circle cx="29.83" cy="7.94" r=".61" fill="#EC008C" clip-path="url(#b)"/><circle cx="29.83" cy="11.85" r=".61" fill="#EC008C" clip-path="url(#b)"/><circle cx="33.12" cy="8.76" r=".61" fill="#EC008C" clip-path="url(#b)"/><circle cx="33.12" cy="11.03" r=".61" fill="#EC008C" clip-path="url(#b)"/><circle cx="26.49" cy="11.03" r=".61" fill="#EC008C" clip-path="url(#b)"/><circle cx="31.05" cy="9.94" r=".61" fill="#EC008C" clip-path="url(#b)"/><circle cx="28.55" cy="9.94" r=".61" fill="#EC008C" clip-path="url(#b)"/><circle cx="31.87" cy="13.22" r=".61" fill="#EC008C" clip-path="url(#b)"/><circle cx="27.8" cy="13.22" r=".61" fill="#EC008C" clip-path="url(#b)"/><circle cx="36.46" cy="7.94" r=".61" fill="#EC008C" clip-path="url(#b)"/><circle cx="36.46" cy="11.85" r=".61" fill="#EC008C" clip-path="url(#b)"/><path fill="#EC008C" d="M39.72 8.15c-.34 0-.6.27-.6.6s.26.6.6.6m0 1.08c-.34 0-.6.27-.6.6s.26.6.6.6" clip-path="url(#b)"/><circle cx="33.12" cy="11.03" r=".61" fill="#EC008C" clip-path="url(#b)"/><circle cx="37.67" cy="9.94" r=".61" fill="#EC008C" clip-path="url(#b)"/><circle cx="35.17" cy="9.94" r=".61" fill="#EC008C" clip-path="url(#b)"/><circle cx="38.49" cy="13.22" r=".61" fill="#EC008C" clip-path="url(#b)"/><circle cx="34.43" cy="13.22" r=".61" fill="#EC008C" clip-path="url(#b)"/><circle cx="3.33" cy="14.57" r=".61" fill="#EC008C" clip-path="url(#b)"/><circle cx="3.33" cy="18.47" r=".61" fill="#EC008C" clip-path="url(#b)"/><path fill="#EC008C" d="M0 16c.33 0 .6-.28.6-.62s-.27-.6-.6-.6" clip-path="url(#b)"/><circle cx="6.62" cy="15.38" r=".61" fill="#EC008C" clip-path="url(#b)"/><circle cx="6.62" cy="17.66" r=".61" fill="#EC008C" clip-path="url(#b)"/><path fill="#EC008C" d="M.02 18.27c.33 0 .6-.28.6-.6s-.27-.62-.6-.62" clip-path="url(#b)"/><circle cx="4.55" cy="16.57" r=".61" fill="#EC008C" clip-path="url(#b)"/><circle cx="2.05" cy="16.57" r=".61" fill="#EC008C" clip-path="url(#b)"/><circle cx="5.37" cy="19.84" r=".61" fill="#EC008C" clip-path="url(#b)"/><circle cx="1.3" cy="19.85" r=".61" fill="#EC008C" clip-path="url(#b)"/><circle cx="9.96" cy="14.57" r=".61" fill="#EC008C" clip-path="url(#b)"/><circle cx="9.96" cy="18.47" r=".61" fill="#EC008C" clip-path="url(#b)"/><circle cx="13.24" cy="15.38" r=".61" fill="#EC008C" clip-path="url(#b)"/><circle cx="13.24" cy="17.66" r=".61" fill="#EC008C" clip-path="url(#b)"/><circle cx="6.62" cy="17.66" r=".61" fill="#EC008C" clip-path="url(#b)"/><circle cx="11.17" cy="16.57" r=".61" fill="#EC008C" clip-path="url(#b)"/><circle cx="8.67" cy="16.57" r=".61" fill="#EC008C" clip-path="url(#b)"/><circle cx="11.99" cy="19.84" r=".61" fill="#EC008C" clip-path="url(#b)"/><circle cx="7.93" cy="19.85" r=".61" fill="#EC008C" clip-path="url(#b)"/><circle cx="16.58" cy="14.57" r=".61" fill="#EC008C" clip-path="url(#b)"/><circle cx="16.58" cy="18.47" r=".61" fill="#EC008C" clip-path="url(#b)"/><circle cx="19.87" cy="15.38" r=".61" fill="#EC008C" clip-path="url(#b)"/><circle cx="19.87" cy="17.66" r=".61" fill="#EC008C" clip-path="url(#b)"/><circle cx="13.24" cy="17.66" r=".61" fill="#EC008C" clip-path="url(#b)"/><circle cx="17.8" cy="16.57" r=".61" fill="#EC008C" clip-path="url(#b)"/><circle cx="15.3" cy="16.57" r=".61" fill="#EC008C" clip-path="url(#b)"/><circle cx="18.62" cy="19.84" r=".61" fill="#EC008C" clip-path="url(#b)"/><circle cx="14.55" cy="19.85" r=".61" fill="#EC008C" clip-path="url(#b)"/><circle cx="23.21" cy="14.57" r=".61" fill="#EC008C" clip-path="url(#b)"/><circle cx="23.21" cy="18.47" r=".61" fill="#EC008C" clip-path="url(#b)"/><circle cx="26.49" cy="15.38" r=".61" fill="#EC008C" clip-path="url(#b)"/><circle cx="26.49" cy="17.66" r=".61" fill="#EC008C" clip-path="url(#b)"/><circle cx="19.87" cy="17.66" r=".61" fill="#EC008C" clip-path="url(#b)"/><circle cx="24.42" cy="16.57" r=".61" fill="#EC008C" clip-path="url(#b)"/><circle cx="21.92" cy="16.57" r=".61" fill="#EC008C" clip-path="url(#b)"/><circle cx="25.24" cy="19.84" r=".61" fill="#EC008C" clip-path="url(#b)"/><circle cx="21.18" cy="19.85" r=".61" fill="#EC008C" clip-path="url(#b)"/><circle cx="29.83" cy="14.57" r=".61" fill="#EC008C" clip-path="url(#b)"/><circle cx="29.83" cy="18.47" r=".61" fill="#EC008C" clip-path="url(#b)"/><circle cx="33.12" cy="15.38" r=".61" fill="#EC008C" clip-path="url(#b)"/><circle cx="33.12" cy="17.66" r=".61" fill="#EC008C" clip-path="url(#b)"/><circle cx="26.49" cy="17.66" r=".61" fill="#EC008C" clip-path="url(#b)"/><circle cx="31.05" cy="16.57" r=".61" fill="#EC008C" clip-path="url(#b)"/><circle cx="28.55" cy="16.57" r=".61" fill="#EC008C" clip-path="url(#b)"/><circle cx="31.87" cy="19.84" r=".61" fill="#EC008C" clip-path="url(#b)"/><circle cx="27.8" cy="19.85" r=".61" fill="#EC008C" clip-path="url(#b)"/><circle cx="36.46" cy="14.57" r=".61" fill="#EC008C" clip-path="url(#b)"/><circle cx="36.46" cy="18.47" r=".61" fill="#EC008C" clip-path="url(#b)"/><path fill="#EC008C" d="M39.73 14.77c-.33 0-.6.28-.6.6s.27.62.6.62m0 1.06c-.33 0-.6.27-.6.6s.27.6.6.6" clip-path="url(#b)"/><circle cx="33.12" cy="17.66" r=".61" fill="#EC008C" clip-path="url(#b)"/><circle cx="37.67" cy="16.57" r=".61" fill="#EC008C" clip-path="url(#b)"/><circle cx="35.17" cy="16.57" r=".61" fill="#EC008C" clip-path="url(#b)"/><circle cx="38.49" cy="19.84" r=".61" fill="#EC008C" clip-path="url(#b)"/><circle cx="34.43" cy="19.85" r=".61" fill="#EC008C" clip-path="url(#b)"/><circle cx="3.33" cy="21.19" r=".61" fill="#EC008C" clip-path="url(#b)"/><circle cx="3.33" cy="25.1" r=".61" fill="#EC008C" clip-path="url(#b)"/><path fill="#EC008C" d="M.03 22.6c.33 0 .6-.26.6-.6s-.27-.6-.6-.6" clip-path="url(#b)"/><circle cx="6.62" cy="22.01" r=".61" fill="#EC008C" clip-path="url(#b)"/><circle cx="6.62" cy="24.28" r=".61" fill="#EC008C" clip-path="url(#b)"/><path fill="#EC008C" d="M.02 24.9c.34 0 .6-.28.6-.62s-.26-.6-.6-.6" clip-path="url(#b)"/><circle cx="4.55" cy="23.19" r=".61" fill="#EC008C" clip-path="url(#b)"/><circle cx="2.05" cy="23.19" r=".61" fill="#EC008C" clip-path="url(#b)"/><circle cx="5.37" cy="26.47" r=".61" fill="#EC008C" clip-path="url(#b)"/><circle cx="1.3" cy="26.47" r=".61" fill="#EC008C" clip-path="url(#b)"/><circle cx="9.96" cy="21.19" r=".61" fill="#EC008C" clip-path="url(#b)"/><circle cx="9.96" cy="25.1" r=".61" fill="#EC008C" clip-path="url(#b)"/><circle cx="13.24" cy="22.01" r=".61" fill="#EC008C" clip-path="url(#b)"/><circle cx="13.24" cy="24.28" r=".61" fill="#EC008C" clip-path="url(#b)"/><circle cx="6.62" cy="24.28" r=".61" fill="#EC008C" clip-path="url(#b)"/><circle cx="11.17" cy="23.19" r=".61" fill="#EC008C" clip-path="url(#b)"/><circle cx="8.67" cy="23.19" r=".61" fill="#EC008C" clip-path="url(#b)"/><circle cx="11.99" cy="26.47" r=".61" fill="#EC008C" clip-path="url(#b)"/><circle cx="7.93" cy="26.47" r=".61" fill="#EC008C" clip-path="url(#b)"/><circle cx="16.58" cy="21.19" r=".61" fill="#EC008C" clip-path="url(#b)"/><circle cx="16.58" cy="25.1" r=".61" fill="#EC008C" clip-path="url(#b)"/><circle cx="19.87" cy="22.01" r=".61" fill="#EC008C" clip-path="url(#b)"/><circle cx="19.87" cy="24.28" r=".61" fill="#EC008C" clip-path="url(#b)"/><circle cx="13.24" cy="24.28" r=".61" fill="#EC008C" clip-path="url(#b)"/><circle cx="17.8" cy="23.19" r=".61" fill="#EC008C" clip-path="url(#b)"/><circle cx="15.3" cy="23.19" r=".61" fill="#EC008C" clip-path="url(#b)"/><circle cx="18.62" cy="26.47" r=".61" fill="#EC008C" clip-path="url(#b)"/><circle cx="14.55" cy="26.47" r=".61" fill="#EC008C" clip-path="url(#b)"/><circle cx="23.21" cy="21.19" r=".61" fill="#EC008C" clip-path="url(#b)"/><circle cx="23.21" cy="25.1" r=".61" fill="#EC008C" clip-path="url(#b)"/><circle cx="26.49" cy="22.01" r=".61" fill="#EC008C" clip-path="url(#b)"/><circle cx="26.49" cy="24.28" r=".61" fill="#EC008C" clip-path="url(#b)"/><circle cx="19.87" cy="24.28" r=".61" fill="#EC008C" clip-path="url(#b)"/><circle cx="24.42" cy="23.19" r=".61" fill="#EC008C" clip-path="url(#b)"/><circle cx="21.92" cy="23.19" r=".61" fill="#EC008C" clip-path="url(#b)"/><circle cx="25.24" cy="26.47" r=".61" fill="#EC008C" clip-path="url(#b)"/><circle cx="21.18" cy="26.47" r=".61" fill="#EC008C" clip-path="url(#b)"/><circle cx="29.83" cy="21.19" r=".61" fill="#EC008C" clip-path="url(#b)"/><circle cx="29.83" cy="25.1" r=".61" fill="#EC008C" clip-path="url(#b)"/><circle cx="33.12" cy="22.01" r=".61" fill="#EC008C" clip-path="url(#b)"/><circle cx="33.12" cy="24.28" r=".61" fill="#EC008C" clip-path="url(#b)"/><circle cx="26.49" cy="24.28" r=".61" fill="#EC008C" clip-path="url(#b)"/><circle cx="31.05" cy="23.19" r=".61" fill="#EC008C" clip-path="url(#b)"/><circle cx="28.55" cy="23.19" r=".61" fill="#EC008C" clip-path="url(#b)"/><circle cx="31.87" cy="26.47" r=".61" fill="#EC008C" clip-path="url(#b)"/><circle cx="27.8" cy="26.47" r=".61" fill="#EC008C" clip-path="url(#b)"/><circle cx="36.46" cy="21.19" r=".61" fill="#EC008C" clip-path="url(#b)"/><circle cx="36.46" cy="25.1" r=".61" fill="#EC008C" clip-path="url(#b)"/><path fill="#EC008C" d="M39.73 21.4c-.33 0-.6.27-.6.6s.27.6.6.6m0 1.08c-.33 0-.6.27-.6.6s.27.6.6.6" clip-path="url(#b)"/><circle cx="33.12" cy="24.28" r=".61" fill="#EC008C" clip-path="url(#b)"/><circle cx="37.67" cy="23.19" r=".61" fill="#EC008C" clip-path="url(#b)"/><circle cx="35.17" cy="23.19" r=".61" fill="#EC008C" clip-path="url(#b)"/><circle cx="38.49" cy="26.47" r=".61" fill="#EC008C" clip-path="url(#b)"/><circle cx="34.43" cy="26.47" r=".61" fill="#EC008C" clip-path="url(#b)"/><circle cx="3.33" cy="27.82" r=".61" fill="#EC008C" clip-path="url(#b)"/><circle cx="3.33" cy="31.72" r=".61" fill="#EC008C" clip-path="url(#b)"/><path fill="#EC008C" d="M0 29.24c.35 0 .62-.27.62-.6S.35 28 .02 28" clip-path="url(#b)"/><circle cx="6.62" cy="28.63" r=".61" fill="#EC008C" clip-path="url(#b)"/><circle cx="6.62" cy="30.91" r=".61" fill="#EC008C" clip-path="url(#b)"/><path fill="#EC008C" d="M.02 31.52c.33 0 .6-.28.6-.6s-.27-.62-.6-.62" clip-path="url(#b)"/><circle cx="4.55" cy="29.82" r=".61" fill="#EC008C" clip-path="url(#b)"/><circle cx="2.05" cy="29.82" r=".61" fill="#EC008C" clip-path="url(#b)"/><circle cx="5.37" cy="33.09" r=".61" fill="#EC008C" clip-path="url(#b)"/><circle cx="9.96" cy="27.82" r=".61" fill="#EC008C" clip-path="url(#b)"/><circle cx="9.96" cy="31.72" r=".61" fill="#EC008C" clip-path="url(#b)"/><circle cx="13.24" cy="28.63" r=".61" fill="#EC008C" clip-path="url(#b)"/><circle cx="13.24" cy="30.91" r=".61" fill="#EC008C" clip-path="url(#b)"/><circle cx="6.62" cy="30.91" r=".61" fill="#EC008C" clip-path="url(#b)"/><circle cx="11.17" cy="29.82" r=".61" fill="#EC008C" clip-path="url(#b)"/><circle cx="8.67" cy="29.82" r=".61" fill="#EC008C" clip-path="url(#b)"/><circle cx="11.99" cy="33.09" r=".61" fill="#EC008C" clip-path="url(#b)"/><circle cx="7.93" cy="33.1" r=".61" fill="#EC008C" clip-path="url(#b)"/><circle cx="16.58" cy="27.82" r=".61" fill="#EC008C" clip-path="url(#b)"/><circle cx="16.58" cy="31.72" r=".61" fill="#EC008C" clip-path="url(#b)"/><circle cx="19.87" cy="28.63" r=".61" fill="#EC008C" clip-path="url(#b)"/><circle cx="19.87" cy="30.91" r=".61" fill="#EC008C" clip-path="url(#b)"/><circle cx="13.24" cy="30.91" r=".61" fill="#EC008C" clip-path="url(#b)"/><circle cx="17.8" cy="29.82" r=".61" fill="#EC008C" clip-path="url(#b)"/><circle cx="15.3" cy="29.82" r=".61" fill="#EC008C" clip-path="url(#b)"/><circle cx="18.62" cy="33.09" r=".61" fill="#EC008C" clip-path="url(#b)"/><circle cx="23.21" cy="27.82" r=".61" fill="#EC008C" clip-path="url(#b)"/><circle cx="23.21" cy="31.72" r=".61" fill="#EC008C" clip-path="url(#b)"/><circle cx="26.49" cy="28.63" r=".61" fill="#EC008C" clip-path="url(#b)"/><circle cx="26.49" cy="30.91" r=".61" fill="#EC008C" clip-path="url(#b)"/><circle cx="19.87" cy="30.91" r=".61" fill="#EC008C" clip-path="url(#b)"/><circle cx="24.42" cy="29.82" r=".61" fill="#EC008C" clip-path="url(#b)"/><circle cx="21.92" cy="29.82" r=".61" fill="#EC008C" clip-path="url(#b)"/><circle cx="25.24" cy="33.09" r=".61" fill="#EC008C" clip-path="url(#b)"/><circle cx="21.18" cy="33.1" r=".61" fill="#EC008C" clip-path="url(#b)"/><circle cx="29.83" cy="27.82" r=".61" fill="#EC008C" clip-path="url(#b)"/><circle cx="29.83" cy="31.72" r=".61" fill="#EC008C" clip-path="url(#b)"/><circle cx="33.12" cy="28.63" r=".61" fill="#EC008C" clip-path="url(#b)"/><circle cx="33.12" cy="30.91" r=".61" fill="#EC008C" clip-path="url(#b)"/><circle cx="26.49" cy="30.91" r=".61" fill="#EC008C" clip-path="url(#b)"/><circle cx="31.05" cy="29.82" r=".61" fill="#EC008C" clip-path="url(#b)"/><circle cx="28.55" cy="29.82" r=".61" fill="#EC008C" clip-path="url(#b)"/><circle cx="31.87" cy="33.09" r=".61" fill="#EC008C" clip-path="url(#b)"/><circle cx="27.8" cy="33.1" r=".61" fill="#EC008C" clip-path="url(#b)"/><circle cx="36.46" cy="27.82" r=".61" fill="#EC008C" clip-path="url(#b)"/><circle cx="36.46" cy="31.72" r=".61" fill="#EC008C" clip-path="url(#b)"/><path fill="#EC008C" d="M39.73 28.02c-.33 0-.6.28-.6.6s.27.62.6.62m0 1.06c-.34 0-.6.27-.6.6s.26.6.6.6" clip-path="url(#b)"/><circle cx="33.12" cy="30.91" r=".61" fill="#EC008C" clip-path="url(#b)"/><circle cx="37.67" cy="29.82" r=".61" fill="#EC008C" clip-path="url(#b)"/><circle cx="35.17" cy="29.82" r=".61" fill="#EC008C" clip-path="url(#b)"/><circle cx="38.49" cy="33.09" r=".61" fill="#EC008C" clip-path="url(#b)"/><circle cx="34.43" cy="33.1" r=".61" fill="#EC008C" clip-path="url(#b)"/><circle cx="3.33" cy="34.44" r=".61" fill="#EC008C" clip-path="url(#b)"/><circle cx="3.33" cy="38.35" r=".61" fill="#EC008C" clip-path="url(#b)"/><path fill="#EC008C" d="M0 35.86c.35 0 .62-.27.62-.6s-.27-.6-.6-.6" clip-path="url(#b)"/><circle cx="6.62" cy="35.26" r=".61" fill="#EC008C" clip-path="url(#b)"/><circle cx="6.62" cy="37.53" r=".61" fill="#EC008C" clip-path="url(#b)"/><path fill="#EC008C" d="M0 38.14c.34 0 .6-.27.6-.6s-.26-.6-.6-.6" clip-path="url(#b)"/><circle cx="4.55" cy="36.44" r=".61" fill="#EC008C" clip-path="url(#b)"/><circle cx="2.05" cy="36.44" r=".61" fill="#EC008C" clip-path="url(#b)"/><path fill="#EC008C" d="M5.97 39.73c0-.34-.27-.6-.6-.6s-.6.26-.6.6" clip-path="url(#b)"/><circle cx="1.3" cy="33.16" r=".61" fill="#EC008C" clip-path="url(#b)"/><path fill="#EC008C" d="M1.9 39.73c0-.34-.26-.6-.6-.6s-.6.26-.6.6" clip-path="url(#b)"/><circle cx="9.96" cy="34.44" r=".61" fill="#EC008C" clip-path="url(#b)"/><circle cx="9.96" cy="38.35" r=".61" fill="#EC008C" clip-path="url(#b)"/><circle cx="13.24" cy="35.26" r=".61" fill="#EC008C" clip-path="url(#b)"/><circle cx="13.24" cy="37.53" r=".61" fill="#EC008C" clip-path="url(#b)"/><circle cx="6.62" cy="37.53" r=".61" fill="#EC008C" clip-path="url(#b)"/><circle cx="11.17" cy="36.44" r=".61" fill="#EC008C" clip-path="url(#b)"/><circle cx="8.67" cy="36.44" r=".61" fill="#EC008C" clip-path="url(#b)"/><path fill="#EC008C" d="M12.6 39.73c0-.34-.27-.6-.6-.6s-.6.26-.6.6m-2.86 0c0-.34-.27-.6-.6-.6s-.62.26-.62.6" clip-path="url(#b)"/><circle cx="16.58" cy="34.44" r=".61" fill="#EC008C" clip-path="url(#b)"/><circle cx="16.58" cy="38.35" r=".61" fill="#EC008C" clip-path="url(#b)"/><circle cx="19.87" cy="35.26" r=".61" fill="#EC008C" clip-path="url(#b)"/><circle cx="19.87" cy="37.53" r=".61" fill="#EC008C" clip-path="url(#b)"/><circle cx="13.24" cy="37.53" r=".61" fill="#EC008C" clip-path="url(#b)"/><circle cx="17.8" cy="36.44" r=".61" fill="#EC008C" clip-path="url(#b)"/><circle cx="15.3" cy="36.44" r=".61" fill="#EC008C" clip-path="url(#b)"/><path fill="#EC008C" d="M19.22 39.73c0-.34-.27-.6-.6-.6s-.6.26-.6.6" clip-path="url(#b)"/><circle cx="14.55" cy="33.16" r=".61" fill="#EC008C" clip-path="url(#b)"/><path fill="#EC008C" d="M15.16 39.73c0-.34-.27-.6-.6-.6s-.6.26-.6.6" clip-path="url(#b)"/><circle cx="23.21" cy="34.44" r=".61" fill="#EC008C" clip-path="url(#b)"/><circle cx="23.21" cy="38.35" r=".61" fill="#EC008C" clip-path="url(#b)"/><circle cx="26.49" cy="35.26" r=".61" fill="#EC008C" clip-path="url(#b)"/><circle cx="26.49" cy="37.53" r=".61" fill="#EC008C" clip-path="url(#b)"/><circle cx="19.87" cy="37.53" r=".61" fill="#EC008C" clip-path="url(#b)"/><circle cx="24.42" cy="36.44" r=".61" fill="#EC008C" clip-path="url(#b)"/><circle cx="21.92" cy="36.44" r=".61" fill="#EC008C" clip-path="url(#b)"/><path fill="#EC008C" d="M25.85 39.73c0-.34-.27-.6-.6-.6s-.6.26-.6.6m-2.85 0c0-.34-.28-.6-.62-.6s-.6.26-.6.6" clip-path="url(#b)"/><circle cx="29.83" cy="34.44" r=".61" fill="#EC008C" clip-path="url(#b)"/><circle cx="29.83" cy="38.35" r=".61" fill="#EC008C" clip-path="url(#b)"/><circle cx="33.12" cy="35.26" r=".61" fill="#EC008C" clip-path="url(#b)"/><circle cx="33.12" cy="37.53" r=".61" fill="#EC008C" clip-path="url(#b)"/><circle cx="26.49" cy="37.53" r=".61" fill="#EC008C" clip-path="url(#b)"/><circle cx="31.05" cy="36.44" r=".61" fill="#EC008C" clip-path="url(#b)"/><circle cx="28.55" cy="36.44" r=".61" fill="#EC008C" clip-path="url(#b)"/><path fill="#EC008C" d="M32.47 39.73c0-.34-.27-.6-.6-.6s-.6.26-.6.6m-2.87 0c0-.34-.26-.6-.6-.6s-.6.26-.6.6" clip-path="url(#b)"/><circle cx="36.46" cy="34.44" r=".61" fill="#EC008C" clip-path="url(#b)"/><circle cx="36.46" cy="38.35" r=".61" fill="#EC008C" clip-path="url(#b)"/><path fill="#EC008C" d="M39.73 34.65c-.34 0-.6.27-.6.6s.26.6.6.6m0 1.07c-.34 0-.6.28-.6.6s.26.62.6.62" clip-path="url(#b)"/><circle cx="33.12" cy="37.53" r=".61" fill="#EC008C" clip-path="url(#b)"/><circle cx="37.67" cy="36.44" r=".61" fill="#EC008C" clip-path="url(#b)"/><circle cx="35.17" cy="36.44" r=".61" fill="#EC008C" clip-path="url(#b)"/><path fill="#EC008C" d="M39.1 39.73c0-.34-.27-.6-.6-.6s-.62.26-.62.6m-2.84 0c0-.34-.27-.6-.6-.6s-.62.26-.62.6" clip-path="url(#b)"/></svg>