<svg xmlns="http://www.w3.org/2000/svg" xmlns:xlink="http://www.w3.org/1999/xlink" width="39.74" height="39.74"><defs><path id="a" d="M0 0h39.74v39.74H0z"/></defs><clipPath id="b"><use xlink:href="#a" overflow="visible"/></clipPath><circle cx="3.33" cy="1.32" r=".56" clip-path="url(#b)"/><circle cx="3.33" cy="5.22" r=".56" clip-path="url(#b)"/><path d="M.02 2.7c.3 0 .56-.26.56-.57s-.25-.56-.56-.56" clip-path="url(#b)"/><circle cx="6.62" cy="2.13" r=".56" clip-path="url(#b)"/><circle cx="6.62" cy="4.41" r=".56" clip-path="url(#b)"/><path d="M0 4.96c.3 0 .55-.25.55-.55S.3 3.86 0 3.86" clip-path="url(#b)"/><circle cx="4.55" cy="3.32" r=".56" clip-path="url(#b)"/><circle cx="2.05" cy="3.32" r=".56" clip-path="url(#b)"/><path d="M4.8 0c0 .3.26.56.57.56.3 0 .55-.25.55-.56" clip-path="url(#b)"/><circle cx="5.37" cy="6.59" r=".56" clip-path="url(#b)"/><path d="M.75 0c0 .3.25.56.56.56.3 0 .56-.25.56-.56" clip-path="url(#b)"/><circle cx="1.3" cy="6.6" r=".56" clip-path="url(#b)"/><circle cx="9.96" cy="1.32" r=".56" clip-path="url(#b)"/><circle cx="9.96" cy="5.22" r=".56" clip-path="url(#b)"/><circle cx="13.24" cy="2.13" r=".56" clip-path="url(#b)"/><circle cx="13.24" cy="4.41" r=".56" clip-path="url(#b)"/><circle cx="6.62" cy="4.41" r=".56" clip-path="url(#b)"/><circle cx="11.17" cy="3.32" r=".56" clip-path="url(#b)"/><circle cx="8.67" cy="3.32" r=".56" clip-path="url(#b)"/><path d="M11.44 0c0 .3.25.56.55.56.3 0 .55-.25.55-.56" clip-path="url(#b)"/><circle cx="11.99" cy="6.59" r=".56" clip-path="url(#b)"/><path d="M7.37 0c0 .3.25.56.56.56.3 0 .56-.25.56-.56" clip-path="url(#b)"/><circle cx="7.93" cy="6.6" r=".56" clip-path="url(#b)"/><circle cx="16.58" cy="1.32" r=".56" clip-path="url(#b)"/><circle cx="16.58" cy="5.22" r=".56" clip-path="url(#b)"/><circle cx="19.87" cy="2.13" r=".56" clip-path="url(#b)"/><circle cx="19.87" cy="4.41" r=".56" clip-path="url(#b)"/><circle cx="13.24" cy="4.41" r=".56" clip-path="url(#b)"/><circle cx="17.8" cy="3.32" r=".56" clip-path="url(#b)"/><circle cx="15.3" cy="3.32" r=".56" clip-path="url(#b)"/><path d="M18.06 0c0 .3.25.56.56.56.3 0 .55-.25.55-.56" clip-path="url(#b)"/><circle cx="18.62" cy="6.59" r=".56" clip-path="url(#b)"/><path d="M14 0c0 .3.25.56.55.56.3 0 .56-.25.56-.56" clip-path="url(#b)"/><circle cx="14.55" cy="6.6" r=".56" clip-path="url(#b)"/><circle cx="23.21" cy="1.32" r=".56" clip-path="url(#b)"/><circle cx="23.21" cy="5.22" r=".56" clip-path="url(#b)"/><circle cx="26.49" cy="2.13" r=".56" clip-path="url(#b)"/><circle cx="26.49" cy="4.41" r=".56" clip-path="url(#b)"/><circle cx="19.87" cy="4.41" r=".56" clip-path="url(#b)"/><circle cx="24.42" cy="3.32" r=".56" clip-path="url(#b)"/><circle cx="21.92" cy="3.32" r=".56" clip-path="url(#b)"/><path d="M24.68 0c0 .3.25.56.56.56.3 0 .56-.25.56-.56" clip-path="url(#b)"/><circle cx="25.24" cy="6.59" r=".56" clip-path="url(#b)"/><path d="M20.62 0c0 .3.25.56.56.56.3 0 .56-.25.56-.56" clip-path="url(#b)"/><circle cx="21.18" cy="6.6" r=".56" clip-path="url(#b)"/><circle cx="29.83" cy="1.32" r=".56" clip-path="url(#b)"/><circle cx="29.83" cy="5.22" r=".56" clip-path="url(#b)"/><circle cx="33.12" cy="2.13" r=".56" clip-path="url(#b)"/><circle cx="33.12" cy="4.41" r=".56" clip-path="url(#b)"/><circle cx="26.49" cy="4.41" r=".56" clip-path="url(#b)"/><circle cx="31.05" cy="3.32" r=".56" clip-path="url(#b)"/><circle cx="28.55" cy="3.32" r=".56" clip-path="url(#b)"/><path d="M31.3 0c0 .3.26.56.57.56.3 0 .55-.25.55-.56" clip-path="url(#b)"/><circle cx="31.87" cy="6.59" r=".56" clip-path="url(#b)"/><path d="M27.25 0c0 .3.25.56.55.56.3 0 .56-.25.56-.56" clip-path="url(#b)"/><circle cx="27.8" cy="6.6" r=".56" clip-path="url(#b)"/><circle cx="36.46" cy="1.32" r=".56" clip-path="url(#b)"/><circle cx="36.46" cy="5.22" r=".56" clip-path="url(#b)"/><path d="M39.74 1.57a.56.56 0 1 0 0 1.12m0 1.16a.57.57 0 0 0 0 1.13" clip-path="url(#b)"/><circle cx="33.12" cy="4.41" r=".56" clip-path="url(#b)"/><circle cx="37.67" cy="3.32" r=".56" clip-path="url(#b)"/><circle cx="35.17" cy="3.32" r=".56" clip-path="url(#b)"/><path d="M37.94 0c0 .3.25.56.55.56.3 0 .55-.25.55-.56" clip-path="url(#b)"/><circle cx="38.49" cy="6.59" r=".56" clip-path="url(#b)"/><path d="M33.87 0c0 .3.25.56.56.56.3 0 .56-.25.56-.56" clip-path="url(#b)"/><circle cx="34.43" cy="6.6" r=".56" clip-path="url(#b)"/><circle cx="3.33" cy="7.94" r=".56" clip-path="url(#b)"/><circle cx="3.33" cy="11.85" r=".56" clip-path="url(#b)"/><path d="M.02 9.3c.3 0 .56-.24.56-.54S.33 8.2.02 8.2" clip-path="url(#b)"/><circle cx="6.62" cy="8.76" r=".56" clip-path="url(#b)"/><circle cx="6.62" cy="11.03" r=".56" clip-path="url(#b)"/><path d="M0 11.6c.3 0 .55-.26.55-.57s-.25-.55-.56-.55" clip-path="url(#b)"/><circle cx="4.55" cy="9.94" r=".56" clip-path="url(#b)"/><circle cx="2.05" cy="9.94" r=".56" clip-path="url(#b)"/><circle cx="5.37" cy="13.22" r=".56" clip-path="url(#b)"/><circle cx="1.3" cy="13.22" r=".56" clip-path="url(#b)"/><circle cx="9.96" cy="7.94" r=".56" clip-path="url(#b)"/><circle cx="9.96" cy="11.85" r=".56" clip-path="url(#b)"/><circle cx="13.24" cy="8.76" r=".56" clip-path="url(#b)"/><circle cx="13.24" cy="11.03" r=".56" clip-path="url(#b)"/><circle cx="6.62" cy="11.03" r=".56" clip-path="url(#b)"/><circle cx="11.17" cy="9.94" r=".56" clip-path="url(#b)"/><circle cx="8.67" cy="9.94" r=".56" clip-path="url(#b)"/><circle cx="11.99" cy="13.22" r=".56" clip-path="url(#b)"/><circle cx="7.93" cy="13.22" r=".56" clip-path="url(#b)"/><circle cx="16.58" cy="7.94" r=".56" clip-path="url(#b)"/><circle cx="16.58" cy="11.85" r=".56" clip-path="url(#b)"/><circle cx="19.87" cy="8.76" r=".56" clip-path="url(#b)"/><circle cx="19.87" cy="11.03" r=".56" clip-path="url(#b)"/><circle cx="13.24" cy="11.03" r=".56" clip-path="url(#b)"/><circle cx="17.8" cy="9.94" r=".56" clip-path="url(#b)"/><circle cx="15.3" cy="9.94" r=".56" clip-path="url(#b)"/><circle cx="18.62" cy="13.22" r=".56" clip-path="url(#b)"/><circle cx="14.55" cy="13.22" r=".56" clip-path="url(#b)"/><circle cx="23.21" cy="7.94" r=".56" clip-path="url(#b)"/><circle cx="23.21" cy="11.85" r=".56" clip-path="url(#b)"/><circle cx="26.49" cy="8.76" r=".56" clip-path="url(#b)"/><circle cx="26.49" cy="11.03" r=".56" clip-path="url(#b)"/><circle cx="19.87" cy="11.03" r=".56" clip-path="url(#b)"/><circle cx="24.42" cy="9.94" r=".56" clip-path="url(#b)"/><circle cx="21.92" cy="9.94" r=".56" clip-path="url(#b)"/><circle cx="25.24" cy="13.22" r=".56" clip-path="url(#b)"/><circle cx="21.18" cy="13.22" r=".56" clip-path="url(#b)"/><circle cx="29.83" cy="7.94" r=".56" clip-path="url(#b)"/><circle cx="29.83" cy="11.85" r=".56" clip-path="url(#b)"/><circle cx="33.12" cy="8.76" r=".56" clip-path="url(#b)"/><circle cx="33.12" cy="11.03" r=".56" clip-path="url(#b)"/><circle cx="26.49" cy="11.03" r=".56" clip-path="url(#b)"/><circle cx="31.05" cy="9.94" r=".56" clip-path="url(#b)"/><circle cx="28.55" cy="9.94" r=".56" clip-path="url(#b)"/><circle cx="31.87" cy="13.22" r=".56" clip-path="url(#b)"/><circle cx="27.8" cy="13.22" r=".56" clip-path="url(#b)"/><circle cx="36.46" cy="7.94" r=".56" clip-path="url(#b)"/><circle cx="36.46" cy="11.85" r=".56" clip-path="url(#b)"/><path d="M39.74 8.2c-.3 0-.56.25-.56.56s.25.55.56.55m0 1.17c-.3 0-.56.25-.56.55s.25.56.56.56" clip-path="url(#b)"/><circle cx="33.12" cy="11.03" r=".56" clip-path="url(#b)"/><circle cx="37.67" cy="9.94" r=".56" clip-path="url(#b)"/><circle cx="35.17" cy="9.94" r=".56" clip-path="url(#b)"/><circle cx="38.49" cy="13.22" r=".56" clip-path="url(#b)"/><circle cx="34.43" cy="13.22" r=".56" clip-path="url(#b)"/><circle cx="3.33" cy="14.57" r=".56" clip-path="url(#b)"/><circle cx="3.33" cy="18.47" r=".56" clip-path="url(#b)"/><path d="M.02 15.94a.56.56 0 1 0 0-1.12" clip-path="url(#b)"/><circle cx="6.62" cy="15.38" r=".56" clip-path="url(#b)"/><circle cx="6.62" cy="17.66" r=".56" clip-path="url(#b)"/><path d="M0 18.2c.3 0 .55-.24.55-.54S.3 17.1 0 17.1" clip-path="url(#b)"/><circle cx="4.55" cy="16.57" r=".56" clip-path="url(#b)"/><circle cx="2.05" cy="16.57" r=".56" clip-path="url(#b)"/><circle cx="5.37" cy="19.84" r=".56" clip-path="url(#b)"/><circle cx="1.3" cy="19.85" r=".56" clip-path="url(#b)"/><circle cx="9.96" cy="14.57" r=".56" clip-path="url(#b)"/><circle cx="9.96" cy="18.47" r=".56" clip-path="url(#b)"/><circle cx="13.24" cy="15.38" r=".56" clip-path="url(#b)"/><circle cx="13.24" cy="17.66" r=".56" clip-path="url(#b)"/><circle cx="6.62" cy="17.66" r=".56" clip-path="url(#b)"/><circle cx="11.17" cy="16.57" r=".56" clip-path="url(#b)"/><circle cx="8.67" cy="16.57" r=".56" clip-path="url(#b)"/><circle cx="11.99" cy="19.84" r=".56" clip-path="url(#b)"/><circle cx="7.93" cy="19.85" r=".56" clip-path="url(#b)"/><circle cx="16.58" cy="14.57" r=".56" clip-path="url(#b)"/><circle cx="16.58" cy="18.47" r=".56" clip-path="url(#b)"/><circle cx="19.87" cy="15.38" r=".56" clip-path="url(#b)"/><circle cx="19.87" cy="17.66" r=".56" clip-path="url(#b)"/><circle cx="13.24" cy="17.66" r=".56" clip-path="url(#b)"/><circle cx="17.8" cy="16.57" r=".56" clip-path="url(#b)"/><circle cx="15.3" cy="16.57" r=".56" clip-path="url(#b)"/><circle cx="18.62" cy="19.84" r=".56" clip-path="url(#b)"/><circle cx="14.55" cy="19.85" r=".56" clip-path="url(#b)"/><circle cx="23.21" cy="14.57" r=".56" clip-path="url(#b)"/><circle cx="23.21" cy="18.47" r=".56" clip-path="url(#b)"/><circle cx="26.49" cy="15.38" r=".56" clip-path="url(#b)"/><circle cx="26.49" cy="17.66" r=".56" clip-path="url(#b)"/><circle cx="19.87" cy="17.66" r=".56" clip-path="url(#b)"/><circle cx="24.42" cy="16.57" r=".56" clip-path="url(#b)"/><circle cx="21.92" cy="16.57" r=".56" clip-path="url(#b)"/><circle cx="25.24" cy="19.84" r=".56" clip-path="url(#b)"/><circle cx="21.18" cy="19.85" r=".56" clip-path="url(#b)"/><circle cx="29.83" cy="14.57" r=".56" clip-path="url(#b)"/><circle cx="29.83" cy="18.47" r=".56" clip-path="url(#b)"/><circle cx="33.12" cy="15.38" r=".56" clip-path="url(#b)"/><circle cx="33.12" cy="17.66" r=".56" clip-path="url(#b)"/><circle cx="26.49" cy="17.66" r=".56" clip-path="url(#b)"/><circle cx="31.05" cy="16.57" r=".56" clip-path="url(#b)"/><circle cx="28.55" cy="16.57" r=".56" clip-path="url(#b)"/><circle cx="31.87" cy="19.84" r=".56" clip-path="url(#b)"/><circle cx="27.8" cy="19.85" r=".56" clip-path="url(#b)"/><circle cx="36.46" cy="14.57" r=".56" clip-path="url(#b)"/><circle cx="36.46" cy="18.47" r=".56" clip-path="url(#b)"/><path d="M39.74 14.82a.56.56 0 1 0 0 1.12m0 1.16c-.3 0-.56.25-.56.56s.25.55.56.55" clip-path="url(#b)"/><circle cx="33.12" cy="17.66" r=".56" clip-path="url(#b)"/><circle cx="37.67" cy="16.57" r=".56" clip-path="url(#b)"/><circle cx="35.17" cy="16.57" r=".56" clip-path="url(#b)"/><circle cx="38.49" cy="19.84" r=".56" clip-path="url(#b)"/><circle cx="34.43" cy="19.85" r=".56" clip-path="url(#b)"/><circle cx="3.33" cy="21.19" r=".56" clip-path="url(#b)"/><circle cx="3.33" cy="25.1" r=".56" clip-path="url(#b)"/><path d="M.02 22.56c.3 0 .56-.25.56-.55s-.25-.55-.56-.55" clip-path="url(#b)"/><circle cx="6.62" cy="22.01" r=".56" clip-path="url(#b)"/><circle cx="6.62" cy="24.28" r=".56" clip-path="url(#b)"/><path d="M.02 24.84a.56.56 0 1 0 0-1.12" clip-path="url(#b)"/><circle cx="4.55" cy="23.19" r=".56" clip-path="url(#b)"/><circle cx="2.05" cy="23.19" r=".56" clip-path="url(#b)"/><circle cx="5.37" cy="26.47" r=".56" clip-path="url(#b)"/><circle cx="1.3" cy="26.47" r=".56" clip-path="url(#b)"/><circle cx="9.96" cy="21.19" r=".56" clip-path="url(#b)"/><circle cx="9.96" cy="25.1" r=".56" clip-path="url(#b)"/><circle cx="13.24" cy="22.01" r=".56" clip-path="url(#b)"/><circle cx="13.24" cy="24.28" r=".56" clip-path="url(#b)"/><circle cx="6.62" cy="24.28" r=".56" clip-path="url(#b)"/><circle cx="11.17" cy="23.19" r=".56" clip-path="url(#b)"/><circle cx="8.67" cy="23.19" r=".56" clip-path="url(#b)"/><circle cx="11.99" cy="26.47" r=".56" clip-path="url(#b)"/><circle cx="7.93" cy="26.47" r=".56" clip-path="url(#b)"/><circle cx="16.58" cy="21.19" r=".56" clip-path="url(#b)"/><circle cx="16.58" cy="25.1" r=".56" clip-path="url(#b)"/><circle cx="19.87" cy="22.01" r=".56" clip-path="url(#b)"/><circle cx="19.87" cy="24.28" r=".56" clip-path="url(#b)"/><circle cx="13.24" cy="24.28" r=".56" clip-path="url(#b)"/><circle cx="17.8" cy="23.19" r=".56" clip-path="url(#b)"/><circle cx="15.3" cy="23.19" r=".56" clip-path="url(#b)"/><circle cx="18.62" cy="26.47" r=".56" clip-path="url(#b)"/><circle cx="14.55" cy="26.47" r=".56" clip-path="url(#b)"/><circle cx="23.21" cy="21.19" r=".56" clip-path="url(#b)"/><circle cx="23.21" cy="25.1" r=".56" clip-path="url(#b)"/><circle cx="26.49" cy="22.01" r=".56" clip-path="url(#b)"/><circle cx="26.49" cy="24.28" r=".56" clip-path="url(#b)"/><circle cx="19.87" cy="24.28" r=".56" clip-path="url(#b)"/><circle cx="24.42" cy="23.19" r=".56" clip-path="url(#b)"/><circle cx="21.92" cy="23.19" r=".56" clip-path="url(#b)"/><circle cx="25.24" cy="26.47" r=".56" clip-path="url(#b)"/><circle cx="21.18" cy="26.47" r=".56" clip-path="url(#b)"/><circle cx="29.83" cy="21.19" r=".56" clip-path="url(#b)"/><circle cx="29.83" cy="25.1" r=".56" clip-path="url(#b)"/><circle cx="33.12" cy="22.01" r=".56" clip-path="url(#b)"/><circle cx="33.12" cy="24.28" r=".56" clip-path="url(#b)"/><circle cx="26.49" cy="24.28" r=".56" clip-path="url(#b)"/><circle cx="31.05" cy="23.19" r=".56" clip-path="url(#b)"/><circle cx="28.55" cy="23.19" r=".56" clip-path="url(#b)"/><circle cx="31.87" cy="26.47" r=".56" clip-path="url(#b)"/><circle cx="27.8" cy="26.47" r=".56" clip-path="url(#b)"/><circle cx="36.46" cy="21.19" r=".56" clip-path="url(#b)"/><circle cx="36.46" cy="25.1" r=".56" clip-path="url(#b)"/><path d="M39.74 21.45a.56.56 0 1 0 0 1.12m0 1.16c-.3 0-.56.24-.56.55s.25.56.56.56" clip-path="url(#b)"/><circle cx="33.12" cy="24.28" r=".56" clip-path="url(#b)"/><circle cx="37.67" cy="23.19" r=".56" clip-path="url(#b)"/><circle cx="35.17" cy="23.19" r=".56" clip-path="url(#b)"/><circle cx="38.49" cy="26.47" r=".56" clip-path="url(#b)"/><circle cx="34.43" cy="26.47" r=".56" clip-path="url(#b)"/><circle cx="3.33" cy="27.82" r=".56" clip-path="url(#b)"/><circle cx="3.33" cy="31.72" r=".56" clip-path="url(#b)"/><path d="M.02 29.2c.3 0 .56-.26.56-.57s-.25-.56-.56-.56" clip-path="url(#b)"/><circle cx="6.62" cy="28.63" r=".56" clip-path="url(#b)"/><circle cx="6.62" cy="30.91" r=".56" clip-path="url(#b)"/><path d="M0 31.46c.3 0 .55-.25.55-.55s-.25-.55-.56-.55" clip-path="url(#b)"/><circle cx="4.55" cy="29.82" r=".56" clip-path="url(#b)"/><circle cx="2.05" cy="29.82" r=".56" clip-path="url(#b)"/><circle cx="5.37" cy="33.09" r=".56" clip-path="url(#b)"/><circle cx="9.96" cy="27.82" r=".56" clip-path="url(#b)"/><circle cx="9.96" cy="31.72" r=".56" clip-path="url(#b)"/><circle cx="13.24" cy="28.63" r=".56" clip-path="url(#b)"/><circle cx="13.24" cy="30.91" r=".56" clip-path="url(#b)"/><circle cx="6.62" cy="30.91" r=".56" clip-path="url(#b)"/><circle cx="11.17" cy="29.82" r=".56" clip-path="url(#b)"/><circle cx="8.67" cy="29.82" r=".56" clip-path="url(#b)"/><circle cx="11.99" cy="33.09" r=".56" clip-path="url(#b)"/><circle cx="7.93" cy="33.1" r=".56" clip-path="url(#b)"/><circle cx="16.58" cy="27.82" r=".56" clip-path="url(#b)"/><circle cx="16.58" cy="31.72" r=".56" clip-path="url(#b)"/><circle cx="19.87" cy="28.63" r=".56" clip-path="url(#b)"/><circle cx="19.87" cy="30.91" r=".56" clip-path="url(#b)"/><circle cx="13.24" cy="30.91" r=".56" clip-path="url(#b)"/><circle cx="17.8" cy="29.82" r=".56" clip-path="url(#b)"/><circle cx="15.3" cy="29.82" r=".56" clip-path="url(#b)"/><circle cx="18.62" cy="33.09" r=".56" clip-path="url(#b)"/><circle cx="23.21" cy="27.82" r=".56" clip-path="url(#b)"/><circle cx="23.21" cy="31.72" r=".56" clip-path="url(#b)"/><circle cx="26.49" cy="28.63" r=".56" clip-path="url(#b)"/><circle cx="26.49" cy="30.91" r=".56" clip-path="url(#b)"/><circle cx="19.87" cy="30.91" r=".56" clip-path="url(#b)"/><circle cx="24.42" cy="29.82" r=".56" clip-path="url(#b)"/><circle cx="21.92" cy="29.82" r=".56" clip-path="url(#b)"/><circle cx="25.24" cy="33.09" r=".56" clip-path="url(#b)"/><circle cx="21.18" cy="33.1" r=".56" clip-path="url(#b)"/><circle cx="29.83" cy="27.82" r=".56" clip-path="url(#b)"/><circle cx="29.83" cy="31.72" r=".56" clip-path="url(#b)"/><circle cx="33.12" cy="28.63" r=".56" clip-path="url(#b)"/><circle cx="33.12" cy="30.91" r=".56" clip-path="url(#b)"/><circle cx="26.49" cy="30.91" r=".56" clip-path="url(#b)"/><circle cx="31.05" cy="29.82" r=".56" clip-path="url(#b)"/><circle cx="28.55" cy="29.82" r=".56" clip-path="url(#b)"/><circle cx="31.87" cy="33.09" r=".56" clip-path="url(#b)"/><circle cx="27.8" cy="33.1" r=".56" clip-path="url(#b)"/><circle cx="36.46" cy="27.82" r=".56" clip-path="url(#b)"/><circle cx="36.46" cy="31.72" r=".56" clip-path="url(#b)"/><path d="M39.74 28.07a.56.56 0 1 0 0 1.12m0 1.16a.56.56 0 1 0 0 1.12" clip-path="url(#b)"/><circle cx="33.12" cy="30.91" r=".56" clip-path="url(#b)"/><circle cx="37.67" cy="29.82" r=".56" clip-path="url(#b)"/><circle cx="35.17" cy="29.82" r=".56" clip-path="url(#b)"/><circle cx="38.49" cy="33.09" r=".56" clip-path="url(#b)"/><circle cx="34.43" cy="33.1" r=".56" clip-path="url(#b)"/><circle cx="3.33" cy="34.44" r=".56" clip-path="url(#b)"/><circle cx="3.33" cy="38.35" r=".56" clip-path="url(#b)"/><path d="M.02 35.8c.3 0 .56-.24.56-.54s-.25-.56-.56-.56" clip-path="url(#b)"/><circle cx="6.62" cy="35.26" r=".56" clip-path="url(#b)"/><circle cx="6.62" cy="37.53" r=".56" clip-path="url(#b)"/><path d="M0 38.1c.3 0 .55-.26.55-.57s-.25-.55-.56-.55" clip-path="url(#b)"/><circle cx="4.55" cy="36.44" r=".56" clip-path="url(#b)"/><circle cx="2.05" cy="36.44" r=".56" clip-path="url(#b)"/><path d="M5.92 39.72c0-.3-.25-.56-.55-.56-.3 0-.56.25-.56.56" clip-path="url(#b)"/><circle cx="1.3" cy="33.16" r=".56" clip-path="url(#b)"/><path d="M1.86 39.72a.55.55 0 0 0-1.11 0" clip-path="url(#b)"/><circle cx="9.96" cy="34.44" r=".56" clip-path="url(#b)"/><circle cx="9.96" cy="38.35" r=".56" clip-path="url(#b)"/><circle cx="13.24" cy="35.26" r=".56" clip-path="url(#b)"/><circle cx="13.24" cy="37.53" r=".56" clip-path="url(#b)"/><circle cx="6.62" cy="37.53" r=".56" clip-path="url(#b)"/><circle cx="11.17" cy="36.44" r=".56" clip-path="url(#b)"/><circle cx="8.67" cy="36.44" r=".56" clip-path="url(#b)"/><path d="M12.55 39.72a.57.57 0 0 0-1.13 0m-2.92 0a.57.57 0 0 0-1.13 0" clip-path="url(#b)"/><circle cx="16.58" cy="34.44" r=".56" clip-path="url(#b)"/><circle cx="16.58" cy="38.35" r=".56" clip-path="url(#b)"/><circle cx="19.87" cy="35.26" r=".56" clip-path="url(#b)"/><circle cx="19.87" cy="37.53" r=".56" clip-path="url(#b)"/><circle cx="13.24" cy="37.53" r=".56" clip-path="url(#b)"/><circle cx="17.8" cy="36.44" r=".56" clip-path="url(#b)"/><circle cx="15.3" cy="36.44" r=".56" clip-path="url(#b)"/><path d="M19.17 39.72c0-.3-.25-.56-.55-.56-.3 0-.56.25-.56.56" clip-path="url(#b)"/><circle cx="14.55" cy="33.16" r=".56" clip-path="url(#b)"/><path d="M15.1 39.72c0-.3-.24-.55-.55-.55-.3 0-.55.25-.55.55" clip-path="url(#b)"/><circle cx="23.21" cy="34.44" r=".56" clip-path="url(#b)"/><circle cx="23.21" cy="38.35" r=".56" clip-path="url(#b)"/><circle cx="26.49" cy="35.26" r=".56" clip-path="url(#b)"/><circle cx="26.49" cy="37.53" r=".56" clip-path="url(#b)"/><circle cx="19.87" cy="37.53" r=".56" clip-path="url(#b)"/><circle cx="24.42" cy="36.44" r=".56" clip-path="url(#b)"/><circle cx="21.92" cy="36.44" r=".56" clip-path="url(#b)"/><path d="M25.8 39.72c0-.3-.25-.56-.56-.56-.3 0-.56.25-.56.56m-2.94 0c0-.3-.25-.55-.56-.55-.3 0-.56.25-.56.55" clip-path="url(#b)"/><circle cx="29.83" cy="34.44" r=".56" clip-path="url(#b)"/><circle cx="29.83" cy="38.35" r=".56" clip-path="url(#b)"/><circle cx="33.12" cy="35.26" r=".56" clip-path="url(#b)"/><circle cx="33.12" cy="37.53" r=".56" clip-path="url(#b)"/><circle cx="26.49" cy="37.53" r=".56" clip-path="url(#b)"/><circle cx="31.05" cy="36.44" r=".56" clip-path="url(#b)"/><circle cx="28.55" cy="36.44" r=".56" clip-path="url(#b)"/><path d="M32.42 39.72c0-.3-.25-.56-.55-.56-.3 0-.56.25-.56.56m-2.95 0a.55.55 0 0 0-1.11 0" clip-path="url(#b)"/><circle cx="36.46" cy="34.44" r=".56" clip-path="url(#b)"/><circle cx="36.46" cy="38.35" r=".56" clip-path="url(#b)"/><path d="M39.74 34.7c-.3 0-.56.25-.56.56s.25.55.56.55m0 1.17c-.3 0-.56.25-.56.55s.25.56.56.56" clip-path="url(#b)"/><circle cx="33.12" cy="37.53" r=".56" clip-path="url(#b)"/><circle cx="37.67" cy="36.44" r=".56" clip-path="url(#b)"/><circle cx="35.17" cy="36.44" r=".56" clip-path="url(#b)"/><path d="M39.05 39.72a.57.57 0 0 0-1.13 0m-2.92 0a.57.57 0 0 0-1.13 0" clip-path="url(#b)"/></svg>