<?xml version="1.0" encoding="utf-8"?>
<svg version="1.1" xmlns="http://www.w3.org/2000/svg" x="0px" y="0px" xml:space="preserve" width="48.097" height="47.721" viewBox="1.86 -51.86 48.097 47.721">
	<g>
		<rect x="1.86" y="-51.86" style="fill:none;" width="48.097" height="47.721"/>
		<circle style="fill:none;stroke:#EC008C;stroke-width:0.43;" cx="8.332" cy="-12.085" r="0.787"/>
		<path style="fill:none;stroke:#EC008C;stroke-width:0.43;" d="M7.546-4.14c0.022-0.415,0.365-0.745,0.785-0.745
			c0.42,0,0.763,0.33,0.785,0.745"/>
		<circle style="fill:none;stroke:#EC008C;stroke-width:0.43;" cx="3.4" cy="-12.085" r="0.787"/>
		<path style="fill:none;stroke:#EC008C;stroke-width:0.43;" d="M4.186-4.14C4.187-4.15,4.188-4.161,4.188-4.173
			c0-0.434-0.353-0.787-0.788-0.787c-0.435,0-0.787,0.353-0.787,0.787c0,0.012,0.001,0.023,0.002,0.033"/>
		<circle style="fill:none;stroke:#EC008C;stroke-width:0.43;" cx="5.857" cy="-10.66" r="0.788"/>
		<circle style="fill:none;stroke:#EC008C;stroke-width:0.43;" cx="9.869" cy="-9.685" r="0.788"/>
		<circle style="fill:none;stroke:#EC008C;stroke-width:0.43;" cx="7.319" cy="-8.26" r="0.788"/>
		<circle style="fill:none;stroke:#EC008C;stroke-width:0.43;" cx="4.338" cy="-8.26" r="0.788"/>
		<path style="fill:none;stroke:#EC008C;stroke-width:0.43;" d="M1.86-8.898c0.007,0,0.014,0.001,0.021,0.001
			c0.435,0,0.788-0.352,0.788-0.787c0-0.436-0.353-0.788-0.788-0.788c-0.007,0-0.014,0.001-0.021,0.001"/>
		<path style="fill:none;stroke:#EC008C;stroke-width:0.43;" d="M1.86-6.049c0.007,0,0.014,0.001,0.021,0.001
			c0.435,0,0.788-0.352,0.788-0.787c0-0.434-0.353-0.787-0.788-0.787c-0.007,0-0.014,0.001-0.021,0.001"/>
		<circle style="fill:none;stroke:#EC008C;stroke-width:0.43;" cx="5.857" cy="-5.86" r="0.788"/>
		<circle style="fill:none;stroke:#EC008C;stroke-width:0.43;" cx="9.869" cy="-6.835" r="0.787"/>
		<circle style="fill:none;stroke:#EC008C;stroke-width:0.43;" cx="16.357" cy="-12.085" r="0.787"/>
		<path style="fill:none;stroke:#EC008C;stroke-width:0.43;" d="M15.571-4.14c0.022-0.415,0.365-0.745,0.786-0.745
			c0.42,0,0.763,0.33,0.785,0.745"/>
		<circle style="fill:none;stroke:#EC008C;stroke-width:0.43;" cx="11.425" cy="-12.085" r="0.787"/>
		<path style="fill:none;stroke:#EC008C;stroke-width:0.43;" d="M12.21-4.14c0.001-0.011,0.002-0.022,0.002-0.033
			c0-0.434-0.352-0.787-0.787-0.787c-0.435,0-0.787,0.353-0.787,0.787c0,0.012,0.001,0.023,0.002,0.033"/>
		<circle style="fill:none;stroke:#EC008C;stroke-width:0.43;" cx="13.882" cy="-10.66" r="0.788"/>
		<circle style="fill:none;stroke:#EC008C;stroke-width:0.43;" cx="17.894" cy="-9.685" r="0.787"/>
		<circle style="fill:none;stroke:#EC008C;stroke-width:0.43;" cx="15.344" cy="-8.26" r="0.788"/>
		<circle style="fill:none;stroke:#EC008C;stroke-width:0.43;" cx="12.363" cy="-8.26" r="0.787"/>
		<circle style="fill:none;stroke:#EC008C;stroke-width:0.43;" cx="13.882" cy="-5.86" r="0.788"/>
		<circle style="fill:none;stroke:#EC008C;stroke-width:0.43;" cx="17.894" cy="-6.835" r="0.787"/>
		<circle style="fill:none;stroke:#EC008C;stroke-width:0.43;" cx="24.382" cy="-12.085" r="0.787"/>
		<path style="fill:none;stroke:#EC008C;stroke-width:0.43;" d="M23.596-4.14c0.022-0.415,0.365-0.745,0.785-0.745
			c0.42,0,0.764,0.33,0.786,0.745"/>
		<circle style="fill:none;stroke:#EC008C;stroke-width:0.43;" cx="19.45" cy="-12.085" r="0.787"/>
		<path style="fill:none;stroke:#EC008C;stroke-width:0.43;" d="M20.236-4.14c0.001-0.011,0.002-0.022,0.002-0.033
			c0-0.434-0.353-0.787-0.787-0.787c-0.436,0-0.788,0.353-0.788,0.787c0,0.012,0.001,0.023,0.002,0.033"/>
		<circle style="fill:none;stroke:#EC008C;stroke-width:0.43;" cx="21.906" cy="-10.66" r="0.788"/>
		<circle style="fill:none;stroke:#EC008C;stroke-width:0.43;" cx="25.919" cy="-9.685" r="0.788"/>
		<circle style="fill:none;stroke:#EC008C;stroke-width:0.43;" cx="23.369" cy="-8.26" r="0.788"/>
		<circle style="fill:none;stroke:#EC008C;stroke-width:0.43;" cx="20.388" cy="-8.26" r="0.788"/>
		<circle style="fill:none;stroke:#EC008C;stroke-width:0.43;" cx="21.906" cy="-5.86" r="0.788"/>
		<circle style="fill:none;stroke:#EC008C;stroke-width:0.43;" cx="25.919" cy="-6.835" r="0.787"/>
		<circle style="fill:none;stroke:#EC008C;stroke-width:0.43;" cx="32.406" cy="-12.085" r="0.787"/>
		<path style="fill:none;stroke:#EC008C;stroke-width:0.43;" d="M31.621-4.14c0.023-0.415,0.366-0.745,0.786-0.745
			c0.42,0,0.763,0.33,0.785,0.745"/>
		<circle style="fill:none;stroke:#EC008C;stroke-width:0.43;" cx="27.475" cy="-12.085" r="0.787"/>
		<path style="fill:none;stroke:#EC008C;stroke-width:0.43;" d="M28.261-4.14c0.001-0.011,0.002-0.022,0.002-0.033
			c0-0.434-0.354-0.787-0.788-0.787c-0.435,0-0.787,0.353-0.787,0.787c0,0.012,0.001,0.023,0.002,0.033"/>
		<circle style="fill:none;stroke:#EC008C;stroke-width:0.43;" cx="29.931" cy="-10.66" r="0.788"/>
		<circle style="fill:none;stroke:#EC008C;stroke-width:0.43;" cx="33.944" cy="-9.685" r="0.788"/>
		<circle style="fill:none;stroke:#EC008C;stroke-width:0.43;" cx="31.394" cy="-8.26" r="0.787"/>
		<circle style="fill:none;stroke:#EC008C;stroke-width:0.43;" cx="28.413" cy="-8.26" r="0.788"/>
		<circle style="fill:none;stroke:#EC008C;stroke-width:0.43;" cx="29.931" cy="-5.86" r="0.788"/>
		<circle style="fill:none;stroke:#EC008C;stroke-width:0.43;" cx="33.944" cy="-6.835" r="0.787"/>
		<circle style="fill:none;stroke:#EC008C;stroke-width:0.43;" cx="40.431" cy="-12.085" r="0.787"/>
		<path style="fill:none;stroke:#EC008C;stroke-width:0.43;" d="M39.646-4.14c0.022-0.415,0.365-0.745,0.785-0.745
			c0.421,0,0.764,0.33,0.786,0.745"/>
		<circle style="fill:none;stroke:#EC008C;stroke-width:0.43;" cx="35.5" cy="-12.085" r="0.787"/>
		<path style="fill:none;stroke:#EC008C;stroke-width:0.43;" d="M36.286-4.14c0.001-0.011,0.002-0.022,0.002-0.033
			c0-0.434-0.353-0.787-0.787-0.787s-0.788,0.353-0.788,0.787c0,0.012,0.001,0.023,0.002,0.033"/>
		<circle style="fill:none;stroke:#EC008C;stroke-width:0.43;" cx="37.957" cy="-10.66" r="0.787"/>
		<circle style="fill:none;stroke:#EC008C;stroke-width:0.43;" cx="41.969" cy="-9.685" r="0.788"/>
		<circle style="fill:none;stroke:#EC008C;stroke-width:0.43;" cx="39.419" cy="-8.26" r="0.788"/>
		<circle style="fill:none;stroke:#EC008C;stroke-width:0.43;" cx="36.438" cy="-8.26" r="0.788"/>
		<circle style="fill:none;stroke:#EC008C;stroke-width:0.43;" cx="37.957" cy="-5.86" r="0.787"/>
		<circle style="fill:none;stroke:#EC008C;stroke-width:0.43;" cx="41.969" cy="-6.835" r="0.787"/>
		<circle style="fill:none;stroke:#EC008C;stroke-width:0.43;" cx="48.457" cy="-12.085" r="0.787"/>
		<path style="fill:none;stroke:#EC008C;stroke-width:0.43;" d="M47.671-4.14c0.022-0.415,0.365-0.745,0.785-0.745
			c0.42,0,0.763,0.33,0.785,0.745"/>
		<circle style="fill:none;stroke:#EC008C;stroke-width:0.43;" cx="43.525" cy="-12.085" r="0.787"/>
		<path style="fill:none;stroke:#EC008C;stroke-width:0.43;" d="M44.311-4.14c0.001-0.011,0.002-0.022,0.002-0.033
			c0-0.434-0.353-0.787-0.788-0.787c-0.435,0-0.787,0.353-0.787,0.787c0,0.012,0.001,0.023,0.002,0.033"/>
		<circle style="fill:none;stroke:#EC008C;stroke-width:0.43;" cx="45.982" cy="-10.66" r="0.788"/>
		<path style="fill:none;stroke:#EC008C;stroke-width:0.43;" d="M49.957-10.471c-0.417,0.02-0.75,0.363-0.75,0.786
			c0,0.422,0.333,0.766,0.75,0.785"/>
		<circle style="fill:none;stroke:#EC008C;stroke-width:0.43;" cx="47.444" cy="-8.26" r="0.788"/>
		<circle style="fill:none;stroke:#EC008C;stroke-width:0.43;" cx="44.463" cy="-8.26" r="0.788"/>
		<circle style="fill:none;stroke:#EC008C;stroke-width:0.43;" cx="45.982" cy="-5.86" r="0.788"/>
		<path style="fill:none;stroke:#EC008C;stroke-width:0.43;" d="M49.957-7.62c-0.417,0.02-0.75,0.363-0.75,0.785
			c0,0.422,0.333,0.766,0.75,0.785"/>
		<circle style="fill:none;stroke:#EC008C;stroke-width:0.43;" cx="8.332" cy="-20.035" r="0.787"/>
		<circle style="fill:none;stroke:#EC008C;stroke-width:0.43;" cx="3.4" cy="-20.035" r="0.788"/>
		<circle style="fill:none;stroke:#EC008C;stroke-width:0.43;" cx="5.857" cy="-18.61" r="0.788"/>
		<circle style="fill:none;stroke:#EC008C;stroke-width:0.43;" cx="9.869" cy="-17.635" r="0.788"/>
		<circle style="fill:none;stroke:#EC008C;stroke-width:0.43;" cx="7.319" cy="-16.21" r="0.787"/>
		<circle style="fill:none;stroke:#EC008C;stroke-width:0.43;" cx="4.338" cy="-16.21" r="0.787"/>
		<path style="fill:none;stroke:#EC008C;stroke-width:0.43;" d="M1.86-16.849c0.007,0,0.014,0.001,0.021,0.001
			c0.435,0,0.788-0.352,0.788-0.787c0-0.434-0.353-0.788-0.788-0.788c-0.007,0-0.014,0.001-0.021,0.001"/>
		<path style="fill:none;stroke:#EC008C;stroke-width:0.43;" d="M1.86-13.998c0.007,0,0.014,0.001,0.021,0.001
			c0.435,0,0.788-0.354,0.788-0.788c0-0.434-0.353-0.787-0.788-0.787c-0.007,0-0.014,0.001-0.021,0.001"/>
		<circle style="fill:none;stroke:#EC008C;stroke-width:0.43;" cx="5.857" cy="-13.81" r="0.788"/>
		<circle style="fill:none;stroke:#EC008C;stroke-width:0.43;" cx="9.869" cy="-14.785" r="0.788"/>
		<circle style="fill:none;stroke:#EC008C;stroke-width:0.43;" cx="16.357" cy="-20.035" r="0.788"/>
		<circle style="fill:none;stroke:#EC008C;stroke-width:0.43;" cx="11.425" cy="-20.035" r="0.787"/>
		<circle style="fill:none;stroke:#EC008C;stroke-width:0.43;" cx="13.882" cy="-18.61" r="0.788"/>
		<circle style="fill:none;stroke:#EC008C;stroke-width:0.43;" cx="17.894" cy="-17.635" r="0.787"/>
		<circle style="fill:none;stroke:#EC008C;stroke-width:0.43;" cx="15.344" cy="-16.21" r="0.787"/>
		<circle style="fill:none;stroke:#EC008C;stroke-width:0.43;" cx="12.363" cy="-16.21" r="0.787"/>
		<circle style="fill:none;stroke:#EC008C;stroke-width:0.43;" cx="13.882" cy="-13.81" r="0.788"/>
		<circle style="fill:none;stroke:#EC008C;stroke-width:0.43;" cx="17.894" cy="-14.785" r="0.787"/>
		<circle style="fill:none;stroke:#EC008C;stroke-width:0.43;" cx="24.382" cy="-20.035" r="0.788"/>
		<circle style="fill:none;stroke:#EC008C;stroke-width:0.43;" cx="19.45" cy="-20.035" r="0.788"/>
		<circle style="fill:none;stroke:#EC008C;stroke-width:0.43;" cx="21.906" cy="-18.61" r="0.788"/>
		<circle style="fill:none;stroke:#EC008C;stroke-width:0.43;" cx="25.919" cy="-17.635" r="0.788"/>
		<circle style="fill:none;stroke:#EC008C;stroke-width:0.43;" cx="23.369" cy="-16.21" r="0.787"/>
		<circle style="fill:none;stroke:#EC008C;stroke-width:0.43;" cx="20.388" cy="-16.21" r="0.787"/>
		<circle style="fill:none;stroke:#EC008C;stroke-width:0.43;" cx="21.906" cy="-13.81" r="0.788"/>
		<circle style="fill:none;stroke:#EC008C;stroke-width:0.43;" cx="25.919" cy="-14.785" r="0.788"/>
		<circle style="fill:none;stroke:#EC008C;stroke-width:0.43;" cx="32.406" cy="-20.035" r="0.788"/>
		<circle style="fill:none;stroke:#EC008C;stroke-width:0.43;" cx="27.475" cy="-20.035" r="0.788"/>
		<circle style="fill:none;stroke:#EC008C;stroke-width:0.43;" cx="29.931" cy="-18.61" r="0.788"/>
		<circle style="fill:none;stroke:#EC008C;stroke-width:0.43;" cx="33.944" cy="-17.635" r="0.788"/>
		<circle style="fill:none;stroke:#EC008C;stroke-width:0.43;" cx="31.394" cy="-16.21" r="0.787"/>
		<circle style="fill:none;stroke:#EC008C;stroke-width:0.43;" cx="28.413" cy="-16.21" r="0.787"/>
		<circle style="fill:none;stroke:#EC008C;stroke-width:0.43;" cx="29.931" cy="-13.81" r="0.788"/>
		<circle style="fill:none;stroke:#EC008C;stroke-width:0.43;" cx="33.944" cy="-14.785" r="0.788"/>
		<circle style="fill:none;stroke:#EC008C;stroke-width:0.43;" cx="40.431" cy="-20.035" r="0.788"/>
		<circle style="fill:none;stroke:#EC008C;stroke-width:0.43;" cx="35.5" cy="-20.035" r="0.788"/>
		<circle style="fill:none;stroke:#EC008C;stroke-width:0.43;" cx="37.957" cy="-18.61" r="0.787"/>
		<circle style="fill:none;stroke:#EC008C;stroke-width:0.43;" cx="41.969" cy="-17.635" r="0.788"/>
		<circle style="fill:none;stroke:#EC008C;stroke-width:0.43;" cx="39.419" cy="-16.21" r="0.787"/>
		<circle style="fill:none;stroke:#EC008C;stroke-width:0.43;" cx="36.438" cy="-16.21" r="0.787"/>
		<circle style="fill:none;stroke:#EC008C;stroke-width:0.43;" cx="37.957" cy="-13.81" r="0.787"/>
		<circle style="fill:none;stroke:#EC008C;stroke-width:0.43;" cx="41.969" cy="-14.785" r="0.788"/>
		<circle style="fill:none;stroke:#EC008C;stroke-width:0.43;" cx="48.457" cy="-20.035" r="0.787"/>
		<circle style="fill:none;stroke:#EC008C;stroke-width:0.43;" cx="43.525" cy="-20.035" r="0.788"/>
		<circle style="fill:none;stroke:#EC008C;stroke-width:0.43;" cx="45.982" cy="-18.61" r="0.788"/>
		<path style="fill:none;stroke:#EC008C;stroke-width:0.43;" d="M49.957-18.421c-0.417,0.02-0.75,0.364-0.75,0.786
			c0,0.422,0.333,0.766,0.75,0.785"/>
		<circle style="fill:none;stroke:#EC008C;stroke-width:0.43;" cx="47.444" cy="-16.21" r="0.787"/>
		<circle style="fill:none;stroke:#EC008C;stroke-width:0.43;" cx="44.463" cy="-16.21" r="0.787"/>
		<circle style="fill:none;stroke:#EC008C;stroke-width:0.43;" cx="45.982" cy="-13.81" r="0.788"/>
		<path style="fill:none;stroke:#EC008C;stroke-width:0.43;" d="M49.957-15.57c-0.417,0.019-0.75,0.363-0.75,0.785
			c0,0.422,0.333,0.767,0.75,0.786"/>
		<circle style="fill:none;stroke:#EC008C;stroke-width:0.43;" cx="8.332" cy="-27.985" r="0.787"/>
		<circle style="fill:none;stroke:#EC008C;stroke-width:0.43;" cx="3.4" cy="-27.985" r="0.788"/>
		<circle style="fill:none;stroke:#EC008C;stroke-width:0.43;" cx="5.857" cy="-26.56" r="0.788"/>
		<circle style="fill:none;stroke:#EC008C;stroke-width:0.43;" cx="9.869" cy="-25.585" r="0.787"/>
		<circle style="fill:none;stroke:#EC008C;stroke-width:0.43;" cx="7.319" cy="-24.16" r="0.788"/>
		<circle style="fill:none;stroke:#EC008C;stroke-width:0.43;" cx="4.338" cy="-24.16" r="0.788"/>
		<path style="fill:none;stroke:#EC008C;stroke-width:0.43;" d="M1.86-24.799c0.007,0,0.014,0.001,0.021,0.001
			c0.435,0,0.788-0.353,0.788-0.787c0-0.435-0.353-0.787-0.788-0.787c-0.007,0-0.014,0.001-0.021,0.001"/>
		<path style="fill:none;stroke:#EC008C;stroke-width:0.43;" d="M1.86-21.948c0.007,0,0.014,0.001,0.021,0.001
			c0.435,0,0.788-0.353,0.788-0.788c0-0.435-0.353-0.787-0.788-0.787c-0.007,0-0.014,0.001-0.021,0.001"/>
		<circle style="fill:none;stroke:#EC008C;stroke-width:0.43;" cx="5.857" cy="-21.76" r="0.788"/>
		<circle style="fill:none;stroke:#EC008C;stroke-width:0.43;" cx="9.869" cy="-22.735" r="0.788"/>
		<circle style="fill:none;stroke:#EC008C;stroke-width:0.43;" cx="16.357" cy="-27.985" r="0.788"/>
		<circle style="fill:none;stroke:#EC008C;stroke-width:0.43;" cx="11.425" cy="-27.985" r="0.787"/>
		<circle style="fill:none;stroke:#EC008C;stroke-width:0.43;" cx="13.882" cy="-26.56" r="0.788"/>
		<circle style="fill:none;stroke:#EC008C;stroke-width:0.43;" cx="17.894" cy="-25.585" r="0.787"/>
		<circle style="fill:none;stroke:#EC008C;stroke-width:0.43;" cx="15.344" cy="-24.16" r="0.788"/>
		<circle style="fill:none;stroke:#EC008C;stroke-width:0.43;" cx="12.363" cy="-24.16" r="0.787"/>
		<circle style="fill:none;stroke:#EC008C;stroke-width:0.43;" cx="13.882" cy="-21.76" r="0.788"/>
		<circle style="fill:none;stroke:#EC008C;stroke-width:0.43;" cx="17.894" cy="-22.735" r="0.787"/>
		<circle style="fill:none;stroke:#EC008C;stroke-width:0.43;" cx="24.382" cy="-27.985" r="0.788"/>
		<circle style="fill:none;stroke:#EC008C;stroke-width:0.43;" cx="19.45" cy="-27.985" r="0.788"/>
		<circle style="fill:none;stroke:#EC008C;stroke-width:0.43;" cx="21.906" cy="-26.56" r="0.788"/>
		<circle style="fill:none;stroke:#EC008C;stroke-width:0.43;" cx="25.919" cy="-25.585" r="0.787"/>
		<circle style="fill:none;stroke:#EC008C;stroke-width:0.43;" cx="23.369" cy="-24.16" r="0.788"/>
		<circle style="fill:none;stroke:#EC008C;stroke-width:0.43;" cx="20.388" cy="-24.16" r="0.788"/>
		<circle style="fill:none;stroke:#EC008C;stroke-width:0.43;" cx="21.906" cy="-21.76" r="0.788"/>
		<circle style="fill:none;stroke:#EC008C;stroke-width:0.43;" cx="25.919" cy="-22.735" r="0.788"/>
		<circle style="fill:none;stroke:#EC008C;stroke-width:0.43;" cx="32.406" cy="-27.985" r="0.788"/>
		<circle style="fill:none;stroke:#EC008C;stroke-width:0.43;" cx="27.475" cy="-27.985" r="0.788"/>
		<circle style="fill:none;stroke:#EC008C;stroke-width:0.43;" cx="29.931" cy="-26.56" r="0.788"/>
		<circle style="fill:none;stroke:#EC008C;stroke-width:0.43;" cx="33.944" cy="-25.585" r="0.787"/>
		<circle style="fill:none;stroke:#EC008C;stroke-width:0.43;" cx="31.394" cy="-24.16" r="0.787"/>
		<circle style="fill:none;stroke:#EC008C;stroke-width:0.43;" cx="28.413" cy="-24.16" r="0.788"/>
		<circle style="fill:none;stroke:#EC008C;stroke-width:0.43;" cx="29.931" cy="-21.76" r="0.788"/>
		<circle style="fill:none;stroke:#EC008C;stroke-width:0.43;" cx="33.944" cy="-22.735" r="0.788"/>
		<circle style="fill:none;stroke:#EC008C;stroke-width:0.43;" cx="40.431" cy="-27.985" r="0.788"/>
		<circle style="fill:none;stroke:#EC008C;stroke-width:0.43;" cx="35.5" cy="-27.985" r="0.788"/>
		<circle style="fill:none;stroke:#EC008C;stroke-width:0.43;" cx="37.957" cy="-26.56" r="0.787"/>
		<circle style="fill:none;stroke:#EC008C;stroke-width:0.43;" cx="41.969" cy="-25.585" r="0.787"/>
		<circle style="fill:none;stroke:#EC008C;stroke-width:0.43;" cx="39.419" cy="-24.16" r="0.788"/>
		<circle style="fill:none;stroke:#EC008C;stroke-width:0.43;" cx="36.438" cy="-24.16" r="0.788"/>
		<circle style="fill:none;stroke:#EC008C;stroke-width:0.43;" cx="37.957" cy="-21.76" r="0.787"/>
		<circle style="fill:none;stroke:#EC008C;stroke-width:0.43;" cx="41.969" cy="-22.735" r="0.788"/>
		<circle style="fill:none;stroke:#EC008C;stroke-width:0.43;" cx="48.457" cy="-27.985" r="0.787"/>
		<circle style="fill:none;stroke:#EC008C;stroke-width:0.43;" cx="43.525" cy="-27.985" r="0.788"/>
		<circle style="fill:none;stroke:#EC008C;stroke-width:0.43;" cx="45.982" cy="-26.56" r="0.788"/>
		<path style="fill:none;stroke:#EC008C;stroke-width:0.43;" d="M49.957-26.37c-0.417,0.02-0.75,0.363-0.75,0.785
			c0,0.422,0.333,0.766,0.75,0.785"/>
		<circle style="fill:none;stroke:#EC008C;stroke-width:0.43;" cx="47.444" cy="-24.16" r="0.788"/>
		<circle style="fill:none;stroke:#EC008C;stroke-width:0.43;" cx="44.463" cy="-24.16" r="0.788"/>
		<circle style="fill:none;stroke:#EC008C;stroke-width:0.43;" cx="45.982" cy="-21.76" r="0.788"/>
		<path style="fill:none;stroke:#EC008C;stroke-width:0.43;" d="M49.957-23.521c-0.417,0.02-0.75,0.363-0.75,0.785
			c0,0.423,0.333,0.767,0.75,0.786"/>
		<circle style="fill:none;stroke:#EC008C;stroke-width:0.43;" cx="8.332" cy="-35.935" r="0.787"/>
		<circle style="fill:none;stroke:#EC008C;stroke-width:0.43;" cx="3.4" cy="-35.935" r="0.788"/>
		<circle style="fill:none;stroke:#EC008C;stroke-width:0.43;" cx="5.857" cy="-34.51" r="0.788"/>
		<circle style="fill:none;stroke:#EC008C;stroke-width:0.43;" cx="9.869" cy="-33.535" r="0.788"/>
		<circle style="fill:none;stroke:#EC008C;stroke-width:0.43;" cx="7.319" cy="-32.11" r="0.788"/>
		<circle style="fill:none;stroke:#EC008C;stroke-width:0.43;" cx="4.338" cy="-32.11" r="0.788"/>
		<path style="fill:none;stroke:#EC008C;stroke-width:0.43;" d="M1.86-32.748c0.007,0,0.014,0.001,0.021,0.001
			c0.435,0,0.788-0.354,0.788-0.788c0-0.435-0.353-0.787-0.788-0.787c-0.007,0-0.014,0.001-0.021,0.001"/>
		<path style="fill:none;stroke:#EC008C;stroke-width:0.43;" d="M1.86-29.898c0.007,0,0.014,0.001,0.021,0.001
			c0.435,0,0.788-0.353,0.788-0.787c0-0.435-0.353-0.788-0.788-0.788c-0.007,0-0.014,0.001-0.021,0.001"/>
		<circle style="fill:none;stroke:#EC008C;stroke-width:0.43;" cx="5.857" cy="-29.71" r="0.787"/>
		<circle style="fill:none;stroke:#EC008C;stroke-width:0.43;" cx="9.869" cy="-30.685" r="0.788"/>
		<circle style="fill:none;stroke:#EC008C;stroke-width:0.43;" cx="16.357" cy="-35.935" r="0.788"/>
		<circle style="fill:none;stroke:#EC008C;stroke-width:0.43;" cx="11.425" cy="-35.935" r="0.787"/>
		<circle style="fill:none;stroke:#EC008C;stroke-width:0.43;" cx="13.882" cy="-34.51" r="0.788"/>
		<circle style="fill:none;stroke:#EC008C;stroke-width:0.43;" cx="17.894" cy="-33.535" r="0.787"/>
		<circle style="fill:none;stroke:#EC008C;stroke-width:0.43;" cx="15.344" cy="-32.11" r="0.788"/>
		<circle style="fill:none;stroke:#EC008C;stroke-width:0.43;" cx="12.363" cy="-32.11" r="0.787"/>
		<circle style="fill:none;stroke:#EC008C;stroke-width:0.43;" cx="13.882" cy="-29.71" r="0.787"/>
		<circle style="fill:none;stroke:#EC008C;stroke-width:0.43;" cx="17.894" cy="-30.685" r="0.787"/>
		<circle style="fill:none;stroke:#EC008C;stroke-width:0.43;" cx="24.382" cy="-35.935" r="0.788"/>
		<circle style="fill:none;stroke:#EC008C;stroke-width:0.43;" cx="19.45" cy="-35.935" r="0.788"/>
		<circle style="fill:none;stroke:#EC008C;stroke-width:0.43;" cx="21.906" cy="-34.51" r="0.788"/>
		<circle style="fill:none;stroke:#EC008C;stroke-width:0.43;" cx="25.919" cy="-33.535" r="0.788"/>
		<circle style="fill:none;stroke:#EC008C;stroke-width:0.43;" cx="23.369" cy="-32.11" r="0.788"/>
		<circle style="fill:none;stroke:#EC008C;stroke-width:0.43;" cx="20.388" cy="-32.11" r="0.788"/>
		<circle style="fill:none;stroke:#EC008C;stroke-width:0.43;" cx="21.906" cy="-29.71" r="0.787"/>
		<circle style="fill:none;stroke:#EC008C;stroke-width:0.43;" cx="25.919" cy="-30.685" r="0.788"/>
		<circle style="fill:none;stroke:#EC008C;stroke-width:0.43;" cx="32.406" cy="-35.935" r="0.788"/>
		<circle style="fill:none;stroke:#EC008C;stroke-width:0.43;" cx="27.475" cy="-35.935" r="0.788"/>
		<circle style="fill:none;stroke:#EC008C;stroke-width:0.43;" cx="29.931" cy="-34.51" r="0.788"/>
		<circle style="fill:none;stroke:#EC008C;stroke-width:0.43;" cx="33.944" cy="-33.535" r="0.788"/>
		<circle style="fill:none;stroke:#EC008C;stroke-width:0.43;" cx="31.394" cy="-32.11" r="0.787"/>
		<circle style="fill:none;stroke:#EC008C;stroke-width:0.43;" cx="28.413" cy="-32.11" r="0.788"/>
		<circle style="fill:none;stroke:#EC008C;stroke-width:0.43;" cx="29.931" cy="-29.71" r="0.787"/>
		<circle style="fill:none;stroke:#EC008C;stroke-width:0.43;" cx="33.944" cy="-30.685" r="0.788"/>
		<circle style="fill:none;stroke:#EC008C;stroke-width:0.43;" cx="40.431" cy="-35.935" r="0.788"/>
		<circle style="fill:none;stroke:#EC008C;stroke-width:0.43;" cx="35.5" cy="-35.935" r="0.788"/>
		<circle style="fill:none;stroke:#EC008C;stroke-width:0.43;" cx="37.957" cy="-34.51" r="0.787"/>
		<circle style="fill:none;stroke:#EC008C;stroke-width:0.43;" cx="41.969" cy="-33.535" r="0.788"/>
		<circle style="fill:none;stroke:#EC008C;stroke-width:0.43;" cx="39.419" cy="-32.11" r="0.788"/>
		<circle style="fill:none;stroke:#EC008C;stroke-width:0.43;" cx="36.438" cy="-32.11" r="0.788"/>
		<circle style="fill:none;stroke:#EC008C;stroke-width:0.43;" cx="37.957" cy="-29.71" r="0.787"/>
		<circle style="fill:none;stroke:#EC008C;stroke-width:0.43;" cx="41.969" cy="-30.685" r="0.788"/>
		<circle style="fill:none;stroke:#EC008C;stroke-width:0.43;" cx="48.457" cy="-35.935" r="0.787"/>
		<circle style="fill:none;stroke:#EC008C;stroke-width:0.43;" cx="43.525" cy="-35.935" r="0.788"/>
		<circle style="fill:none;stroke:#EC008C;stroke-width:0.43;" cx="45.982" cy="-34.51" r="0.788"/>
		<path style="fill:none;stroke:#EC008C;stroke-width:0.43;" d="M49.957-34.32c-0.417,0.02-0.75,0.363-0.75,0.785
			c0,0.422,0.333,0.767,0.75,0.786"/>
		<circle style="fill:none;stroke:#EC008C;stroke-width:0.43;" cx="47.444" cy="-32.11" r="0.788"/>
		<circle style="fill:none;stroke:#EC008C;stroke-width:0.43;" cx="44.463" cy="-32.11" r="0.788"/>
		<circle style="fill:none;stroke:#EC008C;stroke-width:0.43;" cx="45.982" cy="-29.71" r="0.787"/>
		<path style="fill:none;stroke:#EC008C;stroke-width:0.43;" d="M49.957-31.471c-0.417,0.019-0.75,0.363-0.75,0.786
			c0,0.422,0.333,0.766,0.75,0.785"/>
		<circle style="fill:none;stroke:#EC008C;stroke-width:0.43;" cx="8.332" cy="-43.885" r="0.787"/>
		<circle style="fill:none;stroke:#EC008C;stroke-width:0.43;" cx="3.4" cy="-43.885" r="0.788"/>
		<circle style="fill:none;stroke:#EC008C;stroke-width:0.43;" cx="5.857" cy="-42.46" r="0.787"/>
		<circle style="fill:none;stroke:#EC008C;stroke-width:0.43;" cx="9.869" cy="-41.485" r="0.788"/>
		<circle style="fill:none;stroke:#EC008C;stroke-width:0.43;" cx="7.319" cy="-40.06" r="0.788"/>
		<circle style="fill:none;stroke:#EC008C;stroke-width:0.43;" cx="4.338" cy="-40.06" r="0.788"/>
		<path style="fill:none;stroke:#EC008C;stroke-width:0.43;" d="M1.86-40.698c0.007,0,0.014,0.001,0.021,0.001
			c0.435,0,0.788-0.353,0.788-0.788c0-0.434-0.353-0.787-0.788-0.787c-0.007,0-0.014,0.001-0.021,0.001"/>
		<path style="fill:none;stroke:#EC008C;stroke-width:0.43;" d="M1.86-37.849c0.007,0,0.014,0.001,0.021,0.001
			c0.435,0,0.788-0.353,0.788-0.787c0-0.435-0.353-0.788-0.788-0.788c-0.007,0-0.014,0.001-0.021,0.001"/>
		<circle style="fill:none;stroke:#EC008C;stroke-width:0.43;" cx="5.857" cy="-37.66" r="0.788"/>
		<circle style="fill:none;stroke:#EC008C;stroke-width:0.43;" cx="9.869" cy="-38.635" r="0.788"/>
		<circle style="fill:none;stroke:#EC008C;stroke-width:0.43;" cx="16.357" cy="-43.885" r="0.788"/>
		<circle style="fill:none;stroke:#EC008C;stroke-width:0.43;" cx="11.425" cy="-43.885" r="0.787"/>
		<circle style="fill:none;stroke:#EC008C;stroke-width:0.43;" cx="13.882" cy="-42.46" r="0.787"/>
		<circle style="fill:none;stroke:#EC008C;stroke-width:0.43;" cx="17.894" cy="-41.485" r="0.787"/>
		<circle style="fill:none;stroke:#EC008C;stroke-width:0.43;" cx="15.344" cy="-40.06" r="0.788"/>
		<circle style="fill:none;stroke:#EC008C;stroke-width:0.43;" cx="12.363" cy="-40.06" r="0.787"/>
		<circle style="fill:none;stroke:#EC008C;stroke-width:0.43;" cx="13.882" cy="-37.66" r="0.788"/>
		<circle style="fill:none;stroke:#EC008C;stroke-width:0.43;" cx="17.894" cy="-38.635" r="0.787"/>
		<circle style="fill:none;stroke:#EC008C;stroke-width:0.43;" cx="24.382" cy="-43.885" r="0.788"/>
		<circle style="fill:none;stroke:#EC008C;stroke-width:0.43;" cx="19.45" cy="-43.885" r="0.788"/>
		<circle style="fill:none;stroke:#EC008C;stroke-width:0.43;" cx="21.906" cy="-42.46" r="0.787"/>
		<circle style="fill:none;stroke:#EC008C;stroke-width:0.43;" cx="25.919" cy="-41.485" r="0.788"/>
		<circle style="fill:none;stroke:#EC008C;stroke-width:0.43;" cx="23.369" cy="-40.06" r="0.788"/>
		<circle style="fill:none;stroke:#EC008C;stroke-width:0.43;" cx="20.388" cy="-40.06" r="0.788"/>
		<circle style="fill:none;stroke:#EC008C;stroke-width:0.43;" cx="21.906" cy="-37.66" r="0.788"/>
		<circle style="fill:none;stroke:#EC008C;stroke-width:0.43;" cx="25.919" cy="-38.635" r="0.788"/>
		<circle style="fill:none;stroke:#EC008C;stroke-width:0.43;" cx="32.406" cy="-43.885" r="0.788"/>
		<circle style="fill:none;stroke:#EC008C;stroke-width:0.43;" cx="27.475" cy="-43.885" r="0.788"/>
		<circle style="fill:none;stroke:#EC008C;stroke-width:0.43;" cx="29.931" cy="-42.46" r="0.787"/>
		<circle style="fill:none;stroke:#EC008C;stroke-width:0.43;" cx="33.944" cy="-41.485" r="0.788"/>
		<circle style="fill:none;stroke:#EC008C;stroke-width:0.43;" cx="31.394" cy="-40.06" r="0.787"/>
		<circle style="fill:none;stroke:#EC008C;stroke-width:0.43;" cx="28.413" cy="-40.06" r="0.788"/>
		<circle style="fill:none;stroke:#EC008C;stroke-width:0.43;" cx="29.931" cy="-37.66" r="0.788"/>
		<circle style="fill:none;stroke:#EC008C;stroke-width:0.43;" cx="33.944" cy="-38.635" r="0.788"/>
		<circle style="fill:none;stroke:#EC008C;stroke-width:0.43;" cx="40.431" cy="-43.885" r="0.788"/>
		<circle style="fill:none;stroke:#EC008C;stroke-width:0.43;" cx="35.5" cy="-43.885" r="0.788"/>
		<circle style="fill:none;stroke:#EC008C;stroke-width:0.43;" cx="37.957" cy="-42.46" r="0.787"/>
		<circle style="fill:none;stroke:#EC008C;stroke-width:0.43;" cx="41.969" cy="-41.485" r="0.788"/>
		<circle style="fill:none;stroke:#EC008C;stroke-width:0.43;" cx="39.419" cy="-40.06" r="0.788"/>
		<circle style="fill:none;stroke:#EC008C;stroke-width:0.43;" cx="36.438" cy="-40.06" r="0.788"/>
		<circle style="fill:none;stroke:#EC008C;stroke-width:0.43;" cx="37.957" cy="-37.66" r="0.787"/>
		<circle style="fill:none;stroke:#EC008C;stroke-width:0.43;" cx="41.969" cy="-38.635" r="0.788"/>
		<circle style="fill:none;stroke:#EC008C;stroke-width:0.43;" cx="48.457" cy="-43.885" r="0.787"/>
		<circle style="fill:none;stroke:#EC008C;stroke-width:0.43;" cx="43.525" cy="-43.885" r="0.788"/>
		<circle style="fill:none;stroke:#EC008C;stroke-width:0.43;" cx="45.982" cy="-42.46" r="0.787"/>
		<path style="fill:none;stroke:#EC008C;stroke-width:0.43;" d="M49.957-42.271c-0.417,0.02-0.75,0.363-0.75,0.785
			c0,0.423,0.333,0.767,0.75,0.786"/>
		<circle style="fill:none;stroke:#EC008C;stroke-width:0.43;" cx="47.444" cy="-40.06" r="0.788"/>
		<circle style="fill:none;stroke:#EC008C;stroke-width:0.43;" cx="44.463" cy="-40.06" r="0.788"/>
		<circle style="fill:none;stroke:#EC008C;stroke-width:0.43;" cx="45.982" cy="-37.66" r="0.788"/>
		<path style="fill:none;stroke:#EC008C;stroke-width:0.43;" d="M49.957-39.421c-0.417,0.019-0.75,0.364-0.75,0.786
			c0,0.422,0.333,0.766,0.75,0.785"/>
		<path style="fill:none;stroke:#EC008C;stroke-width:0.43;" d="M7.546-51.86c0,0.009-0.001,0.017-0.001,0.025
			c0,0.435,0.353,0.787,0.787,0.787c0.435,0,0.787-0.352,0.787-0.787c0-0.009-0.001-0.017-0.002-0.025"/>
		<path style="fill:none;stroke:#EC008C;stroke-width:0.43;" d="M2.614-51.86c0,0.009-0.002,0.017-0.002,0.025
			c0,0.435,0.353,0.787,0.787,0.787c0.436,0,0.788-0.352,0.788-0.787c0-0.009-0.001-0.017-0.002-0.025"/>
		<circle style="fill:none;stroke:#EC008C;stroke-width:0.43;" cx="5.857" cy="-50.41" r="0.788"/>
		<circle style="fill:none;stroke:#EC008C;stroke-width:0.43;" cx="9.869" cy="-49.435" r="0.788"/>
		<circle style="fill:none;stroke:#EC008C;stroke-width:0.43;" cx="7.319" cy="-48.01" r="0.788"/>
		<circle style="fill:none;stroke:#EC008C;stroke-width:0.43;" cx="4.338" cy="-48.01" r="0.788"/>
		<path style="fill:none;stroke:#EC008C;stroke-width:0.43;" d="M1.86-48.648c0.007,0,0.014,0.001,0.021,0.001
			c0.435,0,0.788-0.353,0.788-0.787c0-0.435-0.353-0.788-0.788-0.788c-0.007,0-0.014,0.001-0.021,0.001"/>
		<path style="fill:none;stroke:#EC008C;stroke-width:0.43;" d="M1.86-45.799c0.007,0,0.014,0.001,0.021,0.001
			c0.435,0,0.788-0.352,0.788-0.787c0-0.435-0.353-0.787-0.788-0.787c-0.007,0-0.014,0.001-0.021,0.001"/>
		<circle style="fill:none;stroke:#EC008C;stroke-width:0.43;" cx="5.857" cy="-45.61" r="0.788"/>
		<circle style="fill:none;stroke:#EC008C;stroke-width:0.43;" cx="9.869" cy="-46.585" r="0.787"/>
		<path style="fill:none;stroke:#EC008C;stroke-width:0.43;" d="M15.57-51.86c0,0.009-0.002,0.017-0.002,0.025
			c0,0.435,0.353,0.787,0.788,0.787c0.435,0,0.787-0.352,0.787-0.787c0-0.009-0.001-0.017-0.001-0.025"/>
		<path style="fill:none;stroke:#EC008C;stroke-width:0.43;" d="M10.64-51.86c0,0.009-0.001,0.017-0.001,0.025
			c0,0.435,0.352,0.787,0.787,0.787c0.435,0,0.787-0.352,0.787-0.787c0-0.009-0.001-0.017-0.002-0.025"/>
		<circle style="fill:none;stroke:#EC008C;stroke-width:0.43;" cx="13.882" cy="-50.41" r="0.788"/>
		<circle style="fill:none;stroke:#EC008C;stroke-width:0.43;" cx="17.894" cy="-49.435" r="0.787"/>
		<circle style="fill:none;stroke:#EC008C;stroke-width:0.43;" cx="15.344" cy="-48.01" r="0.788"/>
		<circle style="fill:none;stroke:#EC008C;stroke-width:0.43;" cx="12.363" cy="-48.01" r="0.787"/>
		<circle style="fill:none;stroke:#EC008C;stroke-width:0.43;" cx="13.882" cy="-45.61" r="0.788"/>
		<circle style="fill:none;stroke:#EC008C;stroke-width:0.43;" cx="17.894" cy="-46.585" r="0.787"/>
		<path style="fill:none;stroke:#EC008C;stroke-width:0.43;" d="M23.596-51.86c0,0.009-0.001,0.017-0.001,0.025
			c0,0.435,0.353,0.787,0.787,0.787c0.435,0,0.788-0.352,0.788-0.787c0-0.009-0.001-0.017-0.001-0.025"/>
		<path style="fill:none;stroke:#EC008C;stroke-width:0.43;" d="M18.664-51.86c0,0.009-0.002,0.017-0.002,0.025
			c0,0.435,0.353,0.787,0.788,0.787c0.435,0,0.787-0.352,0.787-0.787c0-0.009-0.001-0.017-0.002-0.025"/>
		<circle style="fill:none;stroke:#EC008C;stroke-width:0.43;" cx="21.906" cy="-50.41" r="0.788"/>
		<circle style="fill:none;stroke:#EC008C;stroke-width:0.43;" cx="25.919" cy="-49.435" r="0.788"/>
		<circle style="fill:none;stroke:#EC008C;stroke-width:0.43;" cx="23.369" cy="-48.01" r="0.788"/>
		<circle style="fill:none;stroke:#EC008C;stroke-width:0.43;" cx="20.388" cy="-48.01" r="0.788"/>
		<circle style="fill:none;stroke:#EC008C;stroke-width:0.43;" cx="21.906" cy="-45.61" r="0.788"/>
		<circle style="fill:none;stroke:#EC008C;stroke-width:0.43;" cx="25.919" cy="-46.585" r="0.787"/>
		<path style="fill:none;stroke:#EC008C;stroke-width:0.43;" d="M31.62-51.86c0,0.009-0.001,0.017-0.001,0.025
			c0,0.435,0.354,0.787,0.788,0.787c0.435,0,0.787-0.352,0.787-0.787c0-0.009-0.001-0.017-0.001-0.025"/>
		<path style="fill:none;stroke:#EC008C;stroke-width:0.43;" d="M26.69-51.86c-0.001,0.009-0.002,0.017-0.002,0.025
			c0,0.435,0.353,0.787,0.787,0.787c0.435,0,0.788-0.352,0.788-0.787c0-0.009-0.001-0.017-0.002-0.025"/>
		<circle style="fill:none;stroke:#EC008C;stroke-width:0.43;" cx="29.931" cy="-50.41" r="0.788"/>
		<circle style="fill:none;stroke:#EC008C;stroke-width:0.43;" cx="31.394" cy="-48.01" r="0.787"/>
		<circle style="fill:none;stroke:#EC008C;stroke-width:0.43;" cx="28.413" cy="-48.01" r="0.788"/>
		<circle style="fill:none;stroke:#EC008C;stroke-width:0.43;" cx="29.931" cy="-45.61" r="0.788"/>
		<circle style="fill:none;stroke:#EC008C;stroke-width:0.43;" cx="33.944" cy="-46.585" r="0.787"/>
		<path style="fill:none;stroke:#EC008C;stroke-width:0.43;" d="M39.646-51.86c0,0.009-0.001,0.017-0.001,0.025
			c0,0.435,0.353,0.787,0.787,0.787c0.436,0,0.788-0.352,0.788-0.787c0-0.009-0.001-0.017-0.001-0.025"/>
		<path style="fill:none;stroke:#EC008C;stroke-width:0.43;" d="M34.714-51.86c0,0.009-0.002,0.017-0.002,0.025
			c0,0.435,0.354,0.787,0.788,0.787s0.787-0.352,0.787-0.787c0-0.009-0.001-0.017-0.002-0.025"/>
		<circle style="fill:none;stroke:#EC008C;stroke-width:0.43;" cx="37.957" cy="-50.41" r="0.787"/>
		<circle style="fill:none;stroke:#EC008C;stroke-width:0.43;" cx="41.969" cy="-49.435" r="0.788"/>
		<circle style="fill:none;stroke:#EC008C;stroke-width:0.43;" cx="39.419" cy="-48.01" r="0.788"/>
		<circle style="fill:none;stroke:#EC008C;stroke-width:0.43;" cx="36.438" cy="-48.01" r="0.788"/>
		<circle style="fill:none;stroke:#EC008C;stroke-width:0.43;" cx="33.982" cy="-49.435" r="0.788"/>
		<circle style="fill:none;stroke:#EC008C;stroke-width:0.43;" cx="37.957" cy="-45.61" r="0.787"/>
		<circle style="fill:none;stroke:#EC008C;stroke-width:0.43;" cx="41.969" cy="-46.585" r="0.787"/>
		<path style="fill:none;stroke:#EC008C;stroke-width:0.43;" d="M47.671-51.86c0,0.009-0.001,0.017-0.001,0.025
			c0,0.435,0.353,0.787,0.787,0.787c0.435,0,0.787-0.352,0.787-0.787c0-0.009-0.001-0.017-0.001-0.025"/>
		<path style="fill:none;stroke:#EC008C;stroke-width:0.43;" d="M42.739-51.86c0,0.009-0.001,0.017-0.001,0.025
			c0,0.435,0.353,0.787,0.787,0.787c0.436,0,0.788-0.352,0.788-0.787c0-0.009-0.001-0.017-0.001-0.025"/>
		<circle style="fill:none;stroke:#EC008C;stroke-width:0.43;" cx="45.982" cy="-50.41" r="0.788"/>
		<path style="fill:none;stroke:#EC008C;stroke-width:0.43;" d="M49.957-50.221c-0.417,0.02-0.75,0.363-0.75,0.786
			c0,0.422,0.333,0.766,0.75,0.785"/>
		<circle style="fill:none;stroke:#EC008C;stroke-width:0.43;" cx="47.444" cy="-48.01" r="0.788"/>
		<circle style="fill:none;stroke:#EC008C;stroke-width:0.43;" cx="44.463" cy="-48.01" r="0.788"/>
		<circle style="fill:none;stroke:#EC008C;stroke-width:0.43;" cx="45.982" cy="-45.61" r="0.788"/>
		<path style="fill:none;stroke:#EC008C;stroke-width:0.43;" d="M49.957-47.37c-0.417,0.019-0.75,0.363-0.75,0.785
			c0,0.422,0.333,0.766,0.75,0.785"/>
		<path style="fill:none;stroke:#EC008C;stroke-width:0.43;" d="M44.311-4.14"/>
		<path style="fill:none;stroke:#EC008C;stroke-width:0.43;" d="M42.74-4.14"/>
	</g>
</svg>
