<svg xmlns="http://www.w3.org/2000/svg" xmlns:xlink="http://www.w3.org/1999/xlink" width="48.1" height="47.72"><defs><path id="a" d="M0 0h48.1v47.72H0z"/></defs><clipPath id="b"><use xlink:href="#a" overflow="visible"/></clipPath><circle cx="6.47" cy="39.77" r=".79" fill="none" stroke="#00AEEF" stroke-width=".43" clip-path="url(#b)"/><path fill="none" stroke="#00AEEF" stroke-width=".43" d="M5.7 47.72c0-.4.35-.74.77-.74s.77.33.8.74" clip-path="url(#b)"/><circle cx="1.54" cy="39.77" r=".79" fill="none" stroke="#00AEEF" stroke-width=".43" clip-path="url(#b)"/><path fill="none" stroke="#00AEEF" stroke-width=".43" d="M2.33 47.72v-.03a.8.8 0 0 0-.8-.8.79.79 0 0 0-.78.8v.02" clip-path="url(#b)"/><circle cx="4" cy="41.2" r=".79" fill="none" stroke="#00AEEF" stroke-width=".43" clip-path="url(#b)"/><circle cx="8.01" cy="42.18" r=".79" fill="none" stroke="#00AEEF" stroke-width=".43" clip-path="url(#b)"/><circle cx="5.46" cy="43.6" r=".79" fill="none" stroke="#00AEEF" stroke-width=".43" clip-path="url(#b)"/><circle cx="2.48" cy="43.6" r=".79" fill="none" stroke="#00AEEF" stroke-width=".43" clip-path="url(#b)"/><path fill="none" stroke="#00AEEF" stroke-width=".43" d="M0 42.96h.02a.8.8 0 0 0 .8-.78.8.8 0 0 0-.8-.8H0m0 4.42h.02c.44 0 .8-.34.8-.77s-.36-.8-.8-.8H0" clip-path="url(#b)"/><circle cx="4" cy="46" r=".79" fill="none" stroke="#00AEEF" stroke-width=".43" clip-path="url(#b)"/><circle cx="8.01" cy="45.02" r=".79" fill="none" stroke="#00AEEF" stroke-width=".43" clip-path="url(#b)"/><circle cx="14.5" cy="39.77" r=".79" fill="none" stroke="#00AEEF" stroke-width=".43" clip-path="url(#b)"/><path fill="none" stroke="#00AEEF" stroke-width=".43" d="M13.7 47.72c.03-.4.38-.74.8-.74.42 0 .76.33.78.74" clip-path="url(#b)"/><circle cx="9.56" cy="39.77" r=".79" fill="none" stroke="#00AEEF" stroke-width=".43" clip-path="url(#b)"/><path fill="none" stroke="#00AEEF" stroke-width=".43" d="M10.35 47.72v-.03c0-.45-.35-.8-.78-.8s-.8.35-.8.8v.02" clip-path="url(#b)"/><circle cx="12.02" cy="41.2" r=".79" fill="none" stroke="#00AEEF" stroke-width=".43" clip-path="url(#b)"/><circle cx="16.03" cy="42.18" r=".79" fill="none" stroke="#00AEEF" stroke-width=".43" clip-path="url(#b)"/><circle cx="13.48" cy="43.6" r=".79" fill="none" stroke="#00AEEF" stroke-width=".43" clip-path="url(#b)"/><circle cx="10.5" cy="43.6" r=".79" fill="none" stroke="#00AEEF" stroke-width=".43" clip-path="url(#b)"/><circle cx="12.02" cy="46" r=".79" fill="none" stroke="#00AEEF" stroke-width=".43" clip-path="url(#b)"/><circle cx="16.03" cy="45.02" r=".79" fill="none" stroke="#00AEEF" stroke-width=".43" clip-path="url(#b)"/><circle cx="22.52" cy="39.77" r=".79" fill="none" stroke="#00AEEF" stroke-width=".43" clip-path="url(#b)"/><path fill="none" stroke="#00AEEF" stroke-width=".43" d="M21.74 47.72c.02-.4.36-.74.78-.74s.77.33.8.74" clip-path="url(#b)"/><circle cx="17.59" cy="39.77" r=".79" fill="none" stroke="#00AEEF" stroke-width=".43" clip-path="url(#b)"/><path fill="none" stroke="#00AEEF" stroke-width=".43" d="M18.38 47.72v-.03a.79.79 0 1 0-1.58 0v.02" clip-path="url(#b)"/><circle cx="20.05" cy="41.2" r=".79" fill="none" stroke="#00AEEF" stroke-width=".43" clip-path="url(#b)"/><circle cx="24.06" cy="42.18" r=".79" fill="none" stroke="#00AEEF" stroke-width=".43" clip-path="url(#b)"/><circle cx="21.51" cy="43.6" r=".79" fill="none" stroke="#00AEEF" stroke-width=".43" clip-path="url(#b)"/><circle cx="18.53" cy="43.6" r=".79" fill="none" stroke="#00AEEF" stroke-width=".43" clip-path="url(#b)"/><circle cx="20.05" cy="46" r=".79" fill="none" stroke="#00AEEF" stroke-width=".43" clip-path="url(#b)"/><circle cx="24.06" cy="45.02" r=".79" fill="none" stroke="#00AEEF" stroke-width=".43" clip-path="url(#b)"/><circle cx="30.55" cy="39.77" r=".79" fill="none" stroke="#00AEEF" stroke-width=".43" clip-path="url(#b)"/><path fill="none" stroke="#00AEEF" stroke-width=".43" d="M29.76 47.72c.02-.4.37-.74.8-.74s.75.33.77.74" clip-path="url(#b)"/><circle cx="25.62" cy="39.77" r=".79" fill="none" stroke="#00AEEF" stroke-width=".43" clip-path="url(#b)"/><path fill="none" stroke="#00AEEF" stroke-width=".43" d="M26.4 47.72v-.03c0-.45-.35-.8-.78-.8s-.8.35-.8.8v.02" clip-path="url(#b)"/><circle cx="28.07" cy="41.2" r=".79" fill="none" stroke="#00AEEF" stroke-width=".43" clip-path="url(#b)"/><circle cx="32.08" cy="42.18" r=".79" fill="none" stroke="#00AEEF" stroke-width=".43" clip-path="url(#b)"/><circle cx="29.53" cy="43.6" r=".79" fill="none" stroke="#00AEEF" stroke-width=".43" clip-path="url(#b)"/><circle cx="26.55" cy="43.6" r=".79" fill="none" stroke="#00AEEF" stroke-width=".43" clip-path="url(#b)"/><circle cx="28.07" cy="46" r=".79" fill="none" stroke="#00AEEF" stroke-width=".43" clip-path="url(#b)"/><circle cx="32.08" cy="45.02" r=".79" fill="none" stroke="#00AEEF" stroke-width=".43" clip-path="url(#b)"/><circle cx="38.57" cy="39.77" r=".79" fill="none" stroke="#00AEEF" stroke-width=".43" clip-path="url(#b)"/><path fill="none" stroke="#00AEEF" stroke-width=".43" d="M37.8 47.72c0-.4.35-.74.77-.74.42 0 .76.33.8.74" clip-path="url(#b)"/><circle cx="33.64" cy="39.77" r=".79" fill="none" stroke="#00AEEF" stroke-width=".43" clip-path="url(#b)"/><path fill="none" stroke="#00AEEF" stroke-width=".43" d="M34.43 47.72v-.03c0-.45-.35-.8-.8-.8s-.78.35-.78.8v.02" clip-path="url(#b)"/><circle cx="36.1" cy="41.2" r=".79" fill="none" stroke="#00AEEF" stroke-width=".43" clip-path="url(#b)"/><circle cx="40.11" cy="42.18" r=".79" fill="none" stroke="#00AEEF" stroke-width=".43" clip-path="url(#b)"/><circle cx="37.56" cy="43.6" r=".79" fill="none" stroke="#00AEEF" stroke-width=".43" clip-path="url(#b)"/><circle cx="34.58" cy="43.6" r=".79" fill="none" stroke="#00AEEF" stroke-width=".43" clip-path="url(#b)"/><circle cx="36.1" cy="46" r=".79" fill="none" stroke="#00AEEF" stroke-width=".43" clip-path="url(#b)"/><circle cx="40.11" cy="45.02" r=".79" fill="none" stroke="#00AEEF" stroke-width=".43" clip-path="url(#b)"/><circle cx="46.6" cy="39.77" r=".79" fill="none" stroke="#00AEEF" stroke-width=".43" clip-path="url(#b)"/><path fill="none" stroke="#00AEEF" stroke-width=".43" d="M45.8 47.72c.03-.4.38-.74.8-.74s.76.33.78.74" clip-path="url(#b)"/><circle cx="41.67" cy="39.77" r=".79" fill="none" stroke="#00AEEF" stroke-width=".43" clip-path="url(#b)"/><path fill="none" stroke="#00AEEF" stroke-width=".43" d="M42.45 47.72v-.03c0-.45-.35-.8-.78-.8a.8.8 0 0 0-.8.8v.02" clip-path="url(#b)"/><circle cx="44.12" cy="41.2" r=".79" fill="none" stroke="#00AEEF" stroke-width=".43" clip-path="url(#b)"/><path fill="none" stroke="#00AEEF" stroke-width=".43" d="M48.1 41.4a.76.76 0 0 0-.75.78c0 .42.33.76.75.78" clip-path="url(#b)"/><circle cx="45.58" cy="43.6" r=".79" fill="none" stroke="#00AEEF" stroke-width=".43" clip-path="url(#b)"/><circle cx="42.6" cy="43.6" r=".79" fill="none" stroke="#00AEEF" stroke-width=".43" clip-path="url(#b)"/><circle cx="44.12" cy="46" r=".79" fill="none" stroke="#00AEEF" stroke-width=".43" clip-path="url(#b)"/><path fill="none" stroke="#00AEEF" stroke-width=".43" d="M48.1 44.24c-.42.02-.75.36-.75.79s.33.76.75.78" clip-path="url(#b)"/><circle cx="6.47" cy="31.83" r=".79" fill="none" stroke="#00AEEF" stroke-width=".43" clip-path="url(#b)"/><circle cx="1.54" cy="31.82" r=".79" fill="none" stroke="#00AEEF" stroke-width=".43" clip-path="url(#b)"/><circle cx="4" cy="33.25" r=".79" fill="none" stroke="#00AEEF" stroke-width=".43" clip-path="url(#b)"/><circle cx="8.01" cy="34.23" r=".79" fill="none" stroke="#00AEEF" stroke-width=".43" clip-path="url(#b)"/><circle cx="5.46" cy="35.65" r=".79" fill="none" stroke="#00AEEF" stroke-width=".43" clip-path="url(#b)"/><circle cx="2.48" cy="35.65" r=".79" fill="none" stroke="#00AEEF" stroke-width=".43" clip-path="url(#b)"/><path fill="none" stroke="#00AEEF" stroke-width=".43" d="M0 35h.02c.44 0 .8-.34.8-.77s-.36-.8-.8-.8H0m0 4.43h.02c.44 0 .8-.35.8-.78s-.36-.8-.8-.8H0" clip-path="url(#b)"/><circle cx="4" cy="38.05" r=".79" fill="none" stroke="#00AEEF" stroke-width=".43" clip-path="url(#b)"/><circle cx="8.01" cy="37.08" r=".79" fill="none" stroke="#00AEEF" stroke-width=".43" clip-path="url(#b)"/><circle cx="14.5" cy="31.83" r=".79" fill="none" stroke="#00AEEF" stroke-width=".43" clip-path="url(#b)"/><circle cx="9.56" cy="31.83" r=".79" fill="none" stroke="#00AEEF" stroke-width=".43" clip-path="url(#b)"/><circle cx="12.02" cy="33.25" r=".79" fill="none" stroke="#00AEEF" stroke-width=".43" clip-path="url(#b)"/><circle cx="16.03" cy="34.23" r=".79" fill="none" stroke="#00AEEF" stroke-width=".43" clip-path="url(#b)"/><circle cx="13.48" cy="35.65" r=".79" fill="none" stroke="#00AEEF" stroke-width=".43" clip-path="url(#b)"/><circle cx="10.5" cy="35.65" r=".79" fill="none" stroke="#00AEEF" stroke-width=".43" clip-path="url(#b)"/><circle cx="12.02" cy="38.05" r=".79" fill="none" stroke="#00AEEF" stroke-width=".43" clip-path="url(#b)"/><circle cx="16.03" cy="37.08" r=".79" fill="none" stroke="#00AEEF" stroke-width=".43" clip-path="url(#b)"/><circle cx="22.52" cy="31.83" r=".79" fill="none" stroke="#00AEEF" stroke-width=".43" clip-path="url(#b)"/><circle cx="17.59" cy="31.83" r=".79" fill="none" stroke="#00AEEF" stroke-width=".43" clip-path="url(#b)"/><circle cx="20.05" cy="33.25" r=".79" fill="none" stroke="#00AEEF" stroke-width=".43" clip-path="url(#b)"/><circle cx="24.06" cy="34.23" r=".79" fill="none" stroke="#00AEEF" stroke-width=".43" clip-path="url(#b)"/><circle cx="21.51" cy="35.65" r=".79" fill="none" stroke="#00AEEF" stroke-width=".43" clip-path="url(#b)"/><circle cx="18.53" cy="35.65" r=".79" fill="none" stroke="#00AEEF" stroke-width=".43" clip-path="url(#b)"/><circle cx="20.05" cy="38.05" r=".79" fill="none" stroke="#00AEEF" stroke-width=".43" clip-path="url(#b)"/><circle cx="24.06" cy="37.08" r=".79" fill="none" stroke="#00AEEF" stroke-width=".43" clip-path="url(#b)"/><circle cx="30.55" cy="31.83" r=".79" fill="none" stroke="#00AEEF" stroke-width=".43" clip-path="url(#b)"/><circle cx="25.61" cy="31.83" r=".79" fill="none" stroke="#00AEEF" stroke-width=".43" clip-path="url(#b)"/><circle cx="28.07" cy="33.25" r=".79" fill="none" stroke="#00AEEF" stroke-width=".43" clip-path="url(#b)"/><circle cx="32.08" cy="34.23" r=".79" fill="none" stroke="#00AEEF" stroke-width=".43" clip-path="url(#b)"/><circle cx="29.53" cy="35.65" r=".79" fill="none" stroke="#00AEEF" stroke-width=".43" clip-path="url(#b)"/><circle cx="26.55" cy="35.65" r=".79" fill="none" stroke="#00AEEF" stroke-width=".43" clip-path="url(#b)"/><circle cx="28.07" cy="38.05" r=".79" fill="none" stroke="#00AEEF" stroke-width=".43" clip-path="url(#b)"/><circle cx="32.08" cy="37.08" r=".79" fill="none" stroke="#00AEEF" stroke-width=".43" clip-path="url(#b)"/><circle cx="38.57" cy="31.83" r=".79" fill="none" stroke="#00AEEF" stroke-width=".43" clip-path="url(#b)"/><circle cx="33.64" cy="31.83" r=".79" fill="none" stroke="#00AEEF" stroke-width=".43" clip-path="url(#b)"/><circle cx="36.1" cy="33.25" r=".79" fill="none" stroke="#00AEEF" stroke-width=".43" clip-path="url(#b)"/><circle cx="40.11" cy="34.23" r=".79" fill="none" stroke="#00AEEF" stroke-width=".43" clip-path="url(#b)"/><circle cx="37.56" cy="35.65" r=".79" fill="none" stroke="#00AEEF" stroke-width=".43" clip-path="url(#b)"/><circle cx="34.58" cy="35.65" r=".79" fill="none" stroke="#00AEEF" stroke-width=".43" clip-path="url(#b)"/><circle cx="36.1" cy="38.05" r=".79" fill="none" stroke="#00AEEF" stroke-width=".43" clip-path="url(#b)"/><circle cx="40.11" cy="37.08" r=".79" fill="none" stroke="#00AEEF" stroke-width=".43" clip-path="url(#b)"/><circle cx="46.6" cy="31.83" r=".79" fill="none" stroke="#00AEEF" stroke-width=".43" clip-path="url(#b)"/><circle cx="41.66" cy="31.83" r=".79" fill="none" stroke="#00AEEF" stroke-width=".43" clip-path="url(#b)"/><circle cx="44.12" cy="33.25" r=".79" fill="none" stroke="#00AEEF" stroke-width=".43" clip-path="url(#b)"/><path fill="none" stroke="#00AEEF" stroke-width=".43" d="M48.1 33.44c-.42.02-.75.36-.75.8s.33.75.75.77" clip-path="url(#b)"/><circle cx="45.58" cy="35.65" r=".79" fill="none" stroke="#00AEEF" stroke-width=".43" clip-path="url(#b)"/><circle cx="42.6" cy="35.65" r=".79" fill="none" stroke="#00AEEF" stroke-width=".43" clip-path="url(#b)"/><circle cx="44.12" cy="38.05" r=".79" fill="none" stroke="#00AEEF" stroke-width=".43" clip-path="url(#b)"/><path fill="none" stroke="#00AEEF" stroke-width=".43" d="M48.1 36.3c-.42 0-.75.35-.75.78s.33.76.75.78" clip-path="url(#b)"/><circle cx="6.47" cy="23.88" r=".79" fill="none" stroke="#00AEEF" stroke-width=".43" clip-path="url(#b)"/><circle cx="1.54" cy="23.88" r=".79" fill="none" stroke="#00AEEF" stroke-width=".43" clip-path="url(#b)"/><circle cx="4" cy="25.3" r=".79" fill="none" stroke="#00AEEF" stroke-width=".43" clip-path="url(#b)"/><circle cx="8.01" cy="26.27" r=".79" fill="none" stroke="#00AEEF" stroke-width=".43" clip-path="url(#b)"/><circle cx="5.46" cy="27.7" r=".79" fill="none" stroke="#00AEEF" stroke-width=".43" clip-path="url(#b)"/><circle cx="2.48" cy="27.7" r=".79" fill="none" stroke="#00AEEF" stroke-width=".43" clip-path="url(#b)"/><path fill="none" stroke="#00AEEF" stroke-width=".43" d="M0 27.06h.02c.44 0 .8-.35.8-.78s-.36-.8-.8-.8H0m0 4.42h.02c.44 0 .8-.34.8-.77a.8.8 0 0 0-.8-.8H0" clip-path="url(#b)"/><circle cx="4" cy="30.1" r=".79" fill="none" stroke="#00AEEF" stroke-width=".43" clip-path="url(#b)"/><circle cx="8.01" cy="29.13" r=".79" fill="none" stroke="#00AEEF" stroke-width=".43" clip-path="url(#b)"/><circle cx="14.5" cy="23.88" r=".79" fill="none" stroke="#00AEEF" stroke-width=".43" clip-path="url(#b)"/><circle cx="9.56" cy="23.88" r=".79" fill="none" stroke="#00AEEF" stroke-width=".43" clip-path="url(#b)"/><circle cx="12.02" cy="25.3" r=".79" fill="none" stroke="#00AEEF" stroke-width=".43" clip-path="url(#b)"/><circle cx="16.03" cy="26.27" r=".79" fill="none" stroke="#00AEEF" stroke-width=".43" clip-path="url(#b)"/><circle cx="13.48" cy="27.7" r=".79" fill="none" stroke="#00AEEF" stroke-width=".43" clip-path="url(#b)"/><circle cx="10.5" cy="27.7" r=".79" fill="none" stroke="#00AEEF" stroke-width=".43" clip-path="url(#b)"/><circle cx="12.02" cy="30.1" r=".79" fill="none" stroke="#00AEEF" stroke-width=".43" clip-path="url(#b)"/><circle cx="16.03" cy="29.13" r=".79" fill="none" stroke="#00AEEF" stroke-width=".43" clip-path="url(#b)"/><circle cx="22.52" cy="23.88" r=".79" fill="none" stroke="#00AEEF" stroke-width=".43" clip-path="url(#b)"/><circle cx="17.59" cy="23.88" r=".79" fill="none" stroke="#00AEEF" stroke-width=".43" clip-path="url(#b)"/><circle cx="20.05" cy="25.3" r=".79" fill="none" stroke="#00AEEF" stroke-width=".43" clip-path="url(#b)"/><circle cx="24.06" cy="26.27" r=".79" fill="none" stroke="#00AEEF" stroke-width=".43" clip-path="url(#b)"/><circle cx="21.51" cy="27.7" r=".79" fill="none" stroke="#00AEEF" stroke-width=".43" clip-path="url(#b)"/><circle cx="18.53" cy="27.7" r=".79" fill="none" stroke="#00AEEF" stroke-width=".43" clip-path="url(#b)"/><circle cx="20.05" cy="30.1" r=".79" fill="none" stroke="#00AEEF" stroke-width=".43" clip-path="url(#b)"/><circle cx="24.06" cy="29.13" r=".79" fill="none" stroke="#00AEEF" stroke-width=".43" clip-path="url(#b)"/><circle cx="30.55" cy="23.88" r=".79" fill="none" stroke="#00AEEF" stroke-width=".43" clip-path="url(#b)"/><circle cx="25.61" cy="23.88" r=".79" fill="none" stroke="#00AEEF" stroke-width=".43" clip-path="url(#b)"/><circle cx="28.07" cy="25.3" r=".79" fill="none" stroke="#00AEEF" stroke-width=".43" clip-path="url(#b)"/><circle cx="32.08" cy="26.27" r=".79" fill="none" stroke="#00AEEF" stroke-width=".43" clip-path="url(#b)"/><circle cx="29.53" cy="27.7" r=".79" fill="none" stroke="#00AEEF" stroke-width=".43" clip-path="url(#b)"/><circle cx="26.55" cy="27.7" r=".79" fill="none" stroke="#00AEEF" stroke-width=".43" clip-path="url(#b)"/><circle cx="28.07" cy="30.1" r=".79" fill="none" stroke="#00AEEF" stroke-width=".43" clip-path="url(#b)"/><circle cx="32.08" cy="29.13" r=".79" fill="none" stroke="#00AEEF" stroke-width=".43" clip-path="url(#b)"/><circle cx="38.57" cy="23.88" r=".79" fill="none" stroke="#00AEEF" stroke-width=".43" clip-path="url(#b)"/><circle cx="33.64" cy="23.88" r=".79" fill="none" stroke="#00AEEF" stroke-width=".43" clip-path="url(#b)"/><circle cx="36.1" cy="25.3" r=".79" fill="none" stroke="#00AEEF" stroke-width=".43" clip-path="url(#b)"/><circle cx="40.11" cy="26.27" r=".79" fill="none" stroke="#00AEEF" stroke-width=".43" clip-path="url(#b)"/><circle cx="37.56" cy="27.7" r=".79" fill="none" stroke="#00AEEF" stroke-width=".43" clip-path="url(#b)"/><circle cx="34.58" cy="27.7" r=".79" fill="none" stroke="#00AEEF" stroke-width=".43" clip-path="url(#b)"/><circle cx="36.1" cy="30.1" r=".79" fill="none" stroke="#00AEEF" stroke-width=".43" clip-path="url(#b)"/><circle cx="40.11" cy="29.13" r=".79" fill="none" stroke="#00AEEF" stroke-width=".43" clip-path="url(#b)"/><circle cx="46.6" cy="23.88" r=".79" fill="none" stroke="#00AEEF" stroke-width=".43" clip-path="url(#b)"/><circle cx="41.66" cy="23.88" r=".79" fill="none" stroke="#00AEEF" stroke-width=".43" clip-path="url(#b)"/><circle cx="44.12" cy="25.3" r=".79" fill="none" stroke="#00AEEF" stroke-width=".43" clip-path="url(#b)"/><path fill="none" stroke="#00AEEF" stroke-width=".43" d="M48.1 25.5c-.42 0-.75.35-.75.77s.33.77.75.8" clip-path="url(#b)"/><circle cx="45.58" cy="27.7" r=".79" fill="none" stroke="#00AEEF" stroke-width=".43" clip-path="url(#b)"/><circle cx="42.6" cy="27.7" r=".79" fill="none" stroke="#00AEEF" stroke-width=".43" clip-path="url(#b)"/><circle cx="44.12" cy="30.1" r=".79" fill="none" stroke="#00AEEF" stroke-width=".43" clip-path="url(#b)"/><path fill="none" stroke="#00AEEF" stroke-width=".43" d="M48.1 28.34a.78.78 0 0 0 0 1.57" clip-path="url(#b)"/><circle cx="6.47" cy="15.93" r=".79" fill="none" stroke="#00AEEF" stroke-width=".43" clip-path="url(#b)"/><circle cx="1.54" cy="15.93" r=".79" fill="none" stroke="#00AEEF" stroke-width=".43" clip-path="url(#b)"/><circle cx="4" cy="17.35" r=".79" fill="none" stroke="#00AEEF" stroke-width=".43" clip-path="url(#b)"/><circle cx="8.01" cy="18.32" r=".79" fill="none" stroke="#00AEEF" stroke-width=".43" clip-path="url(#b)"/><circle cx="5.46" cy="19.75" r=".79" fill="none" stroke="#00AEEF" stroke-width=".43" clip-path="url(#b)"/><circle cx="2.48" cy="19.75" r=".79" fill="none" stroke="#00AEEF" stroke-width=".43" clip-path="url(#b)"/><path fill="none" stroke="#00AEEF" stroke-width=".43" d="M0 19.1h.02c.44 0 .8-.34.8-.78s-.36-.78-.8-.78H0m0 4.42h.02a.8.8 0 0 0 .8-.78.8.8 0 0 0-.8-.8H0" clip-path="url(#b)"/><circle cx="4" cy="22.15" r=".79" fill="none" stroke="#00AEEF" stroke-width=".43" clip-path="url(#b)"/><circle cx="8.01" cy="21.18" r=".79" fill="none" stroke="#00AEEF" stroke-width=".43" clip-path="url(#b)"/><circle cx="14.5" cy="15.93" r=".79" fill="none" stroke="#00AEEF" stroke-width=".43" clip-path="url(#b)"/><circle cx="9.56" cy="15.93" r=".79" fill="none" stroke="#00AEEF" stroke-width=".43" clip-path="url(#b)"/><circle cx="12.02" cy="17.35" r=".79" fill="none" stroke="#00AEEF" stroke-width=".43" clip-path="url(#b)"/><circle cx="16.03" cy="18.32" r=".79" fill="none" stroke="#00AEEF" stroke-width=".43" clip-path="url(#b)"/><circle cx="13.48" cy="19.75" r=".79" fill="none" stroke="#00AEEF" stroke-width=".43" clip-path="url(#b)"/><circle cx="10.5" cy="19.75" r=".79" fill="none" stroke="#00AEEF" stroke-width=".43" clip-path="url(#b)"/><circle cx="12.02" cy="22.15" r=".79" fill="none" stroke="#00AEEF" stroke-width=".43" clip-path="url(#b)"/><circle cx="16.03" cy="21.18" r=".79" fill="none" stroke="#00AEEF" stroke-width=".43" clip-path="url(#b)"/><circle cx="22.52" cy="15.93" r=".79" fill="none" stroke="#00AEEF" stroke-width=".43" clip-path="url(#b)"/><circle cx="17.59" cy="15.93" r=".79" fill="none" stroke="#00AEEF" stroke-width=".43" clip-path="url(#b)"/><circle cx="20.05" cy="17.35" r=".79" fill="none" stroke="#00AEEF" stroke-width=".43" clip-path="url(#b)"/><circle cx="24.06" cy="18.32" r=".79" fill="none" stroke="#00AEEF" stroke-width=".43" clip-path="url(#b)"/><circle cx="21.51" cy="19.75" r=".79" fill="none" stroke="#00AEEF" stroke-width=".43" clip-path="url(#b)"/><circle cx="18.53" cy="19.75" r=".79" fill="none" stroke="#00AEEF" stroke-width=".43" clip-path="url(#b)"/><circle cx="20.05" cy="22.15" r=".79" fill="none" stroke="#00AEEF" stroke-width=".43" clip-path="url(#b)"/><circle cx="24.06" cy="21.18" r=".79" fill="none" stroke="#00AEEF" stroke-width=".43" clip-path="url(#b)"/><circle cx="30.55" cy="15.93" r=".79" fill="none" stroke="#00AEEF" stroke-width=".43" clip-path="url(#b)"/><circle cx="25.61" cy="15.93" r=".79" fill="none" stroke="#00AEEF" stroke-width=".43" clip-path="url(#b)"/><circle cx="28.07" cy="17.35" r=".79" fill="none" stroke="#00AEEF" stroke-width=".43" clip-path="url(#b)"/><circle cx="32.08" cy="18.32" r=".79" fill="none" stroke="#00AEEF" stroke-width=".43" clip-path="url(#b)"/><circle cx="29.53" cy="19.75" r=".79" fill="none" stroke="#00AEEF" stroke-width=".43" clip-path="url(#b)"/><circle cx="26.55" cy="19.75" r=".79" fill="none" stroke="#00AEEF" stroke-width=".43" clip-path="url(#b)"/><circle cx="28.07" cy="22.15" r=".79" fill="none" stroke="#00AEEF" stroke-width=".43" clip-path="url(#b)"/><circle cx="32.08" cy="21.18" r=".79" fill="none" stroke="#00AEEF" stroke-width=".43" clip-path="url(#b)"/><circle cx="38.57" cy="15.93" r=".79" fill="none" stroke="#00AEEF" stroke-width=".43" clip-path="url(#b)"/><circle cx="33.64" cy="15.93" r=".79" fill="none" stroke="#00AEEF" stroke-width=".43" clip-path="url(#b)"/><circle cx="36.1" cy="17.35" r=".79" fill="none" stroke="#00AEEF" stroke-width=".43" clip-path="url(#b)"/><circle cx="40.11" cy="18.32" r=".79" fill="none" stroke="#00AEEF" stroke-width=".43" clip-path="url(#b)"/><circle cx="37.56" cy="19.75" r=".79" fill="none" stroke="#00AEEF" stroke-width=".43" clip-path="url(#b)"/><circle cx="34.58" cy="19.75" r=".79" fill="none" stroke="#00AEEF" stroke-width=".43" clip-path="url(#b)"/><circle cx="36.1" cy="22.15" r=".79" fill="none" stroke="#00AEEF" stroke-width=".43" clip-path="url(#b)"/><circle cx="40.11" cy="21.18" r=".79" fill="none" stroke="#00AEEF" stroke-width=".43" clip-path="url(#b)"/><circle cx="46.6" cy="15.93" r=".79" fill="none" stroke="#00AEEF" stroke-width=".43" clip-path="url(#b)"/><circle cx="41.66" cy="15.93" r=".79" fill="none" stroke="#00AEEF" stroke-width=".43" clip-path="url(#b)"/><circle cx="44.12" cy="17.35" r=".79" fill="none" stroke="#00AEEF" stroke-width=".43" clip-path="url(#b)"/><path fill="none" stroke="#00AEEF" stroke-width=".43" d="M48.1 17.54c-.42.02-.75.36-.75.79s.33.76.75.78" clip-path="url(#b)"/><circle cx="45.58" cy="19.75" r=".79" fill="none" stroke="#00AEEF" stroke-width=".43" clip-path="url(#b)"/><circle cx="42.6" cy="19.75" r=".79" fill="none" stroke="#00AEEF" stroke-width=".43" clip-path="url(#b)"/><circle cx="44.12" cy="22.15" r=".79" fill="none" stroke="#00AEEF" stroke-width=".43" clip-path="url(#b)"/><path fill="none" stroke="#00AEEF" stroke-width=".43" d="M48.1 20.4a.76.76 0 0 0-.75.78c0 .42.33.76.75.78" clip-path="url(#b)"/><circle cx="6.47" cy="7.97" r=".79" fill="none" stroke="#00AEEF" stroke-width=".43" clip-path="url(#b)"/><circle cx="1.54" cy="7.97" r=".79" fill="none" stroke="#00AEEF" stroke-width=".43" clip-path="url(#b)"/><circle cx="4" cy="9.4" r=".79" fill="none" stroke="#00AEEF" stroke-width=".43" clip-path="url(#b)"/><circle cx="8.01" cy="10.38" r=".79" fill="none" stroke="#00AEEF" stroke-width=".43" clip-path="url(#b)"/><circle cx="5.46" cy="11.8" r=".79" fill="none" stroke="#00AEEF" stroke-width=".43" clip-path="url(#b)"/><circle cx="2.48" cy="11.8" r=".79" fill="none" stroke="#00AEEF" stroke-width=".43" clip-path="url(#b)"/><path fill="none" stroke="#00AEEF" stroke-width=".43" d="M0 11.16h.02a.8.8 0 0 0 .8-.78.8.8 0 0 0-.8-.8H0M0 14h.02c.44 0 .8-.34.8-.77s-.36-.8-.8-.8H0" clip-path="url(#b)"/><circle cx="4" cy="14.2" r=".79" fill="none" stroke="#00AEEF" stroke-width=".43" clip-path="url(#b)"/><circle cx="8.01" cy="13.23" r=".79" fill="none" stroke="#00AEEF" stroke-width=".43" clip-path="url(#b)"/><circle cx="14.5" cy="7.97" r=".79" fill="none" stroke="#00AEEF" stroke-width=".43" clip-path="url(#b)"/><circle cx="9.56" cy="7.97" r=".79" fill="none" stroke="#00AEEF" stroke-width=".43" clip-path="url(#b)"/><circle cx="12.02" cy="9.4" r=".79" fill="none" stroke="#00AEEF" stroke-width=".43" clip-path="url(#b)"/><circle cx="16.03" cy="10.38" r=".79" fill="none" stroke="#00AEEF" stroke-width=".43" clip-path="url(#b)"/><circle cx="13.48" cy="11.8" r=".79" fill="none" stroke="#00AEEF" stroke-width=".43" clip-path="url(#b)"/><circle cx="10.5" cy="11.8" r=".79" fill="none" stroke="#00AEEF" stroke-width=".43" clip-path="url(#b)"/><circle cx="12.02" cy="14.2" r=".79" fill="none" stroke="#00AEEF" stroke-width=".43" clip-path="url(#b)"/><circle cx="16.03" cy="13.23" r=".79" fill="none" stroke="#00AEEF" stroke-width=".43" clip-path="url(#b)"/><circle cx="22.52" cy="7.97" r=".79" fill="none" stroke="#00AEEF" stroke-width=".43" clip-path="url(#b)"/><circle cx="17.59" cy="7.97" r=".79" fill="none" stroke="#00AEEF" stroke-width=".43" clip-path="url(#b)"/><circle cx="20.05" cy="9.4" r=".79" fill="none" stroke="#00AEEF" stroke-width=".43" clip-path="url(#b)"/><circle cx="24.06" cy="10.38" r=".79" fill="none" stroke="#00AEEF" stroke-width=".43" clip-path="url(#b)"/><circle cx="21.51" cy="11.8" r=".79" fill="none" stroke="#00AEEF" stroke-width=".43" clip-path="url(#b)"/><circle cx="18.53" cy="11.8" r=".79" fill="none" stroke="#00AEEF" stroke-width=".43" clip-path="url(#b)"/><circle cx="20.05" cy="14.2" r=".79" fill="none" stroke="#00AEEF" stroke-width=".43" clip-path="url(#b)"/><circle cx="24.06" cy="13.23" r=".79" fill="none" stroke="#00AEEF" stroke-width=".43" clip-path="url(#b)"/><circle cx="30.55" cy="7.97" r=".79" fill="none" stroke="#00AEEF" stroke-width=".43" clip-path="url(#b)"/><circle cx="25.61" cy="7.97" r=".79" fill="none" stroke="#00AEEF" stroke-width=".43" clip-path="url(#b)"/><circle cx="28.07" cy="9.4" r=".79" fill="none" stroke="#00AEEF" stroke-width=".43" clip-path="url(#b)"/><circle cx="32.08" cy="10.38" r=".79" fill="none" stroke="#00AEEF" stroke-width=".43" clip-path="url(#b)"/><circle cx="29.53" cy="11.8" r=".79" fill="none" stroke="#00AEEF" stroke-width=".43" clip-path="url(#b)"/><circle cx="26.55" cy="11.8" r=".79" fill="none" stroke="#00AEEF" stroke-width=".43" clip-path="url(#b)"/><circle cx="28.07" cy="14.2" r=".79" fill="none" stroke="#00AEEF" stroke-width=".43" clip-path="url(#b)"/><circle cx="32.08" cy="13.23" r=".79" fill="none" stroke="#00AEEF" stroke-width=".43" clip-path="url(#b)"/><circle cx="38.57" cy="7.97" r=".79" fill="none" stroke="#00AEEF" stroke-width=".43" clip-path="url(#b)"/><circle cx="33.64" cy="7.97" r=".79" fill="none" stroke="#00AEEF" stroke-width=".43" clip-path="url(#b)"/><circle cx="36.1" cy="9.4" r=".79" fill="none" stroke="#00AEEF" stroke-width=".43" clip-path="url(#b)"/><circle cx="40.11" cy="10.38" r=".79" fill="none" stroke="#00AEEF" stroke-width=".43" clip-path="url(#b)"/><circle cx="37.56" cy="11.8" r=".79" fill="none" stroke="#00AEEF" stroke-width=".43" clip-path="url(#b)"/><circle cx="34.58" cy="11.8" r=".79" fill="none" stroke="#00AEEF" stroke-width=".43" clip-path="url(#b)"/><circle cx="36.1" cy="14.2" r=".79" fill="none" stroke="#00AEEF" stroke-width=".43" clip-path="url(#b)"/><circle cx="40.11" cy="13.23" r=".79" fill="none" stroke="#00AEEF" stroke-width=".43" clip-path="url(#b)"/><circle cx="46.6" cy="7.97" r=".79" fill="none" stroke="#00AEEF" stroke-width=".43" clip-path="url(#b)"/><circle cx="41.66" cy="7.97" r=".79" fill="none" stroke="#00AEEF" stroke-width=".43" clip-path="url(#b)"/><circle cx="44.12" cy="9.4" r=".79" fill="none" stroke="#00AEEF" stroke-width=".43" clip-path="url(#b)"/><path fill="none" stroke="#00AEEF" stroke-width=".43" d="M48.1 9.6a.76.76 0 0 0-.75.78c0 .42.33.76.75.78" clip-path="url(#b)"/><circle cx="45.58" cy="11.8" r=".79" fill="none" stroke="#00AEEF" stroke-width=".43" clip-path="url(#b)"/><circle cx="42.6" cy="11.8" r=".79" fill="none" stroke="#00AEEF" stroke-width=".43" clip-path="url(#b)"/><circle cx="44.12" cy="14.2" r=".79" fill="none" stroke="#00AEEF" stroke-width=".43" clip-path="url(#b)"/><path fill="none" stroke="#00AEEF" stroke-width=".43" d="M48.1 12.44c-.42.02-.75.36-.75.8s.33.75.75.77M5.7 0l-.02.03c0 .43.36.78.8.78s.78-.34.78-.78V.01M.75 0v.03c0 .43.36.78.8.78.43 0 .78-.34.78-.78V.01" clip-path="url(#b)"/><circle cx="4" cy="1.45" r=".79" fill="none" stroke="#00AEEF" stroke-width=".43" clip-path="url(#b)"/><circle cx="8.01" cy="2.43" r=".79" fill="none" stroke="#00AEEF" stroke-width=".43" clip-path="url(#b)"/><circle cx="5.46" cy="3.85" r=".79" fill="none" stroke="#00AEEF" stroke-width=".43" clip-path="url(#b)"/><circle cx="2.48" cy="3.85" r=".79" fill="none" stroke="#00AEEF" stroke-width=".43" clip-path="url(#b)"/><path fill="none" stroke="#00AEEF" stroke-width=".43" d="M0 3.2h.02c.44 0 .8-.34.8-.77a.8.8 0 0 0-.8-.8H0m0 4.43h.02c.44 0 .8-.35.8-.78s-.36-.8-.8-.8H0" clip-path="url(#b)"/><circle cx="4" cy="6.25" r=".79" fill="none" stroke="#00AEEF" stroke-width=".43" clip-path="url(#b)"/><circle cx="8.01" cy="5.28" r=".79" fill="none" stroke="#00AEEF" stroke-width=".43" clip-path="url(#b)"/><path fill="none" stroke="#00AEEF" stroke-width=".43" d="M13.7 0v.03c0 .43.36.78.8.78.43 0 .78-.34.78-.78V.01M8.78 0v.03c0 .43.35.78.8.78s.77-.34.77-.78V.01" clip-path="url(#b)"/><circle cx="12.02" cy="1.45" r=".79" fill="none" stroke="#00AEEF" stroke-width=".43" clip-path="url(#b)"/><circle cx="16.03" cy="2.43" r=".79" fill="none" stroke="#00AEEF" stroke-width=".43" clip-path="url(#b)"/><circle cx="13.48" cy="3.85" r=".79" fill="none" stroke="#00AEEF" stroke-width=".43" clip-path="url(#b)"/><circle cx="10.5" cy="3.85" r=".79" fill="none" stroke="#00AEEF" stroke-width=".43" clip-path="url(#b)"/><circle cx="12.02" cy="6.25" r=".79" fill="none" stroke="#00AEEF" stroke-width=".43" clip-path="url(#b)"/><circle cx="16.03" cy="5.28" r=".79" fill="none" stroke="#00AEEF" stroke-width=".43" clip-path="url(#b)"/><path fill="none" stroke="#00AEEF" stroke-width=".43" d="M21.74 0v.03a.8.8 0 0 0 1.58 0V.01M16.8 0v.03c0 .43.36.78.8.78.43 0 .78-.34.78-.78V.01" clip-path="url(#b)"/><circle cx="20.05" cy="1.45" r=".79" fill="none" stroke="#00AEEF" stroke-width=".43" clip-path="url(#b)"/><circle cx="24.06" cy="2.43" r=".79" fill="none" stroke="#00AEEF" stroke-width=".43" clip-path="url(#b)"/><circle cx="21.51" cy="3.85" r=".79" fill="none" stroke="#00AEEF" stroke-width=".43" clip-path="url(#b)"/><circle cx="18.53" cy="3.85" r=".79" fill="none" stroke="#00AEEF" stroke-width=".43" clip-path="url(#b)"/><circle cx="20.05" cy="6.25" r=".79" fill="none" stroke="#00AEEF" stroke-width=".43" clip-path="url(#b)"/><circle cx="24.06" cy="5.28" r=".79" fill="none" stroke="#00AEEF" stroke-width=".43" clip-path="url(#b)"/><path fill="none" stroke="#00AEEF" stroke-width=".43" d="M29.76 0v.03c0 .43.35.78.8.78s.77-.34.77-.78V.01M24.83 0v.03c0 .43.35.78.8.78s.77-.34.77-.78V.01" clip-path="url(#b)"/><circle cx="28.07" cy="1.45" r=".79" fill="none" stroke="#00AEEF" stroke-width=".43" clip-path="url(#b)"/><circle cx="29.53" cy="3.85" r=".79" fill="none" stroke="#00AEEF" stroke-width=".43" clip-path="url(#b)"/><circle cx="26.55" cy="3.85" r=".79" fill="none" stroke="#00AEEF" stroke-width=".43" clip-path="url(#b)"/><circle cx="28.07" cy="6.25" r=".79" fill="none" stroke="#00AEEF" stroke-width=".43" clip-path="url(#b)"/><circle cx="32.08" cy="5.28" r=".79" fill="none" stroke="#00AEEF" stroke-width=".43" clip-path="url(#b)"/><path fill="none" stroke="#00AEEF" stroke-width=".43" d="M37.8 0v.03c0 .43.34.78.77.78.44 0 .8-.34.8-.78V.01M32.85 0v.03c0 .43.36.78.8.78s.78-.34.78-.78V.01" clip-path="url(#b)"/><circle cx="36.1" cy="1.45" r=".79" fill="none" stroke="#00AEEF" stroke-width=".43" clip-path="url(#b)"/><circle cx="40.11" cy="2.43" r=".79" fill="none" stroke="#00AEEF" stroke-width=".43" clip-path="url(#b)"/><circle cx="37.56" cy="3.85" r=".79" fill="none" stroke="#00AEEF" stroke-width=".43" clip-path="url(#b)"/><circle cx="34.58" cy="3.85" r=".79" fill="none" stroke="#00AEEF" stroke-width=".43" clip-path="url(#b)"/><circle cx="32.12" cy="2.43" r=".79" fill="none" stroke="#00AEEF" stroke-width=".43" clip-path="url(#b)"/><circle cx="36.1" cy="6.25" r=".79" fill="none" stroke="#00AEEF" stroke-width=".43" clip-path="url(#b)"/><circle cx="40.11" cy="5.28" r=".79" fill="none" stroke="#00AEEF" stroke-width=".43" clip-path="url(#b)"/><path fill="none" stroke="#00AEEF" stroke-width=".43" d="M45.8 0v.03c0 .43.36.78.8.78s.78-.34.78-.78V.01M40.88 0v.03c0 .43.35.78.78.78.44 0 .8-.34.8-.78V.01" clip-path="url(#b)"/><circle cx="44.12" cy="1.45" r=".79" fill="none" stroke="#00AEEF" stroke-width=".43" clip-path="url(#b)"/><path fill="none" stroke="#00AEEF" stroke-width=".43" d="M48.1 1.64a.79.79 0 0 0 0 1.57" clip-path="url(#b)"/><circle cx="45.58" cy="3.85" r=".79" fill="none" stroke="#00AEEF" stroke-width=".43" clip-path="url(#b)"/><circle cx="42.6" cy="3.85" r=".79" fill="none" stroke="#00AEEF" stroke-width=".43" clip-path="url(#b)"/><circle cx="44.12" cy="6.25" r=".79" fill="none" stroke="#00AEEF" stroke-width=".43" clip-path="url(#b)"/><path fill="none" stroke="#00AEEF" stroke-width=".43" d="M48.1 4.5c-.42 0-.75.35-.75.78s.33.76.75.78M40.88 47.72" clip-path="url(#b)"/></svg>