<svg xmlns="http://www.w3.org/2000/svg" xml:space="preserve" width="43.2" height="43.2" viewBox="2.18 -46.12 43.2 43.2"><path d="M2.18-46.12h43.2v43.2H2.18z" style="fill:none"/><path d="M14.75-44.43h0M14.75-42.03h0M14.3-39.93h0M10.85-39.78h0M16.55-33.63h0M10.1-30.48h0M16.55-30.03h0M20-30.03h0M20.9-32.28h0M19.7-35.28h0M22.55-34.38h0M22.55-37.23h0M21.2-39.18h0M21.5-42.03h0M20.75-44.13h0M22.55-45.48h0M27.05-42.03h0M29.45-42.18h0M27.65-38.13h0M30.35-37.68h0M30.35-34.68h0M25.55-33.78h0M32.3-38.13h0M35-39.63h0M36.12-45.6h0M42.65-45.18h0M42.95-40.08h0M40.7-38.88h0M41.3-36.78h0M40.55-34.38h0M40.7-32.73h0M42.95-33.48h0M6.35-14.88h0M6.5-13.53h0M3.5-13.53h0M8-7.83h0M2.75-5.43h0M8.75-3.63h0M13.25-6.93h0M11.9-8.88h0M13.85-11.58h0M9.5-9.03h0M11.9-13.38h0M13.7-15.63h0M11-15.63h0M11.9-17.88h0M21.65-15.78h0M18.5-13.68h0M21.35-12.78h0M20.75-10.83h0M17.75-7.98h0M23.75-12.48h0M27.2-15.78h0M28.25-19.38h0M32.3-15.33h0M33.05-17.58h0M35.15-18.03h0M35.15-13.68h0M32.9-12.48h0M30.8-10.08h0M35.3-11.28h0M37.1-9.33h0M14.45-32.73h0M25.55-31.38h0M30.65-29.88h0M35.3-29.43h0M32.9-31.08h0M33.35-28.53h0M39.65-24.93h0M36.2-22.83h0M31.1-23.88h0M30.95-21.48h0M30.95-19.68h0M37.55-18.48h0M39.95-16.83h0M43.25-19.98h0M39.2-22.83h0M21.65-18.03h0M17.9-23.58h0M20-24.93h0M8.45-28.53h0M5.75-27.33h0M3.65-25.08h0M12.35-21.03h0M10.55-25.83h0M18.05-28.08h0M27.05-27.33h0M24.5-27.33h0M20.45-22.38h0M6.05-33.93h0M8-34.98h0M9.2-32.13h0M3.95-30.78h0M40.7-28.53h0M43.85-28.38h0M3.05-40.83h0M12.8-42.18h0M4.4-42.63h0M9.8-37.68h0M13.25-34.68h0M14.9-24.03h0M2.6-19.68h0M43.85-6.78h0M36.65-4.83h0M26.45-5.43h0M4.85-10.23h0M18.05-10.53h0M24.5-17.13h0M7.4-22.08h0M33.5-23.43h0M41-18.78h0M32.9-6.48h0M26.15-23.58h0M18.65-38.13h0M14-30.33h0M9.2-45.18h0M35.3-43.98h0M30.95-4.83h0M4.4-21.78h0M43.4-38.28h0M16.1-37.83h0M14-36.33h0M11-35.88h0M5.75-39.18h0M6.35-44.58h0M10.7-41.28h0M17.6-42.03h0M24.35-41.73h0M24.65-43.68h0M28.25-45.33h0M32.9-40.83h0M23.6-39.63h0M25.7-37.23h0M17-35.43h0M6.5-29.58h0M11.75-27.18h0M8.45-26.13h0M5.3-24.03h0M4.1-33.93h0M14.45-27.78h0M12.65-24.93h0M11.75-22.83h0M9.8-21.48h0M9.8-18.33h0M15.95-16.83h0M8.75-13.53h0M11.45-11.13h0M5.75-8.13h0M3.5-9.03h0M7.55-5.43h0M10.25-4.53h0M15.2-3.78h0M15.95-6.78h0M15.5-10.23h0M16.7-11.73h0M17.9-17.58h0M17.6-20.13h0M21.5-27.63h0M22.7-30.03h0M28.4-31.23h0M27.95-33.78h0M18.8-32.88h0M33.35-33.03h0M28.1-35.58h0M32.45-35.43h0M37.85-35.88h0M37.1-37.83h0M37.85-39.78h0M37.4-41.73h0M38.15-43.38h0M42.65-42.63h0M40.25-40.68h0M38.3-31.98h0M35.45-31.98h0M35.45-34.98h0M41.15-30.78h0M37.85-27.78h0M33.8-26.58h0M30.65-25.98h0M28.7-22.68h0M22.55-21.33h0M26.6-17.43h0M29.6-14.88h0M30.05-12.18h0M27.35-10.53h0M26.15-8.58h0M23.75-8.58h0M24.05-14.58h0M20.3-8.88h0M21.05-5.13h0M24.65-4.23h0M39.95-12.03h0M38.15-15.78h0M34.85-15.93h0M35-21.18h0M39.65-20.88h0M43.7-17.13h0M43.85-13.68h0M40.25-9.18h0M44.3-10.68h0M41-6.93h0M41.6-5.28h0M39.65-4.08h0M33.8-4.38h0M29-6.33h0M19.25-3.48h0M3.35-28.68h0M10.1-43.23h0M44.3-25.53h0M44.62-21.43h0M3.95-15.63h0M43.55-30.33h0M42.65-9.18h0M2.7-11.6h0M3.8-3.48h0M44.8-32.21h0M2.9-36.18h0M12.95-38.58h0M19.7-40.23h0M18.2-43.98h0M26.3-40.08h0M29.9-40.08h0M30.5-32.58h0M35-42.18h0M40.55-42.33h0M39.8-45.03h0M43.85-35.43h0M6.95-18.03h0M5.15-12.18h0M4.1-6.78h0M12.8-4.38h0M14.75-8.43h0M14.75-19.08h0M19.25-15.63h0M24.05-10.23h0M22.7-6.18h0M27.2-13.23h0M33.5-10.38h0M31.85-8.28h0M35.15-7.08h0M17.3-31.53h0M23.3-32.28h0M27.65-29.28h0M33.35-20.43h0M42.35-15.18h0M30.5-17.58h0M24.35-19.53h0M12.35-29.13h0M8.9-24.18h0M41.75-26.73h0M6.5-36.78h0M7.25-43.08h0M4.25-44.73h0M42.05-23.88h0M28.55-8.43h0M17.6-4.23h0M15.35-21.18h0M27.05-25.53h0M41.9-21.93h0M34.1-37.23h0M24.95-35.58h0M9.95-34.23h0M31.85-43.53h0M37.55-33.78h0M42.65-11.88h0M5.3-4.38h0M3.8-38.28h0M12.35-44.58h0M27.65-43.53h0M3.8-27.03h0M6.65-31.23h0M4.1-17.88h0M8.75-15.93h0M8.15-10.38h0M10.25-6.78h0M15.35-14.28h0M22.55-25.83h0M17.75-25.83h0M24.5-29.13h0M38.9-30.03h0M37.4-12.03h0M37.4-20.73h0M35.6-24.93h0M43.7-3.93h0M38.6-6.78h0M28.37-4.1h0M16.85-45.63h0M19.1-6h0M23-23.88h0M25.85-21.63h0M37.55-26.13h0M6.5-20.43h0M8.3-40.68h0M29.9-27.86h0M11.9-32.73h0M16.7-39.93h0M6.2-41.13h0M6.05-25.83h0M15.35-26.13h0M20-19.68h0M40.1-13.98h0M15.05-5.43h0M32-45.48h0M44.62-8.43h0M44.45-43.83h0M44.78-15.85h0M44.45-39.63h0M44.75-23.28h0M26-45.18h0" style="fill:none;stroke:#00aeef;stroke-width:.8;stroke-linecap:round"/><path d="M14.75-44.43h0M21.2-39.18h0M42.95-33.48h0M26.82-17.26h0M20.75-10.83h0M35.15-13.68h0M8.5-28.33h0M5.9-38.88h0M14.25-36.38h0M22.7-30.03h0M32.45-35.43h0M38.15-43.38h0M31.2-23.81h0M44.62-21.43h0M9.03-15.93h0M10.25-6.78h0M28.37-4.1h0M37.55-26.13h0M17.98-23.38h0M44.62-8.43h0" style="fill:none;stroke:#00aeef;stroke-width:1.55;stroke-linecap:round"/></svg>