<svg xmlns="http://www.w3.org/2000/svg" xml:space="preserve" width="43.2" height="43.2" viewBox="1.98 -45.72 43.2 43.2"><path d="M1.98-45.72h43.2v43.2H1.98z" style="fill:none"/><path d="M14.55-44.03h0M14.55-41.63h0M14.1-39.53h0M10.65-39.38h0M16.35-33.23h0M9.9-30.08h0M16.35-29.63h0M19.8-29.63h0M20.7-31.88h0M19.5-34.88h0M22.35-33.98h0M22.35-36.83h0M21-38.78h0M21.3-41.63h0M20.55-43.73h0M22.35-45.08h0M26.85-41.63h0M29.25-41.78h0M27.45-37.73h0M30.15-37.28h0M30.15-34.28h0M25.35-33.38h0M32.1-37.73h0M34.8-39.23h0M35.92-45.2h0M42.45-44.78h0M42.75-39.68h0M40.5-38.48h0M41.1-36.38h0M40.35-33.98h0M40.5-32.33h0M42.75-33.08h0M6.15-14.48h0M6.3-13.13h0M3.3-13.13h0M7.8-7.43h0M2.55-5.03h0M8.55-3.23h0M13.05-6.53h0M11.7-8.48h0M13.65-11.18h0M9.3-8.63h0M11.7-12.98h0M13.5-15.23h0M10.8-15.23h0M11.7-17.48h0M21.45-15.38h0M18.3-13.28h0M21.15-12.38h0M20.55-10.43h0M17.55-7.58h0M23.55-12.08h0M27-15.38h0M28.05-18.98h0M32.1-14.93h0M32.85-17.18h0M34.95-17.63h0M34.95-13.28h0M32.7-12.08h0M30.6-9.68h0M35.1-10.88h0M36.9-8.93h0M14.25-32.33h0M25.35-30.98h0M30.45-29.48h0M35.1-29.03h0M32.7-30.68h0M33.15-28.13h0M39.45-24.53h0M36-22.43h0M30.9-23.48h0M30.75-21.08h0M30.75-19.28h0M37.35-18.08h0M39.75-16.43h0M43.05-19.58h0M39-22.43h0M21.45-17.63h0M17.7-23.18h0M19.8-24.53h0M8.25-28.13h0M5.55-26.93h0M3.45-24.68h0M12.15-20.63h0M10.35-25.43h0M17.85-27.68h0M26.85-26.93h0M24.3-26.93h0M20.25-21.98h0M5.85-33.53h0M7.8-34.58h0M9-31.73h0M3.75-30.38h0M40.5-28.13h0M43.65-27.98h0M2.85-40.43h0M12.6-41.78h0M4.2-42.23h0M9.6-37.28h0M13.05-34.28h0M14.7-23.63h0M2.4-19.28h0M43.65-6.38h0M36.45-4.43h0M26.25-5.03h0M4.65-9.83h0M17.85-10.13h0M24.3-16.73h0M7.2-21.68h0M33.3-23.03h0M40.8-18.38h0M32.7-6.08h0M25.95-23.18h0M18.45-37.73h0M13.8-29.93h0M9-44.78h0M35.1-43.58h0M30.75-4.43h0M4.2-21.38h0M43.2-37.88h0M15.9-37.43h0M13.8-35.93h0M10.8-35.48h0M5.55-38.78h0M6.15-44.18h0M10.5-40.88h0M17.4-41.63h0M24.15-41.33h0M24.45-43.28h0M28.05-44.93h0M32.7-40.43h0M23.4-39.23h0M25.5-36.83h0M16.8-35.03h0M6.3-29.18h0M11.55-26.78h0M8.25-25.73h0M5.1-23.63h0M3.9-33.53h0M14.25-27.38h0M12.45-24.53h0M11.55-22.43h0M9.6-21.08h0M9.6-17.93h0M15.75-16.43h0M8.55-13.13h0M11.25-10.73h0M5.55-7.73h0M3.3-8.63h0M7.35-5.03h0M10.05-4.13h0M15-3.38h0M15.75-6.38h0M15.3-9.83h0M16.5-11.33h0M17.7-17.18h0M17.4-19.73h0M21.3-27.23h0M22.5-29.63h0M28.2-30.83h0M27.75-33.38h0M18.6-32.48h0M33.15-32.63h0M27.9-35.18h0M32.25-35.03h0M37.65-35.48h0M36.9-37.43h0M37.65-39.38h0M37.2-41.33h0M37.95-42.98h0M42.45-42.23h0M40.05-40.28h0M38.1-31.58h0M35.25-31.58h0M35.25-34.58h0M40.95-30.38h0M37.65-27.38h0M33.6-26.18h0M30.45-25.58h0M28.5-22.28h0M22.35-20.93h0M26.4-17.03h0M29.4-14.48h0M29.85-11.78h0M27.15-10.13h0M25.95-8.18h0M23.55-8.18h0M23.85-14.18h0M20.1-8.48h0M20.85-4.73h0M24.45-3.83h0M39.75-11.63h0M37.95-15.38h0M34.65-15.53h0M34.8-20.78h0M39.45-20.48h0M43.5-16.73h0M43.65-13.28h0M40.05-8.78h0M44.1-10.28h0M40.8-6.53h0M41.4-4.88h0M39.45-3.68h0M33.6-3.98h0M28.8-5.93h0M19.05-3.08h0M3.15-28.28h0M9.9-42.83h0M44.1-25.13h0M44.42-21.03h0M3.75-15.23h0M43.35-29.93h0M42.45-8.78h0M2.5-11.2h0M3.6-3.08h0M44.6-31.81h0M2.7-35.78h0M12.75-38.18h0M19.5-39.83h0M18-43.58h0M26.1-39.68h0M29.7-39.68h0M30.3-32.18h0M34.8-41.78h0M40.35-41.93h0M39.6-44.63h0M43.65-35.03h0M6.75-17.63h0M4.95-11.78h0M3.9-6.38h0M12.6-3.98h0M14.55-8.03h0M14.55-18.68h0M19.05-15.23h0M23.85-9.83h0M22.5-5.78h0M27-12.83h0M33.3-9.98h0M31.65-7.88h0M34.95-6.68h0M17.1-31.13h0M23.1-31.88h0M27.45-28.88h0M33.15-20.03h0M42.15-14.78h0M30.3-17.18h0M24.15-19.13h0M12.15-28.73h0M8.7-23.78h0M41.55-26.33h0M6.3-36.38h0M7.05-42.68h0M4.05-44.33h0M41.85-23.48h0M28.35-8.03h0M17.4-3.83h0M15.15-20.78h0M26.85-25.13h0M41.7-21.53h0M33.9-36.83h0M24.75-35.18h0M9.75-33.83h0M31.65-43.13h0M37.35-33.38h0M42.45-11.48h0M5.1-3.98h0M3.6-37.88h0M12.15-44.18h0M27.45-43.13h0M3.6-26.63h0M6.45-30.83h0M3.9-17.48h0M8.55-15.53h0M7.95-9.98h0M10.05-6.38h0M15.15-13.88h0M22.35-25.43h0M17.55-25.43h0M24.3-28.73h0M38.7-29.63h0M37.2-11.63h0M37.2-20.33h0M35.4-24.53h0M43.5-3.53h0M38.4-6.38h0M28.17-3.7h0M16.65-45.23h0M18.9-5.6h0M22.8-23.48h0M25.65-21.23h0M37.35-25.73h0M6.3-20.03h0M8.1-40.28h0M29.7-27.46h0M11.7-32.33h0M16.5-39.53h0M6-40.73h0M5.85-25.43h0M15.15-25.73h0M19.8-19.28h0M39.9-13.58h0M14.85-5.03h0M31.8-45.08h0M44.42-8.03h0M44.25-43.43h0M44.58-15.45h0M44.25-39.23h0M44.55-22.88h0M25.8-44.78h0" style="fill:none;stroke:#000;stroke-width:.7;stroke-linecap:round"/><path d="M14.55-44.03h0M21-38.78h0M42.75-33.08h0M26.63-16.86h0M20.55-10.43h0M34.95-13.28h0M8.3-27.93h0M5.7-38.48h0M14.05-35.98h0M22.5-29.63h0M32.25-35.03h0M37.95-42.98h0M31-23.41h0M44.42-21.03h0M8.82-15.53h0M10.05-6.38h0M28.17-3.7h0M37.35-25.73h0M17.77-22.98h0M44.42-8.03h0" style="fill:none;stroke:#000;stroke-width:1.35;stroke-linecap:round"/></svg>