<svg xmlns="http://www.w3.org/2000/svg" xml:space="preserve" width="56" height="56.02" viewBox="1 -57.02 56 56.02"><path d="M1-57.02h56V-1H1z" style="fill:none"/><circle cx="2.99" cy="-54.98" r=".5" style="fill-rule:evenodd;clip-rule:evenodd;fill:#ec008c"/><circle cx="6.99" cy="-54.98" r=".5" style="fill-rule:evenodd;clip-rule:evenodd;fill:#ec008c"/><circle cx="10.99" cy="-54.98" r=".5" style="fill-rule:evenodd;clip-rule:evenodd;fill:#ec008c"/><circle cx="14.99" cy="-54.98" r=".5" style="fill-rule:evenodd;clip-rule:evenodd;fill:#ec008c"/><circle cx="18.99" cy="-54.98" r=".5" style="fill-rule:evenodd;clip-rule:evenodd;fill:#ec008c"/><circle cx="22.99" cy="-54.98" r=".5" style="fill-rule:evenodd;clip-rule:evenodd;fill:#ec008c"/><circle cx="26.99" cy="-54.98" r=".5" style="fill-rule:evenodd;clip-rule:evenodd;fill:#ec008c"/><circle cx="30.99" cy="-54.98" r=".5" style="fill-rule:evenodd;clip-rule:evenodd;fill:#ec008c"/><circle cx="34.99" cy="-54.98" r=".5" style="fill-rule:evenodd;clip-rule:evenodd;fill:#ec008c"/><circle cx="38.99" cy="-54.98" r=".5" style="fill-rule:evenodd;clip-rule:evenodd;fill:#ec008c"/><circle cx="42.99" cy="-54.98" r=".5" style="fill-rule:evenodd;clip-rule:evenodd;fill:#ec008c"/><circle cx="46.99" cy="-54.98" r=".5" style="fill-rule:evenodd;clip-rule:evenodd;fill:#ec008c"/><circle cx="50.99" cy="-54.98" r=".5" style="fill-rule:evenodd;clip-rule:evenodd;fill:#ec008c"/><circle cx="54.99" cy="-54.98" r=".5" style="fill-rule:evenodd;clip-rule:evenodd;fill:#ec008c"/><circle cx="2.99" cy="-51" r=".5" style="fill-rule:evenodd;clip-rule:evenodd;fill:#ec008c"/><circle cx="6.99" cy="-51" r=".5" style="fill-rule:evenodd;clip-rule:evenodd;fill:#ec008c"/><circle cx="10.99" cy="-51" r=".5" style="fill-rule:evenodd;clip-rule:evenodd;fill:#ec008c"/><circle cx="14.99" cy="-51" r=".5" style="fill-rule:evenodd;clip-rule:evenodd;fill:#ec008c"/><circle cx="18.99" cy="-51" r=".5" style="fill-rule:evenodd;clip-rule:evenodd;fill:#ec008c"/><circle cx="22.99" cy="-51" r=".5" style="fill-rule:evenodd;clip-rule:evenodd;fill:#ec008c"/><circle cx="26.99" cy="-51" r=".5" style="fill-rule:evenodd;clip-rule:evenodd;fill:#ec008c"/><circle cx="30.99" cy="-51" r=".5" style="fill-rule:evenodd;clip-rule:evenodd;fill:#ec008c"/><circle cx="34.99" cy="-51" r=".5" style="fill-rule:evenodd;clip-rule:evenodd;fill:#ec008c"/><circle cx="38.99" cy="-51" r=".5" style="fill-rule:evenodd;clip-rule:evenodd;fill:#ec008c"/><circle cx="42.99" cy="-51" r=".5" style="fill-rule:evenodd;clip-rule:evenodd;fill:#ec008c"/><circle cx="46.99" cy="-51" r=".5" style="fill-rule:evenodd;clip-rule:evenodd;fill:#ec008c"/><circle cx="50.99" cy="-51" r=".5" style="fill-rule:evenodd;clip-rule:evenodd;fill:#ec008c"/><circle cx="54.99" cy="-51" r=".5" style="fill-rule:evenodd;clip-rule:evenodd;fill:#ec008c"/><circle cx="2.99" cy="-47" r=".5" style="fill-rule:evenodd;clip-rule:evenodd;fill:#ec008c"/><circle cx="6.99" cy="-47" r=".5" style="fill-rule:evenodd;clip-rule:evenodd;fill:#ec008c"/><circle cx="10.99" cy="-47" r=".5" style="fill-rule:evenodd;clip-rule:evenodd;fill:#ec008c"/><circle cx="14.99" cy="-47" r=".5" style="fill-rule:evenodd;clip-rule:evenodd;fill:#ec008c"/><circle cx="18.99" cy="-47" r=".5" style="fill-rule:evenodd;clip-rule:evenodd;fill:#ec008c"/><circle cx="22.99" cy="-47" r=".5" style="fill-rule:evenodd;clip-rule:evenodd;fill:#ec008c"/><circle cx="26.99" cy="-47" r=".5" style="fill-rule:evenodd;clip-rule:evenodd;fill:#ec008c"/><circle cx="30.99" cy="-47" r=".5" style="fill-rule:evenodd;clip-rule:evenodd;fill:#ec008c"/><circle cx="34.99" cy="-47" r=".5" style="fill-rule:evenodd;clip-rule:evenodd;fill:#ec008c"/><circle cx="38.99" cy="-47" r=".5" style="fill-rule:evenodd;clip-rule:evenodd;fill:#ec008c"/><circle cx="42.99" cy="-47" r=".5" style="fill-rule:evenodd;clip-rule:evenodd;fill:#ec008c"/><circle cx="46.99" cy="-47" r=".5" style="fill-rule:evenodd;clip-rule:evenodd;fill:#ec008c"/><circle cx="50.99" cy="-47" r=".5" style="fill-rule:evenodd;clip-rule:evenodd;fill:#ec008c"/><circle cx="54.99" cy="-47" r=".5" style="fill-rule:evenodd;clip-rule:evenodd;fill:#ec008c"/><circle cx="2.99" cy="-43" r=".5" style="fill-rule:evenodd;clip-rule:evenodd;fill:#ec008c"/><circle cx="6.99" cy="-43" r=".5" style="fill-rule:evenodd;clip-rule:evenodd;fill:#ec008c"/><circle cx="10.99" cy="-43" r=".5" style="fill-rule:evenodd;clip-rule:evenodd;fill:#ec008c"/><circle cx="14.99" cy="-43" r=".5" style="fill-rule:evenodd;clip-rule:evenodd;fill:#ec008c"/><circle cx="18.99" cy="-43" r=".5" style="fill-rule:evenodd;clip-rule:evenodd;fill:#ec008c"/><circle cx="22.99" cy="-43" r=".5" style="fill-rule:evenodd;clip-rule:evenodd;fill:#ec008c"/><circle cx="26.99" cy="-43" r=".5" style="fill-rule:evenodd;clip-rule:evenodd;fill:#ec008c"/><circle cx="30.99" cy="-43" r=".5" style="fill-rule:evenodd;clip-rule:evenodd;fill:#ec008c"/><circle cx="34.99" cy="-43" r=".5" style="fill-rule:evenodd;clip-rule:evenodd;fill:#ec008c"/><circle cx="38.99" cy="-43" r=".5" style="fill-rule:evenodd;clip-rule:evenodd;fill:#ec008c"/><circle cx="42.99" cy="-43" r=".5" style="fill-rule:evenodd;clip-rule:evenodd;fill:#ec008c"/><circle cx="46.99" cy="-43" r=".5" style="fill-rule:evenodd;clip-rule:evenodd;fill:#ec008c"/><circle cx="50.99" cy="-43" r=".5" style="fill-rule:evenodd;clip-rule:evenodd;fill:#ec008c"/><circle cx="54.99" cy="-43" r=".5" style="fill-rule:evenodd;clip-rule:evenodd;fill:#ec008c"/><circle cx="2.99" cy="-39.06" r=".5" style="fill-rule:evenodd;clip-rule:evenodd;fill:#ec008c"/><circle cx="6.99" cy="-39.06" r=".5" style="fill-rule:evenodd;clip-rule:evenodd;fill:#ec008c"/><circle cx="10.99" cy="-39.06" r=".5" style="fill-rule:evenodd;clip-rule:evenodd;fill:#ec008c"/><circle cx="14.99" cy="-39.06" r=".5" style="fill-rule:evenodd;clip-rule:evenodd;fill:#ec008c"/><circle cx="18.99" cy="-39.06" r=".5" style="fill-rule:evenodd;clip-rule:evenodd;fill:#ec008c"/><circle cx="22.99" cy="-39.06" r=".5" style="fill-rule:evenodd;clip-rule:evenodd;fill:#ec008c"/><circle cx="26.99" cy="-39.06" r=".5" style="fill-rule:evenodd;clip-rule:evenodd;fill:#ec008c"/><circle cx="30.99" cy="-39.06" r=".5" style="fill-rule:evenodd;clip-rule:evenodd;fill:#ec008c"/><circle cx="34.99" cy="-39.06" r=".5" style="fill-rule:evenodd;clip-rule:evenodd;fill:#ec008c"/><circle cx="38.99" cy="-39.06" r=".5" style="fill:#ec008c"/><circle cx="42.99" cy="-39.06" r=".5" style="fill-rule:evenodd;clip-rule:evenodd;fill:#ec008c"/><circle cx="46.99" cy="-39.06" r=".5" style="fill-rule:evenodd;clip-rule:evenodd;fill:#ec008c"/><circle cx="50.99" cy="-39.06" r=".5" style="fill-rule:evenodd;clip-rule:evenodd;fill:#ec008c"/><circle cx="54.99" cy="-39.06" r=".5" style="fill-rule:evenodd;clip-rule:evenodd;fill:#ec008c"/><circle cx="2.99" cy="-34.98" r=".5" style="fill-rule:evenodd;clip-rule:evenodd;fill:#ec008c"/><circle cx="6.99" cy="-34.98" r=".5" style="fill-rule:evenodd;clip-rule:evenodd;fill:#ec008c"/><circle cx="10.99" cy="-34.98" r=".5" style="fill-rule:evenodd;clip-rule:evenodd;fill:#ec008c"/><circle cx="14.99" cy="-34.98" r=".5" style="fill-rule:evenodd;clip-rule:evenodd;fill:#ec008c"/><circle cx="18.99" cy="-34.98" r=".5" style="fill-rule:evenodd;clip-rule:evenodd;fill:#ec008c"/><circle cx="22.99" cy="-34.98" r=".5" style="fill-rule:evenodd;clip-rule:evenodd;fill:#ec008c"/><circle cx="26.99" cy="-34.98" r=".5" style="fill-rule:evenodd;clip-rule:evenodd;fill:#ec008c"/><circle cx="30.99" cy="-34.98" r=".5" style="fill-rule:evenodd;clip-rule:evenodd;fill:#ec008c"/><circle cx="34.99" cy="-34.98" r=".5" style="fill-rule:evenodd;clip-rule:evenodd;fill:#ec008c"/><circle cx="38.99" cy="-34.98" r=".5" style="fill-rule:evenodd;clip-rule:evenodd;fill:#ec008c"/><circle cx="42.99" cy="-34.98" r=".5" style="fill-rule:evenodd;clip-rule:evenodd;fill:#ec008c"/><circle cx="46.99" cy="-34.98" r=".5" style="fill-rule:evenodd;clip-rule:evenodd;fill:#ec008c"/><circle cx="50.99" cy="-34.98" r=".5" style="fill-rule:evenodd;clip-rule:evenodd;fill:#ec008c"/><circle cx="54.99" cy="-34.98" r=".5" style="fill-rule:evenodd;clip-rule:evenodd;fill:#ec008c"/><circle cx="2.99" cy="-30.98" r=".5" style="fill-rule:evenodd;clip-rule:evenodd;fill:#ec008c"/><circle cx="6.99" cy="-30.98" r=".5" style="fill-rule:evenodd;clip-rule:evenodd;fill:#ec008c"/><circle cx="10.99" cy="-30.98" r=".5" style="fill-rule:evenodd;clip-rule:evenodd;fill:#ec008c"/><circle cx="14.99" cy="-30.98" r=".5" style="fill-rule:evenodd;clip-rule:evenodd;fill:#ec008c"/><circle cx="18.99" cy="-30.98" r=".5" style="fill-rule:evenodd;clip-rule:evenodd;fill:#ec008c"/><circle cx="22.99" cy="-30.98" r=".5" style="fill-rule:evenodd;clip-rule:evenodd;fill:#ec008c"/><circle cx="26.99" cy="-30.98" r=".5" style="fill-rule:evenodd;clip-rule:evenodd;fill:#ec008c"/><circle cx="30.99" cy="-30.98" r=".5" style="fill-rule:evenodd;clip-rule:evenodd;fill:#ec008c"/><circle cx="34.99" cy="-30.98" r=".5" style="fill-rule:evenodd;clip-rule:evenodd;fill:#ec008c"/><circle cx="38.99" cy="-30.98" r=".5" style="fill-rule:evenodd;clip-rule:evenodd;fill:#ec008c"/><circle cx="42.99" cy="-30.98" r=".5" style="fill-rule:evenodd;clip-rule:evenodd;fill:#ec008c"/><circle cx="46.99" cy="-30.98" r=".5" style="fill-rule:evenodd;clip-rule:evenodd;fill:#ec008c"/><circle cx="50.99" cy="-30.98" r=".5" style="fill-rule:evenodd;clip-rule:evenodd;fill:#ec008c"/><circle cx="54.99" cy="-30.98" r=".5" style="fill-rule:evenodd;clip-rule:evenodd;fill:#ec008c"/><circle cx="2.99" cy="-26.98" r=".5" style="fill-rule:evenodd;clip-rule:evenodd;fill:#ec008c"/><circle cx="6.99" cy="-26.98" r=".5" style="fill-rule:evenodd;clip-rule:evenodd;fill:#ec008c"/><circle cx="10.99" cy="-26.98" r=".5" style="fill-rule:evenodd;clip-rule:evenodd;fill:#ec008c"/><circle cx="14.99" cy="-26.98" r=".5" style="fill-rule:evenodd;clip-rule:evenodd;fill:#ec008c"/><circle cx="18.99" cy="-26.98" r=".5" style="fill-rule:evenodd;clip-rule:evenodd;fill:#ec008c"/><circle cx="22.99" cy="-26.98" r=".5" style="fill-rule:evenodd;clip-rule:evenodd;fill:#ec008c"/><circle cx="26.99" cy="-26.98" r=".5" style="fill-rule:evenodd;clip-rule:evenodd;fill:#ec008c"/><circle cx="30.99" cy="-26.98" r=".5" style="fill-rule:evenodd;clip-rule:evenodd;fill:#ec008c"/><circle cx="34.99" cy="-26.98" r=".5" style="fill-rule:evenodd;clip-rule:evenodd;fill:#ec008c"/><circle cx="38.99" cy="-26.98" r=".5" style="fill-rule:evenodd;clip-rule:evenodd;fill:#ec008c"/><circle cx="42.99" cy="-26.98" r=".5" style="fill-rule:evenodd;clip-rule:evenodd;fill:#ec008c"/><circle cx="46.99" cy="-26.98" r=".5" style="fill-rule:evenodd;clip-rule:evenodd;fill:#ec008c"/><circle cx="50.99" cy="-26.98" r=".5" style="fill:#ec008c"/><circle cx="54.99" cy="-26.98" r=".5" style="fill-rule:evenodd;clip-rule:evenodd;fill:#ec008c"/><circle cx="2.99" cy="-22.98" r=".5" style="fill-rule:evenodd;clip-rule:evenodd;fill:#ec008c"/><circle cx="6.99" cy="-22.98" r=".5" style="fill-rule:evenodd;clip-rule:evenodd;fill:#ec008c"/><circle cx="10.99" cy="-22.98" r=".5" style="fill-rule:evenodd;clip-rule:evenodd;fill:#ec008c"/><circle cx="14.99" cy="-22.98" r=".5" style="fill:#ec008c"/><circle cx="18.99" cy="-22.98" r=".5" style="fill-rule:evenodd;clip-rule:evenodd;fill:#ec008c"/><circle cx="22.99" cy="-22.98" r=".5" style="fill-rule:evenodd;clip-rule:evenodd;fill:#ec008c"/><circle cx="26.99" cy="-22.98" r=".5" style="fill-rule:evenodd;clip-rule:evenodd;fill:#ec008c"/><circle cx="30.99" cy="-22.98" r=".5" style="fill-rule:evenodd;clip-rule:evenodd;fill:#ec008c"/><circle cx="34.99" cy="-22.98" r=".5" style="fill-rule:evenodd;clip-rule:evenodd;fill:#ec008c"/><circle cx="38.99" cy="-22.98" r=".5" style="fill-rule:evenodd;clip-rule:evenodd;fill:#ec008c"/><circle cx="42.99" cy="-22.98" r=".5" style="fill-rule:evenodd;clip-rule:evenodd;fill:#ec008c"/><circle cx="46.99" cy="-22.98" r=".5" style="fill-rule:evenodd;clip-rule:evenodd;fill:#ec008c"/><circle cx="50.99" cy="-22.98" r=".5" style="fill-rule:evenodd;clip-rule:evenodd;fill:#ec008c"/><circle cx="54.99" cy="-22.98" r=".5" style="fill-rule:evenodd;clip-rule:evenodd;fill:#ec008c"/><circle cx="2.99" cy="-18.98" r=".5" style="fill-rule:evenodd;clip-rule:evenodd;fill:#ec008c"/><circle cx="6.99" cy="-18.98" r=".5" style="fill-rule:evenodd;clip-rule:evenodd;fill:#ec008c"/><circle cx="10.99" cy="-18.98" r=".5" style="fill-rule:evenodd;clip-rule:evenodd;fill:#ec008c"/><circle cx="14.99" cy="-18.98" r=".5" style="fill-rule:evenodd;clip-rule:evenodd;fill:#ec008c"/><circle cx="18.99" cy="-18.98" r=".5" style="fill-rule:evenodd;clip-rule:evenodd;fill:#ec008c"/><circle cx="22.99" cy="-18.98" r=".5" style="fill-rule:evenodd;clip-rule:evenodd;fill:#ec008c"/><circle cx="26.99" cy="-18.98" r=".5" style="fill-rule:evenodd;clip-rule:evenodd;fill:#ec008c"/><circle cx="30.99" cy="-18.98" r=".5" style="fill-rule:evenodd;clip-rule:evenodd;fill:#ec008c"/><circle cx="34.99" cy="-18.98" r=".5" style="fill-rule:evenodd;clip-rule:evenodd;fill:#ec008c"/><circle cx="38.99" cy="-18.98" r=".5" style="fill-rule:evenodd;clip-rule:evenodd;fill:#ec008c"/><circle cx="42.99" cy="-18.98" r=".5" style="fill-rule:evenodd;clip-rule:evenodd;fill:#ec008c"/><circle cx="46.99" cy="-18.98" r=".5" style="fill-rule:evenodd;clip-rule:evenodd;fill:#ec008c"/><circle cx="50.99" cy="-18.98" r=".5" style="fill-rule:evenodd;clip-rule:evenodd;fill:#ec008c"/><circle cx="54.99" cy="-18.98" r=".5" style="fill-rule:evenodd;clip-rule:evenodd;fill:#ec008c"/><circle cx="2.99" cy="-14.98" r=".5" style="fill:#ec008c"/><circle cx="6.99" cy="-14.98" r=".5" style="fill-rule:evenodd;clip-rule:evenodd;fill:#ec008c"/><circle cx="10.99" cy="-14.98" r=".5" style="fill-rule:evenodd;clip-rule:evenodd;fill:#ec008c"/><circle cx="14.99" cy="-14.98" r=".5" style="fill-rule:evenodd;clip-rule:evenodd;fill:#ec008c"/><circle cx="18.99" cy="-14.98" r=".5" style="fill-rule:evenodd;clip-rule:evenodd;fill:#ec008c"/><circle cx="22.99" cy="-14.98" r=".5" style="fill-rule:evenodd;clip-rule:evenodd;fill:#ec008c"/><circle cx="26.99" cy="-14.98" r=".5" style="fill-rule:evenodd;clip-rule:evenodd;fill:#ec008c"/><circle cx="30.99" cy="-14.98" r=".5" style="fill:#ec008c"/><circle cx="34.99" cy="-14.98" r=".5" style="fill-rule:evenodd;clip-rule:evenodd;fill:#ec008c"/><circle cx="38.99" cy="-14.98" r=".5" style="fill-rule:evenodd;clip-rule:evenodd;fill:#ec008c"/><circle cx="42.99" cy="-14.98" r=".5" style="fill-rule:evenodd;clip-rule:evenodd;fill:#ec008c"/><circle cx="46.99" cy="-14.98" r=".5" style="fill-rule:evenodd;clip-rule:evenodd;fill:#ec008c"/><circle cx="50.99" cy="-14.98" r=".5" style="fill-rule:evenodd;clip-rule:evenodd;fill:#ec008c"/><circle cx="54.99" cy="-14.98" r=".5" style="fill-rule:evenodd;clip-rule:evenodd;fill:#ec008c"/><circle cx="2.99" cy="-10.98" r=".5" style="fill-rule:evenodd;clip-rule:evenodd;fill:#ec008c"/><circle cx="6.99" cy="-10.98" r=".5" style="fill-rule:evenodd;clip-rule:evenodd;fill:#ec008c"/><circle cx="10.99" cy="-10.98" r=".5" style="fill-rule:evenodd;clip-rule:evenodd;fill:#ec008c"/><circle cx="14.99" cy="-10.98" r=".5" style="fill-rule:evenodd;clip-rule:evenodd;fill:#ec008c"/><circle cx="18.99" cy="-10.98" r=".5" style="fill:#ec008c"/><circle cx="22.99" cy="-10.98" r=".5" style="fill-rule:evenodd;clip-rule:evenodd;fill:#ec008c"/><circle cx="26.99" cy="-10.98" r=".5" style="fill-rule:evenodd;clip-rule:evenodd;fill:#ec008c"/><circle cx="30.99" cy="-10.98" r=".5" style="fill-rule:evenodd;clip-rule:evenodd;fill:#ec008c"/><circle cx="34.99" cy="-10.98" r=".5" style="fill-rule:evenodd;clip-rule:evenodd;fill:#ec008c"/><circle cx="38.99" cy="-10.98" r=".5" style="fill-rule:evenodd;clip-rule:evenodd;fill:#ec008c"/><circle cx="42.99" cy="-10.98" r=".5" style="fill-rule:evenodd;clip-rule:evenodd;fill:#ec008c"/><circle cx="46.99" cy="-10.98" r=".5" style="fill-rule:evenodd;clip-rule:evenodd;fill:#ec008c"/><circle cx="50.99" cy="-10.98" r=".5" style="fill-rule:evenodd;clip-rule:evenodd;fill:#ec008c"/><circle cx="54.99" cy="-10.98" r=".5" style="fill-rule:evenodd;clip-rule:evenodd;fill:#ec008c"/><circle cx="2.99" cy="-6.98" r=".5" style="fill-rule:evenodd;clip-rule:evenodd;fill:#ec008c"/><circle cx="6.99" cy="-6.98" r=".5" style="fill-rule:evenodd;clip-rule:evenodd;fill:#ec008c"/><circle cx="10.99" cy="-6.98" r=".5" style="fill-rule:evenodd;clip-rule:evenodd;fill:#ec008c"/><circle cx="14.99" cy="-6.98" r=".5" style="fill-rule:evenodd;clip-rule:evenodd;fill:#ec008c"/><circle cx="18.99" cy="-6.98" r=".5" style="fill-rule:evenodd;clip-rule:evenodd;fill:#ec008c"/><circle cx="22.99" cy="-6.98" r=".5" style="fill-rule:evenodd;clip-rule:evenodd;fill:#ec008c"/><circle cx="26.99" cy="-6.98" r=".5" style="fill-rule:evenodd;clip-rule:evenodd;fill:#ec008c"/><circle cx="30.99" cy="-6.98" r=".5" style="fill-rule:evenodd;clip-rule:evenodd;fill:#ec008c"/><circle cx="34.99" cy="-6.98" r=".5" style="fill-rule:evenodd;clip-rule:evenodd;fill:#ec008c"/><circle cx="38.99" cy="-6.98" r=".5" style="fill-rule:evenodd;clip-rule:evenodd;fill:#ec008c"/><circle cx="42.99" cy="-6.98" r=".5" style="fill-rule:evenodd;clip-rule:evenodd;fill:#ec008c"/><circle cx="46.99" cy="-6.98" r=".5" style="fill-rule:evenodd;clip-rule:evenodd;fill:#ec008c"/><circle cx="50.99" cy="-6.98" r=".5" style="fill-rule:evenodd;clip-rule:evenodd;fill:#ec008c"/><circle cx="54.99" cy="-6.98" r=".5" style="fill-rule:evenodd;clip-rule:evenodd;fill:#ec008c"/><circle cx="2.99" cy="-2.98" r=".5" style="fill-rule:evenodd;clip-rule:evenodd;fill:#ec008c"/><circle cx="6.99" cy="-2.98" r=".5" style="fill-rule:evenodd;clip-rule:evenodd;fill:#ec008c"/><circle cx="10.99" cy="-2.98" r=".5" style="fill-rule:evenodd;clip-rule:evenodd;fill:#ec008c"/><circle cx="14.99" cy="-2.98" r=".5" style="fill-rule:evenodd;clip-rule:evenodd;fill:#ec008c"/><circle cx="18.99" cy="-2.98" r=".5" style="fill-rule:evenodd;clip-rule:evenodd;fill:#ec008c"/><circle cx="22.99" cy="-2.98" r=".5" style="fill-rule:evenodd;clip-rule:evenodd;fill:#ec008c"/><circle cx="26.99" cy="-2.98" r=".5" style="fill-rule:evenodd;clip-rule:evenodd;fill:#ec008c"/><circle cx="30.99" cy="-2.98" r=".5" style="fill-rule:evenodd;clip-rule:evenodd;fill:#ec008c"/><circle cx="34.99" cy="-2.98" r=".5" style="fill-rule:evenodd;clip-rule:evenodd;fill:#ec008c"/><circle cx="38.99" cy="-2.98" r=".5" style="fill-rule:evenodd;clip-rule:evenodd;fill:#ec008c"/><circle cx="42.99" cy="-2.98" r=".5" style="fill-rule:evenodd;clip-rule:evenodd;fill:#ec008c"/><circle cx="46.99" cy="-2.98" r=".5" style="fill-rule:evenodd;clip-rule:evenodd;fill:#ec008c"/><circle cx="50.99" cy="-2.98" r=".5" style="fill-rule:evenodd;clip-rule:evenodd;fill:#ec008c"/><circle cx="54.99" cy="-2.98" r=".5" style="fill-rule:evenodd;clip-rule:evenodd;fill:#ec008c"/></svg>