<svg xmlns="http://www.w3.org/2000/svg" xml:space="preserve" width="72" height="72" viewBox="0 -72 72 72"><path d="M0-72h72V0H0z" style="fill:none"/><circle cx="5.98" cy="-71" r=".5" style="fill:#ed1b2e"/><circle cx="8.67" cy="-70.39" r=".5" style="fill:#ed1b2e"/><circle cx="12.83" cy="-71.35" r=".5" style="fill:#ed1b2e"/><circle cx="7.5" cy="-68.02" r=".5" style="fill:#ed1b2e"/><circle cx="4.5" cy="-69.02" r=".5" style="fill:#ed1b2e"/><circle cx=".67" cy="-68.02" r=".5" style="fill:#ed1b2e"/><circle cx="3.67" cy="-66.19" r=".5" style="fill:#ed1b2e"/><circle cx="6.33" cy="-65.02" r=".5" style="fill:#ed1b2e"/><circle cx="9.5" cy="-63.85" r=".5" style="fill:#ed1b2e"/><circle cx="11" cy="-67.69" r=".5" style="fill:#ed1b2e"/><circle cx="14" cy="-67.52" r=".5" style="fill:#ed1b2e"/><circle cx="16.17" cy="-70.02" r=".5" style="fill:#ed1b2e"/><circle cx="19.33" cy="-70.85" r=".5" style="fill:#ed1b2e"/><circle cx="21.33" cy="-69.69" r=".5" style="fill:#ed1b2e"/><circle cx="24.75" cy="-69.48" r=".5" style="fill:#ed1b2e"/><circle cx="26.5" cy="-71.35" r=".5" style="fill:#ed1b2e"/><circle cx="28.33" cy="-69.02" r=".5" style="fill:#ed1b2e"/><circle cx="26.33" cy="-66.85" r=".5" style="fill:#ed1b2e"/><circle cx="24.5" cy="-63.85" r=".5" style="fill:#ed1b2e"/><circle cx="22.67" cy="-60.85" r=".5" style="fill:#ed1b2e"/><circle cx="20.88" cy="-63.73" r=".5" style="fill:#ed1b2e"/><circle cx="22.88" cy="-66.85" r=".5" style="fill:#ed1b2e"/><circle cx="22" cy="-58.1" r=".5" style="fill:#ed1b2e"/><circle cx="19.83" cy="-65.52" r=".5" style="fill:#ed1b2e"/><circle cx="18" cy="-62.85" r=".5" style="fill:#ed1b2e"/><circle cx="15.33" cy="-63.02" r=".5" style="fill:#ed1b2e"/><circle cx="14.5" cy="-61.02" r=".5" style="fill:#ed1b2e"/><circle cx="11.67" cy="-61.85" r=".5" style="fill:#ed1b2e"/><circle cx="11.5" cy="-58.69" r=".5" style="fill:#ed1b2e"/><circle cx="10.5" cy="-55.02" r=".5" style="fill:#ed1b2e"/><circle cx="9.67" cy="-51.85" r=".5" style="fill:#ed1b2e"/><circle cx="9.83" cy="-49.52" r=".5" style="fill:#ed1b2e"/><circle cx="6.67" cy="-48.85" r=".5" style="fill:#ed1b2e"/><circle cx="7" cy="-51.85" r=".5" style="fill:#ed1b2e"/><circle cx="7.5" cy="-54.69" r=".5" style="fill:#ed1b2e"/><circle cx="7.83" cy="-58.19" r=".5" style="fill:#ed1b2e"/><circle cx="8.5" cy="-60.85" r=".5" style="fill:#ed1b2e"/><circle cx="5.33" cy="-61.35" r=".5" style="fill:#ed1b2e"/><circle cx="2.67" cy="-63.35" r=".5" style="fill:#ed1b2e"/><circle cx=".83" cy="-64.52" r=".5" style="fill:#ed1b2e"/><circle cx="1.33" cy="-59.69" r=".5" style="fill:#ed1b2e"/><circle cx="4.33" cy="-57.85" r=".5" style="fill:#ed1b2e"/><circle cx="3.33" cy="-54.85" r=".5" style="fill:#ed1b2e"/><circle cx="1.5" cy="-53.85" r=".5" style="fill:#ed1b2e"/><circle cx="1.17" cy="-56.85" r=".5" style="fill:#ed1b2e"/><circle cx="13.33" cy="-56.85" r=".5" style="fill:#ed1b2e"/><circle cx="17.33" cy="-59.69" r=".5" style="fill:#ed1b2e"/><circle cx="19.5" cy="-59.69" r=".5" style="fill:#ed1b2e"/><circle cx="19" cy="-55.85" r=".5" style="fill:#ed1b2e"/><circle cx="16.88" cy="-56.6" r=".5" style="fill:#ed1b2e"/><circle cx="18.83" cy="-53.69" r=".5" style="fill:#ed1b2e"/><circle cx="15.5" cy="-52.85" r=".5" style="fill:#ed1b2e"/><circle cx="13.17" cy="-54.02" r=".5" style="fill:#ed1b2e"/><circle cx="13" cy="-64.85" r=".5" style="fill:#ed1b2e"/><circle cx="16.67" cy="-65.52" r=".5" style="fill:#ed1b2e"/><circle cx="18" cy="-67.69" r=".5" style="fill:#ed1b2e"/><circle cx="31" cy="-70.69" r=".5" style="fill:#ed1b2e"/><circle cx="33.83" cy="-71.19" r=".5" style="fill:#ed1b2e"/><circle cx="34.5" cy="-68.85" r=".5" style="fill:#ed1b2e"/><circle cx="37" cy="-71.04" r=".5" style="fill:#ed1b2e"/><circle cx="40.33" cy="-71.19" r=".5" style="fill:#ed1b2e"/><circle cx="32.13" cy="-66.85" r=".5" style="fill:#ed1b2e"/><circle cx="29" cy="-66.85" r=".5" style="fill:#ed1b2e"/><circle cx="27.83" cy="-61.35" r=".5" style="fill:#ed1b2e"/><circle cx="29.67" cy="-64.23" r=".5" style="fill:#ed1b2e"/><circle cx="27.5" cy="-64.85" r=".5" style="fill:#ed1b2e"/><circle cx="34.17" cy="-65.52" r=".5" style="fill:#ed1b2e"/><circle cx="37.17" cy="-67.35" r=".5" style="fill:#ed1b2e"/><circle cx="40.5" cy="-69.02" r=".5" style="fill:#ed1b2e"/><circle cx="43.33" cy="-70.19" r=".5" style="fill:#ed1b2e"/><circle cx="46.5" cy="-71.19" r=".5" style="fill:#ed1b2e"/><circle cx="50.33" cy="-71.02" r=".5" style="fill:#ed1b2e"/><circle cx="46.17" cy="-67.73" r=".5" style="fill:#ed1b2e"/><circle cx="43.02" cy="-67.13" r=".5" style="fill:#ed1b2e"/><circle cx="40.83" cy="-64.56" r=".5" style="fill:#ed1b2e"/><circle cx="38.33" cy="-65.35" r=".5" style="fill:#ed1b2e"/><circle cx="37.75" cy="-62.85" r=".5" style="fill:#ed1b2e"/><circle cx="34.5" cy="-60.73" r=".5" style="fill:#ed1b2e"/><circle cx="31.33" cy="-59.85" r=".5" style="fill:#ed1b2e"/><circle cx="28.33" cy="-58.52" r=".5" style="fill:#ed1b2e"/><circle cx="33.5" cy="-57.73" r=".5" style="fill:#ed1b2e"/><circle cx="29.67" cy="-57.19" r=".5" style="fill:#ed1b2e"/><circle cx="27.67" cy="-54.85" r=".5" style="fill:#ed1b2e"/><circle cx="25.17" cy="-57.02" r=".5" style="fill:#ed1b2e"/><circle cx="25" cy="-53.52" r=".5" style="fill:#ed1b2e"/><circle cx="23" cy="-54.6" r=".5" style="fill:#ed1b2e"/><circle cx="24.67" cy="-51.19" r=".5" style="fill:#ed1b2e"/><circle cx="27.5" cy="-51.85" r=".5" style="fill:#ed1b2e"/><circle cx="30.85" cy="-53.21" r=".5" style="fill:#ed1b2e"/><circle cx="33" cy="-54.02" r=".5" style="fill:#ed1b2e"/><circle cx="32.17" cy="-55.69" r=".5" style="fill:#ed1b2e"/><circle cx="35.67" cy="-54.52" r=".5" style="fill:#ed1b2e"/><circle cx="36.17" cy="-57.02" r=".5" style="fill:#ed1b2e"/><circle cx="37.67" cy="-59.35" r=".5" style="fill:#ed1b2e"/><circle cx="40.33" cy="-61.19" r=".5" style="fill:#ed1b2e"/><circle cx="43" cy="-62.52" r=".5" style="fill:#ed1b2e"/><circle cx="44.31" cy="-64.87" r=".5" style="fill:#ed1b2e"/><circle cx="48.08" cy="-65.81" r=".5" style="fill:#ed1b2e"/><circle cx="49.08" cy="-68.81" r=".5" style="fill:#ed1b2e"/><circle cx="53.17" cy="-70.52" r=".5" style="fill:#ed1b2e"/><circle cx="56.5" cy="-71.35" r=".5" style="fill:#ed1b2e"/><circle cx="62.17" cy="-71.35" r=".5" style="fill:#ed1b2e"/><circle cx="59" cy="-70.02" r=".5" style="fill:#ed1b2e"/><circle cx="57.5" cy="-67.06" r=".5" style="fill:#ed1b2e"/><circle cx="54.13" cy="-66.73" r=".5" style="fill:#ed1b2e"/><circle cx="64.17" cy="-61.73" r=".5" style="fill:#ed1b2e"/><circle cx="50.83" cy="-65.31" r=".5" style="fill:#ed1b2e"/><circle cx="32.17" cy="-63.06" r=".5" style="fill:#ed1b2e"/><circle cx="35.17" cy="-63.52" r=".5" style="fill:#ed1b2e"/><circle cx="52.33" cy="-68.19" r=".5" style="fill:#ed1b2e"/><circle cx="45.69" cy="-62.21" r=".5" style="fill:#ed1b2e"/><circle cx="43.33" cy="-59.77" r=".5" style="fill:#ed1b2e"/><circle cx="40.67" cy="-57.85" r=".5" style="fill:#ed1b2e"/><circle cx="38.67" cy="-55.02" r=".5" style="fill:#ed1b2e"/><circle cx="41.83" cy="-53.4" r=".5" style="fill:#ed1b2e"/><circle cx="43" cy="-56.02" r=".5" style="fill:#ed1b2e"/><circle cx="48.5" cy="-60.06" r=".5" style="fill:#ed1b2e"/><circle cx="50.33" cy="-62.56" r=".5" style="fill:#ed1b2e"/><circle cx="48.17" cy="-63.85" r=".5" style="fill:#ed1b2e"/><circle cx="53.33" cy="-63.89" r=".5" style="fill:#ed1b2e"/><circle cx="56.5" cy="-64.39" r=".5" style="fill:#ed1b2e"/><circle cx="59.5" cy="-66.02" r=".5" style="fill:#ed1b2e"/><circle cx="61.33" cy="-68.52" r=".5" style="fill:#ed1b2e"/><circle cx="65.33" cy="-67.85" r=".5" style="fill:#ed1b2e"/><circle cx="63.83" cy="-69.19" r=".5" style="fill:#ed1b2e"/><circle cx="62.5" cy="-66.19" r=".5" style="fill:#ed1b2e"/><circle cx="59.67" cy="-63.85" r=".5" style="fill:#ed1b2e"/><circle cx="56.5" cy="-60.85" r=".5" style="fill:#ed1b2e"/><circle cx="53.33" cy="-61.02" r=".5" style="fill:#ed1b2e"/><circle cx="47.33" cy="-57.85" r=".5" style="fill:#ed1b2e"/><circle cx="47.17" cy="-54.52" r=".5" style="fill:#ed1b2e"/><circle cx="44.75" cy="-55.1" r=".5" style="fill:#ed1b2e"/><circle cx="44.88" cy="-51.35" r=".5" style="fill:#ed1b2e"/><circle cx="65.17" cy="-65.19" r=".5" style="fill:#ed1b2e"/><circle cx="62.31" cy="-63.21" r=".5" style="fill:#ed1b2e"/><circle cx="60" cy="-60.56" r=".5" style="fill:#ed1b2e"/><circle cx="57.17" cy="-58.35" r=".5" style="fill:#ed1b2e"/><circle cx="54.5" cy="-58.19" r=".5" style="fill:#ed1b2e"/><circle cx="52.5" cy="-56.02" r=".5" style="fill:#ed1b2e"/><circle cx="49.83" cy="-53.35" r=".5" style="fill:#ed1b2e"/><circle cx="52.67" cy="-52.85" r=".5" style="fill:#ed1b2e"/><circle cx="54.83" cy="-55.02" r=".5" style="fill:#ed1b2e"/><circle cx="57.5" cy="-55.19" r=".5" style="fill:#ed1b2e"/><circle cx="62" cy="-59.06" r=".5" style="fill:#ed1b2e"/><circle cx="67.83" cy="-62.23" r=".5" style="fill:#ed1b2e"/><circle cx="66" cy="-60.02" r=".5" style="fill:#ed1b2e"/><circle cx="71.5" cy="-62.19" r=".5" style="fill:#ed1b2e"/><circle cx="68.5" cy="-60.02" r=".5" style="fill:#ed1b2e"/><circle cx="66.5" cy="-57.85" r=".5" style="fill:#ed1b2e"/><circle cx="69.5" cy="-56.85" r=".5" style="fill:#ed1b2e"/><circle cx="71" cy="-59.02" r=".5" style="fill:#ed1b2e"/><circle cx="63.33" cy="-56.85" r=".5" style="fill:#ed1b2e"/><circle cx="60.63" cy="-55.98" r=".5" style="fill:#ed1b2e"/><circle cx="61.25" cy="-53.85" r=".5" style="fill:#ed1b2e"/><circle cx="58.5" cy="-53.1" r=".5" style="fill:#ed1b2e"/><circle cx="64.33" cy="-54.52" r=".5" style="fill:#ed1b2e"/><circle cx="67.5" cy="-54.02" r=".5" style="fill:#ed1b2e"/><circle cx="70.67" cy="-54.02" r=".5" style="fill:#ed1b2e"/><circle cx="68.5" cy="-52.19" r=".5" style="fill:#ed1b2e"/><circle cx="65.5" cy="-52.02" r=".5" style="fill:#ed1b2e"/><circle cx="62.5" cy="-50.85" r=".5" style="fill:#ed1b2e"/><circle cx="59.17" cy="-50.85" r=".5" style="fill:#ed1b2e"/><circle cx="60.33" cy="-48.85" r=".5" style="fill:#ed1b2e"/><circle cx="67" cy="-47.35" r=".5" style="fill:#ed1b2e"/><circle cx="51.5" cy="-58.23" r=".5" style="fill:#ed1b2e"/><circle cx="54.83" cy="-68.85" r=".5" style="fill:#ed1b2e"/><circle cx="57.75" cy="-47.35" r=".5" style="fill:#ed1b2e"/><circle cx="55.75" cy="-51.85" r=".5" style="fill:#ed1b2e"/><circle cx="52.75" cy="-49.48" r=".5" style="fill:#ed1b2e"/><circle cx="54.67" cy="-48.02" r=".5" style="fill:#ed1b2e"/><circle cx="57" cy="-49.85" r=".5" style="fill:#ed1b2e"/><circle cx="50.33" cy="-50.19" r=".5" style="fill:#ed1b2e"/><circle cx="47.17" cy="-51.02" r=".5" style="fill:#ed1b2e"/><circle cx="44.33" cy="-49.02" r=".5" style="fill:#ed1b2e"/><circle cx="41.31" cy="-50.54" r=".5" style="fill:#ed1b2e"/><circle cx="40.13" cy="-48.35" r=".5" style="fill:#ed1b2e"/><circle cx="41.83" cy="-46.35" r=".5" style="fill:#ed1b2e"/><circle cx="37.17" cy="-45.1" r=".5" style="fill:#ed1b2e"/><circle cx="31.17" cy="-41.44" r=".5" style="fill:#ed1b2e"/><circle cx="27" cy="-38.48" r=".5" style="fill:#ed1b2e"/><circle cx="18.83" cy="-38.31" r=".5" style="fill:#ed1b2e"/><circle cx="22.83" cy="-42.39" r=".5" style="fill:#ed1b2e"/><circle cx="14.17" cy="-42.77" r=".5" style="fill:#ed1b2e"/><circle cx="11.67" cy="-46.44" r=".5" style="fill:#ed1b2e"/><circle cx="23.58" cy="-35.81" r=".5" style="fill:#ed1b2e"/><circle cx="21.5" cy="-32.35" r=".5" style="fill:#ed1b2e"/><circle cx="24.13" cy="-30.23" r=".5" style="fill:#ed1b2e"/><circle cx="19" cy="-31.89" r=".5" style="fill:#ed1b2e"/><circle cx="13.33" cy="-16.85" r=".5" style="fill:#ed1b2e"/><circle cx="18.17" cy="-29.56" r=".5" style="fill:#ed1b2e"/><circle cx="13.5" cy="-33.1" r=".5" style="fill:#ed1b2e"/><circle cx="9.75" cy="-35.1" r=".5" style="fill:#ed1b2e"/><circle cx="10.25" cy="-39.35" r=".5" style="fill:#ed1b2e"/><circle cx="4.88" cy="-37.6" r=".5" style="fill:#ed1b2e"/><circle cx="1.63" cy="-39.1" r=".5" style="fill:#ed1b2e"/><circle cx="5.38" cy="-40.35" r=".5" style="fill:#ed1b2e"/><circle cx="7.5" cy="-38.73" r=".5" style="fill:#ed1b2e"/><circle cx="12.85" cy="-36.33" r=".5" style="fill:#ed1b2e"/><circle cx="15.38" cy="-36.98" r=".5" style="fill:#ed1b2e"/><circle cx="13.38" cy="-39.23" r=".5" style="fill:#ed1b2e"/><circle cx="16.5" cy="-39.35" r=".5" style="fill:#ed1b2e"/><circle cx="17" cy="-35.35" r=".5" style="fill:#ed1b2e"/><circle cx="20.17" cy="-35.56" r=".5" style="fill:#ed1b2e"/><circle cx="24.63" cy="-32.1" r=".5" style="fill:#ed1b2e"/><circle cx="29" cy="-36.44" r=".5" style="fill:#ed1b2e"/><circle cx="31.88" cy="-33.98" r=".5" style="fill:#ed1b2e"/><circle cx="30.88" cy="-31.98" r=".5" style="fill:#ed1b2e"/><circle cx="33.38" cy="-31.23" r=".5" style="fill:#ed1b2e"/><circle cx="33.75" cy="-29.1" r=".5" style="fill:#ed1b2e"/><circle cx="32.63" cy="-25.98" r=".5" style="fill:#ed1b2e"/><circle cx="32.25" cy="-23.35" r=".5" style="fill:#ed1b2e"/><circle cx="33.88" cy="-19.73" r=".5" style="fill:#ed1b2e"/><circle cx="36" cy="-22.69" r=".5" style="fill:#ed1b2e"/><circle cx="38.13" cy="-19.85" r=".5" style="fill:#ed1b2e"/><circle cx="36.13" cy="-17.35" r=".5" style="fill:#ed1b2e"/><circle cx="42.5" cy="-17.1" r=".5" style="fill:#ed1b2e"/><circle cx="39.38" cy="-17.23" r=".5" style="fill:#ed1b2e"/><circle cx="37.38" cy="-13.98" r=".5" style="fill:#ed1b2e"/><circle cx="33.5" cy="-14.98" r=".5" style="fill:#ed1b2e"/><circle cx="32.38" cy="-17.85" r=".5" style="fill:#ed1b2e"/><circle cx="30.88" cy="-20.1" r=".5" style="fill:#ed1b2e"/><circle cx="29.75" cy="-22.98" r=".5" style="fill:#ed1b2e"/><circle cx="29" cy="-25.69" r=".5" style="fill:#ed1b2e"/><circle cx="30.63" cy="-28.23" r=".5" style="fill:#ed1b2e"/><circle cx="27.17" cy="-30.69" r=".5" style="fill:#ed1b2e"/><circle cx="28" cy="-33.9" r=".5" style="fill:#ed1b2e"/><circle cx="27.75" cy="-28.6" r=".5" style="fill:#ed1b2e"/><circle cx="25.38" cy="-27.1" r=".5" style="fill:#ed1b2e"/><circle cx="26.38" cy="-24.1" r=".5" style="fill:#ed1b2e"/><circle cx="26.5" cy="-21.02" r=".5" style="fill:#ed1b2e"/><circle cx="27.83" cy="-18.19" r=".5" style="fill:#ed1b2e"/><circle cx="29" cy="-16.35" r=".5" style="fill:#ed1b2e"/><circle cx="30.13" cy="-14.48" r=".5" style="fill:#ed1b2e"/><circle cx="28.75" cy="-12.23" r=".5" style="fill:#ed1b2e"/><circle cx="25" cy="-12.35" r=".5" style="fill:#ed1b2e"/><circle cx="22.5" cy="-14.98" r=".5" style="fill:#ed1b2e"/><circle cx="20.5" cy="-12.98" r=".5" style="fill:#ed1b2e"/><circle cx="49.33" cy="-56.19" r=".5" style="fill:#ed1b2e"/><circle cx="17.25" cy="-8.48" r=".5" style="fill:#ed1b2e"/><circle cx="20.38" cy="-9.1" r=".5" style="fill:#ed1b2e"/><circle cx="21.33" cy="-6.85" r=".5" style="fill:#ed1b2e"/><circle cx="23.25" cy="-9.98" r=".5" style="fill:#ed1b2e"/><circle cx="18.5" cy="-6.06" r=".5" style="fill:#ed1b2e"/><circle cx="16.25" cy="-2.1" r=".5" style="fill:#ed1b2e"/><circle cx="14.83" cy="-4.56" r=".5" style="fill:#ed1b2e"/><circle cx="11.5" cy="-2.1" r=".5" style="fill:#ed1b2e"/><circle cx="10.02" cy="-4.33" r=".5" style="fill:#ed1b2e"/><circle cx="12.5" cy="-5.98" r=".5" style="fill:#ed1b2e"/><circle cx="13.5" cy="-8.85" r=".5" style="fill:#ed1b2e"/><circle cx="14.5" cy="-7.19" r=".5" style="fill:#ed1b2e"/><circle cx="17.83" cy="-3.19" r=".5" style="fill:#ed1b2e"/><circle cx="19.5" cy="-1.02" r=".5" style="fill:#ed1b2e"/><circle cx="8.75" cy="-.6" r=".5" style="fill:#ed1b2e"/><circle cx="14" cy="-.92" r=".5" style="fill:#ed1b2e"/><circle cx="9.5" cy="-11.1" r=".5" style="fill:#ed1b2e"/><circle cx="11" cy="-8.98" r=".5" style="fill:#ed1b2e"/><circle cx="7.38" cy="-8.98" r=".5" style="fill:#ed1b2e"/><circle cx="4.75" cy="-9.85" r=".5" style="fill:#ed1b2e"/><circle cx="2.25" cy="-8.23" r=".5" style="fill:#ed1b2e"/><circle cx="4.38" cy="-6.1" r=".5" style="fill:#ed1b2e"/><circle cx="8.13" cy="-6.1" r=".5" style="fill:#ed1b2e"/><circle cx="7.25" cy="-3.1" r=".5" style="fill:#ed1b2e"/><circle cx="4.5" cy="-2.98" r=".5" style="fill:#ed1b2e"/><circle cx="2.25" cy="-4.23" r=".5" style="fill:#ed1b2e"/><circle cx=".5" cy="-2.1" r=".5" style="fill:#ed1b2e"/><circle cx="3.63" cy="-.8" r=".5" style="fill:#ed1b2e"/><circle cx="15" cy="-47.6" r=".5" style="fill:#ed1b2e"/><circle cx="13.33" cy="-12.06" r=".5" style="fill:#ed1b2e"/><circle cx="11.17" cy="-13.85" r=".5" style="fill:#ed1b2e"/><circle cx="9.5" cy="-21.85" r=".5" style="fill:#ed1b2e"/><circle cx="9.5" cy="-25.69" r=".5" style="fill:#ed1b2e"/><circle cx="14.17" cy="-14.69" r=".5" style="fill:#ed1b2e"/><circle cx="16.5" cy="-11.73" r=".5" style="fill:#ed1b2e"/><circle cx="15.67" cy="-18.69" r=".5" style="fill:#ed1b2e"/><circle cx="21.17" cy="-11.52" r=".5" style="fill:#ed1b2e"/><circle cx="18.67" cy="-16.69" r=".5" style="fill:#ed1b2e"/><circle cx="21.38" cy="-17.98" r=".5" style="fill:#ed1b2e"/><circle cx="21" cy="-21.23" r=".5" style="fill:#ed1b2e"/><circle cx="15.58" cy="-21.81" r=".5" style="fill:#ed1b2e"/><circle cx="18.38" cy="-19.1" r=".5" style="fill:#ed1b2e"/><circle cx="17.33" cy="-14.69" r=".5" style="fill:#ed1b2e"/><circle cx="15.08" cy="-25.06" r=".5" style="fill:#ed1b2e"/><circle cx="18" cy="-22.73" r=".5" style="fill:#ed1b2e"/><circle cx="20.67" cy="-25.23" r=".5" style="fill:#ed1b2e"/><circle cx="23.38" cy="-22.69" r=".5" style="fill:#ed1b2e"/><circle cx="23.38" cy="-25.1" r=".5" style="fill:#ed1b2e"/><circle cx="21.25" cy="-28.69" r=".5" style="fill:#ed1b2e"/><circle cx="18" cy="-27.1" r=".5" style="fill:#ed1b2e"/><circle cx="15.25" cy="-28.1" r=".5" style="fill:#ed1b2e"/><circle cx="12.75" cy="-30.33" r=".5" style="fill:#ed1b2e"/><circle cx="10.5" cy="-31.98" r=".5" style="fill:#ed1b2e"/><circle cx="6.75" cy="-32.1" r=".5" style="fill:#ed1b2e"/><circle cx="7" cy="-34.35" r=".5" style="fill:#ed1b2e"/><circle cx="4.63" cy="-34.1" r=".5" style="fill:#ed1b2e"/><circle cx="1.5" cy="-35.23" r=".5" style="fill:#ed1b2e"/><circle cx="2.5" cy="-32.1" r=".5" style="fill:#ed1b2e"/><circle cx="3.5" cy="-29.98" r=".5" style="fill:#ed1b2e"/><circle cx="5.25" cy="-26.98" r=".5" style="fill:#ed1b2e"/><circle cx="7.13" cy="-24.98" r=".5" style="fill:#ed1b2e"/><circle cx="12.38" cy="-22.1" r=".5" style="fill:#ed1b2e"/><circle cx="12.5" cy="-19.1" r=".5" style="fill:#ed1b2e"/><circle cx="9.77" cy="-19.5" r=".5" style="fill:#ed1b2e"/><circle cx="7.38" cy="-20.98" r=".5" style="fill:#ed1b2e"/><circle cx="5.5" cy="-22.98" r=".5" style="fill:#ed1b2e"/><circle cx="3.38" cy="-24.98" r=".5" style="fill:#ed1b2e"/><circle cx="1.5" cy="-26.98" r=".5" style="fill:#ed1b2e"/><circle cx="7.38" cy="-29.1" r=".5" style="fill:#ed1b2e"/><circle cx="10" cy="-29.02" r=".5" style="fill:#ed1b2e"/><circle cx="12.17" cy="-24.35" r=".5" style="fill:#ed1b2e"/><circle cx="12.33" cy="-27.19" r=".5" style="fill:#ed1b2e"/><circle cx="7.4" cy="-16.13" r=".5" style="fill:#ed1b2e"/><circle cx="4.5" cy="-14.85" r=".5" style="fill:#ed1b2e"/><circle cx="2.5" cy="-11.85" r=".5" style="fill:#ed1b2e"/><circle cx=".66" cy="-13.1" r=".5" style="fill:#ed1b2e"/><circle cx="6.02" cy="-13.33" r=".5" style="fill:#ed1b2e"/><circle cx="9" cy="-13.73" r=".5" style="fill:#ed1b2e"/><circle cx="10.63" cy="-16.1" r=".5" style="fill:#ed1b2e"/><circle cx="5.38" cy="-17.98" r=".5" style="fill:#ed1b2e"/><circle cx="3.25" cy="-19.85" r=".5" style="fill:#ed1b2e"/><circle cx="1.25" cy="-22.1" r=".5" style="fill:#ed1b2e"/><circle cx="2.25" cy="-17.1" r=".5" style="fill:#ed1b2e"/><circle cx="26.25" cy="-14.85" r=".5" style="fill:#ed1b2e"/><circle cx="25.25" cy="-16.73" r=".5" style="fill:#ed1b2e"/><circle cx="23.63" cy="-19.6" r=".5" style="fill:#ed1b2e"/><circle cx="39.13" cy="-27.6" r=".5" style="fill:#ed1b2e"/><circle cx="40.38" cy="-25.1" r=".5" style="fill:#ed1b2e"/><circle cx="43.17" cy="-26.69" r=".5" style="fill:#ed1b2e"/><circle cx="42.5" cy="-22.52" r=".5" style="fill:#ed1b2e"/><circle cx="45.5" cy="-20.98" r=".5" style="fill:#ed1b2e"/><circle cx="48.38" cy="-22.98" r=".5" style="fill:#ed1b2e"/><circle cx="49.15" cy="-20.33" r=".5" style="fill:#ed1b2e"/><circle cx="51.5" cy="-22.23" r=".5" style="fill:#ed1b2e"/><circle cx="54.5" cy="-19.85" r=".5" style="fill:#ed1b2e"/><circle cx="57.83" cy="-20.31" r=".5" style="fill:#ed1b2e"/><circle cx="59.38" cy="-18.1" r=".5" style="fill:#ed1b2e"/><circle cx="62.67" cy="-20.27" r=".5" style="fill:#ed1b2e"/><circle cx="65.63" cy="-16.98" r=".5" style="fill:#ed1b2e"/><circle cx="69.38" cy="-16.98" r=".5" style="fill:#ed1b2e"/><circle cx="71.33" cy="-18.19" r=".5" style="fill:#ed1b2e"/><circle cx="71.17" cy="-15.02" r=".5" style="fill:#ed1b2e"/><circle cx="71.34" cy="-11.13" r=".5" style="fill:#ed1b2e"/><circle cx="68.5" cy="-13.23" r=".5" style="fill:#ed1b2e"/><circle cx="65.63" cy="-14.73" r=".5" style="fill:#ed1b2e"/><circle cx="61.83" cy="-16.6" r=".5" style="fill:#ed1b2e"/><circle cx="56.38" cy="-17.48" r=".5" style="fill:#ed1b2e"/><circle cx="62.38" cy="-12.98" r=".5" style="fill:#ed1b2e"/><circle cx="65.5" cy="-11.1" r=".5" style="fill:#ed1b2e"/><circle cx="68.75" cy="-9.98" r=".5" style="fill:#ed1b2e"/><circle cx="71.5" cy="-8.1" r=".5" style="fill:#ed1b2e"/><circle cx="68.38" cy="-6.85" r=".5" style="fill:#ed1b2e"/><circle cx="71.13" cy="-4.23" r=".5" style="fill:#ed1b2e"/><circle cx="54.01" cy="-.8" r=".5" style="fill:#ed1b2e"/><circle cx="67.83" cy="-.69" r=".5" style="fill:#ed1b2e"/><circle cx="60.81" cy="-.8" r=".5" style="fill:#ed1b2e"/><circle cx="69.5" cy="-3.1" r=".5" style="fill:#ed1b2e"/><circle cx="63.38" cy="-2.1" r=".5" style="fill:#ed1b2e"/><circle cx="65.38" cy="-4.1" r=".5" style="fill:#ed1b2e"/><circle cx="65.63" cy="-7.23" r=".5" style="fill:#ed1b2e"/><circle cx="62.5" cy="-5.6" r=".5" style="fill:#ed1b2e"/><circle cx="60.5" cy="-3.98" r=".5" style="fill:#ed1b2e"/><circle cx="58.25" cy="-2.1" r=".5" style="fill:#ed1b2e"/><circle cx="55.63" cy="-3.35" r=".5" style="fill:#ed1b2e"/><circle cx="52.25" cy="-4.35" r=".5" style="fill:#ed1b2e"/><circle cx="49.38" cy="-5.35" r=".5" style="fill:#ed1b2e"/><circle cx="45.38" cy="-7.1" r=".5" style="fill:#ed1b2e"/><circle cx="48.25" cy="-8.98" r=".5" style="fill:#ed1b2e"/><circle cx="51.5" cy="-7.85" r=".5" style="fill:#ed1b2e"/><circle cx="54.25" cy="-6.1" r=".5" style="fill:#ed1b2e"/><circle cx="57.38" cy="-5.85" r=".5" style="fill:#ed1b2e"/><circle cx="59.75" cy="-7.98" r=".5" style="fill:#ed1b2e"/><circle cx="62.25" cy="-9.35" r=".5" style="fill:#ed1b2e"/><circle cx="59.5" cy="-12.1" r=".5" style="fill:#ed1b2e"/><circle cx="57.63" cy="-14.6" r=".5" style="fill:#ed1b2e"/><circle cx="54.13" cy="-16.23" r=".5" style="fill:#ed1b2e"/><circle cx="51.5" cy="-15.23" r=".5" style="fill:#ed1b2e"/><circle cx="48.63" cy="-12.73" r=".5" style="fill:#ed1b2e"/><circle cx="45.5" cy="-10.94" r=".5" style="fill:#ed1b2e"/><circle cx="42.25" cy="-11.98" r=".5" style="fill:#ed1b2e"/><circle cx="42.13" cy="-14.48" r=".5" style="fill:#ed1b2e"/><circle cx="45.38" cy="-13.98" r=".5" style="fill:#ed1b2e"/><circle cx="48.38" cy="-15.85" r=".5" style="fill:#ed1b2e"/><circle cx="46.5" cy="-17.98" r=".5" style="fill:#ed1b2e"/><circle cx="43.63" cy="-19.23" r=".5" style="fill:#ed1b2e"/><circle cx="40.38" cy="-21.1" r=".5" style="fill:#ed1b2e"/><circle cx="38.38" cy="-23.1" r=".5" style="fill:#ed1b2e"/><circle cx="36.38" cy="-25.85" r=".5" style="fill:#ed1b2e"/><circle cx="51.63" cy="-10.73" r=".5" style="fill:#ed1b2e"/><circle cx="53.38" cy="-12.85" r=".5" style="fill:#ed1b2e"/><circle cx="54.25" cy="-9.98" r=".5" style="fill:#ed1b2e"/><circle cx="56.5" cy="-8.35" r=".5" style="fill:#ed1b2e"/><circle cx="56.5" cy="-11.1" r=".5" style="fill:#ed1b2e"/><circle cx="51.38" cy="-18.1" r=".5" style="fill:#ed1b2e"/><circle cx="43.13" cy="-8.77" r=".5" style="fill:#ed1b2e"/><circle cx="40.77" cy="-10" r=".5" style="fill:#ed1b2e"/><circle cx="36.5" cy="-10.73" r=".5" style="fill:#ed1b2e"/><circle cx="35.25" cy="-12.94" r=".5" style="fill:#ed1b2e"/><circle cx="31.88" cy="-11.98" r=".5" style="fill:#ed1b2e"/><circle cx="29.38" cy="-10.1" r=".5" style="fill:#ed1b2e"/><circle cx="26.52" cy="-10.46" r=".5" style="fill:#ed1b2e"/><circle cx="23.88" cy="-7.85" r=".5" style="fill:#ed1b2e"/><circle cx="22.5" cy="-4.98" r=".5" style="fill:#ed1b2e"/><circle cx="20.25" cy="-3.1" r=".5" style="fill:#ed1b2e"/><circle cx="23.63" cy="-.98" r=".5" style="fill:#ed1b2e"/><circle cx="25.5" cy="-3.85" r=".5" style="fill:#ed1b2e"/><circle cx="28.38" cy="-5.73" r=".5" style="fill:#ed1b2e"/><circle cx="25.83" cy="-6.35" r=".5" style="fill:#ed1b2e"/><circle cx="31" cy="-7.73" r=".5" style="fill:#ed1b2e"/><circle cx="32.75" cy="-8.98" r=".5" style="fill:#ed1b2e"/><circle cx="38.5" cy="-7.98" r=".5" style="fill:#ed1b2e"/><circle cx="44" cy="-5.6" r=".5" style="fill:#ed1b2e"/><circle cx="47" cy="-3.1" r=".5" style="fill:#ed1b2e"/><circle cx="50.18" cy="-1.85" r=".5" style="fill:#ed1b2e"/><circle cx="45.25" cy="-1.35" r=".5" style="fill:#ed1b2e"/><circle cx="42.38" cy="-3.1" r=".5" style="fill:#ed1b2e"/><circle cx="40.13" cy="-5.23" r=".5" style="fill:#ed1b2e"/><circle cx="37.13" cy="-6.1" r=".5" style="fill:#ed1b2e"/><circle cx="34.63" cy="-7.23" r=".5" style="fill:#ed1b2e"/><circle cx="32.75" cy="-4.48" r=".5" style="fill:#ed1b2e"/><circle cx="29.63" cy="-3.23" r=".5" style="fill:#ed1b2e"/><circle cx="27.79" cy="-1.14" r=".5" style="fill:#ed1b2e"/><circle cx="30.5" cy="-1.35" r=".5" style="fill:#ed1b2e"/><circle cx="34.25" cy="-1.85" r=".5" style="fill:#ed1b2e"/><circle cx="38.25" cy="-3.1" r=".5" style="fill:#ed1b2e"/><circle cx="34.5" cy="-36.1" r=".5" style="fill:#ed1b2e"/><circle cx="40.13" cy="-41.35" r=".5" style="fill:#ed1b2e"/><circle cx="36.83" cy="-41.94" r=".5" style="fill:#ed1b2e"/><circle cx="42.13" cy="-39.35" r=".5" style="fill:#ed1b2e"/><circle cx="44.5" cy="-41.98" r=".5" style="fill:#ed1b2e"/><circle cx="46.38" cy="-44.98" r=".5" style="fill:#ed1b2e"/><circle cx="50.38" cy="-42.98" r=".5" style="fill:#ed1b2e"/><circle cx="48.38" cy="-47.85" r=".5" style="fill:#ed1b2e"/><circle cx="50.13" cy="-46.48" r=".5" style="fill:#ed1b2e"/><circle cx="52.88" cy="-45.98" r=".5" style="fill:#ed1b2e"/><circle cx="55.4" cy="-45.88" r=".5" style="fill:#ed1b2e"/><circle cx="55.13" cy="-43.23" r=".5" style="fill:#ed1b2e"/><circle cx="59.13" cy="-45.1" r=".5" style="fill:#ed1b2e"/><circle cx="61.5" cy="-45.98" r=".5" style="fill:#ed1b2e"/><circle cx="64.5" cy="-48.23" r=".5" style="fill:#ed1b2e"/><circle cx="67.77" cy="-49.67" r=".5" style="fill:#ed1b2e"/><circle cx="70.83" cy="-51.19" r=".5" style="fill:#ed1b2e"/><circle cx="69.25" cy="-46.1" r=".5" style="fill:#ed1b2e"/><circle cx="70.83" cy="-44.19" r=".5" style="fill:#ed1b2e"/><circle cx="68.63" cy="-42.73" r=".5" style="fill:#ed1b2e"/><circle cx="70.83" cy="-41.52" r=".5" style="fill:#ed1b2e"/><circle cx="65.25" cy="-44.98" r=".5" style="fill:#ed1b2e"/><circle cx="63.5" cy="-43.98" r=".5" style="fill:#ed1b2e"/><circle cx="62.17" cy="-41.35" r=".5" style="fill:#ed1b2e"/><circle cx="60.38" cy="-42.85" r=".5" style="fill:#ed1b2e"/><circle cx="58.38" cy="-40.98" r=".5" style="fill:#ed1b2e"/><circle cx="55.5" cy="-39.6" r=".5" style="fill:#ed1b2e"/><circle cx="52.63" cy="-41.6" r=".5" style="fill:#ed1b2e"/><circle cx="48" cy="-42.6" r=".5" style="fill:#ed1b2e"/><circle cx="45.88" cy="-40.35" r=".5" style="fill:#ed1b2e"/><circle cx="43.38" cy="-37.1" r=".5" style="fill:#ed1b2e"/><circle cx="42" cy="-35.1" r=".5" style="fill:#ed1b2e"/><circle cx="40.5" cy="-32.23" r=".5" style="fill:#ed1b2e"/><circle cx="43.5" cy="-29.73" r=".5" style="fill:#ed1b2e"/><circle cx="45.17" cy="-30.85" r=".5" style="fill:#ed1b2e"/><circle cx="47.5" cy="-32.1" r=".5" style="fill:#ed1b2e"/><circle cx="44.38" cy="-33.35" r=".5" style="fill:#ed1b2e"/><circle cx="45.5" cy="-35.98" r=".5" style="fill:#ed1b2e"/><circle cx="47.13" cy="-38.6" r=".5" style="fill:#ed1b2e"/><circle cx="50.38" cy="-36.1" r=".5" style="fill:#ed1b2e"/><circle cx="48.25" cy="-33.98" r=".5" style="fill:#ed1b2e"/><circle cx="52.35" cy="-32.83" r=".5" style="fill:#ed1b2e"/><circle cx="49.88" cy="-30.23" r=".5" style="fill:#ed1b2e"/><circle cx="53.38" cy="-30.1" r=".5" style="fill:#ed1b2e"/><circle cx="51.98" cy="-28.33" r=".5" style="fill:#ed1b2e"/><circle cx="55.13" cy="-26.98" r=".5" style="fill:#ed1b2e"/><circle cx="58.13" cy="-26.23" r=".5" style="fill:#ed1b2e"/><circle cx="61.5" cy="-27.98" r=".5" style="fill:#ed1b2e"/><circle cx="64.63" cy="-26.98" r=".5" style="fill:#ed1b2e"/><circle cx="67.88" cy="-24.98" r=".5" style="fill:#ed1b2e"/><circle cx="70.25" cy="-25.1" r=".5" style="fill:#ed1b2e"/><circle cx="70.88" cy="-22.85" r=".5" style="fill:#ed1b2e"/><circle cx="69.38" cy="-20.1" r=".5" style="fill:#ed1b2e"/><circle cx="65.67" cy="-21.35" r=".5" style="fill:#ed1b2e"/><circle cx="67.38" cy="-22.23" r=".5" style="fill:#ed1b2e"/><circle cx="63.5" cy="-23.1" r=".5" style="fill:#ed1b2e"/><circle cx="61.13" cy="-24.85" r=".5" style="fill:#ed1b2e"/><circle cx="59.63" cy="-22.1" r=".5" style="fill:#ed1b2e"/><circle cx="56.38" cy="-23.23" r=".5" style="fill:#ed1b2e"/><circle cx="54.25" cy="-23.35" r=".5" style="fill:#ed1b2e"/><circle cx="51.5" cy="-24.98" r=".5" style="fill:#ed1b2e"/><circle cx="48.5" cy="-27.1" r=".5" style="fill:#ed1b2e"/><circle cx="45.63" cy="-25.73" r=".5" style="fill:#ed1b2e"/><circle cx="46.67" cy="-28.35" r=".5" style="fill:#ed1b2e"/><circle cx="40.25" cy="-29.35" r=".5" style="fill:#ed1b2e"/><circle cx="36.38" cy="-33.1" r=".5" style="fill:#ed1b2e"/><circle cx="36.13" cy="-30.1" r=".5" style="fill:#ed1b2e"/><circle cx="34.33" cy="-26.69" r=".5" style="fill:#ed1b2e"/><circle cx="37.63" cy="-35.35" r=".5" style="fill:#ed1b2e"/><circle cx="39.33" cy="-37.35" r=".5" style="fill:#ed1b2e"/><circle cx="50.5" cy="-40.1" r=".5" style="fill:#ed1b2e"/><circle cx="52" cy="-38.73" r=".5" style="fill:#ed1b2e"/><circle cx="54.5" cy="-34.35" r=".5" style="fill:#ed1b2e"/><circle cx="56.88" cy="-36.35" r=".5" style="fill:#ed1b2e"/><circle cx="58.25" cy="-37.98" r=".5" style="fill:#ed1b2e"/><circle cx="60.38" cy="-39.1" r=".5" style="fill:#ed1b2e"/><circle cx="64.38" cy="-39.35" r=".5" style="fill:#ed1b2e"/><circle cx="66.38" cy="-41.23" r=".5" style="fill:#ed1b2e"/><circle cx="69.5" cy="-40.23" r=".5" style="fill:#ed1b2e"/><circle cx="67.5" cy="-37.1" r=".5" style="fill:#ed1b2e"/><circle cx="71" cy="-36.23" r=".5" style="fill:#ed1b2e"/><circle cx="70.38" cy="-33.35" r=".5" style="fill:#ed1b2e"/><circle cx="71.17" cy="-27.52" r=".5" style="fill:#ed1b2e"/><circle cx="65.5" cy="-35.23" r=".5" style="fill:#ed1b2e"/><circle cx="62" cy="-37.35" r=".5" style="fill:#ed1b2e"/><circle cx="60.25" cy="-35.1" r=".5" style="fill:#ed1b2e"/><circle cx="57.63" cy="-33.1" r=".5" style="fill:#ed1b2e"/><circle cx="55" cy="-31.1" r=".5" style="fill:#ed1b2e"/><circle cx="58.38" cy="-30.1" r=".5" style="fill:#ed1b2e"/><circle cx="56.67" cy="-28.35" r=".5" style="fill:#ed1b2e"/><circle cx="44.67" cy="-24.19" r=".5" style="fill:#ed1b2e"/><circle cx="61" cy="-32.23" r=".5" style="fill:#ed1b2e"/><circle cx="63.38" cy="-33.85" r=".5" style="fill:#ed1b2e"/><circle cx="65.88" cy="-30.98" r=".5" style="fill:#ed1b2e"/><circle cx="67.63" cy="-32.48" r=".5" style="fill:#ed1b2e"/><circle cx="63.75" cy="-29.85" r=".5" style="fill:#ed1b2e"/><circle cx="67.25" cy="-27.98" r=".5" style="fill:#ed1b2e"/><circle cx="69.63" cy="-28.85" r=".5" style="fill:#ed1b2e"/><circle cx="40.63" cy="-44.1" r=".5" style="fill:#ed1b2e"/><circle cx="44.13" cy="-46.1" r=".5" style="fill:#ed1b2e"/><circle cx="35.33" cy="-39.02" r=".5" style="fill:#ed1b2e"/><circle cx="32.17" cy="-38.6" r=".5" style="fill:#ed1b2e"/><circle cx="22.25" cy="-38.1" r=".5" style="fill:#ed1b2e"/><circle cx="25.58" cy="-34.81" r=".5" style="fill:#ed1b2e"/><circle cx="16" cy="-33.02" r=".5" style="fill:#ed1b2e"/><circle cx="15.5" cy="-30.52" r=".5" style="fill:#ed1b2e"/><circle cx="33.6" cy="-43.33" r=".5" style="fill:#ed1b2e"/><circle cx="37.38" cy="-47.73" r=".5" style="fill:#ed1b2e"/><circle cx="34.5" cy="-46.73" r=".5" style="fill:#ed1b2e"/><circle cx="32.63" cy="-44.73" r=".5" style="fill:#ed1b2e"/><circle cx="29.5" cy="-43.98" r=".5" style="fill:#ed1b2e"/><circle cx="27.38" cy="-41.73" r=".5" style="fill:#ed1b2e"/><circle cx="24.88" cy="-40.31" r=".5" style="fill:#ed1b2e"/><circle cx="24.5" cy="-43.85" r=".5" style="fill:#ed1b2e"/><circle cx="20.08" cy="-40.81" r=".5" style="fill:#ed1b2e"/><circle cx="38.67" cy="-52.02" r=".5" style="fill:#ed1b2e"/><circle cx="35.9" cy="-50.63" r=".5" style="fill:#ed1b2e"/><circle cx="32.5" cy="-50.69" r=".5" style="fill:#ed1b2e"/><circle cx="31.5" cy="-47.85" r=".5" style="fill:#ed1b2e"/><circle cx="33.98" cy="-49" r=".5" style="fill:#ed1b2e"/><circle cx="28.63" cy="-47.1" r=".5" style="fill:#ed1b2e"/><circle cx="26.83" cy="-45.02" r=".5" style="fill:#ed1b2e"/><circle cx="29.83" cy="-50.02" r=".5" style="fill:#ed1b2e"/><circle cx="27.17" cy="-48.19" r=".5" style="fill:#ed1b2e"/><circle cx="24.5" cy="-47.02" r=".5" style="fill:#ed1b2e"/><circle cx="21.25" cy="-45.73" r=".5" style="fill:#ed1b2e"/><circle cx="18.33" cy="-43.69" r=".5" style="fill:#ed1b2e"/><circle cx="14.83" cy="-45.06" r=".5" style="fill:#ed1b2e"/><circle cx="10" cy="-44.6" r=".5" style="fill:#ed1b2e"/><circle cx="7.5" cy="-46.23" r=".5" style="fill:#ed1b2e"/><circle cx="3.5" cy="-48.35" r=".5" style="fill:#ed1b2e"/><circle cx="1" cy="-46.02" r=".5" style="fill:#ed1b2e"/><circle cx="3.38" cy="-45.1" r=".5" style="fill:#ed1b2e"/><circle cx="2.38" cy="-42.98" r=".5" style="fill:#ed1b2e"/><circle cx="6.38" cy="-42.98" r=".5" style="fill:#ed1b2e"/><circle cx="9.5" cy="-42.1" r=".5" style="fill:#ed1b2e"/><circle cx="12.5" cy="-40.98" r=".5" style="fill:#ed1b2e"/><circle cx="16.67" cy="-41.77" r=".5" style="fill:#ed1b2e"/><circle cx="18.5" cy="-46.52" r=".5" style="fill:#ed1b2e"/><circle cx="22" cy="-49.23" r=".5" style="fill:#ed1b2e"/><circle cx="18.67" cy="-49.85" r=".5" style="fill:#ed1b2e"/><circle cx="20.75" cy="-51.1" r=".5" style="fill:#ed1b2e"/><circle cx="15.83" cy="-49.69" r=".5" style="fill:#ed1b2e"/><circle cx="12.5" cy="-50.02" r=".5" style="fill:#ed1b2e"/><circle cx="3.5" cy="-51.19" r=".5" style="fill:#ed1b2e"/><circle cx=".5" cy="-49.69" r=".5" style="fill:#ed1b2e"/><circle cx="68.17" cy="-64.85" r=".5" style="fill:#ed1b2e"/><circle cx="67.83" cy="-67.69" r=".5" style="fill:#ed1b2e"/><circle cx="71" cy="-66.52" r=".5" style="fill:#ed1b2e"/><circle cx="65" cy="-71.35" r=".5" style="fill:#ed1b2e"/><circle cx="68.17" cy="-70.19" r=".5" style="fill:#ed1b2e"/><circle cx="71" cy="-69.69" r=".5" style="fill:#ed1b2e"/><circle cx="37.4" cy="-.85" r=".5" style="fill:#ed1b2e"/><circle cx="41.35" cy="-1.14" r=".5" style="fill:#ed1b2e"/><circle cx="26.5" cy="-59.48" r=".5" style="fill:#ed1b2e"/><circle cx="25.31" cy="-61.67" r=".5" style="fill:#ed1b2e"/><circle cx="2.17" cy="-71.02" r=".5" style="fill:#ed1b2e"/></svg>