<svg xmlns="http://www.w3.org/2000/svg" xml:space="preserve" width="57.6" height="57.6" viewBox="1 -58.8 57.6 57.6"><path d="M1-58.8h57.6v57.6H1z" style="fill:none"/><path d="M36.6-1.2a.36.36 0 0 0-.7 0"/><circle cx="50.63" cy="-45.42" r=".68"/><circle cx="49.88" cy="-56.63" r=".68"/><circle cx="43.47" cy="-52.42" r=".68"/><circle cx="29.47" cy="-52.51" r=".68"/><circle cx="23.46" cy="-52.67" r=".68"/><circle cx="15.38" cy="-51.76" r=".68"/><circle cx="11.05" cy="-53.42" r=".68"/><circle cx="5.63" cy="-49.59" r=".68"/><circle cx="2.55" cy="-50.67" r=".68"/><path d="M1-51.92a.68.68 0 0 0 0-1.36M58.6-53.28h-.01a.68.68 0 0 0 0 1.36h.01"/><circle cx="9.63" cy="-43.76" r=".68"/><circle cx="17.71" cy="-45.08" r=".68"/><circle cx="22.29" cy="-46.17" r=".68"/><circle cx="51.04" cy="-28.67" r=".68"/><circle cx="39.38" cy="-50.75" r=".68"/><circle cx="28.8" cy="-57.59" r=".68"/><circle cx="19.47" cy="-39.09" r=".68"/><circle cx="26.88" cy="-31.75" r=".68"/><circle cx="35.21" cy="-30.67" r=".68"/><circle cx="31.29" cy="-20.5" r=".68"/><circle cx="57.8" cy="-27.51" r=".68"/><circle cx="49.63" cy="-18.75" r=".68"/><circle cx="1.81" cy="-33.83" r=".68"/><circle cx="20.73" cy="-29.58" r=".68"/><circle cx="25.89" cy="-24.5" r=".68"/><circle cx="13.38" cy="-19.67" r=".68"/><circle cx="32.72" cy="-14.26" r=".68"/><circle cx="42.3" cy="-15.59" r=".68"/><circle cx="57.63" cy="-9.67" r=".68"/><circle cx="53.38" cy="-3.59" r=".68"/><circle cx="42.55" cy="-2.01" r=".68"/><path d="M46.6-1.2a.68.68 0 0 1 1.35 0M47.95-58.8a.68.68 0 0 1-1.36 0"/><circle cx="14.55" cy="-4.59" r=".68"/><circle cx="7.55" cy="-5.09" r=".68"/><circle cx="2.3" cy="-17.67" r=".68"/><circle cx="40.64" cy="-27.25" r=".68"/><circle cx="21.98" cy="-33.67" r=".68"/><circle cx="4.56" cy="-22.75" r=".68"/><circle cx="46.97" cy="-47.42" r=".68"/><circle cx="32.63" cy="-41.42" r=".68"/><circle cx="34.63" cy="-38.76" r=".68"/><circle cx="39.47" cy="-33.59" r=".68"/><circle cx="45.63" cy="-31.26" r=".68"/><circle cx="47.63" cy="-27.59" r=".68"/><circle cx="52.47" cy="-25.26" r=".68"/><circle cx="45.63" cy="-18.26" r=".68"/><circle cx="55.63" cy="-31.59" r=".68"/><circle cx="49.8" cy="-48.59" r=".68"/><circle cx="40.13" cy="-46.42" r=".68"/><circle cx="52.47" cy="-51.59" r=".68"/><circle cx="48.63" cy="-35.09" r=".68"/><circle cx="23.22" cy="-11.76" r=".68"/><circle cx="20.32" cy="-12.88" r=".68"/><circle cx="23.38" cy="-3.67" r=".68"/><circle cx="17.63" cy="-11.34" r=".68"/><circle cx="30.8" cy="-6.59" r=".68"/><circle cx="55.13" cy="-42.92" r=".36"/><circle cx="57.47" cy="-42.76" r=".36"/><circle cx="56.47" cy="-40.42" r=".36"/><circle cx="53.63" cy="-45.42" r=".36"/><circle cx="48.97" cy="-42.42" r=".36"/><circle cx="46.13" cy="-45.26" r=".36"/><circle cx="43.13" cy="-46.09" r=".36"/><circle cx="44.63" cy="-48.92" r=".36"/><circle cx="46.3" cy="-49.76" r=".36"/><circle cx="51.63" cy="-41.76" r=".36"/><circle cx="52.8" cy="-43.76" r=".36"/><circle cx="50.47" cy="-39.92" r=".36"/><circle cx="53.63" cy="-39.59" r=".36"/><circle cx="57.13" cy="-37.76" r=".36"/><circle cx="56.3" cy="-36.09" r=".36"/><circle cx="53.8" cy="-36.59" r=".36"/><circle cx="51.8" cy="-34.42" r=".36"/><circle cx="54.3" cy="-33.92" r=".36"/><circle cx="57.3" cy="-33.92" r=".36"/><circle cx="58.13" cy="-35.59" r=".36"/><circle cx="58.13" cy="-12.26" r=".36"/><circle cx="55.13" cy="-11.76" r=".36"/><circle cx="52.63" cy="-12.34" r=".36"/><circle cx="52.63" cy="-14.76" r=".36"/><circle cx="49.8" cy="-13.76" r=".36"/><circle cx="50.72" cy="-12.51" r=".36"/><circle cx="51.55" cy="-9.51" r=".36"/><circle cx="54.63" cy="-7.59" r=".36"/><circle cx="16.93" cy="-10.04" r=".36"/><circle cx="1.77" cy="-15.54" r=".36"/><circle cx="26.1" cy="-28.7" r=".36"/><circle cx="23.35" cy="-27.45" r=".36"/><circle cx="32.18" cy="-10.37" r=".36"/><circle cx="7.52" cy="-30.29" r=".36"/><circle cx="20.85" cy="-39.7" r=".36"/><circle cx="24.27" cy="-56.2" r=".36"/><circle cx="30.35" cy="-57.04" r=".36"/><circle cx="15.18" cy="-49.87" r=".36"/><circle cx="17.31" cy="-51.16" r=".36"/><circle cx="23.68" cy="-57.79" r=".36"/><circle cx="31.1" cy="-51.87" r=".36"/><circle cx="2.6" cy="-57.79" r=".36"/><circle cx="49.52" cy="-44.45" r=".36"/><circle cx="38.6" cy="-49.54" r=".36"/><circle cx="31.6" cy="-48.7" r=".36"/><circle cx="44.68" cy="-3.91" r=".36"/><circle cx="32.43" cy="-1.66" r=".36"/><circle cx="9.81" cy="-4.54" r=".36"/><circle cx="50.56" cy="-32.79" r=".36"/><circle cx="6.31" cy="-22.04" r=".36"/><circle cx="2.31" cy="-12.16" r=".36"/><circle cx="53.68" cy="-5.16" r=".36"/><circle cx="55.06" cy="-10.04" r=".36"/><circle cx="57.56" cy="-2.16" r=".36"/><circle cx="56.63" cy="-6.67" r=".36"/><circle cx="56.47" cy="-4" r=".36"/><circle cx="46.05" cy="-13.17" r=".36"/><circle cx="45.22" cy="-15.84" r=".36"/><circle cx="38.72" cy="-14.67" r=".36"/><circle cx="37.55" cy="-13.67" r=".36"/><circle cx="36.47" cy="-17.67" r=".36"/><circle cx="34.55" cy="-16.5" r=".36"/><circle cx="34.88" cy="-14.84" r=".36"/><circle cx="29.8" cy="-13.67" r=".36"/><circle cx="30.55" cy="-11.59" r=".36"/><circle cx="28.38" cy="-20.25" r=".36"/><circle cx="29.63" cy="-22.84" r=".36"/><circle cx="28.22" cy="-24.09" r=".36"/><circle cx="25.55" cy="-21.67" r=".36"/><circle cx="23.8" cy="-20.5" r=".36"/><circle cx="25.63" cy="-18.34" r=".36"/><circle cx="28.8" cy="-18.34" r=".36"/><circle cx="30.55" cy="-17.42" r=".36"/><circle cx="32.8" cy="-17.92" r=".36"/><circle cx="35.13" cy="-19.09" r=".36"/><circle cx="33.55" cy="-20.34" r=".36"/><circle cx="41.22" cy="-11.84" r=".36"/><circle cx="43.63" cy="-12.51" r=".36"/><circle cx="43.47" cy="-9.76" r=".36"/><circle cx="44.55" cy="-7.59" r=".36"/><circle cx="42.55" cy="-4.5" r=".36"/><circle cx="46.3" cy="-2.59" r=".36"/><circle cx="50.3" cy="-1.92" r=".36"/><circle cx="55.22" cy="-1.6" r=".36"/><circle cx="39.22" cy="-5" r=".36"/><circle cx="41.38" cy="-6.5" r=".36"/><circle cx="39.46" cy="-1.68" r=".36"/><circle cx="39.3" cy="-16.34" r=".36"/><circle cx="40.38" cy="-19.25" r=".36"/><circle cx="43.76" cy="-19.38" r=".36"/><circle cx="41.63" cy="-17.25" r=".36"/><circle cx="5.51" cy="-43.01" r=".36"/><circle cx="36.55" cy="-3.67" r=".36"/><circle cx="8.88" cy="-2.75" r=".36"/><circle cx="28.8" cy="-32.76" r=".36"/><circle cx="48.55" cy="-3.25" r=".36"/><circle cx="47.55" cy="-11.67" r=".36"/><circle cx="48.8" cy="-10.17" r=".36"/><circle cx="45.8" cy="-9.59" r=".36"/><circle cx="47.63" cy="-7.42" r=".36"/><circle cx="48.88" cy="-6.25" r=".36"/><circle cx="50.55" cy="-7.75" r=".36"/><circle cx="51.55" cy="-6.75" r=".36"/><circle cx="50.63" cy="-5.42" r=".36"/><circle cx="58.01" cy="-14.63" r=".36"/><circle cx="55.55" cy="-15.42" r=".36"/><circle cx="51.3" cy="-17.25" r=".36"/><circle cx="49.47" cy="-27.34" r=".36"/><circle cx="49.05" cy="-25.75" r=".36"/><circle cx="38.72" cy="-20.09" r=".36"/><circle cx="50.88" cy="-20.75" r=".36"/><circle cx="56.63" cy="-14.01" r=".36"/><circle cx="20.63" cy="-16.5" r=".36"/><circle cx="15.63" cy="-22.42" r=".36"/><circle cx="15.97" cy="-16.84" r=".36"/><circle cx="14.63" cy="-15.76" r=".36"/><circle cx="18.38" cy="-15.76" r=".36"/><circle cx="25.55" cy="-33.84" r=".36"/><circle cx="47.3" cy="-41.84" r=".36"/><circle cx="35.38" cy="-21.25" r=".36"/><circle cx="36.72" cy="-23.42" r=".36"/><circle cx="37.72" cy="-25.59" r=".36"/><circle cx="34.3" cy="-25.34" r=".36"/><circle cx="32.88" cy="-23.34" r=".36"/><circle cx="58.13" cy="-29.42" r=".36"/><circle cx="53.47" cy="-29.75" r=".36"/><circle cx="51.13" cy="-30.75" r=".36"/><circle cx="48.38" cy="-33.08" r=".36"/><circle cx="45.3" cy="-34.42" r=".36"/><circle cx="45.47" cy="-36.67" r=".36"/><circle cx="44.8" cy="-38.51" r=".36"/><circle cx="43.05" cy="-37.42" r=".36"/><circle cx="40.22" cy="-38.09" r=".36"/><circle cx="40.63" cy="-35.17" r=".36"/><circle cx="43.38" cy="-33.17" r=".36"/><circle cx="39.13" cy="-36.51" r=".36"/><circle cx="36.72" cy="-36.76" r=".36"/><circle cx="37.22" cy="-35.17" r=".36"/><circle cx="36.63" cy="-39.76" r=".36"/><circle cx="47.47" cy="-43.76" r=".36"/><circle cx="41.55" cy="-44.59" r=".36"/><circle cx="32.97" cy="-45.34" r=".36"/><circle cx="30.47" cy="-45.51" r=".36"/><circle cx="27.8" cy="-45.92" r=".36"/><circle cx="26.22" cy="-44.92" r=".36"/><circle cx="28.55" cy="-48.34" r=".36"/><circle cx="26.47" cy="-49.84" r=".36"/><circle cx="26.22" cy="-52.42" r=".36"/><circle cx="25.47" cy="-47.59" r=".36"/><circle cx="23.38" cy="-49.58" r=".36"/><circle cx="20.55" cy="-48.84" r=".36"/><circle cx="18.97" cy="-47.92" r=".36"/><circle cx="49.05" cy="-36.92" r=".36"/><circle cx="56.3" cy="-25.84" r=".36"/><circle cx="54.72" cy="-28.42" r=".36"/><circle cx="54.72" cy="-23.59" r=".36"/><circle cx="57.63" cy="-22.92" r=".36"/><circle cx="58.01" cy="-25.07" r=".36"/><circle cx="44.97" cy="-26.59" r=".36"/><circle cx="42.88" cy="-25.5" r=".36"/><circle cx="46.05" cy="-25.09" r=".36"/><circle cx="49.55" cy="-22.67" r=".36"/><circle cx="53.55" cy="-21.92" r=".36"/><circle cx="52.72" cy="-19.75" r=".36"/><circle cx="55.55" cy="-20.59" r=".36"/><circle cx="57.55" cy="-20.42" r=".36"/><circle cx="56.97" cy="-16.67" r=".36"/><circle cx="53.38" cy="-17.5" r=".36"/><circle cx="47.72" cy="-17.59" r=".36"/><circle cx="49.47" cy="-15.84" r=".36"/><circle cx="47.05" cy="-21.25" r=".36"/><circle cx="46.72" cy="-23.67" r=".36"/><circle cx="44.88" cy="-22.59" r=".36"/><circle cx="43.38" cy="-21.42" r=".36"/><circle cx="41.3" cy="-22.84" r=".36"/><circle cx="39.8" cy="-24.34" r=".36"/><circle cx="48.8" cy="-29.92" r=".36"/><circle cx="51.47" cy="-37.59" r=".36"/><circle cx="46.97" cy="-39.59" r=".36"/><circle cx="44.3" cy="-42.42" r=".36"/><circle cx="39.8" cy="-42.92" r=".36"/><circle cx="42.3" cy="-40.42" r=".36"/><circle cx="37.97" cy="-40.92" r=".36"/><circle cx="35.8" cy="-42.09" r=".36"/><circle cx="37.8" cy="-44.76" r=".36"/><circle cx="36.97" cy="-47.76" r=".36"/><circle cx="34.97" cy="-46.09" r=".36"/><circle cx="41.13" cy="-48.59" r=".36"/><circle cx="57.13" cy="-54.09" r=".36"/><circle cx="56.8" cy="-55.59" r=".36"/><circle cx="53.63" cy="-55.59" r=".36"/><circle cx="52.63" cy="-53.76" r=".36"/><circle cx="55.13" cy="-52.59" r=".36"/><circle cx="54.97" cy="-57.26" r=".36"/><circle cx="57.13" cy="-57.92" r=".36"/><circle cx="53.3" cy="-58.09" r=".36"/><circle cx="50.87" cy="-58.41" r=".36"/><circle cx="57.47" cy="-50.09" r=".36"/><circle cx="55.47" cy="-49.09" r=".36"/><circle cx="53.13" cy="-48.59" r=".36"/><circle cx="56.97" cy="-45.59" r=".36"/><circle cx="51.01" cy="-47.51" r=".36"/><circle cx="50.51" cy="-24.63" r=".36"/><circle cx="49.8" cy="-52.92" r=".36"/><circle cx="49.13" cy="-51.09" r=".36"/><circle cx="45.97" cy="-52.42" r=".36"/><circle cx="47.3" cy="-54.59" r=".36"/><circle cx="38.88" cy="-57.59" r=".36"/><circle cx="43.22" cy="-56.84" r=".36"/><circle cx="44.05" cy="-55.26" r=".36"/><circle cx="40.72" cy="-54.92" r=".36"/><circle cx="41.6" cy="-57.87" r=".36"/><circle cx="37.63" cy="-56.51" r=".36"/><circle cx="35.72" cy="-56.42" r=".36"/><circle cx="36.38" cy="-54.67" r=".36"/><circle cx="33.22" cy="-57.51" r=".36"/><path d="M36.6-58.8a.36.36 0 0 1-.7 0"/><circle cx="6.88" cy="-58.26" r=".36"/><circle cx="4.55" cy="-57.42" r=".36"/><circle cx="2.55" cy="-55.26" r=".36"/><circle cx="7.22" cy="-55.92" r=".36"/><circle cx="9.22" cy="-57.92" r=".36"/><circle cx="12.47" cy="-58.26" r=".36"/><circle cx="15.82" cy="-58.38" r=".36"/><circle cx="20.47" cy="-57.84" r=".36"/><circle cx="25.22" cy="-54.84" r=".36"/><circle cx="21.55" cy="-55.59" r=".36"/><circle cx="17.72" cy="-55.92" r=".36"/><circle cx="14.63" cy="-55.59" r=".36"/><circle cx="11.88" cy="-55.34" r=".36"/><circle cx="8.55" cy="-53.92" r=".36"/><circle cx="5.3" cy="-53.92" r=".36"/><circle cx="7.63" cy="-51.84" r=".36"/><circle cx="4.63" cy="-51.59" r=".36"/><circle cx="9.05" cy="-49.92" r=".36"/><circle cx="11.3" cy="-50.92" r=".36"/><circle cx="13.05" cy="-51.84" r=".36"/><circle cx="12.63" cy="-48.92" r=".36"/><circle cx="10.05" cy="-47.51" r=".36"/><circle cx="13.05" cy="-46.59" r=".36"/><circle cx="16.47" cy="-47.34" r=".36"/><circle cx="11.55" cy="-44.76" r=".36"/><circle cx="13.72" cy="-44.01" r=".36"/><circle cx="8.05" cy="-46.01" r=".36"/><circle cx="7.47" cy="-47.76" r=".36"/><circle cx="4.13" cy="-47.42" r=".36"/><circle cx="1.63" cy="-46.59" r=".36"/><circle cx="2.88" cy="-45.51" r=".36"/><circle cx="5.55" cy="-45.42" r=".36"/><circle cx="6.63" cy="-44.42" r=".36"/><circle cx="7.05" cy="-41.67" r=".36"/><circle cx="4.22" cy="-40.92" r=".36"/><circle cx="1.64" cy="-38.84" r=".36"/><circle cx="5.63" cy="-39.42" r=".36"/><circle cx="4.63" cy="-37.42" r=".36"/><circle cx="4.97" cy="-35.51" r=".36"/><circle cx="8.38" cy="-35.51" r=".36"/><circle cx="9.05" cy="-39.59" r=".36"/><circle cx="11.22" cy="-38.92" r=".36"/><circle cx="10.88" cy="-41.59" r=".36"/><circle cx="13.22" cy="-42.17" r=".36"/><circle cx="13.3" cy="-39.67" r=".36"/><circle cx="14.22" cy="-38.01" r=".36"/><circle cx="12.72" cy="-36.51" r=".36"/><circle cx="15.13" cy="-35.34" r=".36"/><circle cx="17.55" cy="-35.51" r=".36"/><circle cx="16.88" cy="-38.42" r=".36"/><circle cx="15.55" cy="-45.59" r=".36"/><circle cx="7.88" cy="-32.59" r=".36"/><circle cx="6.63" cy="-34.59" r=".36"/><circle cx="10.8" cy="-33.59" r=".36"/><circle cx="11.88" cy="-31.5" r=".36"/><circle cx="14.05" cy="-30.59" r=".36"/><circle cx="16.13" cy="-31.5" r=".36"/><circle cx="14.38" cy="-33.51" r=".36"/><circle cx="17.97" cy="-31" r=".36"/><circle cx="19.47" cy="-35.76" r=".36"/><circle cx="21.8" cy="-38.34" r=".36"/><circle cx="21.72" cy="-35.92" r=".36"/><circle cx="24.55" cy="-36.01" r=".36"/><circle cx="23.72" cy="-37.84" r=".36"/><circle cx="27.22" cy="-34.84" r=".36"/><circle cx="28.88" cy="-36.17" r=".36"/><circle cx="32.18" cy="-37.04" r=".36"/><circle cx="34.35" cy="-43.54" r=".36"/><circle cx="25.6" cy="-42.79" r=".36"/><circle cx="21.02" cy="-31.87" r=".36"/><circle cx="19.68" cy="-33.54" r=".36"/><circle cx="42.02" cy="-42.2" r=".36"/><circle cx="38.43" cy="-42.45" r=".36"/><circle cx="21.1" cy="-44.95" r=".36"/><circle cx="7.6" cy="-37.87" r=".36"/><circle cx="1.85" cy="-36.45" r=".36"/><circle cx="38.6" cy="-22.37" r=".36"/><circle cx="28.97" cy="-40.42" r=".36"/><circle cx="28.3" cy="-38.09" r=".36"/><circle cx="31.13" cy="-39.01" r=".36"/><circle cx="30.63" cy="-35.01" r=".36"/><circle cx="33.13" cy="-35.09" r=".36"/><circle cx="31.63" cy="-32.34" r=".36"/><circle cx="36.8" cy="-32.42" r=".36"/><circle cx="35.22" cy="-33.51" r=".36"/><circle cx="19.38" cy="-23.5" r=".36"/><circle cx="21.05" cy="-21.92" r=".36"/><circle cx="18.55" cy="-21.5" r=".36"/><circle cx="16.38" cy="-24.84" r=".36"/><circle cx="19.55" cy="-18.75" r=".36"/><circle cx="22.05" cy="-19.17" r=".36"/><circle cx="22.88" cy="-18" r=".36"/><circle cx="23.63" cy="-15.59" r=".36"/><circle cx="26.05" cy="-16.34" r=".36"/><circle cx="26.97" cy="-14.42" r=".36"/><circle cx="25.38" cy="-13.59" r=".36"/><circle cx="17.55" cy="-14.42" r=".36"/><circle cx="20.97" cy="-10.09" r=".36"/><circle cx="19.55" cy="-8.34" r=".36"/><circle cx="22.63" cy="-7.5" r=".36"/><circle cx="24.63" cy="-9.42" r=".36"/><circle cx="28.47" cy="-8.76" r=".36"/><circle cx="27.13" cy="-6.59" r=".36"/><circle cx="29.38" cy="-5.5" r=".36"/><circle cx="32.72" cy="-4.5" r=".36"/><circle cx="33.8" cy="-3.17" r=".36"/><circle cx="30.47" cy="-2.59" r=".36"/><circle cx="33.38" cy="-8.34" r=".36"/><circle cx="36.8" cy="-9.59" r=".36"/><circle cx="39.72" cy="-7.75" r=".36"/><circle cx="37.72" cy="-6.59" r=".36"/><circle cx="35.47" cy="-8.42" r=".36"/><circle cx="35.38" cy="-5.42" r=".36"/><circle cx="16.88" cy="-7.59" r=".36"/><circle cx="15.13" cy="-7.5" r=".36"/><circle cx="10.63" cy="-10.26" r=".36"/><circle cx="7.55" cy="-11.76" r=".36"/><circle cx="5.88" cy="-13.92" r=".36"/><circle cx="4.63" cy="-16.42" r=".36"/><circle cx="4.22" cy="-19.67" r=".36"/><circle cx="7.47" cy="-24.67" r=".36"/><circle cx="3.05" cy="-14.17" r=".36"/><circle cx="2.3" cy="-10.09" r=".36"/><circle cx="4.47" cy="-11.51" r=".36"/><circle cx="5.63" cy="-10.59" r=".36"/><circle cx="7.47" cy="-8.76" r=".36"/><circle cx="4.13" cy="-7.84" r=".36"/><circle cx="5.97" cy="-6.92" r=".36"/><circle cx="4.72" cy="-5.75" r=".36"/><circle cx="2.47" cy="-3.67" r=".36"/><circle cx="4.55" cy="-1.75" r=".36"/><circle cx="10.63" cy="-3.42" r=".36"/><circle cx="10.63" cy="-6.59" r=".36"/><circle cx="7.3" cy="-3.34" r=".36"/><circle cx="17.13" cy="-2.42" r=".36"/><circle cx="13.47" cy="-2.59" r=".36"/><circle cx="12.38" cy="-5.84" r=".36"/><circle cx="16.55" cy="-5.42" r=".36"/><circle cx="20.22" cy="-2.84" r=".36"/><circle cx="16.8" cy="-19.25" r=".36"/><circle cx="25.55" cy="-3.42" r=".36"/><circle cx="23.88" cy="-1.76" r=".36"/><circle cx="21.38" cy="-5" r=".36"/><circle cx="20.47" cy="-6.59" r=".36"/><circle cx="24.97" cy="-4.92" r=".36"/><circle cx="25.3" cy="-7.67" r=".36"/><circle cx="27.55" cy="-3.5" r=".36"/><circle cx="28.72" cy="-1.67" r=".36"/><circle cx="14.55" cy="-9.51" r=".36"/><circle cx="15.46" cy="-12.5" r=".36"/><circle cx="2.77" cy="-6.37" r=".36"/><circle cx="11.93" cy="-13.87" r=".36"/><circle cx="24.85" cy="-25.95" r=".36"/><circle cx="15.02" cy="-25.45" r=".36"/><circle cx="57.18" cy="-31.37" r=".36"/><circle cx="52.85" cy="-32.29" r=".36"/><circle cx="31.68" cy="-15.45" r=".36"/><circle cx="12.55" cy="-12.51" r=".36"/><circle cx="12.47" cy="-17.67" r=".36"/><circle cx="11.72" cy="-21.5" r=".36"/><circle cx="10.63" cy="-19.59" r=".36"/><circle cx="9.8" cy="-17.59" r=".36"/><circle cx="10.55" cy="-14.67" r=".36"/><circle cx="7.8" cy="-14.42" r=".36"/><circle cx="7.3" cy="-17.59" r=".36"/><circle cx="6.97" cy="-20.34" r=".36"/><circle cx="8.8" cy="-20.92" r=".36"/><circle cx="8.63" cy="-23.25" r=".36"/><circle cx="27.55" cy="-12.09" r=".36"/><circle cx="33.63" cy="-10.42" r=".36"/><circle cx="35.55" cy="-11.67" r=".36"/><circle cx="39.47" cy="-10.76" r=".36"/><circle cx="39.63" cy="-13.42" r=".36"/><circle cx="30.55" cy="-29.84" r=".36"/><circle cx="28.8" cy="-28.67" r=".36"/><circle cx="24.63" cy="-29.67" r=".36"/><circle cx="24.13" cy="-31.92" r=".36"/><circle cx="39.3" cy="-30.67" r=".36"/><circle cx="42.22" cy="-30.67" r=".36"/><circle cx="43.47" cy="-28.84" r=".36"/><circle cx="38.38" cy="-28.75" r=".36"/><circle cx="33.47" cy="-28.59" r=".36"/><circle cx="32.13" cy="-27.25" r=".36"/><circle cx="35.63" cy="-26.59" r=".36"/><circle cx="31.55" cy="-25.09" r=".36"/><circle cx="28.47" cy="-25.67" r=".36"/><circle cx="26.13" cy="-27.42" r=".36"/><circle cx="21.72" cy="-27.5" r=".36"/><circle cx="22.97" cy="-23.67" r=".36"/><circle cx="19.72" cy="-25.67" r=".36"/><circle cx="18.3" cy="-28.42" r=".36"/><circle cx="16.05" cy="-28.84" r=".36"/><circle cx="15.38" cy="-27.34" r=".36"/><circle cx="11.63" cy="-28.84" r=".36"/><circle cx="9.38" cy="-30.92" r=".36"/><circle cx="7.63" cy="-29.09" r=".36"/><circle cx="9.63" cy="-28.59" r=".36"/><circle cx="10.63" cy="-26.09" r=".36"/><circle cx="13.05" cy="-26.75" r=".36"/><circle cx="1.64" cy="-30.68" r=".36"/><circle cx="2.8" cy="-29.5" r=".36"/><circle cx="4.63" cy="-32.84" r=".36"/><circle cx="2.97" cy="-34.76" r=".36"/><circle cx="1.55" cy="-19.59" r=".36"/><circle cx="5.55" cy="-31.25" r=".36"/><circle cx="9.47" cy="-36.92" r=".36"/><circle cx="17.97" cy="-32.92" r=".36"/><circle cx="45.97" cy="-55.92" r=".36"/><circle cx="32.8" cy="-30.92" r=".36"/><circle cx="11.3" cy="-8.76" r=".36"/><circle cx="46.97" cy="-5.25" r=".36"/><circle cx="12.8" cy="-23.5" r=".36"/><circle cx="6.72" cy="-26.92" r=".36"/><circle cx="5.47" cy="-28.5" r=".36"/><circle cx="5.55" cy="-25.59" r=".36"/><circle cx="2.72" cy="-25.67" r=".36"/><circle cx="2.3" cy="-23.34" r=".36"/><circle cx="24.38" cy="-39.51" r=".36"/><circle cx="26.55" cy="-40.76" r=".36"/><circle cx="2.55" cy="-42.59" r=".36"/><circle cx="17.3" cy="-42.76" r=".36"/><circle cx="22.55" cy="-43.51" r=".36"/><circle cx="24.13" cy="-44.92" r=".36"/><circle cx="27.55" cy="-42.51" r=".36"/><circle cx="31.05" cy="-42.84" r=".36"/><circle cx="22.47" cy="-41.67" r=".36"/><circle cx="19.63" cy="-42.76" r=".36"/><circle cx="18.55" cy="-41.51" r=".36"/><circle cx="15.47" cy="-40.51" r=".36"/><circle cx="17.63" cy="-53.59" r=".36"/><circle cx="19.8" cy="-53.51" r=".36"/><circle cx="20.55" cy="-51.76" r=".36"/><circle cx="18.63" cy="-49.84" r=".36"/><circle cx="25.47" cy="-57.51" r=".36"/><circle cx="28.63" cy="-54.59" r=".36"/><circle cx="31.05" cy="-54.17" r=".36"/><circle cx="32.63" cy="-54.92" r=".36"/><circle cx="33.72" cy="-53.01" r=".36"/><circle cx="32.55" cy="-50.59" r=".36"/><circle cx="35.72" cy="-50.67" r=".36"/><circle cx="34.63" cy="-48.59" r=".36"/><circle cx="32.38" cy="-46.59" r=".36"/><circle cx="29.72" cy="-49.42" r=".36"/><circle cx="41.3" cy="-52.92" r=".36"/><circle cx="42.8" cy="-50.42" r=".36"/><circle cx="48.97" cy="-55.17" r=".36"/><circle cx="58.13" cy="-47.38" r=".36"/><circle cx="38.97" cy="-53.51" r=".36"/><circle cx="36.8" cy="-52.84" r=".36"/></svg>