<svg xmlns="http://www.w3.org/2000/svg" xml:space="preserve" width="57.6" height="57.6" viewBox="0 -57.6 57.6 57.6"><path d="M0-57.6h57.6V0H0z" style="fill:none"/><circle cx="53.99" cy="-55.24" r=".88" style="fill-rule:evenodd;clip-rule:evenodd;fill:#ed1b2e"/><circle cx="48.42" cy="-55.05" r=".88" style="fill-rule:evenodd;clip-rule:evenodd;fill:#ed1b2e"/><path d="M45.64-57.6a.88.88 0 0 1-1.77 0M50.09-57.6v.03a.88.88 0 0 0 1.77 0v-.03M50.07 0a.88.88 0 0 1 1.76 0M57.6-17.96h-.02a.88.88 0 0 0 0 1.77h.02M57.6-8.02h-.02a.88.88 0 0 0 0 1.77h.02M57.6 0v-.83h-.02a.88.88 0 0 0-.89.83h.91M57.6-57.57v.83h-.02a.88.88 0 0 1-.89-.84h.91M35.15 0v-.01a.88.88 0 0 0-1.77 0V0M40.2 0v-.02a.88.88 0 0 0-1.77 0V0M45.65 0v-.01a.88.88 0 0 0-1.77 0V0" style="fill-rule:evenodd;clip-rule:evenodd;fill:#ed1b2e"/><circle cx="44.81" cy="-54.07" r=".88" style="fill-rule:evenodd;clip-rule:evenodd;fill:#ed1b2e"/><path d="M40.25-57.6a.88.88 0 0 1-1.76 0" style="fill-rule:evenodd;clip-rule:evenodd;fill:#ed1b2e"/><circle cx="40.92" cy="-53.8" r=".88" style="fill-rule:evenodd;clip-rule:evenodd;fill:#ed1b2e"/><circle cx="36.67" cy="-54.05" r=".88" style="fill-rule:evenodd;clip-rule:evenodd;fill:#ed1b2e"/><path d="M35.18-57.6a.88.88 0 0 1-1.76 0" style="fill-rule:evenodd;clip-rule:evenodd;fill:#ed1b2e"/><circle cx="33.05" cy="-53.3" r=".88" style="fill-rule:evenodd;clip-rule:evenodd;fill:#ed1b2e"/><circle cx="28.93" cy="-53.3" r=".88" style="fill-rule:evenodd;clip-rule:evenodd;fill:#ed1b2e"/><circle cx="27.05" cy="-56.43" r=".88" style="fill-rule:evenodd;clip-rule:evenodd;fill:#ed1b2e"/><circle cx="22.93" cy="-56.43" r=".88" style="fill-rule:evenodd;clip-rule:evenodd;fill:#ed1b2e"/><circle cx="25.05" cy="-53.06" r=".88" style="fill-rule:evenodd;clip-rule:evenodd;fill:#ed1b2e"/><circle cx="27.18" cy="-49.93" r=".88" style="fill-rule:evenodd;clip-rule:evenodd;fill:#ed1b2e"/><circle cx="31.05" cy="-50.18" r=".88" style="fill-rule:evenodd;clip-rule:evenodd;fill:#ed1b2e"/><circle cx="35.17" cy="-50.68" r=".88" style="fill-rule:evenodd;clip-rule:evenodd;fill:#ed1b2e"/><circle cx="39.42" cy="-50.43" r=".88" style="fill-rule:evenodd;clip-rule:evenodd;fill:#ed1b2e"/><circle cx="43.92" cy="-50.68" r=".88" style="fill-rule:evenodd;clip-rule:evenodd;fill:#ed1b2e"/><circle cx="47.74" cy="-51.49" r=".88" style="fill-rule:evenodd;clip-rule:evenodd;fill:#ed1b2e"/><circle cx="51.05" cy="-52.49" r=".88" style="fill-rule:evenodd;clip-rule:evenodd;fill:#ed1b2e"/><circle cx="54.56" cy="-51.57" r=".88" style="fill-rule:evenodd;clip-rule:evenodd;fill:#ed1b2e"/><circle cx="53.36" cy="-48.56" r=".88" style="fill-rule:evenodd;clip-rule:evenodd;fill:#ed1b2e"/><path d="M57.6-54.56a.88.88 0 0 0 0 1.76M57.6-49.38a.88.88 0 0 0 0 1.77" style="fill-rule:evenodd;clip-rule:evenodd;fill:#ed1b2e"/><circle cx="55.31" cy="-44.69" r=".88" style="fill-rule:evenodd;clip-rule:evenodd;fill:#ed1b2e"/><path d="M57.6-42.77h-.03a.88.88 0 0 0 0 1.77h.03" style="fill-rule:evenodd;clip-rule:evenodd;fill:#ed1b2e"/><circle cx="51.23" cy="-45.43" r=".88" style="fill-rule:evenodd;clip-rule:evenodd;fill:#ed1b2e"/><circle cx="52.86" cy="-41.87" r=".88" style="fill-rule:evenodd;clip-rule:evenodd;fill:#ed1b2e"/><circle cx="54.93" cy="-39.07" r=".88" style="fill-rule:evenodd;clip-rule:evenodd;fill:#ed1b2e"/><circle cx="56.05" cy="-35.31" r=".88" style="fill-rule:evenodd;clip-rule:evenodd;fill:#ed1b2e"/><circle cx="54.12" cy="-31.32" r=".88" style="fill-rule:evenodd;clip-rule:evenodd;fill:#ed1b2e"/><circle cx="56.13" cy="-28.66" r=".88" style="fill-rule:evenodd;clip-rule:evenodd;fill:#ed1b2e"/><circle cx="52.55" cy="-34.56" r=".88" style="fill-rule:evenodd;clip-rule:evenodd;fill:#ed1b2e"/><circle cx="51.3" cy="-37.5" r=".88" style="fill-rule:evenodd;clip-rule:evenodd;fill:#ed1b2e"/><circle cx="49.61" cy="-41.25" r=".88" style="fill-rule:evenodd;clip-rule:evenodd;fill:#ed1b2e"/><circle cx="45.8" cy="-40.94" r=".88" style="fill-rule:evenodd;clip-rule:evenodd;fill:#ed1b2e"/><circle cx="47.8" cy="-37.56" r=".88" style="fill-rule:evenodd;clip-rule:evenodd;fill:#ed1b2e"/><circle cx="48.92" cy="-33.81" r=".88" style="fill-rule:evenodd;clip-rule:evenodd;fill:#ed1b2e"/><circle cx="51.04" cy="-30.29" r=".88" style="fill-rule:evenodd;clip-rule:evenodd;fill:#ed1b2e"/><circle cx="52.64" cy="-27.15" r=".88" style="fill-rule:evenodd;clip-rule:evenodd;fill:#ed1b2e"/><circle cx="55.8" cy="-24.31" r=".88" style="fill-rule:evenodd;clip-rule:evenodd;fill:#ed1b2e"/><circle cx="52.36" cy="-23.5" r=".88" style="fill-rule:evenodd;clip-rule:evenodd;fill:#ed1b2e"/><circle cx="48.48" cy="-25.93" r=".88" style="fill-rule:evenodd;clip-rule:evenodd;fill:#ed1b2e"/><circle cx="47.74" cy="-29.46" r=".88" style="fill-rule:evenodd;clip-rule:evenodd;fill:#ed1b2e"/><circle cx="44.87" cy="-32.22" r=".88" style="fill-rule:evenodd;clip-rule:evenodd;fill:#ed1b2e"/><circle cx="44.28" cy="-29.28" r=".88" style="fill-rule:evenodd;clip-rule:evenodd;fill:#ed1b2e"/><circle cx="45.15" cy="-34.99" r=".88" style="fill-rule:evenodd;clip-rule:evenodd;fill:#ed1b2e"/><circle cx="43.42" cy="-38.19" r=".88" style="fill-rule:evenodd;clip-rule:evenodd;fill:#ed1b2e"/><circle cx="41.3" cy="-41.06" r=".88" style="fill-rule:evenodd;clip-rule:evenodd;fill:#ed1b2e"/><circle cx="39.17" cy="-38.19" r=".88" style="fill-rule:evenodd;clip-rule:evenodd;fill:#ed1b2e"/><circle cx="36.8" cy="-40.56" r=".88" style="fill-rule:evenodd;clip-rule:evenodd;fill:#ed1b2e"/><circle cx="41.42" cy="-34.81" r=".88" style="fill-rule:evenodd;clip-rule:evenodd;fill:#ed1b2e"/><circle cx="40.76" cy="-30.91" r=".88" style="fill-rule:evenodd;clip-rule:evenodd;fill:#ed1b2e"/><circle cx="44.52" cy="-26.04" r=".88" style="fill-rule:evenodd;clip-rule:evenodd;fill:#ed1b2e"/><circle cx="48.66" cy="-22.62" r=".88" style="fill-rule:evenodd;clip-rule:evenodd;fill:#ed1b2e"/><circle cx="56.31" cy="-20.57" r=".88" style="fill-rule:evenodd;clip-rule:evenodd;fill:#ed1b2e"/><circle cx="53.64" cy="-16.47" r=".88" style="fill-rule:evenodd;clip-rule:evenodd;fill:#ed1b2e"/><path d="M0-16.22h.05a.88.88 0 0 0 0-1.77H0" style="fill-rule:evenodd;clip-rule:evenodd;fill:#ed1b2e"/><circle cx="55.84" cy="-13.73" r=".88" style="fill-rule:evenodd;clip-rule:evenodd;fill:#ed1b2e"/><circle cx="47.49" cy="-44.81" r=".88" style="fill-rule:evenodd;clip-rule:evenodd;fill:#ed1b2e"/><circle cx="45.29" cy="-47.43" r=".88" style="fill-rule:evenodd;clip-rule:evenodd;fill:#ed1b2e"/><circle cx="49.04" cy="-48.43" r=".88" style="fill-rule:evenodd;clip-rule:evenodd;fill:#ed1b2e"/><circle cx="43.17" cy="-44.55" r=".88" style="fill-rule:evenodd;clip-rule:evenodd;fill:#ed1b2e"/><circle cx="41.29" cy="-47.8" r=".88" style="fill-rule:evenodd;clip-rule:evenodd;fill:#ed1b2e"/><circle cx="37.42" cy="-47.3" r=".88" style="fill-rule:evenodd;clip-rule:evenodd;fill:#ed1b2e"/><circle cx="39.29" cy="-44.43" r=".88" style="fill-rule:evenodd;clip-rule:evenodd;fill:#ed1b2e"/><circle cx="35.54" cy="-43.93" r=".88" style="fill-rule:evenodd;clip-rule:evenodd;fill:#ed1b2e"/><circle cx="33.79" cy="-47.3" r=".88" style="fill-rule:evenodd;clip-rule:evenodd;fill:#ed1b2e"/><circle cx="29.54" cy="-47.18" r=".88" style="fill-rule:evenodd;clip-rule:evenodd;fill:#ed1b2e"/><circle cx="31.54" cy="-43.55" r=".88" style="fill-rule:evenodd;clip-rule:evenodd;fill:#ed1b2e"/><circle cx="27.92" cy="-43.05" r=".88" style="fill-rule:evenodd;clip-rule:evenodd;fill:#ed1b2e"/><circle cx="29.37" cy="-39.97" r=".88" style="fill:#ed1b2e"/><circle cx="33.17" cy="-40.06" r=".88" style="fill-rule:evenodd;clip-rule:evenodd;fill:#ed1b2e"/><circle cx="35.17" cy="-36.56" r=".88" style="fill-rule:evenodd;clip-rule:evenodd;fill:#ed1b2e"/><circle cx="37.9" cy="-34.85" r=".88" style="fill-rule:evenodd;clip-rule:evenodd;fill:#ed1b2e"/><circle cx="36.96" cy="-31.39" r=".88" style="fill-rule:evenodd;clip-rule:evenodd;fill:#ed1b2e"/><circle cx="33.46" cy="-33.4" r=".88" style="fill-rule:evenodd;clip-rule:evenodd;fill:#ed1b2e"/><circle cx="31.3" cy="-36.8" r=".88" style="fill-rule:evenodd;clip-rule:evenodd;fill:#ed1b2e"/><circle cx="29.61" cy="-33.36" r=".88" style="fill-rule:evenodd;clip-rule:evenodd;fill:#ed1b2e"/><circle cx="27.18" cy="-36.36" r=".88" style="fill-rule:evenodd;clip-rule:evenodd;fill:#ed1b2e"/><circle cx="25.37" cy="-39.49" r=".88" style="fill-rule:evenodd;clip-rule:evenodd;fill:#ed1b2e"/><circle cx="23.93" cy="-42.55" r=".88" style="fill-rule:evenodd;clip-rule:evenodd;fill:#ed1b2e"/><circle cx="22.08" cy="-45.93" r=".88" style="fill-rule:evenodd;clip-rule:evenodd;fill:#ed1b2e"/><circle cx="18.99" cy="-48.43" r=".88" style="fill-rule:evenodd;clip-rule:evenodd;fill:#ed1b2e"/><circle cx="17.3" cy="-51.93" r=".88" style="fill-rule:evenodd;clip-rule:evenodd;fill:#ed1b2e"/><circle cx="15.49" cy="-54.36" r=".88" style="fill-rule:evenodd;clip-rule:evenodd;fill:#ed1b2e"/><circle cx="13.43" cy="-56.43" r=".88" style="fill-rule:evenodd;clip-rule:evenodd;fill:#ed1b2e"/><circle cx="10.62" cy="-54.13" r=".88" style="fill-rule:evenodd;clip-rule:evenodd;fill:#ed1b2e"/><path d="M9.73-57.6a.88.88 0 0 1-1.76 0" style="fill-rule:evenodd;clip-rule:evenodd;fill:#ed1b2e"/><circle cx="12.92" cy="-51.93" r=".88" style="fill-rule:evenodd;clip-rule:evenodd;fill:#ed1b2e"/><circle cx="14.54" cy="-48.8" r=".88" style="fill-rule:evenodd;clip-rule:evenodd;fill:#ed1b2e"/><circle cx="18.11" cy="-45.39" r=".88" style="fill-rule:evenodd;clip-rule:evenodd;fill:#ed1b2e"/><circle cx="19.54" cy="-42.3" r=".88" style="fill-rule:evenodd;clip-rule:evenodd;fill:#ed1b2e"/><circle cx="21.42" cy="-39.55" r=".88" style="fill-rule:evenodd;clip-rule:evenodd;fill:#ed1b2e"/><circle cx="22.79" cy="-36.55" r=".88" style="fill-rule:evenodd;clip-rule:evenodd;fill:#ed1b2e"/><circle cx="24.79" cy="-33.43" r=".88" style="fill-rule:evenodd;clip-rule:evenodd;fill:#ed1b2e"/><circle cx="20.68" cy="-33.05" r=".88" style="fill-rule:evenodd;clip-rule:evenodd;fill:#ed1b2e"/><circle cx="17.3" cy="-32.68" r=".88" style="fill-rule:evenodd;clip-rule:evenodd;fill:#ed1b2e"/><circle cx="12.98" cy="-33.27" r=".88" style="fill-rule:evenodd;clip-rule:evenodd;fill:#ed1b2e"/><circle cx="10.68" cy="-30.8" r=".88" style="fill-rule:evenodd;clip-rule:evenodd;fill:#ed1b2e"/><circle cx="7.75" cy="-33.4" r=".88" style="fill-rule:evenodd;clip-rule:evenodd;fill:#ed1b2e"/><circle cx="3.58" cy="-34.87" r=".88" style="fill-rule:evenodd;clip-rule:evenodd;fill:#ed1b2e"/><circle cx="9.67" cy="-35.49" r=".88" style="fill-rule:evenodd;clip-rule:evenodd;fill:#ed1b2e"/><circle cx="1.05" cy="-32.45" r=".88" style="fill-rule:evenodd;clip-rule:evenodd;fill:#ed1b2e"/><circle cx="1.5" cy="-37.81" r=".88" style="fill-rule:evenodd;clip-rule:evenodd;fill:#ed1b2e"/><circle cx="3.99" cy="-40.93" r=".88" style="fill-rule:evenodd;clip-rule:evenodd;fill:#ed1b2e"/><circle cx="6.05" cy="-37.43" r=".88" style="fill-rule:evenodd;clip-rule:evenodd;fill:#ed1b2e"/><circle cx="11.38" cy="-37.96" r=".88" style="fill-rule:evenodd;clip-rule:evenodd;fill:#ed1b2e"/><circle cx="19.04" cy="-36.43" r=".88" style="fill-rule:evenodd;clip-rule:evenodd;fill:#ed1b2e"/><circle cx="15.27" cy="-36.15" r=".88" style="fill-rule:evenodd;clip-rule:evenodd;fill:#ed1b2e"/><circle cx="13.64" cy="-40.38" r=".88" style="fill-rule:evenodd;clip-rule:evenodd;fill:#ed1b2e"/><circle cx="17.27" cy="-39.27" r=".88" style="fill-rule:evenodd;clip-rule:evenodd;fill:#ed1b2e"/><circle cx="16.05" cy="-42.94" r=".88" style="fill-rule:evenodd;clip-rule:evenodd;fill:#ed1b2e"/><circle cx="13.43" cy="-45.44" r=".88" style="fill-rule:evenodd;clip-rule:evenodd;fill:#ed1b2e"/><circle cx="11.43" cy="-43.19" r=".88" style="fill-rule:evenodd;clip-rule:evenodd;fill:#ed1b2e"/><circle cx="8.27" cy="-40.69" r=".88" style="fill-rule:evenodd;clip-rule:evenodd;fill:#ed1b2e"/><circle cx="6.55" cy="-43.81" r=".88" style="fill-rule:evenodd;clip-rule:evenodd;fill:#ed1b2e"/><circle cx="2.55" cy="-44.25" r=".88" style="fill-rule:evenodd;clip-rule:evenodd;fill:#ed1b2e"/><path d="M0-40.99a.88.88 0 0 0 0-1.77" style="fill-rule:evenodd;clip-rule:evenodd;fill:#ed1b2e"/><circle cx="4.42" cy="-47" r=".88" style="fill-rule:evenodd;clip-rule:evenodd;fill:#ed1b2e"/><path d="M0-47.57a.88.88 0 0 0 0-1.77" style="fill-rule:evenodd;clip-rule:evenodd;fill:#ed1b2e"/><circle cx="9.3" cy="-46.19" r=".88" style="fill-rule:evenodd;clip-rule:evenodd;fill:#ed1b2e"/><circle cx="6.86" cy="-49.31" r=".88" style="fill-rule:evenodd;clip-rule:evenodd;fill:#ed1b2e"/><circle cx="11.05" cy="-49.06" r=".88" style="fill-rule:evenodd;clip-rule:evenodd;fill:#ed1b2e"/><circle cx="8.54" cy="-51.55" r=".88" style="fill-rule:evenodd;clip-rule:evenodd;fill:#ed1b2e"/><circle cx="4.92" cy="-52.75" r=".88" style="fill-rule:evenodd;clip-rule:evenodd;fill:#ed1b2e"/><path d="M0-52.8a.88.88 0 0 0 0-1.77" style="fill-rule:evenodd;clip-rule:evenodd;fill:#ed1b2e"/><circle cx="2.55" cy="-50.44" r=".88" style="fill-rule:evenodd;clip-rule:evenodd;fill:#ed1b2e"/><circle cx="6.78" cy="-55.07" r=".88" style="fill-rule:evenodd;clip-rule:evenodd;fill:#ed1b2e"/><path d="M0-57.6v.9c.47-.01.85-.4.85-.87v-.03H0" style="fill-rule:evenodd;clip-rule:evenodd;fill:#ed1b2e"/><circle cx="2.74" cy="-56.12" r=".88" style="fill-rule:evenodd;clip-rule:evenodd;fill:#ed1b2e"/><circle cx="26.73" cy="-30.77" r=".88" style="fill-rule:evenodd;clip-rule:evenodd;fill:#ed1b2e"/><circle cx="30.01" cy="-29.58" r=".88" style="fill-rule:evenodd;clip-rule:evenodd;fill:#ed1b2e"/><circle cx="33.21" cy="-29.78" r=".88" style="fill-rule:evenodd;clip-rule:evenodd;fill:#ed1b2e"/><circle cx="29.42" cy="-24.55" r=".88" style="fill-rule:evenodd;clip-rule:evenodd;fill:#ed1b2e"/><circle cx="33.17" cy="-26.57" r=".88" style="fill-rule:evenodd;clip-rule:evenodd;fill:#ed1b2e"/><circle cx="36.57" cy="-28.17" r=".88" style="fill-rule:evenodd;clip-rule:evenodd;fill:#ed1b2e"/><circle cx="36.54" cy="-24.93" r=".88" style="fill-rule:evenodd;clip-rule:evenodd;fill:#ed1b2e"/><circle cx="36.42" cy="-21.43" r=".88" style="fill-rule:evenodd;clip-rule:evenodd;fill:#ed1b2e"/><circle cx="40.42" cy="-20.68" r=".88" style="fill-rule:evenodd;clip-rule:evenodd;fill:#ed1b2e"/><circle cx="45.67" cy="-15.93" r=".88" style="fill-rule:evenodd;clip-rule:evenodd;fill:#ed1b2e"/><circle cx="47.54" cy="-12.3" r=".88" style="fill-rule:evenodd;clip-rule:evenodd;fill:#ed1b2e"/><circle cx="50.54" cy="-9.55" r=".88" style="fill-rule:evenodd;clip-rule:evenodd;fill:#ed1b2e"/><circle cx="41.79" cy="-16.43" r=".88" style="fill-rule:evenodd;clip-rule:evenodd;fill:#ed1b2e"/><circle cx="40.41" cy="-27.46" r=".88" style="fill-rule:evenodd;clip-rule:evenodd;fill:#ed1b2e"/><circle cx="40.42" cy="-24.06" r=".88" style="fill-rule:evenodd;clip-rule:evenodd;fill:#ed1b2e"/><circle cx="44.32" cy="-22.53" r=".88" style="fill-rule:evenodd;clip-rule:evenodd;fill:#ed1b2e"/><circle cx="44.45" cy="-19.22" r=".88" style="fill-rule:evenodd;clip-rule:evenodd;fill:#ed1b2e"/><circle cx="48.47" cy="-18.87" r=".88" style="fill-rule:evenodd;clip-rule:evenodd;fill:#ed1b2e"/><circle cx="52.49" cy="-19.81" r=".88" style="fill-rule:evenodd;clip-rule:evenodd;fill:#ed1b2e"/><circle cx="49.89" cy="-15.72" r=".88" style="fill-rule:evenodd;clip-rule:evenodd;fill:#ed1b2e"/><circle cx="52.39" cy="-12.97" r=".88" style="fill-rule:evenodd;clip-rule:evenodd;fill:#ed1b2e"/><circle cx="55.55" cy="-10" r=".88" style="fill-rule:evenodd;clip-rule:evenodd;fill:#ed1b2e"/><circle cx="53.17" cy="-7.3" r=".88" style="fill-rule:evenodd;clip-rule:evenodd;fill:#ed1b2e"/><circle cx="51.36" cy="-3.99" r=".88" style="fill:#ed1b2e"/><circle cx="45.42" cy="-4.81" r=".88" style="fill-rule:evenodd;clip-rule:evenodd;fill:#ed1b2e"/><circle cx="48.92" cy="-6.43" r=".88" style="fill-rule:evenodd;clip-rule:evenodd;fill:#ed1b2e"/><circle cx="47.9" cy="-2.12" r=".88" style="fill-rule:evenodd;clip-rule:evenodd;fill:#ed1b2e"/><circle cx="42.3" cy="-2.69" r=".88" style="fill-rule:evenodd;clip-rule:evenodd;fill:#ed1b2e"/><circle cx="46.17" cy="-9.06" r=".88" style="fill-rule:evenodd;clip-rule:evenodd;fill:#ed1b2e"/><circle cx="42.67" cy="-8.56" r=".88" style="fill-rule:evenodd;clip-rule:evenodd;fill:#ed1b2e"/><circle cx="43.3" cy="-12.67" r=".88" style="fill-rule:evenodd;clip-rule:evenodd;fill:#ed1b2e"/><circle cx="40.3" cy="-5.68" r=".88" style="fill-rule:evenodd;clip-rule:evenodd;fill:#ed1b2e"/><circle cx="36.92" cy="-3.18" r=".88" style="fill-rule:evenodd;clip-rule:evenodd;fill:#ed1b2e"/><circle cx="36.17" cy="-7.18" r=".88" style="fill-rule:evenodd;clip-rule:evenodd;fill:#ed1b2e"/><circle cx="39.17" cy="-9.93" r=".88" style="fill-rule:evenodd;clip-rule:evenodd;fill:#ed1b2e"/><circle cx="38.24" cy="-13.49" r=".88" style="fill-rule:evenodd;clip-rule:evenodd;fill:#ed1b2e"/><circle cx="37.05" cy="-17.3" r=".88" style="fill-rule:evenodd;clip-rule:evenodd;fill:#ed1b2e"/><circle cx="33.05" cy="-19.05" r=".88" style="fill-rule:evenodd;clip-rule:evenodd;fill:#ed1b2e"/><circle cx="32.92" cy="-23.05" r=".88" style="fill-rule:evenodd;clip-rule:evenodd;fill:#ed1b2e"/><circle cx="29.43" cy="-20.93" r=".88" style="fill-rule:evenodd;clip-rule:evenodd;fill:#ed1b2e"/><circle cx="25.43" cy="-19.55" r=".88" style="fill-rule:evenodd;clip-rule:evenodd;fill:#ed1b2e"/><circle cx="21.68" cy="-18.8" r=".88" style="fill-rule:evenodd;clip-rule:evenodd;fill:#ed1b2e"/><circle cx="18.55" cy="-19.55" r=".88" style="fill-rule:evenodd;clip-rule:evenodd;fill:#ed1b2e"/><circle cx="15.93" cy="-16.05" r=".88" style="fill-rule:evenodd;clip-rule:evenodd;fill:#ed1b2e"/><circle cx="11.3" cy="-17.18" r=".88" style="fill-rule:evenodd;clip-rule:evenodd;fill:#ed1b2e"/><circle cx="9.18" cy="-14.05" r=".88" style="fill-rule:evenodd;clip-rule:evenodd;fill:#ed1b2e"/><circle cx="6.67" cy="-17.68" r=".88" style="fill-rule:evenodd;clip-rule:evenodd;fill:#ed1b2e"/><circle cx="3" cy="-17.94" r=".88" style="fill-rule:evenodd;clip-rule:evenodd;fill:#ed1b2e"/><circle cx="5.57" cy="-21.02" r=".88" style="fill-rule:evenodd;clip-rule:evenodd;fill:#ed1b2e"/><circle cx="9.62" cy="-20.21" r=".88" style="fill-rule:evenodd;clip-rule:evenodd;fill:#ed1b2e"/><circle cx="14.05" cy="-19.8" r=".88" style="fill-rule:evenodd;clip-rule:evenodd;fill:#ed1b2e"/><circle cx="12.74" cy="-23.61" r=".88" style="fill:#ed1b2e"/><circle cx="16.92" cy="-22.49" r=".88" style="fill-rule:evenodd;clip-rule:evenodd;fill:#ed1b2e"/><circle cx="20.93" cy="-22.43" r=".88" style="fill-rule:evenodd;clip-rule:evenodd;fill:#ed1b2e"/><circle cx="25.62" cy="-22.74" r=".88" style="fill-rule:evenodd;clip-rule:evenodd;fill:#ed1b2e"/><circle cx="23.15" cy="-25.68" r=".88" style="fill-rule:evenodd;clip-rule:evenodd;fill:#ed1b2e"/><circle cx="19.3" cy="-25.81" r=".88" style="fill:#ed1b2e"/><circle cx="15.55" cy="-26.31" r=".88" style="fill-rule:evenodd;clip-rule:evenodd;fill:#ed1b2e"/><circle cx="15.18" cy="-29.8" r=".88" style="fill-rule:evenodd;clip-rule:evenodd;fill:#ed1b2e"/><circle cx="19.3" cy="-29.43" r=".88" style="fill-rule:evenodd;clip-rule:evenodd;fill:#ed1b2e"/><circle cx="22.93" cy="-29.43" r=".88" style="fill-rule:evenodd;clip-rule:evenodd;fill:#ed1b2e"/><circle cx="27.4" cy="-26.93" r=".88" style="fill-rule:evenodd;clip-rule:evenodd;fill:#ed1b2e"/><circle cx="11.68" cy="-27.18" r=".88" style="fill-rule:evenodd;clip-rule:evenodd;fill:#ed1b2e"/><circle cx="9.22" cy="-23.59" r=".88" style="fill-rule:evenodd;clip-rule:evenodd;fill:#ed1b2e"/><circle cx="7.17" cy="-25.79" r=".88" style="fill-rule:evenodd;clip-rule:evenodd;fill:#ed1b2e"/><circle cx="5.19" cy="-28.44" r=".88" style="fill-rule:evenodd;clip-rule:evenodd;fill:#ed1b2e"/><circle cx="3.95" cy="-24.13" r=".88" style="fill-rule:evenodd;clip-rule:evenodd;fill:#ed1b2e"/><circle cx="1.65" cy="-21.79" r=".88" style="fill-rule:evenodd;clip-rule:evenodd;fill:#ed1b2e"/><circle cx="1.85" cy="-26.25" r=".88" style="fill-rule:evenodd;clip-rule:evenodd;fill:#ed1b2e"/><circle cx="5.32" cy="-31.68" r=".88" style="fill-rule:evenodd;clip-rule:evenodd;fill:#ed1b2e"/><circle cx="2.22" cy="-29.65" r=".88" style="fill-rule:evenodd;clip-rule:evenodd;fill:#ed1b2e"/><circle cx="8.49" cy="-28.59" r=".88" style="fill-rule:evenodd;clip-rule:evenodd;fill:#ed1b2e"/><circle cx="33.92" cy="-15.05" r=".88" style="fill-rule:evenodd;clip-rule:evenodd;fill:#ed1b2e"/><circle cx="35.3" cy="-11.3" r=".88" style="fill-rule:evenodd;clip-rule:evenodd;fill:#ed1b2e"/><circle cx="32.17" cy="-8.68" r=".88" style="fill-rule:evenodd;clip-rule:evenodd;fill:#ed1b2e"/><circle cx="32.67" cy="-3.93" r=".88" style="fill-rule:evenodd;clip-rule:evenodd;fill:#ed1b2e"/><circle cx="30.3" cy="-1.68" r=".88" style="fill-rule:evenodd;clip-rule:evenodd;fill:#ed1b2e"/><circle cx="28.99" cy="-5.11" r=".88" style="fill-rule:evenodd;clip-rule:evenodd;fill:#ed1b2e"/><circle cx="28.43" cy="-9.56" r=".88" style="fill-rule:evenodd;clip-rule:evenodd;fill:#ed1b2e"/><circle cx="31.05" cy="-12.8" r=".88" style="fill-rule:evenodd;clip-rule:evenodd;fill:#ed1b2e"/><circle cx="27.05" cy="-14.05" r=".88" style="fill-rule:evenodd;clip-rule:evenodd;fill:#ed1b2e"/><circle cx="24.8" cy="-9.68" r=".88" style="fill-rule:evenodd;clip-rule:evenodd;fill:#ed1b2e"/><circle cx="25.3" cy="-5.8" r=".88" style="fill-rule:evenodd;clip-rule:evenodd;fill:#ed1b2e"/><circle cx="26.43" cy="-2.3" r=".88" style="fill-rule:evenodd;clip-rule:evenodd;fill:#ed1b2e"/><circle cx="22.68" cy="-2.05" r=".88" style="fill-rule:evenodd;clip-rule:evenodd;fill:#ed1b2e"/><circle cx="21.43" cy="-5.55" r=".88" style="fill-rule:evenodd;clip-rule:evenodd;fill:#ed1b2e"/><circle cx="17.43" cy="-5.8" r=".88" style="fill-rule:evenodd;clip-rule:evenodd;fill:#ed1b2e"/><circle cx="18.93" cy="-2.55" r=".88" style="fill-rule:evenodd;clip-rule:evenodd;fill:#ed1b2e"/><circle cx="15.05" cy="-2.05" r=".88" style="fill-rule:evenodd;clip-rule:evenodd;fill:#ed1b2e"/><circle cx="11.05" cy="-2.18" r=".88" style="fill-rule:evenodd;clip-rule:evenodd;fill:#ed1b2e"/><path d="M9.74 0v-.05a.88.88 0 0 0-1.76 0V0" style="fill-rule:evenodd;clip-rule:evenodd;fill:#ed1b2e"/><circle cx="7.42" cy="-3.44" r=".88" style="fill-rule:evenodd;clip-rule:evenodd;fill:#ed1b2e"/><circle cx="4.3" cy="-1.31" r=".88" style="fill-rule:evenodd;clip-rule:evenodd;fill:#ed1b2e"/><circle cx="3.42" cy="-5.43" r=".88" style="fill-rule:evenodd;clip-rule:evenodd;fill:#ed1b2e"/><circle cx="1.26" cy="-2.73" r=".88" style="fill-rule:evenodd;clip-rule:evenodd;fill:#ed1b2e"/><path d="M0 0h.83A.88.88 0 0 0 0-.86V0" style="fill-rule:evenodd;clip-rule:evenodd;fill:#ed1b2e"/><circle cx="1.42" cy="-12.18" r=".88" style="fill-rule:evenodd;clip-rule:evenodd;fill:#ed1b2e"/><circle cx="4.42" cy="-14.05" r=".88" style="fill-rule:evenodd;clip-rule:evenodd;fill:#ed1b2e"/><circle cx="6.79" cy="-11.3" r=".88" style="fill-rule:evenodd;clip-rule:evenodd;fill:#ed1b2e"/><circle cx="11.42" cy="-9.8" r=".88" style="fill-rule:evenodd;clip-rule:evenodd;fill:#ed1b2e"/><circle cx="13.29" cy="-13.3" r=".88" style="fill-rule:evenodd;clip-rule:evenodd;fill:#ed1b2e"/><circle cx="17.42" cy="-12.05" r=".88" style="fill-rule:evenodd;clip-rule:evenodd;fill:#ed1b2e"/><circle cx="22.04" cy="-12.68" r=".88" style="fill-rule:evenodd;clip-rule:evenodd;fill:#ed1b2e"/><circle cx="24.04" cy="-15.93" r=".88" style="fill-rule:evenodd;clip-rule:evenodd;fill:#ed1b2e"/><circle cx="29.92" cy="-16.93" r=".88" style="fill-rule:evenodd;clip-rule:evenodd;fill:#ed1b2e"/><circle cx="19.17" cy="-15.3" r=".88" style="fill-rule:evenodd;clip-rule:evenodd;fill:#ed1b2e"/><circle cx="6.55" cy="-7.43" r=".88" style="fill-rule:evenodd;clip-rule:evenodd;fill:#ed1b2e"/><path d="M0-8.04a.88.88 0 0 1 0 1.77" style="fill-rule:evenodd;clip-rule:evenodd;fill:#ed1b2e"/><circle cx="9.79" cy="-6.3" r=".88" style="fill-rule:evenodd;clip-rule:evenodd;fill:#ed1b2e"/><circle cx="13.04" cy="-5.68" r=".88" style="fill-rule:evenodd;clip-rule:evenodd;fill:#ed1b2e"/><circle cx="15.04" cy="-8.93" r=".88" style="fill-rule:evenodd;clip-rule:evenodd;fill:#ed1b2e"/><circle cx="19.92" cy="-9.05" r=".88" style="fill-rule:evenodd;clip-rule:evenodd;fill:#ed1b2e"/><circle cx="3.3" cy="-9.44" r=".88" style="fill-rule:evenodd;clip-rule:evenodd;fill:#ed1b2e"/><circle cx="55.8" cy="-4.55" r=".88" style="fill-rule:evenodd;clip-rule:evenodd;fill:#ed1b2e"/><circle cx="54.05" cy="-1.55" r=".88" style="fill-rule:evenodd;clip-rule:evenodd;fill:#ed1b2e"/><circle cx="25.92" cy="-46.18" r=".88" style="fill-rule:evenodd;clip-rule:evenodd;fill:#ed1b2e"/><circle cx="23.85" cy="-48.68" r=".88" style="fill-rule:evenodd;clip-rule:evenodd;fill:#ed1b2e"/><circle cx="21.61" cy="-51" r=".88" style="fill-rule:evenodd;clip-rule:evenodd;fill:#ed1b2e"/><circle cx="20.18" cy="-54.06" r=".88" style="fill-rule:evenodd;clip-rule:evenodd;fill:#ed1b2e"/><circle cx="18.43" cy="-56.56" r=".88" style="fill-rule:evenodd;clip-rule:evenodd;fill:#ed1b2e"/><circle cx="30.98" cy="-56.53" r=".88" style="fill-rule:evenodd;clip-rule:evenodd;fill:#ed1b2e"/></svg>