<svg xmlns="http://www.w3.org/2000/svg" xml:space="preserve" width="65.67" height="65.67" viewBox="1 -66.94 65.67 65.67"><path d="M1-66.94h65.67v65.67H1z" style="fill:none"/><path d="M30.07-39.9c2.03.75 2.63-1.57 2.18-1.65-.45-.07-.3.15-.9.98-.6.83-1.84.47-1.28.67zM22.97-36.58c.36.45 1.57 0 1.4-.49-.19-.5-.55.18-.9.09-.36-.09-.73.11-.5.4zM12.02-41c-.75.53 1.37 2.04 1.57 1.43.23-.68-.82-1.95-1.57-1.43zM18.4-38.67c-.75.37.24 2.06.6 1.57.37-.52.14-1.95-.6-1.57zM11.35-43.85c-.08.75 1.07 2.03 1.12 1.43.07-.9-1.05-2.18-1.13-1.43zM19.69-49.6c-.45.46.52.76.45 1.66-.08.9.42 1.54.67.9.68-1.73-.67-3-1.12-2.55zM27.8-47.4c-.38-3-1.05-2.02-1.28-1.2-.22.83 1.36 1.87 1.28 1.2zM3.54-35.9c-.47.43-.11 1.81.32 1.43.47-.42.16-1.84-.31-1.42zM2.91-38.08c0 .98 1.73.68 1.58.23-.2-.57-1.58-1.2-1.58-.23zM20.34-53.75c0-.82-.45-1.43-.97-.9-.53.52.97 1.54.97.9zM17.63-64.13c0-.83-.45-1.43-.98-.9-.52.52.98 1.53.98.9zM2.5-49.02c-.98.37.48 1.9.9 1.35.45-.6.07-1.73-.9-1.35zM10.82-37.33c.68.15 1.35-.9.53-1.42-.83-.52-1.19 1.28-.53 1.42zM17.67-34.27c.53-.45 0-1.58-.68-1.13-.67.45.16 1.57.68 1.13zM31.9-37.4c-.3-.68-1.54.52-1.05 1.2.37.53 1.34-.52 1.04-1.2zM24.92-41.9c-.38-.3-1.02 1.45-.45 1.57 1.05.23.83-1.27.45-1.57zM23.83-43.5c-.68.16-.45 1.61.22 1.5.98-.14.45-1.64-.22-1.5zM33.59-52.8c-.75 0-.78 1.43.15 1.43.75 0 .6-1.43-.15-1.43zM15-42.68c.82-.07 0-.82.22-1.2s.37-.9-.45-.97c-.82-.08-.54 2.24.22 2.17zM2.94-50.67c.52 1.05 1.13-.75.9-1.13-.22-.38-1.2.55-.9 1.13zM9.47-49.25c-.38.23-.6-.45-.97.07s1.44 1.79 1.57 1.13c.15-.75-.22-1.43-.6-1.2zM15.77-49.92c-.75.22-.05 1.64.6 1.27.52-.3.15-1.5-.6-1.27zM13.02-47.34c1.57.78.82-1.5.82-1.5s-1.87.97-.82 1.5zM24-66.94c-.1.21-.07.43.27.6.87.43 1.03-.07 1-.6M25.97-35.3c.82.68 1.35-.23.97-.9-.37-.67-1.5.46-.97.9zM14.8-36.27c-.38.37.97 1.78 1.12 1.2.07-.3-.75-1.58-1.13-1.2zM9.81-34.8c-.38-.23-1.44.77-.9 1.04.45.23 2.32-.2.9-1.05zM29.57-41.98c.68.6 1.35-1.42.9-1.5-.45-.07-1.46 1-.9 1.5zM14.95-59.15c-.98.38-.06 1.87.82 1.65.6-.15.15-2.02-.82-1.65zM21.55-63.65c0-.75-1.58-.68-1.58.15 0 .83 1.58.45 1.58-.15zM27.32-62.45c-.68 0-.83 1.87.3 1.73.6-.08.38-1.73-.3-1.73zM28.9-65.08c-.6.6.75 2.22 1.27 1.35.22-.37-.68-1.95-1.28-1.35zM2.12-63.35c-.38.38.15.68.23 1.43.07.74.23 1.95.52 1.42.9-1.65-.38-3.23-.75-2.85zM8.91-58.85c-.22.23.4 2.2.9 1.57 1.2-1.5-.67-1.8-.9-1.57zM6.77-66.94c-.07.16-.17.34-.33.54-.27.33-.57-.06-.76-.54M1-49.68c.47-.03.86-.23.72-.67-.12-.39-.4-.52-.72-.5M66.67-50.85c-.6 0-1.35.53-1.25.73.16.31.76.48 1.25.44M28.07-39.58c.75-.15.6-1.2-.3-1.2s-.44 1.35.3 1.2zM26.45-38.4c-.53.53.65 1.56 1.12.82.68-1.05-.6-1.34-1.13-.82zM22.3-51.77c-.9-.07-.91 1.43.22 1.43.6 0 .68-1.35-.22-1.43zM19.3-56.9c-.9-.07-.91 1.43.22 1.43.6 0 .68-1.36-.22-1.43zM23.42-58.25c-.9-.07-.91 1.43.23 1.43.6 0 .67-1.35-.23-1.43zM23.55-60.8c-.9-.07-.91 1.43.22 1.43.6 0 .68-1.36-.22-1.43zM28.82-55.92c.6 0 .68-1.35-.23-1.43-.9-.07-.9 1.43.23 1.43zM13.14-37.55c-.9-.07-.9 1.43.23 1.43.6 0 .68-1.36-.22-1.43zM31.14-55.77c-.82.22-.23 1.35.38 1.05.45-.23.45-1.28-.38-1.05zM32.69-50.23c-.83.23-.24 1.36.37 1.05.45-.22.45-1.27-.37-1.05zM17.9-50.9c-.83.23-.24 1.36.37 1.06.45-.23.45-1.28-.38-1.05zM17.87-54.27c-.82.22-.23 1.35.38 1.05.45-.23.45-1.28-.38-1.05zM15.24-54.95c-.82.23-.23 1.35.38 1.05.45-.23.45-1.27-.38-1.05zM8.95-51.35c-.83.23-.24 1.35.37 1.05.45-.23.45-1.28-.38-1.05zM15.32-37.92c.45-.23.45-1.28-.38-1.05-.82.22-.23 1.35.38 1.05zM16-51.13c.44-.22.44-1.27-.38-1.04-.82.22-.23 1.35.38 1.05zM26.64-58.85c-.82.23-.23 1.35.38 1.05.45-.23.45-1.28-.38-1.05zM29.09-59.72c.36-.18.36-1.02-.3-.84-.66.18-.19 1.08.3.84zM29.34-58.4c-.66.18-.18 1.08.3.84.36-.18.36-1.02-.3-.84zM33.67-60.02c-.66.19-.19 1.09.3.85.36-.18.36-1.02-.3-.84zM16-60.8c-.67.18-.2 1.08.3.84.36-.18.36-1.02-.3-.84zM18.92-65.95c-.66.18-.19 1.08.3.84.36-.18.36-1.02-.3-.84zM14.2-62.23c-.66.18-.2 1.09.3.84.36-.17.36-1.02-.3-.84zM11.04-65.83c-.65.18-.18 1.09.3.84.37-.18.37-1.02-.3-.84zM17.8-62.67c-.66.18-.2 1.08.3.84.35-.19.35-1.02-.3-.84zM5.42-65.9c-.66.18-.19 1.08.3.84.36-.18.36-1.02-.3-.84zM14.72-65c-.66.18-.19 1.08.3.84.36-.18.36-1.02-.3-.84zM13.6-63.73c-.66.18-.2 1.09.3.84.36-.17.36-1.02-.3-.84zM12.47-58.84c.36-.17.36-1.01-.3-.83-.66.18-.19 1.08.3.84zM4.65-62.04c-.66.18-.18 1.08.3.84.36-.18.36-1.02-.3-.84zM4.91-59.1c.36-.18.36-1.02-.3-.84s-.19 1.08.3.84zM5.9-57.4c-.67.18-.2 1.08.3.84.35-.18.35-1.02-.3-.84zM20.27-41.1c.25-1.38.68-1.12.75-1.42.07-.3-.97-.67-1.65-.22-.68.45.75 2.47.9 1.65zM25.14-38.38c.13-.5-1.08-.88-1.2-.3-.22 1.13 1.13.6 1.2.3zM21.57-38.77c.3-.15-.3-1.43-.75-.9-.45.52.02 1.26.75.9zM31.22-63.2c-.82.6.12 1.9.3 1.35.07-.23.53-1.95-.3-1.35zM17.05-48.05c-.08.45 1.57 1.2 1.57.6 0-1.42-1.44-1.44-1.57-.6zM4.97-45.4c-.68.08-.34 1.42.3 1.2.45-.14.38-1.27-.3-1.2zM3.55-41.9c-.45.6.81.94.98.6.3-.6-.53-1.2-.98-.6zM3.74-42.88c.42.11.57-.52.15-.83-.42-.32-.75.69-.15.84zM7.14-61.65c.3.82 1.43.23 1.05-.6-.37-.83-1.3-.1-1.04.6zM9.65-63.4c-.82.3-.01 1.83.45 1.06.23-.38.38-1.35-.45-1.05zM17.3-66.94c-.03.17-.09.34-.16.45-.3.51-.76.02-.8-.46M7.75-64.1c0-.68-.83-.9-.9-.3-.08.6.9.98.9.3zM5.72-63.95c-.68.15-.13 1.32.45.97.38-.22.22-1.12-.45-.97zM1.67-66.2c-.38.82.38 1.43.82.82.5-.64-.45-1.65-.82-.82zM27.25-42c.45-.53-.38-1.57-.83-1.35-.45.23.5 1.73.82 1.35zM7.75-45.2c.45-.75-.38-1.27-.68-.82-.3.45.34 1.37.67.82zM6.32-35.98c-.3.45.34 1.38.68.83.45-.75-.38-1.27-.68-.83zM4-39.71c-.23-.84-1.18-.6-1.06-.07.13.53 1.25.69 1.07.07zM2.06-45.46c.13.52 1.24.68 1.06.06-.24-.84-1.19-.59-1.06-.06zM5.8-45.8c.3-.07.75-.9-.08-1.05-.83-.15-.62 1.22.08 1.05zM6.54-39.42c-.3.82.68 1.27.9.97.48-.64-.6-1.8-.9-.97zM8.77-36.13c1.04.53.45-1.87-.08-1.72-.53.15-.73 1.32.08 1.73zM32.27-43.77c-.68-.15-.92.83-.23.97.38.07.9-.83.23-.98zM33.1-38.67c.6-.3.07-.9-.46-.9s-.1 1.17.45.9zM31.67-46.1c-.53 0-.1 1.18.45.9.6-.3.08-.9-.45-.9zM30.47-35.08c.3-.22.07-.52-.23-.52-.3 0-.02.71.23.52zM26.34-39.73c.3-.22.08-.52-.22-.52s-.02.71.22.52zM31.52-38.67c-.3 0-.02.7.23.52.3-.23.07-.52-.23-.52zM30.32-38.38c-.3 0-.02.72.23.53.3-.23.07-.52-.23-.52zM23.43-55.6c-.24 0-.02.57.18.43.24-.18.06-.42-.18-.42zM33.25-56.42c-.24 0-.02.57.18.42.24-.18.06-.42-.18-.42zM25.49-60.17c-.24 0-.02.57.18.42.24-.18.06-.42-.18-.42zM25.94-63.1c-.24 0-.02.57.18.43.24-.18.06-.42-.18-.42zM27.32-64.1c.24-.18.06-.42-.18-.42s-.02.57.18.42zM9.14-64.52c-.24 0-.02.57.18.42.24-.18.06-.42-.18-.42zM4.03-66.76c-.24 0-.02.57.18.42.24-.18.06-.42-.18-.42zM9.59-60.02c-.24 0-.02.57.18.42.24-.18.06-.42-.18-.42zM16.64-37.45c-.24 0-.02.57.18.43.24-.18.06-.42-.18-.42zM5.24-39.02c-.24 0-.02.57.18.42.24-.18.06-.42-.18-.42zM2.77-40.9c.24-.18.06-.42-.18-.42s-.02.56.18.42zM6.4-50.23c.23-.18.05-.42-.19-.42s-.01.57.18.42zM4.46-50.57c-.24 0-.01.57.18.42.25-.18.07-.42-.17-.42zM1.52-43.77c.24-.18.06-.42-.18-.42s-.02.56.18.41zM5.17-43.45c-.24 0-.02.57.18.43.24-.18.06-.42-.18-.42zM11.04-41.67c.25-.18.07-.42-.17-.42-.24 0-.02.56.18.42zM1.59-46.64c-.24 0-.02.57.18.42.24-.18.06-.42-.18-.42zM3.59-56.95c-.24 0-.02.57.18.43.24-.18.06-.42-.18-.42zM6.21-59.8c-.24 0-.01.57.18.42.25-.17.07-.41-.17-.41zM1.53-60.64c-.24 0-.02.57.18.42.24-.18.06-.42-.18-.42zM13.76-60.1c-.24 0-.02.57.18.43.24-.18.06-.42-.18-.42zM19.59-61.43c-.24 0-.02.57.18.42.24-.18.06-.42-.18-.42zM8.35-58.85c.24-.18.06-.42-.18-.42-.25 0-.02.57.18.42zM12.9-57.51c-.24 0-.02.57.18.42.24-.18.06-.42-.18-.42zM4.82-56c.24-.18.06-.42-.18-.42s-.02.57.18.42zM2.08-51.6c.24-.17.06-.41-.18-.41s-.02.57.18.42zM13.09-44.6c-.24 0-.02.57.18.43.24-.18.06-.42-.18-.42zM18.02-38.98c.24-.18.06-.42-.18-.42s-.02.57.18.42zM19.6-39.2c.23-.18.05-.42-.19-.42s-.01.57.18.42zM28.3-34.33c.3-.22.07-.52-.23-.52-.3 0-.02.71.23.52zM32.8-35.9c.3-.23.07-.53-.23-.53s-.02.72.23.53zM33.37-34.38c.23 0 .23-1.04-.38-1.12-.6-.08-.73 1.13.38 1.13zM19.5-35.63c-.68 0-.4 1.36.37 1.36.3 0 .3-1.35-.38-1.35zM11.45-35.33c-.53-.22-.74.93-.08 1.05.83.16.6-.82.08-1.05zM10-42.13c-.53-.22-.74.94-.08 1.06.82.15.6-.83.07-1.05zM9.7-44.23c-.53-.3-.7 1.05-.23 1.05.38 0 .75-.74.22-1.05zM7.82-41c-.53-.3-.7 1.05-.23 1.05.38 0 .76-.75.23-1.05zM8.2-44.9c-.53-.3-.7 1.05-.23 1.05.38 0 .75-.75.23-1.05zM11.27-47.38c-.53-.3-.7 1.06-.23 1.06.38 0 .76-.76.23-1.05zM13.8-51.23c-.53-.3-.7 1.05-.23 1.05.38 0 .75-.74.22-1.05zM13.33-55.73c-.53-.3-.7 1.05-.23 1.05.38 0 .75-.74.23-1.05zM9.77-45.73c-.75.15-.07 1.05.38.98 0 0 .37-1.13-.38-.98zM23.95-46.85c-.6-.07-.62.97-.15.9.52-.07.75-.82.14-.9zM27.32-45.13c-.6-.07-.62.97-.15.9.52-.07.75-.82.15-.9zM28.07-41.83c.53-.07.75-.82.15-.9-.6-.07-.62.97-.15.9zM26.95-45.42c.52-.08.75-.83.15-.9-.6-.08-.63.96-.16.9zM20.34-46.1c-.6-.07-.62.97-.15.9.53-.07.75-.82.15-.9zM19.14-44.98c-.6-.07-.61.97-.15.9.53-.07.76-.82.16-.9zM28.67-54.35c-.6-.07-.62.97-.15.9.53-.07.75-.82.15-.9zM21.47-52.92c-.6-.08-.62.96-.15.9.52-.08.75-.83.15-.9zM19.3-60.13c-.6-.07-.62.97-.15.9.52-.07.75-.82.15-.9zM26.27-51.73c.53-.07.75-.82.15-.9s-.62.97-.15.9zM25.12-56.67c-.6-.08-.62.96-.15.9.53-.08.75-.83.15-.9zM22.14-56c-.6-.07-.61.97-.15.9.53-.07.76-.82.16-.9zM22.45-45.27c-.6.15-.15 1.22.37 1.05.68-.23.23-1.2-.38-1.05zM27.25-51.27c-.6.15-.15 1.22.37 1.05.68-.23.22-1.2-.38-1.05zM30.32-50.45c-.6.15-.14 1.22.38 1.05.67-.23.22-1.2-.38-1.05zM25.14-54.65c-.6.15-.14 1.22.38 1.05.68-.23.23-1.2-.38-1.05zM11.74-50.35c-.6-.45-.87.79-.37.97.6.23.98-.52.38-.97zM11.27-54.13c-.6-.44-.87.8-.38.98.6.23.98-.52.38-.98zM14.95-56.83c-.6-.45-.88.8-.38.98.6.23.97-.52.38-.98zM11.5-57.73c-.6-.45-.88.8-.38.98.6.23.98-.52.38-.98zM6.67-54.8c.6.23.97-.52.38-.97-.6-.45-.88.79-.38.97zM8.87-52.85c-.6-.45-.87.79-.38.97.6.23.98-.52.38-.97zM22.72-41.13c-.38-.14-.62.76-.15.76.38 0 .52-.6.15-.76zM15.17-42.13c-.38-.14-.62.76-.15.76.38 0 .53-.6.15-.76zM28.75-38.45c.37 0 .52-.6.15-.75-.38-.15-.63.75-.15.75zM28.77-36.5c.38 0 .53-.6.15-.76-.38-.15-.63.75-.15.75zM29.95-45.42c-.38-.15-.63.75-.15.75.37 0 .52-.6.14-.75zM32.72-44.3c.38 0 .53-.6.15-.75s-.63.75-.15.75zM29.95-47.83c.37 0 .52-.6.15-.75-.38-.15-.63.75-.16.75zM32.8-60.95c.37 0 .52-.6.15-.75-.38-.15-.63.75-.16.75zM33.24-63.73c-.37-.15-.62.75-.15.75.38 0 .53-.6.15-.75zM30.98-48.17c-.45-.18-.75.9-.18.9.45 0 .63-.72.18-.9zM30.38-52.82c-.45-.18-.75.9-.18.9.45 0 .63-.72.18-.9zM24.92-47.15c.38 0 .53-.6.15-.75-.38-.15-.63.75-.15.75zM25.14-49.7c.38 0 .53-.6.15-.75-.37-.15-.62.75-.14.75zM22.72-65.32c-.37-.15-.62.75-.15.75.38 0 .53-.6.15-.75zM9.77-38.3c.38 0 .53-.6.15-.75s-.63.75-.15.75zM5.95-36.95c.37 0 .52-.6.15-.75-.38-.15-.63.75-.15.75zM12.24-36.27c-.37-.15-.62.75-.15.75.38 0 .53-.6.15-.75zM5.83-40.66c-.38-.15-.63.75-.15.75.37 0 .52-.6.15-.75zM6.32-41.83c.38 0 .53-.6.15-.75-.38-.15-.63.75-.15.75zM5.12-35.08c.38 0 .53-.6.15-.75-.38-.15-.63.75-.15.75zM14.27-34.25c.38 0 .53-.6.15-.75-.38-.15-.63.75-.15.75zM7.49-34.37c.37 0 .52-.6.15-.75-.38-.15-.63.75-.15.75zM17.95-41.3c-.38-.15-.63.75-.15.75.37 0 .52-.6.14-.75zM7.67-42.35c-.38-.15-.63.75-.15.75.38 0 .53-.6.15-.75zM17.42-43.42c-.38-.15-.62.75-.15.75.38 0 .53-.6.15-.75zM16.25-46.18c-.37-.15-.62.75-.15.75.38 0 .53-.6.15-.75zM12.77-46.02c.38 0 .53-.6.15-.75-.38-.15-.63.75-.15.75zM1.6-35c.37 0 .52-.6.14-.75-.37-.15-.62.75-.15.75zM9.02-47.15c-.38-.15-.63.75-.15.75.38 0 .53-.6.15-.75zM7.37-48.88c-.38-.14-.62.76-.15.76.38 0 .53-.6.15-.76zM6.17-47.42c.38 0 .53-.6.15-.75-.38-.15-.63.75-.15.75zM7.82-54.8c-.38-.15-.62.75-.15.75.38 0 .53-.6.15-.75zM8.72-56.15c-.38-.15-.63.75-.15.75.38 0 .53-.6.15-.75zM5.12-49.4c-.38-.15-.62.75-.15.75.38 0 .53-.6.15-.75zM5.2-52.63c-.38-.14-.63.76-.15.76.37 0 .52-.6.15-.76zM4-55.25c-.38-.15-.63.75-.15.75.37 0 .52-.6.15-.75zM4-57.35c.37 0 .52-.6.15-.75-.38-.15-.63.75-.16.75zM10.52-55.33c-.38-.15-.62.75-.15.75.38 0 .53-.6.15-.75zM11.8-52.63c-.38-.14-.63.76-.16.76.38 0 .53-.6.15-.76zM10.52-52.55c-.38-.15-.62.75-.15.75.38 0 .53-.6.15-.75zM26.94-55c.37 0 .52-.6.15-.76-.38-.15-.63.75-.15.75zM17.87-56.83c.38 0 .53-.6.15-.75-.38-.15-.63.75-.15.75zM17.12-56.23c-.38-.15-.62.75-.15.75.38 0 .53-.6.15-.75zM23.34-53.3c.38 0 .53-.6.15-.75s-.62.75-.14.75zM32.2-51.8c-.38-.15-.63.75-.16.75.38 0 .53-.6.16-.75zM33.02-57.5c-.38-.15-.62.75-.15.75.38 0 .53-.6.15-.75zM32.47-65.58c-.38-.15-1.05 1.13-.15 1.05.37-.03.52-.9.15-1.05zM13.45-53.3c-.38-.15-.63.75-.15.75.37 0 .52-.6.14-.75zM16.37-62.98c-.38-.15-.62.75-.15.75.38 0 .53-.6.15-.75zM30.93-66.75c-.37-.15-.62.75-.15.75.38 0 .53-.6.15-.75zM19.07-58.1c.38 0 .53-.6.15-.75-.38-.15-.63.75-.15.75zM21.25-59.08c-.38-.15-.63.75-.15.75.37 0 .52-.6.14-.75zM10-65.3c-.38-.15-.63.75-.16.75.38 0 .53-.6.15-.75zM3.48-65.28c-.37-.15-.62.75-.15.75.38 0 .53-.6.15-.75zM4.75-64.7c-.38-.15-.63.75-.15.75.37 0 .52-.6.15-.75zM6.77-61.17c-.38-.15-.62.75-.15.75.38 0 .52-.6.15-.75zM13.17-66.56c-.38-.15-.62.75-.15.75.38 0 .53-.6.15-.75zM22.75-49.55c-.38-.15-.63.75-.15.75.37 0 .52-.6.14-.75zM22.82-47.6c-.38-.15-.62.75-.15.75.38 0 .52-.6.15-.75zM21.92-44.08c-.38-.15-.62.75-.15.75.38 0 .53-.6.15-.75zM24.55-44.08c.37 0 .52-.6.15-.75-.38-.15-.63.75-.15.75zM19-46.7c-.38-.15-.63.75-.15.75.37 0 .52-.6.14-.75zM15.47-47.6c-.38-.15-.62.75-.15.75.38 0 .53-.6.15-.75zM24.47-34.7c.38 0 .53-.6.15-.75s-.63.75-.15.75zM20.6-37.34c.38 0 .53-.6.15-.75-.37-.15-.62.75-.15.75zM22.94-30.18c.37 0 .52-.6.15-.75s-.63.75-.15.75zM23.1-11.5c.38 0 .53-.6.15-.76-.37-.15-.62.75-.15.75zM16.67-39.2c.38 0 .53-.6.15-.75-.38-.15-.63.75-.15.75zM21.32-35.75c.38 0 .53-.6.15-.75-.38-.15-.63.75-.15.75zM25.45-51.65c-.38-.15-.63.75-.15.75.37 0 .52-.6.14-.75zM28.92-52.42c-.38-.15-.62.75-.15.75.38 0 .53-.6.15-.75zM29.09-47.1c-.38-.14-.63.76-.15.76.37 0 .52-.6.15-.75zM19.4-52.04c.38 0 .53-.6.15-.75-.37-.15-.62.75-.15.75zM17.6-59.17c.38 0 .53-.6.15-.75s-.62.75-.15.75zM22.07-58.17c-.38-.15-.62.75-.15.75.38 0 .52-.6.15-.75zM21.02-60.5c-.38-.15-.62.75-.15.75.38 0 .52-.6.15-.75zM21.72-62.13c-.38-.14-.62.76-.15.76.38 0 .52-.6.15-.76zM28.75-61.63c.37 0 .52-.6.15-.74-.38-.16-.63.74-.15.74zM14.81-66.5c-.37-.15-.62.75-.15.75.38 0 .53-.6.15-.75zM25.45-45.88c.37 0 .52-.6.15-.74-.38-.16-.63.74-.16.74zM33.4-48.73c-.38-.15-.63.75-.15.75.37 0 .52-.6.15-.75z" style="fill-rule:evenodd;clip-rule:evenodd;fill:#00aeef"/><path d="M31.75-57.5c.37 0 .52-.6.15-.75-.38-.15-.63.75-.15.75z" style="fill:#00aeef"/><path d="M31.14-57.73c-.37-.15-.62.75-.15.75.38 0 .53-.6.16-.75zM30.84-59.67c-.37-.15-.62.75-.15.75.38 0 .53-.6.15-.75zM30.47-61.33c-.38-.15-.62.75-.15.75.38 0 .52-.6.15-.75zM20.94-66.64c-.38-.15-.63.75-.15.75.37 0 .52-.6.15-.75zM1.61-38.94c.33.04.85-.25.63-.62-.95-1.55-1.17.56-.63.62zM5.4-55.38c-.22.38.21 1.99.45 1.5.15-.3-.22-1.87-.45-1.5zM26.2-66.58c-.6.3.87 1.77 1.2 1.28.3-.45-.6-1.58-1.2-1.28zM23.95-62.75c0-.6-.68-1.35-.98-.6-.3.75.98 1.25.98.6zM24.84-65c-.67 0-.52 1.05.23.9.38-.08.45-.9-.23-.9zM6.97-58.46c-.45.52.56 1.58.97 1.05.53-.68-.52-1.58-.97-1.05zM6.36-52.44c-.9.15-.05 1.21.45 1.05.45-.15.45-1.2-.45-1.05zM1.71-53.57c.08.64 1.78.63 1.55 0-.19-.51-1.63-.63-1.55 0zM2.37-55.25c.55-.33-.3-1.88-.68-1.2-.37.68.3 1.43.68 1.2zM2.36-59.08c-.83 0-.3 1.24.37 1.13.45-.07.45-1.13-.37-1.13zM13.07-61.55c.3-.6-.68-1.43-.97-1.05-.3.38.76 1.48.97 1.05zM11-60.38c.45-.08.23-.98-.22-.98s-.23 1.05.22.98zM12.17-65.08c-.45.6.42 1.32.75.83.3-.45-.3-1.42-.75-.83zM8.12-66.5c-.82 0-.37 1.36.23 1.27.52-.07.6-1.27-.23-1.27zM33.32-54.88c-.53-.22-1.05 1.22-.53 1.36.6.15 1.05-1.13.53-1.35zM53.77-66.67c-.53-.23-1.05 1.21-.53 1.35.6.14 1.05-1.13.53-1.36zM66.67-9.84c-.41-.08-.85.05-.9.36-.12.7.42 1 .9 1.04M34.43-8.68c.33-1.31-1.49-1.46-1.6-.8-.2 1.2 1.5 1.2 1.6.8zM66.67-42.33c-.46-.19-.94-.26-1-.05-.18.6.42.98 1 1.1M1-8.44c.34.03.65-.07.7-.24.17-.69-.25-1.05-.7-1.15M1-41.27c.39.08.76.05.9-.1.24-.3-.32-.72-.9-.96M30.07-7.07c2.03.75 2.63-1.57 2.18-1.65s-.3.15-.9.97c-.6.83-1.84.47-1.28.68zM24.2-3.8c.33-.1.61-.35.52-.6-.18-.5-.54.17-.9.08-.36-.09-.73.12-.5.4.1.12.23.17.39.19" style="fill-rule:evenodd;clip-rule:evenodd;fill:#00aeef"/><path d="M23.7-3.73c.16.01.33-.01.5-.06M13.6-6.75c.22-.67-.83-1.95-1.58-1.43s1.37 2.04 1.58 1.43zM19-4.28c.37-.52.15-1.95-.6-1.57s.24 2.07.6 1.57zM14.57-11.25c.45.82.44 1.39.82.68.53-.98-.97-2.25-1.35-1.88s.08.38.53 1.2zM12.47-9.6c.07-.9-1.05-2.17-1.13-1.43-.07.75 1.08 2.03 1.13 1.43zM20.81-13.93c.68-1.73-.67-3-1.12-2.55-.45.45.52.75.45 1.65-.08.9.42 1.54.67.9zM26.95-15.93c-.23.83 1.35 1.87 1.27 1.2-.38-3-1.05-2.02-1.27-1.2zM4.2-2.5c.24-.86-1.25-2.31-1.48-1.44-.24.87 1.26 2.25 1.48 1.45zM4.3-5.1c-.14-.4-1.1-.83-1.1-.15 0 .68 1.2.47 1.1.16zM3.51-13.5c-.37.37.68 1.08.68.63 0-.57-.31-1-.68-.63zM20.34-20.93c0-.82-.45-1.42-.97-.9-.53.53.97 1.54.97.9zM17.34-31.88c0-.82-.45-1.42-.97-.9-.53.53.97 1.54.97.9zM3.68-14.85c.45-.6.07-1.73-.9-1.35-.98.38.48 1.9.9 1.35zM10.82-4.5c.68.15 1.35-.9.53-1.43-.83-.52-1.19 1.28-.53 1.43zM30.84-3.38c.38.53 1.35-.52 1.05-1.2s-1.53.52-1.05 1.2zM24.92-9.07c1.05.22.82-1.28.45-1.58-.38-.3-1.02 1.45-.45 1.58zM34.02-13.1c.53-.74-1.27-2.1-1.5-1.27s1 2 1.5 1.28zM33.7-19.98c-.45 0-.47.86.09.86.45 0 .36-.86-.09-.86zM2.99-17.57c.52 1.05 1.65-.75 1.42-1.12S2.7-18.14 3-17.57z" style="fill-rule:evenodd;clip-rule:evenodd;fill:#00aeef"/><path d="M10.07-15.22c.15-.75-.23-1.43-.6-1.2-.38.22-.6-.45-.97.07-.38.53 1.44 1.78 1.57 1.13z" style="fill:#00aeef"/><path d="M16.37-15.82c.53-.3.15-1.5-.6-1.28s-.05 1.65.6 1.28zM14.27-16.95s-1.88.97-.82 1.5c1.57.79.82-1.5.82-1.5zM25.97-2.48c.82.68 1.35-.22.97-.9s-1.5.47-.97.9zM15.92-2.25c.07-.3-.75-1.57-1.13-1.2s.98 1.79 1.13 1.2zM8.57-1.95c.45.22 2.32-.2.9-1.05-.38-.23-1.44.78-.9 1.05zM29.07-11.28c-.45-.07-1.46 1-.9 1.5.67.6 1.35-1.42.9-1.5zM26.27-22.61c1.2.75.94 1.78 1.28 1.05.52-1.13-1.8-2.85-2.18-2.33s-.3.53.9 1.28zM15.77-24.68c.6-.15.15-2.02-.82-1.65s-.06 1.87.82 1.65zM21.55-30.82c0-.75-1.58-.68-1.58.15 0 .82 1.58.45 1.58-.15z" style="fill-rule:evenodd;clip-rule:evenodd;fill:#00aeef"/><path d="M27.34-27.33c.6-.08.37-1.73-.3-1.73-.68 0-.83 1.87.3 1.73z" style="fill:#00aeef"/><path d="M30.17-32.38c.23-.37-.68-1.94-1.27-1.34-.6.6.75 2.2 1.27 1.34zM1.56-29.47c0 .37.4.26.81.6.4.34 1.07.86.96.46-.36-1.27-1.77-1.43-1.77-1.06zM9.2-26.02c-.23.22.39 2.2.9 1.57 1.2-1.5-.68-1.8-.9-1.57zM28.07-6.75c.75-.15.6-1.2-.3-1.2s-.44 1.35.3 1.2zM29.05-3.32c.4-.63-.36-.81-.68-.5-.31.32.4.94.68.5zM21.55-17.1c.6 0 .67-1.35-.23-1.43-.9-.07-.91 1.43.23 1.43zM24.47-19.13c.6 0 .68-1.35-.23-1.42-.9-.07-.9 1.43.23 1.43zM19.52-22.65c.6 0 .68-1.35-.23-1.43-.9-.07-.9 1.43.23 1.43zM23.27-25.84c.6 0 .68-1.35-.23-1.43-.9-.07-.9 1.43.23 1.43zM28.6-24.52c-.9-.08-.92 1.42.22 1.42.6 0 .68-1.35-.23-1.42zM13.37-3.3c.6 0 .68-1.35-.23-1.43-.9-.07-.9 1.43.23 1.43zM31.52-21.9c.45-.23.45-1.27-.38-1.05-.82.22-.23 1.35.38 1.05zM33.52-16.35c.44-.23.44-1.27-.38-1.05-.83.22-.23 1.35.38 1.05zM19.07-17.85c.45-.23.45-1.27-.38-1.05-.82.22-.23 1.35.38 1.05zM17.5-18.9c.45-.23.45-1.27-.38-1.05-.82.22-.23 1.35.38 1.05zM18.25-20.4c.45-.23.45-1.27-.38-1.05-.82.22-.23 1.35.38 1.05zM15.62-21.07c.45-.23.45-1.28-.38-1.05-.82.22-.23 1.35.38 1.05zM23.02-7.84c.45-.23.45-1.28-.38-1.05-.82.22-.23 1.35.38 1.05zM9.32-17.48c.45-.22.45-1.27-.38-1.05-.82.23-.23 1.36.38 1.05zM15.32-5.1c.45-.23.45-1.27-.38-1.05s-.23 1.35.38 1.05zM16-18.3c.44-.23.44-1.27-.38-1.05-.82.23-.23 1.35.38 1.05zM22.14-1.58c.45-.23.45-1.27-.37-1.05-.82.23-.23 1.35.38 1.05zM27.02-24.98c.45-.22.45-1.27-.38-1.05s-.23 1.36.38 1.05zM29.09-26.9c.36-.18.36-1.02-.3-.84s-.19 1.09.3.84zM29.64-24.73c.36-.18.36-1.02-.3-.84-.66.18-.18 1.08.3.84zM33.77-26.38c.36-.18.36-1.02-.3-.84-.66.18-.19 1.09.3.84zM16-27.98c-.67.18-.2 1.09.3.84.36-.18.36-1.02-.3-.84zM19.22-33.13c.36-.18.36-1.02-.3-.84s-.19 1.08.3.84zM14.5-28.56c.35-.18.35-1.02-.3-.84s-.2 1.08.3.84zM11.35-32.16c.36-.18.36-1.02-.3-.84-.67.18-.2 1.08.3.84zM17.8-29.85c-.66.18-.2 1.08.3.84.35-.18.35-1.02-.3-.84zM5.42-33.08c-.66.18-.19 1.09.3.84.36-.17.36-1.02-.3-.84zM15.02-31.34c.36-.18.36-1.02-.3-.84-.66.18-.19 1.09.3.84zM13.9-30.06c.35-.18.35-1.02-.3-.84s-.2 1.08.3.84zM12.17-26.85c-.66.18-.19 1.08.3.84.36-.18.36-1.02-.3-.84zM5.3-28.37c.36-.18.36-1.02-.3-.84s-.2 1.08.3.84zM3.92-27.52c-.66.18-.19 1.08.3.84.36-.18.36-1.02-.3-.84zM4.9-26.55c-.67.18-.2 1.08.3.84.35-.18.35-1.02-.3-.84zM6.7-23.23c.36-.18.36-1.02-.3-.84-.67.18-.2 1.08.3.84zM20.2-10.13c.07-.3-.98-.67-1.65-.22-.68.45.75 2.48.9 1.65.25-1.4.67-1.13.75-1.43zM26-5.55c.12-.5-1.09-.89-1.2-.3-.23 1.13 1.12.6 1.2.3zM22.07-4.58c.3-.15-.3-1.42-.75-.9-.45.53.02 1.27.75.9zM31.52-29.02c.07-.23.53-1.95-.3-1.35s.12 1.89.3 1.35zM21.7-31.88c.6-.3.45-1.95-.23-1.65-.67.3-.25 1.9.23 1.66zM18.62-14.63c0-1.42-1.43-1.44-1.57-.6-.08.46 1.57 1.21 1.57.6zM4.9-11.14c.45-.15.38-1.28-.3-1.2-.67.07-.34 1.41.3 1.2zM3.4-11.25c-.6-.45-1.08.99-.23 1.2.6.15.83-.75.23-1.2zM4.4-7.83c.48.36 1.08-.24.6-.78s-1.17.35-.6.78zM7.14-27.98c.3.83 1.43.23 1.05-.6-.37-.82-1.3-.1-1.04.6zM9.7-28.8c.22-.38.37-1.35-.45-1.05-.83.3-.02 1.82.45 1.05zM7.75-31.27c0-.68-.83-.9-.9-.3-.08.6.9.97.9.3zM6.17-30.15c.38-.23.23-1.13-.45-.97s-.13 1.32.45.97zM1.67-33.38c-.38.83.38 1.43.83.83.48-.65-.46-1.65-.83-.83zM27.25-8.32c.45-.53-.38-1.58-.83-1.35-.45.22.5 1.73.82 1.35zM8.27-3.72c.45-.75-.38-1.27-.68-.82-.3.45.35 1.38.68.82zM2.94-6.95c.13.52 1.25.68 1.07.06-.24-.84-1.2-.59-1.07-.06zM6.64-12.97c.3-.08.75-.9-.07-1.05-.83-.16-.62 1.22.07 1.04zM7.45-5.63c.47-.63-.6-1.8-.9-.97-.3.82.67 1.27.9.97zM32.27-10.95c-.68-.15-.92.84-.23.97.38.08.9-.82.23-.97zM33.1-5.85c.6-.3.07-.9-.46-.9s-.1 1.18.45.9zM30.77-13.34c.6-.3.07-.9-.45-.9s-.1 1.18.45.9zM30.47-2.25c.3-.23.07-.53-.23-.53-.3 0-.02.71.23.53zM26.34-6.9c.3-.23.08-.53-.22-.53s-.02.72.22.53zM31.52-5.85c-.3 0-.02.71.23.53.3-.23.07-.53-.23-.53zM30.32-5.55c-.3 0-.02.71.23.53.3-.23.07-.53-.23-.53zM23.05-22.35c.24-.18.06-.42-.18-.42-.25 0-.02.57.18.42zM33.25-23.6c-.24 0-.02.57.18.43.24-.18.06-.42-.18-.42zM25.67-26.93c.24-.18.06-.42-.18-.42s-.02.57.18.43zM37.02-29.84c.24-.18.06-.42-.18-.42s-.02.57.18.42zM50.52-27.34c.24-.18.06-.42-.18-.42s-.02.57.18.42zM32.84-47.76c-.24 0-.02.57.18.42.24-.18.06-.42-.18-.42zM26.12-29.85c.24-.18.06-.42-.18-.42s-.02.57.18.42zM34.77-27.68c.24-.18.06-.42-.18-.42s-.02.57.18.43zM11.1-30c.24-.19.06-.43-.18-.43s-.02.57.18.42zM27.14-31.13c-.24 0-.02.57.18.42.24-.18.06-.42-.18-.42zM9.04-30.43c.24-.18.06-.42-.18-.42s-.02.57.18.43zM9.77-26.77c.24-.18.06-.42-.18-.42s-.02.56.18.42zM16.82-4.2c.24-.18.06-.42-.18-.42s-.02.57.18.42zM5.42-5.78c.24-.18.06-.42-.18-.42s-.02.57.18.42zM1.96-14.28c.24-.18.06-.42-.18-.42s-.02.57.18.42zM1.52-25.4c.24-.18.06-.42-.18-.42s-.02.56.18.42zM1.52-10.95c.24-.18.06-.42-.18-.42s-.02.57.18.42zM5.34-10.2c.24-.18.06-.42-.18-.42s-.01.57.18.42zM11.04-8.85c.25-.18.07-.42-.17-.42-.24 0-.02.57.18.42zM13.6-10.68c.24-.18.06-.42-.18-.42s-.02.57.18.42zM6.21-26.97c-.24 0-.01.57.18.42.25-.18.07-.42-.17-.42zM1.83-31.28c.24-.18.06-.42-.18-.42s-.02.57.18.42zM1.72-37.07c-.24 0-.02.57.18.42.23-.18.06-.42-.18-.42zM3.71-37.01c-.24 0-.01.57.18.42.24-.18.06-.42-.18-.42zM8.16-26.45c-.24 0-.01.57.18.42.25-.17.06-.41-.18-.41zM4.82-23.18c.24-.18.06-.42-.18-.42s-.02.57.18.43zM11.42-12.68c.24-.18.06-.42-.18-.42s-.02.57.18.42zM18.02-6.15c.24-.18.06-.42-.18-.42s-.02.57.18.42zM19.6-6.38c.23-.18.05-.42-.19-.42s-.01.57.18.42zM28.3-1.5c.3-.23.07-.53-.23-.53-.3 0-.02.72.23.53zM32.8-3.08c.3-.22.07-.52-.23-.52s-.02.71.23.52zM33.37-1.55c.23 0 .23-1.05-.38-1.13-.6-.07-.73 1.13.38 1.13zM19.2-1.51c.3 0 .3-1.35-.37-1.35-.68 0-.4 1.35.37 1.35zM10-9.3c-.53-.22-.74.93-.08 1.05.82.15.6-.82.07-1.05zM9.47-10.35c.38 0 .75-.75.23-1.05-.53-.3-.7 1.05-.23 1.05zM8.45-6.84c.37 0 .75-.75.22-1.05-.53-.3-.7 1.05-.22 1.05zM7.97-11.03c.38 0 .75-.75.23-1.05s-.7 1.05-.23 1.05zM11.27-14.55c-.53-.3-.7 1.05-.23 1.05.38 0 .76-.75.23-1.05zM13.07-19.13c-.53-.3-.7 1.05-.23 1.05.38 0 .76-.75.23-1.05zM4.07-19.73c.38 0 .75-.75.23-1.05-.53-.3-.7 1.05-.23 1.05zM13.22-23.18c.38 0 .75-.75.23-1.05-.53-.3-.7 1.05-.23 1.05zM10.14-11.93s.38-1.12-.37-.97c-.75.15-.07 1.05.38.97zM27.17-11.4c.53-.07.75-.82.15-.9-.6-.07-.62.97-.15.9zM29.97-9.18c.53-.07.75-.82.15-.9s-.62.97-.15.9zM26.95-12.6c.52-.07.75-.82.15-.9-.6-.07-.63.97-.16.9zM20.92-12.9c-.6-.08-.62.96-.15.9.53-.08.75-.83.15-.9zM19-11.25c.52-.07.75-.82.15-.9-.6-.07-.63.97-.15.9zM28.67-21.52c-.6-.08-.62.96-.15.9.53-.08.75-.83.15-.9zM21.47-20.1c-.6-.07-.62.97-.15.9.52-.07.75-.82.15-.9zM19.75-28.74c-.6-.08-.62.96-.15.9.53-.08.75-.83.15-.9zM26.27-18.9c.53-.07.75-.82.15-.9-.6-.07-.62.97-.15.9zM22.14-23.18c-.6-.07-.61.97-.15.9.53-.07.76-.82.16-.9zM28.27-18.34c.68-.23.23-1.2-.38-1.05s-.14 1.22.38 1.05zM30.32-17.63c-.6.15-.14 1.23.38 1.05.67-.22.22-1.2-.38-1.05zM25.14-21.82c-.6.15-.14 1.22.38 1.05.68-.23.23-1.2-.38-1.05zM11.54-16.07c.6.22.97-.53.37-.98-.6-.45-.87.79-.38.98zM10.9-20.32c.6.22.97-.53.37-.98-.6-.45-.87.79-.38.98zM14.57-23.02c.6.22.97-.53.38-.98-.6-.45-.88.79-.38.98zM11.12-23.93c.6.23.97-.52.38-.97-.6-.45-.88.79-.38.97zM6.47-21.6c.6.23.97-.53.38-.97-.6-.45-.88.78-.38.97zM8.3-19.17c.48.18.78-.42.3-.78-.48-.36-.7.63-.3.78zM22.97-6.37c.38 0 .53-.6.15-.75s-.63.75-.15.75zM20.87-7.28c.38 0 .53-.6.15-.75-.38-.15-.63.75-.15.75zM15.17-9.3c-.38-.15-.62.75-.15.75.38 0 .53-.6.15-.75zM28.75-5.63c.37 0 .52-.6.15-.75s-.63.75-.15.75zM29.8-11.85c.37 0 .52-.6.15-.75-.38-.15-.63.75-.15.75zM32.72-11.47c.38 0 .53-.6.15-.75-.38-.15-.63.75-.15.75zM29.95-15c.37 0 .52-.6.15-.75s-.63.75-.16.75zM33.57-28.57c.38 0 .53-.6.15-.75-.38-.16-.63.75-.15.75zM33.24-30.9c-.37-.15-.62.75-.15.75.38 0 .53-.6.15-.75zM30.38-20c-.45-.18-.75.9-.18.9.45 0 .63-.71.18-.9zM31.55-14.93c.38 0 .53-.6.15-.75-.37-.14-.62.75-.15.75zM24.92-14.32c.38 0 .53-.6.15-.75-.38-.15-.63.75-.15.75zM25.3-17.63c-.38-.15-.63.75-.15.75.37 0 .52-.6.15-.75zM23.12-33.23c-.38-.15-.62.75-.15.75.38 0 .53-.6.15-.75zM9.92-6.22c-.38-.15-.62.75-.15.75.38 0 .53-.6.15-.75zM5.95-4.13c.37 0 .52-.6.15-.75s-.63.75-.15.75zM11.52-1.6c.38 0 .53-.6.15-.74-.38-.15-.63.75-.15.75zM6.4-8.4c-.38-.15-.63.75-.16.75.38 0 .53-.6.15-.75zM6.32-9c.38 0 .53-.6.15-.75S5.84-9 6.32-9zM7.08-2.65c.38 0 .53-.6.15-.75-.37-.15-.62.75-.15.75zM14.27-1.43c.38 0 .53-.6.15-.75-.38-.15-.63.76-.15.76zM17.8-7.72c.37 0 .52-.6.15-.75-.38-.15-.63.75-.15.75zM8.09-9.06c.37 0 .52-.6.15-.75-.38-.15-.63.75-.15.75zM16.82-12.22c-.38-.15-.62.75-.15.75.38 0 .52-.6.15-.75zM12.77-13.2c.38 0 .53-.6.15-.75-.38-.15-.63.75-.15.75zM1.6-2.17c.37 0 .52-.6.14-.75-.37-.16-.62.75-.15.75zM2.19-12.63c.37 0 .52-.6.15-.75-.38-.15-.63.75-.15.75zM8.87-13.57c.38 0 .53-.6.15-.75-.38-.15-.63.75-.15.75zM2.84-8.56c.37 0 .52-.6.15-.75-.38-.15-.63.75-.15.75zM7.22-15.3c.38 0 .53-.6.15-.75-.38-.15-.63.75-.15.75z" style="fill-rule:evenodd;clip-rule:evenodd;fill:#00aeef"/><path d="M1.63-17.05c.37 0 .52-.6.15-.75-.38-.15-.63.75-.15.75z" style="fill:#00aeef"/><path d="M5.13-14.84c-.37-.15-.62.75-.15.75.38 0 .53-.6.15-.75zM6.59-12.1c-.38-.14-.63.76-.15.76.37 0 .52-.6.15-.75zM8.24-20.66c.37 0 .52-.6.15-.75s-.63.75-.15.75zM8.57-22.57c.38 0 .53-.6.15-.75-.38-.16-.63.75-.15.75zM5.54-16.1c.37 0 .52-.6.15-.76-.38-.15-.63.75-.15.75zM5.62-19.97c.38 0 .53-.6.15-.75s-.63.75-.15.75zM3.85-21.68c.37 0 .52-.6.15-.75-.38-.14-.63.75-.15.75zM4-24.52c.37 0 .52-.6.15-.75s-.63.75-.16.75zM10.37-21.75c.38 0 .53-.6.15-.75s-.63.75-.15.75zM11.64-19.05c.38 0 .53-.6.15-.75-.37-.15-.62.75-.14.75zM10.52-19.73c-.38-.15-.62.75-.15.75.38 0 .53-.6.15-.75zM13.67-22.95c-.38-.15-.62.75-.15.75.38 0 .53-.6.15-.75zM18.02-24.75c-.38-.15-.63.75-.15.75.38 0 .52-.6.15-.75zM16.97-22.65c.38 0 .53-.6.15-.75s-.63.75-.15.75zM23.5-21.23c-.38-.15-.63.75-.15.75.37 0 .52-.6.14-.75zM32.05-18.23c.37 0 .52-.6.15-.75s-.63.75-.16.75zM32.87-23.93c.38 0 .53-.6.15-.75-.38-.14-.63.75-.15.75zM34.17-33.03c-.38-.15-1.05 1.12-.15 1.05.37-.03.52-.9.15-1.05zM13.45-20.48c-.38-.15-.63.75-.15.75.37 0 .52-.6.14-.75zM16.37-30.15c-.38-.15-.62.75-.15.75.38 0 .53-.6.15-.75zM24.55-33.15c.37 0 .52-.6.15-.75-.38-.15-.63.75-.15.75zM50.1-17.18c.38 0 .53-.6.15-.75s-.62.75-.15.75zM32.12-34.05c-.38-.15-.62.75-.15.75.38 0 .52-.6.15-.75zM19.79-26.02c-.38-.15-.63.75-.15.75.37 0 .52-.6.15-.75zM10-32.48c-.38-.15-.63.75-.16.75.38 0 .53-.6.15-.75zM3.47-29.48c.38 0 .53-.6.15-.75-.38-.14-.63.75-.15.75zM2.12-28.29c-.38-.15-.62.75-.15.75.38 0 .53-.6.15-.75zM3.44-32.02c.37 0 .52-.6.15-.75-.38-.15-.63.75-.15.75zM4.6-31.13c.37 0 .52-.6.15-.75-.38-.14-.63.75-.16.75zM6.62-27.6c.38 0 .53-.6.15-.75s-.63.75-.15.75zM12.17-32.7c.38 0 .53-.6.15-.75-.38-.15-.63.75-.15.75zM22.6-15.97c.37 0 .52-.6.14-.75s-.62.74-.14.74zM22.67-14.03c-.38-.15-.62.75-.15.75.38 0 .53-.6.15-.75zM22.44-10c.37 0 .52-.6.15-.76-.38-.15-.63.75-.15.75zM24.55-11.25c.37 0 .52-.6.15-.75s-.63.75-.15.75zM18.84-13.13c.38 0 .53-.6.15-.74s-.62.74-.14.74zM15.32-14.03c.38 0 .53-.6.15-.75-.38-.15-.63.75-.15.75zM23.7-3.73c-.11.23-.1.58.2.58.3 0 .46-.42.3-.64M23.7-3.73c.08-.14.2-.23.35-.17.06.02.1.06.14.1M16.67-6.38c.38 0 .53-.6.15-.75s-.63.75-.15.75zM20.47-3.5c.37 0 .52-.6.15-.74-.38-.15-.63.75-.15.75zM25.45-18.82c-.38-.15-.63.75-.15.75.37 0 .52-.6.14-.75zM17.64-25.62c.38 0 .53-.6.15-.75s-.62.75-.14.75zM21.92-24.6c.38 0 .53-.6.15-.75s-.63.75-.15.75zM24.1-23.84c.38 0 .53-.6.15-.75s-.62.75-.15.75zM29.44-30.68c.37 0 .52-.6.15-.75s-.63.75-.15.75zM20.87-26.93c.38 0 .53-.6.15-.75-.38-.14-.63.75-.15.75zM28.75-28.8c.37 0 .52-.6.15-.75-.38-.15-.63.75-.15.75zM15.24-33.83c-.37-.15-.62.75-.15.75.38 0 .53-.6.15-.75zM22.6-15c.37 0 .52-.6.14-.75s-.62.75-.14.75zM25.6-13.8c-.38-.15-.63.75-.16.75.38 0 .53-.6.15-.75zM33.24-15.15c.38 0 .53-.6.15-.75s-.62.75-.15.75zM32.46-26.27c-.37-.15-.62.75-.15.75.38 0 .53-.6.15-.75zM31-24.15c.37 0 .52-.6.15-.75s-.63.75-.15.75zM30.7-26.1c.37 0 .52-.6.15-.75s-.63.75-.16.75zM30.32-27.75c.38 0 .53-.6.15-.75s-.63.75-.15.75zM1.82-5.4c.15-.3-.23-1.88-.45-1.5s.2 1.98.45 1.5zM27.4-31.9c.3-.46-.6-1.58-1.2-1.28-.6.3.87 1.76 1.2 1.27zM23.95-28.22c0-.6-.68-1.35-.98-.6-.3.75.98 1.24.98.6zM24.73-30.25c.37-.08.45-.9-.23-.9-.67 0-.52 1.05.23.9zM7.82-24.72c.53-.67-.53-1.57-.97-1.05-.46.53.56 1.58.97 1.05zM6.25-18c.45-.15.45-1.2-.45-1.05-.9.15-.05 1.22.45 1.05zM2.82-20.18c.05-.53-1.2-1.25-1.4-.65-.2.61 1.34 1.33 1.4.65zM1.6-22.46c.58.26 1.37-1.31.6-1.24-.77.07-1 1.05-.6 1.24zM3.1-25.25c.46-.07.46-1.13-.37-1.13s-.29 1.24.38 1.13zM13.77-27.1c.3-.6-.68-1.42-.97-1.04-.3.37.75 1.48.97 1.05zM11.35-29.1c-.45 0-.23 1.05.22.97s.22-.97-.22-.97zM12.92-31.43c.3-.45-.3-1.42-.75-.82s.43 1.31.75.82zM8.35-32.4c.52-.07.6-1.27-.23-1.27-.82 0-.37 1.36.23 1.27zM30.32-20.48c.53 0 .68-1.05 0-1.2-.68-.14-.78 1.2 0 1.2zM32.8-20.7c.6.15 1.05-1.13.52-1.35-.52-.22-1.05 1.22-.52 1.35zM65.05-8.72c-.45-.07-.3.15-.9.97-.6.83-1.84.47-1.28.68 2.03.75 2.63-1.57 2.18-1.65zM46.4-6.75c.22-.67-.83-1.95-1.58-1.43s1.37 2.04 1.58 1.43zM51.8-4.28c.37-.52.15-1.95-.6-1.57s.24 2.07.6 1.57zM46.8-11.25c.45.82.45 1.39.83.68.52-.98-.98-2.25-1.35-1.88s.07.38.52 1.2zM45.27-9.6c.07-.9-1.05-2.17-1.13-1.43S45.23-9 45.28-9.6zM53.22-14.55c-.07.9.42 1.54.68.9.67-1.73-.68-3-1.13-2.55-.45.45.52.75.45 1.65zM61.02-13.88c-.38-3-1.05-2.02-1.27-1.2-.23.83 1.35 1.87 1.27 1.2zM36.8-2.17c.67-.6.22-2.63-.45-2.03s-.18 2.58.45 2.03zM35.7-5.63c0 .98 1.73.68 1.58.23-.19-.57-1.57-1.2-1.57-.22zM36.52-15.6c0-.82-.45-1.42-.97-.9-.53.53.97 1.54.97.9zM53.15-20.93c0-.82-.45-1.42-.98-.9-.52.53.98 1.54.98.9zM50.15-31.88c0-.82-.45-1.42-.98-.9-.52.53.98 1.54.98.9zM44.15-5.92c-.83-.53-1.18 1.27-.53 1.42.68.15 1.35-.9.53-1.42zM50.47-1.45c.53-.45 0-1.57-.68-1.13-.67.46.16 1.58.68 1.13zM63.65-3.38c.37.53 1.35-.52 1.05-1.2-.3-.67-1.54.52-1.05 1.2zM57.27-7.5c1.05.23.82-1.27.45-1.57s-1.02 1.45-.45 1.57zM57.42-9.45c.97-.15.45-1.65-.23-1.5-.67.15-.44 1.6.23 1.5zM66.38-13.05c.52-.75-1.28-2.1-1.5-1.27s1 1.99 1.5 1.27zM65.84-18.74c.75 0 .6-1.42-.15-1.42s-.77 1.42.15 1.42zM50.04-9.04c.82-.08 0-.83.22-1.2.23-.38.38-.9-.45-.98s-.54 2.25.23 2.18zM35.22-17.85c.53 1.05 1.65-.75 1.43-1.13s-1.72.55-1.43 1.13zM42.87-15.22c.15-.75-.23-1.43-.6-1.2-.38.22-.6-.45-.98.07-.37.53 1.45 1.78 1.58 1.13zM49.17-15.82c.53-.3.15-1.5-.6-1.28s-.05 1.65.6 1.28zM46.5-17.52s-1.87.98-.82 1.5c1.57.79.82-1.5.82-1.5zM48.72-2.25c.07-.3-.75-1.57-1.13-1.2s.98 1.79 1.13 1.2zM60.97-9.97c.68.6 1.35-1.43.9-1.5-.45-.08-1.46 1-.9 1.5zM48.57-24.68c.6-.15.15-2.02-.82-1.65-.98.38-.06 1.87.82 1.65zM53.39-28.21c.36.04.61-.76.25-1-.36-.26-.57.97-.25 1zM21.12-29.22c-.36-.25-.57.98-.25 1 .36.04.61-.75.25-1zM54.34-30.82c0-.75-1.57-.68-1.57.15 0 .82 1.57.45 1.57-.15zM57.33-30.18c0-.75-1.57-.67-1.57.15 0 .83 1.57.46 1.57-.14zM60.42-27.9c.6-.07.37-1.73-.3-1.73s-.83 1.87.3 1.73zM63.8-30.9c.18-.3-.54-1.56-1.02-1.08s.6 1.77 1.02 1.08zM35.23-30.43c-.22.23.1.4.14.85.04.45.14 1.18.32.86.54-.99-.23-1.94-.45-1.71zM44.3-24.9c1.2-1.5-.68-1.8-.9-1.57-.16.15.1 1.19.44 1.56" style="fill-rule:evenodd;clip-rule:evenodd;fill:#00aeef"/><path d="M43.84-24.91c.15.15.3.2.45.01M60.87-6.75c.75-.15.6-1.2-.3-1.2s-.44 1.35.3 1.2zM61.85-3.32c.68-1.05-.6-1.35-1.13-.82s.66 1.56 1.13.82zM54.34-17.1c.6 0 .68-1.35-.22-1.43-.9-.07-.91 1.43.23 1.43zM57.27-19.13c.6 0 .68-1.35-.23-1.42-.9-.07-.9 1.43.23 1.43zM52.32-22.65c.6 0 .68-1.35-.23-1.43-.9-.07-.9 1.43.23 1.43zM57.97-23.38c.6 0 .68-1.35-.23-1.42-.9-.07-.9 1.43.23 1.43zM61.45-23.27c.48 0 .54-1.08-.18-1.14-.72-.06-.73 1.14.18 1.14zM46.17-3.3c.6 0 .68-1.35-.23-1.43-.9-.07-.9 1.43.23 1.43z" style="fill-rule:evenodd;clip-rule:evenodd;fill:#00aeef"/><path d="M64.32-21.9c.45-.23.45-1.27-.38-1.05-.82.22-.23 1.35.38 1.05z" style="fill:#00aeef"/><path d="M51.87-17.85c.45-.23.45-1.27-.38-1.05-.82.22-.23 1.35.38 1.05zM51.05-20.4c.45-.23.45-1.27-.38-1.05-.83.22-.23 1.35.38 1.05zM48.42-21.07c.45-.23.45-1.28-.38-1.05-.82.22-.23 1.35.38 1.05zM41.74-18.52c-.82.22-.23 1.35.38 1.05.45-.23.45-1.28-.38-1.05zM48.12-5.1c.45-.23.45-1.27-.38-1.05-.82.23-.23 1.35.38 1.05zM48.8-18.3c.45-.23.45-1.27-.38-1.05-.83.23-.23 1.35.38 1.05zM54.95-1.58c.44-.23.44-1.27-.38-1.05-.83.23-.23 1.35.38 1.05zM59.82-24.98c.45-.22.45-1.27-.38-1.05s-.23 1.36.38 1.05zM61.89-26.9c.36-.18.36-1.02-.3-.84s-.19 1.09.3.84zM62.44-24.73c.36-.18.36-1.02-.3-.84-.66.18-.18 1.08.3.84zM65.78-27.21c-.66.18-.18 1.08.3.84.36-.18.36-1.02-.3-.84zM48.8-27.98c-.66.18-.2 1.09.3.84.35-.18.35-1.02-.3-.84zM51.72-33.98c-.66.18-.19 1.09.3.84.36-.17.36-1.02-.3-.84zM47.3-28.56c.36-.18.36-1.02-.3-.84s-.2 1.08.3.84zM44.15-32.16c.36-.18.36-1.02-.3-.84s-.2 1.08.3.84zM50.9-29.01c.36-.18.36-1.02-.3-.84s-.2 1.08.3.84zM38.52-32.23c.36-.19.36-1.03-.3-.85-.66.18-.19 1.09.3.84zM47.82-31.34c.36-.18.36-1.02-.3-.84-.66.18-.19 1.09.3.84zM46.4-30.9c-.66.18-.2 1.08.3.84.35-.18.35-1.02-.3-.84zM45.72-27.68c-.66.18-.19 1.08.3.84.36-.18.36-1.02-.3-.84zM37.47-27.81c.36-.18.36-1.02-.3-.84s-.19 1.08.3.84zM36.45-26.68c.36-.18.36-1.02-.3-.84s-.18 1.08.3.84zM38-25.71c.35-.18.35-1.02-.3-.84-.67.18-.2 1.08.3.84zM39.5-23.23c.35-.18.35-1.02-.3-.84-.67.18-.2 1.08.3.84zM52.81-8.42c.25-1.39.68-1.12.75-1.42.08-.3-.97-.68-1.65-.23-.67.45.75 2.48.9 1.65zM58.51-5.55c.13-.5-1.08-.89-1.2-.3-.22 1.13 1.13.6 1.2.3zM54.3-4.86c.3-.15-.3-1.42-.75-.9s.03 1.26.75.9zM62.07-19.35c.3-.6-.9-1.43-1.28-1.05s1 1.63 1.28 1.05zM64.32-29.02c.07-.23.53-1.95-.3-1.35-.83.6.12 1.89.3 1.35zM54.5-31.88c.6-.3.44-1.95-.23-1.65-.68.3-.25 1.9.22 1.66zM51.42-14.63c0-1.42-1.44-1.44-1.57-.6-.08.46 1.57 1.21 1.57.6zM38.07-10.8c.45-.15.38-1.27-.3-1.2s-.35 1.41.3 1.2zM36.27-9.34c.3-.6-.53-1.2-.97-.6-.45.6.8.93.97.6zM36.2-11.25c.6.15.82-.75.22-1.2-.6-.45-1.08.99-.23 1.2z" style="fill-rule:evenodd;clip-rule:evenodd;fill:#00aeef"/><path d="M37.77-6.97c.6.45 1.35-.3.75-.98s-1.47.43-.75.98z" style="fill:#00aeef"/><path d="M41-28.57c-.38-.83-1.31-.11-1.06.6.3.82 1.43.22 1.05-.6zM42.5-28.8c.22-.38.37-1.35-.46-1.05-.82.3-.01 1.82.45 1.05zM40.55-31.27c0-.68-.83-.9-.9-.3-.08.6.9.97.9.3zM38.97-30.15c.38-.23.23-1.13-.45-.97s-.13 1.32.45.97zM35.6-33.1c-.37.83.38 1.43.83.83.48-.65-.45-1.65-.83-.82zM60.04-8.32c.45-.53-.37-1.58-.82-1.35-.45.22.5 1.73.82 1.35zM40.55-12.38c.45-.74-.38-1.27-.68-.82-.3.45.34 1.38.68.82zM43.65-1.65c.45-.75-.38-1.28-.68-.83s.34 1.38.68.83zM35.62-7.14c-.24-.84-1.19-.59-1.06-.06.12.52 1.24.68 1.06.06zM38.6-12.97c.3-.08.74-.9-.08-1.05-.83-.16-.62 1.22.07 1.04zM40.24-5.63c.48-.63-.6-1.8-.9-.97s.68 1.27.9.97zM41.48-3.36c1.05.52.45-1.88-.07-1.73-.53.15-.74 1.32.07 1.73zM64.56-9.97c.38.07.9-.83.23-.98-.68-.15-.92.84-.23.97zM63.1-13.5c.6-.3.08-.9-.44-.9-.53 0-.1 1.18.45.9zM62.99-2.53c.3-.23.07-.53-.23-.53-.3 0-.02.71.23.53zM59.15-6.9c.3-.23.07-.53-.23-.53-.3 0-.02.72.23.53zM64.32-5.85c-.3 0-.02.71.23.53.3-.23.07-.53-.23-.53zM63.34-5.03c.3-.22.08-.52-.22-.52s-.02.71.23.52zM56.1-21.18c.24-.18.06-.42-.18-.42s-.02.57.18.43zM66.05-23.6c-.24 0-.02.57.18.43.24-.18.06-.42-.18-.42zM58.47-26.93c.24-.18.06-.42-.18-.42s-.02.57.18.43zM56.42-26.26c-.24 0-.01.57.18.42.24-.18.06-.42-.18-.42M58.92-29.85c.24-.18.06-.42-.18-.42s-.02.57.18.42zM60.12-31.27c.24-.18.06-.42-.18-.42s-.02.56.18.42zM41.94-31.7c-.24 0-.02.57.18.42.24-.17.06-.41-.18-.41zM42.57-26.77c.24-.18.06-.42-.18-.42s-.02.56.18.42zM64.28-19.01c-.24 0-.02.57.18.42.24-.18.06-.42-.18-.42zM49.62-4.2c.24-.18.06-.42-.18-.42s-.02.57.18.42zM38.04-6.2c-.24 0-.02.57.18.42.24-.17.06-.42-.18-.42zM39.2-17.4c.23-.18.05-.42-.19-.42-.23 0-.01.57.19.42zM34.32-10.95c.24-.18.06-.42-.18-.42s-.02.57.18.42zM37.97-10.62c-.24 0-.02.57.18.42.23-.18.05-.42-.18-.42zM43.84-8.85c.24-.18.06-.42-.18-.42-.23 0-.01.57.19.42zM66.03-3.95c-.24 0-.02.57.18.42.24-.18.06-.42-.18-.42zM36.57-23.7c.24-.18.06-.42-.18-.42s-.02.57.18.42zM39.02-26.97c-.25 0-.02.57.17.42.25-.18.07-.42-.17-.42zM41.15-26.02c.24-.18.06-.42-.18-.42s-.02.56.18.42zM37.62-23.18c.24-.18.06-.42-.18-.42s-.02.57.18.43zM44.22-12.68c.24-.18.06-.42-.18-.42s-.02.57.18.42zM50.82-6.15c.24-.18.06-.42-.18-.42s-.02.57.18.42zM59.83-4.67c.24-.18.06-.42-.18-.42s-.02.57.18.42zM64.4-12.45c-.24 0-.02.57.18.42.24-.18.06-.42-.18-.42zM65.9-7.14c-.24 0-.02.57.18.42.24-.18.06-.42-.18-.42zM65.58-16.9c.24-.18.06-.42-.18-.42s-.02.56.18.42zM52.4-6.38c.24-.18.06-.42-.18-.42s-.02.57.18.42zM61.1-1.5c.3-.23.07-.53-.23-.53s-.02.72.23.53zM65.55-5.24c-.3 0-.03.7.22.52.3-.22.08-.52-.22-.52zM64.43-15.13c.3-.22.07-.52-.23-.52-.3 0-.02.7.23.52zM66.1-1.49c.23 0 .23-1.05-.37-1.12S65-1.5 66.11-1.5zM42.72-8.25c.82.15.6-.82.07-1.05-.52-.22-.73.93-.07 1.05zM42.27-10.35c.38 0 .75-.75.23-1.05-.53-.3-.7 1.05-.23 1.05zM40.4-7.13c.37 0 .75-.75.22-1.05-.52-.3-.7 1.05-.22 1.05zM41-12.07c-.53-.3-.7 1.05-.23 1.05.38 0 .75-.76.22-1.05zM43.84-13.5c.38 0 .75-.75.23-1.05-.52-.3-.7 1.05-.23 1.05zM45.65-18.07c.37 0 .75-.75.22-1.05-.52-.3-.7 1.05-.22 1.05zM37.1-20.77c-.53-.3-.7 1.05-.23 1.05.38 0 .75-.76.23-1.05zM46.24-24.23c-.52-.3-.7 1.05-.22 1.05.38 0 .75-.75.22-1.05zM42.95-11.93s.37-1.12-.38-.97c-.75.15-.08 1.05.38.97zM38.4-1.65s.37-1.13-.38-.98c-.75.15-.08 1.05.38.98zM59.97-11.4c.53-.07.75-.82.15-.9-.6-.07-.62.97-.15.9zM62.94-8.14c.53-.07.75-.82.15-.9-.6-.07-.62.97-.15.9zM58.9-12.32c.52-.07.74-.82.14-.9-.6-.07-.62.97-.15.9zM53-12.38c.52-.07.74-.82.14-.9-.6-.07-.62.97-.15.9zM51.8-11.25c.52-.07.75-.82.15-.9-.6-.07-.63.97-.16.9zM56.9-1.53c.52-.07.75-.82.15-.9-.6-.07-.63.97-.15.9zM60.27-21.68c.53-.07.75-.82.15-.9-.6-.07-.62.97-.15.9zM54.12-19.2c.53-.07.75-.82.15-.9-.6-.07-.62.97-.15.9zM52.1-27.3c-.6-.07-.63.97-.16.9.53-.08.76-.83.16-.9zM59.07-18.9c.52-.07.75-.82.15-.9-.6-.07-.62.97-.15.9zM55.79-23.27c.52-.08.75-.83.15-.9-.6-.08-.62.96-.15.9zM54.95-23.18c-.6-.07-.63.97-.16.9.53-.07.75-.82.16-.9zM55.62-11.4c.67-.23.22-1.2-.38-1.05-.6.15-.14 1.22.38 1.05zM60.42-17.4c.67-.23.22-1.2-.38-1.05-.6.15-.14 1.22.38 1.05zM63.5-16.57c.67-.23.22-1.2-.38-1.05-.6.14-.14 1.22.37 1.05zM58.32-20.77c.67-.23.22-1.2-.38-1.05-.6.14-.14 1.22.38 1.05zM58.53-16.17c.67-.22.22-1.2-.38-1.05-.6.15-.14 1.23.38 1.05zM44.37-18.75c-.6-.45-.87.79-.38.97.6.23.98-.52.38-.97zM43.7-20.32c.6.22.97-.53.37-.98-.6-.45-.87.79-.38.98zM47.74-24c-.6-.45-.87.79-.37.97.6.23.98-.52.38-.97zM43.84-24.91c.11-.1.27-.13.45.01" style="fill-rule:evenodd;clip-rule:evenodd;fill:#00aeef"/><path d="M43.84-24.91c-.24.23-.26.86.08.99.6.22.97-.53.37-.98M39.27-21.6c.6.23.97-.53.38-.97-.6-.45-.88.78-.38.97zM55.77-5.52c.38 0 .53-.6.15-.75-.38-.15-.63.75-.15.75zM53.67-7.28c.37 0 .52-.6.15-.75-.38-.15-.63.75-.15.75zM47.82-8.55c.38 0 .53-.6.15-.75-.38-.15-.63.75-.15.75zM61.54-5.63c.38 0 .53-.6.15-.75s-.62.75-.15.75zM59.15-2.22c.37 0 .52-.6.15-.75-.38-.15-.63.75-.15.75zM57.77-4c.38 0 .53-.6.15-.76-.38-.15-.63.75-.15.75zM62.6-11.85c.37 0 .52-.6.14-.75-.37-.15-.62.75-.15.75zM62.17-16.03c-.38-.15-.63.75-.15.75.37 0 .52-.6.15-.75zM65.03-28.13c.37 0 .52-.6.15-.75s-.63.75-.15.75zM66.05-30.9c-.38-.15-.63.75-.15.75.37 0 .52-.6.14-.75zM63-19.1c.45 0 .63-.71.18-.9-.45-.18-.75.9-.18.9zM56.94-13.34c.37 0 .52-.6.15-.75-.38-.15-.63.75-.15.75zM56.27-17.68c.38 0 .53-.6.15-.75s-.63.75-.15.75zM65.52-21.11c.38 0 .53-.6.15-.75s-.63.75-.15.75zM55.77-32.48c.38 0 .53-.6.15-.75-.38-.15-.63.75-.15.75zM42.57-5.47c.38 0 .53-.6.15-.75s-.63.75-.15.75zM38.74-4.13c.38 0 .53-.6.15-.75s-.62.75-.15.75zM43.9-2.84c.37 0 .52-.6.15-.75-.38-.15-.63.75-.15.75zM39.12-9c.38 0 .53-.6.15-.75s-.63.75-.15.75zM47.07-1.43c.38 0 .53-.6.15-.75-.38-.15-.63.76-.15.76zM39.85-2.35c.37 0 .52-.6.15-.75-.38-.15-.63.75-.15.75zM50.6-7.72c.37 0 .52-.6.14-.75-.37-.15-.62.75-.15.75zM40.32-8.78c.38 0 .53-.6.15-.75-.38-.15-.63.75-.15.75zM49.47-12.6c.38 0 .53-.6.15-.76s-.63.75-.15.75zM45.57-13.2c.38 0 .53-.6.15-.75-.38-.15-.63.75-.15.75zM34.4-2.17c.37 0 .52-.6.15-.75-.38-.16-.63.75-.15.75zM35.67-13.5c.38 0 .53-.6.15-.75s-.63.75-.15.75zM41.67-13.57c.38 0 .53-.6.15-.75-.38-.15-.63.75-.15.75zM40.02-15.3c.38 0 .53-.6.15-.75-.38-.15-.63.75-.15.75zM40.62-21.98c-.38-.15-.62.75-.15.75.38 0 .52-.6.15-.75zM41.37-22.57c.38 0 .53-.6.15-.75-.38-.16-.63.75-.15.75zM37.77-15.82c.38 0 .53-.6.15-.75-.38-.16-.63.75-.15.75zM37.84-19.05c.38 0 .53-.6.15-.75-.37-.15-.62.75-.15.75zM37.77-24.07c.38 0 .53-.6.15-.75-.38-.16-.63.75-.15.75zM36.65-21.68c.37 0 .52-.6.15-.75-.38-.14-.63.75-.15.75zM43.17-21.75c.38 0 .53-.6.15-.75s-.63.75-.15.75zM43.17-18.98c.38 0 .53-.6.15-.75s-.63.75-.15.75zM46.32-22.2c.38 0 .53-.6.15-.75-.38-.15-.63.75-.15.75zM50.67-24c.38 0 .53-.6.15-.75s-.63.75-.15.75zM49.77-22.65c.38 0 .53-.6.15-.75s-.63.75-.15.75zM61.6-17.9c-.37-.15-.62.75-.14.75.37 0 .52-.6.15-.75zM65.67-23.93c.38 0 .53-.6.15-.75-.38-.14-.63.75-.15.75zM65.5-32.98c-.38-.15-1.06 1.13-.16 1.05.38-.03.53-.9.15-1.05zM46.46-20.2a.35.35 0 0 0-.1-.2M46.35-20.4a.35.35 0 0 0-.1-.08c-.38-.15-.63.75-.16.75.25 0 .4-.25.37-.46M49.17-30.15c-.38-.15-.62.75-.15.75.38 0 .52-.6.15-.75zM57.34-33.15c.38 0 .53-.6.15-.75-.37-.15-.62.75-.15.75zM66.17-38.4c-.38-.15-.62.75-.15.75.38 0 .53-.6.15-.75zM51.87-25.27c.38 0 .53-.6.15-.75s-.63.75-.15.75zM56.42-26.26c.38 0 .53-.6.15-.75-.37-.15-.62.75-.15.75M42.8-32.48c-.38-.15-.63.75-.15.75.37 0 .52-.6.15-.75zM36.97-33.17c.38 0 .53-.6.15-.75s-.63.75-.15.75zM37.4-31.13c.37 0 .52-.6.15-.75-.38-.14-.63.75-.15.75zM39.42-27.6c.38 0 .53-.6.15-.75s-.63.75-.15.75zM44.97-32.7c.38 0 .53-.6.15-.75-.38-.15-.63.75-.15.75zM55.4-15.97c.37 0 .52-.6.15-.75s-.63.74-.15.74zM55.32-13.28c.38 0 .53-.6.15-.75-.38-.15-.63.75-.15.75zM54.57-10.5c.38 0 .53-.6.15-.75s-.63.75-.15.75zM57.5-12c-.38-.15-.63.75-.16.75.38 0 .53-.6.15-.75zM55.44-8.68c.37 0 .52-.6.15-.75s-.63.75-.15.75zM51.65-13.13c.37 0 .52-.6.15-.74s-.63.74-.15.74zM48.27-14.78c-.38-.15-.62.75-.15.75.38 0 .53-.6.15-.75zM47.07-14.47c.38 0 .53-.6.15-.75-.38-.15-.63.75-.15.75zM49.47-6.38c.38 0 .53-.6.15-.75s-.63.75-.15.75zM52.65-2.97c.37 0 .52-.6.15-.75-.38-.15-.63.75-.15.75zM56.1-3.67c.38 0 .53-.6.15-.75s-.62.75-.15.75zM58.1-18.07c.37 0 .52-.6.14-.75-.37-.16-.62.75-.15.75zM52.77-19.5c.38 0 .53-.6.15-.75-.38-.15-.63.75-.15.75zM50.45-25.05c.37 0 .52-.6.14-.75-.37-.15-.62.75-.15.75z" style="fill-rule:evenodd;clip-rule:evenodd;fill:#00aeef"/><path d="M46.46-20.2c.06.06.14.1.25.1.52 0 .73-.84.2-1.05-.35-.14-.62.39-.56.74" style="fill-rule:evenodd;clip-rule:evenodd;fill:#00aeef"/><path d="M46.46-20.2a.38.38 0 0 1-.1-.2M54.72-24.6c.38 0 .53-.6.15-.75s-.63.75-.15.75zM53.67-26.93c.37 0 .52-.6.15-.75-.38-.14-.63.75-.15.75zM61.54-28.8c.38 0 .53-.6.15-.75-.37-.15-.62.75-.15.75zM48.05-33.83c-.38-.15-.63.75-.15.75.37 0 .52-.6.15-.75z" style="fill-rule:evenodd;clip-rule:evenodd;fill:#00aeef"/><path d="M51.09-35.42c-.38-.15-.63.75-.15.75.37 0 .52-.6.15-.75z" style="fill:#00aeef"/><path d="M56.53-15c.37 0 .52-.6.15-.75s-.63.75-.15.75zM58.6-14.18c.38 0 .53-.6.15-.75s-.62.75-.15.75zM66.2-15.9c-.38-.15-.63.75-.16.75.38 0 .53-.6.15-.75zM64.7-25.43c-.38-.15-.63.75-.16.75.38 0 .53-.6.15-.75zM63.38-24.33c-.38-.15-.63.75-.15.75.37 0 .52-.6.15-.75zM63.65-26.85c-.38-.15-.63.75-.16.75.38 0 .53-.6.16-.75zM63.27-28.5c-.38-.15-.62.75-.15.75.37 0 .53-.6.15-.75zM34.27-4.1c.15-.3-.23-1.87-.45-1.5-.23.38.2 2 .45 1.5zM61.22-31.8c.3-.45-.6-1.57-1.2-1.27-.6.3.87 1.76 1.2 1.27zM56.55-27.88c0-.6-.67-1.35-.97-.6-.3.75.97 1.25.97.6zM58.66-31.84c-.67 0-.52 1.05.23.9.38-.07.45-.9-.23-.9zM41.19-24.15c.52-.68-.53-1.57-.98-1.05-.45.52.56 1.58.98 1.05zM39.77-18.1c.45-.14.45-1.2-.45-1.04-.9.15-.05 1.21.45 1.05zM35.15-20.32c.45-.3.22-1.73-.38-1.5-.6.22-.19 1.87.38 1.5zM35.2-23.37c.56-.33-.3-1.87-.67-1.2-.38.68.3 1.43.67 1.2zM35.6-25.23c.44-.07.44-1.12-.38-1.12s-.3 1.24.38 1.13zM40.32-19.65c.9-.3-.3-1.8-.45-1.27-.15.52-.03 1.43.45 1.27z" style="fill-rule:evenodd;clip-rule:evenodd;fill:#00aeef"/><path d="M45.87-28.73c.3-.6-.68-1.42-.97-1.05s.76 1.48.97 1.05z" style="fill:#00aeef"/><path d="M44.37-28.13c.45-.07.23-.97-.23-.97s-.22 1.05.23.98zM44.97-32.25c-.45.6.42 1.31.75.82.3-.45-.3-1.42-.75-.82zM40.92-33.67c-.82 0-.37 1.36.23 1.27.52-.08.6-1.27-.23-1.27zM63.12-20.48c.52 0 .67-1.05 0-1.2-.68-.14-.78 1.2 0 1.2zM58.15-36.81c.36.45 1.57 0 1.4-.5-.18-.5-.54.18-.9.1s-.73.1-.5.4zM46.4-39.65c.22-.68-.83-1.95-1.58-1.43-.75.53 1.37 2.04 1.58 1.43zM51.2-38.75c-.76.38.24 2.07.6 1.57.37-.52.15-1.95-.6-1.57zM46.84-45.35c-.37.38.08.38.53 1.2s.44 1.39.82.68c.53-.98-.97-2.26-1.34-1.88zM45.27-42.5c.07-.9-1.05-2.17-1.13-1.43s1.08 2.03 1.13 1.43zM62.46-42.55c-.4.83.64.8.95 1.4.31.61.3 1.28.77.76.47-.52-.7-1.42-.86-1.88-.15-.45-.63-.75-.86-.28zM52.77-49.78c-.45.45.53.75.45 1.65-.07.9.42 1.54.68.9.67-1.73-.68-3-1.13-2.55zM61.02-46.77c-.38-3-1.05-2.03-1.27-1.2-.23.82 1.35 1.86 1.27 1.2zM37.36-35.08c.68-.6.23-2.62-.45-2.02-.67.6-.17 2.58.45 2.02zM34.34-37.17c0 .97 1.72.67 1.57.22-.19-.57-1.57-1.2-1.57-.22zM52.17-54.73c-.53.53.97 1.54.97.9 0-.82-.45-1.42-.97-.9zM50.15-64.78c0-.82-.45-1.42-.98-.9-.52.53.98 1.54.98.9zM35.3-49.1c-.98.38.48 1.9.9 1.35.45-.6.07-1.73-.9-1.35zM43.62-37.4c.68.15 1.35-.9.53-1.43-.83-.52-1.18 1.28-.53 1.43zM51.77-30.77c.53-.45 0-1.58-.68-1.13-.67.45.15 1.57.68 1.13zM64.7-37.48c-.3-.67-1.54.52-1.06 1.2.38.53 1.35-.52 1.05-1.2zM57.72-41.98c-.38-.3-1.02 1.46-.45 1.58 1.05.23.82-1.27.45-1.58zM55.44-41.17c.98-.15.45-1.65-.22-1.5-.68.15-.45 1.6.22 1.5zM64.78-52.02c-.45 0-.47.85.09.85.44 0 .35-.85-.1-.85zM51.8-43.27c-.83-.07-.54 2.25.22 2.18.82-.08 0-.83.23-1.2.22-.38.37-.9-.45-.98zM35.22-50.75c.53 1.05 1.65-.75 1.43-1.13s-1.72.55-1.43 1.13zM42.27-49.33c-.38.23-.6-.45-.97.08-.38.53 1.44 1.78 1.57 1.13.15-.76-.22-1.43-.6-1.2zM48.57-50c-.75.23-.05 1.65.6 1.27.52-.3.15-1.5-.6-1.27zM47.07-49.85s-1.88.97-.82 1.5c1.56.79.82-1.5.82-1.5zM59.68-35.4c-.37-.68-1.5.46-.97.9.82.67 1.35-.23.97-.9zM49.37-35.17c.07-.3-.75-1.58-1.13-1.2s.98 1.78 1.13 1.2zM42.27-35.9c-.38-.23-1.44.78-.9 1.05.45.23 2.32-.2.9-1.05zM61.38-45.3c-.45-.07-1.46 1-.9 1.5.67.6 1.35-1.43.9-1.5zM47.74-59.23c-.97.38-.05 1.87.83 1.65.6-.15.15-2.02-.83-1.65zM54.34-63.73c0-.75-1.57-.67-1.57.15s1.57.46 1.57-.15zM60.12-62.52c-.68 0-.83 1.86.3 1.72.6-.08.37-1.73-.3-1.73zM63.04-66.94c.02.44.27.86.82.79.28-.04.38-.4.34-.8M34.92-63.42c-.38.37.15.67.23 1.42s.23 1.95.52 1.43c.9-1.66-.38-3.23-.75-2.85zM41.15-58.92l.01-.02M41.15-58.92c-.23.22.39 2.2.9 1.57 1.17-1.47-.6-1.79-.89-1.59M61.47-41c-.9 0-.43 1.34.3 1.2.75-.16.6-1.2-.3-1.2zM60.87-36.95c-.42.42.52 1.24.9.66.54-.84-.48-1.08-.9-.66zM54.12-51.42c-.9-.08-.91 1.42.23 1.42.6 0 .67-1.35-.23-1.42zM53.38-56.24c.6 0 .68-1.35-.22-1.42-.9-.08-.91 1.42.22 1.42zM58.15-57c-.9-.07-.91 1.43.22 1.43.6 0 .67-1.35-.22-1.43zM57.57-59.23c-.9-.07-.91 1.43.22 1.43.6 0 .68-1.35-.22-1.43zM61.62-56c.6 0 .67-1.35-.23-1.43-.9-.07-.9 1.43.23 1.43zM46.57-36.77c.6 0 .68-1.35-.23-1.43-.9-.07-.9 1.43.23 1.43zM63.94-55.85c-.82.23-.23 1.35.38 1.05.45-.23.45-1.28-.38-1.05zM51.5-51.8c-.83.23-.24 1.35.37 1.05.45-.23.45-1.27-.38-1.05zM51.05-53.3c.45-.23.45-1.27-.38-1.05-.83.23-.23 1.35.38 1.05zM48.05-55.02c-.83.22-.24 1.35.37 1.05.45-.23.45-1.28-.38-1.05zM41.74-51.42c-.82.22-.23 1.35.38 1.05.45-.23.45-1.28-.38-1.05zM47.74-39.05c-.82.23-.23 1.35.38 1.05.45-.23.45-1.27-.38-1.05zM48.42-52.25c-.82.23-.23 1.35.38 1.05.45-.22.45-1.27-.38-1.05zM54.57-35.53c-.82.23-.23 1.35.38 1.05.45-.23.45-1.28-.38-1.05zM62.94-33c.45-.23.45-1.28-.38-1.06-.82.23-.23 1.36.38 1.05zM59.44-58.92c-.82.22-.23 1.35.38 1.05.45-.23.45-1.28-.38-1.05zM56.5-61.23c-.83.23-.24 1.36.37 1.05.45-.22.45-1.27-.38-1.05zM61.22-59.88c-.66.18-.2 1.08.3.84.35-.19.35-1.02-.3-.84zM62.15-58.48c-.66.18-.2 1.09.3.84.35-.17.35-1.02-.3-.84zM48.8-60.88c-.66.19-.2 1.09.3.85.35-.19.35-1.02-.3-.84zM47-62.3c-.67.18-.2 1.08.3.84.36-.18.36-1.02-.3-.84zM43.84-65.9c-.66.18-.18 1.08.3.84.37-.18.37-1.02-.3-.84zM50.6-62.75c-.67.18-.2 1.08.3.84.36-.18.36-1.02-.3-.84zM38.22-65.97c-.66.18-.19 1.08.3.84.36-.19.36-1.03-.3-.84zM47.52-65.08c-.66.18-.19 1.09.3.84.36-.18.36-1.02-.3-.84zM46.4-63.8c-.66.18-.2 1.08.3.84.35-.18.35-1.02-.3-.84zM44.97-59.75c-.66.18-.19 1.08.3.84.36-.18.36-1.02-.3-.84zM37.47-60.71c.36-.18.36-1.02-.3-.84s-.19 1.08.3.84zM36.72-60.42c-.66.18-.19 1.08.3.84.36-.19.36-1.02-.3-.84zM37.7-59.45c-.67.18-.2 1.08.3.84.35-.18.35-1.02-.3-.84zM39.2-56.98c-.67.18-.2 1.09.3.84.35-.17.35-1.02-.3-.84zM58.15-38.72c-.23 1.13 1.12.6 1.2.3.12-.5-1.09-.88-1.2-.3zM54.12-38.38c-.45.53.02 1.27.75.9.3-.15-.3-1.42-.75-.9z" style="fill-rule:evenodd;clip-rule:evenodd;fill:#00aeef"/><path d="M60.8-53.3c-.38.38.98 1.63 1.27 1.05.3-.6-.9-1.42-1.28-1.05z" style="fill:#00aeef"/><path d="M64.64-59.21c.53.07 1.13-1.73.53-2.03s-1.29 1.92-.53 2.03zM64.02-64.13c-.82.6.12 1.9.3 1.35.08-.22.52-1.94-.3-1.34zM49.84-48.13c-.07.46 1.58 1.21 1.58.6 0-1.42-1.44-1.44-1.58-.6zM37.77-44.9c-.68.07-.34 1.42.3 1.2.45-.15.38-1.27-.3-1.2zM36.2-41.38c.3-.6-.53-1.2-.98-.6-.45.6.8.94.98.6zM36.2-44.15c-.6-.45-1.08.99-.23 1.2.6.15.83-.75.23-1.2zM37.77-39.88c.6.46 1.35-.3.75-.97s-1.47.43-.75.98zM39.95-60.88c.3.83 1.42.23 1.04-.6s-1.3-.1-1.05.6zM41.65-66.94c-.03.6-.87.93-1.12.23a.71.71 0 0 1-.05-.23M42.05-62.75c-.83.3-.02 1.82.45 1.05.22-.38.37-1.35-.45-1.05zM39.93-63.9c-.08.6.9.97.9.3 0-.69-.83-.9-.9-.3zM38.52-64.03c-.68.15-.13 1.33.45.98.38-.23.23-1.13-.45-.98zM34.47-66.28c-.38.83.38 1.43.82.83.5-.65-.45-1.65-.82-.83zM58.94-42.86c-.45.23.5 1.73.82 1.35.45-.52-.37-1.57-.82-1.35zM33.45-42.42c-.46.22.5 1.73.82 1.35.45-.53-.38-1.58-.83-1.35zM39.87-46.1c-.3.45.34 1.38.68.82.45-.74-.38-1.27-.68-.82zM35.74-39.85c.13.52 1.25.68 1.07.06-.25-.84-1.2-.59-1.07-.06zM34.01-45.25c.13.52 1.24.68 1.06.06-.24-.84-1.19-.59-1.06-.06zM38.52-46.92c-.82-.15-.61 1.22.07 1.05.3-.08.75-.9-.07-1.05zM39.34-39.5c-.3.82.68 1.27.9.97.48-.63-.6-1.8-.9-.97zM31.5-32.7c-.53.15-.74 1.32.07 1.73 1.05.52.45-1.88-.07-1.73zM64.44-43.98c-.67-.15-.91.84-.22.98.37.08.9-.83.22-.98zM63.9-46.49c-.52 0-.1 1.18.46.9.6-.3.07-.9-.45-.9zM63.27-35.15c.3-.23.07-.53-.23-.53-.3 0-.02.72.23.53zM59.15-39.8c.3-.23.07-.53-.23-.53-.3 0-.02.72.23.53zM64.55-38.23c.3-.22.07-.52-.23-.52-.3 0-.02.71.23.52zM65.33-40.03c-.3 0-.02.71.23.53.3-.23.07-.53-.23-.53zM63.06-37.64c.3-.23.08-.53-.22-.53s-.03.71.22.53zM56.26-55.6c-.24 0-.02.57.18.43.24-.18.06-.42-.18-.42zM66.33-54.72c.24-.18.06-.42-.18-.42s-.02.57.18.42zM65.48-55.6c.24-.19.06-.43-.18-.43s-.02.57.18.42zM58.29-60.24c-.24 0-.02.56.18.42.24-.19.06-.42-.18-.42zM58.74-63.17c-.24 0-.02.57.18.42.24-.18.06-.42-.18-.42zM62.15-63.65c.24-.18.06-.42-.18-.42s-.02.56.18.42zM60.12-64.17c.24-.18.06-.42-.18-.42s-.02.56.18.42zM41.94-64.6c-.24 0-.02.57.18.42.24-.17.06-.41-.18-.41zM42.39-60.1c-.24 0-.02.57.18.43.24-.18.06-.42-.18-.42zM49.62-37.1c.24-.18.06-.42-.18-.42s-.02.57.18.42zM38.04-39.1c-.24 0-.02.57.18.43.24-.18.06-.42-.18-.42zM39.02-50.72c-.25 0-.02.57.17.42.25-.18.07-.42-.17-.42zM47.34-7.76c-.24 0-.02.57.18.42.24-.18.06-.42-.18-.42zM44.09-16.76c-.24 0-.02.57.18.42.24-.18.06-.42-.18-.42zM23.27-18.1c.24-.17.06-.41-.18-.41s-.02.57.18.42zM34.14-44.27c-.24 0-.02.57.18.42.24-.18.06-.42-.18-.42zM38.15-43.1c.24-.18.06-.42-.18-.42s-.02.57.18.42zM43.84-41.75c.24-.18.06-.42-.18-.42-.23 0-.01.57.19.42zM35.19-56.6c-.24 0-.02.57.18.43.24-.18.06-.42-.18-.42zM39.02-59.87c-.25 0-.02.57.17.42.25-.18.07-.42-.17-.42zM41.16-58.94c.22-.18.04-.4-.2-.4-.24 0-.01.56.18.42M41.15-58.92l.01-.02M37.44-56.5c-.24 0-.02.57.18.43.24-.19.06-.42-.18-.42zM44.04-46c-.24 0-.02.57.18.43.24-.19.06-.42-.18-.42zM46.27-43.67c.24-.18.06-.42-.18-.42s-.02.56.18.42zM49.94-42.67c.24-.18.06-.42-.18-.42s-.02.56.18.42zM52.22-39.7c-.24 0-.02.57.18.43.23-.18.05-.42-.18-.42zM60.87-34.92c-.3 0-.02.7.22.52.3-.23.08-.52-.22-.52zM65.37-36.5c-.3 0-.02.71.22.53.3-.23.08-.53-.22-.53zM65.42-34.95c-.6-.07-.74 1.13.38 1.13.22 0 .22-1.05-.38-1.13zM52.3-35.7c-.68 0-.4 1.35.37 1.35.3 0 .3-1.35-.38-1.35zM44.24-35.4c-.52-.23-.73.93-.07 1.05.82.15.6-.82.07-1.05zM42.8-42.2c-.53-.23-.74.93-.08 1.05.83.15.6-.83.08-1.05zM42.5-44.3c-.53-.3-.7 1.05-.23 1.05.38 0 .75-.75.22-1.05zM40.62-41.08c-.53-.3-.7 1.05-.23 1.05.38 0 .76-.74.23-1.05zM40.77-43.92c.38 0 .75-.75.23-1.05-.53-.3-.7 1.05-.23 1.05zM44.07-47.45c-.53-.3-.7 1.05-.23 1.05.38 0 .75-.75.23-1.05zM45.65-50.98c.37 0 .75-.75.22-1.05-.52-.3-.7 1.05-.22 1.05zM37.1-53.67c-.53-.3-.7 1.05-.23 1.05.38 0 .75-.76.23-1.05zM46.24-57.13c-.52-.3-.7 1.06-.22 1.06.38 0 .75-.76.22-1.05zM42.57-45.8c-.75.15-.07 1.05.38.97 0 0 .37-1.12-.38-.97zM56.74-46.92c-.6-.08-.62.96-.15.9.53-.08.75-.83.15-.9zM61.02-42.8c-.6-.07-.62.97-.15.9.53-.08.75-.83.15-.9zM51.25-66.74c-.6-.08-.62.96-.15.9.53-.08.75-.83.15-.9zM59.74-44.93c.53-.08.75-.83.15-.9-.6-.08-.62.96-.15.9zM53.15-46.17c-.6-.08-.62.96-.15.9.52-.08.74-.83.15-.9zM51.95-44.77c-.6-.07-.63.97-.16.9.53-.07.76-.82.16-.9zM60.4-55.24c-.6-.07-.61.97-.14.9.52-.07.75-.82.15-.9zM54.27-53c-.6-.07-.62.97-.15.9.53-.07.75-.82.15-.9zM52.1-60.2c-.6-.07-.63.97-.16.9.53-.08.76-.83.16-.9zM54.04-62.45c-.6-.07-.62.97-.15.9.53-.08.76-.83.15-.9zM62.07-66.33c-.6-.07-.62.97-.15.9.52-.07.75-.82.15-.9zM59.07-51.8c.52-.07.75-.82.15-.9-.6-.07-.62.97-.15.9zM56.59-53.9c-.6-.08-.62.96-.15.9.52-.08.75-.83.15-.9zM54.95-55.8c-.6-.07-.63.98-.16.9.53-.07.75-.82.16-.9zM55.92-45.35c-.6.15-.14 1.22.38 1.05.68-.23.23-1.2-.38-1.05zM60.04-51.35c-.6.15-.14 1.22.38 1.05.67-.23.23-1.2-.38-1.05zM63.12-50.52c-.6.15-.14 1.22.37 1.05.68-.23.23-1.2-.37-1.05zM57.94-54.73c-.6.15-.14 1.23.38 1.05.67-.22.22-1.2-.38-1.05zM58.52-49.77c-.6.15-.14 1.23.38 1.05.67-.22.22-1.2-.38-1.05zM44.4-50.32c-.6-.45-.88.8-.38.98.6.22.97-.53.38-.98zM43.7-53.23c.6.23.97-.52.37-.97-.6-.45-.87.79-.38.98zM47.74-56.9c-.6-.45-.87.79-.37.97.6.23.98-.52.38-.97zM43.92-56.83c.6.23.97-.52.38-.97-.6-.45-.88.79-.38.97zM39.65-55.48c-.6-.45-.88.8-.38.98.6.23.97-.52.38-.98zM41.67-52.92c-.6-.45-.87.78-.38.97.6.23.98-.52.38-.97zM56.55-38.84c-.38-.15-.63.75-.15.75.37 0 .52-.6.15-.75zM53.82-40.92c-.38-.15-.62.75-.15.75.37 0 .52-.6.15-.75zM47.97-42.2c-.38-.15-.62.75-.15.75.38 0 .52-.6.15-.75zM61.7-39.27c-.38-.15-.63.75-.16.75.38 0 .53-.6.15-.75zM62.6-44.75c.37 0 .52-.6.14-.75-.37-.15-.62.75-.15.75zM65.9-44.69c.37 0 .52-.6.14-.75-.37-.15-.62.75-.15.75zM61.58-49.09c-.37-.15-.62.75-.15.75.38 0 .53-.6.15-.75zM65.6-61.6c.37 0 .52-.6.14-.74-.37-.15-.62.75-.15.75zM66.05-63.8c-.38-.15-.63.75-.15.75.37 0 .52-.6.14-.75zM63.78-48.24c-.45-.18-.75.9-.18.9.45 0 .63-.72.18-.9zM63.18-52.9c-.45-.18-.75.9-.18.9.45 0 .63-.72.18-.9zM64.92-47.83c.38 0 .53-.6.15-.75-.38-.15-.63.75-.15.75zM57.72-47.23c.38 0 .53-.6.15-.75-.38-.15-.63.75-.15.75zM57.17-49.72c-.38-.15-.62.75-.15.75.38 0 .52-.6.15-.75zM55.92-66.13c-.38-.15-.63.75-.15.75.38 0 .52-.6.15-.75zM42.57-38.38c.38 0 .53-.6.15-.74-.38-.16-.63.74-.15.74zM38.9-37.77c-.38-.15-.63.75-.15.75.37 0 .52-.6.15-.75zM44.9-35.6c.37 0 .52-.6.15-.75-.38-.15-.63.75-.15.75zM41.37-36.58c.38 0 .53-.6.15-.75-.38-.15-.63.75-.15.75zM39.27-42.65c-.38-.15-.62.75-.15.75.38 0 .53-.6.15-.75zM38.52-35.52c-.38-.15-.62.75-.15.75.38 0 .53-.6.15-.75zM22.44-34.67c.37 0 .52-.6.15-.75s-.63.75-.15.75zM47.07-34.33c.38 0 .53-.6.15-.75-.38-.15-.63.75-.15.75zM40.44-35.19c-.38-.15-.63.75-.15.75.37 0 .52-.6.15-.75zM50.74-41.38c-.37-.14-.62.76-.15.76.38 0 .53-.6.15-.76zM40.47-42.42c-.38-.15-.62.75-.15.75.38 0 .52-.6.15-.75zM49.47-44.38c.38 0 .53-.6.15-.74-.38-.16-.63.74-.15.74zM45.72-46.85c-.38-.15-.62.75-.15.75.38 0 .52-.6.15-.75zM34.4-35.08c.37 0 .52-.6.15-.75-.38-.15-.63.75-.15.75zM35.67-46.4c.38 0 .53-.6.15-.75-.38-.15-.63.75-.15.75zM41.82-47.23c-.38-.15-.62.75-.15.75.38 0 .52-.6.15-.75zM40.17-48.95c-.38-.15-.62.75-.15.75.38 0 .52-.6.15-.75zM38.97-46.92c.38 0 .53-.6.15-.75s-.63.75-.15.75zM40.12-53.73c-.38-.15-.62.75-.15.75.38 0 .52-.6.15-.75zM41.52-56.23c-.38-.15-.62.75-.15.75.38 0 .53-.6.15-.75zM37.92-49.48c-.38-.15-.62.75-.15.75.38 0 .52-.6.15-.75zM38-52.7c-.38-.15-.63.75-.16.75.38 0 .53-.6.15-.75zM37.92-57.73c-.38-.15-.62.75-.15.75.38 0 .52-.6.15-.75zM49.17-53.6c-.38-.14-.62.76-.15.76.38 0 .52-.6.15-.75zM50.27-50.1c.38 0 .53-.6.15-.74-.38-.15-.63.75-.15.75z" style="fill-rule:evenodd;clip-rule:evenodd;fill:#00aeef"/><path d="M57.52-28.34c.38 0 .53-.6.15-.75s-.63.75-.15.75z" style="fill:#00aeef"/><path d="M36.65-54.58c.37 0 .52-.6.15-.75-.38-.15-.63.75-.15.75zM36.95-58.17c-.38-.15-.63.75-.16.75.38 0 .53-.6.16-.75zM43.32-55.4c-.38-.15-.62.75-.15.75.38 0 .52-.6.15-.75zM43.32-52.63c-.38-.14-.62.76-.15.76.38 0 .52-.6.15-.76zM46.47-55.85c-.38-.15-.62.75-.15.75.38 0 .52-.6.15-.75zM50.82-57.65c-.38-.15-.62.75-.15.75.38 0 .52-.6.15-.75zM49.92-56.3c-.38-.15-.62.75-.15.75.38 0 .52-.6.15-.75zM56.75-51.42c-.37-.15-.62.75-.15.75.38 0 .53-.6.15-.75zM65.9-52.94c.38 0 .53-.6.16-.75-.38-.15-.63.75-.15.75zM65.67-56.83c.38 0 .53-.6.15-.75-.38-.15-.63.75-.15.75zM46.46-53.1a.35.35 0 0 0-.1-.2M46.35-53.3a.35.35 0 0 0-.1-.08c-.38-.14-.63.76-.16.76.25 0 .4-.26.37-.47M49.02-62.3c.38 0 .53-.6.15-.75s-.63.75-.15.75zM57.5-66.8c-.38-.15-.63.75-.16.75.38 0 .53-.6.15-.75zM65.27-65.72c-.38-.15-.62.75-.15.75.38 0 .52-.6.15-.75zM51.87-58.17c.38 0 .53-.6.15-.75s-.63.75-.15.75zM53.9-58.4c.37 0 .52-.6.15-.75-.38-.15-.63.75-.15.75zM42.8-65.38c-.38-.15-.63.75-.15.75.37 0 .52-.6.15-.75zM36.39-65.67c-.38-.15-.63.75-.15.75.37 0 .52-.6.15-.75zM37.55-64.78c-.38-.15-.63.75-.15.75.37 0 .52-.6.15-.75zM39.57-61.25c-.38-.15-.62.75-.15.75.38 0 .52-.6.15-.75zM41.12-65.6c-.38-.15-.62.75-.15.75.38 0 .52-.6.15-.75zM55.54-49.63c-.37-.14-.62.76-.15.76.38 0 .53-.6.15-.76zM55.32-46.17c.38 0 .53-.6.15-.75s-.63.75-.15.75zM54.72-44.15c-.38-.15-.62.75-.15.75.38 0 .52-.6.15-.75zM57.3-43.65c-.38-.15-.63.75-.16.75.38 0 .53-.6.15-.75zM51.36-45.17c.38 0 .53-.6.15-.75-.37-.16-.62.75-.15.75zM50.09-46.92c-.38-.15-.63.75-.15.75.37 0 .52-.6.15-.75zM48.27-47.67c-.38-.15-.62.75-.15.75.38 0 .53-.6.15-.75zM47.22-48.13c-.38-.14-.62.76-.15.76.38 0 .52-.6.15-.76zM57.27-34.78c.38 0 .53-.6.15-.75-.38-.15-.63.75-.15.75zM49.62-40.02c-.38-.15-.62.75-.15.75.38 0 .52-.6.15-.75zM56.17-36.17c.37 0 .52-.6.15-.75s-.63.75-.15.75zM58.24-51.73c-.37-.15-.62.75-.15.75.38 0 .53-.6.15-.75zM64.62-54.1c-.38-.15-.63.75-.15.75.37 0 .52-.6.15-.75zM52.92-53.15c-.38-.15-.62.75-.15.75.38 0 .52-.6.15-.75zM50.45-57.95c.37 0 .52-.6.14-.75-.37-.15-.62.75-.15.75z" style="fill-rule:evenodd;clip-rule:evenodd;fill:#00aeef"/><path d="M46.46-53.1a.38.38 0 0 1-.1-.2M46.46-53.1c.06.07.14.1.25.1.53 0 .73-.84.21-1.05-.35-.14-.63.39-.56.74M55.52-57.1c.38 0 .53-.6.15-.74-.38-.15-.63.75-.15.75zM53.82-60.58c-.38-.15-.62.75-.15.75.37 0 .52-.6.15-.75zM61.54-61.7c.38 0 .53-.6.15-.75-.37-.15-.62.75-.15.75zM45.86-66.66c-.38-.15-.63.75-.15.75.37 0 .52-.6.15-.75zM58.1-44.34c.38 0 .53-.6.15-.75-.37-.15-.62.75-.15.75zM58.4-46.7c-.38-.15-.63.75-.15.75.37 0 .52-.6.15-.75zM65.8-46.49c.37 0 .52-.6.15-.75s-.63.75-.16.75zM66.13-59.26c-.37-.15-.62.75-.15.75.38 0 .53-.6.15-.75zM63.94-57.8c-.37-.15-.62.75-.15.75.38 0 .53-.6.15-.75zM63.65-59.75c-.38-.15-.63.75-.16.75.38 0 .53-.6.16-.75zM63.27-61.4c-.38-.15-.62.75-.15.75.37 0 .53-.6.15-.75zM34.17-39.8c-.23.38.2 1.98.45 1.5.15-.3-.22-1.88-.45-1.5zM59-66.65c-.6.3.87 1.76 1.2 1.27.3-.45-.6-1.57-1.2-1.27zM56.74-62.83c0-.6-.67-1.35-.97-.6-.3.76.97 1.25.97.6zM57.65-65.08c-.68 0-.53 1.05.22.9.37-.07.45-.9-.22-.9zM39.65-58.1c-.45.53.56 1.58.97 1.05.53-.68-.52-1.58-.97-1.05zM35.15-53.23c.45-.3.22-1.72-.38-1.5-.6.23-.19 1.88.38 1.5zM35.22-58.4c-.82 0-.3 1.24.38 1.13.45-.08.45-1.13-.38-1.13zM44.9-62.67c-.3.37.76 1.47.97 1.05.3-.6-.67-1.43-.97-1.05zM44.15-62c-.45 0-.23 1.05.22.97.45-.07.23-.97-.22-.97zM44.4-64.3c-.45.6.43 1.31.75.83.3-.45-.3-1.43-.75-.83zM63.12-53.38c.52 0 .67-1.04 0-1.2-.68-.15-.78 1.2 0 1.2zM24.01-1.27c.24-.45 1.08-.9 1.08-.9s.15.46.18.9M6.77-1.27C7.15-2.3 5.73-2.5 5.54-2.3c-.1.11-.03.6.14 1.02M17.3-1.27c.07-.4-.04-.8-.6-.59-.28.1-.37.34-.36.59M41.65-1.27a.78.78 0 0 0-.07-.36c-.33-.73-1.1-.25-1.1.35M64.2-1.27c-.05-.46-.28-.93-.64-.93-.34 0-.55.47-.52.93M16.34-1.27h.97" style="fill-rule:evenodd;clip-rule:evenodd;fill:#00aeef"/></svg>