<svg xmlns="http://www.w3.org/2000/svg" xml:space="preserve" width="72.67" height="72.67" viewBox="2.35 -74.6 72.67 72.67"><path d="M2.35-74.6h72.67v72.67H2.35z" style="fill:none"/><path d="M7.63-73.81c1.44-.48 1.5 2.25.25 2.75s-1.38-2.38-.25-2.75zM12.88-73.31c.57-1.03 3.12.37 1.74 1.62s-2.37-.5-1.74-1.62zM20.13-70.94c.95 1.53 1.37 3.38-.88 2.5s.25-3.5.88-2.5zM25.13-72.31c-1.11.32-1.25 3 1.12 3s-.25-3.25-1.13-3zM33-74.19c.8-.64 2.25 1.75.38 2.38s-1-1.88-.38-2.38zM43.13-73.94c-2.22.32-1.13 2.5.5 2.25s1.24-2.5-.5-2.25zM4.38-66.69c.46-1.05 2.37 0 1.75 1.25s-2.63.75-1.75-1.25zM9.13-60.19c-1.3 1.2.24 3.38 1.5 2.25s0-3.62-1.5-2.25zM2.88-44.69c.42-1.85 2.62.75 1.75 2s-2.38.75-1.75-2zM8.38-52.69c1.06-1.06 2.62.25 1.12 2s-1.75-1.37-1.13-2zM51.25-73.06c1.66-.83 1.88 1.75.63 2.5s-1.63-2-.63-2.5zM59.25-72.19c1.35-.27 2.38 1.88.63 2.5s-1.88-2.25-.63-2.5zM3.13-38.69c.45-1.06 1.37-1 1.62.88S2-36.06 3.12-38.7zM3.75-31.19c.33-1.55 2.5-1.37 2.38.38s-2.75 1.37-2.38-.38zM5.75-23.56C7.41-25.1 8.5-21.7 7-21.31s-3-.63-1.25-2.25zM5.75-16.69c1.2-1.49 2.38.88 1.25 1.88s-2.25-.63-1.25-1.88zM13.02-22.94c1.28-2.02 1.93.3 1.82 2.06-.1 1.76-3.3.24-1.82-2.06zM71.67-73.5c.73-2.21 2.37 1.25.87 2.63s-1.37-1.13-.87-2.63zM69.06-66.06c1.46-.1 1.88 2 .5 2.62s-2.25-2.5-.5-2.62zM72.42-59.94c-1.27 1.1.12 3.38 1.25 2.13s-.25-3-1.25-2.13zM72.8-53.94c1.22-1.07 2.12 2.5.74 2.88s-1.75-2-.75-2.88zM70.17-47.56c1.79-.21 1.37 2.87.12 3.12s-2.25-2.87-.12-3.12zM70.3-39.56c1.48.5 1.12 3.75-.5 2.62s-.26-2.87.5-2.62zM69.17-32.69c1.46.97-3.13 3.88-2.38 1.25s1.63-1.75 2.38-1.25zM72.54-27.44c-1.33.89-1 4.38.5 3s.63-3.75-.5-3zM70.8-19.94c1.7.52 2.24 2.88.37 2.88s-1.63-3.25-.38-2.88zM72.42-12.44c1.5-.75 1.75 2.38.37 3s-2.12-2.12-.37-3zM15.75-65.69c1.6.96 1.75 3.88 0 3.25s-.63-3.62 0-3.25zM30.88-66.06c1.17-.13 1.62 2.87.25 2.87s-1.38-2.75-.25-2.87zM37-68.81c1.91 0 2.13 3 .38 2.87S35.5-68.8 37-68.8zM46.38-68.31c1.98.5.37 3.62-.88 2.75s-.63-3.13.88-2.75zM55.75-66.94c1.59.35 1.25 2.75-.13 2.75s-1-3 .13-2.75zM63.19-63.19c2.02.74 1.62 4.38-.63 3.75s-.75-4.25.63-3.75zM66.63-55.94c1-.1 1.25 2.5 0 3s-1.25-2.87 0-3zM50.5-62.19c1.13-.37 2 2 .38 2.63S49-61.7 50.5-62.2zM10.88-8.38c1.2-.71 2.74 1.88 1.62 2.76s-2.88-2-1.63-2.75zM3.75-7.25c1-2.7 2.5 2.38 1 2.88s-1.75-.88-1-2.88zM19.88-5.88C20.43-6.99 22.75-3 21.5-2.5s-2.38-1.88-1.63-3.38zM31.63-8.38c1.1-.15 1.75 2.88 0 3s-.88-2.87 0-3zM51.13-7.75c1.27-1.48 1.87 2.88.62 3.38s-2.25-1.5-.63-3.38zM59.25-6.75c-1.08.62-1.63 3.5.5 2.75s.38-3.25-.5-2.75zM65.63-5.25c.57-1.14 2.12.38 1.75 1.75s-3 .75-1.75-1.75zM39.38-7c1.28.48 2.62-2.88 1-3.5s-2 3.13-1 3.5zM45.38-9.25c1.07-.41 2.24 2.75.87 3s-2.5-2.38-.88-3zM25.38-10.88c1.46-.32 2.25 4 .5 4.13s-1.63-3.88-.5-4.13zM39.5-25.19c.84-.25 1.75 1.38 1.25 2.5s-.5 1.25-1.13 1.5-1.37-3.62-.12-4zM45.38-16.81c1 1 1.5 3.25-.5 2.37s.5-2.37.5-2.37zM35-16.44c.58-.96 2 1.13 1.5 1.88s-3.25 1-1.5-1.88zM28.75-18.81c1.48.9.5 2.5-1.25 2.12s-1-3.5 1.25-2.12zM20-15.81c1.48-.37 1.75 1.75.5 2.37S19-15.56 20-15.8zM13.63-14.56c1.26-.21 1.12 3.5-.63 2.62s-.13-2.5.63-2.62zM19.75-23.56c.54-.92 2-.13 1.13 1.37s-2 .13-1.13-1.37zM31-39.31c.54-.92 2-.13 1.13 1.37s-2 .13-1.13-1.37zM64.75-70.31c.54-.92 2-.13 1.13 1.37s-2 .13-1.13-1.37zM26.13-26.44c1.35 0 .75 3.5-.5 3.25s-.13-3.25.5-3.25zM64.75-14.94c2.06-.51 2.25 3.13.63 3.88s-1.63-3.63-.63-3.88zM57.25-19.63c1.35-.55 2.75 1 1.38 2.38s-3.5-1.5-1.38-2.38zM51-22.31c1.58.23.88 2.87-.25 3.37s-3.13-3.87.25-3.37zM65.75-23.31c.92-1.02 2.38 2.87.88 3.12s-2-1.87-.88-3.12zM60.88-28.06c1.28-.4 1.5 2.12.62 3.25s-3-2.5-.63-3.25zM52.88-29.06c2.35 1.04.24 3.87-1.26 2.87s.13-3.37 1.26-2.87zM58.63-35.19c1.66 0 1.24 2.38-.13 3.13s-1-3.13.13-3.13zM63.25-43.81c1.7 1 .38 3.62-1.25 3.5s-.25-4.38 1.25-3.5zM45.13-27.69c.87-1.75 1.87-.75 2.12 1.25s-3.38 1.25-2.13-1.25zM49.25-37.44c1.55-.89 2.75 2.38 1.25 2.88s-3-1.88-1.25-2.88zM42.38-37.44c1.93.26 1.5 2.13.24 2.5s-2.12-2.75-.24-2.5zM54.63-44.19c1.53-.58 2.24 2.75.74 3s-1.74-2.62-.74-3zM32.75-26.44c1.36-.73 2.38 2.63 1.13 3.25s-3-2.25-1.13-3.25zM37.5-33.81c1.54-.39 1.5 2.5.38 3s-2.88-2.38-.38-3zM11.38-31.94c.94-1.41 3.12.38 2.12 1.63s-3.38.25-2.13-1.63zM17.63-30.44c1.14-.57 2 1.88.75 2.5s-1.75-2-.75-2.5zM55.63-13.06c1.13-.57 2 1.87.74 2.5s-1.74-2-.74-2.5zM27.75-34.44c1.24-.62 2 2.63.88 3.38s-3.13-2.25-.88-3.38zM9.88-38.94c1-1 1.74 1 .74 2.38s-2.5-.63-.74-2.38zM18.38-38.81c.57-.97 1.62 1.62.75 2.37s-2-.25-.75-2.37zM36.63-43.44c.52-.65 1.5 2.13.37 2.75s-1.38-1.5-.38-2.75zM46.25-43.94c.98-.18 2 2.38.5 2.75s-1.88-2.5-.5-2.75zM61.75-50.56c1.89-.24 1.88 3 .38 3.25s-1.38-3.13-.38-3.25zM57.88-57.56c1.27.18 1.5 3.25-.26 3.12s-.62-3.25.26-3.12zM51.63-50.19c.98-.99 2 1.63.74 2.38s-1.62-1.5-.74-2.38zM30.25-46.81c.74-.68 1.63 1.37.63 2.5s-2.13-1.13-.63-2.5zM24.13-43.56c1.47-.98 1.87 2.25 1 2.87s-2.5-1.87-1-2.87zM18.5-47.69c1.17.18 1.5 2 .25 2.75s-1.88-3-.25-2.75zM11.75-46.44c1.03-.72 2 2.75.75 3.5s-2.88-2-.75-3.5zM44.88-50.06c.75-.67 2.37 1.62.62 2.25s-1.63-1.38-.63-2.25zM46.5-57.56c.98-.2 1.75 2 .25 2.37s-1.5-2.12-.25-2.37zM42.5-62.94c1.47-1.32 1 3 .5 2.88s-3.13-.5-.5-2.88zM36.63-60.44c.85-.21 1.24 2.13.24 2.75s-1.24-2.5-.24-2.75zM39.88-52.31c1.6-.32 1.5 1.75.37 2.5s-1.63-2.25-.38-2.5zM33.88-53.56c1.2-.32 1.5 1.37.37 2.25s-2.25-1.75-.38-2.25zM16.88-57.44c1.11.08 1.12 3.13-.25 3.25s-1.63-3.37.25-3.25zM23-53.56c1.66-.56 1.5 2.5.25 2.87s-1-2.62-.25-2.87zM29.75-58.81c1.28.15 1.25 3.25-.25 3.5s-1.88-3.75.25-3.5zM23-62.94c.98-.77 1.88 2.25.63 3.13s-2.38-1.75-.63-3.13z" style="fill:none;stroke:#00aeef;stroke-width:.5"/></svg>