<svg xmlns="http://www.w3.org/2000/svg" xml:space="preserve" width="40" height="40" viewBox="0 -40 40 40"><path d="M0-40h40V0H0z" style="fill:none"/><path d="M7.13-36.45c.56 0 .65.95 0 .94-.6-.01-.59-.94 0-.94zM5.63-36.26c.56 0 .65.94 0 .93-.6 0-.59-.93 0-.93zM4.19-35.45c.56 0 .65.95 0 .94-.6-.01-.58-.94 0-.94zM2.94-34.08c.56 0 .65.95 0 .94-.6 0-.58-.94 0-.94zM1.7-32.06c0-.56.96-.66.95 0-.02.59-.94.58-.94 0zM.7-30.56c0-.56.96-.66.94 0 0 .59-.93.58-.93 0zM4.78-37.3c0-.55.95-.64.94 0-.01.6-.94.59-.94 0zM5.44-38.63c0-.56.95-.65.94 0 0 .6-.94.59-.94 0zM16.95-39.5c0-.56.95-.65.94 0-.01.59-.94.58-.94 0zM15.7-38.2c0-.57.94-.66.93 0 0 .58-.94.57-.94 0zM2.4-39.5c0-.56.94-.65.93 0 0 .59-.94.58-.94 0zM.64-38.63c0-.56.95-.65.94 0-.02.6-.94.59-.94 0zM4.28-33.46c0-.56.95-.65.94 0-.01.6-.94.58-.94 0zM29.77-27.9c0-.5.86-.6.85 0-.02.53-.85.52-.85 0zM28.53-27.06c0-.56.95-.66.94 0-.02.59-.94.58-.94 0zM27.36-25.7c0-.57.95-.66.94 0-.01.58-.94.57-.94 0zM26.45-24.38c0-.56.95-.65.94 0-.01.6-.94.58-.94 0zM4.95-32.2c0-.57.95-.66.94 0-.01.58-.94.57-.94 0zM3.78-29.38c0-.56.95-.65.94 0-.01.6-.94.59-.94 0zM4.89-27.94c0-.56.95-.65.94 0-.01.6-.94.58-.94 0zM3.2-27.7c0-.57.94-.66.93 0 0 .58-.94.57-.94 0zM1.7-27.46c0-.56.94-.65.93 0 0 .6-.94.58-.94 0zM2.87-26.13c0-.56.95-.65.94 0-.02.6-.94.58-.94 0zM4.36-24.46c0-.56.95-.65.94 0-.01.6-.94.58-.94 0zM17.87-38.3c0-.55.95-.64.94 0-.01.6-.94.59-.94 0zM3.49-37.94c0-.56.94-.65.93 0 0 .6-.93.58-.93 0zM4.08-39.38c0-.56.95-.65.94 0-.01.6-.94.59-.94 0zM.92-36.63c0-.56.95-.65.94 0 0 .6-.94.59-.94 0zM1.78-38.04c0-.56.95-.65.94 0-.02.59-.94.58-.94 0zM5.86-34.46c0-.56.95-.65.94 0-.01.6-.94.58-.94 0zM3.28-32.13c0-.56.95-.65.94 0-.01.6-.94.59-.94 0zM4.44-30.8c0-.55.95-.64.94 0 0 .6-.94.59-.94 0zM2.61-30.63c0-.56.95-.65.94 0-.01.6-.94.59-.94 0zM2.03-29.04c0-.56.95-.65.94 0-.02.59-.94.58-.94 0zM4.7-26.2c0-.57.94-.66.93 0 0 .58-.94.57-.94 0zM1.45-25.46c0-.56.95-.65.94 0-.01.6-.94.58-.94 0zM2.87-24.2c0-.57.95-.66.94 0-.02.58-.94.57-.94 0zM1.53-23.63c0-.56.95-.65.94 0 0 .6-.94.58-.94 0zM2.03-21.88c0-.56.95-.65.94 0-.02.6-.94.58-.94 0zM2.61-20.3c0-.55.95-.64.94 0-.01.6-.94.59-.94 0zM3.28-18.7c0-.57.95-.66.94 0-.01.58-.94.57-.94 0zM4.03-17.13c0-.56.95-.65.94 0-.01.6-.94.58-.94 0zM5.2-15.88c0-.55.94-.65.93 0 0 .6-.94.59-.94 0zM6.2-25.54c0-.56.94-.65.93 0 0 .59-.94.58-.94 0zM3.08-36.6c0-.55.94-.64.93 0 0 .6-.93.59-.93 0zM2.02-35.56c0-.56.95-.66.94 0-.01.59-.94.58-.94 0zM.43-33.69c0-.56.95-.65.94 0-.02.6-.94.58-.94 0zM.14-32.06c0-.56.95-.66.94 0 0 .59-.94.58-.94 0zM22.34-9.2c0-.57.95-.66.94 0-.01.58-.94.57-.94 0zM22.63-10.7c0-.57.95-.66.94 0-.01.58-.94.57-.94 0zM23.78-9.04c0-.56.95-.65.94 0-.02.59-.94.58-.94 0zM25.7-8.88c0-.56.94-.65.93 0 0 .6-.94.59-.94 0zM27.2-8.35c0-.56.94-.66.93 0 0 .59-.94.58-.94 0zM29.2-8.19c0-.56.95-.65.94 0-.01.6-.94.58-.94 0zM24.37-11.46c0-.56.95-.65.94 0-.01.6-.94.58-.94 0zM22.87-12.2c0-.57.95-.66.94 0-.01.58-.94.57-.94 0zM24.7-12.88c0-.56.94-.65.93 0 0 .6-.94.59-.94 0zM25.94-14.13c0-.56.95-.65.94 0 0 .6-.94.59-.94 0zM26.36-15.7c0-.57.95-.66.94 0-.01.58-.94.57-.94 0zM26.61-17.46c0-.56.95-.65.94 0-.01.6-.94.58-.94 0zM26.94-19.04c0-.56.95-.65.94 0 0 .59-.94.58-.94 0zM27.2-20.7c0-.57.94-.66.93 0 0 .58-.94.57-.94 0zM27.44-22.38c0-.56.95-.65.94 0 0 .6-.94.58-.94 0zM26.12-22.7c0-.57.95-.66.94 0-.01.58-.94.57-.94 0zM25.62-20.96c0-.56.95-.65.94 0-.01.6-.94.58-.94 0zM25.36-19.38c0-.56.95-.65.94 0-.01.6-.94.58-.94 0zM25.2-17.7c0-.57.94-.66.93 0 0 .58-.94.57-.94 0zM24.7-16.38c0-.56.95-.65.94 0-.01.6-.94.58-.94 0zM24.45-14.63c0-.56.95-.65.94 0-.01.6-.94.59-.94 0zM28.22-24.08c0-.57.94-.66.93 0 0 .59-.93.58-.93 0zM29.81-24.44c0-.56.95-.65.94 0 0 .6-.94.58-.94 0zM31.45-24.8c0-.55.95-.64.94 0-.01.6-.94.59-.94 0zM30.7-26.17c0-.56.94-.65.93 0 0 .6-.94.58-.94 0zM29.18-25.67c0-.56.95-.65.94 0-.01.6-.94.58-.94 0zM31.2-27.54c0-.56.94-.65.93 0 0 .59-.94.58-.94 0zM31.01-28.94c0-.56.95-.65.94 0-.01.6-.94.58-.94 0zM18.53-6.46c0-.56.95-.65.94 0-.02.6-.94.58-.94 0zM20.03-7.13c0-.56.95-.65.94 0-.02.6-.94.58-.94 0zM21.74-7.5c0-.56.95-.65.93 0 0 .6-.93.58-.93 0zM23.28-7.54c0-.56.95-.65.94 0-.02.59-.94.58-.94 0zM25.2-7.54c0-.56.95-.65.94 0-.01.59-.94.58-.94 0zM26.8-7c0-.56.95-.65.94 0-.01.6-.94.58-.94 0zM30.51-6.25c0-.56.95-.65.94 0-.01.6-.94.58-.94 0zM30.95-7.69c0-.56.95-.65.94 0-.01.6-.94.58-.94 0zM28.7-6.81c0-.56.95-.65.94 0-.01.59-.94.58-.94 0zM27.01-5.38c0-.56.95-.65.94 0-.01.6-.94.58-.94 0zM25.39-4.63c0-.56.95-.65.94 0-.01.6-.94.58-.94 0zM25.92-3.46c0-.56.95-.65.94 0 0 .6-.94.58-.94 0zM21.82-5.46c0-.56.95-.65.94 0-.01.6-.94.58-.94 0zM20.2-5.46c0-.56.95-.65.94 0-.01.6-.94.58-.94 0zM20.45-3.84c0-.56.95-.65.94 0-.01.59-.94.58-.94 0zM18.62-4.96c0-.56.95-.65.94 0-.01.6-.94.58-.94 0zM21.4-1.97c0-.56.94-.65.93 0 0 .6-.93.58-.93 0zM23.38-5.73c0-.56.95-.65.94 0-.01.6-.94.58-.94 0zM.13-18.06c0-.56.94-.65.93 0 0 .59-.94.58-.94 0zM.7-16.56c0-.56.96-.65.94 0 0 .59-.93.58-.93 0zM1.58-15.25c0-.56.95-.65.94 0-.01.6-.94.58-.94 0zM2.7-13.94c0-.56.96-.65.94 0 0 .6-.93.58-.93 0zM3.83-12.94c0-.56.95-.65.94 0-.01.6-.94.58-.94 0zM5.08-12.06c0-.56.95-.65.94 0-.01.59-.94.58-.94 0zM3.33-11.19c0-.56.95-.65.94 0-.01.6-.94.58-.94 0zM2.08-12.44c0-.56.95-.65.94 0-.01.6-.94.58-.94 0zM1.15-13.94c0-.56.94-.65.93 0 0 .6-.94.58-.94 0zM.08-15.25c0-.56.95-.65.94 0-.01.6-.94.58-.94 0zM17.03-5.46c0-.56.95-.65.94 0-.02.6-.94.58-.94 0zM19.53-14.38c0-.56.95-.65.94 0-.02.6-.94.59-.94 0zM17.87-13.96c0-.56.95-.65.94 0-.01.6-.94.58-.94 0zM16.37-13.13c0-.56.95-.65.94 0-.01.6-.94.59-.94 0zM14.95-12.3c0-.55.95-.64.94 0-.01.6-.94.59-.94 0zM14.11-13.63c0-.56.95-.65.94 0-.01.6-.94.59-.94 0zM16.62-15.13c0-.56.95-.65.94 0-.01.6-.94.59-.94 0zM18.2-15.38c0-.56.95-.65.94 0-.01.6-.94.59-.94 0zM19.7-16.2c0-.57.95-.66.94 0-.01.58-.94.57-.94 0zM21.28-16.46c0-.56.95-.65.94 0 0 .6-.94.58-.94 0zM15.2-14.54c0-.56.95-.65.94 0-.01.59-.94.58-.94 0zM13.87-11.3c0-.55.95-.64.94 0-.02.6-.94.59-.94 0zM12.78-12.54c0-.56.95-.65.94 0 0 .59-.94.58-.94 0zM12.87-10.46c0-.56.95-.65.94 0-.02.6-.94.58-.94 0zM11.7-11.54c0-.56.94-.65.93 0 0 .59-.94.58-.94 0zM19.2-8.88c0-.56.94-.65.93 0 0 .6-.94.59-.94 0zM20.7-9.2c0-.57.94-.66.93 0 0 .58-.94.57-.94 0zM21.03-14.7c0-.57.95-.66.94 0-.02.58-.94.57-.94 0zM23.2-13.8c0-.55.94-.64.93 0 0 .6-.94.59-.94 0zM31.95-30.54c0-.56.95-.65.94 0-.01.59-.94.58-.94 0zM22.44-15.38c0-.56.95-.65.94 0 0 .6-.94.59-.94 0zM21.37-13.04c0-.56.95-.65.94 0-.01.59-.94.58-.94 0zM19.7-12.63c0-.56.95-.65.94 0-.01.6-.94.59-.94 0zM18.2-12.2c0-.57.95-.66.94 0-.01.58-.94.57-.94 0zM16.94-11.46c0-.56.95-.65.94 0 0 .6-.94.58-.94 0zM15.62-10.54c0-.56.95-.65.94 0-.01.59-.94.58-.94 0zM14.37-9.63c0-.56.95-.65.94 0-.02.6-.94.59-.94 0zM13.28-8.46c0-.56.95-.65.94 0-.02.6-.94.58-.94 0zM12.03-7.46c0-.56.95-.65.94 0 0 .6-.94.58-.94 0zM11.87-9.38c0-.56.95-.65.94 0-.02.6-.94.59-.94 0zM10.53-10.2c0-.57.95-.66.94 0 0 .58-.94.57-.94 0zM10.53-8.7c0-.57.95-.66.94 0-.02.58-.94.57-.94 0zM1.89-10.5c0-.56.95-.65.94 0-.02.6-.94.58-.94 0zM.76-11.69c0-.56.95-.65.94 0-.01.6-.94.58-.94 0zM.13-13c0-.56.94-.65.93 0 0 .6-.94.58-.94 0zM30.62-30.2c0-.57.95-.66.94 0-.01.58-.94.57-.94 0zM29.36-29.46c0-.56.95-.65.94 0-.01.6-.94.58-.94 0zM28.03-28.8c0-.55.95-.64.94 0 0 .6-.94.59-.94 0zM27.2-27.7c0-.57.94-.66.93 0 0 .58-.94.57-.94 0zM25.78-26.7c0-.57.95-.66.94 0 0 .58-.94.57-.94 0zM25.11-25.13c0-.56.95-.65.94 0-.01.6-.94.58-.94 0zM24.86-23.63c0-.56.95-.65.94 0-.01.6-.94.58-.94 0zM24.53-21.88c0-.56.95-.65.94 0-.02.6-.94.58-.94 0zM23.86-20.13c0-.56.95-.65.94 0-.01.6-.94.58-.94 0zM23.61-18.46c0-.56.95-.65.94 0-.01.6-.94.58-.94 0zM23.2-16.96c0-.56.94-.65.93 0 0 .6-.94.58-.94 0zM21.78-17.96c0-.56.95-.65.94 0 0 .6-.94.58-.94 0zM22.53-19.46c0-.56.95-.65.94 0-.02.6-.94.58-.94 0zM22.2-21.13c0-.56.94-.65.93 0 0 .6-.94.58-.94 0zM23.11-22.38c0-.56.95-.65.94 0-.01.6-.94.58-.94 0zM23.28-24.04c0-.56.95-.65.94 0 0 .59-.94.58-.94 0zM23.86-25.88c0-.56.95-.65.94 0-.01.6-.94.58-.94 0zM22.2-26.54c0-.56.94-.65.93 0 0 .59-.94.58-.94 0zM20.53-26.8c0-.55.95-.64.94 0 0 .6-.94.59-.94 0zM19.03-26.38c0-.56.95-.65.94 0 0 .6-.94.58-.94 0zM17.62-25.7c0-.57.95-.66.94 0-.01.58-.94.57-.94 0zM16.45-26.31c0-.56.95-.65.94 0-.01.59-.94.58-.94 0zM15.45-4.54c0-.56.95-.65.94 0-.01.59-.94.58-.94 0zM13.53-38.23c0-.56.95-.65.94 0-.02.6-.94.58-.94 0zM11.78-35.88c0-.56.95-.65.94 0-.02.6-.94.59-.94 0zM6.76-11.44c0-.56.95-.65.94 0-.01.6-.94.58-.94 0zM7.45-10.19c0-.56.95-.65.94 0-.01.6-.94.58-.94 0zM9.01-10c0-.56.95-.65.94 0-.01.6-.94.58-.94 0zM9.08-8.75c0-.56.94-.65.93 0 0 .6-.93.58-.93 0zM7.58-8.63c0-.56.94-.65.93 0 0 .6-.93.59-.93 0zM6.14-8.06c0-.56.95-.65.94 0-.01.59-.94.58-.94 0zM4.64-7.25c0-.56.95-.65.94 0-.01.6-.94.58-.94 0zM3.08-6.31c0-.56.94-.65.93 0 0 .59-.93.58-.93 0zM1.83-5.31c0-.56.94-.65.93 0 0 .59-.93.58-.93 0zM.2-4.56c0-.56.95-.65.94 0-.01.59-.94.58-.94 0zM22.53-30.04c0-.56.95-.65.94 0 0 .59-.94.58-.94 0zM20.78-30.2c0-.57.95-.66.94 0-.02.58-.94.57-.94 0zM19.2-29.96c0-.56.94-.65.93 0 0 .6-.94.58-.94 0zM10.33-7.19c0-.56.94-.65.93 0 0 .6-.93.58-.93 0zM8.83-7.25c0-.56.94-.65.93 0 0 .6-.93.58-.93 0zM7.45-6.81c0-.56.95-.65.94 0-.01.59-.94.58-.94 0zM5.95-6.19c0-.56.95-.65.94 0-.01.6-.94.58-.94 0zM4.39-5.31c0-.56.95-.65.94 0-.01.59-.94.58-.94 0zM2.89-4.31c0-.56.95-.65.94 0-.02.59-.94.58-.94 0zM1.64-3.56c0-.56.95-.65.94 0-.02.59-.94.58-.94 0zM.45-2.75c0-.56.95-.65.94 0-.01.6-.94.58-.94 0zM.08-1.47c0-.56.94-.65.93 0 0 .59-.93.58-.93 0zM1.17-.5c0-.56.95-.65.94 0-.01.6-.94.58-.94 0zM1.76-1.75c0-.56.95-.65.94 0-.01.6-.94.58-.94 0zM3.14-2.81c0-.56.95-.65.94 0-.01.59-.94.58-.94 0zM4.58-3.56c0-.56.94-.65.93 0 0 .59-.93.58-.93 0zM3.36-.81c0-.56.95-.65.94 0-.01.59-.94.58-.94 0zM6.01-4.31c0-.56.95-.65.94 0-.01.59-.94.58-.94 0zM7.51-5.13c0-.56.95-.65.94 0-.01.6-.94.58-.94 0zM9.26-5.94c0-.56.95-.65.94 0-.01.6-.94.58-.94 0zM11.01-5.75c0-.56.95-.65.94 0-.01.6-.94.58-.94 0zM12.51-5.94c0-.56.95-.65.94 0-.01.6-.94.58-.94 0zM13.89-6.88c0-.56.95-.65.94 0-.02.6-.94.58-.94 0zM15.08-7.94c0-.56.94-.65.93 0 0 .6-.93.58-.93 0zM16.26-8.94c0-.56.95-.65.94 0-.01.6-.94.58-.94 0zM17.39-9.88c0-.56.95-.65.94 0-.01.6-.94.59-.94 0zM18.7-10.69c0-.56.95-.65.94 0-.01.6-.94.58-.94 0zM20.08-11c0-.56.94-.65.93 0 0 .6-.93.58-.93 0zM21.39-11.56c0-.56.95-.65.94 0-.01.59-.94.58-.94 0zM6.01-9.69c0-.56.95-.65.94 0-.01.6-.94.58-.94 0zM4.58-8.88c0-.56.94-.65.93 0 0 .6-.93.59-.93 0zM3.14-8.06c0-.56.95-.65.94 0-.01.59-.94.58-.94 0zM1.76-7.13c0-.56.95-.65.94 0-.01.6-.94.58-.94 0zM.2-6.38c0-.56.95-.65.94 0-.01.6-.94.58-.94 0zM14.11-31.46c0-.56.95-.65.94 0-.01.6-.94.58-.94 0zM12.97-32.25c0-.56.94-.65.93 0 0 .59-.93.58-.93 0zM11.42-32.4c0-.56.95-.65.94 0 0 .6-.94.58-.94 0zM9.91-32.96c0-.56.95-.65.94 0-.01.6-.94.58-.94 0zM24.28-29.38c0-.56.95-.65.94 0-.02.6-.94.59-.94 0zM4.83-10.69c0-.56.94-.65.93 0 0 .6-.93.58-.93 0zM3.26-9.81c0-.56.95-.65.94 0-.01.59-.94.58-.94 0zM1.89-9.19c0-.56.95-.65.94 0-.02.6-.94.58-.94 0zM.2-8.38c0-.56.95-.65.94 0-.01.6-.94.59-.94 0zM20.2-31.8c0-.55.94-.64.93 0 0 .6-.94.59-.94 0zM18.78-31.54c0-.56.95-.65.94 0-.02.59-.94.58-.94 0zM17.11-31.38c0-.56.95-.65.94 0-.01.6-.94.59-.94 0zM15.62-31.46c0-.56.95-.65.94 0-.01.6-.94.58-.94 0zM18.58-32.94c0-.56.94-.65.93 0 0 .6-.93.58-.93 0zM16.89-33.25c0-.56.95-.65.94 0-.01.59-.94.58-.94 0zM11.03-34.38c0-.56.95-.65.94 0 0 .6-.94.59-.94 0zM12.45-33.96c0-.56.95-.65.94 0-.01.6-.94.58-.94 0zM13.97-33.33c0-.56.95-.66.94 0-.01.59-.94.58-.94 0zM15.45-33c0-.56.95-.65.94 0-.01.59-.94.58-.94 0zM34.01-4.44c0-.56.95-.65.94 0-.01.6-.94.58-.94 0zM32.33-1.88c0-.56.94-.65.93 0 0 .6-.93.58-.93 0zM33.33-3.06c0-.56.94-.65.93 0 0 .59-.93.58-.93 0zM38.72-9.5c0-.56.95-.65.94 0-.01.6-.94.58-.94 0zM38.88-3c0-.57.95-.66.94 0-.01.58-.94.57-.94 0zM38.05-1.88c0-.56.95-.65.94 0-.01.6-.94.58-.94 0zM37.51-.63c0-.56.95-.65.94 0-.01.6-.94.58-.94 0zM39-.5c0-.57.95-.66.94 0 0 .58-.93.57-.93 0zM38.72-4.44c0-.56.95-.65.94 0-.01.6-.94.58-.94 0zM37.22-3.19c0-.56.95-.65.94 0-.01.6-.94.58-.94 0zM36.16-2.06c0-.56.95-.65.94 0-.01.59-.94.58-.94 0zM34.58-1.88c0-.56.94-.65.93 0 0 .6-.93.58-.93 0zM35.58-.8c0-.57.95-.66.94 0-.01.58-.94.57-.94 0zM38.66-7.81c0-.56.95-.65.94 0-.01.59-.94.58-.94 0zM37.36-7c0-.56.95-.65.94 0-.01.6-.94.58-.94 0zM33.03-5.63c0-.56.95-.65.94 0-.02.6-.94.58-.94 0zM22.88-2.15c0-.56.95-.66.94 0-.01.59-.94.58-.94 0zM22.08-3.94c0-.56.94-.65.93 0 0 .6-.93.58-.93 0zM36.7-4.8c0-.55.95-.64.94 0-.01.6-.94.59-.94 0zM38.27-5.78c0-.56.95-.66.94 0-.01.59-.94.58-.94 0zM35.44-3.44c0-.56.95-.65.94 0 0 .6-.94.58-.94 0zM33.76-.75c0-.56.95-.65.94 0-.01.6-.94.58-.94 0zM37.33-8.69c0-.56.94-.65.93 0 0 .6-.93.58-.93 0zM36.03-6.3c0-.55.95-.64.94 0 0 .6-.94.59-.94 0zM34.95-5.54c0-.56.95-.65.94 0-.01.59-.94.58-.94 0zM35.83-8.25c0-.56.94-.65.93 0 0 .6-.93.58-.93 0zM.14-10.19c0-.56.95-.65.94 0-.02.6-.94.58-.94 0zM.24-35.25c0-.56.94-.65.93 0 0 .59-.93.58-.93 0zM.27-28.69c0-.56.95-.65.94 0-.01.6-.94.58-.94 0zM.08-26.94c0-.56.95-.65.94 0-.01.6-.94.58-.94 0zM.08-25.31c0-.56.95-.65.94 0-.01.59-.94.58-.94 0zM.08-23.81c0-.56.95-.65.94 0-.01.59-.94.58-.94 0zM.33-22.25c0-.56.95-.65.94 0-.01.6-.94.58-.94 0zM.7-20.69c0-.56.96-.65.94 0 0 .6-.93.58-.93 0zM1.2-19.13c0-.56.96-.65.95 0-.02.6-.94.58-.94 0zM1.77-17.75c0-.56.95-.65.94 0-.01.6-.94.58-.94 0zM2.46-16.38c0-.56.95-.65.93 0 0 .6-.93.58-.93 0zM3.55-15.06c0-.56.95-.65.94 0-.01.59-.94.58-.94 0zM4.67-14.13c0-.56.95-.65.94 0 0 .6-.94.59-.94 0zM6.36-12.94c0-.56.95-.65.94 0-.01.6-.94.58-.94 0zM5.33-.63c0-.56.95-.65.94 0-.01.6-.94.58-.94 0zM4.49-1.75c0-.56.94-.65.93 0 0 .6-.93.58-.93 0zM7.2-.5c0-.56.96-.65.94 0 0 .6-.93.58-.93 0zM23.61-33.88c.04-.56 1-.59.94.06-.05.59-.98.51-.94-.06zM24.95-32.55c.03-.56.99-.59.93.06-.05.6-.98.52-.93-.06zM38.67-28.81c0-.56.95-.66.94 0 0 .59-.94.58-.94 0zM38.33-27.13c0-.56.95-.65.94 0-.01.6-.94.59-.94 0zM38.33-25.69c0-.56.95-.65.94 0-.01.6-.94.58-.94 0zM38.33-23.88c0-.56.95-.65.94 0-.01.6-.94.58-.94 0zM38.65-22c0-.56.94-.65.93 0 0 .6-.93.58-.93 0zM39.11-20.19c0-.56.95-.65.94 0-.01.6-.94.58-.94 0zM39.02-17.06c0-.56.95-.65.94 0-.01.59-.94.58-.94 0zM38.27-18.88c0-.56.95-.65.94 0-.01.6-.94.58-.94 0zM37.65-20.88c0-.56.94-.65.93 0 0 .6-.93.58-.93 0zM37.15-22.94c0-.56.94-.65.93 0 0 .6-.93.58-.93 0zM36.9-24.94c0-.56.94-.65.93 0 0 .6-.93.58-.93 0zM37.02-26.88c0-.56.95-.65.94 0-.01.6-.94.58-.94 0zM37.24-28.63c0-.56.94-.65.93 0 0 .6-.93.59-.93 0zM33.95-30.3c0-.55.95-.64.94 0-.01.6-.94.59-.94 0zM32.76-29.31c0-.56.95-.66.94 0-.01.59-.94.58-.94 0zM32.89-27.63c0-.56.95-.65.94 0-.02.6-.94.59-.94 0zM32.33-25.88c0-.56.94-.65.93 0 0 .6-.93.58-.93 0zM32.51-23.63c0-.56.95-.65.94 0-.01.6-.94.58-.94 0zM29.03-22.54c0-.56.95-.65.94 0 0 .59-.94.58-.94 0zM30.7-22.96c0-.56.95-.65.94 0-.01.6-.94.58-.94 0zM32.76-21.81c0-.56.95-.65.94 0-.01.59-.94.58-.94 0zM31.61-20.96c0-.56.95-.65.94 0-.01.6-.94.58-.94 0zM29.95-20.8c0-.55.95-.64.94 0-.01.6-.94.59-.94 0zM28.62-20.63c0-.56.95-.65.94 0-.01.6-.94.58-.94 0zM28.53-18.88c0-.56.95-.65.94 0-.02.6-.94.58-.94 0zM30.36-19.04c0-.56.95-.65.94 0-.01.59-.94.58-.94 0zM31.94-19.54c0-.56.95-.65.94 0 0 .59-.94.58-.94 0zM31.7-17.96c0-.56.95-.65.94 0-.01.6-.94.58-.94 0zM30.78-16.63c0-.56.95-.65.94 0 0 .6-.94.58-.94 0zM29.86-17.8c0-.55.95-.64.94 0-.01.6-.94.59-.94 0zM28.2-17.38c0-.56.94-.65.93 0 0 .6-.94.58-.94 0zM29.28-15.96c0-.56.95-.65.94 0-.02.6-.94.58-.94 0zM27.86-15.63c0-.55.95-.65.94 0-.01.6-.94.59-.94 0zM33.08-20.19c0-.56.94-.65.93 0 0 .6-.93.58-.93 0zM33.45-18.5c0-.56.95-.65.94 0-.01.6-.94.58-.94 0zM36.14-29.88c0-.56.95-.65.94 0-.02.6-.94.59-.94 0zM35.58-28.5c0-.56.94-.65.93 0 0 .59-.93.58-.93 0zM35.58-26.81c0-.56.94-.66.93 0 0 .59-.93.58-.93 0zM35.58-25.19c0-.56.94-.65.93 0 0 .6-.93.58-.93 0zM35.83-23.38c0-.56.94-.65.93 0 0 .6-.93.58-.93 0zM36.08-21.69c0-.56.94-.65.93 0 0 .6-.93.58-.93 0zM36.64-19.88c0-.56.95-.65.94 0-.02.6-.94.58-.94 0zM37.14-18.13c0-.56.95-.65.94 0-.02.6-.94.58-.94 0zM38.01-16.25c0-.56.95-.65.94 0-.01.6-.94.58-.94 0zM38.89-14.63c0-.56.95-.65.94 0-.02.6-.94.59-.94 0zM34.14-28.94c0-.56.95-.65.94 0-.02.6-.94.58-.94 0zM34.2-27.31c0-.56.95-.66.94 0-.01.59-.94.58-.94 0zM33.95-25.88c0-.56.95-.65.94 0-.01.6-.94.58-.94 0zM34.01-24c0-.56.95-.65.94 0-.01.6-.94.58-.94 0zM34.33-22c0-.56.94-.65.93 0 0 .6-.93.58-.93 0zM34.89-20.19c0-.56.95-.65.94 0-.02.6-.94.58-.94 0zM35.39-18.44c0-.56.95-.65.94 0-.02.6-.94.58-.94 0zM36.01-16.75c0-.56.95-.65.94 0-.01.6-.94.58-.94 0zM36.7-15.13c0-.56.95-.65.94 0-.01.6-.94.59-.94 0zM37.7-13.56c0-.56.95-.65.94 0-.01.59-.94.58-.94 0zM37.83-11.06c0-.56.94-.65.93 0 0 .59-.93.58-.93 0zM20.37-33.63c0-.56.95-.65.94 0-.01.6-.94.59-.94 0zM12.7-37.13c0-.56.95-.65.94 0-.01.6-.94.59-.94 0zM16.95-35.19c0-.56.95-.65.94 0-.01.6-.94.58-.94 0zM14.03-36.7c0-.57.95-.66.94 0-.02.58-.94.57-.94 0zM18.7-36.13c0-.56.94-.65.93 0 0 .6-.94.59-.94 0zM14.58-39.44c0-.56.94-.65.93 0 0 .6-.93.58-.93 0zM21.62-31.88c0-.56.95-.65.94 0-.01.6-.94.58-.94 0zM20.28-35.3c0-.55.95-.64.94 0 0 .6-.94.59-.94 0zM22.03-35.04c0-.56.95-.65.94 0-.02.59-.94.58-.94 0zM19.05-39.38c0-.56.95-.65.94 0-.01.6-.94.59-.94 0zM20.39-38.81c0-.56.95-.66.94 0-.01.59-.94.58-.94 0zM21.58-37.88c0-.56.94-.65.93 0 0 .6-.93.59-.93 0zM22.78-36.63c0-.56.95-.65.94 0-.02.6-.94.59-.94 0zM23.61-35.63c0-.56.95-.65.94 0-.01.6-.94.59-.94 0zM24.86-34.7c0-.57.95-.66.94 0-.01.58-.94.57-.94 0zM25.99-33.88c0-.56.95-.65.93 0 0 .6-.93.59-.93 0zM27.11-33c0-.56.95-.65.94 0-.01.59-.94.58-.94 0zM28.55-32.31c0-.56.95-.66.94 0-.01.59-.94.58-.94 0zM29.78-31.38c0-.56.95-.65.94 0 0 .6-.94.59-.94 0zM30.45-32.7c0-.57.95-.66.94 0-.01.58-.94.57-.94 0zM31.37-33.88c0-.56.95-.65.93 0 0 .6-.93.59-.93 0zM28.2-30.56c0-.56.95-.66.94 0-.01.59-.94.58-.94 0zM26.7-29.56c0-.56.95-.66.94 0-.01.59-.94.58-.94 0zM25.7-28.5c0-.56.95-.65.94 0-.01.59-.94.58-.94 0zM12.3-39.06c0-.56.95-.66.94 0-.01.59-.94.58-.94 0zM11.36-37.75c0-.56.95-.65.94 0-.01.59-.94.58-.94 0zM10.42-36.25c0-.56.95-.65.94 0 0 .59-.94.58-.94 0zM9.4-34.94c0-.56.94-.65.93 0-.01.6-.94.58-.94 0zM8.61-33.63c0-.56.95-.65.94 0-.01.6-.94.59-.94 0zM7.95-32.25c0-.56.95-.65.94 0-.01.59-.94.58-.94 0zM9.33-31.56c0-.56.94-.66.93 0 0 .59-.93.58-.93 0zM8.95-29.96c0-.56.95-.65.94 0-.01.6-.94.58-.94 0zM12.33-30.88c0-.56.94-.65.93 0 0 .6-.93.59-.93 0zM10.71-30.9c0-.56.95-.65.94 0 0 .6-.94.58-.94 0zM17.7-29.8c0-.55.94-.64.93 0 0 .6-.94.59-.94 0zM16.12-29.38c0-.56.95-.65.94 0-.01.6-.94.59-.94 0zM14.72-30.06c0-.56.95-.66.94 0-.01.59-.94.58-.94 0zM13.11-29.46c0-.56.95-.65.94 0-.01.6-.94.58-.94 0zM11.62-29.13c0-.56.95-.65.94 0-.02.6-.94.59-.94 0zM9.95-29.2c0-.57.95-.66.94 0-.01.58-.94.57-.94 0zM7.61-30.69c0-.56.95-.65.94 0-.01.6-.94.58-.94 0zM7.74-28.94c0-.56.94-.65.93 0 0 .6-.93.58-.93 0zM8.8-27.88c0-.56.95-.65.94 0-.01.6-.94.59-.94 0zM10.17-27c0-.56.95-.65.94 0 0 .59-.94.58-.94 0zM11.61-27.8c0-.55.95-.64.94 0-.01.6-.94.59-.94 0zM13.2-27.63c0-.56.94-.65.93 0 0 .6-.94.59-.94 0zM14.94-28.54c0-.56.95-.65.94 0 0 .59-.94.58-.94 0zM24.28-27.3c0-.55.95-.64.94 0 0 .6-.94.59-.94 0zM23.07-28.04c0-.56.95-.65.94 0-.02.59-.94.58-.94 0zM21.61-28.38c0-.56.95-.65.94 0-.01.6-.94.59-.94 0zM19.7-28.38c0-.56.95-.65.94 0-.01.6-.94.59-.94 0zM18.2-28.13c0-.56.95-.65.94 0-.01.6-.94.59-.94 0zM16.92-27.94c0-.56.95-.65.94 0 0 .6-.94.58-.94 0zM15.53-27.2c0-.57.95-.66.94 0 0 .58-.94.57-.94 0zM14.36-26.54c0-.56.95-.65.94 0-.01.59-.94.58-.94 0zM13.03-25.54c0-.56.95-.65.94 0 0 .59-.94.58-.94 0zM11.67-25.81c0-.56.95-.65.94 0 0 .59-.94.58-.94 0zM26.44-31.54c0-.56.95-.65.94 0 0 .59-.94.58-.94 0zM21.87-33.54c0-.56.95-.65.94 0-.01.59-.94.58-.94 0zM25.12-30.54c0-.56.95-.65.94 0-.01.59-.94.58-.94 0zM23.53-31.7c0-.57.95-.66.94 0-.02.58-.94.57-.94 0zM18.53-34.63c0-.56.95-.65.94 0-.02.6-.94.59-.94 0zM15.2-34.73c0-.56.95-.65.94 0-.01.6-.94.58-.94 0zM13.58-35.19c0-.56.94-.65.93 0 0 .6-.93.58-.93 0zM17.14-36.81c0-.56.95-.66.94 0-.01.59-.94.58-.94 0zM10.6-39.38c0-.56.95-.65.94 0 0 .6-.93.59-.93 0zM9.7-38.13c0-.56.95-.65.94 0-.01.6-.94.59-.94 0zM15.51-36.5c0-.56.95-.65.94 0-.01.59-.94.58-.94 0zM21.03-36.54c0-.56.95-.65.94 0-.02.59-.94.58-.94 0zM19.54-37.52c0-.56.95-.65.94 0-.01.59-.94.58-.94 0zM8.33-39.06c0-.56.94-.66.93 0 0 .59-.93.58-.93 0zM7.7-37.69c0-.56.95-.65.94 0-.01.6-.94.58-.94 0zM6.74-39.13c0-.56.94-.65.93 0 0 .6-.93.59-.93 0zM6.33-37.56c0-.56.94-.66.93 0 0 .59-.93.58-.93 0zM8.58-36.44c0-.56.94-.65.93 0 0 .6-.93.58-.93 0zM7.58-34.63c0-.56.94-.65.93 0 0 .6-.93.59-.93 0zM6.7-33c0-.56.95-.65.94 0 0 .59-.93.58-.93 0zM6.2-30.88c0-.56.95-.65.94 0-.01.6-.94.59-.94 0zM6.01-28.94c0-.56.95-.65.94 0-.01.6-.94.58-.94 0zM7.53-27.3c0-.55.95-.64.94 0-.02.6-.94.59-.94 0zM6.05-27c0-.56.95-.65.93 0 0 .59-.93.58-.93 0zM8.62-26.13c0-.56.95-.65.94 0-.02.6-.94.58-.94 0zM7.45-24.96c0-.56.95-.65.94 0-.01.6-.94.58-.94 0zM5.94-24.13c0-.56.95-.65.94 0 0 .6-.94.58-.94 0zM7.32-23.5c0-.56.95-.65.94 0-.01.6-.94.58-.94 0zM6.74-22c0-.56.94-.65.93 0 0 .6-.93.58-.93 0zM5.11-22.5c0-.56.95-.65.94 0-.01.6-.94.58-.94 0zM3.36-22.81c0-.56.95-.65.94 0-.01.59-.94.58-.94 0zM3.86-21.19c0-.56.95-.65.94 0-.01.6-.94.58-.94 0zM5.42-20.94c0-.56.95-.65.94 0 0 .6-.94.58-.94 0zM6.11-19.5c0-.56.95-.65.94 0-.01.6-.94.58-.94 0zM4.36-19.56c0-.56.95-.65.94 0-.01.59-.94.58-.94 0zM5.42-17.81c0-.56.95-.65.94 0 0 .59-.94.58-.94 0zM7.86-13.25c0-.56.95-.65.94 0-.01.6-.94.58-.94 0zM8.14-11.69c0-.56.95-.65.94 0-.02.6-.94.58-.94 0zM9.58-11.69c0-.56.94-.65.93 0 0 .6-.93.58-.93 0zM10.95-12.88c0-.56.95-.65.94 0-.01.6-.94.59-.94 0zM12.2-14c0-.56.95-.65.94 0-.01.6-.94.58-.94 0zM13.33-15c0-.56.94-.65.93 0 0 .6-.93.58-.93 0zM14.51-16c0-.56.95-.65.94 0-.01.6-.94.58-.94 0zM15.76-17.19c0-.56.95-.65.94 0-.01.6-.94.58-.94 0zM16.83-18.38c0-.56.94-.65.93 0 0 .6-.93.58-.93 0zM18.01-19.38c0-.56.95-.65.94 0-.01.6-.94.58-.94 0zM19.51-19.94c0-.56.95-.65.94 0-.01.6-.94.58-.94 0zM21.2-19.81c0-.56.95-.65.94 0-.01.59-.94.58-.94 0zM20.08-18.06c0-.56.94-.65.93 0 0 .59-.93.58-.93 0zM18.64-17.44c0-.56.95-.65.94 0-.01.6-.94.58-.94 0zM17.33-16.63c0-.56.94-.65.93 0 0 .6-.93.58-.93 0zM8.94-24.3c0-.55.95-.64.94 0 0 .6-.94.59-.94 0zM11.86-24.44c0-.56.95-.65.94 0-.01.6-.94.58-.94 0zM10.49-23.56c0-.56.95-.65.93 0 0 .59-.93.58-.93 0zM9.99-21.69c0-.56.95-.65.93 0 0 .6-.93.58-.93 0zM9.61-20.25c0-.56.95-.65.94 0-.01.6-.94.58-.94 0zM8.49-18.88c0-.56.95-.65.93 0 0 .6-.93.58-.93 0zM8.11-16.88c0-.56.95-.65.94 0-.01.6-.94.58-.94 0zM9.42-17.63c0-.56.95-.65.94 0 0 .6-.94.58-.94 0zM10.42-18.88c0-.56.95-.65.94 0 0 .6-.94.58-.94 0zM11.11-20.19c0-.56.95-.65.94 0-.01.6-.94.58-.94 0zM12.8-20.88c0-.56.95-.65.94 0-.01.6-.94.58-.94 0zM14.26-21.63c0-.56.95-.65.94 0-.01.6-.94.58-.94 0zM15.08-23.19c0-.56.94-.65.93 0 0 .6-.93.58-.93 0zM16.26-24.44c0-.56.95-.65.94 0-.01.6-.94.58-.94 0zM21.95-24.75c0-.56.95-.65.94 0-.01.6-.94.58-.94 0zM20.37-24.96c0-.56.95-.65.94 0-.01.6-.94.58-.94 0zM21.64-22.94c0-.56.95-.65.94 0-.01.6-.94.58-.94 0zM19.11-24.46c0-.56.95-.65.94 0-.01.6-.94.58-.94 0zM19.95-23.13c0-.56.95-.65.94 0-.01.6-.94.58-.94 0zM20.76-21.69c0-.56.95-.65.94 0-.01.6-.94.58-.94 0zM19.08-21.5c0-.56.94-.65.93 0 0 .6-.93.58-.93 0zM17.58-20.94c0-.56.94-.65.93 0 0 .6-.93.58-.93 0zM16.26-20c0-.56.95-.65.94 0-.01.6-.94.58-.94 0zM15.14-19c0-.56.95-.65.94 0-.01.6-.94.58-.94 0zM14.08-17.88c0-.56.94-.65.93 0 0 .6-.93.58-.93 0zM13.08-16.69c0-.56.94-.65.93 0 0 .6-.93.58-.93 0zM11.7-15.75c0-.56.95-.65.94 0-.01.6-.94.58-.94 0zM10.7-14.44c0-.56.95-.65.94 0-.01.6-.94.58-.94 0zM9.33-13.56c0-.56.94-.65.93 0 0 .59-.93.58-.93 0zM8.2-15c0-.56.95-.65.94 0-.01.6-.94.58-.94 0zM9.58-15.69c0-.56.94-.65.93 0 0 .6-.93.58-.93 0zM10.7-16.75c0-.56.95-.65.94 0-.01.6-.94.58-.94 0zM11.76-18c0-.56.95-.65.94 0-.01.6-.94.58-.94 0zM12.7-19.06c0-.56.95-.65.94 0-.01.59-.94.58-.94 0zM14.08-20.06c0-.56.94-.65.93 0 0 .59-.93.58-.93 0zM15.76-21.19c0-.56.95-.65.94 0-.01.6-.94.58-.94 0zM18.26-22.88c0-.56.95-.65.94 0-.01.6-.94.58-.94 0zM16.64-22.75c0-.56.95-.65.94 0-.01.6-.94.58-.94 0zM17.73-24.19c0-.56.95-.65.94 0 0 .6-.94.58-.94 0zM12.86-22.75c0-.56.95-.65.94 0-.01.6-.94.58-.94 0zM13.92-24.06c0-.56.95-.65.94 0 0 .59-.94.58-.94 0zM15.14-25.25c0-.56.95-.65.94 0-.01.6-.94.58-.94 0zM11.49-22.13c0-.56.95-.65.93 0 0 .6-.93.58-.93 0zM8.61-22.8c0-.55.95-.64.94 0-.01.6-.94.59-.94 0zM8.03-21.38c0-.56.95-.65.94 0 0 .6-.94.58-.94 0zM7.44-20.13c0-.56.95-.65.94 0 0 .6-.94.58-.94 0zM7.03-18.3c0-.55.95-.64.94 0-.01.6-.94.59-.94 0zM6.53-16.63c0-.56.95-.65.94 0-.01.6-.94.58-.94 0zM6.44-15.04c0-.56.95-.65.94 0 0 .59-.94.58-.94 0zM10.17-25.19c0-.56.95-.65.94 0 0 .6-.94.58-.94 0zM6.83-1.81c0-.56.95-.65.94 0-.01.59-.94.58-.94 0zM9.08-2.81c0-.56.95-.65.94 0-.01.59-.94.58-.94 0zM11.64-3.81c0-.56.95-.65.94 0 0 .59-.94.58-.94 0zM10.2-4.13c0-.56.96-.65.95 0-.02.6-.94.58-.94 0zM8.7-4.44c0-.56.96-.65.95 0-.02.6-.94.58-.94 0zM7.4-3.38c0-.56.94-.65.93 0 0 .6-.94.58-.94 0zM5.77-2.63c0-.56.95-.65.94 0-.01.6-.94.58-.94 0zM13.08-4.19c0-.56.95-.65.94 0-.01.6-.94.58-.94 0zM14.02-5.25c0-.56.95-.65.94 0-.01.6-.94.58-.94 0zM15.3-6.13c0-.56.95-.65.94 0-.01.6-.94.58-.94 0zM16.67-7.19c0-.56.95-.65.94 0 0 .6-.94.58-.94 0zM17.76-7.94c0-.56.95-.65.94 0-.01.6-.94.58-.94 0z" style="fill:#ae6219"/><path d="M7.2-.5c0-.56.96-.65.94 0 0 .6-.93.58-.93 0zM20.92-.47c0-.56.95-.65.94 0-.02.6-.94.58-.94 0zM18.74-2.69c0-.56.95-.65.93 0 0 .6-.93.58-.93 0zM23.39-.53c0-.56.95-.65.93 0 0 .6-.93.58-.93 0zM19.76-1.44c0-.56.95-.65.94 0-.01.6-.94.58-.94 0zM17.83-3.81c0-.56.94-.65.93 0 0 .59-.93.58-.93 0zM16.33-3.13c0-.56.94-.65.93 0 0 .6-.93.58-.93 0zM14.45-3.06c0-.56.95-.65.94 0-.01.59-.94.58-.94 0zM12.74-2.31c0-.56.95-.65.93 0 0 .59-.93.58-.93 0zM11.64-.94c0-.56.95-.65.94 0-.02.6-.94.58-.94 0zM10.89-2.38c0-.56.95-.65.94 0-.02.6-.94.58-.94 0zM8.58-1.56c0-.56.94-.65.93 0 0 .59-.93.58-.93 0zM9.7-.48c0-.56.96-.65.95 0-.01.6-.94.58-.94 0zM31.33-.63c0-.56.94-.65.93 0 0 .6-.93.58-.93 0zM30.99-2.94c0-.56.95-.65.93 0 0 .6-.93.58-.93 0zM30.2-1.63c0-.56.95-.65.94 0-.01.6-.94.58-.94 0zM29.7-4.19c0-.56.95-.65.94 0-.01.6-.94.58-.94 0zM28.76-5.38c0-.56.95-.65.94 0-.01.6-.94.58-.94 0zM28.61-.75c0-.56.95-.65.94 0-.01.6-.94.58-.94 0zM34.03-12.63c0-.56.95-.65.94 0 0 .6-.94.59-.94 0zM32.12-13.54c0-.56.95-.65.94 0-.02.59-.94.58-.94 0zM30.78-12.96c0-.56.95-.65.94 0 0 .6-.94.58-.94 0zM27.95-11.8c0-.55.95-.64.94 0-.01.6-.94.59-.94 0zM29.03-12.63c0-.56.95-.65.94 0 0 .6-.94.59-.94 0zM26.95-10.38c0-.56.95-.65.94 0-.01.6-.94.59-.94 0zM32.08-8.5c0-.56.94-.65.93 0 0 .6-.93.58-.93 0zM33.55-10.88c0-.56.95-.65.94 0-.01.6-.94.59-.94 0zM31.76-10.13c0-.56.95-.65.94 0-.01.6-.94.59-.94 0zM30.26-9.38c0-.56.95-.65.94 0-.01.6-.94.59-.94 0zM29.08-10.56c0-.56.94-.65.93 0 0 .59-.93.58-.93 0zM27.92-9.56c0-.56.95-.65.94 0 0 .59-.94.58-.94 0zM30.46-11.38c0-.56.95-.65.94 0-.01.6-.94.59-.94 0zM32.2-11.81c0-.56.95-.65.94 0-.01.59-.94.58-.94 0zM30.37-14.88c0-.56.95-.65.94 0-.01.6-.94.59-.94 0zM29.28-14.38c0-.56.95-.65.94 0-.02.6-.94.59-.94 0zM27.61-14.04c0-.56.95-.65.94 0-.01.59-.94.58-.94 0zM26.53-12.88c0-.56.95-.65.94 0 0 .6-.94.59-.94 0zM25.95-11.63c0-.56.95-.65.94 0-.01.6-.94.59-.94 0zM25.2-10.13c0-.56.95-.65.94 0-.01.6-.94.59-.94 0zM35.7-13.7c0-.57.94-.66.93 0 0 .58-.94.57-.94 0zM33.78-14.38c0-.56.95-.65.94 0 0 .6-.94.59-.94 0zM32.2-15.46c0-.56.94-.65.93 0 0 .6-.94.58-.94 0zM33.11-16.88c0-.56.95-.65.94 0-.01.6-.94.58-.94 0zM34.78-17.3c0-.55.95-.64.94 0-.02.6-.94.59-.94 0zM34.61-15.88c0-.55.95-.65.94 0-.01.6-.94.59-.94 0zM36.97-12.23c0-.56.94-.65.93 0 0 .6-.93.58-.93 0zM38.89-12c0-.56.95-.65.94 0-.02.6-.94.58-.94 0zM35.08-11.06c0-.56.94-.65.93 0 0 .59-.93.58-.93 0zM35.62-12.3c0-.55.95-.64.94 0-.02.6-.94.59-.94 0zM36.62-10.31c0-.56.95-.65.94 0-.02.59-.94.58-.94 0zM33.58-9.13c0-.56.94-.65.93 0 0 .6-.93.59-.93 0zM32.14-3.94c0-.56.95-.65.94 0-.02.6-.94.58-.94 0zM31.08-5.13c0-.56.94-.65.93 0 0 .6-.93.58-.93 0zM35.24-9.56c0-.56.94-.65.93 0 0 .59-.93.58-.93 0zM27.11-2.13c0-.56.95-.65.94 0-.01.6-.94.58-.94 0zM34.39-7.63c0-.56.95-.65.94 0-.02.6-.94.58-.94 0zM32.62-7.04c0-.56.95-.65.94 0-.02.59-.94.58-.94 0zM15.89-.56c0-.56.95-.65.94 0-.01.59-.94.58-.94 0zM13.45-.47c0-.56.95-.65.94 0-.01.6-.94.58-.94 0zM15.01-1.56c0-.56.95-.65.94 0-.01.59-.94.58-.94 0zM16.83-1.75c0-.56.94-.65.93 0 0 .6-.93.58-.93 0zM18.2-.81c0-.56.95-.65.94 0-.01.59-.94.58-.94 0zM28.86-2.75c0-.56.95-.65.94 0-.01.6-.94.58-.94 0zM25.99-.64c.04-.56.99-.58.93.07-.05.59-.97.51-.93-.07zM24.86-1.96c.04-.56 1-.58.94.06-.05.6-.98.52-.94-.06zM25.01-6c0-.56.95-.65.94 0-.01.6-.94.58-.94 0zM24.05-3.72c0-.56.95-.65.93 0 0 .6-.93.58-.93 0zM27.8-3.94c0-.56.94-.65.93 0-.01.6-.94.58-.94 0zM39.02-36.63c0-.56.95-.65.94 0-.01.6-.94.59-.94 0zM35.01-37.94c0-.56.95-.65.94 0-.01.6-.94.58-.94 0zM37.26-36.56c0-.56.95-.66.94 0-.01.59-.94.58-.94 0zM37.08-37.81c0-.56.94-.66.93 0 0 .59-.93.58-.93 0zM34.45-35.06c.04-.56 1-.58.94.07-.05.59-.98.51-.94-.07zM35.33-36.56c.04-.56.99-.58.93.07-.05.59-.97.51-.93-.07zM29.74-38.26c.04-.56.99-.58.93.07-.05.59-.97.5-.93-.07zM33.45-36.43c.04-.56 1-.59.94.06-.05.6-.98.52-.94-.06zM39.08-30.56c0-.56.95-.66.94 0-.01.59-.94.58-.94 0zM37.42-30.81c0-.56.95-.66.94 0 0 .59-.94.58-.94 0zM38.3-32.13c0-.56.95-.65.94 0-.01.6-.94.59-.94 0zM38.67-33.81c0-.56.95-.66.94 0 0 .59-.94.58-.94 0zM34.76-32.69c0-.56.95-.65.94 0-.01.6-.94.58-.94 0zM36.64-32.25c0-.56.95-.65.94 0-.02.59-.94.58-.94 0zM37.08-33.88c0-.56.94-.65.93 0 0 .6-.93.59-.93 0zM36.3-35.06c0-.56.95-.66.94 0-.01.59-.94.58-.94 0zM35.39-31.25c0-.56.95-.65.94 0-.02.59-.94.58-.94 0zM38.9-38.44c0-.56.94-.65.93 0 0 .6-.93.58-.93 0zM37.17-39.19c0-.56.95-.65.94 0 0 .6-.94.58-.94 0zM35.2-39.38c0-.56.95-.65.94 0-.01.6-.94.59-.94 0zM33.11-39.25c0-.56.95-.65.94 0-.01.59-.94.58-.94 0zM37.92-35.22c0-.56.95-.65.94 0 0 .6-.94.58-.94 0zM35.33-33.88c0-.56.94-.65.93 0 0 .6-.93.59-.93 0zM31.86-35.94c0-.56.95-.65.94 0-.01.6-.94.58-.94 0zM33.52-33.44c0-.56.95-.65.94 0-.01.6-.94.58-.94 0zM32.7-34.54c0-.56.95-.65.94 0-.01.59-.94.58-.94 0zM32.03-31.96c0-.56.95-.65.94 0 0 .6-.94.58-.94 0zM29.28-33.63c0-.56.95-.65.94 0 0 .6-.94.59-.94 0zM27.95-34.46c0-.56.95-.65.94 0-.01.6-.94.58-.94 0zM26.45-35.46c0-.56.95-.65.94 0-.01.6-.94.58-.94 0zM24.78-36.8c0-.55.95-.64.94 0-.02.6-.94.59-.94 0zM23.2-38.3c0-.55.94-.64.93 0 0 .6-.94.59-.94 0zM22.08-39.38c0-.56.94-.65.93 0 0 .6-.93.59-.93 0zM33.7-31.63c0-.56.94-.65.93 0 0 .6-.94.58-.94 0zM30.2-35.13c0-.56.95-.65.94 0-.01.6-.94.59-.94 0zM28.53-35.88c0-.56.95-.65.94 0 0 .6-.94.59-.94 0zM27.03-36.88c0-.56.95-.65.94 0-.02.6-.94.59-.94 0zM25.86-38.16c0-.56.95-.65.94 0-.01.6-.94.58-.94 0zM24.55-39.4c0-.57.95-.66.93 0 0 .58-.93.57-.93 0zM28.11-37.84c0-.56.95-.65.94 0-.01.59-.94.58-.94 0zM29.98-36.6c0-.55.95-.64.94 0 0 .6-.94.59-.94 0zM27.11-39.31c0-.56.95-.66.94 0 0 .59-.94.58-.94 0zM33.2-38c0-.56.95-.65.94 0-.01.59-.94.58-.94 0zM31.52-37.56c0-.56.95-.66.94 0-.01.59-.94.58-.94 0zM30.36-39.38c0-.56.95-.65.94 0-.01.6-.94.59-.94 0z" style="fill:#ae6219"/></svg>