<svg xmlns="http://www.w3.org/2000/svg" xml:space="preserve" width="40" height="40" viewBox="1 -41.13 40 40"><path d="M1-41.13h40v40H1z" style="fill:none"/><path d="M8.13-37.58c.56 0 .65.95 0 .94-.6 0-.59-.94 0-.94zM6.63-37.39c.56 0 .65.95 0 .94-.6-.01-.59-.94 0-.94zM5.19-36.58c.56 0 .65.95 0 .94-.6 0-.58-.94 0-.94zM3.94-35.2c.56 0 .65.95 0 .94-.6-.01-.58-.94 0-.94zM2.7-33.19c0-.56.96-.65.94 0 0 .6-.93.58-.93 0zM1.7-31.69c0-.56.96-.65.95 0-.02.6-.94.58-.94 0zM5.78-38.42c0-.56.95-.65.94 0-.01.6-.94.59-.94 0zM6.45-39.75c0-.56.94-.65.93 0 0 .6-.93.58-.93 0zM17.95-40.63c0-.56.95-.65.94 0-.01.6-.94.59-.94 0zM16.7-39.33c0-.56.94-.66.93 0 0 .59-.93.58-.93 0zM3.4-40.63c0-.56.94-.65.93 0 0 .6-.94.59-.94 0zM1.64-39.75c0-.56.95-.65.94 0-.01.6-.94.58-.94 0zM5.28-34.58c0-.56.95-.66.93 0 0 .59-.93.58-.93 0zM30.77-29.03c0-.5.86-.58.85 0-.01.53-.85.52-.85 0zM29.53-28.19c0-.56.95-.65.93 0 0 .6-.93.58-.93 0zM28.36-26.83c0-.56.95-.66.94 0-.01.59-.94.58-.94 0zM27.45-25.5c0-.56.95-.65.94 0-.01.6-.94.58-.94 0zM5.95-33.33c0-.56.95-.66.94 0-.01.59-.94.58-.94 0zM4.78-30.5c0-.56.95-.65.94 0-.01.6-.94.58-.94 0zM5.89-29.06c0-.56.95-.65.94 0-.01.59-.94.58-.94 0zM4.2-28.83c0-.56.94-.66.93 0 0 .59-.93.58-.93 0zM2.7-28.58c0-.56.94-.66.93 0 0 .59-.94.58-.94 0zM3.87-27.25c0-.56.95-.65.94 0-.01.6-.94.58-.94 0zM5.36-25.58c0-.56.95-.66.94 0-.01.59-.94.58-.94 0zM18.87-39.42c0-.56.95-.65.94 0-.01.6-.94.59-.94 0zM4.49-39.06c0-.56.94-.65.93 0 0 .59-.93.58-.93 0zM5.08-40.5c0-.56.95-.65.94 0-.01.6-.94.58-.94 0zM1.92-37.75c0-.56.95-.65.94 0 0 .6-.94.58-.94 0zM2.78-39.17c0-.56.95-.65.94 0-.02.6-.94.59-.94 0zM6.86-35.58c0-.56.95-.66.94 0-.01.59-.94.58-.94 0zM4.28-33.25c0-.56.95-.65.93 0 0 .6-.93.58-.93 0zM5.45-31.92c0-.56.94-.65.93 0 0 .6-.93.59-.93 0zM3.61-31.75c0-.56.95-.65.94 0-.01.6-.94.58-.94 0zM3.03-30.17c0-.56.95-.65.94 0-.02.6-.94.59-.94 0zM5.7-27.33c0-.56.94-.66.93 0 0 .59-.93.58-.93 0zM2.45-26.58c0-.56.95-.66.94 0-.01.59-.94.58-.94 0zM3.87-25.33c0-.56.95-.66.94 0-.01.59-.94.58-.94 0zM2.53-24.75c0-.56.95-.65.94 0 0 .6-.94.58-.94 0zM3.03-23c0-.56.95-.65.94 0-.02.6-.94.58-.94 0zM3.61-21.42c0-.56.95-.65.94 0-.01.6-.94.59-.94 0zM4.28-19.83c0-.56.95-.66.93 0 0 .59-.93.58-.93 0zM5.03-18.25c0-.56.95-.65.93 0 0 .6-.93.58-.93 0zM6.2-17c0-.56.94-.65.93 0 0 .6-.93.58-.93 0zM7.2-26.67c0-.56.94-.65.93 0 0 .6-.94.59-.94 0zM4.08-37.72c0-.56.94-.65.93 0 0 .6-.93.59-.93 0zM3.02-36.69c0-.56.95-.65.94 0-.01.6-.94.58-.94 0zM1.43-34.81c0-.56.95-.65.94 0-.02.59-.94.58-.94 0zM1.15-33.19c0-.56.94-.65.93 0 0 .6-.94.58-.94 0zM23.34-10.33c0-.56.95-.66.94 0-.01.59-.94.58-.94 0zM23.63-11.83c0-.56.95-.66.94 0-.01.59-.94.58-.94 0zM24.78-10.17c0-.56.95-.65.94 0-.02.6-.94.58-.94 0zM26.7-10c0-.56.94-.65.93 0 0 .6-.93.58-.93 0zM28.2-9.48c0-.56.94-.65.93 0 0 .6-.93.58-.93 0zM30.2-9.31c0-.56.95-.65.94 0-.01.59-.94.58-.94 0zM25.37-12.58c0-.56.95-.66.93 0 0 .59-.93.58-.93 0zM23.87-13.33c0-.56.95-.66.94 0-.01.59-.94.58-.94 0zM25.7-14c0-.56.94-.65.93 0 0 .6-.93.58-.93 0zM26.95-15.25c0-.56.94-.65.93 0 0 .6-.93.58-.93 0zM27.36-16.83c0-.56.95-.66.94 0-.01.59-.94.58-.94 0zM27.61-18.58c0-.56.95-.66.94 0-.01.59-.94.58-.94 0zM27.95-20.17c0-.56.94-.65.93 0 0 .6-.93.59-.93 0zM28.2-21.83c0-.56.94-.66.93 0 0 .59-.93.58-.93 0zM28.45-23.5c0-.56.94-.65.93 0 0 .6-.93.58-.93 0zM27.12-23.83c0-.56.95-.66.93 0 0 .59-.93.58-.93 0zM26.62-22.08c0-.56.95-.66.93 0 0 .59-.93.58-.93 0zM26.36-20.5c0-.56.95-.65.94 0-.01.6-.94.58-.94 0zM26.2-18.83c0-.56.94-.66.93 0 0 .59-.93.58-.93 0zM25.7-17.5c0-.56.95-.65.94 0-.01.6-.94.58-.94 0zM25.45-15.75c0-.56.95-.65.94 0-.01.6-.94.58-.94 0zM29.22-25.2c0-.57.95-.66.93 0 0 .58-.93.57-.93 0zM30.81-25.56c0-.56.95-.65.94 0 0 .59-.94.58-.94 0zM32.45-25.92c0-.56.95-.65.94 0-.01.6-.94.59-.94 0zM31.7-27.3c0-.55.94-.64.93 0 0 .6-.94.59-.94 0zM30.18-26.8c0-.55.95-.64.94 0-.01.6-.94.59-.94 0zM32.2-28.67c0-.56.94-.65.93 0 0 .6-.94.59-.94 0zM32.01-30.06c0-.56.95-.65.94 0 0 .59-.94.58-.94 0zM19.53-7.58c0-.56.95-.66.93 0 0 .59-.93.58-.93 0zM21.03-8.25c0-.56.95-.65.93 0 0 .6-.93.58-.93 0zM22.74-8.63c0-.56.95-.65.93 0 0 .6-.93.59-.93 0zM24.28-8.67c0-.56.95-.65.93 0 0 .6-.93.58-.93 0zM26.2-8.67c0-.56.95-.65.94 0-.01.6-.94.58-.94 0zM27.8-8.13c0-.56.95-.65.94 0-.01.6-.94.59-.94 0zM31.51-7.37c0-.56.95-.66.94 0 0 .59-.94.58-.94 0zM31.95-8.81c0-.56.95-.65.94 0-.01.59-.94.58-.94 0zM29.7-7.94c0-.56.95-.65.94 0-.01.6-.94.58-.94 0zM28.01-6.5c0-.56.95-.65.94 0 0 .6-.94.58-.94 0zM26.39-5.75c0-.56.95-.65.94 0-.01.6-.94.58-.94 0zM26.92-4.58c0-.56.95-.66.94 0 0 .59-.94.58-.94 0zM22.82-6.58c0-.56.95-.66.94 0-.01.59-.94.58-.94 0zM21.2-6.58c0-.56.95-.66.94 0-.01.59-.94.58-.94 0zM21.45-4.97c0-.56.95-.65.94 0-.01.6-.94.58-.94 0zM19.62-6.08c0-.56.95-.66.93 0 0 .59-.93.58-.93 0zM22.4-3.1c0-.55.94-.64.93 0 0 .6-.93.59-.93 0zM24.38-6.85c0-.56.95-.66.94 0-.01.59-.94.58-.94 0zM1.13-19.19c0-.56.94-.65.93 0 0 .6-.94.58-.94 0zM1.7-17.69c0-.56.96-.65.95 0-.02.6-.94.58-.94 0zM2.58-16.38c0-.56.95-.65.94 0-.01.6-.94.59-.94 0zM3.7-15.06c0-.56.96-.65.94 0 0 .59-.93.58-.93 0zM4.83-14.06c0-.56.95-.65.94 0-.01.59-.94.58-.94 0zM6.08-13.19c0-.56.95-.65.94 0-.01.6-.94.58-.94 0zM4.33-12.31c0-.56.95-.65.94 0-.01.59-.94.58-.94 0zM3.08-13.56c0-.56.95-.65.94 0-.01.59-.94.58-.94 0zM2.15-15.06c0-.56.94-.65.93 0 0 .59-.94.58-.94 0zM1.08-16.38c0-.56.95-.65.94 0-.01.6-.94.59-.94 0zM18.03-6.58c0-.56.95-.66.93 0 0 .59-.93.58-.93 0zM20.53-15.5c0-.56.95-.65.93 0 0 .6-.93.58-.93 0zM18.87-15.08c0-.56.95-.66.94 0-.01.59-.94.58-.94 0zM17.37-14.25c0-.56.95-.65.93 0 0 .6-.93.58-.93 0zM15.95-13.42c0-.56.95-.65.94 0-.01.6-.94.58-.94 0zM15.11-14.75c0-.56.95-.65.94 0-.01.6-.94.58-.94 0zM17.62-16.25c0-.56.95-.65.93 0 0 .6-.93.58-.93 0zM19.2-16.5c0-.56.95-.65.94 0-.01.6-.94.58-.94 0zM20.7-17.33c0-.56.95-.66.94 0-.01.59-.94.58-.94 0zM22.29-17.58c0-.56.94-.66.93 0 0 .59-.93.58-.93 0zM16.2-15.67c0-.56.95-.65.94 0-.01.6-.94.58-.94 0zM14.87-12.42c0-.56.95-.65.94 0-.02.6-.94.58-.94 0zM13.79-13.67c0-.56.94-.65.93 0 0 .6-.94.58-.94 0zM13.87-11.58c0-.56.95-.66.94 0-.02.59-.94.58-.94 0zM12.7-12.67c0-.56.94-.65.93 0 0 .6-.94.58-.94 0zM20.2-10c0-.56.94-.65.93 0 0 .6-.93.58-.93 0zM21.7-10.33c0-.56.94-.66.93 0 0 .59-.93.58-.93 0zM22.03-15.83c0-.56.95-.66.93 0 0 .59-.93.58-.93 0zM24.2-14.92c0-.56.94-.65.93 0 0 .6-.93.58-.93 0zM32.95-31.67c0-.56.95-.65.94 0-.01.6-.94.59-.94 0zM23.45-16.5c0-.56.94-.65.93 0 0 .6-.93.58-.93 0zM22.37-14.17c0-.56.95-.65.93 0 0 .6-.93.58-.93 0zM20.7-13.75c0-.56.95-.65.94 0-.01.6-.94.58-.94 0zM19.2-13.33c0-.56.95-.66.94 0-.01.59-.94.58-.94 0zM17.95-12.58c0-.56.94-.66.93 0 0 .59-.93.58-.93 0zM16.62-11.67c0-.56.95-.65.93 0 0 .6-.93.58-.93 0zM15.37-10.75c0-.56.95-.65.94 0-.01.6-.94.58-.94 0zM14.28-9.58c0-.56.95-.66.94 0-.02.59-.94.58-.94 0zM13.04-8.58c0-.56.94-.66.93 0 0 .59-.94.58-.94 0zM12.87-10.5c0-.56.95-.65.94 0-.02.6-.94.58-.94 0zM11.53-11.33c0-.56.95-.66.94 0 0 .59-.94.58-.94 0zM11.53-9.83c0-.56.95-.66.94 0-.02.59-.94.58-.94 0zM2.89-11.63c0-.56.95-.65.94 0-.01.6-.94.59-.94 0zM1.76-12.81c0-.56.95-.65.94 0 0 .59-.94.58-.94 0zM1.13-14.13c0-.56.94-.65.93 0 0 .6-.94.59-.94 0zM31.62-31.33c0-.56.95-.66.93 0 0 .59-.93.58-.93 0zM30.36-30.58c0-.56.95-.66.94 0-.01.59-.94.58-.94 0zM29.04-29.92c0-.56.94-.65.93 0 0 .6-.93.59-.93 0zM28.2-28.83c0-.56.94-.66.93 0 0 .59-.93.58-.93 0zM26.79-27.83c0-.56.94-.66.93 0 0 .59-.93.58-.93 0zM26.11-26.25c0-.56.95-.65.94 0-.01.6-.94.58-.94 0zM25.86-24.75c0-.56.95-.65.94 0-.01.6-.94.58-.94 0zM25.53-23c0-.56.95-.65.93 0 0 .6-.93.58-.93 0zM24.86-21.25c0-.56.95-.65.94 0-.01.6-.94.58-.94 0zM24.61-19.58c0-.56.95-.66.94 0-.01.59-.94.58-.94 0zM24.2-18.08c0-.56.94-.66.93 0 0 .59-.93.58-.93 0zM22.79-19.08c0-.56.94-.66.93 0 0 .59-.93.58-.93 0zM23.53-20.58c0-.56.95-.66.93 0 0 .59-.93.58-.93 0zM23.2-22.25c0-.56.94-.65.93 0 0 .6-.93.58-.93 0zM24.11-23.5c0-.56.95-.65.94 0-.01.6-.94.58-.94 0zM24.29-25.17c0-.56.94-.65.93 0 0 .6-.93.59-.93 0zM24.86-27c0-.56.95-.65.94 0-.01.6-.94.58-.94 0zM23.2-27.67c0-.56.94-.65.93 0 0 .6-.93.59-.93 0zM21.53-27.92c0-.56.95-.65.94 0 0 .6-.94.59-.94 0zM20.04-27.5c0-.56.94-.65.93 0 0 .6-.93.58-.93 0zM18.62-26.83c0-.56.95-.66.93 0 0 .59-.93.58-.93 0zM17.45-27.44c0-.56.95-.65.94 0-.01.6-.94.58-.94 0zM16.45-5.67c0-.56.95-.65.94 0-.01.6-.94.58-.94 0zM14.53-39.35c0-.56.95-.66.94 0-.02.59-.94.58-.94 0zM12.78-37c0-.56.95-.65.94 0-.02.6-.94.58-.94 0zM7.76-12.56c0-.56.95-.65.94 0 0 .59-.94.58-.94 0zM8.45-11.31c0-.56.95-.65.94 0-.01.59-.94.58-.94 0zM10.01-11.13c0-.56.95-.65.94 0 0 .6-.94.59-.94 0zM10.08-9.88c0-.56.95-.65.93 0 0 .6-.93.59-.93 0zM8.58-9.75c0-.56.95-.65.93 0 0 .6-.93.58-.93 0zM7.14-9.19c0-.56.95-.65.94 0-.01.6-.94.58-.94 0zM5.64-8.38c0-.56.95-.65.94 0-.01.6-.94.59-.94 0zM4.08-7.44c0-.56.94-.65.93 0 0 .6-.93.58-.93 0zM2.83-6.44c0-.56.94-.65.93 0 0 .6-.93.58-.93 0zM1.2-5.69c0-.56.95-.65.94 0-.01.6-.94.58-.94 0zM23.53-31.17c0-.56.95-.65.94 0 0 .6-.94.59-.94 0zM21.78-31.33c0-.56.95-.66.94 0-.02.59-.94.58-.94 0zM20.2-31.08c0-.56.94-.66.93 0 0 .59-.93.58-.93 0zM11.33-8.31c0-.56.95-.65.93 0 0 .59-.93.58-.93 0zM9.83-8.38c0-.56.95-.65.93 0 0 .6-.93.59-.93 0zM8.45-7.94c0-.56.95-.65.94 0-.01.6-.94.58-.94 0zM6.95-7.31c0-.56.95-.65.94 0-.01.59-.94.58-.94 0zM5.39-6.44c0-.56.95-.65.94 0-.01.6-.94.58-.94 0zM3.89-5.44c0-.56.95-.65.94 0-.01.6-.94.58-.94 0zM2.64-4.69c0-.56.95-.65.94 0-.01.6-.94.58-.94 0zM1.45-3.88c0-.56.95-.65.94 0-.01.6-.94.59-.94 0zM1.08-2.6c0-.56.94-.65.93 0 0 .6-.93.58-.93 0zM2.17-1.63c0-.56.95-.65.94 0-.01.6-.94.59-.94 0zM2.76-2.88c0-.56.95-.65.94 0 0 .6-.94.59-.94 0zM4.14-3.94c0-.56.95-.65.94 0-.01.6-.94.58-.94 0zM5.58-4.69c0-.56.94-.65.93 0 0 .6-.93.58-.93 0zM4.36-1.94c0-.56.95-.65.94 0-.01.6-.94.58-.94 0zM7.01-5.44c0-.56.95-.65.94 0 0 .6-.94.58-.94 0zM8.51-6.25c0-.56.95-.65.94 0 0 .6-.94.58-.94 0zM10.26-7.06c0-.56.95-.65.94 0 0 .59-.94.58-.94 0zM12.01-6.87c0-.56.95-.66.94 0 0 .59-.94.58-.94 0zM13.51-7.06c0-.56.95-.65.94 0 0 .59-.94.58-.94 0zM14.89-8c0-.56.95-.65.94 0-.01.6-.94.58-.94 0zM16.08-9.06c0-.56.95-.65.93 0 0 .59-.93.58-.93 0zM17.26-10.06c0-.56.95-.65.94 0 0 .59-.94.58-.94 0zM18.39-11c0-.56.95-.65.94 0-.01.6-.94.58-.94 0zM19.7-11.81c0-.56.95-.65.94 0-.01.59-.94.58-.94 0zM21.08-12.13c0-.56.95-.65.93 0 0 .6-.93.59-.93 0zM22.39-12.69c0-.56.95-.65.94 0-.01.6-.94.58-.94 0zM7.01-10.81c0-.56.95-.65.94 0 0 .59-.94.58-.94 0zM5.58-10c0-.56.94-.65.93 0 0 .6-.93.58-.93 0zM4.14-9.19c0-.56.95-.65.94 0-.01.6-.94.58-.94 0zM2.76-8.25c0-.56.95-.65.94 0 0 .6-.94.58-.94 0zM1.2-7.5c0-.56.95-.65.94 0-.01.6-.94.58-.94 0zM15.11-32.58c0-.56.95-.66.94 0-.01.59-.94.58-.94 0zM13.97-33.38c0-.56.94-.65.93 0 0 .6-.93.59-.93 0zM12.42-33.52c0-.56.95-.65.94 0 0 .6-.94.58-.94 0zM10.91-34.08c0-.56.95-.66.94 0-.01.59-.94.58-.94 0zM25.28-30.5c0-.56.95-.65.93 0 0 .6-.93.58-.93 0zM5.83-11.81c0-.56.94-.65.93 0 0 .59-.93.58-.93 0zM4.26-10.94c0-.56.95-.65.94 0 0 .6-.94.58-.94 0zM2.89-10.31c0-.56.95-.65.94 0-.01.59-.94.58-.94 0zM1.2-9.5c0-.56.95-.65.94 0-.01.6-.94.58-.94 0zM21.2-32.92c0-.56.94-.65.93 0 0 .6-.93.59-.93 0zM19.78-32.67c0-.56.95-.65.94 0-.02.6-.94.59-.94 0zM18.11-32.5c0-.56.95-.65.94 0-.01.6-.94.58-.94 0zM16.62-32.58c0-.56.95-.66.93 0 0 .59-.93.58-.93 0zM19.58-34.06c0-.56.95-.65.93 0 0 .59-.93.58-.93 0zM17.89-34.38c0-.56.95-.65.94 0-.01.6-.94.59-.94 0zM12.04-35.5c0-.56.94-.65.93 0 0 .6-.94.58-.94 0zM13.45-35.08c0-.56.95-.66.94 0-.01.59-.94.58-.94 0zM14.97-34.46c0-.56.95-.65.94 0-.01.6-.94.58-.94 0zM16.45-34.13c0-.56.95-.65.94 0-.01.6-.94.59-.94 0zM35.01-5.56c0-.56.95-.65.94 0 0 .59-.94.58-.94 0zM33.33-3c0-.56.95-.65.93 0 0 .6-.93.58-.93 0zM34.33-4.19c0-.56.95-.65.93 0 0 .6-.93.58-.93 0zM39.72-10.63c0-.56.95-.65.94 0-.01.6-.94.59-.94 0zM39.88-4.13c0-.56.95-.66.94 0-.01.59-.94.58-.94 0zM39.05-3c0-.56.95-.65.94 0-.01.6-.94.58-.94 0zM38.51-1.75c0-.56.95-.65.94 0 0 .6-.94.58-.94 0zM40-1.63c0-.56.96-.65.94 0 0 .59-.93.58-.93 0zM39.72-5.56c0-.56.95-.65.94 0-.01.59-.94.58-.94 0zM38.22-4.31c0-.56.95-.65.94 0-.01.59-.94.58-.94 0zM37.16-3.19c0-.56.95-.65.94 0-.01.6-.94.58-.94 0zM35.58-3c0-.56.95-.65.93 0 0 .6-.93.58-.93 0zM36.58-1.93c0-.56.95-.66.94 0-.01.59-.94.58-.94 0zM39.66-8.94c0-.56.95-.65.94 0-.01.6-.94.58-.94 0zM38.36-8.13c0-.56.95-.65.94 0-.01.6-.94.59-.94 0zM34.03-6.75c0-.56.95-.65.93 0 0 .6-.93.58-.93 0zM23.88-3.28c0-.56.95-.65.94 0-.01.6-.94.58-.94 0zM23.08-5.06c0-.56.95-.65.93 0 0 .59-.93.58-.93 0zM37.7-5.92c0-.56.95-.65.94 0-.01.6-.94.58-.94 0zM39.27-6.9c0-.57.95-.66.94 0-.01.58-.94.57-.94 0zM36.45-4.56c0-.56.94-.65.93 0 0 .59-.94.58-.94 0zM34.76-1.88c0-.56.95-.65.94 0 0 .6-.94.59-.94 0zM38.33-9.81c0-.56.95-.65.93 0 0 .59-.93.58-.93 0zM37.03-7.42c0-.56.95-.65.94 0 0 .6-.94.58-.94 0zM35.95-6.67c0-.56.95-.65.94 0-.01.6-.94.58-.94 0zM36.83-9.38c0-.56.95-.65.93 0 0 .6-.93.59-.93 0zM1.14-11.31c0-.56.95-.65.94 0-.01.59-.94.58-.94 0zM1.24-36.38c0-.56.94-.65.93 0 0 .6-.93.59-.93 0zM1.27-29.81c0-.56.95-.65.94 0-.01.59-.94.58-.94 0zM1.08-28.06c0-.56.95-.65.94 0-.01.59-.94.58-.94 0zM1.08-26.44c0-.56.95-.65.94 0-.01.6-.94.58-.94 0zM1.08-24.94c0-.56.95-.65.94 0-.01.6-.94.58-.94 0zM1.33-23.38c0-.56.95-.65.94 0-.01.6-.94.59-.94 0zM1.7-21.81c0-.56.96-.65.95 0-.02.59-.94.58-.94 0zM2.2-20.25c0-.56.96-.65.94 0 0 .6-.93.58-.93 0zM2.77-18.88c0-.56.95-.65.94 0-.01.6-.94.59-.94 0zM3.46-17.5c0-.56.95-.65.93 0 0 .6-.93.58-.93 0zM4.55-16.19c0-.56.95-.65.94 0-.01.6-.94.58-.94 0zM5.67-15.25c0-.56.95-.65.94 0 0 .6-.94.58-.94 0zM7.36-14.06c0-.56.95-.65.94 0-.01.59-.94.58-.94 0zM6.33-1.75c0-.56.95-.65.94 0-.01.6-.94.58-.94 0zM5.49-2.88c0-.56.94-.65.93 0 0 .6-.93.59-.93 0zM8.2-1.63c0-.56.96-.65.95 0-.02.6-.94.59-.94 0zM24.61-35c.04-.57 1-.6.94.06-.05.59-.98.51-.94-.07zM25.95-33.68c.03-.56.99-.58.93.07-.05.59-.98.51-.93-.07zM39.67-29.94c0-.56.95-.65.94 0 0 .6-.94.58-.94 0zM39.33-28.25c0-.56.95-.65.94 0-.01.6-.94.58-.94 0zM39.33-26.81c0-.56.95-.65.94 0-.01.59-.94.58-.94 0zM39.33-25c0-.56.95-.65.94 0-.01.6-.94.58-.94 0zM39.65-23.13c0-.56.94-.65.93 0 0 .6-.93.59-.93 0zM40.11-21.31c0-.56.95-.65.94 0-.01.59-.94.58-.94 0zM40.02-18.19c0-.56.95-.65.94 0-.01.6-.94.58-.94 0zM39.27-20c0-.56.95-.65.94 0-.01.6-.94.58-.94 0zM38.65-22c0-.56.94-.65.93 0 0 .6-.93.58-.93 0zM38.15-24.06c0-.56.94-.65.93 0 0 .59-.93.58-.93 0zM37.9-26.06c0-.56.94-.65.93 0 0 .59-.93.58-.93 0zM38.02-28c0-.56.95-.65.94 0-.01.6-.94.58-.94 0zM38.24-29.75c0-.56.94-.65.93 0 0 .6-.93.58-.93 0zM34.95-31.42c0-.56.95-.65.94 0-.01.6-.94.59-.94 0zM33.76-30.44c0-.56.95-.65.94 0 0 .6-.94.58-.94 0zM33.89-28.75c0-.56.95-.65.94 0-.01.6-.94.58-.94 0zM33.33-27c0-.56.95-.65.93 0 0 .6-.93.58-.93 0zM33.51-24.75c0-.56.95-.65.94 0 0 .6-.94.58-.94 0zM30.04-23.67c0-.56.94-.65.93 0 0 .6-.93.59-.93 0zM31.7-24.08c0-.56.95-.66.94 0-.01.59-.94.58-.94 0zM33.76-22.94c0-.56.95-.65.94 0 0 .6-.94.58-.94 0zM32.61-22.08c0-.56.95-.66.94 0-.01.59-.94.58-.94 0zM30.95-21.92c0-.56.95-.65.94 0-.01.6-.94.59-.94 0zM29.62-21.75c0-.56.95-.65.93 0 0 .6-.93.58-.93 0zM29.53-20c0-.56.95-.65.93 0 0 .6-.93.58-.93 0zM31.36-20.17c0-.56.95-.65.94 0-.01.6-.94.59-.94 0zM32.95-20.67c0-.56.94-.65.93 0 0 .6-.94.59-.94 0zM32.7-19.08c0-.56.95-.66.94 0-.01.59-.94.58-.94 0zM31.79-17.75c0-.56.94-.65.93 0 0 .6-.93.58-.93 0zM30.86-18.92c0-.56.95-.65.94 0-.01.6-.94.59-.94 0zM29.2-18.5c0-.56.94-.65.93 0 0 .6-.93.58-.93 0zM30.28-17.08c0-.56.95-.66.93 0 0 .59-.93.58-.93 0zM28.86-16.75c0-.56.95-.65.94 0-.01.6-.94.58-.94 0zM34.08-21.31c0-.56.95-.65.93 0 0 .59-.93.58-.93 0zM34.45-19.63c0-.56.95-.65.94 0-.01.6-.94.59-.94 0zM37.14-31c0-.56.95-.65.94 0-.01.6-.94.58-.94 0zM36.58-29.63c0-.56.95-.65.93 0 0 .6-.93.59-.93 0zM36.58-27.94c0-.56.95-.65.93 0 0 .6-.93.58-.93 0zM36.58-26.31c0-.56.95-.65.93 0 0 .59-.93.58-.93 0zM36.83-24.5c0-.56.95-.65.93 0 0 .6-.93.58-.93 0zM37.08-22.81c0-.56.95-.65.93 0 0 .59-.93.58-.93 0zM37.64-21c0-.56.95-.65.94 0-.01.6-.94.58-.94 0zM38.14-19.25c0-.56.95-.65.94 0-.01.6-.94.58-.94 0zM39.01-17.38c0-.56.95-.65.94 0 0 .6-.94.59-.94 0zM39.89-15.75c0-.56.95-.65.94 0-.01.6-.94.58-.94 0zM35.14-30.06c0-.56.95-.65.94 0-.01.59-.94.58-.94 0zM35.2-28.44c0-.56.95-.65.94 0-.01.6-.94.58-.94 0zM34.95-27c0-.56.95-.65.94 0-.01.6-.94.58-.94 0zM35.01-25.13c0-.56.95-.65.94 0 0 .6-.94.59-.94 0zM35.33-23.13c0-.56.95-.65.93 0 0 .6-.93.59-.93 0zM35.89-21.31c0-.56.95-.65.94 0-.01.59-.94.58-.94 0zM36.39-19.56c0-.56.95-.65.94 0-.01.59-.94.58-.94 0zM37.01-17.88c0-.56.95-.65.94 0 0 .6-.94.59-.94 0zM37.7-16.25c0-.56.95-.65.94 0-.01.6-.94.58-.94 0zM38.7-14.69c0-.56.95-.65.94 0-.01.6-.94.58-.94 0zM38.83-12.19c0-.56.95-.65.93 0 0 .6-.93.58-.93 0zM21.37-34.75c0-.56.95-.65.93 0 0 .6-.93.58-.93 0zM13.7-38.25c0-.56.95-.65.94 0-.01.6-.94.58-.94 0zM17.95-36.31c0-.56.95-.65.94 0-.01.59-.94.58-.94 0zM15.03-37.83c0-.56.95-.66.94 0-.02.59-.94.58-.94 0zM19.7-37.25c0-.56.94-.65.93 0 0 .6-.93.58-.93 0zM15.58-40.56c0-.56.95-.65.93 0 0 .59-.93.58-.93 0zM22.62-33c0-.56.95-.65.93 0 0 .6-.93.58-.93 0zM21.29-36.42c0-.56.94-.65.93 0 0 .6-.93.59-.93 0zM23.03-36.17c0-.56.95-.65.93 0 0 .6-.93.59-.93 0zM20.05-40.5c0-.56.95-.65.94 0-.01.6-.94.58-.94 0zM21.39-39.94c0-.56.95-.65.94 0-.01.6-.94.58-.94 0zM22.58-39c0-.56.95-.65.93 0 0 .6-.93.58-.93 0zM23.78-37.75c0-.56.95-.65.94 0-.02.6-.94.58-.94 0zM24.61-36.75c0-.56.95-.65.94 0-.01.6-.94.58-.94 0zM25.86-35.83c0-.56.95-.66.94 0-.01.59-.94.58-.94 0zM26.99-35c0-.56.95-.65.93 0 0 .6-.93.58-.93 0zM28.11-34.13c0-.56.95-.65.94 0-.01.6-.94.59-.94 0zM29.55-33.44c0-.56.95-.65.94 0-.01.6-.94.58-.94 0zM30.79-32.5c0-.56.94-.65.93 0 0 .6-.93.58-.93 0zM31.45-33.83c0-.56.95-.66.94 0-.01.59-.94.58-.94 0zM32.37-35c0-.56.95-.65.94 0-.02.6-.94.58-.94 0zM29.2-31.69c0-.56.95-.65.94 0-.01.6-.94.58-.94 0zM27.7-30.69c0-.56.95-.65.94 0-.01.6-.94.58-.94 0zM26.7-29.63c0-.56.95-.65.94 0-.01.6-.94.59-.94 0zM13.3-40.19c0-.56.95-.65.94 0-.01.6-.94.58-.94 0zM12.36-38.88c0-.56.95-.65.94 0-.01.6-.94.59-.94 0zM11.42-37.38c0-.56.95-.65.94 0 0 .6-.94.59-.94 0zM10.39-36.06c0-.56.95-.65.94 0-.01.59-.94.58-.94 0zM9.61-34.75c0-.56.95-.65.94 0-.01.6-.94.58-.94 0zM8.95-33.38c0-.56.95-.65.94 0-.01.6-.94.59-.94 0zM10.33-32.69c0-.56.95-.65.93 0 0 .6-.93.58-.93 0zM9.95-31.08c0-.56.95-.66.94 0-.01.59-.94.58-.94 0zM13.33-32c0-.56.95-.65.93 0 0 .6-.93.58-.93 0zM11.71-32.02c0-.56.95-.65.94 0 0 .6-.94.58-.94 0zM18.7-30.92c0-.56.94-.65.93 0 0 .6-.93.59-.93 0zM17.12-30.5c0-.56.95-.65.93 0 0 .6-.93.58-.93 0zM15.72-31.19c0-.56.95-.65.94 0-.01.6-.94.58-.94 0zM14.11-30.58c0-.56.95-.66.94 0-.01.59-.94.58-.94 0zM12.62-30.25c0-.56.95-.65.94 0-.02.6-.94.58-.94 0zM10.95-30.33c0-.56.95-.66.94 0-.01.59-.94.58-.94 0zM8.61-31.81c0-.56.95-.65.94 0-.01.59-.94.58-.94 0zM8.74-30.06c0-.56.95-.65.93 0 0 .59-.93.58-.93 0zM9.8-29c0-.56.95-.65.94 0-.01.6-.94.58-.94 0zM11.17-28.13c0-.56.95-.65.94 0 0 .6-.94.59-.94 0zM12.61-28.92c0-.56.95-.65.94 0-.01.6-.94.59-.94 0zM14.2-28.75c0-.56.94-.65.93 0 0 .6-.94.58-.94 0zM15.95-29.67c0-.56.94-.65.93 0 0 .6-.93.59-.93 0zM25.29-28.42c0-.56.94-.65.93 0 0 .6-.93.59-.93 0zM24.07-29.17c0-.56.95-.65.94 0-.02.6-.94.59-.94 0zM22.61-29.5c0-.56.95-.65.94 0-.01.6-.94.58-.94 0zM20.7-29.5c0-.56.95-.65.94 0-.01.6-.94.58-.94 0zM19.2-29.25c0-.56.95-.65.94 0-.01.6-.94.58-.94 0zM17.92-29.06c0-.56.95-.65.94 0 0 .59-.94.58-.94 0zM16.53-28.33c0-.56.95-.66.94 0 0 .59-.94.58-.94 0zM15.36-27.67c0-.56.95-.65.94 0-.01.6-.94.59-.94 0zM14.04-26.67c0-.56.94-.65.93 0 0 .6-.94.59-.94 0zM12.67-26.94c0-.56.95-.65.94 0 0 .6-.94.58-.94 0zM27.45-32.67c0-.56.94-.65.93 0 0 .6-.93.59-.93 0zM22.87-34.67c0-.56.95-.65.94 0-.01.6-.94.59-.94 0zM26.12-31.67c0-.56.95-.65.93 0 0 .6-.93.59-.93 0zM24.53-32.83c0-.56.95-.66.93 0 0 .59-.93.58-.93 0zM19.53-35.75c0-.56.95-.65.93 0 0 .6-.93.58-.93 0zM16.2-35.85c0-.56.95-.66.94 0-.01.59-.94.58-.94 0zM14.58-36.31c0-.56.95-.65.93 0 0 .59-.93.58-.93 0zM18.14-37.94c0-.56.95-.65.94 0-.01.6-.94.58-.94 0zM11.6-40.5c0-.56.95-.65.94 0 0 .6-.93.58-.93 0zM10.7-39.25c0-.56.95-.65.94 0-.01.6-.94.58-.94 0zM16.51-37.63c0-.56.95-.65.94 0 0 .6-.94.59-.94 0zM22.03-37.67c0-.56.95-.65.93 0 0 .6-.93.59-.93 0zM20.54-38.65c0-.56.95-.65.94 0-.01.6-.94.59-.94 0zM9.33-40.19c0-.56.95-.65.93 0 0 .6-.93.58-.93 0zM8.7-38.81c0-.56.95-.65.94 0-.01.59-.94.58-.94 0zM7.74-40.25c0-.56.94-.65.93 0 0 .6-.93.58-.93 0zM7.33-38.69c0-.56.94-.65.93 0 0 .6-.93.58-.93 0zM9.58-37.56c0-.56.95-.65.93 0 0 .59-.93.58-.93 0zM8.58-35.75c0-.56.95-.65.93 0 0 .6-.93.58-.93 0zM7.7-34.13c0-.56.96-.65.94 0 0 .6-.93.59-.93 0zM7.2-32c0-.56.95-.65.94 0-.01.6-.94.58-.94 0zM7.01-30.06c0-.56.95-.65.94 0 0 .59-.94.58-.94 0zM8.53-28.42c0-.56.95-.65.94 0-.02.6-.94.59-.94 0zM7.05-28.13c0-.56.95-.65.93 0 0 .6-.93.59-.93 0zM9.62-27.25c0-.56.95-.65.94 0-.02.6-.94.58-.94 0zM8.45-26.08c0-.56.95-.66.94 0-.01.59-.94.58-.94 0zM6.95-25.25c0-.56.94-.65.93 0 0 .6-.93.58-.93 0zM8.32-24.63c0-.56.95-.65.94 0-.01.6-.94.59-.94 0zM7.74-23.13c0-.56.94-.65.93 0 0 .6-.93.59-.93 0zM6.11-23.63c0-.56.95-.65.94 0-.01.6-.94.59-.94 0zM4.36-23.94c0-.56.95-.65.94 0-.01.6-.94.58-.94 0zM4.86-22.31c0-.56.95-.65.94 0-.01.59-.94.58-.94 0zM6.42-22.06c0-.56.95-.65.94 0 0 .59-.94.58-.94 0zM7.11-20.63c0-.56.95-.65.94 0-.01.6-.94.59-.94 0zM5.36-20.69c0-.56.95-.65.94 0-.01.6-.94.58-.94 0zM6.42-18.94c0-.56.95-.65.94 0 0 .6-.94.58-.94 0zM8.86-14.38c0-.56.95-.65.94 0-.01.6-.94.59-.94 0zM9.14-12.81c0-.56.95-.65.94 0-.01.59-.94.58-.94 0zM10.58-12.81c0-.56.95-.65.93 0 0 .59-.93.58-.93 0zM11.95-14c0-.56.95-.65.94 0-.01.6-.94.58-.94 0zM13.2-15.13c0-.56.95-.65.94 0-.01.6-.94.59-.94 0zM14.33-16.13c0-.56.95-.65.93 0 0 .6-.93.59-.93 0zM15.51-17.13c0-.56.95-.65.94 0 0 .6-.94.59-.94 0zM16.76-18.31c0-.56.95-.65.94 0 0 .59-.94.58-.94 0zM17.83-19.5c0-.56.95-.65.93 0 0 .6-.93.58-.93 0zM19.01-20.5c0-.56.95-.65.94 0 0 .6-.94.58-.94 0zM20.51-21.06c0-.56.95-.65.94 0 0 .59-.94.58-.94 0zM22.2-20.94c0-.56.95-.65.94 0-.01.6-.94.58-.94 0zM21.08-19.19c0-.56.95-.65.93 0 0 .6-.93.58-.93 0zM19.64-18.56c0-.56.95-.65.94 0-.01.59-.94.58-.94 0zM18.33-17.75c0-.56.95-.65.93 0 0 .6-.93.58-.93 0zM9.95-25.42c0-.56.94-.65.93 0 0 .6-.94.59-.94 0zM12.86-25.56c0-.56.95-.65.94 0-.01.59-.94.58-.94 0zM11.49-24.69c0-.56.95-.65.93 0 0 .6-.93.58-.93 0zM10.99-22.81c0-.56.95-.65.93 0 0 .59-.93.58-.93 0zM10.61-21.38c0-.56.95-.65.94 0-.01.6-.94.59-.94 0zM9.49-20c0-.56.95-.65.93 0 0 .6-.93.58-.93 0zM9.11-18c0-.56.95-.65.94 0-.01.6-.94.58-.94 0zM10.42-18.75c0-.56.95-.65.94 0 0 .6-.94.58-.94 0zM11.42-20c0-.56.95-.65.94 0 0 .6-.94.58-.94 0zM12.11-21.31c0-.56.95-.65.94 0-.01.59-.94.58-.94 0zM13.8-22c0-.56.95-.65.94 0-.01.6-.94.58-.94 0zM15.26-22.75c0-.56.95-.65.94 0 0 .6-.94.58-.94 0zM16.08-24.31c0-.56.95-.65.93 0 0 .59-.93.58-.93 0zM17.26-25.56c0-.56.95-.65.94 0 0 .59-.94.58-.94 0zM22.95-25.88c0-.56.95-.65.94 0-.01.6-.94.59-.94 0zM21.37-26.08c0-.56.95-.66.93 0 0 .59-.93.58-.93 0zM22.64-24.06c0-.56.95-.65.94 0-.01.59-.94.58-.94 0zM20.11-25.58c0-.56.95-.66.94 0-.01.59-.94.58-.94 0zM20.95-24.25c0-.56.95-.65.94 0-.01.6-.94.58-.94 0zM21.76-22.81c0-.56.95-.65.94 0 0 .59-.94.58-.94 0zM20.08-22.63c0-.56.95-.65.93 0 0 .6-.93.59-.93 0zM18.58-22.06c0-.56.95-.65.93 0 0 .59-.93.58-.93 0zM17.26-21.13c0-.56.95-.65.94 0 0 .6-.94.59-.94 0zM16.14-20.13c0-.56.95-.65.94 0-.01.6-.94.59-.94 0zM15.08-19c0-.56.95-.65.93 0 0 .6-.93.58-.93 0zM14.08-17.81c0-.56.95-.65.93 0 0 .59-.93.58-.93 0zM12.7-16.88c0-.56.95-.65.94 0-.01.6-.94.59-.94 0zM11.7-15.56c0-.56.95-.65.94 0-.01.59-.94.58-.94 0zM10.33-14.69c0-.56.95-.65.93 0 0 .6-.93.58-.93 0zM9.2-16.13c0-.56.95-.65.94 0-.01.6-.94.59-.94 0zM10.58-16.81c0-.56.95-.65.93 0 0 .59-.93.58-.93 0zM11.7-17.88c0-.56.95-.65.94 0-.01.6-.94.59-.94 0zM12.76-19.13c0-.56.95-.65.94 0 0 .6-.94.59-.94 0zM13.7-20.19c0-.56.95-.65.94 0-.01.6-.94.58-.94 0zM15.08-21.19c0-.56.95-.65.93 0 0 .6-.93.58-.93 0zM16.76-22.31c0-.56.95-.65.94 0 0 .59-.94.58-.94 0zM19.26-24c0-.56.95-.65.94 0 0 .6-.94.58-.94 0zM17.64-23.88c0-.56.95-.65.94 0-.01.6-.94.59-.94 0zM18.73-25.31c0-.56.95-.65.94 0 0 .59-.94.58-.94 0zM13.86-23.88c0-.56.95-.65.94 0-.01.6-.94.59-.94 0zM14.92-25.19c0-.56.95-.65.94 0 0 .6-.94.58-.94 0zM16.14-26.38c0-.56.95-.65.94 0-.01.6-.94.59-.94 0zM12.49-23.25c0-.56.95-.65.93 0 0 .6-.93.58-.93 0zM9.61-23.92c0-.56.95-.65.94 0-.01.6-.94.59-.94 0zM9.04-22.5c0-.56.94-.65.93 0 0 .6-.94.58-.94 0zM8.45-21.25c0-.56.94-.65.93 0 0 .6-.94.58-.94 0zM8.03-19.42c0-.56.95-.65.94 0-.02.6-.94.59-.94 0zM7.53-17.75c0-.56.95-.65.93 0 0 .6-.93.58-.93 0zM7.45-16.17c0-.56.94-.65.93 0 0 .6-.94.59-.94 0zM11.17-26.31c0-.56.95-.65.94 0 0 .59-.94.58-.94 0zM7.83-2.94c0-.56.95-.65.94 0-.01.6-.94.58-.94 0zM10.08-3.94c0-.56.95-.65.94 0-.01.6-.94.58-.94 0zM12.64-4.94c0-.56.95-.65.94 0 0 .6-.94.58-.94 0zM11.2-5.25c0-.56.96-.65.95 0-.02.6-.94.58-.94 0zM9.7-5.56c0-.56.96-.65.95 0-.02.59-.94.58-.94 0zM8.4-4.5c0-.56.94-.65.93 0 0 .6-.94.58-.94 0zM6.77-3.75c0-.56.95-.65.94 0-.01.6-.94.58-.94 0zM14.08-5.31c0-.56.95-.65.94 0-.01.59-.94.58-.94 0zM15.02-6.37c0-.56.95-.66.94 0-.01.59-.94.58-.94 0zM16.3-7.25c0-.56.95-.65.94 0-.01.6-.94.58-.94 0zM17.67-8.31c0-.56.95-.65.94 0 0 .59-.94.58-.94 0zM18.76-9.06c0-.56.95-.65.94 0 0 .59-.94.58-.94 0z"/><path d="M8.2-1.63c0-.56.96-.65.95 0-.02.6-.94.59-.94 0zM21.92-1.6c0-.55.95-.64.93 0 0 .6-.93.59-.93 0zM19.74-3.81c0-.56.95-.65.93 0 0 .59-.93.58-.93 0zM24.39-1.65c0-.56.95-.66.93 0 0 .59-.93.58-.93 0zM20.76-2.56c0-.56.95-.65.94 0 0 .59-.94.58-.94 0zM18.83-4.94c0-.56.95-.65.93 0 0 .6-.93.58-.93 0zM17.33-4.25c0-.56.95-.65.93 0 0 .6-.93.58-.93 0zM15.45-4.19c0-.56.95-.65.94 0-.01.6-.94.58-.94 0zM13.74-3.44c0-.56.95-.65.93 0 0 .6-.93.58-.93 0zM12.64-2.06c0-.56.95-.65.94 0-.01.59-.94.58-.94 0zM11.89-3.5c0-.56.95-.65.94 0-.01.6-.94.58-.94 0zM9.58-2.69c0-.56.95-.65.93 0 0 .6-.93.58-.93 0zM10.7-1.6c0-.56.96-.65.95 0-.01.59-.94.58-.94 0zM32.33-1.75c0-.56.95-.65.93 0 0 .6-.93.58-.93 0zM31.99-4.06c0-.56.95-.65.93 0 0 .59-.93.58-.93 0zM31.2-2.75c0-.56.95-.65.94 0-.01.6-.94.58-.94 0zM30.7-5.31c0-.56.95-.65.94 0-.01.59-.94.58-.94 0zM29.76-6.5c0-.56.95-.65.94 0 0 .6-.94.58-.94 0zM29.61-1.88c0-.56.95-.65.94 0-.01.6-.94.59-.94 0zM35.03-13.75c0-.56.95-.65.94 0 0 .6-.94.58-.94 0zM33.12-14.67c0-.56.95-.65.94 0-.02.6-.94.58-.94 0zM31.79-14.08c0-.56.94-.66.93 0 0 .59-.93.58-.93 0zM28.95-12.92c0-.56.95-.65.94 0-.01.6-.94.58-.94 0zM30.04-13.75c0-.56.94-.65.93 0 0 .6-.93.58-.93 0zM27.95-11.5c0-.56.95-.65.94 0-.01.6-.94.58-.94 0zM33.08-9.63c0-.56.95-.65.93 0 0 .6-.93.59-.93 0zM34.55-12c0-.56.95-.65.94 0-.01.6-.94.58-.94 0zM32.76-11.25c0-.56.95-.65.94 0 0 .6-.94.58-.94 0zM31.26-10.5c0-.56.95-.65.94 0 0 .6-.94.58-.94 0zM30.08-11.69c0-.56.95-.65.93 0 0 .6-.93.58-.93 0zM28.92-10.69c0-.56.95-.65.94 0 0 .6-.94.58-.94 0zM31.46-12.5c0-.56.95-.65.94 0-.01.6-.94.58-.94 0zM33.2-12.94c0-.56.95-.65.94 0-.01.6-.94.58-.94 0zM31.37-16c0-.56.95-.65.93 0 0 .6-.93.58-.93 0zM30.28-15.5c0-.56.95-.65.93 0 0 .6-.93.58-.93 0zM28.61-15.17c0-.56.95-.65.94 0-.01.6-.94.58-.94 0zM27.53-14c0-.56.95-.65.94 0 0 .6-.94.58-.94 0zM26.95-12.75c0-.56.95-.65.94 0-.01.6-.94.58-.94 0zM26.2-11.25c0-.56.95-.65.94 0-.01.6-.94.58-.94 0zM36.7-14.83c0-.56.94-.66.93 0 0 .59-.94.58-.94 0zM34.78-15.5c0-.56.95-.65.94 0 0 .6-.94.58-.94 0zM33.2-16.58c0-.56.94-.66.93 0 0 .59-.94.58-.94 0zM34.11-18c0-.56.95-.65.94 0-.01.6-.94.58-.94 0zM35.78-18.42c0-.56.95-.65.94 0-.02.6-.94.59-.94 0zM35.61-17c0-.56.95-.65.94 0-.01.6-.94.58-.94 0zM37.97-13.35c0-.56.95-.66.93 0 0 .59-.93.58-.93 0zM39.89-13.13c0-.56.95-.65.94 0-.01.6-.94.59-.94 0zM36.08-12.19c0-.56.95-.65.93 0 0 .6-.93.58-.93 0zM36.62-13.42c0-.56.95-.65.94 0-.02.6-.94.58-.94 0zM37.62-11.44c0-.56.95-.65.94 0-.02.6-.94.58-.94 0zM34.58-10.25c0-.56.95-.65.93 0 0 .6-.93.58-.93 0zM33.14-5.06c0-.56.95-.65.94 0-.01.59-.94.58-.94 0zM32.08-6.25c0-.56.95-.65.93 0 0 .6-.93.58-.93 0zM36.24-10.69c0-.56.94-.65.93 0 0 .6-.93.58-.93 0zM28.11-3.25c0-.56.95-.65.94 0-.01.6-.94.58-.94 0zM35.39-8.75c0-.56.95-.65.94 0-.01.6-.94.58-.94 0zM33.62-8.17c0-.56.95-.65.94 0-.02.6-.94.58-.94 0zM16.89-1.69c0-.56.95-.65.94 0-.01.6-.94.58-.94 0zM14.45-1.6c0-.55.95-.64.94 0-.01.6-.94.59-.94 0zM16.01-2.69c0-.56.95-.65.94 0 0 .6-.94.58-.94 0zM17.83-2.88c0-.56.95-.65.93 0 0 .6-.93.59-.93 0zM19.2-1.94c0-.56.95-.65.94 0-.01.6-.94.58-.94 0zM29.86-3.88c0-.56.95-.65.94 0-.01.6-.94.59-.94 0zM26.99-1.76c.04-.56.99-.58.93.07-.05.58-.97.51-.93-.07zM25.86-3.08c.04-.56 1-.59.94.06-.05.59-.98.52-.94-.06zM26.01-7.12c0-.56.95-.66.94 0 0 .59-.94.58-.94 0zM25.05-4.84c0-.56.95-.65.93 0 0 .59-.93.58-.93 0zM28.8-5.06c0-.56.94-.65.93 0-.01.59-.94.58-.94 0zM40.02-37.75c0-.56.95-.65.94 0-.01.6-.94.58-.94 0zM36.01-39.06c0-.56.95-.65.94 0 0 .59-.94.58-.94 0zM38.26-37.69c0-.56.95-.65.94 0 0 .6-.94.58-.94 0zM38.08-38.94c0-.56.95-.65.93 0 0 .6-.93.58-.93 0zM35.45-36.18c.04-.56 1-.58.94.07-.05.58-.98.5-.94-.07zM36.33-37.68c.04-.56.99-.58.93.07-.05.58-.97.5-.93-.07zM30.74-39.38c.04-.56.99-.59.93.06-.05.59-.97.52-.93-.06zM34.45-37.56c.04-.55 1-.58.94.07-.05.59-.98.51-.94-.07zM40.08-31.69c0-.56.95-.65.94 0-.01.6-.94.58-.94 0zM38.42-31.94c0-.56.95-.65.94 0 0 .6-.94.58-.94 0zM39.3-33.25c0-.56.95-.65.94 0-.01.6-.94.58-.94 0zM39.67-34.94c0-.56.95-.65.94 0 0 .6-.94.58-.94 0zM35.76-33.81c0-.56.95-.65.94 0 0 .59-.94.58-.94 0zM37.64-33.38c0-.56.95-.65.94 0-.01.6-.94.59-.94 0zM38.08-35c0-.56.95-.65.93 0 0 .6-.93.58-.93 0zM37.3-36.19c0-.56.95-.65.94 0-.01.6-.94.58-.94 0zM36.39-32.38c0-.56.95-.65.94 0-.01.6-.94.59-.94 0zM39.9-39.56c0-.56.94-.65.93 0 0 .59-.93.58-.93 0zM38.17-40.31c0-.56.95-.65.94 0 0 .59-.94.58-.94 0zM36.2-40.5c0-.56.95-.65.94 0-.01.6-.94.58-.94 0zM34.11-40.38c0-.56.95-.65.94 0-.01.6-.94.59-.94 0zM38.92-36.34c0-.56.95-.65.94 0 0 .59-.94.58-.94 0zM36.33-35c0-.56.95-.65.93 0 0 .6-.93.58-.93 0zM32.86-37.06c0-.56.95-.65.94 0-.01.59-.94.58-.94 0zM34.52-34.56c0-.56.95-.65.94 0-.01.59-.94.58-.94 0zM33.7-35.67c0-.56.95-.65.94 0-.01.6-.94.59-.94 0zM33.03-33.08c0-.56.95-.66.94 0 0 .59-.94.58-.94 0zM30.29-34.75c0-.56.94-.65.93 0 0 .6-.93.58-.93 0zM28.95-35.58c0-.56.95-.66.94 0-.01.59-.94.58-.94 0zM27.45-36.58c0-.56.95-.66.94 0-.01.59-.94.58-.94 0zM25.78-37.92c0-.56.95-.65.94 0-.02.6-.94.59-.94 0zM24.2-39.42c0-.56.94-.65.93 0 0 .6-.93.59-.93 0zM23.08-40.5c0-.56.95-.65.93 0 0 .6-.93.58-.93 0zM34.7-32.75c0-.56.94-.65.93 0 0 .6-.94.58-.94 0zM31.2-36.25c0-.56.95-.65.94 0-.01.6-.94.58-.94 0zM29.53-37c0-.56.95-.65.94 0 0 .6-.94.58-.94 0zM28.03-38c0-.56.95-.65.93 0 0 .6-.93.58-.93 0zM26.86-39.28c0-.56.95-.66.94 0-.01.59-.94.58-.94 0zM25.55-40.53c0-.56.95-.66.93 0 0 .59-.93.58-.93 0zM29.11-38.97c0-.56.95-.65.94 0-.01.6-.94.59-.94 0zM30.98-37.72c0-.56.95-.65.94 0 0 .6-.94.59-.94 0zM28.11-40.44c0-.56.95-.65.94 0 0 .6-.94.58-.94 0zM34.2-39.13c0-.56.95-.65.94 0-.01.6-.94.59-.94 0zM32.52-38.69c0-.56.95-.65.94 0-.01.6-.94.58-.94 0zM31.36-40.5c0-.56.95-.65.94 0-.01.6-.94.58-.94 0z"/></svg>