<?xml version="1.0" encoding="utf-8"?>
<svg version="1.1" xmlns="http://www.w3.org/2000/svg" x="0px" y="0px" xml:space="preserve" width="49.676" height="49.502" viewBox="1 -50.502 49.676 49.502">
	<g>
		<rect x="1" y="-50.502" style="fill:none;" width="49.676" height="49.502"/>
		<path d="M49.033-50.502c0,0,0,0.001,0,0.002c0,0.221,0.179,0.4,0.4,0.4c0.221,0,0.4-0.179,0.4-0.4c0,0,0-0.001,0-0.002"/>
		<path d="M46.408-50.502c0,0,0,0.001,0,0.002c0,0.221,0.179,0.4,0.4,0.4c0.221,0,0.4-0.179,0.4-0.4c0,0,0-0.001,0-0.002"/>
		<path d="M43.783-50.502c0,0,0,0.001,0,0.002c0,0.221,0.179,0.4,0.4,0.4c0.221,0,0.4-0.179,0.4-0.4c0,0,0-0.001,0-0.002"/>
		<path d="M41.158-50.502c0,0,0,0.001,0,0.002c0,0.221,0.179,0.4,0.4,0.4c0.221,0,0.4-0.179,0.4-0.4c0,0,0-0.001,0-0.002"/>
		<path d="M38.533-50.502c0,0,0,0.001,0,0.002c0,0.221,0.179,0.4,0.4,0.4c0.221,0,0.4-0.179,0.4-0.4c0,0,0-0.001,0-0.002"/>
		<path d="M35.845-50.502c0,0,0,0.001,0,0.002c0,0.221,0.179,0.4,0.4,0.4c0.221,0,0.4-0.179,0.4-0.4c0,0,0-0.001,0-0.002"/>
		<path d="M33.283-50.502c0,0,0,0.001,0,0.002c0,0.221,0.179,0.4,0.4,0.4c0.221,0,0.4-0.179,0.4-0.4c0,0,0-0.001,0-0.002"/>
		<path d="M30.658-50.502c0,0,0,0.001,0,0.002c0,0.221,0.179,0.4,0.4,0.4c0.221,0,0.4-0.179,0.4-0.4c0,0,0-0.001,0-0.002"/>
		<path d="M27.97-50.502c0,0,0,0.001,0,0.002c0,0.221,0.179,0.4,0.4,0.4c0.221,0,0.4-0.179,0.4-0.4c0,0,0-0.001,0-0.002"/>
		<path d="M25.408-50.502c0,0,0,0.001,0,0.002c0,0.221,0.179,0.4,0.4,0.4c0.221,0,0.4-0.179,0.4-0.4c0,0,0-0.001,0-0.002"/>
		<path d="M22.72-50.502c0,0,0,0.001,0,0.002c0,0.221,0.179,0.4,0.4,0.4c0.221,0,0.4-0.179,0.4-0.4c0,0,0-0.001,0-0.002"/>
		<path d="M20.158-50.502c0,0,0,0.001,0,0.002c0,0.221,0.179,0.4,0.4,0.4c0.221,0,0.4-0.179,0.4-0.4c0,0,0-0.001,0-0.002"/>
		<path d="M17.533-50.502c0,0,0,0.001,0,0.002c0,0.221,0.179,0.4,0.4,0.4c0.221,0,0.4-0.179,0.4-0.4c0,0,0-0.001,0-0.002"/>
		<path d="M14.97-50.502c0,0,0,0.001,0,0.002c0,0.221,0.179,0.4,0.4,0.4s0.4-0.179,0.4-0.4c0,0,0-0.001,0-0.002"/>
		<path d="M12.345-50.502c0,0,0,0.001,0,0.002c0,0.221,0.179,0.4,0.4,0.4s0.4-0.179,0.4-0.4c0,0,0-0.001,0-0.002"/>
		<path d="M9.72-50.502c0,0,0,0.001,0,0.002c0,0.221,0.179,0.4,0.4,0.4s0.4-0.179,0.4-0.4c0,0,0-0.001,0-0.002"/>
		<path d="M7.095-50.502c0,0,0,0.001,0,0.002c0,0.221,0.179,0.4,0.4,0.4s0.4-0.179,0.4-0.4c0,0,0-0.001,0-0.002"/>
		<path d="M4.47-50.502c0,0,0,0.001,0,0.002c0,0.221,0.179,0.4,0.4,0.4s0.4-0.179,0.4-0.4c0,0,0-0.001,0-0.002"/>
		<path d="M1.783-50.502c0,0,0,0.001,0,0.002c0,0.221,0.179,0.4,0.4,0.4s0.4-0.179,0.4-0.4c0,0,0-0.001,0-0.002"/>
		<path d="M1-48.788c0.219-0.002,0.396-0.18,0.396-0.4S1.219-49.585,1-49.587"/>
		<circle cx="3.558" cy="-49.188" r="0.4"/>
		<circle cx="6.183" cy="-49.188" r="0.4"/>
		<circle cx="8.871" cy="-49.188" r="0.4"/>
		<circle cx="11.433" cy="-49.188" r="0.4"/>
		<circle cx="13.996" cy="-49.188" r="0.4"/>
		<circle cx="16.621" cy="-49.188" r="0.4"/>
		<circle cx="19.246" cy="-49.188" r="0.4"/>
		<circle cx="21.933" cy="-49.188" r="0.4"/>
		<circle cx="24.558" cy="-49.188" r="0.4"/>
		<circle cx="27.058" cy="-49.188" r="0.4"/>
		<circle cx="29.746" cy="-49.188" r="0.4"/>
		<circle cx="32.371" cy="-49.188" r="0.4"/>
		<circle cx="34.933" cy="-49.188" r="0.4"/>
		<circle cx="37.621" cy="-49.188" r="0.4"/>
		<circle cx="40.183" cy="-49.188" r="0.4"/>
		<circle cx="42.808" cy="-49.188" r="0.4"/>
		<circle cx="45.433" cy="-49.188" r="0.4"/>
		<circle cx="48.058" cy="-49.188" r="0.4"/>
		<path d="M50.676-49.587c-0.218,0.003-0.394,0.181-0.394,0.4c0,0.219,0.176,0.396,0.394,0.4"/>
		<circle cx="49.433" cy="-47.938" r="0.4"/>
		<circle cx="46.808" cy="-47.938" r="0.4"/>
		<circle cx="44.183" cy="-47.938" r="0.4"/>
		<circle cx="41.558" cy="-47.938" r="0.4"/>
		<circle cx="38.933" cy="-47.938" r="0.4"/>
		<circle cx="36.246" cy="-47.938" r="0.4"/>
		<circle cx="33.683" cy="-47.938" r="0.4"/>
		<circle cx="31.058" cy="-47.938" r="0.4"/>
		<circle cx="28.371" cy="-47.938" r="0.4"/>
		<circle cx="25.808" cy="-47.938" r="0.4"/>
		<circle cx="23.121" cy="-47.938" r="0.4"/>
		<circle cx="20.558" cy="-47.938" r="0.4"/>
		<circle cx="17.933" cy="-47.938" r="0.4"/>
		<circle cx="15.371" cy="-47.938" r="0.4"/>
		<circle cx="12.746" cy="-47.938" r="0.4"/>
		<circle cx="10.121" cy="-47.938" r="0.4"/>
		<circle cx="7.496" cy="-47.938" r="0.4"/>
		<circle cx="4.871" cy="-47.938" r="0.4"/>
		<circle cx="2.183" cy="-47.938" r="0.4"/>
		<path d="M1-46.225c0.219-0.002,0.396-0.18,0.396-0.4S1.219-47.023,1-47.025"/>
		<circle cx="3.558" cy="-46.625" r="0.4"/>
		<circle cx="6.183" cy="-46.625" r="0.4"/>
		<circle cx="8.871" cy="-46.625" r="0.4"/>
		<circle cx="11.433" cy="-46.625" r="0.4"/>
		<circle cx="13.996" cy="-46.625" r="0.4"/>
		<circle cx="16.621" cy="-46.625" r="0.4"/>
		<circle cx="19.246" cy="-46.625" r="0.4"/>
		<circle cx="21.933" cy="-46.625" r="0.4"/>
		<circle cx="24.558" cy="-46.625" r="0.4"/>
		<circle cx="27.058" cy="-46.625" r="0.4"/>
		<circle cx="29.746" cy="-46.625" r="0.4"/>
		<circle cx="32.371" cy="-46.625" r="0.4"/>
		<circle cx="34.933" cy="-46.625" r="0.4"/>
		<circle cx="37.621" cy="-46.625" r="0.4"/>
		<circle cx="40.183" cy="-46.625" r="0.4"/>
		<circle cx="42.808" cy="-46.625" r="0.4"/>
		<circle cx="45.433" cy="-46.625" r="0.4"/>
		<circle cx="48.058" cy="-46.625" r="0.4"/>
		<path d="M50.676-47.025c-0.218,0.003-0.394,0.181-0.394,0.4c0,0.219,0.176,0.396,0.394,0.4"/>
		<circle cx="49.433" cy="-45.375" r="0.4"/>
		<circle cx="46.808" cy="-45.375" r="0.4"/>
		<circle cx="44.183" cy="-45.375" r="0.4"/>
		<circle cx="41.558" cy="-45.375" r="0.4"/>
		<circle cx="38.933" cy="-45.375" r="0.4"/>
		<circle cx="36.246" cy="-45.375" r="0.4"/>
		<circle cx="33.683" cy="-45.375" r="0.4"/>
		<circle cx="31.058" cy="-45.375" r="0.4"/>
		<circle cx="28.371" cy="-45.375" r="0.4"/>
		<circle cx="25.808" cy="-45.375" r="0.4"/>
		<circle cx="23.121" cy="-45.375" r="0.4"/>
		<circle cx="20.558" cy="-45.375" r="0.4"/>
		<circle cx="17.933" cy="-45.375" r="0.4"/>
		<circle cx="15.371" cy="-45.375" r="0.4"/>
		<circle cx="12.746" cy="-45.375" r="0.4"/>
		<circle cx="10.121" cy="-45.375" r="0.4"/>
		<circle cx="7.496" cy="-45.375" r="0.4"/>
		<circle cx="4.871" cy="-45.375" r="0.4"/>
		<circle cx="2.183" cy="-45.375" r="0.4"/>
		<path d="M1-43.6c0.219-0.002,0.396-0.18,0.396-0.4S1.219-44.398,1-44.4"/>
		<circle cx="3.558" cy="-44" r="0.4"/>
		<circle cx="6.183" cy="-44" r="0.4"/>
		<circle cx="8.871" cy="-44" r="0.4"/>
		<circle cx="11.433" cy="-44" r="0.4"/>
		<circle cx="13.996" cy="-44" r="0.4"/>
		<circle cx="16.621" cy="-44" r="0.4"/>
		<circle cx="19.246" cy="-44" r="0.4"/>
		<circle cx="21.933" cy="-44" r="0.4"/>
		<circle cx="24.558" cy="-44" r="0.4"/>
		<circle cx="27.058" cy="-44" r="0.4"/>
		<circle cx="29.746" cy="-44" r="0.4"/>
		<circle cx="32.371" cy="-44" r="0.4"/>
		<circle cx="34.933" cy="-44" r="0.4"/>
		<circle cx="37.621" cy="-44" r="0.4"/>
		<circle cx="40.183" cy="-44" r="0.4"/>
		<circle cx="42.808" cy="-44" r="0.4"/>
		<circle cx="45.433" cy="-44" r="0.4"/>
		<circle cx="48.058" cy="-44" r="0.4"/>
		<path d="M50.676-44.4c-0.218,0.003-0.394,0.181-0.394,0.4c0,0.219,0.176,0.396,0.394,0.4"/>
		<circle cx="49.433" cy="-42.75" r="0.4"/>
		<circle cx="46.808" cy="-42.75" r="0.4"/>
		<circle cx="44.183" cy="-42.75" r="0.4"/>
		<circle cx="41.558" cy="-42.75" r="0.4"/>
		<circle cx="38.933" cy="-42.75" r="0.4"/>
		<circle cx="36.246" cy="-42.75" r="0.4"/>
		<circle cx="33.683" cy="-42.75" r="0.4"/>
		<circle cx="31.058" cy="-42.75" r="0.4"/>
		<circle cx="28.371" cy="-42.75" r="0.4"/>
		<circle cx="25.808" cy="-42.75" r="0.4"/>
		<circle cx="23.121" cy="-42.75" r="0.4"/>
		<circle cx="20.558" cy="-42.75" r="0.4"/>
		<circle cx="17.933" cy="-42.75" r="0.4"/>
		<circle cx="15.371" cy="-42.75" r="0.4"/>
		<circle cx="12.746" cy="-42.75" r="0.4"/>
		<circle cx="10.121" cy="-42.75" r="0.4"/>
		<circle cx="7.496" cy="-42.75" r="0.4"/>
		<circle cx="4.871" cy="-42.75" r="0.4"/>
		<circle cx="2.183" cy="-42.75" r="0.4"/>
		<path d="M1-40.975c0.219-0.002,0.396-0.18,0.396-0.4S1.219-41.773,1-41.775"/>
		<circle cx="3.558" cy="-41.375" r="0.4"/>
		<circle cx="6.183" cy="-41.375" r="0.4"/>
		<circle cx="8.871" cy="-41.375" r="0.4"/>
		<circle cx="11.433" cy="-41.375" r="0.4"/>
		<circle cx="13.996" cy="-41.375" r="0.4"/>
		<circle cx="16.621" cy="-41.375" r="0.4"/>
		<circle cx="19.246" cy="-41.375" r="0.4"/>
		<circle cx="21.933" cy="-41.375" r="0.4"/>
		<circle cx="24.558" cy="-41.375" r="0.4"/>
		<circle cx="27.058" cy="-41.375" r="0.4"/>
		<circle cx="29.746" cy="-41.375" r="0.4"/>
		<circle cx="32.371" cy="-41.375" r="0.4"/>
		<circle cx="34.933" cy="-41.375" r="0.4"/>
		<circle cx="37.621" cy="-41.375" r="0.4"/>
		<circle cx="40.183" cy="-41.375" r="0.4"/>
		<circle cx="42.808" cy="-41.375" r="0.4"/>
		<circle cx="45.433" cy="-41.375" r="0.4"/>
		<circle cx="48.058" cy="-41.375" r="0.4"/>
		<path d="M50.676-41.775c-0.218,0.003-0.394,0.181-0.394,0.4c0,0.219,0.176,0.396,0.394,0.4"/>
		<circle cx="49.433" cy="-40.125" r="0.4"/>
		<circle cx="46.808" cy="-40.125" r="0.4"/>
		<circle cx="44.183" cy="-40.125" r="0.4"/>
		<circle cx="41.558" cy="-40.125" r="0.4"/>
		<circle cx="38.933" cy="-40.125" r="0.4"/>
		<circle cx="36.246" cy="-40.125" r="0.4"/>
		<circle cx="33.683" cy="-40.125" r="0.4"/>
		<circle cx="31.058" cy="-40.125" r="0.4"/>
		<circle cx="28.371" cy="-40.125" r="0.4"/>
		<circle cx="25.808" cy="-40.125" r="0.4"/>
		<circle cx="23.121" cy="-40.125" r="0.4"/>
		<circle cx="20.558" cy="-40.125" r="0.4"/>
		<circle cx="17.933" cy="-40.125" r="0.4"/>
		<circle cx="15.371" cy="-40.125" r="0.4"/>
		<circle cx="12.746" cy="-40.125" r="0.4"/>
		<circle cx="10.121" cy="-40.125" r="0.4"/>
		<circle cx="7.496" cy="-40.125" r="0.4"/>
		<circle cx="4.871" cy="-40.125" r="0.4"/>
		<circle cx="2.183" cy="-40.125" r="0.4"/>
		<path d="M1-38.35c0.219-0.002,0.396-0.18,0.396-0.4S1.219-39.148,1-39.15"/>
		<circle cx="3.558" cy="-38.75" r="0.4"/>
		<circle cx="6.183" cy="-38.75" r="0.4"/>
		<circle cx="8.871" cy="-38.75" r="0.4"/>
		<circle cx="11.433" cy="-38.75" r="0.4"/>
		<circle cx="13.996" cy="-38.75" r="0.4"/>
		<circle cx="16.621" cy="-38.75" r="0.4"/>
		<circle cx="19.246" cy="-38.75" r="0.4"/>
		<circle cx="21.933" cy="-38.75" r="0.4"/>
		<circle cx="24.558" cy="-38.75" r="0.4"/>
		<circle cx="27.058" cy="-38.75" r="0.4"/>
		<circle cx="29.746" cy="-38.75" r="0.4"/>
		<circle cx="32.371" cy="-38.75" r="0.4"/>
		<circle cx="34.933" cy="-38.75" r="0.4"/>
		<circle cx="37.621" cy="-38.75" r="0.4"/>
		<circle cx="40.183" cy="-38.75" r="0.4"/>
		<circle cx="42.808" cy="-38.75" r="0.4"/>
		<circle cx="45.433" cy="-38.75" r="0.4"/>
		<circle cx="48.058" cy="-38.75" r="0.4"/>
		<path d="M50.676-39.15c-0.218,0.003-0.394,0.181-0.394,0.4c0,0.219,0.176,0.396,0.394,0.4"/>
		<circle cx="49.433" cy="-37.5" r="0.4"/>
		<circle cx="46.808" cy="-37.5" r="0.4"/>
		<circle cx="44.183" cy="-37.5" r="0.4"/>
		<circle cx="41.558" cy="-37.5" r="0.4"/>
		<circle cx="38.933" cy="-37.5" r="0.4"/>
		<circle cx="36.246" cy="-37.5" r="0.4"/>
		<circle cx="33.683" cy="-37.5" r="0.4"/>
		<circle cx="31.058" cy="-37.5" r="0.4"/>
		<circle cx="28.371" cy="-37.5" r="0.4"/>
		<circle cx="25.808" cy="-37.5" r="0.4"/>
		<circle cx="23.121" cy="-37.5" r="0.4"/>
		<circle cx="20.558" cy="-37.5" r="0.4"/>
		<circle cx="17.933" cy="-37.5" r="0.4"/>
		<circle cx="15.371" cy="-37.5" r="0.4"/>
		<circle cx="12.746" cy="-37.5" r="0.4"/>
		<circle cx="10.121" cy="-37.5" r="0.4"/>
		<circle cx="7.496" cy="-37.5" r="0.4"/>
		<circle cx="4.871" cy="-37.5" r="0.4"/>
		<circle cx="2.183" cy="-37.5" r="0.4"/>
		<path d="M1-35.788c0.219-0.002,0.396-0.18,0.396-0.4S1.219-36.585,1-36.587"/>
		<circle cx="3.558" cy="-36.188" r="0.4"/>
		<circle cx="6.183" cy="-36.188" r="0.4"/>
		<circle cx="8.871" cy="-36.188" r="0.4"/>
		<circle cx="11.433" cy="-36.188" r="0.4"/>
		<circle cx="13.996" cy="-36.188" r="0.4"/>
		<circle cx="16.621" cy="-36.188" r="0.4"/>
		<circle cx="19.246" cy="-36.188" r="0.4"/>
		<circle cx="21.933" cy="-36.188" r="0.4"/>
		<circle cx="24.558" cy="-36.188" r="0.4"/>
		<circle cx="27.058" cy="-36.188" r="0.4"/>
		<circle cx="29.746" cy="-36.188" r="0.4"/>
		<circle cx="32.371" cy="-36.188" r="0.4"/>
		<circle cx="34.933" cy="-36.188" r="0.4"/>
		<circle cx="37.621" cy="-36.188" r="0.4"/>
		<circle cx="40.183" cy="-36.188" r="0.4"/>
		<circle cx="42.808" cy="-36.188" r="0.4"/>
		<circle cx="45.433" cy="-36.188" r="0.4"/>
		<circle cx="48.058" cy="-36.188" r="0.4"/>
		<path d="M50.676-36.587c-0.218,0.003-0.394,0.181-0.394,0.4c0,0.219,0.176,0.396,0.394,0.4"/>
		<circle cx="49.433" cy="-34.938" r="0.4"/>
		<circle cx="46.808" cy="-34.938" r="0.4"/>
		<circle cx="44.183" cy="-34.938" r="0.4"/>
		<circle cx="41.558" cy="-34.938" r="0.4"/>
		<circle cx="38.933" cy="-34.938" r="0.4"/>
		<circle cx="36.246" cy="-34.938" r="0.4"/>
		<circle cx="33.683" cy="-34.938" r="0.4"/>
		<circle cx="31.058" cy="-34.938" r="0.4"/>
		<circle cx="28.371" cy="-34.938" r="0.4"/>
		<circle cx="25.808" cy="-34.938" r="0.4"/>
		<circle cx="23.121" cy="-34.938" r="0.4"/>
		<circle cx="20.558" cy="-34.938" r="0.4"/>
		<circle cx="17.933" cy="-34.938" r="0.4"/>
		<circle cx="15.371" cy="-34.938" r="0.4"/>
		<circle cx="12.746" cy="-34.938" r="0.4"/>
		<circle cx="10.121" cy="-34.938" r="0.4"/>
		<circle cx="7.496" cy="-34.938" r="0.4"/>
		<circle cx="4.871" cy="-34.938" r="0.4"/>
		<circle cx="2.183" cy="-34.938" r="0.4"/>
		<path d="M1-33.163c0.219-0.002,0.396-0.18,0.396-0.4S1.219-33.96,1-33.962"/>
		<circle cx="3.558" cy="-33.562" r="0.4"/>
		<circle cx="6.183" cy="-33.562" r="0.4"/>
		<circle cx="8.871" cy="-33.562" r="0.4"/>
		<circle cx="11.433" cy="-33.562" r="0.4"/>
		<circle cx="13.996" cy="-33.562" r="0.4"/>
		<circle cx="16.621" cy="-33.562" r="0.4"/>
		<circle cx="19.246" cy="-33.562" r="0.4"/>
		<circle cx="21.933" cy="-33.562" r="0.4"/>
		<circle cx="24.558" cy="-33.562" r="0.4"/>
		<circle cx="27.058" cy="-33.562" r="0.4"/>
		<circle cx="29.746" cy="-33.562" r="0.4"/>
		<circle cx="32.371" cy="-33.562" r="0.4"/>
		<circle cx="34.933" cy="-33.562" r="0.4"/>
		<circle cx="37.621" cy="-33.562" r="0.4"/>
		<circle cx="40.183" cy="-33.562" r="0.4"/>
		<circle cx="42.808" cy="-33.562" r="0.4"/>
		<circle cx="45.433" cy="-33.562" r="0.4"/>
		<circle cx="48.058" cy="-33.562" r="0.4"/>
		<path d="M50.676-33.962c-0.218,0.003-0.394,0.181-0.394,0.4c0,0.219,0.176,0.396,0.394,0.4"/>
		<circle cx="49.433" cy="-32.312" r="0.4"/>
		<circle cx="46.808" cy="-32.312" r="0.4"/>
		<circle cx="44.183" cy="-32.312" r="0.4"/>
		<circle cx="41.558" cy="-32.312" r="0.4"/>
		<circle cx="38.933" cy="-32.312" r="0.4"/>
		<circle cx="36.246" cy="-32.312" r="0.4"/>
		<circle cx="33.683" cy="-32.312" r="0.4"/>
		<circle cx="31.058" cy="-32.312" r="0.4"/>
		<circle cx="28.371" cy="-32.312" r="0.4"/>
		<circle cx="25.808" cy="-32.312" r="0.4"/>
		<circle cx="23.121" cy="-32.312" r="0.4"/>
		<circle cx="20.558" cy="-32.312" r="0.4"/>
		<circle cx="17.933" cy="-32.312" r="0.4"/>
		<circle cx="15.371" cy="-32.312" r="0.4"/>
		<circle cx="12.746" cy="-32.312" r="0.4"/>
		<circle cx="10.121" cy="-32.312" r="0.4"/>
		<circle cx="7.496" cy="-32.312" r="0.4"/>
		<circle cx="4.871" cy="-32.312" r="0.4"/>
		<circle cx="2.183" cy="-32.312" r="0.4"/>
		<path d="M1-30.538c0.219-0.002,0.396-0.18,0.396-0.4S1.219-31.335,1-31.337"/>
		<circle cx="3.558" cy="-30.938" r="0.4"/>
		<circle cx="6.183" cy="-30.938" r="0.4"/>
		<circle cx="8.871" cy="-30.938" r="0.4"/>
		<circle cx="11.433" cy="-30.938" r="0.4"/>
		<circle cx="13.996" cy="-30.938" r="0.4"/>
		<circle cx="16.621" cy="-30.938" r="0.4"/>
		<circle cx="19.246" cy="-30.938" r="0.4"/>
		<circle cx="21.933" cy="-30.938" r="0.4"/>
		<circle cx="24.558" cy="-30.938" r="0.4"/>
		<circle cx="27.058" cy="-30.938" r="0.4"/>
		<circle cx="29.746" cy="-30.938" r="0.4"/>
		<circle cx="32.371" cy="-30.938" r="0.4"/>
		<circle cx="34.933" cy="-30.938" r="0.4"/>
		<circle cx="37.621" cy="-30.938" r="0.4"/>
		<circle cx="40.183" cy="-30.938" r="0.4"/>
		<circle cx="42.808" cy="-30.938" r="0.4"/>
		<circle cx="45.433" cy="-30.938" r="0.4"/>
		<circle cx="48.058" cy="-30.938" r="0.4"/>
		<path d="M50.676-31.337c-0.218,0.003-0.394,0.181-0.394,0.4c0,0.219,0.176,0.396,0.394,0.4"/>
		<circle cx="49.433" cy="-29.688" r="0.4"/>
		<circle cx="46.808" cy="-29.688" r="0.4"/>
		<circle cx="44.183" cy="-29.688" r="0.4"/>
		<circle cx="41.558" cy="-29.688" r="0.4"/>
		<circle cx="38.933" cy="-29.688" r="0.4"/>
		<circle cx="36.246" cy="-29.688" r="0.4"/>
		<circle cx="33.683" cy="-29.688" r="0.4"/>
		<circle cx="31.058" cy="-29.688" r="0.4"/>
		<circle cx="28.371" cy="-29.688" r="0.4"/>
		<circle cx="25.808" cy="-29.688" r="0.4"/>
		<circle cx="23.121" cy="-29.688" r="0.4"/>
		<circle cx="20.558" cy="-29.688" r="0.4"/>
		<circle cx="17.933" cy="-29.688" r="0.4"/>
		<circle cx="15.371" cy="-29.688" r="0.4"/>
		<circle cx="12.746" cy="-29.688" r="0.4"/>
		<circle cx="10.121" cy="-29.688" r="0.4"/>
		<circle cx="7.496" cy="-29.688" r="0.4"/>
		<circle cx="4.871" cy="-29.688" r="0.4"/>
		<circle cx="2.183" cy="-29.688" r="0.4"/>
		<path d="M1-27.913c0.219-0.002,0.396-0.18,0.396-0.4S1.219-28.71,1-28.712"/>
		<circle cx="3.558" cy="-28.312" r="0.4"/>
		<circle cx="6.183" cy="-28.312" r="0.4"/>
		<circle cx="8.871" cy="-28.312" r="0.4"/>
		<circle cx="11.433" cy="-28.312" r="0.4"/>
		<circle cx="13.996" cy="-28.312" r="0.4"/>
		<circle cx="16.621" cy="-28.312" r="0.4"/>
		<circle cx="19.246" cy="-28.312" r="0.4"/>
		<circle cx="21.933" cy="-28.312" r="0.4"/>
		<circle cx="24.558" cy="-28.312" r="0.4"/>
		<circle cx="27.058" cy="-28.312" r="0.4"/>
		<circle cx="29.746" cy="-28.312" r="0.4"/>
		<circle cx="32.371" cy="-28.312" r="0.4"/>
		<circle cx="34.933" cy="-28.312" r="0.4"/>
		<circle cx="37.621" cy="-28.312" r="0.4"/>
		<circle cx="40.183" cy="-28.312" r="0.4"/>
		<circle cx="42.808" cy="-28.312" r="0.4"/>
		<circle cx="45.433" cy="-28.312" r="0.4"/>
		<circle cx="48.058" cy="-28.312" r="0.4"/>
		<path d="M50.676-28.712c-0.218,0.003-0.394,0.181-0.394,0.4c0,0.219,0.176,0.396,0.394,0.4"/>
		<circle cx="49.433" cy="-27.062" r="0.4"/>
		<circle cx="46.808" cy="-27.062" r="0.4"/>
		<circle cx="44.183" cy="-27.062" r="0.4"/>
		<circle cx="41.558" cy="-27.062" r="0.4"/>
		<circle cx="38.933" cy="-27.062" r="0.4"/>
		<circle cx="36.246" cy="-27.062" r="0.4"/>
		<circle cx="33.683" cy="-27.062" r="0.4"/>
		<circle cx="31.058" cy="-27.062" r="0.4"/>
		<circle cx="28.371" cy="-27.062" r="0.4"/>
		<circle cx="25.808" cy="-27.062" r="0.4"/>
		<circle cx="23.121" cy="-27.062" r="0.4"/>
		<circle cx="20.558" cy="-27.062" r="0.4"/>
		<circle cx="17.933" cy="-27.062" r="0.4"/>
		<circle cx="15.371" cy="-27.062" r="0.4"/>
		<circle cx="12.746" cy="-27.062" r="0.4"/>
		<circle cx="10.121" cy="-27.062" r="0.4"/>
		<circle cx="7.496" cy="-27.062" r="0.4"/>
		<circle cx="4.871" cy="-27.062" r="0.4"/>
		<circle cx="2.183" cy="-27.062" r="0.4"/>
		<path d="M1-25.35c0.219-0.002,0.396-0.18,0.396-0.4S1.219-26.148,1-26.15"/>
		<circle cx="3.558" cy="-25.75" r="0.4"/>
		<circle cx="6.183" cy="-25.75" r="0.4"/>
		<circle cx="8.871" cy="-25.75" r="0.4"/>
		<circle cx="11.433" cy="-25.75" r="0.4"/>
		<circle cx="13.996" cy="-25.75" r="0.4"/>
		<circle cx="16.621" cy="-25.75" r="0.4"/>
		<circle cx="19.246" cy="-25.75" r="0.4"/>
		<circle cx="21.933" cy="-25.75" r="0.4"/>
		<circle cx="24.558" cy="-25.75" r="0.4"/>
		<circle cx="27.058" cy="-25.75" r="0.4"/>
		<circle cx="29.746" cy="-25.75" r="0.4"/>
		<circle cx="32.371" cy="-25.75" r="0.4"/>
		<circle cx="34.933" cy="-25.75" r="0.4"/>
		<circle cx="37.621" cy="-25.75" r="0.4"/>
		<circle cx="40.183" cy="-25.75" r="0.4"/>
		<circle cx="42.808" cy="-25.75" r="0.4"/>
		<circle cx="45.433" cy="-25.75" r="0.4"/>
		<circle cx="48.058" cy="-25.75" r="0.4"/>
		<path d="M50.676-26.15c-0.218,0.003-0.394,0.181-0.394,0.4c0,0.219,0.176,0.396,0.394,0.4"/>
		<circle cx="49.433" cy="-24.5" r="0.4"/>
		<circle cx="46.808" cy="-24.5" r="0.4"/>
		<circle cx="44.183" cy="-24.5" r="0.4"/>
		<circle cx="41.558" cy="-24.5" r="0.4"/>
		<circle cx="38.933" cy="-24.5" r="0.4"/>
		<circle cx="36.246" cy="-24.5" r="0.4"/>
		<circle cx="33.683" cy="-24.5" r="0.4"/>
		<circle cx="31.058" cy="-24.5" r="0.4"/>
		<circle cx="28.371" cy="-24.5" r="0.4"/>
		<circle cx="25.808" cy="-24.5" r="0.4"/>
		<circle cx="23.121" cy="-24.5" r="0.4"/>
		<circle cx="20.558" cy="-24.5" r="0.4"/>
		<circle cx="17.933" cy="-24.5" r="0.4"/>
		<circle cx="15.371" cy="-24.5" r="0.4"/>
		<circle cx="12.746" cy="-24.5" r="0.4"/>
		<circle cx="10.121" cy="-24.5" r="0.4"/>
		<circle cx="7.496" cy="-24.5" r="0.4"/>
		<circle cx="4.871" cy="-24.5" r="0.4"/>
		<circle cx="2.183" cy="-24.5" r="0.4"/>
		<path d="M1-22.725c0.219-0.002,0.396-0.18,0.396-0.4S1.219-23.523,1-23.525"/>
		<circle cx="3.558" cy="-23.125" r="0.4"/>
		<circle cx="6.183" cy="-23.125" r="0.4"/>
		<circle cx="8.871" cy="-23.125" r="0.4"/>
		<circle cx="11.433" cy="-23.125" r="0.4"/>
		<circle cx="13.996" cy="-23.125" r="0.4"/>
		<circle cx="16.621" cy="-23.125" r="0.4"/>
		<circle cx="19.246" cy="-23.125" r="0.4"/>
		<circle cx="21.933" cy="-23.125" r="0.4"/>
		<circle cx="24.558" cy="-23.125" r="0.4"/>
		<circle cx="27.058" cy="-23.125" r="0.4"/>
		<circle cx="29.746" cy="-23.125" r="0.4"/>
		<circle cx="32.371" cy="-23.125" r="0.4"/>
		<circle cx="34.933" cy="-23.125" r="0.4"/>
		<circle cx="37.621" cy="-23.125" r="0.4"/>
		<circle cx="40.183" cy="-23.125" r="0.4"/>
		<circle cx="42.808" cy="-23.125" r="0.4"/>
		<circle cx="45.433" cy="-23.125" r="0.4"/>
		<circle cx="48.058" cy="-23.125" r="0.4"/>
		<path d="M50.676-23.525c-0.218,0.003-0.394,0.181-0.394,0.4c0,0.219,0.176,0.396,0.394,0.4"/>
		<circle cx="49.433" cy="-21.875" r="0.4"/>
		<circle cx="46.808" cy="-21.875" r="0.4"/>
		<circle cx="44.183" cy="-21.875" r="0.4"/>
		<circle cx="41.558" cy="-21.875" r="0.4"/>
		<circle cx="38.933" cy="-21.875" r="0.4"/>
		<circle cx="36.246" cy="-21.875" r="0.4"/>
		<circle cx="33.683" cy="-21.875" r="0.4"/>
		<circle cx="31.058" cy="-21.875" r="0.4"/>
		<circle cx="28.371" cy="-21.875" r="0.4"/>
		<circle cx="25.808" cy="-21.875" r="0.4"/>
		<circle cx="23.121" cy="-21.875" r="0.4"/>
		<circle cx="20.558" cy="-21.875" r="0.4"/>
		<circle cx="17.933" cy="-21.875" r="0.4"/>
		<circle cx="15.371" cy="-21.875" r="0.4"/>
		<circle cx="12.746" cy="-21.875" r="0.4"/>
		<circle cx="10.121" cy="-21.875" r="0.4"/>
		<circle cx="7.496" cy="-21.875" r="0.4"/>
		<circle cx="4.871" cy="-21.875" r="0.4"/>
		<circle cx="2.183" cy="-21.875" r="0.4"/>
		<path d="M1-20.1c0.219-0.002,0.396-0.18,0.396-0.4S1.219-20.898,1-20.9"/>
		<circle cx="3.558" cy="-20.5" r="0.4"/>
		<circle cx="6.183" cy="-20.5" r="0.4"/>
		<circle cx="8.871" cy="-20.5" r="0.4"/>
		<circle cx="11.433" cy="-20.5" r="0.4"/>
		<circle cx="13.996" cy="-20.5" r="0.4"/>
		<circle cx="16.621" cy="-20.5" r="0.4"/>
		<circle cx="19.246" cy="-20.5" r="0.4"/>
		<circle cx="21.933" cy="-20.5" r="0.4"/>
		<circle cx="24.558" cy="-20.5" r="0.4"/>
		<circle cx="27.058" cy="-20.5" r="0.4"/>
		<circle cx="29.746" cy="-20.5" r="0.4"/>
		<circle cx="32.371" cy="-20.5" r="0.4"/>
		<circle cx="34.933" cy="-20.5" r="0.4"/>
		<circle cx="37.621" cy="-20.5" r="0.4"/>
		<circle cx="40.183" cy="-20.5" r="0.4"/>
		<circle cx="42.808" cy="-20.5" r="0.4"/>
		<circle cx="45.433" cy="-20.5" r="0.4"/>
		<circle cx="48.058" cy="-20.5" r="0.4"/>
		<path d="M50.676-20.9c-0.218,0.003-0.394,0.181-0.394,0.4c0,0.219,0.176,0.396,0.394,0.4"/>
		<circle cx="49.433" cy="-19.25" r="0.4"/>
		<circle cx="46.808" cy="-19.25" r="0.4"/>
		<circle cx="44.183" cy="-19.25" r="0.4"/>
		<circle cx="41.558" cy="-19.25" r="0.4"/>
		<circle cx="38.933" cy="-19.25" r="0.4"/>
		<circle cx="36.246" cy="-19.25" r="0.4"/>
		<circle cx="33.683" cy="-19.25" r="0.4"/>
		<circle cx="31.058" cy="-19.25" r="0.4"/>
		<circle cx="28.371" cy="-19.25" r="0.4"/>
		<circle cx="25.808" cy="-19.25" r="0.4"/>
		<circle cx="23.121" cy="-19.25" r="0.4"/>
		<circle cx="20.558" cy="-19.25" r="0.4"/>
		<circle cx="17.933" cy="-19.25" r="0.4"/>
		<circle cx="15.371" cy="-19.25" r="0.4"/>
		<circle cx="12.746" cy="-19.25" r="0.4"/>
		<circle cx="10.121" cy="-19.25" r="0.4"/>
		<circle cx="7.496" cy="-19.25" r="0.4"/>
		<circle cx="4.871" cy="-19.25" r="0.4"/>
		<circle cx="2.183" cy="-19.25" r="0.4"/>
		<path d="M1-17.475c0.219-0.002,0.396-0.18,0.396-0.4S1.219-18.273,1-18.275"/>
		<circle cx="3.558" cy="-17.875" r="0.4"/>
		<circle cx="6.183" cy="-17.875" r="0.4"/>
		<circle cx="8.871" cy="-17.875" r="0.4"/>
		<circle cx="11.433" cy="-17.875" r="0.4"/>
		<circle cx="13.996" cy="-17.875" r="0.4"/>
		<circle cx="16.621" cy="-17.875" r="0.4"/>
		<circle cx="19.246" cy="-17.875" r="0.4"/>
		<circle cx="21.933" cy="-17.875" r="0.4"/>
		<circle cx="24.558" cy="-17.875" r="0.4"/>
		<circle cx="27.058" cy="-17.875" r="0.4"/>
		<circle cx="29.746" cy="-17.875" r="0.4"/>
		<circle cx="32.371" cy="-17.875" r="0.4"/>
		<circle cx="34.933" cy="-17.875" r="0.4"/>
		<circle cx="37.621" cy="-17.875" r="0.4"/>
		<circle cx="40.183" cy="-17.875" r="0.4"/>
		<circle cx="42.808" cy="-17.875" r="0.4"/>
		<circle cx="45.433" cy="-17.875" r="0.4"/>
		<circle cx="48.058" cy="-17.875" r="0.4"/>
		<path d="M50.676-18.275c-0.218,0.003-0.394,0.181-0.394,0.4c0,0.219,0.176,0.396,0.394,0.4"/>
		<circle cx="49.433" cy="-16.625" r="0.4"/>
		<circle cx="46.808" cy="-16.625" r="0.4"/>
		<circle cx="44.183" cy="-16.625" r="0.4"/>
		<circle cx="41.558" cy="-16.625" r="0.4"/>
		<circle cx="38.933" cy="-16.625" r="0.4"/>
		<circle cx="36.246" cy="-16.625" r="0.4"/>
		<circle cx="33.683" cy="-16.625" r="0.4"/>
		<circle cx="31.058" cy="-16.625" r="0.4"/>
		<circle cx="28.371" cy="-16.625" r="0.4"/>
		<circle cx="25.808" cy="-16.625" r="0.4"/>
		<circle cx="23.121" cy="-16.625" r="0.4"/>
		<circle cx="20.558" cy="-16.625" r="0.4"/>
		<circle cx="17.933" cy="-16.625" r="0.4"/>
		<circle cx="15.371" cy="-16.625" r="0.4"/>
		<circle cx="12.746" cy="-16.625" r="0.4"/>
		<circle cx="10.121" cy="-16.625" r="0.4"/>
		<circle cx="7.496" cy="-16.625" r="0.4"/>
		<circle cx="4.871" cy="-16.625" r="0.4"/>
		<circle cx="2.183" cy="-16.625" r="0.4"/>
		<path d="M1-14.975c0.219-0.002,0.396-0.18,0.396-0.4S1.219-15.773,1-15.775"/>
		<circle cx="3.558" cy="-15.375" r="0.4"/>
		<circle cx="6.183" cy="-15.375" r="0.4"/>
		<circle cx="8.871" cy="-15.375" r="0.4"/>
		<circle cx="11.433" cy="-15.375" r="0.4"/>
		<circle cx="13.996" cy="-15.375" r="0.4"/>
		<circle cx="16.621" cy="-15.375" r="0.4"/>
		<circle cx="19.246" cy="-15.375" r="0.4"/>
		<circle cx="21.933" cy="-15.375" r="0.4"/>
		<circle cx="24.558" cy="-15.375" r="0.4"/>
		<circle cx="27.058" cy="-15.375" r="0.4"/>
		<circle cx="29.746" cy="-15.375" r="0.4"/>
		<circle cx="32.371" cy="-15.375" r="0.4"/>
		<circle cx="34.933" cy="-15.375" r="0.4"/>
		<circle cx="37.621" cy="-15.375" r="0.4"/>
		<circle cx="40.183" cy="-15.375" r="0.4"/>
		<circle cx="42.808" cy="-15.375" r="0.4"/>
		<circle cx="45.433" cy="-15.375" r="0.4"/>
		<circle cx="48.058" cy="-15.375" r="0.4"/>
		<path d="M50.676-15.775c-0.218,0.003-0.394,0.181-0.394,0.4c0,0.219,0.176,0.396,0.394,0.4"/>
		<circle cx="49.433" cy="-14.125" r="0.4"/>
		<circle cx="46.808" cy="-14.125" r="0.4"/>
		<circle cx="44.183" cy="-14.125" r="0.4"/>
		<circle cx="41.558" cy="-14.125" r="0.4"/>
		<circle cx="38.933" cy="-14.125" r="0.4"/>
		<circle cx="36.246" cy="-14.125" r="0.4"/>
		<circle cx="33.683" cy="-14.125" r="0.4"/>
		<circle cx="31.058" cy="-14.125" r="0.4"/>
		<circle cx="28.371" cy="-14.125" r="0.4"/>
		<circle cx="25.808" cy="-14.125" r="0.4"/>
		<circle cx="23.121" cy="-14.125" r="0.4"/>
		<circle cx="20.558" cy="-14.125" r="0.4"/>
		<circle cx="17.933" cy="-14.125" r="0.4"/>
		<circle cx="15.371" cy="-14.125" r="0.4"/>
		<circle cx="12.746" cy="-14.125" r="0.4"/>
		<circle cx="10.121" cy="-14.125" r="0.4"/>
		<circle cx="7.496" cy="-14.125" r="0.4"/>
		<circle cx="4.871" cy="-14.125" r="0.4"/>
		<circle cx="2.183" cy="-14.125" r="0.4"/>
		<path d="M1-12.288c0.219-0.002,0.396-0.18,0.396-0.4S1.219-13.085,1-13.087"/>
		<circle cx="3.558" cy="-12.688" r="0.4"/>
		<circle cx="6.183" cy="-12.688" r="0.4"/>
		<circle cx="8.871" cy="-12.688" r="0.4"/>
		<circle cx="11.433" cy="-12.688" r="0.4"/>
		<circle cx="13.996" cy="-12.688" r="0.4"/>
		<circle cx="16.621" cy="-12.688" r="0.4"/>
		<circle cx="19.246" cy="-12.688" r="0.4"/>
		<circle cx="21.933" cy="-12.688" r="0.4"/>
		<circle cx="24.558" cy="-12.688" r="0.4"/>
		<circle cx="27.058" cy="-12.688" r="0.4"/>
		<circle cx="29.746" cy="-12.688" r="0.4"/>
		<circle cx="32.371" cy="-12.688" r="0.4"/>
		<circle cx="34.933" cy="-12.688" r="0.4"/>
		<circle cx="37.621" cy="-12.688" r="0.4"/>
		<circle cx="40.183" cy="-12.688" r="0.4"/>
		<circle cx="42.808" cy="-12.688" r="0.4"/>
		<circle cx="45.433" cy="-12.688" r="0.4"/>
		<circle cx="48.058" cy="-12.688" r="0.4"/>
		<path d="M50.676-13.087c-0.218,0.003-0.394,0.181-0.394,0.4c0,0.219,0.176,0.396,0.394,0.4"/>
		<circle cx="49.433" cy="-11.438" r="0.4"/>
		<circle cx="46.808" cy="-11.438" r="0.4"/>
		<circle cx="44.183" cy="-11.438" r="0.4"/>
		<circle cx="41.558" cy="-11.438" r="0.4"/>
		<circle cx="38.933" cy="-11.438" r="0.4"/>
		<circle cx="36.246" cy="-11.438" r="0.4"/>
		<circle cx="33.683" cy="-11.438" r="0.4"/>
		<circle cx="31.058" cy="-11.438" r="0.4"/>
		<circle cx="28.371" cy="-11.438" r="0.4"/>
		<circle cx="25.808" cy="-11.438" r="0.4"/>
		<circle cx="23.121" cy="-11.438" r="0.4"/>
		<circle cx="20.558" cy="-11.438" r="0.4"/>
		<circle cx="17.933" cy="-11.438" r="0.4"/>
		<circle cx="15.371" cy="-11.438" r="0.4"/>
		<circle cx="12.746" cy="-11.438" r="0.4"/>
		<circle cx="10.121" cy="-11.438" r="0.4"/>
		<circle cx="7.496" cy="-11.438" r="0.4"/>
		<circle cx="4.871" cy="-11.438" r="0.4"/>
		<circle cx="2.183" cy="-11.438" r="0.4"/>
		<path d="M1-9.725c0.219-0.002,0.396-0.18,0.396-0.4S1.219-10.523,1-10.525"/>
		<circle cx="3.558" cy="-10.125" r="0.4"/>
		<circle cx="6.183" cy="-10.125" r="0.4"/>
		<circle cx="8.871" cy="-10.125" r="0.4"/>
		<circle cx="11.433" cy="-10.125" r="0.4"/>
		<circle cx="13.996" cy="-10.125" r="0.4"/>
		<circle cx="16.621" cy="-10.125" r="0.4"/>
		<circle cx="19.246" cy="-10.125" r="0.4"/>
		<circle cx="21.933" cy="-10.125" r="0.4"/>
		<circle cx="24.558" cy="-10.125" r="0.4"/>
		<circle cx="27.058" cy="-10.125" r="0.4"/>
		<circle cx="29.746" cy="-10.125" r="0.4"/>
		<circle cx="32.371" cy="-10.125" r="0.4"/>
		<circle cx="34.933" cy="-10.125" r="0.4"/>
		<circle cx="37.621" cy="-10.125" r="0.4"/>
		<circle cx="40.183" cy="-10.125" r="0.4"/>
		<circle cx="42.808" cy="-10.125" r="0.4"/>
		<circle cx="45.433" cy="-10.125" r="0.4"/>
		<circle cx="48.058" cy="-10.125" r="0.4"/>
		<path d="M50.676-10.525c-0.218,0.003-0.394,0.181-0.394,0.4c0,0.219,0.176,0.396,0.394,0.4"/>
		<circle cx="49.433" cy="-8.875" r="0.4"/>
		<circle cx="46.808" cy="-8.875" r="0.4"/>
		<circle cx="44.183" cy="-8.875" r="0.4"/>
		<circle cx="41.558" cy="-8.875" r="0.4"/>
		<circle cx="38.933" cy="-8.875" r="0.4"/>
		<circle cx="36.246" cy="-8.875" r="0.4"/>
		<circle cx="33.683" cy="-8.875" r="0.4"/>
		<circle cx="31.058" cy="-8.875" r="0.4"/>
		<circle cx="28.371" cy="-8.875" r="0.4"/>
		<circle cx="25.808" cy="-8.875" r="0.4"/>
		<circle cx="23.121" cy="-8.875" r="0.4"/>
		<circle cx="20.558" cy="-8.875" r="0.4"/>
		<circle cx="17.933" cy="-8.875" r="0.4"/>
		<circle cx="15.371" cy="-8.875" r="0.4"/>
		<circle cx="12.746" cy="-8.875" r="0.4"/>
		<circle cx="10.121" cy="-8.875" r="0.4"/>
		<circle cx="7.496" cy="-8.875" r="0.4"/>
		<circle cx="4.871" cy="-8.875" r="0.4"/>
		<circle cx="2.183" cy="-8.875" r="0.4"/>
		<path d="M1-7.1c0.219-0.002,0.396-0.18,0.396-0.4S1.219-7.898,1-7.9"/>
		<circle cx="3.558" cy="-7.5" r="0.4"/>
		<circle cx="6.183" cy="-7.5" r="0.4"/>
		<circle cx="8.871" cy="-7.5" r="0.4"/>
		<circle cx="11.433" cy="-7.5" r="0.4"/>
		<circle cx="13.996" cy="-7.5" r="0.4"/>
		<circle cx="16.621" cy="-7.5" r="0.4"/>
		<circle cx="19.246" cy="-7.5" r="0.4"/>
		<circle cx="21.933" cy="-7.5" r="0.4"/>
		<circle cx="24.558" cy="-7.5" r="0.4"/>
		<circle cx="27.058" cy="-7.5" r="0.4"/>
		<circle cx="29.746" cy="-7.5" r="0.4"/>
		<circle cx="32.371" cy="-7.5" r="0.4"/>
		<circle cx="34.933" cy="-7.5" r="0.4"/>
		<circle cx="37.621" cy="-7.5" r="0.4"/>
		<circle cx="40.183" cy="-7.5" r="0.4"/>
		<circle cx="42.808" cy="-7.5" r="0.4"/>
		<circle cx="45.433" cy="-7.5" r="0.4"/>
		<circle cx="48.058" cy="-7.5" r="0.4"/>
		<path d="M50.676-7.9c-0.218,0.003-0.394,0.181-0.394,0.4c0,0.219,0.176,0.397,0.394,0.4"/>
		<circle cx="49.433" cy="-6.25" r="0.4"/>
		<circle cx="46.808" cy="-6.25" r="0.4"/>
		<circle cx="44.183" cy="-6.25" r="0.4"/>
		<circle cx="41.558" cy="-6.25" r="0.4"/>
		<circle cx="38.933" cy="-6.25" r="0.4"/>
		<circle cx="36.246" cy="-6.25" r="0.4"/>
		<circle cx="33.683" cy="-6.25" r="0.4"/>
		<circle cx="31.058" cy="-6.25" r="0.4"/>
		<circle cx="28.371" cy="-6.25" r="0.4"/>
		<circle cx="25.808" cy="-6.25" r="0.4"/>
		<circle cx="23.121" cy="-6.25" r="0.4"/>
		<circle cx="20.558" cy="-6.25" r="0.4"/>
		<circle cx="17.933" cy="-6.25" r="0.4"/>
		<circle cx="15.371" cy="-6.25" r="0.4"/>
		<circle cx="12.746" cy="-6.25" r="0.4"/>
		<circle cx="10.121" cy="-6.25" r="0.4"/>
		<circle cx="7.496" cy="-6.25" r="0.4"/>
		<circle cx="4.871" cy="-6.25" r="0.4"/>
		<circle cx="2.183" cy="-6.25" r="0.4"/>
		<path d="M1-4.475c0.219-0.002,0.396-0.18,0.396-0.4S1.219-5.273,1-5.275"/>
		<circle cx="3.558" cy="-4.875" r="0.4"/>
		<circle cx="6.183" cy="-4.875" r="0.4"/>
		<circle cx="8.871" cy="-4.875" r="0.4"/>
		<circle cx="11.433" cy="-4.875" r="0.4"/>
		<circle cx="13.996" cy="-4.875" r="0.4"/>
		<circle cx="16.621" cy="-4.875" r="0.4"/>
		<circle cx="19.246" cy="-4.875" r="0.4"/>
		<circle cx="21.933" cy="-4.875" r="0.4"/>
		<circle cx="24.558" cy="-4.875" r="0.4"/>
		<circle cx="27.058" cy="-4.875" r="0.4"/>
		<circle cx="29.746" cy="-4.875" r="0.4"/>
		<circle cx="32.371" cy="-4.875" r="0.4"/>
		<circle cx="34.933" cy="-4.875" r="0.4"/>
		<circle cx="37.621" cy="-4.875" r="0.4"/>
		<circle cx="40.183" cy="-4.875" r="0.4"/>
		<circle cx="42.808" cy="-4.875" r="0.4"/>
		<circle cx="45.433" cy="-4.875" r="0.4"/>
		<circle cx="48.058" cy="-4.875" r="0.4"/>
		<path d="M50.676-5.275c-0.218,0.003-0.394,0.181-0.394,0.4c0,0.219,0.176,0.397,0.394,0.4"/>
		<circle cx="49.433" cy="-3.625" r="0.4"/>
		<circle cx="46.808" cy="-3.625" r="0.4"/>
		<circle cx="44.183" cy="-3.625" r="0.4"/>
		<circle cx="41.558" cy="-3.625" r="0.4"/>
		<circle cx="38.933" cy="-3.625" r="0.4"/>
		<circle cx="36.246" cy="-3.625" r="0.4"/>
		<circle cx="33.683" cy="-3.625" r="0.4"/>
		<circle cx="31.058" cy="-3.625" r="0.4"/>
		<circle cx="28.371" cy="-3.625" r="0.4"/>
		<circle cx="25.808" cy="-3.625" r="0.4"/>
		<circle cx="23.121" cy="-3.625" r="0.4"/>
		<circle cx="20.558" cy="-3.625" r="0.4"/>
		<circle cx="17.933" cy="-3.625" r="0.4"/>
		<circle cx="15.371" cy="-3.625" r="0.4"/>
		<circle cx="12.746" cy="-3.625" r="0.4"/>
		<circle cx="10.121" cy="-3.625" r="0.4"/>
		<circle cx="7.496" cy="-3.625" r="0.4"/>
		<circle cx="4.871" cy="-3.625" r="0.4"/>
		<circle cx="2.183" cy="-3.625" r="0.4"/>
		<path d="M1-1.85c0.219-0.002,0.396-0.18,0.396-0.4S1.219-2.648,1-2.65"/>
		<circle cx="3.558" cy="-2.25" r="0.4"/>
		<circle cx="6.183" cy="-2.25" r="0.4"/>
		<circle cx="8.871" cy="-2.25" r="0.4"/>
		<circle cx="11.433" cy="-2.25" r="0.4"/>
		<circle cx="13.996" cy="-2.25" r="0.4"/>
		<circle cx="16.621" cy="-2.25" r="0.4"/>
		<circle cx="19.246" cy="-2.25" r="0.4"/>
		<circle cx="21.933" cy="-2.25" r="0.4"/>
		<circle cx="24.558" cy="-2.25" r="0.4"/>
		<circle cx="27.058" cy="-2.25" r="0.4"/>
		<circle cx="29.746" cy="-2.25" r="0.4"/>
		<circle cx="32.371" cy="-2.25" r="0.4"/>
		<circle cx="34.933" cy="-2.25" r="0.4"/>
		<circle cx="37.621" cy="-2.25" r="0.4"/>
		<circle cx="40.183" cy="-2.25" r="0.4"/>
		<circle cx="42.808" cy="-2.25" r="0.4"/>
		<circle cx="45.433" cy="-2.25" r="0.4"/>
		<circle cx="48.058" cy="-2.25" r="0.4"/>
		<path d="M50.676-2.65c-0.218,0.003-0.394,0.181-0.394,0.4c0,0.219,0.176,0.396,0.394,0.4"/>
		<path d="M49.833-1c0-0.221-0.179-0.4-0.4-0.4c-0.221,0-0.4,0.179-0.4,0.4"/>
		<path d="M47.208-1c0-0.221-0.179-0.4-0.4-0.4c-0.221,0-0.4,0.179-0.4,0.4"/>
		<path d="M44.583-1c0-0.221-0.179-0.4-0.4-0.4c-0.221,0-0.4,0.179-0.4,0.4"/>
		<path d="M41.958-1c0-0.221-0.179-0.4-0.4-0.4c-0.221,0-0.4,0.179-0.4,0.4"/>
		<path d="M39.333-1c0-0.221-0.179-0.4-0.4-0.4c-0.221,0-0.4,0.179-0.4,0.4"/>
		<path d="M36.646-1c0-0.221-0.179-0.4-0.4-0.4c-0.221,0-0.4,0.179-0.4,0.4"/>
		<path d="M34.083-1c0-0.221-0.179-0.4-0.4-0.4c-0.221,0-0.4,0.179-0.4,0.4"/>
		<path d="M31.458-1c0-0.221-0.179-0.4-0.4-0.4c-0.221,0-0.4,0.179-0.4,0.4"/>
		<path d="M28.771-1c0-0.221-0.179-0.4-0.4-0.4c-0.221,0-0.4,0.179-0.4,0.4"/>
		<path d="M26.208-1c0-0.221-0.179-0.4-0.4-0.4c-0.221,0-0.4,0.179-0.4,0.4"/>
		<path d="M23.521-1c0-0.221-0.179-0.4-0.4-0.4c-0.221,0-0.4,0.179-0.4,0.4"/>
		<path d="M20.958-1c0-0.221-0.179-0.4-0.4-0.4c-0.221,0-0.4,0.179-0.4,0.4"/>
		<path d="M18.333-1c0-0.221-0.179-0.4-0.4-0.4c-0.221,0-0.4,0.179-0.4,0.4"/>
		<path d="M15.771-1c0-0.221-0.179-0.4-0.4-0.4s-0.4,0.179-0.4,0.4"/>
		<path d="M13.146-1c0-0.221-0.179-0.4-0.4-0.4s-0.4,0.179-0.4,0.4"/>
		<path d="M10.521-1c0-0.221-0.179-0.4-0.4-0.4S9.72-1.221,9.72-1"/>
		<path d="M7.896-1c0-0.221-0.179-0.4-0.4-0.4s-0.4,0.179-0.4,0.4"/>
		<path d="M5.271-1c0-0.221-0.179-0.4-0.4-0.4S4.47-1.221,4.47-1"/>
		<path d="M2.583-1c0-0.221-0.179-0.4-0.4-0.4s-0.4,0.179-0.4,0.4"/>
	</g>
</svg>
