<svg xmlns="http://www.w3.org/2000/svg" width="49.68" height="49.5"><path fill="none" d="M0 0h49.68v49.5H0z"/><path d="M48.03 0c0 .22.18.4.4.4s.4-.18.4-.4M45.4 0c0 .22.2.4.4.4s.4-.18.4-.4m-3.42 0c0 .22.18.4.4.4s.4-.18.4-.4m-3.42 0c0 .22.18.4.4.4s.4-.18.4-.4m-3.43 0c0 .22.18.4.4.4s.4-.18.4-.4m-3.49 0c0 .22.18.4.4.4s.4-.18.4-.4m-3.36 0c0 .22.18.4.4.4s.4-.18.4-.4m-3.42 0c0 .22.18.4.4.4s.4-.18.4-.4m-3.49 0c0 .22.18.4.4.4s.4-.18.4-.4M24.4 0c0 .22.2.4.4.4s.4-.18.4-.4m-3.48 0c0 .22.18.4.4.4s.4-.18.4-.4m-3.36 0c0 .22.18.4.4.4s.4-.18.4-.4m-3.43 0c0 .22.18.4.4.4s.4-.18.4-.4m-3.36 0c0 .22.18.4.4.4s.4-.18.4-.4m-3.42 0c0 .22.17.4.4.4s.4-.18.4-.4M8.72 0c0 .22.18.4.4.4s.4-.18.4-.4M6.1 0c0 .22.17.4.4.4s.4-.18.4-.4M3.47 0c0 .22.18.4.4.4s.4-.18.4-.4M.78 0c0 .22.18.4.4.4s.4-.18.4-.4M0 1.7c.22 0 .4-.17.4-.4S.22.93 0 .92"/><circle cx="2.56" cy="1.31" r=".4"/><circle cx="5.18" cy="1.31" r=".4"/><circle cx="7.87" cy="1.31" r=".4"/><circle cx="10.43" cy="1.31" r=".4"/><circle cx="13" cy="1.31" r=".4"/><circle cx="15.62" cy="1.31" r=".4"/><circle cx="18.25" cy="1.31" r=".4"/><circle cx="20.93" cy="1.31" r=".4"/><circle cx="23.56" cy="1.31" r=".4"/><circle cx="26.06" cy="1.31" r=".4"/><circle cx="28.75" cy="1.31" r=".4"/><circle cx="31.37" cy="1.31" r=".4"/><circle cx="33.93" cy="1.31" r=".4"/><circle cx="36.62" cy="1.31" r=".4"/><circle cx="39.18" cy="1.31" r=".4"/><circle cx="41.81" cy="1.31" r=".4"/><circle cx="44.43" cy="1.31" r=".4"/><circle cx="47.06" cy="1.31" r=".4"/><path d="M49.68.92c-.22 0-.4.18-.4.4s.18.4.4.4"/><circle cx="48.43" cy="2.56" r=".4"/><circle cx="45.81" cy="2.56" r=".4"/><circle cx="43.18" cy="2.56" r=".4"/><circle cx="40.56" cy="2.56" r=".4"/><circle cx="37.93" cy="2.56" r=".4"/><circle cx="35.25" cy="2.56" r=".4"/><circle cx="32.68" cy="2.56" r=".4"/><circle cx="30.06" cy="2.56" r=".4"/><circle cx="27.37" cy="2.56" r=".4"/><circle cx="24.81" cy="2.56" r=".4"/><circle cx="22.12" cy="2.56" r=".4"/><circle cx="19.56" cy="2.56" r=".4"/><circle cx="16.93" cy="2.56" r=".4"/><circle cx="14.37" cy="2.56" r=".4"/><circle cx="11.75" cy="2.56" r=".4"/><circle cx="9.12" cy="2.56" r=".4"/><circle cx="6.5" cy="2.56" r=".4"/><circle cx="3.87" cy="2.56" r=".4"/><circle cx="1.18" cy="2.56" r=".4"/><path d="M0 4.28c.22 0 .4-.18.4-.4s-.18-.4-.4-.4"/><circle cx="2.56" cy="3.88" r=".4"/><circle cx="5.18" cy="3.88" r=".4"/><circle cx="7.87" cy="3.88" r=".4"/><circle cx="10.43" cy="3.88" r=".4"/><circle cx="13" cy="3.88" r=".4"/><circle cx="15.62" cy="3.88" r=".4"/><circle cx="18.25" cy="3.88" r=".4"/><circle cx="20.93" cy="3.88" r=".4"/><circle cx="23.56" cy="3.88" r=".4"/><circle cx="26.06" cy="3.88" r=".4"/><circle cx="28.75" cy="3.88" r=".4"/><circle cx="31.37" cy="3.88" r=".4"/><circle cx="33.93" cy="3.88" r=".4"/><circle cx="36.62" cy="3.88" r=".4"/><circle cx="39.18" cy="3.88" r=".4"/><circle cx="41.81" cy="3.88" r=".4"/><circle cx="44.43" cy="3.88" r=".4"/><circle cx="47.06" cy="3.88" r=".4"/><path d="M49.68 3.48c-.22 0-.4.18-.4.4s.18.4.4.4"/><circle cx="48.43" cy="5.13" r=".4"/><circle cx="45.81" cy="5.13" r=".4"/><circle cx="43.18" cy="5.13" r=".4"/><circle cx="40.56" cy="5.13" r=".4"/><circle cx="37.93" cy="5.13" r=".4"/><circle cx="35.25" cy="5.13" r=".4"/><circle cx="32.68" cy="5.13" r=".4"/><circle cx="30.06" cy="5.13" r=".4"/><circle cx="27.37" cy="5.13" r=".4"/><circle cx="24.81" cy="5.13" r=".4"/><circle cx="22.12" cy="5.13" r=".4"/><circle cx="19.56" cy="5.13" r=".4"/><circle cx="16.93" cy="5.13" r=".4"/><circle cx="14.37" cy="5.13" r=".4"/><circle cx="11.75" cy="5.13" r=".4"/><circle cx="9.12" cy="5.13" r=".4"/><circle cx="6.5" cy="5.13" r=".4"/><circle cx="3.87" cy="5.13" r=".4"/><circle cx="1.18" cy="5.13" r=".4"/><path d="M0 6.9c.22 0 .4-.18.4-.4s-.18-.4-.4-.4"/><circle cx="2.56" cy="6.5" r=".4"/><circle cx="5.18" cy="6.5" r=".4"/><circle cx="7.87" cy="6.5" r=".4"/><circle cx="10.43" cy="6.5" r=".4"/><circle cx="13" cy="6.5" r=".4"/><circle cx="15.62" cy="6.5" r=".4"/><circle cx="18.25" cy="6.5" r=".4"/><circle cx="20.93" cy="6.5" r=".4"/><circle cx="23.56" cy="6.5" r=".4"/><circle cx="26.06" cy="6.5" r=".4"/><circle cx="28.75" cy="6.5" r=".4"/><circle cx="31.37" cy="6.5" r=".4"/><circle cx="33.93" cy="6.5" r=".4"/><circle cx="36.62" cy="6.5" r=".4"/><circle cx="39.18" cy="6.5" r=".4"/><circle cx="41.81" cy="6.5" r=".4"/><circle cx="44.43" cy="6.5" r=".4"/><circle cx="47.06" cy="6.5" r=".4"/><path d="M49.68 6.1c-.22 0-.4.18-.4.4s.18.4.4.4"/><circle cx="48.43" cy="7.75" r=".4"/><circle cx="45.81" cy="7.75" r=".4"/><circle cx="43.18" cy="7.75" r=".4"/><circle cx="40.56" cy="7.75" r=".4"/><circle cx="37.93" cy="7.75" r=".4"/><circle cx="35.25" cy="7.75" r=".4"/><circle cx="32.68" cy="7.75" r=".4"/><circle cx="30.06" cy="7.75" r=".4"/><circle cx="27.37" cy="7.75" r=".4"/><circle cx="24.81" cy="7.75" r=".4"/><circle cx="22.12" cy="7.75" r=".4"/><circle cx="19.56" cy="7.75" r=".4"/><circle cx="16.93" cy="7.75" r=".4"/><circle cx="14.37" cy="7.75" r=".4"/><circle cx="11.75" cy="7.75" r=".4"/><circle cx="9.12" cy="7.75" r=".4"/><circle cx="6.5" cy="7.75" r=".4"/><circle cx="3.87" cy="7.75" r=".4"/><circle cx="1.18" cy="7.75" r=".4"/><path d="M0 9.53c.22 0 .4-.18.4-.4s-.18-.4-.4-.4"/><circle cx="2.56" cy="9.13" r=".4"/><circle cx="5.18" cy="9.13" r=".4"/><circle cx="7.87" cy="9.13" r=".4"/><circle cx="10.43" cy="9.13" r=".4"/><circle cx="13" cy="9.13" r=".4"/><circle cx="15.62" cy="9.13" r=".4"/><circle cx="18.25" cy="9.13" r=".4"/><circle cx="20.93" cy="9.13" r=".4"/><circle cx="23.56" cy="9.13" r=".4"/><circle cx="26.06" cy="9.13" r=".4"/><circle cx="28.75" cy="9.13" r=".4"/><circle cx="31.37" cy="9.13" r=".4"/><circle cx="33.93" cy="9.13" r=".4"/><circle cx="36.62" cy="9.13" r=".4"/><circle cx="39.18" cy="9.13" r=".4"/><circle cx="41.81" cy="9.13" r=".4"/><circle cx="44.43" cy="9.13" r=".4"/><circle cx="47.06" cy="9.13" r=".4"/><path d="M49.68 8.73c-.22 0-.4.18-.4.4s.18.4.4.4"/><circle cx="48.43" cy="10.38" r=".4"/><circle cx="45.81" cy="10.38" r=".4"/><circle cx="43.18" cy="10.38" r=".4"/><circle cx="40.56" cy="10.38" r=".4"/><circle cx="37.93" cy="10.38" r=".4"/><circle cx="35.25" cy="10.38" r=".4"/><circle cx="32.68" cy="10.38" r=".4"/><circle cx="30.06" cy="10.38" r=".4"/><circle cx="27.37" cy="10.38" r=".4"/><circle cx="24.81" cy="10.38" r=".4"/><circle cx="22.12" cy="10.38" r=".4"/><circle cx="19.56" cy="10.38" r=".4"/><circle cx="16.93" cy="10.38" r=".4"/><circle cx="14.37" cy="10.38" r=".4"/><circle cx="11.75" cy="10.38" r=".4"/><circle cx="9.12" cy="10.38" r=".4"/><circle cx="6.5" cy="10.38" r=".4"/><circle cx="3.87" cy="10.38" r=".4"/><circle cx="1.18" cy="10.38" r=".4"/><path d="M0 12.15c.22 0 .4-.18.4-.4s-.18-.4-.4-.4"/><circle cx="2.56" cy="11.75" r=".4"/><circle cx="5.18" cy="11.75" r=".4"/><circle cx="7.87" cy="11.75" r=".4"/><circle cx="10.43" cy="11.75" r=".4"/><circle cx="13" cy="11.75" r=".4"/><circle cx="15.62" cy="11.75" r=".4"/><circle cx="18.25" cy="11.75" r=".4"/><circle cx="20.93" cy="11.75" r=".4"/><circle cx="23.56" cy="11.75" r=".4"/><circle cx="26.06" cy="11.75" r=".4"/><circle cx="28.75" cy="11.75" r=".4"/><circle cx="31.37" cy="11.75" r=".4"/><circle cx="33.93" cy="11.75" r=".4"/><circle cx="36.62" cy="11.75" r=".4"/><circle cx="39.18" cy="11.75" r=".4"/><circle cx="41.81" cy="11.75" r=".4"/><circle cx="44.43" cy="11.75" r=".4"/><circle cx="47.06" cy="11.75" r=".4"/><path d="M49.68 11.35c-.22 0-.4.18-.4.4s.18.4.4.4"/><circle cx="48.43" cy="13" r=".4"/><circle cx="45.81" cy="13" r=".4"/><circle cx="43.18" cy="13" r=".4"/><circle cx="40.56" cy="13" r=".4"/><circle cx="37.93" cy="13" r=".4"/><circle cx="35.25" cy="13" r=".4"/><circle cx="32.68" cy="13" r=".4"/><circle cx="30.06" cy="13" r=".4"/><circle cx="27.37" cy="13" r=".4"/><circle cx="24.81" cy="13" r=".4"/><circle cx="22.12" cy="13" r=".4"/><circle cx="19.56" cy="13" r=".4"/><circle cx="16.93" cy="13" r=".4"/><circle cx="14.37" cy="13" r=".4"/><circle cx="11.75" cy="13" r=".4"/><circle cx="9.12" cy="13" r=".4"/><circle cx="6.5" cy="13" r=".4"/><circle cx="3.87" cy="13" r=".4"/><circle cx="1.18" cy="13" r=".4"/><path d="M0 14.7c.22 0 .4-.17.4-.4s-.18-.38-.4-.4"/><circle cx="2.56" cy="14.31" r=".4"/><circle cx="5.18" cy="14.31" r=".4"/><circle cx="7.87" cy="14.31" r=".4"/><circle cx="10.43" cy="14.31" r=".4"/><circle cx="13" cy="14.31" r=".4"/><circle cx="15.62" cy="14.31" r=".4"/><circle cx="18.25" cy="14.31" r=".4"/><circle cx="20.93" cy="14.31" r=".4"/><circle cx="23.56" cy="14.31" r=".4"/><circle cx="26.06" cy="14.31" r=".4"/><circle cx="28.75" cy="14.31" r=".4"/><circle cx="31.37" cy="14.31" r=".4"/><circle cx="33.93" cy="14.31" r=".4"/><circle cx="36.62" cy="14.31" r=".4"/><circle cx="39.18" cy="14.31" r=".4"/><circle cx="41.81" cy="14.31" r=".4"/><circle cx="44.43" cy="14.31" r=".4"/><circle cx="47.06" cy="14.31" r=".4"/><path d="M49.68 13.9c-.22.02-.4.2-.4.4s.18.4.4.4"/><circle cx="48.43" cy="15.56" r=".4"/><circle cx="45.81" cy="15.56" r=".4"/><circle cx="43.18" cy="15.56" r=".4"/><circle cx="40.56" cy="15.56" r=".4"/><circle cx="37.93" cy="15.56" r=".4"/><circle cx="35.25" cy="15.56" r=".4"/><circle cx="32.68" cy="15.56" r=".4"/><circle cx="30.06" cy="15.56" r=".4"/><circle cx="27.37" cy="15.56" r=".4"/><circle cx="24.81" cy="15.56" r=".4"/><circle cx="22.12" cy="15.56" r=".4"/><circle cx="19.56" cy="15.56" r=".4"/><circle cx="16.93" cy="15.56" r=".4"/><circle cx="14.37" cy="15.56" r=".4"/><circle cx="11.75" cy="15.56" r=".4"/><circle cx="9.12" cy="15.56" r=".4"/><circle cx="6.5" cy="15.56" r=".4"/><circle cx="3.87" cy="15.56" r=".4"/><circle cx="1.18" cy="15.56" r=".4"/><path d="M0 17.34c.22 0 .4-.18.4-.4s-.18-.4-.4-.4"/><circle cx="2.56" cy="16.94" r=".4"/><circle cx="5.18" cy="16.94" r=".4"/><circle cx="7.87" cy="16.94" r=".4"/><circle cx="10.43" cy="16.94" r=".4"/><circle cx="13" cy="16.94" r=".4"/><circle cx="15.62" cy="16.94" r=".4"/><circle cx="18.25" cy="16.94" r=".4"/><circle cx="20.93" cy="16.94" r=".4"/><circle cx="23.56" cy="16.94" r=".4"/><circle cx="26.06" cy="16.94" r=".4"/><circle cx="28.75" cy="16.94" r=".4"/><circle cx="31.37" cy="16.94" r=".4"/><circle cx="33.93" cy="16.94" r=".4"/><circle cx="36.62" cy="16.94" r=".4"/><circle cx="39.18" cy="16.94" r=".4"/><circle cx="41.81" cy="16.94" r=".4"/><circle cx="44.43" cy="16.94" r=".4"/><circle cx="47.06" cy="16.94" r=".4"/><path d="M49.68 16.54c-.22 0-.4.18-.4.4s.18.4.4.4"/><circle cx="48.43" cy="18.19" r=".4"/><circle cx="45.81" cy="18.19" r=".4"/><circle cx="43.18" cy="18.19" r=".4"/><circle cx="40.56" cy="18.19" r=".4"/><circle cx="37.93" cy="18.19" r=".4"/><circle cx="35.25" cy="18.19" r=".4"/><circle cx="32.68" cy="18.19" r=".4"/><circle cx="30.06" cy="18.19" r=".4"/><circle cx="27.37" cy="18.19" r=".4"/><circle cx="24.81" cy="18.19" r=".4"/><circle cx="22.12" cy="18.19" r=".4"/><circle cx="19.56" cy="18.19" r=".4"/><circle cx="16.93" cy="18.19" r=".4"/><circle cx="14.37" cy="18.19" r=".4"/><circle cx="11.75" cy="18.19" r=".4"/><circle cx="9.12" cy="18.19" r=".4"/><circle cx="6.5" cy="18.19" r=".4"/><circle cx="3.87" cy="18.19" r=".4"/><circle cx="1.18" cy="18.19" r=".4"/><path d="M0 19.96c.22 0 .4-.18.4-.4s-.18-.4-.4-.4"/><circle cx="2.56" cy="19.56" r=".4"/><circle cx="5.18" cy="19.56" r=".4"/><circle cx="7.87" cy="19.56" r=".4"/><circle cx="10.43" cy="19.56" r=".4"/><circle cx="13" cy="19.56" r=".4"/><circle cx="15.62" cy="19.56" r=".4"/><circle cx="18.25" cy="19.56" r=".4"/><circle cx="20.93" cy="19.56" r=".4"/><circle cx="23.56" cy="19.56" r=".4"/><circle cx="26.06" cy="19.56" r=".4"/><circle cx="28.75" cy="19.56" r=".4"/><circle cx="31.37" cy="19.56" r=".4"/><circle cx="33.93" cy="19.56" r=".4"/><circle cx="36.62" cy="19.56" r=".4"/><circle cx="39.18" cy="19.56" r=".4"/><circle cx="41.81" cy="19.56" r=".4"/><circle cx="44.43" cy="19.56" r=".4"/><circle cx="47.06" cy="19.56" r=".4"/><path d="M49.68 19.16c-.22 0-.4.2-.4.4s.18.4.4.4"/><circle cx="48.43" cy="20.81" r=".4"/><circle cx="45.81" cy="20.81" r=".4"/><circle cx="43.18" cy="20.81" r=".4"/><circle cx="40.56" cy="20.81" r=".4"/><circle cx="37.93" cy="20.81" r=".4"/><circle cx="35.25" cy="20.81" r=".4"/><circle cx="32.68" cy="20.81" r=".4"/><circle cx="30.06" cy="20.81" r=".4"/><circle cx="27.37" cy="20.81" r=".4"/><circle cx="24.81" cy="20.81" r=".4"/><circle cx="22.12" cy="20.81" r=".4"/><circle cx="19.56" cy="20.81" r=".4"/><circle cx="16.93" cy="20.81" r=".4"/><circle cx="14.37" cy="20.81" r=".4"/><circle cx="11.75" cy="20.81" r=".4"/><circle cx="9.12" cy="20.81" r=".4"/><circle cx="6.5" cy="20.81" r=".4"/><circle cx="3.87" cy="20.81" r=".4"/><circle cx="1.18" cy="20.81" r=".4"/><path d="M0 22.6c.22 0 .4-.2.4-.4s-.18-.4-.4-.4"/><circle cx="2.56" cy="22.19" r=".4"/><circle cx="5.18" cy="22.19" r=".4"/><circle cx="7.87" cy="22.19" r=".4"/><circle cx="10.43" cy="22.19" r=".4"/><circle cx="13" cy="22.19" r=".4"/><circle cx="15.62" cy="22.19" r=".4"/><circle cx="18.25" cy="22.19" r=".4"/><circle cx="20.93" cy="22.19" r=".4"/><circle cx="23.56" cy="22.19" r=".4"/><circle cx="26.06" cy="22.19" r=".4"/><circle cx="28.75" cy="22.19" r=".4"/><circle cx="31.37" cy="22.19" r=".4"/><circle cx="33.93" cy="22.19" r=".4"/><circle cx="36.62" cy="22.19" r=".4"/><circle cx="39.18" cy="22.19" r=".4"/><circle cx="41.81" cy="22.19" r=".4"/><circle cx="44.43" cy="22.19" r=".4"/><circle cx="47.06" cy="22.19" r=".4"/><path d="M49.68 21.8c-.22 0-.4.17-.4.4s.18.4.4.4"/><circle cx="48.43" cy="23.44" r=".4"/><circle cx="45.81" cy="23.44" r=".4"/><circle cx="43.18" cy="23.44" r=".4"/><circle cx="40.56" cy="23.44" r=".4"/><circle cx="37.93" cy="23.44" r=".4"/><circle cx="35.25" cy="23.44" r=".4"/><circle cx="32.68" cy="23.44" r=".4"/><circle cx="30.06" cy="23.44" r=".4"/><circle cx="27.37" cy="23.44" r=".4"/><circle cx="24.81" cy="23.44" r=".4"/><circle cx="22.12" cy="23.44" r=".4"/><circle cx="19.56" cy="23.44" r=".4"/><circle cx="16.93" cy="23.44" r=".4"/><circle cx="14.37" cy="23.44" r=".4"/><circle cx="11.75" cy="23.44" r=".4"/><circle cx="9.12" cy="23.44" r=".4"/><circle cx="6.5" cy="23.44" r=".4"/><circle cx="3.87" cy="23.44" r=".4"/><circle cx="1.18" cy="23.44" r=".4"/><path d="M0 25.15c.22 0 .4-.18.4-.4s-.18-.4-.4-.4"/><circle cx="2.56" cy="24.75" r=".4"/><circle cx="5.18" cy="24.75" r=".4"/><circle cx="7.87" cy="24.75" r=".4"/><circle cx="10.43" cy="24.75" r=".4"/><circle cx="13" cy="24.75" r=".4"/><circle cx="15.62" cy="24.75" r=".4"/><circle cx="18.25" cy="24.75" r=".4"/><circle cx="20.93" cy="24.75" r=".4"/><circle cx="23.56" cy="24.75" r=".4"/><circle cx="26.06" cy="24.75" r=".4"/><circle cx="28.75" cy="24.75" r=".4"/><circle cx="31.37" cy="24.75" r=".4"/><circle cx="33.93" cy="24.75" r=".4"/><circle cx="36.62" cy="24.75" r=".4"/><circle cx="39.18" cy="24.75" r=".4"/><circle cx="41.81" cy="24.75" r=".4"/><circle cx="44.43" cy="24.75" r=".4"/><circle cx="47.06" cy="24.75" r=".4"/><path d="M49.68 24.35c-.22 0-.4.18-.4.4s.18.4.4.4"/><circle cx="48.43" cy="26" r=".4"/><circle cx="45.81" cy="26" r=".4"/><circle cx="43.18" cy="26" r=".4"/><circle cx="40.56" cy="26" r=".4"/><circle cx="37.93" cy="26" r=".4"/><circle cx="35.25" cy="26" r=".4"/><circle cx="32.68" cy="26" r=".4"/><circle cx="30.06" cy="26" r=".4"/><circle cx="27.37" cy="26" r=".4"/><circle cx="24.81" cy="26" r=".4"/><circle cx="22.12" cy="26" r=".4"/><circle cx="19.56" cy="26" r=".4"/><circle cx="16.93" cy="26" r=".4"/><circle cx="14.37" cy="26" r=".4"/><circle cx="11.75" cy="26" r=".4"/><circle cx="9.12" cy="26" r=".4"/><circle cx="6.5" cy="26" r=".4"/><circle cx="3.87" cy="26" r=".4"/><circle cx="1.18" cy="26" r=".4"/><path d="M0 27.78c.22 0 .4-.18.4-.4s-.18-.4-.4-.4"/><circle cx="2.56" cy="27.38" r=".4"/><circle cx="5.18" cy="27.38" r=".4"/><circle cx="7.87" cy="27.38" r=".4"/><circle cx="10.43" cy="27.38" r=".4"/><circle cx="13" cy="27.38" r=".4"/><circle cx="15.62" cy="27.38" r=".4"/><circle cx="18.25" cy="27.38" r=".4"/><circle cx="20.93" cy="27.38" r=".4"/><circle cx="23.56" cy="27.38" r=".4"/><circle cx="26.06" cy="27.38" r=".4"/><circle cx="28.75" cy="27.38" r=".4"/><circle cx="31.37" cy="27.38" r=".4"/><circle cx="33.93" cy="27.38" r=".4"/><circle cx="36.62" cy="27.38" r=".4"/><circle cx="39.18" cy="27.38" r=".4"/><circle cx="41.81" cy="27.38" r=".4"/><circle cx="44.43" cy="27.38" r=".4"/><circle cx="47.06" cy="27.38" r=".4"/><path d="M49.68 26.98c-.22 0-.4.18-.4.4s.18.4.4.4"/><circle cx="48.43" cy="28.63" r=".4"/><circle cx="45.81" cy="28.63" r=".4"/><circle cx="43.18" cy="28.63" r=".4"/><circle cx="40.56" cy="28.63" r=".4"/><circle cx="37.93" cy="28.63" r=".4"/><circle cx="35.25" cy="28.63" r=".4"/><circle cx="32.68" cy="28.63" r=".4"/><circle cx="30.06" cy="28.63" r=".4"/><circle cx="27.37" cy="28.63" r=".4"/><circle cx="24.81" cy="28.63" r=".4"/><circle cx="22.12" cy="28.63" r=".4"/><circle cx="19.56" cy="28.63" r=".4"/><circle cx="16.93" cy="28.63" r=".4"/><circle cx="14.37" cy="28.63" r=".4"/><circle cx="11.75" cy="28.63" r=".4"/><circle cx="9.12" cy="28.63" r=".4"/><circle cx="6.5" cy="28.63" r=".4"/><circle cx="3.87" cy="28.63" r=".4"/><circle cx="1.18" cy="28.63" r=".4"/><path d="M0 30.4c.22 0 .4-.18.4-.4s-.18-.4-.4-.4"/><circle cx="2.56" cy="30" r=".4"/><circle cx="5.18" cy="30" r=".4"/><circle cx="7.87" cy="30" r=".4"/><circle cx="10.43" cy="30" r=".4"/><circle cx="13" cy="30" r=".4"/><circle cx="15.62" cy="30" r=".4"/><circle cx="18.25" cy="30" r=".4"/><circle cx="20.93" cy="30" r=".4"/><circle cx="23.56" cy="30" r=".4"/><circle cx="26.06" cy="30" r=".4"/><circle cx="28.75" cy="30" r=".4"/><circle cx="31.37" cy="30" r=".4"/><circle cx="33.93" cy="30" r=".4"/><circle cx="36.62" cy="30" r=".4"/><circle cx="39.18" cy="30" r=".4"/><circle cx="41.81" cy="30" r=".4"/><circle cx="44.43" cy="30" r=".4"/><circle cx="47.06" cy="30" r=".4"/><path d="M49.68 29.6c-.22 0-.4.18-.4.4s.18.4.4.4"/><circle cx="48.43" cy="31.25" r=".4"/><circle cx="45.81" cy="31.25" r=".4"/><circle cx="43.18" cy="31.25" r=".4"/><circle cx="40.56" cy="31.25" r=".4"/><circle cx="37.93" cy="31.25" r=".4"/><circle cx="35.25" cy="31.25" r=".4"/><circle cx="32.68" cy="31.25" r=".4"/><circle cx="30.06" cy="31.25" r=".4"/><circle cx="27.37" cy="31.25" r=".4"/><circle cx="24.81" cy="31.25" r=".4"/><circle cx="22.12" cy="31.25" r=".4"/><circle cx="19.56" cy="31.25" r=".4"/><circle cx="16.93" cy="31.25" r=".4"/><circle cx="14.37" cy="31.25" r=".4"/><circle cx="11.75" cy="31.25" r=".4"/><circle cx="9.12" cy="31.25" r=".4"/><circle cx="6.5" cy="31.25" r=".4"/><circle cx="3.87" cy="31.25" r=".4"/><circle cx="1.18" cy="31.25" r=".4"/><path d="M0 33.03c.22 0 .4-.18.4-.4s-.18-.4-.4-.4"/><circle cx="2.56" cy="32.63" r=".4"/><circle cx="5.18" cy="32.63" r=".4"/><circle cx="7.87" cy="32.63" r=".4"/><circle cx="10.43" cy="32.63" r=".4"/><circle cx="13" cy="32.63" r=".4"/><circle cx="15.62" cy="32.63" r=".4"/><circle cx="18.25" cy="32.63" r=".4"/><circle cx="20.93" cy="32.63" r=".4"/><circle cx="23.56" cy="32.63" r=".4"/><circle cx="26.06" cy="32.63" r=".4"/><circle cx="28.75" cy="32.63" r=".4"/><circle cx="31.37" cy="32.63" r=".4"/><circle cx="33.93" cy="32.63" r=".4"/><circle cx="36.62" cy="32.63" r=".4"/><circle cx="39.18" cy="32.63" r=".4"/><circle cx="41.81" cy="32.63" r=".4"/><circle cx="44.43" cy="32.63" r=".4"/><circle cx="47.06" cy="32.63" r=".4"/><path d="M49.68 32.23c-.22 0-.4.18-.4.4s.18.4.4.4"/><circle cx="48.43" cy="33.88" r=".4"/><circle cx="45.81" cy="33.88" r=".4"/><circle cx="43.18" cy="33.88" r=".4"/><circle cx="40.56" cy="33.88" r=".4"/><circle cx="37.93" cy="33.88" r=".4"/><circle cx="35.25" cy="33.88" r=".4"/><circle cx="32.68" cy="33.88" r=".4"/><circle cx="30.06" cy="33.88" r=".4"/><circle cx="27.37" cy="33.88" r=".4"/><circle cx="24.81" cy="33.88" r=".4"/><circle cx="22.12" cy="33.88" r=".4"/><circle cx="19.56" cy="33.88" r=".4"/><circle cx="16.93" cy="33.88" r=".4"/><circle cx="14.37" cy="33.88" r=".4"/><circle cx="11.75" cy="33.88" r=".4"/><circle cx="9.12" cy="33.88" r=".4"/><circle cx="6.5" cy="33.88" r=".4"/><circle cx="3.87" cy="33.88" r=".4"/><circle cx="1.18" cy="33.88" r=".4"/><path d="M0 35.53c.22 0 .4-.18.4-.4s-.18-.4-.4-.4"/><circle cx="2.56" cy="35.13" r=".4"/><circle cx="5.18" cy="35.13" r=".4"/><circle cx="7.87" cy="35.13" r=".4"/><circle cx="10.43" cy="35.13" r=".4"/><circle cx="13" cy="35.13" r=".4"/><circle cx="15.62" cy="35.13" r=".4"/><circle cx="18.25" cy="35.13" r=".4"/><circle cx="20.93" cy="35.13" r=".4"/><circle cx="23.56" cy="35.13" r=".4"/><circle cx="26.06" cy="35.13" r=".4"/><circle cx="28.75" cy="35.13" r=".4"/><circle cx="31.37" cy="35.13" r=".4"/><circle cx="33.93" cy="35.13" r=".4"/><circle cx="36.62" cy="35.13" r=".4"/><circle cx="39.18" cy="35.13" r=".4"/><circle cx="41.81" cy="35.13" r=".4"/><circle cx="44.43" cy="35.13" r=".4"/><circle cx="47.06" cy="35.13" r=".4"/><path d="M49.68 34.73c-.22 0-.4.18-.4.4s.18.4.4.4"/><circle cx="48.43" cy="36.38" r=".4"/><circle cx="45.81" cy="36.38" r=".4"/><circle cx="43.18" cy="36.38" r=".4"/><circle cx="40.56" cy="36.38" r=".4"/><circle cx="37.93" cy="36.38" r=".4"/><circle cx="35.25" cy="36.38" r=".4"/><circle cx="32.68" cy="36.38" r=".4"/><circle cx="30.06" cy="36.38" r=".4"/><circle cx="27.37" cy="36.38" r=".4"/><circle cx="24.81" cy="36.38" r=".4"/><circle cx="22.12" cy="36.38" r=".4"/><circle cx="19.56" cy="36.38" r=".4"/><circle cx="16.93" cy="36.38" r=".4"/><circle cx="14.37" cy="36.38" r=".4"/><circle cx="11.75" cy="36.38" r=".4"/><circle cx="9.12" cy="36.38" r=".4"/><circle cx="6.5" cy="36.38" r=".4"/><circle cx="3.87" cy="36.38" r=".4"/><circle cx="1.18" cy="36.38" r=".4"/><path d="M0 38.2c.22 0 .4-.17.4-.4s-.18-.38-.4-.38"/><circle cx="2.56" cy="37.81" r=".4"/><circle cx="5.18" cy="37.81" r=".4"/><circle cx="7.87" cy="37.81" r=".4"/><circle cx="10.43" cy="37.81" r=".4"/><circle cx="13" cy="37.81" r=".4"/><circle cx="15.62" cy="37.81" r=".4"/><circle cx="18.25" cy="37.81" r=".4"/><circle cx="20.93" cy="37.81" r=".4"/><circle cx="23.56" cy="37.81" r=".4"/><circle cx="26.06" cy="37.81" r=".4"/><circle cx="28.75" cy="37.81" r=".4"/><circle cx="31.37" cy="37.81" r=".4"/><circle cx="33.93" cy="37.81" r=".4"/><circle cx="36.62" cy="37.81" r=".4"/><circle cx="39.18" cy="37.81" r=".4"/><circle cx="41.81" cy="37.81" r=".4"/><circle cx="44.43" cy="37.81" r=".4"/><circle cx="47.06" cy="37.81" r=".4"/><path d="M49.68 37.41c-.22.02-.4.2-.4.42s.18.4.4.4"/><circle cx="48.43" cy="39.06" r=".4"/><circle cx="45.81" cy="39.06" r=".4"/><circle cx="43.18" cy="39.06" r=".4"/><circle cx="40.56" cy="39.06" r=".4"/><circle cx="37.93" cy="39.06" r=".4"/><circle cx="35.25" cy="39.06" r=".4"/><circle cx="32.68" cy="39.06" r=".4"/><circle cx="30.06" cy="39.06" r=".4"/><circle cx="27.37" cy="39.06" r=".4"/><circle cx="24.81" cy="39.06" r=".4"/><circle cx="22.12" cy="39.06" r=".4"/><circle cx="19.56" cy="39.06" r=".4"/><circle cx="16.93" cy="39.06" r=".4"/><circle cx="14.37" cy="39.06" r=".4"/><circle cx="11.75" cy="39.06" r=".4"/><circle cx="9.12" cy="39.06" r=".4"/><circle cx="6.5" cy="39.06" r=".4"/><circle cx="3.87" cy="39.06" r=".4"/><circle cx="1.18" cy="39.06" r=".4"/><path d="M0 40.78c.22 0 .4-.18.4-.4s-.18-.4-.4-.4"/><circle cx="2.56" cy="40.38" r=".4"/><circle cx="5.18" cy="40.38" r=".4"/><circle cx="7.87" cy="40.38" r=".4"/><circle cx="10.43" cy="40.38" r=".4"/><circle cx="13" cy="40.38" r=".4"/><circle cx="15.62" cy="40.38" r=".4"/><circle cx="18.25" cy="40.38" r=".4"/><circle cx="20.93" cy="40.38" r=".4"/><circle cx="23.56" cy="40.38" r=".4"/><circle cx="26.06" cy="40.38" r=".4"/><circle cx="28.75" cy="40.38" r=".4"/><circle cx="31.37" cy="40.38" r=".4"/><circle cx="33.93" cy="40.38" r=".4"/><circle cx="36.62" cy="40.38" r=".4"/><circle cx="39.18" cy="40.38" r=".4"/><circle cx="41.81" cy="40.38" r=".4"/><circle cx="44.43" cy="40.38" r=".4"/><circle cx="47.06" cy="40.38" r=".4"/><path d="M49.68 39.98c-.22 0-.4.18-.4.4s.18.4.4.4"/><circle cx="48.43" cy="41.63" r=".4"/><circle cx="45.81" cy="41.63" r=".4"/><circle cx="43.18" cy="41.63" r=".4"/><circle cx="40.56" cy="41.63" r=".4"/><circle cx="37.93" cy="41.63" r=".4"/><circle cx="35.25" cy="41.63" r=".4"/><circle cx="32.68" cy="41.63" r=".4"/><circle cx="30.06" cy="41.63" r=".4"/><circle cx="27.37" cy="41.63" r=".4"/><circle cx="24.81" cy="41.63" r=".4"/><circle cx="22.12" cy="41.63" r=".4"/><circle cx="19.56" cy="41.63" r=".4"/><circle cx="16.93" cy="41.63" r=".4"/><circle cx="14.37" cy="41.63" r=".4"/><circle cx="11.75" cy="41.63" r=".4"/><circle cx="9.12" cy="41.63" r=".4"/><circle cx="6.5" cy="41.63" r=".4"/><circle cx="3.87" cy="41.63" r=".4"/><circle cx="1.18" cy="41.63" r=".4"/><path d="M0 43.4c.22 0 .4-.18.4-.4s-.18-.4-.4-.4"/><circle cx="2.56" cy="43" r=".4"/><circle cx="5.18" cy="43" r=".4"/><circle cx="7.87" cy="43" r=".4"/><circle cx="10.43" cy="43" r=".4"/><circle cx="13" cy="43" r=".4"/><circle cx="15.62" cy="43" r=".4"/><circle cx="18.25" cy="43" r=".4"/><circle cx="20.93" cy="43" r=".4"/><circle cx="23.56" cy="43" r=".4"/><circle cx="26.06" cy="43" r=".4"/><circle cx="28.75" cy="43" r=".4"/><circle cx="31.37" cy="43" r=".4"/><circle cx="33.93" cy="43" r=".4"/><circle cx="36.62" cy="43" r=".4"/><circle cx="39.18" cy="43" r=".4"/><circle cx="41.81" cy="43" r=".4"/><circle cx="44.43" cy="43" r=".4"/><circle cx="47.06" cy="43" r=".4"/><path d="M49.68 42.6c-.22 0-.4.18-.4.4s.18.4.4.4"/><circle cx="48.43" cy="44.25" r=".4"/><circle cx="45.81" cy="44.25" r=".4"/><circle cx="43.18" cy="44.25" r=".4"/><circle cx="40.56" cy="44.25" r=".4"/><circle cx="37.93" cy="44.25" r=".4"/><circle cx="35.25" cy="44.25" r=".4"/><circle cx="32.68" cy="44.25" r=".4"/><circle cx="30.06" cy="44.25" r=".4"/><circle cx="27.37" cy="44.25" r=".4"/><circle cx="24.81" cy="44.25" r=".4"/><circle cx="22.12" cy="44.25" r=".4"/><circle cx="19.56" cy="44.25" r=".4"/><circle cx="16.93" cy="44.25" r=".4"/><circle cx="14.37" cy="44.25" r=".4"/><circle cx="11.75" cy="44.25" r=".4"/><circle cx="9.12" cy="44.25" r=".4"/><circle cx="6.5" cy="44.25" r=".4"/><circle cx="3.87" cy="44.25" r=".4"/><circle cx="1.18" cy="44.25" r=".4"/><path d="M0 46.03c.22 0 .4-.18.4-.4s-.18-.4-.4-.4"/><circle cx="2.56" cy="45.63" r=".4"/><circle cx="5.18" cy="45.63" r=".4"/><circle cx="7.87" cy="45.63" r=".4"/><circle cx="10.43" cy="45.63" r=".4"/><circle cx="13" cy="45.63" r=".4"/><circle cx="15.62" cy="45.63" r=".4"/><circle cx="18.25" cy="45.63" r=".4"/><circle cx="20.93" cy="45.63" r=".4"/><circle cx="23.56" cy="45.63" r=".4"/><circle cx="26.06" cy="45.63" r=".4"/><circle cx="28.75" cy="45.63" r=".4"/><circle cx="31.37" cy="45.63" r=".4"/><circle cx="33.93" cy="45.63" r=".4"/><circle cx="36.62" cy="45.63" r=".4"/><circle cx="39.18" cy="45.63" r=".4"/><circle cx="41.81" cy="45.63" r=".4"/><circle cx="44.43" cy="45.63" r=".4"/><circle cx="47.06" cy="45.63" r=".4"/><path d="M49.68 45.23c-.22 0-.4.18-.4.4s.18.4.4.4"/><circle cx="48.43" cy="46.88" r=".4"/><circle cx="45.81" cy="46.88" r=".4"/><circle cx="43.18" cy="46.88" r=".4"/><circle cx="40.56" cy="46.88" r=".4"/><circle cx="37.93" cy="46.88" r=".4"/><circle cx="35.25" cy="46.88" r=".4"/><circle cx="32.68" cy="46.88" r=".4"/><circle cx="30.06" cy="46.88" r=".4"/><circle cx="27.37" cy="46.88" r=".4"/><circle cx="24.81" cy="46.88" r=".4"/><circle cx="22.12" cy="46.88" r=".4"/><circle cx="19.56" cy="46.88" r=".4"/><circle cx="16.93" cy="46.88" r=".4"/><circle cx="14.37" cy="46.88" r=".4"/><circle cx="11.75" cy="46.88" r=".4"/><circle cx="9.12" cy="46.88" r=".4"/><circle cx="6.5" cy="46.88" r=".4"/><circle cx="3.87" cy="46.88" r=".4"/><circle cx="1.18" cy="46.88" r=".4"/><path d="M0 48.65c.22 0 .4-.18.4-.4s-.18-.4-.4-.4"/><circle cx="2.56" cy="48.25" r=".4"/><circle cx="5.18" cy="48.25" r=".4"/><circle cx="7.87" cy="48.25" r=".4"/><circle cx="10.43" cy="48.25" r=".4"/><circle cx="13" cy="48.25" r=".4"/><circle cx="15.62" cy="48.25" r=".4"/><circle cx="18.25" cy="48.25" r=".4"/><circle cx="20.93" cy="48.25" r=".4"/><circle cx="23.56" cy="48.25" r=".4"/><circle cx="26.06" cy="48.25" r=".4"/><circle cx="28.75" cy="48.25" r=".4"/><circle cx="31.37" cy="48.25" r=".4"/><circle cx="33.93" cy="48.25" r=".4"/><circle cx="36.62" cy="48.25" r=".4"/><circle cx="39.18" cy="48.25" r=".4"/><circle cx="41.81" cy="48.25" r=".4"/><circle cx="44.43" cy="48.25" r=".4"/><circle cx="47.06" cy="48.25" r=".4"/><path d="M49.68 47.85c-.22 0-.4.18-.4.4s.18.4.4.4m-.85.85c0-.22-.18-.4-.4-.4s-.4.18-.4.4m-1.83 0c0-.22-.17-.4-.4-.4s-.4.18-.4.4m-1.82 0c0-.22-.18-.4-.4-.4s-.4.18-.4.4m-1.82 0c0-.22-.18-.4-.4-.4s-.4.18-.4.4m-1.83 0c0-.22-.18-.4-.4-.4s-.4.18-.4.4m-1.88 0c0-.22-.18-.4-.4-.4s-.4.18-.4.4m-1.77 0c0-.22-.18-.4-.4-.4s-.4.18-.4.4m-1.82 0c0-.22-.18-.4-.4-.4s-.4.18-.4.4m-1.89 0c0-.22-.18-.4-.4-.4s-.4.18-.4.4m-1.77 0c0-.22-.17-.4-.4-.4s-.4.18-.4.4m-1.88 0c0-.22-.18-.4-.4-.4s-.4.18-.4.4m-1.76 0c0-.22-.18-.4-.4-.4s-.4.18-.4.4m-1.83 0c0-.22-.18-.4-.4-.4s-.4.18-.4.4m-1.76 0c0-.22-.18-.4-.4-.4s-.4.18-.4.4m-1.82 0c0-.22-.18-.4-.4-.4s-.4.18-.4.4m-1.83 0c0-.22-.18-.4-.4-.4s-.4.18-.4.4m-1.82 0c0-.22-.18-.4-.4-.4s-.4.18-.4.4m-1.83 0c0-.22-.18-.4-.4-.4s-.4.18-.4.4m-1.89 0c0-.22-.18-.4-.4-.4s-.4.18-.4.4"/></svg>