<svg xmlns="http://www.w3.org/2000/svg" xml:space="preserve" width="53.18" height="53.6" viewBox="0.03 -53.7 53.18 53.6"><path d="M.03-53.7h53.18V-.1H.03z" style="fill:none"/><path d="M6.26-43.04h0M4.08-48.07h0M1.45-50.52h0M4.08-50.57h0M3.92-52.59h0M6.83-49.77h0M7.64-52.3h0M9.6-50.5h0M12.33-52.33h0M14.95-52.71h0M.58-53.15h0M3.74-43.32h0M2.7-40.77h0M1.91-46.45h0M1.08-37.84h0M4.14-37.02h0M6.08-34.27h0M3.58-33.02h0M7.2-37.09h0M1.95-35.09h0M5.08-40.02h0M7.85-46.63h0M5.14-45.59h0M1.12-43.4h0M10.35-47.75h0M20.6-47.25h0M12.47-49.5h0M11.85-45.38h0M16.97-52.13h0M15.45-49.4h0M13.81-47.27h0M17.45-47.77h0M15.75-45.4h0M13.19-43.13h0M15.7-42.65h0M11.1-41.63h0M10.47-38.63h0M14.02-40.31h0M13.22-37.63h0M15.89-33.34h0M17.45-40.52h0M18.2-43.02h0M20.56-40.52h0M20.75-43.59h0M22.93-45.65h0M25.61-46.21h0M22.95-42.65h0M25.7-43.77h0M25.76-40.84h0M23.2-39.9h0M25.46-37.99h0M29.53-43.4h0M28.22-41.34h0M30.2-39.77h0M28.2-37.9h0M25.77-32.84h0M26.89-35.34h0M29.68-33.84h0M30.75-36.4h0M32.93-38.27h0M34.62-40.96h0M35.7-38.02h0M38.45-38.34h0M40.72-37.13h0M38.35-35.75h0M36.85-32.88h0M37.47-29.38h0M37.31-26.77h0M37.47-24h0M37.14-20.25h0M38.1-17.88h0M39.22-16h0M39.97-40.75h0M41.97-38.75h0M37.14-41.27h0M34.64-43.96h0M42.45-50.52h0M49.73-41.02h0M51.45-36.65h0M49.11-38.52h0M48.08-36.65h0M49.08-34.73h0M52.7-34.52h0M50.95-33.27h0M47.75-32.57h0M46.08-35.65h0M44.47-37.75h0M42.91-34.9h0M40.41-34.07h0M44.95-33.4h0M45.41-30.73h0M49.45-31.27h0M48.08-29.23h0M52.33-51.15h0M49.7-50.15h0M50.2-52.9h0M46.95-52.9h0M46.58-50.65h0M44.08-52.02h0M41.45-53.15h0M52.58-31.77h0M52.7-41.96h0M52.04-38.94h0M45.15-45.83h0M46.95-47.52h0M47.36-44.4h0M43.98-43.02h0M46.36-39.27h0M43.1-40.75h0M46.36-41.4h0M49.91-43.23h0M49.61-46.32h0M52.33-45.15h0M51.82-48.1h0M37.72-44.38h0M37.27-47.15h0M33.89-47.02h0M28.2-45.59h0M26.95-48.63h0M23.92-48.29h0M21.39-49.4h0M18.7-50.4h0M19.83-52.96h0M22.58-52.21h0M25.08-50.81h0M29.02-50.65h0M34.64-52.52h0M37.95-52.96h0M31.85-44.88h0M30.27-47.4h0M32.33-49.02h0M35.35-49.88h0M31.72-52h0M39.72-48.75h0M42.97-47.75h0M42.6-45h0M40.1-46.5h0M40.72-43.38h0M44.95-49.15h0M39.2-50.77h0M36.02-34.77h0M33.14-35.02h0M33.27-32.02h0M32.58-29.4h0M35.45-30.15h0M34.83-27.9h0M39.58-31.4h0M39.83-28.15h0M41.75-29.73h0M42.75-32.23h0M44.75-28.07h0M41.91-26.73h0M39.93-25.34h0M41.85-23h0M43.97-24.88h0M46.47-26.25h0M50.85-29.13h0M39.68-22.24h0M42.95-20.4h0M45.45-23.02h0M45.83-20.4h0M47.85-23.38h0M49.22-26.63h0M52.1-25.5h0M52.91-27.57h0M50.58-23.9h0M49.35-20.75h0M52.58-22.4h0M47.95-18.52h0M52.45-15.9h0M50.54-14.19h0M48.27-12.65h0M50.58-11.4h0M51.02-8.92h0M52.54-12.12h0M46.45-11.03h0M45.7-8.53h0M43.1-8.96h0M35.58-.4h0M48.08-7.15h0M46.83-4.78h0M50.33-6.15h0M49.33-3.9h0M46.7-1.9h0M43.7-3.4h0M41.97-5.88h0M38.85-6.5h0M40.7-2.9h0M39.83-.65h0M38.33-4.15h0M37.58-2.02h0M43.58-1.15h0M49.11-1.27h0M52.08-4.35h0M52.4-7.04h0M51.98-1.52h0M44.45-6.28h0M9.33-17.15h0M48.7-9.4h0M44.95-17.77h0M41.97-17.38h0M39.83-19.52h0M36.7-14.84h0M44.45-15.28h0M41.7-14.53h0M41.33-11.78h0M39.33-13.4h0M38.19-11.06h0M35.45-12.65h0M35.58-9.9h0M33.83-15.03h0M35.45-17.65h0M32.7-17.77h0M33.95-20.27h0M35.7-22.27h0M32.7-23.4h0M34.95-24.77h0M32.58-26.52h0M29.6-26h0M26.95-27.02h0M23.2-27.27h0M19.58-27.27h0M18.08-25.02h0M21.58-25.15h0M19.95-23.15h0M25.2-25.02h0M23.45-23.02h0M27.2-23.4h0M29.72-23h0M27.33-21.15h0M31.22-20.88h0M28.97-19h0M29.95-16.9h0M30.7-31.46h0M27.64-30.71h0M24.08-30.96h0M21.95-37.77h0M20.45-35.46h0M23.74-35.06h0M21.83-32.52h0M18.47-30.63h0M21.35-29.63h0M25.35-29.25h0M29.6-28.75h0M18.64-33.52h0M14.5-35.21h0M14.72-31.13h0M11.97-35.88h0M11.97-33.13h0M11.07-30.34h0M13.27-29.4h0M16.33-28.21h0M14.77-25.4h0M12.52-26.77h0M11.45-24.9h0M12.95-23.02h0M16.47-23.21h0M15.12-21.06h0M18.2-20.9h0M16.95-18.11h0M21.33-21.27h0M24.58-20.27h0M22.08-18.9h0M19.62-17.81h0M23.33-16.9h0M24.91-14.27h0M22.35-13.75h0M24.19-10.88h0M21.58-11.49h0M19.1-5.63h0M25.97-18h0M20.95-15.53h0M17.31-15.38h0M19.58-13.81h0M16.58-12.53h0M14.2-13.78h0M27.35-15.58h0M30.83-14.53h0M28.7-13.28h0M32.58-12.15h0M32.33-9.78h0M34.33-7.28h0M37.58-8.46h0M32.91-5.07h0M30.95-6.9h0M29.45-10.65h0M26.58-11.9h0M27.7-8.78h0M28.33-6.03h0M30.2-3.84h0M32.1-1h0M33.97-3h0M36.1-5.38h0M40.47-8.96h0M43.97-11.75h0M46.22-13.75h0M48.47-15.88h0M50.6-17.97h0M52.29-19.9h0M29.2-1.65h0M26.83-3.02h0M24.97-5.25h0M25.01-8.15h0M22.2-6.58h0M21.86-9.15h0M22.26-3.77h0M24.41-1.07h0M21.45-1.4h0M18.95-2.77h0M16.7-.78h0M18.77-10.96h0M18.49-8.15h0M15.7-9.9h0M13.08-11.65h0M11.02-14.65h0M11.7-18.11h0M9.33-20.15h0M6.83-19.02h0M7.08-22.65h0M4.7-21.4h0M3.53-23.84h0M5.45-25.15h0M4.2-27.9h0M2.1-26.74h0M.76-24.4h0M3.2-19.15h0M1.17-17.37h0M5.33-17.02h0M3.33-15.53h0M7.7-15.03h0M8.47-12.75h0M1.65-11.42h0M5.38-14.02h0M1.23-13.81h0M4.13-11.93h0M.78-9.25h0M3.16-7.86h0M1.58-5.89h0M1.01-3.67h0M10.6-11.22h0M8.22-9.26h0M4.62-9.4h0M5.97-7.38h0M6.47-11.22h0M10.58-8.15h0M13.2-8.65h0M15.58-7.03h0M16.41-4.9h0M8.4-6.24h0M3.85-5.38h0M12.45-5.84h0M9.91-4.4h0M14.58-3.57h0M11.93-2.69h0M13.91-1.3h0M9.93-.9h0M7.84-2.94h0M3.6-2.5h0M5.92-4.12h0M6.21-.73h0M1.58-1.23h0M3.02-30.4h0M.4-29.73h0M1.28-32.65h0M14.08-16.15h0M9.64-27.59h0M5.79-30.98h0M7.1-27.37h0M8.27-30.11h0M8.22-25.25h0M9.97-22.63h0M12.35-20.63h0M14.47-18.63h0M19.1-38.5h0M16.19-38.04h0M17.97-36h0M18.87-45.46h0M8.95-43.59h0M8.02-40.71h0M9.2-35.02h0M8.7-32.77h0M26.95-53.4h0M31.81-41.51h0M1.77-21.54h0" style="fill:none;stroke:#00aeef;stroke-width:.8;stroke-linecap:round"/></svg>