<svg xmlns="http://www.w3.org/2000/svg" xml:space="preserve" width="53.31" height="53.8"><path fill="none" d="M0 0h53.31v53.8H0z"/><path d="M.03.1h53.19v53.6H.03z"/><path fill="none" d="M.03.1h53.19v53.6H.03z"/><path fill="#FFF" d="M6.26 11.15a.4.4 0 0 1-.4-.4c0-.1.04-.2.12-.28a.4.4 0 0 1 .56 0 .4.4 0 0 1 .12.28c0 .11-.04.21-.11.3a.44.44 0 0 1-.3.1zM4.08 6.13a.36.36 0 0 1-.28-.12c-.08-.07-.12-.17-.12-.28s.04-.2.12-.28a.4.4 0 0 1 .56 0c.08.07.12.17.12.28s-.04.21-.12.28a.36.36 0 0 1-.28.12zM1.46 3.67a.44.44 0 0 1-.3-.1.45.45 0 0 1-.11-.3c0-.1.05-.2.12-.28a.42.42 0 0 1 .57 0c.07.08.12.18.12.28 0 .11-.04.21-.12.28a.4.4 0 0 1-.28.12zM4.08 3.63a.36.36 0 0 1-.28-.12c-.08-.07-.12-.17-.12-.28s.04-.2.12-.28a.42.42 0 0 1 .56 0c.08.07.12.17.12.28s-.04.21-.12.28a.36.36 0 0 1-.28.12zM3.92 1.61a.36.36 0 0 1-.28-.12.4.4 0 0 1 0-.57c.15-.14.42-.14.56 0a.4.4 0 0 1 0 .57.36.36 0 0 1-.28.12zM6.83 4.43a.4.4 0 0 1-.4-.4c0-.1.04-.2.12-.28.14-.15.4-.15.56 0 .08.07.12.17.12.28a.4.4 0 0 1-.4.4zM7.64 1.9a.4.4 0 0 1-.4-.4.4.4 0 0 1 .1-.28.42.42 0 0 1 .58 0c.08.07.12.17.12.28s-.04.21-.12.28a.36.36 0 0 1-.28.12zM9.6 3.7a.41.41 0 0 1-.28-.12.4.4 0 0 1-.12-.29c0-.1.04-.2.1-.28.18-.15.43-.15.58 0a.4.4 0 0 1 0 .57.4.4 0 0 1-.28.11zM12.33 1.87c-.11 0-.2-.04-.28-.12s-.12-.18-.12-.28a.4.4 0 0 1 .1-.28.4.4 0 0 1 .58 0 .4.4 0 0 1 0 .56.4.4 0 0 1-.28.12zM14.96 1.5a.4.4 0 0 1-.3-.13.4.4 0 0 1-.11-.28c0-.1.05-.2.12-.28.14-.15.43-.15.57 0 .07.07.12.18.12.28a.4.4 0 0 1-.12.28.4.4 0 0 1-.28.12zM.58 1.05A.36.36 0 0 1 .3.93.36.36 0 0 1 .18.65c0-.1.04-.2.12-.28a.42.42 0 0 1 .56 0 .4.4 0 0 1 0 .56.36.36 0 0 1-.28.12zM3.74 10.87a.4.4 0 0 1-.4-.4c0-.1.04-.2.1-.28a.42.42 0 0 1 .58 0c.07.07.12.18.12.28 0 .11-.05.21-.12.3a.43.43 0 0 1-.28.1zM2.7 13.42a.44.44 0 0 1-.28-.1c-.07-.09-.11-.19-.11-.3s.04-.2.1-.28a.42.42 0 0 1 .58 0c.07.07.12.17.12.28s-.05.21-.12.3a.43.43 0 0 1-.28.1zM1.9 7.75a.4.4 0 0 1-.28-.12.43.43 0 0 1-.11-.28c0-.1.04-.22.12-.29.12-.13.4-.15.56.01a.4.4 0 0 1 .12.28c0 .1-.04.2-.12.28a.4.4 0 0 1-.28.12zM1.08 16.36a.4.4 0 0 1-.4-.4c0-.1.04-.2.12-.28a.42.42 0 0 1 .57 0c.07.08.1.18.1.28 0 .11-.03.21-.11.28a.36.36 0 0 1-.28.12zM4.14 17.17a.4.4 0 0 1-.28-.12c-.07-.07-.12-.17-.12-.28s.05-.2.12-.28c.13-.14.42-.15.57 0a.41.41 0 0 1-.01.57.4.4 0 0 1-.28.11zM6.08 19.92a.4.4 0 0 1-.4-.4c0-.1.04-.2.12-.28a.4.4 0 0 1 .56 0c.08.07.12.18.12.28a.4.4 0 0 1-.4.4zM3.58 21.17a.4.4 0 0 1-.4-.4c0-.1.04-.2.1-.28a.4.4 0 0 1 .58 0 .4.4 0 0 1 0 .57.4.4 0 0 1-.28.11zM7.2 17.11a.4.4 0 0 1-.4-.4.4.4 0 0 1 .12-.28.42.42 0 0 1 .56 0c.08.07.13.17.13.28s-.05.21-.12.28a.4.4 0 0 1-.28.12zM1.95 19.11a.4.4 0 0 1-.28-.12.4.4 0 0 1-.12-.28c0-.1.05-.2.12-.28a.42.42 0 0 1 .57 0c.07.07.12.17.12.28a.41.41 0 0 1-.41.4zM5.08 14.17a.4.4 0 0 1-.28-.1.42.42 0 0 1-.12-.3c0-.1.04-.2.12-.28a.4.4 0 0 1 .56 0c.08.07.12.17.12.28s-.04.21-.12.3a.4.4 0 0 1-.28.1zM7.85 7.57a.36.36 0 0 1-.28-.12c-.08-.07-.12-.17-.12-.28s.04-.2.12-.29c.14-.14.4-.14.56.01.08.07.12.17.12.28s-.04.21-.12.28a.36.36 0 0 1-.28.12zM5.14 8.61a.36.36 0 0 1-.28-.12.4.4 0 0 1 0-.57.41.41 0 0 1 .56 0c.08.08.12.2.12.3s-.04.2-.12.27a.36.36 0 0 1-.28.12zM1.12 10.8a.36.36 0 0 1-.28-.12.4.4 0 0 1 0-.57c.15-.14.42-.14.56.01.08.07.12.17.12.28 0 .1-.04.21-.12.28a.36.36 0 0 1-.28.12zM10.35 6.44a.4.4 0 0 1-.4-.4c0-.1.04-.2.1-.28.18-.15.43-.15.58 0a.4.4 0 0 1 0 .57.4.4 0 0 1-.28.11zM20.6 6.94a.4.4 0 0 1-.4-.4c0-.1.04-.2.12-.28.13-.14.42-.15.57.01.07.06.1.17.1.27a.4.4 0 0 1-.4.4zM12.47 4.7c-.1 0-.2-.05-.27-.12a.37.37 0 0 1-.01-.56.39.39 0 0 1 .56 0c.08.06.12.17.12.27 0 .11-.04.21-.11.3a.44.44 0 0 1-.3.1zM11.85 8.82a.36.36 0 0 1-.28-.12c-.08-.07-.12-.17-.12-.28s.04-.2.12-.28c.14-.15.4-.15.56 0 .08.07.12.17.12.28s-.04.21-.12.28a.36.36 0 0 1-.28.12zM16.98 2.07a.4.4 0 0 1-.3-.12c-.06-.07-.11-.17-.11-.28s.05-.2.12-.29c.14-.14.43-.14.57.01.07.07.12.17.12.28s-.05.21-.13.28a.36.36 0 0 1-.27.12zM15.46 4.8a.4.4 0 0 1-.3-.12.4.4 0 0 1-.11-.28c0-.1.05-.2.12-.29.14-.14.42-.14.57.01a.4.4 0 0 1 .12.28.4.4 0 0 1-.12.28.4.4 0 0 1-.28.12zM13.8 6.92a.4.4 0 0 1-.4-.4c0-.1.05-.2.13-.28.14-.14.42-.15.56 0 .08.07.12.18.12.28 0 .11-.04.21-.12.28a.36.36 0 0 1-.28.12zM17.46 6.42a.4.4 0 0 1-.3-.12c-.06-.07-.11-.17-.11-.28s.05-.2.13-.28c.13-.14.4-.15.56 0 .07.07.12.18.12.28 0 .11-.05.21-.12.3a.43.43 0 0 1-.28.1zM15.75 8.8a.4.4 0 0 1-.3-.12.43.43 0 0 1-.1-.28.4.4 0 0 1 .12-.29c.14-.14.4-.14.56.01a.4.4 0 0 1 .12.28c0 .1-.04.2-.12.28s-.18.12-.28.12zM13.19 11.07a.4.4 0 0 1-.4-.4.4.4 0 0 1 .12-.29c.13-.13.42-.14.56.01.07.07.12.17.12.28s-.05.21-.12.28a.4.4 0 0 1-.28.12zM15.7 11.55a.4.4 0 0 1-.4-.4c0-.1.05-.22.13-.29.13-.14.4-.14.56.01a.4.4 0 0 1 .12.28c0 .11-.05.21-.13.28a.36.36 0 0 1-.27.12zM11.1 12.57a.36.36 0 0 1-.28-.12c-.08-.07-.12-.17-.12-.28s.04-.2.12-.29c.13-.13.42-.14.57.01.07.07.1.17.1.28s-.03.21-.11.28a.38.38 0 0 1-.28.12zM10.47 15.57a.4.4 0 0 1-.28-.12c-.07-.07-.12-.17-.12-.28s.05-.2.12-.28a.4.4 0 0 1 .56 0c.08.07.12.17.12.28a.4.4 0 0 1-.4.4zM14.02 13.9a.37.37 0 0 1-.28-.14.38.38 0 0 1-.12-.27.4.4 0 0 1 .13-.29c.12-.14.4-.15.56.01.07.06.1.17.1.28 0 .1-.03.21-.11.28a.4.4 0 0 1-.28.12zM13.22 16.57a.4.4 0 0 1-.28-.12.44.44 0 0 1-.12-.28c0-.1.05-.2.13-.29.13-.14.4-.15.56.01.07.07.1.17.1.28a.4.4 0 0 1-.4.4zM15.89 20.86a.36.36 0 0 1-.28-.12.4.4 0 0 1 0-.57c.13-.14.42-.15.56.01.07.06.12.17.12.28 0 .1-.04.2-.12.28a.36.36 0 0 1-.28.12zM17.46 13.67a.4.4 0 0 1-.3-.12c-.06-.07-.11-.17-.11-.28s.05-.2.13-.28c.12-.14.4-.15.56 0 .07.07.12.18.12.28a.41.41 0 0 1-.4.4zM18.2 11.17c-.1 0-.2-.04-.28-.1-.07-.09-.12-.19-.12-.3s.05-.2.13-.28c.13-.14.4-.15.56 0 .07.07.1.17.1.28s-.03.21-.1.3a.44.44 0 0 1-.3.1zM20.56 13.67a.4.4 0 0 1-.4-.4c0-.1.04-.2.12-.28.13-.14.42-.15.57 0 .06.07.1.17.1.28s-.03.21-.11.3a.4.4 0 0 1-.28.1zM20.75 10.61a.4.4 0 0 1-.4-.4.4.4 0 0 1 .12-.29c.14-.14.42-.14.56.01.07.07.12.17.12.28s-.04.21-.12.28a.4.4 0 0 1-.28.12zM22.93 8.55a.4.4 0 0 1-.28-.12.44.44 0 0 1-.12-.28c0-.1.05-.2.13-.29.13-.14.4-.15.56.01a.4.4 0 0 1 .1.28c0 .1-.03.2-.1.28a.4.4 0 0 1-.3.12zM25.6 7.98c-.1 0-.2-.04-.27-.1a.45.45 0 0 1-.12-.3c0-.1.05-.2.13-.28.13-.14.4-.15.56 0 .07.07.12.18.12.28 0 .11-.05.21-.12.3a.44.44 0 0 1-.3.1zM22.96 11.55a.4.4 0 0 1-.4-.4c0-.1.04-.2.1-.29.15-.14.44-.14.58.01a.4.4 0 0 1 .12.28c0 .11-.05.21-.13.28a.4.4 0 0 1-.27.12zM25.7 10.42a.44.44 0 0 1-.28-.1.45.45 0 0 1-.12-.3c0-.1.05-.2.13-.28.13-.14.4-.15.56 0 .07.07.1.17.1.28s-.03.21-.1.3a.43.43 0 0 1-.28.1zM25.76 13.36a.42.42 0 0 1-.28-.12.4.4 0 0 1-.12-.29c0-.1.05-.2.12-.28.13-.14.42-.15.57.01.07.06.1.17.1.27a.4.4 0 0 1-.11.3.4.4 0 0 1-.28.11zM23.2 14.3a.4.4 0 0 1-.28-.12.44.44 0 0 1-.12-.28c0-.1.05-.2.12-.29.15-.14.42-.15.57 0 .07.08.1.18.1.3a.4.4 0 0 1-.38.4zM25.46 16.21a.4.4 0 0 1-.4-.4c0-.1.04-.2.12-.28.13-.14.42-.15.57 0 .06.07.1.17.1.28s-.03.21-.11.3a.4.4 0 0 1-.28.1zM29.54 10.8a.4.4 0 0 1-.4-.4c0-.1.04-.22.12-.29.14-.14.42-.14.56.01a.4.4 0 0 1 .12.28c0 .1-.05.2-.12.28a.4.4 0 0 1-.28.12zM28.22 12.86a.38.38 0 0 1-.28-.12c-.08-.07-.12-.17-.12-.28a.4.4 0 0 1 .8 0c0 .11-.04.21-.12.28a.36.36 0 0 1-.28.12zM30.2 14.42a.44.44 0 0 1-.28-.1.44.44 0 0 1-.11-.3c0-.1.04-.2.1-.28a.42.42 0 0 1 .58 0c.07.07.12.18.12.28 0 .11-.05.21-.12.3a.43.43 0 0 1-.28.1zM28.2 16.3a.4.4 0 0 1-.28-.12.41.41 0 0 1-.11-.28c0-.1.04-.22.12-.29.14-.14.42-.14.56.01.07.06.12.17.12.28 0 .1-.05.21-.12.28a.4.4 0 0 1-.28.12zM25.77 21.36a.4.4 0 0 1-.4-.4.4.4 0 0 1 .12-.29c.14-.14.42-.14.56.01.07.07.12.17.12.28s-.04.2-.12.28a.4.4 0 0 1-.28.12zM26.89 18.86a.4.4 0 0 1-.28-.12c-.07-.07-.12-.17-.12-.28s.04-.2.12-.28a.42.42 0 0 1 .57 0c.07.07.1.17.1.28s-.03.21-.11.3a.4.4 0 0 1-.28.1zM29.68 20.36a.4.4 0 0 1-.28-.12.4.4 0 0 1-.12-.28c0-.1.05-.2.12-.28a.41.41 0 0 1 .56 0c.08.07.12.17.12.28a.4.4 0 0 1-.4.4zM30.75 17.8a.4.4 0 0 1-.4-.4c0-.1.04-.2.1-.29.16-.14.44-.14.58.01.08.07.12.17.12.28a.4.4 0 0 1-.12.28.4.4 0 0 1-.28.12zM32.94 15.92a.44.44 0 0 1-.3-.1c-.06-.09-.1-.19-.1-.3s.04-.2.12-.28c.13-.14.4-.15.56 0 .07.07.1.17.1.28s-.03.21-.1.3a.43.43 0 0 1-.28.1zM34.62 13.24c-.1 0-.2-.05-.28-.12a.4.4 0 0 1-.12-.28.4.4 0 0 1 .1-.28c.18-.17.44-.16.58 0a.4.4 0 0 1 0 .56.4.4 0 0 1-.28.12zM35.7 16.17a.44.44 0 0 1-.28-.1.44.44 0 0 1-.11-.3c0-.1.04-.2.1-.28a.42.42 0 0 1 .58 0c.07.07.12.18.12.28 0 .11-.05.21-.12.3a.43.43 0 0 1-.28.1zM38.46 15.86a.4.4 0 0 1-.4-.4.4.4 0 0 1 .12-.29c.13-.13.4-.14.56.01.07.07.12.17.12.28s-.05.21-.12.28a.4.4 0 0 1-.28.12zM40.73 17.07a.4.4 0 0 1-.3-.12c-.06-.07-.11-.18-.11-.28s.05-.2.12-.28a.42.42 0 0 1 .57 0c.07.07.12.17.12.28s-.05.21-.13.28a.36.36 0 0 1-.27.12zM38.35 18.45a.4.4 0 0 1-.28-.12.38.38 0 0 1-.12-.29c0-.1.04-.2.12-.28.16-.15.42-.15.56 0 .08.07.12.18.12.28 0 .11-.04.22-.12.3a.4.4 0 0 1-.28.11zM36.85 21.32a.36.36 0 0 1-.28-.12c-.08-.07-.12-.17-.12-.28s.04-.2.12-.29a.43.43 0 0 1 .57.01c.07.07.1.17.1.28s-.03.21-.11.28a.36.36 0 0 1-.28.12zM37.48 24.82a.4.4 0 0 1-.3-.12c-.06-.07-.11-.17-.11-.28s.05-.2.12-.28a.4.4 0 0 1 .57 0c.07.07.1.17.1.28a.4.4 0 0 1-.38.4zM37.3 27.42a.4.4 0 0 1-.4-.4c0-.1.05-.2.13-.28.14-.15.42-.15.57 0 .07.07.1.17.1.28s-.03.21-.11.3a.4.4 0 0 1-.28.1zM37.48 30.2a.44.44 0 0 1-.3-.12.45.45 0 0 1-.11-.29c0-.1.05-.2.13-.28.14-.15.4-.15.56.01.07.06.1.17.1.27 0 .11-.03.21-.1.3a.43.43 0 0 1-.28.1zM37.14 33.94a.4.4 0 0 1-.4-.4c0-.1.04-.2.12-.28.13-.14.4-.15.56.01.07.06.12.17.12.27a.4.4 0 0 1-.12.3.43.43 0 0 1-.28.1zM38.1 36.32a.36.36 0 0 1-.28-.12c-.08-.07-.12-.17-.12-.28s.04-.2.12-.28a.4.4 0 0 1 .56 0c.08.07.12.17.12.28s-.04.21-.12.28a.36.36 0 0 1-.28.12zM39.23 38.2a.44.44 0 0 1-.3-.12.44.44 0 0 1-.11-.28.4.4 0 0 1 .13-.29c.14-.14.42-.15.56.01.07.06.12.17.12.28 0 .1-.05.2-.12.28a.43.43 0 0 1-.28.11zM39.98 13.45a.45.45 0 0 1-.3-.12.43.43 0 0 1-.11-.29c0-.1.05-.2.12-.28a.42.42 0 0 1 .57 0c.07.08.1.18.1.28 0 .11-.03.22-.11.3a.4.4 0 0 1-.27.11zM41.97 15.44c-.1 0-.2-.04-.28-.1a.4.4 0 0 1-.12-.3c0-.1.05-.2.12-.28.15-.15.43-.15.57.01.07.06.12.17.12.27 0 .11-.05.21-.12.3a.44.44 0 0 1-.3.1zM37.14 12.92a.4.4 0 0 1-.28-.12.36.36 0 0 1-.12-.28c0-.1.04-.2.12-.28.16-.15.42-.15.56 0a.4.4 0 0 1 0 .57.4.4 0 0 1-.28.11zM34.64 10.23c-.1 0-.2-.04-.28-.1a.4.4 0 0 1 0-.57c.15-.16.42-.15.57 0 .07.06.1.17.1.28 0 .1-.03.2-.1.28a.43.43 0 0 1-.3.11zM42.46 3.67a.44.44 0 0 1-.3-.1.42.42 0 0 1-.1-.3c0-.1.04-.2.1-.28.18-.15.43-.15.58 0 .07.07.1.18.1.28 0 .11-.03.22-.11.3a.39.39 0 0 1-.27.1zM49.74 13.17a.44.44 0 0 1-.3-.1.45.45 0 0 1-.11-.3c0-.1.05-.2.12-.28a.42.42 0 0 1 .57 0c.07.07.12.18.12.28a.41.41 0 0 1-.4.4zM51.46 17.55a.4.4 0 0 1-.3-.12c-.06-.08-.11-.18-.11-.28s.05-.2.12-.28a.4.4 0 0 1 .57 0c.07.07.12.17.12.28 0 .11-.05.21-.13.28a.36.36 0 0 1-.27.12zM49.1 15.67a.4.4 0 0 1-.4-.4c0-.1.05-.2.13-.28.13-.14.42-.15.57 0 .07.07.1.17.1.28s-.03.21-.11.3a.4.4 0 0 1-.28.1zM48.08 17.55a.36.36 0 0 1-.28-.12.4.4 0 0 1-.12-.28c0-.1.04-.2.12-.28a.42.42 0 0 1 .57 0 .4.4 0 0 1 .1.28c0 .1-.03.2-.11.28a.36.36 0 0 1-.28.12zM49.08 19.47a.4.4 0 0 1-.28-.12.4.4 0 0 1-.12-.28c0-.1.04-.22.12-.29a.41.41 0 0 1 .56 0c.08.07.12.18.12.3 0 .1-.04.2-.12.27a.4.4 0 0 1-.28.12zM52.7 19.67a.4.4 0 0 1-.28-.12.4.4 0 0 1-.12-.28c0-.1.05-.2.12-.28a.42.42 0 0 1 .57 0c.07.08.12.18.12.28 0 .11-.05.21-.12.3a.43.43 0 0 1-.28.1zM50.96 20.92a.44.44 0 0 1-.3-.1.44.44 0 0 1-.1-.3c0-.1.04-.2.1-.28.18-.15.43-.15.58 0 .07.07.1.18.1.28 0 .11-.03.21-.1.3a.43.43 0 0 1-.28.1zM47.75 21.63a.4.4 0 0 1-.4-.4.4.4 0 0 1 .1-.28c.18-.15.43-.15.58 0 .08.07.12.17.12.28s-.04.21-.12.28a.4.4 0 0 1-.28.12zM46.08 18.55a.36.36 0 0 1-.28-.12.4.4 0 0 1-.12-.28c0-.1.04-.2.12-.28a.42.42 0 0 1 .57 0 .4.4 0 0 1 .1.28c0 .1-.03.2-.11.28a.36.36 0 0 1-.28.12zM44.48 16.44a.44.44 0 0 1-.3-.1.45.45 0 0 1-.11-.3c0-.1.05-.2.13-.28.14-.15.4-.15.56.01.07.06.1.17.1.27 0 .11-.03.21-.1.3a.43.43 0 0 1-.28.1zM42.9 19.3a.38.38 0 0 1-.27-.12.4.4 0 0 1-.12-.28.4.4 0 0 1 .12-.28c.15-.16.42-.15.57 0a.4.4 0 0 1 .1.28c0 .1-.03.2-.1.28a.4.4 0 0 1-.3.12zM40.4 20.13a.41.41 0 0 1-.27-.1.42.42 0 0 1-.12-.3c0-.1.05-.2.12-.28a.42.42 0 0 1 .57 0c.07.07.1.17.1.28s-.03.21-.1.3a.44.44 0 0 1-.3.1zM44.96 20.8c-.11 0-.21-.04-.3-.12s-.11-.18-.11-.28.05-.2.12-.28a.42.42 0 0 1 .57 0c.07.07.12.17.12.28 0 .1-.05.2-.12.28a.4.4 0 0 1-.28.12zM45.4 23.47a.42.42 0 0 1-.27-.12.4.4 0 0 1-.12-.28c0-.1.04-.2.12-.28a.4.4 0 0 1 .57 0 .4.4 0 0 1 .1.28c0 .1-.03.2-.1.28a.45.45 0 0 1-.3.12zM49.46 22.92a.44.44 0 0 1-.3-.1.47.47 0 0 1-.11-.3c0-.1.05-.2.12-.28a.4.4 0 0 1 .57 0c.07.08.1.18.1.28 0 .11-.03.21-.1.3a.43.43 0 0 1-.28.1zM48.08 24.97a.4.4 0 0 1-.28-.12.4.4 0 0 1 0-.57c.15-.15.42-.14.57.01.07.06.1.17.1.28 0 .1-.03.2-.11.28a.4.4 0 0 1-.28.12zM52.33 3.05a.36.36 0 0 1-.28-.12.36.36 0 0 1-.12-.28c0-.1.04-.2.12-.28.14-.15.4-.15.56 0 .08.08.12.18.12.28s-.04.2-.11.28a.4.4 0 0 1-.3.12zM49.7 4.05a.4.4 0 0 1-.28-.12c-.07-.07-.12-.18-.12-.28s.05-.2.12-.28a.4.4 0 0 1 .57 0 .4.4 0 0 1 .1.28c0 .11-.03.21-.11.28a.36.36 0 0 1-.27.12zM50.2 1.3a.4.4 0 0 1-.28-.12C49.85 1.1 49.8 1 49.8.9s.05-.2.12-.28a.4.4 0 0 1 .57 0 .4.4 0 0 1 .12.28c0 .1-.05.2-.12.28a.4.4 0 0 1-.28.12zM46.96 1.3a.4.4 0 0 1-.4-.4c0-.1.04-.22.12-.29.14-.14.42-.14.56.01.07.06.1.17.1.28 0 .11-.03.21-.11.28a.36.36 0 0 1-.27.12zM46.58 3.55a.36.36 0 0 1-.28-.12.36.36 0 0 1-.12-.28c0-.1.04-.2.12-.28a.4.4 0 0 1 .56 0c.08.07.12.17.12.28 0 .11-.04.21-.12.28a.36.36 0 0 1-.28.12zM44.08 2.17a.4.4 0 0 1-.4-.4c0-.1.04-.2.12-.28a.4.4 0 0 1 .57.01c.07.06.1.16.1.27s-.03.21-.11.3a.4.4 0 0 1-.28.1zM41.46 1.05a.4.4 0 0 1-.3-.12.44.44 0 0 1-.11-.28.4.4 0 0 1 .12-.28.42.42 0 0 1 .57 0 .4.4 0 0 1 .12.28c0 .1-.04.2-.12.28s-.18.12-.28.12zM52.58 22.42a.4.4 0 0 1-.4-.4c0-.1.04-.2.12-.28a.4.4 0 0 1 .56 0 .4.4 0 0 1 0 .57.4.4 0 0 1-.28.11zM52.7 12.24a.44.44 0 0 1-.28-.1.45.45 0 0 1-.12-.3c0-.1.05-.2.13-.28.13-.14.42-.15.56 0a.4.4 0 0 1 .12.28c0 .11-.05.21-.12.3a.43.43 0 0 1-.28.1zM52.04 15.26a.4.4 0 0 1-.28-.12.36.36 0 0 1-.12-.28c0-.1.04-.2.1-.28.18-.16.44-.15.58 0 .08.07.12.17.12.28a.4.4 0 0 1-.4.4zM45.15 8.37a.4.4 0 0 1-.3-.12.43.43 0 0 1-.1-.28.4.4 0 0 1 .1-.28.42.42 0 0 1 .59 0c.06.06.1.17.1.28 0 .1-.03.21-.11.28a.36.36 0 0 1-.28.12zM46.96 6.67a.44.44 0 0 1-.3-.1.44.44 0 0 1-.1-.3c0-.1.04-.2.1-.28a.42.42 0 0 1 .58 0c.07.07.1.18.1.28 0 .11-.03.21-.1.3a.43.43 0 0 1-.28.1zM47.36 9.8a.36.36 0 0 1-.28-.12.36.36 0 0 1-.12-.28c0-.1.04-.22.12-.29a.43.43 0 0 1 .57.01c.07.06.1.17.1.28 0 .11-.03.21-.11.28a.36.36 0 0 1-.28.12zM43.99 11.17a.4.4 0 0 1-.4-.4c0-.1.04-.2.1-.28a.42.42 0 0 1 .58 0 .41.41 0 0 1-.01.57.39.39 0 0 1-.27.11zM46.36 14.92a.4.4 0 0 1-.4-.4c0-.1.04-.2.12-.28.14-.15.42-.15.57 0 .07.07.1.17.1.28s-.03.21-.11.3a.4.4 0 0 1-.28.1zM43.1 13.44a.4.4 0 0 1-.4-.4c0-.1.04-.2.12-.28a.4.4 0 0 1 .57.01c.07.06.1.17.1.27a.4.4 0 0 1-.4.4zM46.36 12.8a.36.36 0 0 1-.28-.12.4.4 0 0 1 0-.57.41.41 0 0 1 .56 0 .4.4 0 0 1 0 .57.36.36 0 0 1-.28.12zM49.9 10.97c-.1 0-.2-.05-.27-.12a.4.4 0 0 1 0-.57.42.42 0 0 1 .57 0c.07.08.1.18.1.3 0 .1-.03.2-.1.27a.45.45 0 0 1-.3.12zM49.6 7.87a.4.4 0 0 1-.4-.4c0-.1.05-.2.13-.28.14-.15.42-.15.57.01.07.06.1.16.1.27a.4.4 0 0 1-.4.4zM52.33 9.05a.36.36 0 0 1-.28-.12.4.4 0 0 1 0-.57c.14-.14.4-.15.56 0 .08.1.12.2.12.3s-.04.2-.11.27a.4.4 0 0 1-.3.12zM51.82 6.1a.4.4 0 0 1-.28-.12.38.38 0 0 1-.12-.28c0-.1.05-.22.12-.29a.43.43 0 0 1 .57.01c.07.06.1.17.1.28 0 .1-.03.21-.1.28a.4.4 0 0 1-.3.12zM37.73 9.82a.4.4 0 0 1-.4-.4.4.4 0 0 1 .12-.29c.13-.14.4-.14.56.01.07.07.1.17.1.28a.4.4 0 0 1-.38.4zM37.27 7.05a.4.4 0 0 1-.4-.4c0-.1.04-.22.12-.29.14-.14.42-.14.56.01.07.06.12.17.12.28 0 .11-.04.21-.12.28a.36.36 0 0 1-.28.12zM33.89 7.17a.41.41 0 0 1-.28-.1.4.4 0 0 1-.12-.3c0-.1.05-.2.12-.28a.42.42 0 0 1 .57 0c.07.07.1.18.1.28 0 .11-.03.21-.1.3a.43.43 0 0 1-.3.1zM28.2 8.61a.4.4 0 0 1-.4-.4.4.4 0 0 1 .12-.28c.15-.15.43-.15.57 0 .07.07.12.17.12.28s-.05.21-.12.28a.4.4 0 0 1-.28.12zM26.96 5.57a.4.4 0 0 1-.3-.12.4.4 0 0 1-.11-.28c0-.1.05-.2.13-.28.12-.14.4-.15.56 0 .07.07.1.17.1.28s-.03.21-.1.3a.43.43 0 0 1-.28.1zM23.92 5.91a.4.4 0 0 1-.4-.4.4.4 0 0 1 .12-.29c.14-.14.42-.14.56.01a.4.4 0 0 1 .12.28c0 .11-.04.21-.12.28a.4.4 0 0 1-.28.12zM21.39 4.8a.4.4 0 0 1-.28-.12.4.4 0 0 1-.12-.28c0-.1.05-.2.12-.29.13-.14.42-.15.57.01.07.06.1.17.1.28 0 .11-.03.21-.11.28a.36.36 0 0 1-.28.12zM18.7 3.8a.4.4 0 0 1-.28-.12.44.44 0 0 1-.12-.28c0-.1.05-.2.13-.29.13-.14.4-.15.56.01a.4.4 0 0 1 .1.28.4.4 0 0 1-.4.4zM19.83 1.24a.4.4 0 0 1-.28-.12.4.4 0 0 1 0-.57.41.41 0 0 1 .56 0 .4.4 0 0 1 .12.3c0 .1-.04.2-.12.27a.4.4 0 0 1-.28.12zM22.58 2a.36.36 0 0 1-.28-.13.4.4 0 0 1 0-.57.4.4 0 0 1 .56 0 .4.4 0 0 1 .12.3c0 .1-.04.2-.12.27a.36.36 0 0 1-.28.12zM25.08 3.4a.41.41 0 0 1-.3-.14.35.35 0 0 1-.1-.27.4.4 0 0 1 .12-.29.4.4 0 0 1 .56 0 .4.4 0 0 1 .12.3c0 .1-.04.2-.12.27a.4.4 0 0 1-.28.12zM29.02 3.55a.4.4 0 0 1-.4-.4.4.4 0 0 1 .68-.29c.07.08.12.18.12.3a.4.4 0 0 1-.12.27.36.36 0 0 1-.28.12zM34.64 1.67a.41.41 0 0 1-.28-.1.4.4 0 1 1 .68-.3c0 .11-.04.21-.11.3a.43.43 0 0 1-.3.1zM37.96 1.24a.45.45 0 0 1-.3-.12.4.4 0 0 1-.1-.28c0-.1.04-.2.1-.29a.43.43 0 0 1 .58 0c.07.08.12.18.12.3 0 .1-.05.2-.13.27a.4.4 0 0 1-.27.12zM31.85 9.32a.4.4 0 0 1-.4-.4c0-.1.04-.2.12-.28.14-.15.4-.15.56 0 .08.07.12.18.12.28 0 .11-.05.22-.12.3a.43.43 0 0 1-.28.1zM30.27 6.8a.36.36 0 0 1-.28-.12.4.4 0 0 1-.12-.28c0-.1.04-.2.12-.28.13-.15.4-.16.56 0 .08.07.12.17.12.28 0 .11-.04.21-.12.28a.4.4 0 0 1-.28.12zM32.33 5.17a.36.36 0 0 1-.28-.12c-.08-.06-.12-.17-.12-.28 0-.1.04-.2.12-.28.14-.15.4-.15.56 0 .08.07.12.18.12.28 0 .11-.04.22-.12.3a.4.4 0 0 1-.28.1zM35.35 4.32a.36.36 0 0 1-.28-.12c-.08-.07-.12-.17-.12-.28s.04-.2.12-.28c.14-.15.4-.15.56 0 .08.07.12.17.12.28s-.04.21-.12.28a.36.36 0 0 1-.28.12zM31.73 2.2a.44.44 0 0 1-.3-.12c-.06-.08-.1-.18-.1-.29s.04-.2.12-.28c.13-.14.4-.15.56.01.07.06.1.16.1.27s-.03.21-.1.3a.43.43 0 0 1-.28.1zM39.73 5.45a.45.45 0 0 1-.3-.12.45.45 0 0 1-.11-.29c0-.1.05-.2.12-.28a.4.4 0 0 1 .57 0c.07.08.12.18.12.28a.4.4 0 0 1-.13.3.4.4 0 0 1-.27.11zM42.98 6.44a.44.44 0 0 1-.3-.1.4.4 0 0 1-.11-.29c0-.1.05-.2.12-.29.15-.15.43-.15.57.01.07.06.12.17.12.28 0 .1-.05.2-.12.28a.43.43 0 0 1-.28.11zM42.6 9.2a.4.4 0 0 1-.4-.4c0-.1.04-.2.1-.29a.4.4 0 0 1 .58 0 .4.4 0 0 1 0 .57.4.4 0 0 1-.28.11zM40.1 7.7a.4.4 0 0 1-.4-.4c0-.1.04-.22.12-.29a.4.4 0 0 1 .57.01c.07.06.1.17.1.27a.4.4 0 0 1-.4.4zM40.73 10.82a.4.4 0 0 1-.3-.12.4.4 0 0 1-.11-.28.4.4 0 0 1 .12-.28.42.42 0 0 1 .57 0c.07.07.12.17.12.28s-.05.21-.12.28a.4.4 0 0 1-.28.12zM44.96 5.05c-.11 0-.21-.04-.3-.12s-.11-.18-.11-.28.05-.2.12-.28a.42.42 0 0 1 .57 0c.07.07.12.17.12.28 0 .1-.05.2-.12.28a.4.4 0 0 1-.28.12zM39.2 3.42a.44.44 0 0 1-.28-.1.44.44 0 0 1-.11-.3c0-.1.04-.2.1-.28a.42.42 0 0 1 .58 0c.07.08.12.18.12.28 0 .11-.05.21-.12.3a.43.43 0 0 1-.28.1zM36.02 19.42a.44.44 0 0 1-.3-.1.44.44 0 0 1-.1-.3c0-.1.04-.2.1-.28.18-.15.43-.15.58 0a.4.4 0 0 1 0 .57.43.43 0 0 1-.28.11zM33.14 19.17a.41.41 0 0 1-.28-.1.4.4 0 0 1 0-.58.42.42 0 0 1 .57 0c.07.07.1.17.1.28s-.03.21-.11.3a.4.4 0 0 1-.28.1zM33.27 22.17a.44.44 0 0 1-.3-.1.44.44 0 0 1-.1-.3c0-.1.04-.2.1-.28a.42.42 0 0 1 .58 0c.07.07.12.18.12.28a.4.4 0 0 1-.4.4zM32.58 24.8a.36.36 0 0 1-.28-.12.36.36 0 0 1-.12-.28.4.4 0 0 1 .12-.29c.14-.14.4-.15.56 0a.4.4 0 0 1 .12.3c0 .1-.04.2-.12.27a.36.36 0 0 1-.28.12zM35.46 24.05a.4.4 0 0 1-.3-.12c-.06-.07-.11-.18-.11-.28s.05-.2.12-.28a.42.42 0 0 1 .57 0c.07.07.12.18.12.28s-.05.2-.12.28a.41.41 0 0 1-.28.12zM34.83 26.3a.36.36 0 0 1-.28-.12.36.36 0 0 1-.12-.28.4.4 0 0 1 .12-.29.43.43 0 0 1 .56 0 .4.4 0 0 1 .12.3c0 .1-.04.2-.12.27a.36.36 0 0 1-.28.12zM39.58 22.8a.36.36 0 0 1-.28-.12.36.36 0 0 1-.12-.28.4.4 0 0 1 .12-.29.41.41 0 0 1 .56 0 .4.4 0 0 1 .12.3c0 .1-.04.2-.12.27a.36.36 0 0 1-.28.12zM39.83 26.05a.36.36 0 0 1-.28-.12.36.36 0 0 1-.12-.28c0-.1.04-.22.12-.29.14-.14.42-.14.57.01.07.06.1.17.1.28 0 .11-.03.21-.11.28a.36.36 0 0 1-.28.12zM41.75 24.47a.45.45 0 0 1-.3-.12.44.44 0 0 1-.1-.29c0-.1.04-.2.12-.28.14-.14.42-.14.56.01.07.06.12.17.12.27a.4.4 0 0 1-.12.3.45.45 0 0 1-.28.11zM42.75 21.97a.45.45 0 0 1-.3-.12.43.43 0 0 1-.1-.28.4.4 0 0 1 .1-.28.42.42 0 0 1 .58 0 .4.4 0 0 1 0 .56.45.45 0 0 1-.28.12zM44.75 26.13a.4.4 0 0 1-.4-.4c0-.1.04-.2.12-.28a.4.4 0 0 1 .56 0c.07.07.12.17.12.28s-.05.21-.12.28a.4.4 0 0 1-.28.12zM41.9 27.47c-.1 0-.2-.05-.27-.12a.4.4 0 0 1-.12-.28c0-.1.05-.22.12-.29a.4.4 0 0 1 .57.01c.07.06.1.17.1.28 0 .1-.03.2-.1.28a.45.45 0 0 1-.3.12zM39.94 28.86a.4.4 0 0 1-.3-.12c-.06-.07-.11-.17-.11-.28s.05-.2.12-.28a.4.4 0 0 1 .57 0c.07.07.1.17.1.28s-.03.21-.11.3a.39.39 0 0 1-.27.1zM41.85 31.2a.4.4 0 0 1-.4-.4c0-.1.04-.2.1-.29.18-.16.44-.15.58 0a.4.4 0 0 1 0 .57.4.4 0 0 1-.28.11zM43.97 29.32a.4.4 0 0 1-.28-.12c-.07-.07-.12-.18-.12-.28s.05-.2.12-.28a.4.4 0 0 1 .57 0c.07.07.12.17.12.28s-.05.21-.13.28a.36.36 0 0 1-.28.12zM46.48 27.94a.44.44 0 0 1-.3-.1.44.44 0 0 1-.11-.29c0-.1.05-.2.12-.29.17-.15.42-.15.57 0 .07.08.1.18.1.3 0 .1-.03.2-.1.27a.43.43 0 0 1-.28.11zM50.85 25.07a.36.36 0 0 1-.28-.12c-.08-.07-.12-.17-.12-.28s.04-.2.12-.28a.4.4 0 0 1 .56 0c.08.07.12.17.12.28s-.04.21-.12.28a.4.4 0 0 1-.28.12zM39.69 31.96a.4.4 0 0 1-.3-.12.38.38 0 0 1-.11-.28c0-.1.04-.2.12-.28a.4.4 0 0 1 .57 0c.07.08.12.18.12.28a.4.4 0 0 1-.12.28.4.4 0 0 1-.28.12zM42.96 33.8a.4.4 0 0 1-.3-.12.44.44 0 0 1-.11-.28c0-.1.05-.2.12-.28a.42.42 0 0 1 .57 0c.07.07.12.17.12.28 0 .1-.05.2-.12.28a.4.4 0 0 1-.28.12zM45.46 31.17a.44.44 0 0 1-.3-.1.45.45 0 0 1-.11-.3c0-.1.05-.2.12-.28a.42.42 0 0 1 .57 0c.07.07.12.17.12.28s-.05.21-.12.3a.43.43 0 0 1-.28.1zM45.83 33.8a.36.36 0 0 1-.28-.12.4.4 0 0 1-.12-.28c0-.1.04-.2.12-.28a.42.42 0 0 1 .57 0 .4.4 0 0 1 .1.28c0 .1-.03.2-.11.28a.36.36 0 0 1-.28.12zM47.85 30.82a.36.36 0 0 1-.28-.12.4.4 0 0 1-.12-.28c0-.1.04-.2.12-.28a.42.42 0 0 1 .57 0c.06.07.1.17.1.28s-.03.21-.11.28a.36.36 0 0 1-.28.12zM49.23 27.57a.4.4 0 0 1-.3-.12.4.4 0 0 1-.11-.28.4.4 0 0 1 .12-.28c.15-.15.43-.15.57 0 .07.07.12.17.12.28s-.05.21-.12.28a.4.4 0 0 1-.28.12zM52.1 28.7a.4.4 0 0 1-.28-.12.4.4 0 0 1 0-.57.4.4 0 0 1 .57.01c.07.06.1.17.1.27 0 .11-.03.22-.11.3a.4.4 0 0 1-.28.11zM52.9 26.63c-.1 0-.2-.04-.27-.1a.42.42 0 0 1-.12-.3c0-.1.05-.2.12-.28a.42.42 0 0 1 .57 0c.07.07.1.17.1.28s-.03.21-.1.3a.44.44 0 0 1-.3.1zM50.58 30.3a.36.36 0 0 1-.28-.12.4.4 0 0 1 0-.57c.15-.14.4-.15.56 0 .08.08.12.2.12.3s-.04.2-.11.27a.4.4 0 0 1-.3.12zM49.35 33.44a.4.4 0 0 1-.4-.4c0-.1.04-.2.1-.28a.4.4 0 0 1 .58 0 .4.4 0 0 1 0 .57.4.4 0 0 1-.28.11zM52.58 31.8a.36.36 0 0 1-.28-.12.36.36 0 0 1-.12-.28.4.4 0 0 1 .12-.29.43.43 0 0 1 .56 0 .4.4 0 0 1 .12.3c0 .1-.04.2-.12.27a.36.36 0 0 1-.28.12zM47.96 35.67a.44.44 0 0 1-.3-.1c-.06-.09-.1-.19-.1-.3s.04-.2.12-.28c.12-.14.4-.15.56 0 .07.07.12.17.12.28s-.05.21-.12.3a.43.43 0 0 1-.28.1zM52.46 38.3c-.11 0-.21-.04-.3-.12s-.11-.18-.11-.28a.4.4 0 0 1 .12-.28.4.4 0 0 1 .57 0c.07.06.1.17.1.28a.4.4 0 0 1-.38.4zM50.54 40.01a.4.4 0 0 1-.28-.12.36.36 0 0 1-.12-.28c0-.1.04-.2.1-.28.19-.16.44-.15.58 0 .08.07.12.17.12.28a.4.4 0 0 1-.4.4zM48.27 41.55a.4.4 0 0 1-.28-.12c-.07-.07-.12-.18-.12-.28s.04-.2.12-.28a.42.42 0 0 1 .57 0c.07.07.1.17.1.28 0 .11-.03.21-.11.28a.36.36 0 0 1-.28.12zM50.58 42.8a.36.36 0 0 1-.28-.12.4.4 0 0 1 0-.57c.13-.14.4-.14.56.01.08.07.12.17.12.28 0 .1-.04.2-.11.28a.4.4 0 0 1-.3.12zM51.02 45.28a.4.4 0 0 1-.28-.12.42.42 0 0 1-.12-.28.4.4 0 0 1 .12-.28c.15-.16.42-.15.57 0a.4.4 0 0 1 .1.28c0 .11-.03.21-.11.28a.36.36 0 0 1-.28.12zM52.54 42.07c-.1 0-.2-.04-.28-.1a.4.4 0 0 1 0-.57.4.4 0 0 1 .56 0 .4.4 0 0 1 0 .56.4.4 0 0 1-.28.11zM46.46 43.17a.44.44 0 0 1-.3-.1.44.44 0 0 1-.1-.3c0-.1.04-.2.1-.28.18-.15.43-.15.58 0 .07.07.1.18.1.28 0 .11-.03.21-.1.3a.43.43 0 0 1-.28.1zM45.7 45.67a.4.4 0 0 1-.28-.12.4.4 0 0 1-.12-.28c0-.1.05-.2.12-.28a.4.4 0 0 1 .56 0 .4.4 0 0 1 .13.28.4.4 0 0 1-.12.28.4.4 0 0 1-.28.12zM43.1 45.24a.36.36 0 0 1-.28-.12.38.38 0 0 1-.12-.28c0-.1.04-.2.1-.28a.4.4 0 0 1 .58 0 .4.4 0 0 1 .12.28c0 .11-.04.21-.12.28a.36.36 0 0 1-.28.12zM35.58 53.8a.36.36 0 0 1-.28-.12.4.4 0 0 1 0-.57c.14-.14.4-.15.56 0a.4.4 0 0 1 0 .57.36.36 0 0 1-.28.12zM48.08 47.05a.36.36 0 0 1-.28-.12.38.38 0 0 1-.12-.28c0-.1.04-.2.12-.28.15-.16.42-.15.57 0a.4.4 0 0 1 .1.28c0 .11-.03.21-.11.28a.36.36 0 0 1-.28.12zM46.83 49.42a.4.4 0 0 1-.4-.4c0-.1.04-.2.12-.28a.4.4 0 0 1 .56 0 .4.4 0 0 1 0 .57.4.4 0 0 1-.28.11zM50.33 48.05c-.1 0-.2-.04-.28-.1a.44.44 0 0 1-.12-.3c0-.1.04-.2.12-.28.15-.16.42-.15.57 0 .07.06.1.17.1.28 0 .1-.03.21-.11.28a.4.4 0 0 1-.28.12zM49.33 50.3a.36.36 0 0 1-.28-.12.4.4 0 0 1 0-.57.4.4 0 0 1 .56.01c.08.07.12.17.12.28 0 .11-.04.21-.12.28a.36.36 0 0 1-.28.12zM46.7 52.3a.4.4 0 0 1-.4-.4c0-.1.05-.22.13-.29.14-.14.42-.14.56.01.07.06.12.17.12.28 0 .11-.05.21-.13.28a.36.36 0 0 1-.27.12zM43.7 50.8a.4.4 0 0 1-.4-.4c0-.1.05-.22.13-.29.13-.14.4-.15.56.01.07.06.12.17.12.28 0 .11-.05.21-.13.28a.36.36 0 0 1-.27.12zM41.97 48.32a.4.4 0 0 1-.28-.12c-.07-.07-.12-.17-.12-.28s.05-.2.12-.28a.42.42 0 0 1 .57 0c.07.07.12.17.12.28s-.05.21-.12.28a.4.4 0 0 1-.3.12zM38.85 47.7a.4.4 0 0 1-.4-.4.4.4 0 0 1 .12-.29c.14-.15.4-.15.56 0a.4.4 0 0 1 .12.3.4.4 0 0 1-.11.26.4.4 0 0 1-.3.12zM40.7 51.3a.4.4 0 0 1-.28-.12.43.43 0 0 1-.11-.28c0-.1.04-.2.1-.29.16-.14.42-.15.57 0 .08.08.13.18.13.3 0 .1-.05.2-.12.27a.4.4 0 0 1-.3.12zM39.83 53.55a.36.36 0 0 1-.28-.12.36.36 0 0 1-.12-.28c0-.1.05-.22.12-.29.13-.14.4-.15.56.01.08.07.12.17.12.28 0 .1-.04.21-.12.28a.36.36 0 0 1-.28.12zM38.33 50.05a.36.36 0 0 1-.28-.12.4.4 0 0 1-.12-.28c0-.1.04-.2.1-.28.18-.16.44-.15.58 0a.4.4 0 0 1 0 .56.36.36 0 0 1-.28.12zM37.58 52.17a.36.36 0 0 1-.28-.12c-.08-.07-.12-.17-.12-.28s.04-.2.12-.28c.13-.14.42-.15.57 0 .07.07.1.17.1.28s-.03.21-.11.3a.4.4 0 0 1-.28.1zM43.58 53.05a.36.36 0 0 1-.28-.12.36.36 0 0 1-.12-.28c0-.1.04-.22.12-.29.13-.14.4-.15.56.01.08.07.12.17.12.28 0 .1-.04.2-.12.28a.36.36 0 0 1-.28.12zM49.1 52.92a.4.4 0 0 1-.4-.4c0-.1.05-.2.13-.28a.4.4 0 0 1 .56 0 .4.4 0 0 1 0 .57.4.4 0 0 1-.28.11zM52.08 49.85a.36.36 0 0 1-.28-.12.4.4 0 0 1-.12-.28c0-.1.04-.2.12-.28a.42.42 0 0 1 .57 0c.07.06.1.17.1.28 0 .1-.03.21-.11.28a.36.36 0 0 1-.28.12zM52.4 47.15a.44.44 0 0 1-.3-.1.43.43 0 0 1-.1-.29c0-.1.04-.2.1-.29a.4.4 0 0 1 .58 0 .4.4 0 0 1 0 .57.4.4 0 0 1-.28.11zM51.99 52.67a.4.4 0 0 1-.4-.4.4.4 0 0 1 .68-.27c.07.06.1.16.1.27s-.03.21-.11.3a.39.39 0 0 1-.27.1zM44.46 47.92a.44.44 0 0 1-.3-.1c-.06-.09-.1-.19-.1-.3s.04-.2.12-.28a.4.4 0 0 1 .56.01c.07.06.12.16.12.27s-.05.21-.12.3a.43.43 0 0 1-.28.1zM9.33 37.05a.36.36 0 0 1-.28-.12.36.36 0 0 1-.12-.28c0-.1.04-.22.12-.29.13-.14.4-.15.56.01.08.06.12.17.12.28 0 .11-.04.21-.12.28a.36.36 0 0 1-.28.12zM48.7 44.8a.4.4 0 0 1-.28-.12.42.42 0 0 1-.12-.28.4.4 0 0 1 .12-.28.4.4 0 0 1 .57 0c.07.06.12.17.12.28 0 .11-.05.21-.13.28a.36.36 0 0 1-.27.12zM44.96 36.42a.44.44 0 0 1-.3-.1.45.45 0 0 1-.11-.3c0-.1.05-.2.12-.28.15-.15.43-.15.57 0 .07.07.12.17.12.28s-.05.21-.12.3a.43.43 0 0 1-.28.1zM41.97 36.82a.4.4 0 0 1-.28-.12.4.4 0 0 1-.12-.28c0-.1.04-.2.12-.28a.4.4 0 0 1 .57 0c.07.07.12.17.12.28s-.05.21-.12.28a.4.4 0 0 1-.3.12zM39.83 34.67a.36.36 0 0 1-.28-.12.36.36 0 0 1-.12-.28c0-.1.04-.2.12-.28a.4.4 0 0 1 .56 0c.08.07.12.18.12.28 0 .11-.04.21-.12.28a.36.36 0 0 1-.28.12zM36.7 39.36c-.1 0-.2-.05-.28-.12a.42.42 0 0 1-.12-.28c0-.1.05-.2.12-.29a.4.4 0 0 1 .56 0c.08.08.13.18.13.3 0 .1-.05.2-.13.27a.4.4 0 0 1-.28.12zM44.46 38.92a.44.44 0 0 1-.3-.1c-.06-.09-.1-.19-.1-.3s.04-.2.12-.28c.14-.15.4-.15.56 0 .07.07.1.17.1.28s-.03.21-.1.3a.43.43 0 0 1-.28.1zM41.7 39.67a.44.44 0 0 1-.28-.1.44.44 0 0 1-.11-.3c0-.1.04-.2.1-.28a.42.42 0 0 1 .58 0c.07.07.1.18.1.28 0 .11-.03.21-.1.3a.43.43 0 0 1-.28.1zM41.33 42.42a.36.36 0 0 1-.28-.12c-.08-.06-.12-.17-.12-.28 0-.1.04-.2.12-.28.16-.15.42-.15.56 0a.4.4 0 0 1 .12.28c0 .11-.04.22-.12.3a.4.4 0 0 1-.28.1zM39.33 40.8a.36.36 0 0 1-.28-.12.36.36 0 0 1-.12-.28.4.4 0 0 1 .12-.29.43.43 0 0 1 .56 0 .4.4 0 0 1 .12.3c0 .1-.04.2-.12.27a.36.36 0 0 1-.28.12zM38.19 43.14a.45.45 0 0 1-.3-.12.43.43 0 0 1-.1-.28.4.4 0 0 1 .1-.28c.17-.16.44-.16.58 0a.4.4 0 0 1 .12.28c0 .1-.05.2-.12.28a.44.44 0 0 1-.28.12zM35.46 41.55a.4.4 0 0 1-.3-.12c-.06-.08-.11-.18-.11-.28s.05-.2.12-.28a.42.42 0 0 1 .57 0c.08.08.12.18.12.28s-.04.2-.12.28-.18.12-.28.12zM35.58 44.3a.36.36 0 0 1-.28-.12.4.4 0 0 1-.12-.28c0-.1.04-.2.1-.28a.42.42 0 0 1 .58 0 .4.4 0 0 1 0 .56.36.36 0 0 1-.28.12zM33.83 39.17a.36.36 0 0 1-.28-.12c-.08-.06-.12-.17-.12-.28 0-.1.04-.2.12-.28a.4.4 0 0 1 .56 0c.08.07.12.18.12.28 0 .11-.04.22-.12.3a.4.4 0 0 1-.28.1zM35.46 36.55a.4.4 0 0 1-.4-.4c0-.1.04-.2.1-.29.16-.14.42-.15.57 0 .08.08.13.18.13.3 0 .1-.05.2-.13.27a.36.36 0 0 1-.27.12zM32.7 36.42a.44.44 0 0 1-.28-.1c-.07-.09-.11-.19-.11-.3s.04-.2.12-.28c.13-.14.42-.15.56 0 .07.07.1.17.1.28s-.03.21-.1.3a.43.43 0 0 1-.28.1zM33.96 33.92a.44.44 0 0 1-.3-.1c-.06-.09-.1-.19-.1-.3s.04-.2.12-.28a.4.4 0 0 1 .56 0c.07.07.12.17.12.28s-.05.21-.12.3a.43.43 0 0 1-.28.1zM35.7 31.92a.4.4 0 0 1-.4-.4c0-.1.05-.2.13-.28.14-.15.4-.15.56 0 .07.07.12.17.12.28s-.05.21-.12.3a.43.43 0 0 1-.28.1zM32.7 30.8a.4.4 0 0 1-.4-.4c0-.1.05-.2.12-.29a.44.44 0 0 1 .57 0c.07.08.1.18.1.3 0 .1-.03.2-.11.27a.36.36 0 0 1-.27.12zM34.96 29.42a.44.44 0 0 1-.3-.1.44.44 0 0 1-.1-.3c0-.1.04-.2.1-.28a.42.42 0 0 1 .58 0c.07.07.1.18.1.28 0 .11-.03.21-.1.3a.43.43 0 0 1-.28.1zM32.58 27.67a.4.4 0 0 1-.4-.4.4.4 0 0 1 .12-.28c.13-.14.4-.15.56 0 .08.07.12.17.12.28s-.04.21-.12.3a.4.4 0 0 1-.28.1zM29.6 28.2a.4.4 0 0 1-.4-.4c0-.12.04-.22.12-.29.13-.14.42-.15.57.01.06.06.1.16.1.27s-.03.21-.11.3a.4.4 0 0 1-.28.1zM26.96 27.17a.44.44 0 0 1-.3-.1c-.06-.09-.1-.19-.1-.3s.04-.2.1-.28a.42.42 0 0 1 .58 0c.07.07.12.17.12.28s-.05.21-.12.3a.43.43 0 0 1-.28.1zM23.2 26.92a.4.4 0 0 1-.28-.12.38.38 0 0 1-.11-.28c0-.1.04-.2.1-.28a.42.42 0 0 1 .58 0c.07.07.1.18.1.28 0 .11-.03.22-.11.3a.39.39 0 0 1-.27.1zM19.58 26.92a.36.36 0 0 1-.28-.12c-.08-.06-.12-.17-.12-.28 0-.1.04-.2.12-.28a.4.4 0 0 1 .56 0c.08.07.12.18.12.28 0 .11-.04.22-.12.3a.4.4 0 0 1-.28.1zM18.08 29.17a.36.36 0 0 1-.28-.12c-.08-.07-.12-.17-.12-.28s.04-.2.12-.28c.13-.14.4-.15.56 0 .08.07.12.17.12.28s-.04.21-.12.3a.4.4 0 0 1-.28.1zM21.58 29.05a.36.36 0 0 1-.28-.12.38.38 0 0 1-.12-.28c0-.1.04-.22.12-.29a.42.42 0 0 1 .57.01.4.4 0 0 1 .1.28c0 .1-.03.2-.11.28a.36.36 0 0 1-.28.12zM19.96 31.05a.4.4 0 0 1-.4-.4c0-.1.04-.22.12-.29.14-.14.4-.14.56.01a.4.4 0 0 1 .12.28c0 .1-.05.2-.12.28a.4.4 0 0 1-.28.12zM25.2 29.17a.44.44 0 0 1-.28-.1c-.07-.09-.11-.19-.11-.3s.04-.2.12-.28a.4.4 0 0 1 .56 0c.07.07.12.18.12.28a.4.4 0 0 1-.12.28.4.4 0 0 1-.28.12zM23.46 31.17a.44.44 0 0 1-.3-.1.47.47 0 0 1-.11-.3c0-.1.05-.2.12-.28a.42.42 0 0 1 .57 0c.07.07.12.18.12.28 0 .11-.04.2-.12.28a.4.4 0 0 1-.28.12zM27.2 30.8a.4.4 0 0 1-.28-.12.41.41 0 0 1-.11-.28c0-.1.04-.22.12-.29.13-.14.4-.15.56.01.07.06.1.17.1.28 0 .1-.03.21-.1.28a.4.4 0 0 1-.28.12zM29.73 31.2a.44.44 0 0 1-.3-.12.43.43 0 0 1-.1-.28c0-.1.04-.22.12-.29.13-.14.4-.15.56 0 .07.07.1.18.1.3 0 .1-.03.2-.1.27a.43.43 0 0 1-.28.11zM27.33 33.05a.36.36 0 0 1-.28-.12.36.36 0 0 1-.12-.28c0-.1.04-.22.12-.29.14-.14.42-.14.57.01a.4.4 0 0 1 .1.28c0 .1-.03.2-.11.28a.36.36 0 0 1-.28.12zM31.23 33.32a.4.4 0 0 1-.4-.4.4.4 0 0 1 .1-.28.4.4 0 0 1 .58 0c.07.07.1.17.1.28a.4.4 0 0 1-.38.4zM28.97 35.2c-.1 0-.2-.05-.28-.12a.4.4 0 0 1 0-.57.42.42 0 0 1 .57 0c.07.08.12.18.12.3 0 .1-.05.2-.12.26a.4.4 0 0 1-.3.12zM29.96 37.3a.4.4 0 0 1-.4-.4c0-.1.04-.2.1-.29a.43.43 0 0 1 .58.01.4.4 0 0 1 .1.28c0 .11-.03.21-.11.28a.36.36 0 0 1-.27.12zM30.7 22.74a.45.45 0 0 1-.28-.12.43.43 0 0 1-.11-.28c0-.1.04-.2.1-.29a.42.42 0 0 1 .58 0c.07.08.12.18.12.3 0 .1-.05.2-.12.27a.44.44 0 0 1-.28.12zM27.64 23.5c-.1 0-.2-.06-.28-.13a.4.4 0 0 1-.12-.28c0-.1.05-.2.12-.29a.41.41 0 0 1 .56 0 .4.4 0 0 1 0 .57.4.4 0 0 1-.28.12zM24.08 23.24a.41.41 0 0 1-.3-.13.37.37 0 0 1-.1-.27.4.4 0 0 1 .12-.29.41.41 0 0 1 .56 0 .4.4 0 0 1 .12.3c0 .1-.04.2-.12.27a.4.4 0 0 1-.28.12zM21.96 16.42a.44.44 0 0 1-.3-.1c-.06-.09-.1-.19-.1-.3s.04-.2.12-.28c.13-.14.4-.15.56.01.07.06.12.16.12.27s-.05.21-.12.3a.43.43 0 0 1-.28.1zM20.46 18.74a.45.45 0 0 1-.3-.12.44.44 0 0 1-.11-.28c0-.1.05-.2.12-.29a.42.42 0 0 1 .57 0c.07.08.1.18.1.3 0 .1-.03.2-.1.27a.44.44 0 0 1-.28.12zM23.74 19.14c-.1 0-.2-.05-.28-.12a.44.44 0 0 1-.12-.28c0-.1.05-.22.12-.29a.42.42 0 0 1 .57.01c.07.06.1.17.1.28 0 .1-.03.2-.1.28a.45.45 0 0 1-.3.12zM21.83 21.67a.4.4 0 0 1-.4-.4c0-.1.04-.2.12-.28a.4.4 0 0 1 .56 0 .4.4 0 0 1 0 .57.4.4 0 0 1-.28.11zM18.47 23.57a.4.4 0 0 1-.28-.12c-.07-.08-.12-.18-.12-.28s.05-.2.12-.28a.42.42 0 0 1 .57 0 .4.4 0 0 1 .12.28c0 .1-.05.2-.12.28a.4.4 0 0 1-.3.12zM21.35 24.57a.36.36 0 0 1-.28-.12c-.08-.07-.12-.17-.12-.28s.04-.2.12-.28a.4.4 0 0 1 .56 0c.08.08.12.18.12.28s-.04.21-.12.28a.36.36 0 0 1-.28.12zM25.35 24.94a.4.4 0 0 1-.4-.4c0-.1.04-.2.12-.28.16-.15.42-.15.56 0a.4.4 0 0 1 0 .57.4.4 0 0 1-.28.11zM29.6 25.44a.4.4 0 0 1-.4-.4c0-.1.04-.2.12-.28.14-.15.4-.15.56 0a.4.4 0 0 1 0 .57.4.4 0 0 1-.28.11zM18.64 20.67a.41.41 0 0 1-.28-.1.4.4 0 0 1 0-.58.42.42 0 0 1 .57 0 .41.41 0 0 1 0 .56.42.42 0 0 1-.3.12zM14.5 18.98a.44.44 0 0 1-.3-.1.44.44 0 0 1-.1-.3c0-.1.04-.2.12-.28.13-.14.4-.15.56.01.07.06.12.17.12.27a.4.4 0 0 1-.12.3.43.43 0 0 1-.28.1zM14.73 23.07a.4.4 0 0 1-.3-.12c-.06-.07-.11-.17-.11-.28s.05-.2.13-.29c.12-.13.4-.14.56.01.07.07.1.17.1.28a.4.4 0 0 1-.38.4zM11.98 18.32a.4.4 0 0 1-.4-.4c0-.1.04-.22.12-.29.13-.14.4-.15.56.01.07.07.12.17.12.28s-.05.21-.12.28a.4.4 0 0 1-.28.12zM11.97 21.07a.4.4 0 0 1-.28-.12c-.07-.07-.12-.17-.12-.28s.05-.2.13-.29c.13-.13.4-.14.56.01.07.06.1.17.1.28s-.03.21-.11.28a.36.36 0 0 1-.28.12zM11.07 23.86a.4.4 0 0 1-.4-.4c0-.1.04-.2.12-.28a.4.4 0 0 1 .56 0c.08.07.12.18.12.28s-.04.2-.11.28a.4.4 0 0 1-.3.12zM13.27 24.8a.4.4 0 0 1-.3-.12.43.43 0 0 1-.1-.28c0-.1.04-.22.12-.29.13-.14.4-.15.56.01.07.06.12.17.12.28 0 .1-.04.21-.12.28a.36.36 0 0 1-.28.12zM16.33 26a.4.4 0 0 1-.28-.13.4.4 0 0 1-.12-.28c0-.1.04-.22.12-.29a.41.41 0 0 1 .56 0 .4.4 0 0 1 0 .56.41.41 0 0 1-.28.13zM14.77 28.8a.45.45 0 0 1-.3-.12.4.4 0 0 1-.1-.28.4.4 0 0 1 .12-.29c.14-.14.4-.14.56 0a.4.4 0 0 1 0 .57.38.38 0 0 1-.28.12zM12.52 27.42a.4.4 0 0 1-.4-.4c0-.1.04-.2.12-.28a.4.4 0 0 1 .56 0 .4.4 0 0 1 0 .57.43.43 0 0 1-.28.11zM11.46 29.3a.4.4 0 0 1-.3-.12.44.44 0 0 1-.11-.28c0-.1.05-.2.13-.29.13-.14.4-.15.56 0 .07.07.1.18.1.3a.4.4 0 0 1-.38.4zM12.95 31.17c-.1 0-.2-.04-.28-.1-.07-.09-.12-.19-.12-.3s.05-.2.13-.28c.13-.14.4-.15.56 0 .07.07.12.17.12.28s-.05.21-.12.3a.44.44 0 0 1-.3.1zM16.47 31c-.1 0-.2-.05-.28-.12a.42.42 0 0 1-.12-.29c0-.1.05-.2.12-.28a.42.42 0 0 1 .57 0 .41.41 0 0 1 0 .56.4.4 0 0 1-.3.12zM15.12 33.14a.4.4 0 0 1-.28-.12.4.4 0 0 1-.12-.28c0-.1.04-.22.12-.29.13-.14.42-.15.56.01.07.06.12.17.12.28 0 .1-.04.2-.12.28a.4.4 0 0 1-.28.12zM18.2 33.3a.4.4 0 0 1-.4-.4c0-.1.05-.22.13-.29.13-.14.4-.15.56.01.07.06.1.17.1.28a.4.4 0 0 1-.38.4zM16.96 36.1a.45.45 0 0 1-.3-.13.43.43 0 0 1-.1-.28c0-.1.04-.2.1-.29a.42.42 0 0 1 .58.01.4.4 0 0 1 .1.28c0 .1-.03.2-.1.28a.44.44 0 0 1-.28.12zM21.33 32.92a.4.4 0 0 1-.4-.4c0-.1.04-.2.12-.28.14-.15.4-.15.56 0a.4.4 0 0 1 .12.28c0 .11-.04.21-.12.28a.36.36 0 0 1-.28.12zM24.58 33.92a.4.4 0 0 1-.4-.4c0-.1.04-.2.12-.28.14-.15.42-.15.57 0 .07.07.1.18.1.28 0 .11-.03.21-.11.28a.36.36 0 0 1-.28.12zM22.08 35.3a.36.36 0 0 1-.28-.12.36.36 0 0 1-.12-.28c0-.1.04-.22.12-.29.13-.14.42-.14.57.01.07.06.1.17.1.28 0 .11-.03.21-.11.28a.36.36 0 0 1-.28.12zM19.62 36.4a.4.4 0 0 1-.28-.13.4.4 0 0 1 0-.57.41.41 0 0 1 .56 0 .4.4 0 0 1 0 .57.4.4 0 0 1-.28.12zM23.33 37.3a.36.36 0 0 1-.28-.12.36.36 0 0 1-.12-.28.4.4 0 0 1 .12-.29.41.41 0 0 1 .56 0 .4.4 0 0 1 .12.3c0 .1-.04.2-.12.27a.36.36 0 0 1-.28.12zM24.9 39.93a.4.4 0 0 1-.4-.4c0-.1.05-.2.12-.28.17-.15.42-.15.57 0 .07.07.12.18.12.28 0 .11-.05.21-.12.3a.43.43 0 0 1-.28.1zM22.35 40.44a.4.4 0 0 1-.4-.39.4.4 0 0 1 .12-.29c.14-.14.4-.15.56 0a.4.4 0 0 1 0 .57.4.4 0 0 1-.28.11zM24.19 43.32a.4.4 0 0 1-.4-.4.4.4 0 0 1 .1-.28.43.43 0 0 1 .58 0c.08.08.12.18.12.28s-.05.21-.12.28a.4.4 0 0 1-.28.12zM21.58 42.71a.4.4 0 0 1-.28-.12.4.4 0 0 1 0-.57.41.41 0 0 1 .56 0 .4.4 0 0 1 0 .57.4.4 0 0 1-.28.12zM19.1 48.57a.36.36 0 0 1-.28-.12c-.08-.07-.12-.17-.12-.28s.04-.2.12-.28c.14-.15.4-.15.56 0 .08.07.12.17.12.28s-.04.21-.12.28a.36.36 0 0 1-.28.12zM25.97 36.2c-.1 0-.2-.05-.28-.12a.44.44 0 0 1-.11-.29c0-.1.04-.2.1-.28a.4.4 0 0 1 .57 0 .4.4 0 0 1 .12.28c0 .11-.04.21-.11.3a.44.44 0 0 1-.3.1zM20.96 38.67a.4.4 0 0 1-.3-.12.38.38 0 0 1-.1-.28c0-.1.04-.2.1-.28a.42.42 0 0 1 .58 0c.07.07.1.18.1.28 0 .11-.03.22-.11.3a.39.39 0 0 1-.27.1zM17.3 38.82a.4.4 0 0 1-.27-.12.4.4 0 0 1 0-.57c.15-.14.4-.15.56 0 .08.08.12.2.12.3s-.04.2-.11.27a.4.4 0 0 1-.3.12zM19.58 40.4a.4.4 0 0 1-.28-.13.4.4 0 0 1 0-.57.41.41 0 0 1 .56 0 .4.4 0 0 1 0 .57.4.4 0 0 1-.28.12zM16.58 41.67a.4.4 0 0 1-.4-.4c0-.1.04-.2.12-.28a.4.4 0 0 1 .56 0 .4.4 0 0 1 0 .57.4.4 0 0 1-.28.11zM14.2 40.42a.44.44 0 0 1-.28-.1.47.47 0 0 1-.12-.3c0-.1.05-.2.12-.28a.4.4 0 0 1 .57 0c.07.08.12.18.12.28 0 .11-.05.21-.12.3a.43.43 0 0 1-.28.1zM27.35 38.62a.36.36 0 0 1-.28-.12.36.36 0 0 1-.12-.28.4.4 0 0 1 .12-.29.41.41 0 0 1 .56 0 .4.4 0 0 1 0 .57.4.4 0 0 1-.28.12zM30.83 39.67a.36.36 0 0 1-.28-.12.36.36 0 0 1-.12-.28c0-.1.04-.2.1-.28a.4.4 0 0 1 .58 0 .4.4 0 0 1 .12.28c0 .11-.04.21-.12.28a.36.36 0 0 1-.28.12zM28.7 40.92c-.1 0-.2-.04-.28-.1a.44.44 0 0 1-.11-.3c0-.1.04-.2.1-.28a.4.4 0 0 1 .57 0c.08.07.13.18.13.28 0 .11-.05.21-.12.3a.44.44 0 0 1-.3.1zM32.58 42.05a.36.36 0 0 1-.28-.12.4.4 0 0 1 0-.57.41.41 0 0 1 .56 0 .4.4 0 0 1 .12.3c0 .1-.04.2-.12.27a.36.36 0 0 1-.28.12zM32.33 44.42a.4.4 0 0 1-.4-.4c0-.1.04-.2.12-.28.14-.15.4-.15.56 0a.4.4 0 0 1 0 .57.4.4 0 0 1-.28.11zM34.33 46.92a.4.4 0 0 1-.4-.4c0-.1.04-.2.12-.28.14-.15.4-.15.56 0 .08.08.12.18.12.28s-.04.2-.11.28a.4.4 0 0 1-.3.12zM37.58 45.74a.36.36 0 0 1-.28-.12.36.36 0 0 1-.12-.28c0-.1.04-.2.1-.28.19-.16.44-.15.58 0a.4.4 0 0 1 0 .57.4.4 0 0 1-.28.11zM32.9 49.13a.4.4 0 0 1-.27-.12.4.4 0 0 1-.12-.28c0-.1.05-.2.12-.28a.4.4 0 0 1 .57 0 .41.41 0 0 1-.01.57.4.4 0 0 1-.28.11zM30.96 47.3c-.11 0-.21-.04-.3-.12s-.11-.18-.11-.28.05-.2.12-.28a.42.42 0 0 1 .57 0c.07.07.1.17.1.28 0 .1-.03.2-.1.28a.4.4 0 0 1-.28.12zM29.46 43.55a.4.4 0 0 1-.3-.12.44.44 0 0 1-.11-.28c0-.1.05-.2.12-.29a.43.43 0 0 1 .56 0 .39.39 0 0 1 0 .57.4.4 0 0 1-.27.12zM26.58 42.3a.36.36 0 0 1-.28-.12.36.36 0 0 1-.12-.28.4.4 0 0 1 .12-.29.41.41 0 0 1 .56 0 .4.4 0 0 1 .12.3c0 .1-.04.2-.12.27a.36.36 0 0 1-.28.12zM27.7 45.42a.4.4 0 0 1-.4-.4c0-.1.05-.2.13-.28.13-.14.4-.15.56 0 .07.07.12.17.12.28s-.05.21-.12.3a.43.43 0 0 1-.28.1zM28.33 48.17a.36.36 0 0 1-.28-.12.36.36 0 0 1-.12-.28c0-.1.04-.2.12-.28a.4.4 0 0 1 .56 0 .4.4 0 0 1 0 .57.43.43 0 0 1-.28.11zM30.2 50.36a.4.4 0 0 1-.28-.12.4.4 0 0 1-.12-.28c0-.1.05-.2.12-.28a.4.4 0 0 1 .57 0c.07.07.12.18.12.28a.41.41 0 0 1-.4.4zM32.1 53.2a.4.4 0 0 1-.4-.4.4.4 0 0 1 .12-.29c.14-.15.4-.15.56 0a.4.4 0 0 1 0 .56.4.4 0 0 1-.28.12zM33.97 51.2a.39.39 0 0 1-.28-.13.38.38 0 0 1-.12-.28c0-.1.05-.2.12-.28a.42.42 0 0 1 .57 0c.07.08.12.18.12.28a.4.4 0 0 1-.13.3.4.4 0 0 1-.28.11zM36.1 48.82a.36.36 0 0 1-.28-.12c-.08-.07-.12-.17-.12-.28s.04-.2.12-.28c.15-.15.4-.15.56 0 .08.07.12.17.12.28s-.04.21-.12.28a.36.36 0 0 1-.28.12zM40.48 45.24a.44.44 0 0 1-.3-.1.45.45 0 0 1-.11-.3c0-.1.05-.2.12-.28a.42.42 0 0 1 .57 0c.07.08.1.18.1.28 0 .11-.03.21-.1.3a.43.43 0 0 1-.28.1zM43.97 42.44c-.1 0-.2-.04-.28-.1a.4.4 0 0 1-.12-.29c0-.1.05-.2.12-.29.15-.15.43-.15.57.01.07.06.12.17.12.28 0 .1-.05.2-.12.28a.44.44 0 0 1-.3.11zM46.23 40.45a.45.45 0 0 1-.3-.12.43.43 0 0 1-.11-.29c0-.1.05-.2.12-.28a.4.4 0 0 1 .56 0c.08.07.12.18.12.28 0 .11-.04.22-.12.3a.4.4 0 0 1-.27.11zM48.47 38.32a.4.4 0 0 1-.28-.12.4.4 0 0 1-.12-.28.4.4 0 0 1 .12-.28c.15-.15.43-.15.57 0 .07.07.12.17.12.28s-.05.21-.12.28a.4.4 0 0 1-.3.12zM50.6 36.23a.4.4 0 0 1-.4-.4c0-.1.04-.2.12-.28.14-.15.4-.15.56 0a.4.4 0 0 1 .12.28c0 .11-.04.2-.11.28a.4.4 0 0 1-.3.12zM52.29 34.3a.4.4 0 0 1-.28-.12c-.07-.07-.12-.18-.12-.28s.05-.2.12-.28c.15-.15.43-.15.57 0a.4.4 0 0 1 .1.28.4.4 0 0 1-.4.4zM29.2 52.55a.4.4 0 0 1-.4-.4c0-.1.05-.2.12-.29a.4.4 0 0 1 .56 0c.08.08.13.18.13.3 0 .1-.05.2-.13.27a.36.36 0 0 1-.27.12zM26.83 51.17a.36.36 0 0 1-.28-.12c-.08-.07-.12-.17-.12-.28s.05-.2.12-.28c.13-.14.4-.15.56 0 .08.07.12.18.12.28 0 .11-.04.21-.12.28a.36.36 0 0 1-.28.12zM24.98 48.94a.44.44 0 0 1-.3-.1.43.43 0 0 1-.11-.3c0-.1.05-.2.12-.28a.42.42 0 0 1 .57 0c.07.07.1.18.1.28 0 .11-.03.22-.11.3a.39.39 0 0 1-.27.1zM25 46.05a.4.4 0 0 1-.27-.12.4.4 0 0 1-.12-.28c0-.1.05-.2.12-.28.14-.15.4-.15.56 0 .08.08.12.18.12.28a.4.4 0 0 1-.4.4zM22.2 47.62a.4.4 0 0 1-.4-.4c0-.1.05-.2.12-.29a.42.42 0 0 1 .57 0c.07.08.12.18.12.3a.4.4 0 0 1-.12.27.4.4 0 0 1-.28.12zM21.86 45.05a.36.36 0 0 1-.28-.12.36.36 0 0 1-.12-.28.4.4 0 0 1 .12-.29.41.41 0 0 1 .56 0 .4.4 0 0 1 .12.3c0 .1-.04.2-.12.27a.36.36 0 0 1-.28.12zM22.26 50.42a.4.4 0 0 1-.28-.1.42.42 0 0 1-.12-.3c0-.1.04-.2.1-.28.18-.16.44-.15.58 0a.4.4 0 0 1 0 .57.4.4 0 0 1-.28.11zM24.4 53.13c-.1 0-.2-.04-.27-.1-.07-.09-.12-.19-.12-.3s.05-.2.12-.28c.13-.14.42-.15.57 0a.41.41 0 0 1 0 .56.4.4 0 0 1-.3.12zM21.46 52.8c-.11 0-.21-.04-.3-.12s-.11-.18-.11-.28.05-.2.12-.28a.42.42 0 0 1 .57 0c.07.07.12.17.12.28 0 .1-.05.2-.12.28a.4.4 0 0 1-.28.12zM18.96 51.42a.44.44 0 0 1-.3-.1.45.45 0 0 1-.11-.3c0-.1.05-.2.12-.28a.4.4 0 0 1 .57 0c.07.07.1.18.1.28 0 .11-.03.22-.11.3a.39.39 0 0 1-.27.1zM16.7 53.42a.4.4 0 0 1-.4-.4c0-.1.05-.2.13-.28.14-.15.4-.15.56 0 .07.07.12.17.12.28a.41.41 0 0 1-.4.4zM18.77 43.24a.4.4 0 0 1-.28-.12.4.4 0 0 1-.12-.28c0-.1.05-.2.12-.28a.41.41 0 0 1 .56 0 .4.4 0 0 1 0 .58.4.4 0 0 1-.28.1zM18.49 46.05a.4.4 0 0 1-.28-.12.4.4 0 0 1-.12-.28c0-.1.05-.2.12-.29a.43.43 0 0 1 .57 0c.07.08.1.18.1.3 0 .1-.03.2-.11.27a.36.36 0 0 1-.28.12zM15.7 44.3a.4.4 0 0 1-.28-.12c-.07-.08-.12-.18-.12-.28s.05-.2.12-.28a.42.42 0 0 1 .57 0c.07.07.12.17.12.28 0 .1-.05.2-.12.28a.4.4 0 0 1-.28.12zM13.08 42.55a.36.36 0 0 1-.28-.12.36.36 0 0 1-.12-.28.4.4 0 0 1 .12-.29c.14-.14.4-.15.56 0a.4.4 0 0 1 .12.3c0 .1-.04.2-.12.27a.36.36 0 0 1-.28.12zM11.02 39.55c-.1 0-.2-.04-.28-.12s-.12-.18-.12-.28a.4.4 0 0 1 .12-.29.41.41 0 0 1 .56 0 .4.4 0 0 1 .12.3.4.4 0 0 1-.4.4zM11.7 36.1a.45.45 0 0 1-.28-.13.43.43 0 0 1-.11-.28c0-.1.04-.2.1-.29a.43.43 0 0 1 .58 0c.07.08.12.18.12.3 0 .1-.05.2-.12.27a.44.44 0 0 1-.28.12zM9.33 34.05a.36.36 0 0 1-.28-.12.36.36 0 0 1-.12-.28.4.4 0 0 1 .12-.29.4.4 0 0 1 .56.01c.08.07.12.17.12.28 0 .11-.04.21-.12.28a.36.36 0 0 1-.28.12zM6.83 35.17a.4.4 0 0 1-.4-.4c0-.1.04-.2.12-.28a.41.41 0 0 1 .56 0c.08.08.12.18.12.28s-.04.2-.11.28a.4.4 0 0 1-.3.12zM7.08 31.55a.36.36 0 0 1-.28-.12.4.4 0 0 1 0-.57c.13-.13.4-.15.56.01.08.07.12.17.12.28 0 .1-.04.2-.12.28a.36.36 0 0 1-.28.12zM4.7 32.8a.4.4 0 0 1-.4-.4c0-.1.05-.22.13-.29.14-.14.42-.14.56.01a.4.4 0 0 1 .12.28c0 .1-.05.2-.12.28a.4.4 0 0 1-.28.12zM3.53 30.35a.4.4 0 0 1-.4-.39c0-.1.05-.22.12-.29.13-.14.4-.15.56 0 .08.07.12.18.12.3a.4.4 0 0 1-.4.38zM5.46 29.05a.4.4 0 0 1-.3-.12.43.43 0 0 1-.1-.28c0-.1.04-.2.1-.29.16-.15.44-.15.58.01a.4.4 0 0 1 .12.28c0 .1-.05.2-.12.28a.4.4 0 0 1-.28.12zM4.2 26.3a.4.4 0 0 1-.4-.4c0-.1.05-.2.12-.29.15-.14.43-.14.57.01a.4.4 0 0 1 .12.28c0 .11-.05.21-.13.28a.36.36 0 0 1-.27.12zM2.1 27.46a.36.36 0 0 1-.28-.12c-.08-.07-.12-.17-.12-.28s.04-.2.12-.28c.15-.15.42-.15.56 0 .08.07.12.18.12.28 0 .11-.04.21-.12.28a.4.4 0 0 1-.28.12zM.76 29.8a.4.4 0 0 1-.28-.12.4.4 0 0 1-.12-.28c0-.1.04-.2.12-.28a.42.42 0 0 1 .57 0c.07.06.1.17.1.28 0 .11-.03.21-.11.28a.36.36 0 0 1-.28.12zM3.2 35.05a.4.4 0 0 1-.28-.12.44.44 0 0 1-.12-.28c0-.1.05-.2.13-.29.13-.14.4-.15.56.01a.4.4 0 0 1 .12.28c0 .1-.04.2-.12.28s-.18.12-.3.12zM1.17 36.83a.36.36 0 0 1-.28-.12.36.36 0 0 1-.12-.28c0-.1.04-.2.12-.28.16-.15.42-.15.56 0a.4.4 0 0 1 0 .57.4.4 0 0 1-.28.11zM5.33 37.17a.4.4 0 0 1-.4-.4c0-.1.04-.2.12-.28.13-.14.4-.15.56 0a.4.4 0 0 1 0 .57.4.4 0 0 1-.28.11zM3.33 38.67a.36.36 0 0 1-.28-.12c-.08-.06-.12-.17-.12-.28 0-.1.04-.2.12-.28.16-.15.42-.15.56 0 .08.07.12.18.12.28 0 .11-.05.22-.12.3a.4.4 0 0 1-.28.1zM7.7 39.17a.4.4 0 0 1-.28-.12.4.4 0 0 1-.12-.28c0-.1.05-.2.12-.28a.4.4 0 0 1 .57 0c.07.07.12.18.12.28a.41.41 0 0 1-.4.4zM8.48 41.44a.44.44 0 0 1-.3-.1.44.44 0 0 1-.11-.29.4.4 0 0 1 .13-.29.4.4 0 0 1 .56.01c.07.06.1.17.1.28 0 .1-.03.2-.1.28a.43.43 0 0 1-.28.11zM1.65 42.77a.4.4 0 0 1-.4-.39.4.4 0 0 1 .12-.29c.14-.15.4-.15.56 0a.4.4 0 0 1 0 .56.4.4 0 0 1-.28.12zM5.38 40.18a.4.4 0 0 1-.28-.12.4.4 0 0 1 0-.57c.14-.14.4-.15.56 0a.4.4 0 0 1 0 .57.42.42 0 0 1-.28.12zM1.23 40.4a.36.36 0 0 1-.28-.13.36.36 0 0 1-.12-.28c0-.1.04-.2.12-.28.14-.15.4-.15.56 0a.4.4 0 0 1 .12.28c0 .11-.04.21-.12.28a.37.37 0 0 1-.28.12zM4.13 42.27a.36.36 0 0 1-.28-.12.36.36 0 0 1-.12-.28c0-.1.04-.2.12-.28.15-.15.4-.15.56 0 .08.08.12.18.12.28s-.04.2-.11.28a.4.4 0 0 1-.3.12zM.78 44.94a.44.44 0 0 1-.3-.1.44.44 0 0 1-.1-.3c0-.1.04-.2.1-.28a.4.4 0 0 1 .58 0c.07.08.12.18.12.28a.4.4 0 0 1-.13.3.38.38 0 0 1-.27.1zM3.16 46.34a.4.4 0 0 1-.4-.4c0-.1.04-.2.1-.29a.42.42 0 0 1 .58 0c.07.08.12.18.12.3s-.05.2-.12.27a.4.4 0 0 1-.28.12zM1.58 48.31a.36.36 0 0 1-.28-.12.38.38 0 0 1-.12-.28c0-.1.04-.2.12-.28.15-.16.42-.15.57 0 .07.06.1.17.1.28 0 .11-.03.21-.11.28a.36.36 0 0 1-.28.12zM1 50.53c-.1 0-.2-.05-.27-.12a.43.43 0 0 1-.12-.29c0-.1.05-.2.12-.28a.42.42 0 0 1 .57 0c.07.07.1.18.1.28 0 .11-.03.22-.11.3a.4.4 0 0 1-.28.11zM10.6 42.98a.4.4 0 0 1-.4-.4c0-.1.04-.2.12-.28.16-.15.42-.15.56 0a.4.4 0 0 1 0 .57.4.4 0 0 1-.28.11zM8.22 44.94a.4.4 0 0 1-.28-.12.38.38 0 0 1-.12-.28c0-.1.05-.2.12-.28a.4.4 0 0 1 .56 0c.08.07.12.18.12.28 0 .11-.04.22-.12.3a.4.4 0 0 1-.28.1zM4.62 44.8a.38.38 0 0 1-.28-.12.36.36 0 0 1-.12-.28.4.4 0 0 1 .12-.29.41.41 0 0 1 .56 0 .4.4 0 0 1 .12.3c0 .1-.04.2-.12.27a.36.36 0 0 1-.28.12zM5.98 46.82a.4.4 0 0 1-.3-.12c-.06-.07-.11-.17-.11-.28s.05-.2.12-.28a.4.4 0 0 1 .57 0c.07.07.1.17.1.28s-.03.21-.11.28a.36.36 0 0 1-.27.12zM6.47 42.98c-.1 0-.2-.04-.28-.1a.42.42 0 0 1-.12-.3c0-.1.04-.2.12-.28a.4.4 0 0 1 .57 0c.07.08.12.18.12.28 0 .11-.05.21-.12.3a.44.44 0 0 1-.3.1zM10.58 46.05a.36.36 0 0 1-.28-.12c-.08-.07-.12-.18-.12-.28s.04-.2.1-.28c.18-.16.44-.15.58 0a.4.4 0 0 1 .12.28c0 .11-.04.21-.12.28a.36.36 0 0 1-.28.12zM13.2 45.55a.4.4 0 0 1-.28-.12c-.07-.08-.12-.18-.12-.28s.05-.2.12-.28a.42.42 0 0 1 .57 0c.07.07.12.17.12.28 0 .1-.05.2-.12.28a.4.4 0 0 1-.28.12zM15.58 47.17a.4.4 0 0 1-.4-.4c0-.1.04-.2.12-.28.14-.15.4-.15.56 0a.4.4 0 0 1 .12.28c0 .11-.04.2-.11.28a.4.4 0 0 1-.3.12zM16.4 49.3a.4.4 0 0 1-.27-.12.4.4 0 0 1-.12-.28c0-.1.05-.2.12-.29a.43.43 0 0 1 .57 0c.07.08.1.18.1.3 0 .1-.03.2-.11.27a.36.36 0 0 1-.28.12zM8.4 47.96a.4.4 0 0 1-.28-.1c-.08-.1-.12-.2-.12-.3s.04-.2.1-.28a.4.4 0 0 1 .58 0 .4.4 0 0 1 .12.28c0 .11-.04.21-.12.28a.38.38 0 0 1-.28.12zM3.85 48.82a.36.36 0 0 1-.28-.12c-.08-.07-.12-.17-.12-.28s.04-.2.12-.28c.14-.15.4-.15.56 0 .08.08.12.18.12.28s-.04.2-.11.28a.4.4 0 0 1-.3.12zM12.46 48.36a.45.45 0 0 1-.3-.12.43.43 0 0 1-.1-.28c0-.1.04-.2.1-.29a.43.43 0 0 1 .58 0c.07.08.1.18.1.3 0 .1-.03.2-.1.27a.44.44 0 0 1-.28.12zM9.9 49.8a.38.38 0 0 1-.27-.12.4.4 0 0 1-.12-.28c0-.1.05-.2.12-.29a.42.42 0 0 1 .57.01.4.4 0 0 1 .1.28.4.4 0 0 1-.4.4zM14.58 50.63a.36.36 0 0 1-.28-.12.4.4 0 0 1-.12-.28c0-.1.04-.2.1-.28a.4.4 0 0 1 .58 0c.08.07.12.17.12.28s-.04.21-.12.3a.4.4 0 0 1-.28.1zM11.93 51.51a.4.4 0 0 1-.4-.4c0-.1.04-.2.1-.28.17-.15.44-.15.58 0a.4.4 0 0 1 .12.28c0 .11-.05.21-.12.3a.43.43 0 0 1-.28.1zM13.9 52.9a.38.38 0 0 1-.27-.12c-.07-.07-.12-.17-.12-.28s.05-.2.12-.29c.15-.14.4-.15.56 0 .08.08.12.18.12.3s-.04.2-.12.27a.36.36 0 0 1-.28.12zM9.93 53.3a.36.36 0 0 1-.28-.12.36.36 0 0 1-.12-.28.4.4 0 0 1 .12-.29.43.43 0 0 1 .56 0c.08.08.12.2.12.3s-.04.2-.11.27a.4.4 0 0 1-.3.12zM7.85 51.25a.44.44 0 0 1-.3-.1c-.06-.09-.11-.19-.11-.3s.05-.2.13-.28c.14-.15.4-.15.56 0 .07.07.1.17.1.28s-.03.21-.1.3a.43.43 0 0 1-.28.1zM3.6 51.7a.4.4 0 0 1-.4-.4c0-.1.04-.2.12-.29.14-.15.4-.15.56 0a.4.4 0 0 1 .12.28.4.4 0 0 1-.4.4zM5.92 50.08a.41.41 0 0 1-.3-.13.37.37 0 0 1-.1-.27.4.4 0 0 1 .12-.29.4.4 0 0 1 .56 0 .4.4 0 0 1 .12.3c0 .1-.05.2-.12.27a.44.44 0 0 1-.28.12zM6.2 53.47c-.1 0-.2-.05-.27-.12a.4.4 0 0 1-.12-.28c0-.1.05-.2.12-.29a.4.4 0 0 1 .56 0 .4.4 0 0 1 .12.3c0 .1-.04.2-.12.27a.4.4 0 0 1-.28.12zM1.58 52.97a.4.4 0 0 1-.28-.12.36.36 0 0 1-.12-.28c0-.1.04-.22.12-.29.15-.14.4-.15.56 0 .08.07.12.18.12.3 0 .1-.04.2-.12.27a.4.4 0 0 1-.28.12zM3.02 23.8c-.1 0-.2-.04-.28-.12s-.12-.17-.12-.28c0-.1.05-.2.12-.29.14-.14.42-.14.57.01a.4.4 0 0 1 .1.28c0 .1-.03.2-.1.28a.4.4 0 0 1-.3.12zM.4 24.47c-.1 0-.2-.05-.28-.12a.42.42 0 0 1-.12-.28.4.4 0 0 1 .12-.29.42.42 0 0 1 .57.01.4.4 0 0 1 .1.28c0 .11-.03.21-.11.28a.4.4 0 0 1-.28.12zM1.28 21.55a.36.36 0 0 1-.28-.12.38.38 0 0 1-.12-.28c0-.1.05-.2.12-.29.13-.14.4-.15.56.01.08.06.12.17.12.28 0 .11-.04.21-.12.28a.36.36 0 0 1-.28.12zM14.08 38.05a.36.36 0 0 1-.28-.12.36.36 0 0 1-.12-.28.4.4 0 0 1 .68-.29.4.4 0 0 1 .12.3c0 .1-.04.2-.12.27a.36.36 0 0 1-.28.12zM9.64 26.61a.4.4 0 0 1-.28-.12.36.36 0 0 1-.12-.28c0-.1.04-.2.12-.28.15-.16.42-.15.57 0 .07.07.1.17.1.28s-.03.21-.11.28a.36.36 0 0 1-.28.12zM5.79 23.21c-.1 0-.2-.04-.28-.1-.07-.09-.12-.19-.12-.3s.05-.2.12-.28a.42.42 0 0 1 .57 0c.07.07.1.17.1.28s-.03.21-.1.3a.43.43 0 0 1-.3.1zM7.1 26.83a.4.4 0 0 1-.28-.12.4.4 0 0 1-.12-.28c0-.1.04-.22.12-.29a.41.41 0 0 1 .56 0 .4.4 0 0 1 .12.3c0 .1-.04.2-.11.27a.45.45 0 0 1-.3.12zM8.27 24.1a.4.4 0 0 1-.4-.4c0-.12.04-.22.1-.3.15-.14.44-.15.58.01a.4.4 0 0 1 .12.28c0 .1-.05.21-.13.28a.36.36 0 0 1-.27.12zM8.22 28.94c-.1 0-.2-.04-.28-.1a.44.44 0 0 1-.12-.29.4.4 0 0 1 .13-.29c.13-.14.4-.15.56 0 .07.07.1.18.1.3 0 .1-.03.2-.1.27a.44.44 0 0 1-.3.11zM9.97 31.57a.4.4 0 0 1-.28-.12c-.07-.07-.12-.18-.12-.28s.04-.2.12-.28a.4.4 0 0 1 .56 0c.08.08.13.18.13.28s-.05.21-.12.28a.4.4 0 0 1-.3.12zM12.35 33.57a.36.36 0 0 1-.28-.12c-.08-.07-.12-.17-.12-.28s.04-.2.12-.28a.4.4 0 0 1 .56 0c.08.07.12.17.12.28s-.04.21-.12.28a.4.4 0 0 1-.28.12zM14.48 35.57a.4.4 0 0 1-.3-.12.4.4 0 0 1-.11-.28c0-.1.04-.2.12-.28a.4.4 0 0 1 .57 0c.07.07.12.17.12.28s-.05.21-.12.28a.4.4 0 0 1-.28.12zM19.1 15.7c-.1 0-.2-.05-.28-.12s-.12-.18-.12-.29c0-.1.04-.2.12-.28.13-.14.42-.15.57.01.07.07.1.17.1.27 0 .11-.03.22-.11.3s-.18.11-.28.11zM16.19 16.16a.45.45 0 0 1-.3-.12.4.4 0 0 1-.1-.28c0-.1.04-.22.12-.29.13-.14.4-.15.56 0 .07.07.12.18.12.3 0 .1-.05.2-.13.27a.36.36 0 0 1-.27.12zM17.98 18.2a.44.44 0 0 1-.3-.12.45.45 0 0 1-.11-.29c0-.1.05-.2.13-.28.13-.14.4-.15.56.01.07.06.1.16.1.27s-.03.21-.1.3a.43.43 0 0 1-.28.1zM18.87 8.74c-.1 0-.2-.04-.28-.12a.4.4 0 0 1-.01-.56c.17-.16.42-.16.57 0a.4.4 0 0 1 .12.27c0 .11-.04.21-.11.3a.44.44 0 0 1-.3.11zM8.96 10.61a.4.4 0 0 1-.3-.12c-.06-.07-.11-.17-.11-.28s.05-.2.13-.29c.13-.14.4-.14.56.01a.4.4 0 0 1 .12.28c0 .1-.05.21-.12.28a.4.4 0 0 1-.28.12zM8.02 13.48a.44.44 0 0 1-.3-.1.43.43 0 0 1-.1-.29.4.4 0 0 1 .68-.28c.07.06.12.17.12.28 0 .1-.04.2-.12.28a.43.43 0 0 1-.28.11zM9.2 19.17a.4.4 0 0 1-.28-.12c-.07-.07-.12-.17-.12-.28s.05-.2.13-.28c.13-.14.4-.15.56 0 .07.07.1.17.1.28s-.03.21-.1.3a.44.44 0 0 1-.3.1zM8.7 21.42a.4.4 0 0 1-.27-.1c-.08-.1-.13-.19-.13-.3 0-.1.05-.2.12-.28a.42.42 0 0 1 .57 0c.07.07.12.17.12.28s-.05.21-.12.3a.44.44 0 0 1-.3.1zM26.96.8a.4.4 0 0 1-.3-.12.4.4 0 0 1-.11-.28.4.4 0 0 1 .12-.28.43.43 0 0 1 .57 0c.07.07.1.17.1.28a.4.4 0 0 1-.38.4zM31.8 12.7a.38.38 0 0 1-.27-.13.4.4 0 0 1 0-.57c.13-.14.4-.15.56.01.08.07.12.17.12.28 0 .1-.04.21-.11.28a.4.4 0 0 1-.3.12zM1.77 32.66c-.1 0-.2-.04-.28-.12s-.12-.18-.12-.28c0-.1.04-.2.12-.28.15-.16.42-.15.57 0a.43.43 0 0 1 0 .56.4.4 0 0 1-.3.12z"/></svg>