<svg xmlns="http://www.w3.org/2000/svg" xml:space="preserve" width="72" height="72" viewBox="0 -72 72 72"><path d="M0-72h72V0H0z" style="fill:none"/><path d="M21.05-69.25H21M20.05-64H20M20.3-61.75h-.05M15.3-61.75h-.05M22.8-52.25h-.05M15.3-49.25h-.05M14.05-48.25H14M24.05-45.25H24M30.8-46.5h-.05M31.3-49h-.05M29.3-54h-.05M34.05-52.5H34M31.55-57.5h-.05M31.8-60.5h-.05M32.3-65.25h-.05M32.05-69.25H32M34.05-71H34M41.55-65.25h-.05M45.55-65.5h-.05M42.55-58.75h-.05M47.05-58H47M47.05-56H47M39.05-51.5H39M50.3-58.75h-.05M52.3-60.25h-.05M54.8-61.25h-.05M56.55-71.5h-.05M68.05-69.25H68M68.05-62H68M64.3-60h-.05M65.3-56.5h-.05M64.05-52.5H64M66.3-52.5h-.05M68.05-51H68M7.05-20H7M7.3-17.75h-.05M2.3-17.75h-.05M9.8-8.25h-.05M1.05-4.25H1M11.05-1.25H11M18.3-5h-.05M16.3-10h-.05M19.55-14.5h-.05M18.8-16.5h-.05M16.3-17.5h-.05M19.3-21.25h-.05M19.05-25.25H19M16.3-25h-.05M32.55-21.5h-.05M27.3-18h-.05M32.05-16.5H32M34.05-14H34M26.05-7.5H26M36.05-16H36M39.3-16.25h-.05M41.8-21.5h-.05M43.55-27.5h-.05M51.05-21.75H51M52.05-25.75H52M55.05-25.25H55M55.05-18H55M51.3-16h-.05M51.05-8.5H51M53.3-8.5h-.05M56.05-9.25H56M58.3-10.75h-.05M22.8-48.25h-.05M39.05-47.5H39M47.55-45h-.05M55.3-44.25h-.05M51.3-47h-.05M52.05-42.75H52M62.55-36.75h-.05M56.8-33.25h-.05M48.3-35h-.05M48.05-31H48M53.55-27.25h-.05M62.3-24.25h-.05M65.05-20.5H65M69.55-27.25h-.05M60.05-33.25H60M32.55-25.25h-.05M26.3-34.5h-.05M29.8-36.75h-.05M10.55-42.75h-.05M6.05-40.75H6M2.55-37H2.5M17.05-30.25H17M12.8-36.25h-.05M26.55-42h-.05M39.3-41.5h-.05M38.3-39.5h-.05M28.05-30.25H28M6.55-51.75H6.5M9.8-53.5h-.05M11.8-48.75h-.05M3.05-46.5H3M64.3-42.75h-.05M69.55-42.5h-.05M1.55-63.25H1.5M16.55-66.25h-.05M3.8-66.25h-.05M12.8-58h-.05M18.55-53h-.05M21.3-35.25h-.05M.8-28H.75M68.05-6.25H68M59.8-2.5h-.05M40.55-4.25h-.05M4.55-12.25H4.5M26.55-12.75h-.05M37.3-23.75h-.05M8.8-32h-.05M52.3-34.25h-.05M60.8-26.25h-.05M51.3-6h-.05M40.05-34.5H40M27.55-58.75h-.05M19.8-45.75h-.05M11.8-70.5h-.05M55.3-68.5h-.05M47.3-2.5h-.05M4.8-32h-.05M68.8-59h-.05M23.3-58.25h-.05M20.55-55h-.05M14.8-55h-.05M6.05-60.5H6M7.05-69.5H7M10.05-64H10M14.3-64h-.05M25.8-65.25h-.05M37.05-64.75H37M37.55-68h-.05M43.3-70h-.05M49.55-64h-.05M46.05-63H46M35.8-61.25h-.05M39.3-57.25h-.05M24.8-54.25h-.05M8.3-45h-.05M16.05-40.5H16M10.55-38.75h-.05M5.3-35.25h-.05M3.3-51.75h-.05M20.55-41.5h-.05M17.55-36.75h-.05M16.05-33.25H16M12.8-31h-.05M12.8-25.75h-.05M5.8-23.75h-.05M11.05-17.75H11M15.55-13.75h-.05M6.05-8.75H6M2.3-10.25h-.05M9.05-4.25H9M13.55-2.75h-.05M21.55-3.75h-.05M23.05-6.5H23M22.3-12.25h-.05M24.3-14.75h-.05M26.3-24.5h-.05M25.8-28.75h-.05M32.3-41.25h-.05M34.3-44.5h-.05M41.8-46.5h-.05M43.05-51.5H43M36.55-53h-.05M27.8-50h-.05M52.05-50.25H52M43.3-54.5h-.05M50.55-54.25h-.05M59.55-55h-.05M58.3-58.25h-.05M61.55-61.25h-.05M58.8-64.75h-.05M60.05-67.5H60M67.55-66.25h-.05M70.8-63.75h-.05M65.8-62.5h-.05M60.3-48.5h-.05M55.55-48.5h-.05M55.55-53.5h-.05M65.05-46.5H65M57.8-41.5h-.05M52.8-39.5h-.05M47.55-38.5h-.05M44.3-33h-.05M34.05-30.75H34M40.8-24.25h-.05M45.8-20h-.05M46.55-15.5h-.05M42.05-12.75H42M40.05-9.5H40M36.05-9.5H36M36.55-19.5h-.05M30.05-8.75H30M31.55-3.75h-.05M37.05-1.25H37M63.05-15.25H63M60.05-21.5H60M54.55-21.75h-.05M54.8-30.5h-.05M62.55-30h-.05M67.05-24.75H67M69.55-18h-.05M63.55-10.5h-.05M70.3-11.25h-.05M64.8-6.75h-.05M65.8-4h-.05M62.55-2h-.05M52.8-2.5h-.05M44.8-5.75h-.05M28.55-1h-.05M3.05-42.75H3M13.3-67.25h-.05M70.3-37.75h-.05M71.3-31h-.05M1.05-20.5H1M69.05-45.75H69M68.55-12h-.05M.55-14.5H.5M2.8-1h-.05M70.3-48.25h-.05M1.3-55.5h-.05M18.05-59.5H18M29.3-61.5h-.05M29.3-69h-.05M40.3-62h-.05M45.05-60.5H45M47.3-49.5h-.05M54.8-65.5h-.05M64.05-65.75H64M65.05-69.75H65M69.55-54.25h-.05M8.05-25.25H8M5.05-15.5H5M3.3-6.5h-.05M17.8-2.5h-.05M19.3-10h-.05M21.05-27H21M28.55-21.25h-.05M34.05-12H34M34.3-5.5h-.05M41.8-17.25h-.05M52.3-12.5h-.05M55.05-7H55M25.3-47.75h-.05M35.3-49h-.05M45.05-42.75H45M52.05-29.25H52M67.05-20.5H67M47.3-24.5h-.05M37.05-27.75H37M17.05-43.75H17M11.3-35.5h-.05M67.55-41.5h-.05M7.3-56.5h-.05M8.55-67H8.5M3.55-69.75H3.5M66.55-35h-.05M44.05-9.25H44M25.8-2.25h-.05M22.05-30.5H22M24.05-43.25H24M41.55-37.75h-.05M67.55-28.5h-.05M53.3-57.25h-.05M34.05-56.25H34M12.8-53h-.05M49.55-67.75h-.05M59.05-51.5H59M67.55-15h-.05M5.3-2.5h-.05M2.8-59h-.05M16.55-69h-.05M40.55-67.75h-.05M2.8-40.25h-.05M7.55-47.25H7.5M4.05-25.5H4M11.05-21.75H11M10.05-12.5H10M13.55-6.5h-.05M22.05-19H22M31.3-34.75h-.05M26.05-38.25H26M37.3-43.75h-.05M61.8-55.75h-.05M61.3-45.25h-.05M58.8-15.25h-.05M59.3-28h-.05M55.8-36.75h-.05M69.3-1.75h-.05M60.8-6.5h-.05M44.55-1h-.05M24.55-71.25h-.05M68.8-4.44h-.05M36.05-35.75H36M39.55-31.25h-.05M62.3-40.5h-.05M7.3-29.25h-.05" style="fill:none;stroke:#ed1b2e;stroke-linecap:round"/></svg>