<svg xmlns="http://www.w3.org/2000/svg" xml:space="preserve" width="71.71" height="71.71" viewBox="0 -71.71 71.71 71.71"><path d="M0-71.71h71.71V0H0z" style="fill:none"/><path d="M.98-71.71V0M2.92-71.71V0M4.85-71.71V0M6.79-71.71V0M8.73-71.71V0M10.67-71.71V0M12.6-71.71V0M14.54-71.71V0M16.48-71.71V0M18.42-71.71V0M20.35-71.71V0M22.29-71.71V0M24.23-71.71V0M26.17-71.71V0M28.1-71.71V0M30.04-71.71V0M31.98-71.71V0M33.92-71.71V0M35.85-71.71V0M37.79-71.71V0M39.73-71.71V0M41.67-71.71V0M43.6-71.71V0M45.54-71.71V0M47.48-71.71V0M49.42-71.71V0M51.35-71.71V0M53.29-71.71V0M55.23-71.71V0M57.17-71.71V0M59.1-71.71V0M61.04-71.71V0M62.98-71.71V0M64.92-71.71V0M66.85-71.71V0M68.79-71.71V0M70.73-71.71V0" style="fill-rule:evenodd;clip-rule:evenodd;fill:none;stroke:#ec008c;stroke-width:.43"/></svg>