<svg xmlns="http://www.w3.org/2000/svg" xml:space="preserve" width="71.71" height="71.71" viewBox="1 -73.37 71.71 71.71"><path d="M1-73.37h71.71v71.71H1z" style="fill:none"/><path d="M1.98-73.37v71.71M3.92-73.37v71.71M5.85-73.37v71.71M7.79-73.37v71.71M9.73-73.37v71.71M11.67-73.37v71.71M13.6-73.37v71.71M15.54-73.37v71.71M17.48-73.37v71.71M19.42-73.37v71.71M21.35-73.37v71.71M23.29-73.37v71.71M25.23-73.37v71.71M27.17-73.37v71.71M29.1-73.37v71.71M31.04-73.37v71.71M32.98-73.37v71.71M34.92-73.37v71.71M36.85-73.37v71.71M38.79-73.37v71.71M40.73-73.37v71.71M42.67-73.37v71.71M44.6-73.37v71.71M46.54-73.37v71.71M48.48-73.37v71.71M50.42-73.37v71.71M52.35-73.37v71.71M54.29-73.37v71.71M56.23-73.37v71.71M58.17-73.37v71.71M60.1-73.37v71.71M62.04-73.37v71.71M63.98-73.37v71.71M65.92-73.37v71.71M67.85-73.37v71.71M69.79-73.37v71.71M71.73-73.37v71.71" style="fill-rule:evenodd;clip-rule:evenodd;fill:none;stroke:#000;stroke-width:.33"/></svg>