<?xml version="1.0" encoding="utf-8"?>
<svg xmlns="http://www.w3.org/2000/svg" version="1.1" x="0px" y="0px" xml:space="preserve" width="73.857" height="73.5" viewBox="1 -75.36 73.857 73.5">
	<g>
		<rect x="1" y="-75.36" style="fill:none;" width="73.857" height="73.5"/>

			<line style="fill-rule:evenodd;clip-rule:evenodd;fill:none;stroke:#EC008C;stroke-width:0.43;" x1="1.95" y1="-75.36" x2="1.95" y2="-1.86"/>

			<line style="fill-rule:evenodd;clip-rule:evenodd;fill:none;stroke:#EC008C;stroke-width:0.43;" x1="3.038" y1="-75.36" x2="3.038" y2="-1.86"/>

			<line style="fill-rule:evenodd;clip-rule:evenodd;fill:none;stroke:#EC008C;stroke-width:0.43;" x1="5.025" y1="-75.36" x2="5.025" y2="-1.86"/>

			<line style="fill-rule:evenodd;clip-rule:evenodd;fill:none;stroke:#EC008C;stroke-width:0.43;" x1="6.113" y1="-75.36" x2="6.113" y2="-1.86"/>

			<line style="fill-rule:evenodd;clip-rule:evenodd;fill:none;stroke:#EC008C;stroke-width:0.43;" x1="8.1" y1="-75.36" x2="8.1" y2="-1.86"/>

			<line style="fill-rule:evenodd;clip-rule:evenodd;fill:none;stroke:#EC008C;stroke-width:0.43;" x1="9.188" y1="-75.36" x2="9.188" y2="-1.86"/>

			<line style="fill-rule:evenodd;clip-rule:evenodd;fill:none;stroke:#EC008C;stroke-width:0.43;" x1="11.175" y1="-75.36" x2="11.175" y2="-1.86"/>

			<line style="fill-rule:evenodd;clip-rule:evenodd;fill:none;stroke:#EC008C;stroke-width:0.43;" x1="12.263" y1="-75.36" x2="12.263" y2="-1.86"/>

			<line style="fill-rule:evenodd;clip-rule:evenodd;fill:none;stroke:#EC008C;stroke-width:0.43;" x1="14.25" y1="-75.36" x2="14.25" y2="-1.86"/>

			<line style="fill-rule:evenodd;clip-rule:evenodd;fill:none;stroke:#EC008C;stroke-width:0.43;" x1="15.337" y1="-75.36" x2="15.337" y2="-1.86"/>

			<line style="fill-rule:evenodd;clip-rule:evenodd;fill:none;stroke:#EC008C;stroke-width:0.43;" x1="17.325" y1="-75.36" x2="17.325" y2="-1.86"/>

			<line style="fill-rule:evenodd;clip-rule:evenodd;fill:none;stroke:#EC008C;stroke-width:0.43;" x1="18.413" y1="-75.36" x2="18.413" y2="-1.86"/>

			<line style="fill-rule:evenodd;clip-rule:evenodd;fill:none;stroke:#EC008C;stroke-width:0.43;" x1="20.4" y1="-75.36" x2="20.4" y2="-1.86"/>

			<line style="fill-rule:evenodd;clip-rule:evenodd;fill:none;stroke:#EC008C;stroke-width:0.43;" x1="21.487" y1="-75.36" x2="21.487" y2="-1.86"/>

			<line style="fill-rule:evenodd;clip-rule:evenodd;fill:none;stroke:#EC008C;stroke-width:0.43;" x1="23.475" y1="-75.36" x2="23.475" y2="-1.86"/>

			<line style="fill-rule:evenodd;clip-rule:evenodd;fill:none;stroke:#EC008C;stroke-width:0.43;" x1="24.562" y1="-75.36" x2="24.562" y2="-1.86"/>

			<line style="fill-rule:evenodd;clip-rule:evenodd;fill:none;stroke:#EC008C;stroke-width:0.43;" x1="26.55" y1="-75.36" x2="26.55" y2="-1.86"/>

			<line style="fill-rule:evenodd;clip-rule:evenodd;fill:none;stroke:#EC008C;stroke-width:0.43;" x1="27.637" y1="-75.36" x2="27.637" y2="-1.86"/>

			<line style="fill-rule:evenodd;clip-rule:evenodd;fill:none;stroke:#EC008C;stroke-width:0.43;" x1="29.625" y1="-75.36" x2="29.625" y2="-1.86"/>

			<line style="fill-rule:evenodd;clip-rule:evenodd;fill:none;stroke:#EC008C;stroke-width:0.43;" x1="30.712" y1="-75.36" x2="30.712" y2="-1.86"/>

			<line style="fill-rule:evenodd;clip-rule:evenodd;fill:none;stroke:#EC008C;stroke-width:0.43;" x1="32.7" y1="-75.36" x2="32.7" y2="-1.86"/>

			<line style="fill-rule:evenodd;clip-rule:evenodd;fill:none;stroke:#EC008C;stroke-width:0.43;" x1="33.787" y1="-75.36" x2="33.787" y2="-1.86"/>

			<line style="fill-rule:evenodd;clip-rule:evenodd;fill:none;stroke:#EC008C;stroke-width:0.43;" x1="35.775" y1="-75.36" x2="35.775" y2="-1.86"/>

			<line style="fill-rule:evenodd;clip-rule:evenodd;fill:none;stroke:#EC008C;stroke-width:0.43;" x1="36.862" y1="-75.36" x2="36.862" y2="-1.86"/>

			<line style="fill-rule:evenodd;clip-rule:evenodd;fill:none;stroke:#EC008C;stroke-width:0.43;" x1="38.85" y1="-75.36" x2="38.85" y2="-1.86"/>

			<line style="fill-rule:evenodd;clip-rule:evenodd;fill:none;stroke:#EC008C;stroke-width:0.43;" x1="39.938" y1="-75.36" x2="39.938" y2="-1.86"/>

			<line style="fill-rule:evenodd;clip-rule:evenodd;fill:none;stroke:#EC008C;stroke-width:0.43;" x1="41.925" y1="-75.36" x2="41.925" y2="-1.86"/>

			<line style="fill-rule:evenodd;clip-rule:evenodd;fill:none;stroke:#EC008C;stroke-width:0.43;" x1="43.012" y1="-75.36" x2="43.012" y2="-1.86"/>

			<line style="fill-rule:evenodd;clip-rule:evenodd;fill:none;stroke:#EC008C;stroke-width:0.43;" x1="45" y1="-75.36" x2="45" y2="-1.86"/>

			<line style="fill-rule:evenodd;clip-rule:evenodd;fill:none;stroke:#EC008C;stroke-width:0.43;" x1="46.087" y1="-75.36" x2="46.087" y2="-1.86"/>

			<line style="fill-rule:evenodd;clip-rule:evenodd;fill:none;stroke:#EC008C;stroke-width:0.43;" x1="48.075" y1="-75.36" x2="48.075" y2="-1.86"/>

			<line style="fill-rule:evenodd;clip-rule:evenodd;fill:none;stroke:#EC008C;stroke-width:0.43;" x1="49.162" y1="-75.36" x2="49.162" y2="-1.86"/>

			<line style="fill-rule:evenodd;clip-rule:evenodd;fill:none;stroke:#EC008C;stroke-width:0.43;" x1="51.149" y1="-75.36" x2="51.149" y2="-1.86"/>

			<line style="fill-rule:evenodd;clip-rule:evenodd;fill:none;stroke:#EC008C;stroke-width:0.43;" x1="52.237" y1="-75.36" x2="52.237" y2="-1.86"/>

			<line style="fill-rule:evenodd;clip-rule:evenodd;fill:none;stroke:#EC008C;stroke-width:0.43;" x1="54.225" y1="-75.36" x2="54.225" y2="-1.86"/>

			<line style="fill-rule:evenodd;clip-rule:evenodd;fill:none;stroke:#EC008C;stroke-width:0.43;" x1="55.312" y1="-75.36" x2="55.312" y2="-1.86"/>

			<line style="fill-rule:evenodd;clip-rule:evenodd;fill:none;stroke:#EC008C;stroke-width:0.43;" x1="57.299" y1="-75.36" x2="57.299" y2="-1.86"/>

			<line style="fill-rule:evenodd;clip-rule:evenodd;fill:none;stroke:#EC008C;stroke-width:0.43;" x1="58.387" y1="-75.36" x2="58.387" y2="-1.86"/>

			<line style="fill-rule:evenodd;clip-rule:evenodd;fill:none;stroke:#EC008C;stroke-width:0.43;" x1="60.375" y1="-75.36" x2="60.375" y2="-1.86"/>

			<line style="fill-rule:evenodd;clip-rule:evenodd;fill:none;stroke:#EC008C;stroke-width:0.43;" x1="61.462" y1="-75.36" x2="61.462" y2="-1.86"/>

			<line style="fill-rule:evenodd;clip-rule:evenodd;fill:none;stroke:#EC008C;stroke-width:0.43;" x1="63.449" y1="-75.36" x2="63.449" y2="-1.86"/>

			<line style="fill-rule:evenodd;clip-rule:evenodd;fill:none;stroke:#EC008C;stroke-width:0.43;" x1="64.537" y1="-75.36" x2="64.537" y2="-1.86"/>

			<line style="fill-rule:evenodd;clip-rule:evenodd;fill:none;stroke:#EC008C;stroke-width:0.43;" x1="66.524" y1="-75.36" x2="66.524" y2="-1.86"/>

			<line style="fill-rule:evenodd;clip-rule:evenodd;fill:none;stroke:#EC008C;stroke-width:0.43;" x1="67.612" y1="-75.36" x2="67.612" y2="-1.86"/>

			<line style="fill-rule:evenodd;clip-rule:evenodd;fill:none;stroke:#EC008C;stroke-width:0.43;" x1="69.599" y1="-75.36" x2="69.599" y2="-1.86"/>

			<line style="fill-rule:evenodd;clip-rule:evenodd;fill:none;stroke:#EC008C;stroke-width:0.43;" x1="70.687" y1="-75.36" x2="70.687" y2="-1.86"/>

			<line style="fill-rule:evenodd;clip-rule:evenodd;fill:none;stroke:#EC008C;stroke-width:0.43;" x1="72.674" y1="-75.36" x2="72.674" y2="-1.86"/>

			<line style="fill-rule:evenodd;clip-rule:evenodd;fill:none;stroke:#EC008C;stroke-width:0.43;" x1="73.762" y1="-75.36" x2="73.762" y2="-1.86"/>
	</g>
</svg>
