<svg xmlns="http://www.w3.org/2000/svg" xml:space="preserve" width="73.64" height="73.64" viewBox="1.01 -75.84 73.64 73.64"><path d="M1.01-75.84h73.64V-2.2H1.01z" style="fill:none"/><path d="M1.01-75.84h73.64V-2.2H1.01z"/><path d="M2.2-75.84V-2.2M4.58-75.84V-2.2M6.95-75.84V-2.2M9.32-75.84V-2.2M11.7-75.84V-2.2M14.07-75.84V-2.2M16.45-75.84V-2.2M18.82-75.84V-2.2M21.2-75.84V-2.2M23.57-75.84V-2.2M25.95-75.84V-2.2M28.32-75.84V-2.2M30.7-75.84V-2.2M33.08-75.84V-2.2M35.45-75.84V-2.2M37.83-75.84V-2.2M40.2-75.84V-2.2M42.58-75.84V-2.2M44.95-75.84V-2.2M47.33-75.84V-2.2M49.7-75.84V-2.2M52.08-75.84V-2.2M54.45-75.84V-2.2M56.83-75.84V-2.2M59.2-75.84V-2.2M61.58-75.84V-2.2M63.95-75.84V-2.2M66.33-75.84V-2.2M68.7-75.84V-2.2M71.08-75.84V-2.2M73.45-75.84V-2.2" style="fill-rule:evenodd;clip-rule:evenodd;fill:none;stroke:#fff;stroke-width:.6"/></svg>