<svg xmlns="http://www.w3.org/2000/svg" xml:space="preserve" width="73.64" height="73.64" viewBox="0 -73.64 73.64 73.64"><path d="M0-73.64h73.64V0H0z" style="fill:none"/><path d="M1.19-73.64V0M3.57-73.64V0M5.94-73.64V0M8.32-73.64V0M10.69-73.64V0M13.07-73.64V0M15.44-73.64V0M17.82-73.64V0M20.19-73.64V0M22.57-73.64V0M24.94-73.64V0M27.32-73.64V0M29.69-73.64V0M32.07-73.64V0M34.44-73.64V0M36.82-73.64V0M39.19-73.64V0M41.57-73.64V0M43.94-73.64V0M46.32-73.64V0M48.69-73.64V0M51.07-73.64V0M53.44-73.64V0M55.82-73.64V0M58.19-73.64V0M60.57-73.64V0M62.94-73.64V0M65.32-73.64V0M67.69-73.64V0M70.07-73.64V0M72.44-73.64V0" style="fill-rule:evenodd;clip-rule:evenodd;fill:none;stroke:#000;stroke-width:.6"/></svg>