<svg xmlns="http://www.w3.org/2000/svg" xml:space="preserve" width="75.64" height="75.64" viewBox="0 -75.64 75.64 75.64"><path d="M0-75.64h75.64V0H0z" style="fill:none"/><path d="M1.32-75.64V0" style="fill-rule:evenodd;clip-rule:evenodd;fill:none;stroke:#000;stroke-width:.7"/><path d="M3.84-75.64V0" style="fill-rule:evenodd;clip-rule:evenodd;fill:none;stroke:#000;stroke-width:1.55"/><path d="M6.36-75.64V0" style="fill-rule:evenodd;clip-rule:evenodd;fill:none;stroke:#000;stroke-width:.7"/><path d="M8.88-75.64V0" style="fill-rule:evenodd;clip-rule:evenodd;fill:none;stroke:#000;stroke-width:1.55"/><path d="M11.39-75.64V0" style="fill-rule:evenodd;clip-rule:evenodd;fill:none;stroke:#000;stroke-width:.7"/><path d="M13.91-75.64V0" style="fill-rule:evenodd;clip-rule:evenodd;fill:none;stroke:#000;stroke-width:1.55"/><path d="M16.43-75.64V0" style="fill-rule:evenodd;clip-rule:evenodd;fill:none;stroke:#000;stroke-width:.7"/><path d="M18.95-75.64V0" style="fill-rule:evenodd;clip-rule:evenodd;fill:none;stroke:#000;stroke-width:1.55"/><path d="M21.47-75.64V0" style="fill-rule:evenodd;clip-rule:evenodd;fill:none;stroke:#000;stroke-width:.7"/><path d="M23.99-75.64V0" style="fill-rule:evenodd;clip-rule:evenodd;fill:none;stroke:#000;stroke-width:1.55"/><path d="M26.51-75.64V0" style="fill-rule:evenodd;clip-rule:evenodd;fill:none;stroke:#000;stroke-width:.7"/><path d="M29.03-75.64V0" style="fill-rule:evenodd;clip-rule:evenodd;fill:none;stroke:#000;stroke-width:1.55"/><path d="M31.55-75.64V0" style="fill-rule:evenodd;clip-rule:evenodd;fill:none;stroke:#000;stroke-width:.7"/><path d="M34.07-75.64V0" style="fill-rule:evenodd;clip-rule:evenodd;fill:none;stroke:#000;stroke-width:1.55"/><path d="M36.59-75.64V0" style="fill-rule:evenodd;clip-rule:evenodd;fill:none;stroke:#000;stroke-width:.7"/><path d="M39.1-75.64V0" style="fill-rule:evenodd;clip-rule:evenodd;fill:none;stroke:#000;stroke-width:1.55"/><path d="M41.62-75.64V0" style="fill-rule:evenodd;clip-rule:evenodd;fill:none;stroke:#000;stroke-width:.7"/><path d="M44.14-75.64V0" style="fill-rule:evenodd;clip-rule:evenodd;fill:none;stroke:#000;stroke-width:1.55"/><path d="M46.66-75.64V0" style="fill-rule:evenodd;clip-rule:evenodd;fill:none;stroke:#000;stroke-width:.7"/><path d="M49.18-75.64V0" style="fill-rule:evenodd;clip-rule:evenodd;fill:none;stroke:#000;stroke-width:1.55"/><path d="M51.7-75.64V0" style="fill-rule:evenodd;clip-rule:evenodd;fill:none;stroke:#000;stroke-width:.7"/><path d="M54.22-75.64V0" style="fill-rule:evenodd;clip-rule:evenodd;fill:none;stroke:#000;stroke-width:1.55"/><path d="M56.74-75.64V0" style="fill-rule:evenodd;clip-rule:evenodd;fill:none;stroke:#000;stroke-width:.7"/><path d="M59.26-75.64V0" style="fill-rule:evenodd;clip-rule:evenodd;fill:none;stroke:#000;stroke-width:1.55"/><path d="M61.78-75.64V0" style="fill-rule:evenodd;clip-rule:evenodd;fill:none;stroke:#000;stroke-width:.7"/><path d="M64.3-75.64V0" style="fill-rule:evenodd;clip-rule:evenodd;fill:none;stroke:#000;stroke-width:1.55"/><path d="M66.81-75.64V0" style="fill-rule:evenodd;clip-rule:evenodd;fill:none;stroke:#000;stroke-width:.7"/><path d="M69.33-75.64V0" style="fill-rule:evenodd;clip-rule:evenodd;fill:none;stroke:#000;stroke-width:1.55"/><path d="M71.85-75.64V0" style="fill-rule:evenodd;clip-rule:evenodd;fill:none;stroke:#000;stroke-width:.7"/><path d="M74.37-75.64V0" style="fill-rule:evenodd;clip-rule:evenodd;fill:none;stroke:#000;stroke-width:1.55"/></svg>