<svg xmlns="http://www.w3.org/2000/svg" xml:space="preserve" width="74.28" height="74.28" viewBox="1 -76.69 74.28 74.28"><path d="M1-76.69h74.28v74.28H1z" style="fill:none"/><path d="M1-76.69h74.28v74.28H1z"/><path d="M3.04-76.69V-2.4" style="fill-rule:evenodd;clip-rule:evenodd;fill:none;stroke:#fff;stroke-width:.43"/><path d="M7.17-76.69V-2.4" style="fill-rule:evenodd;clip-rule:evenodd;fill:none;stroke:#fff;stroke-width:.7"/><path d="M11.29-76.69V-2.4" style="fill-rule:evenodd;clip-rule:evenodd;fill:none;stroke:#fff;stroke-width:.43"/><path d="M15.42-76.69V-2.4" style="fill-rule:evenodd;clip-rule:evenodd;fill:none;stroke:#fff;stroke-width:.7"/><path d="M19.54-76.69V-2.4" style="fill-rule:evenodd;clip-rule:evenodd;fill:none;stroke:#fff;stroke-width:.43"/><path d="M23.67-76.69V-2.4" style="fill-rule:evenodd;clip-rule:evenodd;fill:none;stroke:#fff;stroke-width:.7"/><path d="M27.79-76.69V-2.4" style="fill-rule:evenodd;clip-rule:evenodd;fill:none;stroke:#fff;stroke-width:.43"/><path d="M31.92-76.69V-2.4" style="fill-rule:evenodd;clip-rule:evenodd;fill:none;stroke:#fff;stroke-width:.7"/><path d="M36.04-76.69V-2.4" style="fill-rule:evenodd;clip-rule:evenodd;fill:none;stroke:#fff;stroke-width:.43"/><path d="M40.17-76.69V-2.4" style="fill-rule:evenodd;clip-rule:evenodd;fill:none;stroke:#fff;stroke-width:.7"/><path d="M44.29-76.69V-2.4" style="fill-rule:evenodd;clip-rule:evenodd;fill:none;stroke:#fff;stroke-width:.43"/><path d="M48.42-76.69V-2.4" style="fill-rule:evenodd;clip-rule:evenodd;fill:none;stroke:#fff;stroke-width:.7"/><path d="M52.54-76.69V-2.4" style="fill-rule:evenodd;clip-rule:evenodd;fill:none;stroke:#fff;stroke-width:.43"/><path d="M56.67-76.69V-2.4" style="fill-rule:evenodd;clip-rule:evenodd;fill:none;stroke:#fff;stroke-width:.7"/><path d="M60.79-76.69V-2.4" style="fill-rule:evenodd;clip-rule:evenodd;fill:none;stroke:#fff;stroke-width:.43"/><path d="M64.92-76.69V-2.4" style="fill-rule:evenodd;clip-rule:evenodd;fill:none;stroke:#fff;stroke-width:.7"/><path d="M69.04-76.69V-2.4" style="fill-rule:evenodd;clip-rule:evenodd;fill:none;stroke:#fff;stroke-width:.43"/><path d="M73.17-76.69V-2.4" style="fill-rule:evenodd;clip-rule:evenodd;fill:none;stroke:#fff;stroke-width:.7"/></svg>