<svg xmlns="http://www.w3.org/2000/svg" xml:space="preserve" width="74.28" height="74.28" viewBox="0 -74.28 74.28 74.28"><path d="M0-74.28h74.28V0H0z" style="fill:none"/><path d="M2.04-74.28V0" style="fill-rule:evenodd;clip-rule:evenodd;fill:none;stroke:#00aeef;stroke-width:.43"/><path d="M6.17-74.28V0" style="fill-rule:evenodd;clip-rule:evenodd;fill:none;stroke:#00aeef;stroke-width:.7"/><path d="M10.29-74.28V0" style="fill-rule:evenodd;clip-rule:evenodd;fill:none;stroke:#00aeef;stroke-width:.43"/><path d="M14.42-74.28V0" style="fill-rule:evenodd;clip-rule:evenodd;fill:none;stroke:#00aeef;stroke-width:.7"/><path d="M18.54-74.28V0" style="fill-rule:evenodd;clip-rule:evenodd;fill:none;stroke:#00aeef;stroke-width:.43"/><path d="M22.67-74.28V0" style="fill-rule:evenodd;clip-rule:evenodd;fill:none;stroke:#00aeef;stroke-width:.7"/><path d="M26.79-74.28V0" style="fill-rule:evenodd;clip-rule:evenodd;fill:none;stroke:#00aeef;stroke-width:.43"/><path d="M30.92-74.28V0" style="fill-rule:evenodd;clip-rule:evenodd;fill:none;stroke:#00aeef;stroke-width:.7"/><path d="M35.04-74.28V0" style="fill-rule:evenodd;clip-rule:evenodd;fill:none;stroke:#00aeef;stroke-width:.43"/><path d="M39.17-74.28V0" style="fill-rule:evenodd;clip-rule:evenodd;fill:none;stroke:#00aeef;stroke-width:.7"/><path d="M43.29-74.28V0" style="fill-rule:evenodd;clip-rule:evenodd;fill:none;stroke:#00aeef;stroke-width:.43"/><path d="M47.42-74.28V0" style="fill-rule:evenodd;clip-rule:evenodd;fill:none;stroke:#00aeef;stroke-width:.7"/><path d="M51.54-74.28V0" style="fill-rule:evenodd;clip-rule:evenodd;fill:none;stroke:#00aeef;stroke-width:.43"/><path d="M55.67-74.28V0" style="fill-rule:evenodd;clip-rule:evenodd;fill:none;stroke:#00aeef;stroke-width:.7"/><path d="M59.79-74.28V0" style="fill-rule:evenodd;clip-rule:evenodd;fill:none;stroke:#00aeef;stroke-width:.43"/><path d="M63.92-74.28V0" style="fill-rule:evenodd;clip-rule:evenodd;fill:none;stroke:#00aeef;stroke-width:.7"/><path d="M68.04-74.28V0" style="fill-rule:evenodd;clip-rule:evenodd;fill:none;stroke:#00aeef;stroke-width:.43"/><path d="M72.17-74.28V0" style="fill-rule:evenodd;clip-rule:evenodd;fill:none;stroke:#00aeef;stroke-width:.7"/></svg>