<svg xmlns="http://www.w3.org/2000/svg" xml:space="preserve" width="72.86" height="72.86" viewBox="1 -74.52 72.86 72.86"><path d="M1-74.52h72.86v72.86H1z" style="fill:none"/><path d="M1.79-74.52v72.86M3.38-74.52v72.86M4.96-74.52v72.86M6.54-74.52v72.86M8.13-74.52v72.86M9.71-74.52v72.86M11.29-74.52v72.86M12.88-74.52v72.86M14.46-74.52v72.86M16.04-74.52v72.86M17.63-74.52v72.86M19.21-74.52v72.86M20.79-74.52v72.86M22.38-74.52v72.86M23.96-74.52v72.86M25.54-74.52v72.86M27.13-74.52v72.86M28.71-74.52v72.86M30.29-74.52v72.86M31.87-74.52v72.86M33.46-74.52v72.86M35.04-74.52v72.86M36.62-74.52v72.86M38.21-74.52v72.86M39.79-74.52v72.86M41.37-74.52v72.86M42.96-74.52v72.86M44.54-74.52v72.86M46.12-74.52v72.86M47.71-74.52v72.86M49.29-74.52v72.86M50.87-74.52v72.86M52.45-74.52v72.86M54.04-74.52v72.86M55.62-74.52v72.86M57.2-74.52v72.86M58.79-74.52v72.86M60.37-74.52v72.86M61.95-74.52v72.86M63.54-74.52v72.86M65.12-74.52v72.86M66.7-74.52v72.86" style="fill-rule:evenodd;clip-rule:evenodd;fill:none;stroke:#000;stroke-width:.33"/><path d="M68.29-74.52v72.86" style="fill:none;stroke:#000;stroke-width:.33"/><path d="M69.87-74.52v72.86M71.45-74.52v72.86M73.05-74.52v72.86" style="fill-rule:evenodd;clip-rule:evenodd;fill:none;stroke:#000;stroke-width:.33"/></svg>