<svg xmlns="http://www.w3.org/2000/svg" xml:space="preserve" width="74.5" height="74.5" viewBox="0 -74.5 74.5 74.5"><path d="M0-74.5h74.5V0H0z" style="fill:none"/><path d="M1.7-74.5V0M4.94-74.5V0M8.18-74.5V0M11.42-74.5V0M14.66-74.5V0" style="fill-rule:evenodd;clip-rule:evenodd;fill:none;stroke:#000;stroke-width:1.55"/><path d="M17.9-74.5V0" style="fill:none;stroke:#000;stroke-width:1.55"/><path d="M21.14-74.5V0M24.38-74.5V0M27.62-74.5V0M30.86-74.5V0M34.1-74.5V0M37.34-74.5V0M40.58-74.5V0M43.82-74.5V0M47.06-74.5V0M50.3-74.5V0M53.54-74.5V0M56.78-74.5V0M60.02-74.5V0M63.26-74.5V0M66.5-74.5V0M69.74-74.5V0M72.98-74.5V0" style="fill-rule:evenodd;clip-rule:evenodd;fill:none;stroke:#000;stroke-width:1.55"/><path d="M0-74.5h74.5V0H0z" style="fill-rule:evenodd;clip-rule:evenodd;fill:none"/></svg>