<svg xmlns="http://www.w3.org/2000/svg" xml:space="preserve" width="74.5" height="74.5" viewBox="2.4 -78.6 74.5 74.5"><path d="M2.4-78.6h74.5v74.5H2.4z" style="fill:none"/><path d="M2.4-78.6h74.5v74.5H2.4z" style="fill-rule:evenodd;clip-rule:evenodd"/><path d="M4.1-78.6v74.5M7.34-78.6v74.5M10.58-78.6v74.5M13.82-78.6v74.5M17.06-78.6v74.5" style="fill-rule:evenodd;clip-rule:evenodd;fill:none;stroke:#fff;stroke-width:1.55"/><path d="M20.3-78.6v74.5" style="fill:none;stroke:#fff;stroke-width:1.55"/><path d="M23.54-78.6v74.5M26.78-78.6v74.5M30.02-78.6v74.5M33.26-78.6v74.5M36.5-78.6v74.5M39.74-78.6v74.5M42.98-78.6v74.5M46.22-78.6v74.5M49.46-78.6v74.5M52.7-78.6v74.5M55.94-78.6v74.5M59.18-78.6v74.5M62.42-78.6v74.5M65.66-78.6v74.5M68.9-78.6v74.5M72.14-78.6v74.5M75.38-78.6v74.5" style="fill-rule:evenodd;clip-rule:evenodd;fill:none;stroke:#fff;stroke-width:1.55"/></svg>