<svg xmlns="http://www.w3.org/2000/svg" xml:space="preserve" width="72.57" height="72.57" viewBox="0 -72.57 72.57 72.57"><path d="M0-72.57h72.57V0H0z" style="fill:none"/><path d="M1.7-72.57V0M5.16-72.57V0M8.61-72.57V0M12.07-72.57V0M15.52-72.57V0M18.98-72.57V0M22.43-72.57V0M25.89-72.57V0M29.34-72.57V0M32.8-72.57V0M36.25-72.57V0M39.71-72.57V0M43.16-72.57V0M46.62-72.57V0M50.07-72.57V0M53.53-72.57V0M56.98-72.57V0M60.44-72.57V0M63.9-72.57V0M67.35-72.57V0M70.81-72.57V0" style="fill-rule:evenodd;clip-rule:evenodd;fill:none;stroke:#ec008c;stroke-width:.43"/></svg>