<svg xmlns="http://www.w3.org/2000/svg" xml:space="preserve" width="72.57" height="72.57" viewBox="1 -74.23 72.57 72.57"><path d="M1-74.23h72.57v72.57H1z" style="fill:none"/><path d="M2.7-74.23v72.57M6.16-74.23v72.57M9.61-74.23v72.57M13.07-74.23v72.57M16.52-74.23v72.57M19.98-74.23v72.57M23.43-74.23v72.57M26.89-74.23v72.57M30.34-74.23v72.57M33.8-74.23v72.57M37.25-74.23v72.57M40.71-74.23v72.57M44.16-74.23v72.57M47.62-74.23v72.57M51.07-74.23v72.57M54.53-74.23v72.57M57.98-74.23v72.57M61.44-74.23v72.57M64.89-74.23v72.57M68.35-74.23v72.57M71.81-74.23v72.57" style="fill-rule:evenodd;clip-rule:evenodd;fill:none;stroke:#000;stroke-width:.33"/></svg>