<svg xmlns="http://www.w3.org/2000/svg" xml:space="preserve" width="73.08" height="73.08" viewBox="0 -73.08 73.08 73.08"><path d="M0-73.08h73.08V0H0z" style="fill:none"/><path d="M1.3-73.08V0M3.82-73.08V0M6.34-73.08V0M8.86-73.08V0M11.38-73.08V0M13.9-73.08V0M16.42-73.08V0M18.93-73.08V0M21.45-73.08V0M23.97-73.08V0M26.49-73.08V0M29.01-73.08V0M31.53-73.08V0M34.05-73.08V0M36.57-73.08V0M39.09-73.08V0M41.61-73.08V0M44.13-73.08V0M46.65-73.08V0M49.16-73.08V0M51.68-73.08V0M54.2-73.08V0M56.72-73.08V0M59.24-73.08V0M61.76-73.08V0M64.28-73.08V0M66.8-73.08V0M69.32-73.08V0M71.84-73.08V0" style="fill-rule:evenodd;clip-rule:evenodd;fill:none;stroke:#ed1b2e;stroke-width:.43"/></svg>