<svg xmlns="http://www.w3.org/2000/svg" xml:space="preserve" width="73.43" height="73.43" viewBox="1 -75.09 73.43 73.43"><path d="M1-75.09h73.43v73.43H1z" style="fill:none"/><path d="M3.28-75.09v73.43M7.6-75.09v73.43M11.92-75.09v73.43M16.24-75.09v73.43M20.56-75.09v73.43M24.88-75.09v73.43M29.2-75.09v73.43M33.52-75.09v73.43M37.84-75.09v73.43M42.16-75.09v73.43M46.48-75.09v73.43M50.8-75.09v73.43M55.12-75.09v73.43M59.44-75.09v73.43M63.76-75.09v73.43M68.08-75.09v73.43M72.4-75.09v73.43" style="fill-rule:evenodd;clip-rule:evenodd;fill:none;stroke:#000;stroke-width:.33"/><path d="M1-75.09h73.43v73.43H1z" style="fill-rule:evenodd;clip-rule:evenodd;fill:none"/></svg>