<svg xmlns="http://www.w3.org/2000/svg" xml:space="preserve" width="73.43" height="73.43" viewBox="0 -73.43 73.43 73.43"><path d="M0-73.43h73.43V0H0z" style="fill:none"/><path d="M2.28-73.43V0M6.6-73.43V0M10.92-73.43V0M15.24-73.43V0M19.56-73.43V0M23.88-73.43V0M28.2-73.43V0M32.52-73.43V0M36.84-73.43V0M41.16-73.43V0M45.48-73.43V0M49.8-73.43V0M54.12-73.43V0M58.44-73.43V0M62.76-73.43V0M67.08-73.43V0M71.4-73.43V0" style="fill-rule:evenodd;clip-rule:evenodd;fill:none;stroke:#00aeef;stroke-width:.43"/><path d="M0-73.43h73.43V0H0z" style="fill-rule:evenodd;clip-rule:evenodd;fill:none"/></svg>