<svg xmlns="http://www.w3.org/2000/svg" xml:space="preserve" width="90.31" height="90.31" viewBox="0 -90.31 90.31 90.31"><path d="M0-90.31h90.31V0H0z" style="fill:none"/><path d="M0-90.31h90.31V0H0z"/><path d="M1.03-45.16v1.5M1.03-1.42V0M4.26-45.16v1.5M4.26-1.42V0M7.48-45.16v1.5M7.48-1.42V0M10.71-45.16v1.5M10.71-1.42V0M13.93-45.16v1.5M13.93-1.42V0M17.16-45.16v1.5M17.16-1.42V0M20.38-45.16v1.5M20.38-1.42V0M23.61-45.16v1.5M23.61-1.42V0M26.83-45.16v1.5M26.83-1.42V0M30.06-45.16v1.5M30.06-1.42V0M33.28-45.16v1.5M33.28-1.42V0M36.51-45.16v1.5M36.51-1.42V0M39.73-45.16v1.5M39.73-1.42V0M42.96-45.16v1.5M42.96-1.42V0M1.03-41.74v3.12M1.03-36.7v3.12M1.03-31.66v3.12M1.03-26.62v3.12M1.03-21.58v3.12M1.03-16.54v3.12M1.03-11.5v3.12M1.03-6.46v3.12M4.26-41.74v3.12M4.26-36.7v3.12M4.26-31.66v3.12M4.26-26.62v3.12M4.26-21.58v3.12M4.26-16.54v3.12M4.26-11.5v3.12M4.26-6.46v3.12M7.48-41.74v3.12M7.48-36.7v3.12M7.48-31.66v3.12M7.48-26.62v3.12M7.48-21.58v3.12M7.48-16.54v3.12M7.48-11.5v3.12M7.48-6.46v3.12M10.71-41.74v3.12M10.71-36.7v3.12M10.71-31.66v3.12M10.71-26.62v3.12M10.71-21.58v3.12M10.71-16.54v3.12M10.71-11.5v3.12M10.71-6.46v3.12M13.93-41.74v3.12M13.93-36.7v3.12M13.93-31.66v3.12M13.93-26.62v3.12M13.93-21.58v3.12M13.93-16.54v3.12M13.93-11.5v3.12M13.93-6.46v3.12M17.16-41.74v3.12M17.16-36.7v3.12M17.16-31.66v3.12M17.16-26.62v3.12M17.16-21.58v3.12M17.16-16.54v3.12M17.16-11.5v3.12M17.16-6.46v3.12M20.38-41.74v3.12M20.38-36.7v3.12M20.38-31.66v3.12M20.38-26.62v3.12M20.38-21.58v3.12M20.38-16.54v3.12M20.38-11.5v3.12M20.38-6.46v3.12M23.61-41.74v3.12M23.61-36.7v3.12M23.61-31.66v3.12M23.61-26.62v3.12M23.61-21.58v3.12M23.61-16.54v3.12M23.61-11.5v3.12M23.61-6.46v3.12M26.83-41.74v3.12M26.83-36.7v3.12M26.83-31.66v3.12M26.83-26.62v3.12M26.83-21.58v3.12M26.83-16.54v3.12M26.83-11.5v3.12M26.83-6.46v3.12M30.06-41.74v3.12M30.06-36.7v3.12M30.06-31.66v3.12M30.06-26.62v3.12M30.06-21.58v3.12M30.06-16.54v3.12M30.06-11.5v3.12M30.06-6.46v3.12M33.28-41.74v3.12M33.28-36.7v3.12M33.28-31.66v3.12M33.28-26.62v3.12M33.28-21.58v3.12M33.28-16.54v3.12M33.28-11.5v3.12M33.28-6.46v3.12M36.51-41.74v3.12M36.51-36.7v3.12M36.51-31.66v3.12M36.51-26.62v3.12M36.51-21.58v3.12M36.51-16.54v3.12M36.51-11.5v3.12M36.51-6.46v3.12M39.73-41.74v3.12M39.73-36.7v3.12M39.73-31.66v3.12M39.73-26.62v3.12M39.73-21.58v3.12M39.73-16.54v3.12M39.73-11.5v3.12M39.73-6.46v3.12M42.96-41.74v3.12M42.96-36.7v3.12M42.96-31.66v3.12M42.96-26.62v3.12M42.96-21.58v3.12M42.96-16.54v3.12M42.96-11.5v3.12M42.96-6.46v3.12M2.65-44.46v3.12M2.65-39.42v3.12M2.65-34.38v3.12M2.65-29.34v3.12M2.65-24.3v3.12M2.65-19.26v3.12M2.65-14.22v3.12M2.65-9.18v3.12M2.65-4.14v3.12M5.87-44.46v3.12M5.87-39.42v3.12M5.87-34.38v3.12M5.87-29.34v3.12M5.87-24.3v3.12M5.87-19.26v3.12M5.87-14.22v3.12M5.87-9.18v3.12M5.87-4.14v3.12M9.1-44.46v3.12M9.1-39.42v3.12M9.1-34.38v3.12M9.1-29.34v3.12M9.1-24.3v3.12M9.1-19.26v3.12M9.1-14.22v3.12M9.1-9.18v3.12M9.1-4.14v3.12M12.32-44.46v3.12M12.32-39.42v3.12M12.32-34.38v3.12M12.32-29.34v3.12M12.32-24.3v3.12M12.32-19.26v3.12M12.32-14.22v3.12M12.32-9.18v3.12M12.32-4.14v3.12M15.54-44.46v3.12M15.54-39.42v3.12M15.54-34.38v3.12M15.54-29.34v3.12M15.54-24.3v3.12M15.54-19.26v3.12M15.54-14.22v3.12M15.54-9.18v3.12M15.54-4.14v3.12M18.77-44.46v3.12M18.77-39.42v3.12M18.77-34.38v3.12M18.77-29.34v3.12M18.77-24.3v3.12M18.77-19.26v3.12M18.77-14.22v3.12M18.77-9.18v3.12M18.77-4.14v3.12M22-44.46v3.12M22-39.42v3.12M22-34.38v3.12M22-29.34v3.12M22-24.3v3.12M22-19.26v3.12M22-14.22v3.12M22-9.18v3.12M22-4.14v3.12M25.22-44.46v3.12M25.22-39.42v3.12M25.22-34.38v3.12M25.22-29.34v3.12M25.22-24.3v3.12M25.22-19.26v3.12M25.22-14.22v3.12M25.22-9.18v3.12M25.22-4.14v3.12M28.45-44.46v3.12M28.45-39.42v3.12M28.45-34.38v3.12M28.45-29.34v3.12M28.45-24.3v3.12M28.45-19.26v3.12M28.45-14.22v3.12M28.45-9.18v3.12M28.45-4.14v3.12M31.67-44.46v3.12M31.67-39.42v3.12M31.67-34.38v3.12M31.67-29.34v3.12M31.67-24.3v3.12M31.67-19.26v3.12M31.67-14.22v3.12M31.67-9.18v3.12M31.67-4.14v3.12M34.9-44.46v3.12M34.9-39.42v3.12M34.9-34.38v3.12M34.9-29.34v3.12M34.9-24.3v3.12M34.9-19.26v3.12M34.9-14.22v3.12M34.9-9.18v3.12M34.9-4.14v3.12M38.12-44.46v3.12M38.12-39.42v3.12M38.12-34.38v3.12M38.12-29.34v3.12M38.12-24.3v3.12M38.12-19.26v3.12M38.12-14.22v3.12M38.12-9.18v3.12M38.12-4.14v3.12M41.34-44.46v3.12M41.34-39.42v3.12M41.34-34.38v3.12M41.34-29.34v3.12M41.34-24.3v3.12M41.34-19.26v3.12M41.34-14.22v3.12M41.34-9.18v3.12M41.34-4.14v3.12M44.57-44.46v3.12M44.57-39.42v3.12M44.57-34.38v3.12M44.57-29.34v3.12M44.57-24.3v3.12M44.57-19.26v3.12M44.57-14.22v3.12M44.57-9.18v3.12M44.57-4.14v3.12M1.03-45.16v1.5M1.03-1.42V0M4.26-45.16v1.5M4.26-1.42V0M7.48-45.16v1.5M7.48-1.42V0M10.71-45.16v1.5M10.71-1.42V0M13.93-45.16v1.5M13.93-1.42V0M17.16-45.16v1.5M17.16-1.42V0M20.38-45.16v1.5M20.38-1.42V0M23.61-45.16v1.5M23.61-1.42V0M26.83-45.16v1.5M26.83-1.42V0M30.06-45.16v1.5M30.06-1.42V0M33.28-45.16v1.5M33.28-1.42V0M36.51-45.16v1.5M36.51-1.42V0M39.73-45.16v1.5M39.73-1.42V0M42.96-45.16v1.5M42.96-1.42V0M1.03-41.74v3.12M1.03-36.7v3.12M1.03-31.66v3.12M1.03-26.62v3.12M1.03-21.58v3.12M1.03-16.54v3.12M1.03-11.5v3.12M1.03-6.46v3.12M4.26-41.74v3.12M4.26-36.7v3.12M4.26-31.66v3.12M4.26-26.62v3.12M4.26-21.58v3.12M4.26-16.54v3.12M4.26-11.5v3.12M4.26-6.46v3.12M7.48-41.74v3.12M7.48-36.7v3.12M7.48-31.66v3.12M7.48-26.62v3.12M7.48-21.58v3.12M7.48-16.54v3.12M7.48-11.5v3.12M7.48-6.46v3.12M10.71-41.74v3.12M10.71-36.7v3.12M10.71-31.66v3.12M10.71-26.62v3.12M10.71-21.58v3.12M10.71-16.54v3.12M10.71-11.5v3.12M10.71-6.46v3.12M13.93-41.74v3.12M13.93-36.7v3.12M13.93-31.66v3.12M13.93-26.62v3.12M13.93-21.58v3.12M13.93-16.54v3.12M13.93-11.5v3.12M13.93-6.46v3.12M17.16-41.74v3.12M17.16-36.7v3.12M17.16-31.66v3.12M17.16-26.62v3.12M17.16-21.58v3.12M17.16-16.54v3.12M17.16-11.5v3.12M17.16-6.46v3.12M20.38-41.74v3.12M20.38-36.7v3.12M20.38-31.66v3.12M20.38-26.62v3.12M20.38-21.58v3.12M20.38-16.54v3.12M20.38-11.5v3.12M20.38-6.46v3.12M23.61-41.74v3.12M23.61-36.7v3.12M23.61-31.66v3.12M23.61-26.62v3.12M23.61-21.58v3.12M23.61-16.54v3.12M23.61-11.5v3.12M23.61-6.46v3.12M26.83-41.74v3.12M26.83-36.7v3.12M26.83-31.66v3.12M26.83-26.62v3.12M26.83-21.58v3.12M26.83-16.54v3.12M26.83-11.5v3.12M26.83-6.46v3.12M30.06-41.74v3.12M30.06-36.7v3.12M30.06-31.66v3.12M30.06-26.62v3.12M30.06-21.58v3.12M30.06-16.54v3.12M30.06-11.5v3.12M30.06-6.46v3.12M33.28-41.74v3.12M33.28-36.7v3.12M33.28-31.66v3.12M33.28-26.62v3.12M33.28-21.58v3.12M33.28-16.54v3.12M33.28-11.5v3.12M33.28-6.46v3.12M36.51-41.74v3.12M36.51-36.7v3.12M36.51-31.66v3.12M36.51-26.62v3.12M36.51-21.58v3.12M36.51-16.54v3.12M36.51-11.5v3.12M36.51-6.46v3.12M39.73-41.74v3.12M39.73-36.7v3.12M39.73-31.66v3.12M39.73-26.62v3.12M39.73-21.58v3.12M39.73-16.54v3.12M39.73-11.5v3.12M39.73-6.46v3.12M42.96-41.74v3.12M42.96-36.7v3.12M42.96-31.66v3.12M42.96-26.62v3.12M42.96-21.58v3.12M42.96-16.54v3.12M42.96-11.5v3.12M42.96-6.46v3.12M2.65-44.46v3.12M2.65-39.42v3.12M2.65-34.38v3.12M2.65-29.34v3.12M2.65-24.3v3.12M2.65-19.26v3.12M2.65-14.22v3.12M2.65-9.18v3.12M2.65-4.14v3.12M5.87-44.46v3.12M5.87-39.42v3.12M5.87-34.38v3.12M5.87-29.34v3.12M5.87-24.3v3.12M5.87-19.26v3.12M5.87-14.22v3.12M5.87-9.18v3.12M5.87-4.14v3.12M9.1-44.46v3.12M9.1-39.42v3.12M9.1-34.38v3.12M9.1-29.34v3.12M9.1-24.3v3.12M9.1-19.26v3.12M9.1-14.22v3.12M9.1-9.18v3.12M9.1-4.14v3.12M12.32-44.46v3.12M12.32-39.42v3.12M12.32-34.38v3.12M12.32-29.34v3.12M12.32-24.3v3.12M12.32-19.26v3.12M12.32-14.22v3.12M12.32-9.18v3.12M12.32-4.14v3.12M15.54-44.46v3.12M15.54-39.42v3.12M15.54-34.38v3.12M15.54-29.34v3.12M15.54-24.3v3.12M15.54-19.26v3.12M15.54-14.22v3.12M15.54-9.18v3.12M15.54-4.14v3.12M18.77-44.46v3.12M18.77-39.42v3.12M18.77-34.38v3.12M18.77-29.34v3.12M18.77-24.3v3.12M18.77-19.26v3.12M18.77-14.22v3.12M18.77-9.18v3.12M18.77-4.14v3.12M22-44.46v3.12M22-39.42v3.12M22-34.38v3.12M22-29.34v3.12M22-24.3v3.12M22-19.26v3.12M22-14.22v3.12M22-9.18v3.12M22-4.14v3.12M25.22-44.46v3.12M25.22-39.42v3.12M25.22-34.38v3.12M25.22-29.34v3.12M25.22-24.3v3.12M25.22-19.26v3.12M25.22-14.22v3.12M25.22-9.18v3.12M25.22-4.14v3.12M28.45-44.46v3.12M28.45-39.42v3.12M28.45-34.38v3.12M28.45-29.34v3.12M28.45-24.3v3.12M28.45-19.26v3.12M28.45-14.22v3.12M28.45-9.18v3.12M28.45-4.14v3.12M31.67-44.46v3.12M31.67-39.42v3.12M31.67-34.38v3.12M31.67-29.34v3.12M31.67-24.3v3.12M31.67-19.26v3.12M31.67-14.22v3.12M31.67-9.18v3.12M31.67-4.14v3.12M34.9-44.46v3.12M34.9-39.42v3.12M34.9-34.38v3.12M34.9-29.34v3.12M34.9-24.3v3.12M34.9-19.26v3.12M34.9-14.22v3.12M34.9-9.18v3.12M34.9-4.14v3.12M38.12-44.46v3.12M38.12-39.42v3.12M38.12-34.38v3.12M38.12-29.34v3.12M38.12-24.3v3.12M38.12-19.26v3.12M38.12-14.22v3.12M38.12-9.18v3.12M38.12-4.14v3.12M41.34-44.46v3.12M41.34-39.42v3.12M41.34-34.38v3.12M41.34-29.34v3.12M41.34-24.3v3.12M41.34-19.26v3.12M41.34-14.22v3.12M41.34-9.18v3.12M41.34-4.14v3.12M44.57-44.46v3.12M44.57-39.42v3.12M44.57-34.38v3.12M44.57-29.34v3.12M44.57-24.3v3.12M44.57-19.26v3.12M44.57-14.22v3.12M44.57-9.18v3.12M44.57-4.14v3.12M46.17-45.16v1.5M46.17-1.42V0M49.4-45.16v1.5M49.4-1.42V0M52.63-45.16v1.5M52.63-1.42V0M55.85-45.16v1.5M55.85-1.42V0M59.08-45.16v1.5M59.08-1.42V0M62.3-45.16v1.5M62.3-1.42V0M65.53-45.16v1.5M65.53-1.42V0M68.75-45.16v1.5M68.75-1.42V0M71.98-45.16v1.5M71.98-1.42V0M75.2-45.16v1.5M75.2-1.42V0M78.43-45.16v1.5M78.43-1.42V0M81.65-45.16v1.5M81.65-1.42V0M84.88-45.16v1.5M84.88-1.42V0M88.1-45.16v1.5M88.1-1.42V0M46.17-41.74v3.12M46.17-36.7v3.12M46.17-31.66v3.12M46.17-26.62v3.12M46.17-21.58v3.12M46.17-16.54v3.12M46.17-11.5v3.12M46.17-6.46v3.12M49.4-41.74v3.12M49.4-36.7v3.12M49.4-31.66v3.12M49.4-26.62v3.12M49.4-21.58v3.12M49.4-16.54v3.12M49.4-11.5v3.12M49.4-6.46v3.12M52.63-41.74v3.12M52.63-36.7v3.12M52.63-31.66v3.12M52.63-26.62v3.12M52.63-21.58v3.12M52.63-16.54v3.12M52.63-11.5v3.12M52.63-6.46v3.12M55.85-41.74v3.12M55.85-36.7v3.12M55.85-31.66v3.12M55.85-26.62v3.12M55.85-21.58v3.12M55.85-16.54v3.12M55.85-11.5v3.12M55.85-6.46v3.12M59.08-41.74v3.12M59.08-36.7v3.12M59.08-31.66v3.12M59.08-26.62v3.12M59.08-21.58v3.12M59.08-16.54v3.12M59.08-11.5v3.12M59.08-6.46v3.12M62.3-41.74v3.12M62.3-36.7v3.12M62.3-31.66v3.12M62.3-26.62v3.12M62.3-21.58v3.12M62.3-16.54v3.12M62.3-11.5v3.12M62.3-6.46v3.12M65.53-41.74v3.12M65.53-36.7v3.12M65.53-31.66v3.12M65.53-26.62v3.12M65.53-21.58v3.12M65.53-16.54v3.12M65.53-11.5v3.12M65.53-6.46v3.12M68.75-41.74v3.12M68.75-36.7v3.12M68.75-31.66v3.12M68.75-26.62v3.12M68.75-21.58v3.12M68.75-16.54v3.12M68.75-11.5v3.12M68.75-6.46v3.12M71.98-41.74v3.12M71.98-36.7v3.12M71.98-31.66v3.12M71.98-26.62v3.12M71.98-21.58v3.12M71.98-16.54v3.12M71.98-11.5v3.12M71.98-6.46v3.12M75.2-41.74v3.12M75.2-36.7v3.12M75.2-31.66v3.12M75.2-26.62v3.12M75.2-21.58v3.12M75.2-16.54v3.12M75.2-11.5v3.12M75.2-6.46v3.12M78.43-41.74v3.12M78.43-36.7v3.12M78.43-31.66v3.12M78.43-26.62v3.12M78.43-21.58v3.12M78.43-16.54v3.12M78.43-11.5v3.12M78.43-6.46v3.12M81.65-41.74v3.12M81.65-36.7v3.12M81.65-31.66v3.12M81.65-26.62v3.12M81.65-21.58v3.12M81.65-16.54v3.12M81.65-11.5v3.12M81.65-6.46v3.12M84.88-41.74v3.12M84.88-36.7v3.12M84.88-31.66v3.12M84.88-26.62v3.12M84.88-21.58v3.12M84.88-16.54v3.12M84.88-11.5v3.12M84.88-6.46v3.12M88.1-41.74v3.12M88.1-36.7v3.12M88.1-31.66v3.12M88.1-26.62v3.12M88.1-21.58v3.12M88.1-16.54v3.12M88.1-11.5v3.12M88.1-6.46v3.12M47.79-44.46v3.12M47.79-39.42v3.12M47.79-34.38v3.12M47.79-29.34v3.12M47.79-24.3v3.12M47.79-19.26v3.12M47.79-14.22v3.12M47.79-9.18v3.12M47.79-4.14v3.12M51.01-44.46v3.12M51.01-39.42v3.12M51.01-34.38v3.12M51.01-29.34v3.12M51.01-24.3v3.12M51.01-19.26v3.12M51.01-14.22v3.12M51.01-9.18v3.12M51.01-4.14v3.12M54.24-44.46v3.12M54.24-39.42v3.12M54.24-34.38v3.12M54.24-29.34v3.12M54.24-24.3v3.12M54.24-19.26v3.12M54.24-14.22v3.12M54.24-9.18v3.12M54.24-4.14v3.12M57.46-44.46v3.12M57.46-39.42v3.12M57.46-34.38v3.12M57.46-29.34v3.12M57.46-24.3v3.12M57.46-19.26v3.12M57.46-14.22v3.12M57.46-9.18v3.12M57.46-4.14v3.12M60.69-44.46v3.12M60.69-39.42v3.12M60.69-34.38v3.12M60.69-29.34v3.12M60.69-24.3v3.12M60.69-19.26v3.12M60.69-14.22v3.12M60.69-9.18v3.12M60.69-4.14v3.12M63.91-44.46v3.12M63.91-39.42v3.12M63.91-34.38v3.12M63.91-29.34v3.12M63.91-24.3v3.12M63.91-19.26v3.12M63.91-14.22v3.12M63.91-9.18v3.12M63.91-4.14v3.12M67.14-44.46v3.12M67.14-39.42v3.12M67.14-34.38v3.12M67.14-29.34v3.12M67.14-24.3v3.12M67.14-19.26v3.12M67.14-14.22v3.12M67.14-9.18v3.12M67.14-4.14v3.12M70.36-44.46v3.12M70.36-39.42v3.12M70.36-34.38v3.12M70.36-29.34v3.12M70.36-24.3v3.12M70.36-19.26v3.12M70.36-14.22v3.12M70.36-9.18v3.12M70.36-4.14v3.12M73.59-44.46v3.12M73.59-39.42v3.12M73.59-34.38v3.12M73.59-29.34v3.12M73.59-24.3v3.12M73.59-19.26v3.12M73.59-14.22v3.12M73.59-9.18v3.12M73.59-4.14v3.12M76.81-44.46v3.12M76.81-39.42v3.12M76.81-34.38v3.12M76.81-29.34v3.12M76.81-24.3v3.12M76.81-19.26v3.12M76.81-14.22v3.12M76.81-9.18v3.12M76.81-4.14v3.12M80.04-44.46v3.12M80.04-39.42v3.12M80.04-34.38v3.12M80.04-29.34v3.12M80.04-24.3v3.12M80.04-19.26v3.12M80.04-14.22v3.12M80.04-9.18v3.12M80.04-4.14v3.12M83.26-44.46v3.12M83.26-39.42v3.12M83.26-34.38v3.12M83.26-29.34v3.12M83.26-24.3v3.12M83.26-19.26v3.12M83.26-14.22v3.12M83.26-9.18v3.12M83.26-4.14v3.12M86.49-44.46v3.12M86.49-39.42v3.12M86.49-34.38v3.12M86.49-29.34v3.12M86.49-24.3v3.12M86.49-19.26v3.12M86.49-14.22v3.12M86.49-9.18v3.12M86.49-4.14v3.12M89.71-44.46v3.12M89.71-39.42v3.12M89.71-34.38v3.12M89.71-29.34v3.12M89.71-24.3v3.12M89.71-19.26v3.12M89.71-14.22v3.12M89.71-9.18v3.12M89.71-4.14v3.12M46.17-45.16v1.5M46.17-1.42V0M49.4-45.16v1.5M49.4-1.42V0M52.63-45.16v1.5M52.63-1.42V0M55.85-45.16v1.5M55.85-1.42V0M59.08-45.16v1.5M59.08-1.42V0M62.3-45.16v1.5M62.3-1.42V0M65.53-45.16v1.5M65.53-1.42V0M68.75-45.16v1.5M68.75-1.42V0M71.98-45.16v1.5M71.98-1.42V0M75.2-45.16v1.5M75.2-1.42V0M78.43-45.16v1.5M78.43-1.42V0M81.65-45.16v1.5M81.65-1.42V0M84.88-45.16v1.5M84.88-1.42V0M88.1-45.16v1.5M88.1-1.42V0M46.17-41.74v3.12M46.17-31.66v3.12M46.17-26.62v3.12M46.17-21.58v3.12M46.17-16.54v3.12M46.17-11.5v3.12M46.17-6.46v3.12M49.4-41.74v3.12M49.4-36.7v3.12M49.4-31.66v3.12M49.4-26.62v3.12M49.4-21.58v3.12M49.4-16.54v3.12M49.4-11.5v3.12M49.4-6.46v3.12M52.63-41.74v3.12M52.63-36.7v3.12M52.63-31.66v3.12M52.63-26.62v3.12M52.63-21.58v3.12M52.63-16.54v3.12M52.63-11.5v3.12M52.63-6.46v3.12M55.85-41.74v3.12M55.85-36.7v3.12M55.85-31.66v3.12M55.85-26.62v3.12M55.85-21.58v3.12M55.85-16.54v3.12M55.85-11.5v3.12M55.85-6.46v3.12M59.08-41.74v3.12M59.08-36.7v3.12M59.08-31.66v3.12M59.08-26.62v3.12M59.08-21.58v3.12M59.08-16.54v3.12M59.08-11.5v3.12M59.08-6.46v3.12M62.3-41.74v3.12M62.3-36.7v3.12M62.3-31.66v3.12M62.3-26.62v3.12M62.3-21.58v3.12M62.3-16.54v3.12M62.3-11.5v3.12M62.3-6.46v3.12M65.53-41.74v3.12M65.53-36.7v3.12M65.53-31.66v3.12M65.53-26.62v3.12M65.53-21.58v3.12M65.53-16.54v3.12M65.53-11.5v3.12M65.53-6.46v3.12M68.75-41.74v3.12M68.75-36.7v3.12M68.75-31.66v3.12M68.75-26.62v3.12M68.75-21.58v3.12M68.75-16.54v3.12M68.75-11.5v3.12M68.75-6.46v3.12M71.98-41.74v3.12M71.98-36.7v3.12M71.98-31.66v3.12M71.98-26.62v3.12M71.98-21.58v3.12M71.98-16.54v3.12M71.98-11.5v3.12M71.98-6.46v3.12M75.2-41.74v3.12M75.2-36.7v3.12M75.2-31.66v3.12M75.2-26.62v3.12M75.2-21.58v3.12M75.2-16.54v3.12M75.2-11.5v3.12M75.2-6.46v3.12M78.43-41.74v3.12M78.43-36.7v3.12M78.43-31.66v3.12M78.43-26.62v3.12M78.43-21.58v3.12M78.43-16.54v3.12M78.43-11.5v3.12M78.43-6.46v3.12M81.65-41.74v3.12M81.65-36.7v3.12M81.65-31.66v3.12M81.65-26.62v3.12M81.65-21.58v3.12M81.65-16.54v3.12M81.65-11.5v3.12M81.65-6.46v3.12M84.88-41.74v3.12M84.88-36.7v3.12M84.88-31.66v3.12M84.88-26.62v3.12M84.88-21.58v3.12M84.88-16.54v3.12M84.88-11.5v3.12M84.88-6.46v3.12M88.1-41.74v3.12M88.1-36.7v3.12M88.1-31.66v3.12M88.1-26.62v3.12M88.1-21.58v3.12M88.1-16.54v3.12M88.1-11.5v3.12M88.1-6.46v3.12M47.79-44.46v3.12M47.79-39.42v3.12M47.79-34.38v3.12M47.79-29.34v3.12M47.79-24.3v3.12M47.79-19.26v3.12M47.79-14.22v3.12M47.79-9.18v3.12M47.79-4.14v3.12M51.01-44.46v3.12M51.01-39.42v3.12M51.01-34.38v3.12M51.01-29.34v3.12M51.01-24.3v3.12M51.01-19.26v3.12M51.01-14.22v3.12M51.01-9.18v3.12M51.01-4.14v3.12M54.24-44.46v3.12M54.24-39.42v3.12M54.24-34.38v3.12M54.24-29.34v3.12M54.24-24.3v3.12M54.24-19.26v3.12M54.24-14.22v3.12M54.24-9.18v3.12M54.24-4.14v3.12M57.46-44.46v3.12M57.46-39.42v3.12M57.46-34.38v3.12M57.46-29.34v3.12M57.46-24.3v3.12M57.46-19.26v3.12M57.46-14.22v3.12M57.46-9.18v3.12M57.46-4.14v3.12M60.69-44.46v3.12M60.69-39.42v3.12M60.69-34.38v3.12M60.69-29.34v3.12M60.69-24.3v3.12M60.69-19.26v3.12M60.69-14.22v3.12M60.69-9.18v3.12M60.69-4.14v3.12M63.91-44.46v3.12M63.91-39.42v3.12M63.91-34.38v3.12M63.91-29.34v3.12M63.91-24.3v3.12M63.91-19.26v3.12M63.91-14.22v3.12M63.91-9.18v3.12M63.91-4.14v3.12M67.14-44.46v3.12M67.14-39.42v3.12M67.14-34.38v3.12M67.14-29.34v3.12M67.14-24.3v3.12M67.14-19.26v3.12M67.14-14.22v3.12M67.14-9.18v3.12M67.14-4.14v3.12M70.36-44.46v3.12M70.36-39.42v3.12M70.36-34.38v3.12M70.36-29.34v3.12M70.36-24.3v3.12M70.36-19.26v3.12M70.36-14.22v3.12M70.36-9.18v3.12M70.36-4.14v3.12M73.59-44.46v3.12M73.59-39.42v3.12M73.59-34.38v3.12M73.59-29.34v3.12M73.59-24.3v3.12M73.59-19.26v3.12M73.59-14.22v3.12M73.59-9.18v3.12M73.59-4.14v3.12M76.81-44.46v3.12M76.81-39.42v3.12M76.81-34.38v3.12M76.81-29.34v3.12M76.81-24.3v3.12M76.81-19.26v3.12M76.81-14.22v3.12M76.81-9.18v3.12M76.81-4.14v3.12M80.04-44.46v3.12M80.04-39.42v3.12M80.04-34.38v3.12M80.04-29.34v3.12M80.04-24.3v3.12M80.04-19.26v3.12M80.04-14.22v3.12M80.04-9.18v3.12M80.04-4.14v3.12M83.26-44.46v3.12M83.26-39.42v3.12M83.26-34.38v3.12M83.26-29.34v3.12M83.26-24.3v3.12M83.26-19.26v3.12M83.26-14.22v3.12M83.26-9.18v3.12M83.26-4.14v3.12M86.49-44.46v3.12M86.49-39.42v3.12M86.49-34.38v3.12M86.49-29.34v3.12M86.49-24.3v3.12M86.49-19.26v3.12M86.49-14.22v3.12M86.49-9.18v3.12M86.49-4.14v3.12M89.71-44.46v3.12M89.71-39.42v3.12M89.71-34.38v3.12M89.71-29.34v3.12M89.71-24.3v3.12M89.71-19.26v3.12M89.71-14.22v3.12M89.71-9.18v3.12M89.71-4.14v3.12M1.03-90.31v1.5M1.03-46.56v1.42M4.26-90.31v1.5M4.26-46.56v1.42M7.48-90.31v1.5M7.48-46.56v1.42M10.71-90.31v1.5M10.71-46.56v1.42M13.93-90.31v1.5M13.93-46.56v1.42M17.16-90.31v1.5M17.16-46.56v1.42M20.38-90.31v1.5M20.38-46.56v1.42M23.61-90.31v1.5M23.61-46.56v1.42M26.83-90.31v1.5M26.83-46.56v1.42M30.06-90.31v1.5M30.06-46.56v1.42M33.28-90.31v1.5M33.28-46.56v1.42M36.51-90.31v1.5M36.51-46.56v1.42M39.73-90.31v1.5M39.73-46.56v1.42M42.96-90.31v1.5M42.96-46.56v1.42M1.03-86.88v3.11M1.03-81.84v3.11M1.03-76.8v3.11M1.03-71.76v3.11M1.03-66.72v3.11M1.03-61.68v3.11M1.03-56.64v3.11M1.03-51.6v3.11M4.26-86.88v3.11M4.26-81.84v3.11M4.26-76.8v3.11M4.26-71.76v3.11M4.26-66.72v3.11M4.26-61.68v3.11M4.26-56.64v3.11M4.26-51.6v3.11M7.48-86.88v3.11M7.48-81.84v3.11M7.48-76.8v3.11M7.48-71.76v3.11M7.48-66.72v3.11M7.48-61.68v3.11M7.48-56.64v3.11M7.48-51.6v3.11M10.71-86.88v3.11M10.71-81.84v3.11M10.71-76.8v3.11M10.71-71.76v3.11M10.71-66.72v3.11M10.71-61.68v3.11M10.71-56.64v3.11M10.71-51.6v3.11M13.93-86.88v3.11M13.93-81.84v3.11M13.93-76.8v3.11M13.93-71.76v3.11M13.93-66.72v3.11M13.93-61.68v3.11M13.93-56.64v3.11M13.93-51.6v3.11M17.16-86.88v3.11M17.16-81.84v3.11M17.16-76.8v3.11M17.16-71.76v3.11M17.16-66.72v3.11M17.16-61.68v3.11M17.16-56.64v3.11M17.16-51.6v3.11M20.38-86.88v3.11M20.38-81.84v3.11M20.38-76.8v3.11M20.38-71.76v3.11M20.38-66.72v3.11M20.38-61.68v3.11M20.38-56.64v3.11M20.38-51.6v3.11M23.61-86.88v3.11M23.61-81.84v3.11M23.61-76.8v3.11M23.61-71.76v3.11M23.61-66.72v3.11M23.61-61.68v3.11M23.61-56.64v3.11M23.61-51.6v3.11M26.83-86.88v3.11M26.83-81.84v3.11M26.83-76.8v3.11M26.83-71.76v3.11M26.83-66.72v3.11M26.83-61.68v3.11M26.83-56.64v3.11M26.83-51.6v3.11M30.06-86.88v3.11M30.06-81.84v3.11M30.06-76.8v3.11M30.06-71.76v3.11M30.06-66.72v3.11M30.06-61.68v3.11M30.06-56.64v3.11M30.06-51.6v3.11M33.28-86.88v3.11M33.28-81.84v3.11M33.28-76.8v3.11M33.28-71.76v3.11M33.28-66.72v3.11M33.28-61.68v3.11M33.28-56.64v3.11M33.28-51.6v3.11M36.51-86.88v3.11M36.51-81.84v3.11M36.51-76.8v3.11M36.51-71.76v3.11M36.51-66.72v3.11M36.51-61.68v3.11M36.51-56.64v3.11M36.51-51.6v3.11M39.73-86.88v3.11M39.73-81.84v3.11M39.73-76.8v3.11M39.73-71.76v3.11M39.73-66.72v3.11M39.73-61.68v3.11M39.73-56.64v3.11M39.73-51.6v3.11M42.96-86.88v3.11M42.96-81.84v3.11M42.96-76.8v3.11M42.96-71.76v3.11M42.96-66.72v3.11M42.96-61.68v3.11M42.96-56.64v3.11M42.96-51.6v3.11M2.65-89.6v3.11M2.65-84.56v3.11M2.65-79.52v3.11M2.65-74.48v3.11M2.65-69.44v3.11M2.65-64.4v3.11M2.65-59.36v3.11M2.65-54.32v3.11M2.65-49.28v3.11M5.87-89.6v3.11M5.87-84.56v3.11M5.87-79.52v3.11M5.87-74.48v3.11M5.87-69.44v3.11M5.87-64.4v3.11M5.87-59.36v3.11M5.87-54.32v3.11M5.87-49.28v3.11M9.1-89.6v3.11M9.1-84.56v3.11M9.1-79.52v3.11M9.1-74.48v3.11M9.1-69.44v3.11M9.1-64.4v3.11M9.1-59.36v3.11M9.1-54.32v3.11M9.1-49.28v3.11M12.32-89.6v3.11M12.32-84.56v3.11M12.32-79.52v3.11M12.32-74.48v3.11M12.32-69.44v3.11M12.32-64.4v3.11M12.32-59.36v3.11M12.32-54.32v3.11M12.32-49.28v3.11M15.54-89.6v3.11M15.54-84.56v3.11M15.54-79.52v3.11M15.54-74.48v3.11M15.54-69.44v3.11M15.54-64.4v3.11M15.54-59.36v3.11M15.54-54.32v3.11M15.54-49.28v3.11M18.77-89.6v3.11M18.77-84.56v3.11M18.77-79.52v3.11M18.77-74.48v3.11M18.77-69.44v3.11M18.77-64.4v3.11M18.77-59.36v3.11M18.77-54.32v3.11M18.77-49.28v3.11M22-89.6v3.11M22-84.56v3.11M22-79.52v3.11M22-74.48v3.11M22-69.44v3.11M22-64.4v3.11M22-59.36v3.11M22-54.32v3.11M22-49.28v3.11M25.22-89.6v3.11M25.22-84.56v3.11M25.22-79.52v3.11M25.22-74.48v3.11M25.22-69.44v3.11M25.22-64.4v3.11M25.22-59.36v3.11M25.22-54.32v3.11M25.22-49.28v3.11M28.45-89.6v3.11M28.45-84.56v3.11M28.45-79.52v3.11M28.45-74.48v3.11M28.45-69.44v3.11M28.45-64.4v3.11M28.45-59.36v3.11M28.45-54.32v3.11M28.45-49.28v3.11M31.67-89.6v3.11M31.67-84.56v3.11M31.67-79.52v3.11M31.67-74.48v3.11M31.67-69.44v3.11M31.67-64.4v3.11M31.67-59.36v3.11M31.67-54.32v3.11M31.67-49.28v3.11M34.9-89.6v3.11M34.9-84.56v3.11M34.9-79.52v3.11M34.9-74.48v3.11M34.9-69.44v3.11M34.9-64.4v3.11M34.9-59.36v3.11M34.9-54.32v3.11M34.9-49.28v3.11M38.12-89.6v3.11M38.12-84.56v3.11M38.12-79.52v3.11M38.12-74.48v3.11M38.12-69.44v3.11M38.12-64.4v3.11M38.12-59.36v3.11M38.12-54.32v3.11M38.12-49.28v3.11M41.34-89.6v3.11M41.34-84.56v3.11M41.34-79.52v3.11M41.34-74.48v3.11M41.34-69.44v3.11M41.34-64.4v3.11M41.34-59.36v3.11M41.34-54.32v3.11M41.34-49.28v3.11M44.57-89.6v3.11M44.57-84.56v3.11M44.57-79.52v3.11M44.57-74.48v3.11M44.57-69.44v3.11M44.57-64.4v3.11M44.57-59.36v3.11M44.57-54.32v3.11M44.57-49.28v3.11M1.03-90.31v1.5M1.03-46.56v1.42M4.26-90.31v1.5M4.26-46.56v1.42M7.48-90.31v1.5M7.48-46.56v1.42M10.71-90.31v1.5M10.71-46.56v1.42M13.93-90.31v1.5M13.93-46.56v1.42M17.16-90.31v1.5M17.16-46.56v1.42M20.38-90.31v1.5M20.38-46.56v1.42M23.61-90.31v1.5M23.61-46.56v1.42M26.83-90.31v1.5M26.83-46.56v1.42M30.06-90.31v1.5M30.06-46.56v1.42M33.28-90.31v1.5M33.28-46.56v1.42M36.51-90.31v1.5M36.51-46.56v1.42M39.73-90.31v1.5M39.73-46.56v1.42M42.96-90.31v1.5M42.96-46.56v1.42M1.03-86.88v3.11M1.03-81.84v3.11M1.03-76.8v3.11M1.03-71.76v3.11M1.03-66.72v3.11M1.03-61.68v3.11M1.03-56.64v3.11M1.03-51.6v3.11M4.26-86.88v3.11M4.26-81.84v3.11M4.26-76.8v3.11M4.26-71.76v3.11M4.26-66.72v3.11M4.26-61.68v3.11M4.26-56.64v3.11M4.26-51.6v3.11M7.48-86.88v3.11M7.48-81.84v3.11M7.48-76.8v3.11M7.48-71.76v3.11M7.48-66.72v3.11M7.48-61.68v3.11M7.48-56.64v3.11M7.48-51.6v3.11M10.71-86.88v3.11M10.71-81.84v3.11M10.71-76.8v3.11M10.71-71.76v3.11M10.71-66.72v3.11M10.71-61.68v3.11M10.71-56.64v3.11M10.71-51.6v3.11M13.93-86.88v3.11M13.93-81.84v3.11M13.93-76.8v3.11M13.93-71.76v3.11M13.93-66.72v3.11M13.93-61.68v3.11M13.93-56.64v3.11M13.93-51.6v3.11M17.16-86.88v3.11M17.16-81.84v3.11M17.16-76.8v3.11M17.16-71.76v3.11M17.16-66.72v3.11M17.16-61.68v3.11M17.16-56.64v3.11M17.16-51.6v3.11M20.38-86.88v3.11M20.38-81.84v3.11M20.38-76.8v3.11M20.38-71.76v3.11M20.38-66.72v3.11M20.38-61.68v3.11M20.38-56.64v3.11M20.38-51.6v3.11M23.61-86.88v3.11M23.61-81.84v3.11M23.61-76.8v3.11M23.61-71.76v3.11M23.61-66.72v3.11M23.61-61.68v3.11M23.61-56.64v3.11M23.61-51.6v3.11M26.83-86.88v3.11M26.83-81.84v3.11M26.83-76.8v3.11M26.83-71.76v3.11M26.83-66.72v3.11M26.83-61.68v3.11M26.83-56.64v3.11M26.83-51.6v3.11M30.06-86.88v3.11M30.06-81.84v3.11M30.06-76.8v3.11M30.06-71.76v3.11M30.06-66.72v3.11M30.06-61.68v3.11M30.06-56.64v3.11M30.06-51.6v3.11M33.28-86.88v3.11M33.28-81.84v3.11M33.28-76.8v3.11M33.28-71.76v3.11M33.28-66.72v3.11M33.28-61.68v3.11M33.28-56.64v3.11M33.28-51.6v3.11M36.51-86.88v3.11M36.51-81.84v3.11M36.51-76.8v3.11M36.51-71.76v3.11M36.51-66.72v3.11M36.51-61.68v3.11M36.51-56.64v3.11M36.51-51.6v3.11M39.73-86.88v3.11M39.73-81.84v3.11M39.73-76.8v3.11M39.73-71.76v3.11M39.73-66.72v3.11M39.73-61.68v3.11M39.73-56.64v3.11M39.73-51.6v3.11M42.96-86.88v3.11M42.96-81.84v3.11M42.96-76.8v3.11M42.96-71.76v3.11M42.96-66.72v3.11M42.96-61.68v3.11M42.96-56.64v3.11M42.96-51.6v3.11M2.65-89.6v3.11M2.65-84.56v3.11M2.65-79.52v3.11M2.65-74.48v3.11M2.65-69.44v3.11M2.65-64.4v3.11M2.65-59.36v3.11M2.65-54.32v3.11M2.65-49.28v3.11M5.87-89.6v3.11M5.87-84.56v3.11M5.87-79.52v3.11M5.87-74.48v3.11M5.87-69.44v3.11M5.87-64.4v3.11M5.87-59.36v3.11M5.87-54.32v3.11M5.87-49.28v3.11M9.1-89.6v3.11M9.1-84.56v3.11M9.1-79.52v3.11M9.1-74.48v3.11M9.1-69.44v3.11M9.1-64.4v3.11M9.1-59.36v3.11M9.1-54.32v3.11M9.1-49.28v3.11M12.32-89.6v3.11M12.32-84.56v3.11M12.32-79.52v3.11M12.32-74.48v3.11M12.32-69.44v3.11M12.32-64.4v3.11M12.32-59.36v3.11M12.32-54.32v3.11M12.32-49.28v3.11M15.54-89.6v3.11M15.54-84.56v3.11M15.54-79.52v3.11M15.54-74.48v3.11M15.54-69.44v3.11M15.54-64.4v3.11M15.54-59.36v3.11M15.54-54.32v3.11M15.54-49.28v3.11M18.77-89.6v3.11M18.77-84.56v3.11M18.77-79.52v3.11M18.77-74.48v3.11M18.77-69.44v3.11M18.77-64.4v3.11M18.77-59.36v3.11M18.77-54.32v3.11M18.77-49.28v3.11M22-89.6v3.11M22-84.56v3.11M22-79.52v3.11M22-74.48v3.11M22-69.44v3.11M22-64.4v3.11M22-59.36v3.11M22-54.32v3.11M22-49.28v3.11M25.22-89.6v3.11M25.22-84.56v3.11M25.22-79.52v3.11M25.22-74.48v3.11M25.22-69.44v3.11M25.22-64.4v3.11M25.22-59.36v3.11M25.22-54.32v3.11M25.22-49.28v3.11M28.45-89.6v3.11M28.45-84.56v3.11M28.45-79.52v3.11M28.45-74.48v3.11M28.45-69.44v3.11M28.45-64.4v3.11M28.45-59.36v3.11M28.45-54.32v3.11M28.45-49.28v3.11M31.67-89.6v3.11M31.67-84.56v3.11M31.67-79.52v3.11M31.67-74.48v3.11M31.67-69.44v3.11M31.67-64.4v3.11M31.67-59.36v3.11M31.67-54.32v3.11M31.67-49.28v3.11M34.9-89.6v3.11M34.9-84.56v3.11M34.9-79.52v3.11M34.9-74.48v3.11M34.9-69.44v3.11M34.9-64.4v3.11M34.9-59.36v3.11M34.9-54.32v3.11M34.9-49.28v3.11M38.12-89.6v3.11M38.12-84.56v3.11M38.12-79.52v3.11M38.12-74.48v3.11M38.12-69.44v3.11M38.12-64.4v3.11M38.12-59.36v3.11M38.12-54.32v3.11M38.12-49.28v3.11M41.34-89.6v3.11M41.34-84.56v3.11M41.34-79.52v3.11M41.34-74.48v3.11M41.34-69.44v3.11M41.34-64.4v3.11M41.34-59.36v3.11M41.34-54.32v3.11M41.34-49.28v3.11M44.57-89.6v3.11M44.57-84.56v3.11M44.57-79.52v3.11M44.57-74.48v3.11M44.57-69.44v3.11M44.57-64.4v3.11M44.57-59.36v3.11M44.57-54.32v3.11M44.57-49.28v3.11M46.17-90.31v1.5M46.17-46.56v1.42M49.4-90.31v1.5M49.4-46.56v1.42M52.63-90.31v1.5M52.63-46.56v1.42M55.85-90.31v1.5M55.85-46.56v1.42M59.08-90.31v1.5M59.08-46.56v1.42M62.3-90.31v1.5M62.3-46.56v1.42M65.53-90.31v1.5M65.53-46.56v1.42M68.75-90.31v1.5M68.75-46.56v1.42M71.98-90.31v1.5M71.98-46.56v1.42M75.2-90.31v1.5M75.2-46.56v1.42M78.43-90.31v1.5M78.43-46.56v1.42M81.65-90.31v1.5M81.65-46.56v1.42M84.88-90.31v1.5M84.88-46.56v1.42M88.1-90.31v1.5M88.1-46.56v1.42M46.17-86.88v3.11M46.17-81.84v3.11M46.17-76.8v3.11M46.17-71.76v3.11M46.17-66.72v3.11M46.17-61.68v3.11M46.17-56.64v3.11M46.17-51.6v3.11M49.4-86.88v3.11M49.4-81.84v3.11M49.4-76.8v3.11M49.4-71.76v3.11M49.4-66.72v3.11M49.4-61.68v3.11M49.4-56.64v3.11M49.4-51.6v3.11M52.63-86.88v3.11M52.63-81.84v3.11M52.63-76.8v3.11M52.63-71.76v3.11M52.63-66.72v3.11M52.63-61.68v3.11M52.63-56.64v3.11M52.63-51.6v3.11M55.85-86.88v3.11M55.85-81.84v3.11M55.85-76.8v3.11M55.85-71.76v3.11M55.85-66.72v3.11M55.85-61.68v3.11M55.85-56.64v3.11M55.85-51.6v3.11M59.08-86.88v3.11M59.08-81.84v3.11M59.08-76.8v3.11M59.08-71.76v3.11M59.08-66.72v3.11M59.08-61.68v3.11M59.08-56.64v3.11M59.08-51.6v3.11M62.3-86.88v3.11M62.3-81.84v3.11M62.3-76.8v3.11M62.3-71.76v3.11M62.3-66.72v3.11M62.3-61.68v3.11M62.3-56.64v3.11M62.3-51.6v3.11M65.53-86.88v3.11M65.53-81.84v3.11M65.53-76.8v3.11M65.53-71.76v3.11M65.53-66.72v3.11M65.53-61.68v3.11M65.53-56.64v3.11M65.53-51.6v3.11M68.75-86.88v3.11M68.75-81.84v3.11M68.75-76.8v3.11M68.75-71.76v3.11M68.75-66.72v3.11M68.75-61.68v3.11M68.75-56.64v3.11M68.75-51.6v3.11M71.98-86.88v3.11M71.98-81.84v3.11M71.98-76.8v3.11M71.98-71.76v3.11M71.98-66.72v3.11M71.98-61.68v3.11M71.98-56.64v3.11M71.98-51.6v3.11M75.2-86.88v3.11M75.2-81.84v3.11M75.2-76.8v3.11M75.2-71.76v3.11M75.2-66.72v3.11M75.2-61.68v3.11M75.2-56.64v3.11M75.2-51.6v3.11M78.43-86.88v3.11M78.43-81.84v3.11M78.43-76.8v3.11M78.43-71.76v3.11M78.43-66.72v3.11M78.43-61.68v3.11M78.43-56.64v3.11M78.43-51.6v3.11M81.65-86.88v3.11M81.65-81.84v3.11M81.65-76.8v3.11M81.65-71.76v3.11M81.65-66.72v3.11M81.65-61.68v3.11M81.65-56.64v3.11M81.65-51.6v3.11M84.88-86.88v3.11M84.88-81.84v3.11M84.88-76.8v3.11M84.88-71.76v3.11M84.88-66.72v3.11M84.88-61.68v3.11M84.88-56.64v3.11M84.88-51.6v3.11M88.1-86.88v3.11M88.1-81.84v3.11M88.1-76.8v3.11M88.1-71.76v3.11M88.1-66.72v3.11M88.1-61.68v3.11M88.1-56.64v3.11M88.1-51.6v3.11M47.79-89.6v3.11M47.79-84.56v3.11M47.79-79.52v3.11M47.79-74.48v3.11M47.79-69.44v3.11M47.79-64.4v3.11M47.79-59.36v3.11M47.79-54.32v3.11M47.79-49.28v3.11M51.01-89.6v3.11M51.01-84.56v3.11M51.01-79.52v3.11M51.01-74.48v3.11M51.01-69.44v3.11M51.01-64.4v3.11M51.01-59.36v3.11M51.01-54.32v3.11M51.01-49.28v3.11M54.24-89.6v3.11M54.24-84.56v3.11M54.24-79.52v3.11M54.24-74.48v3.11M54.24-69.44v3.11M54.24-64.4v3.11M54.24-59.36v3.11M54.24-54.32v3.11M54.24-49.28v3.11M57.46-89.6v3.11M57.46-84.56v3.11M57.46-79.52v3.11M57.46-74.48v3.11M57.46-69.44v3.11M57.46-64.4v3.11M57.46-59.36v3.11M57.46-54.32v3.11M57.46-49.28v3.11M60.69-89.6v3.11M60.69-84.56v3.11M60.69-79.52v3.11M60.69-74.48v3.11M60.69-69.44v3.11M60.69-64.4v3.11M60.69-59.36v3.11M60.69-54.32v3.11M60.69-49.28v3.11M63.91-89.6v3.11M63.91-84.56v3.11M63.91-79.52v3.11M63.91-74.48v3.11M63.91-69.44v3.11M63.91-64.4v3.11M63.91-59.36v3.11M63.91-54.32v3.11M63.91-49.28v3.11M67.14-89.6v3.11M67.14-84.56v3.11M67.14-79.52v3.11M67.14-74.48v3.11M67.14-69.44v3.11M67.14-64.4v3.11M67.14-59.36v3.11M67.14-54.32v3.11M67.14-49.28v3.11M70.36-89.6v3.11M70.36-84.56v3.11M70.36-79.52v3.11M70.36-74.48v3.11M70.36-69.44v3.11M70.36-64.4v3.11M70.36-59.36v3.11M70.36-54.32v3.11M70.36-49.28v3.11M73.59-89.6v3.11M73.59-84.56v3.11M73.59-79.52v3.11M73.59-74.48v3.11M73.59-69.44v3.11M73.59-64.4v3.11M73.59-59.36v3.11M73.59-54.32v3.11M73.59-49.28v3.11M76.81-89.6v3.11M76.81-84.56v3.11M76.81-79.52v3.11M76.81-74.48v3.11M76.81-69.44v3.11M76.81-64.4v3.11M76.81-59.36v3.11M76.81-54.32v3.11M76.81-49.28v3.11M80.04-89.6v3.11M80.04-84.56v3.11M80.04-79.52v3.11M80.04-74.48v3.11M80.04-69.44v3.11M80.04-64.4v3.11M80.04-59.36v3.11M80.04-54.32v3.11M80.04-49.28v3.11M83.26-89.6v3.11M83.26-84.56v3.11M83.26-79.52v3.11M83.26-74.48v3.11M83.26-69.44v3.11M83.26-64.4v3.11M83.26-59.36v3.11M83.26-54.32v3.11M83.26-49.28v3.11M86.49-89.6v3.11M86.49-84.56v3.11M86.49-79.52v3.11M86.49-74.48v3.11M86.49-69.44v3.11M86.49-64.4v3.11M86.49-59.36v3.11M86.49-54.32v3.11M86.49-49.28v3.11M89.71-89.6v3.11M89.71-84.56v3.11M89.71-79.52v3.11M89.71-74.48v3.11M89.71-69.44v3.11M89.71-64.4v3.11M89.71-59.36v3.11M89.71-54.32v3.11M89.71-49.28v3.11M46.17-90.31v1.5M46.17-46.56v1.42M49.4-90.31v1.5M49.4-46.56v1.42M52.63-90.31v1.5M52.63-46.56v1.42M55.85-90.31v1.5M55.85-46.56v1.42M59.08-90.31v1.5M59.08-46.56v1.42M62.3-90.31v1.5M62.3-46.56v1.42M65.53-90.31v1.5M65.53-46.56v1.42M68.75-90.31v1.5M68.75-46.56v1.42M71.98-90.31v1.5M71.98-46.56v1.42M75.2-90.31v1.5M75.2-46.56v1.42M78.43-90.31v1.5M78.43-46.56v1.42M81.65-90.31v1.5M81.65-46.56v1.42M84.88-90.31v1.5M84.88-46.56v1.42M88.1-90.31v1.5M88.1-46.56v1.42M46.17-86.88v3.11M46.17-81.84v3.11M46.17-76.8v3.11M46.17-71.76v3.11M46.17-66.72v3.11M46.17-61.68v3.11M46.17-56.64v3.11M46.17-51.6v3.11M49.4-86.88v3.11M49.4-81.84v3.11M49.4-76.8v3.11M49.4-71.76v3.11M49.4-66.72v3.11M49.4-61.68v3.11M49.4-56.64v3.11M49.4-51.6v3.11M52.63-86.88v3.11M52.63-81.84v3.11M52.63-76.8v3.11M52.63-71.76v3.11M52.63-66.72v3.11M52.63-61.68v3.11M52.63-56.64v3.11M52.63-51.6v3.11M55.85-86.88v3.11M55.85-81.84v3.11M55.85-76.8v3.11M55.85-71.76v3.11M55.85-66.72v3.11M55.85-61.68v3.11M55.85-56.64v3.11M55.85-51.6v3.11M59.08-86.88v3.11M59.08-81.84v3.11M59.08-76.8v3.11M59.08-71.76v3.11M59.08-66.72v3.11M59.08-61.68v3.11M59.08-56.64v3.11M59.08-51.6v3.11M62.3-86.88v3.11M62.3-81.84v3.11M62.3-76.8v3.11M62.3-71.76v3.11M62.3-66.72v3.11M62.3-61.68v3.11M62.3-56.64v3.11M62.3-51.6v3.11M65.53-86.88v3.11M65.53-81.84v3.11M65.53-76.8v3.11M65.53-71.76v3.11M65.53-66.72v3.11M65.53-61.68v3.11M65.53-56.64v3.11M65.53-51.6v3.11M68.75-86.88v3.11M68.75-81.84v3.11M68.75-76.8v3.11M68.75-71.76v3.11M68.75-66.72v3.11M68.75-61.68v3.11M68.75-56.64v3.11M68.75-51.6v3.11M71.98-86.88v3.11M71.98-81.84v3.11M71.98-76.8v3.11M71.98-71.76v3.11M71.98-66.72v3.11M71.98-61.68v3.11M71.98-56.64v3.11M71.98-51.6v3.11M75.2-86.88v3.11M75.2-81.84v3.11M75.2-76.8v3.11M75.2-71.76v3.11M75.2-66.72v3.11M75.2-61.68v3.11M75.2-56.64v3.11M75.2-51.6v3.11M78.43-86.88v3.11M78.43-81.84v3.11M78.43-76.8v3.11M78.43-71.76v3.11M78.43-66.72v3.11M78.43-61.68v3.11M78.43-56.64v3.11M78.43-51.6v3.11M81.65-86.88v3.11M81.65-81.84v3.11M81.65-76.8v3.11M81.65-71.76v3.11M81.65-66.72v3.11M81.65-61.68v3.11M81.65-56.64v3.11M81.65-51.6v3.11M84.88-86.88v3.11M84.88-81.84v3.11M84.88-76.8v3.11M84.88-71.76v3.11M84.88-66.72v3.11M84.88-61.68v3.11M84.88-56.64v3.11M84.88-51.6v3.11M88.1-86.88v3.11M88.1-81.84v3.11M88.1-76.8v3.11M88.1-71.76v3.11M88.1-66.72v3.11M88.1-61.68v3.11M88.1-56.64v3.11M88.1-51.6v3.11M47.79-89.6v3.11M47.79-84.56v3.11M47.79-79.52v3.11M47.79-74.48v3.11M47.79-69.44v3.11M47.79-64.4v3.11M47.79-59.36v3.11M47.79-54.32v3.11M47.79-49.28v3.11M51.01-89.6v3.11M51.01-84.56v3.11M51.01-79.52v3.11M51.01-74.48v3.11M51.01-69.44v3.11M51.01-64.4v3.11M51.01-59.36v3.11M51.01-54.32v3.11M51.01-49.28v3.11M54.24-89.6v3.11M54.24-84.56v3.11M54.24-79.52v3.11M54.24-74.48v3.11M54.24-69.44v3.11M54.24-64.4v3.11M54.24-59.36v3.11M54.24-54.32v3.11M54.24-49.28v3.11M57.46-89.6v3.11M57.46-84.56v3.11M57.46-79.52v3.11M57.46-74.48v3.11M57.46-69.44v3.11M57.46-64.4v3.11M57.46-59.36v3.11M57.46-54.32v3.11M57.46-49.28v3.11M60.69-89.6v3.11M60.69-84.56v3.11M60.69-79.52v3.11M60.69-74.48v3.11M60.69-69.44v3.11M60.69-64.4v3.11M60.69-59.36v3.11M60.69-54.32v3.11M60.69-49.28v3.11M63.91-89.6v3.11M63.91-84.56v3.11M63.91-79.52v3.11M63.91-74.48v3.11M63.91-69.44v3.11M63.91-64.4v3.11M63.91-59.36v3.11M63.91-54.32v3.11M63.91-49.28v3.11M67.14-89.6v3.11M67.14-84.56v3.11M67.14-79.52v3.11M67.14-74.48v3.11M67.14-69.44v3.11M67.14-64.4v3.11M67.14-59.36v3.11M67.14-54.32v3.11M67.14-49.28v3.11M70.36-89.6v3.11M70.36-84.56v3.11M70.36-79.52v3.11M70.36-74.48v3.11M70.36-69.44v3.11M70.36-64.4v3.11M70.36-59.36v3.11M70.36-54.32v3.11M70.36-49.28v3.11M73.59-89.6v3.11M73.59-84.56v3.11M73.59-79.52v3.11M73.59-74.48v3.11M73.59-69.44v3.11M73.59-64.4v3.11M73.59-59.36v3.11M73.59-54.32v3.11M73.59-49.28v3.11M76.81-89.6v3.11M76.81-84.56v3.11M76.81-79.52v3.11M76.81-74.48v3.11M76.81-69.44v3.11M76.81-64.4v3.11M76.81-59.36v3.11M76.81-54.32v3.11M76.81-49.28v3.11M80.04-89.6v3.11M80.04-84.56v3.11M80.04-79.52v3.11M80.04-74.48v3.11M80.04-69.44v3.11M80.04-64.4v3.11M80.04-59.36v3.11M80.04-54.32v3.11M80.04-49.28v3.11M83.26-89.6v3.11M83.26-84.56v3.11M83.26-79.52v3.11M83.26-74.48v3.11M83.26-69.44v3.11M83.26-64.4v3.11M83.26-59.36v3.11M83.26-54.32v3.11M83.26-49.28v3.11M86.49-89.6v3.11M86.49-84.56v3.11M86.49-79.52v3.11M86.49-74.48v3.11M86.49-69.44v3.11M86.49-64.4v3.11M86.49-59.36v3.11M86.49-54.32v3.11M86.49-49.28v3.11M89.71-89.6v3.11M89.71-84.56v3.11M89.71-79.52v3.11M89.71-74.48v3.11M89.71-69.44v3.11M89.71-64.4v3.11M89.71-59.36v3.11M89.71-54.32v3.11M89.71-49.28v3.11" style="fill-rule:evenodd;clip-rule:evenodd;fill:none;stroke:#fff;stroke-width:.58"/></svg>