<svg xmlns="http://www.w3.org/2000/svg" xml:space="preserve" width="23.13" height="23.13" viewBox="0 -23.13 23.13 23.13"><path d="M0-23.13h23.13V0H0z" style="fill:none"/><path d="M0-19.81h.69M1.06-22.13h1.32M4.31-22.13h1.32M7.56-22.13h1.32M10.81-22.13h1.32M14.06-22.13h1.32M17.31-22.13h1.32M20.56-22.13h1.32M.69-10.56H0M0-15.19h.69M0-1.31h.69M0-5.94h.69M2.68-19.81h1.31M5.98-19.81h1.31M9.29-19.81h1.31M12.59-19.81h1.31M15.89-19.81h1.31M19.2-19.81h1.31M3.99-15.19H2.68M7.29-15.19H5.98M10.6-15.19H9.29M13.9-15.19h-1.31M17.2-15.19h-1.31M20.51-15.19H19.2M3.99-10.56H2.68M7.29-10.56H5.98M10.6-10.56H9.29M13.9-10.56h-1.31M17.2-10.56h-1.31M20.51-10.56H19.2M3.99-5.94H2.68M7.29-5.94H5.98M10.6-5.94H9.29M13.9-5.94h-1.31M17.2-5.94h-1.31M20.51-5.94H19.2M3.99-1.31H2.68M7.29-1.31H5.98M10.6-1.31H9.29M13.9-1.31h-1.31M17.2-1.31h-1.31M20.51-1.31H19.2M23.13-19.81h-.63M1.12-17.5h1.31M4.42-17.5h1.31M7.72-17.5h1.32M11.03-17.5h1.31M14.33-17.5h1.31M17.63-17.5h1.32M20.94-17.5h1.31M1.12-12.88h1.31M4.42-12.88h1.31M7.72-12.88h1.32M11.03-12.88h1.31M14.33-12.88h1.31M17.63-12.88h1.32M20.94-12.88h1.31M1.12-8.25h1.31M4.42-8.25h1.31M7.72-8.25h1.32M11.03-8.25h1.31M14.33-8.25h1.31M17.63-8.25h1.32M20.94-8.25h1.31M2.43-3.63H1.12M5.73-3.63H4.42M9.04-3.63H7.72M12.34-3.63h-1.31M15.64-3.63h-1.31M18.95-3.63h-1.32M22.25-3.63h-1.31M22.5-10.56h.63M23.13-15.19h-.63M22.5-1.31h.63M23.13-5.94h-.63" style="fill:none;stroke:#ec008c;stroke-width:.58"/></svg>