<svg xmlns="http://www.w3.org/2000/svg" xml:space="preserve" width="79.25" height="79.25" viewBox="0 -79.33 79.25 79.25"><path d="M0-79.33h79.25V-.08H0z" style="fill:none"/><path d="M0-79.33h79.25V-.08H0z"/><path d="m14.25-13.22.88-1.79M8.03-11.88l1.98-.19M3.38-12.28l1.39-1.42M13-9.05l-.44 1.93M7.83-8.14l-1.92-.51M1.49-9.76.75-11.6M3.46-6.29l-1.8.84M9.13-4.13 7.44-3.09M14.8-2.71l-1.73-.98M10.78-1.06l-.18.98M3.63-1.23l-.96-1.74M10.67-16.33l-.27 1.39M30.09-13.22l.87-1.79M23.87-11.88l1.98-.19M19.22-12.28l1.39-1.42M28.84-9.05l-.44 1.93M23.67-8.14l-1.92-.51M17.33-9.76l-.74-1.84M19.3-6.29l-1.8.84M24.97-4.13l-1.7 1.04M30.64-2.71l-1.73-.98M26.69-1.06l-.18.98M19.47-1.23l-.96-1.74M26.51-16.33l-.27 1.39M45.93-13.22l.87-1.79M39.71-11.88l1.98-.19M35.06-12.28l1.39-1.42M44.68-9.05l-.44 1.93M39.51-8.14l-1.92-.51M33.17-9.76l-.74-1.84M35.14-6.29l-1.8.84M40.81-4.13l-1.7 1.04M46.48-2.71l-1.74-.98M42.46-1.06l-.19.98M35.31-1.23l-.96-1.74M42.35-16.33l-.27 1.39M61.77-13.22l.87-1.79M55.55-11.88l1.97-.19M50.9-12.28l1.39-1.42M60.52-9.05l-.44 1.93M55.35-8.14l-1.92-.51M49.01-9.76l-.74-1.84M50.98-6.29l-1.8.84M56.65-4.13l-1.7 1.04M62.31-2.71l-1.73-.98M58.3-1.06l-.19.98M51.15-1.23l-.96-1.74M58.19-16.33l-.27 1.39M77.61-13.22l.87-1.79M71.39-11.88l1.97-.19M66.74-12.28l1.38-1.42M76.36-9.05l-.45 1.93M71.19-8.14l-1.92-.51M64.85-9.76l-.74-1.84M66.82-6.29l-1.8.84M72.49-4.13l-1.7 1.04M78.15-2.71l-1.73-.98M74.14-1.06l-.19.98M66.98-1.23l-.95-1.74M74.02-16.33l-.26 1.39M14.25-29.06l.88-1.78M8.03-27.72l1.98-.19M3.38-28.12l1.39-1.42M12.56-22.96l.44-1.93M7.83-23.98l-1.92-.51M1.49-25.6l-.74-1.84M3.46-22.13l-1.8.84M9.13-19.96l-1.69 1.03M14.8-18.55l-1.73-.97M10.55-15.67l.23-1.22M2.67-18.81l.96 1.74M10.67-32.17l-.27 1.4M30.09-29.06l.87-1.78M23.87-27.72l1.98-.19M19.22-28.12l1.39-1.42M28.4-22.96l.44-1.93M23.67-23.98l-1.92-.51M17.33-25.6l-.74-1.84M19.3-22.13l-1.8.84M24.97-19.96l-1.7 1.03M30.64-18.55l-1.73-.97M26.39-15.67l.23-1.22M18.51-18.81l.96 1.74M26.51-32.17l-.27 1.4M45.93-29.06l.87-1.78M39.71-27.72l1.98-.19M35.06-28.12l1.39-1.42M44.24-22.96l.44-1.93M39.51-23.98l-1.92-.51M33.17-25.6l-.74-1.84M35.14-22.13l-1.8.84M40.81-19.96l-1.7 1.03M46.48-18.55l-1.74-.97M42.23-15.67l.23-1.22M34.35-18.81l.96 1.74M42.35-32.17l-.27 1.4M61.77-29.06l.87-1.78M55.55-27.72l1.97-.19M50.9-28.12l1.39-1.42M60.08-22.96l.44-1.93M55.35-23.98l-1.92-.51M49.01-25.6l-.74-1.84M50.98-22.13l-1.8.84M56.65-19.96l-1.7 1.03M62.31-18.55l-1.73-.97M58.07-15.67l.23-1.22M50.19-18.81l.96 1.74M58.19-32.17l-.27 1.4M77.61-29.06l.87-1.78M71.39-27.72l1.97-.19M66.74-28.12l1.38-1.42M75.91-22.96l.45-1.93M71.19-23.98l-1.92-.51M64.85-25.6l-.74-1.84M66.82-22.13l-1.8.84M72.49-19.96l-1.7 1.03M78.15-18.55l-1.73-.97M73.91-15.67l.23-1.22M66.03-18.81l.95 1.74M74.02-32.17l-.26 1.4M14.25-44.9l.88-1.78M8.03-43.56l1.98-.19M3.38-43.95l1.39-1.43M12.56-38.8l.44-1.93M7.83-39.82l-1.92-.51" style="fill-rule:evenodd;clip-rule:evenodd;fill:none;stroke:#fff;stroke-width:.9"/><path d="m1.49-41.44-.74-1.84" style="fill:none;stroke:#fff;stroke-width:.9"/><path d="m3.46-37.97-1.8.84M9.13-35.8l-1.69 1.03M14.8-34.39l-1.73-.97M10.55-31.51l.23-1.22M2.67-34.65l.96 1.74M10.67-48.01l-.27 1.4M30.09-44.9l.87-1.78M23.87-43.56l1.98-.19M19.22-43.95l1.39-1.43M28.4-38.8l.44-1.93M23.67-39.82l-1.92-.51M17.33-41.44l-.74-1.84M19.3-37.97l-1.8.84M24.97-35.8l-1.7 1.03M30.64-34.39l-1.73-.97M26.39-31.51l.23-1.22M18.51-34.65l.96 1.74M26.51-48.01l-.27 1.4M45.93-44.9l.87-1.78M39.71-43.56l1.98-.19M35.06-43.95l1.39-1.43M44.24-38.8l.44-1.93M39.51-39.82l-1.92-.51M33.17-41.44l-.74-1.84M35.14-37.97l-1.8.84M40.81-35.8l-1.7 1.03M46.48-34.39l-1.74-.97M42.23-31.51l.23-1.22M34.35-34.65l.96 1.74M42.35-48.01l-.27 1.4M61.77-44.9l.87-1.78M55.55-43.56l1.97-.19M50.9-43.95l1.39-1.43M60.08-38.8l.44-1.93M55.35-39.82l-1.92-.51M49.01-41.44l-.74-1.84M50.98-37.97l-1.8.84M56.65-35.8l-1.7 1.03M62.31-34.39l-1.73-.97M58.07-31.51l.23-1.22M50.19-34.65l.96 1.74M58.19-48.01l-.27 1.4M77.61-44.9l.87-1.78M71.39-43.56l1.97-.19M66.74-43.95l1.38-1.43M75.91-38.8l.45-1.93M71.19-39.82l-1.92-.51M64.85-41.44l-.74-1.84M66.82-37.97l-1.8.84M72.49-35.8l-1.7 1.03M78.15-34.39l-1.73-.97M73.91-31.51l.23-1.22M66.03-34.65l.95 1.74M74.02-48.01l-.26 1.4M14.25-60.74l.88-1.78M8.03-59.4l1.98-.19M3.38-59.79l1.39-1.43M12.56-54.64l.44-1.93M7.83-55.66l-1.92-.51M1.49-57.27l-.74-1.85M3.46-53.81l-1.8.84M9.13-51.64l-1.69 1.03M14.8-50.23l-1.73-.97M10.55-47.35l.23-1.22M2.67-50.49l.96 1.74M10.4-62.45l.27-1.4M30.09-60.74l.87-1.78M23.87-59.4l1.98-.19M19.22-59.79l1.39-1.43M28.4-54.64l.44-1.93M23.67-55.66l-1.92-.51M17.33-57.27l-.74-1.85M19.3-53.81l-1.8.84M24.97-51.64l-1.7 1.03M30.64-50.23l-1.73-.97M26.39-47.35l.23-1.22M18.51-50.49l.96 1.74M26.24-62.45l.27-1.4M45.93-60.74l.87-1.78M39.71-59.4l1.98-.19M35.06-59.79l1.39-1.43M44.24-54.64l.44-1.93M39.51-55.66l-1.92-.51M33.17-57.27l-.74-1.85M35.14-53.81l-1.8.84M40.81-51.64l-1.7 1.03M46.48-50.23l-1.74-.97M42.23-47.35l.23-1.22M34.35-50.49l.96 1.74M42.08-62.45l.27-1.4M61.77-60.74l.87-1.78M55.55-59.4l1.97-.19M50.9-59.79l1.39-1.43M60.08-54.64l.44-1.93M55.35-55.66l-1.92-.51M49.01-57.27l-.74-1.85M50.98-53.81l-1.8.84M56.65-51.64l-1.7 1.03M62.31-50.23l-1.73-.97M58.07-47.35l.23-1.22M50.19-50.49l.96 1.74M57.92-62.45l.27-1.4M77.61-60.74l.87-1.78M71.39-59.4l1.97-.19M66.74-59.79l1.38-1.43M75.91-54.64l.45-1.93M71.19-55.66l-1.92-.51M64.85-57.27l-.74-1.85M66.82-53.81l-1.8.84M72.49-51.64l-1.7 1.03M78.15-50.23l-1.73-.97M73.91-47.35l.23-1.22M66.03-50.49l.95 1.74M73.76-62.45l.26-1.4M14.25-76.58l.88-1.78M8.03-75.24l1.98-.19M3.38-75.63l1.39-1.43M12.56-70.47l.44-1.94M5.91-72.01l1.92.51M.75-74.95l.74 1.84M3.46-69.65l-1.8.84M9.13-67.48l-1.69 1.03M14.8-66.07l-1.73-.97M10.55-63.19l.23-1.22M2.67-66.33l.96 1.74M10.6-79.33l-.2 1.04M30.09-76.58l.87-1.78M23.87-75.24l1.98-.19M19.22-75.63l1.39-1.43M28.4-70.47l.44-1.94M21.75-72.01l1.92.51M16.59-74.95l.74 1.84M19.3-69.65l-1.8.84M24.97-67.48l-1.7 1.03M30.64-66.07l-1.73-.97M26.39-63.19l.23-1.22M18.51-66.33l.96 1.74M26.44-79.33l-.2 1.04M45.93-76.58l.87-1.78M39.71-75.24l1.98-.19M35.06-75.63l1.39-1.43M44.24-70.47l.44-1.94M37.59-72.01l1.92.51M32.43-74.95l.74 1.84M35.14-69.65l-1.8.84M40.81-67.48l-1.7 1.03M46.48-66.07l-1.74-.97M42.23-63.19l.23-1.22M34.35-66.33l.96 1.74M42.28-79.33l-.2 1.04M61.77-76.58l.87-1.78M55.55-75.24l1.97-.19M50.9-75.63l1.39-1.43M60.08-70.47l.44-1.94M53.43-72.01l1.92.51M48.27-74.95l.74 1.84M50.98-69.65l-1.8.84M56.65-67.48l-1.7 1.03M62.31-66.07l-1.73-.97M58.07-63.19l.23-1.22M50.19-66.33l.96 1.74M58.12-79.33l-.2 1.04M77.61-76.58l.87-1.78M71.39-75.24l1.97-.19M66.74-75.63l1.38-1.43M75.91-70.47l.45-1.94M69.27-72.01l1.92.51M64.11-74.95l.74 1.84M66.82-69.65l-1.8.84M72.49-67.48l-1.7 1.03M78.15-66.07l-1.73-.97M73.91-63.19l.23-1.22M66.03-66.33l.95 1.74M73.96-79.33l-.2 1.04" style="fill-rule:evenodd;clip-rule:evenodd;fill:none;stroke:#fff;stroke-width:.9"/></svg>