<svg xmlns="http://www.w3.org/2000/svg" xml:space="preserve" width="79.25" height="79.25" viewBox="1.85 -81.85 79.25 79.25"><path d="M1.85-81.85H81.1V-2.6H1.85z" style="fill:none"/><path d="m16.1-15.74.88-1.78M9.88-14.4l1.98-.19M5.23-14.79l1.39-1.43M14.85-11.57l-.44 1.94M9.68-10.66l-1.92-.51M3.34-12.27l-.74-1.85M5.31-8.81l-1.8.84M10.98-6.64 9.29-5.61M16.65-5.23l-1.73-.97M12.63-3.57l-.18.97M5.48-3.75l-.96-1.74M12.52-18.85l-.27 1.4M31.94-15.74l.87-1.78M25.72-14.4l1.98-.19M21.07-14.79l1.39-1.43M30.69-11.57l-.44 1.94M25.52-10.66l-1.92-.51M19.18-12.27l-.74-1.85M21.15-8.81l-1.8.84M26.82-6.64l-1.69 1.03M32.49-5.23l-1.73-.97M28.54-3.57l-.18.97M21.32-3.75l-.96-1.74M28.36-18.85l-.27 1.4M47.78-15.74l.87-1.78M41.56-14.4l1.98-.19M36.91-14.79l1.39-1.43M46.53-11.57l-.44 1.94M41.36-10.66l-1.92-.51M35.02-12.27l-.74-1.85M36.99-8.81l-1.8.84M42.66-6.64l-1.7 1.03M48.33-5.23l-1.74-.97M44.31-3.57l-.18.97M37.16-3.75l-.96-1.74M44.2-18.85l-.27 1.4M63.62-15.74l.87-1.78M57.4-14.4l1.98-.19M52.75-14.79l1.39-1.43M62.37-11.57l-.45 1.94M57.2-10.66l-1.92-.51M50.86-12.27l-.74-1.85M52.83-8.81l-1.8.84M58.5-6.64l-1.7 1.03M64.17-5.23l-1.74-.97M60.15-3.57l-.19.97M53-3.75l-.96-1.74M60.04-18.85l-.27 1.4M79.46-15.74l.87-1.78M73.24-14.4l1.97-.19M68.59-14.79l1.38-1.43M78.21-11.57l-.45 1.94M73.04-10.66l-1.92-.51M66.7-12.27l-.74-1.85M68.67-8.81l-1.8.84M74.34-6.64l-1.7 1.03M80-5.23l-1.73-.97M75.99-3.57l-.19.97M68.83-3.75l-.95-1.74M75.87-18.85l-.26 1.4M16.1-31.58l.88-1.78M9.88-30.24l1.98-.19M5.23-30.63l1.39-1.43M14.41-25.47l.44-1.94M9.68-26.5l-1.92-.51M3.34-28.11l-.74-1.84M5.31-24.65l-1.8.84M10.98-22.48l-1.69 1.03M16.65-21.07l-1.73-.97M12.4-18.19l.23-1.22M4.52-21.33l.96 1.74M12.52-34.69l-.27 1.4M31.94-31.58l.87-1.78M25.72-30.24l1.98-.19M21.07-30.63l1.39-1.43M30.25-25.47l.44-1.94M25.52-26.5l-1.92-.51M19.18-28.11l-.74-1.84M21.15-24.65l-1.8.84M26.82-22.48l-1.69 1.03M32.49-21.07l-1.73-.97M28.24-18.19l.23-1.22M20.36-21.33l.96 1.74M28.36-34.69l-.27 1.4M47.78-31.58l.87-1.78M41.56-30.24l1.98-.19M36.91-30.63l1.39-1.43M46.09-25.47l.44-1.94M41.36-26.5l-1.92-.51M35.02-28.11l-.74-1.84M36.99-24.65l-1.8.84M42.66-22.48l-1.7 1.03M48.33-21.07l-1.74-.97M44.08-18.19l.23-1.22M36.2-21.33l.96 1.74M44.2-34.69l-.27 1.4M63.62-31.58l.87-1.78M57.4-30.24l1.98-.19M52.75-30.63l1.39-1.43M61.92-25.47l.45-1.94M57.2-26.5l-1.92-.51M50.86-28.11l-.74-1.84M52.83-24.65l-1.8.84M58.5-22.48l-1.7 1.03M64.17-21.07l-1.74-.97M59.92-18.19l.23-1.22M52.04-21.33l.96 1.74M60.04-34.69l-.27 1.4M79.46-31.58l.87-1.78M73.24-30.24l1.97-.19M68.59-30.63l1.38-1.43M77.76-25.47l.45-1.94M73.04-26.5l-1.92-.51M66.7-28.11l-.74-1.84M68.67-24.65l-1.8.84M74.34-22.48l-1.7 1.03M80-21.07l-1.73-.97M75.76-18.19l.23-1.22M67.88-21.33l.95 1.74M75.87-34.69l-.26 1.4M16.1-47.42l.88-1.78M9.88-46.08l1.98-.19M5.23-46.47l1.39-1.43M14.41-41.31l.44-1.94M9.68-42.34l-1.92-.51" style="fill-rule:evenodd;clip-rule:evenodd;fill:none;stroke:#000;stroke-width:.8"/><path d="m3.34-43.95-.74-1.84" style="fill:none;stroke:#000;stroke-width:.8"/><path d="m5.31-40.49-1.8.84M10.98-38.32l-1.69 1.03M16.65-36.9l-1.73-.98M12.4-34.03l.23-1.22M4.52-37.17l.96 1.74M12.52-50.53l-.27 1.4M31.94-47.42l.87-1.78M25.72-46.08l1.98-.19M21.07-46.47l1.39-1.43M30.25-41.31l.44-1.94M25.52-42.34l-1.92-.51M19.18-43.95l-.74-1.84M21.15-40.49l-1.8.84M26.82-38.32l-1.69 1.03M32.49-36.9l-1.73-.98M28.24-34.03l.23-1.22M20.36-37.17l.96 1.74M28.36-50.53l-.27 1.4M47.78-47.42l.87-1.78M41.56-46.08l1.98-.19M36.91-46.47l1.39-1.43M46.09-41.31l.44-1.94M41.36-42.34l-1.92-.51M35.02-43.95l-.74-1.84M36.99-40.49l-1.8.84M42.66-38.32l-1.7 1.03M48.33-36.9l-1.74-.98M44.08-34.03l.23-1.22M36.2-37.17l.96 1.74M44.2-50.53l-.27 1.4M63.62-47.42l.87-1.78M57.4-46.08l1.98-.19M52.75-46.47l1.39-1.43M61.92-41.31l.45-1.94M57.2-42.34l-1.92-.51M50.86-43.95l-.74-1.84M52.83-40.49l-1.8.84M58.5-38.32l-1.7 1.03M64.17-36.9l-1.74-.98M59.92-34.03l.23-1.22M52.04-37.17l.96 1.74M60.04-50.53l-.27 1.4M79.46-47.42l.87-1.78M73.24-46.08l1.97-.19M68.59-46.47l1.38-1.43M77.76-41.31l.45-1.94M73.04-42.34l-1.92-.51M66.7-43.95l-.74-1.84M68.67-40.49l-1.8.84M74.34-38.32l-1.7 1.03M80-36.9l-1.73-.98M75.76-34.03l.23-1.22M67.88-37.17l.95 1.74M75.87-50.53l-.26 1.4M16.1-63.26l.88-1.78M9.88-61.92l1.98-.18M5.23-62.31l1.39-1.42M14.41-57.15l.44-1.94M9.68-58.18l-1.92-.51M3.34-59.79l-.74-1.84M5.31-56.33l-1.8.85M10.98-54.16l-1.69 1.03M16.65-52.74l-1.73-.98M12.4-49.87l.23-1.22M4.52-53.01l.96 1.74M12.25-64.97l.27-1.4M31.94-63.26l.87-1.78M25.72-61.92l1.98-.18M21.07-62.31l1.39-1.42M30.25-57.15l.44-1.94M25.52-58.18l-1.92-.51M19.18-59.79l-.74-1.84M21.15-56.33l-1.8.85M26.82-54.16l-1.69 1.03M32.49-52.74l-1.73-.98M28.24-49.87l.23-1.22M20.36-53.01l.96 1.74M28.09-64.97l.27-1.4M47.78-63.26l.87-1.78M41.56-61.92l1.98-.18M36.91-62.31l1.39-1.42M46.09-57.15l.44-1.94M41.36-58.18l-1.92-.51M35.02-59.79l-.74-1.84M36.99-56.33l-1.8.85M42.66-54.16l-1.7 1.03M48.33-52.74l-1.74-.98M44.08-49.87l.23-1.22M36.2-53.01l.96 1.74M43.93-64.97l.27-1.4M63.62-63.26l.87-1.78M57.4-61.92l1.98-.18M52.75-62.31l1.39-1.42M61.92-57.15l.45-1.94M57.2-58.18l-1.92-.51M50.86-59.79l-.74-1.84M52.83-56.33l-1.8.85M58.5-54.16l-1.7 1.03M64.17-52.74l-1.74-.98M59.92-49.87l.23-1.22M52.04-53.01l.96 1.74M59.77-64.97l.27-1.4M79.46-63.26l.87-1.78M73.24-61.92l1.97-.18M68.59-62.31l1.38-1.42M77.76-57.15l.45-1.94M73.04-58.18l-1.92-.51M66.7-59.79l-.74-1.84M68.67-56.33l-1.8.85M74.34-54.16l-1.7 1.03M80-52.74l-1.73-.98M75.76-49.87l.23-1.22M67.88-53.01l.95 1.74M75.61-64.97l.26-1.4M16.1-79.09l.88-1.79M9.88-77.75l1.98-.19M5.23-78.15l1.39-1.42M14.41-72.99l.44-1.94M7.76-74.53l1.92.51M2.6-77.47l.74 1.84M5.31-72.16l-1.8.84M10.98-70l-1.69 1.03M16.65-68.58l-1.73-.98M12.4-65.71l.23-1.22M4.52-68.84l.96 1.74M12.45-81.85l-.2 1.04M31.94-79.09l.87-1.79M25.72-77.75l1.98-.19M21.07-78.15l1.39-1.42M30.25-72.99l.44-1.94M23.6-74.53l1.92.51M18.44-77.47l.74 1.84M21.15-72.16l-1.8.84M26.82-70l-1.69 1.03M32.49-68.58l-1.73-.98M28.24-65.71l.23-1.22M20.36-68.84l.96 1.74M28.29-81.85l-.2 1.04M47.78-79.09l.87-1.79M41.56-77.75l1.98-.19M36.91-78.15l1.39-1.42M46.09-72.99l.44-1.94M39.44-74.53l1.92.51M34.28-77.47l.74 1.84M36.99-72.16l-1.8.84M42.66-70l-1.7 1.03M48.33-68.58l-1.74-.98M44.08-65.71l.23-1.22M36.2-68.84l.96 1.74M44.13-81.85l-.2 1.04M63.62-79.09l.87-1.79M57.4-77.75l1.98-.19M52.75-78.15l1.39-1.42M61.92-72.99l.45-1.94M55.28-74.53l1.92.51M50.12-77.47l.74 1.84M52.83-72.16l-1.8.84M58.5-70l-1.7 1.03M64.17-68.58l-1.74-.98M59.92-65.71l.23-1.22M52.04-68.84 53-67.1M59.97-81.85l-.2 1.04M79.46-79.09l.87-1.79M73.24-77.75l1.97-.19M68.59-78.15l1.38-1.42M77.76-72.99l.45-1.94M71.12-74.53l1.92.51M65.96-77.47l.74 1.84M68.67-72.16l-1.8.84M74.34-70l-1.7 1.03M80-68.58l-1.73-.98M75.76-65.71l.23-1.22M67.88-68.84l.95 1.74M75.81-81.85l-.2 1.04" style="fill-rule:evenodd;clip-rule:evenodd;fill:none;stroke:#000;stroke-width:.8"/></svg>