<?xml version="1.0" encoding="utf-8"?>
<svg version="1.1" xmlns="http://www.w3.org/2000/svg" x="0px" y="0px" xml:space="preserve" width="25.035" height="25.035" viewBox="3.8 -28.835 25.035 25.035">
	<g>
		<rect x="3.8" y="-28.835" style="fill:none;" width="25.035" height="25.035"/>
		<rect x="3.8" y="-28.835" width="25.035" height="25.035"/>

			<line style="fill:none;stroke:#FFFFFF;stroke-width:1.4;stroke-linecap:round;" x1="5.336" y1="-15.925" x2="5.641" y2="-17.523"/>

			<line style="fill:none;stroke:#FFFFFF;stroke-width:1.4;stroke-linecap:round;" x1="9.825" y1="-28.835" x2="9.282" y2="-27.728"/>
		<line style="fill:none;stroke:#FFFFFF;stroke-width:1.4;stroke-linecap:round;" x1="5.228" y1="-26.528" x2="3.8" y2="-26.393"/>

			<line style="fill:none;stroke:#FFFFFF;stroke-width:1.4;stroke-linecap:round;" x1="6.501" y1="-22.461" x2="5.929" y2="-24.047"/>
		<line style="fill:none;stroke:#FFFFFF;stroke-width:1.4;stroke-linecap:round;" x1="3.8" y1="-19.661" x2="4.425" y2="-19.961"/>
		<line style="fill:none;stroke:#FFFFFF;stroke-width:1.4;stroke-linecap:round;" x1="7.352" y1="-20.483" x2="9" y2="-19.555"/>

			<line style="fill:none;stroke:#FFFFFF;stroke-width:1.4;stroke-linecap:round;" x1="5.336" y1="-28.523" x2="5.396" y2="-28.835"/>

			<line style="fill:none;stroke:#FFFFFF;stroke-width:1.4;stroke-linecap:round;" x1="12.003" y1="-26.553" x2="13.534" y2="-27.498"/>

			<line style="fill:none;stroke:#FFFFFF;stroke-width:1.4;stroke-linecap:round;" x1="13.833" y1="-23.828" x2="15.661" y2="-23.341"/>

			<line style="fill:none;stroke:#FFFFFF;stroke-width:1.4;stroke-linecap:round;" x1="9.09" y1="-24.711" x2="10.887" y2="-23.767"/>

			<line style="fill:none;stroke:#FFFFFF;stroke-width:1.4;stroke-linecap:round;" x1="12.607" y1="-21.699" x2="10.893" y2="-20.899"/>

			<line style="fill:none;stroke:#FFFFFF;stroke-width:1.4;stroke-linecap:round;" x1="13.029" y1="-16.896" x2="11.699" y2="-18.241"/>

			<line style="fill:none;stroke:#FFFFFF;stroke-width:1.4;stroke-linecap:round;" x1="8.296" y1="-16.768" x2="8.998" y2="-14.882"/>

			<line style="fill:none;stroke:#FFFFFF;stroke-width:1.4;stroke-linecap:round;" x1="15.85" y1="-26.349" x2="17.734" y2="-26.528"/>

			<line style="fill:none;stroke:#FFFFFF;stroke-width:1.4;stroke-linecap:round;" x1="16.363" y1="-20.528" x2="14.998" y2="-19.874"/>

			<line style="fill:none;stroke:#FFFFFF;stroke-width:1.4;stroke-linecap:round;" x1="22.591" y1="-28.835" x2="22.048" y2="-27.728"/>

			<line style="fill:none;stroke:#FFFFFF;stroke-width:1.4;stroke-linecap:round;" x1="18.695" y1="-24.047" x2="19.267" y2="-22.461"/>

			<line style="fill:none;stroke:#FFFFFF;stroke-width:1.4;stroke-linecap:round;" x1="21.483" y1="-18.987" x2="19.834" y2="-19.916"/>

			<line style="fill:none;stroke:#FFFFFF;stroke-width:1.4;stroke-linecap:round;" x1="17.878" y1="-28.835" x2="17.819" y2="-28.523"/>

			<line style="fill:none;stroke:#FFFFFF;stroke-width:1.4;stroke-linecap:round;" x1="24.769" y1="-26.553" x2="26.3" y2="-27.498"/>

			<line style="fill:none;stroke:#FFFFFF;stroke-width:1.4;stroke-linecap:round;" x1="26.031" y1="-23.828" x2="27.86" y2="-23.341"/>

			<line style="fill:none;stroke:#FFFFFF;stroke-width:1.4;stroke-linecap:round;" x1="21.339" y1="-25.246" x2="22.519" y2="-23.767"/>

			<line style="fill:none;stroke:#FFFFFF;stroke-width:1.4;stroke-linecap:round;" x1="25.09" y1="-21.983" x2="23.375" y2="-21.183"/>

			<line style="fill:none;stroke:#FFFFFF;stroke-width:1.4;stroke-linecap:round;" x1="25.852" y1="-17.633" x2="24.521" y2="-18.979"/>
		<line style="fill:none;stroke:#FFFFFF;stroke-width:1.4;stroke-linecap:round;" x1="20.97" y1="-14.994" x2="22.424" y2="-16.2"/>

			<line style="fill:none;stroke:#FFFFFF;stroke-width:1.4;stroke-linecap:round;" x1="28.835" y1="-26.396" x2="28.333" y2="-26.349"/>

			<line style="fill:none;stroke:#FFFFFF;stroke-width:1.4;stroke-linecap:round;" x1="28.048" y1="-19.307" x2="28.835" y2="-19.684"/>
		<line style="fill:none;stroke:#FFFFFF;stroke-width:1.4;stroke-linecap:round;" x1="5.641" y1="-4.928" x2="5.426" y2="-3.8"/>
		<line style="fill:none;stroke:#FFFFFF;stroke-width:1.4;stroke-linecap:round;" x1="5.228" y1="-13.932" x2="3.8" y2="-13.796"/>
		<line style="fill:none;stroke:#FFFFFF;stroke-width:1.4;stroke-linecap:round;" x1="6.785" y1="-9.865" x2="6.212" y2="-11.451"/>
		<line style="fill:none;stroke:#FFFFFF;stroke-width:1.4;stroke-linecap:round;" x1="4.425" y1="-7.365" x2="3.8" y2="-7.065"/>
		<line style="fill:none;stroke:#FFFFFF;stroke-width:1.4;stroke-linecap:round;" x1="9" y1="-6.675" x2="7.352" y2="-7.603"/>

			<line style="fill:none;stroke:#FFFFFF;stroke-width:1.4;stroke-linecap:round;" x1="5.336" y1="-15.928" x2="5.641" y2="-17.526"/>

			<line style="fill:none;stroke:#FFFFFF;stroke-width:1.4;stroke-linecap:round;" x1="12.287" y1="-13.957" x2="13.818" y2="-14.902"/>

			<line style="fill:none;stroke:#FFFFFF;stroke-width:1.4;stroke-linecap:round;" x1="15.661" y1="-10.744" x2="13.833" y2="-11.232"/>

			<line style="fill:none;stroke:#FFFFFF;stroke-width:1.4;stroke-linecap:round;" x1="9.204" y1="-10.867" x2="10.339" y2="-12.456"/>

			<line style="fill:none;stroke:#FFFFFF;stroke-width:1.4;stroke-linecap:round;" x1="12.607" y1="-9.388" x2="10.893" y2="-8.587"/>

			<line style="fill:none;stroke:#FFFFFF;stroke-width:1.4;stroke-linecap:round;" x1="13.369" y1="-5.321" x2="12.039" y2="-6.667"/>
		<line style="fill:none;stroke:#FFFFFF;stroke-width:1.4;stroke-linecap:round;" x1="10.115" y1="-4.325" x2="9.857" y2="-3.8"/>

			<line style="fill:none;stroke:#FFFFFF;stroke-width:1.4;stroke-linecap:round;" x1="15.85" y1="-13.753" x2="17.734" y2="-13.932"/>

			<line style="fill:none;stroke:#FFFFFF;stroke-width:1.4;stroke-linecap:round;" x1="16.931" y1="-7.365" x2="15.565" y2="-6.711"/>
		<line style="fill:none;stroke:#FFFFFF;stroke-width:1.4;stroke-linecap:round;" x1="18.124" y1="-4.928" x2="17.909" y2="-3.8"/>

			<line style="fill:none;stroke:#FFFFFF;stroke-width:1.4;stroke-linecap:round;" x1="19.267" y1="-9.865" x2="18.695" y2="-11.451"/>
		<line style="fill:none;stroke:#FFFFFF;stroke-width:1.4;stroke-linecap:round;" x1="21.483" y1="-6.392" x2="19.834" y2="-7.32"/>

			<line style="fill:none;stroke:#FFFFFF;stroke-width:1.4;stroke-linecap:round;" x1="17.592" y1="-16.382" x2="17.896" y2="-17.98"/>

			<line style="fill:none;stroke:#FFFFFF;stroke-width:1.4;stroke-linecap:round;" x1="24.769" y1="-13.957" x2="26.3" y2="-14.902"/>

			<line style="fill:none;stroke:#FFFFFF;stroke-width:1.4;stroke-linecap:round;" x1="28.144" y1="-10.744" x2="26.315" y2="-11.232"/>

			<line style="fill:none;stroke:#FFFFFF;stroke-width:1.4;stroke-linecap:round;" x1="22.19" y1="-12.65" x2="21.913" y2="-10.867"/>
		<line style="fill:none;stroke:#FFFFFF;stroke-width:1.4;stroke-linecap:round;" x1="25.09" y1="-9.388" x2="23.375" y2="-8.587"/>

			<line style="fill:none;stroke:#FFFFFF;stroke-width:1.4;stroke-linecap:round;" x1="25.852" y1="-5.321" x2="24.521" y2="-6.667"/>
		<line style="fill:none;stroke:#FFFFFF;stroke-width:1.4;stroke-linecap:round;" x1="22.881" y1="-4.325" x2="22.624" y2="-3.8"/>

			<line style="fill:none;stroke:#FFFFFF;stroke-width:1.4;stroke-linecap:round;" x1="28.333" y1="-13.753" x2="28.835" y2="-13.801"/>

			<line style="fill:none;stroke:#FFFFFF;stroke-width:1.4;stroke-linecap:round;" x1="28.835" y1="-7.088" x2="28.048" y2="-6.711"/>
	</g>
</svg>
