<svg xmlns="http://www.w3.org/2000/svg" xmlns:xlink="http://www.w3.org/1999/xlink" width="25.04" height="25.04"><defs><path id="a" d="M0 0h25.04v25.04H0z"/></defs><clipPath id="b"><use xlink:href="#a" overflow="visible"/></clipPath><path fill="none" stroke="#000" stroke-linecap="round" stroke-width="1.15" d="m1.54 12.9.3-1.6M6.03 0l-.55 1.1M1.43 2.3 0 2.45m2.7 3.92L2.13 4.8M0 9.17l.63-.3m2.92-.52 1.65.93M1.54.3 1.6 0m6.6 2.28 1.53-.94m.3 3.66 1.83.5M5.3 4.12l1.8.95m1.7 2.07-1.7.8m2.13 4L7.9 10.6m-3.4 1.47.7 1.88M12.05 2.5l1.88-.2m-1.37 6-1.36.66M18.8 0l-.55 1.1M14.9 4.8l.57 1.57m2.21 3.48-1.65-.93M14.08 0l-.06.3m6.95 1.98 1.53-.94M22.23 5l1.83.5m-6.52-1.9 1.18 1.47m2.58 1.78-1.73.8m2.48 3.55-1.33-1.34m-3.55 3.98 1.45-1.2m6.42-10.2-.5.05m-.29 7.04.8-.38M1.84 23.9l-.2 1.14M1.43 14.9 0 15.04m2.98 3.93-.57-1.6m-1.78 4.1-.63.3m5.2.39-1.65-.93M1.54 12.9l.3-1.6m6.66 3.58 1.52-.95m1.84 4.17-1.83-.5m-4.63.37 1.14-1.6m2.26 3.08-1.7.8m2.47 3.25-1.33-1.33M6.32 24.5l-.26.54m5.99-9.96 1.88-.18m-.8 6.57-1.36.65m2.55 1.78-.2 1.14m1.35-6.07-.58-1.6m2.79 5.07-1.65-.93m-2.23-9.06.3-1.6m6.87 4.03 1.53-.95m1.84 4.17-1.82-.5m-4.12-1.42-.3 1.8m3.2 1.47-1.73.8m2.48 3.25-1.33-1.33m-1.64 2.33-.26.54m5.71-9.96.5-.05m.01 6.72-.8.37" clip-path="url(#b)"/></svg>