<?xml version="1.0" encoding="utf-8"?>
<svg xmlns="http://www.w3.org/2000/svg" version="1.1" x="0px" y="0px" xml:space="preserve" width="25.035" height="25.035" viewBox="0.7 -25.735 25.035 25.035">
	<g>
		<rect x="0.7" y="-25.735" style="fill:none;" width="25.035" height="25.035"/>

			<line style="fill:none;stroke:#EC008C;stroke-width:1.4;stroke-linecap:round;" x1="2.237" y1="-12.825" x2="2.542" y2="-14.424"/>

			<line style="fill:none;stroke:#EC008C;stroke-width:1.4;stroke-linecap:round;" x1="6.725" y1="-25.735" x2="6.183" y2="-24.628"/>
		<line style="fill:none;stroke:#EC008C;stroke-width:1.4;stroke-linecap:round;" x1="2.129" y1="-23.429" x2="0.7" y2="-23.293"/>

			<line style="fill:none;stroke:#EC008C;stroke-width:1.4;stroke-linecap:round;" x1="3.401" y1="-19.361" x2="2.829" y2="-20.947"/>
		<line style="fill:none;stroke:#EC008C;stroke-width:1.4;stroke-linecap:round;" x1="0.7" y1="-16.562" x2="1.326" y2="-16.861"/>

			<line style="fill:none;stroke:#EC008C;stroke-width:1.4;stroke-linecap:round;" x1="4.252" y1="-17.384" x2="5.901" y2="-16.455"/>

			<line style="fill:none;stroke:#EC008C;stroke-width:1.4;stroke-linecap:round;" x1="2.237" y1="-25.424" x2="2.296" y2="-25.735"/>

			<line style="fill:none;stroke:#EC008C;stroke-width:1.4;stroke-linecap:round;" x1="8.903" y1="-23.453" x2="10.435" y2="-24.398"/>

			<line style="fill:none;stroke:#EC008C;stroke-width:1.4;stroke-linecap:round;" x1="10.733" y1="-20.729" x2="12.561" y2="-20.241"/>

			<line style="fill:none;stroke:#EC008C;stroke-width:1.4;stroke-linecap:round;" x1="5.991" y1="-21.611" x2="7.788" y2="-20.667"/>
		<line style="fill:none;stroke:#EC008C;stroke-width:1.4;stroke-linecap:round;" x1="9.508" y1="-18.6" x2="7.793" y2="-17.8"/>

			<line style="fill:none;stroke:#EC008C;stroke-width:1.4;stroke-linecap:round;" x1="9.929" y1="-13.796" x2="8.599" y2="-15.142"/>

			<line style="fill:none;stroke:#EC008C;stroke-width:1.4;stroke-linecap:round;" x1="5.196" y1="-13.668" x2="5.899" y2="-11.782"/>

			<line style="fill:none;stroke:#EC008C;stroke-width:1.4;stroke-linecap:round;" x1="12.75" y1="-23.249" x2="14.635" y2="-23.429"/>

			<line style="fill:none;stroke:#EC008C;stroke-width:1.4;stroke-linecap:round;" x1="13.264" y1="-17.429" x2="11.898" y2="-16.774"/>

			<line style="fill:none;stroke:#EC008C;stroke-width:1.4;stroke-linecap:round;" x1="19.491" y1="-25.735" x2="18.949" y2="-24.628"/>

			<line style="fill:none;stroke:#EC008C;stroke-width:1.4;stroke-linecap:round;" x1="15.595" y1="-20.947" x2="16.167" y2="-19.361"/>

			<line style="fill:none;stroke:#EC008C;stroke-width:1.4;stroke-linecap:round;" x1="18.383" y1="-15.888" x2="16.734" y2="-16.816"/>

			<line style="fill:none;stroke:#EC008C;stroke-width:1.4;stroke-linecap:round;" x1="14.779" y1="-25.735" x2="14.719" y2="-25.424"/>

			<line style="fill:none;stroke:#EC008C;stroke-width:1.4;stroke-linecap:round;" x1="21.669" y1="-23.453" x2="23.201" y2="-24.398"/>

			<line style="fill:none;stroke:#EC008C;stroke-width:1.4;stroke-linecap:round;" x1="22.932" y1="-20.729" x2="24.76" y2="-20.241"/>

			<line style="fill:none;stroke:#EC008C;stroke-width:1.4;stroke-linecap:round;" x1="18.239" y1="-22.146" x2="19.419" y2="-20.667"/>

			<line style="fill:none;stroke:#EC008C;stroke-width:1.4;stroke-linecap:round;" x1="21.99" y1="-18.884" x2="20.275" y2="-18.083"/>

			<line style="fill:none;stroke:#EC008C;stroke-width:1.4;stroke-linecap:round;" x1="22.752" y1="-14.533" x2="21.422" y2="-15.879"/>

			<line style="fill:none;stroke:#EC008C;stroke-width:1.4;stroke-linecap:round;" x1="17.871" y1="-11.894" x2="19.324" y2="-13.101"/>

			<line style="fill:none;stroke:#EC008C;stroke-width:1.4;stroke-linecap:round;" x1="25.735" y1="-23.297" x2="25.233" y2="-23.249"/>

			<line style="fill:none;stroke:#EC008C;stroke-width:1.4;stroke-linecap:round;" x1="24.948" y1="-16.207" x2="25.735" y2="-16.584"/>
		<line style="fill:none;stroke:#EC008C;stroke-width:1.4;stroke-linecap:round;" x1="2.542" y1="-1.828" x2="2.327" y2="-0.7"/>
		<line style="fill:none;stroke:#EC008C;stroke-width:1.4;stroke-linecap:round;" x1="2.129" y1="-10.832" x2="0.7" y2="-10.696"/>
		<line style="fill:none;stroke:#EC008C;stroke-width:1.4;stroke-linecap:round;" x1="3.685" y1="-6.766" x2="3.113" y2="-8.352"/>
		<line style="fill:none;stroke:#EC008C;stroke-width:1.4;stroke-linecap:round;" x1="1.326" y1="-4.266" x2="0.7" y2="-3.966"/>
		<line style="fill:none;stroke:#EC008C;stroke-width:1.4;stroke-linecap:round;" x1="5.901" y1="-3.575" x2="4.252" y2="-4.504"/>

			<line style="fill:none;stroke:#EC008C;stroke-width:1.4;stroke-linecap:round;" x1="2.237" y1="-12.828" x2="2.542" y2="-14.427"/>

			<line style="fill:none;stroke:#EC008C;stroke-width:1.4;stroke-linecap:round;" x1="9.187" y1="-10.857" x2="10.718" y2="-11.803"/>

			<line style="fill:none;stroke:#EC008C;stroke-width:1.4;stroke-linecap:round;" x1="12.561" y1="-7.644" x2="10.733" y2="-8.133"/>
		<line style="fill:none;stroke:#EC008C;stroke-width:1.4;stroke-linecap:round;" x1="6.104" y1="-7.768" x2="7.239" y2="-9.356"/>
		<line style="fill:none;stroke:#EC008C;stroke-width:1.4;stroke-linecap:round;" x1="9.508" y1="-6.288" x2="7.793" y2="-5.487"/>
		<line style="fill:none;stroke:#EC008C;stroke-width:1.4;stroke-linecap:round;" x1="10.269" y1="-2.222" x2="8.939" y2="-3.567"/>
		<line style="fill:none;stroke:#EC008C;stroke-width:1.4;stroke-linecap:round;" x1="7.015" y1="-1.226" x2="6.758" y2="-0.7"/>

			<line style="fill:none;stroke:#EC008C;stroke-width:1.4;stroke-linecap:round;" x1="12.75" y1="-10.653" x2="14.635" y2="-10.832"/>

			<line style="fill:none;stroke:#EC008C;stroke-width:1.4;stroke-linecap:round;" x1="13.831" y1="-4.266" x2="12.466" y2="-3.611"/>
		<line style="fill:none;stroke:#EC008C;stroke-width:1.4;stroke-linecap:round;" x1="15.024" y1="-1.828" x2="14.809" y2="-0.7"/>

			<line style="fill:none;stroke:#EC008C;stroke-width:1.4;stroke-linecap:round;" x1="16.167" y1="-6.766" x2="15.595" y2="-8.352"/>

			<line style="fill:none;stroke:#EC008C;stroke-width:1.4;stroke-linecap:round;" x1="18.383" y1="-3.292" x2="16.734" y2="-4.221"/>

			<line style="fill:none;stroke:#EC008C;stroke-width:1.4;stroke-linecap:round;" x1="14.492" y1="-13.282" x2="14.797" y2="-14.881"/>

			<line style="fill:none;stroke:#EC008C;stroke-width:1.4;stroke-linecap:round;" x1="21.669" y1="-10.857" x2="23.201" y2="-11.803"/>

			<line style="fill:none;stroke:#EC008C;stroke-width:1.4;stroke-linecap:round;" x1="25.044" y1="-7.644" x2="23.215" y2="-8.133"/>
		<line style="fill:none;stroke:#EC008C;stroke-width:1.4;stroke-linecap:round;" x1="19.09" y1="-9.551" x2="18.813" y2="-7.768"/>
		<line style="fill:none;stroke:#EC008C;stroke-width:1.4;stroke-linecap:round;" x1="21.99" y1="-6.288" x2="20.275" y2="-5.487"/>

			<line style="fill:none;stroke:#EC008C;stroke-width:1.4;stroke-linecap:round;" x1="22.752" y1="-2.222" x2="21.422" y2="-3.567"/>
		<line style="fill:none;stroke:#EC008C;stroke-width:1.4;stroke-linecap:round;" x1="19.781" y1="-1.226" x2="19.524" y2="-0.7"/>

			<line style="fill:none;stroke:#EC008C;stroke-width:1.4;stroke-linecap:round;" x1="25.233" y1="-10.653" x2="25.735" y2="-10.701"/>

			<line style="fill:none;stroke:#EC008C;stroke-width:1.4;stroke-linecap:round;" x1="25.735" y1="-3.988" x2="24.948" y2="-3.611"/>
	</g>
</svg>
