<svg xmlns="http://www.w3.org/2000/svg" xml:space="preserve" width="70.06" height="70.06" viewBox="0.38 -70.47 70.06 70.06"><path d="M.38-70.47h70.06V-.41H.38z" style="fill:none"/><path d="M.38-70.47h70.06V-.41H.38z"/><path d="m1.74-53.73 2.84-1.86M6.9-55.17l-1.99-2.17M8.1-59.93l-2.6 1.3M8.1-63.36l-1.9 2.4M4.98-59.53l-2.06-1.79M2.1-58.68.72-61.43M10.18-55.87l-3.16-1.29M2.85-56.31l.61-2.93M1.74-62.51l2.89-1.77M19.07-55.87l-3.16-1.29M19.07-64.65l-3.16-1.29M6.9-63.95l-1.99-2.17M8.1-68.7l-2.6 1.29M4.98-68.3l-2.06-1.79M2.15-67.26.77-70.01M10.18-64.65l-3.16-1.29M2.85-65.09l.61-2.93M10.35-53.73l2.84-1.86M15.51-55.17l-1.99-2.17M16.71-59.93l-2.6 1.3M16.71-63.36l-1.9 2.4M13.59-59.53l-2.06-1.79M10.42-58.73l-1.38-2.75M11.46-56.31l.6-2.93M10.35-62.51l2.83-1.87M15.51-63.95l-1.99-2.17M16.71-68.7l-2.6 1.29M13.59-68.3l-2.06-1.79M8.95-70.01l1.38 2.75M11.46-65.09l.6-2.93M19.25-53.73l2.84-1.86M24.42-55.17l-1.99-2.17M25.62-59.93l-2.6 1.3M25.62-63.36l-1.9 2.4M22.5-59.53l-2.07-1.79M19.33-58.73l-1.38-2.75M27.7-55.87l-3.16-1.29M20.36-56.31l.61-2.93M19.25-62.51l2.89-1.77M36.59-55.87l-3.16-1.29M36.59-64.65l-3.16-1.29M24.42-63.95l-1.99-2.17M25.62-68.7l-2.6 1.29M22.5-68.3l-2.07-1.79M19.23-67.26l-1.38-2.75M27.7-64.65l-3.16-1.29M20.36-65.09l.61-2.93M27.86-53.73l2.84-1.86M33.03-55.17l-1.99-2.17M34.23-59.93l-2.6 1.3M34.23-63.36l-1.9 2.4M31.11-59.53l-2.07-1.79M27.94-58.73l-1.38-2.75M28.97-56.31l.61-2.93M27.86-62.51l2.83-1.87M33.03-63.95l-1.99-2.17M34.23-68.7l-2.6 1.29M31.11-68.3l-2.07-1.79M26.51-70.06l1.38 2.75M28.97-65.09l.61-2.93M36.77-53.73l2.84-1.86M41.93-55.17l-1.99-2.17M43.13-59.93l-2.6 1.3M43.13-63.36l-1.9 2.4M40.01-59.53l-2.06-1.79M36.84-58.73l-1.38-2.75M45.21-55.87l-3.16-1.29M37.88-56.31l.6-2.93M36.77-62.51l2.89-1.77M54.1-55.87l-3.16-1.29M54.1-64.65l-3.16-1.29M41.93-63.95l-1.99-2.17M43.13-68.7l-2.6 1.29M40.01-68.3l-2.06-1.79M36.84-67.36l-1.38-2.75M45.21-64.65l-3.16-1.29M37.88-65.09l.6-2.93M45.38-53.73l2.84-1.86M50.54-55.17l-1.99-2.17M51.74-59.93l-2.6 1.3M51.74-63.36l-1.9 2.4M48.62-59.53l-2.07-1.79M45.45-58.73l-1.38-2.75M46.49-56.31l.6-2.93M45.38-62.51l2.83-1.87M50.54-63.95l-1.99-2.17M51.74-68.7l-2.6 1.29M48.67-68.3l-2.07-1.79M44.07-70.11l1.38 2.75M46.49-65.09l.6-2.93M54.28-53.73l2.84-1.86M59.45-55.17l-1.99-2.17M60.65-59.93l-2.6 1.3M60.65-63.36l-1.9 2.4M57.53-59.53l-2.07-1.79M54.36-58.73l-1.38-2.75M62.73-55.87l-3.16-1.29M55.39-56.31l.61-2.93M54.28-62.51l2.89-1.77M59.45-63.95l-1.99-2.17M60.65-68.7l-2.6 1.29M57.53-68.3l-2.07-1.79M54.36-67.26l-1.38-2.75M62.73-64.65l-3.16-1.29M55.39-65.09l.61-2.93M62.89-53.73l2.84-1.86M68.06-55.17l-1.99-2.17M69.46-60.03l-2.59 1.29M69.46-63.46l-1.89 2.4M66.14-59.53l-2.07-1.79M62.97-58.73l-1.38-2.75M64-56.31l.61-2.93M62.89-62.51l2.83-1.87M68.06-63.95l-1.99-2.17M69.44-68.78l-2.59 1.29M66.14-68.3l-2.07-1.79M61.59-70.06l1.38 2.75M64-65.09l.61-2.93M1.74-36.22l2.84-1.85M6.9-37.66l-1.99-2.17M8.1-42.41l-2.6 1.29M8.1-45.84l-1.9 2.4M4.98-42.01 2.92-43.8M2.15-40.97.77-43.72M10.18-38.36l-3.16-1.29M2.85-38.8l.61-2.93M1.74-44.99l2.89-1.78M19.07-38.36l-3.16-1.29M19.07-47.13l-3.16-1.29M6.9-46.43 4.91-48.6M8.1-51.19 5.5-49.9M8.1-54.62l-1.9 2.4M4.98-50.79l-2.06-1.79M2.25-49.75.86-52.49M10.18-47.13l-3.16-1.29M2.85-47.57l.61-2.93M10.35-36.22l2.84-1.86M15.51-37.66l-1.99-2.17M16.71-42.41l-2.6 1.29M16.71-45.84l-1.9 2.4M13.59-42.01l-2.06-1.79M10.42-41.21l-1.38-2.75M11.46-38.8l.6-2.93M10.35-44.99l2.83-1.88M15.51-46.43l-1.99-2.17M16.71-51.19l-2.6 1.29M16.71-54.62l-1.9 2.4M13.59-50.79l-2.06-1.79M9.04-52.73l1.38 2.74M11.46-47.57l.6-2.93M19.25-36.22l2.84-1.85M24.42-37.66l-1.99-2.17M25.62-42.41l-2.6 1.29M25.62-45.84l-1.9 2.4M22.5-42.01l-2.07-1.79M19.33-41.21l-1.38-2.75M27.7-38.36l-3.16-1.29M20.36-38.8l.61-2.93M19.25-44.99l2.89-1.78M36.59-38.36l-3.16-1.29M36.59-47.13l-3.16-1.29M24.42-46.43l-1.99-2.17M25.62-51.19l-2.6 1.29M25.62-54.62l-1.9 2.4M22.5-50.79l-2.07-1.79M19.33-49.99l-1.38-2.74M27.7-47.13l-3.16-1.29M20.36-47.57l.61-2.93M27.86-36.22l2.84-1.86M33.03-37.66l-1.99-2.17M34.23-42.41l-2.6 1.29M34.23-45.84l-1.9 2.4M31.11-42.01l-2.07-1.79M27.94-41.21l-1.38-2.75M28.97-38.8l.61-2.93M27.86-44.99l2.83-1.88M33.03-46.43l-1.99-2.17M34.23-51.19l-2.6 1.29M34.23-54.62l-1.9 2.4M31.11-50.79l-2.07-1.79M26.56-52.73l1.38 2.74M28.97-47.57l.61-2.93M36.77-36.22l2.84-1.85M41.93-37.66l-1.99-2.17M43.13-42.41l-2.6 1.29M43.13-45.84l-1.9 2.4M40.01-42.01l-2.06-1.79M36.84-41.21l-1.38-2.75M45.21-38.36l-3.16-1.29M37.88-38.8l.6-2.93M36.77-44.99l2.89-1.78M54.1-38.36l-3.16-1.29M54.1-47.13l-3.16-1.29M41.93-46.43l-1.99-2.17M43.13-51.19l-2.6 1.29M43.13-54.62l-1.9 2.4M40.01-50.79l-2.06-1.79M36.84-49.99l-1.38-2.74M45.21-47.13l-3.16-1.29M37.88-47.57l.6-2.93M45.38-36.22l2.84-1.86M50.54-37.66l-1.99-2.17M51.74-42.41l-2.6 1.29M51.74-45.84l-1.9 2.4M48.62-42.01l-2.07-1.79M45.45-41.21l-1.38-2.75M46.49-38.8l.6-2.93M45.38-44.99l2.83-1.88M50.54-46.43l-1.99-2.17M51.74-51.19l-2.6 1.29M51.74-54.62l-1.9 2.4M48.62-50.79l-2.07-1.79M44.07-52.73l1.38 2.74M46.49-47.57l.6-2.93M54.28-36.22l2.84-1.85M59.45-37.66l-1.99-2.17M60.65-42.41l-2.6 1.29M60.65-45.84l-1.9 2.4M57.53-42.01l-2.07-1.79M54.36-41.21l-1.38-2.75M62.73-38.36l-3.16-1.29M55.39-38.8l.61-2.93M54.28-44.99l2.89-1.78M59.45-46.43l-1.99-2.17M60.65-51.19l-2.6 1.29M60.65-54.62l-1.9 2.4M57.53-50.79l-2.07-1.79M54.36-49.99l-1.38-2.74M62.73-47.13l-3.16-1.29M55.39-47.57 56-50.5M62.89-36.22l2.84-1.86M68.06-37.66l-1.99-2.17M69.46-42.52l-2.59 1.29M69.46-45.95l-1.89 2.4M66.14-42.01l-2.07-1.79M62.97-41.21l-1.38-2.75M64-38.8l.61-2.93M62.89-44.99l2.83-1.88M68.06-46.43l-1.99-2.17M69.46-51.29 66.87-50M69.46-54.72l-1.89 2.4M66.14-50.79l-2.07-1.79M61.59-52.73l1.38 2.74M64-47.57l.61-2.93M1.74-18.7l2.84-1.86M6.9-20.14l-1.99-2.18M8.1-24.9l-2.6 1.29M8.1-28.33l-1.9 2.4M4.98-24.5l-2.06-1.79M2.15-23.6.77-26.35M10.18-20.84l-3.16-1.29M2.85-21.28l.61-2.93M1.74-27.48l2.89-1.77M19.07-20.84l-3.16-1.29M19.07-29.62l-3.16-1.29M6.9-28.92l-1.99-2.17M8.1-33.67l-2.6 1.29M8.1-37.1l-1.9 2.4M4.98-33.27l-2.06-1.79M2.15-32.42.77-35.17M10.18-29.62l-3.16-1.29M2.85-30.06l.61-2.93M10.35-18.7l2.84-1.86M15.51-20.14l-1.99-2.18M16.71-24.9l-2.6 1.29M16.71-28.33l-1.9 2.4M13.59-24.5l-2.06-1.79M10.42-23.7l-1.38-2.74M11.46-21.28l.6-2.93M10.35-27.48l2.83-1.87M15.51-28.92l-1.99-2.17M16.71-33.67l-2.6 1.29M16.71-37.1l-1.9 2.4M13.59-33.27l-2.06-1.79M9.04-35.22l1.38 2.75M11.46-30.06l.6-2.93M19.25-18.7l2.84-1.86M24.42-20.14l-1.99-2.18M25.62-24.9l-2.6 1.29M25.62-28.33l-1.9 2.4M22.5-24.5l-2.07-1.79M19.33-23.7l-1.38-2.74M27.7-20.84l-3.16-1.29M20.36-21.28l.61-2.93M19.25-27.48l2.89-1.77M36.59-20.84l-3.16-1.29M36.59-29.62l-3.16-1.29M24.42-28.92l-1.99-2.17M25.62-33.67l-2.6 1.29M25.62-37.1l-1.9 2.4M22.5-33.27l-2.07-1.79M19.33-32.47l-1.38-2.75M27.7-29.62l-3.16-1.29M20.36-30.06l.61-2.93M27.86-18.7l2.84-1.86M33.03-20.14l-1.99-2.18M34.23-24.9l-2.6 1.29M34.23-28.33l-1.9 2.4M31.11-24.5l-2.07-1.79M27.94-23.7l-1.38-2.74M28.97-21.28l.61-2.93M27.86-27.48l2.83-1.87M33.03-28.92l-1.99-2.17M34.23-33.67l-2.6 1.29M34.23-37.1l-1.9 2.4M31.11-33.27l-2.07-1.79M26.56-35.22l1.38 2.75M28.97-30.06l.61-2.93M36.77-18.7l2.84-1.86M41.93-20.14l-1.99-2.18M43.13-24.9l-2.6 1.29M43.13-28.33l-1.9 2.4M40.01-24.5l-2.06-1.79M36.84-23.7l-1.38-2.74M45.21-20.84l-3.16-1.29M37.88-21.28l.6-2.93M36.77-27.48l2.89-1.77M54.1-20.84l-3.16-1.29M54.1-29.62l-3.16-1.29M41.93-28.92l-1.99-2.17M43.13-33.67l-2.6 1.29M43.13-37.1l-1.9 2.4M40.01-33.27l-2.06-1.79M36.84-32.47l-1.38-2.75M45.21-29.62l-3.16-1.29M37.88-30.06l.6-2.93M45.38-18.7l2.84-1.86M50.54-20.14l-1.99-2.18M51.74-24.9l-2.6 1.29M51.74-28.33l-1.9 2.4M48.62-24.5l-2.07-1.79M45.45-23.7l-1.38-2.74M46.49-21.28l.6-2.93M45.38-27.48l2.83-1.87M50.54-28.92l-1.99-2.17M51.74-33.67l-2.6 1.29M51.74-37.1l-1.9 2.4M48.62-33.27l-2.07-1.79M44.07-35.22l1.38 2.75M46.49-30.06l.6-2.93M54.28-18.7l2.84-1.86M59.45-20.14l-1.99-2.18M60.65-24.9l-2.6 1.29M60.65-28.33l-1.9 2.4M57.53-24.5l-2.07-1.79M54.36-23.7l-1.38-2.74M62.73-20.84l-3.16-1.29M55.39-21.28l.61-2.93M54.28-27.48l2.89-1.77M59.45-28.92l-1.99-2.17M60.65-33.67l-2.6 1.29M60.65-37.1l-1.9 2.4M57.53-33.27l-2.07-1.79M54.36-32.47l-1.38-2.75M62.73-29.62l-3.16-1.29M55.39-30.06l.61-2.93M62.89-18.7l2.84-1.86M68.06-20.14l-1.99-2.18M69.46-25l-2.59 1.29M69.46-28.43l-1.89 2.4M66.14-24.5l-2.07-1.79M62.97-23.7l-1.38-2.74M64-21.28l.61-2.93M62.89-27.48l2.83-1.87M68.06-28.92l-1.99-2.17M69.46-33.77l-2.59 1.29M69.46-37.21l-1.89 2.4M66.14-33.27l-2.07-1.79M61.59-35.22l1.38 2.75M64-30.06l.61-2.93M1.74-1.19l2.84-1.85M6.9-2.63 4.91-4.8M8.1-7.38 5.5-6.09M8.1-10.81l-1.9 2.4M4.98-6.98 2.92-8.77M2.15-5.94.77-8.69M10.18-3.33 7.02-4.62M2.85-3.77l.61-2.93M1.74-9.96l2.89-1.78M19.07-3.33l-3.16-1.29M19.07-12.1l-3.16-1.29M6.9-11.4l-1.99-2.17M8.1-16.16l-2.6 1.29M8.1-19.59l-1.9 2.4M4.98-15.76l-2.06-1.79M2.2-14.67.82-17.42M10.18-12.1l-3.16-1.29M2.85-12.54l.61-2.93M10.35-1.19l2.84-1.85M15.51-2.63 13.52-4.8M16.71-7.38l-2.6 1.29M16.71-10.81l-1.9 2.4M13.71-7.29l-2.07-1.79M10.42-6.18 9.04-8.93M11.46-3.77l.6-2.93M10.35-9.96l2.83-1.88M15.51-11.4l-1.99-2.17M16.71-16.16l-2.6 1.29M16.71-19.59l-1.9 2.4M13.59-15.76l-2.06-1.79M9.04-17.7l1.38 2.74M11.46-12.54l.6-2.93M19.25-1.19l2.84-1.85M24.42-2.63 22.43-4.8M25.62-7.38l-2.6 1.29M25.62-10.81l-1.9 2.4M22.5-6.98l-2.07-1.79M19.33-6.18l-1.38-2.75M27.7-3.33l-3.16-1.29M20.36-3.77l.61-2.93M19.25-9.96l2.89-1.78M36.59-3.33l-3.16-1.29M36.59-12.1l-3.16-1.29M24.42-11.4l-1.99-2.17M25.62-16.16l-2.6 1.29M25.62-19.59l-1.9 2.4M22.5-15.76l-2.07-1.79M19.33-14.96l-1.38-2.74M27.7-12.1l-3.16-1.29M20.36-12.54l.61-2.93M27.86-1.19l2.84-1.85M33.03-2.63 31.04-4.8M34.23-7.38l-2.6 1.29M34.23-10.81l-1.9 2.4M31.11-6.98l-2.07-1.79M27.94-6.18l-1.38-2.75M28.97-3.77l.61-2.93M27.86-9.96l2.83-1.88M33.03-11.4l-1.99-2.17M34.23-16.16l-2.6 1.29M34.23-19.59l-1.9 2.4M31.11-15.76l-2.07-1.79M26.56-17.7l1.38 2.74M28.97-12.54l.61-2.93M36.77-1.19l2.84-1.85M41.93-2.63 39.94-4.8M43.13-7.38l-2.6 1.29M43.13-10.81l-1.9 2.4M40.01-6.98l-2.06-1.79M36.84-6.18l-1.38-2.75M45.21-3.33l-3.16-1.29M37.88-3.77l.6-2.93M36.77-9.96l2.89-1.78M54.1-3.33l-3.16-1.29M54.1-12.1l-3.16-1.29M41.93-11.4l-1.99-2.17M43.13-16.16l-2.6 1.29M43.13-19.59l-1.9 2.4M40.01-15.76l-2.06-1.79M36.84-14.96l-1.38-2.74M45.21-12.1l-3.16-1.29M37.88-12.54l.6-2.93M45.38-1.19l2.84-1.85M50.54-2.63 48.55-4.8M51.74-7.38l-2.6 1.29M51.74-10.81l-1.9 2.4M48.62-6.98l-2.07-1.79M45.45-6.18l-1.38-2.75M46.49-3.77l.6-2.93M45.38-9.96l2.83-1.88M50.54-11.4l-1.99-2.17M51.74-16.16l-2.6 1.29M51.74-19.59l-1.9 2.4M48.62-15.76l-2.07-1.79M44.07-17.7l1.38 2.74M46.49-12.54l.6-2.93M54.28-1.19l2.84-1.85M59.45-2.63 57.46-4.8M60.65-7.38l-2.6 1.29M60.65-10.81l-1.9 2.4M57.53-6.98l-2.07-1.79M54.36-6.18l-1.38-2.75M62.73-3.33l-3.16-1.29M55.39-3.77 56-6.7M54.28-9.96l2.89-1.78M59.45-11.4l-1.99-2.17M60.65-16.16l-2.6 1.29M60.65-19.59l-1.9 2.4M57.53-15.76l-2.07-1.79M54.36-14.96l-1.38-2.74M62.73-12.1l-3.16-1.29M55.39-12.54l.61-2.93M62.89-1.19l2.84-1.85M68.06-2.63 66.07-4.8M69.46-7.49l-2.59 1.3M69.46-10.92l-1.89 2.4M66.14-6.98l-2.07-1.79M62.97-6.18l-1.38-2.75M64-3.77l.61-2.93M62.89-9.96l2.83-1.88M68.06-11.4l-1.99-2.17M69.46-16.26l-2.59 1.29M69.46-19.69l-1.89 2.4M66.14-15.76l-2.07-1.79M61.59-17.7l1.38 2.74M64-12.54l.61-2.93" style="fill:none;stroke:#fff;stroke-width:.58;stroke-linecap:square;stroke-linejoin:bevel"/><path d="m.38-56.35 1.18.48M.38-65.13l1.18.48M6.79-70.47l-.59.74M15.39-70.47l-.58.74M24.3-70.47l-.58.74M32.91-70.47l-.58.74M41.81-70.47l-.58.74M50.42-70.47l-.58.74M68.46-57.16l1.98.81M70.44-65.13l-1.98-.81M59.33-70.47l-.58.74M67.94-70.47l-.58.74M.38-38.84l1.18.48M1.56-47.13l-1.18-.48M68.46-39.65l1.98.81M70.44-47.61l-1.98-.81M.38-21.32l1.18.48M1.56-29.62.38-30.1M68.46-22.13l1.98.81M70.44-30.1l-1.98-.81M.38-3.81l1.18.48M1.56-12.1l-1.18-.48M68.46-4.62l1.98.81M68.46-13.39l1.98.81M8.1-2.07 6.79-.41M16.71-2.07 15.39-.41M25.62-2.07 24.3-.41M34.23-2.07 32.91-.41M43.13-2.07 41.81-.41M51.74-2.07 50.42-.41M60.65-2.07 59.33-.41M69.25-2.07 67.94-.41" style="fill-rule:evenodd;clip-rule:evenodd;fill:none;stroke:#fff;stroke-width:.58;stroke-linecap:square;stroke-linejoin:bevel"/></svg>