<?xml version="1.0" encoding="utf-8"?>
<svg version="1.1" xmlns="http://www.w3.org/2000/svg" x="0px" y="0px" xml:space="preserve" width="22.497" height="22.498" viewBox="0.16 -22.678 22.497 22.498">
	<g>
		<rect x="0.16" y="-22.678" style="fill:none;" width="22.497" height="22.498"/>
		<rect x="0.16" y="-22.678" width="22.497" height="22.498"/>
		<line style="fill:none;stroke:#FFFFFF;stroke-width:0.58;" x1="1.966" y1="-0.867" x2="5.677" y2="-3.296"/>
		<line style="fill:none;stroke:#FFFFFF;stroke-width:0.58;" x1="1.728" y1="-3.666" x2="0.16" y2="-4.307"/>
		<line style="fill:none;stroke:#FFFFFF;stroke-width:0.58;" x1="8.715" y1="-2.753" x2="6.115" y2="-5.592"/>
		<line style="fill:none;stroke:#FFFFFF;stroke-width:0.58;" x1="6.889" y1="-7.279" x2="10.283" y2="-8.966"/>
		<line style="fill:none;stroke:#FFFFFF;stroke-width:0.58;" x1="10.283" y1="-13.451" x2="7.802" y2="-10.315"/>
		<line style="fill:none;stroke:#FFFFFF;stroke-width:0.58;" x1="3.653" y1="-11.189" x2="6.352" y2="-8.847"/>
		<line style="fill:none;stroke:#FFFFFF;stroke-width:0.58;" x1="2.065" y1="-7.398" x2="0.259" y2="-10.99"/>
		<line style="fill:none;stroke:#FFFFFF;stroke-width:0.58;" x1="8.873" y1="-5.353" x2="13.002" y2="-3.666"/>
		<line style="fill:none;stroke:#FFFFFF;stroke-width:0.58;" x1="4.209" y1="-8.072" x2="3.415" y2="-4.242"/>
		<line style="fill:none;stroke:#FFFFFF;stroke-width:0.58;" x1="5.743" y1="-14.662" x2="1.966" y2="-12.338"/>
		<line style="fill:none;stroke:#FFFFFF;stroke-width:0.58;" x1="0.16" y1="-15.777" x2="1.728" y2="-15.137"/>
		<line style="fill:none;stroke:#FFFFFF;stroke-width:0.58;" x1="6.115" y1="-17.062" x2="8.715" y2="-14.224"/>
		<line style="fill:none;stroke:#FFFFFF;stroke-width:0.58;" x1="10.283" y1="-20.435" x2="6.889" y2="-18.749"/>
		<line style="fill:none;stroke:#FFFFFF;stroke-width:0.58;" x1="8.507" y1="-22.678" x2="7.802" y2="-21.785"/>
		<line style="fill:none;stroke:#FFFFFF;stroke-width:0.58;" x1="3.653" y1="-22.659" x2="6.352" y2="-20.316"/>
		<line style="fill:none;stroke:#FFFFFF;stroke-width:0.58;" x1="2.065" y1="-18.868" x2="0.259" y2="-22.461"/>
		<line style="fill:none;stroke:#FFFFFF;stroke-width:0.58;" x1="13.002" y1="-15.137" x2="8.873" y2="-16.824"/>
		<line style="fill:none;stroke:#FFFFFF;stroke-width:0.58;" x1="4.209" y1="-19.543" x2="3.415" y2="-15.713"/>
		<line style="fill:none;stroke:#FFFFFF;stroke-width:0.58;" x1="16.93" y1="-3.298" x2="13.22" y2="-0.867"/>
		<line style="fill:none;stroke:#FFFFFF;stroke-width:0.58;" x1="19.968" y1="-2.753" x2="17.368" y2="-5.592"/>
		<line style="fill:none;stroke:#FFFFFF;stroke-width:0.58;" x1="18.143" y1="-7.279" x2="21.537" y2="-8.966"/>
		<line style="fill:none;stroke:#FFFFFF;stroke-width:0.58;" x1="21.537" y1="-13.451" x2="19.056" y2="-10.315"/>
		<line style="fill:none;stroke:#FFFFFF;stroke-width:0.58;" x1="14.907" y1="-11.189" x2="17.606" y2="-8.847"/>
		<line style="fill:none;stroke:#FFFFFF;stroke-width:0.58;" x1="11.513" y1="-10.99" x2="13.319" y2="-7.398"/>
		<line style="fill:none;stroke:#FFFFFF;stroke-width:0.58;" x1="22.657" y1="-4.32" x2="20.127" y2="-5.353"/>
		<line style="fill:none;stroke:#FFFFFF;stroke-width:0.58;" x1="15.463" y1="-8.072" x2="14.669" y2="-4.242"/>
		<line style="fill:none;stroke:#FFFFFF;stroke-width:0.58;" x1="16.917" y1="-14.788" x2="13.22" y2="-12.338"/>
		<line style="fill:none;stroke:#FFFFFF;stroke-width:0.58;" x1="19.968" y1="-14.224" x2="17.368" y2="-17.062"/>
		<line style="fill:none;stroke:#FFFFFF;stroke-width:0.58;" x1="18.143" y1="-18.749" x2="21.537" y2="-20.435"/>
		<line style="fill:none;stroke:#FFFFFF;stroke-width:0.58;" x1="19.056" y1="-21.785" x2="19.761" y2="-22.678"/>
		<line style="fill:none;stroke:#FFFFFF;stroke-width:0.58;" x1="10.283" y1="-2.458" x2="8.481" y2="-0.18"/>
		<line style="fill:none;stroke:#FFFFFF;stroke-width:0.58;" x1="21.537" y1="-2.458" x2="19.735" y2="-0.18"/>
		<line style="fill:none;stroke:#FFFFFF;stroke-width:0.58;" x1="14.907" y1="-22.659" x2="17.606" y2="-20.316"/>
		<line style="fill:none;stroke:#FFFFFF;stroke-width:0.58;" x1="11.513" y1="-22.461" x2="13.319" y2="-18.868"/>
		<line style="fill:none;stroke:#FFFFFF;stroke-width:0.58;" x1="20.127" y1="-16.824" x2="22.657" y2="-15.79"/>
		<line style="fill:none;stroke:#FFFFFF;stroke-width:0.58;" x1="15.463" y1="-19.543" x2="14.669" y2="-15.713"/>
	</g>
</svg>
