<?xml version="1.0" encoding="utf-8"?>
<svg version="1.1" xmlns="http://www.w3.org/2000/svg" x="0px" y="0px" xml:space="preserve" width="22.497" height="22.496" viewBox="0.16 -22.676 22.497 22.496">
	<g>
		<rect x="0.16" y="-22.676" style="fill:none;" width="22.497" height="22.496"/>
		<line style="fill:none;stroke:#00AEEF;stroke-width:0.58;" x1="1.966" y1="-0.867" x2="5.677" y2="-3.295"/>
		<line style="fill:none;stroke:#00AEEF;stroke-width:0.58;" x1="1.728" y1="-3.666" x2="0.16" y2="-4.307"/>
		<line style="fill:none;stroke:#00AEEF;stroke-width:0.58;" x1="8.715" y1="-2.752" x2="6.115" y2="-5.59"/>
		<line style="fill:none;stroke:#00AEEF;stroke-width:0.58;" x1="6.889" y1="-7.277" x2="10.283" y2="-8.965"/>
		<line style="fill:none;stroke:#00AEEF;stroke-width:0.58;" x1="10.283" y1="-13.45" x2="7.802" y2="-10.314"/>
		<line style="fill:none;stroke:#00AEEF;stroke-width:0.58;" x1="3.653" y1="-11.188" x2="6.352" y2="-8.846"/>
		<line style="fill:none;stroke:#00AEEF;stroke-width:0.58;" x1="2.065" y1="-7.397" x2="0.259" y2="-10.989"/>
		<line style="fill:none;stroke:#00AEEF;stroke-width:0.58;" x1="8.873" y1="-5.352" x2="13.002" y2="-3.666"/>
		<line style="fill:none;stroke:#00AEEF;stroke-width:0.58;" x1="4.209" y1="-8.071" x2="3.415" y2="-4.24"/>
		<line style="fill:none;stroke:#00AEEF;stroke-width:0.58;" x1="5.743" y1="-14.662" x2="1.966" y2="-12.337"/>
		<line style="fill:none;stroke:#00AEEF;stroke-width:0.58;" x1="0.16" y1="-15.776" x2="1.728" y2="-15.136"/>
		<line style="fill:none;stroke:#00AEEF;stroke-width:0.58;" x1="6.115" y1="-17.06" x2="8.715" y2="-14.223"/>
		<line style="fill:none;stroke:#00AEEF;stroke-width:0.58;" x1="10.283" y1="-20.435" x2="6.889" y2="-18.748"/>
		<line style="fill:none;stroke:#00AEEF;stroke-width:0.58;" x1="8.507" y1="-22.676" x2="7.802" y2="-21.785"/>
		<line style="fill:none;stroke:#00AEEF;stroke-width:0.58;" x1="3.653" y1="-22.658" x2="6.352" y2="-20.316"/>
		<line style="fill:none;stroke:#00AEEF;stroke-width:0.58;" x1="2.065" y1="-18.867" x2="0.259" y2="-22.459"/>
		<line style="fill:none;stroke:#00AEEF;stroke-width:0.58;" x1="13.002" y1="-15.136" x2="8.873" y2="-16.822"/>
		<line style="fill:none;stroke:#00AEEF;stroke-width:0.58;" x1="4.209" y1="-19.542" x2="3.415" y2="-15.711"/>
		<line style="fill:none;stroke:#00AEEF;stroke-width:0.58;" x1="16.93" y1="-3.297" x2="13.22" y2="-0.867"/>
		<line style="fill:none;stroke:#00AEEF;stroke-width:0.58;" x1="19.968" y1="-2.752" x2="17.368" y2="-5.59"/>
		<line style="fill:none;stroke:#00AEEF;stroke-width:0.58;" x1="18.143" y1="-7.277" x2="21.537" y2="-8.965"/>
		<line style="fill:none;stroke:#00AEEF;stroke-width:0.58;" x1="21.537" y1="-13.45" x2="19.056" y2="-10.314"/>
		<line style="fill:none;stroke:#00AEEF;stroke-width:0.58;" x1="14.907" y1="-11.188" x2="17.606" y2="-8.846"/>
		<line style="fill:none;stroke:#00AEEF;stroke-width:0.58;" x1="11.513" y1="-10.989" x2="13.319" y2="-7.397"/>
		<line style="fill:none;stroke:#00AEEF;stroke-width:0.58;" x1="22.657" y1="-4.318" x2="20.127" y2="-5.352"/>
		<line style="fill:none;stroke:#00AEEF;stroke-width:0.58;" x1="15.463" y1="-8.071" x2="14.669" y2="-4.24"/>
		<line style="fill:none;stroke:#00AEEF;stroke-width:0.58;" x1="16.917" y1="-14.787" x2="13.22" y2="-12.337"/>
		<line style="fill:none;stroke:#00AEEF;stroke-width:0.58;" x1="19.968" y1="-14.223" x2="17.368" y2="-17.06"/>
		<line style="fill:none;stroke:#00AEEF;stroke-width:0.58;" x1="18.143" y1="-18.748" x2="21.537" y2="-20.435"/>
		<line style="fill:none;stroke:#00AEEF;stroke-width:0.58;" x1="19.056" y1="-21.785" x2="19.761" y2="-22.676"/>
		<line style="fill:none;stroke:#00AEEF;stroke-width:0.58;" x1="10.283" y1="-2.457" x2="8.481" y2="-0.18"/>
		<line style="fill:none;stroke:#00AEEF;stroke-width:0.58;" x1="21.537" y1="-2.457" x2="19.735" y2="-0.18"/>
		<line style="fill:none;stroke:#00AEEF;stroke-width:0.58;" x1="14.907" y1="-22.658" x2="17.606" y2="-20.316"/>
		<line style="fill:none;stroke:#00AEEF;stroke-width:0.58;" x1="11.513" y1="-22.459" x2="13.319" y2="-18.867"/>
		<line style="fill:none;stroke:#00AEEF;stroke-width:0.58;" x1="20.127" y1="-16.822" x2="22.657" y2="-15.789"/>
		<line style="fill:none;stroke:#00AEEF;stroke-width:0.58;" x1="15.463" y1="-19.542" x2="14.669" y2="-15.711"/>
	</g>
</svg>
