<?xml version="1.0" encoding="utf-8"?>
<svg version="1.1" xmlns="http://www.w3.org/2000/svg" x="0px" y="0px" xml:space="preserve" width="36.46" height="36.461" viewBox="1.86 -38.321 36.46 36.461">
	<g>
		<rect x="1.86" y="-38.321" style="fill:none;" width="36.46" height="36.461"/>
		<line style="fill:none;stroke:#000000;stroke-width:0.43;" x1="4.773" y1="-3.136" x2="10.761" y2="-7.053"/>
		<line style="fill:none;stroke:#000000;stroke-width:0.43;" x1="15.661" y1="-6.178" x2="11.466" y2="-10.757"/>
		<line style="fill:none;stroke:#000000;stroke-width:0.43;" x1="12.715" y1="-13.479" x2="18.19" y2="-16.2"/>
		<line style="fill:none;stroke:#000000;stroke-width:0.43;" x1="18.19" y1="-23.437" x2="14.188" y2="-18.378"/>
		<line style="fill:none;stroke:#000000;stroke-width:0.43;" x1="7.496" y1="-19.786" x2="11.851" y2="-16.008"/>
		<line style="fill:none;stroke:#000000;stroke-width:0.43;" x1="4.934" y1="-13.67" x2="2.02" y2="-19.466"/>
		<line style="fill:none;stroke:#000000;stroke-width:0.43;" x1="15.917" y1="-10.372" x2="22.578" y2="-7.65"/>
		<line style="fill:none;stroke:#000000;stroke-width:0.43;" x1="8.392" y1="-14.759" x2="7.111" y2="-8.579"/>
		<line style="fill:none;stroke:#000000;stroke-width:0.43;" x1="10.867" y1="-25.392" x2="4.773" y2="-21.641"/>
		<line style="fill:none;stroke:#000000;stroke-width:0.43;" x1="11.466" y1="-29.262" x2="15.661" y2="-24.683"/>
		<line style="fill:none;stroke:#000000;stroke-width:0.43;" x1="18.19" y1="-34.706" x2="12.715" y2="-31.984"/>
		<line style="fill:none;stroke:#000000;stroke-width:0.43;" x1="15.326" y1="-38.321" x2="14.188" y2="-36.883"/>
		<line style="fill:none;stroke:#000000;stroke-width:0.43;" x1="7.496" y1="-38.292" x2="11.851" y2="-34.514"/>
		<line style="fill:none;stroke:#000000;stroke-width:0.43;" x1="4.934" y1="-32.176" x2="2.02" y2="-37.972"/>
		<line style="fill:none;stroke:#000000;stroke-width:0.43;" x1="22.578" y1="-26.156" x2="15.917" y2="-28.878"/>
		<line style="fill:none;stroke:#000000;stroke-width:0.43;" x1="8.392" y1="-33.265" x2="7.111" y2="-27.085"/>
		<line style="fill:none;stroke:#000000;stroke-width:0.43;" x1="28.915" y1="-7.056" x2="22.93" y2="-3.136"/>
		<line style="fill:none;stroke:#000000;stroke-width:0.43;" x1="33.817" y1="-6.178" x2="29.623" y2="-10.757"/>
		<line style="fill:none;stroke:#000000;stroke-width:0.43;" x1="30.871" y1="-13.479" x2="36.347" y2="-16.2"/>
		<line style="fill:none;stroke:#000000;stroke-width:0.43;" x1="36.347" y1="-23.437" x2="32.344" y2="-18.378"/>
		<line style="fill:none;stroke:#000000;stroke-width:0.43;" x1="25.652" y1="-19.786" x2="30.007" y2="-16.008"/>
		<line style="fill:none;stroke:#000000;stroke-width:0.43;" x1="20.176" y1="-19.466" x2="23.09" y2="-13.67"/>
		<line style="fill:none;stroke:#000000;stroke-width:0.43;" x1="26.548" y1="-14.759" x2="25.268" y2="-8.579"/>
		<line style="fill:none;stroke:#000000;stroke-width:0.43;" x1="28.894" y1="-25.594" x2="22.93" y2="-21.641"/>
		<line style="fill:none;stroke:#000000;stroke-width:0.43;" x1="33.817" y1="-24.683" x2="29.623" y2="-29.262"/>
		<line style="fill:none;stroke:#000000;stroke-width:0.43;" x1="32.344" y1="-36.883" x2="33.482" y2="-38.321"/>
		<line style="fill:none;stroke:#000000;stroke-width:0.43;" x1="18.19" y1="-5.511" x2="15.303" y2="-1.86"/>
		<line style="fill:none;stroke:#000000;stroke-width:0.43;" x1="36.347" y1="-5.511" x2="33.459" y2="-1.86"/>
		<line style="fill:none;stroke:#000000;stroke-width:0.43;" x1="25.652" y1="-38.292" x2="30.007" y2="-34.514"/>
		<line style="fill:none;stroke:#000000;stroke-width:0.43;" x1="20.176" y1="-37.972" x2="23.09" y2="-32.176"/>
		<line style="fill:none;stroke:#000000;stroke-width:0.43;" x1="26.548" y1="-33.265" x2="25.268" y2="-27.085"/>
		<line style="fill:none;stroke:#000000;stroke-width:0.43;" x1="30.871" y1="-31.984" x2="36.347" y2="-34.706"/>
		<line style="fill:none;stroke:#000000;stroke-width:0.43;" x1="4.484" y1="-7.65" x2="1.86" y2="-8.723"/>
		<line style="fill:none;stroke:#000000;stroke-width:0.43;" x1="1.86" y1="-27.229" x2="4.484" y2="-26.156"/>
		<line style="fill:none;stroke:#000000;stroke-width:0.43;" x1="38.32" y1="-8.711" x2="34.255" y2="-10.372"/>
		<line style="fill:none;stroke:#000000;stroke-width:0.43;" x1="34.255" y1="-28.878" x2="38.32" y2="-27.217"/>
	</g>
</svg>
