<?xml version="1.0" encoding="utf-8"?>
<svg xmlns="http://www.w3.org/2000/svg" version="1.1" x="0px" y="0px" xml:space="preserve" width="36.46" height="36.461" viewBox="0.11 -36.641 36.46 36.461">
	<g>
		<rect x="0.11" y="-36.641" style="fill:none;" width="36.46" height="36.461"/>
		<rect x="0.11" y="-36.641" width="36.46" height="36.461"/>
		<line style="fill:none;stroke:#FFFFFF;stroke-width:0.58;" x1="3.023" y1="-1.455" x2="9.011" y2="-5.372"/>
		<line style="fill:none;stroke:#FFFFFF;stroke-width:0.58;" x1="13.911" y1="-4.497" x2="9.716" y2="-9.076"/>
		<line style="fill:none;stroke:#FFFFFF;stroke-width:0.58;" x1="10.966" y1="-11.798" x2="16.44" y2="-14.519"/>
		<line style="fill:none;stroke:#FFFFFF;stroke-width:0.58;" x1="16.44" y1="-21.756" x2="12.439" y2="-16.697"/>
		<line style="fill:none;stroke:#FFFFFF;stroke-width:0.58;" x1="5.745" y1="-18.105" x2="10.101" y2="-14.327"/>
		<line style="fill:none;stroke:#FFFFFF;stroke-width:0.58;" x1="3.185" y1="-11.989" x2="0.271" y2="-17.785"/>
		<line style="fill:none;stroke:#FFFFFF;stroke-width:0.58;" x1="14.167" y1="-8.691" x2="20.827" y2="-5.97"/>
		<line style="fill:none;stroke:#FFFFFF;stroke-width:0.58;" x1="6.642" y1="-13.078" x2="5.361" y2="-6.898"/>
		<line style="fill:none;stroke:#FFFFFF;stroke-width:0.58;" x1="9.117" y1="-23.711" x2="3.023" y2="-19.96"/>
		<line style="fill:none;stroke:#FFFFFF;stroke-width:0.58;" x1="9.716" y1="-27.581" x2="13.911" y2="-23.002"/>
		<line style="fill:none;stroke:#FFFFFF;stroke-width:0.58;" x1="16.44" y1="-33.025" x2="10.966" y2="-30.304"/>
		<line style="fill:none;stroke:#FFFFFF;stroke-width:0.58;" x1="13.575" y1="-36.641" x2="12.439" y2="-35.202"/>
		<line style="fill:none;stroke:#FFFFFF;stroke-width:0.58;" x1="5.745" y1="-36.611" x2="10.101" y2="-32.833"/>
		<line style="fill:none;stroke:#FFFFFF;stroke-width:0.58;" x1="3.185" y1="-30.495" x2="0.271" y2="-36.291"/>
		<line style="fill:none;stroke:#FFFFFF;stroke-width:0.58;" x1="20.827" y1="-24.476" x2="14.167" y2="-27.197"/>
		<line style="fill:none;stroke:#FFFFFF;stroke-width:0.58;" x1="6.642" y1="-31.584" x2="5.361" y2="-25.404"/>
		<line style="fill:none;stroke:#FFFFFF;stroke-width:0.58;" x1="27.165" y1="-5.375" x2="21.181" y2="-1.455"/>
		<line style="fill:none;stroke:#FFFFFF;stroke-width:0.58;" x1="32.067" y1="-4.497" x2="27.872" y2="-9.076"/>
		<line style="fill:none;stroke:#FFFFFF;stroke-width:0.58;" x1="29.121" y1="-11.798" x2="34.597" y2="-14.519"/>
		<line style="fill:none;stroke:#FFFFFF;stroke-width:0.58;" x1="34.597" y1="-21.756" x2="30.595" y2="-16.697"/>
		<line style="fill:none;stroke:#FFFFFF;stroke-width:0.58;" x1="23.901" y1="-18.105" x2="28.257" y2="-14.327"/>
		<line style="fill:none;stroke:#FFFFFF;stroke-width:0.58;" x1="18.427" y1="-17.785" x2="21.34" y2="-11.989"/>
		<line style="fill:none;stroke:#FFFFFF;stroke-width:0.58;" x1="24.798" y1="-13.078" x2="23.518" y2="-6.898"/>
		<line style="fill:none;stroke:#FFFFFF;stroke-width:0.58;" x1="27.144" y1="-23.913" x2="21.181" y2="-19.96"/>
		<line style="fill:none;stroke:#FFFFFF;stroke-width:0.58;" x1="32.067" y1="-23.002" x2="27.872" y2="-27.581"/>
		<line style="fill:none;stroke:#FFFFFF;stroke-width:0.58;" x1="30.595" y1="-35.202" x2="31.732" y2="-36.641"/>
		<line style="fill:none;stroke:#FFFFFF;stroke-width:0.58;" x1="16.44" y1="-3.83" x2="13.553" y2="-0.18"/>
		<line style="fill:none;stroke:#FFFFFF;stroke-width:0.58;" x1="34.597" y1="-3.83" x2="31.709" y2="-0.18"/>
		<line style="fill:none;stroke:#FFFFFF;stroke-width:0.58;" x1="23.901" y1="-36.611" x2="28.257" y2="-32.833"/>
		<line style="fill:none;stroke:#FFFFFF;stroke-width:0.58;" x1="18.427" y1="-36.291" x2="21.34" y2="-30.495"/>
		<line style="fill:none;stroke:#FFFFFF;stroke-width:0.58;" x1="24.798" y1="-31.584" x2="23.518" y2="-25.404"/>
		<line style="fill:none;stroke:#FFFFFF;stroke-width:0.58;" x1="29.121" y1="-30.304" x2="34.597" y2="-33.025"/>
		<line style="fill:none;stroke:#FFFFFF;stroke-width:0.58;" x1="2.733" y1="-5.97" x2="0.11" y2="-7.042"/>
		<line style="fill:none;stroke:#FFFFFF;stroke-width:0.58;" x1="0.11" y1="-25.548" x2="2.733" y2="-24.476"/>
		<line style="fill:none;stroke:#FFFFFF;stroke-width:0.58;" x1="36.57" y1="-7.03" x2="32.505" y2="-8.691"/>
		<line style="fill:none;stroke:#FFFFFF;stroke-width:0.58;" x1="32.505" y1="-27.197" x2="36.57" y2="-25.536"/>
	</g>
</svg>
