<?xml version="1.0" encoding="utf-8"?>
<svg xmlns="http://www.w3.org/2000/svg" version="1.1" x="0px" y="0px" xml:space="preserve" width="25.877" height="25.877" viewBox="0.082 -26.01 25.877 25.877">
	<g>
		<rect x="0.082" y="-26.01" style="fill:none;" width="25.877" height="25.877"/>
		<line style="fill:none;stroke:#000000;stroke-width:0.43;" x1="5.859" y1="-3.356" x2="2.776" y2="-1.338"/>
		<line style="fill:none;stroke:#000000;stroke-width:0.43;" x1="0.082" y1="-4.899" x2="1.243" y2="-4.424"/>
		<line style="fill:none;stroke:#000000;stroke-width:0.43;" x1="9.487" y1="-3.573" x2="7.327" y2="-5.931"/>
		<line style="fill:none;stroke:#000000;stroke-width:0.43;" x1="8.387" y1="-8.577" x2="11.208" y2="-9.978"/>
		<line style="fill:none;stroke:#000000;stroke-width:0.43;" x1="9.267" y1="-12.296" x2="11.328" y2="-14.902"/>
		<line style="fill:none;stroke:#000000;stroke-width:0.43;" x1="4.558" y1="-12.41" x2="6.801" y2="-10.463"/>
		<line style="fill:none;stroke:#000000;stroke-width:0.43;" x1="1.987" y1="-9.009" x2="0.486" y2="-11.994"/>
		<line style="fill:none;stroke:#000000;stroke-width:0.43;" x1="10.769" y1="-5.827" x2="14.2" y2="-4.424"/>
		<line style="fill:none;stroke:#000000;stroke-width:0.43;" x1="4.621" y1="-8.605" x2="3.961" y2="-5.422"/>
		<line style="fill:none;stroke:#000000;stroke-width:0.43;" x1="5.887" y1="-16.4" x2="2.749" y2="-14.468"/>
		<line style="fill:none;stroke:#000000;stroke-width:0.43;" x1="1.252" y1="-17.591" x2="0.082" y2="-18.069"/>
		<line style="fill:none;stroke:#000000;stroke-width:0.43;" x1="9.497" y1="-16.75" x2="7.336" y2="-19.107"/>
		<line style="fill:none;stroke:#000000;stroke-width:0.43;" x1="11.18" y1="-23.164" x2="8.36" y2="-21.762"/>
		<line style="fill:none;stroke:#000000;stroke-width:0.43;" x1="4.53" y1="-25.623" x2="6.773" y2="-23.677"/>
		<line style="fill:none;stroke:#000000;stroke-width:0.43;" x1="0.504" y1="-25.152" x2="2.005" y2="-22.167"/>
		<line style="fill:none;stroke:#000000;stroke-width:0.43;" x1="10.751" y1="-19.012" x2="14.181" y2="-17.61"/>
		<line style="fill:none;stroke:#000000;stroke-width:0.43;" x1="4.621" y1="-21.818" x2="3.961" y2="-18.636"/>
		<line style="fill:none;stroke:#000000;stroke-width:0.43;" x1="18.781" y1="-3.339" x2="15.698" y2="-1.32"/>
		<line style="fill:none;stroke:#000000;stroke-width:0.43;" x1="22.446" y1="-3.554" x2="20.286" y2="-5.913"/>
		<line style="fill:none;stroke:#000000;stroke-width:0.43;" x1="21.328" y1="-8.577" x2="24.148" y2="-9.978"/>
		<line style="fill:none;stroke:#000000;stroke-width:0.43;" x1="22.216" y1="-12.305" x2="24.278" y2="-14.911"/>
		<line style="fill:none;stroke:#000000;stroke-width:0.43;" x1="17.48" y1="-12.428" x2="19.723" y2="-10.482"/>
		<line style="fill:none;stroke:#000000;stroke-width:0.43;" x1="13.417" y1="-12.003" x2="14.918" y2="-9.018"/>
		<line style="fill:none;stroke:#000000;stroke-width:0.43;" x1="17.562" y1="-8.633" x2="16.902" y2="-5.45"/>
		<line style="fill:none;stroke:#000000;stroke-width:0.43;" x1="18.798" y1="-16.56" x2="15.726" y2="-14.524"/>
		<line style="fill:none;stroke:#000000;stroke-width:0.43;" x1="22.456" y1="-16.741" x2="20.295" y2="-19.099"/>
		<line style="fill:none;stroke:#000000;stroke-width:0.43;" x1="21.31" y1="-21.771" x2="24.129" y2="-23.173"/>
		<line style="fill:none;stroke:#000000;stroke-width:0.43;" x1="17.48" y1="-25.614" x2="19.723" y2="-23.667"/>
		<line style="fill:none;stroke:#000000;stroke-width:0.43;" x1="13.417" y1="-25.198" x2="14.918" y2="-22.213"/>
		<line style="fill:none;stroke:#000000;stroke-width:0.43;" x1="17.553" y1="-21.8" x2="16.893" y2="-18.617"/>
		<line style="fill:none;stroke:#000000;stroke-width:0.43;" x1="23.706" y1="-5.827" x2="25.958" y2="-4.906"/>
		<line style="fill:none;stroke:#000000;stroke-width:0.43;" x1="23.716" y1="-18.993" x2="25.958" y2="-18.077"/>
		<line style="fill:none;stroke:#000000;stroke-width:0.43;" x1="9.276" y1="-25.492" x2="9.686" y2="-26.01"/>
		<line style="fill:none;stroke:#000000;stroke-width:0.43;" x1="22.625" y1="-26.01" x2="22.207" y2="-25.482"/>
		<line style="fill:none;stroke:#000000;stroke-width:0.43;" x1="11.337" y1="-2.25" x2="9.663" y2="-0.133"/>
		<line style="fill:none;stroke:#000000;stroke-width:0.43;" x1="24.269" y1="-2.24" x2="22.602" y2="-0.133"/>
	</g>
</svg>
