<?xml version="1.0" encoding="utf-8"?>
<svg xmlns="http://www.w3.org/2000/svg" version="1.1" x="0px" y="0px" xml:space="preserve" width="25.877" height="25.877" viewBox="2.16 -28.037 25.877 25.877">
	<g>
		<rect x="2.16" y="-28.037" style="fill:none;" width="25.877" height="25.877"/>
		<line style="fill:none;stroke:#EC008C;stroke-width:0.58;" x1="7.938" y1="-5.382" x2="4.854" y2="-3.365"/>
		<line style="fill:none;stroke:#EC008C;stroke-width:0.58;" x1="2.16" y1="-6.925" x2="3.321" y2="-6.451"/>
		<line style="fill:none;stroke:#EC008C;stroke-width:0.58;" x1="11.565" y1="-5.599" x2="9.405" y2="-7.957"/>
		<line style="fill:none;stroke:#EC008C;stroke-width:0.58;" x1="10.465" y1="-10.603" x2="13.286" y2="-12.004"/>
		<line style="fill:none;stroke:#EC008C;stroke-width:0.58;" x1="11.345" y1="-14.323" x2="13.406" y2="-16.928"/>
		<line style="fill:none;stroke:#EC008C;stroke-width:0.58;" x1="6.636" y1="-14.436" x2="8.879" y2="-12.49"/>
		<line style="fill:none;stroke:#EC008C;stroke-width:0.58;" x1="4.065" y1="-11.036" x2="2.564" y2="-14.02"/>
		<line style="fill:none;stroke:#EC008C;stroke-width:0.58;" x1="12.848" y1="-7.853" x2="16.278" y2="-6.451"/>
		<line style="fill:none;stroke:#EC008C;stroke-width:0.58;" x1="6.699" y1="-10.631" x2="6.04" y2="-7.449"/>
		<line style="fill:none;stroke:#EC008C;stroke-width:0.58;" x1="7.965" y1="-18.426" x2="4.827" y2="-16.495"/>
		<line style="fill:none;stroke:#EC008C;stroke-width:0.58;" x1="3.33" y1="-19.618" x2="2.16" y2="-20.096"/>
		<line style="fill:none;stroke:#EC008C;stroke-width:0.58;" x1="11.575" y1="-18.776" x2="9.414" y2="-21.134"/>
		<line style="fill:none;stroke:#EC008C;stroke-width:0.58;" x1="13.258" y1="-25.19" x2="10.438" y2="-23.789"/>
		<line style="fill:none;stroke:#EC008C;stroke-width:0.58;" x1="6.608" y1="-27.649" x2="8.852" y2="-25.703"/>
		<line style="fill:none;stroke:#EC008C;stroke-width:0.58;" x1="2.582" y1="-27.178" x2="4.083" y2="-24.193"/>
		<line style="fill:none;stroke:#EC008C;stroke-width:0.58;" x1="12.829" y1="-21.038" x2="16.259" y2="-19.636"/>
		<line style="fill:none;stroke:#EC008C;stroke-width:0.58;" x1="6.699" y1="-23.845" x2="6.04" y2="-20.662"/>
		<line style="fill:none;stroke:#EC008C;stroke-width:0.58;" x1="20.859" y1="-5.366" x2="17.776" y2="-3.346"/>
		<line style="fill:none;stroke:#EC008C;stroke-width:0.58;" x1="24.524" y1="-5.581" x2="22.364" y2="-7.939"/>
		<line style="fill:none;stroke:#EC008C;stroke-width:0.58;" x1="23.406" y1="-10.603" x2="26.226" y2="-12.004"/>
		<line style="fill:none;stroke:#EC008C;stroke-width:0.58;" x1="24.294" y1="-14.332" x2="26.356" y2="-16.937"/>
		<line style="fill:none;stroke:#EC008C;stroke-width:0.58;" x1="19.559" y1="-14.455" x2="21.801" y2="-12.508"/>
		<line style="fill:none;stroke:#EC008C;stroke-width:0.58;" x1="15.496" y1="-14.03" x2="16.996" y2="-11.044"/>
		<line style="fill:none;stroke:#EC008C;stroke-width:0.58;" x1="19.64" y1="-10.66" x2="18.98" y2="-7.476"/>
		<line style="fill:none;stroke:#EC008C;stroke-width:0.58;" x1="20.876" y1="-18.586" x2="17.804" y2="-16.55"/>
		<line style="fill:none;stroke:#EC008C;stroke-width:0.58;" x1="24.534" y1="-18.767" x2="22.373" y2="-21.125"/>
		<line style="fill:none;stroke:#EC008C;stroke-width:0.58;" x1="23.388" y1="-23.797" x2="26.208" y2="-25.199"/>
		<line style="fill:none;stroke:#EC008C;stroke-width:0.58;" x1="19.559" y1="-27.64" x2="21.801" y2="-25.694"/>
		<line style="fill:none;stroke:#EC008C;stroke-width:0.58;" x1="15.496" y1="-27.225" x2="16.996" y2="-24.24"/>
		<line style="fill:none;stroke:#EC008C;stroke-width:0.58;" x1="19.631" y1="-23.826" x2="18.971" y2="-20.644"/>
		<line style="fill:none;stroke:#EC008C;stroke-width:0.58;" x1="25.785" y1="-7.853" x2="28.037" y2="-6.933"/>
		<line style="fill:none;stroke:#EC008C;stroke-width:0.58;" x1="25.794" y1="-21.02" x2="28.037" y2="-20.103"/>
		<line style="fill:none;stroke:#EC008C;stroke-width:0.58;" x1="11.354" y1="-27.518" x2="11.764" y2="-28.037"/>
		<line style="fill:none;stroke:#EC008C;stroke-width:0.58;" x1="24.703" y1="-28.037" x2="24.285" y2="-27.508"/>
		<line style="fill:none;stroke:#EC008C;stroke-width:0.58;" x1="13.415" y1="-4.276" x2="11.741" y2="-2.16"/>
		<line style="fill:none;stroke:#EC008C;stroke-width:0.58;" x1="26.347" y1="-4.266" x2="24.68" y2="-2.16"/>
	</g>
</svg>
