<?xml version="1.0" encoding="utf-8"?>
<svg version="1.1" xmlns="http://www.w3.org/2000/svg" x="0px" y="0px" xml:space="preserve" width="16.631" height="16.632" viewBox="1.898 -18.632 16.631 16.632">
	<g>
		<rect x="1.898" y="-18.632" style="fill:none;" width="16.631" height="16.632"/>
		<line style="fill:none;stroke:#EC008C;stroke-width:0.5;" x1="12.468" y1="-18.632" x2="12.076" y2="-17.064"/>
		<line style="fill:none;stroke:#EC008C;stroke-width:0.5;" x1="13.442" y1="-18.632" x2="13" y2="-16.861"/>
		<line style="fill:none;stroke:#EC008C;stroke-width:0.5;" x1="16.147" y1="-15.63" x2="17.497" y2="-18.214"/>
		<line style="fill:none;stroke:#EC008C;stroke-width:0.5;" x1="16.997" y1="-15.216" x2="18.347" y2="-17.8"/>
		<line style="fill:none;stroke:#EC008C;stroke-width:0.5;" x1="12.626" y1="-15.031" x2="9.724" y2="-14.752"/>
		<line style="fill:none;stroke:#EC008C;stroke-width:0.5;" x1="12.744" y1="-14.093" x2="9.841" y2="-13.814"/>
		<line style="fill:none;stroke:#EC008C;stroke-width:0.5;" x1="4.774" y1="-14.84" x2="6.789" y2="-16.948"/>
		<line style="fill:none;stroke:#EC008C;stroke-width:0.5;" x1="5.476" y1="-14.207" x2="7.49" y2="-16.315"/>
		<line style="fill:none;stroke:#EC008C;stroke-width:0.5;" x1="2.992" y1="-11.604" x2="2" y2="-14.347"/>
		<line style="fill:none;stroke:#EC008C;stroke-width:0.5;" x1="2.879" y1="-14.693" x2="3.871" y2="-11.952"/>
		<line style="fill:none;stroke:#EC008C;stroke-width:0.5;" x1="10.447" y1="-9.94" x2="7.615" y2="-10.634"/>
		<line style="fill:none;stroke:#EC008C;stroke-width:0.5;" x1="10.646" y1="-10.864" x2="7.814" y2="-11.558"/>
		<line style="fill:none;stroke:#EC008C;stroke-width:0.5;" x1="15.059" y1="-11.861" x2="14.482" y2="-9.002"/>
		<line style="fill:none;stroke:#EC008C;stroke-width:0.5;" x1="15.414" y1="-8.842" x2="15.99" y2="-11.7"/>
		<line style="fill:none;stroke:#EC008C;stroke-width:0.5;" x1="5.751" y1="-9.104" x2="3.103" y2="-7.883"/>
		<line style="fill:none;stroke:#EC008C;stroke-width:0.5;" x1="6.171" y1="-8.258" x2="3.524" y2="-7.036"/>
		<line style="fill:none;stroke:#EC008C;stroke-width:0.5;" x1="11.546" y1="-6.923" x2="9.078" y2="-5.37"/>
		<line style="fill:none;stroke:#EC008C;stroke-width:0.5;" x1="12.072" y1="-6.138" x2="9.604" y2="-4.585"/>
		<line style="fill:none;stroke:#EC008C;stroke-width:0.5;" x1="5.419" y1="-2.699" x2="4.038" y2="-5.267"/>
		<line style="fill:none;stroke:#EC008C;stroke-width:0.5;" x1="4.858" y1="-5.738" x2="6.238" y2="-3.17"/>
		<line style="fill:none;stroke:#EC008C;stroke-width:0.5;" x1="17.372" y1="-4.22" x2="14.858" y2="-5.698"/>
		<line style="fill:none;stroke:#EC008C;stroke-width:0.5;" x1="15.315" y1="-6.526" x2="17.828" y2="-5.048"/>
		<line style="fill:none;stroke:#EC008C;stroke-width:0.5;" x1="12.783" y1="-3.261" x2="12.468" y2="-2"/>
		<line style="fill:none;stroke:#EC008C;stroke-width:0.5;" x1="13.707" y1="-3.058" x2="13.442" y2="-2"/>
	</g>
</svg>
