<?xml version="1.0" encoding="utf-8"?>
<svg version="1.1" xmlns="http://www.w3.org/2000/svg" x="0px" y="0px" xml:space="preserve" width="16.631" height="16.632" viewBox="0.085 -16.681 16.631 16.632">
	<g>
		<rect x="0.085" y="-16.681" style="fill:none;" width="16.631" height="16.632"/>
		<line style="fill:none;stroke:#000000;stroke-width:0.4;" x1="10.656" y1="-16.681" x2="10.264" y2="-15.113"/>
		<line style="fill:none;stroke:#000000;stroke-width:0.4;" x1="11.63" y1="-16.681" x2="11.188" y2="-14.91"/>
		<line style="fill:none;stroke:#000000;stroke-width:0.4;" x1="14.335" y1="-13.679" x2="15.685" y2="-16.263"/>
		<line style="fill:none;stroke:#000000;stroke-width:0.4;" x1="15.185" y1="-13.265" x2="16.535" y2="-15.849"/>
		<line style="fill:none;stroke:#000000;stroke-width:0.4;" x1="10.814" y1="-13.08" x2="7.912" y2="-12.8"/>
		<line style="fill:none;stroke:#000000;stroke-width:0.4;" x1="10.932" y1="-12.142" x2="8.029" y2="-11.862"/>
		<line style="fill:none;stroke:#000000;stroke-width:0.4;" x1="2.962" y1="-12.889" x2="4.977" y2="-14.997"/>
		<line style="fill:none;stroke:#000000;stroke-width:0.4;" x1="3.664" y1="-12.255" x2="5.678" y2="-14.364"/>
		<line style="fill:none;stroke:#000000;stroke-width:0.4;" x1="1.18" y1="-9.653" x2="0.188" y2="-12.396"/>
		<line style="fill:none;stroke:#000000;stroke-width:0.4;" x1="1.067" y1="-12.742" x2="2.059" y2="-10"/>
		<line style="fill:none;stroke:#000000;stroke-width:0.4;" x1="8.635" y1="-7.989" x2="5.803" y2="-8.683"/>
		<line style="fill:none;stroke:#000000;stroke-width:0.4;" x1="8.834" y1="-8.913" x2="6.002" y2="-9.607"/>
		<line style="fill:none;stroke:#000000;stroke-width:0.4;" x1="13.247" y1="-9.91" x2="12.67" y2="-7.051"/>
		<line style="fill:none;stroke:#000000;stroke-width:0.4;" x1="13.602" y1="-6.891" x2="14.178" y2="-9.749"/>
		<line style="fill:none;stroke:#000000;stroke-width:0.4;" x1="3.939" y1="-7.153" x2="1.291" y2="-5.932"/>
		<line style="fill:none;stroke:#000000;stroke-width:0.4;" x1="4.359" y1="-6.307" x2="1.712" y2="-5.085"/>
		<line style="fill:none;stroke:#000000;stroke-width:0.4;" x1="9.734" y1="-4.972" x2="7.266" y2="-3.419"/>
		<line style="fill:none;stroke:#000000;stroke-width:0.4;" x1="10.26" y1="-4.187" x2="7.793" y2="-2.634"/>
		<line style="fill:none;stroke:#000000;stroke-width:0.4;" x1="3.607" y1="-0.748" x2="2.226" y2="-3.316"/>
		<line style="fill:none;stroke:#000000;stroke-width:0.4;" x1="3.046" y1="-3.787" x2="4.426" y2="-1.219"/>
		<line style="fill:none;stroke:#000000;stroke-width:0.4;" x1="15.56" y1="-2.269" x2="13.046" y2="-3.747"/>
		<line style="fill:none;stroke:#000000;stroke-width:0.4;" x1="13.503" y1="-4.575" x2="16.016" y2="-3.097"/>
		<line style="fill:none;stroke:#000000;stroke-width:0.4;" x1="10.971" y1="-1.31" x2="10.656" y2="-0.049"/>
		<line style="fill:none;stroke:#000000;stroke-width:0.4;" x1="11.894" y1="-1.106" x2="11.63" y2="-0.049"/>
	</g>
</svg>
