<?xml version="1.0" encoding="utf-8"?>
<svg version="1.1" xmlns="http://www.w3.org/2000/svg" x="0px" y="0px" xml:space="preserve" width="25.199" height="25.2" viewBox="1.924 -27.2 25.199 25.2">
	<g>
		<rect x="1.924" y="-27.2" style="fill:none;" width="25.199" height="25.2"/>
		<line style="fill:none;stroke:#000000;stroke-width:0.5;" x1="13.519" y1="-21.388" x2="18.356" y2="-21.854"/>
		<line style="fill:none;stroke:#000000;stroke-width:0.5;" x1="13.715" y1="-19.825" x2="18.551" y2="-20.291"/>
		<line style="fill:none;stroke:#000000;stroke-width:0.5;" x1="17.902" y1="-27.2" x2="17.231" y2="-24.513"/>
		<line style="fill:none;stroke:#000000;stroke-width:0.5;" x1="19.526" y1="-27.2" x2="18.77" y2="-24.175"/>
		<line style="fill:none;stroke:#000000;stroke-width:0.5;" x1="23.391" y1="-22.539" x2="25.641" y2="-26.847"/>
		<line style="fill:none;stroke:#000000;stroke-width:0.5;" x1="24.807" y1="-21.851" x2="27.058" y2="-26.156"/>
		<line style="fill:none;stroke:#000000;stroke-width:0.5;" x1="6.103" y1="-21.327" x2="9.46" y2="-24.841"/>
		<line style="fill:none;stroke:#000000;stroke-width:0.5;" x1="7.273" y1="-20.271" x2="10.629" y2="-23.785"/>
		<line style="fill:none;stroke:#000000;stroke-width:0.5;" x1="3.653" y1="-16.352" x2="2" y2="-20.922"/>
		<line style="fill:none;stroke:#000000;stroke-width:0.5;" x1="3.466" y1="-21.499" x2="5.118" y2="-16.93"/>
		<line style="fill:none;stroke:#000000;stroke-width:0.5;" x1="15.038" y1="-13.89" x2="10.317" y2="-15.047"/>
		<line style="fill:none;stroke:#000000;stroke-width:0.5;" x1="15.368" y1="-15.43" x2="10.649" y2="-16.587"/>
		<line style="fill:none;stroke:#000000;stroke-width:0.5;" x1="21.785" y1="-17.092" x2="20.825" y2="-12.327"/>
		<line style="fill:none;stroke:#000000;stroke-width:0.5;" x1="22.377" y1="-12.061" x2="23.337" y2="-16.824"/>
		<line style="fill:none;stroke:#000000;stroke-width:0.5;" x1="25.537" y1="-5.189" x2="21.347" y2="-7.654"/>
		<line style="fill:none;stroke:#000000;stroke-width:0.5;" x1="22.108" y1="-9.034" x2="26.296" y2="-6.57"/>
		<line style="fill:none;stroke:#000000;stroke-width:0.5;" x1="18.41" y1="-4.779" x2="17.859" y2="-2"/>
		<line style="fill:none;stroke:#000000;stroke-width:0.5;" x1="19.963" y1="-4.517" x2="19.464" y2="-2"/>
		<line style="fill:none;stroke:#000000;stroke-width:0.5;" x1="16.66" y1="-9.592" x2="12.547" y2="-7.003"/>
		<line style="fill:none;stroke:#000000;stroke-width:0.5;" x1="17.537" y1="-8.282" x2="13.424" y2="-5.694"/>
		<line style="fill:none;stroke:#000000;stroke-width:0.5;" x1="7.834" y1="-12.914" x2="3.422" y2="-10.878"/>
		<line style="fill:none;stroke:#000000;stroke-width:0.5;" x1="8.535" y1="-11.503" x2="4.123" y2="-9.467"/>
		<line style="fill:none;stroke:#000000;stroke-width:0.5;" x1="7.386" y1="-2.759" x2="5.084" y2="-7.039"/>
		<line style="fill:none;stroke:#000000;stroke-width:0.5;" x1="6.451" y1="-7.824" x2="8.751" y2="-3.544"/>
	</g>
</svg>
