<?xml version="1.0" encoding="utf-8"?>
<svg xmlns="http://www.w3.org/2000/svg" version="1.1" x="0px" y="0px" xml:space="preserve" width="25.805" height="25.804" viewBox="0.188 -25.977 25.805 25.804">
	<g>
		<rect x="0.188" y="-25.977" style="fill:none;" width="25.805" height="25.804"/>
		<line style="fill:none;stroke:#000000;stroke-width:0.4;" x1="11.746" y1="-11.731" x2="10.754" y2="-10.092"/>
		<line style="fill:none;stroke:#000000;stroke-width:0.4;" x1="11.034" y1="-14.381" x2="11.82" y2="-12.938"/>
		<line style="fill:none;stroke:#000000;stroke-width:0.4;" x1="9.93" y1="-13.724" x2="10.03" y2="-11.566"/>
		<line style="fill:none;stroke:#000000;stroke-width:0.4;" x1="14.336" y1="-4.333" x2="13.975" y2="-6.214"/>
		<line style="fill:none;stroke:#000000;stroke-width:0.4;" x1="7.673" y1="-6.761" x2="8.027" y2="-8.643"/>
		<line style="fill:none;stroke:#000000;stroke-width:0.4;" x1="6.087" y1="-7.221" x2="4.607" y2="-8.436"/>
		<line style="fill:none;stroke:#000000;stroke-width:0.4;" x1="1.043" y1="-8.398" x2="0.188" y2="-9.101"/>
		<line style="fill:none;stroke:#000000;stroke-width:0.4;" x1="9.506" y1="-9.782" x2="8.025" y2="-10.997"/>
		<line style="fill:none;stroke:#000000;stroke-width:0.4;" x1="9.898" y1="-6.539" x2="9.238" y2="-8.337"/>
		<line style="fill:none;stroke:#000000;stroke-width:0.4;" x1="2.538" y1="-5.548" x2="4.42" y2="-7.158"/>
		<line style="fill:none;stroke:#000000;stroke-width:0.4;" x1="8.803" y1="-12.484" x2="6.961" y2="-11.956"/>
		<line style="fill:none;stroke:#000000;stroke-width:0.4;" x1="12.387" y1="-4.312" x2="10.846" y2="-3.173"/>
		<line style="fill:none;stroke:#000000;stroke-width:0.4;" x1="7.945" y1="-3.977" x2="6.956" y2="-2.337"/>
		<line style="fill:none;stroke:#000000;stroke-width:0.4;" x1="15.307" y1="-10.68" x2="16.06" y2="-8.918"/>
		<line style="fill:none;stroke:#000000;stroke-width:0.4;" x1="18.89" y1="-14.844" x2="18.645" y2="-12.269"/>
		<line style="fill:none;stroke:#000000;stroke-width:0.4;" x1="12.931" y1="-6.89" x2="13.883" y2="-8.552"/>
		<line style="fill:none;stroke:#000000;stroke-width:0.4;" x1="17.959" y1="-8.626" x2="16.479" y2="-7.411"/>
		<line style="fill:none;stroke:#000000;stroke-width:0.4;" x1="17.477" y1="-2.659" x2="18.963" y2="-1.453"/>
		<line style="fill:none;stroke:#000000;stroke-width:0.4;" x1="18.197" y1="-10.208" x2="16.724" y2="-11.431"/>
		<line style="fill:none;stroke:#000000;stroke-width:0.4;" x1="14.333" y1="-12.277" x2="13.664" y2="-10.482"/>
		<line style="fill:none;stroke:#000000;stroke-width:0.4;" x1="15.545" y1="-12.328" x2="17.175" y2="-13.335"/>
		<line style="fill:none;stroke:#000000;stroke-width:0.4;" x1="5.787" y1="-6.066" x2="4.675" y2="-4.507"/>
		<line style="fill:none;stroke:#000000;stroke-width:0.4;" x1="18.556" y1="-16.845" x2="17.485" y2="-15.258"/>
		<line style="fill:none;stroke:#000000;stroke-width:0.4;" x1="6.458" y1="-9.019" x2="5.687" y2="-11.356"/>
		<line style="fill:none;stroke:#000000;stroke-width:0.4;" x1="6.083" y1="-18.295" x2="7.323" y2="-19.756"/>
		<line style="fill:none;stroke:#000000;stroke-width:0.4;" x1="15.53" y1="-13.724" x2="15.729" y2="-16.183"/>
		<line style="fill:none;stroke:#000000;stroke-width:0.4;" x1="9.818" y1="-15.516" x2="10.677" y2="-17.581"/>
		<line style="fill:none;stroke:#000000;stroke-width:0.4;" x1="11.71" y1="-7.136" x2="11.074" y2="-5.33"/>
		<line style="fill:none;stroke:#000000;stroke-width:0.4;" x1="15.866" y1="-6.107" x2="14.385" y2="-7.323"/>
		<line style="fill:none;stroke:#000000;stroke-width:0.4;" x1="8.698" y1="-14.06" x2="7.509" y2="-16.151"/>
		<line style="fill:none;stroke:#000000;stroke-width:0.4;" x1="13.076" y1="-2.292" x2="11.446" y2="-1.285"/>
		<line style="fill:none;stroke:#000000;stroke-width:0.4;" x1="5.36" y1="-13.579" x2="7.21" y2="-13.085"/>
		<line style="fill:none;stroke:#000000;stroke-width:0.4;" x1="6.627" y1="-16.873" x2="5.898" y2="-15.516"/>
		<line style="fill:none;stroke:#000000;stroke-width:0.4;" x1="20.682" y1="-23.355" x2="20.795" y2="-21.049"/>
		<line style="fill:none;stroke:#000000;stroke-width:0.4;" x1="13.836" y1="-24.474" x2="15.316" y2="-23.259"/>
		<line style="fill:none;stroke:#000000;stroke-width:0.4;" x1="11.373" y1="-23.205" x2="9.452" y2="-21.866"/>
		<line style="fill:none;stroke:#000000;stroke-width:0.4;" x1="8.026" y1="-23.804" x2="6.35" y2="-24.958"/>
		<line style="fill:none;stroke:#000000;stroke-width:0.4;" x1="12.664" y1="-18.583" x2="13.627" y2="-16.928"/>
		<line style="fill:none;stroke:#000000;stroke-width:0.4;" x1="13.382" y1="-20.385" x2="13.626" y2="-21.899"/>
		<line style="fill:none;stroke:#000000;stroke-width:0.4;" x1="16.867" y1="-21.336" x2="15.112" y2="-22.103"/>
		<line style="fill:none;stroke:#000000;stroke-width:0.4;" x1="12.604" y1="-23.24" x2="11.615" y2="-21.601"/>
		<line style="fill:none;stroke:#000000;stroke-width:0.4;" x1="21.802" y1="-16.523" x2="20.083" y2="-15.007"/>
		<line style="fill:none;stroke:#000000;stroke-width:0.4;" x1="8.138" y1="-17.195" x2="8.993" y2="-19.391"/>
		<line style="fill:none;stroke:#000000;stroke-width:0.4;" x1="9.016" y1="-20.785" x2="7.655" y2="-22.134"/>
		<line style="fill:none;stroke:#000000;stroke-width:0.4;" x1="18.106" y1="-22.124" x2="19.102" y2="-23.869"/>
		<line style="fill:none;stroke:#000000;stroke-width:0.4;" x1="20.124" y1="-19.215" x2="20.163" y2="-17.3"/>
		<line style="fill:none;stroke:#000000;stroke-width:0.4;" x1="18.383" y1="-20.427" x2="20.296" y2="-20.332"/>
		<line style="fill:none;stroke:#000000;stroke-width:0.4;" x1="10.294" y1="-18.953" x2="11.771" y2="-20.173"/>
		<line style="fill:none;stroke:#000000;stroke-width:0.4;" x1="20.458" y1="-12.231" x2="19.704" y2="-10.471"/>
		<line style="fill:none;stroke:#000000;stroke-width:0.4;" x1="22.625" y1="-8.69" x2="22.946" y2="-6.803"/>
		<line style="fill:none;stroke:#000000;stroke-width:0.4;" x1="22.901" y1="-10.925" x2="23.607" y2="-9.144"/>
		<line style="fill:none;stroke:#000000;stroke-width:0.4;" x1="21.447" y1="-3.84" x2="22.92" y2="-5.064"/>
		<line style="fill:none;stroke:#000000;stroke-width:0.4;" x1="24.743" y1="-5.108" x2="23.753" y2="-3.469"/>
		<line style="fill:none;stroke:#000000;stroke-width:0.4;" x1="20.122" y1="-3.42" x2="19.669" y2="-5.706"/>
		<line style="fill:none;stroke:#000000;stroke-width:0.4;" x1="22.744" y1="-15.666" x2="24.654" y2="-15.521"/>
		<line style="fill:none;stroke:#000000;stroke-width:0.4;" x1="23.966" y1="-6.738" x2="25.438" y2="-7.963"/>
		<line style="fill:none;stroke:#000000;stroke-width:0.4;" x1="21.535" y1="-9.656" x2="20.729" y2="-7.919"/>
		<line style="fill:none;stroke:#000000;stroke-width:0.4;" x1="25.539" y1="-12.947" x2="24.126" y2="-14.241"/>
		<line style="fill:none;stroke:#000000;stroke-width:0.4;" x1="3.908" y1="-23.955" x2="2.692" y2="-22.611"/>
		<line style="fill:none;stroke:#000000;stroke-width:0.4;" x1="4.983" y1="-20.188" x2="6.463" y2="-21.402"/>
		<line style="fill:none;stroke:#000000;stroke-width:0.4;" x1="5.748" y1="-23.003" x2="5.196" y2="-24.837"/>
		<line style="fill:none;stroke:#000000;stroke-width:0.4;" x1="21.829" y1="-12.452" x2="23.732" y2="-12.238"/>
		<line style="fill:none;stroke:#000000;stroke-width:0.4;" x1="3.212" y1="-4.56" x2="2.458" y2="-2.799"/>
		<line style="fill:none;stroke:#000000;stroke-width:0.4;" x1="2.427" y1="-1.024" x2="3.9" y2="-2.248"/>
		<line style="fill:none;stroke:#000000;stroke-width:0.4;" x1="4.407" y1="-11.356" x2="2.934" y2="-12.58"/>
		<line style="fill:none;stroke:#000000;stroke-width:0.4;" x1="22.108" y1="-22.789" x2="23.738" y2="-23.796"/>
		<line style="fill:none;stroke:#000000;stroke-width:0.4;" x1="22.685" y1="-21.668" x2="22.05" y2="-19.861"/>
		<line style="fill:none;stroke:#000000;stroke-width:0.4;" x1="0.188" y1="-5.031" x2="1.381" y2="-4.051"/>
		<line style="fill:none;stroke:#000000;stroke-width:0.4;" x1="0.887" y1="-11.717" x2="0.188" y2="-11.517"/>
		<line style="fill:none;stroke:#000000;stroke-width:0.4;" x1="0.188" y1="-15.492" x2="0.63" y2="-14.731"/>
		<line style="fill:none;stroke:#000000;stroke-width:0.4;" x1="2.273" y1="-19.949" x2="0.414" y2="-19.491"/>
		<line style="fill:none;stroke:#000000;stroke-width:0.4;" x1="1.311" y1="-13.027" x2="2.305" y2="-14.664"/>
		<line style="fill:none;stroke:#000000;stroke-width:0.4;" x1="2.679" y1="-17.765" x2="1.207" y2="-16.541"/>
		<line style="fill:none;stroke:#000000;stroke-width:0.4;" x1="3.852" y1="-19.162" x2="4.817" y2="-17.519"/>
		<line style="fill:none;stroke:#000000;stroke-width:0.4;" x1="3.262" y1="-16.398" x2="4.492" y2="-14.371"/>
		<line style="fill:none;stroke:#000000;stroke-width:0.4;" x1="1.983" y1="-11.469" x2="1.628" y2="-9.586"/>
		<line style="fill:none;stroke:#000000;stroke-width:0.4;" x1="2.647" y1="-8.649" x2="4.442" y2="-10.028"/>
		<line style="fill:none;stroke:#000000;stroke-width:0.4;" x1="5.46" y1="-1.71" x2="5.315" y2="-3.62"/>
		<line style="fill:none;stroke:#000000;stroke-width:0.4;" x1="0.188" y1="-2.339" x2="0.815" y2="-2.86"/>
		<line style="fill:none;stroke:#000000;stroke-width:0.4;" x1="13.99" y1="-18.859" x2="15.754" y2="-20.332"/>
		<line style="fill:none;stroke:#000000;stroke-width:0.4;" x1="16.934" y1="-20.03" x2="17.897" y2="-18.375"/>
		<line style="fill:none;stroke:#000000;stroke-width:0.4;" x1="15.111" y1="-18.111" x2="16.822" y2="-17.251"/>
		<line style="fill:none;stroke:#000000;stroke-width:0.4;" x1="12.939" y1="-9.471" x2="11.459" y2="-8.255"/>
		<line style="fill:none;stroke:#000000;stroke-width:0.4;" x1="9.236" y1="-5.951" x2="7.457" y2="-5.244"/>
		<line style="fill:none;stroke:#000000;stroke-width:0.4;" x1="9.146" y1="-3.532" x2="10.042" y2="-1.628"/>
		<line style="fill:none;stroke:#000000;stroke-width:0.4;" x1="18.225" y1="-4.107" x2="16.426" y2="-4.764"/>
		<line style="fill:none;stroke:#000000;stroke-width:0.4;" x1="16.579" y1="-22.628" x2="16.762" y2="-24.588"/>
		<line style="fill:none;stroke:#000000;stroke-width:0.4;" x1="18.488" y1="-7.326" x2="18.021" y2="-5.47"/>
		<line style="fill:none;stroke:#000000;stroke-width:0.4;" x1="14.557" y1="-3.159" x2="16.391" y2="-3.711"/>
		<line style="fill:none;stroke:#000000;stroke-width:0.4;" x1="14.746" y1="-15.404" x2="13.028" y2="-13.556"/>
		<line style="fill:none;stroke:#000000;stroke-width:0.4;" x1="22.565" y1="-2.974" x2="23.318" y2="-1.213"/>
		<line style="fill:none;stroke:#000000;stroke-width:0.4;" x1="25.367" y1="-9.613" x2="25.992" y2="-9.101"/>
		<line style="fill:none;stroke:#000000;stroke-width:0.4;" x1="25.706" y1="-5.267" x2="25.992" y2="-5.031"/>
		<line style="fill:none;stroke:#000000;stroke-width:0.4;" x1="24.851" y1="-11.189" x2="25.992" y2="-11.517"/>
		<line style="fill:none;stroke:#000000;stroke-width:0.4;" x1="25.471" y1="-16.387" x2="25.992" y2="-15.491"/>
		<line style="fill:none;stroke:#000000;stroke-width:0.4;" x1="25.992" y1="-2.339" x2="25.146" y2="-1.637"/>
		<line style="fill:none;stroke:#000000;stroke-width:0.4;" x1="23.855" y1="-17.698" x2="23.102" y2="-19.46"/>
		<line style="fill:none;stroke:#000000;stroke-width:0.4;" x1="25.342" y1="-6.348" x2="25.992" y2="-6.489"/>
		<line style="fill:none;stroke:#000000;stroke-width:0.4;" x1="0.188" y1="-6.489" x2="1.409" y2="-6.756"/>
		<line style="fill:none;stroke:#000000;stroke-width:0.4;" x1="20.682" y1="-13.724" x2="23.002" y2="-14.282"/>
		<line style="fill:none;stroke:#000000;stroke-width:0.4;" x1="4.488" y1="-22.034" x2="2.907" y2="-20.953"/>
		<line style="fill:none;stroke:#000000;stroke-width:0.4;" x1="21.711" y1="-5.603" x2="20.366" y2="-6.967"/>
		<line style="fill:none;stroke:#000000;stroke-width:0.4;" x1="23.973" y1="-22.099" x2="24.868" y2="-20.405"/>
		<line style="fill:none;stroke:#000000;stroke-width:0.4;" x1="0.842" y1="-17.946" x2="0.188" y2="-17.996"/>
		<line style="fill:none;stroke:#000000;stroke-width:0.4;" x1="25.992" y1="-17.996" x2="24.738" y2="-18.092"/>
		<line style="fill:none;stroke:#000000;stroke-width:0.4;" x1="11.997" y1="-17.103" x2="12.506" y2="-14.844"/>
		<line style="fill:none;stroke:#000000;stroke-width:0.4;" x1="19.452" y1="-7.788" x2="19.076" y2="-9.666"/>
		<line style="fill:none;stroke:#000000;stroke-width:0.4;" x1="23.016" y1="-17.003" x2="21.34" y2="-17.932"/>
		<line style="fill:none;stroke:#000000;stroke-width:0.4;" x1="14.51" y1="-2.063" x2="16.178" y2="-1.565"/>
		<line style="fill:none;stroke:#000000;stroke-width:0.4;" x1="9.237" y1="-23.244" x2="9.438" y2="-25.148"/>
		<line style="fill:none;stroke:#000000;stroke-width:0.4;" x1="1.53" y1="-21.115" x2="1.082" y2="-23.468"/>
		<line style="fill:none;stroke:#000000;stroke-width:0.4;" x1="25.992" y1="-23.974" x2="25.386" y2="-22.348"/>
		<line style="fill:none;stroke:#000000;stroke-width:0.4;" x1="0.188" y1="-23.975" x2="0.25" y2="-24.143"/>
		<line style="fill:none;stroke:#000000;stroke-width:0.4;" x1="21.578" y1="-2.356" x2="20.794" y2="-0.62"/>
		<line style="fill:none;stroke:#000000;stroke-width:0.4;" x1="18.402" y1="-0.183" x2="18.419" y2="-0.173"/>
		<line style="fill:none;stroke:#000000;stroke-width:0.4;" x1="13.402" y1="-1.247" x2="13.052" y2="-0.173"/>
		<line style="fill:none;stroke:#000000;stroke-width:0.4;" x1="9.818" y1="-0.688" x2="10.181" y2="-0.173"/>
		<line style="fill:none;stroke:#000000;stroke-width:0.4;" x1="23.006" y1="-0.277" x2="22.879" y2="-0.173"/>
		<line style="fill:none;stroke:#000000;stroke-width:0.4;" x1="3.633" y1="-0.841" x2="3.484" y2="-0.173"/>
		<line style="fill:none;stroke:#000000;stroke-width:0.4;" x1="6.906" y1="-1.068" x2="5.667" y2="-0.173"/>
		<line style="fill:none;stroke:#000000;stroke-width:0.4;" x1="0.902" y1="-1.157" x2="1.091" y2="-0.173"/>
		<line style="fill:none;stroke:#000000;stroke-width:0.4;" x1="25.369" y1="-0.558" x2="25.137" y2="-0.173"/>
		<line style="fill:none;stroke:#000000;stroke-width:0.4;" x1="15.344" y1="-0.688" x2="15.364" y2="-0.173"/>
		<line style="fill:none;stroke:#000000;stroke-width:0.4;" x1="8.025" y1="-0.173" x2="7.761" y2="-1.725"/>
		<line style="fill:none;stroke:#000000;stroke-width:0.4;" x1="17.282" y1="-0.173" x2="16.83" y2="-0.98"/>
		<line style="fill:none;stroke:#000000;stroke-width:0.4;" x1="18.419" y1="-25.977" x2="18.402" y2="-25.986"/>
		<line style="fill:none;stroke:#000000;stroke-width:0.4;" x1="20.047" y1="-25.006" x2="18.419" y2="-25.977"/>
		<line style="fill:none;stroke:#000000;stroke-width:0.4;" x1="12.601" y1="-24.591" x2="13.052" y2="-25.977"/>
		<line style="fill:none;stroke:#000000;stroke-width:0.4;" x1="11.162" y1="-24.588" x2="10.181" y2="-25.977"/>
		<line style="fill:none;stroke:#000000;stroke-width:0.4;" x1="21.526" y1="-24.867" x2="22.878" y2="-25.977"/>
		<line style="fill:none;stroke:#000000;stroke-width:0.4;" x1="3.217" y1="-24.776" x2="3.484" y2="-25.977"/>
		<line style="fill:none;stroke:#000000;stroke-width:0.4;" x1="5.45" y1="-25.819" x2="5.667" y2="-25.977"/>
		<line style="fill:none;stroke:#000000;stroke-width:0.4;" x1="1.263" y1="-25.081" x2="1.091" y2="-25.977"/>
		<line style="fill:none;stroke:#000000;stroke-width:0.4;" x1="24.379" y1="-24.723" x2="25.137" y2="-25.977"/>
		<line style="fill:none;stroke:#000000;stroke-width:0.4;" x1="15.418" y1="-24.588" x2="15.407" y2="-25.977"/>
		<line style="fill:none;stroke:#000000;stroke-width:0.4;" x1="15.407" y1="-25.977" x2="15.406" y2="-26.055"/>
		<line style="fill:none;stroke:#000000;stroke-width:0.4;" x1="8.082" y1="-25.641" x2="8.025" y2="-25.977"/>
		<line style="fill:none;stroke:#000000;stroke-width:0.4;" x1="17.282" y1="-25.977" x2="17.658" y2="-25.305"/>
	</g>
</svg>
