<?xml version="1.0" encoding="utf-8"?>
<svg xmlns="http://www.w3.org/2000/svg" version="1.1" x="0px" y="0px" xml:space="preserve" width="25.805" height="25.804" viewBox="2 -27.804 25.805 25.804">
	<g>
		<rect x="2" y="-27.804" style="fill:none;" width="25.805" height="25.804"/>
		<line style="fill:none;stroke:#00AEEF;stroke-width:0.5;" x1="13.559" y1="-13.558" x2="12.566" y2="-11.919"/>
		<line style="fill:none;stroke:#00AEEF;stroke-width:0.5;" x1="12.846" y1="-16.208" x2="13.633" y2="-14.765"/>
		<line style="fill:none;stroke:#00AEEF;stroke-width:0.5;" x1="11.742" y1="-15.551" x2="11.842" y2="-13.394"/>
		<line style="fill:none;stroke:#00AEEF;stroke-width:0.5;" x1="16.148" y1="-6.16" x2="15.788" y2="-8.041"/>
		<line style="fill:none;stroke:#00AEEF;stroke-width:0.5;" x1="9.485" y1="-8.588" x2="9.84" y2="-10.47"/>
		<line style="fill:none;stroke:#00AEEF;stroke-width:0.5;" x1="7.9" y1="-9.048" x2="6.419" y2="-10.263"/>
		<line style="fill:none;stroke:#00AEEF;stroke-width:0.5;" x1="2.855" y1="-10.226" x2="2" y2="-10.928"/>
		<line style="fill:none;stroke:#00AEEF;stroke-width:0.5;" x1="11.318" y1="-11.609" x2="9.838" y2="-12.824"/>
		<line style="fill:none;stroke:#00AEEF;stroke-width:0.5;" x1="11.71" y1="-8.366" x2="11.05" y2="-10.164"/>
		<line style="fill:none;stroke:#00AEEF;stroke-width:0.5;" x1="4.35" y1="-7.375" x2="6.233" y2="-8.985"/>
		<line style="fill:none;stroke:#00AEEF;stroke-width:0.5;" x1="10.615" y1="-14.311" x2="8.774" y2="-13.783"/>
		<line style="fill:none;stroke:#00AEEF;stroke-width:0.5;" x1="14.199" y1="-6.139" x2="12.659" y2="-5"/>
		<line style="fill:none;stroke:#00AEEF;stroke-width:0.5;" x1="9.758" y1="-5.804" x2="8.768" y2="-4.164"/>
		<line style="fill:none;stroke:#00AEEF;stroke-width:0.5;" x1="17.119" y1="-12.507" x2="17.873" y2="-10.745"/>
		<line style="fill:none;stroke:#00AEEF;stroke-width:0.5;" x1="20.702" y1="-16.671" x2="20.458" y2="-14.096"/>
		<line style="fill:none;stroke:#00AEEF;stroke-width:0.5;" x1="14.743" y1="-8.717" x2="15.695" y2="-10.379"/>
		<line style="fill:none;stroke:#00AEEF;stroke-width:0.5;" x1="19.771" y1="-10.453" x2="18.291" y2="-9.238"/>
		<line style="fill:none;stroke:#00AEEF;stroke-width:0.5;" x1="19.289" y1="-4.486" x2="20.776" y2="-3.28"/>
		<line style="fill:none;stroke:#00AEEF;stroke-width:0.5;" x1="20.01" y1="-12.035" x2="18.536" y2="-13.258"/>
		<line style="fill:none;stroke:#00AEEF;stroke-width:0.5;" x1="16.146" y1="-14.104" x2="15.477" y2="-12.31"/>
		<line style="fill:none;stroke:#00AEEF;stroke-width:0.5;" x1="17.358" y1="-14.155" x2="18.987" y2="-15.162"/>
		<line style="fill:none;stroke:#00AEEF;stroke-width:0.5;" x1="7.599" y1="-7.894" x2="6.488" y2="-6.334"/>
		<line style="fill:none;stroke:#00AEEF;stroke-width:0.5;" x1="20.369" y1="-18.672" x2="19.297" y2="-17.085"/>
		<line style="fill:none;stroke:#00AEEF;stroke-width:0.5;" x1="8.271" y1="-10.847" x2="7.499" y2="-13.184"/>
		<line style="fill:none;stroke:#00AEEF;stroke-width:0.5;" x1="7.896" y1="-20.122" x2="9.135" y2="-21.583"/>
		<line style="fill:none;stroke:#00AEEF;stroke-width:0.5;" x1="17.342" y1="-15.551" x2="17.541" y2="-18.01"/>
		<line style="fill:none;stroke:#00AEEF;stroke-width:0.5;" x1="11.63" y1="-17.343" x2="12.49" y2="-19.408"/>
		<line style="fill:none;stroke:#00AEEF;stroke-width:0.5;" x1="13.522" y1="-8.963" x2="12.886" y2="-7.157"/>
		<line style="fill:none;stroke:#00AEEF;stroke-width:0.5;" x1="17.678" y1="-7.935" x2="16.198" y2="-9.15"/>
		<line style="fill:none;stroke:#00AEEF;stroke-width:0.5;" x1="10.51" y1="-15.887" x2="9.321" y2="-17.979"/>
		<line style="fill:none;stroke:#00AEEF;stroke-width:0.5;" x1="14.888" y1="-4.119" x2="13.259" y2="-3.112"/>
		<line style="fill:none;stroke:#00AEEF;stroke-width:0.5;" x1="7.173" y1="-15.406" x2="9.023" y2="-14.912"/>
		<line style="fill:none;stroke:#00AEEF;stroke-width:0.5;" x1="8.439" y1="-18.7" x2="7.71" y2="-17.343"/>
		<line style="fill:none;stroke:#00AEEF;stroke-width:0.5;" x1="22.494" y1="-25.183" x2="22.608" y2="-22.876"/>
		<line style="fill:none;stroke:#00AEEF;stroke-width:0.5;" x1="15.648" y1="-26.301" x2="17.128" y2="-25.086"/>
		<line style="fill:none;stroke:#00AEEF;stroke-width:0.5;" x1="13.186" y1="-25.032" x2="11.265" y2="-23.693"/>
		<line style="fill:none;stroke:#00AEEF;stroke-width:0.5;" x1="9.838" y1="-25.631" x2="8.162" y2="-26.785"/>
		<line style="fill:none;stroke:#00AEEF;stroke-width:0.5;" x1="14.477" y1="-20.41" x2="15.44" y2="-18.755"/>
		<line style="fill:none;stroke:#00AEEF;stroke-width:0.5;" x1="15.194" y1="-22.212" x2="15.439" y2="-23.727"/>
		<line style="fill:none;stroke:#00AEEF;stroke-width:0.5;" x1="18.679" y1="-23.163" x2="16.924" y2="-23.93"/>
		<line style="fill:none;stroke:#00AEEF;stroke-width:0.5;" x1="14.417" y1="-25.067" x2="13.427" y2="-23.428"/>
		<line style="fill:none;stroke:#00AEEF;stroke-width:0.5;" x1="23.614" y1="-18.351" x2="21.896" y2="-16.834"/>
		<line style="fill:none;stroke:#00AEEF;stroke-width:0.5;" x1="9.95" y1="-19.022" x2="10.806" y2="-21.218"/>
		<line style="fill:none;stroke:#00AEEF;stroke-width:0.5;" x1="10.828" y1="-22.612" x2="9.467" y2="-23.961"/>
		<line style="fill:none;stroke:#00AEEF;stroke-width:0.5;" x1="19.919" y1="-23.951" x2="20.914" y2="-25.696"/>
		<line style="fill:none;stroke:#00AEEF;stroke-width:0.5;" x1="21.936" y1="-21.042" x2="21.976" y2="-19.127"/>
		<line style="fill:none;stroke:#00AEEF;stroke-width:0.5;" x1="20.196" y1="-22.254" x2="22.108" y2="-22.159"/>
		<line style="fill:none;stroke:#00AEEF;stroke-width:0.5;" x1="12.106" y1="-20.78" x2="13.583" y2="-22"/>
		<line style="fill:none;stroke:#00AEEF;stroke-width:0.5;" x1="22.271" y1="-14.059" x2="21.517" y2="-12.298"/>
		<line style="fill:none;stroke:#00AEEF;stroke-width:0.5;" x1="24.438" y1="-10.518" x2="24.758" y2="-8.63"/>
		<line style="fill:none;stroke:#00AEEF;stroke-width:0.5;" x1="24.714" y1="-12.752" x2="25.419" y2="-10.971"/>
		<line style="fill:none;stroke:#00AEEF;stroke-width:0.5;" x1="23.259" y1="-5.667" x2="24.733" y2="-6.892"/>
		<line style="fill:none;stroke:#00AEEF;stroke-width:0.5;" x1="26.555" y1="-6.936" x2="25.566" y2="-5.296"/>
		<line style="fill:none;stroke:#00AEEF;stroke-width:0.5;" x1="21.934" y1="-5.247" x2="21.481" y2="-7.533"/>
		<line style="fill:none;stroke:#00AEEF;stroke-width:0.5;" x1="24.557" y1="-17.493" x2="26.466" y2="-17.348"/>
		<line style="fill:none;stroke:#00AEEF;stroke-width:0.5;" x1="25.778" y1="-8.565" x2="27.25" y2="-9.79"/>
		<line style="fill:none;stroke:#00AEEF;stroke-width:0.5;" x1="23.347" y1="-11.483" x2="22.541" y2="-9.746"/>
		<line style="fill:none;stroke:#00AEEF;stroke-width:0.5;" x1="27.351" y1="-14.774" x2="25.938" y2="-16.068"/>
		<line style="fill:none;stroke:#00AEEF;stroke-width:0.5;" x1="5.72" y1="-25.782" x2="4.504" y2="-24.438"/>
		<line style="fill:none;stroke:#00AEEF;stroke-width:0.5;" x1="6.795" y1="-22.015" x2="8.275" y2="-23.229"/>
		<line style="fill:none;stroke:#00AEEF;stroke-width:0.5;" x1="7.561" y1="-24.83" x2="7.008" y2="-26.664"/>
		<line style="fill:none;stroke:#00AEEF;stroke-width:0.5;" x1="23.641" y1="-14.279" x2="25.545" y2="-14.065"/>
		<line style="fill:none;stroke:#00AEEF;stroke-width:0.5;" x1="5.024" y1="-6.387" x2="4.271" y2="-4.626"/>
		<line style="fill:none;stroke:#00AEEF;stroke-width:0.5;" x1="4.24" y1="-2.852" x2="5.713" y2="-4.075"/>
		<line style="fill:none;stroke:#00AEEF;stroke-width:0.5;" x1="6.22" y1="-13.184" x2="4.747" y2="-14.407"/>
		<line style="fill:none;stroke:#00AEEF;stroke-width:0.5;" x1="23.921" y1="-24.616" x2="25.551" y2="-25.623"/>
		<line style="fill:none;stroke:#00AEEF;stroke-width:0.5;" x1="24.498" y1="-23.495" x2="23.862" y2="-21.688"/>
		<line style="fill:none;stroke:#00AEEF;stroke-width:0.5;" x1="2" y1="-6.858" x2="3.193" y2="-5.878"/>
		<line style="fill:none;stroke:#00AEEF;stroke-width:0.5;" x1="2.7" y1="-13.544" x2="2" y2="-13.344"/>
		<line style="fill:none;stroke:#00AEEF;stroke-width:0.5;" x1="2" y1="-17.319" x2="2.442" y2="-16.559"/>
		<line style="fill:none;stroke:#00AEEF;stroke-width:0.5;" x1="4.086" y1="-21.776" x2="2.226" y2="-21.318"/>
		<line style="fill:none;stroke:#00AEEF;stroke-width:0.5;" x1="3.124" y1="-14.854" x2="4.117" y2="-16.491"/>
		<line style="fill:none;stroke:#00AEEF;stroke-width:0.5;" x1="4.492" y1="-19.592" x2="3.019" y2="-18.368"/>
		<line style="fill:none;stroke:#00AEEF;stroke-width:0.5;" x1="5.664" y1="-20.989" x2="6.629" y2="-19.346"/>
		<line style="fill:none;stroke:#00AEEF;stroke-width:0.5;" x1="5.074" y1="-18.226" x2="6.304" y2="-16.198"/>
		<line style="fill:none;stroke:#00AEEF;stroke-width:0.5;" x1="3.795" y1="-13.296" x2="3.441" y2="-11.413"/>
		<line style="fill:none;stroke:#00AEEF;stroke-width:0.5;" x1="4.459" y1="-10.477" x2="6.254" y2="-11.856"/>
		<line style="fill:none;stroke:#00AEEF;stroke-width:0.5;" x1="7.273" y1="-3.537" x2="7.128" y2="-5.447"/>
		<line style="fill:none;stroke:#00AEEF;stroke-width:0.5;" x1="2" y1="-4.166" x2="2.627" y2="-4.688"/>
		<line style="fill:none;stroke:#00AEEF;stroke-width:0.5;" x1="15.803" y1="-20.687" x2="17.566" y2="-22.159"/>
		<line style="fill:none;stroke:#00AEEF;stroke-width:0.5;" x1="18.746" y1="-21.857" x2="19.709" y2="-20.202"/>
		<line style="fill:none;stroke:#00AEEF;stroke-width:0.5;" x1="16.923" y1="-19.938" x2="18.634" y2="-19.078"/>
		<line style="fill:none;stroke:#00AEEF;stroke-width:0.5;" x1="14.752" y1="-11.298" x2="13.271" y2="-10.082"/>
		<line style="fill:none;stroke:#00AEEF;stroke-width:0.5;" x1="11.049" y1="-7.778" x2="9.269" y2="-7.071"/>
		<line style="fill:none;stroke:#00AEEF;stroke-width:0.5;" x1="10.958" y1="-5.359" x2="11.854" y2="-3.455"/>
		<line style="fill:none;stroke:#00AEEF;stroke-width:0.5;" x1="20.038" y1="-5.935" x2="18.238" y2="-6.591"/>
		<line style="fill:none;stroke:#00AEEF;stroke-width:0.5;" x1="18.392" y1="-24.455" x2="18.574" y2="-26.415"/>
		<line style="fill:none;stroke:#00AEEF;stroke-width:0.5;" x1="20.301" y1="-9.153" x2="19.833" y2="-7.297"/>
		<line style="fill:none;stroke:#00AEEF;stroke-width:0.5;" x1="16.37" y1="-4.986" x2="18.204" y2="-5.538"/>
		<line style="fill:none;stroke:#00AEEF;stroke-width:0.5;" x1="16.558" y1="-17.231" x2="14.841" y2="-15.383"/>
		<line style="fill:none;stroke:#00AEEF;stroke-width:0.5;" x1="24.377" y1="-4.801" x2="25.13" y2="-3.04"/>
		<line style="fill:none;stroke:#00AEEF;stroke-width:0.5;" x1="27.18" y1="-11.44" x2="27.805" y2="-10.928"/>
		<line style="fill:none;stroke:#00AEEF;stroke-width:0.5;" x1="27.518" y1="-7.094" x2="27.805" y2="-6.858"/>
		<line style="fill:none;stroke:#00AEEF;stroke-width:0.5;" x1="26.664" y1="-13.017" x2="27.805" y2="-13.344"/>
		<line style="fill:none;stroke:#00AEEF;stroke-width:0.5;" x1="27.284" y1="-18.214" x2="27.805" y2="-17.318"/>
		<line style="fill:none;stroke:#00AEEF;stroke-width:0.5;" x1="27.805" y1="-4.166" x2="26.958" y2="-3.464"/>
		<line style="fill:none;stroke:#00AEEF;stroke-width:0.5;" x1="25.668" y1="-19.525" x2="24.915" y2="-21.287"/>
		<line style="fill:none;stroke:#00AEEF;stroke-width:0.5;" x1="27.155" y1="-8.175" x2="27.805" y2="-8.316"/>
		<line style="fill:none;stroke:#00AEEF;stroke-width:0.5;" x1="2" y1="-8.316" x2="3.221" y2="-8.583"/>
		<line style="fill:none;stroke:#00AEEF;stroke-width:0.5;" x1="22.494" y1="-15.551" x2="24.815" y2="-16.109"/>
		<line style="fill:none;stroke:#00AEEF;stroke-width:0.5;" x1="6.301" y1="-23.861" x2="4.72" y2="-22.78"/>
		<line style="fill:none;stroke:#00AEEF;stroke-width:0.5;" x1="23.524" y1="-7.431" x2="22.178" y2="-8.794"/>
		<line style="fill:none;stroke:#00AEEF;stroke-width:0.5;" x1="25.786" y1="-23.926" x2="26.68" y2="-22.232"/>
		<line style="fill:none;stroke:#00AEEF;stroke-width:0.5;" x1="2.655" y1="-19.773" x2="2" y2="-19.823"/>
		<line style="fill:none;stroke:#00AEEF;stroke-width:0.5;" x1="27.805" y1="-19.823" x2="26.55" y2="-19.919"/>
		<line style="fill:none;stroke:#00AEEF;stroke-width:0.5;" x1="13.81" y1="-18.93" x2="14.318" y2="-16.671"/>
		<line style="fill:none;stroke:#00AEEF;stroke-width:0.5;" x1="21.264" y1="-9.615" x2="20.888" y2="-11.493"/>
		<line style="fill:none;stroke:#00AEEF;stroke-width:0.5;" x1="24.829" y1="-18.83" x2="23.153" y2="-19.759"/>
		<line style="fill:none;stroke:#00AEEF;stroke-width:0.5;" x1="16.323" y1="-3.891" x2="17.991" y2="-3.393"/>
		<line style="fill:none;stroke:#00AEEF;stroke-width:0.5;" x1="11.05" y1="-25.071" x2="11.25" y2="-26.976"/>
		<line style="fill:none;stroke:#00AEEF;stroke-width:0.5;" x1="3.342" y1="-22.942" x2="2.894" y2="-25.295"/>
		<line style="fill:none;stroke:#00AEEF;stroke-width:0.5;" x1="27.805" y1="-25.801" x2="27.198" y2="-24.175"/>
		<line style="fill:none;stroke:#00AEEF;stroke-width:0.5;" x1="2" y1="-25.802" x2="2.062" y2="-25.97"/>
		<line style="fill:none;stroke:#00AEEF;stroke-width:0.5;" x1="23.39" y1="-4.184" x2="22.606" y2="-2.447"/>
		<line style="fill:none;stroke:#00AEEF;stroke-width:0.5;" x1="20.214" y1="-2.01" x2="20.231" y2="-2"/>
		<line style="fill:none;stroke:#00AEEF;stroke-width:0.5;" x1="15.214" y1="-3.074" x2="14.864" y2="-2"/>
		<line style="fill:none;stroke:#00AEEF;stroke-width:0.5;" x1="11.63" y1="-2.515" x2="11.994" y2="-2"/>
		<line style="fill:none;stroke:#00AEEF;stroke-width:0.5;" x1="24.819" y1="-2.105" x2="24.691" y2="-2"/>
		<line style="fill:none;stroke:#00AEEF;stroke-width:0.5;" x1="5.446" y1="-2.668" x2="5.297" y2="-2"/>
		<line style="fill:none;stroke:#00AEEF;stroke-width:0.5;" x1="8.718" y1="-2.895" x2="7.479" y2="-2"/>
		<line style="fill:none;stroke:#00AEEF;stroke-width:0.5;" x1="2.715" y1="-2.984" x2="2.904" y2="-2"/>
		<line style="fill:none;stroke:#00AEEF;stroke-width:0.5;" x1="27.182" y1="-2.385" x2="26.949" y2="-2"/>
		<line style="fill:none;stroke:#00AEEF;stroke-width:0.5;" x1="17.156" y1="-2.515" x2="17.176" y2="-2"/>
		<line style="fill:none;stroke:#00AEEF;stroke-width:0.5;" x1="9.837" y1="-2" x2="9.574" y2="-3.552"/>
		<line style="fill:none;stroke:#00AEEF;stroke-width:0.5;" x1="19.094" y1="-2" x2="18.643" y2="-2.808"/>
		<line style="fill:none;stroke:#00AEEF;stroke-width:0.5;" x1="20.231" y1="-27.804" x2="20.214" y2="-27.813"/>
		<line style="fill:none;stroke:#00AEEF;stroke-width:0.5;" x1="21.859" y1="-26.833" x2="20.231" y2="-27.804"/>
		<line style="fill:none;stroke:#00AEEF;stroke-width:0.5;" x1="14.413" y1="-26.418" x2="14.864" y2="-27.804"/>
		<line style="fill:none;stroke:#00AEEF;stroke-width:0.5;" x1="12.974" y1="-26.415" x2="11.994" y2="-27.804"/>
		<line style="fill:none;stroke:#00AEEF;stroke-width:0.5;" x1="23.338" y1="-26.694" x2="24.69" y2="-27.804"/>
		<line style="fill:none;stroke:#00AEEF;stroke-width:0.5;" x1="5.03" y1="-26.604" x2="5.297" y2="-27.804"/>
		<line style="fill:none;stroke:#00AEEF;stroke-width:0.5;" x1="7.262" y1="-27.646" x2="7.479" y2="-27.804"/>
		<line style="fill:none;stroke:#00AEEF;stroke-width:0.5;" x1="3.075" y1="-26.908" x2="2.904" y2="-27.804"/>
		<line style="fill:none;stroke:#00AEEF;stroke-width:0.5;" x1="26.192" y1="-26.55" x2="26.949" y2="-27.804"/>
		<line style="fill:none;stroke:#00AEEF;stroke-width:0.5;" x1="17.23" y1="-26.415" x2="17.219" y2="-27.804"/>
		<line style="fill:none;stroke:#00AEEF;stroke-width:0.5;" x1="17.219" y1="-27.804" x2="17.219" y2="-27.882"/>
		<line style="fill:none;stroke:#00AEEF;stroke-width:0.5;" x1="9.894" y1="-27.468" x2="9.837" y2="-27.804"/>
		<line style="fill:none;stroke:#00AEEF;stroke-width:0.5;" x1="19.094" y1="-27.804" x2="19.47" y2="-27.132"/>
	</g>
</svg>
