<svg xmlns="http://www.w3.org/2000/svg" xml:space="preserve" width="17.79" height="17.8" viewBox="1.34 -19.05 17.79 17.8"><path d="M1.34-19.05h17.79v17.8H1.34z" style="fill:none"/><path d="m16.88-17.88 1.28 1.65M18.14-16.25l.99-1.87M5.9-17.12 4.98-19M5-18.98l-1.35 1.63M3.03-4.57l2.04-.45M5.05-5 3.78-6.7M4.34-11.52l-1.3-1.63M3.06-13.14l-.96 1.89M7.6-12.59l2.09.01M9.67-12.57l-.86-1.94M15.34-2.1l1.37-1.58M16.7-3.65l-2.03-.61M12.04-18.03l-.4 2.05M11.64-16.01l2.06-.49M14.66-12.03l1.19-1.72M15.84-13.73l-2.09-.37M9.48-4.29l-.86 1.91M8.62-2.41h2.12M9.28-9.14 7.19-9.3M7.21-9.31l.73 1.99M17.83-9.24l-.87 1.9M16.97-7.36h2.11M13.69-6.7l.06-2.09M13.76-8.76l-1.95.82" style="fill:none;stroke:#00aeef;stroke-width:.55"/></svg>