<svg xmlns="http://www.w3.org/2000/svg" xml:space="preserve" width="25.45" height="25.45" viewBox="1 -26.45 25.45 25.45"><path d="M1-26.45h25.45V-1H1z" style="fill:none"/><path d="m23.38-24.73 1.65 2.13M25-22.63l1.27-2.41M7.36-23.8l-1.18-2.41M6.21-26.19l-1.74 2.1M3.54-5.85l2.63-.58M6.14-6.42 4.51-8.6M5.13-15.75l-1.68-2.1M3.48-17.84l-1.24 2.43M10.09-17.32l2.69.02M12.75-17.29l-1.11-2.49M21.04-2.38l1.76-2.03M22.79-4.38l-2.62-.78M16.36-24.82l-.51 2.64M15.85-22.21l2.65-.64M20.05-16.58l1.53-2.22M21.57-18.77l-2.69-.48M12.65-5.15 11.54-2.7M11.54-2.74h2.73M12.18-12.19 9.5-12.4M9.53-12.4l.93 2.56M24.6-12.26l-1.11 2.45M23.5-9.84h2.72M18.58-8.96l.08-2.69M18.66-11.62l-2.5 1.06" style="fill:none;stroke:#00aeef;stroke-width:.6"/></svg>