<?xml version="1.0" encoding="utf-8"?>
<svg xmlns="http://www.w3.org/2000/svg" version="1.1" x="0px" y="0px" xml:space="preserve" width="18.743" height="18.743" viewBox="1.683 -20.403 18.743 18.743">
	<g>
		<rect x="1.683" y="-20.403" style="fill:none;" width="18.743" height="18.743"/>
		<line style="fill:none;stroke:#000000;stroke-width:0.33;" x1="10.233" y1="-1.66" x2="11.027" y2="-3.249"/>
		<line style="fill:none;stroke:#000000;stroke-width:0.33;" x1="12.59" y1="-6.375" x2="14.153" y2="-9.501"/>
		<line style="fill:none;stroke:#000000;stroke-width:0.33;" x1="17.279" y1="-15.752" x2="18.842" y2="-18.879"/>
		<line style="fill:none;stroke:#000000;stroke-width:0.33;" x1="11.027" y1="-3.249" x2="12.59" y2="-6.375"/>
		<line style="fill:none;stroke:#000000;stroke-width:0.33;" x1="17.279" y1="-15.752" x2="15.716" y2="-12.627"/>
		<line style="fill:none;stroke:#000000;stroke-width:0.33;" x1="14.153" y1="-9.501" x2="15.716" y2="-12.627"/>
		<line style="fill:none;stroke:#000000;stroke-width:0.33;" x1="18.842" y1="-18.879" x2="19.604" y2="-20.403"/>
		<line style="fill:none;stroke:#000000;stroke-width:0.33;" x1="7.111" y1="-1.66" x2="7.905" y2="-3.249"/>
		<line style="fill:none;stroke:#000000;stroke-width:0.33;" x1="11.031" y1="-9.501" x2="9.468" y2="-6.375"/>
		<line style="fill:none;stroke:#000000;stroke-width:0.33;" x1="16.482" y1="-20.403" x2="15.72" y2="-18.879"/>
		<line style="fill:none;stroke:#000000;stroke-width:0.33;" x1="12.594" y1="-12.627" x2="14.157" y2="-15.752"/>
		<line style="fill:none;stroke:#000000;stroke-width:0.33;" x1="14.157" y1="-15.752" x2="15.72" y2="-18.879"/>
		<line style="fill:none;stroke:#000000;stroke-width:0.33;" x1="7.905" y1="-3.249" x2="9.468" y2="-6.375"/>
		<line style="fill:none;stroke:#000000;stroke-width:0.33;" x1="12.594" y1="-12.627" x2="11.031" y2="-9.501"/>
		<line style="fill:none;stroke:#000000;stroke-width:0.33;" x1="11.034" y1="-15.752" x2="9.471" y2="-12.627"/>
		<line style="fill:none;stroke:#000000;stroke-width:0.33;" x1="12.597" y1="-18.879" x2="11.034" y2="-15.752"/>
		<line style="fill:none;stroke:#000000;stroke-width:0.33;" x1="7.908" y1="-9.501" x2="6.345" y2="-6.375"/>
		<line style="fill:none;stroke:#000000;stroke-width:0.33;" x1="9.471" y1="-12.627" x2="7.908" y2="-9.501"/>
		<line style="fill:none;stroke:#000000;stroke-width:0.33;" x1="13.359" y1="-20.403" x2="12.597" y2="-18.879"/>
		<line style="fill:none;stroke:#000000;stroke-width:0.33;" x1="3.988" y1="-1.66" x2="4.782" y2="-3.249"/>
		<line style="fill:none;stroke:#000000;stroke-width:0.33;" x1="6.345" y1="-6.375" x2="4.782" y2="-3.249"/>
		<line style="fill:none;stroke:#000000;stroke-width:0.33;" x1="1.66" y1="-3.249" x2="1.683" y2="-3.294"/>
		<line style="fill:none;stroke:#000000;stroke-width:0.33;" x1="3.223" y1="-6.375" x2="1.683" y2="-3.294"/>
		<line style="fill:none;stroke:#000000;stroke-width:0.33;" x1="10.237" y1="-20.403" x2="9.475" y2="-18.879"/>
		<line style="fill:none;stroke:#000000;stroke-width:0.33;" x1="4.786" y1="-9.501" x2="3.223" y2="-6.375"/>
		<line style="fill:none;stroke:#000000;stroke-width:0.33;" x1="6.349" y1="-12.627" x2="4.786" y2="-9.501"/>
		<line style="fill:none;stroke:#000000;stroke-width:0.33;" x1="6.349" y1="-12.627" x2="7.912" y2="-15.752"/>
		<line style="fill:none;stroke:#000000;stroke-width:0.33;" x1="9.475" y1="-18.879" x2="7.912" y2="-15.752"/>
		<line style="fill:none;stroke:#000000;stroke-width:0.33;" x1="1.664" y1="-9.501" x2="1.683" y2="-9.538"/>
		<line style="fill:none;stroke:#000000;stroke-width:0.33;" x1="1.683" y1="-9.538" x2="3.227" y2="-12.627"/>
		<line style="fill:none;stroke:#000000;stroke-width:0.33;" x1="7.115" y1="-20.403" x2="6.353" y2="-18.879"/>
		<line style="fill:none;stroke:#000000;stroke-width:0.33;" x1="4.79" y1="-15.752" x2="3.227" y2="-12.627"/>
		<line style="fill:none;stroke:#000000;stroke-width:0.33;" x1="6.353" y1="-18.879" x2="4.79" y2="-15.752"/>
		<line style="fill:none;stroke:#000000;stroke-width:0.33;" x1="3.992" y1="-20.403" x2="3.23" y2="-18.879"/>
		<line style="fill:none;stroke:#000000;stroke-width:0.33;" x1="1.683" y1="-15.784" x2="3.23" y2="-18.879"/>
		<line style="fill:none;stroke:#000000;stroke-width:0.33;" x1="1.666" y1="-15.752" x2="1.683" y2="-15.784"/>
		<line style="fill:none;stroke:#000000;stroke-width:0.33;" x1="20.426" y1="-3.292" x2="20.404" y2="-3.249"/>
		<line style="fill:none;stroke:#000000;stroke-width:0.33;" x1="19.61" y1="-1.66" x2="20.404" y2="-3.249"/>
		<line style="fill:none;stroke:#000000;stroke-width:0.33;" x1="17.282" y1="-3.249" x2="18.845" y2="-6.375"/>
		<line style="fill:none;stroke:#000000;stroke-width:0.33;" x1="20.426" y1="-9.536" x2="20.408" y2="-9.501"/>
		<line style="fill:none;stroke:#000000;stroke-width:0.33;" x1="16.488" y1="-1.66" x2="17.282" y2="-3.249"/>
		<line style="fill:none;stroke:#000000;stroke-width:0.33;" x1="18.845" y1="-6.375" x2="20.408" y2="-9.501"/>
		<line style="fill:none;stroke:#000000;stroke-width:0.33;" x1="13.366" y1="-1.66" x2="14.16" y2="-3.249"/>
		<line style="fill:none;stroke:#000000;stroke-width:0.33;" x1="14.16" y1="-3.249" x2="15.723" y2="-6.375"/>
		<line style="fill:none;stroke:#000000;stroke-width:0.33;" x1="20.426" y1="-15.78" x2="20.412" y2="-15.752"/>
		<line style="fill:none;stroke:#000000;stroke-width:0.33;" x1="17.286" y1="-9.501" x2="15.723" y2="-6.375"/>
		<line style="fill:none;stroke:#000000;stroke-width:0.33;" x1="18.849" y1="-12.627" x2="20.412" y2="-15.752"/>
		<line style="fill:none;stroke:#000000;stroke-width:0.33;" x1="17.286" y1="-9.501" x2="18.849" y2="-12.627"/>
		<line style="fill:none;stroke:#000000;stroke-width:0.33;" x1="20.426" y1="-18.879" x2="18.842" y2="-18.879"/>
		<line style="fill:none;stroke:#000000;stroke-width:0.33;" x1="15.72" y1="-18.879" x2="12.597" y2="-18.879"/>
		<line style="fill:none;stroke:#000000;stroke-width:0.33;" x1="9.475" y1="-18.879" x2="12.597" y2="-18.879"/>
		<line style="fill:none;stroke:#000000;stroke-width:0.33;" x1="18.842" y1="-18.879" x2="15.72" y2="-18.879"/>
		<line style="fill:none;stroke:#000000;stroke-width:0.33;" x1="3.23" y1="-18.879" x2="6.353" y2="-18.879"/>
		<line style="fill:none;stroke:#000000;stroke-width:0.33;" x1="1.683" y1="-18.879" x2="3.23" y2="-18.879"/>
		<line style="fill:none;stroke:#000000;stroke-width:0.33;" x1="9.475" y1="-18.879" x2="6.353" y2="-18.879"/>
		<line style="fill:none;stroke:#000000;stroke-width:0.33;" x1="11.034" y1="-15.752" x2="14.157" y2="-15.752"/>
		<line style="fill:none;stroke:#000000;stroke-width:0.33;" x1="1.666" y1="-15.752" x2="1.683" y2="-15.752"/>
		<line style="fill:none;stroke:#000000;stroke-width:0.33;" x1="4.79" y1="-15.752" x2="7.912" y2="-15.752"/>
		<line style="fill:none;stroke:#000000;stroke-width:0.33;" x1="17.279" y1="-15.752" x2="14.157" y2="-15.752"/>
		<line style="fill:none;stroke:#000000;stroke-width:0.33;" x1="7.912" y1="-15.752" x2="11.034" y2="-15.752"/>
		<line style="fill:none;stroke:#000000;stroke-width:0.33;" x1="1.683" y1="-15.752" x2="4.79" y2="-15.752"/>
		<line style="fill:none;stroke:#000000;stroke-width:0.33;" x1="20.412" y1="-15.752" x2="17.279" y2="-15.752"/>
		<line style="fill:none;stroke:#000000;stroke-width:0.33;" x1="20.426" y1="-15.752" x2="20.412" y2="-15.752"/>
		<line style="fill:none;stroke:#000000;stroke-width:0.33;" x1="9.471" y1="-12.627" x2="12.594" y2="-12.627"/>
		<line style="fill:none;stroke:#000000;stroke-width:0.33;" x1="18.849" y1="-12.627" x2="15.716" y2="-12.627"/>
		<line style="fill:none;stroke:#000000;stroke-width:0.33;" x1="15.716" y1="-12.627" x2="12.594" y2="-12.627"/>
		<line style="fill:none;stroke:#000000;stroke-width:0.33;" x1="1.683" y1="-12.627" x2="3.227" y2="-12.627"/>
		<line style="fill:none;stroke:#000000;stroke-width:0.33;" x1="3.227" y1="-12.627" x2="6.349" y2="-12.627"/>
		<line style="fill:none;stroke:#000000;stroke-width:0.33;" x1="20.426" y1="-12.627" x2="18.849" y2="-12.627"/>
		<line style="fill:none;stroke:#000000;stroke-width:0.33;" x1="6.349" y1="-12.627" x2="9.471" y2="-12.627"/>
		<line style="fill:none;stroke:#000000;stroke-width:0.33;" x1="1.664" y1="-9.501" x2="1.683" y2="-9.501"/>
		<line style="fill:none;stroke:#000000;stroke-width:0.33;" x1="17.286" y1="-9.501" x2="14.153" y2="-9.501"/>
		<line style="fill:none;stroke:#000000;stroke-width:0.33;" x1="14.153" y1="-9.501" x2="11.031" y2="-9.501"/>
		<line style="fill:none;stroke:#000000;stroke-width:0.33;" x1="1.683" y1="-9.501" x2="4.786" y2="-9.501"/>
		<line style="fill:none;stroke:#000000;stroke-width:0.33;" x1="20.426" y1="-9.501" x2="20.408" y2="-9.501"/>
		<line style="fill:none;stroke:#000000;stroke-width:0.33;" x1="20.408" y1="-9.501" x2="17.286" y2="-9.501"/>
		<line style="fill:none;stroke:#000000;stroke-width:0.33;" x1="4.786" y1="-9.501" x2="7.908" y2="-9.501"/>
		<line style="fill:none;stroke:#000000;stroke-width:0.33;" x1="7.908" y1="-9.501" x2="11.031" y2="-9.501"/>
		<line style="fill:none;stroke:#000000;stroke-width:0.33;" x1="9.468" y1="-6.375" x2="12.59" y2="-6.375"/>
		<line style="fill:none;stroke:#000000;stroke-width:0.33;" x1="18.845" y1="-6.375" x2="15.723" y2="-6.375"/>
		<line style="fill:none;stroke:#000000;stroke-width:0.33;" x1="1.683" y1="-6.375" x2="3.223" y2="-6.375"/>
		<line style="fill:none;stroke:#000000;stroke-width:0.33;" x1="15.723" y1="-6.375" x2="12.59" y2="-6.375"/>
		<line style="fill:none;stroke:#000000;stroke-width:0.33;" x1="6.345" y1="-6.375" x2="9.468" y2="-6.375"/>
		<line style="fill:none;stroke:#000000;stroke-width:0.33;" x1="20.426" y1="-6.375" x2="18.845" y2="-6.375"/>
		<line style="fill:none;stroke:#000000;stroke-width:0.33;" x1="3.223" y1="-6.375" x2="6.345" y2="-6.375"/>
		<line style="fill:none;stroke:#000000;stroke-width:0.33;" x1="1.66" y1="-3.249" x2="1.683" y2="-3.249"/>
		<line style="fill:none;stroke:#000000;stroke-width:0.33;" x1="14.16" y1="-3.249" x2="17.282" y2="-3.249"/>
		<line style="fill:none;stroke:#000000;stroke-width:0.33;" x1="11.027" y1="-3.249" x2="14.16" y2="-3.249"/>
		<line style="fill:none;stroke:#000000;stroke-width:0.33;" x1="7.905" y1="-3.249" x2="11.027" y2="-3.249"/>
		<line style="fill:none;stroke:#000000;stroke-width:0.33;" x1="20.404" y1="-3.249" x2="17.282" y2="-3.249"/>
		<line style="fill:none;stroke:#000000;stroke-width:0.33;" x1="20.426" y1="-3.249" x2="20.404" y2="-3.249"/>
		<line style="fill:none;stroke:#000000;stroke-width:0.33;" x1="1.683" y1="-3.249" x2="4.782" y2="-3.249"/>
		<line style="fill:none;stroke:#000000;stroke-width:0.33;" x1="4.782" y1="-3.249" x2="7.905" y2="-3.249"/>
		<line style="fill:none;stroke:#000000;stroke-width:0.33;" x1="1.683" y1="-9.538" x2="1.683" y2="-9.501"/>
		<line style="fill:none;stroke:#000000;stroke-width:0.33;" x1="20.426" y1="-15.752" x2="20.426" y2="-15.78"/>
		<line style="fill:none;stroke:#000000;stroke-width:0.33;" x1="20.426" y1="-9.501" x2="20.426" y2="-9.536"/>
		<line style="fill:none;stroke:#000000;stroke-width:0.33;" x1="1.683" y1="-15.784" x2="1.683" y2="-15.752"/>
		<line style="fill:none;stroke:#000000;stroke-width:0.33;" x1="20.426" y1="-3.249" x2="20.426" y2="-3.292"/>
		<line style="fill:none;stroke:#000000;stroke-width:0.33;" x1="1.683" y1="-3.294" x2="1.683" y2="-3.249"/>
	</g>
</svg>
