<?xml version="1.0" encoding="utf-8"?>
<svg xmlns="http://www.w3.org/2000/svg" version="1.1" x="0px" y="0px" xml:space="preserve" width="18.743" height="18.743" viewBox="1.743 -20.463 18.743 18.743">
	<g>
		<rect x="1.743" y="-20.463" style="fill:none;" width="18.743" height="18.743"/>
		<rect x="1.743" y="-20.463" width="18.743" height="18.743"/>
		<line style="fill:none;stroke:#FFFFFF;stroke-width:0.36;" x1="10.293" y1="-1.72" x2="11.087" y2="-3.309"/>
		<line style="fill:none;stroke:#FFFFFF;stroke-width:0.36;" x1="12.65" y1="-6.435" x2="14.213" y2="-9.561"/>
		<line style="fill:none;stroke:#FFFFFF;stroke-width:0.36;" x1="17.339" y1="-15.811" x2="18.902" y2="-18.938"/>
		<line style="fill:none;stroke:#FFFFFF;stroke-width:0.36;" x1="11.087" y1="-3.309" x2="12.65" y2="-6.435"/>
		<line style="fill:none;stroke:#FFFFFF;stroke-width:0.36;" x1="17.339" y1="-15.811" x2="15.776" y2="-12.686"/>
		<line style="fill:none;stroke:#FFFFFF;stroke-width:0.36;" x1="14.213" y1="-9.561" x2="15.776" y2="-12.686"/>
		<line style="fill:none;stroke:#FFFFFF;stroke-width:0.36;" x1="18.902" y1="-18.938" x2="19.665" y2="-20.463"/>
		<line style="fill:none;stroke:#FFFFFF;stroke-width:0.36;" x1="7.171" y1="-1.72" x2="7.965" y2="-3.309"/>
		<line style="fill:none;stroke:#FFFFFF;stroke-width:0.36;" x1="11.091" y1="-9.561" x2="9.528" y2="-6.435"/>
		<line style="fill:none;stroke:#FFFFFF;stroke-width:0.36;" x1="16.542" y1="-20.463" x2="15.78" y2="-18.938"/>
		<line style="fill:none;stroke:#FFFFFF;stroke-width:0.36;" x1="12.654" y1="-12.686" x2="14.217" y2="-15.811"/>
		<line style="fill:none;stroke:#FFFFFF;stroke-width:0.36;" x1="14.217" y1="-15.811" x2="15.78" y2="-18.938"/>
		<line style="fill:none;stroke:#FFFFFF;stroke-width:0.36;" x1="7.965" y1="-3.309" x2="9.528" y2="-6.435"/>
		<line style="fill:none;stroke:#FFFFFF;stroke-width:0.36;" x1="12.654" y1="-12.686" x2="11.091" y2="-9.561"/>
		<line style="fill:none;stroke:#FFFFFF;stroke-width:0.36;" x1="11.094" y1="-15.811" x2="9.531" y2="-12.686"/>
		<line style="fill:none;stroke:#FFFFFF;stroke-width:0.36;" x1="12.657" y1="-18.938" x2="11.094" y2="-15.811"/>
		<line style="fill:none;stroke:#FFFFFF;stroke-width:0.36;" x1="7.968" y1="-9.561" x2="6.405" y2="-6.435"/>
		<line style="fill:none;stroke:#FFFFFF;stroke-width:0.36;" x1="9.531" y1="-12.686" x2="7.968" y2="-9.561"/>
		<line style="fill:none;stroke:#FFFFFF;stroke-width:0.36;" x1="13.419" y1="-20.463" x2="12.657" y2="-18.938"/>
		<line style="fill:none;stroke:#FFFFFF;stroke-width:0.36;" x1="4.048" y1="-1.72" x2="4.842" y2="-3.309"/>
		<line style="fill:none;stroke:#FFFFFF;stroke-width:0.36;" x1="6.405" y1="-6.435" x2="4.842" y2="-3.309"/>
		<line style="fill:none;stroke:#FFFFFF;stroke-width:0.36;" x1="1.72" y1="-3.309" x2="1.743" y2="-3.353"/>
		<line style="fill:none;stroke:#FFFFFF;stroke-width:0.36;" x1="3.283" y1="-6.435" x2="1.743" y2="-3.353"/>
		<line style="fill:none;stroke:#FFFFFF;stroke-width:0.36;" x1="10.297" y1="-20.463" x2="9.535" y2="-18.938"/>
		<line style="fill:none;stroke:#FFFFFF;stroke-width:0.36;" x1="4.846" y1="-9.561" x2="3.283" y2="-6.435"/>
		<line style="fill:none;stroke:#FFFFFF;stroke-width:0.36;" x1="6.409" y1="-12.686" x2="4.846" y2="-9.561"/>
		<line style="fill:none;stroke:#FFFFFF;stroke-width:0.36;" x1="6.409" y1="-12.686" x2="7.972" y2="-15.811"/>
		<line style="fill:none;stroke:#FFFFFF;stroke-width:0.36;" x1="9.535" y1="-18.938" x2="7.972" y2="-15.811"/>
		<line style="fill:none;stroke:#FFFFFF;stroke-width:0.36;" x1="1.724" y1="-9.561" x2="1.743" y2="-9.598"/>
		<line style="fill:none;stroke:#FFFFFF;stroke-width:0.36;" x1="1.743" y1="-9.598" x2="3.287" y2="-12.686"/>
		<line style="fill:none;stroke:#FFFFFF;stroke-width:0.36;" x1="7.175" y1="-20.463" x2="6.413" y2="-18.938"/>
		<line style="fill:none;stroke:#FFFFFF;stroke-width:0.36;" x1="4.85" y1="-15.811" x2="3.287" y2="-12.686"/>
		<line style="fill:none;stroke:#FFFFFF;stroke-width:0.36;" x1="6.413" y1="-18.938" x2="4.85" y2="-15.811"/>
		<line style="fill:none;stroke:#FFFFFF;stroke-width:0.36;" x1="4.052" y1="-20.463" x2="3.29" y2="-18.938"/>
		<line style="fill:none;stroke:#FFFFFF;stroke-width:0.36;" x1="1.743" y1="-15.844" x2="3.29" y2="-18.938"/>
		<line style="fill:none;stroke:#FFFFFF;stroke-width:0.36;" x1="1.727" y1="-15.811" x2="1.743" y2="-15.844"/>
		<line style="fill:none;stroke:#FFFFFF;stroke-width:0.36;" x1="20.486" y1="-3.352" x2="20.464" y2="-3.309"/>
		<line style="fill:none;stroke:#FFFFFF;stroke-width:0.36;" x1="19.67" y1="-1.72" x2="20.464" y2="-3.309"/>
		<line style="fill:none;stroke:#FFFFFF;stroke-width:0.36;" x1="17.342" y1="-3.309" x2="18.905" y2="-6.435"/>
		<line style="fill:none;stroke:#FFFFFF;stroke-width:0.36;" x1="20.486" y1="-9.596" x2="20.468" y2="-9.561"/>
		<line style="fill:none;stroke:#FFFFFF;stroke-width:0.36;" x1="16.548" y1="-1.72" x2="17.342" y2="-3.309"/>
		<line style="fill:none;stroke:#FFFFFF;stroke-width:0.36;" x1="18.905" y1="-6.435" x2="20.468" y2="-9.561"/>
		<line style="fill:none;stroke:#FFFFFF;stroke-width:0.36;" x1="13.426" y1="-1.72" x2="14.22" y2="-3.309"/>
		<line style="fill:none;stroke:#FFFFFF;stroke-width:0.36;" x1="14.22" y1="-3.309" x2="15.783" y2="-6.435"/>
		<line style="fill:none;stroke:#FFFFFF;stroke-width:0.36;" x1="20.486" y1="-15.84" x2="20.472" y2="-15.811"/>
		<line style="fill:none;stroke:#FFFFFF;stroke-width:0.36;" x1="17.346" y1="-9.561" x2="15.783" y2="-6.435"/>
		<line style="fill:none;stroke:#FFFFFF;stroke-width:0.36;" x1="18.909" y1="-12.686" x2="20.472" y2="-15.811"/>
		<line style="fill:none;stroke:#FFFFFF;stroke-width:0.36;" x1="17.346" y1="-9.561" x2="18.909" y2="-12.686"/>
		<line style="fill:none;stroke:#FFFFFF;stroke-width:0.36;" x1="20.486" y1="-18.938" x2="18.902" y2="-18.938"/>
		<line style="fill:none;stroke:#FFFFFF;stroke-width:0.36;" x1="15.78" y1="-18.938" x2="12.657" y2="-18.938"/>
		<line style="fill:none;stroke:#FFFFFF;stroke-width:0.36;" x1="9.535" y1="-18.938" x2="12.657" y2="-18.938"/>
		<line style="fill:none;stroke:#FFFFFF;stroke-width:0.36;" x1="18.902" y1="-18.938" x2="15.78" y2="-18.938"/>
		<line style="fill:none;stroke:#FFFFFF;stroke-width:0.36;" x1="3.29" y1="-18.938" x2="6.413" y2="-18.938"/>
		<line style="fill:none;stroke:#FFFFFF;stroke-width:0.36;" x1="1.743" y1="-18.938" x2="3.29" y2="-18.938"/>
		<line style="fill:none;stroke:#FFFFFF;stroke-width:0.36;" x1="9.535" y1="-18.938" x2="6.413" y2="-18.938"/>
		<line style="fill:none;stroke:#FFFFFF;stroke-width:0.36;" x1="11.094" y1="-15.811" x2="14.217" y2="-15.811"/>
		<line style="fill:none;stroke:#FFFFFF;stroke-width:0.36;" x1="1.727" y1="-15.811" x2="1.743" y2="-15.811"/>
		<line style="fill:none;stroke:#FFFFFF;stroke-width:0.36;" x1="4.85" y1="-15.811" x2="7.972" y2="-15.811"/>
		<line style="fill:none;stroke:#FFFFFF;stroke-width:0.36;" x1="17.339" y1="-15.811" x2="14.217" y2="-15.811"/>
		<line style="fill:none;stroke:#FFFFFF;stroke-width:0.36;" x1="7.972" y1="-15.811" x2="11.094" y2="-15.811"/>
		<line style="fill:none;stroke:#FFFFFF;stroke-width:0.36;" x1="1.743" y1="-15.811" x2="4.85" y2="-15.811"/>
		<line style="fill:none;stroke:#FFFFFF;stroke-width:0.36;" x1="20.472" y1="-15.811" x2="17.339" y2="-15.811"/>
		<line style="fill:none;stroke:#FFFFFF;stroke-width:0.36;" x1="20.486" y1="-15.811" x2="20.472" y2="-15.811"/>
		<line style="fill:none;stroke:#FFFFFF;stroke-width:0.36;" x1="9.531" y1="-12.686" x2="12.654" y2="-12.686"/>
		<line style="fill:none;stroke:#FFFFFF;stroke-width:0.36;" x1="18.909" y1="-12.686" x2="15.776" y2="-12.686"/>
		<line style="fill:none;stroke:#FFFFFF;stroke-width:0.36;" x1="15.776" y1="-12.686" x2="12.654" y2="-12.686"/>
		<line style="fill:none;stroke:#FFFFFF;stroke-width:0.36;" x1="1.743" y1="-12.686" x2="3.287" y2="-12.686"/>
		<line style="fill:none;stroke:#FFFFFF;stroke-width:0.36;" x1="3.287" y1="-12.686" x2="6.409" y2="-12.686"/>
		<line style="fill:none;stroke:#FFFFFF;stroke-width:0.36;" x1="20.486" y1="-12.686" x2="18.909" y2="-12.686"/>
		<line style="fill:none;stroke:#FFFFFF;stroke-width:0.36;" x1="6.409" y1="-12.686" x2="9.531" y2="-12.686"/>
		<line style="fill:none;stroke:#FFFFFF;stroke-width:0.36;" x1="1.724" y1="-9.561" x2="1.743" y2="-9.561"/>
		<line style="fill:none;stroke:#FFFFFF;stroke-width:0.36;" x1="17.346" y1="-9.561" x2="14.213" y2="-9.561"/>
		<line style="fill:none;stroke:#FFFFFF;stroke-width:0.36;" x1="14.213" y1="-9.561" x2="11.091" y2="-9.561"/>
		<line style="fill:none;stroke:#FFFFFF;stroke-width:0.36;" x1="1.743" y1="-9.561" x2="4.846" y2="-9.561"/>
		<line style="fill:none;stroke:#FFFFFF;stroke-width:0.36;" x1="20.486" y1="-9.561" x2="20.468" y2="-9.561"/>
		<line style="fill:none;stroke:#FFFFFF;stroke-width:0.36;" x1="20.468" y1="-9.561" x2="17.346" y2="-9.561"/>
		<line style="fill:none;stroke:#FFFFFF;stroke-width:0.36;" x1="4.846" y1="-9.561" x2="7.968" y2="-9.561"/>
		<line style="fill:none;stroke:#FFFFFF;stroke-width:0.36;" x1="7.968" y1="-9.561" x2="11.091" y2="-9.561"/>
		<line style="fill:none;stroke:#FFFFFF;stroke-width:0.36;" x1="9.528" y1="-6.435" x2="12.65" y2="-6.435"/>
		<line style="fill:none;stroke:#FFFFFF;stroke-width:0.36;" x1="18.905" y1="-6.435" x2="15.783" y2="-6.435"/>
		<line style="fill:none;stroke:#FFFFFF;stroke-width:0.36;" x1="1.743" y1="-6.435" x2="3.283" y2="-6.435"/>
		<line style="fill:none;stroke:#FFFFFF;stroke-width:0.36;" x1="15.783" y1="-6.435" x2="12.65" y2="-6.435"/>
		<line style="fill:none;stroke:#FFFFFF;stroke-width:0.36;" x1="6.405" y1="-6.435" x2="9.528" y2="-6.435"/>
		<line style="fill:none;stroke:#FFFFFF;stroke-width:0.36;" x1="20.486" y1="-6.435" x2="18.905" y2="-6.435"/>
		<line style="fill:none;stroke:#FFFFFF;stroke-width:0.36;" x1="3.283" y1="-6.435" x2="6.405" y2="-6.435"/>
		<line style="fill:none;stroke:#FFFFFF;stroke-width:0.36;" x1="1.72" y1="-3.309" x2="1.743" y2="-3.309"/>
		<line style="fill:none;stroke:#FFFFFF;stroke-width:0.36;" x1="14.22" y1="-3.309" x2="17.342" y2="-3.309"/>
		<line style="fill:none;stroke:#FFFFFF;stroke-width:0.36;" x1="11.087" y1="-3.309" x2="14.22" y2="-3.309"/>
		<line style="fill:none;stroke:#FFFFFF;stroke-width:0.36;" x1="7.965" y1="-3.309" x2="11.087" y2="-3.309"/>
		<line style="fill:none;stroke:#FFFFFF;stroke-width:0.36;" x1="20.464" y1="-3.309" x2="17.342" y2="-3.309"/>
		<line style="fill:none;stroke:#FFFFFF;stroke-width:0.36;" x1="20.486" y1="-3.309" x2="20.464" y2="-3.309"/>
		<line style="fill:none;stroke:#FFFFFF;stroke-width:0.36;" x1="1.743" y1="-3.309" x2="4.842" y2="-3.309"/>
		<line style="fill:none;stroke:#FFFFFF;stroke-width:0.36;" x1="4.842" y1="-3.309" x2="7.965" y2="-3.309"/>
		<line style="fill:none;stroke:#FFFFFF;stroke-width:0.36;" x1="1.743" y1="-9.598" x2="1.743" y2="-9.561"/>
		<line style="fill:none;stroke:#FFFFFF;stroke-width:0.36;" x1="20.486" y1="-15.811" x2="20.486" y2="-15.84"/>
		<line style="fill:none;stroke:#FFFFFF;stroke-width:0.36;" x1="20.486" y1="-9.561" x2="20.486" y2="-9.596"/>
		<line style="fill:none;stroke:#FFFFFF;stroke-width:0.36;" x1="1.743" y1="-15.844" x2="1.743" y2="-15.811"/>
		<line style="fill:none;stroke:#FFFFFF;stroke-width:0.36;" x1="20.486" y1="-3.309" x2="20.486" y2="-3.352"/>
		<line style="fill:none;stroke:#FFFFFF;stroke-width:0.36;" x1="1.743" y1="-3.353" x2="1.743" y2="-3.309"/>
	</g>
</svg>
