<?xml version="1.0" encoding="utf-8"?>
<svg version="1.1" xmlns="http://www.w3.org/2000/svg" x="0px" y="0px" xml:space="preserve" width="13.857" height="13.858" viewBox="1.729 -15.578 13.857 13.858">
	<g>
		<rect x="1.729" y="-15.578" style="fill:none;" width="13.857" height="13.858"/>
		<polyline style="fill:none;stroke:#00AEEF;stroke-width:0.36;" points="6.089,-15.578 5.186,-13.78 4.283,-15.578 		"/>
		<polyline style="fill:none;stroke:#00AEEF;stroke-width:0.36;" points="7.747,-15.578 8.65,-13.78 9.553,-15.578 		"/>
		<polyline style="fill:none;stroke:#00AEEF;stroke-width:0.36;" points="11.211,-15.578 12.115,-13.78 13.018,-15.578 		"/>
		<polyline style="fill:none;stroke:#00AEEF;stroke-width:0.36;" points="14.676,-15.578 15.58,-13.78 15.586,-13.794 		"/>
		<line style="fill:none;stroke:#00AEEF;stroke-width:0.36;" x1="1.729" y1="-13.794" x2="2.625" y2="-15.578"/>
		<line style="fill:none;stroke:#00AEEF;stroke-width:0.36;" x1="5.186" y1="-13.765" x2="5.187" y2="-13.767"/>
		<line style="fill:none;stroke:#00AEEF;stroke-width:0.36;" x1="1.729" y1="-13.767" x2="5.185" y2="-13.767"/>
		<polyline style="fill:none;stroke:#00AEEF;stroke-width:0.36;" points="5.186,-13.765 3.454,-10.316 1.729,-13.749 		"/>
		<polyline style="fill:none;stroke:#00AEEF;stroke-width:0.36;" points="1.729,-13.767 1.72,-13.767 1.729,-13.749 		"/>
		<line style="fill:none;stroke:#00AEEF;stroke-width:0.36;" x1="8.649" y1="-13.767" x2="5.187" y2="-13.767"/>
		<line style="fill:none;stroke:#00AEEF;stroke-width:0.36;" x1="8.65" y1="-13.765" x2="8.651" y2="-13.767"/>
		<polyline style="fill:none;stroke:#00AEEF;stroke-width:0.36;" points="8.65,-13.765 6.918,-10.316 5.186,-13.765 		"/>
		<line style="fill:none;stroke:#00AEEF;stroke-width:0.36;" x1="5.186" y1="-13.765" x2="5.185" y2="-13.767"/>
		<line style="fill:none;stroke:#00AEEF;stroke-width:0.36;" x1="5.187" y1="-13.767" x2="5.185" y2="-13.767"/>
		<line style="fill:none;stroke:#00AEEF;stroke-width:0.36;" x1="8.651" y1="-13.767" x2="12.113" y2="-13.767"/>
		<polyline style="fill:none;stroke:#00AEEF;stroke-width:0.36;" points="8.65,-13.765 10.382,-10.316 12.114,-13.764 		"/>
		<line style="fill:none;stroke:#00AEEF;stroke-width:0.36;" x1="8.649" y1="-13.767" x2="8.65" y2="-13.765"/>
		<line style="fill:none;stroke:#00AEEF;stroke-width:0.36;" x1="12.114" y1="-13.764" x2="12.116" y2="-13.767"/>
		<line style="fill:none;stroke:#00AEEF;stroke-width:0.36;" x1="8.649" y1="-13.767" x2="8.651" y2="-13.767"/>
		<polyline style="fill:none;stroke:#00AEEF;stroke-width:0.36;" points="12.114,-13.764 13.847,-10.316 15.581,-13.767
			12.116,-13.767 		"/>
		<line style="fill:none;stroke:#00AEEF;stroke-width:0.36;" x1="12.114" y1="-13.764" x2="12.113" y2="-13.767"/>
		<line style="fill:none;stroke:#00AEEF;stroke-width:0.36;" x1="12.116" y1="-13.767" x2="12.113" y2="-13.767"/>
		<line style="fill:none;stroke:#00AEEF;stroke-width:0.36;" x1="6.918" y1="-10.299" x2="6.919" y2="-10.302"/>
		<polyline style="fill:none;stroke:#00AEEF;stroke-width:0.36;" points="6.918,-10.299 5.186,-6.852 3.454,-10.299 		"/>
		<line style="fill:none;stroke:#00AEEF;stroke-width:0.36;" x1="6.917" y1="-10.302" x2="3.456" y2="-10.302"/>
		<line style="fill:none;stroke:#00AEEF;stroke-width:0.36;" x1="3.453" y1="-10.302" x2="3.454" y2="-10.299"/>
		<polyline style="fill:none;stroke:#00AEEF;stroke-width:0.36;" points="10.382,-10.3 8.65,-6.852 6.918,-10.299 		"/>
		<line style="fill:none;stroke:#00AEEF;stroke-width:0.36;" x1="10.382" y1="-10.3" x2="10.383" y2="-10.302"/>
		<line style="fill:none;stroke:#00AEEF;stroke-width:0.36;" x1="6.917" y1="-10.302" x2="6.918" y2="-10.299"/>
		<line style="fill:none;stroke:#00AEEF;stroke-width:0.36;" x1="10.381" y1="-10.302" x2="6.919" y2="-10.302"/>
		<line style="fill:none;stroke:#00AEEF;stroke-width:0.36;" x1="6.917" y1="-10.302" x2="6.919" y2="-10.302"/>
		<line style="fill:none;stroke:#00AEEF;stroke-width:0.36;" x1="13.848" y1="-10.302" x2="13.847" y2="-10.299"/>
		<line style="fill:none;stroke:#00AEEF;stroke-width:0.36;" x1="10.381" y1="-10.302" x2="10.382" y2="-10.3"/>
		<polyline style="fill:none;stroke:#00AEEF;stroke-width:0.36;" points="10.382,-10.3 12.115,-6.852 13.847,-10.299 		"/>
		<line style="fill:none;stroke:#00AEEF;stroke-width:0.36;" x1="10.383" y1="-10.302" x2="13.845" y2="-10.302"/>
		<line style="fill:none;stroke:#00AEEF;stroke-width:0.36;" x1="10.381" y1="-10.302" x2="10.383" y2="-10.302"/>
		<line style="fill:none;stroke:#00AEEF;stroke-width:0.36;" x1="13.848" y1="-10.302" x2="15.586" y2="-10.302"/>
		<polyline style="fill:none;stroke:#00AEEF;stroke-width:0.36;" points="15.586,-6.866 15.58,-6.852 13.847,-10.299 		"/>
		<line style="fill:none;stroke:#00AEEF;stroke-width:0.36;" x1="13.845" y1="-10.302" x2="13.847" y2="-10.299"/>
		<line style="fill:none;stroke:#00AEEF;stroke-width:0.36;" x1="13.848" y1="-10.302" x2="13.845" y2="-10.302"/>
		<line style="fill:none;stroke:#00AEEF;stroke-width:0.36;" x1="3.453" y1="-10.302" x2="1.729" y2="-10.302"/>
		<line style="fill:none;stroke:#00AEEF;stroke-width:0.36;" x1="1.729" y1="-6.866" x2="3.454" y2="-10.299"/>
		<line style="fill:none;stroke:#00AEEF;stroke-width:0.36;" x1="3.456" y1="-10.302" x2="3.454" y2="-10.299"/>
		<line style="fill:none;stroke:#00AEEF;stroke-width:0.36;" x1="3.456" y1="-10.302" x2="3.453" y2="-10.302"/>
		<line style="fill:none;stroke:#00AEEF;stroke-width:0.36;" x1="5.186" y1="-6.835" x2="5.187" y2="-6.837"/>
		<polyline style="fill:none;stroke:#00AEEF;stroke-width:0.36;" points="5.186,-6.835 3.454,-3.388 1.729,-6.819 		"/>
		<line style="fill:none;stroke:#00AEEF;stroke-width:0.36;" x1="5.185" y1="-6.837" x2="1.729" y2="-6.837"/>
		<polyline style="fill:none;stroke:#00AEEF;stroke-width:0.36;" points="1.729,-6.837 1.72,-6.837 1.729,-6.819 		"/>
		<line style="fill:none;stroke:#00AEEF;stroke-width:0.36;" x1="5.187" y1="-6.837" x2="8.649" y2="-6.837"/>
		<line style="fill:none;stroke:#00AEEF;stroke-width:0.36;" x1="5.185" y1="-6.837" x2="5.186" y2="-6.835"/>
		<line style="fill:none;stroke:#00AEEF;stroke-width:0.36;" x1="8.65" y1="-6.835" x2="8.651" y2="-6.837"/>
		<polyline style="fill:none;stroke:#00AEEF;stroke-width:0.36;" points="5.186,-6.835 6.918,-3.388 8.65,-6.835 		"/>
		<line style="fill:none;stroke:#00AEEF;stroke-width:0.36;" x1="5.185" y1="-6.837" x2="5.187" y2="-6.837"/>
		<polyline style="fill:none;stroke:#00AEEF;stroke-width:0.36;" points="8.65,-6.835 10.382,-3.388 12.114,-6.834 		"/>
		<line style="fill:none;stroke:#00AEEF;stroke-width:0.36;" x1="12.114" y1="-6.834" x2="12.116" y2="-6.837"/>
		<line style="fill:none;stroke:#00AEEF;stroke-width:0.36;" x1="12.113" y1="-6.837" x2="8.651" y2="-6.837"/>
		<line style="fill:none;stroke:#00AEEF;stroke-width:0.36;" x1="8.65" y1="-6.835" x2="8.649" y2="-6.837"/>
		<line style="fill:none;stroke:#00AEEF;stroke-width:0.36;" x1="8.651" y1="-6.837" x2="8.649" y2="-6.837"/>
		<line style="fill:none;stroke:#00AEEF;stroke-width:0.36;" x1="12.114" y1="-6.834" x2="12.113" y2="-6.837"/>
		<polyline style="fill:none;stroke:#00AEEF;stroke-width:0.36;" points="12.114,-6.834 13.847,-3.388 15.581,-6.837 12.116,-6.837
					"/>
		<line style="fill:none;stroke:#00AEEF;stroke-width:0.36;" x1="12.116" y1="-6.837" x2="12.113" y2="-6.837"/>
		<line style="fill:none;stroke:#00AEEF;stroke-width:0.36;" x1="6.917" y1="-3.379" x2="3.456" y2="-3.379"/>
		<line style="fill:none;stroke:#00AEEF;stroke-width:0.36;" x1="3.453" y1="-3.379" x2="3.454" y2="-3.376"/>
		<line style="fill:none;stroke:#00AEEF;stroke-width:0.36;" x1="6.918" y1="-3.376" x2="6.086" y2="-1.72"/>
		<line style="fill:none;stroke:#00AEEF;stroke-width:0.36;" x1="4.286" y1="-1.72" x2="3.454" y2="-3.376"/>
		<line style="fill:none;stroke:#00AEEF;stroke-width:0.36;" x1="6.919" y1="-3.379" x2="6.918" y2="-3.376"/>
		<line style="fill:none;stroke:#00AEEF;stroke-width:0.36;" x1="7.75" y1="-1.72" x2="6.918" y2="-3.376"/>
		<line style="fill:none;stroke:#00AEEF;stroke-width:0.36;" x1="6.917" y1="-3.379" x2="6.918" y2="-3.376"/>
		<line style="fill:none;stroke:#00AEEF;stroke-width:0.36;" x1="10.383" y1="-3.379" x2="10.382" y2="-3.377"/>
		<line style="fill:none;stroke:#00AEEF;stroke-width:0.36;" x1="10.382" y1="-3.377" x2="9.55" y2="-1.72"/>
		<line style="fill:none;stroke:#00AEEF;stroke-width:0.36;" x1="10.381" y1="-3.379" x2="6.919" y2="-3.379"/>
		<line style="fill:none;stroke:#00AEEF;stroke-width:0.36;" x1="6.917" y1="-3.379" x2="6.919" y2="-3.379"/>
		<line style="fill:none;stroke:#00AEEF;stroke-width:0.36;" x1="13.848" y1="-3.379" x2="13.847" y2="-3.376"/>
		<line style="fill:none;stroke:#00AEEF;stroke-width:0.36;" x1="13.847" y1="-3.376" x2="13.015" y2="-1.72"/>
		<line style="fill:none;stroke:#00AEEF;stroke-width:0.36;" x1="11.215" y1="-1.72" x2="10.382" y2="-3.377"/>
		<line style="fill:none;stroke:#00AEEF;stroke-width:0.36;" x1="13.845" y1="-3.379" x2="10.383" y2="-3.379"/>
		<line style="fill:none;stroke:#00AEEF;stroke-width:0.36;" x1="10.381" y1="-3.379" x2="10.382" y2="-3.377"/>
		<line style="fill:none;stroke:#00AEEF;stroke-width:0.36;" x1="10.381" y1="-3.379" x2="10.383" y2="-3.379"/>
		<line style="fill:none;stroke:#00AEEF;stroke-width:0.36;" x1="14.679" y1="-1.72" x2="13.847" y2="-3.376"/>
		<line style="fill:none;stroke:#00AEEF;stroke-width:0.36;" x1="13.845" y1="-3.379" x2="13.847" y2="-3.376"/>
		<line style="fill:none;stroke:#00AEEF;stroke-width:0.36;" x1="15.586" y1="-3.379" x2="13.848" y2="-3.379"/>
		<line style="fill:none;stroke:#00AEEF;stroke-width:0.36;" x1="13.845" y1="-3.379" x2="13.848" y2="-3.379"/>
		<line style="fill:none;stroke:#00AEEF;stroke-width:0.36;" x1="3.453" y1="-3.379" x2="1.729" y2="-3.379"/>
		<line style="fill:none;stroke:#00AEEF;stroke-width:0.36;" x1="3.456" y1="-3.379" x2="3.454" y2="-3.376"/>
		<line style="fill:none;stroke:#00AEEF;stroke-width:0.36;" x1="3.454" y1="-3.376" x2="2.622" y2="-1.72"/>
		<line style="fill:none;stroke:#00AEEF;stroke-width:0.36;" x1="3.456" y1="-3.379" x2="3.453" y2="-3.379"/>
		<line style="fill:none;stroke:#00AEEF;stroke-width:0.36;" x1="1.729" y1="-13.794" x2="1.729" y2="-13.767"/>
		<line style="fill:none;stroke:#00AEEF;stroke-width:0.36;" x1="1.729" y1="-6.837" x2="1.729" y2="-6.819"/>
		<line style="fill:none;stroke:#00AEEF;stroke-width:0.36;" x1="1.729" y1="-13.767" x2="1.729" y2="-13.749"/>
		<line style="fill:none;stroke:#00AEEF;stroke-width:0.36;" x1="1.729" y1="-6.837" x2="1.729" y2="-6.866"/>
	</g>
</svg>
