<svg xmlns="http://www.w3.org/2000/svg" xmlns:xlink="http://www.w3.org/1999/xlink" width="13.86" height="13.86"><defs><path id="a" d="M0 0h13.86v13.86H0z"/></defs><clipPath id="b"><use xlink:href="#a" overflow="visible"/></clipPath><path fill="none" stroke="#EC008C" stroke-width=".36" d="m4.36 0-.9 1.8-.9-1.8m3.46 0 .9 1.8.9-1.8m1.66 0 .9 1.8.9-1.8m1.67 0 .9 1.8v-.02M0 1.78.9 0M0 1.8h3.46m0 0L1.73 5.27 0 1.83m0-.03v.03m6.92-.03H3.46m3.46 0L5.2 5.27 3.45 1.8M6.92 1.8h3.46m-3.46 0 1.73 3.46 1.73-3.45m0-.01 1.74 3.46 1.73-3.45H10.4m0-.01h-.02M5.2 5.28 3.45 8.73 1.73 5.28m3.47 0H1.72m6.93 0L6.92 8.73 5.2 5.28m3.45 0H5.2M8.65 5.28l1.74 3.45 1.72-3.45m-3.46 0h3.47m0 0h1.74m0 3.42v.03L12.1 5.28m-10.38 0H0M0 8.7l1.73-3.4m1.73 3.44L1.73 12.2 0 8.75m3.46-.01H0m0 0v.02m3.46-.02h3.46m-3.46 0L5.2 12.2l1.7-3.47M6.92 8.74l1.73 3.45 1.73-3.46m0 .01H6.92m3.46 0 1.74 3.45 1.73-3.46H10.4m0 .01h-.02M5.2 12.2H1.72m3.48 0-.84 1.66m-1.8 0-.83-1.66m4.29 1.66L5.2 12.2m3.45 0-.83 1.66m.83-1.66H5.2m6.92 0-.83 1.66m-1.79 0-.85-1.66m3.47 0H8.65m4.3 1.66-.83-1.66m1.74 0h-1.74m-10.4 0H0m1.73 0L.9 13.86M0 1.78v.03m0 6.93v.02M0 1.8v.03m0 6.91V8.7" clip-path="url(#b)"/></svg>