<svg xmlns="http://www.w3.org/2000/svg" xml:space="preserve" width="71.34" height="71.3" viewBox="0.17 -71.47 71.34 71.3"><path d="M.17-71.47h71.34v71.3H.17z" style="fill:none"/><path d="m.17-47.66.15-.19 1.08 2.09-1.23-.04M33.38-69.06l-2.32.42 1.09 1.91zM5.98-69.03l-.06-2.24-1.99 1.46zM28.61-37.45l2.55-.68-1.88-1.42zM33.11-41.16l1.55 1.78.64-2.61zM4.64-38.09l-1.65-1.68-.9 2.36zM21.16-69.25l-2.17-1.51-.22 2.34zM23.41-64.25l-.16-2.35-2.22 1.21zM12.3-69.9l-2.51.34 1.82 1.91zM7.85-65.27l-.19 2.53 2.25-1.39zM22.57-59.56l-2.57.47 1.61 2.3zM25.94-57.42l-1.22 2.01 2.51.29zM30.85-57.94l.02 2.64 2.04-1.16zM34.78-52.93l-2.06 1.12 2.02 1.51zM28.69-47.82l1.35 2.14.98-2.45zM6.12-54.62l-1.49-2.53-1.31 2.26zM16.76-54.86l-.18 2.52 2.24-1.38zM26.1-43.52l-.19 2.53 2.25-1.39zM17.39-38.01l1.85 1.88.65-2.26zM8.68-39.72l2.59.5-.75-2.23zM18.89-47.42l2.92.2-1.12-2.36zM24.33-52.04l.75 2.41 1.58-2.11zM22.16-41.38l-.34-2.33-2.12 1.38zM6-45.06l-.35 2.51 2.33-1.25zM13.69-45.17l2.59-.49-1.52-1.8zM15.41-39.96l1.33-2.28-2.36-.03zM29.46-64.6l-2.17-.9.09 2.52zM17.34-64.71l-1.14-2.05-1.49 2.03zM14.62-61.76l.93 2.47 1.51-1.81zM12.69-54.84l-2.22 1.43 2.08 1.1zM8.48-58.15l2.75.58-1.19-2.68zM8.44-48.81l1.45 1.86 1.16-2.25zM5.31-51.24l-2.63-.1 1.08 2.09zM34.49-61.04l-1.8-1.52-.67 2.44zM1.08-65.08l2.46-.19-1.44-1.89zM3.44-62.37l-2 1.63 2.57.95zM36.5-47.05l-1.56 1.99 2.64.1zM23.82-35.82l.08 2.28 1.87-1.47zM69.05-69.06l-2.32.42 1.09 1.91zM41.8-68.88l-.07-2.48-2.21 1.61zM68.91-36.3l-1.7-1.28-.6 1.9zM71-42.62l-2.18.83 1.54 1.78zM40.31-38.35l-1.64-1.68-.91 2.36zM55.98-69.14l-2.16-1.51-.22 2.34zM59.74-62.55l-.16-2.34-2.22 1.21zM47.97-69.9l-2.5.34 1.82 1.91zM43.52-65.1l-.19 2.52 2.25-1.38zM58.83-59.64l-2.31.43 1.45 2.07zM61.69-57.31l-1.22 2.01 2.51.29zM66-57.35l.01 2.64 2.04-1.16zM68.96-52.88l2.03 1.51.04-2.64zM64.72-48.86l1.35 2.14.98-2.45zM41.91-54.76l-1.48-2.53-1.31 2.26zM53.1-54.73l-.19 2.52 2.25-1.39zM63.73-40.63l2.02-1.24-1.85-1.03zM54.77-39.32l1.85 1.88.65-2.26zM44.25-37.89l2.59.5-.75-2.23zM56.41-47.96l-1.01-2.12-1.62 1.94zM59.46-51.5l.74 2.41 1.59-2.11zM60.58-42.46l-.4-3.41-2.53 2.01zM42.28-45.16l-.34 2.51 2.33-1.24zM50.48-44.55l2.6-.5-1.52-1.79zM49.88-41.36l1.03 2.31 1.33-2.28zM65.25-64.67l-2.18-.9.1 2.53zM53.16-64.88l-1.14-2.05-1.5 2.03zM53.16-60.14l-2.44-.66.93 2.47zM48.39-54.83l-2.22 1.43 2.08 1.1zM46.91-57.57l-1.2-2.68-1.55 2.1zM47.61-48.89 45-48.5l1.45 1.86zM41.11-51.23l-2.64-.09 1.08 2.09zM70.11-60.9l-1.79-1.52-.68 2.44zM39.15-65.38l-1.44-1.89-1.02 2.08zM39.03-62.31l-1.8 1.47 2.32.85zM60.93-37.14l.1 2.53 2.07-1.63zM.17-10.2l1.23.05-1.08-2.09-.15.19M71.51-47.65l-1.41 1.79 1.41.06M71.51-12.04l-1.41 1.79 1.41.05M29.86-33.76l1.22 2.13 1.36-2.59zM5.02-34.41l2.06.78-.06-2.23zM30.38-1.86l2.29-.61-1.7-1.28zM33.75-6.45l1.4 1.61.57-2.35zM1.69-1.61l2.55-.69L2.6-3.98zM18.26-30.38l2.15-.75-1.95-1.36zM23.08-26.96l-.17-2.35-2.22 1.22zM11.6-36.01l1.64 1.71.62-2.02zM9.44-27.71l-2.06-1.13-.18 2.52zM21.74-21.13l.86-2.49-2.31.42zM27.64-20.34l-1.29-2.3-1.22 2.01zM32.96-20.33 30.9-21.8l.01 2.64zM33.32-16.37l2.03 1.52.03-2.64zM31.29-10.88l.88-2.21-2.1.28zM6.74-19.88l-1.48-2.53-1.31 2.26zM17.35-16.39l2.25-1.39-2.06-1.14zM28.12-6.46l2.03-1.25-1.86-1.02zM19.25-3.73l1.66 1.69.59-2.03zM7.65-3.13l2.59.5-.74-2.23zM18.65-11.73l2.63.18-1.01-2.12zM24.65-16.34l.75 2.41 1.58-2.11zM23.79-9.06l-1.91 1.24 2.22.86zM5.19-7.73l2.32-1.24-1.98-1.27zM15.85-9.53l-1.51-1.79-1.08 2.29zM13.06-5.22l1.02 2.31 1.33-2.28zM29.7-29.01l-2.41-1 .1 2.81zM11.82-29.76l2.64.02-1.14-2.05zM16.58-23.63l1.51-1.8-2.44-.67zM11-17.06l2.08 1.1.13-2.53zM12.58-22.63l-1.08-2.41-1.4 1.89zM10.53-14.08l-2.61.39 1.45 1.85zM4.77-16.43l-2.63-.1 1.08 2.09zM34.6-25.35l-2-1.68-.75 2.71zM1.45-30.6l2.46-.2-1.44-1.88zM1.43-24.99l2.31.86-.51-2.32zM37.74-9.8l-.97-1.88-1.4 1.8zM66.57-32.1l1.09 1.92 1.23-2.34zM39.46-33.5l2.28.87-.06-2.48zM65.12-1.98l2.55-.68-1.88-1.42zM68.86-6.65l1.55 1.79.64-2.61zM38.08-1.84l2.55-.69-1.65-1.68zM57.6-33.15l-2.17-1.51-.22 2.34zM59.08-26.8l-.17-2.34-2.22 1.21zM48.36-33.62l-2.5.34 1.82 1.91zM45.28-27.6l-2.06-1.14-.18 2.52zM57.79-21.85l-2.31.42 1.45 2.07zM60.37-21.38l2.51.29-1.29-2.3zM66.69-22.6l.01 2.64 2.04-1.17zM69.68-15.44l.04-2.63-2.07 1.12zM64.36-12.89l1.22 1.93.88-2.21zM39.94-21.7l-1.31 2.26 2.79.27zM54.32-17.01l-2.06-1.14-.18 2.52zM61.94-5.99l2.24-1.39-2.06-1.13zM54.6-3.16l1.85 1.88.65-2.26zM44.65-2.3l2.59.5-.74-2.23zM54.72-12.19l2.63.18-1.01-2.13zM60.24-16.03l.75 2.41 1.58-2.11zM58.84-6.59l-.33-2.33-2.13 1.38zM41.9-6.66l2.33-1.24-1.98-1.27zM48.96-8.97l2.59-.5-1.52-1.79zM49.91-5.65l1.02 2.32 1.33-2.29zM65.18-29.22l-2.18-.9.1 2.53zM50.44-28.9l2.64.02-1.14-2.05zM51.31-25.93l.93 2.47 1.51-1.81zM47.24-16.3l.14-2.52-2.22 1.43zM48.24-21.96l-1.07-2.41-1.4 1.89zM44.55-12.48l1.44 1.85 1.17-2.24zM41.85-15.05l-2.63-.1 1.08 2.09zM70.48-25.9l-1.8-1.52-.67 2.44zM35.44-29.87l2.74-.21-1.61-2.1zM39.69-24.19l-.58-2.58-1.99 1.63zM27.05-71.47 25.17-70l-.05-1.47M62.72-71.47 60.85-70l-.06-1.47M27.03-.17l.22-.17-2.17-.9.04 1.07M62.71-.17l.21-.17-2.17-.9.04 1.07" style="fill:none;stroke:#000;stroke-width:.43"/></svg>