<svg xmlns="http://www.w3.org/2000/svg" xml:space="preserve" width="71.34" height="71.3" viewBox="1 -72.3 71.34 71.3"><path d="M1-72.3h71.34V-1H1z" style="fill:none"/><path d="m1-48.49.15-.19 1.08 2.09L1-46.64M34.21-69.89l-2.32.41 1.09 1.92zM6.81-69.86l-.06-2.24-1.99 1.46zM29.44-38.28l2.55-.68-1.88-1.42zM33.94-42l1.55 1.79.64-2.61zM5.47-38.92 3.82-40.6l-.9 2.36zM21.99-70.08l-2.17-1.51-.22 2.34zM24.24-65.08l-.16-2.35-2.22 1.21zM13.13-70.73l-2.51.34 1.82 1.91zM8.68-66.1l-.19 2.53 2.25-1.39zM23.4-60.39l-2.57.47 1.61 2.3zM26.77-58.25l-1.22 2.01 2.51.29zM31.69-58.77l.01 2.64 2.04-1.16zM35.61-53.76l-2.06 1.12 2.02 1.51zM29.52-48.65l1.35 2.14.98-2.45zM6.95-55.45l-1.49-2.53-1.31 2.26zM17.59-55.69l-.18 2.52 2.24-1.39zM26.93-44.35l-.19 2.53 2.25-1.39zM18.22-38.84l1.85 1.88.65-2.26zM9.51-40.55l2.59.5-.75-2.23zM19.72-48.25l2.92.2-1.12-2.36zM25.16-52.87l.75 2.41 1.58-2.11zM22.99-42.21l-.34-2.33-2.12 1.38zM6.83-45.89l-.35 2.51 2.33-1.25zM14.52-46l2.59-.49-1.52-1.8zM16.24-40.79l1.33-2.28-2.36-.03zM30.29-65.43l-2.17-.9.09 2.52zM18.17-65.54l-1.14-2.05-1.49 2.03zM15.45-62.59l.93 2.47 1.51-1.81zM13.52-55.67l-2.22 1.43 2.08 1.1zM9.31-58.98l2.75.58-1.19-2.68zM9.27-49.64l1.45 1.86 1.16-2.25zM6.14-52.07l-2.63-.1 1.08 2.09zM35.32-61.87l-1.8-1.52-.67 2.44zM1.91-65.91l2.46-.19-1.44-1.89zM4.27-63.2l-2 1.62 2.57.96zM37.33-47.88l-1.56 1.99 2.64.1zM24.65-36.65l.08 2.28 1.87-1.47zM69.88-69.89l-2.32.41 1.09 1.92zM42.63-69.71l-.07-2.48-2.21 1.61zM69.74-37.13l-1.7-1.28-.6 1.9zM71.83-43.45l-2.18.83 1.54 1.78zM41.14-39.18l-1.64-1.68-.91 2.36zM56.81-69.97l-2.16-1.51-.22 2.34zM60.57-63.38l-.16-2.34-2.22 1.21zM48.8-70.73l-2.5.34 1.82 1.91zM44.35-65.93l-.19 2.52 2.25-1.38zM59.67-60.47l-2.32.42 1.45 2.08zM62.52-58.14l-1.22 2.01 2.51.29zM66.83-58.18l.01 2.64 2.04-1.16zM69.79-53.71l2.03 1.51.04-2.64zM65.55-49.69l1.35 2.14.99-2.45zM42.75-55.59l-1.49-2.53-1.31 2.26zM53.93-55.56l-.19 2.52 2.25-1.39zM64.56-41.46l2.02-1.24-1.85-1.03zM55.6-40.15l1.85 1.88.65-2.26zM45.08-38.72l2.59.5-.75-2.23zM57.24-48.79l-1.01-2.13-1.62 1.95zM60.29-52.33l.75 2.41 1.58-2.11zM61.06-43.73l-.32-2.76-2.05 1.63zM43.11-45.99l-.34 2.51 2.33-1.24zM51.31-45.38l2.6-.5-1.52-1.79zM50.71-42.19l1.03 2.31 1.33-2.28zM66.08-65.5l-2.18-.9.1 2.53zM53.99-65.71l-1.14-2.06-1.5 2.04zM53.99-60.97l-2.44-.66.93 2.47zM49.22-55.66 47-54.23l2.08 1.1zM47.74-58.4l-1.2-2.68-1.55 2.1zM48.44-49.72l-2.61.39 1.45 1.86zM41.94-52.06l-2.64-.09 1.08 2.09zM70.94-61.73l-1.79-1.52-.68 2.44zM39.98-66.21l-1.44-1.89-1.02 2.08zM39.86-63.14l-1.8 1.47 2.32.85zM61.76-37.97l.1 2.53 2.07-1.63zM1-11.03l1.23.05-1.08-2.09-.15.19M72.34-48.48l-1.41 1.79 1.41.05M72.34-12.87l-1.41 1.79 1.41.05M30.69-34.59l1.22 2.13 1.36-2.59zM5.85-35.24l2.06.78-.06-2.23zM31.21-2.69l2.29-.61-1.7-1.28zM34.58-7.28l1.4 1.61.57-2.35zM2.52-2.44l2.55-.69-1.64-1.68zM19.09-31.21l2.15-.75-1.95-1.36zM23.91-27.79l-.17-2.35-2.22 1.22zM12.43-36.84l1.64 1.71.62-2.02zM10.27-28.54l-2.06-1.13-.18 2.52zM22.57-21.96l.86-2.49-2.31.42zM28.47-21.17l-1.29-2.3-1.22 2.01zM33.79-21.16l-2.06-1.47.01 2.64zM34.15-17.2l2.02 1.52.04-2.64zM32.12-11.71l.88-2.21-2.1.28zM7.57-20.71l-1.48-2.53-1.31 2.26zM18.18-17.23l2.25-1.38-2.06-1.14zM28.95-7.29l2.03-1.25-1.86-1.02zM20.08-4.56l1.66 1.69.59-2.03zM8.48-3.96l2.59.5-.74-2.23zM19.48-12.56l2.63.18-1.01-2.12zM25.48-17.17l.75 2.41 1.58-2.11zM24.62-9.89l-1.91 1.24 2.22.85zM6.02-8.56 8.34-9.8l-1.98-1.27zM16.68-10.36l-1.51-1.79-1.08 2.29zM13.89-6.05l1.02 2.31 1.33-2.28zM30.53-29.84l-2.41-1 .1 2.81zM12.65-30.59l2.64.02-1.14-2.05zM17.41-24.46l1.51-1.8-2.44-.67zM11.83-17.89l2.08 1.1.13-2.53zM13.41-23.46l-1.08-2.41-1.4 1.89zM11.36-14.92l-2.61.4 1.45 1.85zM5.6-17.26l-2.63-.1 1.08 2.09zM35.43-26.18l-2-1.68-.75 2.71zM2.28-31.43l2.46-.2-1.44-1.89zM2.26-25.82l2.31.86-.51-2.32zM38.57-10.63l-.97-1.88-1.4 1.8zM67.4-32.93l1.09 1.91 1.23-2.33zM40.29-34.33l2.28.87-.06-2.48zM65.95-2.81l2.55-.68-1.88-1.42zM69.69-7.48l1.55 1.79.64-2.61zM38.91-2.67l2.55-.69-1.65-1.68zM58.43-33.98l-2.17-1.51-.22 2.34zM59.91-27.63l-.17-2.34-2.22 1.21zM49.19-34.45l-2.5.34 1.82 1.91zM46.11-28.43l-2.06-1.14-.18 2.52zM58.62-22.68l-2.31.42 1.45 2.07zM61.2-22.21l2.51.29-1.29-2.3zM67.52-23.43l.01 2.63 2.04-1.16zM70.51-16.27l.04-2.64-2.07 1.13zM65.19-13.72l1.22 1.93.88-2.21zM40.77-22.53l-1.31 2.26 2.79.27zM55.15-17.85l-2.06-1.13-.18 2.52zM62.77-6.82l2.24-1.39-2.06-1.13zM55.43-3.99l1.85 1.88.65-2.26zM45.48-3.13l2.59.5-.74-2.23zM55.55-13.02l2.63.18-1.01-2.13zM61.07-16.86l.75 2.41 1.58-2.11zM59.67-7.42l-.33-2.33-2.13 1.38zM42.73-7.49l2.33-1.24L43.08-10zM49.79-9.8l2.59-.5-1.52-1.79zM50.74-6.48l1.02 2.32 1.33-2.29zM66.01-30.05l-2.18-.9.1 2.53zM51.27-29.73l2.64.02-1.14-2.06zM52.14-26.76l.93 2.47 1.51-1.81zM48.07-17.13l.14-2.52-2.22 1.43zM49.07-22.79 48-25.2l-1.4 1.89zM45.38-13.31l1.44 1.85 1.17-2.25zM42.68-15.89l-2.63-.09 1.08 2.09zM71.31-26.73l-1.8-1.52-.67 2.44zM36.27-30.7l2.74-.21-1.61-2.1zM40.52-25.02l-.58-2.58-1.99 1.63zM27.88-72.3 26-70.83l-.05-1.47M63.55-72.3l-1.87 1.47-.06-1.47M27.86-1l.22-.17-2.17-.9.04 1.07M63.54-1l.21-.17-2.17-.9.04 1.07M1-48.49v1.85M72.34-46.64v-1.84M25.95-1h1.91M1-11.03v-1.85M61.62-1h1.91M72.34-11.03v-1.85M63.55-72.3h-1.93M27.88-72.3h-1.93" style="fill:#00aeef"/></svg>