<svg xmlns="http://www.w3.org/2000/svg" xml:space="preserve" width="86.61" height="86.61" viewBox="0 -86.61 86.61 86.61"><path d="M0-86.61h86.61V0H0z" style="fill:none"/><path d="m0-72.15.09-.11.66 1.27-.75-.03M20.18-85.15l-1.42.25.67 1.17zM3.53-85.13l-.04-1.36-1.21.88zM18.83-66.36l-1.15-.86-.4 1.28zM20.01-68.2l.94 1.08.39-1.58zM2.72-66.33l-1-1.02-.55 1.43zM12.75-85.27l-1.31-.91-.14 1.42zM14.12-82.23l-.1-1.42-1.35.73zM7.37-85.66l-1.52.21 1.1 1.16zM4.67-82.84l-.12 1.53 1.37-.84zM13.61-79.38l-1.56.29.98 1.39zM15.65-78.08l-.74 1.22 1.53.18zM18.64-78.39l.01 1.6 1.24-.71zM21.03-75.35l-1.26.68 1.23.92zM17.33-72.24l.82 1.3.59-1.49zM3.61-76.38l-.9-1.54-.79 1.38zM10.08-76.52l-.11 1.53 1.36-.84zM15.75-69.63l-.11 1.53 1.36-.84zM10.46-66.29l1.13 1.15.39-1.38zM6.74-67.02l-.45-1.36-1.12 1.05zM11.37-72.01l1.78.13-.68-1.43zM14.68-74.81l.45 1.46.96-1.28zM13.36-68.33l-.21-1.42-1.29.84zM3.54-70.57l-.21 1.52 1.41-.75zM8.21-70.64l1.58-.3-.93-1.09zM10.06-68.86l-1.42-.02.62 1.41zM17.79-82.44l-1.32-.55.06 1.54zM10.43-82.51l-.69-1.25-.91 1.24zM8.78-80.72l.57 1.5.91-1.09zM7.6-76.51l-1.34.87 1.26.66zM5.05-78.52l1.67.35-.73-1.63zM6.61-73.08l-1.58.23.87 1.13zM3.13-74.33l-1.61-.05.66 1.27zM20.85-80.28l-1.09-.92-.41 1.48zM.55-82.73l1.5-.12-.88-1.14zM1.99-81.09l-1.22.99 1.57.58zM22.07-71.78l-.95 1.21 1.6.06zM14.36-64.95l.06 1.38 1.13-.89zM41.85-85.15l-1.41.25.66 1.17zM25.29-85.04l-.04-1.51-1.35.98zM40.73-66.02l-.37 1.15 1.4-.38zM43.03-69.09l-1.33.51.94 1.08zM22.84-66.08l1.55-.42-1-1.02zM33.91-85.2l-1.32-.92-.13 1.43zM36.19-81.19l-.1-1.43-1.35.74zM29.04-85.66l-1.52.21 1.1 1.16zM26.33-82.74l-.11 1.53 1.36-.84zM35.64-79.43l-1.41.26.89 1.26zM37.37-78.01l-.74 1.22 1.53.18zM39.99-78.03v1.6l1.25-.71zM43.04-76.01l-1.25.69 1.23.92zM39.22-72.88l.81 1.3.6-1.48zM25.36-76.46l-.9-1.54-.8 1.38zM32.15-76.44l-.11 1.53 1.36-.85zM39.84-68.64l-1.13-.62-.1 1.38zM33.17-67.08l1.12 1.14.4-1.37zM26.78-66.21l1.57.3-.45-1.35zM34.17-72.33l-.62-1.29-.98 1.18zM36.02-74.48l.45 1.46.96-1.28zM36.49-69.26l-.2-1.68-1.24.99zM25.58-70.63l-.21 1.52 1.42-.75zM30.57-70.26l1.57-.3-.92-1.09zM30.2-68.32l.62 1.4.81-1.38zM39.53-82.48l-1.32-.55.06 1.54zM32.19-82.61l-.69-1.25-.91 1.24zM32.19-79.73l-1.48-.4.57 1.5zM29.29-76.5l-1.35.86 1.27.67zM28.39-78.17l-.72-1.63-.95 1.28zM28.82-72.89l-1.59.23.88 1.13zM24.87-74.31l-1.6-.06.66 1.27zM42.49-80.19l-1.09-.92-.41 1.48zM23.68-82.91l-.88-1.15-.61 1.26zM23.61-81.05l-1.09.89 1.4.52zM36.91-65.76l.06 1.54 1.26-.99zM0-49.39l.75.03-.66-1.27-.09.11M43.43-72.26l-.95 1.2 1.61.07zM44.09-49.36l-.66-1.27-.95 1.21zM19.61-63.99l-1.57.29.73 1.29zM4.2-63.62l-.04-1.36-1.21.88zM19.74-44.7l-1.03-.78-.36 1.15zM20.71-46.96l.84.97.35-1.42zM.93-44.18l1.54-.41-.99-1.02zM12.3-62.11l-1.19-.82-.12 1.28zM13.92-59.58l-.1-1.42-1.35.74zM6.95-65.07l.99 1.04.38-1.23zM4.38-60.72l-.11 1.53 1.36-.84zM13.11-56.03l.52-1.52-1.41.26zM15.16-55.73l1.53.18-.79-1.4zM19.92-55.54l-1.25-.9.01 1.6zM21.39-53.82l-1.25.68 1.23.92zM18.9-49.81l.54-1.34-1.28.17zM2.29-55.44l1.7.17-.9-1.54zM10.44-53.16 11.8-54l-1.25-.69zM16.98-47.12l1.23-.76-1.13-.62zM12.75-45.85l-1.36.2 1.01 1.03zM5.51-45.15l1.57.3-.45-1.35zM12.83-50.21l-.62-1.29-.98 1.18zM14.87-53.12l.45 1.46.97-1.28zM14.35-48.7l-1.16.75 1.35.52zM3.26-49.42l-.21 1.53 1.41-.76zM7.99-49.18l1.58-.3-.93-1.09zM10.06-47.19l-1.43-.01.62 1.4zM16.47-61.43l.07 1.71 1.4-1.1zM7.99-62.51l-.91 1.24 1.6.01zM9.4-59.05l.57 1.5.91-1.1zM7.84-52.89l.08-1.54-1.34.87zM6.88-58.41l-.85 1.15 1.51.32zM4.71-51.52l.88 1.13.71-1.36zM2.8-53.18l-1.6-.06.65 1.27zM20.92-58.6l-1.22-1.02-.45 1.65zM.78-61.79l1.49-.11-.87-1.15zM.77-58.37l1.4.52-.31-1.41zM23.18-49.02l-.59-1.15-.85 1.09zM40.34-62.7l.66 1.17.75-1.42zM25.26-63.02l-.04-1.51-1.35.99zM40.07-44.25l1.54-.41-1.14-.86zM42.67-46.15l.39-1.59-1.33.51zM23.45-44.66l1.55-.41-1-1.02zM34.89-63.33l-1.32-.92-.13 1.42zM35.78-59.47l-.09-1.43-1.35.74zM29.28-63.62l-1.52.21 1.1 1.16zM26.16-60.66l-.12 1.54 1.37-.84zM35-56.47l-1.4.26.88 1.25zM36.57-56.19l1.53.18-.79-1.4zM41.66-56.03l-1.25-.9.01 1.61zM42.23-52.57l.02-1.61-1.25.69zM40.27-51.19l-1.28.17.74 1.17zM23.36-55.01l1.7.17-.9-1.54zM32.9-53.53l-1.25-.69-.12 1.53zM38.89-47.68l-1.25-.69-.12 1.53zM33.07-45.11l1.12 1.14.4-1.37zM27.23-44.32l1.57.31-.45-1.36zM33.14-50.6l1.6.11-.62-1.29zM36.49-52.94l.46 1.47.96-1.28zM35.64-47.2l-.2-1.41-1.29.83zM25.35-47.24l1.42-.76-1.21-.77zM29.64-48.65l1.57-.3-.92-1.09zM30.22-46.63l.62 1.41.8-1.39zM38.17-61.49l.06 1.53 1.26-.99zM32.14-60.74l-.69-1.25-.91 1.24zM32.55-58.54l-1.48-.41.56 1.5zM28.68-54.63l-1.35.87 1.27.66zM29.2-56.54 28.55-58l-.85 1.15zM26.96-50.78l.88 1.13.7-1.37zM25.32-52.34l-1.6-.06.66 1.27zM43.05-58.63l-1.09-.92-.41 1.48zM22.11-62.75l-.68 1.41 1.66-.13zM24.01-57.89l-.35-1.57-1.21.99zM16.33-86.61l-1.14.89-.03-.89M38-86.61l-1.14.89-.03-.89M16.38-43.69l-1.42-.11.53 1.44zM36.37-42.84l1.6.01-.69-1.25zM63.5-85.15l-1.41.25.67 1.17zM46.86-85.13l-.04-1.36-1.21.88zM62.16-66.36l-1.15-.86-.4 1.28zM63.34-68.2l.94 1.08.39-1.58zM44.49-65.92l1.55-.41-1-1.02zM56.08-85.27l-1.31-.91-.14 1.42zM57.45-82.23l-.1-1.42-1.35.73zM50.7-85.66l-1.53.21 1.11 1.16zM47.99-82.84l-.11 1.53 1.37-.84zM56.94-79.38l-1.57.29.98 1.39zM58.98-78.08l-.74 1.22 1.53.18zM61.97-78.39l.01 1.6 1.24-.71zM64.36-75.35l-1.26.68 1.23.92zM60.66-72.24l.82 1.3.59-1.49zM46.94-76.38l-.9-1.54-.8 1.38zM53.41-76.52l-.12 1.53 1.37-.84zM59.08-69.63l-.11 1.53 1.36-.84zM53.79-66.29l1.13 1.15.39-1.38zM50.07-67.02l-.45-1.36-1.12 1.05zM54.7-72.01l1.78.13-.69-1.43zM58-74.81l.46 1.46.96-1.28zM56.69-68.33l-.21-1.42-1.29.84zM46.87-70.57l-.21 1.52 1.41-.75zM51.54-70.64l1.57-.3-.92-1.09zM53.39-68.86l-1.43-.02.63 1.41zM61.12-82.44l-1.32-.55.06 1.54zM53.76-82.51l-.69-1.25-.91 1.24zM52.11-80.72l.56 1.5.92-1.09zM50.93-76.51l-1.34.87 1.26.66zM48.38-78.52l1.67.35-.73-1.63zM49.94-73.08l-1.59.23.88 1.13zM46.45-74.33l-1.6-.05.66 1.27zM64.18-80.28l-1.09-.92-.41 1.48zM45.38-82.85l-.88-1.14-.62 1.26zM45.31-81.09l-1.21.99 1.56.58zM65.4-71.78l-.95 1.21 1.6.06zM57.69-64.95l.06 1.38 1.13-.89zM85.17-85.15l-1.41.25.67 1.17zM68.62-85.04l-.04-1.51-1.35.98zM83.69-64.87l1.4-.38-1.03-.77zM86.36-69.09l-1.33.51.94 1.08zM66.17-66.08l1.55-.42-1-1.02zM77.24-85.2l-1.32-.92-.14 1.43zM79.52-81.19l-.1-1.43-1.35.74zM72.37-85.66l-1.52.21 1.1 1.16zM69.66-82.74l-.11 1.53 1.36-.84zM78.97-79.43l-1.41.26.88 1.26zM80.7-78.01l-.74 1.22 1.53.18zM83.32-78.03v1.6l1.25-.71zM85.12-75.32l1.23.92.02-1.61zM82.54-72.88l.82 1.3.6-1.48zM68.69-76.46l-.9-1.54-.8 1.38zM75.48-76.44l-.11 1.53 1.36-.85zM83.17-68.64l-1.13-.62-.1 1.38zM76.5-67.08l1.12 1.14.4-1.37zM70.1-66.21l1.58.3-.45-1.35zM77.49-72.33l-.61-1.29-.98 1.18zM79.34-74.48l.46 1.46.96-1.28zM79.82-69.26l-.2-1.68-1.24.99zM68.91-70.63l-.21 1.52 1.42-.75zM73.89-70.26l1.58-.3-.92-1.09zM73.53-68.32l.62 1.4.81-1.38zM82.86-82.48l-1.32-.55.06 1.54zM75.52-82.61l-.69-1.25-.91 1.24zM75.52-79.73l-1.48-.4.56 1.5zM72.62-76.5l-1.35.86 1.27.67zM71.72-78.17l-.73-1.63-.94 1.28zM72.15-72.89l-1.59.23.88 1.13zM68.2-74.31l-1.6-.06.65 1.27zM85.82-80.19l-1.09-.92-.41 1.48zM67.01-82.91l-.88-1.15-.61 1.26zM66.94-81.05l-1.09.89 1.4.52zM80.24-65.76l.06 1.54 1.26-.99zM86.61-72.08l-.8 1.02.8.04M86.61-50.44l-.8 1.02.8.03M62.94-63.99l-1.57.29.73 1.29zM47.52-63.62l-.03-1.36-1.21.88zM61.68-44.33l1.39-.37-1.03-.78zM64.58-46.14l.35-1.43-1.2.46zM44.33-44.52l1.55-.41-1-1.02zM55.62-62.11l-1.18-.82-.12 1.28zM57.24-59.58 57.15-61l-1.35.74zM50.27-65.07l1 1.04.38-1.23zM47.71-60.72l-.11 1.53 1.36-.84zM56.44-56.03l.52-1.52-1.41.26zM58.49-55.73l1.53.18-.79-1.4zM63.25-55.54l-1.25-.9.01 1.6zM64.72-53.82l-1.25.68 1.23.92zM62.23-49.81l.54-1.34-1.28.17zM45.62-55.44l1.7.17-.9-1.54zM53.77-53.16l1.36-.84-1.25-.69zM60.31-47.12l1.23-.76-1.13-.62zM56.29-45.67l-1.37.21 1.01 1.03zM48.11-44.85l1.57.31-.45-1.36zM56.16-50.21l-.62-1.29-.98 1.18zM58.2-53.12l.45 1.46.96-1.28zM57.68-48.7l-1.16.75 1.34.52zM46.59-49.42l-.21 1.53 1.41-.76zM51.28-48.68l1.58-.3-.92-1.09zM51.39-46.75l.62 1.41.8-1.39zM59.8-61.43l.07 1.71 1.4-1.1zM51.31-62.51l-.9 1.24 1.6.01zM52.73-59.05l.57 1.5.91-1.1zM51.17-52.89l.08-1.54-1.34.87zM50.21-58.41l-.85 1.15 1.51.32zM48.04-51.52l.88 1.13.7-1.36zM46.2-53.78l-1.6-.06.66 1.27zM64.24-58.6l-1.21-1.02-.46 1.65zM44.11-61.79l1.49-.11-.88-1.15zM44.18-59.19l1.4.52-.31-1.41zM64.71-49.2l1.44.05-.59-1.14zM85.08-62.95l-1.41.25.66 1.17zM68.58-63.02l-.03-1.51-1.35.99zM84.34-44.81l-1.15-.87-.4 1.28zM86-46.15l.39-1.59-1.33.51zM67.91-44.73l-1-1.02-.55 1.43zM78.22-63.33l-1.32-.92-.13 1.42zM79.11-59.47l-.09-1.43-1.35.74zM72.61-63.62l-1.53.21 1.11 1.16zM69.48-60.66l-.11 1.54 1.36-.84zM78.33-56.47l-1.4.26.88 1.25zM79.9-56.19l1.53.18-.79-1.4zM84.99-56.03l-1.25-.9.01 1.61zM85.58-54.18l-1.26.69 1.24.92zM83.6-51.19l-1.28.17.74 1.17zM68.39-54.84l-.9-1.54-.8 1.37zM76.23-53.53l-1.25-.69-.12 1.53zM80.97-48.37l-.12 1.53 1.37-.84zM77.52-43.97l.39-1.37-1.51.23zM70.35-44.59l1.58.3-.46-1.35zM76.47-50.6l1.6.11-.62-1.29zM79.82-52.94l.46 1.47.96-1.28zM77.48-47.78l1.49.58-.2-1.41zM68.68-47.24l1.41-.76-1.2-.77zM72.97-48.65l1.57-.3-.92-1.09zM73.54-46.63l.63 1.41.8-1.39zM81.5-61.49l.06 1.53 1.26-.99zM75.47-60.74l-.69-1.25-.92 1.24zM75.88-58.54l-1.48-.41.56 1.5zM71.93-53.1l.08-1.53-1.35.87zM72.53-56.54 71.88-58l-.85 1.15zM70.29-50.78l.88 1.13.7-1.37zM68.65-52.34l-1.6-.06.66 1.27zM84.95-59.85l-.41 1.48 1.5-.56zM65.44-62.75l-.68 1.41 1.66-.13zM67.33-57.89l-.34-1.57-1.22.99zM59.66-86.61l-1.14.89-.03-.89M81.33-86.61l-1.14.89-.03-.89M58.12-42.7l1.58-.25-.89-1.12zM81.59-43.84l-1.42.22.85 1.28zM0-28.83l.09-.12.66 1.27-.75-.03M18.35-41.85l.66 1.16.75-1.41zM2.28-42.29l1.25.47-.04-1.36zM17.28-22.63l1.55-.42-1.15-.86zM20.01-24.89l.94 1.08.39-1.58zM2.72-23.02l-1-1.02-.55 1.43zM12.75-41.95l-1.31-.92-.14 1.42zM14.12-38.92l-.1-1.42-1.35.74zM5.85-42.14l1.1 1.16.42-1.37zM5.92-38.84l-1.25-.69L4.55-38zM13.61-36.07l-1.56.29.98 1.4zM16.5-34.07l-.79-1.39-.74 1.22zM20.27-34.11 19.02-35l.01 1.6zM19.77-31.36l1.23.92.03-1.6zM18.74-29.12l-1.41.19.82 1.3zM3.61-33.07l-.9-1.53-.79 1.37zM11.33-32.52l-1.25-.69-.11 1.53zM15.64-24.79l1.36-.84-1.25-.69zM10.46-22.97l1.13 1.14.39-1.37zM5.17-24.01l1.57.3-.45-1.35zM11.37-28.69l1.78.12-.68-1.43zM14.86-31.99l.46 1.46.96-1.28zM13.36-25.02l-.21-1.41-1.29.83zM4.74-26.49l-1.2-.77-.21 1.53zM8.21-27.32l1.58-.3-.93-1.09zM9.26-24.16l.8-1.39-1.42-.01zM18.18-39.41l-1.32-.55.06 1.54zM10.43-39.19l-.69-1.25-.91 1.24zM10.26-37l-1.48-.4.57 1.5zM7.52-31.66l.08-1.54-1.34.87zM5.99-36.49l-.94 1.28 1.67.35zM5.03-29.53l.87 1.12.71-1.36zM3.13-31.01l-1.61-.06.66 1.27zM18.67-36.59l1.5-.57-1.1-.92zM1.17-40.68l-.62 1.26 1.5-.11zM1.99-37.77l-1.22.99 1.57.57zM22.72-27.2l-.65-1.27-.95 1.21zM15.55-21.15l-1.19-.49.06 1.38zM40.76-40.53l.74-1.42-1.41.25zM25.29-41.73l-.04-1.51-1.35.98zM40.73-22.71l-.37 1.15 1.4-.37zM43.03-25.77l-1.33.5.94 1.08zM24.39-23.18l-1-1.02-.55 1.43zM34.29-41.74l-1.32-.91-.13 1.42zM36.19-37.88l-.1-1.42-1.35.73zM28.62-40.98l.42-1.37-1.52.21zM26.33-39.43l-.11 1.53 1.36-.84zM34.23-35.85l.89 1.25.52-1.51zM36.63-33.47l1.53.17-.79-1.4zM39.99-34.72v1.6l1.25-.71zM41.79-32.01l1.23.92.02-1.6zM40.03-28.27l.6-1.48-1.41.19zM25.36-33.15l-.9-1.54-.8 1.38zM33.4-32.44l-1.25-.69-.11 1.53zM38.61-24.56l1.23-.76-1.13-.62zM34.29-22.63l.4-1.37-1.52.23zM26.78-22.9l1.57.3-.45-1.35zM34.17-29.02l-.62-1.29-.98 1.18zM37.43-30.99l-1.41-.18.45 1.47zM36.49-25.95l-.2-1.67-1.24.99zM25.37-25.79l1.42-.76-1.21-.77zM30.57-26.95l1.57-.3-.92-1.09zM30.2-25.01l.62 1.41.81-1.39zM38.21-39.72l.06 1.54 1.26-.99zM32.19-39.3l-.69-1.25-.91 1.24zM31.28-35.32l.91-1.1-1.48-.4zM29.29-33.19l-1.35.87 1.27.66zM28.39-34.86l-.72-1.63-.95 1.28zM28.82-29.58l-1.59.24.88 1.12zM24.87-31l-1.6-.06.66 1.27zM42.49-36.88l-1.09-.92-.41 1.48zM21.66-39.83l1.49-.11-.88-1.15zM23.92-36.32l-.31-1.41-1.09.88zM38.23-21.9l-1.32-.54.06 1.53zM0-6.08l.75.03-.66-1.27L0-7.2M44.09-27.68l-.66-1.27-.95 1.21zM44.09-6.05l-.66-1.27-.95 1.21zM18.04-20.39l.73 1.29.84-1.57zM2.95-20.79l1.25.48-.04-1.36zM18.35-1.01l1.39-.38-1.03-.77zM20.4-3.8l.85.97.35-1.42zM.93-.86l1.54-.42-.99-1.02zM10.99-18.34l1.31-.46-1.19-.82zM12.47-16.95l1.45.69-.1-1.43zM6.95-21.76l.99 1.04.38-1.23zM5.63-16.71l-1.25-.69-.11 1.53zM13.11-12.72l.52-1.51-1.41.25zM16.69-12.24l-.79-1.4-.74 1.22zM19.92-12.23l-1.25-.9.01 1.61zM20.14-9.83l1.23.92.02-1.6zM18.9-6.5l.54-1.34-1.28.17zM3.99-11.96l-.9-1.54-.8 1.38zM10.44-9.84l1.36-.85-1.25-.68zM16.98-3.81l1.23-.75-1.13-.63zM11.59-2.15l1.01 1.03.36-1.23zM4.55-1.78l1.57.3-.45-1.36zM11.23-7.01l1.6.11-.62-1.29zM14.87-9.81l.45 1.47.97-1.29zM13.19-4.64l1.35.53-.19-1.28zM3.05-4.58l1.41-.76-1.2-.76zM9.53-5.67l-.92-1.09-.66 1.39zM7.83-3.06l.62 1.41.81-1.39zM17.94-17.51l-1.47-.6.07 1.7zM7.08-17.96l1.6.01-.69-1.25zM9.97-14.24l.91-1.09-1.48-.41zM6.58-10.25l1.26.67.08-1.53zM7.54-13.63l-.66-1.46-.85 1.14zM6.3-8.44l-1.59.24.88 1.12zM2.8-9.86l-1.6-.06.65 1.27zM20.92-15.28l-1.22-1.03-.45 1.65zM.78-18.48l1.49-.11-.87-1.15zM.77-15.06l1.4.52-.31-1.41zM22.83-5.83l-.59-1.15-.86 1.09zM40.34-19.39l.66 1.17.75-1.42zM23.87-20.23l1.39.53-.04-1.51zM39.46-1.09l1.55-.41-1.15-.86zM41.73-3.92l.94 1.08.39-1.58zM23.03-1l1.55-.42-1-1.02zM33.57-20.94l-.13 1.42 1.45-.5zM35.78-16.16l-.09-1.43-1.35.74zM29.28-20.31l-1.52.21 1.1 1.16zM27.41-16.65l-1.25-.69-.12 1.53zM35-13.16l-1.4.26.88 1.26zM36.57-12.87l1.53.17-.79-1.4zM40.41-13.61l.01 1.6 1.24-.71zM42.23-9.26l.02-1.6-1.25.68zM38.99-7.71l.74 1.17.54-1.34zM24.16-13.07l-.8 1.38 1.7.16zM32.9-10.22l-1.25-.69-.12 1.53zM37.52-3.52l1.37-.84-1.25-.69zM33.07-1.8l1.12 1.14.4-1.37zM27.02-1.28l1.58.31-.46-1.36zM33.14-7.29l1.6.11-.62-1.29zM36.49-9.62l.46 1.46.96-1.28zM35.64-3.89l-.2-1.41-1.29.83zM25.35-3.93l1.42-.76-1.21-.76zM29.64-5.34l1.57-.29-.92-1.1zM30.22-3.31l.62 1.4.8-1.38zM39.49-17.64l-1.32-.54.06 1.54zM30.54-17.44l1.6.01-.69-1.25zM31.07-15.64l.56 1.5.92-1.09zM28.6-9.78l.08-1.54-1.35.87zM29.2-13.23l-.65-1.46-.85 1.15zM26.96-7.47l.88 1.13.7-1.36zM25.32-9.03l-1.6-.06.66 1.27zM42.71-15.62l-1.09-.92-.41 1.48zM21.43-18.03l1.66-.13-.98-1.27zM24.01-14.58l-.35-1.56-1.21.98zM16.34 0l.11-.09-1.32-.55.03.64M38.01 0l.11-.09-1.32-.55.03.64M62.09-41.59l.67 1.17.74-1.42zM45.61-42.29l1.25.47-.04-1.36zM60.61-22.63l1.55-.42-1.15-.86zM63.34-24.89l.94 1.08.39-1.58zM44.49-22.61l1.55-.41-1-1.02zM56.08-41.95l-1.31-.92-.14 1.42zM57.45-38.92l-.1-1.42-1.35.74zM49.17-42.14l1.11 1.16.42-1.37zM49.25-38.84l-1.26-.69-.11 1.53zM56.94-36.07l-1.57.29.98 1.4zM59.77-33.37l-.79-1.4-.74 1.23zM63.22-34.18l-1.25-.9.01 1.6zM63.1-31.36l1.23.92.03-1.6zM60.66-28.93l.82 1.3.59-1.49zM45.24-33.23l1.7.16-.9-1.53zM54.66-32.52l-1.25-.69-.12 1.53zM58.97-24.79l1.36-.84-1.25-.69zM53.79-22.97l1.13 1.14.39-1.37zM48.5-24.01l1.57.3-.45-1.35zM54.7-28.69l1.78.12-.69-1.43zM58-31.5l.46 1.47.96-1.29zM56.69-25.02l-.21-1.41-1.29.83zM48.07-26.49l-1.2-.77-.21 1.53zM51.54-27.32l1.57-.3-.92-1.09zM52.59-24.16l.8-1.39-1.43-.01zM61.12-39.13l-1.32-.55.06 1.54zM53.76-39.19l-.69-1.25-.91 1.24zM53.59-37l-1.48-.4.56 1.5zM50.85-31.66l.08-1.54-1.34.87zM49.32-36.49l-.94 1.28 1.67.35zM48.35-29.53l.88 1.12.71-1.36zM44.85-31.07l.66 1.27.94-1.21zM62.68-36.4l1.5-.57-1.09-.92zM45.38-39.53l-.88-1.15-.62 1.26zM45.66-36.21l-.35-1.56-1.21.99zM66.05-27.2l-.65-1.27-.95 1.21zM58.88-21.15l-1.19-.49.06 1.38zM83.76-41.59l.67 1.17.74-1.42zM68.62-41.73l-.04-1.51-1.35.98zM85.09-21.93l-1.03-.78-.37 1.15zM86.36-25.77l-1.33.5.94 1.08zM67.72-23.18l-1-1.02-.55 1.43zM77.24-41.89l-1.32-.91-.14 1.42zM79.52-37.88l-.1-1.42-1.35.73zM71.95-40.98l.42-1.37-1.52.21zM69.66-39.43l-.11 1.53 1.36-.84zM78.44-34.6l.53-1.51-1.41.26zM79.96-33.47l1.53.17-.79-1.4zM84.57-33.83l-1.25-.89v1.6zM85.12-32.01l1.23.92.02-1.6zM83.36-28.27l.6-1.48-1.42.19zM68.69-33.15l-.9-1.54-.8 1.38zM76.73-32.44l-1.25-.69-.11 1.53zM81.94-24.56l1.23-.76-1.13-.62zM76.5-23.77l1.12 1.14.4-1.37zM70.1-22.9l1.58.3-.45-1.35zM77.49-29.02l-.61-1.29-.98 1.18zM80.76-30.99l-1.42-.18.46 1.47zM79.82-25.95l-.2-1.67-1.24.99zM68.7-25.79l1.42-.76-1.21-.77zM73.89-26.95l1.58-.3-.92-1.09zM73.53-25.01l.62 1.41.81-1.39zM81.54-39.72l.06 1.54 1.26-.99zM75.52-39.3l-.69-1.25-.91 1.24zM74.6-35.32l.92-1.1-1.48-.4zM72.62-33.19l-1.35.87 1.27.66zM71.72-34.86l-.73-1.63-.94 1.28zM72.15-29.58l-1.59.24.88 1.12zM68.2-31l-1.6-.06.65 1.27zM85.82-36.88l-1.09-.92-.41 1.48zM65.52-39.48l1.49-.12-.88-1.15zM67.25-36.32l-.31-1.41-1.09.88zM81.56-21.9l-1.32-.54.06 1.53zM86.61-28.76l-.8 1.02.8.03M86.61-7.13l-.8 1.02.8.03M61.37-20.39l.73 1.29.84-1.57zM46.28-20.79l1.24.48-.03-1.36zM61.68-1.01l1.39-.38-1.03-.77zM63.73-3.8l.85.97.35-1.42zM44.26-.86l1.54-.42-1-1.02zM54.32-18.34l1.3-.46-1.18-.82zM55.8-16.95l1.44.69-.09-1.43zM50.27-21.76l1 1.04.38-1.23zM48.96-16.71l-1.25-.69-.11 1.53zM56.44-12.72l.52-1.51-1.41.25zM60.02-12.24l-.79-1.4-.74 1.22zM63.25-12.23l-1.25-.9.01 1.61zM63.47-9.83l1.23.92.02-1.6zM62.23-6.5l.54-1.34-1.28.17zM47.32-11.96l-.9-1.54-.8 1.38zM53.77-9.84l1.36-.85-1.25-.68zM60.31-3.81l1.23-.75-1.13-.63zM54.92-2.15l1.01 1.03.36-1.23zM47.87-1.78l1.58.3L49-2.84zM54.56-7.01l1.6.11-.62-1.29zM58.2-9.81l.45 1.47.96-1.29zM56.52-4.64l1.34.53-.18-1.28zM46.38-4.58l1.41-.76-1.2-.76zM52.86-5.67l-.92-1.09-.66 1.39zM51.16-3.06l.62 1.41.81-1.39zM61.27-17.51l-1.47-.6.07 1.7zM50.41-17.96l1.6.01-.7-1.25zM53.3-14.24l.91-1.09-1.48-.41zM49.91-10.25l1.26.67.08-1.53zM50.87-13.63l-.66-1.46-.85 1.14zM49.62-8.44l-1.58.24.88 1.12zM46.13-9.86l-1.61-.06.66 1.27zM64.24-15.28l-1.21-1.03-.46 1.65zM44.11-18.48l1.49-.11-.88-1.15zM44.09-15.06l1.41.52-.31-1.41zM66.15-5.83l-.59-1.15-.85 1.09zM83.67-19.39l.66 1.17.75-1.42zM67.2-20.23l1.38.53-.03-1.51zM82.79-1.09l1.55-.41-1.15-.86zM85.06-3.92 86-2.84l.39-1.58zM66.36-1l1.55-.42-1-1.02zM78.22-20.02l-1.32-.92-.13 1.42zM79.11-16.16l-.09-1.43-1.35.74zM72.61-20.31l-1.53.21 1.11 1.16zM70.73-16.65l-1.25-.69-.11 1.53zM78.33-13.16l-1.4.26.88 1.26zM79.9-12.87l1.53.17-.79-1.4zM83.74-13.61l.01 1.6 1.24-.71zM85.56-9.26l.02-1.6-1.26.68zM82.32-7.71l.74 1.17.54-1.34zM67.49-13.07l-.8 1.38 1.7.16zM76.23-10.22l-1.25-.69-.12 1.53zM80.85-3.52l1.37-.84-1.25-.69zM76.4-1.8l1.12 1.14.39-1.37zM70.35-1.28l1.58.31-.46-1.36zM76.47-7.29l1.6.11-.62-1.29zM79.82-9.62l.46 1.46.96-1.28zM78.97-3.89l-.2-1.41-1.29.83zM68.68-3.93l1.41-.76-1.2-.76zM72.97-5.34l1.57-.29-.92-1.1zM73.54-3.31l.63 1.4.8-1.38zM82.82-17.64l-1.32-.54.06 1.54zM73.86-17.44l1.61.01-.69-1.25zM74.4-15.64l.56 1.5.92-1.09zM71.93-9.78l.08-1.54-1.35.87zM72.53-13.23l-.65-1.46-.85 1.15zM70.29-7.47l.88 1.13.7-1.36zM68.65-9.03l-1.6-.06.66 1.27zM86.04-15.62l-1.09-.92-.41 1.48zM64.76-18.03l1.66-.13-.98-1.27zM67.33-14.58l-.34-1.56-1.22.98zM59.67 0l.11-.09-1.32-.55.02.64M81.34 0l.11-.09-1.32-.55.03.64M80.16 0h1.18M86.61-6.08v-1.05M0-72.15v1.13M86.61-27.71v-1.05M36.83 0h1.18M15.16 0h1.18M0-49.39v-1.13M58.48 0h1.18M86.61-49.39v-1.06M86.61-71.02v-1.06M59.66-86.61h-1.18M0-28.83v1.12M81.33-86.61h-1.17M16.33-86.61h-1.17M38-86.61h-1.17M0-6.08V-7.2" style="fill:#ec008c"/></svg>