<svg xmlns="http://www.w3.org/2000/svg" xml:space="preserve" width="42.81" height="42.81" viewBox="1.66 -44.47 42.81 42.81"><path d="M1.66-44.47h42.81v42.81H1.66z" style="fill:none"/><path d="M43.74-43.65h-1.59M24.71-43.65h-1.59M31.05-43.65h-1.59M42.15-43.65h-1.59M29.46-43.65h-1.58M27.88-43.65h-1.59M4.09-43.65H2.51M2.51-43.65h-.85M23.12-43.65h-1.58M4.09-43.65h1.59M38.98-43.65h-1.59M37.39-43.65h-1.58M34.22-43.65h-1.58M26.29-43.65h-1.58M40.56-43.65h-1.58M21.54-43.65h-1.59M16.78-43.65h-1.59M35.81-43.65h-1.59M44.47-43.65h-.73M5.68-43.65h1.58M32.64-43.65h-1.59M13.61-43.65h-1.59M15.19-43.65h-1.58M18.36-43.65h-1.58M10.44-43.65H8.85M12.02-43.65h-1.58M19.95-43.65h-1.59M8.85-43.65H7.26M18.36-42.07h-1.58M2.51-42.07h-.85M31.05-42.07h-1.59M13.61-42.07h-1.59M16.78-42.07h-1.59M21.54-42.07h-1.59M26.29-42.07h-1.58M24.71-42.07h-1.59M23.12-42.07h-1.58M27.88-42.07h-1.59M19.95-42.07h-1.59M29.46-42.07h-1.58M15.19-42.07h-1.58M40.56-42.07h-1.58M38.98-42.07h-1.59M12.02-42.07h-1.58M43.74-42.07h-1.59M42.15-42.07h-1.59M10.44-42.07H8.85M5.68-42.07h1.58M44.47-42.07h-.73M32.64-42.07h-1.59M7.26-42.07h1.59M34.22-42.07h-1.58M5.68-42.07H4.09M4.09-42.07H2.51M35.81-42.07h-1.59M37.39-42.07h-1.58M4.09-40.48H2.51M7.26-40.48H5.68M42.15-40.48h-1.59M2.51-40.48h-.85M26.29-40.48h-1.58M44.47-40.48h-.73M27.88-40.48h-1.59M31.05-40.48h-1.59M43.74-40.48h-1.59M32.64-40.48h-1.59M29.46-40.48h-1.58M38.98-40.48h-1.59M7.26-40.48h1.59M37.39-40.48h-1.58M40.56-40.48h-1.58M35.81-40.48h-1.59M34.22-40.48h-1.58M13.61-40.48h-1.59M21.54-40.48h-1.59M19.95-40.48h-1.59M18.36-40.48h-1.58M12.02-40.48h-1.58M8.85-40.48h1.59M15.19-40.48h-1.58M16.78-40.48h-1.59M5.68-40.48H4.09M23.12-40.48h-1.58M24.71-40.48h-1.59M7.26-38.9H5.68M4.09-38.9H2.51M1.66-38.9h.85M5.68-38.9H4.09M43.74-38.9h-1.59M42.15-38.9h-1.59M44.47-38.9h-.73M8.85-38.9H7.26M29.46-38.9h-1.58M8.85-38.9h1.59M18.36-38.9h-1.58M16.78-38.9h-1.59M32.64-38.9h-1.59M19.95-38.9h-1.59M24.71-38.9h-1.59M31.05-38.9h-1.59M23.12-38.9h-1.58M21.54-38.9h-1.59M26.29-38.9h-1.58M37.39-38.9h-1.58M38.98-38.9h-1.59M13.61-38.9h-1.59M27.88-38.9h-1.59M40.56-38.9h-1.58M10.44-38.9h1.58M15.19-38.9h-1.58M35.81-38.9h-1.59M34.22-38.9h-1.58M27.88-37.31h-1.59M23.12-37.31h-1.58M29.46-37.31h-1.58M2.51-37.31h1.58M24.71-37.31h-1.59M5.68-37.31H4.09M26.29-37.31h-1.58M21.54-37.31h-1.59M35.81-37.31h-1.59M37.39-37.31h-1.58M10.44-37.31h1.58M7.26-37.31H5.68M10.44-37.31H8.85M31.05-37.31h-1.59M32.64-37.31h-1.59M8.85-37.31H7.26M34.22-37.31h-1.58M16.78-37.31h-1.59M44.47-37.31h-.73M15.19-37.31h-1.58M12.02-37.31h1.59M19.95-37.31h-1.59M42.15-37.31h-1.59M38.98-37.31h-1.59M1.66-37.31h.85M40.56-37.31h-1.58M43.74-37.31h-1.59M18.36-37.31h-1.58M23.12-35.72h-1.58M7.26-35.72H5.68M19.95-35.72h-1.59M4.09-35.72h1.59M18.36-35.72h-1.58M8.85-35.72H7.26M13.61-35.72h1.58M16.78-35.72h-1.59M21.54-35.72h-1.59M42.15-35.72h-1.59M1.66-35.72h.85M44.47-35.72h-.73M35.81-35.72h-1.59M40.56-35.72h-1.58M10.44-35.72H8.85M24.71-35.72h-1.59M27.88-35.72h-1.59M26.29-35.72h-1.58M34.22-35.72h-1.58M29.46-35.72h-1.58M31.05-35.72h-1.59M32.64-35.72h-1.59M43.74-35.72h-1.59M38.98-35.72h-1.59M2.51-35.72h1.58M12.02-35.72h-1.58M37.39-35.72h-1.58M12.02-35.72h1.59M31.05-34.14h-1.59M19.95-34.14h-1.59M2.51-34.14h1.58M13.61-34.14h-1.59M1.66-34.14h.85M21.54-34.14h-1.59M43.74-34.14h-1.59M18.36-34.14h-1.58M23.12-34.14h-1.58M12.02-34.14h-1.58M42.15-34.14h-1.59M32.64-34.14h-1.59M34.22-34.14h-1.58M44.47-34.14h-.73M5.68-34.14h1.58M10.44-34.14H8.85M8.85-34.14H7.26M35.81-34.14h-1.59M4.09-34.14h1.59M37.39-34.14h-1.58M26.29-34.14h-1.58M27.88-34.14h-1.59M29.46-34.14h-1.58M13.61-34.14h1.58M15.19-34.14h1.59M24.71-34.14h-1.59M38.98-34.14h-1.59M40.56-34.14h-1.58M15.19-32.55h1.59M43.74-32.55h-1.59M34.22-32.55h-1.58M10.44-32.55H8.85M35.81-32.55h-1.59M13.61-32.55h-1.59M42.15-32.55h-1.59M5.68-32.55h1.58M12.02-32.55h-1.58M7.26-32.55h1.59M2.51-32.55h1.58M38.98-32.55h-1.59M4.09-32.55h1.59M37.39-32.55h-1.58M21.54-32.55h-1.59M23.12-32.55h-1.58M24.71-32.55h-1.59M19.95-32.55h-1.59M40.56-32.55h-1.58M16.78-32.55h1.58M26.29-32.55h-1.58M32.64-32.55h-1.59M15.19-32.55h-1.58M29.46-32.55h-1.58M44.47-32.55h-.73M31.05-32.55h-1.59M1.66-32.55h.85M27.88-32.55h-1.59M37.39-30.97h-1.58M12.02-30.97h-1.58M16.78-30.97h1.58M44.47-30.97h-.73M32.64-30.97h-1.59M16.78-30.97h-1.59M8.85-30.97h1.59M34.22-30.97h-1.58M13.61-30.97h-1.59M35.81-30.97h-1.59M15.19-30.97h-1.58M24.71-30.97h-1.59M26.29-30.97h-1.58M18.36-30.97h1.59M42.15-30.97h-1.59M21.54-30.97h-1.59M27.88-30.97h-1.59M23.12-30.97h-1.58M1.66-30.97h.85M29.46-30.97h-1.58M4.09-30.97h1.59M40.56-30.97h-1.58M38.98-30.97h-1.59M31.05-30.97h-1.59M43.74-30.97h-1.59M5.68-30.97h1.58M7.26-30.97h1.59M2.51-30.97h1.58M18.36-29.38h-1.58M5.68-29.38h1.58M26.29-29.38h-1.58M1.66-29.38h.85M38.98-29.38h-1.59M43.74-29.38h-1.59M40.56-29.38h-1.58M16.78-29.38h-1.59M27.88-29.38h-1.59M29.46-29.38h-1.58M15.19-29.38h-1.58M24.71-29.38h-1.59M23.12-29.38h-1.58M2.51-29.38h1.58M8.85-29.38h1.59M10.44-29.38h1.58M19.95-29.38h1.59M13.61-29.38h-1.59M4.09-29.38h1.59M35.81-29.38h-1.59M31.05-29.38h-1.59M42.15-29.38h-1.59M18.36-29.38h1.59M37.39-29.38h-1.58M32.64-29.38h-1.59M44.47-29.38h-.73M7.26-29.38h1.59M34.22-29.38h-1.58M12.02-27.8h1.59M15.19-27.8h-1.58M16.78-27.8h-1.59M29.46-27.8h-1.58M42.15-27.8h-1.59M2.51-27.8h1.58M43.74-27.8h-1.59M21.54-27.8h1.58M8.85-27.8h1.59M7.26-27.8h1.59M35.81-27.8h-1.59M18.36-27.8h-1.58M5.68-27.8h1.58M40.56-27.8h-1.58M38.98-27.8h-1.59M34.22-27.8h-1.58M19.95-27.8h-1.59M1.66-27.8h.85M31.05-27.8h-1.59M32.64-27.8h-1.59M4.09-27.8h1.59M19.95-27.8h1.59M24.71-27.8h-1.59M26.29-27.8h-1.58M10.44-27.8h1.58M37.39-27.8h-1.58M44.47-27.8h-.73M27.88-27.8h-1.59M8.85-26.21h1.59M21.54-26.21h1.58M26.29-26.21h-1.58M42.15-26.21h-1.59M2.51-26.21h1.58M4.09-26.21h1.59M27.88-26.21h-1.59M23.12-26.21h1.59M1.66-26.21h.85M38.98-26.21h-1.59M18.36-26.21h-1.58M32.64-26.21h-1.59M13.61-26.21h1.58M16.78-26.21h-1.59M31.05-26.21h-1.59M12.02-26.21h1.59M34.22-26.21h-1.58M35.81-26.21h-1.59M37.39-26.21h-1.58M44.47-26.21h-.73M7.26-26.21h1.59M5.68-26.21h1.58M43.74-26.21h-1.59M40.56-26.21h-1.58M29.46-26.21h-1.58M19.95-26.21h-1.59M10.44-26.21h1.58M21.54-26.21h-1.59M1.66-24.62h.85M7.26-24.62h1.59M42.15-24.62h-1.59M8.85-24.62h1.59M2.51-24.62h1.58M4.09-24.62h1.59M37.39-24.62h-1.58M44.47-24.62h-.73M5.68-24.62h1.58M43.74-24.62h-1.59M38.98-24.62h-1.59M40.56-24.62h-1.58M23.12-24.62h-1.58M23.12-24.62h1.59M26.29-24.62h-1.58M31.05-24.62h-1.59M10.44-24.62h1.58M29.46-24.62h-1.58M18.36-24.62h-1.58M19.95-24.62h-1.59M35.81-24.62h-1.59M15.19-24.62h1.59M34.22-24.62h-1.58M27.88-24.62h-1.59M21.54-24.62h-1.59M13.61-24.62h1.58M12.02-24.62h1.59M32.64-24.62h-1.59M10.44-23.04h1.58M26.29-23.04h-1.58M35.81-23.04h-1.59M4.09-23.04h1.59M2.51-23.04h1.58M34.22-23.04h-1.58M1.66-23.04h.85M40.56-23.04h-1.58M24.71-23.04h-1.59M15.19-23.04h1.59M5.68-23.04h1.58M18.36-23.04h1.59M23.12-23.04h-1.58M21.54-23.04h-1.59M16.78-23.04h1.58M38.98-23.04h-1.59M27.88-23.04h-1.59M12.02-23.04h1.59M37.39-23.04h-1.58M13.61-23.04h1.58M8.85-23.04h1.59M32.64-23.04h-1.59M44.47-23.04h-.73M7.26-23.04h1.59M42.15-23.04h-1.59M31.05-23.04h-1.59M43.74-23.04h-1.59M29.46-23.04h-1.58M43.74-21.45h-1.59M32.64-21.45h-1.59M29.46-21.45h-1.58M16.78-21.45h1.58M37.39-21.45h-1.58M24.71-21.45h1.58M40.56-21.45h-1.58M26.29-21.45h1.59M10.44-21.45h1.58M34.22-21.45h-1.58M31.05-21.45h-1.59M15.19-21.45h1.59M4.09-21.45h1.59M2.51-21.45h1.58M8.85-21.45h1.59M35.81-21.45h-1.59M44.47-21.45h-.73M19.95-21.45h1.59M13.61-21.45h1.58M23.12-21.45h-1.58M5.68-21.45h1.58M7.26-21.45h1.59M1.66-21.45h.85M12.02-21.45h1.59M18.36-21.45h1.59M23.12-21.45h1.59M38.98-21.45h-1.59M42.15-21.45h-1.59M44.47-19.87h-.73M32.64-19.87h-1.59M2.51-19.87h1.58M26.29-19.87h1.59M31.05-19.87h-1.59M27.88-19.87h1.58M38.98-19.87h-1.59M15.19-19.87h1.59M24.71-19.87h1.58M13.61-19.87h1.58M1.66-19.87h.85M43.74-19.87h-1.59M40.56-19.87h-1.58M16.78-19.87h1.58M12.02-19.87h1.59M7.26-19.87h1.59M5.68-19.87h1.58M34.22-19.87h-1.58M42.15-19.87h-1.59M23.12-19.87h-1.58M10.44-19.87h1.58M4.09-19.87h1.59M19.95-19.87h1.59M24.71-19.87h-1.59M18.36-19.87h1.59M37.39-19.87h-1.58M8.85-19.87h1.59M35.81-19.87h-1.59M44.47-18.28h-.73M8.85-18.28h1.59M26.29-18.28h-1.58M5.68-18.28h1.58M13.61-18.28h1.58M26.29-18.28h1.59M43.74-18.28h-1.59M34.22-18.28h-1.58M42.15-18.28h-1.59M21.54-18.28h1.58M19.95-18.28h1.59M18.36-18.28h1.59M24.71-18.28h-1.59M15.19-18.28h1.59M1.66-18.28h.85M12.02-18.28h1.59M2.51-18.28h1.58M16.78-18.28h1.58M29.46-18.28h1.59M35.81-18.28h-1.59M7.26-18.28h1.59M32.64-18.28h-1.59M37.39-18.28h-1.58M10.44-18.28h1.58M4.09-18.28h1.59M27.88-18.28h1.58M40.56-18.28h-1.58M38.98-18.28h-1.59M8.85-16.69h1.59M15.19-16.69h1.59M35.81-16.69h-1.59M7.26-16.69h1.59M1.66-16.69h.85M29.46-16.69h1.59M26.29-16.69h-1.58M23.12-16.69h1.59M21.54-16.69h1.58M4.09-16.69h1.59M19.95-16.69h1.59M37.39-16.69h-1.58M34.22-16.69h-1.58M2.51-16.69h1.58M40.56-16.69h-1.58M10.44-16.69h1.58M16.78-16.69h1.58M27.88-16.69h1.58M31.05-16.69h1.59M44.47-16.69h-.73M38.98-16.69h-1.59M27.88-16.69h-1.59M12.02-16.69h1.59M5.68-16.69h1.58M43.74-16.69h-1.59M18.36-16.69h1.59M13.61-16.69h1.58M42.15-16.69h-1.59M4.09-15.11h1.59M1.66-15.11h.85M42.15-15.11h-1.59M23.12-15.11h1.59M38.98-15.11h-1.59M24.71-15.11h1.58M21.54-15.11h1.58M19.95-15.11h1.59M16.78-15.11h1.58M18.36-15.11h1.59M27.88-15.11h-1.59M40.56-15.11h-1.58M43.74-15.11h-1.59M2.51-15.11h1.58M5.68-15.11h1.58M13.61-15.11h1.58M37.39-15.11h-1.58M29.46-15.11h-1.58M44.47-15.11h-.73M29.46-15.11h1.59M32.64-15.11h1.58M10.44-15.11h1.58M12.02-15.11h1.59M8.85-15.11h1.59M35.81-15.11h-1.59M15.19-15.11h1.59M7.26-15.11h1.59M31.05-15.11h1.59M5.68-13.52h1.58M4.09-13.52h1.59M43.74-13.52h-1.59M40.56-13.52h-1.58M42.15-13.52h-1.59M2.51-13.52h1.58M26.29-13.52h1.59M44.47-13.52h-.73M37.39-13.52h-1.58M29.46-13.52h-1.58M31.05-13.52h1.59M24.71-13.52h1.58M32.64-13.52h1.58M12.02-13.52h1.59M34.22-13.52h1.59M23.12-13.52h1.59M16.78-13.52h1.58M7.26-13.52h1.59M15.19-13.52h1.59M8.85-13.52h1.59M18.36-13.52h1.59M21.54-13.52h1.58M13.61-13.52h1.58M19.95-13.52h1.59M38.98-13.52h-1.59M31.05-13.52h-1.59M10.44-13.52h1.58M1.66-13.52h.85M4.09-11.94h1.59M12.02-11.94h1.59M1.66-11.94h.85M27.88-11.94h1.58M32.64-11.94h-1.59M10.44-11.94h1.58M5.68-11.94h1.58M40.56-11.94h-1.58M42.15-11.94h-1.59M44.47-11.94h-.73M31.05-11.94h-1.59M26.29-11.94h1.59M8.85-11.94h1.59M38.98-11.94h-1.59M2.51-11.94h1.58M16.78-11.94h1.58M18.36-11.94h1.59M23.12-11.94h1.59M34.22-11.94h1.59M43.74-11.94h-1.59M19.95-11.94h1.59M13.61-11.94h1.58M21.54-11.94h1.58M35.81-11.94h1.58M7.26-11.94h1.59M32.64-11.94h1.58M24.71-11.94h1.58M15.19-11.94h1.59M40.56-10.35h-1.58M34.22-10.35h1.59M35.81-10.35h1.58M37.39-10.35h1.59M42.15-10.35h-1.59M43.74-10.35h-1.59M7.26-10.35h1.59M23.12-10.35h1.59M24.71-10.35h1.58M19.95-10.35h1.59M10.44-10.35h1.58M18.36-10.35h1.59M21.54-10.35h1.58M13.61-10.35h1.58M12.02-10.35h1.59M15.19-10.35h1.59M16.78-10.35h1.58M4.09-10.35h1.59M44.47-10.35h-.73M29.46-10.35h1.59M27.88-10.35h1.58M26.29-10.35h1.59M2.51-10.35h1.58M32.64-10.35h-1.59M5.68-10.35h1.58M8.85-10.35h1.59M1.66-10.35h.85M34.22-10.35h-1.58M35.81-8.77h1.58M13.61-8.77h1.58M15.19-8.77h1.59M42.15-8.77h-1.59M43.74-8.77h-1.59M10.44-8.77h1.58M7.26-8.77h1.59M38.98-8.77h1.58M37.39-8.77h1.59M4.09-8.77h1.59M2.51-8.77h1.58M35.81-8.77h-1.59M44.47-8.77h-.73M8.85-8.77h1.59M12.02-8.77h1.59M21.54-8.77h1.58M1.66-8.77h.85M27.88-8.77h1.58M16.78-8.77h1.58M23.12-8.77h1.59M26.29-8.77h1.59M19.95-8.77h1.59M24.71-8.77h1.58M5.68-8.77h1.58M31.05-8.77h1.59M34.22-8.77h-1.58M18.36-8.77h1.59M29.46-8.77h1.59M35.81-7.18h-1.59M32.64-7.18h1.58M31.05-7.18h1.59M5.68-7.18h1.58M4.09-7.18h1.59M2.51-7.18h1.58M1.66-7.18h.85M37.39-7.18h-1.58M29.46-7.18h1.59M44.47-7.18h-.73M38.98-7.18h1.58M23.12-7.18h1.59M40.56-7.18h1.59M15.19-7.18h1.59M21.54-7.18h1.58M7.26-7.18h1.59M37.39-7.18h1.59M10.44-7.18h1.58M13.61-7.18h1.58M8.85-7.18h1.59M24.71-7.18h1.58M19.95-7.18h1.59M16.78-7.18h1.58M27.88-7.18h1.58M18.36-7.18h1.59M12.02-7.18h1.59M43.74-7.18h-1.59M26.29-7.18h1.59M27.88-5.59h1.58M29.46-5.59h1.59M32.64-5.59h1.58M31.05-5.59h1.59M34.22-5.59h1.59M42.15-5.59h1.59M37.39-5.59h-1.58M38.98-5.59h-1.59M44.47-5.59h-.73M40.56-5.59h1.59M18.36-5.59h1.59M13.61-5.59h1.58M10.44-5.59h1.58M16.78-5.59h1.58M15.19-5.59h1.59M12.02-5.59h1.59M7.26-5.59h1.59M8.85-5.59h1.59M5.68-5.59h1.58M4.09-5.59h1.59M26.29-5.59h1.59M1.66-5.59h.85M19.95-5.59h1.59M38.98-5.59h1.58M24.71-5.59h1.58M23.12-5.59h1.59M2.51-5.59h1.58M21.54-5.59h1.58M38.98-4.01h-1.59M43.74-4.01h.73M42.15-4.01h1.59M1.66-4.01h.85M2.51-4.01h1.58M35.81-4.01h1.58M40.56-4.01h1.59M23.12-4.01h1.59M8.85-4.01h1.59M32.64-4.01h1.58M27.88-4.01h1.58M10.44-4.01h1.58M7.26-4.01h1.59M18.36-4.01h1.59M12.02-4.01h1.59M29.46-4.01h1.59M40.56-4.01h-1.58M16.78-4.01h1.58M4.09-4.01h1.59M31.05-4.01h1.59M5.68-4.01h1.58M15.19-4.01h1.59M13.61-4.01h1.58M34.22-4.01h1.59M26.29-4.01h1.59M19.95-4.01h1.59M21.54-4.01h1.58M24.71-4.01h1.58M2.51-2.42h1.58M35.81-2.42h1.58M31.05-2.42h1.59M37.39-2.42h1.59M13.61-2.42h1.58M32.64-2.42h1.58M15.19-2.42h1.59M12.02-2.42h1.59M16.78-2.42h1.58M40.56-2.42h-1.58M34.22-2.42h1.59M19.95-2.42h1.59M42.15-2.42h-1.59M26.29-2.42h1.59M18.36-2.42h1.59M24.71-2.42h1.58M23.12-2.42h1.59M10.44-2.42h1.58M43.74-2.42h.73M21.54-2.42h1.58M42.15-2.42h1.59M5.68-2.42h1.58M1.66-2.42h.85M7.26-2.42h1.59M29.46-2.42h1.59M4.09-2.42h1.59M8.85-2.42h1.59M27.88-2.42h1.58M2.51-5.59v-1.59M2.51-23.04v1.59M2.51-18.28v1.59M2.51-21.45v1.58M2.51-24.62v1.58M2.51-26.21v1.59M2.51-15.11v1.59M2.51-10.35v1.58M2.51-11.94v1.59M2.51-13.52v1.58M2.51-27.8v1.59M2.51-16.69v1.58M2.51-40.48v1.58M2.51-37.31v1.59M2.51-29.38v1.58M2.51-43.65v1.58M2.51-8.77v1.59M2.51-38.9v1.59M2.51-32.55v1.58M2.51-30.97v1.59M2.51-35.72v1.58M2.51-34.14v1.59M2.51-19.87v1.59M2.51-44.47v.82M2.51-42.07v1.59M2.51-2.42v.76M2.51-4.01v1.59M2.51-5.59v1.58M4.09-13.52v1.58M4.09-15.11v1.59M4.09-11.94v1.59M4.09-44.47v.82M4.09-10.35v1.58M4.09-40.48v1.58M4.09-7.18v-1.59M4.09-30.97v1.59M4.09-21.45v1.58M4.09-32.55v1.58M4.09-23.04v1.59M4.09-26.21v1.59M4.09-29.38v1.58M4.09-38.9v1.59M4.09-24.62v1.58M4.09-37.31v1.59M4.09-18.28v1.59M4.09-16.69v1.58M4.09-35.72v1.58M4.09-34.14v1.59M4.09-19.87v1.59M4.09-43.65v1.58M4.09-5.59v1.58M4.09-4.01v1.59M4.09-7.18v1.59M4.09-42.07v1.59M4.09-27.8v1.59M4.09-1.66v-.76M5.68-1.66v-.76M5.68-23.04v1.59M5.68-8.77v-1.58M5.68-19.87v1.59M5.68-42.07v1.59M5.68-11.94v1.59M5.68-7.18v1.59M5.68-8.77v1.59M5.68-13.52v1.58M5.68-5.59v1.58M5.68-44.47v.82M5.68-24.62v1.58M5.68-2.42v-1.59M5.68-38.9v1.59M5.68-40.48v1.58M5.68-32.55v1.58M5.68-34.14v1.59M5.68-21.45v1.58M5.68-30.97v1.59M5.68-16.69v1.58M5.68-27.8v1.59M5.68-26.21v1.59M5.68-29.38v1.58M5.68-43.65v1.58M5.68-18.28v1.59M5.68-37.31v1.59M5.68-15.11v1.59M5.68-35.72v1.58M7.26-1.66v-.76M7.26-43.65v1.58M7.26-44.47v.82M7.26-42.07v1.59M7.26-32.55v1.58M7.26-29.38v1.58M7.26-30.97v1.59M7.26-27.8v1.59M7.26-35.72v1.58M7.26-40.48v1.58M7.26-34.14v1.59M7.26-26.21v1.59M7.26-21.45v1.58M7.26-24.62v1.58M7.26-15.11v1.59M7.26-13.52v1.58M7.26-10.35v-1.59M7.26-16.69v1.58M7.26-23.04v1.59M7.26-18.28v1.59M7.26-2.42v-1.59M7.26-19.87v1.59M7.26-37.31v1.59M7.26-4.01v-1.58M7.26-38.9v1.59M7.26-7.18v1.59M7.26-8.77v1.59M7.26-10.35v1.58M8.85-21.45v1.58M8.85-19.87v1.59M8.85-30.97v1.59M8.85-18.28v1.59M8.85-23.04v1.59M8.85-35.72v1.58M8.85-40.48v1.58M8.85-16.69v1.58M8.85-24.62v1.58M8.85-43.65v1.58M8.85-27.8v1.59M8.85-26.21v1.59M8.85-29.38v1.58M8.85-8.77v1.59M8.85-10.35v1.58M8.85-2.42v-1.59M8.85-11.94v1.59M8.85-44.47v.82M8.85-5.59v-1.59M8.85-4.01v-1.58M8.85-11.94v-1.58M8.85-15.11v1.59M8.85-37.31v1.59M8.85-1.66v-.76M8.85-42.07v1.59M8.85-38.9v1.59M8.85-32.55v1.58M8.85-34.14v1.59M10.44-10.35v1.58M10.44-24.62v1.58M10.44-32.55v1.58M10.44-19.87v1.59M10.44-1.66v-.76M10.44-13.52v1.58M10.44-11.94v1.59M10.44-30.97v1.59M10.44-23.04v1.59M10.44-21.45v1.58M10.44-43.65v1.58M10.44-42.07v1.59M10.44-7.18v-1.59M10.44-4.01v-1.58M10.44-37.31v1.59M10.44-5.59v-1.59M10.44-38.9v1.59M10.44-13.52v-1.59M10.44-44.47v.82M10.44-35.72v1.58M10.44-34.14v1.59M10.44-2.42v-1.59M10.44-40.48v1.58M10.44-16.69v1.58M10.44-18.28v1.59M10.44-26.21v1.59M10.44-29.38v1.58M10.44-27.8v1.59M12.02-44.47v.82M12.02-37.31v1.59M12.02-11.94v1.59M12.02-15.11v1.59M12.02-40.48v1.58M12.02-8.77v-1.58M12.02-38.9v1.59M12.02-13.52v1.58M12.02-42.07v1.59M12.02-29.38v1.58M12.02-23.04v1.59M12.02-35.72v1.58M12.02-24.62v1.58M12.02-1.66v-.76M12.02-26.21v1.59M12.02-21.45v1.58M12.02-2.42v-1.59M12.02-15.11v-1.58M12.02-34.14v1.59M12.02-19.87v1.59M12.02-18.28v1.59M12.02-7.18v-1.59M12.02-4.01v-1.58M12.02-27.8v1.59M12.02-43.65v1.58M12.02-32.55v1.58M12.02-30.97v1.59M12.02-5.59v-1.59M13.61-21.45v1.58M13.61-37.31v1.59M13.61-16.69v-1.59M13.61-35.72v1.58M13.61-38.9v1.59M13.61-19.87v1.59M13.61-2.42v-1.59M13.61-43.65v1.58M13.61-24.62v1.58M13.61-42.07v1.59M13.61-26.21v1.59M13.61-16.69v1.58M13.61-15.11v1.59M13.61-32.55v1.58M13.61-30.97v1.59M13.61-13.52v1.58M13.61-27.8v1.59M13.61-29.38v1.58M13.61-34.14v1.59M13.61-8.77v-1.58M13.61-10.35v-1.59M13.61-4.01v-1.58M13.61-5.59v-1.59M13.61-40.48v1.58M13.61-44.47v.82M13.61-7.18v-1.59M13.61-23.04v1.59M13.61-1.66v-.76M15.19-43.65v1.58M15.19-37.31v1.59M15.19-23.04v1.59M15.19-27.8v1.59M15.19-26.21v1.59M15.19-24.62v1.58M15.19-21.45v1.58M15.19-18.28v-1.59M15.19-35.72v1.58M15.19-7.18v-1.59M15.19-8.77v-1.58M15.19-34.14v1.59M15.19-44.47v.82M15.19-4.01v-1.58M15.19-1.66v-.76M15.19-30.97v1.59M15.19-18.28v1.59M15.19-42.07v1.59M15.19-16.69v1.58M15.19-10.35v-1.59M15.19-2.42v-1.59M15.19-38.9v1.59M15.19-5.59v-1.59M15.19-40.48v1.58M15.19-11.94v-1.58M15.19-15.11v1.59M15.19-29.38v1.58M15.19-32.55v1.58M16.78-43.65v1.58M16.78-26.21v1.59M16.78-40.48v1.58M16.78-32.55v1.58M16.78-35.72v1.58M16.78-30.97v1.59M16.78-2.42v-1.59M16.78-42.07v1.59M16.78-34.14v1.59M16.78-29.38v1.58M16.78-5.59v-1.59M16.78-11.94v-1.58M16.78-10.35v-1.59M16.78-13.52v-1.59M16.78-16.69v1.58M16.78-1.66v-.76M16.78-7.18v-1.59M16.78-18.28v1.59M16.78-4.01v-1.58M16.78-8.77v-1.58M16.78-19.87v-1.58M16.78-19.87v1.59M16.78-24.62v1.58M16.78-44.47v.82M16.78-27.8v1.59M16.78-37.31v1.59M16.78-23.04v1.59M16.78-38.9v1.59M18.36-26.21v1.59M18.36-8.77v-1.58M18.36-7.18v-1.59M18.36-27.8v1.59M18.36-21.45v-1.59M18.36-32.55v1.58M18.36-37.31v1.59M18.36-13.52v-1.59M18.36-30.97v1.59M18.36-5.59v-1.59M18.36-24.62v1.58M18.36-34.14v1.59M18.36-10.35v-1.59M18.36-1.66v-.76M18.36-40.48v1.58M18.36-2.42v-1.59M18.36-38.9v1.59M18.36-15.11v-1.58M18.36-4.01v-1.58M18.36-11.94v-1.58M18.36-42.07v1.59M18.36-18.28v1.59M18.36-29.38v1.58M18.36-43.65v1.58M18.36-19.87v1.59M18.36-35.72v1.58M18.36-44.47v.82M18.36-21.45v1.58M19.95-16.69v-1.59M19.95-19.87v1.59M19.95-42.07v1.59M19.95-21.45v1.58M19.95-23.04v1.59M19.95-27.8v1.59M19.95-4.01v-1.58M19.95-40.48v1.58M19.95-11.94v-1.58M19.95-8.77v-1.58M19.95-34.14v1.59M19.95-32.55v1.58M19.95-38.9v1.59M19.95-13.52v-1.59M19.95-43.65v1.58M19.95-7.18v-1.59M19.95-44.47v.82M19.95-37.31v1.59M19.95-30.97v1.59M19.95-35.72v1.58M19.95-24.62v1.58M19.95-29.38v1.58M19.95-2.42v-1.59M19.95-15.11v-1.58M19.95-1.66v-.76M19.95-5.59v-1.59M19.95-10.35v-1.59M19.95-26.21v1.59M21.54-37.31v1.59M21.54-29.38v1.58M21.54-8.77v-1.58M21.54-32.55v1.58M21.54-35.72v1.58M21.54-10.35v-1.59M21.54-30.97v1.59M21.54-11.94v-1.58M21.54-7.18v-1.59M21.54-21.45v-1.59M21.54-38.9v1.59M21.54-13.52v-1.59M21.54-18.28v-1.59M21.54-24.62v1.58M21.54-43.65v1.58M21.54-5.59v-1.59M21.54-26.21v1.59M21.54-44.47v.82M21.54-1.66v-.76M21.54-4.01v-1.58M21.54-40.48v1.58M21.54-27.8v1.59M21.54-42.07v1.59M21.54-34.14v1.59M21.54-2.42v-1.59M21.54-19.87v-1.58M21.54-16.69v-1.59M21.54-15.11v-1.58M23.12-34.14v1.59M23.12-11.94v-1.58M23.12-32.55v1.58M23.12-13.52v-1.59M23.12-35.72v1.58M23.12-4.01v-1.58M23.12-44.47v.82M23.12-10.35v-1.59M23.12-8.77v-1.58M23.12-38.9v1.59M23.12-27.8v1.59M23.12-15.11v-1.58M23.12-40.48v1.58M23.12-26.21v1.59M23.12-18.28v-1.59M23.12-1.66v-.76M23.12-16.69v-1.59M23.12-19.87v-1.58M23.12-5.59v-1.59M23.12-42.07v1.59M23.12-24.62v1.58M23.12-43.65v1.58M23.12-21.45v-1.59M23.12-30.97v1.59M23.12-2.42v-1.59M23.12-7.18v-1.59M23.12-29.38v1.58M23.12-37.31v1.59M24.71-34.14v1.59M24.71-30.97v1.59M24.71-4.01v-1.58M24.71-42.07v1.59M24.71-29.38v1.58M24.71-21.45v-1.59M24.71-15.11v-1.58M24.71-7.18v-1.59M24.71-8.77v-1.58M24.71-16.69v-1.59M24.71-1.66v-.76M24.71-24.62v1.58M24.71-37.31v1.59M24.71-44.47v.82M24.71-32.55v1.58M24.71-43.65v1.58M24.71-38.9v1.59M24.71-19.87v-1.58M24.71-13.52v-1.59M24.71-40.48v1.58M24.71-10.35v-1.59M24.71-2.42v-1.59M24.71-11.94v-1.58M24.71-27.8v1.59M24.71-26.21v1.59M24.71-35.72v1.58M24.71-18.28v-1.59M24.71-5.59v-1.59M26.29-23.04v1.59M26.29-2.42v-1.59M26.29-5.59v-1.59M26.29-10.35v-1.59M26.29-43.65v1.58M26.29-38.9v1.59M26.29-37.31v1.59M26.29-30.97v1.59M26.29-42.07v1.59M26.29-35.72v1.58M26.29-32.55v1.58M26.29-23.04v-1.58M26.29-26.21v-1.59M26.29-19.87v-1.58M26.29-24.62v-1.59M26.29-11.94v-1.58M26.29-40.48v1.58M26.29-29.38v1.58M26.29-16.69v-1.59M26.29-1.66v-.76M26.29-15.11v-1.58M26.29-34.14v1.59M26.29-13.52v-1.59M26.29-7.18v-1.59M26.29-44.47v.82M26.29-4.01v-1.58M26.29-18.28v-1.59M26.29-8.77v-1.58M27.88-38.9v1.59M27.88-43.65v1.58M27.88-18.28v-1.59M27.88-35.72v1.58M27.88-11.94v-1.58M27.88-4.01v-1.58M27.88-15.11v-1.58M27.88-13.52v-1.59M27.88-2.42v-1.59M27.88-1.66v-.76M27.88-7.18v-1.59M27.88-34.14v1.59M27.88-19.87v-1.58M27.88-32.55v1.58M27.88-21.45v-1.59M27.88-44.47v.82M27.88-24.62v1.58M27.88-8.77v-1.58M27.88-5.59v-1.59M27.88-24.62v-1.59M27.88-10.35v-1.59M27.88-16.69v-1.59M27.88-37.31v1.59M27.88-42.07v1.59M27.88-30.97v1.59M27.88-40.48v1.58M27.88-27.8v-1.58M27.88-26.21v-1.59M29.46-40.48v1.58M29.46-15.11v-1.58M29.46-13.52v-1.59M29.46-10.35v-1.59M29.46-2.42v-1.59M29.46-34.14v1.59M29.46-5.59v-1.59M29.46-11.94v-1.58M29.46-4.01v-1.58M29.46-26.21v1.59M29.46-42.07v1.59M29.46-43.65v1.58M29.46-38.9v1.59M29.46-26.21v-1.59M29.46-19.87v-1.58M29.46-23.04v-1.58M29.46-21.45v-1.59M29.46-27.8v-1.58M29.46-29.38v-1.59M29.46-35.72v1.58M29.46-1.66v-.76M29.46-7.18v-1.59M29.46-44.47v.82M29.46-8.77v-1.58M29.46-32.55v1.58M29.46-37.31v1.59M29.46-16.69v-1.59M29.46-18.28v-1.59M31.05-2.42v-1.59M31.05-34.14v1.59M31.05-1.66v-.76M31.05-44.47v.82M31.05-42.07v1.59M31.05-7.18v-1.59M31.05-11.94v-1.58M31.05-8.77v-1.58M31.05-10.35v-1.59M31.05-5.59v-1.59M31.05-30.97v-1.58M31.05-29.38v-1.59M31.05-15.11v-1.58M31.05-16.69v-1.59M31.05-37.31v1.59M31.05-19.87v-1.58M31.05-18.28v-1.59M31.05-43.65v1.58M31.05-35.72v1.58M31.05-40.48v1.58M31.05-38.9v1.59M31.05-13.52v-1.59M31.05-27.8v-1.58M31.05-27.8v1.59M31.05-23.04v-1.58M31.05-4.01v-1.58M31.05-24.62v-1.59M31.05-21.45v-1.59M32.64-40.48v1.58M32.64-32.55v-1.59M32.64-44.47v.82M32.64-11.94v-1.58M32.64-1.66v-.76M32.64-16.69v-1.59M32.64-37.31v1.59M32.64-18.28v-1.59M32.64-15.11v-1.58M32.64-23.04v-1.58M32.64-21.45v-1.59M32.64-19.87v-1.58M32.64-24.62v-1.59M32.64-30.97v-1.58M32.64-29.38v-1.59M32.64-35.72v1.58M32.64-43.65v1.58M32.64-4.01v-1.58M32.64-10.35v-1.59M32.64-38.9v1.59M32.64-42.07v1.59M32.64-7.18v-1.59M32.64-8.77v-1.58M32.64-13.52v-1.59M32.64-29.38v1.58M32.64-2.42v-1.59M32.64-26.21v-1.59M32.64-5.59v-1.59M34.22-23.04v-1.58M34.22-30.97v1.59M34.22-44.47v.82M34.22-26.21v-1.59M34.22-40.48v1.58M34.22-24.62v-1.59M34.22-42.07v1.59M34.22-27.8v-1.58M34.22-4.01v-1.58M34.22-15.11v-1.58M34.22-7.18v-1.59M34.22-16.69v-1.59M34.22-19.87v-1.58M34.22-21.45v-1.59M34.22-5.59v-1.59M34.22-11.94v-1.58M34.22-8.77v-1.58M34.22-10.35v-1.59M34.22-43.65v1.58M34.22-2.42v-1.59M34.22-13.52v-1.59M34.22-38.9v1.59M34.22-30.97v-1.58M34.22-32.55v-1.59M34.22-1.66v-.76M34.22-34.14v-1.58M34.22-37.31v1.59M34.22-18.28v-1.59M35.81-19.87v-1.58M35.81-21.45v-1.59M35.81-42.07v1.59M35.81-24.62v-1.59M35.81-23.04v-1.58M35.81-26.21v-1.59M35.81-27.8v-1.58M35.81-16.69v-1.59M35.81-40.48v1.58M35.81-15.11v-1.58M35.81-44.47v.82M35.81-13.52v-1.59M35.81-11.94v-1.58M35.81-18.28v-1.59M35.81-35.72v-1.59M35.81-32.55v-1.59M35.81-34.14v-1.58M35.81-38.9v1.59M35.81-29.38v-1.59M35.81-43.65v1.58M35.81-4.01v-1.58M35.81-8.77v-1.58M35.81-1.66v-.76M35.81-32.55v1.58M35.81-5.59v-1.59M35.81-10.35v-1.59M35.81-2.42v-1.59M35.81-7.18v-1.59M37.39-21.45v-1.59M37.39-24.62v-1.59M37.39-19.87v-1.58M37.39-27.8v-1.58M37.39-18.28v-1.59M37.39-37.31v-1.59M37.39-34.14v-1.58M37.39-35.72v-1.59M37.39-26.21v-1.59M37.39-8.77v-1.58M37.39-1.66v-.76M37.39-10.35v-1.59M37.39-13.52v-1.59M37.39-15.11v-1.58M37.39-16.69v-1.59M37.39-11.94v-1.58M37.39-23.04v-1.58M37.39-4.01v-1.58M37.39-44.47v.82M37.39-5.59v-1.59M37.39-42.07v1.59M37.39-2.42v-1.59M37.39-43.65v1.58M37.39-7.18v-1.59M37.39-30.97v-1.58M37.39-29.38v-1.59M37.39-34.14v1.59M37.39-40.48v1.58M38.98-13.52v-1.59M38.98-11.94v-1.58M38.98-18.28v-1.59M38.98-10.35v-1.59M38.98-44.47v.82M38.98-19.87v-1.58M38.98-15.11v-1.58M38.98-5.59v-1.59M38.98-43.65v1.58M38.98-7.18v-1.59M38.98-2.42v-1.59M38.98-4.01v-1.58M38.98-1.66v-.76M38.98-8.77v-1.58M38.98-16.69v-1.59M38.98-27.8v-1.58M38.98-38.9v-1.58M38.98-42.07v1.59M38.98-37.31v-1.59M38.98-32.55v-1.59M38.98-24.62v-1.59M38.98-26.21v-1.59M38.98-35.72v-1.59M38.98-30.97v-1.58M38.98-21.45v-1.59M38.98-23.04v-1.58M38.98-29.38v-1.59M38.98-35.72v1.58M40.56-37.31v-1.59M40.56-38.9v-1.58M40.56-15.11v-1.58M40.56-13.52v-1.59M40.56-8.77v-1.58M40.56-40.48v-1.59M40.56-7.18v-1.59M40.56-16.69v-1.59M40.56-4.01v-1.58M40.56-29.38v-1.59M40.56-2.42v-1.59M40.56-43.65v1.58M40.56-1.66v-.76M40.56-10.35v-1.59M40.56-30.97v-1.58M40.56-11.94v-1.58M40.56-19.87v-1.58M40.56-23.04v-1.58M40.56-26.21v-1.59M40.56-24.62v-1.59M40.56-5.59v-1.59M40.56-21.45v-1.59M40.56-32.55v-1.59M40.56-27.8v-1.58M40.56-44.47v.82M40.56-18.28v-1.59M40.56-34.14v-1.58M40.56-37.31v1.59M42.15-1.66v-.76M42.15-21.45v-1.59M42.15-4.01v-1.58M42.15-15.11v-1.58M42.15-19.87v-1.58M42.15-44.47v.82M42.15-29.38v-1.59M42.15-13.52v-1.59M42.15-16.69v-1.59M42.15-10.35v-1.59M42.15-18.28v-1.59M42.15-2.42v-1.59M42.15-11.94v-1.58M42.15-38.9v1.59M42.15-35.72v-1.59M42.15-27.8v-1.58M42.15-7.18v-1.59M42.15-34.14v-1.58M42.15-30.97v-1.58M42.15-5.59v-1.59M42.15-32.55v-1.59M42.15-42.07v-1.58M42.15-26.21v-1.59M42.15-40.48v-1.59M42.15-24.62v-1.59M42.15-38.9v-1.58M42.15-8.77v-1.58M42.15-23.04v-1.58M43.74-43.65v-.82M43.74-2.42v-1.59M43.74-40.48v-1.59M43.74-42.07v-1.58M43.74-10.35v-1.59M43.74-34.14v-1.58M43.74-23.04v-1.58M43.74-35.72v-1.59M43.74-24.62v-1.59M43.74-11.94v-1.58M43.74-13.52v-1.59M43.74-21.45v-1.59M43.74-37.31v-1.59M43.74-18.28v-1.59M43.74-19.87v-1.58M43.74-16.69v-1.59M43.74-40.48v1.58M43.74-15.11v-1.58M43.74-29.38v-1.59M43.74-26.21v-1.59M43.74-27.8v-1.58M43.74-32.55v-1.59M43.74-30.97v-1.58M43.74-7.18v-1.59M43.74-5.59v-1.59M43.74-1.66v-.76M43.74-8.77v-1.58M43.74-4.01v-1.58" style="fill:none;stroke:#000;stroke-width:.33"/></svg>