<svg xmlns="http://www.w3.org/2000/svg" xml:space="preserve" width="42.81" height="42.81" viewBox="0 -42.81 42.81 42.81"><path d="M0-42.81h42.81V0H0z" style="fill:none"/><path d="M42.08-41.99h-1.59M23.05-41.99h-1.59M29.39-41.99H27.8M40.49-41.99h-1.58M27.8-41.99h-1.58M26.22-41.99h-1.59M2.43-41.99H.85M.85-41.99H0M21.46-41.99h-1.58M2.43-41.99h1.59M37.32-41.99h-1.59M35.73-41.99h-1.58M32.56-41.99h-1.58M24.63-41.99h-1.58M38.91-41.99h-1.59M19.88-41.99h-1.59M15.12-41.99h-1.59M34.15-41.99h-1.59M42.81-41.99h-.73M4.02-41.99h1.59M30.98-41.99h-1.59M11.95-41.99h-1.59M13.53-41.99h-1.58M16.7-41.99h-1.58M8.78-41.99H7.19M10.36-41.99H8.78M18.29-41.99H16.7M7.19-41.99H5.61M16.7-40.41h-1.58M.85-40.41H0M29.39-40.41H27.8M11.95-40.41h-1.59M15.12-40.41h-1.59M19.88-40.41h-1.59M24.63-40.41h-1.58M23.05-40.41h-1.59M21.46-40.41h-1.58M26.22-40.41h-1.59M18.29-40.41H16.7M27.8-40.41h-1.58M13.53-40.41h-1.58M38.91-40.41h-1.59M37.32-40.41h-1.59M10.36-40.41H8.78M42.08-40.41h-1.59M40.49-40.41h-1.58M8.78-40.41H7.19M4.02-40.41h1.59M42.81-40.41h-.73M30.98-40.41h-1.59M5.61-40.41h1.58M32.56-40.41h-1.58M4.02-40.41H2.43M2.43-40.41H.85M34.15-40.41h-1.59M35.73-40.41h-1.58M2.43-38.82H.85M5.61-38.82H4.02M40.49-38.82h-1.58M.85-38.82H0M24.63-38.82h-1.58M42.81-38.82h-.73M26.22-38.82h-1.59M29.39-38.82H27.8M42.08-38.82h-1.59M30.98-38.82h-1.59M27.8-38.82h-1.58M37.32-38.82h-1.59M5.61-38.82h1.58M35.73-38.82h-1.58M38.91-38.82h-1.59M34.15-38.82h-1.59M32.56-38.82h-1.58M11.95-38.82h-1.59M19.88-38.82h-1.59M18.29-38.82H16.7M16.7-38.82h-1.58M10.36-38.82H8.78M7.19-38.82h1.59M13.53-38.82h-1.58M15.12-38.82h-1.59M4.02-38.82H2.43M21.46-38.82h-1.58M23.05-38.82h-1.59M5.61-37.23H4.02M2.43-37.23H.85M0-37.23h.85M4.02-37.23H2.43M42.08-37.23h-1.59M40.49-37.23h-1.58M42.81-37.23h-.73M7.19-37.23H5.61M27.8-37.23h-1.58M7.19-37.23h1.59M16.7-37.23h-1.58M15.12-37.23h-1.59M30.98-37.23h-1.59M18.29-37.23H16.7M23.05-37.23h-1.59M29.39-37.23H27.8M21.46-37.23h-1.58M19.88-37.23h-1.59M24.63-37.23h-1.58M35.73-37.23h-1.58M37.32-37.23h-1.59M11.95-37.23h-1.59M26.22-37.23h-1.59M38.91-37.23h-1.59M8.78-37.23h1.58M13.53-37.23h-1.58M34.15-37.23h-1.59M32.56-37.23h-1.58M26.22-35.65h-1.59M21.46-35.65h-1.58M27.8-35.65h-1.58M.85-35.65h1.58M23.05-35.65h-1.59M4.02-35.65H2.43M24.63-35.65h-1.58M19.88-35.65h-1.59M34.15-35.65h-1.59M35.73-35.65h-1.58M8.78-35.65h1.58M5.61-35.65H4.02M8.78-35.65H7.19M29.39-35.65H27.8M30.98-35.65h-1.59M7.19-35.65H5.61M32.56-35.65h-1.58M15.12-35.65h-1.59M42.81-35.65h-.73M13.53-35.65h-1.58M10.36-35.65h1.59M18.29-35.65H16.7M40.49-35.65h-1.58M37.32-35.65h-1.59M0-35.65h.85M38.91-35.65h-1.59M42.08-35.65h-1.59M16.7-35.65h-1.58M21.46-34.06h-1.58M5.61-34.06H4.02M18.29-34.06H16.7M2.43-34.06h1.59M16.7-34.06h-1.58M7.19-34.06H5.61M11.95-34.06h1.58M15.12-34.06h-1.59M19.88-34.06h-1.59M40.49-34.06h-1.58M0-34.06h.85M42.81-34.06h-.73M34.15-34.06h-1.59M38.91-34.06h-1.59M8.78-34.06H7.19M23.05-34.06h-1.59M26.22-34.06h-1.59M24.63-34.06h-1.58M32.56-34.06h-1.58M27.8-34.06h-1.58M29.39-34.06H27.8M30.98-34.06h-1.59M42.08-34.06h-1.59M37.32-34.06h-1.59M.85-34.06h1.58M10.36-34.06H8.78M35.73-34.06h-1.58M10.36-34.06h1.59M29.39-32.48H27.8M18.29-32.48H16.7M.85-32.48h1.58M11.95-32.48h-1.59M0-32.48h.85M19.88-32.48h-1.59M42.08-32.48h-1.59M16.7-32.48h-1.58M21.46-32.48h-1.58M10.36-32.48H8.78M40.49-32.48h-1.58M30.98-32.48h-1.59M32.56-32.48h-1.58M42.81-32.48h-.73M4.02-32.48h1.59M8.78-32.48H7.19M7.19-32.48H5.61M34.15-32.48h-1.59M2.43-32.48h1.59M35.73-32.48h-1.58M24.63-32.48h-1.58M26.22-32.48h-1.59M27.8-32.48h-1.58M11.95-32.48h1.58M13.53-32.48h1.59M23.05-32.48h-1.59M37.32-32.48h-1.59M38.91-32.48h-1.59M13.53-30.89h1.59M42.08-30.89h-1.59M32.56-30.89h-1.58M8.78-30.89H7.19M34.15-30.89h-1.59M11.95-30.89h-1.59M40.49-30.89h-1.58M4.02-30.89h1.59M10.36-30.89H8.78M5.61-30.89h1.58M.85-30.89h1.58M37.32-30.89h-1.59M2.43-30.89h1.59M35.73-30.89h-1.58M19.88-30.89h-1.59M21.46-30.89h-1.58M23.05-30.89h-1.59M18.29-30.89H16.7M38.91-30.89h-1.59M15.12-30.89h1.58M24.63-30.89h-1.58M30.98-30.89h-1.59M13.53-30.89h-1.58M27.8-30.89h-1.58M42.81-30.89h-.73M29.39-30.89H27.8M0-30.89h.85M26.22-30.89h-1.59M35.73-29.31h-1.58M10.36-29.31H8.78M15.12-29.31h1.58M42.81-29.31h-.73M30.98-29.31h-1.59M15.12-29.31h-1.59M7.19-29.31h1.59M32.56-29.31h-1.58M11.95-29.31h-1.59M34.15-29.31h-1.59M13.53-29.31h-1.58M23.05-29.31h-1.59M24.63-29.31h-1.58M16.7-29.31h1.59M40.49-29.31h-1.58M19.88-29.31h-1.59M26.22-29.31h-1.59M21.46-29.31h-1.58M0-29.31h.85M27.8-29.31h-1.58M2.43-29.31h1.59M38.91-29.31h-1.59M37.32-29.31h-1.59M29.39-29.31H27.8M42.08-29.31h-1.59M4.02-29.31h1.59M5.61-29.31h1.58M.85-29.31h1.58M16.7-27.72h-1.58M4.02-27.72h1.59M24.63-27.72h-1.58M0-27.72h.85M37.32-27.72h-1.59M42.08-27.72h-1.59M38.91-27.72h-1.59M15.12-27.72h-1.59M26.22-27.72h-1.59M27.8-27.72h-1.58M13.53-27.72h-1.58M23.05-27.72h-1.59M21.46-27.72h-1.58M.85-27.72h1.58M7.19-27.72h1.59M8.78-27.72h1.58M18.29-27.72h1.59M11.95-27.72h-1.59M2.43-27.72h1.59M34.15-27.72h-1.59M29.39-27.72H27.8M40.49-27.72h-1.58M16.7-27.72h1.59M35.73-27.72h-1.58M30.98-27.72h-1.59M42.81-27.72h-.73M5.61-27.72h1.58M32.56-27.72h-1.58M10.36-26.13h1.59M13.53-26.13h-1.58M15.12-26.13h-1.59M27.8-26.13h-1.58M40.49-26.13h-1.58M.85-26.13h1.58M42.08-26.13h-1.59M19.88-26.13h1.58M7.19-26.13h1.59M5.61-26.13h1.58M34.15-26.13h-1.59M16.7-26.13h-1.58M4.02-26.13h1.59M38.91-26.13h-1.59M37.32-26.13h-1.59M32.56-26.13h-1.58M18.29-26.13H16.7M0-26.13h.85M29.39-26.13H27.8M30.98-26.13h-1.59M2.43-26.13h1.59M18.29-26.13h1.59M23.05-26.13h-1.59M24.63-26.13h-1.58M8.78-26.13h1.58M35.73-26.13h-1.58M42.81-26.13h-.73M26.22-26.13h-1.59M7.19-24.55h1.59M19.88-24.55h1.58M24.63-24.55h-1.58M40.49-24.55h-1.58M.85-24.55h1.58M2.43-24.55h1.59M26.22-24.55h-1.59M21.46-24.55h1.59M0-24.55h.85M37.32-24.55h-1.59M16.7-24.55h-1.58M30.98-24.55h-1.59M11.95-24.55h1.58M15.12-24.55h-1.59M29.39-24.55H27.8M10.36-24.55h1.59M32.56-24.55h-1.58M34.15-24.55h-1.59M35.73-24.55h-1.58M42.81-24.55h-.73M5.61-24.55h1.58M4.02-24.55h1.59M42.08-24.55h-1.59M38.91-24.55h-1.59M27.8-24.55h-1.58M18.29-24.55H16.7M8.78-24.55h1.58M19.88-24.55h-1.59M0-22.96h.85M5.61-22.96h1.58M40.49-22.96h-1.58M7.19-22.96h1.59M.85-22.96h1.58M2.43-22.96h1.59M35.73-22.96h-1.58M42.81-22.96h-.73M4.02-22.96h1.59M42.08-22.96h-1.59M37.32-22.96h-1.59M38.91-22.96h-1.59M21.46-22.96h-1.58M21.46-22.96h1.59M24.63-22.96h-1.58M29.39-22.96H27.8M8.78-22.96h1.58M27.8-22.96h-1.58M16.7-22.96h-1.58M18.29-22.96H16.7M34.15-22.96h-1.59M13.53-22.96h1.59M32.56-22.96h-1.58M26.22-22.96h-1.59M19.88-22.96h-1.59M11.95-22.96h1.58M10.36-22.96h1.59M30.98-22.96h-1.59M8.78-21.38h1.58M24.63-21.38h-1.58M34.15-21.38h-1.59M2.43-21.38h1.59M.85-21.38h1.58M32.56-21.38h-1.58M0-21.38h.85M38.91-21.38h-1.59M23.05-21.38h-1.59M13.53-21.38h1.59M4.02-21.38h1.59M16.7-21.38h1.59M21.46-21.38h-1.58M19.88-21.38h-1.59M15.12-21.38h1.58M37.32-21.38h-1.59M26.22-21.38h-1.59M10.36-21.38h1.59M35.73-21.38h-1.58M11.95-21.38h1.58M7.19-21.38h1.59M30.98-21.38h-1.59M42.81-21.38h-.73M5.61-21.38h1.58M40.49-21.38h-1.58M29.39-21.38H27.8M42.08-21.38h-1.59M27.8-21.38h-1.58M42.08-19.79h-1.59M30.98-19.79h-1.59M27.8-19.79h-1.58M15.12-19.79h1.58M35.73-19.79h-1.58M23.05-19.79h1.58M38.91-19.79h-1.59M24.63-19.79h1.59M8.78-19.79h1.58M32.56-19.79h-1.58M29.39-19.79H27.8M13.53-19.79h1.59M2.43-19.79h1.59M.85-19.79h1.58M7.19-19.79h1.59M34.15-19.79h-1.59M42.81-19.79h-.73M18.29-19.79h1.59M11.95-19.79h1.58M21.46-19.79h-1.58M4.02-19.79h1.59M5.61-19.79h1.58M0-19.79h.85M10.36-19.79h1.59M16.7-19.79h1.59M21.46-19.79h1.59M37.32-19.79h-1.59M40.49-19.79h-1.58M42.81-18.21h-.73M30.98-18.21h-1.59M.85-18.21h1.58M24.63-18.21h1.59M29.39-18.21H27.8M26.22-18.21h1.58M37.32-18.21h-1.59M13.53-18.21h1.59M23.05-18.21h1.58M11.95-18.21h1.58M0-18.21h.85M42.08-18.21h-1.59M38.91-18.21h-1.59M15.12-18.21h1.58M10.36-18.21h1.59M5.61-18.21h1.58M4.02-18.21h1.59M32.56-18.21h-1.58M40.49-18.21h-1.58M21.46-18.21h-1.58M8.78-18.21h1.58M2.43-18.21h1.59M18.29-18.21h1.59M23.05-18.21h-1.59M16.7-18.21h1.59M35.73-18.21h-1.58M7.19-18.21h1.59M34.15-18.21h-1.59M42.81-16.62h-.73M7.19-16.62h1.59M24.63-16.62h-1.58M4.02-16.62h1.59M11.95-16.62h1.58M24.63-16.62h1.59M42.08-16.62h-1.59M32.56-16.62h-1.58M40.49-16.62h-1.58M19.88-16.62h1.58M18.29-16.62h1.59M16.7-16.62h1.59M23.05-16.62h-1.59M13.53-16.62h1.59M0-16.62h.85M10.36-16.62h1.59M.85-16.62h1.58M15.12-16.62h1.58M27.8-16.62h1.59M34.15-16.62h-1.59M5.61-16.62h1.58M30.98-16.62h-1.59M35.73-16.62h-1.58M8.78-16.62h1.58M2.43-16.62h1.59M26.22-16.62h1.58M38.91-16.62h-1.59M37.32-16.62h-1.59M7.19-15.03h1.59M13.53-15.03h1.59M34.15-15.03h-1.59M5.61-15.03h1.58M0-15.03h.85M27.8-15.03h1.59M24.63-15.03h-1.58M21.46-15.03h1.59M19.88-15.03h1.58M2.43-15.03h1.59M18.29-15.03h1.59M35.73-15.03h-1.58M32.56-15.03h-1.58M.85-15.03h1.58M38.91-15.03h-1.59M8.78-15.03h1.58M15.12-15.03h1.58M26.22-15.03h1.58M29.39-15.03h1.59M42.81-15.03h-.73M37.32-15.03h-1.59M26.22-15.03h-1.59M10.36-15.03h1.59M4.02-15.03h1.59M42.08-15.03h-1.59M16.7-15.03h1.59M11.95-15.03h1.58M40.49-15.03h-1.58M2.43-13.45h1.59M0-13.45h.85M40.49-13.45h-1.58M21.46-13.45h1.59M37.32-13.45h-1.59M23.05-13.45h1.58M19.88-13.45h1.58M18.29-13.45h1.59M15.12-13.45h1.58M16.7-13.45h1.59M26.22-13.45h-1.59M38.91-13.45h-1.59M42.08-13.45h-1.59M.85-13.45h1.58M4.02-13.45h1.59M11.95-13.45h1.58M35.73-13.45h-1.58M27.8-13.45h-1.58M42.81-13.45h-.73M27.8-13.45h1.59M30.98-13.45h1.58M8.78-13.45h1.58M10.36-13.45h1.59M7.19-13.45h1.59M34.15-13.45h-1.59M13.53-13.45h1.59M5.61-13.45h1.58M29.39-13.45h1.59M4.02-11.86h1.59M2.43-11.86h1.59M42.08-11.86h-1.59M38.91-11.86h-1.59M40.49-11.86h-1.58M.85-11.86h1.58M24.63-11.86h1.59M42.81-11.86h-.73M35.73-11.86h-1.58M27.8-11.86h-1.58M29.39-11.86h1.59M23.05-11.86h1.58M30.98-11.86h1.58M10.36-11.86h1.59M32.56-11.86h1.59M21.46-11.86h1.59M15.12-11.86h1.58M5.61-11.86h1.58M13.53-11.86h1.59M7.19-11.86h1.59M16.7-11.86h1.59M19.88-11.86h1.58M11.95-11.86h1.58M18.29-11.86h1.59M37.32-11.86h-1.59M29.39-11.86H27.8M8.78-11.86h1.58M0-11.86h.85M2.43-10.28h1.59M10.36-10.28h1.59M0-10.28h.85M26.22-10.28h1.58M30.98-10.28h-1.59M8.78-10.28h1.58M4.02-10.28h1.59M38.91-10.28h-1.59M40.49-10.28h-1.58M42.81-10.28h-.73M29.39-10.28H27.8M24.63-10.28h1.59M7.19-10.28h1.59M37.32-10.28h-1.59M.85-10.28h1.58M15.12-10.28h1.58M16.7-10.28h1.59M21.46-10.28h1.59M32.56-10.28h1.59M42.08-10.28h-1.59M18.29-10.28h1.59M11.95-10.28h1.58M19.88-10.28h1.58M34.15-10.28h1.58M5.61-10.28h1.58M30.98-10.28h1.58M23.05-10.28h1.58M13.53-10.28h1.59M38.91-8.69h-1.59M32.56-8.69h1.59M34.15-8.69h1.58M35.73-8.69h1.59M40.49-8.69h-1.58M42.08-8.69h-1.59M5.61-8.69h1.58M21.46-8.69h1.59M23.05-8.69h1.58M18.29-8.69h1.59M8.78-8.69h1.58M16.7-8.69h1.59M19.88-8.69h1.58M11.95-8.69h1.58M10.36-8.69h1.59M13.53-8.69h1.59M15.12-8.69h1.58M2.43-8.69h1.59M42.81-8.69h-.73M27.8-8.69h1.59M26.22-8.69h1.58M24.63-8.69h1.59M.85-8.69h1.58M30.98-8.69h-1.59M4.02-8.69h1.59M7.19-8.69h1.59M0-8.69h.85M32.56-8.69h-1.58M34.15-7.11h1.58M11.95-7.11h1.58M13.53-7.11h1.59M40.49-7.11h-1.58M42.08-7.11h-1.59M8.78-7.11h1.58M5.61-7.11h1.58M37.32-7.11h1.59M35.73-7.11h1.59M2.43-7.11h1.59M.85-7.11h1.58M34.15-7.11h-1.59M42.81-7.11h-.73M7.19-7.11h1.59M10.36-7.11h1.59M19.88-7.11h1.58M0-7.11h.85M26.22-7.11h1.58M15.12-7.11h1.58M21.46-7.11h1.59M24.63-7.11h1.59M18.29-7.11h1.59M23.05-7.11h1.58M4.02-7.11h1.59M29.39-7.11h1.59M32.56-7.11h-1.58M16.7-7.11h1.59M27.8-7.11h1.59M34.15-5.52h-1.59M30.98-5.52h1.58M29.39-5.52h1.59M4.02-5.52h1.59M2.43-5.52h1.59M.85-5.52h1.58M0-5.52h.85M35.73-5.52h-1.58M27.8-5.52h1.59M42.81-5.52h-.73M37.32-5.52h1.59M21.46-5.52h1.59M38.91-5.52h1.58M13.53-5.52h1.59M19.88-5.52h1.58M5.61-5.52h1.58M35.73-5.52h1.59M8.78-5.52h1.58M11.95-5.52h1.58M7.19-5.52h1.59M23.05-5.52h1.58M18.29-5.52h1.59M15.12-5.52h1.58M26.22-5.52h1.58M16.7-5.52h1.59M10.36-5.52h1.59M42.08-5.52h-1.59M24.63-5.52h1.59M26.22-3.93h1.58M27.8-3.93h1.59M30.98-3.93h1.58M29.39-3.93h1.59M32.56-3.93h1.59M40.49-3.93h1.59M35.73-3.93h-1.58M37.32-3.93h-1.59M42.81-3.93h-.73M38.91-3.93h1.58M16.7-3.93h1.59M11.95-3.93h1.58M8.78-3.93h1.58M15.12-3.93h1.58M13.53-3.93h1.59M10.36-3.93h1.59M5.61-3.93h1.58M7.19-3.93h1.59M4.02-3.93h1.59M2.43-3.93h1.59M24.63-3.93h1.59M0-3.93h.85M18.29-3.93h1.59M37.32-3.93h1.59M23.05-3.93h1.58M21.46-3.93h1.59M.85-3.93h1.58M19.88-3.93h1.58M37.32-2.35h-1.59M42.08-2.35h.73M40.49-2.35h1.59M0-2.35h.85M.85-2.35h1.58M34.15-2.35h1.58M38.91-2.35h1.58M21.46-2.35h1.59M7.19-2.35h1.59M30.98-2.35h1.58M26.22-2.35h1.58M8.78-2.35h1.58M5.61-2.35h1.58M16.7-2.35h1.59M10.36-2.35h1.59M27.8-2.35h1.59M38.91-2.35h-1.59M15.12-2.35h1.58M2.43-2.35h1.59M29.39-2.35h1.59M4.02-2.35h1.59M13.53-2.35h1.59M11.95-2.35h1.58M32.56-2.35h1.59M24.63-2.35h1.59M18.29-2.35h1.59M19.88-2.35h1.58M23.05-2.35h1.58M.85-.76h1.58M34.15-.76h1.58M29.39-.76h1.59M35.73-.76h1.59M11.95-.76h1.58M30.98-.76h1.58M13.53-.76h1.59M10.36-.76h1.59M15.12-.76h1.58M38.91-.76h-1.59M32.56-.76h1.59M18.29-.76h1.59M40.49-.76h-1.58M24.63-.76h1.59M16.7-.76h1.59M23.05-.76h1.58M21.46-.76h1.59M8.78-.76h1.58M42.08-.76h.73M19.88-.76h1.58M40.49-.76h1.59M4.02-.76h1.59M0-.76h.85M5.61-.76h1.58M27.8-.76h1.59M2.43-.76h1.59M7.19-.76h1.59M26.22-.76h1.58M.85-3.93v-1.59M.85-21.38v1.59M.85-16.62v1.59M.85-19.79v1.58M.85-22.96v1.58M.85-24.55v1.59M.85-13.45v1.59M.85-8.69v1.58M.85-10.28v1.59M.85-11.86v1.58M.85-26.13v1.58M.85-15.03v1.58M.85-38.82v1.59M.85-35.65v1.59M.85-27.72v1.59M.85-41.99v1.58M.85-7.11v1.59M.85-37.23v1.58M.85-30.89v1.58M.85-29.31v1.59M.85-34.06v1.58M.85-32.48v1.59M.85-18.21v1.59M.85-42.81v.82M.85-40.41v1.59M.85-.76V0M.85-2.35v1.59M.85-3.93v1.58M2.43-11.86v1.58M2.43-13.45v1.59M2.43-10.28v1.59M2.43-42.81v.82M2.43-8.69v1.58M2.43-38.82v1.59M2.43-5.52v-1.59M2.43-29.31v1.59M2.43-19.79v1.58M2.43-30.89v1.58M2.43-21.38v1.59M2.43-24.55v1.59M2.43-27.72v1.59M2.43-37.23v1.58M2.43-22.96v1.58M2.43-35.65v1.59M2.43-16.62v1.59M2.43-15.03v1.58M2.43-34.06v1.58M2.43-32.48v1.59M2.43-18.21v1.59M2.43-41.99v1.58M2.43-3.93v1.58M2.43-2.35v1.59M2.43-5.52v1.59M2.43-40.41v1.59M2.43-26.13v1.58M2.43 0v-.76M4.02 0v-.76M4.02-21.38v1.59M4.02-7.11v-1.58M4.02-18.21v1.59M4.02-40.41v1.59M4.02-10.28v1.59M4.02-5.52v1.59M4.02-7.11v1.59M4.02-11.86v1.58M4.02-3.93v1.58M4.02-42.81v.82M4.02-22.96v1.58M4.02-.76v-1.59M4.02-37.23v1.58M4.02-38.82v1.59M4.02-30.89v1.58M4.02-32.48v1.59M4.02-19.79v1.58M4.02-29.31v1.59M4.02-15.03v1.58M4.02-26.13v1.58M4.02-24.55v1.59M4.02-27.72v1.59M4.02-41.99v1.58M4.02-16.62v1.59M4.02-35.65v1.59M4.02-13.45v1.59M4.02-34.06v1.58M5.61 0v-.76M5.61-41.99v1.58M5.61-42.81v.82M5.61-40.41v1.59M5.61-30.89v1.58M5.61-27.72v1.59M5.61-29.31v1.59M5.61-26.13v1.58M5.61-34.06v1.58M5.61-38.82v1.59M5.61-32.48v1.59M5.61-24.55v1.59M5.61-19.79v1.58M5.61-22.96v1.58M5.61-13.45v1.59M5.61-11.86v1.58M5.61-8.69v-1.59M5.61-15.03v1.58M5.61-21.38v1.59M5.61-16.62v1.59M5.61-.76v-1.59M5.61-18.21v1.59M5.61-35.65v1.59M5.61-2.35v-1.58M5.61-37.23v1.58M5.61-5.52v1.59M5.61-7.11v1.59M5.61-8.69v1.58M7.19-19.79v1.58M7.19-18.21v1.59M7.19-29.31v1.59M7.19-16.62v1.59M7.19-21.38v1.59M7.19-34.06v1.58M7.19-38.82v1.59M7.19-15.03v1.58M7.19-22.96v1.58M7.19-41.99v1.58M7.19-26.13v1.58M7.19-24.55v1.59M7.19-27.72v1.59M7.19-7.11v1.59M7.19-8.69v1.58M7.19-.76v-1.59M7.19-10.28v1.59M7.19-42.81v.82M7.19-3.93v-1.59M7.19-2.35v-1.58M7.19-10.28v-1.58M7.19-13.45v1.59M7.19-35.65v1.59M7.19 0v-.76M7.19-40.41v1.59M7.19-37.23v1.58M7.19-30.89v1.58M7.19-32.48v1.59M8.78-8.69v1.58M8.78-22.96v1.58M8.78-30.89v1.58M8.78-18.21v1.59M8.78 0v-.76M8.78-11.86v1.58M8.78-10.28v1.59M8.78-29.31v1.59M8.78-21.38v1.59M8.78-19.79v1.58M8.78-41.99v1.58M8.78-40.41v1.59M8.78-5.52v-1.59M8.78-2.35v-1.58M8.78-35.65v1.59M8.78-3.93v-1.59M8.78-37.23v1.58M8.78-11.86v-1.59M8.78-42.81v.82M8.78-34.06v1.58M8.78-32.48v1.59M8.78-.76v-1.59M8.78-38.82v1.59M8.78-15.03v1.58M8.78-16.62v1.59M8.78-24.55v1.59M8.78-27.72v1.59M8.78-26.13v1.58M10.36-42.81v.82M10.36-35.65v1.59M10.36-10.28v1.59M10.36-13.45v1.59M10.36-38.82v1.59M10.36-7.11v-1.58M10.36-37.23v1.58M10.36-11.86v1.58M10.36-40.41v1.59M10.36-27.72v1.59M10.36-21.38v1.59M10.36-34.06v1.58M10.36-22.96v1.58M10.36 0v-.76M10.36-24.55v1.59M10.36-19.79v1.58M10.36-.76v-1.59M10.36-13.45v-1.58M10.36-32.48v1.59M10.36-18.21v1.59M10.36-16.62v1.59M10.36-5.52v-1.59M10.36-2.35v-1.58M10.36-26.13v1.58M10.36-41.99v1.58M10.36-30.89v1.58M10.36-29.31v1.59M10.36-3.93v-1.59M11.95-19.79v1.58M11.95-35.65v1.59M11.95-15.03v-1.59M11.95-34.06v1.58M11.95-37.23v1.58M11.95-18.21v1.59M11.95-.76v-1.59M11.95-41.99v1.58M11.95-22.96v1.58M11.95-40.41v1.59M11.95-24.55v1.59M11.95-15.03v1.58M11.95-13.45v1.59M11.95-30.89v1.58M11.95-29.31v1.59M11.95-11.86v1.58M11.95-26.13v1.58M11.95-27.72v1.59M11.95-32.48v1.59M11.95-7.11v-1.58M11.95-8.69v-1.59M11.95-2.35v-1.58M11.95-3.93v-1.59M11.95-38.82v1.59M11.95-42.81v.82M11.95-5.52v-1.59M11.95-21.38v1.59M11.95 0v-.76M13.53-41.99v1.58M13.53-35.65v1.59M13.53-21.38v1.59M13.53-26.13v1.58M13.53-24.55v1.59M13.53-22.96v1.58M13.53-19.79v1.58M13.53-16.62v-1.59M13.53-34.06v1.58M13.53-5.52v-1.59M13.53-7.11v-1.58M13.53-32.48v1.59M13.53-42.81v.82M13.53-2.35v-1.58M13.53 0v-.76M13.53-29.31v1.59M13.53-16.62v1.59M13.53-40.41v1.59M13.53-15.03v1.58M13.53-8.69v-1.59M13.53-.76v-1.59M13.53-37.23v1.58M13.53-3.93v-1.59M13.53-38.82v1.59M13.53-10.28v-1.58M13.53-13.45v1.59M13.53-27.72v1.59M13.53-30.89v1.58M15.12-41.99v1.58M15.12-24.55v1.59M15.12-38.82v1.59M15.12-30.89v1.58M15.12-34.06v1.58M15.12-29.31v1.59M15.12-.76v-1.59M15.12-40.41v1.59M15.12-32.48v1.59M15.12-27.72v1.59M15.12-3.93v-1.59M15.12-10.28v-1.58M15.12-8.69v-1.59M15.12-11.86v-1.59M15.12-15.03v1.58M15.12 0v-.76M15.12-5.52v-1.59M15.12-16.62v1.59M15.12-2.35v-1.58M15.12-7.11v-1.58M15.12-18.21v-1.58M15.12-18.21v1.59M15.12-22.96v1.58M15.12-42.81v.82M15.12-26.13v1.58M15.12-35.65v1.59M15.12-21.38v1.59M15.12-37.23v1.58M16.7-24.55v1.59M16.7-7.11v-1.58M16.7-5.52v-1.59M16.7-26.13v1.58M16.7-19.79v-1.59M16.7-30.89v1.58M16.7-35.65v1.59M16.7-11.86v-1.59M16.7-29.31v1.59M16.7-3.93v-1.59M16.7-22.96v1.58M16.7-32.48v1.59M16.7-8.69v-1.59M16.7 0v-.76M16.7-38.82v1.59M16.7-.76v-1.59M16.7-37.23v1.58M16.7-13.45v-1.58M16.7-2.35v-1.58M16.7-10.28v-1.58M16.7-40.41v1.59M16.7-16.62v1.59M16.7-27.72v1.59M16.7-41.99v1.58M16.7-18.21v1.59M16.7-34.06v1.58M16.7-42.81v.82M16.7-19.79v1.58M18.29-15.03v-1.59M18.29-18.21v1.59M18.29-40.41v1.59M18.29-19.79v1.58M18.29-21.38v1.59M18.29-26.13v1.58M18.29-2.35v-1.58M18.29-38.82v1.59M18.29-10.28v-1.58M18.29-7.11v-1.58M18.29-32.48v1.59M18.29-30.89v1.58M18.29-37.23v1.58M18.29-11.86v-1.59M18.29-41.99v1.58M18.29-5.52v-1.59M18.29-42.81v.82M18.29-35.65v1.59M18.29-29.31v1.59M18.29-34.06v1.58M18.29-22.96v1.58M18.29-27.72v1.59M18.29-.76v-1.59M18.29-13.45v-1.58M18.29 0v-.76M18.29-3.93v-1.59M18.29-8.69v-1.59M18.29-24.55v1.59M19.88-35.65v1.59M19.88-27.72v1.59M19.88-7.11v-1.58M19.88-30.89v1.58M19.88-34.06v1.58M19.88-8.69v-1.59M19.88-29.31v1.59M19.88-10.28v-1.58M19.88-5.52v-1.59M19.88-19.79v-1.59M19.88-37.23v1.58M19.88-11.86v-1.59M19.88-16.62v-1.59M19.88-22.96v1.58M19.88-41.99v1.58M19.88-3.93v-1.59M19.88-24.55v1.59M19.88-42.81v.82M19.88 0v-.76M19.88-2.35v-1.58M19.88-38.82v1.59M19.88-26.13v1.58M19.88-40.41v1.59M19.88-32.48v1.59M19.88-.76v-1.59M19.88-18.21v-1.58M19.88-15.03v-1.59M19.88-13.45v-1.58M21.46-32.48v1.59M21.46-10.28v-1.58M21.46-30.89v1.58M21.46-11.86v-1.59M21.46-34.06v1.58M21.46-2.35v-1.58M21.46-42.81v.82M21.46-8.69v-1.59M21.46-7.11v-1.58M21.46-37.23v1.58M21.46-26.13v1.58M21.46-13.45v-1.58M21.46-38.82v1.59M21.46-24.55v1.59M21.46-16.62v-1.59M21.46 0v-.76M21.46-15.03v-1.59M21.46-18.21v-1.58M21.46-3.93v-1.59M21.46-40.41v1.59M21.46-22.96v1.58M21.46-41.99v1.58M21.46-19.79v-1.59M21.46-29.31v1.59M21.46-.76v-1.59M21.46-5.52v-1.59M21.46-27.72v1.59M21.46-35.65v1.59M23.05-32.48v1.59M23.05-29.31v1.59M23.05-2.35v-1.58M23.05-40.41v1.59M23.05-27.72v1.59M23.05-19.79v-1.59M23.05-13.45v-1.58M23.05-5.52v-1.59M23.05-7.11v-1.58M23.05-15.03v-1.59M23.05 0v-.76M23.05-22.96v1.58M23.05-35.65v1.59M23.05-42.81v.82M23.05-30.89v1.58M23.05-41.99v1.58M23.05-37.23v1.58M23.05-18.21v-1.58M23.05-11.86v-1.59M23.05-38.82v1.59M23.05-8.69v-1.59M23.05-.76v-1.59M23.05-10.28v-1.58M23.05-26.13v1.58M23.05-24.55v1.59M23.05-34.06v1.58M23.05-16.62v-1.59M23.05-3.93v-1.59M24.63-21.38v1.59M24.63-.76v-1.59M24.63-3.93v-1.59M24.63-8.69v-1.59M24.63-41.99v1.58M24.63-37.23v1.58M24.63-35.65v1.59M24.63-29.31v1.59M24.63-40.41v1.59M24.63-34.06v1.58M24.63-30.89v1.58M24.63-21.38v-1.58M24.63-24.55v-1.58M24.63-18.21v-1.58M24.63-22.96v-1.59M24.63-10.28v-1.58M24.63-38.82v1.59M24.63-27.72v1.59M24.63-15.03v-1.59M24.63 0v-.76M24.63-13.45v-1.58M24.63-32.48v1.59M24.63-11.86v-1.59M24.63-5.52v-1.59M24.63-42.81v.82M24.63-2.35v-1.58M24.63-16.62v-1.59M24.63-7.11v-1.58M26.22-37.23v1.58M26.22-41.99v1.58M26.22-16.62v-1.59M26.22-34.06v1.58M26.22-10.28v-1.58M26.22-2.35v-1.58M26.22-13.45v-1.58M26.22-11.86v-1.59M26.22-.76v-1.59M26.22 0v-.76M26.22-5.52v-1.59M26.22-32.48v1.59M26.22-18.21v-1.58M26.22-30.89v1.58M26.22-19.79v-1.59M26.22-42.81v.82M26.22-22.96v1.58M26.22-7.11v-1.58M26.22-3.93v-1.59M26.22-22.96v-1.59M26.22-8.69v-1.59M26.22-15.03v-1.59M26.22-35.65v1.59M26.22-40.41v1.59M26.22-29.31v1.59M26.22-38.82v1.59M26.22-26.13v-1.59M26.22-24.55v-1.58M27.8-38.82v1.59M27.8-13.45v-1.58M27.8-11.86v-1.59M27.8-8.69v-1.59M27.8-.76v-1.59M27.8-32.48v1.59M27.8-3.93v-1.59M27.8-10.28v-1.58M27.8-2.35v-1.58M27.8-24.55v1.59M27.8-40.41v1.59M27.8-41.99v1.58M27.8-37.23v1.58M27.8-24.55v-1.58M27.8-18.21v-1.58M27.8-21.38v-1.58M27.8-19.79v-1.59M27.8-26.13v-1.59M27.8-27.72v-1.59M27.8-34.06v1.58M27.8 0v-.76M27.8-5.52v-1.59M27.8-42.81v.82M27.8-7.11v-1.58M27.8-30.89v1.58M27.8-35.65v1.59M27.8-15.03v-1.59M27.8-16.62v-1.59M29.39-.76v-1.59M29.39-32.48v1.59M29.39 0v-.76M29.39-42.81v.82M29.39-40.41v1.59M29.39-5.52v-1.59M29.39-10.28v-1.58M29.39-7.11v-1.58M29.39-8.69v-1.59M29.39-3.93v-1.59M29.39-29.31v-1.58M29.39-27.72v-1.59M29.39-13.45v-1.58M29.39-15.03v-1.59M29.39-35.65v1.59M29.39-18.21v-1.58M29.39-16.62v-1.59M29.39-41.99v1.58M29.39-34.06v1.58M29.39-38.82v1.59M29.39-37.23v1.58M29.39-11.86v-1.59M29.39-26.13v-1.59M29.39-26.13v1.58M29.39-21.38v-1.58M29.39-2.35v-1.58M29.39-22.96v-1.59M29.39-19.79v-1.59M30.98-38.82v1.59M30.98-30.89v-1.59M30.98-42.81v.82M30.98-10.28v-1.58M30.98 0v-.76M30.98-15.03v-1.59M30.98-35.65v1.59M30.98-16.62v-1.59M30.98-13.45v-1.58M30.98-21.38v-1.58M30.98-19.79v-1.59M30.98-18.21v-1.58M30.98-22.96v-1.59M30.98-29.31v-1.58M30.98-27.72v-1.59M30.98-34.06v1.58M30.98-41.99v1.58M30.98-2.35v-1.58M30.98-8.69v-1.59M30.98-37.23v1.58M30.98-40.41v1.59M30.98-5.52v-1.59M30.98-7.11v-1.58M30.98-11.86v-1.59M30.98-27.72v1.59M30.98-.76v-1.59M30.98-24.55v-1.58M30.98-3.93v-1.59M32.56-21.38v-1.58M32.56-29.31v1.59M32.56-42.81v.82M32.56-24.55v-1.58M32.56-38.82v1.59M32.56-22.96v-1.59M32.56-40.41v1.59M32.56-26.13v-1.59M32.56-2.35v-1.58M32.56-13.45v-1.58M32.56-5.52v-1.59M32.56-15.03v-1.59M32.56-18.21v-1.58M32.56-19.79v-1.59M32.56-3.93v-1.59M32.56-10.28v-1.58M32.56-7.11v-1.58M32.56-8.69v-1.59M32.56-41.99v1.58M32.56-.76v-1.59M32.56-11.86v-1.59M32.56-37.23v1.58M32.56-29.31v-1.58M32.56-30.89v-1.59M32.56 0v-.76M32.56-32.48v-1.58M32.56-35.65v1.59M32.56-16.62v-1.59M34.15-18.21v-1.58M34.15-19.79v-1.59M34.15-40.41v1.59M34.15-22.96v-1.59M34.15-21.38v-1.58M34.15-24.55v-1.58M34.15-26.13v-1.59M34.15-15.03v-1.59M34.15-38.82v1.59M34.15-13.45v-1.58M34.15-42.81v.82M34.15-11.86v-1.59M34.15-10.28v-1.58M34.15-16.62v-1.59M34.15-34.06v-1.59M34.15-30.89v-1.59M34.15-32.48v-1.58M34.15-37.23v1.58M34.15-27.72v-1.59M34.15-41.99v1.58M34.15-2.35v-1.58M34.15-7.11v-1.58M34.15 0v-.76M34.15-30.89v1.58M34.15-3.93v-1.59M34.15-8.69v-1.59M34.15-.76v-1.59M34.15-5.52v-1.59M35.73-19.79v-1.59M35.73-22.96v-1.59M35.73-18.21v-1.58M35.73-26.13v-1.59M35.73-16.62v-1.59M35.73-35.65v-1.58M35.73-32.48v-1.58M35.73-34.06v-1.59M35.73-24.55v-1.58M35.73-7.11v-1.58M35.73 0v-.76M35.73-8.69v-1.59M35.73-11.86v-1.59M35.73-13.45v-1.58M35.73-15.03v-1.59M35.73-10.28v-1.58M35.73-21.38v-1.58M35.73-2.35v-1.58M35.73-42.81v.82M35.73-3.93v-1.59M35.73-40.41v1.59M35.73-.76v-1.59M35.73-41.99v1.58M35.73-5.52v-1.59M35.73-29.31v-1.58M35.73-27.72v-1.59M35.73-32.48v1.59M35.73-38.82v1.59M37.32-11.86v-1.59M37.32-10.28v-1.58M37.32-16.62v-1.59M37.32-8.69v-1.59M37.32-42.81v.82M37.32-18.21v-1.58M37.32-13.45v-1.58M37.32-3.93v-1.59M37.32-41.99v1.58M37.32-5.52v-1.59M37.32-.76v-1.59M37.32-2.35v-1.58M37.32 0v-.76M37.32-7.11v-1.58M37.32-15.03v-1.59M37.32-26.13v-1.59M37.32-37.23v-1.59M37.32-40.41v1.59M37.32-35.65v-1.58M37.32-30.89v-1.59M37.32-22.96v-1.59M37.32-24.55v-1.58M37.32-34.06v-1.59M37.32-29.31v-1.58M37.32-19.79v-1.59M37.32-21.38v-1.58M37.32-27.72v-1.59M37.32-34.06v1.58M38.91-35.65v-1.58M38.91-37.23v-1.59M38.91-13.45v-1.58M38.91-11.86v-1.59M38.91-7.11v-1.58M38.91-38.82v-1.59M38.91-5.52v-1.59M38.91-15.03v-1.59M38.91-2.35v-1.58M38.91-27.72v-1.59M38.91-.76v-1.59M38.91-41.99v1.58M38.91 0v-.76M38.91-8.69v-1.59M38.91-29.31v-1.58M38.91-10.28v-1.58M38.91-18.21v-1.58M38.91-21.38v-1.58M38.91-24.55v-1.58M38.91-22.96v-1.59M38.91-3.93v-1.59M38.91-19.79v-1.59M38.91-30.89v-1.59M38.91-26.13v-1.59M38.91-42.81v.82M38.91-16.62v-1.59M38.91-32.48v-1.58M38.91-35.65v1.59M40.49 0v-.76M40.49-19.79v-1.59M40.49-2.35v-1.58M40.49-13.45v-1.58M40.49-18.21v-1.58M40.49-42.81v.82M40.49-27.72v-1.59M40.49-11.86v-1.59M40.49-15.03v-1.59M40.49-8.69v-1.59M40.49-16.62v-1.59M40.49-.76v-1.59M40.49-10.28v-1.58M40.49-37.23v1.58M40.49-34.06v-1.59M40.49-26.13v-1.59M40.49-5.52v-1.59M40.49-32.48v-1.58M40.49-29.31v-1.58M40.49-3.93v-1.59M40.49-30.89v-1.59M40.49-40.41v-1.58M40.49-24.55v-1.58M40.49-38.82v-1.59M40.49-22.96v-1.59M40.49-37.23v-1.59M40.49-7.11v-1.58M40.49-21.38v-1.58M42.08-41.99v-.82M42.08-.76v-1.59M42.08-38.82v-1.59M42.08-40.41v-1.58M42.08-8.69v-1.59M42.08-32.48v-1.58M42.08-21.38v-1.58M42.08-34.06v-1.59M42.08-22.96v-1.59M42.08-10.28v-1.58M42.08-11.86v-1.59M42.08-19.79v-1.59M42.08-35.65v-1.58M42.08-16.62v-1.59M42.08-18.21v-1.58M42.08-15.03v-1.59M42.08-38.82v1.59M42.08-13.45v-1.58M42.08-27.72v-1.59M42.08-24.55v-1.58M42.08-26.13v-1.59M42.08-30.89v-1.59M42.08-29.31v-1.58M42.08-5.52v-1.59M42.08-3.93v-1.59M42.08 0v-.76M42.08-7.11v-1.58M42.08-2.35v-1.58" style="fill:none;stroke:#ed1b2e;stroke-width:.36"/></svg>