<svg xmlns="http://www.w3.org/2000/svg" xml:space="preserve" width="55.5" height="55.5" viewBox="0 -55.5 55.5 55.5"><path d="M0-55.5h55.5V0H0z" style="fill:none"/><path d="M1.4-3.65v-2.52M1.4-13.74v2.52M1.4-11.22v2.53M1.4-8.69v2.52M1.4-55.5v1.4M1.4-54.1v2.52M1.4 0v-1.13M1.4-51.58v2.52M1.4-3.65v2.52M1.4-49.06v2.53M1.4-33.92v2.52M1.4-38.97v2.53M1.4-16.26v2.52M1.4-41.49v2.52M1.4-44.01v2.52M1.4-46.53v2.52M1.4-36.44v2.52M1.4-31.4v2.52M1.4-23.83v2.52M1.4-18.78v2.52M1.4-21.31v2.53M1.4-28.88v2.53M1.4-26.35v2.52M3.92-23.83v2.52M3.92-33.92v2.52M3.92-36.44v2.52M3.92-28.88v2.53M3.92-26.35v2.52M3.92-46.53v2.52M3.92-38.97v2.53M3.92-54.1v2.52M3.92-44.01v2.52M3.92-41.49v2.52M3.92-21.31v2.53M3.92-1.13v-2.52M3.92-6.17v2.52M3.92-51.58v2.52M3.92-49.06v2.53M3.92 0v-1.13M3.92-6.17v-2.52M3.92-18.78v2.52M3.92-13.74v2.52M3.92-16.26v2.52M3.92-11.22v2.53M3.92-31.4v2.52M3.92-55.5v1.4M6.44-16.26v2.52M6.44-13.74v2.52M6.44-46.53v2.52M6.44-8.69v-2.53M6.44-3.65v-2.52M6.44-54.1v2.52M6.44-55.5v1.4M6.44-51.58v2.52M6.44 0v-1.13M6.44-1.13v-2.52M6.44-8.69v2.52M6.44-18.78v2.52M6.44-49.06v2.53M6.44-38.97v2.53M6.44-44.01v2.52M6.44-41.49v2.52M6.44-36.44v2.52M6.44-28.88v2.53M6.44-31.4v2.52M6.44-33.92v2.52M6.44-23.83v2.52M6.44-26.35v2.52M6.44-21.31v2.53M8.97-38.97v2.53M8.97-41.49v2.52M8.97-44.01v2.52M8.97-51.58v2.52M8.97-54.1v2.52M8.97-36.44v2.52M8.97-55.5v1.4M8.97-3.65v-2.52M8.97-49.06v2.53M8.97-1.13v-2.52M8.97-46.53v2.52M8.97-26.35v2.52M8.97-11.22v-2.52M8.97-23.83v2.52M8.97-6.17v-2.52M8.97-28.88v2.53M8.97-21.31v2.53M8.97-18.78v2.52M8.97-11.22v2.53M8.97-33.92v2.52M8.97 0v-1.13M8.97-16.26v2.52M8.97-31.4v2.52M11.49-49.06v2.53M11.49-31.4v2.52M11.49-54.1v2.52M11.49-51.58v2.52M11.49-38.97v2.53M11.49-36.44v2.52M11.49-33.92v2.52M11.49-23.83v2.52M11.49-3.65v-2.52M11.49-13.74v-2.52M11.49-1.13v-2.52M11.49-6.17v-2.52M11.49-18.78v2.52M11.49-44.01v2.52M11.49-26.35v2.52M11.49-28.88v2.53M11.49-21.31v2.53M11.49 0v-1.13M11.49-46.53v2.52M11.49-8.69v-2.53M11.49-13.74v2.52M11.49-55.5v1.4M11.49-41.49v2.52M14.01-16.26v-2.52M14.01-21.31v2.53M14.01-23.83v2.52M14.01-28.88v2.53M14.01-26.35v2.52M14.01-38.97v2.53M14.01-44.01v2.52M14.01 0v-1.13M14.01-36.44v2.52M14.01-31.4v2.52M14.01-55.5v1.4M14.01-33.92v2.52M14.01-1.13v-2.52M14.01-3.65v-2.52M14.01-46.53v2.52M14.01-8.69v-2.53M14.01-6.17v-2.52M14.01-16.26v2.52M14.01-49.06v2.53M14.01-54.1v2.52M14.01-51.58v2.52M14.01-11.22v-2.52M14.01-41.49v2.52M16.53-55.5v1.4M16.53-18.78v-2.53M16.53-23.83v2.52M16.53-26.35v2.52M16.53-41.49v2.52M16.53-11.22v-2.52M16.53-13.74v-2.52M16.53-18.78v2.52M16.53-51.58v2.52M16.53-49.06v2.53M16.53 0v-1.13M16.53-36.44v2.52M16.53-3.65v-2.52M16.53-1.13v-2.52M16.53-8.69v-2.53M16.53-6.17v-2.52M16.53-38.97v2.53M16.53-54.1v2.52M16.53-44.01v2.52M16.53-46.53v2.52M16.53-28.88v2.53M16.53-31.4v2.52M16.53-33.92v2.52M19.06-8.69v-2.53M19.06 0v-1.13M19.06-6.17v-2.52M19.06-49.06v2.53M19.06-13.74v-2.52M19.06-3.65v-2.52M19.06-36.44v2.52M19.06-54.1v2.52M19.06-1.13v-2.52M19.06-11.22v-2.52M19.06-44.01v2.52M19.06-55.5v1.4M19.06-46.53v2.52M19.06-41.49v2.52M19.06-51.58v2.52M19.06-38.97v2.53M19.06-26.35v2.52M19.06-33.92v2.52M19.06-31.4v2.52M19.06-16.26v-2.52M19.06-21.31v-2.52M19.06-28.88v2.53M19.06-21.31v2.53M21.58-16.26v-2.52M21.58-33.92v2.52M21.58-38.97v2.53M21.58-1.13v-2.52M21.58-49.06v2.53M21.58-41.49v2.52M21.58-28.88v2.53M21.58-18.78v-2.53M21.58-23.83v-2.52M21.58-44.01v2.52M21.58-55.5v1.4M21.58-46.53v2.52M21.58-51.58v2.52M21.58-11.22v-2.52M21.58-6.17v-2.52M21.58-31.4v2.52M21.58-3.65v-2.52M21.58-36.44v2.52M21.58-54.1v2.52M21.58-8.69v-2.53M21.58 0v-1.13M21.58-13.74v-2.52M21.58-23.83v2.52M24.1-18.78v-2.53M24.1-49.06v2.53M24.1-13.74v-2.52M24.1-16.26v-2.52M24.1 0v-1.13M24.1-55.5v1.4M24.1-51.58v2.52M24.1-26.35v2.52M24.1-8.69v-2.53M24.1-46.53v2.52M24.1-3.65v-2.52M24.1-31.4v2.52M24.1-54.1v2.52M24.1-11.22v-2.52M24.1-33.92v2.52M24.1-44.01v2.52M24.1-21.31v-2.52M24.1-36.44v2.52M24.1-28.88v2.53M24.1-1.13v-2.52M24.1-6.17v-2.52M24.1-41.49v2.52M24.1-38.97v2.53M26.63-6.17v-2.52M26.63-46.53v2.52M26.63-38.97v2.53M26.63-3.65v-2.52M26.63-31.4v2.52M26.63-49.06v2.53M26.63-16.26v-2.52M26.63-28.88v2.53M26.63-8.69v-2.53M26.63-13.74v-2.52M26.63-36.44v2.52M26.63-44.01v2.52M26.63-54.1v2.52M26.63-51.58v2.52M26.63-21.31v-2.52M26.63-41.49v2.52M26.63-11.22v-2.52M26.63-18.78v-2.53M26.63-1.13v-2.52M26.63-55.5v1.4M26.63-23.83v-2.52M26.63 0v-1.13M26.63-33.92v2.52M29.15-36.44v2.52M29.15-8.69v-2.53M29.15-23.83v-2.52M29.15-44.01v2.52M29.15-51.58v2.52M29.15-6.17v-2.52M29.15-28.88v2.53M29.15-33.92v2.52M29.15 0v-1.13M29.15-46.53v2.52M29.15-21.31v-2.52M29.15-31.4v2.52M29.15-55.5v1.4M29.15-1.13v-2.52M29.15-16.26v-2.52M29.15-18.78v-2.53M29.15-41.49v2.52M29.15-49.06v2.53M29.15-54.1v2.52M29.15-13.74v-2.52M29.15-3.65v-2.52M29.15-38.97v2.53M29.15-11.22v-2.52M31.67-54.1v2.52M31.67-3.65v-2.52M31.67-51.58v2.52M31.67-55.5v1.4M31.67-18.78v-2.53M31.67-21.31v-2.52M31.67-38.97v2.53M31.67-13.74v-2.52M31.67-1.13v-2.52M31.67-16.26v-2.52M31.67-31.4v-2.52M31.67 0v-1.13M31.67-23.83v-2.52M31.67-36.44v2.52M31.67-49.06v2.53M31.67-28.88v-2.52M31.67-44.01v2.52M31.67-46.53v2.52M31.67-41.49v2.52M31.67-11.22v-2.52M31.67-6.17v-2.52M31.67-8.69v-2.53M31.67-26.35v-2.53M34.19-1.13v-2.52M34.19-26.35v-2.53M34.19-23.83v-2.52M34.19-55.5v1.4M34.19-33.92v-2.52M34.19-28.88v-2.52M34.19-46.53v2.52M34.19-8.69v-2.53M34.19-31.4v-2.52M34.19-6.17v-2.52M34.19-41.49v2.52M34.19-11.22v-2.52M34.19-54.1v2.52M34.19-38.97v2.53M34.19-49.06v2.53M34.19-16.26v-2.52M34.19 0v-1.13M34.19-44.01v2.52M34.19-3.65v-2.52M34.19-13.74v-2.52M34.19-18.78v-2.53M34.19-21.31v-2.52M34.19-51.58v2.52M36.72-18.78v-2.53M36.72-51.58v2.52M36.72-44.01v2.52M36.72-21.31v-2.52M36.72-28.88v-2.52M36.72-31.4v-2.52M36.72-1.13v-2.52M36.72-8.69v-2.53M36.72-11.22v-2.52M36.72-41.49v2.52M36.72-16.26v-2.52M36.72-23.83v-2.52M36.72-54.1v2.52M36.72-26.35v-2.53M36.72-33.92v-2.52M36.72-6.17v-2.52M36.72-55.5v1.4M36.72-3.65v-2.52M36.72 0v-1.13M36.72-49.06v2.53M36.72-13.74v-2.52M36.72-36.44v-2.53M36.72-46.53v2.52M39.24-6.17v-2.52M39.24-8.69v-2.53M39.24-3.65v-2.52M39.24-1.13v-2.52M39.24-49.06v2.53M39.24-11.22v-2.52M39.24 0v-1.13M39.24-13.74v-2.52M39.24-36.44v-2.53M39.24-44.01v2.52M39.24-28.88v-2.52M39.24-33.92v-2.52M39.24-31.4v-2.52M39.24-55.5v1.4M39.24-46.53v2.52M39.24-54.1v2.52M39.24-51.58v2.52M39.24-38.97v-2.52M39.24-18.78v-2.53M39.24-23.83v-2.52M39.24-16.26v-2.52M39.24-21.31v-2.52M39.24-26.35v-2.53M41.76-41.49v-2.52M41.76-38.97v-2.52M41.76-13.74v-2.52M41.76-3.65v-2.52M41.76-6.17v-2.52M41.76-55.5v1.4M41.76-46.53v2.52M41.76-54.1v2.52M41.76-49.06v2.53M41.76-18.78v-2.53M41.76-23.83v-2.52M41.76-33.92v-2.52M41.76-1.13v-2.52M41.76-16.26v-2.52M41.76-26.35v-2.53M41.76-8.69v-2.53M41.76-36.44v-2.53M41.76-31.4v-2.52M41.76-21.31v-2.52M41.76-51.58v2.52M41.76-11.22v-2.52M41.76 0v-1.13M41.76-28.88v-2.52M44.28-18.78v-2.53M44.28-54.1v2.52M44.28-31.4v-2.52M44.28-8.69v-2.53M44.28-3.65v-2.52M44.28-33.92v-2.52M44.28-1.13v-2.52M44.28-16.26v-2.52M44.28-41.49v-2.52M44.28-28.88v-2.52M44.28-13.74v-2.52M44.28-38.97v-2.52M44.28-44.01v-2.52M44.28-49.06v2.53M44.28-51.58v2.52M44.28-55.5v1.4M44.28-21.31v-2.52M44.28-26.35v-2.53M44.28 0v-1.13M44.28-23.83v-2.52M44.28-36.44v-2.53M44.28-11.22v-2.52M44.28-6.17v-2.52M46.81-51.58v2.52M46.81-21.31v-2.52M46.81-18.78v-2.53M46.81-46.53v-2.53M46.81-41.49v-2.52M46.81-23.83v-2.52M46.81-33.92v-2.52M46.81 0v-1.13M46.81-28.88v-2.52M46.81-55.5v1.4M46.81-6.17v-2.52M46.81-31.4v-2.52M46.81-11.22v-2.52M46.81-26.35v-2.53M46.81-8.69v-2.53M46.81-1.13v-2.52M46.81-3.65v-2.52M46.81-13.74v-2.52M46.81-38.97v-2.52M46.81-54.1v2.52M46.81-16.26v-2.52M46.81-44.01v-2.52M46.81-36.44v-2.53M49.33-55.5v1.4M49.33-54.1v2.52M49.33-38.97v-2.52M49.33 0v-1.13M49.33-46.53v-2.53M49.33-44.01v-2.52M49.33-41.49v-2.52M49.33-49.06v-2.52M49.33-26.35v-2.53M49.33-13.74v-2.52M49.33-18.78v-2.53M49.33-11.22v-2.52M49.33-16.26v-2.52M49.33-1.13v-2.52M49.33-3.65v-2.52M49.33-6.17v-2.52M49.33-8.69v-2.53M49.33-28.88v-2.52M49.33-31.4v-2.52M49.33-33.92v-2.52M49.33-36.44v-2.53M49.33-23.83v-2.52M49.33-21.31v-2.52M51.85 0v-1.13M51.85-46.53v-2.53M51.85-31.4v-2.52M51.85-13.74v-2.52M51.85-36.44v-2.53M51.85-33.92v-2.52M51.85-38.97v-2.52M51.85-11.22v-2.52M51.85-28.88v-2.52M51.85-16.26v-2.52M51.85-21.31v-2.52M51.85-26.35v-2.53M51.85-23.83v-2.52M51.85-6.17v-2.52M51.85-55.5v1.4M51.85-18.78v-2.53M51.85-51.58v-2.52M51.85-1.13v-2.52M51.85-3.65v-2.52M51.85-49.06v-2.52M51.85-41.49v-2.52M51.85-44.01v-2.52M51.85-8.69v-2.53M54.38-11.22v-2.52M54.38-8.69v-2.53M54.38-51.58v-2.52M54.38-54.1v-1.4M54.38-21.31v-2.52M54.38-23.83v-2.52M54.38-18.78v-2.53M54.38-49.06v-2.52M54.38-13.74v-2.52M54.38-26.35v-2.53M54.38-44.01v-2.52M54.38-16.26v-2.52M54.38-28.88v-2.52M54.38-31.4v-2.52M54.38 0v-1.13M54.38-36.44v-2.53M54.38-33.92v-2.52M54.38-38.97v-2.52M54.38-41.49v-2.52M54.38-1.13v-2.52M54.38-46.53v-2.53M54.38-3.65v-2.52M54.38-6.17v-2.52M3.92-54.1h2.52M49.33-54.1h-2.52M54.38-54.1h-2.53M46.81-54.1h-2.53M6.44-54.1h2.53M3.92-54.1H1.4M51.85-54.1h-2.52M55.5-54.1h-1.12M1.4-54.1H0M31.67-54.1h-2.52M39.24-54.1h-2.52M41.76-54.1h-2.52M44.28-54.1h-2.52M29.15-54.1h-2.52M36.72-54.1h-2.53M34.19-54.1h-2.52M14.01-54.1h-2.52M16.53-54.1h-2.52M11.49-54.1H8.97M19.06-54.1h-2.53M21.58-54.1h-2.52M24.1-54.1h-2.52M26.63-54.1H24.1M55.5-51.58h-1.12M6.44-51.58h2.53M54.38-51.58h-2.53M49.33-51.58h-2.52M24.1-51.58h-2.52M26.63-51.58H24.1M31.67-51.58h-2.52M29.15-51.58h-2.52M21.58-51.58h-2.52M19.06-51.58h-2.53M39.24-51.58h-2.52M44.28-51.58h-2.52M41.76-51.58h-2.52M16.53-51.58h-2.52M36.72-51.58h-2.53M34.19-51.58h-2.52M3.92-51.58H1.4M1.4-51.58H0M46.81-51.58h-2.53M14.01-51.58h-2.52M6.44-51.58H3.92M8.97-51.58h2.52M51.85-51.58h-2.52M36.72-49.06h-2.53M49.33-49.06h-2.52M31.67-49.06h-2.52M3.92-49.06H1.4M1.4-49.06H0M34.19-49.06h-2.52M44.28-49.06h-2.52M46.81-49.06h-2.53M39.24-49.06h-2.52M41.76-49.06h-2.52M11.49-49.06h2.52M54.38-49.06h-2.53M51.85-49.06h-2.52M8.97-49.06h2.52M16.53-49.06h-2.52M29.15-49.06h-2.52M55.5-49.06h-1.12M8.97-49.06H6.44M26.63-49.06H24.1M6.44-49.06H3.92M19.06-49.06h-2.53M21.58-49.06h-2.52M24.1-49.06h-2.52M36.72-46.53h-2.53M39.24-46.53h-2.52M44.28-46.53h-2.52M46.81-46.53h-2.53M14.01-46.53h2.52M21.58-46.53h-2.52M19.06-46.53h-2.53M24.1-46.53h-2.52M34.19-46.53h-2.52M31.67-46.53h-2.52M26.63-46.53H24.1M29.15-46.53h-2.52M41.76-46.53h-2.52M11.49-46.53H8.97M8.97-46.53H6.44M51.85-46.53h-2.52M0-46.53h1.4M6.44-46.53H3.92M3.92-46.53H1.4M11.49-46.53h2.52M49.33-46.53h-2.52M54.38-46.53h-2.53M55.5-46.53h-1.12M31.67-44.01h-2.52M34.19-44.01h-2.52M54.38-44.01h-2.53M36.72-44.01h-2.53M29.15-44.01h-2.52M26.63-44.01H24.1M39.24-44.01h-2.52M14.01-44.01h-2.52M24.1-44.01h-2.52M0-44.01h1.4M41.76-44.01h-2.52M44.28-44.01h-2.52M51.85-44.01h-2.52M46.81-44.01h-2.53M49.33-44.01h-2.52M21.58-44.01h-2.52M14.01-44.01h2.52M8.97-44.01H6.44M6.44-44.01H3.92M55.5-44.01h-1.12M1.4-44.01h2.52M11.49-44.01H8.97M16.53-44.01h2.53M1.4-41.49h2.52M19.06-41.49h2.52M49.33-41.49h-2.52M54.38-41.49h-2.53M41.76-41.49h-2.52M39.24-41.49h-2.52M36.72-41.49h-2.53M0-41.49h1.4M44.28-41.49h-2.52M11.49-41.49H8.97M46.81-41.49h-2.53M34.19-41.49h-2.52M16.53-41.49h-2.52M16.53-41.49h2.53M14.01-41.49h-2.52M29.15-41.49h-2.52M31.67-41.49h-2.52M24.1-41.49h-2.52M3.92-41.49h2.52M26.63-41.49H24.1M51.85-41.49h-2.52M55.5-41.49h-1.12M8.97-41.49H6.44M16.53-38.97h-2.52M19.06-38.97h2.52M3.92-38.97h2.52M54.38-38.97h-2.53M26.63-38.97H24.1M19.06-38.97h-2.53M36.72-38.97h-2.53M39.24-38.97h-2.52M44.28-38.97h-2.52M46.81-38.97h-2.53M49.33-38.97h-2.52M55.5-38.97h-1.12M14.01-38.97h-2.52M6.44-38.97h2.53M11.49-38.97H8.97M1.4-38.97h2.52M0-38.97h1.4M29.15-38.97h-2.52M34.19-38.97h-2.52M21.58-38.97h2.52M51.85-38.97h-2.52M31.67-38.97h-2.52M41.76-38.97h-2.52M41.76-36.44h-2.52M21.58-36.44h2.52M55.5-36.44h-1.12M39.24-36.44h-2.52M46.81-36.44h-2.53M14.01-36.44h-2.52M44.28-36.44h-2.52M29.15-36.44h-2.52M31.67-36.44h-2.52M54.38-36.44h-2.53M24.1-36.44h2.53M49.33-36.44h-2.52M1.4-36.44h2.52M6.44-36.44h2.53M0-36.44h1.4M34.19-36.44h-2.52M36.72-36.44h-2.53M51.85-36.44h-2.52M19.06-36.44h-2.53M8.97-36.44h2.52M16.53-36.44h-2.52M21.58-36.44h-2.52M3.92-36.44h2.52M36.72-33.92h-2.53M39.24-33.92h-2.52M6.44-33.92h2.53M24.1-33.92h2.53M26.63-33.92h2.52M21.58-33.92h-2.52M19.06-33.92h-2.53M24.1-33.92h-2.52M31.67-33.92h-2.52M34.19-33.92h-2.52M11.49-33.92h2.52M16.53-33.92h-2.52M41.76-33.92h-2.52M44.28-33.92h-2.52M8.97-33.92h2.52M54.38-33.92h-2.53M51.85-33.92h-2.52M0-33.92h1.4M49.33-33.92h-2.52M1.4-33.92h2.52M55.5-33.92h-1.12M3.92-33.92h2.52M46.81-33.92h-2.53M11.49-31.4h2.52M41.76-31.4h-2.52M34.19-31.4h-2.52M46.81-31.4h-2.53M26.63-31.4h2.52M6.44-31.4h2.53M39.24-31.4h-2.52M3.92-31.4h2.52M14.01-31.4h2.52M1.4-31.4h2.52M49.33-31.4h-2.52M36.72-31.4h-2.53M55.5-31.4h-1.12M0-31.4h1.4M29.15-31.4h2.52M19.06-31.4h-2.53M51.85-31.4h-2.52M24.1-31.4h-2.52M21.58-31.4h-2.52M8.97-31.4h2.52M44.28-31.4h-2.52M26.63-31.4H24.1M54.38-31.4h-2.53M6.44-28.88h2.53M14.01-28.88h2.52M0-28.88h1.4M8.97-28.88h2.52M54.38-28.88h-2.53M44.28-28.88h-2.52M51.85-28.88h-2.52M39.24-28.88h-2.52M55.5-28.88h-1.12M49.33-28.88h-2.52M1.4-28.88h2.52M41.76-28.88h-2.52M11.49-28.88h2.52M16.53-28.88h2.53M29.15-28.88h-2.52M3.92-28.88h2.52M34.19-28.88h-2.52M26.63-28.88H24.1M29.15-28.88h2.52M46.81-28.88h-2.53M21.58-28.88h-2.52M24.1-28.88h-2.52M36.72-28.88h-2.53M36.72-26.35h-2.53M3.92-26.35h2.52M34.19-26.35h-2.52M41.76-26.35h-2.52M21.58-26.35h2.52M26.63-26.35H24.1M29.15-26.35h-2.52M8.97-26.35h2.52M0-26.35h1.4M31.67-26.35h-2.52M11.49-26.35h2.52M54.38-26.35h-2.53M19.06-26.35h2.52M49.33-26.35h-2.52M6.44-26.35h2.53M16.53-26.35h2.53M55.5-26.35h-1.12M44.28-26.35h-2.52M46.81-26.35h-2.53M51.85-26.35h-2.52M1.4-26.35h2.52M39.24-26.35h-2.52M14.01-26.35h2.52M0-23.83h1.4M14.01-23.83h2.52M51.85-23.83h-2.52M39.24-23.83h-2.52M8.97-23.83h2.52M44.28-23.83h-2.52M29.15-23.83h2.52M55.5-23.83h-1.12M16.53-23.83h2.53M36.72-23.83h-2.53M11.49-23.83h2.52M19.06-23.83h2.52M34.19-23.83h-2.52M41.76-23.83h-2.52M26.63-23.83h2.52M21.58-23.83h2.52M24.1-23.83h2.53M54.38-23.83h-2.53M49.33-23.83h-2.52M1.4-23.83h2.52M6.44-23.83h2.53M3.92-23.83h2.52M46.81-23.83h-2.53M19.06-21.31h2.52M1.4-21.31h2.52M51.85-21.31h-2.52M11.49-21.31h2.52M46.81-21.31h-2.53M41.76-21.31h-2.52M8.97-21.31h2.52M3.92-21.31h2.52M54.38-21.31h-2.53M39.24-21.31h-2.52M14.01-21.31h2.52M31.67-21.31h2.52M36.72-21.31h-2.53M6.44-21.31h2.53M29.15-21.31h2.52M26.63-21.31h2.52M24.1-21.31h2.53M49.33-21.31h-2.52M21.58-21.31h2.52M55.5-21.31h-1.12M16.53-21.31h2.53M44.28-21.31h-2.52M0-21.31h1.4M44.28-18.78h-2.52M34.19-18.78h2.53M39.24-18.78h-2.52M31.67-18.78h2.52M26.63-18.78h2.52M29.15-18.78h2.52M3.92-18.78h2.52M24.1-18.78h2.53M1.4-18.78h2.52M54.38-18.78h-2.53M11.49-18.78h2.52M49.33-18.78h-2.52M46.81-18.78h-2.53M55.5-18.78h-1.12M14.01-18.78h2.52M51.85-18.78h-2.52M21.58-18.78h2.52M41.76-18.78h-2.52M6.44-18.78h2.53M0-18.78h1.4M8.97-18.78h2.52M19.06-18.78h2.52M16.53-18.78h2.53M19.06-16.26h2.52M3.92-16.26h2.52M21.58-16.26h2.52M24.1-16.26h2.53M16.53-16.26h2.53M41.76-16.26h-2.52M29.15-16.26h2.52M36.72-16.26h2.52M31.67-16.26h2.52M34.19-16.26h2.53M26.63-16.26h2.52M0-16.26h1.4M46.81-16.26h-2.53M44.28-16.26h-2.52M51.85-16.26h-2.52M11.49-16.26h2.52M55.5-16.26h-1.12M49.33-16.26h-2.52M8.97-16.26h2.52M14.01-16.26h2.52M54.38-16.26h-2.53M1.4-16.26h2.52M6.44-16.26h2.53M6.44-13.74h2.53M8.97-13.74h2.52M51.85-13.74h-2.52M29.15-13.74h2.52M3.92-13.74h2.52M49.33-13.74h-2.52M39.24-13.74h2.52M31.67-13.74h2.52M36.72-13.74h2.52M55.5-13.74h-1.12M44.28-13.74h-2.52M34.19-13.74h2.53M46.81-13.74h-2.53M21.58-13.74h2.52M24.1-13.74h2.53M19.06-13.74h2.52M11.49-13.74h2.52M14.01-13.74h2.52M16.53-13.74h2.53M54.38-13.74h-2.53M0-13.74h1.4M1.4-13.74h2.52M26.63-13.74h2.52M26.63-11.22h2.52M3.92-11.22h2.52M11.49-11.22h2.52M6.44-11.22h2.53M31.67-11.22h2.52M8.97-11.22h2.52M54.38-11.22h-2.53M29.15-11.22h2.52M49.33-11.22h-2.52M24.1-11.22h2.53M14.01-11.22h2.52M16.53-11.22h2.53M55.5-11.22h-1.12M51.85-11.22h-2.52M21.58-11.22h2.52M19.06-11.22h2.52M0-11.22h1.4M36.72-11.22h2.52M34.19-11.22h2.53M41.76-11.22h2.52M46.81-11.22h-2.53M39.24-11.22h2.52M1.4-11.22h2.52M51.85-8.69h-2.52M34.19-8.69h2.53M44.28-8.69h2.53M11.49-8.69h2.52M16.53-8.69h2.53M49.33-8.69h-2.52M14.01-8.69h2.52M31.67-8.69h2.52M36.72-8.69h2.52M55.5-8.69h-1.12M21.58-8.69h2.52M3.92-8.69h2.52M41.76-8.69h2.52M39.24-8.69h2.52M1.4-8.69h2.52M24.1-8.69h2.53M0-8.69h1.4M54.38-8.69h-2.53M19.06-8.69h2.52M26.63-8.69h2.52M6.44-8.69h2.53M8.97-8.69h2.52M29.15-8.69h2.52M34.19-6.17h2.53M36.72-6.17h2.52M6.44-6.17h2.53M31.67-6.17h2.52M29.15-6.17h2.52M8.97-6.17h2.52M3.92-6.17h2.52M21.58-6.17h2.52M41.76-6.17h2.52M19.06-6.17h2.52M24.1-6.17h2.53M16.53-6.17h2.53M14.01-6.17h2.52M26.63-6.17h2.52M54.38-6.17h-2.53M39.24-6.17h2.52M44.28-6.17h2.53M51.85-6.17h-2.52M46.81-6.17h2.52M55.5-6.17h-1.12M1.4-6.17h2.52M11.49-6.17h2.52M0-6.17h1.4M8.97-3.65h2.52M1.4-3.65h2.52M3.92-3.65h2.52M6.44-3.65h2.53M14.01-3.65h2.52M55.5-3.65h-1.12M41.76-3.65h2.52M44.28-3.65h2.53M39.24-3.65h2.52M36.72-3.65h2.52M11.49-3.65h2.52M46.81-3.65h2.52M34.19-3.65h2.53M49.33-3.65h2.52M0-3.65h1.4M54.38-3.65h-2.53M16.53-3.65h2.53M19.06-3.65h2.52M31.67-3.65h2.52M21.58-3.65h2.52M29.15-3.65h2.52M26.63-3.65h2.52M24.1-3.65h2.53M34.19-1.13h2.53M21.58-1.13h2.52M31.67-1.13h2.52M36.72-1.13h2.52M26.63-1.13h2.52M24.1-1.13h2.53M39.24-1.13h2.52M29.15-1.13h2.52M44.28-1.13h2.53M46.81-1.13h2.52M55.5-1.13h-1.12M41.76-1.13h2.52M51.85-1.13h2.53M49.33-1.13h2.52M0-1.13h1.4M3.92-1.13h2.52M14.01-1.13h2.52M1.4-1.13h2.52M16.53-1.13h2.53M8.97-1.13h2.52M11.49-1.13h2.52M19.06-1.13h2.52M6.44-1.13h2.53" style="fill:none;stroke:#000;stroke-width:.36"/></svg>