<svg xmlns="http://www.w3.org/2000/svg" xml:space="preserve" width="55.5" height="55.5" viewBox="1.86 -57.36 55.5 55.5"><path d="M1.86-57.36h55.5v55.5H1.86z" style="fill:none"/><path d="M3.26-5.51v-2.52M3.26-15.6v2.52M3.26-13.08v2.53M3.26-10.55v2.52M3.26-57.36v1.4M3.26-55.96v2.52M3.26-1.86v-1.12M3.26-53.44v2.52M3.26-5.51v2.53M3.26-50.92v2.52M3.26-35.78v2.52M3.26-40.83v2.53M3.26-18.12v2.52M3.26-43.35v2.52M3.26-45.87v2.52M3.26-48.4v2.53M3.26-38.3v2.52M3.26-33.26v2.53M3.26-25.69v2.52M3.26-20.64v2.52M3.26-23.17v2.53M3.26-30.73v2.52M3.26-28.21v2.52M5.78-25.69v2.52M5.78-35.78v2.52M5.78-38.3v2.52M5.78-30.73v2.52M5.78-28.21v2.52M5.78-48.4v2.53M5.78-40.83v2.53M5.78-55.96v2.52M5.78-45.87v2.52M5.78-43.35v2.52M5.78-23.17v2.53M5.78-2.98v-2.53M5.78-8.03v2.52M5.78-53.44v2.52M5.78-50.92v2.52M5.78-1.86v-1.12M5.78-8.03v-2.52M5.78-20.64v2.52M5.78-15.6v2.52M5.78-18.12v2.52M5.78-13.08v2.53M5.78-33.26v2.53M5.78-57.36v1.4M8.3-18.12v2.52M8.3-15.6v2.52M8.3-48.4v2.53M8.3-10.55v-2.53M8.3-5.51v-2.52M8.3-55.96v2.52M8.3-57.36v1.4M8.3-53.44v2.52M8.3-1.86v-1.12M8.3-2.98v-2.53M8.3-10.55v2.52M8.3-20.64v2.52M8.3-50.92v2.52M8.3-40.83v2.53M8.3-45.87v2.52M8.3-43.35v2.52M8.3-38.3v2.52M8.3-30.73v2.52M8.3-33.26v2.53M8.3-35.78v2.52M8.3-25.69v2.52M8.3-28.21v2.52M8.3-23.17v2.53M10.83-40.83v2.53M10.83-43.35v2.52M10.83-45.87v2.52M10.83-53.44v2.52M10.83-55.96v2.52M10.83-38.3v2.52M10.83-57.36v1.4M10.83-5.51v-2.52M10.83-50.92v2.52M10.83-2.98v-2.53M10.83-48.4v2.53M10.83-28.21v2.52M10.83-13.08v-2.52M10.83-25.69v2.52M10.83-8.03v-2.52M10.83-30.73v2.52M10.83-23.17v2.53M10.83-20.64v2.52M10.83-13.08v2.53M10.83-35.78v2.52M10.83-1.86v-1.12M10.83-18.12v2.52M10.83-33.26v2.53M13.35-50.92v2.52M13.35-33.26v2.53M13.35-55.96v2.52M13.35-53.44v2.52M13.35-40.83v2.53M13.35-38.3v2.52M13.35-35.78v2.52M13.35-25.69v2.52M13.35-5.51v-2.52M13.35-15.6v-2.52M13.35-2.98v-2.53M13.35-8.03v-2.52M13.35-20.64v2.52M13.35-45.87v2.52M13.35-28.21v2.52M13.35-30.73v2.52M13.35-23.17v2.53M13.35-1.86v-1.12M13.35-48.4v2.53M13.35-10.55v-2.53M13.35-15.6v2.52M13.35-57.36v1.4M13.35-43.35v2.52M15.87-18.12v-2.52M15.87-23.17v2.53M15.87-25.69v2.52M15.87-30.73v2.52M15.87-28.21v2.52M15.87-40.83v2.53M15.87-45.87v2.52M15.87-1.86v-1.12M15.87-38.3v2.52M15.87-33.26v2.53M15.87-57.36v1.4M15.87-35.78v2.52M15.87-2.98v-2.53M15.87-5.51v-2.52M15.87-48.4v2.53M15.87-10.55v-2.53M15.87-8.03v-2.52M15.87-18.12v2.52M15.87-50.92v2.52M15.87-55.96v2.52M15.87-53.44v2.52M15.87-13.08v-2.52M15.87-43.35v2.52M18.39-57.36v1.4M18.39-20.64v-2.53M18.39-25.69v2.52M18.39-28.21v2.52M18.39-43.35v2.52M18.39-13.08v-2.52M18.39-15.6v-2.52M18.39-20.64v2.52M18.39-53.44v2.52M18.39-50.92v2.52M18.39-1.86v-1.12M18.39-38.3v2.52M18.39-5.51v-2.52M18.39-2.98v-2.53M18.39-10.55v-2.53M18.39-8.03v-2.52M18.39-40.83v2.53M18.39-55.96v2.52M18.39-45.87v2.52M18.39-48.4v2.53M18.39-30.73v2.52M18.39-33.26v2.53M18.39-35.78v2.52M20.92-10.55v-2.53M20.92-1.86v-1.12M20.92-8.03v-2.52M20.92-50.92v2.52M20.92-15.6v-2.52M20.92-5.51v-2.52M20.92-38.3v2.52M20.92-55.96v2.52M20.92-2.98v-2.53M20.92-13.08v-2.52M20.92-45.87v2.52M20.92-57.36v1.4M20.92-48.4v2.53M20.92-43.35v2.52M20.92-53.44v2.52M20.92-40.83v2.53M20.92-28.21v2.52M20.92-35.78v2.52M20.92-33.26v2.53M20.92-18.12v-2.52M20.92-23.17v-2.52M20.92-30.73v2.52M20.92-23.17v2.53M23.44-18.12v-2.52M23.44-35.78v2.52M23.44-40.83v2.53M23.44-2.98v-2.53M23.44-50.92v2.52M23.44-43.35v2.52M23.44-30.73v2.52M23.44-20.64v-2.53M23.44-25.69v-2.52M23.44-45.87v2.52M23.44-57.36v1.4M23.44-48.4v2.53M23.44-53.44v2.52M23.44-13.08v-2.52M23.44-8.03v-2.52M23.44-33.26v2.53M23.44-5.51v-2.52M23.44-38.3v2.52M23.44-55.96v2.52M23.44-10.55v-2.53M23.44-1.86v-1.12M23.44-15.6v-2.52M23.44-25.69v2.52M25.96-20.64v-2.53M25.96-50.92v2.52M25.96-15.6v-2.52M25.96-18.12v-2.52M25.96-1.86v-1.12M25.96-57.36v1.4M25.96-53.44v2.52M25.96-28.21v2.52M25.96-10.55v-2.53M25.96-48.4v2.53M25.96-5.51v-2.52M25.96-33.26v2.53M25.96-55.96v2.52M25.96-13.08v-2.52M25.96-35.78v2.52M25.96-45.87v2.52M25.96-23.17v-2.52M25.96-38.3v2.52M25.96-30.73v2.52M25.96-2.98v-2.53M25.96-8.03v-2.52M25.96-43.35v2.52M25.96-40.83v2.53M28.48-8.03v-2.52M28.48-48.4v2.53M28.48-40.83v2.53M28.48-5.51v-2.52M28.48-33.26v2.53M28.48-50.92v2.52M28.48-18.12v-2.52M28.48-30.73v2.52M28.48-10.55v-2.53M28.48-15.6v-2.52M28.48-38.3v2.52M28.48-45.87v2.52M28.48-55.96v2.52M28.48-53.44v2.52M28.48-23.17v-2.52M28.48-43.35v2.52M28.48-13.08v-2.52M28.48-20.64v-2.53M28.48-2.98v-2.53M28.48-57.36v1.4M28.48-25.69v-2.52M28.48-1.86v-1.12M28.48-35.78v2.52M31.01-38.3v2.52M31.01-10.55v-2.53M31.01-25.69v-2.52M31.01-45.87v2.52M31.01-53.44v2.52M31.01-8.03v-2.52M31.01-30.73v2.52M31.01-35.78v2.52M31.01-1.86v-1.12M31.01-48.4v2.53M31.01-23.17v-2.52M31.01-33.26v2.53M31.01-57.36v1.4M31.01-2.98v-2.53M31.01-18.12v-2.52M31.01-20.64v-2.53M31.01-43.35v2.52M31.01-50.92v2.52M31.01-55.96v2.52M31.01-15.6v-2.52M31.01-5.51v-2.52M31.01-40.83v2.53M31.01-13.08v-2.52M33.53-55.96v2.52M33.53-5.51v-2.52M33.53-53.44v2.52M33.53-57.36v1.4M33.53-20.64v-2.53M33.53-23.17v-2.52M33.53-40.83v2.53M33.53-15.6v-2.52M33.53-2.98v-2.53M33.53-18.12v-2.52M33.53-33.26v-2.52M33.53-1.86v-1.12M33.53-25.69v-2.52M33.53-38.3v2.52M33.53-50.92v2.52M33.53-30.73v-2.53M33.53-45.87v2.52M33.53-48.4v2.53M33.53-43.35v2.52M33.53-13.08v-2.52M33.53-8.03v-2.52M33.53-10.55v-2.53M33.53-28.21v-2.52M36.05-2.98v-2.53M36.05-28.21v-2.52M36.05-25.69v-2.52M36.05-57.36v1.4M36.05-35.78v-2.52M36.05-30.73v-2.53M36.05-48.4v2.53M36.05-10.55v-2.53M36.05-33.26v-2.52M36.05-8.03v-2.52M36.05-43.35v2.52M36.05-13.08v-2.52M36.05-55.96v2.52M36.05-40.83v2.53M36.05-50.92v2.52M36.05-18.12v-2.52M36.05-1.86v-1.12M36.05-45.87v2.52M36.05-5.51v-2.52M36.05-15.6v-2.52M36.05-20.64v-2.53M36.05-23.17v-2.52M36.05-53.44v2.52M38.58-20.64v-2.53M38.58-53.44v2.52M38.58-45.87v2.52M38.58-23.17v-2.52M38.58-30.73v-2.53M38.58-33.26v-2.52M38.58-2.98v-2.53M38.58-10.55v-2.53M38.58-13.08v-2.52M38.58-43.35v2.52M38.58-18.12v-2.52M38.58-25.69v-2.52M38.58-55.96v2.52M38.58-28.21v-2.52M38.58-35.78v-2.52M38.58-8.03v-2.52M38.58-57.36v1.4M38.58-5.51v-2.52M38.58-1.86v-1.12M38.58-50.92v2.52M38.58-15.6v-2.52M38.58-38.3v-2.53M38.58-48.4v2.53M41.1-8.03v-2.52M41.1-10.55v-2.53M41.1-5.51v-2.52M41.1-2.98v-2.53M41.1-50.92v2.52M41.1-13.08v-2.52M41.1-1.86v-1.12M41.1-15.6v-2.52M41.1-38.3v-2.53M41.1-45.87v2.52M41.1-30.73v-2.53M41.1-35.78v-2.52M41.1-33.26v-2.52M41.1-57.36v1.4M41.1-48.4v2.53M41.1-55.96v2.52M41.1-53.44v2.52M41.1-40.83v-2.52M41.1-20.64v-2.53M41.1-25.69v-2.52M41.1-18.12v-2.52M41.1-23.17v-2.52M41.1-28.21v-2.52M43.62-43.35v-2.52M43.62-40.83v-2.52M43.62-15.6v-2.52M43.62-5.51v-2.52M43.62-8.03v-2.52M43.62-57.36v1.4M43.62-48.4v2.53M43.62-55.96v2.52M43.62-50.92v2.52M43.62-20.64v-2.53M43.62-25.69v-2.52M43.62-35.78v-2.52M43.62-2.98v-2.53M43.62-18.12v-2.52M43.62-28.21v-2.52M43.62-10.55v-2.53M43.62-38.3v-2.53M43.62-33.26v-2.52M43.62-23.17v-2.52M43.62-53.44v2.52M43.62-13.08v-2.52M43.62-1.86v-1.12M43.62-30.73v-2.53M46.14-20.64v-2.53M46.14-55.96v2.52M46.14-33.26v-2.52M46.14-10.55v-2.53M46.14-5.51v-2.52M46.14-35.78v-2.52M46.14-2.98v-2.53M46.14-18.12v-2.52M46.14-43.35v-2.52M46.14-30.73v-2.53M46.14-15.6v-2.52M46.14-40.83v-2.52M46.14-45.87v-2.53M46.14-50.92v2.52M46.14-53.44v2.52M46.14-57.36v1.4M46.14-23.17v-2.52M46.14-28.21v-2.52M46.14-1.86v-1.12M46.14-25.69v-2.52M46.14-38.3v-2.53M46.14-13.08v-2.52M46.14-8.03v-2.52M48.67-53.44v2.52M48.67-23.17v-2.52M48.67-20.64v-2.53M48.67-48.4v-2.52M48.67-43.35v-2.52M48.67-25.69v-2.52M48.67-35.78v-2.52M48.67-1.86v-1.12M48.67-30.73v-2.53M48.67-57.36v1.4M48.67-8.03v-2.52M48.67-33.26v-2.52M48.67-13.08v-2.52M48.67-28.21v-2.52M48.67-10.55v-2.53M48.67-2.98v-2.53M48.67-5.51v-2.52M48.67-15.6v-2.52M48.67-40.83v-2.52M48.67-55.96v2.52M48.67-18.12v-2.52M48.67-45.87v-2.53M48.67-38.3v-2.53M51.19-57.36v1.4M51.19-55.96v2.52M51.19-40.83v-2.52M51.19-1.86v-1.12M51.19-48.4v-2.52M51.19-45.87v-2.53M51.19-43.35v-2.52M51.19-50.92v-2.52M51.19-28.21v-2.52M51.19-15.6v-2.52M51.19-20.64v-2.53M51.19-13.08v-2.52M51.19-18.12v-2.52M51.19-2.98v-2.53M51.19-5.51v-2.52M51.19-8.03v-2.52M51.19-10.55v-2.53M51.19-30.73v-2.53M51.19-33.26v-2.52M51.19-35.78v-2.52M51.19-38.3v-2.53M51.19-25.69v-2.52M51.19-23.17v-2.52M53.71-1.86v-1.12M53.71-48.4v-2.52M53.71-33.26v-2.52M53.71-15.6v-2.52M53.71-38.3v-2.53M53.71-35.78v-2.52M53.71-40.83v-2.52M53.71-13.08v-2.52M53.71-30.73v-2.53M53.71-18.12v-2.52M53.71-23.17v-2.52M53.71-28.21v-2.52M53.71-25.69v-2.52M53.71-8.03v-2.52M53.71-57.36v1.4M53.71-20.64v-2.53M53.71-53.44v-2.52M53.71-2.98v-2.53M53.71-5.51v-2.52M53.71-50.92v-2.52M53.71-43.35v-2.52M53.71-45.87v-2.53M53.71-10.55v-2.53M56.23-13.08v-2.52M56.23-10.55v-2.53M56.23-53.44v-2.52M56.23-55.96v-1.4M56.23-23.17v-2.52M56.23-25.69v-2.52M56.23-20.64v-2.53M56.23-50.92v-2.52M56.23-15.6v-2.52M56.23-28.21v-2.52M56.23-45.87v-2.53M56.23-18.12v-2.52M56.23-30.73v-2.53M56.23-33.26v-2.52M56.23-1.86v-1.12M56.23-38.3v-2.53M56.23-35.78v-2.52M56.23-40.83v-2.52M56.23-43.35v-2.52M56.23-2.98v-2.53M56.23-48.4v-2.52M56.23-5.51v-2.52M56.23-8.03v-2.52M5.78-55.96H8.3M51.19-55.96h-2.52M56.23-55.96h-2.52M48.67-55.96h-2.53M8.3-55.96h2.53M5.78-55.96H3.26M53.71-55.96h-2.52M57.36-55.96h-1.13M3.26-55.96h-1.4M33.53-55.96h-2.52M41.1-55.96h-2.52M43.62-55.96H41.1M46.14-55.96h-2.52M31.01-55.96h-2.53M38.58-55.96h-2.53M36.05-55.96h-2.52M15.87-55.96h-2.52M18.39-55.96h-2.52M13.35-55.96h-2.52M20.92-55.96h-2.53M23.44-55.96h-2.52M25.96-55.96h-2.52M28.48-55.96h-2.52M57.36-53.44h-1.13M8.3-53.44h2.53M56.23-53.44h-2.52M51.19-53.44h-2.52M25.96-53.44h-2.52M28.48-53.44h-2.52M33.53-53.44h-2.52M31.01-53.44h-2.53M23.44-53.44h-2.52M20.92-53.44h-2.53M41.1-53.44h-2.52M46.14-53.44h-2.52M43.62-53.44H41.1M18.39-53.44h-2.52M38.58-53.44h-2.53M36.05-53.44h-2.52M5.78-53.44H3.26M3.26-53.44h-1.4M48.67-53.44h-2.53M15.87-53.44h-2.52M8.3-53.44H5.78M10.83-53.44h2.52M53.71-53.44h-2.52M38.58-50.92h-2.53M51.19-50.92h-2.52M33.53-50.92h-2.52M5.78-50.92H3.26M3.26-50.92h-1.4M36.05-50.92h-2.52M46.14-50.92h-2.52M48.67-50.92h-2.53M41.1-50.92h-2.52M43.62-50.92H41.1M13.35-50.92h2.52M56.23-50.92h-2.52M53.71-50.92h-2.52M10.83-50.92h2.52M18.39-50.92h-2.52M31.01-50.92h-2.53M57.36-50.92h-1.13M10.83-50.92H8.3M28.48-50.92h-2.52M8.3-50.92H5.78M20.92-50.92h-2.53M23.44-50.92h-2.52M25.96-50.92h-2.52M38.58-48.4h-2.53M41.1-48.4h-2.52M46.14-48.4h-2.52M48.67-48.4h-2.53M15.87-48.4h2.52M23.44-48.4h-2.52M20.92-48.4h-2.53M25.96-48.4h-2.52M36.05-48.4h-2.52M33.53-48.4h-2.52M28.48-48.4h-2.52M31.01-48.4h-2.53M43.62-48.4H41.1M13.35-48.4h-2.52M10.83-48.4H8.3M53.71-48.4h-2.52M1.86-48.4h1.4M8.3-48.4H5.78M5.78-48.4H3.26M13.35-48.4h2.52M51.19-48.4h-2.52M56.23-48.4h-2.52M57.36-48.4h-1.13M33.53-45.87h-2.52M36.05-45.87h-2.52M56.23-45.87h-2.52M38.58-45.87h-2.53M31.01-45.87h-2.53M28.48-45.87h-2.52M41.1-45.87h-2.52M15.87-45.87h-2.52M25.96-45.87h-2.52M1.86-45.87h1.4M43.62-45.87H41.1M46.14-45.87h-2.52M53.71-45.87h-2.52M48.67-45.87h-2.53M51.19-45.87h-2.52M23.44-45.87h-2.52M15.87-45.87h2.52M10.83-45.87H8.3M8.3-45.87H5.78M57.36-45.87h-1.13M3.26-45.87h2.52M13.35-45.87h-2.52M18.39-45.87h2.53M3.26-43.35h2.52M20.92-43.35h2.52M51.19-43.35h-2.52M56.23-43.35h-2.52M43.62-43.35H41.1M41.1-43.35h-2.52M38.58-43.35h-2.53M1.86-43.35h1.4M46.14-43.35h-2.52M13.35-43.35h-2.52M48.67-43.35h-2.53M36.05-43.35h-2.52M18.39-43.35h-2.52M18.39-43.35h2.53M15.87-43.35h-2.52M31.01-43.35h-2.53M33.53-43.35h-2.52M25.96-43.35h-2.52M5.78-43.35H8.3M28.48-43.35h-2.52M53.71-43.35h-2.52M57.36-43.35h-1.13M10.83-43.35H8.3M18.39-40.83h-2.52M20.92-40.83h2.52M5.78-40.83H8.3M56.23-40.83h-2.52M28.48-40.83h-2.52M20.92-40.83h-2.53M38.58-40.83h-2.53M41.1-40.83h-2.52M46.14-40.83h-2.52M48.67-40.83h-2.53M51.19-40.83h-2.52M57.36-40.83h-1.13M15.87-40.83h-2.52M8.3-40.83h2.53M13.35-40.83h-2.52M3.26-40.83h2.52M1.86-40.83h1.4M31.01-40.83h-2.53M36.05-40.83h-2.52M23.44-40.83h2.52M53.71-40.83h-2.52M33.53-40.83h-2.52M43.62-40.83H41.1M43.62-38.3H41.1M23.44-38.3h2.52M57.36-38.3h-1.13M41.1-38.3h-2.52M48.67-38.3h-2.53M15.87-38.3h-2.52M46.14-38.3h-2.52M31.01-38.3h-2.53M33.53-38.3h-2.52M56.23-38.3h-2.52M25.96-38.3h2.52M51.19-38.3h-2.52M3.26-38.3h2.52M8.3-38.3h2.53M1.86-38.3h1.4M36.05-38.3h-2.52M38.58-38.3h-2.53M53.71-38.3h-2.52M20.92-38.3h-2.53M10.83-38.3h2.52M18.39-38.3h-2.52M23.44-38.3h-2.52M5.78-38.3H8.3M38.58-35.78h-2.53M41.1-35.78h-2.52M8.3-35.78h2.53M25.96-35.78h2.52M28.48-35.78h2.53M23.44-35.78h-2.52M20.92-35.78h-2.53M25.96-35.78h-2.52M33.53-35.78h-2.52M36.05-35.78h-2.52M13.35-35.78h2.52M18.39-35.78h-2.52M43.62-35.78H41.1M46.14-35.78h-2.52M10.83-35.78h2.52M56.23-35.78h-2.52M53.71-35.78h-2.52M1.86-35.78h1.4M51.19-35.78h-2.52M3.26-35.78h2.52M57.36-35.78h-1.13M5.78-35.78H8.3M48.67-35.78h-2.53M13.35-33.26h2.52M43.62-33.26H41.1M36.05-33.26h-2.52M48.67-33.26h-2.53M28.48-33.26h2.53M8.3-33.26h2.53M41.1-33.26h-2.52M5.78-33.26H8.3M15.87-33.26h2.52M3.26-33.26h2.52M51.19-33.26h-2.52M38.58-33.26h-2.53M57.36-33.26h-1.13M1.86-33.26h1.4M31.01-33.26h2.52M20.92-33.26h-2.53M53.71-33.26h-2.52M25.96-33.26h-2.52M23.44-33.26h-2.52M10.83-33.26h2.52M46.14-33.26h-2.52M28.48-33.26h-2.52M56.23-33.26h-2.52M8.3-30.73h2.53M15.87-30.73h2.52M1.86-30.73h1.4M10.83-30.73h2.52M56.23-30.73h-2.52M46.14-30.73h-2.52M53.71-30.73h-2.52M41.1-30.73h-2.52M57.36-30.73h-1.13M51.19-30.73h-2.52M3.26-30.73h2.52M43.62-30.73H41.1M13.35-30.73h2.52M18.39-30.73h2.53M31.01-30.73h-2.53M5.78-30.73H8.3M36.05-30.73h-2.52M28.48-30.73h-2.52M31.01-30.73h2.52M48.67-30.73h-2.53M23.44-30.73h-2.52M25.96-30.73h-2.52M38.58-30.73h-2.53M38.58-28.21h-2.53M5.78-28.21H8.3M36.05-28.21h-2.52M43.62-28.21H41.1M23.44-28.21h2.52M28.48-28.21h-2.52M31.01-28.21h-2.53M10.83-28.21h2.52M1.86-28.21h1.4M33.53-28.21h-2.52M13.35-28.21h2.52M56.23-28.21h-2.52M20.92-28.21h2.52M51.19-28.21h-2.52M8.3-28.21h2.53M18.39-28.21h2.53M57.36-28.21h-1.13M46.14-28.21h-2.52M48.67-28.21h-2.53M53.71-28.21h-2.52M3.26-28.21h2.52M41.1-28.21h-2.52M15.87-28.21h2.52M1.86-25.69h1.4M15.87-25.69h2.52M53.71-25.69h-2.52M41.1-25.69h-2.52M10.83-25.69h2.52M46.14-25.69h-2.52M31.01-25.69h2.52M57.36-25.69h-1.13M18.39-25.69h2.53M38.58-25.69h-2.53M13.35-25.69h2.52M20.92-25.69h2.52M36.05-25.69h-2.52M43.62-25.69H41.1M28.48-25.69h2.53M23.44-25.69h2.52M25.96-25.69h2.52M56.23-25.69h-2.52M51.19-25.69h-2.52M3.26-25.69h2.52M8.3-25.69h2.53M5.78-25.69H8.3M48.67-25.69h-2.53M20.92-23.17h2.52M3.26-23.17h2.52M53.71-23.17h-2.52M13.35-23.17h2.52M48.67-23.17h-2.53M43.62-23.17H41.1M10.83-23.17h2.52M5.78-23.17H8.3M56.23-23.17h-2.52M41.1-23.17h-2.52M15.87-23.17h2.52M33.53-23.17h2.52M38.58-23.17h-2.53M8.3-23.17h2.53M31.01-23.17h2.52M28.48-23.17h2.53M25.96-23.17h2.52M51.19-23.17h-2.52M23.44-23.17h2.52M57.36-23.17h-1.13M18.39-23.17h2.53M46.14-23.17h-2.52M1.86-23.17h1.4M46.14-20.64h-2.52M36.05-20.64h2.53M41.1-20.64h-2.52M33.53-20.64h2.52M28.48-20.64h2.53M31.01-20.64h2.52M5.78-20.64H8.3M25.96-20.64h2.52M3.26-20.64h2.52M56.23-20.64h-2.52M13.35-20.64h2.52M51.19-20.64h-2.52M48.67-20.64h-2.53M57.36-20.64h-1.13M15.87-20.64h2.52M53.71-20.64h-2.52M23.44-20.64h2.52M43.62-20.64H41.1M8.3-20.64h2.53M1.86-20.64h1.4M10.83-20.64h2.52M20.92-20.64h2.52M18.39-20.64h2.53M20.92-18.12h2.52M5.78-18.12H8.3M23.44-18.12h2.52M25.96-18.12h2.52M18.39-18.12h2.53M43.62-18.12H41.1M31.01-18.12h2.52M38.58-18.12h2.52M33.53-18.12h2.52M36.05-18.12h2.53M28.48-18.12h2.53M1.86-18.12h1.4M48.67-18.12h-2.53M46.14-18.12h-2.52M53.71-18.12h-2.52M13.35-18.12h2.52M57.36-18.12h-1.13M51.19-18.12h-2.52M10.83-18.12h2.52M15.87-18.12h2.52M56.23-18.12h-2.52M3.26-18.12h2.52M8.3-18.12h2.53M8.3-15.6h2.53M10.83-15.6h2.52M53.71-15.6h-2.52M31.01-15.6h2.52M5.78-15.6H8.3M51.19-15.6h-2.52M41.1-15.6h2.52M33.53-15.6h2.52M38.58-15.6h2.52M57.36-15.6h-1.13M46.14-15.6h-2.52M36.05-15.6h2.53M48.67-15.6h-2.53M23.44-15.6h2.52M25.96-15.6h2.52M20.92-15.6h2.52M13.35-15.6h2.52M15.87-15.6h2.52M18.39-15.6h2.53M56.23-15.6h-2.52M1.86-15.6h1.4M3.26-15.6h2.52M28.48-15.6h2.53M28.48-13.08h2.53M5.78-13.08H8.3M13.35-13.08h2.52M8.3-13.08h2.53M33.53-13.08h2.52M10.83-13.08h2.52M56.23-13.08h-2.52M31.01-13.08h2.52M51.19-13.08h-2.52M25.96-13.08h2.52M15.87-13.08h2.52M18.39-13.08h2.53M57.36-13.08h-1.13M53.71-13.08h-2.52M23.44-13.08h2.52M20.92-13.08h2.52M1.86-13.08h1.4M38.58-13.08h2.52M36.05-13.08h2.53M43.62-13.08h2.52M48.67-13.08h-2.53M41.1-13.08h2.52M3.26-13.08h2.52M53.71-10.55h-2.52M36.05-10.55h2.53M46.14-10.55h2.53M13.35-10.55h2.52M18.39-10.55h2.53M51.19-10.55h-2.52M15.87-10.55h2.52M33.53-10.55h2.52M38.58-10.55h2.52M57.36-10.55h-1.13M23.44-10.55h2.52M5.78-10.55H8.3M43.62-10.55h2.52M41.1-10.55h2.52M3.26-10.55h2.52M25.96-10.55h2.52M1.86-10.55h1.4M56.23-10.55h-2.52M20.92-10.55h2.52M28.48-10.55h2.53M8.3-10.55h2.53M10.83-10.55h2.52M31.01-10.55h2.52M36.05-8.03h2.53M38.58-8.03h2.52M8.3-8.03h2.53M33.53-8.03h2.52M31.01-8.03h2.52M10.83-8.03h2.52M5.78-8.03H8.3M23.44-8.03h2.52M43.62-8.03h2.52M20.92-8.03h2.52M25.96-8.03h2.52M18.39-8.03h2.53M15.87-8.03h2.52M28.48-8.03h2.53M56.23-8.03h-2.52M41.1-8.03h2.52M46.14-8.03h2.53M53.71-8.03h-2.52M48.67-8.03h2.52M57.36-8.03h-1.13M3.26-8.03h2.52M13.35-8.03h2.52M1.86-8.03h1.4M10.83-5.51h2.52M3.26-5.51h2.52M5.78-5.51H8.3M8.3-5.51h2.53M15.87-5.51h2.52M57.36-5.51h-1.13M43.62-5.51h2.52M46.14-5.51h2.53M41.1-5.51h2.52M38.58-5.51h2.52M13.35-5.51h2.52M48.67-5.51h2.52M36.05-5.51h2.53M51.19-5.51h2.52M1.86-5.51h1.4M56.23-5.51h-2.52M18.39-5.51h2.53M20.92-5.51h2.52M33.53-5.51h2.52M23.44-5.51h2.52M31.01-5.51h2.52M28.48-5.51h2.53M25.96-5.51h2.52M36.05-2.98h2.53M23.44-2.98h2.52M33.53-2.98h2.52M38.58-2.98h2.52M28.48-2.98h2.53M25.96-2.98h2.52M41.1-2.98h2.52M31.01-2.98h2.52M46.14-2.98h2.53M48.67-2.98h2.52M57.36-2.98h-1.13M43.62-2.98h2.52M53.71-2.98h2.52M51.19-2.98h2.52M1.86-2.98h1.4M5.78-2.98H8.3M15.87-2.98h2.52M3.26-2.98h2.52M18.39-2.98h2.53M10.83-2.98h2.52M13.35-2.98h2.52M20.92-2.98h2.52M8.3-2.98h2.53" style="fill:none;stroke:#ec008c;stroke-width:.43"/></svg>