<svg xmlns="http://www.w3.org/2000/svg" xml:space="preserve" width="16.9" height="16.9" viewBox="1.73 -18.88 16.9 16.9"><path d="M1.73-18.88h16.9v16.9H1.73z" style="fill:none"/><path d="M8.43-11.29h0M5.88-12.68h0M2.87-12.99h0M2.4-9.49h0M16.97-14.87h0M13.48-17.31h0M13.54-9.65h0M10.88-12.41h0M8.84-14.28h0M11.33-15.63h0M3.63-17.25h0M9.39-17.15h0M6.84-18.09h0M17.09-17.88h0M7.86-4.12h0M2.87-3.22h0M3.92-6.63h0M5.18-9.64h0M5.34-3.87h0M11.33-3.32h0M16.65-7.53h0M10.13-8.83h0M10.8-6.11h0M13.4-6.78h0M16.79-10.75h0" style="fill:none;stroke:#000;stroke-width:.7;stroke-linecap:round"/><path d="M5.67-16.28c1-1.1 3.42.99 1.4 1.93-1.04.5-3.14-.02-1.4-1.93zM13.56-13.77c.76-1.27 3.55.3 1.75 1.62-.93.69-3.08.59-1.75-1.62zM6.52-7.76c.76-1.27 3.61 1.32 1.75 1.62-1.14.18-3.08.58-1.75-1.62zM14.96-4.92c2.06-.6 2.7-.02 1.75 1.62-.83 1.44-4.23-.91-1.75-1.62z" style="fill:none;stroke:#000;stroke-width:.43"/></svg>