<svg xmlns="http://www.w3.org/2000/svg" xml:space="preserve" width="16.9" height="16.9" viewBox="1.93 -19.18 16.9 16.9"><path d="M1.93-19.18h16.9v16.9H1.93z" style="fill:none"/><path d="M1.93-19.18h16.9v16.9H1.93z"/><path d="M8.63-11.59h0M6.08-12.98h0M3.07-13.29h0M2.6-9.79h0M17.17-15.17h0M13.68-17.61h0M13.74-9.95h0M11.08-12.71h0M9.04-14.58h0M11.53-15.93h0M3.83-17.55h0M9.6-17.45h0M7.04-18.39h0M17.29-18.18h0M8.06-4.42h0M3.07-3.52h0M4.12-6.93h0M5.38-9.94h0M5.54-4.17h0M11.53-3.62h0M16.85-7.83h0M10.33-9.13h0M11-6.41h0M13.6-7.08h0M16.99-11.05h0" style="fill:none;stroke:#fff;stroke-width:.8;stroke-linecap:round"/><path d="M5.87-16.58c1-1.1 3.42.99 1.4 1.93-1.04.5-3.14-.02-1.4-1.93zM13.76-14.07c.76-1.27 3.55.3 1.75 1.62-.93.68-3.08.6-1.75-1.62zM6.72-8.06c.76-1.27 3.61 1.32 1.75 1.62-1.14.18-3.08.59-1.75-1.62zM15.16-5.22c2.06-.6 2.7-.02 1.76 1.62-.84 1.44-4.24-.91-1.76-1.62z" style="fill:none;stroke:#fff;stroke-width:.58"/></svg>