<svg xmlns="http://www.w3.org/2000/svg" xml:space="preserve" width="28.98" height="28.98" viewBox="0.21 -29.19 28.98 28.98"><path d="M.21-29.19h28.98V-.21H.21z" style="fill:none"/><path d="M19.37-6.17h0M14.88-5.21h0M7.7-3.31h0M1.59-2.11h0M13.15-12.63h0M12.29-7.8h0M21.26-22.29h0M22.67-6.72h0M20.91-9.53h0M21.6-2.63h0M18.28-3.5h0M25.36-1.08h0M14.23-1.65h0M9.95-.89h0M17.39-21.18h0M19.88-28.16h0M15.39-25.05h0M12.93-27.65h0M10.63-25.35h0M25.91-11.08h0M26.61-6.54h0M19.7-14.88h0M24.74-15.74h0M27.12-23.67h0M24.7-18.67h0M15.22-15.74h0M17.8-9.72h0M27.81-27.64h0M3.66-5.43h0M1.66-15.99h0M.89-11.64h0M1.94-22.46h0M7.81-7.12h0M4.35-9.55h0M8.49-12.12h0M5.17-17.18h0M3.84-27.81h0M13.52-21.34h0M7-22.65h0M7.67-19.93h0M10.27-16.91h0" style="fill:none;stroke:#000;stroke-width:.7;stroke-linecap:round"/><path d="m22.46-11.43 2.07-2.24M19.28-11.16l-3.2-1.47M15.97-8.55l1.26 2.82M23.22-5.24l3.34 2.68M25.25-8.09l3.03-1.36M4.87-7.46l-3.45-.86M6.49-4.71 4.53-1.6M10.22-5.56l2.76 2.58M9.35-9.11l2.94-1.8M6.28-10.44l-1.24-3.23M20.05-20.05l-2.1 2.6M22.66-20.47l-.52 3.68M25.26-21.05l2.94.17M22.55-24.77l.93-3.4M19.98-23.57l-2.14-2.21M5.12-23.28l-2.62-2.4M4.85-20.16l-2.82 1.87M7.8-16.26l2.59 2.25M7.64-24.66l.59-4M10.39-21.95l2.93-1.38M13.04-16.27l1.47-3.4" style="fill:none;stroke:#000;stroke-width:.43;stroke-linecap:round"/><path d="M24.73-26.15h0M28.76-4.21h0M28.23-18.08h0" style="fill:none;stroke:#000;stroke-width:.7;stroke-linecap:round"/><path d="m18.13-1.91-1.52 1.7M2.02-13.48l-1.81-.95M29.19-14.42l-1.91-1M15.61-28.09l.98-1.1" style="fill:none;stroke:#000;stroke-width:.43;stroke-linecap:round"/></svg>