<svg xmlns="http://www.w3.org/2000/svg" xml:space="preserve" width="16.9" height="16.9" viewBox="1.18 -18.26 16.9 16.9"><path d="M1.18-18.26h16.9v16.9H1.18z" style="fill:none"/><path d="m5.38-12.86-.6-3.1 2.96.93z" style="fill:none;stroke:#ec008c;stroke-width:.58"/><path d="M7.31-10.67h0M2.6-11.8h0" style="fill:none;stroke:#ec008c;stroke-width:.8;stroke-linecap:round"/><path d="m12.52-10.86.89-3.04 2.2 2.19z" style="fill:none;stroke:#ec008c;stroke-width:.58"/><path d="M16.42-14.25h0M12.93-16.69h0M14.98-9.87h0M10.89-11.79h0M10.78-15.01h0M3.08-16.34h0M8.84-17.09h0M16.53-17.26h0" style="fill:none;stroke:#ec008c;stroke-width:.8;stroke-linecap:round"/><path d="m8.22-4.99-3.17.05L6.5-7.69z" style="fill:none;stroke:#ec008c;stroke-width:.58"/><path d="M6.46-2.93h0M2.88-2.6h0M3.36-6.01h0M4.63-9.02h0" style="fill:none;stroke:#ec008c;stroke-width:.8;stroke-linecap:round"/><path d="m13.98-3.39 2.42-2.06.64 3.04z" style="fill:none;stroke:#ec008c;stroke-width:.58"/><path d="M10.78-3.55h0M17.23-7.76h0M9.58-8.21h0M12.85-6.72h0" style="fill:none;stroke:#ec008c;stroke-width:.8;stroke-linecap:round"/></svg>