<svg xmlns="http://www.w3.org/2000/svg" xml:space="preserve" width="16.9" height="16.9" viewBox="1 -18.06 16.9 16.9"><path d="M1-18.06h16.9v16.9H1z" style="fill:none"/><path d="m5.21-12.65-.6-3.11 2.95.93z" style="fill:none;stroke:#000;stroke-width:.43"/><path d="M7.13-10.47h0M2.42-11.6h0" style="fill:none;stroke:#000;stroke-width:.7;stroke-linecap:round"/><path d="m12.35-10.66.88-3.04 2.21 2.19z" style="fill:none;stroke:#000;stroke-width:.43"/><path d="M16.24-14.05h0M12.75-16.49h0M14.8-9.67h0M10.72-11.59h0M10.6-14.81h0M2.9-16.14h0M8.67-16.89h0M16.36-17.06h0" style="fill:none;stroke:#000;stroke-width:.7;stroke-linecap:round"/><path d="m8.05-4.78-3.17.04 1.45-2.75z" style="fill:none;stroke:#000;stroke-width:.43"/><path d="M6.29-2.73h0M2.71-2.4h0M3.19-5.81h0M4.46-8.82h0" style="fill:none;stroke:#000;stroke-width:.7;stroke-linecap:round"/><path d="m13.81-3.19 2.41-2.06.64 3.04z" style="fill:none;stroke:#000;stroke-width:.43"/><path d="M10.6-3.35h0M17.05-7.56h0M9.4-8.01h0M12.67-6.52h0" style="fill:none;stroke:#000;stroke-width:.7;stroke-linecap:round"/></svg>