<svg xmlns="http://www.w3.org/2000/svg" xml:space="preserve" width="44.44" height="44.44" viewBox="1 -45.44 44.44 44.44"><path d="M1-45.44h44.44V-1H1z" style="fill:none"/><path d="M1-45.44h44.44V-1H1z"/><path d="M5.05-21.17c-.31.58-1.03.94-.85 1.25.18.32.49.75.8.88.32.14 2.24 1.27.7 2.62-.36.32-.24.2-.6.47-.36.27-.24.44 0 .8.22.33.26.34.76.52.49.18.3-.67.35-1.34.05-.67 1.26-1.08 1.66-1.57.4-.5-.04-.94-.8-.99-.77-.04-.54-.4-.4-.71.13-.32.26-.18.4-.59.13-.4-.14-.18-.68.05-.53.22-.4-.18-.4-.76 0-.59.03-1.41.5-1.35.63.1 1.1 0 1.3-.3.3-.51-.4-.37-.47-.5-.06-.11.13-.23.25-.32s-.09-.33-.45-.35c-.5-.04-.92.14-1.26.53-.17.2-.27.27-.4.74-.12.47-.41.92-.41.92zM14.26-15.52l.04-.11c.05-.4.09-.92-.36-.6-.45.3-.4 1.47.32.71z" style="fill:#fff"/><path d="m4.8-16.63.1-.08c.22-.33.5-.77-.04-.7-.54.08-1.04 1.13-.05.79zM6-6.32c.23.4 1.3.05 1.04-.5-.27-.53-1.28.06-1.03.5zM16.15-13.5l.13.05c.29.13.39.26.68.21.3-.05.62-.6-.41-1.21-1.03-.6-2.05-.65-2.24-.05-.2.6.27.79.75.75.48-.03.55.04 1.1.26zM16.58-12.26c-.76.18-.63.84-.63 1.66 0 .4 1.3-.05 1.98-.94.67-.9-.59-.9-1.35-.72zM12.98-7.42c.45-.35.54-.58 1-.58.44 0 .57.1 1.16-.09.58-.18.62-1.39-.32-1.39s-2.26 1.3-2.78 1.93c-.4.5.5.5.95.13zM7.08-4.31c.5-.05 1.62-.67 1.57-1.17-.04-.49-.18-.53-.94 0-.76.54-.98 1.2-.63 1.17zM4.07-5.32c.27-.54.27-1.16 0-1.43s-.98.4-1.39 1.48c-.16.44 1.13.49 1.4-.05zM8.2-21.04c-.5.5-.25.47-.07.65.32.32.18.07.88.18.5.08.8-.37.62-.56-.5-.5-.95-.76-1.44-.27zM15.87-6.85c.23.22.68.05 1.08-.27.4-.31 1.03-.67 1.7-.76.67-.09.54-.4.54-.9 0-.49-.04-.58.18-.98s.54-.9.9-.9c.35 0 .49-.22.53-.5.05-.26-.09-.3-.58-.3-.5 0-.3-.09-.54-.36-.22-.27-.27-.27-.71.04-.45.32-.45.99-.45 1.44 0 .45-.45.85-1.21 1.39-.76.53-1.66 1.88-1.44 2.1zM14.23-5.92c.32-.27-.06-.7-.45-.31-.26.27.14.58.45.31zM19.62-20.45c-.27.26.14.58.45.3.31-.26-.07-.69-.45-.3z" style="fill:#fff"/><path d="M10.17-8.12c.4-.45.45-.45.9-.4.44.04.8-.1.8-.63 0-.4.68-1.03 1.35-1.43.67-.4.94-.59.8-1.08-.13-.5-.8-.99-1.12-.76s-1.43 2.33-2.42 2.87c-.98.54-1.97.71-2.2.36-.22-.36-.26-1.08-.62-1.08s-.4.45-.58.76c-.18.32-.23.72-.81.67-.58-.04-1.03-.04-1.34.5-.32.54-.4 1.7.44 1.07.86-.62 2.07-1.83 2.65-1.25.58.58.76 1.57 1.03 1.57s.72-.72 1.12-1.17zM21.75-22.35s-.48-.24-.78-.07c-.2.11-.87.62-.46 1.06.27.3.6 1.26 1.2.27.25-.44.53-1.26.04-1.26z" style="fill:#fff"/><path d="M18.09-14.7c.63.62 1.25.44 1.34.13.1-.31 1.26-.04 1.75-.36.5-.31.4-.58.8-1.2.41-.64.37-.95.37-1.67 0-.35.34-.67.84-.92h.01s.77-.26.97-.62c.2-.37-.01-.74.25-1.05.41-.48 1.15-1.25 1.68-.98 0 0 .17.07.41-.15.24-.23.58-.57.18-.75-.46-.2-2.06-.54-2.46-.36-.4.18-.8 1.26-.75 1.75.03.3-.26.77-.26.77l-.03.01c-.2.13-.4.33-.62.69-.62.98-1.16.6-2.91.04-.4-.12-.71.33-.58.82.14.5.45.44 1.7.44s1.07.85-.05 2.06-2.13-1.32-3.13-.36c-.65.61-.14 1.08.49 1.7zM45.44-18.67l-.08.03c-.5.26-.85.57-.85.93 0 .72.05 1.03-.35 1.66-.4.63-.32.9-.81 1.2-.5.32-1.66.05-1.75.37-.09.3-.72.49-1.34-.14-.63-.63-1.14-1.09-.5-1.7 1.01-.96 2.02 1.57 3.14.36s1.3-2.07.04-2.07c-1.25 0-1.56.06-1.7-.43-.13-.5.19-.94.58-.82 1.76.55 2.3.94 2.92-.04.22-.36.42-.57.61-.69l.09-.04M26.5-19.32c.17.31.48.75.8.88.31.14 2.23 1.27.7 2.62-.36.32-.25.2-.6.47-.37.27-.24.43 0 .8.22.33.26.34.75.52.5.18.31-.67.36-1.34.04-.68 1.25-1.08 1.66-1.57.4-.5-.05-.94-.8-.99-.77-.04-.55-.4-.41-.72.13-.3.27-.18.4-.58.14-.4-.13-.18-.67.05-.54.22-.4-.18-.4-.77s-.25-.86.22-.79c.63.1 1.76-.5 1.85-.86.09-.36.3-.67 1.11-.4 0 0 .24-.1.4-.04.43.16.69.56 1-.07l.3-.04c.2-.43.26-.49-.22-.38-.48.1-.67-.12-.85-.32-.18-.2-.76-.09-1.12.06-.36.15-1.3.02-1.3.02-.49 0-1.46.7-1.8 1.1-.17.19-.28.26-.4.73s-.14.37-.14.37c-.3.58-1.03.94-.85 1.25zM29.92-4.3c.17 0 1.16-.8 1.16-.96 0-.18-1.07-.37-1.24-.37-.18 0-.89.35-.89.52 0 .17.8.81.97.81zM29.28-7.23c.62 1.02 1.45.59.83-.4-.26-.4-1.04.05-.83.4z" style="fill:#fff"/><path d="M30.33-19.95c.23.4 1.3.05 1.03-.49s-1.28.05-1.03.5zM38.2-13.63c.28-1.17 0-2.15-.62-2.15-.63 0-.67.49-.5.94.19.45.14.54.1 1.12v.13c-.05.32-.14.45 0 .72.13.27.76.4 1.03-.76zM38.25-10.04c0 .4 1.3-.04 1.98-.94.67-.9-.59-.9-1.35-.71-.76.17-.63.84-.63 1.65zM35.57-7.13c.45-.36.54-.58.99-.58.44 0 .58.09 1.16-.1.58-.17.63-1.38-.31-1.38s-2.27 1.3-2.78 1.92c-.4.5.5.5.94.14zM30.97-2.37c.49-.05 1.61-.67 1.56-1.17-.04-.49-.17-.53-.94 0-.76.54-.98 1.2-.62 1.17zM27.02-5.03c.55-.26.93-.76.88-1.13-.04-.38-1.02-.29-2 .31-.4.25.58 1.08 1.12.82zM38.67-5.88c.23.22.67.04 1.08-.27.4-.31 1.03-.67 1.7-.76.67-.1.54-.4.54-.9s-.05-.58.18-.99c.22-.4.54-.9.9-.9.35 0 .49-.22.53-.49.05-.26-.09-.3-.58-.3-.5 0-.3-.09-.54-.37-.22-.27-.27-.27-.71.05-.45.31-.45.98-.45 1.43 0 .45-.45.85-1.21 1.4-.77.53-1.66 1.87-1.44 2.1zM38.03-6.5c.32-.27-.06-.7-.45-.32-.27.27.14.59.45.32zM42.37-20.14c.31-.27-.07-.7-.45-.31-.27.27.14.58.45.3zM32.47-8.12c.4-.45.45-.45.9-.4.44.04.8-.1.8-.63 0-.4.68-1.03 1.35-1.43.67-.4.94-.59.8-1.08-.13-.5-.8-.99-1.11-.76-.32.22-1.44 2.33-2.42 2.87-1 .53-1.98.71-2.2.35-.22-.35-.27-1.07-.63-1.07s-.4.45-.58.76c-.18.31-.23.72-.8.67-.59-.04-1.04-.04-1.35.5-.32.53-.4 1.7.45 1.07.85-.63 2.06-1.84 2.64-1.25.58.58.76 1.57 1.03 1.57s.72-.72 1.12-1.17zM40.15-3.66c.53.05.67.14 1.2-.13.54-.27.5-.32 1-.27.48.04.66.18 1.07-.36.4-.54.45-.36.8-.04.36.3.68.26.72.04.05-.22-.4-.8-.58-.99-.18-.18-.45-.35.31-.76 0 0 .51.08.6-.42.1-.5-.28-1.38-.78-.94-.5.44-.9 1-.9 1-1 1.11-1.02 1.62-1.3 1.66-.26.05-.41.36-.7.18-1.46-.88-1.56-.06-1.8.44s.36.6.36.6z" style="fill:#fff"/><path d="M24.06-8.68c.08.2.61.97.57 1.2-.03.23 1.2.15 1.32-.07.11-.23-.17-.54-.14-.73.04-.19.77-.4.92-.85.32-.98.67-2.6 1.34-2.42.67.18 1.44.31 1.97 0 .54-.32.5-.54 1.04-.45.53.09 1.7-.1 2.2-.36.48-.27.7-.4.75-.76.05-.36.7-.72.72-1.48.01-.48.07-.66 1.12-.41 1.05.24-1.13-2.03-1.37-1.54-.25.48-.25.97-.73.48-.49-.48-.32-.8-.73-.72-.4.08-1.25.93-1.25.93-.27.27-.72.68-.94.72-.22.05-.72.45-.54.72.18.27.63.63 1.26.04.62-.58 1.2-.58 1.52-.27.31.32.27 1.08-.31 1.3-.59.23-1.44.77-1.93.32-.5-.45-.67-.67-.94-.4-.27.26-.54.3-1.08.35-.53.05-1.74.23-2.06.63-.31.4-1.25.58-1.25.85s.49.54.67.67c.18.14.31.4.13.72-.17.32-.44 1.21-1.16 1.08-.72-.14-.45-.05-.8.13 0 0-.37.13-.3.32zM7.47-12c.16.9 1.65.1 1.65.1.54.1 1.7-.08 2.2-.35.5-.27.72-.4.76-.76.05-.36.76-.72.72-1.48-.04-.76-.4-1.66-1.21-1.66-.8 0-1.48.13-1.75.4s-.72.67-.94.72c-.22.04-.72.45-.54.72.18.27.63.62 1.26.04.62-.58 1.2-.58 1.52-.27.31.32.27 1.08-.31 1.3-.59.23-1.34.63-1.93.32-.67-.36-1.6.04-1.43.92zM4.35-9.08c.33-.98.68-2.6 1.35-2.42 0 0 .37-.47.13-.79-.24-.32 1.01-.17.63-.73-.3-.44-1.75.23-2.06.63-.32.4-1.26.58-1.26.85s.5.54.67.67c.18.14.32.4.14.72-.18.31-.45 1.2-1.17 1.07-.71-.13-.44-.04-.8.14 0 0-.37.13-.3.32.09.19.62.97.58 1.2-.04.23 1.2.15 1.31-.08.12-.22-.17-.53-.13-.72.04-.2.76-.4.91-.86zM20.31-11.96c.18.31 1.35-.09 1.93-.4.3-.17.65-.26.96-.26l.06.02c.12.08.36.13.8-.44.58-.76.9-1.25 1.43-1.25.54 0 .8-.36.63-.9-.18-.54-1.07-1.36-.94-1.59.14-.22 1.27-1 .8-1.56-.6-.73-2.07-.4-1.5.46.18.27-.19 1.44-.23 1.57-.05.14.8.5 1.02.63.22.13.35.31.13.5-.22.17-.58.26-.85.22-.27-.05-.58-.23-.76.22-.18.45-.01 1.18-.53 1.11l-.03.01-.41-.31c-.54-.4-.58.18-.76.72-.18.54-.42.54-.72.45-.71-.23-1.2.49-1.03.8zM38.66-1l.08-.25c.14-.59.45-.9.94-.86.5.05.45.5 1.08.32.63-.18 1.57-.76 1.93-.5.36.28.71.55.98.1.25-.42 1.08-.84 1.6-.82l.17.01v.88l-.16-.01c-.42-.03-.5.07-.76.43-.35.5-1.7.45-2.46.5a.98.98 0 0 0-.62.2M45.44-10.98l-.1.07c-.13.16-.32.26-.48.4-.58.54-.59.74-.2.9.2.07.44 0 .65-.13l.13-.06M21.61-9.26c.2.07.43 0 .65-.13v-.02c.27-.18.52-.44.62-.62 0 0 .27.27.54.23.26-.05.44-.8.26-1.26-.17-.44-.53-.13-.53-.13-.26-.26-.54.13-.9.57h-.01c-.14.15-.28.32-.44.46-.58.54-.59.74-.19.9zM36.74-17.21c.94-.18 2.37-.27 2.9-.68.55-.4 1.07-2.15 1.08-2.6.01-.34.2-.58.12-.82-.08-.24-1.9-.42-2.1-.37h-.08c0-.49-.41-.56-.41-.56-.65.14-1.28-.8-1.58-.8-.67.02-1.07.63-.9 1.08 0 0-.12.25.4.55.49.27.9.72 1.38.4l.34-.1c.87.13.13.95.71.72.59-.22 1.63-.37 1.5.17-.14.54-1.17 1.7-1.75 1.75-.58.05-1.1-.17-1.32-.27-.34-.17-.78-.17-1.1-.18-.39 0-1.08-.48-.54-.62.54-.13.85.04.85-.27s-.09-.31-.36-.45c-.27-.13-.27-.13-.4-.31s-.36-.23-.67-.23-.32.05-.63-.22-.71-.27-.94.22c-.22.5-.05.8.5.76.53-.04.8 0 .8.36s-.22 1.03-.94.8c-.72-.22-.99-.71-1.44-.62-.44.09-.49.45-.13 1.16.25.5.4 1.17 1.17.63s1.03-1.08 1.65-.9c.63.18.77.36.94.81.18.45 0 .76.95.59zM43.28-21.83c.27.3.6 1.27 1.2.27.25-.44.53-1.26.04-1.26 0 0-.49-.24-.78-.07-.21.11-.87.62-.46 1.06zM10.9-45.44l-.03.08-.32.64c-.31.62-1.05-.02-1.48-.18-.17-.07-.4.04-.4.04-.81-.27-.86.59-.94.94-.1.36-.68.4-1.3.32-.48-.07-.23.2-.23.79 0 .58-.13.99.4.76.54-.22.81-.45.68-.04-.14.4-.27.27-.4.58-.14.31-.36.67.4.72.76.04 1.2.49.8.98-.4.5-1.6.9-1.65 1.57-.05.67.13 1.53-.36 1.35-.5-.18-.54-.2-.76-.53-.23-.36-.36-.53 0-.8s.24-.15.6-.47c1.54-1.34-.38-2.48-.7-2.61-.3-.14-.62-.57-.8-.88-.18-.32.54-.68.85-1.26 0 0 .02.1.14-.36.12-.47.23-.55.4-.74.34-.4.76-.54 1.26-.54.45 0 .57-.1.88-.26l.08-.1M13.09-38.74c-.45.31-.4 1.48.31.72l.05-.12c.04-.4.09-.91-.36-.6z" style="fill:#fff"/><path d="M4.9-39c.22-.33.5-.77-.04-.7-.55.07-1.04 1.13-.05.78L4.9-39zM5.03-26.9c.23.41 1.3.05 1.03-.49s-1.28.05-1.03.5zM16.52-37.05c-.98-.7-1.99-.83-2.23-.25-.24.57-.12 1.23.37 1.24.48 0 .85-.34 1.38-.08l.12.05c.27.17-.37-.51-.07-.54.3-.02 1.4.27.43-.42zM18.34-33.05c-.71-.1-.48-1.17-.37-1.36.54-.98-.57-.69-1.35-.72-2.22-.08-1.2 1.8-.06 1.1.6-.37.85 1.03.22 1.42-.62.4 1.44 1.42 1.99.95.54-.46.3-1.28-.43-1.39zM12.33-29.56c-.4.5.5.5.94.14.45-.36.54-.58.99-.58.44 0 .58.08 1.16-.1.58-.17.63-1.38-.31-1.38s-2.27 1.3-2.78 1.92zM3.5-27.33c.27-.53.27-1.16 0-1.43-.26-.27-.98.4-1.38 1.48-.17.44 1.12.5 1.39-.05zM9.63-43.06c-.5-.5-.94-.76-1.44-.27-.5.5-.24.47-.06.65.32.32.18.07.88.18.5.08.8-.37.62-.56zM22.23-28.41c.33.32.19.07.9.18.48.08.79-.37.6-.56-.49-.5-.94-.76-1.43-.27-.5.5-.24.47-.07.65zM15.73-28.8c.32-.26-.06-.7-.45-.3-.26.26.14.57.45.3zM21.75-42.75c-.27.27.13.59.44.32.32-.27-.06-.7-.44-.32zM14.02-33.95c-.13-.5-.8-.99-1.12-.76-.31.22-1.43 2.33-2.42 2.87-.98.53-1.97.71-2.2.35-.22-.35-.26-1.07-.62-1.07s-.4.45-.58.76c-.18.31-.23.72-.8.67-.6-.04-1.04-.04-1.35.5-.32.53-.4 1.7.45 1.07.85-.63 2.06-1.84 2.64-1.25.58.58.76 1.57 1.03 1.57s.72-.72 1.12-1.17c.4-.45.45-.45.9-.4.44.04.8-.1.8-.63 0-.4.68-1.03 1.35-1.44.67-.4.94-.58.8-1.07z" style="fill:#fff"/><path d="M19.59-31.16c-1.01 1.11-1.04 1.62-1.3 1.66-.27.05-.5-.09-.72.18-.23.27-.1.18-.8.05-.73-.14.16 1.28-.46 1.78-.63.49-.95.53-1.17.13-.22-.4-.36-.94-1.08-.31-.71.62-.98.71-1.39.31-.4-.4-1.07-1.3-1.83-1.17-.77.14-.59.23-.59.54 0 .32.54.76 1.17.76.63 0 1.2 1.04.58 1.57-.62.54-1.18.44-1.81.55-.2.04-.54-.32-.61-.42-.07-.1-.46.06-.53.22-.07.15.06.77.63.86.57.09.96.41 1.22-.16s1.36-.39 1.5-.37c.86.08.86.22 1 .35.13.14.48.23.75-.49s.32-1.16 1.12-1.12c.81.05 1.22.18 1.57-.22.36-.4.4-.5.95-.45.53.04-.98-1.24-.45-1.51.54-.27.5-.32.99-.27.5.04.67.18 1.08-.36.4-.54.44-.36.8-.04.36.3.68.26.72.04.04-.22-.4-.8-.58-.99-.18-.18-.45-.35.31-.76 0 0 .7-.15.46-.38-.25-.23.47-.54.17-.69-.28.02-1.02-.04-1.7.71zM17.49-22.14c.52.03.99-.02 1.08-.22.1-.24.18-.56.4-.77l.12-.14c.14-.14-.2-.5.1-.52.76-.05 2.17.04 2.47-.5.07-.12.06-.52.5-.73.43-.2 1.34-1.48.33-1.91-2.61-1.1-1.41 1.7-1.68 2.15-.27.45-.63.18-.99-.09s-.75.6-1.38.77c-.62.18-.58-.27-1.07-.31-.5-.05-.81.27-.95.85-.02.11-.05.21-.1.3l-.15.13c-.15.31-.43-.2-.97-.2-.67 0-1.07.63-.9 1.08 0 0 .41.36.86-.05.45-.4.04-.27.66-.1l.19.03c1.2.23.27 1.66.85 1.43.58-.22 1.08.18.94.72-.13.54-1.16 1.7-1.74 1.75-.59.04-1.17-.18-1.26-.4-.09-.23-.13-.18.18-.45s.31-.36.09-.54c-.22-.18-.63.09-.72.5-.09.4-.4.66-.71.44-.32-.22-1.63-1.86-1.1-2 .55-.13.86.05.86-.27 0-.31-.1-.31-.36-.44-.27-.14-.27-.14-.4-.32-.14-.18-.36-.22-.68-.22-.3 0-.3.04-.62-.23-.32-.26-.99-.26-1.21.23-.23.5.22 1.07.76 1.03.54-.05 1.36 1.1 1.36 1.46 0 .36-.23 1.03-.94.8-.72-.22-.99-.71-1.44-.62-.45.09-.5.45-.13 1.16.25.5.4 1.17 1.16.63.76-.54 1.03-1.08 1.66-.9.63.18.76.36.94.81.18.45 0 .76.94.58.94-.18 2.38-.27 2.92-.67.53-.4 1.06-2.15 1.07-2.6.01-.34.19-.58.11-.82-.07-.24-.2-.32-.4-.27-.57.15-1.24-.5-.65-.56M13.87-42.35c0-.32-.09-.32-.36-.45-.27-.14-.27-.14-.4-.32s-.36-.22-.67-.22c-.32 0-.32.04-.63-.22-.31-.27-.99-.27-1.2.22-.23.5.22 1.08.75 1.03.54-.04.8 0 .8.36s-.21 1.03-.93.8c-.72-.22-.99-.71-1.44-.62-.44.09-.49.45-.13 1.17.25.5.4 1.16 1.16.62.77-.54 1.04-1.07 1.66-.9 0 0 .76-.38.45-.75s-.3-.37.1-.45c.53-.13.84.04.84-.27zM17.55-44.42c.3.02.4-.29.32-.42-.25-.45-2.61-.2-2.61-.2-.67 0-1.08.62-.9 1.07 0 0 .4.36.86-.04.44-.4.03-.85.66-.67l.18.03c1.21.23.28 1.65.86 1.43.58-.23 1.07.18.94.71-.13.54-1.17 1.7-1.75 1.75-.58.05-1.16-.18-1.25-.4-.1-.23-.14-.18.18-.45.3-.27.3-.36.09-.54-.23-.18-.63.1-.72.5 0 0-1.47 2.3-.07 2.19l.16-.04c.94-.18 2.37-.27 2.91-.68.54-.4 1.06-2.15 1.08-2.6 0-.34.18-.58.1-.82-.07-.24-.19-.32-.4-.26-.56.14-1.23-.5-.64-.56M17.55-44.42h-.01.01M20.96-45.14s-.49-.24-.78-.07c-.21.1-.87.62-.47 1.06.28.3.61 1.26 1.2.26.26-.43.54-1.25.05-1.25zM26.2-44.63c-.47-.2-.64-.53-1.04-.35-.4.18-1.63 1.25-1.58 1.74.03.31-.26.78-.26.78l-.18.11c-.19.13-.38.33-.6.69-.64.98-1.17.6-2.92.04-.4-.12-.71.33-.58.82.14.5.44.44 1.7.44 1.25 0 1.07.85-.05 2.06-1.12 1.2-2.13-1.32-3.14-.36-.64.61-.13 1.08.5 1.7.63.63 1.25.45 1.34.14.1-.32 1.26-.05 1.75-.36.5-.31.4-.58.8-1.21.41-.63.37-.94.37-1.66 0-.36.34-.67.84-.92l.15-.1s.77-.26.97-.63-.01-.74.25-1.04c.41-.48.55-1.26 1.1-.99 0 0 .15.08.4-.15.24-.22.57-.57.17-.74zM33.02-45.44l-.06.1-.32.64c-.31.63-1.05-.01-1.48-.18-.16-.06-.4.04-.4.04-.8-.26-.85.59-.94.95-.1.35-.67.4-1.3.3-.47-.06-.23.22-.23.8 0 .58-.13.99.4.76.55-.22.81-.45.68-.04-.13.4-.27.27-.4.58-.14.31-.36.67.4.72s1.2.49.8.98c-.4.5-1.6.9-1.65 1.57-.05.67.13 1.53-.36 1.35-.5-.18-.54-.2-.76-.53-.23-.36-.36-.53 0-.8s.24-.14.6-.46c1.54-1.35-.38-2.49-.7-2.62-.3-.14-.62-.57-.8-.88-.18-.32.54-.67.85-1.26 0 0 .02.1.14-.36.12-.47.23-.55.4-.74.34-.4.76-.54 1.26-.54.45 0 .64-.12.95-.28l.08-.1M36.24-38.53c-.44.32-.4 1.48.32.72l.04-.12c.05-.4.1-.91-.36-.6z" style="fill:#fff"/><path d="m27.1-38.92.1-.08c.22-.34.5-.77-.04-.7-.54.07-1.04 1.13-.05.78zM29.6-29.17c-.26-.54-1.27.05-1.02.5.22.4 1.3.04 1.03-.5zM38.77-35.93c-.56-1.06-1.25-1.34-1.72-.93-.47.41-.62.72-.19.94.43.22.46.32.8.79l.1.1c.17.26.11-.4.39-.28s1.18.44.62-.62zM38.88-33.99c-.76.18-.63.85-.63 1.66 0 .4 1.3-.04 1.98-.94.67-.9-.59-.9-1.35-.72zM35.57-29.42c.45-.36.54-.58.99-.58.44 0 .58.08 1.16-.1.58-.17.63-1.38-.31-1.38s-2.27 1.3-2.78 1.92c-.4.5.5.5.94.14zM30.25-26.96c-.05-.5-.28-.86-1.04-.32s-.3 1.04.06 1c.5-.04 1.02-.19.98-.68zM26.37-29.04c-.27-.27-.98.4-1.39 1.47-.16.45 1.12.5 1.4-.04.26-.54.26-1.16 0-1.43zM42.09-33.33c-.45.31-.45.98-.45 1.43 0 .45-.45.85-1.21 1.39-.76.54-1.66 1.88-1.44 2.1.23.23.68.05 1.08-.26.4-.32 1.03-.68 1.7-.77.68-.09.54-.4.54-.9 0-.49-.04-.58.18-.98s.54-.9.9-.9.49-.22.53-.49c.05-.27-.08-.31-.58-.31-.5 0-.3-.08-.54-.36-.22-.27-.27-.27-.71.05zM38.03-28.8c.32-.26-.06-.7-.45-.3-.27.26.14.57.45.3zM41.92-42.75c-.27.27.14.59.45.32.31-.27-.07-.7-.45-.32z" style="fill:#fff"/><path d="M35.2-34.71c-.31.22-1.43 2.33-2.42 2.87-.98.53-1.97.71-2.2.35-.22-.35-.26-1.07-.62-1.07s-.4.45-.58.76c-.18.31-.23.72-.8.67-.6-.04-1.04-.04-1.35.5-.32.53-.4 1.7.45 1.07.85-.63 2.06-1.84 2.64-1.25.58.58.76 1.57 1.03 1.57s.72-.72 1.12-1.17c.4-.45.45-.45.9-.4.45.04.8-.1.8-.63 0-.4.68-1.03 1.35-1.44.67-.4.94-.58.8-1.07-.13-.5-.8-.99-1.12-.76zM39.04-25.81c.36-.4.4-.5.94-.45.54.05.68.14 1.21-.13.54-.27.5-.32.99-.27.5.04.67.18 1.08-.36.4-.54.44-.36.8-.04.36.3.68.26.72.04.04-.22-.4-.8-.58-.99-.18-.18-.45-.35.31-.76 0 0-.4-1.1-1.08-.36-1 1.11-1.03 1.62-1.3 1.66-.26.05-.49-.09-.71.18-.23.27-.1.18-.81.05a2.54 2.54 0 0 0-2.1.4c-.63.5-.95.54-1.17.14-.23-.4-.36-.95-1.08-.32-.72.63-.98.72-1.39.32-.4-.4-1.07-2.16-1.84-2.02-.76.13-.58.22-.58.54 0 1.04.54.76 1.17.76.63 0 1.2 1.88.58 2.42l-.03.02c-.58.72.43.65.43.65.86.14.86.22.99.36.13.13.5.22.76-.5.27-.71.31-1.16 1.12-1.11.81.04 1.22.17 1.57-.23z" style="fill:#fff"/><path d="M31.77-38.14c-.26.27-1.26-.15-1.49-.1-.22.04-.72.44-.54.71.18.27.63.63 1.26.04 0 0 .43-.22.24.64-.06.3.84 0 1.46-.49 1-.77 1.09 2.45.06 1.71-.5-.36-1.43.76-1.93.32-.5-.45-.67-.68-.94-.4-.27.26-.54.3-1.08.35-.53.04-1.74.22-2.06.63-.31.4-1.25.58-1.25.85s.5.54.67.67c.18.14.31.4.13.72-.17.31-.44 1.2-1.16 1.07-.72-.13-.45-.04-.8.14 0 0-.37.13-.3.32.08.19.61.97.58 1.2-.04.23 1.2.15 1.3-.08.12-.23-.16-.53-.12-.72.03-.2.76-.4.9-.86.33-.98.68-2.6 1.35-2.42.68.18 1.44.32 1.98 0s.49-.53 1.03-.44c.53.08 1.7-.1 2.2-.36.49-.27.7-.4.75-.77.05-.35.77-.71.72-1.48-.04-.76-.4-1.65-1.2-1.65-.81 0-1.49.13-1.76.4zM8.14-37.86c-.22.04-.71.45-.53.71.18.27.62.63 1.25.05 0 0 3.26-1.3 1.97-1.88-.73-.33-1.48.13-1.74.4-.27.27-.72.67-.95.72zM45.44-35.88a.32.32 0 0 1-.22.03l-.01.01-.42-.3c-.53-.41-.58.17-.76.7-.18.55-.41.55-.72.46-.71-.23-1.2.49-1.03.8.18.32 1.35-.09 1.93-.4.31-.17.65-.26.97-.26l.04.02c.05.03.12.06.22.04M25.5-36.59c.53 0 .8-.35.62-.9-.18-.53-1.07-1.35-.93-1.58.13-.22 1.26-1.01.8-1.57-.6-.72-2.08-.4-1.5.47.17.26-.2 1.43-.24 1.57-.04.13.8.5 1.02.63.22.13.36.31.13.49-.22.18-.58.27-.85.22-.27-.04-.58-.22-.76.23-.18.44-.01 1.18-.53 1.11l-.03.01-.41-.31c-.54-.4-.58.18-.76.72-.18.53-.42.54-.72.44-.72-.22-1.21.5-1.03.81.18.31 1.34-.09 1.93-.4.3-.17.64-.26.96-.26l.06.02c.12.08.36.13.8-.44.58-.76.9-1.26 1.43-1.26zM45.44-25.27l-.22-.02c-.49-.09-1.43.36-1.7.81-.27.45-.63.18-.99-.09 0 0-2.19-.73-3.16-.39-1.9.67.86 3 .85 2.19-.03-2.12 2.75-.93 3.3-.8.54.12.85-.42.85-.42.3-.4.35-.47.92-.41h.15M26.54-25.76c-.3-.52-2.41-.53-2.76.22-.13.3.05.5.01.96-.04.44.61 1.14.91.85.3-.29.66-2.03 1.95-1.43.48.22 1.25 1.54 1.77 1.27s1-.04 1.34.17c.34.21 1.5-.36 1.95-.36 0 0 .57.2.54-.06-.03-.27-.66-1.47-.21-1.42.44.04.9.32.67-.18-.2-.43-.13-.5-.57-.55 0 0-.17-.15-.74.16-.57.3-2.29 1.63-2.61 1.24-.33-.4-.6-.87-1.03-.6-.43.28-.9.26-1.22-.27zM24.41-32.6c.27-.04.45-.8.27-1.25-.18-.44-.53-.13-.53-.13-.26-.26-.54.13-.9.57h-.01c-.14.15-.28.32-.44.46-.58.54-.59.74-.2.9.2.07.43 0 .65-.13v-.02c.28-.18.53-.44.63-.62 0 0 .27.27.54.23zM39.92-44.27c.53.03.99-.01 1.08-.22.1-.24.18-.56.4-.77v-.13a.56.56 0 0 1 .06-.05" style="fill:#fff"/><path d="M39.92-44.27c-.59.06.08.71.66.56.2-.05.32.03.4.27.07.24-.33.56-.12.82.32.39-.62.95-.62.27 0-.55-.36-.94-.94-.72-.59.23.35-1.2-.86-1.42l-.18-.03c-.63-.18-.22.26-.67.66-.45.4-.85.05-.85.05-.18-.45.22-1.08.9-1.08.53 0 .8-.05.97-.37l.03-.13.02-.05M32.96-43.33c-.23.49.22 1.07.76 1.03.54-.05.8 0 .8.36 0 .35-.22 1.03-.93.8-.72-.22-1-.71-1.44-.62-.45.08-.5.44-.13 1.16.25.5.4 1.17 1.16.63.76-.54 1.03-1.08 1.66-.9.63.18.76.36.94.8.18.46.15 1.13.94.6.33-.23 1.37-.27 2.16.1.79.36 1.33-.73 1.03-1.52-.3-.79-.91-.91-1.4-.43-.48.49-.97.49-1.43.18-.2-.13-.13-.18.18-.44.31-.28.31-.36.09-.54-.23-.18-.63.09-.72.49-.09.4-.4.67-.72.45-.3-.22-1.07-.76-.53-.9.53-.13.85.05.85-.27 0-.3-.09-.3-.36-.44s-.27-.14-.4-.32c-.14-.18-.36-.22-.68-.22s-.3.04-.62-.23-.99-.27-1.21.23zM44.05-44.64s-.48-.24-.78-.07c-.2.1-.87.62-.46 1.06.27.3.6 1.26 1.2.26.25-.43.53-1.25.04-1.25zM6.54-35.34c-.53.05-1.74.23-2.06.63-.31.4-1.25.58-1.25.85s.5.54.67.67c.18.14.31.4.14.72-.18.31-.45 1.21-1.17 1.08-.72-.14-.45-.05-.8.13 0 0-.37.13-.3.32.08.2.61.97.58 1.2-.04.23 1.2.15 1.3-.08.12-.22-.16-.53-.12-.72.03-.19.76-.4.9-.85.34-.98.68-2.6 1.35-2.42.68.18 1.44.31 1.98 0 .53-.32.49-.54 1.03-.45.54.09 1.7-.09 2.2-.36.49-.27.6-.43.76-.76.4-.9.8-1.77-.25-1.7-1.06.09-.97 1.3-.97 1.3l-.04.17c-.58.23-1.43.77-1.93.32s-.67-.67-.94-.4c-.27.26-.54.3-1.08.35zM45.44-42.34c-.05-.04-.1-.09-.14-.1-.08-.01-.14.1-.14.1-.19.12-.39.32-.61.68-.63.98-1.16.6-2.91.04-.4-.12-.71.33-.58.82.13.5.44.44 1.7.44 1.25 0 1.07.85-.05 2.06-1.12 1.2-2.13-1.32-3.14-.36-.64.61-.13 1.08.5 1.7.62.63 1.25.45 1.34.14.09-.32-1.02 3.52 1.75-.36.34-.48.4-.58.8-1.21s.36-.94.36-1.66c0-.36.35-.67.85-.92 0 0 .15-.13.27-.14M45.44-33.22c-.25.1-.55.2-.64.28-.59.54-.6.74-.2.9a2 2 0 0 0 .84-.05M45.44-13.54l-.14-.02-.41-.31c-.54-.4-.59.18-.76.72s-.42.54-.72.44c-.72-.22-1.21.5-1.03.81.18.32 1.34-.09 1.93-.4.3-.17.64-.26.96-.26l.17.04M1-18.66l.16-.08s.77-.26.97-.62c.2-.37-.01-.74.25-1.05.41-.48 1.12-1.25 1.66-.98 0 0 .16.07.4-.15.25-.23.58-.57.18-.75-.46-.2-1.2-.53-1.6-.35-.4.17-1.62 1.25-1.58 1.74.03.31-.26.78-.26.78l-.18.08M4.9-1.82c.35.19.85-.36 1.34-.04.5.31 1.39-.36 1.58-.85.2-.5.97-.14 1.24.17.27.32.99-.31.99-.76s-.58-.58-.94-.63c-.36-.04-.76.14-1.12.63-.36.5-.54.23-.94-.09-.4-.31-.72.14-1.08.5 0 0-.04-.3-.37-.38-.34-.08-1.53 1.03-.7 1.45zM1-2.12l.14.01.32.05c.98.13.83-.59 1.3-.54 0 0 1.28-.49.93-.65-.18-.08-.35-.16-.48-.25-.54-.36-.72-.22-.72-.22-.45 0-.31.13-.63.49-.27.31-.34.3-.69.25L1-3M1-9.8l.14-.06c.28-.18.53-.45.62-.62 0 0 .27.27.54.22.27-.04.45-.8.27-1.25-.18-.45-.54-.14-.54-.14-.25-.25-.54.14-.89.58l-.14.1M1-34.78c.14-.01.33-.13.6-.48.59-.76.9-1.26 1.44-1.26s.8-.35.63-.9c-.18-.53-1.07-1.35-.94-1.58.14-.23 1.26-1.01.8-1.57-.6-.72-2.07-.4-1.5.46.18.27-.19 1.44-.23 1.58-.05.13.79.49 1.01.62.23.14.36.32.14.5-.23.18-.58.27-.85.22-.27-.04-.59-.22-.77.22-.15.38-.05.97-.33 1.1M1-24.4l.14.02c.1 0 .2.02.32.04.25.03.27-.13.4-.3 0 0 .19-.58-.02-.7-.18-.12-.19-.07-.19-.07-.27.32-.13.21-.48.15L1-25.27M3.26-23.85c.44-.1 1.15.33 1.43.05.29-.28.7-.6 1.27-.46.56.15 1.75-.94 1.78-1.47.03-.53 0-1.33.35-1.12.35.22.84-.6.7-1.03-.14-.42-.74-.37-1.09-.3-.36.06-.33 1.44-.52 2.02-.19.58-.44.38-.93.2-.48-.17-.64.35-.87.8-.23.46-1.33.44-1.97.32-.27-.06-.5.14-.51.5s.36.49.36.49zM1-41.1c.04-.01.08 0 .12.02.1.11.03.16.22.08 0 0 .76-.26.96-.62.2-.37 0-.74.25-1.05.42-.47.56-1.25 1.1-.98 0 0 .16.07.4-.15.25-.23.58-.57.18-.75-.46-.2-.63-.53-1.04-.35-.4.18-1.62 1.25-1.58 1.74.03.31-.26.78-.26.78s-.1.12-.17.13c-.05 0-.12-.05-.18-.1M1-32.09c.14-.03.26-.07.33-.11l.17-.1c.28-.17.24-.44.34-.61l.54.22c.27-.04.45-.8.27-1.25-.18-.45-.54-.14-.54-.14-.26-.26-.26.14-.6.58l-.13.1c-.05.06-.2.12-.38.2M1-12.53l.14.03c.11.08.36.13.8-.44.58-.76.9-1.25 1.43-1.25s.8-.36.63-.9c-.18-.54-1.07-1.36-.93-1.59.13-.22 1.26-1.01.8-1.57-.6-.72-2.08-.4-1.5.47.17.27-.2 1.44-.24 1.57-.04.14.8.5 1.02.63.22.13.36.31.13.49-.22.18-.58.27-.85.22-.27-.04-.58-.22-.76.23-.18.45-.01 1.18-.53 1.11L1-13.55" style="fill:#fff"/><path d="m8.04-1 .05-.07c.36-.17.63-.33 1.25-.46a7.16 7.16 0 0 0 2.51-1.21c.63-.54.05-1.57-.58-1.57s-1.16-.45-1.16-.76c0-.32-.18-.4.58-.54s1.43.76 1.84 1.16c.4.4.67.32 1.39-.3.71-.64.85-.1 1.07.3 0 0 .54.48.4.84-.15.36-.72.4-1.1.36-.37-.03-1.2.61-.78.72.42.1.48.18.5.33.1.75-.63.62-.76.49-.14-.14-.14-.23-.99-.36-.6-.1-1.02.46-1.33 1l-.02.07M16.7-5.35c.5.39.22 1.34.83 1.07.5-.2.4-.49.94-.44.54.04.67.13 1.21-.14s.5-.31.99-.27c.49.05.67.18 1.07-.36.4-.53.45-.35.81-.04.36.31.67.27.72.04.04-.22-.4-.8-.59-.98-.17-.18-.44-.36.32-.76 0 0 .7-.16.46-.39-.25-.23.47-.53.17-.69-.29.02-1.03-.03-1.7.72-1.02 1.1-1.04 1.61-1.3 1.65-.28.05-.5-.08-.72.18-.23.27-.1.18-.81.05 0 0-.58.1-.66-.2s-.57-.5-.7-.25-.37.25-.54.2c-.17-.05-1 .22-.5.6zM17.64-1.37s1.38-.37 1.83-.89c.53-.61.93-.33.93-.33.76-.05 1.6 1.05 2.18.89.56-.15-.46-1.45-.22-1.33.19.08 1.1-1.07-.23-.9-.23.03-.12.92-.12.92-.27.45-.62-.39-.98-.66s-1.27-.05-1.9.13c-.63.17-.42 1.1-.82.81-1.34-.99-2 1.14-.67 1.36zM23.93-2.44c.73.61.71-1.32 1.19-1.28.45.05 1.27 1.53 1.63 1.35.35-.18.85-.36 1.34-.05.5.32 1.36-.37 1.59-.85.31-.67-.78-.67-.78-.67-.4-.31-.72.13-1.08.5-.36.35-1.15-.22-1.68-.58-.54-.36-.99-1.15-.99-1.15-2.4-.08-.76 1.36-1.07 1.72 0 0-.78.48-.15 1zM30.18-1l.06-.09c.36-.18.63-.33 1.26-.47a7.16 7.16 0 0 0 2.5-1.2c.63-.54.05-1.58-.58-1.58-.62 0-1.16-.44-1.16-.76 0-.31-.18-.4.58-.53.76-.14 1.44.76 1.84 1.16.4.4.67.31 1.39-.31.72-.63.85-.1 1.08.31.22.4.46.25 1.16-.13.24-.14.5.18.43.74s-1.38 1.94-1.31 1.44.33-.79-.15-.93c-.78-.22-.85.4-1.12 1.12-.27.72-.63.63-.76.5-.14-.14-.14-.23-.99-.36-.6-.1-1.02.45-1.33 1l-.05.09" style="fill:#fff"/></svg>