<svg xmlns="http://www.w3.org/2000/svg" xml:space="preserve" width="52.33" height="52.33" viewBox="0 -52.33 52.33 52.33"><path d="M0-52.33h52.33V0H0z" style="fill:none"/><path d="M19.29-51.83h-5.81M40.79-44.27h-5.81M7.67-39.27H1.85M27.73-32.58h-5.81M42.23-22.83h-5.81M1.54-7.48H0M48.1-7.48h4.23" style="fill:none;stroke:#000;stroke-width:.4"/><path d="M4.96-51.21h0M21.42-49.33h0M22.29-49.33h0M23.29-49.33h0M5.25-46.33h0M6.12-46.33h0M7.12-46.33h0M7.98-46.33h0M.56-49.33h0M1.42-49.33h0M51-49.33h0M51.87-49.33h0M49.17-49.33h0M50.04-49.33h0M1.12-42.15h0M2.12-42.15h0M2.98-42.15h0M23.43-44.77h0M24.31-44.77h0M25.31-44.77h0M26.17-44.77h0M30.81-44.46h0M31.68-44.46h0M32.68-44.46h0M33.54-44.46h0M30.18-46.96h0M31.06-46.96h0M32.06-46.96h0M32.92-46.96h0M16.81-40.83h0M17.68-40.83h0M18.68-40.83h0M13.35-35.65h0M14.23-35.65h0M15.23-35.65h0M24.42-27.96h0M25.29-27.96h0M26.29-27.96h0M23.92-33.83h0M24.79-33.83h0M25.79-33.83h0M40.17-20.96h0M41.04-20.96h0M42.04-20.96h0M19.46-17.83h0M20.33-17.83h0M21.33-17.83h0M25.29-11.71h0M26.17-11.71h0M27.17-11.71h0M36.63-13.83h0M37.5-13.83h0M38.5-13.83h0M12.13-21.67h0M13-21.67h0M14-21.67h0M23.17-15.71h0M24.04-15.71h0M45.29-31.08h0M46.17-31.08h0M30.42-24.71h0M31.29-24.71h0M38.92-46.71h0M39.79-46.71h0M33.04-31.08h0M33.92-31.08h0M33-21.67h0M34-21.67h0M30.42-35.08h0M31.42-35.08h0M42.63-42.67h0M43.5-42.67h0M44.5-42.67h0M19.54-40.83h0M13.75-33.08h0M14.62-33.08h0M15.62-33.08h0M16.48-33.08h0M28.29-6.46h0M29.17-6.46h0M30.17-6.46h0M17.27-19.17h0M18.14-19.17h0M19.14-19.17h0M20-19.17h0M49.67-29.9h0M50.54-29.9h0M51.54-29.9h0M50.06-27.33h0M50.93-27.33h0M51.93-27.33h0M.42-27.33h0M35.12-35.4h0M36-35.4h0M37-35.4h0M37.85-35.4h0M25.25-39.71h0M26.1-39.71h0M25.87-37.02h0M26.75-37.02h0M27.75-37.02h0M28.6-37.02h0M5.84-51.21h0M6.84-51.21h0M7.67-51.21h0M15.54-46.4h0M16.42-46.4h0M17.42-46.4h0M12.67-46.4h0M13.54-46.4h0M10.85-46.4h0M11.73-46.4h0M14.54-46.4h0M18.27-46.4h0M26.09-40.52h0M26.97-40.52h0M27.97-40.52h0M23.22-40.52h0M24.09-40.52h0M25.09-40.52h0M28.83-40.52h0M17.57-12.77h0M18.43-12.77h0M18.42-13.58h0M19.29-13.58h0M20.29-13.58h0M15.54-13.58h0M16.42-13.58h0M17.42-13.58h0M21.15-13.58h0M3.68-24.21h0M4.56-24.21h0M5.56-24.21h0M6.42-24.21h0M8.71-18.52h0M9.57-18.52h0M9.94-15.33h0M10.82-15.33h0M11.82-15.33h0M12.68-15.33h0M9.56-19.33h0M10.43-19.33h0M11.43-19.33h0M6.68-19.33h0M7.56-19.33h0M8.56-19.33h0M12.29-19.33h0M2.71-.38h0M3.57-.38h0M3.56-1.2h0M4.43-1.2h0M5.43-1.2h0M.68-1.2h0M1.56-1.2h0M2.56-1.2h0M6.29-1.2h0M.56-33h0M1.42-33h0M50.21-32.19h0M51.07-32.19h0M51.06-33h0M51.93-33h0M48.18-33h0M49.06-33h0M50.06-33h0M13.62-36.96h0M14.5-36.96h0M15.5-36.96h0M10.75-36.96h0M11.62-36.96h0M12.62-36.96h0M16.35-36.96h0M47.02-37.69h0M47.9-37.69h0M48.9-37.69h0M47.29-39h0M48.17-39h0M49.17-39h0M44.42-39h0M45.29-39h0M46.29-39h0M50.02-39h0M3.12-43.4h0M4-43.4h0M5-43.4h0M.47-43.4h0M1.29-43.4h0M2.12-43.4h0M5.85-43.4h0M51-43.4h0M51.85-43.4h0M19.15-46.4h0M20.15-46.4h0M20.98-46.4h0M31.35-48.33h0M32.23-48.33h0M33.23-48.33h0M28.48-48.33h0M29.35-48.33h0M30.35-48.33h0M34.09-48.33h0M34.96-48.33h0M35.96-48.33h0M47.06-19.21h0M47.94-19.21h0M48.94-19.21h0M49.79-19.21h0M48.23-20.58h0M49.11-20.58h0M50.11-20.58h0M45.36-20.58h0M46.23-20.58h0M47.23-20.58h0M50.96-20.58h0M51.84-20.58h0M.46-20.58h0M36.79-48.33h0M35.54-37.02h0M36.42-37.02h0M37.42-37.02h0M32.67-37.02h0M33.54-37.02h0M34.54-37.02h0M38.27-37.02h0M39.15-37.02h0M40.15-37.02h0M40.98-37.02h0M9.29-42.71h0M10.15-42.71h0M11.02-42.71h0M12.02-42.71h0M12.85-42.71h0M18.98-30.08h0M19.84-30.08h0M20.71-30.08h0M21.71-30.08h0M22.54-30.08h0M12.48-24.46h0M13.34-24.46h0M14.21-24.46h0M15.21-24.46h0M16.04-24.46h0M28.48-27.46h0M29.34-27.46h0M30.21-27.46h0M31.21-27.46h0M32.04-27.46h0M3.18-35.58h0M4.04-35.58h0M4.92-35.58h0M5.92-35.58h0M6.75-35.58h0M18.98-35.27h0M19.84-35.27h0M20.71-35.27h0M21.71-35.27h0M22.54-35.27h0M40.6-32.83h0M41.46-32.83h0M42.34-32.83h0M43.34-32.83h0M44.17-32.83h0M33.6-33.83h0M34.46-33.83h0M35.34-33.83h0M36.34-33.83h0M37.17-33.83h0M8.48-26.54h0M9.35-26.54h0M10.35-26.54h0M11.21-26.54h0M6.48-29.33h0M7.35-29.33h0M8.35-29.33h0M3.6-29.33h0M4.48-29.33h0M5.48-29.33h0M9.21-29.33h0M10.09-29.33h0M11.09-29.33h0M11.92-29.33h0M34.77-18.5h0M33.83-18.5h0M35.63-18.5h0M36.5-18.5h0M37.5-18.5h0M38.33-18.5h0M43.67-46.27h0M44.52-46.27h0M45.4-46.27h0M46.4-46.27h0M47.23-46.27h0M36.48-49.96h0M37.34-49.96h0M38.21-49.96h0M39.21-49.96h0M40.04-49.96h0M15.04-45.08h0M15.9-45.08h0M16.77-45.08h0M17.77-45.08h0M18.6-45.08h0M4.27-11.83h0M5.15-11.83h0M6.01-11.83h0M1.4-11.83h0M2.27-11.83h0M.46-11.83h0M3.27-11.83h0M7.01-11.83h0M7.88-11.83h0M8.88-11.83h0M9.71-11.83h0M4.17-10.52h0M5.03-10.52h0M5.9-10.52h0M6.9-10.52h0M7.73-10.52h0M51.96-11.83h0M22.42-22.71h0M23.29-22.71h0M24.29-22.71h0M19.54-22.71h0M20.42-22.71h0M17.73-22.71h0M18.6-22.71h0M21.42-22.71h0M25.15-22.71h0M26.02-22.71h0M27.02-22.71h0M27.85-22.71h0M21.92-21.4h0M22.77-21.4h0M23.65-21.4h0M24.65-21.4h0M25.48-21.4h0M24.93-10h0M25.79-10h0M26.67-10h0M27.67-10h0M28.5-10h0M47.43-13.67h0M48.29-13.67h0M49.17-13.67h0M50.17-13.67h0M51-13.67h0M39.35-27.08h0M40.23-27.08h0M41.23-27.08h0M36.48-27.08h0M37.35-27.08h0M38.35-27.08h0M42.09-27.08h0M42.96-27.08h0M43.96-27.08h0M44.79-27.08h0M38.85-25.77h0M39.71-25.77h0M40.59-25.77h0M41.59-25.77h0M42.42-25.77h0M32.79-41.15h0M33.65-41.15h0M34.52-41.15h0M35.52-41.15h0M36.35-41.15h0M29.18-16.33h0M30.06-16.33h0M31.06-16.33h0M26.31-16.33h0M27.18-16.33h0M28.18-16.33h0M31.92-16.33h0M41.82-14.19h0M42.68-14.19h0M44.79-48.33h0M45.67-48.33h0M46.67-48.33h0M43.65-50.85h0M44.51-50.85h0M50.14-4.33h0M51-4.33h0M4.31-20.83h0M5.17-20.83h0M1.98-6h0M2.83-6h0M48.14-9.83h0M49-9.83h0M15.48-28h0M16.33-28h0M42.81-24.33h0M43.67-24.33h0M1.31-17.17h0M2.17-17.17h0M42.67-15h0M43.54-15h0M44.54-15h0M39.79-15h0M40.67-15h0M41.67-15h0M45.4-15h0M8.27-5.83h0M9.14-5.83h0M10.14-5.83h0M11-5.83h0M21.27-1.33h0M22.14-1.33h0M23.14-1.33h0M24-1.33h0M18.25-6.4h0M19.12-6.4h0M20.12-6.4h0M15.37-6.4h0M16.25-6.4h0M17.25-6.4h0M20.98-6.4h0M21.85-6.4h0M22.85-6.4h0M23.68-6.4h0M12.42-2.65h0M13.27-2.65h0M14.15-2.65h0M15.15-2.65h0M15.98-2.65h0M11.6-9.96h0M12.46-9.96h0M13.34-9.96h0M14.34-9.96h0M15.17-9.96h0M30.93-11.96h0M31.81-11.96h0M32.81-11.96h0M33.67-11.96h0M42.93-.58h0M43.81-.58h0M44.81-.58h0M45.67-.58h0M35.21-6.15h0M36.07-6.15h0M33.37-4.21h0M34.25-4.21h0M35.25-4.21h0M36.1-4.21h0M36.06-6.96h0M36.93-6.96h0M37.93-6.96h0M33.18-6.96h0M34.06-6.96h0M35.06-6.96h0M38.79-6.96h0M43.35-2.21h0M44.23-2.21h0M45.23-2.21h0M40.48-2.21h0M41.35-2.21h0M42.35-2.21h0M46.09-2.21h0M46.96-2.21h0M47.96-2.21h0M48.79-2.21h0M29.34-2.21h0M30.34-2.21h0M31.17-2.21h0M23.85-3.75h0M24.71-3.75h0M25.59-3.75h0M26.59-3.75h0M27.42-3.75h0M40.6-9.71h0M41.46-9.71h0M42.34-9.71h0M43.34-9.71h0M44.17-9.71h0" style="fill:none;stroke:#000;stroke-width:.5;stroke-linecap:round"/><path d="M33.3-49.46c.3.06.93-.75.68-.94s-.69.94-.69.94zM29.48-49.46c-.31.06-.94-.75-.69-.94s.69.94.69.94zM32.17-49.7c.33.21 1.18-1.63.8-1.76s-1 1.63-.8 1.75zM30.42-49.9c-.33.22-1.2-1.62-.82-1.75s1 1.63.82 1.75zM31.48-49.83c-.33.22-.63-2.2.06-2.13.4.04.13 2-.06 2.13zM17.92-47.15c.3.07.93-.75.68-.93s-.68.93-.68.93zM18.92-46.96c.3.06.8-.37.56-.56s-.56.56-.56.56zM14.1-47.15c-.3.07-.93-.75-.68-.93s.68.93.68.93zM13.1-47.08c-.3.06-.8-.32-.56-.5s.56.5.56.5zM16.8-47.4c.32.22 1.18-1.62.8-1.75s-1 1.63-.8 1.75zM15.04-47.58c-.33.22-1.19-1.63-.81-1.75s1 1.62.81 1.75zM16.1-47.52c-.33.22-.62-2.19.07-2.13.39.04.12 2-.07 2.13zM3.67-43.83c.3.06.93-.75.68-.94s-.68.94-.68.94zM2.54-44.08c.36.17.94-1.78.56-1.85-.4-.07-.76 1.75-.56 1.85zM.9-44.27c-.36.16-.9-1.8-.5-1.86.38-.06.71 1.77.5 1.86zM1.85-44.2c-.32.21-.62-2.2.07-2.13.39.03.12 2-.06 2.12zM26.3-41.31c.3.06.93-.75.68-.94s-.69.94-.69.94zM24.85-41.31c-.3.06-.93-.75-.68-.94s.68.94.68.94zM25.67-41.12c-.33.22-.63-2.19.06-2.13.4.04.12 2-.06 2.13zM14.17-38.19c.3.07.93-.75.68-.93s-.68.93-.68.93zM12.73-38.19c-.31.07-.94-.75-.69-.93s.69.93.69.93zM13.54-38c-.33.22-.62-2.19.06-2.12.4.03.13 2-.06 2.12zM47.84-40.23c.3.07.93-.75.68-.93s-.68.93-.68.93zM46.4-40.23c-.31.07-.94-.75-.69-.93s.69.93.69.93zM47.21-40.04c-.33.22-.62-2.19.06-2.12.4.03.13 2-.06 2.12zM38.67-37.58c.3.06.93-.75.68-.94s-.68.94-.68.94zM34.85-37.58c-.3.06-.93-.75-.68-.94s.68.94.68.94zM37.54-37.83c.33.22 1.19-1.63.81-1.75s-1 1.62-.8 1.75zM35.8-38.02c-.34.22-1.2-1.63-.82-1.75s1 1.62.81 1.75zM36.85-37.96c-.33.22-.62-2.19.07-2.12.4.03.12 2-.07 2.12zM52.19-43.83c-.31.06-.94-.75-.69-.94s.69.94.69.94zM6.59-12.77c.3.06.93-.75.68-.94s-.68.94-.68.94zM7.65-12.4c.31.07.81-.37.56-.56-.25-.19-.56.56-.56.56zM2.84-12.58c-.31.06-1.02-.94-.77-1.13s.77 1.13.77 1.13zM1.84-12.52c-.32.06-.82-.31-.57-.5s.57.5.57.5zM5.76-12.9c.33.22.62-2.06.25-2.18s-.44 2.06-.25 2.18zM3.82-12.83c-.19.12-1.23-1.82-.86-1.94s1.05 1.81.86 1.94zM4.84-12.96c-.33.22-1.02-2.56-.4-2.31.37.14.58 2.19.4 2.31zM24.8-23.46c.3.06.93-.75.68-.94s-.69.94-.69.94zM25.8-23.27c.3.06.8-.38.55-.56s-.56.56-.56.56zM20.98-23.46c-.31.06-.94-.75-.69-.94s.69.94.69.94zM19.98-23.4c-.31.07-.81-.3-.56-.5s.56.5.56.5zM23.67-23.7c.33.21 1.18-1.63.8-1.76s-1 1.63-.8 1.75zM21.92-23.9c-.33.22-1.2-1.62-.82-1.75s1 1.63.82 1.75zM22.98-23.83c-.33.22-.63-2.2.06-2.13.4.04.13 2-.06 2.13zM41.73-27.83c.31.06.94-.75.69-.94s-.7.94-.7.94zM37.92-27.83c-.32.06-.94-.75-.7-.94s.7.94.7.94zM40.6-28.08c.33.22 1.2-1.63.82-1.75s-1 1.62-.82 1.75zM38.85-28.27c-.33.22-1.18-1.63-.8-1.75s1 1.62.8 1.75zM39.92-28.2c-.33.21-.63-2.2.06-2.13.4.03.12 2-.06 2.12zM18.61-14.37c.32.06.94-.75.7-.94s-.7.94-.7.94zM17.18-14.37c-.32.06-.94-.75-.7-.94s.7.94.7.94zM17.99-14.19c-.33.22-.63-2.18.06-2.12.4.04.13 2-.06 2.12zM9.76-20.12c.3.06.93-.75.68-.94s-.68.94-.68.94zM8.32-20.12c-.31.06-.94-.75-.69-.94s.69.94.69.94zM9.13-19.93c-.33.21-.62-2.2.06-2.13.4.04.13 2-.06 2.13zM3.76-1.98c.31.06.94-.75.69-.94s-.7.94-.7.94zM2.32-1.98c-.31.06-.94-.75-.69-.94s.69.94.69.94zM3.13-1.8c-.33.22-.62-2.18.06-2.12.4.04.13 2-.06 2.12zM51.26-33.79c.3.06.93-.75.68-.94s-.68.94-.68.94zM49.82-33.79c-.31.06-.94-.75-.69-.94s.69.94.69.94zM50.63-33.6c-.33.22-.62-2.19.06-2.13.4.04.13 2-.06 2.13zM50.17-21.7c.31.05.94-.76.69-.95s-.7.94-.7.94zM46.36-21.7c-.32.05-.94-.76-.7-.95s.7.94.7.94zM49.04-21.96c.33.22 1.2-1.62.82-1.75s-1 1.63-.82 1.75zM47.3-22.15c-.34.22-1.2-1.62-.82-1.75s1 1.63.81 1.75zM48.36-22.08c-.33.22-.63-2.2.06-2.13.4.04.12 2-.06 2.13zM9.6-29.9c.32.07.94-.75.7-.93s-.7.93-.7.93zM5.8-29.9c-.32.07-.95-.75-.7-.93s.7.93.7.93zM8.48-30.15c.33.22 1.19-1.62.81-1.75s-1 1.63-.81 1.75zM6.73-30.33c-.33.22-1.19-1.63-.81-1.75s1 1.62.8 1.75zM7.8-30.27c-.34.22-.63-2.19.05-2.13.4.04.13 2-.06 2.13zM29.38-17.12c.31.06.94-.75.69-.94s-.69.94-.69.94zM27.94-17.12c-.3.06-.93-.75-.68-.94s.68.94.68.94zM28.76-16.93c-.33.21-.63-2.2.06-2.13.4.04.12 2-.06 2.13zM42.86-15.79c.32.06.94-.75.7-.94s-.7.94-.7.94zM41.43-15.79c-.32.06-.94-.75-.7-.94s.7.94.7.94zM42.24-15.6c-.33.22-.63-2.19.06-2.13.4.04.13 2-.06 2.13zM30.96-28.27c.31.06.94-.75.69-.94s-.69.94-.69.94zM29.52-28.27c-.3.06-.93-.75-.68-.94s.68.94.68.94zM30.34-28.08c-.33.22-.63-2.2.06-2.13.4.04.12 2-.06 2.13zM21.37-6.96c.31.06.94-.75.69-.94s-.69.94-.69.94zM17.56-6.96c-.31.06-.94-.75-.69-.94s.69.94.69.94zM20.25-7.2c.33.21 1.18-1.63.8-1.76s-1 1.63-.8 1.75zM18.5-7.4c-.33.22-1.2-1.62-.82-1.75s1 1.63.82 1.75zM19.56-7.33c-.33.22-.63-2.2.06-2.13.4.04.13 2-.06 2.13zM36.26-7.75c.3.07.93-.75.68-.93s-.68.93-.68.93zM34.82-7.75c-.31.07-.94-.75-.69-.93s.69.93.69.93zM35.63-7.56c-.33.22-.62-2.19.06-2.13.4.04.13 2-.06 2.13zM46.48-2.77c.31.06.94-.75.69-.94s-.7.94-.7.94zM42.67-2.77c-.32.06-.94-.75-.7-.94s.7.94.7.94zM45.35-3.02c.33.22 1.2-1.63.82-1.75s-1 1.62-.82 1.75zM43.6-3.2c-.33.21-1.18-1.63-.8-1.76s1 1.63.8 1.75zM44.67-3.15c-.33.22-.63-2.18.06-2.12.4.03.12 2-.06 2.12z"/></svg>