<svg xmlns="http://www.w3.org/2000/svg" xml:space="preserve" width="52.33" height="52.33" viewBox="1.8 -53.95 52.33 52.33"><path d="M1.8-53.95h52.33v52.33H1.8z" style="fill:none"/><path d="M21.09-53.45h-5.81M42.59-45.89h-5.81M9.47-40.89H3.65M29.53-34.2h-5.81M44.03-24.45h-5.81M3.34-9.1H1.8M49.9-9.1h4.23" style="fill:none;stroke:#00aeef;stroke-width:.4"/><path d="M6.76-52.83h0M23.22-50.95h0M24.09-50.95h0M25.09-50.95h0M7.05-47.95h0M7.92-47.95h0M8.92-47.95h0M9.78-47.95h0M2.36-50.95h0M3.22-50.95h0M52.8-50.95h0M53.67-50.95h0M50.97-50.95h0M51.84-50.95h0M2.92-43.76h0M3.92-43.76h0M4.78-43.76h0M25.23-46.39h0M26.11-46.39h0M27.11-46.39h0M27.97-46.39h0M32.61-46.08h0M33.48-46.08h0M34.48-46.08h0M35.34-46.08h0M31.98-48.58h0M32.86-48.58h0M33.86-48.58h0M34.72-48.58h0M18.61-42.45h0M19.48-42.45h0M20.48-42.45h0M15.15-37.26h0M16.03-37.26h0M17.03-37.26h0M26.22-29.58h0M27.09-29.58h0M28.09-29.58h0M25.72-35.45h0M26.59-35.45h0M27.59-35.45h0M41.97-22.58h0M42.84-22.58h0M43.84-22.58h0M21.26-19.45h0M22.13-19.45h0M23.13-19.45h0M27.09-13.33h0M27.97-13.33h0M28.97-13.33h0M38.42-15.45h0M39.3-15.45h0M40.3-15.45h0M13.93-23.28h0M14.8-23.28h0M15.8-23.28h0M24.97-17.33h0M25.84-17.33h0M47.09-32.7h0M47.97-32.7h0M32.22-26.33h0M33.09-26.33h0M40.72-48.33h0M41.59-48.33h0M34.84-32.7h0M35.72-32.7h0M34.8-23.28h0M35.8-23.28h0M32.22-36.7h0M33.22-36.7h0M44.42-44.28h0M45.3-44.28h0M46.3-44.28h0M21.34-42.45h0M15.55-34.7h0M16.42-34.7h0M17.42-34.7h0M18.28-34.7h0M30.09-8.08h0M30.97-8.08h0M31.97-8.08h0M19.07-20.78h0M19.94-20.78h0M20.94-20.78h0M21.8-20.78h0M51.47-31.51h0M52.34-31.51h0M53.34-31.51h0M51.86-28.95h0M52.73-28.95h0M53.73-28.95h0M2.22-28.95h0M36.92-37.01h0M37.8-37.01h0M38.8-37.01h0M39.65-37.01h0M27.05-41.33h0M27.9-41.33h0M27.67-38.64h0M28.55-38.64h0M29.55-38.64h0M30.4-38.64h0M7.64-52.83h0M8.64-52.83h0M9.47-52.83h0M17.34-48.01h0M18.22-48.01h0M19.22-48.01h0M14.47-48.01h0M15.34-48.01h0M12.65-48.01h0M13.53-48.01h0M16.34-48.01h0M20.07-48.01h0M27.89-42.14h0M28.77-42.14h0M29.77-42.14h0M25.02-42.14h0M25.89-42.14h0M26.89-42.14h0M30.63-42.14h0M19.37-14.39h0M20.23-14.39h0M20.22-15.2h0M21.09-15.2h0M22.09-15.2h0M17.34-15.2h0M18.22-15.2h0M19.22-15.2h0M22.95-15.2h0M5.48-25.83h0M6.36-25.83h0M7.36-25.83h0M8.22-25.83h0M10.51-20.14h0M11.37-20.14h0M11.74-16.95h0M12.62-16.95h0M13.62-16.95h0M14.48-16.95h0M11.36-20.95h0M12.23-20.95h0M13.23-20.95h0M8.48-20.95h0M9.36-20.95h0M10.36-20.95h0M14.09-20.95h0M4.51-2h0M5.37-2h0M5.36-2.81h0M6.23-2.81h0M7.23-2.81h0M2.48-2.81h0M3.36-2.81h0M4.36-2.81h0M8.09-2.81h0M2.36-34.62h0M3.22-34.62h0M52.01-33.8h0M52.87-33.8h0M52.86-34.62h0M53.73-34.62h0M49.98-34.62h0M50.86-34.62h0M51.86-34.62h0M15.42-38.58h0M16.3-38.58h0M17.3-38.58h0M12.55-38.58h0M13.42-38.58h0M14.42-38.58h0M18.15-38.58h0M48.82-39.3h0M49.7-39.3h0M50.7-39.3h0M49.09-40.62h0M49.97-40.62h0M50.97-40.62h0M46.22-40.62h0M47.09-40.62h0M48.09-40.62h0M51.82-40.62h0M4.92-45.01h0M5.8-45.01h0M6.8-45.01h0M2.27-45.01h0M3.09-45.01h0M3.92-45.01h0M7.65-45.01h0M52.8-45.01h0M53.65-45.01h0M20.95-48.01h0M21.95-48.01h0M22.78-48.01h0M33.15-49.95h0M34.03-49.95h0M35.03-49.95h0M30.28-49.95h0M31.15-49.95h0M32.15-49.95h0M35.89-49.95h0M36.76-49.95h0M37.76-49.95h0M48.86-20.83h0M49.74-20.83h0M50.74-20.83h0M51.59-20.83h0M50.03-22.2h0M50.91-22.2h0M51.91-22.2h0M47.16-22.2h0M48.03-22.2h0M49.03-22.2h0M52.76-22.2h0M53.64-22.2h0M2.26-22.2h0M38.59-49.95h0M37.34-38.64h0M38.22-38.64h0M39.22-38.64h0M34.47-38.64h0M35.34-38.64h0M36.34-38.64h0M40.07-38.64h0M40.95-38.64h0M41.95-38.64h0M42.78-38.64h0M11.09-44.33h0M11.95-44.33h0M12.82-44.33h0M13.82-44.33h0M14.65-44.33h0M20.78-31.7h0M21.64-31.7h0M22.51-31.7h0M23.51-31.7h0M24.34-31.7h0M14.28-26.08h0M15.14-26.08h0M16.01-26.08h0M17.01-26.08h0M17.84-26.08h0M30.28-29.08h0M31.14-29.08h0M32.01-29.08h0M33.01-29.08h0M33.84-29.08h0M4.98-37.2h0M5.84-37.2h0M6.72-37.2h0M7.72-37.2h0M8.55-37.2h0M20.78-36.89h0M21.64-36.89h0M22.51-36.89h0M23.51-36.89h0M24.34-36.89h0M42.4-34.45h0M43.26-34.45h0M44.14-34.45h0M45.14-34.45h0M45.97-34.45h0M35.4-35.45h0M36.26-35.45h0M37.14-35.45h0M38.14-35.45h0M38.97-35.45h0M10.28-28.16h0M11.15-28.16h0M12.15-28.16h0M13.01-28.16h0M8.28-30.95h0M9.15-30.95h0M10.15-30.95h0M5.4-30.95h0M6.28-30.95h0M7.28-30.95h0M11.01-30.95h0M11.89-30.95h0M12.89-30.95h0M13.72-30.95h0M36.57-20.12h0M35.63-20.12h0M37.42-20.12h0M38.3-20.12h0M39.3-20.12h0M40.13-20.12h0M45.47-47.89h0M46.32-47.89h0M47.2-47.89h0M48.2-47.89h0M49.03-47.89h0M38.28-51.58h0M39.14-51.58h0M40.01-51.58h0M41.01-51.58h0M41.84-51.58h0M16.84-46.7h0M17.7-46.7h0M18.57-46.7h0M19.57-46.7h0M20.4-46.7h0M6.07-13.45h0M6.95-13.45h0M7.81-13.45h0M3.2-13.45h0M4.07-13.45h0M2.26-13.45h0M5.07-13.45h0M8.81-13.45h0M9.68-13.45h0M10.68-13.45h0M11.51-13.45h0M5.97-12.14h0M6.83-12.14h0M7.7-12.14h0M8.7-12.14h0M9.53-12.14h0M53.76-13.45h0M24.22-24.33h0M25.09-24.33h0M26.09-24.33h0M21.34-24.33h0M22.22-24.33h0M19.53-24.33h0M20.4-24.33h0M23.22-24.33h0M26.95-24.33h0M27.82-24.33h0M28.82-24.33h0M29.65-24.33h0M23.72-23.01h0M24.57-23.01h0M25.45-23.01h0M26.45-23.01h0M27.28-23.01h0M26.73-11.62h0M27.59-11.62h0M28.47-11.62h0M29.47-11.62h0M30.3-11.62h0M49.23-15.28h0M50.09-15.28h0M50.97-15.28h0M51.97-15.28h0M52.8-15.28h0M41.15-28.7h0M42.03-28.7h0M43.03-28.7h0M38.28-28.7h0M39.15-28.7h0M40.15-28.7h0M43.89-28.7h0M44.76-28.7h0M45.76-28.7h0M46.59-28.7h0M40.65-27.39h0M41.51-27.39h0M42.39-27.39h0M43.39-27.39h0M44.22-27.39h0M34.59-42.76h0M35.45-42.76h0M36.32-42.76h0M37.32-42.76h0M38.15-42.76h0M30.98-17.95h0M31.86-17.95h0M32.86-17.95h0M28.11-17.95h0M28.98-17.95h0M29.98-17.95h0M33.72-17.95h0M43.62-15.8h0M44.48-15.8h0M46.59-49.95h0M47.47-49.95h0M48.47-49.95h0M45.45-52.47h0M46.31-52.47h0M51.94-5.95h0M52.8-5.95h0M6.11-22.45h0M6.97-22.45h0M3.78-7.62h0M4.63-7.62h0M49.94-11.45h0M50.8-11.45h0M17.28-29.62h0M18.13-29.62h0M44.61-25.95h0M45.47-25.95h0M3.11-18.78h0M3.97-18.78h0M44.47-16.62h0M45.34-16.62h0M46.34-16.62h0M41.59-16.62h0M42.47-16.62h0M43.47-16.62h0M47.2-16.62h0M10.07-7.45h0M10.94-7.45h0M11.94-7.45h0M12.8-7.45h0M23.07-2.95h0M23.94-2.95h0M24.94-2.95h0M25.8-2.95h0M20.05-8.01h0M20.92-8.01h0M21.92-8.01h0M17.17-8.01h0M18.05-8.01h0M19.05-8.01h0M22.78-8.01h0M23.65-8.01h0M24.65-8.01h0M25.48-8.01h0M14.22-4.26h0M15.07-4.26h0M15.95-4.26h0M16.95-4.26h0M17.78-4.26h0M13.4-11.58h0M14.26-11.58h0M15.14-11.58h0M16.14-11.58h0M16.97-11.58h0M32.73-13.58h0M33.61-13.58h0M34.61-13.58h0M35.47-13.58h0M44.73-2.2h0M45.61-2.2h0M46.61-2.2h0M47.47-2.2h0M37.01-7.76h0M37.87-7.76h0M35.17-5.83h0M36.05-5.83h0M37.05-5.83h0M37.9-5.83h0M37.86-8.58h0M38.73-8.58h0M39.73-8.58h0M34.98-8.58h0M35.86-8.58h0M36.86-8.58h0M40.59-8.58h0M45.15-3.83h0M46.03-3.83h0M47.03-3.83h0M42.28-3.83h0M43.15-3.83h0M44.15-3.83h0M47.89-3.83h0M48.76-3.83h0M49.76-3.83h0M50.59-3.83h0M31.14-3.83h0M32.14-3.83h0M32.97-3.83h0M25.65-5.37h0M26.51-5.37h0M27.39-5.37h0M28.39-5.37h0M29.22-5.37h0M42.4-11.33h0M43.26-11.33h0M44.14-11.33h0M45.14-11.33h0M45.97-11.33h0" style="fill:none;stroke:#00aeef;stroke-width:.5;stroke-linecap:round"/><path d="M35.1-51.08c.3.07.93-.75.68-.93s-.69.93-.69.93zM31.28-51.08c-.31.07-.94-.75-.69-.93s.69.93.69.93zM33.97-51.33c.33.22 1.18-1.62.8-1.75s-1 1.63-.8 1.75zM32.22-51.51c-.33.22-1.2-1.63-.82-1.75s1 1.62.82 1.75zM33.28-51.45c-.33.22-.63-2.19.06-2.13.4.04.13 2-.06 2.13zM19.72-48.76c.3.06.93-.75.68-.94s-.68.94-.68.94zM20.72-48.58c.3.07.8-.37.56-.56s-.56.56-.56.56zM15.9-48.76c-.3.06-.93-.75-.68-.94s.68.94.68.94zM14.9-48.7c-.3.06-.8-.31-.56-.5s.56.5.56.5zM18.6-49.01c.32.22 1.18-1.63.8-1.75s-1 1.62-.8 1.75zM16.84-49.2c-.33.22-1.19-1.63-.81-1.75.37-.13 1 1.62.81 1.75zM17.9-49.14c-.32.22-.62-2.19.07-2.12.39.03.12 2-.07 2.12zM5.47-45.45c.3.06.93-.75.68-.94s-.68.94-.68.94zM4.34-45.7c.36.17.94-1.78.56-1.85-.4-.07-.76 1.75-.56 1.85zM2.7-45.89c-.36.16-.9-1.8-.5-1.86.38-.06.71 1.77.5 1.86zM3.65-45.83c-.33.22-.62-2.18.07-2.12.39.04.12 2-.07 2.12zM28.1-42.93c.3.07.93-.75.68-.93s-.69.93-.69.93zM26.65-42.93c-.3.07-.93-.75-.68-.93s.68.93.68.93zM27.47-42.74c-.33.22-.63-2.19.06-2.12.4.03.12 2-.06 2.12zM15.97-39.8c.31.06.93-.75.68-.94s-.68.94-.68.94zM14.53-39.8c-.31.06-.94-.75-.69-.94s.69.94.69.94zM15.34-39.61c-.33.22-.62-2.2.06-2.13.4.04.13 2-.06 2.13zM49.64-41.84c.3.06.93-.75.68-.94s-.68.94-.68.94zM48.2-41.84c-.31.06-.94-.75-.69-.94s.69.94.69.94zM49.01-41.66c-.33.22-.62-2.18.06-2.12.4.04.13 2-.06 2.12zM40.47-39.2c.3.06.93-.75.68-.94s-.68.94-.68.94zM36.65-39.2c-.3.06-.93-.75-.68-.94s.68.94.68.94zM39.34-39.45c.33.22 1.19-1.63.81-1.75s-1 1.62-.8 1.75zM37.6-39.64c-.34.22-1.2-1.62-.82-1.75s1 1.63.81 1.75zM38.65-39.58c-.32.22-.62-2.18.07-2.12.39.04.12 2-.07 2.12zM53.99-45.45c-.31.06-.94-.75-.69-.94s.69.94.69.94zM8.39-14.39c.3.06.93-.75.68-.94s-.68.94-.68.94zM9.45-14.01c.31.06.81-.38.56-.57s-.56.57-.56.57zM4.64-14.2c-.32.06-1.02-.94-.77-1.13s.77 1.13.77 1.13zM3.64-14.14c-.32.06-.82-.31-.57-.5s.57.5.57.5zM7.56-14.51c.33.22.62-2.07.25-2.2-.38-.12-.44 2.07-.25 2.2zM5.62-14.45c-.19.12-1.23-1.81-.86-1.94s1.05 1.81.86 1.94zM6.64-14.58c-.33.22-1.02-2.56-.4-2.3.37.14.58 2.18.4 2.3zM26.6-25.08c.3.07.93-.75.68-.93s-.69.93-.69.93zM27.6-24.89c.3.06.8-.37.55-.56s-.56.56-.56.56zM22.78-25.08c-.31.07-.94-.75-.69-.93s.69.93.69.93zM21.78-25.01c-.31.06-.81-.32-.56-.5s.56.5.56.5zM25.47-25.33c.33.22 1.18-1.62.8-1.75s-1 1.63-.8 1.75zM23.72-25.51c-.33.22-1.2-1.63-.82-1.75s1 1.62.82 1.75zM24.78-25.45c-.33.22-.63-2.19.06-2.13.4.04.13 2-.06 2.13zM43.53-29.45c.31.06.94-.75.69-.94s-.7.94-.7.94zM39.72-29.45c-.32.06-.94-.75-.7-.94s.7.94.7.94zM42.4-29.7c.33.22 1.2-1.63.82-1.75s-1 1.62-.82 1.75zM40.65-29.89c-.32.22-1.18-1.62-.8-1.75s1 1.63.8 1.75zM41.72-29.83c-.33.22-.63-2.18.06-2.12.4.04.12 2-.06 2.12zM20.41-15.99c.32.06.94-.75.7-.94s-.7.94-.7.94zM18.98-15.99c-.32.06-.94-.75-.7-.94s.7.94.7.94zM19.79-15.8c-.33.22-.63-2.19.06-2.13.4.04.13 2-.06 2.13zM11.56-21.74c.3.06.93-.75.68-.94s-.68.94-.68.94zM10.12-21.74c-.31.06-.94-.75-.69-.94s.69.94.69.94zM10.93-21.55c-.33.22-.62-2.19.06-2.13.4.04.13 2-.06 2.13zM5.56-3.6c.3.06.94-.75.69-.94s-.7.94-.7.94zM4.12-3.6c-.31.06-.94-.75-.69-.94s.69.94.69.94zM4.93-3.41c-.33.22-.62-2.2.06-2.13.4.04.13 2-.06 2.13zM53.06-35.4c.3.06.93-.76.68-.94s-.68.93-.68.93zM51.62-35.4c-.31.06-.94-.76-.69-.94s.69.93.69.93zM52.43-35.22c-.33.22-.62-2.19.06-2.12.4.03.13 2-.06 2.12zM51.97-23.33c.31.07.94-.75.69-.93s-.7.93-.7.93zM48.16-23.33c-.32.07-.94-.75-.7-.93s.7.93.7.93zM50.84-23.58c.33.22 1.2-1.62.82-1.75s-1 1.63-.82 1.75zM49.1-23.76c-.34.22-1.2-1.63-.82-1.75s1 1.62.81 1.75zM50.16-23.7c-.33.22-.63-2.19.06-2.13.4.04.12 2-.06 2.13zM11.4-31.51c.32.06.94-.75.7-.94s-.7.94-.7.94zM7.6-31.51c-.32.06-.95-.75-.7-.94s.7.94.7.94zM10.28-31.76c.33.22 1.19-1.63.81-1.75s-1 1.62-.81 1.75zM8.53-31.95c-.33.22-1.19-1.63-.81-1.75.37-.13 1 1.62.8 1.75zM9.6-31.89c-.34.22-.63-2.19.05-2.12.4.03.13 2-.06 2.12zM31.18-18.74c.31.06.94-.75.69-.94-.25-.18-.69.94-.69.94zM29.74-18.74c-.3.06-.93-.75-.68-.94s.68.94.68.94zM30.56-18.55c-.33.22-.63-2.19.06-2.13.4.04.12 2-.06 2.13zM44.66-17.4c.32.06.94-.76.7-.94s-.7.93-.7.93zM43.23-17.4c-.32.06-.94-.76-.7-.94s.7.93.7.93zM44.04-17.22c-.33.22-.63-2.19.06-2.12.4.03.13 2-.06 2.12zM32.76-29.89c.31.06.94-.75.69-.94s-.69.94-.69.94zM31.32-29.89c-.3.06-.93-.75-.68-.94s.68.94.68.94zM32.14-29.7c-.33.22-.63-2.19.06-2.13.4.04.12 2-.06 2.13zM23.17-8.58c.31.07.94-.75.69-.93s-.69.93-.69.93zM19.36-8.58c-.31.07-.94-.75-.69-.93s.69.93.69.93zM22.05-8.83c.32.22 1.18-1.62.8-1.75s-1 1.63-.8 1.75zM20.3-9.01c-.33.22-1.2-1.63-.82-1.75s1 1.62.82 1.75zM21.36-8.95c-.33.22-.63-2.19.06-2.13.4.04.13 2-.06 2.13zM38.06-9.36c.3.06.93-.75.68-.94s-.68.94-.68.94zM36.62-9.36c-.31.06-.94-.75-.69-.94s.69.94.69.94zM37.43-9.18c-.33.22-.62-2.19.06-2.12.4.03.13 2-.06 2.12zM48.28-4.39c.31.06.94-.75.69-.94s-.7.94-.7.94zM44.47-4.39c-.32.06-.94-.75-.7-.94s.7.94.7.94zM47.15-4.64c.33.22 1.2-1.62.82-1.75s-1 1.63-.82 1.75zM45.4-4.83c-.32.22-1.18-1.62-.8-1.75s1 1.63.8 1.75zM46.47-4.76c-.33.22-.63-2.2.06-2.13.4.04.12 2-.06 2.13z" style="fill:#00aeef"/><path d="M1.8-53.95h52.33v52.33H1.8z" style="fill:none"/></svg>