<svg xmlns="http://www.w3.org/2000/svg" xml:space="preserve" width="42.92" height="42.92" viewBox="0 -42.92 42.92 42.92"><path d="M0-42.92h42.92V0H0z" style="fill:none"/><path d="M.75-34.17h3.92M5.93-39.29h3.92M8.6-39.31v-2.42M7.26-39.31v-1.25M11.49-34.17h3.92M16.62-39.29h3.92M19.29-39.31v-2.42M17.95-39.31v-1.25M.75-23.42h3.92M3.08-34.19v-2.5M1.67-34.19v-1.41M5.93-28.54h3.92M8.6-28.56v-2.42M7.26-28.56v-1.25M11.49-23.42h3.92M13.83-34.19v-2.5M12.41-34.19v-1.41M16.62-28.54h3.92M19.29-28.56v-2.42M17.95-28.56v-1.25M22.25-34.17h3.92M27.43-39.29h3.92M30.1-39.31v-2.42M28.77-39.31v-1.25M32.99-34.17h3.92M38.12-39.29h3.92M40.79-39.31v-2.42M39.45-39.31v-1.25M22.25-23.42h3.92M24.58-34.19v-2.5M23.17-34.19v-1.41M27.43-28.54h3.92M30.1-28.56v-2.42M28.77-28.56v-1.25M32.99-23.42h3.92M35.33-34.19v-2.5M33.91-34.19v-1.41M38.12-28.54h3.92M40.79-28.56v-2.42M39.45-28.56v-1.25M.75-12.68h3.92M3.08-23.45v-2.5M1.67-23.45v-1.42M5.93-17.8h3.92M8.6-17.83v-2.41M7.26-17.83v-1.25M11.49-12.68h3.92M13.83-23.45v-2.5M12.41-23.45v-1.42M16.62-17.8h3.92M19.29-17.83v-2.41M17.95-17.83v-1.25M.75-1.93h3.92M3.08-12.7v-2.5M1.67-12.7v-1.42M3.42-1.95v-2.42M2.08-1.95V-3.2M5.93-7.05h3.92M8.6-7.08v-2.41M7.26-7.08v-1.25M11.49-1.93h3.92M13.83-12.7v-2.5M12.41-12.7v-1.42M14.16-1.95v-2.42M12.83-1.95V-3.2M16.62-7.05h3.92M19.29-7.08v-2.41M17.95-7.08v-1.25M22.25-12.68h3.92M24.58-23.45v-2.5M23.17-23.45v-1.42M27.43-17.8h3.92M30.1-17.83v-2.41M28.77-17.83v-1.25M32.99-12.68h3.92M35.33-23.45v-2.5M33.91-23.45v-1.42M38.12-17.8h3.92M40.79-17.83v-2.41M39.45-17.83v-1.25M22.25-1.93h3.92M24.58-12.7v-2.5M23.17-12.7v-1.42M24.92-1.95v-2.42M23.58-1.95V-3.2M27.43-7.05h3.92M30.1-7.08v-2.41M28.77-7.08v-1.25M32.99-1.93h3.92M35.33-12.7v-2.5M33.91-12.7v-1.42M35.66-1.95v-2.42M34.33-1.95V-3.2M38.12-7.05h3.92M40.79-7.08v-2.41M39.45-7.08v-1.25" style="fill:none;stroke:#000;stroke-width:.33"/></svg>