<svg xmlns="http://www.w3.org/2000/svg" xml:space="preserve" width="42.92" height="42.92" viewBox="1.05 -43.92 42.92 42.92"><path d="M1.05-43.92h42.92V-1H1.05z" style="fill:none"/><path d="M1.8-35.17h3.92M6.98-40.29h3.92M9.65-40.31v-2.42M8.31-40.31v-1.25M12.54-35.17h3.92M17.67-40.29h3.92M20.34-40.31v-2.42M19-40.31v-1.25M1.8-24.42h3.92M4.13-35.19v-2.5M2.72-35.19v-1.41M6.98-29.54h3.92M9.65-29.56v-2.42M8.31-29.56v-1.25M12.54-24.42h3.92M14.88-35.19v-2.5M13.46-35.19v-1.41M17.67-29.54h3.92M20.34-29.56v-2.42M19-29.56v-1.25M23.3-35.17h3.92M28.48-40.29h3.92M31.15-40.31v-2.42M29.82-40.31v-1.25M34.04-35.17h3.92M39.17-40.29h3.92M41.84-40.31v-2.42M40.5-40.31v-1.25M23.3-24.42h3.92M25.63-35.19v-2.5M24.22-35.19v-1.41M28.48-29.54h3.92M31.15-29.56v-2.42M29.82-29.56v-1.25M34.04-24.42h3.92M36.38-35.19v-2.5M34.96-35.19v-1.41M39.17-29.54h3.92M41.84-29.56v-2.42M40.5-29.56v-1.25M1.8-13.68h3.92M4.13-24.45v-2.5M2.72-24.45v-1.42M6.98-18.8h3.92M9.65-18.83v-2.41M8.31-18.83v-1.25M12.54-13.68h3.92M14.88-24.45v-2.5M13.46-24.45v-1.42M17.67-18.8h3.92M20.34-18.83v-2.41M19-18.83v-1.25M1.8-2.93h3.92M4.13-13.7v-2.5M2.72-13.7v-1.42M4.47-2.95v-2.42M3.13-2.95V-4.2M6.98-8.05h3.92M9.65-8.08v-2.41M8.31-8.08v-1.25M12.54-2.93h3.92M14.88-13.7v-2.5M13.46-13.7v-1.42M15.21-2.95v-2.42M13.88-2.95V-4.2M17.67-8.05h3.92M20.34-8.08v-2.41M19-8.08v-1.25M23.3-13.68h3.92M25.63-24.45v-2.5M24.22-24.45v-1.42M28.48-18.8h3.92M31.15-18.83v-2.41M29.82-18.83v-1.25M34.04-13.68h3.92M36.38-24.45v-2.5M34.96-24.45v-1.42M39.17-18.8h3.92M41.84-18.83v-2.41M40.5-18.83v-1.25M23.3-2.93h3.92M25.63-13.7v-2.5M24.22-13.7v-1.42M25.97-2.95v-2.42M24.63-2.95V-4.2M28.48-8.05h3.92M31.15-8.08v-2.41M29.82-8.08v-1.25M34.04-2.93h3.92M36.38-13.7v-2.5M34.96-13.7v-1.42M36.71-2.95v-2.42M35.38-2.95V-4.2M39.17-8.05h3.92M41.84-8.08v-2.41M40.5-8.08v-1.25" style="fill:none;stroke:#00aeef;stroke-width:.4"/></svg>