<svg xmlns="http://www.w3.org/2000/svg" xml:space="preserve" width="33.5" height="33.5" viewBox="0 -33.5 33.5 33.5"><path d="M0-33.5h33.5V0H0z" style="fill:none"/><path d="M5.44-26.81c-.63-1.06.69-2.06 1.31-1.38S6.37-27 5.44-26.8s-1.57 2.43-1.69 4.06.38 1.75 1 3.38c0 0 .67.87.08 1.12-.58.25-1.16 0-1.16-.67 0-.66.41-.75 1.08-.45" style="fill:none;stroke:#000;stroke-width:.33"/><path d="M4-24.31c-.19-.5-.13-1.94-.94-1.94s-2-1.44-.87-1.81 1.44 1.19.87 1.81M3.75-22.75c.38-.25.56-.75 1.19-.63s2.56.38 2-.68-1.5-.88-2 .68M3.69-22.25c-.88-.94-.5-1.91-1.31-1.38-.57.38-1.21 1.25-1.59.13s1.69-1.44 1.88-.31M4.31-20.5c.38-.88.69-1.38 1.5-.75s1.44.13 1.19-.5-1.31-1-1.19.5M3.88-21.31c-.7-.5-.88-.63-1.25 0s-2 2.06-2.25.87.5-1.37 1.75-.25M2.74-2c.82.92-.28 2.16-1.02 1.6-.75-.55.14-1.24 1.02-1.6.88-.36 1.37-1.8 1.18-3.42-.2-1.61-.7-1.64-1.64-3.11 0 0-.82-.74-.3-1.1.53-.35 1.15-.22 1.28.44.13.65-.26.81-.97.65" style="fill:none;stroke:#000;stroke-width:.33"/><path d="M3.94-4.02c.28.46 1.18 2.07 1.98 1.91.8-.16 2.24 1.02 1.2 1.61-1.03.58-1.64-.89-1.2-1.6M3.92-5.42c-.32.32-.41.85-1.05.85-.64 0-2.58.12-1.83 1.06.76.93 1.64.57 1.83-1.06M3.88-5.92c1.04.75 1.6 2.07 2.28 1.39.48-.48.95-1.46 1.54-.43.58 1.03-1.38 1.74-1.78.67M2.93-7.52c-.2.93-.4 1.49-1.33 1.03-.91-.46-1.43.15-1.06.72.36.56 1.48.73 1.06-.72M3.52-6.8c.77.35.98.44 1.22-.24.25-.69 1.57-2.41 2.04-1.3.48 1.12-.22 1.45-1.67.59M14.63-31.44c-1-1.12.37-2 1.06-1.5s.37 1.13-1.06 1.5-1.13 2.38-.07 3.13 1.2 2.25 1.25 4c0 0 .1.64.27 1.23.17.58-.41 1-1.25.83-.83-.17-.83-1.33-.33-1.67.5-.33 1.04-.45 1.31-.4" style="fill:none;stroke:#000;stroke-width:.33"/><path d="M15.56-26.38c-.94-.18-1.62-.37-2.06.13s-1.94 1.06-.56 1.56 1.37-1.25.56-1.56M15.25-27.56c.25-1.13-.25-1.31.44-1.5s1.19-1 1.44 0-.5 1.81-1.07 0M14-28.75c-.81 0-2.35-.26-2.69.75-.12.38-.56.69.06 1.13s1.88-.5.7-1.7M13.69-30c-1-.13-1.86-.25-2.02-.5-.42-.63-2.02-1.4-.84-2.08s1.59 1 .17 1.41M10.36-23.2c.93-.89 2.83.93 1.36 1.63-1.47.7-.52-1-1.36-1.62-.84-.62-1.61-1.7-1.53-2.53 0 0-1.12-1.85.11-1.78s1.14 1.57-.11 1.78M26.06-29.81c-.75 1.12.38 2.12.94 1.69.74-.58-.25-1.44-.94-1.7-1.26-.45-.56-1.8-.69-2.74 0 0-.12-.5-.75-.44s-1.12.81-.5 1.44 1.13.75 1.2.19M1.31-32.75c1 .19 1.77.35 2.52 1.48s2.13 2.25 3.25 1.69 2.44-1.13 1.44-2.13-1.31.56-.94 1.69" style="fill:none;stroke:#000;stroke-width:.33"/><path d="M3.96-31.02c.06.69-1.54.66-2.15 1.2-.62.57-1.12.76-1.48-.01-.53-1.16.92-1.6 1.48.02M4.46-30.52c.75 0 .69-.19 1.12-.94s1.44-1.19.25-1.69-1.56.75-.43 1.57M18.94-30c-.06.31-.63 1.06-1.25.13s-.25-1.82.37-1.82.82 1.32.88 1.69.69.63 1.44.81 1.3.13 1.43 1 .57 1.44 1.38 1.56.93 1.13 1.31 1.88c0 0 .06-.06.44-.56s.69-.13 1.19-.06.5-1.13.5-1.13-1.7-1.69-1.2.94" style="fill:none;stroke:#000;stroke-width:.33"/><path d="M23.63-26.38c-.07-.8-.2-.93.12-1.25s1.13-1.37.38-1.75-1.38 1.07-.38 1.75M21.56-28.81c0-.81-1.19-2.13-.75-2.31s.38-1.63-.44-1.75-.68 1.56.25 1.93M22.5-26.81c-.88-.13-1.06-.38-1.44.12s-1.06.82-1.25.13.63-1.69 1.44-.38M24.31-25.13c-.62-.06-.81-.18-1.12.44s-.7 1.5-1.25.63 0-1.88 1.37-.81M23.17-8.53c.2.24 1.05.64 1.16-.48s-.63-1.72-1.18-1.43c-.55.3-.1 1.55.02 1.9.12.37.18 1.57-.4 2.09-.56.52-1.1.72-.8 1.56.31.83.19 1.53-.47 2.02-.66.5-.3 1.43-.28 2.27 0 0-.08-.02-.65-.29-.57-.26-.67.21-1.08.5-.41.3-.97-.76-.97-.76s.7-2.28 1.5.28" style="fill:none;stroke:#000;stroke-width:.33"/><path d="M21.23-2.44c-.33-.75-.28-.92-.7-1.05-.42-.13-1.64-.68-1.15-1.37.49-.68 1.71.3 1.15 1.37M21.9-5.56c-.37-.72-.49-1.86-.96-1.82-.48.04-1.1-1.25-.44-1.75.66-.49 1.34 1.06.7 1.83M22.02-3.36c.71-.52.76-.83 1.33-.56.56.26 1.31.22 1.16-.48-.16-.7-1.35-1.2-1.45.34M21.21-1.02c.52-.35.63-.55 1.2-.14.57.4 1.31 1 1.4-.04.08-1.03-.88-1.65-1.6-.07M29.13-32.94c-.75.5.06 1.88 1.37 2.06s1.44.32 1.56 1.07-1.06 2.75-.31 3.37 1.56-.12 1.31-.94-1.12-.87-1.5-.87" style="fill:none;stroke:#000;stroke-width:.33"/><path d="M29.25-31.44c-.38 1-1 2.19-1.81 1.38s.37-1.63.75-1.25.44 1 .44 1M30.5-30.88c.5-.25.63-.62.81-1.37s.63-1.25 1.25-.63.13 1.26-.44 1.32-.87-.32-.87-.32M30.06-30.94c.13.44.31.94.31 1.38s-.18 1.25-.87 1.12-.44-2.06.81-1.62M16.83-14.4c-.12 1.14-.42 1.69.65 2.48 1.07.78 1.12.95.87 1.67-.24.72-1.72 1.52-1.35 2.43.36.9 1.43.63 1.6-.2.16-.84-.66-1.23-1.04-1.17" style="fill:none;stroke:#000;stroke-width:.33"/><path d="M16.65-13.01c-.8.7-1.92 1.45-2.25.35s1.1-1.25 1.25-.75c.15.51-.09 1.1-.09 1.1M17.48-11.93c.56.02.85-.25 1.37-.82.52-.57 1.14-.8 1.4.04s-.49 1.16-1.01.95a1.03 1.03 0 0 1-.63-.69M17.13-12.19c-.1.45-.32 1.52-.53 1.9-.2.39-.75 1.01-1.3.58-.55-.44.6-2.02 1.49-1.05M10.42-12.55c-.28 1.1-.66 1.61.28 2.55.94.93.97 1.1.62 1.78-.35.68-2.48.67-2.25 1.62.23.95 1.02.65 1.61.04.19-.2.16-.8-.14-1.03" style="fill:none;stroke:#000;stroke-width:.33"/><path d="M10.04-11.2c-.9.57-2.11 1.15-2.28.01-.16-1.13 1.28-1.07 1.35-.55.08.53-.25 1.06-.25 1.06M10.7-10c.55.1 1.26.61 1.86.13.6-.5 1.25-.63 1.38.24.12.88-.65 1.08-1.14.8a1.03 1.03 0 0 1-.51-.78M10.39-10.32c-.16.43-.31.94-.57 1.3-.26.34-.9.88-1.38.37-.47-.51.89-1.91 1.63-.81M19.13-23.44c-.63-.12-1.2-.31-.88-1.25s.5-.69.94.25-.13.81.12 1.56.5 1.63.38 2.25-.19 1.7.12 2.63.38.44.25 1.13 1.19 1.68-.18 1.87-.88-1.75.18-1.88" style="fill:none;stroke:#000;stroke-width:.33"/><path d="M19.56-19.38c.63 0 1.13-.3 1.56-.12s2.25-.56 1.57-1.38-2.07.5-1.57 1.38M19.63-20.19c-.32-.31-.57-.69-1-.56s-1.38-.13-1.25-1 .93-.63 1.37-.13.19.82-.13 1.13M19.69-18.63c-.75 0-1.31-.06-1.44.25s.31 1.82-.75 1.57-.19-1.88.75-1.57M31.19-23.56c-.19.5.94 1.31 1.19 1.25.66-.17.62-.81.5-1.19-.26-.77-.88-.25-1.7-.06s-1.18-2.19-1.43-2.82c0 0-1.38-1.18-1.63-.12s.13 1.69.82 1.5.8-1.06.8-1.38M25.75-21.31c-1.38-.13-1.5-1.75-.25-1.81s0 1.37.25 1.8.56.95 1.75 1.13 1.75 1.32 2.5 2.13c0 0 .75 1.06 1.94.37" style="fill:none;stroke:#000;stroke-width:.33"/><path d="M29.5-18.63c-.06.7-.69 1-.19 1.57s1.38 2.06.31 2.19-1.3-2.07-.3-2.2M27-20.25c.38.63.31 1.25-.19 1.69s-1.94 1.69-.19 1.75 1.57-1.69.2-1.75M26.56-20.5c.81-.13 2 .13 2-.63s.13-1.87.94-1.8.94 2.24-.94 1.8M26.19-20.75c-.94-.06-.88 0-1.06.63s0 2-1 1.37.06-1.69 1-1.38M29.5-18.81c.88-.19 1.13-.38 1.69-.31s1.25-.63.5-1.2-1.56.2-1 1.26M10.26-3.04c-.48 1.3-2.08 1-1.82-.23s1.33.35 1.82.23c.48-.13 2.62 1.4 3.1.3.5-1.1 1.73-1.35 2.7-1.87 0 0 1.23-.45.87-1.77" style="fill:none;stroke:#000;stroke-width:.33"/><path d="m15.4-4.27.93.35c.68-.33 2.4-.24 1.84.67-.67 1.08-1.98.33-1.84-.67M12.75-2.33c.09-.82.7-1.49-.02-1.68-.72-.2-1.78-.6-1.5-1.38.27-.77 2.41-.32 1.5 1.38M11.38-2.75c-.5.06-.44.82-.57.88 0 0 2.3.5 1.44 1.3s-1.43-.18-.88-1M15.21-4.32c.04-.9-.07-1.18.13-1.71.21-.53-.28-1.37-1.01-.79-.74.58-.23 1.56.95 1.29M30.32-1.92c-.43 1.31 1.02 2.06 1.57.94.55-1.13-1.27-.54-1.57-.94-.3-.4-.64-.89-.35-2.05.3-1.17-.52-2.13-.97-3.14 0 0-.5-2.56-.92-2.8 0 0-.75-1.26-1.42-1.26s-1.08.25-.83.92.92 1.17 1.25 1c.33-.17 1-.67 1-.67" style="fill:none;stroke:#000;stroke-width:.33"/><path d="M29.32-6.43c-.66-.2-1.2.24-1.51-.44S26.45-8.94 25.9-8c-.52.93 1.39 2.01 1.9 1.14M29.83-3.49c-.43-.59-1.02-.78-1.62-.49-.6.29-2.32 1.12-1.69-.51.63-1.64 2.17-.78 1.69.51M29.9-2.99c.42-.7.66-1.89 1.35-1.6.69.3 1.77.63 2.04-.14.26-.78-1.7-1.75-2.04.15M29.97-2.55c-.3.9-.34.8-.99.74-.65-.08-1.84-.79-1.66.38.19 1.16 1.58.6 1.66-.38M29.49-6.35c.52-.73.79-.89.95-1.43.16-.54 1.06-.9 1.29 0 .22.91-.79 1.37-1.54.43M21.44-10.44c.31-.81 2.56-2.19 2.19-3.44s-2.25-3.3-.82-3.5 1.2 1.94.25 2.2" style="fill:none;stroke:#000;stroke-width:.33"/><path d="M23.63-13.06c.62-.25 2.37-2 3-.56s-1.57 1.5-1.7.93-.12-1.12-.12-1.12M22.81-12.06c-.19-.75-.62-3.06-1.37-2.69s-.38 1.38.3 1.63.7-.13.7-.13M12.06-11.5c.88-.88 1.13-1.69 1-2.69s.44-3 1.44-3.94 2.13-1.5.63-2.3-1.57.43-1.2.8.63.82 1.26.82" style="fill:none;stroke:#000;stroke-width:.33"/><path d="M13.44-16.56c-.19-.44-.19-.32-.31-.94s-.13-1.06-.76-.94c-.7.14-1.3.69-.06 1.31.57.29.82-.37.82-.37M13.19-15.75c.69-.31 1.44-1.38 2.19-.88s.56 1.07-.2 1.32-1.12-.57-.93-1.2M10.13-18.94c-.38.25-.63.06-1.2-.37S9.07-20.7 10-20.5s.44 1.69-.69 2.81.13 2.63.13 3.44c0 0-.38 1.63-1.57.56s.2-1.37.63-1.12l.94.56" style="fill:none;stroke:#000;stroke-width:.33"/><path d="M8.81-16.31c-.87-.07-1.31.12-1.56-.44s1.45-2.7-.19-2.81c-.94-.06-.37 1.87.38 1.94M12.63-12.44c-.13-.94-.34-.9-.5-1.69-.2-.87-.76-1.43-1.2-1.06-.86.74.2 2.5 1.2 1.06M.69-18.5c1.81.38 1.87 1.94 1.94 3.13s.06 1.43-.2 2 .07.68.82 1 1.19.24 1.25.74 1.44 1.32 1.75.82-.31-2.25-1.75-.82" style="fill:none;stroke:#000;stroke-width:.33"/><path d="M2.69-15.13c.69.32 1 .32 1.25.76s1.25.3 1.25-.5-1.63-1.07-1.25.5M2.5-16.38c-.5-.06-1.13-.25-1.31.38s.5 1.31-.19 1.69-1.69-.88.19-1.69M2.31-12.94c-.25.31-1.87.81-1.19 1.5s1.63.44 1.44-.25-.44-.87-.62-1M29.94-9.06c0-1-.25-2.81.62-3.44s1.32-1.06 1.63-1.56 1-1.88.5-2.44-1.56 1.25-.5 2.44" style="fill:none;stroke:#000;stroke-width:.33"/><path d="M30.06-11.75c-.19-.69-1.12-2.38-1.69-1.56s.2 2 1.25.75M29.88-10.56c.43-.19.75-1.13 1.75-.94s1.62-.06 1.68.63-.25.8-.93.74-1.2-.8-.76-1.37M13.37-2.74c.76-.13 1-.2 1.57.62s-.31.8-.13 1.25 1.5.93 1.63.43-.63-1.81-1.38-1.31" style="fill:none;stroke:#000;stroke-width:.33"/></svg>