<svg xmlns="http://www.w3.org/2000/svg" xml:space="preserve" width="7.92" height="7.92" viewBox="1 -8.92 7.92 7.92"><path d="M1-8.92h7.92V-1H1z" style="fill:none"/><circle cx="5.16" cy="-7.41" r=".82"/><circle cx="6.69" cy="-4.91" r=".82"/><circle cx="3.58" cy="-4.91" r=".82"/><circle cx="5.16" cy="-2.41" r=".82"/><path d="M1-7.22v1.64h.02a.82.82 0 1 0 0-1.64H1zM8.92-5.58v-1.64a.82.82 0 0 0 0 1.64zM1-4.25v1.64h.02a.82.82 0 1 0 0-1.64H1zM8.56-8.92H6.92v.02a.82.82 0 1 0 1.64 0v-.02zM8.92-2.6v-1.65a.82.82 0 0 0 0 1.64zM1.78-1h1.64a.82.82 0 0 0-1.64 0zM6.92-1h1.64a.82.82 0 0 0-1.64 0zM1.78-8.92v.02a.82.82 0 1 0 1.64 0v-.02H1.78z"/><path d="M1-8.92h7.92V-1H1z" style="fill:none"/></svg>