<svg xmlns="http://www.w3.org/2000/svg" xml:space="preserve" width="7.92" height="7.92" viewBox="0 -7.92 7.92 7.92"><path d="M0-7.92h7.92V0H0z" style="fill:none"/><circle cx="4.16" cy="-6.41" r=".82" style="fill:#ed1b2e"/><circle cx="5.69" cy="-3.91" r=".82" style="fill:#ed1b2e"/><circle cx="2.58" cy="-3.91" r=".82" style="fill:#ed1b2e"/><circle cx="4.16" cy="-1.41" r=".82" style="fill:#ed1b2e"/><path d="M0-6.22v1.64h.02a.82.82 0 1 0 0-1.64H0zM7.92-4.58v-1.64a.82.82 0 0 0 0 1.64zM0-3.25v1.64h.02a.82.82 0 1 0 0-1.64H0zM7.56-7.92H5.92v.02a.82.82 0 1 0 1.64 0v-.02zM7.92-1.6v-1.65a.82.82 0 0 0 0 1.64zM.79 0h1.63A.82.82 0 0 0 .8 0zM5.92 0h1.64a.82.82 0 0 0-1.64 0zM.79-7.92v.02a.82.82 0 1 0 1.63 0v-.02H.8z" style="fill:#ed1b2e"/><path d="M0-7.92h7.92V0H0z" style="fill:none"/></svg>