<svg xmlns="http://www.w3.org/2000/svg" xml:space="preserve" width="62.36" height="62.36" viewBox="0.49 -62.92 62.36 62.36"><path d="M.49-62.92h62.36V-.56H.49z" style="fill:none"/><path d="M6.26-56.77h.04M24.36-62.89h.04M45.71-62.8l-.02-.12M10.62-53.86l.14-.37M7.73-52.28l.23.67M4.18-54.27l-.66.24M2.96-50.85l.41.2M18.03-61.26l.04.5M2.81-56.96l.32-.61M6.94-54.96H6.9M5.59-61.03l.62-.16M11.89-57.85h.04M4.08-59.22h-.04M10.09-59.42l.58.34M11.77-60.9h.04M12.4-56.15h.04M4.49-52.18h-.03M10.85-51.66h.43M14.23-54.81l.69.11M30.62-54.2l-.33.46M36.97-59.42l.57.34M17.4-58.33h.04M51.88-61.1h.04M60.24-56.77h.04M16.26-60.53h.04M14.48-52.83h-.03M19.32-51.04h.04M21.08-54.36l.16.8M16.31-56.47l.14-.37M36.77-54.21l.14-.36M24.72-58.14h-.04M31.03-62.31h.04M28.12-59.33h.04M26.54-54.99l-.25-.5M26.27-52.13l.59-.45M29.48-57.58l.31-.61M32.94-54.8h.04M40.95-58.2h-.04M31.23-59.38h.04M39.6-56.82h.03M20.38-61.35l-.11-.29M38.68-60.9h-.04M15.8-51.54h-.04M31.33-52.18h.04M26.97-50.9h-.04M17.02-54.8h.04M17.78-53.13l.01.64M21.6-57.58h.04M34.83-56.29l.46.17M35.81-60.71h.04M36.38-52.51h.04M42.95-60.83h.04M62.85-55.87l-.51-.28M42.89-60.93h-.04M40.67-53.44h-.04M46.87-50.98h.04M48.07-54.56l.16.8M44.41-59.43l.07-.18M48.94-58.11l.14-.36M50.97-57.73h.04M55.71-61.87h.04M51.98-54.71l.69.1M41.26-55.61l-.3-.13M56.58-56.96l.41-.35M60.66-54.96h.04M61.08-52.15l.23.67M59.28-60.8l.69-.39M57.81-59.22h.03M42.1-50.98h.04M50.09-52.69h.03M52.59-52.14h-.04M43.91-54.8h.04M44.67-53.13l.58.62M57.26-50.72l.41.21M6.18-3.49l-.19-.21M1.54-44.57h.03M13.04-36.58l.7.41M2.61-19.75l-.22.24M11.93-4.09h-.04M11.81-7.14h-.04M1.35-17.82l.71.4M10.33-23.74l-.7-.41M11.91-20.15l-.49.04M3.43-14.39l.45-.25M9.95-11.44l-.46.24M6.45-21.46h-.03M11.73-22.47h-.04M19.59-22.02h-.04M12.85-16.96h.04M4.04-8.32H4M3.35-3.7l-.32.61M9.69-9.51h-.04M3.77-12.09l-.27-.48M6.21-7.42l-.62.15M14.36-4.7h-.04M4.04-5.45h.04M8.54-47.24l-.38 1M11.73-11.7h-.04M10.67-5.32l-.58-.34M14.19-6.3h.03M6.05-18.11h-.03M4.83-22.4h-.04M12.44-2.38h-.04M3.31-9.79h.04M2.14-22.57h.04M3.58-18.4h-.04M6.3-13.64h-.04M8.27-17.53h-.04M9.7-13.53h.04M8.98-6.95h-.04M7.2-10.62h-.04M10.46-18.45h.04M3.52-27.21l.66-.24M3.07-46.64l.43.21M10.87-47.85l.49-.04M52.06-59.34l.49-.04M39.88-38.11l-.49.05M4.36-42.41l-.45.25M9.61-38.15l.45-.25M7.57-49.66h-.04M12.31-44.88h.04M10.21-27.17l-.14.36M4.04-35.58H4M3.27-31.51l-1.01.76M6.27-28.3h.03M3.05-29.04h.04M3.77-39.34l-.27-.49M5.59-34.53l.62-.16M11.93-31.35h-.04M4.4-32.87h-.04M12.82-38.39h.04M11.7-36.88h.04M10.67-32.58l-.58-.34M12.51-34.57h.04M6.05-45.37h-.03M5.16-48.6h-.04M12.78-29.5h.03M3.31-37.05h.04M1.4-49.59h.04M12.44-50.01h-.04M5.01-24.29l-.41-.96M8.62-29.59h.04M7.28-43.06h-.04M19.5-48.5h.04M10.21-40.31h.04M8.94-34.21h.04M7.64-37.55H7.6M9.92-45.26h.04M2.47-24.29l.41.2M24.36-19.73h.04M37.48-16.36l.71.41M23.71-3.6h-.04M16.01-17.82h-.04M14.3-23.19h.04M23.77-11.95l-.58-.33M23.2-16.8l.47.23M41.63-33.44l-.58-.33M16.07-17.76l.57.34M37.54-5.32l-.57-.34M29.01-22.57h.04M17.28-1.25h-.04M22.61-23.14l-.19-.1M20.25-18.59l-.18-.37M51.92-7.34h-.04M60.13-2.89h.04M29.27-19.51l-.71-.41M32.9-19.97l-.62.53M28.02-17.55l.49-.05M15.69-25.21l-.49.04M38.78-20.15l-.49.04M31.23-15.15l-.45.25M36.67-11.38l-.05-.51M33.66-21.57h-.04M37.66-21.46h-.04M37.89-23.09h.04M40.26-16.75h-.04M16.3-6.77h-.04M21.36-6.14l-.14.36M16.45-3.07l-.14.36M30.91-8.32h-.04M23.85-5.39h-.04M28.16-5.57h-.04M29.79-3.77l-.31.62M23.21-14.87h-.04M26.92-15.49h-.04M30.64-12.09l-.27-.48M33.43-7.25l-.63.15M39.3-4.15h-.03M31.27-5.61h-.04M27.11-7.33l.92.13M19.84-13.6h-.04M19.5-11.02l-1.2 1.19M44.55-56.73l1.2-1.18M28.46-29.59l1.2-1.19M38.74-11.46h.03M41.04-1.81H41M14.3-23.19l.35.76M38.61-9.62h-.03M44.38-3.43h-.04M20.95-7.69l-.11-.28M22.74-29.41l-.38-.23M28.16-11.16h-.28M38.64-7.14h.04M32.89-18.11h.04M26.16-18.38l-.36.42M18.11-16.48h-.04M35.38-15.8h.04M30.22-9.79h-.04M14.29-18.77h-.03M29.01-22.57l.31.48M14.17-12.07h-.04M14.64-9.28h-.04M18.06-7.48h-.04M13.47-15.15h-.03M17.44-4.56h-.04M30.45-18.4h-.04M26.05-9.97h-.04M1.16-62.92l.09.15M21.64-3.52h-.04M20-17.3h-.04M24.17-9.96h-.04M27.47-13.71l.14.72M16.61-12.39l-.81-.05M35.14-17.53h-.04M36.61-13.53h-.04M35.62-2.08l-.79-.45M35.85-6.95h-.04M16.26-10.78h.04M46.43-22.34h-.04M34.48-10.68h-.03M37.37-18.45h-.04M23.15-22.43l-.73-.81M37.05-42.05l-.7-.41M34.21-48.72h-.04M30.77-32.77h-.04M17.43-37.94l.87-.27M14.94-48.66l.35-.21M30.39-27.32l.4-.54M17.88-43.27h.03M19.76-46.22l.25.17M24.36-46.99h.04M24.86-49.39h-.04M23.39-50.58h-.04M28.91-47.99l.36 1.22M28.29-45.02l.29-.04M38.78-47.41l-.49.04M30.78-42.16l.45-.25M36.9-38.88l-.46.25M34.87-48.2l-.7-.52M37.62-48.61h.04M39.72-44.22h.04M16.3-34.03h-.04M13.46-26.4h-.04M20.49-24.24h-.04M21.34-27.25l-.16-.8M19.46-41.98l.49-.03M37.63-27.72l-.14.36M24.38-31.1h-.04M30.8-36.02h-.04M7.49-41.18h-.04M23.1-32.51h-.03M26.66-28.36l-.39-.09M15.09-28.11l-.7-.1M26.27-25.84l.59-.46M33.05-28.47h.04M34.42-25.52l-.23-.68M23.17-42.13h.04M27.91-42.75h.04M30.37-39.83l.27.49M32.65-35.09l-.62.16M38.77-31.35h.03M31.19-32.83l-.46.06M19.73-40.22h-.04M38.99-39.91l-.03.11M15.97-45.08h.04M38.58-36.88h.03M21.22-35.22l-.65-.04M23-38.87l.24.42M16.07-45.02l.57.34M37.54-32.58l-.57-.34M28.08-38.1h-.28M38.57-34.29h-.04M32.89-45.37h.04M25.73-45.26l.41-.55M32.94-30.43h.04M32.1-49.44h.04M39.27-29.64h.04M30.14-37.52h-.04M44.94-20.46h-.04M14.13-46.64h.04M29.01-49.83h.04M14.57-39.28h-.04M14.05-41.64h.04M16.09-31.89h-.04M31.37-25.68h-.04M26.97-24.4h-.04M30.41-45.66h.04M17.06-28.3h-.04M18.53-25.55l.58.62M21.6-31.21h.04M19.7-44.27h.04M25.91-36.46l-.82-.69M22.41-36.8h.04M26.89-40.71l.72.46M16.33-40.66l-.45-.41M35.26-44.63h.04M36.57-40.79h.04M34.83-29.79l.33.55M35.48-34.21h.04M34.48-37.55h.03M37.12-46.26h-.04M36.42-26.01h-.04M29.28-24.5l.41.21M47.49-18.34l-.52-.62M60.51-21.57h.04M59.82-18.11h-.04M62.27-3.2l.58.32M47.27-18.56l-.53-.62M51.29-19.73h-.03M51.61-22.64h-.04M55.45-19.92l.71.41M54.77-17.35l.49-.04M57.67-14.9l.45-.25M40.04-13.28l-.45.25M62.73-23.95h.03M43.19-6.77h-.04M44.48-5.84l-.15.36M48.98-4.61l-.14.37M51.01-4.37h-.04M57.8-8.32h-.04M56.89-3.81l-.31.61M51.65-15.55h-.04M54.48-14.96h-.04M59.97-7.42l-.62.15M57.84-5.45h-.03M54.93-6.42l-.44-.62M46.62-12.96h-.04M44.39-9.81l1.18-.42M61.78-46.34l1.07-.39M42.9-17.82h-.04M42.74-21.51l-.46.74M41.47-22.87h-.04M48.59-8.01l-.1-.29M49.98-11.44l.57.33M43.53-17.42l-.57-.34M54.77-11.16h.28M53.15-18.6l-.41.55M45-16.48h-.04M48.84-14.6h.04M58.59-22.4h-.04M62.79-15.44h.04M57.11-9.79h-.04M41.19-18.77h-.04M55.9-22.57h.04M40.79-11.7h-.04M43.31-15.24h-.04M57.34-18.4h-.04M43.95-1.25h-.04M7.91-62.8l-.04-.12M15.6-62.23l-.55-.69M38.29-62.92l.01.29M27.29-62.65l-.39-.27M53.11-62.92l.16.27M58.14-62.92l-.2.17M47.84-62.92l.09.48M60.02-13.64h.04M47-16.97h-.04M52.65-9.76l.77.05M50.16-9.39h-.04M54.5-12.99l-.72-.46M43.23-11.67l-.22.23M62.03-17.53h-.04M18.96-31.48l-.78-.44M62.74-6.95h-.04M61.4-10.29h-.03M49.5-23.14l-.19-.1M53.16-25.62l.59-.46M57.53-39.34l-.26-.49M41.03-38.88h-.04M43.31-42.5h-.04M45.25-26.01l-.58-.62M60.68-43.47h-.04M62.16-29.79l.69.39M46.82-46.22l.55.17M51.26-46.99h.03M55.74-46.43l-.43-.21M57.67-42.16l.45-.25M47.38-42.76l.46-.24M62.76-38.18l.09-.05M61.29-49.66h.04M43.15-34.03h.04M42.89-25.79h.04M46.87-24.48h.04M47.7-28.57l.53 1.32M47.26-34.19l-.14.36M51.01-31.93h-.04M57.76-35.58h.04M49.03-32.47H49M53.51-28.32l-.7-.11M42.41-27.55l-.87-1.06M56.72-30.9l.31-.61M60.11-29.59h.04M56.85-29.04h-.04M61.31-25.52l-.23-.68M50.33-42.61h.03M54.62-42.55h.04M58.12-32.87h.04M54.21-34.11l.92.13M46.58-40.22h.04M44.39-37.07l1.18-.42M42.28-48.03l.28-.46M48.51-35.64l-.11-.28M49.32-39.51l.58.34M42.87-44.94l.66.26M51.2-29.45l.62-.94M54.77-38.42h.28M59.78-45.37h.04M52.29-45.12l.55-.41M45.62-43.99h-.04M58.89-48.6h.03M57.07-37.05h.04M41.15-46.03h.04M43.27-42.5l.6-.53M44.33-31.82h-.04M58.26-25.68h-.04M54.76-24.3h-.04M43.91-28.3h.04M48.03-30.57h-.04M52.79-36.73l-.77-.05M62.37-42.34l.48.03M50.23-37.22h.04M53.78-40.71l.72.46M61.37-37.55h.03M.77-55.71l-.28-.16M.56-60.71H.6M.7-2.76l-.21-.12M.49-46.72l.12-.04M.49-29.4l.1.06M.86-38.43l-.37.2M.79-42.29l-.3-.02M56.72-24.35l.41.21M25.82-33.2l-.53-.05M57.95-12.54l-.41-.27M24.4-62.87h-.04M3.65-62.92l-.13.2M26.89-62.92l.4.28M24.4-.58h-.04M45.67-.69l.03.13M1.07-.74l.12.18M7.78-.85l.11.29M7.89-.56l.02.07M15.09-.56l-.59-.74M38.29-.93v.37M26.97-.56l-.65-.46M52.91-.93l.23.37M58.41-.86l-.33.3M47.77-.93l.08.37M24.4-.56h-.04M3.85-.9l-.23.34M14.5-1.29l.58.73M26.32-1.01l.64.45M26.96-.56h.01M15.04-62.92h.01M15.08-.56h.01M26.89-62.92h.01" style="fill:none;stroke:#000;stroke-width:.98;stroke-linecap:round"/><path d="M55.03-62.9H55M57.4-61.13h-.04M9.69-61.21h-.04M5.84-62.89H5.8M23.04-58.53l.22-.54M33.45-60.26l-.75-.5M34.83-53.91h-.03M34.83-53.91h-.03M25.38-60.89l-.56.07M14.22-60.62h-.03M22.34-62.24h-.04M29.21-62.17h-.04M40.04-62.89H40M30.84-50.68l.42.21M57.63-53.92l-.46.11M10.25-16.14l-.71-.41M39.6-42.48l.21-.2M39.6-42.48l.21-.2M23.07-43.97h-.04M18.12-30.18h-.04M27.91-33.74l-.59-.37M14.02-43.27h-.04M21.05-33.66h-.03M35.65-23.43v-.59M38.84-26.08h-.04M44.54-30h-.02M55.94-49.83h-.04M60.94-40.59l-.04-.11M53.75-26.08l-.59.46M5.84-62.87H5.8M40.04-62.87H40M55.03-.59H55M5.84-.58H5.8M40.04-.58H40M5.84-.56H5.8M40.04-.56H40" style="fill:none;stroke:#000;stroke-width:.8;stroke-linecap:round"/><path d="M10.6-54.03h-.04M1.68-53.31l.03-.41M2.53-60.84l.5.18M5.58-58.72l.01.29M6.23-52.87l.06-.89M6.29-53.72v-.04M7.22-60.19l.46.56M10.08-59.28h.04M12.93-58.88l.13-.48M13.03-52.92l-.36.51M4.07-56.5l.32.38M1.19-58.77l.51.03M10.37-55.85v-.92M9.22-58.23l.19.56M7.2-58.09l.57-.1M12.86-62.13l.27.28M12.5-54.61h-.03M1.64-51.86H1.6M9.08-50.81h-.04M8.14-61.37h.04M8.76-54.47h.03M2.61-55.57h-.04M5.73-50.72l.2.68M29.8-60.52l.5.17M26.9-59.94l.34-1.29M14.06-56.8l.49-.39M16.93-53.18l.65.05M17.51-51.2l-.11.69M20.36-56.32l.52.03M18.93-56.7l.03-.42M28.07-53.83l-.03.41M19.36-60.14l.05.57M24.26-55.39l.62.44M23.28-53.61l-.15.72M28.1-55.53l.08-.7M32.91-62.55l-.26-.37M33.25-56.81l.04.45M35.16-59.14h.04M32-53.27h.9M33.57-58.7l.46.56M36.95-59.28h.04M39.2-58.95l.13-.48M25.79-59.12l.46.21M38.3-52.67l.36-.51M22.57-55.14l.38.12M15.57-58.61l.09-.4M18.75-55.67l.37.4M21.41-51.46l.16.6M23.07-56.45l.48-.15M23.03-61l.32.38M31.41-56.59l.32.37M31.2-56.95l.32.38M27.24-61.23l.46.03M27.06-57.53l.51.03M37.72-56.29l.19-.59M36.22-57.75l.56-.1M36.75-54.38h-.04M37.91-51.18l.05.63M33.67-50.38l-.34-.6M38.91-54.57h.04M39.98-52.07l.28.14M35.91-50.81h.04M34.41-51.89h.04M37.29-61.81h.04M24.36-52.09h.04M20.46-52.64h-.04M18.68-54.02h.04M20.05-58.41h.04M14.2-58.33h-.03M29.81-55.57h-.04M25.23-53.65h.04M14.19-60.62h.03M51.48-56.36l.82.04M60.05-53.72v-.04M54.02-57.47l-.41.28M42.86-56.8l.16.44M42.91-52.6l.65.05M44.29-50.51l.11-.69M46.73-56.35l.52.03M55.54-53.79l-.96-.55M46.26-60.14l.04.57M34.3-62.17l.82.03M50.17-55.08l-.15.72M55.07-56.23l-.08.7M55.95-60.08l.29.07M59.34-58.72l.02.29M59.5-53.01l.42-.36M60.98-60.19l.46.56M44.45-61.24l.01-.61M42.9-58.2l.09-.39M48.85-50.98l.16.59M50.16-60.63l.08.48M58.3-56.59l.32.37M46.42-61.57l-.21.25M54.82-59.06l1.09.57M53.61-57.19l.54-.58M48.14-60.12l.41-.28M56.17-52.51h-.04M62.62-50.81h-.04M62.32-53.79h-.04M47.31-52.64h.04M42.38-54.01h-.03M41.83-59.33h.04M47.24-58.22h.04M56.66-55.57h.04M52.92-58.24h.04M60.52-58.87h.04M52.84-53.33h.03M53.58-55.64h.04M41.32-60.83h.04M40.41-61.37l.91.54M14.27-51.21l.05.71M40.17-50.04l-.05-.72M59.69-50.04l-.2-.68M7-19.14h.9M11.81-15.25l.21-.2M27.13-9.12l-.21.21M13.06-5.6l-.13.48M13.56-20.56l-.05.33M7.51-14.77l.38.55M1.88-5.36l-.81.24M12.91-13.15l.57-.07M7.83-25.25v.62M1.38-21.19h.57M4.31-20.55l-.49-.36M6.14-19.78l-.39.28M8.45-23.4l-.86.37M11.04-16.9H11M25.16-2.84l-.21.2M3.03-6.9l-.5-.17M5.69-5.16l-.01-.29M6.17-12.57l-.48.28M11.89-8.84l-.19-.68M7.98-8.95l.53.44M7.68-5.87l-.46-.55M10.12-5.52h-.04M6.27-9.33l-.1-.42M1.59-9.43l-.09.64M5.16-2.18l-.32-.37M2.74-15.91l.62-.51M6.24-15.04l-.07-.4M5.6-16.96l-.39.41M9.03-19.74l-.1.54M9.89-21.06l-.05-.71M31.37-23.02l.04.72M31.41-22.08l.83-.63M13.35-21.93l.06-.33M11.42-20.11l.46.12M1.48-12.81l-.39-.55M7.73-12.1l.36-.33M4.87-10.85l-.41-.1M1.07-5.12l.46 1.14M10.37-3.01v.93M9.41-3.9l-.19-.57M7.77-4.42l-.57.09M13.13-8.09l-.27-.27M13-1.26h-.03M12.87-13.19l-.29-.51M1.74-14.64h-.03M4.86-13.73h-.04M7.69-20.62h-.04M2.33-11.16l-.14-.55M6.97-16.57h-.04M10.45-8.04h-.04M8.97-2.05h-.03M11.46-13.77h-.04M12.29-18.59h-.04M2.5-1.7h-.04M9.81-11.09l-.59.07M1.48-48.01h.58M3.15-48.93l.49.37M5.16-46.52l.4-.28M11.82-43.2l-.21.21M1.19-27.33l-.02.41M2.93-34.46l.49.18M5.83-31.37l-.04-.45M7.32-33.16h.03M6.69-26.77h-.04M6.05-39.28l.12-.55M10.43-35.6l-.19-.68M7.98-36.21l.53.44M7.21-33.36l-.47-.56M10.08-32.78h.04M13.06-32.86l-.13.48M6.17-37.01l.1.42M1.92-35.84l.09-.64M4.86-29.71l-.32-.38M2.62-43.44l.5-.24M6.93-41.32l.08.39M4.82-44.33l.39.52M9.99-42.43l-.1.54M9.27-48.56l-.05-.71M13.12-48.26l-.06.33M10.72-43.68l.05-.33M6.66-30l.06-.33M10.87-47.85l.46.12M7.73-39.36l.36-.33M4.87-38.11l-.41-.1M1.7-32.23l-.51-.04M10.84-28.95v-.92M9.41-31.16l-.19-.57M8.22-27.45l.18.57M7.69-31.92l-.56.1M10.04-26.98h-.03M17.2-21.11l-.05-.62M6.79-23.88l-.33-.6M12.1-27.56h-.03M6.17-25.96h.03M15.37-26.88h-.04M16.01-23.58h-.04M12.25-39.32l-.29-.51M10.61-49.8h.04M2.48-41.17h.04M3.77-45.05h-.03M2.26-25.68h.03M8.86-25.95h-.04M4.82-40.99h.04M7.01-48.11h.04M2.21-39.52h-.03M8.18-44.99h-.04M8.79-43.68h-.03M11.14-34.16h-.04M9.36-28.35h-.04M1.99-33.71h-.04M11.79-46.43h.04M12.26-41.62h.04M22.94-2.05l-.48.16M39.73-8.36l.28.27M21.15-21.98l-.14-.43M20.84-20.68l.13.86M20.97-19.82h-.04M21.69-16.48l-.44.28M19.02-15.05h.04M19.02-14.9l-.47.23M22.49-13.59l-.41-.07M21.06-14.77l-.04.42M25.13-14.96l-.06.54M25.62-16.29l-.35-.33M25.48-21.02v-.63M26.93-23.01l.2.68M28.82-21.19h-.57M31.18-20.55l-.49-.36M34.24-22.81l.68.26M38.06-16.28l-.44-.01M38.5-17.25h-.03M36.83-15.02l-.2.21M14.55-3.42l-.49.38M20.36-2.56l.52.03M18.93-2.94l.03-.41M19.41-5.8l-.05-.58M28.18-2.47l-.08.7M29.8-6.76l.5.18M33.29-2.6l-.04-.45M34.23-5.9h-.04M32.56-12.29l.48-.28M36.92-9.14l-.19-.67M35.38-8.51l-.53-.44M32.34-4.91l.46.56M36.99-5.52h-.04M39.88-6.35l-.14.48M25.14-6.1l.46.2M17.28-13.61l.37.08M15.77-12.53l-.02.44M14.28-9.68l-.12-.7M24.8-13.26h-.03M22.55-10.78h-.03M18.07-18.39l-.35-.16M21.7-9.34l-.39-.37M31.14-1.58l-.38-.12M16.82-8.95l-.21-.31M33.14-9.33l-.09-.42M41.32-5.27l-.09-.42M28.47-9.43l-.1.64M23.83-18.14l-.13-.54M17.74-22.37l-.4.13M15.12-8.08l-.35.17M16.34-19.51l-.84.16M18.64-20.68l-.31.41M16.49-15.19l-.22-.44M21.08-11.54l-.05-.56M18.07-8.09l-.01.61M8.1-3.18l-.25.44M16.04-5.42l-.09.39M19.12-1.51l-.37-.4M23.35-6.86l-.32-.37M26.8-19.63l-.33-.37M31.73-2.45l-.32-.38M25.42-11.26l.64-.47M29.61-15.91l-.08-.41M33.12-15.04l-.08-.4M31.62-16.53l.39-.4M35.43-18.96l.09-.54M36.14-21.3l-.04-.72M39.94-20.67l.05-.33M38.75-19.99l-.46-.12M34.27-14.44l.39.55M34.48-12.67l.12.57M31.74-10.85l-.41-.1M25.45-7.89l-.21.24M27.57-3.74l-.51-.03M37.72-3.12l-.2.59M36.28-3.9l-.18-.57M34.56-4.66l-.56.1M40.66-7.87l-.93-.49M45.09-13.71l-.27-.27M48.88-12.95l-.28-.27M40.01-14.67l-.29-.51M23.67-16.57h-.04M22.18-17.62h-.04M28.62-14.64h-.04M22.16-19.41h.04M19.38-22.58h-.04M32.5-13.73h-.03M34.56-20.62h-.04M29.09-12.26h-.04M12.71-10.34h-.04M33.84-16.57h-.04M37.33-8.04h-.04M34.44-1.54h-.04M19.12-12.26h-.04M14.61-16.83h-.03M19.57-9.17h-.04M53.55-2.22h-.04M33.89-8.55h-.04M20.09-4.65h-.04M29.85-5.24h-.04M38.33-13.77h-.03M39.16-18.59h-.04M29.81-1.15h-.04M23.7-8.55h-.04M31.87-9.46h-.04M25.96-4.7h-.04M24.17-1.47h-.04M26.74-2.64h-.04M14.22-6.3h-.03M36.9-11.63l-.17.57M25.52-41.75l-.71-.44M14.78-35.65l.36-.18M17.96-47.28l.31-.42M35.58-49.59 36-49M21.01-49.67l.14.43M20.87-47.74l.04.35M21.3-42.94l.44-.29M23.1-40.45l.41.08M21.45-41.1l-.04.41M25.82-42.03l-.3.28M42.67-24.11l.71.44M43.68-23.95l-.3.28M50.52-24.5l.31-.28M42.78-39.62l-.64-.37M25.83-43.88l.35.33M26.03-48.19v.63M27.13-49.11l-.2-.68M28.25-48.45h.57M30.69-48.17l.49.37M31.99-46.6l.39-.28M36.49-42.39l.44.01M38.05-42.92h.04M16.13-29.86l-.16-.44M14.55-30.58l-.49.39M17.51-24.26l-.11.7M20.88-29.79l-.52-.03M28.62-27.33l-.03.41M19.04-34.03l.04.9M25.41-29.82l-.82-.04M23.28-27.11l-.15.72M29.6-34.22l.5.17M32.37-31.89l-.04-.46M34.08-33.27h.04M33.24-27.09h-.04M32.56-39.55l.48-.28M36.73-37.07l.19.67M34.85-36.21l.53.44M33.51-34.03l.46.56M36.99-32.78h-.04M39.8-32.38l.14-.48M18.02-39.69l-.36-.08M16-37.52l-.09-.42M32.92-38.52h-.03M17.92-45.89l-.35-.15M20.08-37.35l.39.38M40.71-27.69l-.36.51M14.47-28.31l.45.4M24.52-28.27l-.38-.11M33.05-37.01l.09.42M28.47-36.29l-.1.64M23.83-45.36l.31.41M17.74-49.63l-.4.13M14.78-35.65l.62-.16M15.75-47.23l.85-.17M16.37-42.35l-.22-.44M21.08-38.8l-.05-.56M17.62-35.52l-.01.61M14.68-32.67l.09-.39M19.87-27.95l-.37-.4M22.2-24.59l-.16-.6M22.46-29.15l.48-.16M23.03-34.49l.32.37M31.51-29.82l-.32-.38M25.42-38.52l.64-.47M29.91-43.65l-.3.48M33.12-42.3l-.08-.4M32.08-43.9l-.6-.25M35.19-46.71l.09-.54M39.99-48.26l-.05.33M38.29-47.37l.46.12M34.38-42.03l.39.55M34.96-39.69l-.36.33M31.74-38.11l-.41-.1M26.18-35.26l-.21.25M28.57-32.23l-.51-.04M26.72-30.68l.41-.28M37.24-29.34v-.93M36.28-31.16l-.18-.57M34-31.82l.56-.1M37.43-27.53h.04M33.67-23.88l-.34-.6M59.19-24.59l-.28.92M40.01-35.35l-.28-.27M39.34-28.1h.04M41-25.93l.27.14M40.06-41.03l.29.51M24.32-43.49h.04M17.9-41.46h.04M28.81-41.41h.04M22.16-46.67h.04M19.5-49.6h.04M50.39-41.15h.03M51.85-17.71h-.04M29.17-25.9h-.04M28.11-25.05h-.04M37.34-24.63h.04M31.7-40.99h.03M34-46.91h-.04M29.05-39.52h.04M33.84-43.83h-.04M37.59-44.5h-.04M37.33-35.3h-.04M34.99-27.6h.04M24.4-26.06h-.04M20.46-26.14h-.04M19.54-38.51h-.04M14.3-44.57h.04M13.86-41.93h-.04M13.15-40.31h.04M18.68-27.51h.04M19.02-35.99h-.04M20.05-31.91h.04M38.3-41.03h.03M42.7-37.38h.03M44.16-38.57h.04M39.12-45.85h.04M29.77-28.96h.04M24.13-35.41h.04M25.96-31.96h-.04M25.27-27.15h-.04M14.19-34.11h.03M13.81-31.65h-.04M36.76-38.52l-.59.07M50.12-14.13l.4.08M62.63-19.34l.22.09M39.09-2.29l.41-.31M58.63-10.85l-.41-.1M48.04-21.98l-.14-.43M47.86-19.82l-.13-.86M47.86-19.82h-.04M48.78-16.2l.43-.28M45.95-15.05h-.04M45.91-14.9l-.47.23M52.41-14.25l-.05.54M52.72-16.62l.35.33M52.37-21.65l.01.63M53.82-23.01l.2.68M55.14-21.19h.57M58.07-20.55l-.48-.36M59.91-19.78l-.4.28M43.02-2.6l-.16-.44M47.77-3.08l-.52-.03M45.82-3.58l.03-.41M46.3-5.8l-.04-.58M52.3-2.56l-.82-.04M41.75-3.51l-.82-.03M55.07-2.47l-.08.7M56.79-6.9l-.49-.17M59.36-4.66l-.02-.29M59.46-12.29l.48-.28M62.27-8.51l-.52-.44M61.44-5.87l-.46-.55M52.03-5.79l.46.21M44.47-12.5l-.37-.07M43.07-11.12l-.09-.41M41.07-9.58l-.12-.7M44.96-18.39l-.35-.16M47.73-10.35l.39.38M43.64-8.17l-.2-.3M60.03-9.33l-.09-.42M55.36-9.43l-.1.64M50.73-18.14l-.14-.54M44.23-22.24l.4-.13M42.27-8.65l-.36.18M46.76-7.5l-.36.17M43.23-19.51l-.84.16M50.3-21.2l-.85.33M43.02-13.87l.22.44M47.98-11.54l-.06-.56M44.96-8.09l-.01.61M42.73-5l-.09.39M46.01-1.51l-.37-.4M50.24-6.38l-.08-.48M53.36-20l.33.37M58.62-2.45l-.32-.38M52.31-11.26l.64-.47M56.5-15.91l.62-.51M60.01-15.04l-.07-.4M58.98-16.55l.38-.41M61.66-14.22l-.39-.55M61.49-12.1l.36-.33M59.32-10.64l-1.1-.31M53.54-8.15l-.21.24M55.46-4.97l-.51-.04M54.02-3.71l-.41.29M48.55-6.64l-.41.28M61.53-4.42l-.56.09M50.52-16.57h.04M49.07-17.62h-.04M56.11-14.14h-.04M49.05-19.41h.04M61.8-22.71h-.04M46.43-22.34h-.04M46.39-22.34l-.07-.75M58.62-13.73h-.03M61.39-19.55h-.04M55.98-12.26h-.04M60.73-16.57h-.04M46.43-11.25h-.04M42.79-10.24h.04M41.83-16.41h-.04M41.57-14.46h-.04M41.85-12.9h-.04M44.38-3.43h-.04M48.41-2.17h-.04M46.98-4.65h-.04M56.7-1.81h-.04M51.06-8.71h-.04M52.85-4.7h-.04M49.79-3.12h-.04M41.32-7.07h.04M11.96-62.92v-.01M11.96-62.92l.04.18M17.66-62.83l-.02-.09M35.81-62.87h.04M50.12-62.64l.06-.28M42.31-62.92l.24.2M62.46-10.96l.39-.04M47.1-47.84l-.06-.44M51.05-50.04l.09.38M56.69-34.02l.5.18M60.7-34.05l.27.69M8.27-22.02l.45.41M47.9-49.83l.86.26M48.49-44.74l.05.44M45.91-42.16h.04M45.44-41.77l.47-.24M48.6-41.27l-.41-.08M52.02-41.43l-.06.54M52.32-43.49l.35.33M54.36-44.78l-.06.42M52.38-48.84l.15-.41M55.14-48.23h.57M57.55-48.27l-.21-.21M58.93-46.52l.39-.28M43.02-29.86l-.16-.44M40.96-30.3l.48-.38M44.95-24.37l-.11.7M46.25-30.96l-.03.41M54.96-27.33l-.03.41M45.6-33.64l.04.58M50.02-26.39l.15-.72M55.07-29.73l-.08.7M56.99-33.85l-.3-.17M59.55-31.82l.04.45M61.08-33.16h.04M59.76-26.26l.12-1.26M59.82-38.84l.12-.55M61.75-36.21l.52.44M59.92-33.21l1.05-.15M44.8-39.98l-.37-.07M41.05-37.32l.12.7M51.02-39.97h.04M44.61-45.81l.35.16M47.96-37.1l-.39-.38M50.21-28.39l.38.12M43.44-35.73l.2.3M59.94-37.01l.09.42M55.26-36.05l.1-.64M49.85-45.6l.26-.41M41.91-35.73l.36-.18M42.96-46.41l.27-.36M45.53-47.94l-.3.41M50.06-48.46l-.85.33M43.24-40.69l-.22-.44M47.92-39.36l.06.56M44.96-35.35l-.01.61M42.2-32.19l.09-.4M45.64-29.17l.37.4M49.73-29.61l-.48.16M53.62-47.34l-.33-.37M58.62-29.71l-.32-.38M52.95-38.99l-.64.47M56.38-43.44l.5-.24M59.83-41.82l-.46.45M58.98-43.81l-.16-.21M61.49-39.36l.36-.33M58.22-38.21l.41.1M52.86-35.01l.21-.25M55.46-32.23l-.51-.04M54.02-30.96l-.41.28M60.56-23.88l-.34-.6M50.64-44.37h-.04M56.28-41.17h-.04M57.45-45.32h-.04M54.33-49.32h.04M48.57-46.91h.04M46.19-49.6h-.03M56.06-25.68h-.04M58.62-40.22h-.03M60.32-47.67h.04M58.93-55.02h.04M55.94-39.52h.04M58.78-36.78h.04M56.03-35.31h.04M56.44-32.75h-.04M25.5-56.85h.04M27.29-46.68h-.04M32.1-57.95h.03M61.92-27.6h-.03M51.29-25.59h-.04M47.35-26.14h-.04M39.76-22.71h.04M54.74-16.11h-.04M46.39-38.51h.04M41.79-43.67h.04M41.79-43.67l-.28-.53M41.7-49.66h.04M49.39-61.62h.03M38.67-49.8h.04M41.53-41.72h.04M45.61-27.51h-.04M16.98-36.6h-.04M14.32-37.56h.04M46.48-35.95h.04M46.94-31.91h.04M51.02-35.81h.04M62.14-32.61h-.04M52.16-27.15h-.04M41.12-34.11h-.04M.94-19.08l-.45-.17M.49-11l.2-.02M59.66-27.85l1.05-.1M48.68-25.27l.05.46M48.46-25.6l1.06-.09M24.25-23.85l-.04-.46M25.04-24.73l-1.05.09M39.33-24.6l-.44.14M39.91-23.87l-.3-1.01M16.78-26.51l.05.46M16.56-26.84l1.06-.09M34.77-41.48 33.7-41M19.04-34.03l-.83.46M10.04-62.8l.14-.12M11.96-62.93h0M32.6-.68l.08.12M11.96-.63H12M11.96-.62v-.01M11.96-.62l.01.06M17.62-.71l.03.15M35.85-.55h-.04M50.27-1.05l-.1.49M42.09-.81l.28.25M20.38-.87l-.09.19M10.47-.86l-.35.3M11.96-.62H12M11.96-.62h0M7.1-1.86l-.69.25M41.32-60.83l-.03-1.1M50.01-30.76l-.28 1.15M41.07-43.2l.72-.47M49.21-48.13l.8.49M48.2-49.26l.56-.31M59.88-11.07l-.56.43M25.48-21.02l.84-.2" style="fill:none;stroke:#000;stroke-width:.52;stroke-linecap:round"/><path d="M29.17-52.18h-.04M29.17-52.18h-.04M48.14-60.12l.41-.28M54.1-51.04l-.59.45M54.18-60.34l-.22-.46M22.57-48.29l.53-.17M61.92-44.57h-.04M61.92-44.57h-.04M41.31-24.57h-.04" style="fill:none;stroke:#000;stroke-width:.9;stroke-linecap:round"/><path d="M8.52-56.05h-.04" style="fill:none;stroke:#000;stroke-width:.75;stroke-linecap:round"/><path d="M9.22-52.73h-.04M21.36-59.9l-.14.36" style="fill:none;stroke:#000;stroke-width:.7;stroke-linecap:round"/><path d="M50.85-51.1h-.04M50.85-51.1h-.04" style="fill:none;stroke:#000;stroke-width:.75;stroke-linecap:round"/><path d="M46.11-54.72h-.04M46.11-54.72h-.04M49.29-56.38h-.04" style="fill:none;stroke:#000;stroke-linecap:round"/><path d="M61.39-62.2h-.04M61.11-31.65h-.04M58.26-52.18h-.04M8.97-15.3h-.03" style="fill:none;stroke:#000;stroke-width:.7;stroke-linecap:round"/><path d="M11.27-25.46h-.04" style="fill:none;stroke:#000;stroke-width:.75;stroke-linecap:round"/><path d="M8.52-41.69h-.04M20.96-1.26l-.48.15M15.13-14.19h-.04M15.13-14.19h-.04M14.82-15.7h-.04" style="fill:none;stroke:#000;stroke-width:.7;stroke-linecap:round"/><path d="M25.13-39.97h-.04M25.13-39.97h-.04" style="fill:none;stroke:#000;stroke-width:.75;stroke-linecap:round"/><path d="m21.85-45.21.29.33M51.06-12.71h-.04" style="fill:none;stroke:#000;stroke-width:.7;stroke-linecap:round"/><path d="m47.38-15.5.46-.24" style="fill:none;stroke:#000;stroke-width:.75;stroke-linecap:round"/><path d="M51.06-12.71h-.04M62.08-21.2h-.04M22.75-21.47h-.04M12.77-24.5h-.03M15.33-21.35h-.03M24.54-22.57h-.04M52.99-23.76l-.72-.46M46.52-8.69h-.04M46.63-9.02h-.03M49.79-2.68h-.04M60.81-1.08h-.04" style="fill:none;stroke:#000;stroke-width:.7;stroke-linecap:round"/><path d="m51.93-33.66.47.2M44.53-49.25l-.4.13" style="fill:none;stroke:#000;stroke-linecap:round"/><path d="m50.24-34.12-.32-.37" style="fill:none;stroke:#000;stroke-width:.7;stroke-linecap:round"/><path d="m57.94-27.45-.66.24" style="fill:none;stroke:#000;stroke-width:.75;stroke-linecap:round"/><path d="m51.93-33.66.47.2M44.53-49.25l-.4.13" style="fill:none;stroke:#000;stroke-linecap:round"/><path d="m50.24-34.12-.32-.37M62.01-48.08h-.04M62.14-57.91h-.04M57.33-46.84h-.04M55.89-44.78h-.04M54.65-52.69h-.04M52.85-31.96h-.04M52.85-31.96h-.04" style="fill:none;stroke:#000;stroke-width:.7;stroke-linecap:round"/><path d="m57.53-39.34-.26-.49M60.29-35.16l-.96.56" style="fill:none;stroke:#000;stroke-width:.75;stroke-linecap:round"/><path d="M31.69-24.02h-.04M41.03-38.88h-.04" style="fill:none;stroke:#000;stroke-width:.7;stroke-linecap:round"/></svg>