<svg xmlns="http://www.w3.org/2000/svg" xml:space="preserve" width="87.31" height="87.31" viewBox="0.49 -87.9 87.31 87.31"><path d="M.49-87.9H87.8V-.59H.49z" style="fill:none"/><path d="M8.56-79.28h.06M33.91-87.85h.05M63.8-87.72l-.03-.18M14.68-75.21l.19-.51M10.62-73l.33.94M5.66-75.78l-.93.33M3.94-71l.58.29M25.05-85.56l.05.7M3.74-79.55l.44-.85M9.52-76.74h-.06M7.63-85.25l.87-.22M16.45-80.79h.06M5.52-82.71h-.06M13.94-82.99l.8.47M16.28-85.07h.05M17.16-78.41h.06M6.1-72.86h-.06M15-72.13l.6.01M19.73-76.53l.97.14M42.68-75.68l-.48.64M51.56-82.99l.81.47M24.17-81.46h.05M72.43-85.34h.06M84.14-79.28h.05M22.57-84.55h.05M20.08-73.76h-.05M26.85-71.25h.06M29.32-75.9l.22 1.12M22.64-78.87l.2-.5M51.28-75.69l.2-.51M34.41-81.19h-.06M43.25-87.04h.05M39.17-82.87h.06M36.95-76.79l-.35-.7M36.59-72.78l.82-.64M41.08-80.41l.44-.86M45.92-76.52h.05M57.13-81.28h-.05M43.53-82.93h.05M55.24-79.36h.05M28.33-85.7l-.15-.4M53.95-85.07h-.05M21.93-71.96h-.06M43.66-72.86h.06M37.56-71.06h-.06M23.63-76.52h.06M24.7-74.19v.9M30.04-80.41h.06M48.57-78.61l.63.25M49.94-84.8h.05M50.74-73.32h.05M59.93-84.97h.05M87.8-78.02l-.72-.4M59.85-85.11h-.06M56.74-74.62h-.05M65.42-71.18h.05M67.11-76.18l.21 1.12M61.98-83l.09-.25M68.31-81.15l.2-.51M71.16-80.63h.06M77.8-86.42h.05M72.58-76.4l.96.15M57.56-77.66l-.41-.18M79.01-79.55l.58-.5M84.73-76.74h.05M85.31-72.81l.33.94M82.8-84.92l.97-.55M80.73-82.71h.05M58.74-71.18h.06M69.92-73.56h.06M73.42-72.79h-.05M61.28-76.52h.06M62.35-74.19l.8.87M79.97-70.81l.58.29M8.45-4.69l-.26-.3M1.95-62.21h.06M18.06-51.01l.99.57M3.45-27.46l-.3.34M16.51-5.53h-.06M16.33-9.8h-.05M1.7-24.76l.98.57M14.27-33.04l-.99-.57M16.47-28.02l-.68.06M4.61-19.95l.63-.35M13.73-15.82l-.64.34M8.84-29.85h-.05M16.22-31.26h-.05M27.23-30.64h-.06M17.79-23.55h.05M5.45-11.45H5.4M4.49-4.98l-.44.86M13.37-13.12h-.06M5.08-16.72l-.37-.69M8.5-10.2l-.87.22M19.91-6.38h-.05M5.46-7.44h.06M11.76-65.94l-.53 1.4M16.22-16.19h-.05M14.74-7.25l-.8-.47M19.66-8.63h.06M8.28-25.15h-.05M6.56-31.17h-.05M17.22-3.14h-.06M4.44-13.51h.05M2.8-31.41h.05M4.81-25.57h-.05M8.62-18.89h-.06M11.38-24.35h-.06M13.38-18.74h.06M12.37-9.53h-.05M9.88-14.67h-.05M14.45-25.63h.05M4.73-37.9l.93-.33M4.1-65.1l.6.29M15.02-66.79l.68-.06M72.69-82.88l.69-.06M55.63-53.15l-.68.05M5.91-59.18l-.64.35M13.25-53.21l.64-.35M10.4-69.33h-.05M17.03-62.64h.06M14.1-37.84l-.2.51M5.45-49.62H5.4M4.38-43.92l-1.41 1.06M8.58-39.42h.05M4.07-40.45h.06M5.08-54.89l-.37-.68M7.63-48.15l.87-.21M16.51-43.69h-.06M5.96-45.83h-.05M17.76-53.54h.05M16.19-51.43h.05M14.74-45.42l-.8-.47M17.32-48.2h.06M8.28-63.31h-.05M7.03-67.84h-.05M17.69-41.1h.05M4.44-51.67h.05M1.76-69.23h.06M17.22-69.81h-.06M6.82-33.81l-.58-1.35M11.87-41.23h.05M10-60.09h-.06M27.11-67.71h.05M14.1-56.24h.05M12.32-47.69h.05M10.5-52.37h-.05M13.7-63.17h.05M3.26-33.81l.58.29M33.91-27.42h.06M52.28-22.71l.98.57M33-4.84h-.05M22.22-24.75h-.06M19.83-32.27h.05M33.08-16.53l-.81-.47M32.28-23.32l.66.32M58.09-46.62l-.81-.47M22.3-24.66l.8.47M52.37-7.25l-.81-.47M40.42-31.41h.06M24-1.56h-.06M31.46-32.21l-.28-.13M28.16-25.82l-.25-.53M72.49-10.07h-.06M83.98-3.85h.06M40.77-27.12l-.98-.57M45.86-27.76l-.87.74M39.03-24.38l.69-.06M21.77-35.1l-.69.06M54.09-28.02l-.68.06M43.53-21.01l-.64.34M51.14-15.74l-.07-.72M46.92-30h-.05M52.53-29.85h-.06M52.85-32.14h.06M56.16-23.26h-.05M22.62-9.28h-.05M29.71-8.4l-.2.51M22.84-4.11l-.2.51M43.08-11.45h-.06M33.19-7.34h-.05M39.23-7.6h-.06M41.52-5.08l-.44.86M32.3-20.63h-.06M37.49-21.49h-.05M42.7-16.72l-.37-.69M46.6-9.96l-.87.22M54.83-5.61h-.06M43.58-7.66h-.05M37.77-10.07l1.27.18M27.58-18.85h-.06M27.11-15.23l-1.68 1.66M62.17-79.22l1.68-1.67M39.65-41.23l1.68-1.66M54.03-15.85h.06M57.26-2.34h-.06M19.83-32.27l.49 1.07M53.86-13.27h-.05M61.94-4.6h-.05M29.13-10.56l-.15-.4M31.64-40.98l-.53-.32M39.23-15.43h-.39M53.9-9.8h.05M45.85-25.15h.05M36.43-25.54l-.51.59M25.16-22.88h-.06M49.34-21.93h.06M42.11-13.51h-.05M19.82-26.09h-.06M40.42-31.41l.43.68M19.64-16.7h-.06M20.3-12.8h-.06M25.09-10.27h-.06M18.66-21.01h-.05M24.22-6.19h-.05M42.43-25.57h-.05M36.27-13.76h-.05M1.42-87.9l.14.21M30.1-4.72h-.06M27.8-24.03h-.05M33.64-13.74h-.05M38.26-18.99l.19.99M23.07-17.16l-1.15-.06M49-24.35h-.06M51.06-18.74h-.05M49.67-2.72l-1.1-.63M49.99-9.53h-.05M22.57-14.9h.05M64.81-31.09h-.06M48.08-14.76h-.05M52.12-25.63h-.05M32.22-31.2l-1.04-1.14M51.67-58.68l-.98-.57M47.69-68.01h-.05M42.88-45.69h-.05M24.21-52.92l1.21-.38M20.72-67.93l.48-.29M42.35-38.06l.56-.75M24.83-60.38h.05M27.46-64.52l.36.25M33.91-65.58h.06M34.6-68.94h-.05M32.55-70.62h-.05M40.28-66.99l.49 1.71M39.41-62.83l.4-.06M54.09-66.18l-.68.06M42.89-58.83l.64-.35M51.46-54.23l-.64.34M48.62-67.28l-.98-.73M52.47-67.86h.06M55.41-61.71h.06M22.62-47.45h-.05M18.64-36.77h-.05M28.49-33.74h-.05M29.68-37.96l-.22-1.12M27.04-58.57l.7-.04M52.49-38.61l-.19.5M33.93-43.34h-.05M42.92-50.23h-.05M10.29-57.46h-.06M32.15-45.31h-.05M37.13-39.52l-.54-.11M20.92-39.16l-.97-.14M36.59-35.98l.82-.64M46.07-39.66h.05M47.99-35.54l-.32-.94M32.24-58.79h.06M38.88-59.66h.06M42.33-55.57l.37.68M45.51-48.92l-.87.21M54.08-43.69h.05M43.47-45.77l-.64.08M27.43-56.11h-.06M54.4-55.67l-.06.15M22.16-62.91h.06M53.81-51.43h.05M29.51-49.11l-.91-.05M32.01-54.22l.33.58M22.3-62.83l.8.47M52.37-45.42l-.81-.47M39.11-53.15h-.38M53.8-47.81h-.05M45.85-63.31h.05M35.83-63.17l.57-.77M45.92-42.41h.06M44.74-69.02h.06M54.79-41.3h.05M42-52.33h-.05M62.72-28.44h-.05M19.58-65.09h.06M40.42-69.57h.06M20.2-54.8h-.05M19.47-58.1h.05M22.33-44.45h-.05M43.72-35.75h-.06M37.56-33.96h-.06M42.38-63.73h.05M23.69-39.42h-.06M25.75-35.58l.8.87M30.04-43.5h.06M27.38-61.77h.05M36.08-50.85l-1.16-.96M31.18-51.33h.06M37.45-56.8l1 .64M22.66-56.72l-.62-.58M49.17-62.29h.05M51.01-56.91h.05M48.57-41.51l.46.77M49.48-47.69h.05M48.07-52.37h.05M51.77-64.56h-.05M50.79-36.21h-.05M40.8-34.1l.57.29M66.3-25.48l-.74-.87M84.52-30h.05M83.55-25.15h-.06M86.99-4.29l.81.46M65.99-25.79l-.74-.87M71.61-27.42h-.05M72.06-31.5h-.05M77.44-27.69l.98.57M76.49-24.09l.68-.06M80.54-20.67l.63-.34M55.86-18.39l-.63.34M87.62-33.33h.05M60.27-9.28h-.06M62.07-7.99l-.2.51M68.37-6.25l-.2.5M71.22-5.93h-.06M80.72-11.45h-.05M79.45-5.14l-.44.86M72.11-21.57h-.05M76.08-20.75h-.05M83.77-10.2l-.88.22M80.78-7.44h-.05M76.71-8.79l-.63-.86M65.07-17.94h-.05M61.95-13.54l1.65-.58M86.3-64.69l1.5-.53M59.87-24.75h-.06M59.65-29.92 59-28.89M57.86-31.83h-.05M67.83-11.02l-.14-.4M69.77-15.82l.81.47M60.75-24.19l-.81-.47M76.49-15.43h.38M74.21-25.85l-.57.77M62.8-22.88h-.05M68.17-20.24h.06M81.83-31.17h-.06M87.72-21.42h.05M79.76-13.51h-.05M57.46-26.09h-.05M78.07-31.41h.05M56.91-16.18h-.06M60.44-21.14h-.05M80.08-25.57h-.05M61.34-1.56h-.06M10.88-87.73l-.06-.17M21.64-86.93l-.77-.97M53.41-87.9l.01.42M38.01-87.51l-.54-.39M74.15-87.9l.24.39M81.19-87.9l-.26.25M66.77-87.9l.13.68M83.83-18.89h.06M65.6-23.57h-.05M73.52-13.47l1.07.07M70.03-12.96h-.06M76.1-18l-1-.63M60.33-16.15l-.31.34M86.65-24.35h-.06M26.35-43.87l-1.1-.63M87.64-9.53h-.06M85.77-14.21h-.05M69.11-32.21l-.28-.13M74.23-35.68l.82-.63M80.35-54.89l-.38-.68M57.24-54.24h-.05M60.44-59.3h-.05M63.15-36.21l-.8-.87M84.75-60.67h-.05M86.83-41.51l.97.55M65.36-64.52l.77.24M71.56-65.58h.05M77.85-64.8l-.61-.29M80.54-58.83l.63-.35M66.14-59.66l.64-.35M87.67-53.26l.13-.06M85.61-69.33h.06M60.21-47.45h.06M59.85-35.9h.05M65.42-34.08h.05M66.58-39.81l.74 1.85M65.97-47.67l-.2.51M71.22-44.51h-.06M80.67-49.62h.05M68.45-45.26h-.05M74.72-39.46l-.97-.14M59.18-38.38l-1.23-1.49M79.21-43.06l.44-.86M83.96-41.23h.05M79.39-40.45h-.05M85.64-35.54l-.33-.94M70.26-59.46h.05M76.28-59.37h.05M81.17-45.83h.06M75.7-47.56l1.28.18M65.02-56.11h.05M61.95-51.7l1.65-.59M59-67.05l.39-.64M67.72-49.69l-.15-.4M68.85-55.12l.81.47M59.82-62.72l.93.36M71.48-41.03l.87-1.31M76.49-53.59h.38M83.49-63.31h.06M73.01-62.98l.77-.57M63.67-61.39h-.05M82.24-67.84h.06M79.71-51.67h.05M57.41-64.25h.05M60.39-59.3l.83-.75M61.87-44.36h-.06M81.36-35.75h-.05M76.46-33.82h-.05M61.28-39.42h.06M67.04-42.61h-.05M73.7-51.23l-1.07-.07M87.13-59.08l.67.04M70.13-51.91h.05M75.1-56.8l1 .64M85.72-52.37h.05M.88-77.8l-.39-.22M.59-84.8h.06M.79-3.67l-.3-.16M.49-65.22l.16-.05M.49-40.97l.14.08M1.01-53.6l-.52.28M.9-59.01l-.41-.03M79.21-33.89l.58.29M35.95-46.28l-.73-.08M80.93-17.35l-.57-.39M33.96-87.82h-.05M4.92-87.9l-.19.29M37.44-87.9l.57.41M33.96-.61h-.05M63.75-.77l.03.18M1.3-.84l.17.25M10.69-1l.16.41M10.85-.59l.03.1M20.93-.59l-.83-1.03M53.41-1.1v.51M37.56-.59l-.9-.65M73.88-1.1l.31.51M81.58-1.02l-.47.43M66.69-1.11l.1.52M33.96-.58h-.05M5.19-1.07l-.32.48M20.1-1.6l.82 1.01M36.66-1.22l.88.63M37.54-.59h.02M20.86-87.9h.01M20.92-.59h.01M37.44-87.9h.03" style="fill:none;stroke:#ed1b2e;stroke-width:.98;stroke-linecap:round"/><path d="M76.85-87.86h-.05M80.16-85.39h-.05M13.37-85.5h-.06M7.98-87.85h-.06M32.06-81.75l.31-.76M46.63-84.17l-1.05-.7M48.57-75.27h-.05M48.57-75.27h-.05M35.34-85.04l-.79.08M19.72-84.67h-.06M31.07-86.94h-.05M40.7-86.85h-.05M55.85-87.85h-.05M42.98-70.75l.58.28M80.48-75.3l-.64.16M14.15-22.41l-.98-.57M55.25-59.27l.29-.29M55.25-59.27l.29-.29M32.1-61.36h-.05M25.17-42.06h-.05M38.88-47.04l-.83-.52M19.43-60.38h-.05M29.28-46.94h-.05M49.72-32.6l-.01-.83M54.17-36.32h-.05M62.16-41.8h-.03M78.12-69.57h-.05M85.12-56.63l-.06-.16M75.05-36.31l-.82.63M7.98-87.82h-.06M55.85-87.82h-.05M76.85-.62h-.05M7.98-.61h-.06M55.85-.61h-.05M7.98-.58h-.06M55.85-.59h-.05" style="fill:none;stroke:#ed1b2e;stroke-width:.8;stroke-linecap:round"/><path d="M14.64-75.45h-.05M2.16-74.43l.04-.58M3.35-84.98l.69.25M7.61-82.01l.02.41M8.53-73.82l.08-1.25M8.6-75.02l.01-.05M9.91-84.07l.65.79M13.92-82.8h.05M17.9-82.24l.19-.67M18.05-73.9l-.51.72M5.5-78.9l.45.52M1.46-82.08l.72.05M14.32-77.99v-1.29M12.72-81.33l.25.79M9.89-81.13l.79-.13M17.81-86.78l.38.39M17.31-76.25h-.05M2.1-72.41h-.05M12.51-70.93h-.05M11.2-85.73h.05M12.06-76.07h.06M3.45-77.61H3.4M7.82-70.81l.28.95M41.52-84.53l.7.24M37.46-83.72l.48-1.81M19.5-79.33l.68-.53M23.5-74.25l.91.06M24.32-71.49l-.15.98M28.31-78.66l.72.05M26.31-79.19l.04-.58M39.1-75.17l-.04.58M26.91-84l.06.8M33.77-77.34l.87.61M32.4-74.86l-.22 1.01M39.14-77.55l.12-.97M45.88-87.38l-.37-.52M46.35-79.34l.06.63M49.02-82.59h.06M44.61-74.38h1.25M46.8-81.98l.65.78M51.54-82.8h.05M54.68-82.33l.19-.68M35.91-82.56l.64.28M53.43-73.55l.5-.71M31.4-76.99l.54.16M21.6-81.86l.13-.55M26.05-77.75l.52.56M29.78-71.85l.22.84M32.1-78.83l.68-.22M32.05-85.2l.45.52M43.78-79.03l.45.52M43.48-79.53l.45.52M37.94-85.53l.64.05M37.69-80.35l.72.05M52.6-78.61l.28-.83M50.52-80.66l.78-.13M51.25-75.94h-.05M52.88-71.45l.07.87M46.94-70.33l-.47-.85M54.28-76.2h.06M55.78-72.7l.38.19M50.08-70.93h.05M47.98-72.45h.05M52-86.33h.06M33.91-72.73h.05M28.44-73.5h-.05M25.95-75.43h.06M27.88-81.58h.05M19.69-81.47h-.05M41.53-77.61h-.05M35.13-74.91h.05M19.66-84.67h.06M71.88-78.71l1.15.05M83.87-75.02l.01-.05M75.43-80.26l-.57.4M59.81-79.33l.23.62M59.87-73.44l.91.07M61.81-70.51l.15-.98M65.23-78.7l.72.04M77.56-75.1l-1.34-.77M64.56-84l.06.8M47.82-86.85l1.16.05M70.05-76.91l-.22 1.01M76.9-78.52l-.11.97M78.13-83.91l.41.1M82.88-82.01l.02.41M83.1-74.01l.59-.52M85.18-84.07l.64.79M62.03-85.54l.02-.86M59.86-81.28l.13-.55M68.2-71.18l.22.84M70.03-84.68l.12.67M81.42-79.03l.46.52M64.8-86l-.3.34M76.56-82.48l1.52.79M74.86-79.86l.75-.83M67.2-83.97l.57-.4M78.44-73.32h-.06M87.47-70.93h-.05M87.05-75.11H87M66.04-73.5h.05M59.14-75.42h-.05M58.37-82.87h.05M65.94-81.31H66M79.13-77.61h.05M73.89-81.34h.06M84.54-82.23h.05M73.77-74.47h.06M74.81-77.7h.06M57.65-84.97h.05M56.38-85.72l1.27.75M19.78-71.5l.07 1M56.04-69.86l-.07-1M83.37-69.86l-.28-.95M9.61-26.59h1.25M16.34-21.15l.29-.29M37.78-12.57l-.29.28M18.09-7.64l-.19.67M18.78-28.59l-.07.46M10.31-20.48l.54.77M2.43-7.31l-1.12.34M17.88-18.21l.8-.11M10.77-35.16v.88M1.73-29.47l.8-.01M5.84-28.57l-.69-.51M8.41-27.49l-.56.39M11.63-32.56l-1.2.51M15.26-23.47h-.05M35.02-3.78l-.29.29M4.04-9.47l-.69-.24M7.77-7.03l-.02-.41M8.44-17.41l-.67.4M16.45-12.18l-.27-.95M10.98-12.33l.74.61M10.56-8.02l-.65-.78M13.97-7.53h-.05M8.58-12.87l-.13-.58M2.04-13l-.14.9M7.03-2.85l-.45-.53M3.64-22.08l.86-.71M8.54-20.86l-.1-.55M7.64-23.55l-.54.57M12.44-27.45l-.13.76M13.65-29.28l-.07-1.01M43.72-32.03l.06 1.01M43.78-30.71l1.16-.89M18.5-30.51l.07-.46M15.79-27.96l.65.17M1.88-17.74l-.55-.77M10.63-16.74l.49-.46M6.62-14.99l-.58-.15M1.31-6.97l.64 1.59M14.32-4.02v1.3M12.97-5.27l-.25-.79M10.68-6l-.79.14M18.19-11.13l-.38-.38M18.01-1.57h-.05M17.82-18.28l-.4-.7M2.25-20.31h-.06M6.61-19.02h-.05M10.56-28.67h-.05M3.07-15.43l-.2-.77M9.56-23h-.05M14.44-11.06h-.06M12.37-2.68h-.06M15.85-19.09h-.05M17-25.82h-.05M3.3-2.19h-.05M13.53-15.32l-.82.09M1.88-67.02h.8M4.21-68.31l.68.52M7.03-64.92l.56-.4M16.35-60.28l-.29.29M1.48-38.06l-.04.57M3.9-48.04l.7.24M7.97-43.72l-.06-.64M10.05-46.23h.05M9.16-37.28h-.05M8.28-54.8l.16-.77M14.4-49.65l-.26-.95M10.98-50.5l.74.62M9.89-46.51l-.65-.78M13.92-45.69h.05M18.09-45.81l-.19.68M8.45-51.61l.13.58M2.49-49.98l.13-.9M6.61-41.4l-.45-.52M3.47-60.62l.7-.33M9.51-57.66l.1.56M6.55-61.87l.55.73M13.79-59.21l-.14.76M12.78-67.78l-.06-1.01M18.17-67.36l-.08.46M14.81-60.96l.07-.46M9.13-41.8l.08-.46M15.02-66.79l.65.16M10.63-54.9l.49-.47M6.62-53.15l-.58-.15M2.18-44.93l-.72-.05M14.98-40.33v-1.3M12.97-43.43l-.25-.79M11.31-38.23l.26.79M10.57-44.49l-.79.13M13.86-37.57h-.05M23.89-29.35l-.07-.88M9.31-33.23l-.46-.85M16.75-38.38h-.05M8.44-36.16h.05M21.32-37.44h-.05M22.22-32.82h-.05M16.95-54.86l-.41-.71M14.66-69.52h.05M3.27-57.44h.05M5.09-62.88h-.06M2.96-35.75h.06M12.2-36.14h-.05M6.56-57.19h.05M9.62-67.16h.06M2.9-55.13h-.05M11.25-62.78h-.05M12.12-60.96h-.06M15.4-47.63h-.05M12.9-39.49h-.05M2.59-47h-.06M16.31-64.81h.05M16.97-58.07h.05M31.92-2.67l-.67.21M55.43-11.51l.38.38M29.42-30.58l-.2-.6M28.98-28.76l.18 1.2M29.16-27.56h-.05M30.17-22.88l-.61.4M26.44-20.88h.05M26.43-20.67l-.66.32M31.28-18.83l-.56-.1M29.28-20.48l-.05.58M34.98-20.75l-.08.75M35.68-22.61l-.49-.47M35.48-29.23v-.89M37.51-32.02l.28.95M40.15-29.48l-.8.01M43.46-28.57l-.69-.51M47.75-31.74l.94.37M53.09-22.59l-.62-.02M53.71-23.96h-.05M51.37-20.83l-.29.29M20.18-4.6l-.68.54M28.31-3.39l.72.04M26.31-3.92l.04-.58M26.97-7.93l-.06-.8M39.26-3.26l-.12.97M41.52-9.26l.7.24M46.41-3.44l-.06-.64M47.72-8.06h-.05M45.4-17.01l.66-.4M51.5-12.59l-.27-.95M49.34-11.72l-.74-.61M45.08-6.68l.64.78M51.59-7.53h-.05M55.63-8.7l-.19.67M35-8.35l.65.29M24-18.85l.51.1M21.88-17.35l-.03.62M19.79-13.35l-.16-.99M34.53-18.37h-.05M31.38-14.9h-.05M25.1-25.55l-.49-.22M30.19-12.87l-.55-.53M43.4-2.02l-.54-.16M23.35-12.33l-.29-.44M46.2-12.87l-.13-.58M57.65-7.19l-.13-.58M39.66-13l-.14.9M33.17-25.19l-.19-.76M24.64-31.12l-.56.18M20.98-11.12l-.51.25M22.68-27.12l-1.18.23M25.9-28.76l-.43.58M22.89-21.07l-.31-.61M29.32-15.95l-.08-.79M25.1-11.13l-.01.86M11.14-4.25l-.35.61M22.26-7.4l-.12.55M26.57-1.92l-.52-.56M32.5-9.41l-.45-.52M37.32-27.28l-.46-.53M44.23-3.24l-.45-.52M35.39-15.57l.9-.65M41.26-22.08l-.11-.57M46.16-20.86l-.1-.55M44.07-22.94l.54-.57M49.4-26.35l.13-.76M50.4-29.62l-.06-1.01M55.72-28.74l.07-.46M54.06-27.79l-.65-.17M47.78-20.02l.54.77M48.08-17.55l.17.81M44.24-14.99l-.58-.15M35.44-10.86l-.29.34M38.41-5.04l-.72-.04M52.6-4.17l-.28.82M50.59-5.27l-.25-.79M48.19-6.33l-.79.14M56.73-10.81l-1.3-.7M62.94-18.99l-.39-.39M68.23-17.93l-.39-.39M55.81-20.35l-.4-.7M32.94-23h-.06M30.85-24.48h-.05M39.87-20.31h-.06M30.83-26.98h.05M26.94-31.42h-.05M45.31-19.02h-.06M48.19-28.67h-.06M40.52-16.97h-.05M17.6-14.27h-.05M47.18-23h-.05M52.06-11.06H52M48.02-1.96h-.06M26.57-16.97h-.05M20.26-23.37h-.05M27.19-12.64h-.05M74.77-2.92h-.05M47.25-11.77h-.06M27.93-6.32h-.05M41.59-7.14h-.05M53.47-19.09h-.05M54.63-25.82h-.06M41.53-1.42h-.05M32.98-11.77h-.06M44.42-13.05h-.05M36.15-6.38h-.06M33.64-1.86h-.05M37.23-3.49h-.05M19.72-8.63h-.06M51.46-16.09l-.24.8M35.53-58.26l-.99-.61M20.5-49.72l.5-.24M24.95-66l.43-.58M49.62-69.22l.59.82M29.22-69.34l.2.59M29.02-66.64l.05.49M29.63-59.92l.6-.41M32.15-56.43l.57.11M29.84-57.35l-.06.58M35.95-58.65l-.42.39M59.54-33.56l.99.61M60.95-33.34l-.42.39M70.54-34.1l.42-.39M59.69-55.28l-.89-.51M35.96-61.24l.49.46M36.25-67.27v.88M37.79-68.56l-.28-.95M39.35-67.64h.8M42.77-67.25l.69.52M44.59-65.04l.55-.4M50.88-59.15l.63.02M53.08-59.9h.05M22.39-41.6l-.23-.62M20.18-42.61l-.68.54M24.32-33.77l-.15.98M29.03-41.51l-.72-.04M39.87-38.06l-.04.57M26.45-47.45l.06 1.27M35.38-41.55l-1.15-.05M32.4-37.76l-.22 1.02M41.25-47.71l.69.24M45.13-44.45l-.06-.64M47.51-46.38h.06M46.34-37.72h-.05M45.4-55.17l.66-.4M51.23-51.7l.27.94M48.6-50.5l.74.62M46.71-47.45l.65.78M51.59-45.69h-.05M55.52-45.13l.2-.68M25.04-55.37l-.51-.11M22.2-52.34l-.13-.57M45.9-53.74h-.06M24.89-64.04l-.5-.22M27.91-52.1l.55.54M56.8-38.57l-.51.72M20.06-39.44l.63.56M34.13-39.38l-.54-.16M46.07-51.61l.13.58M39.66-50.61l-.14.9M33.16-63.31l.44.58M24.64-69.28l-.56.18M20.5-49.72l.87-.22M21.86-65.93l1.18-.23M22.72-59.09l-.31-.61M29.32-54.12l-.08-.78M24.48-49.54l-.02.86M20.35-45.54l.13-.55M27.62-38.94l-.52-.55M30.88-34.24l-.22-.84M31.25-40.62l.67-.22M32.05-48.09l.45.52M43.92-41.56l-.45-.52M35.39-53.73l.9-.66M41.68-60.91l-.42.67M46.16-59.02l-.1-.56M44.71-61.27l-.84-.35M49.07-65.2l.13-.75M55.79-67.36l-.07.46M53.41-66.12l.65.17M47.93-58.64l.55.77M48.74-55.37l-.49.47M44.24-53.15l-.58-.15M36.45-49.16l-.29.34M39.8-44.93l-.72-.05M37.21-42.76l.58-.4M51.94-40.89v-1.29M50.59-43.43l-.25-.79M47.4-44.36l.79-.13M52.21-38.35h.05M46.94-33.23l-.47-.85M82.67-34.23l-.39 1.28M55.81-49.29l-.38-.38M54.88-39.15h.05M57.2-36.1l.38.19M55.89-57.24l.4.71M33.85-60.7h.05M24.86-57.84h.06M40.13-57.78h.06M30.83-65.14h.05M27.11-69.25h.05M70.34-57.41h.06M72.4-24.6h-.06M40.64-36.06h-.06M39.16-34.87h-.05M52.08-34.29h.06M44.18-57.19h.05M47.41-65.48h-.06M40.47-55.13h.05M47.18-61.16h-.05M52.43-62.1h-.05M52.06-49.23H52M48.8-38.45h.05M33.96-36.29h-.05M28.44-36.4h-.05M27.16-53.72h-.05M19.82-62.21h.06M19.2-58.5h-.05M18.22-56.24h.05M25.95-38.32h.06M26.43-50.19h-.05M27.88-44.48h.05M53.42-57.25h.05M59.58-52.13h.05M61.63-53.8h.05M54.57-63.99h.06M41.48-40.35h.05M33.59-49.38h.05M36.15-44.55h-.06M35.18-37.81h-.05M19.66-47.56h.06M19.14-44.11h-.05M51.27-53.73l-.83.09M69.97-19.58l.57.11M87.48-26.88l.32.12M54.53-3.01l.58-.44M81.89-14.99l-.58-.15M67.06-30.58l-.19-.6M66.81-27.56l-.19-1.2M66.81-27.56h-.06M68.09-22.48l.61-.4M64.14-20.88h-.06M64.08-20.67l-.66.32M73.19-19.75l-.08.75M73.61-23.08l.49.47M73.13-30.12v.89M75.16-32.02l.28.95M77-29.47l.8-.01M81.11-28.57l-.69-.51M83.67-27.49l-.55.39M60.04-3.44l-.23-.62M66.68-4.12l-.73-.04M63.95-4.81l.04-.58M64.62-7.93l-.06-.8M73.03-3.39l-1.15-.05M58.26-4.71l-1.16-.05M76.9-3.26l-.11.97M79.31-9.47l-.69-.24M82.9-6.33l-.02-.41M83.04-17.01l.67-.4M86.99-11.72l-.74-.61M85.82-8.02l-.64-.78M72.65-7.91l.65.29M62.06-17.3l-.51-.11M60.1-15.37l-.12-.58M57.3-13.21l-.17-.99M62.75-25.55l-.5-.22M66.63-14.29l.54.53M60.9-11.24l-.29-.43M83.84-12.87l-.12-.58M77.3-13l-.13.9M70.82-25.19l-.19-.76M61.73-30.94l.56-.18M58.98-11.91l-.5.24M65.26-10.31l-.5.25M60.33-27.12l-1.18.23M70.22-29.48l-1.19.46M60.04-19.23l.31.62M66.97-15.95l-.08-.79M62.75-11.13l-.02.86M59.63-6.8l-.13.55M64.22-1.92l-.52-.56M70.15-8.74l-.12-.67M74.51-27.81l.45.53M81.88-3.24l-.46-.52M73.03-15.57l.9-.65M78.91-22.08l.86-.71M83.81-20.86l-.1-.55M82.37-22.98l.54-.57M86.12-19.71l-.54-.77M85.9-16.74l.49-.46M82.85-14.69l-1.54-.45M74.76-11.22l-.29.34M77.45-6.77l-.72-.04M75.43-4.99l-.57.39M67.77-9.1l-.57.4M85.94-6l-.78.14M70.53-23h.05M68.5-24.48h-.06M78.35-19.61h-.05M68.48-26.98h.05M86.32-31.6h-.05M64.81-31.09h-.06M64.75-31.09l-.1-1.05M81.88-19.02h-.06M85.75-27.17h-.06M78.17-16.97h-.05M84.83-23h-.05M64.81-15.56h-.06M59.7-14.15h.06M58.36-22.79h-.05M58.01-20.05h-.06M58.39-17.87h-.05M61.94-4.6h-.05M67.57-2.84h-.05M65.58-6.32h-.05M79.18-2.34h-.05M71.29-11.99h-.05M73.79-6.38h-.05M69.5-4.17h-.05M57.65-9.7h.05M16.55-87.9v-.01M16.55-87.9l.05.26M24.53-87.76l-.03-.14M49.94-87.81h.05M69.97-87.5l.08-.4M59.04-87.9l.33.29M87.25-15.14l.55-.06M65.74-66.78l-.08-.62M71.28-69.86l.12.53M79.17-47.43l.7.24M84.78-47.48l.38.97M11.38-30.63l.64.57M66.87-69.56l1.19.35M67.69-62.44l.07.62M64.08-58.82h.06M63.42-58.29l.66-.32M67.84-57.59l-.57-.11M72.63-57.8l-.08.75M73.06-60.69l.48.46M75.91-62.5l-.09.59M73.13-68.17l.22-.59M77-67.33h.8M80.38-67.39l-.31-.28M82.3-64.92l.56-.4M60.04-41.6l-.23-.62M57.14-42.22l.68-.54M62.73-33.92l-.14.97M64.55-43.15l-.04.57M76.74-38.06l-.04.57M63.64-46.9l.06.81M69.83-36.74l.22-1.02M76.9-41.42l-.11.97M79.59-47.19l-.42-.24M83.18-44.36l.05.64M85.31-46.23h.06M83.47-36.57l.16-1.77M83.55-54.18l.16-.77M86.25-50.5l.74.62M83.69-46.29l1.47-.22M62.52-55.77l-.51-.11M57.28-52.06l.16.98M71.24-55.76h.05M62.25-63.94l.5.22M66.94-51.75l-.54-.53M70.09-39.55l.54.16M60.61-49.83l.29.43M83.72-51.61l.12.58M77.17-50.27l.13-.89M69.59-63.65l.36-.56M58.48-49.83l.5-.24M59.95-64.77l.38-.51M63.55-66.92l-.43.58M69.88-67.65l-1.18.46M60.35-56.77l-.31-.62M66.89-54.9l.08.78M62.75-49.3l-.02.86M58.88-44.88l.13-.54M63.7-40.64l.52.56M69.43-41.26l-.68.22M74.87-66.07l-.46-.53M81.88-41.4l-.46-.52M73.93-54.39l-.9.66M78.74-60.62l.7-.33M83.56-58.36l-.64.64M82.37-61.14l-.22-.3M85.9-54.9l.49-.47M81.31-53.3l.58.15M73.8-48.82l.3-.34M77.45-44.93l-.72-.05M75.43-43.16l-.57.4M84.58-33.23l-.47-.85M70.7-61.92h-.05M78.59-57.44h-.05M80.24-63.25h-.06M75.87-68.85h.05M67.81-65.48h.05M64.48-69.25h-.06M78.28-35.75h-.05M81.88-56.11h-.06M84.25-66.54h.05M82.31-76.84h.05M78.12-55.13h.05M82.1-51.3h.05M78.25-49.25h.05M78.82-45.65h-.06M35.5-79.39h.06M38.01-65.16h-.06M44.74-80.93h.05M86.5-38.45h-.06M71.61-35.63h-.05M66.09-36.4h-.05M55.47-31.6h.05M76.44-22.36h-.05M64.75-53.72h.06M58.31-60.95h.05M58.31-60.95l-.39-.73M58.18-69.33h.05M68.94-86.08H69M53.95-69.52H54M57.95-58.21h.06M63.65-38.32h-.05M23.57-51.04h-.05M19.86-52.39h.05M64.88-50.13h.06M65.53-44.48h.05M71.24-49.94h.05M86.81-45.46h-.06M72.83-37.81h-.05M57.37-47.56h-.06M1.12-26.51l-.63-.25M.49-15.2l.29-.04M83.32-38.8l1.48-.13M67.96-35.18l.06.64M67.65-35.64l1.48-.13M33.76-33.19l-.07-.64M34.86-34.42l-1.47.13M54.86-34.24l-.61.19M55.68-33.22l-.43-1.42M23.3-36.91l.06.64M22.99-37.37l1.48-.13M48.48-57.87l-1.49.67M26.45-47.45l-1.15.64M13.86-87.73l.19-.17M16.55-87.91h0M45.44-.75l.12.16M16.55-.69h.05M16.55-.67v-.02M16.55-.67l.01.08M24.48-.81l.04.22M49.99-.58h-.05M70.19-1.27l-.15.68M58.73-.94l.39.35M28.33-1.02l-.13.27M14.47-1.02l-.5.43M16.55-.67h.05M16.55-.67h0M9.74-2.42l-.96.36M57.65-84.97l-.05-1.53M69.81-42.87l-.38 1.61M57.3-60.28l1.01-.67M68.7-67.19l1.11.7M67.28-68.77l.78-.44M83.64-15.31l-.79.62M35.48-29.23l1.17-.29" style="fill:none;stroke:#ed1b2e;stroke-width:.52;stroke-linecap:round"/><path d="M40.64-72.86h-.06M40.64-72.86h-.06M67.2-83.97l.57-.4M75.54-71.25l-.82.63M75.66-84.28l-.31-.64M31.39-67.4l.76-.25M86.49-62.21h-.05M86.49-62.21h-.05M57.64-34.2h-.05" style="fill:none;stroke:#ed1b2e;stroke-width:.9;stroke-linecap:round"/><path d="M11.73-78.28h-.05" style="fill:none;stroke:#ed1b2e;stroke-width:.75;stroke-linecap:round"/><path d="M12.71-73.62h-.06M29.71-83.67l-.2.51" style="fill:none;stroke:#ed1b2e;stroke-width:.7;stroke-linecap:round"/><path d="M70.99-71.35h-.05M70.99-71.35h-.05" style="fill:none;stroke:#ed1b2e;stroke-width:.75;stroke-linecap:round"/><path d="M64.35-76.41h-.05M64.35-76.41h-.05M68.8-78.74h-.05" style="fill:none;stroke:#ed1b2e;stroke-linecap:round"/><path d="M85.75-86.89h-.06M85.36-44.11h-.05M81.36-72.86h-.05M12.37-21.23h-.06" style="fill:none;stroke:#ed1b2e;stroke-width:.7;stroke-linecap:round"/><path d="M15.58-35.45h-.05" style="fill:none;stroke:#ed1b2e;stroke-width:.75;stroke-linecap:round"/><path d="M11.73-58.16h-.05M29.15-1.57l-.67.22M20.98-19.66h-.05M20.98-19.66h-.05M20.55-21.78h-.05" style="fill:none;stroke:#ed1b2e;stroke-width:.7;stroke-linecap:round"/><path d="M34.99-55.76h-.05M34.99-55.76h-.05" style="fill:none;stroke:#ed1b2e;stroke-width:.75;stroke-linecap:round"/><path d="m30.39-63.1.41.46M71.29-17.6h-.05" style="fill:none;stroke:#ed1b2e;stroke-width:.7;stroke-linecap:round"/><path d="m66.14-21.5.64-.34" style="fill:none;stroke:#ed1b2e;stroke-width:.75;stroke-linecap:round"/><path d="M71.29-17.6h-.05M86.71-29.48h-.05M31.65-29.87h-.05M17.69-34.1h-.05M21.27-29.69h-.05M34.16-31.41h-.06M73.99-33.07l-1-.65M64.94-11.96h-.06M65.09-12.43h-.05M69.5-3.56h-.05M84.94-1.32h-.05" style="fill:none;stroke:#ed1b2e;stroke-width:.7;stroke-linecap:round"/><path d="m72.51-46.93.65.28M62.15-68.75l-.56.18" style="fill:none;stroke:#ed1b2e;stroke-linecap:round"/><path d="m70.15-47.57-.46-.52" style="fill:none;stroke:#ed1b2e;stroke-width:.7;stroke-linecap:round"/><path d="m80.93-38.23-.94.33" style="fill:none;stroke:#ed1b2e;stroke-width:.75;stroke-linecap:round"/><path d="m72.51-46.93.65.28M62.15-68.75l-.56.18" style="fill:none;stroke:#ed1b2e;stroke-linecap:round"/><path d="m70.15-47.57-.46-.52M86.61-67.12h-.05M86.81-80.88h-.06M80.07-65.38h-.06M78.05-62.5h-.06M76.31-73.56h-.05M73.79-44.55h-.05M73.79-44.55h-.05" style="fill:none;stroke:#ed1b2e;stroke-width:.7;stroke-linecap:round"/><path d="m80.35-54.89-.38-.68M84.2-49.02l-1.34.77" style="fill:none;stroke:#ed1b2e;stroke-width:.75;stroke-linecap:round"/><path d="M44.17-33.43h-.06M57.24-54.24h-.05" style="fill:none;stroke:#ed1b2e;stroke-width:.7;stroke-linecap:round"/></svg>