<svg xmlns="http://www.w3.org/2000/svg" xml:space="preserve" width="74.56" height="74.55" viewBox="1.86 -76.41 74.56 74.55"><path d="M1.86-76.41h74.56v74.55H1.86z" style="fill:none"/><path d="M65.76-65.26c3.5-3.16 7.23-9 8.95-11.15M72.28-76.41c-.7 1.06-1.3 2.1-1.45 2.36M59.46-61.1c4.9-2.5 6.06-8.73 10.43-11.7M59.26-62.6c3.16-4.32 5.87-7.9 8.75-10.9" style="fill:none;stroke:#000;stroke-width:.43"/><path d="M52.44-56.98c2.84-2.02 7.94-11.3 8.9-12.6a14.36 14.36 0 0 1 3.32-3.4" style="fill-rule:evenodd;clip-rule:evenodd;fill:none;stroke:#000;stroke-width:.43"/><path d="M64.3-76.41c-1.75 1.93-4.88 6.07-6.11 8.53-1.36 2.71-4.86 3.8-6.22 6.9M51.9-63.34c2.7-3.16 3.5-8.93 7.34-12.24M55.42-73.49c-.97 1.4-1.43 2.42-2.18 3.42M40.16-63.98c1.05-.66 2.06-2.24 3.37-4.47 1.18-2 4.02-5.92 5.41-7.96M69.96-58.1c1.57-1.84 3.15-6.5 4-8.07.34-.63 1.31-1.77 2.46-3.2M76.42-75.11c-.17.26-.35.5-.56.73-1.05 1.18-4.2 4.8-4.85 5.71M61.43-59.09c2.56-4.13 6.1-4.72 9.58-9.58M75.34-64.73c.37-.6.73-1.1 1.08-1.54M70.42-76.41c-.65.99-1.49 1.95-2.4 2.9M55.91-68.14c1.8-1.61 3.72-5.47 5.93-8.27M64.27-73.7a18.68 18.68 0 0 0 3.49-2.71M76.42-72.77c-.54.89-.93 1.62-1.48 2.35M74.42-56.72c-.92 1.05-3.99 4.65-5.08 6.21-1.07 1.54-4.24 6.82-5.95 7.87M69.73-53.82a34.42 34.42 0 0 0-5.42 7.47c-1.57 3.02-4 4.72-5.31 5.9M64.97-50.62c2.3-4.27 6.74-6.19 10.94-13.02M71.62-64.07c-1.05 1.18-2.21 5.86-5.08 8.57M69.73-47.78c2.63-2.54 4.55-4.85 5.04-6.14.33-.88.98-1.94 1.65-2.9M59.32-51.46a24.5 24.5 0 0 1-3.6 5.9c-1.38 1.57-1.51 2.62-2.17 4.06M59.72-53.31c.66-1.31 1.97-4.4 3.87-5.97 1.9-1.58 2.76-2.5 3.61-3.42M59.78-56.07c-1.83 1.9-6.03 5.84-7.21 8.08-1.19 2.23-3.48 5.56-4.65 7.73M45.76-38.26c.59-1.57 1.27-4.53 2.58-6.04a30.23 30.23 0 0 0 2.37-2.97M45.59-42.26c.65-1.3 1.09-2.83 1.86-3.77 1.24-1.5 3.41-3.01 4.72-5.05 1.31-2.03 3.02-3.8 3.55-4.46M50.66-60.71c-1.05 1.18-1.64 3.86-2.82 6.74-1.18 2.9-4.4 5.91-5.77 7.16 0 0-1.02 1.08-1.61 2-.6.92-1.02 2.23-1.12 2.66M61.82-47.62c.33-.46 1.25-2.67 1.77-3.46 1.14-1.71 2.7-6.5 3.48-8.53.79-2.03 4.6-6.43 5.84-8M54.93-61.97c-1.25 1.5-3.87 3.87-4.4 5.64-.52 1.77-.92 2.89-1.24 3.35M58.47-61.45a19.37 19.37 0 0 0-3.87 4.6c-.92 1.64-2.37 3.12-5 6.35M56.52-54.7c1.52-1.99 1.46-2.27 1.43-2.22.65-1.13 1.2-1.67 2.5-3.03M50.72-68.46c-1.08 1.28-2.45 3.74-3.53 6.55-1.12 2.9-3.77 6.48-4.6 8.98M52.57-69.13c-.66 1.84-1.45 4.14-2.9 6.43a30.44 30.44 0 0 0-3.01 6.96c-.4 1.44-3.87 6.4-5.9 7.98M39.15-75.12c.26-.41.49-.85.69-1.3M72.76-57.25c.77-.85 2.88-2.25 3.66-2.76M76.42-52.2c-2.88 2.98-6.8 8.11-6.8 8.11M55.47-73.53c.57-.81 1.3-1.75 2.37-2.88M55.6-76.41c-.83 1.05-2.2 2.52-3.45 3.87l-.1.08c-1.24 1.34-2.92 2.74-3.23 3.28-.7 1.23-2.19 4.97-4.6 6.9M53.6-76.41c-.61.73-1.25 1.55-1.63 2.17M46.82-69.81c1.05-.99 2.66-3.43 2.66-3.43.9-1.22 1.48-2.26 1.85-3.17M29.45-66.9c4.09-2.29 6.25-7.37 7.97-9.51M35-76.41c-.7 1.06-1.3 2.1-1.45 2.36M22.17-61.1c4.9-2.5 6.06-8.73 10.43-11.7M22.57-63.28c1.56-4.16 5.28-7.22 8.16-10.22" style="fill:none;stroke:#000;stroke-width:.43"/><path d="M15.09-57.3c2.84-2.01 8-10.97 8.96-12.29a17.26 17.26 0 0 1 3.6-3.77" style="fill-rule:evenodd;clip-rule:evenodd;fill:none;stroke:#000;stroke-width:.43"/><path d="M27.01-76.41c-1.75 1.93-4.88 6.07-6.1 8.53a15.51 15.51 0 0 1-3.26 4.27M13.71-61.83c4.03-2.54 3.78-9.9 8.24-13.75M6.82-62.35c2.4-1.93 3.76-5.34 4.46-6.57.31-.54 1.23-2.83 2.48-4.17M2.88-63.98c1.05-.66 2.05-2.24 3.37-4.47 1.18-2 4.02-5.92 5.4-7.96M33.78-60.36c1.43-2.63 2.04-4.24 2.9-5.81.33-.63 1.3-1.77 2.45-3.2h.01c1.63-2.01 3.62-4.58 4.68-7.04M24.14-59.09c2.56-4.13 6.1-4.72 9.58-9.58.66-.91 3.8-4.53 4.86-5.7.2-.23.39-.48.56-.74M38.05-64.73c.37-.6 1.1-1.54 1.1-1.54 2.1-2.64 4.03-3.16 6.33-8.5M1.86-69.37c1.63-2.01 3.61-4.58 4.68-7.04M1.86-66.27c2.11-2.64 4.03-3.16 6.33-8.5M39.13-45.94c-1.25 1.14-1.32 2.24-2.72 3.4-1.5 1.24-3 2.97-3 2.97l-.27.44M33.14-76.41c-.65.99-1.5 1.95-2.41 2.9M30.48-39.13c3-2.87 5.96-6.8 8.66-9.71.85-.91 1.68-1.72 2.47-2.37M19.09-67.99c1.56-1.88 3.6-6.05 5.47-8.42M26.98-73.7a18.75 18.75 0 0 0 3.5-2.71M1.86-72.78c.6-.97 1.39-2.12 2.76-3.63M37.66-70.42c.54-.72.93-1.46 1.47-2.35l.02-.01c.6-.97 1.38-2.12 2.76-3.63M5.9-45.9c-.53.73-1.51 2.3-1.78 3.09-.26.79-.46 1.31-.46 1.31-.39.65-.7 1.5-1.1 2.37M37.97-56.86c-.92 1.05-4.7 4.8-5.91 6.35-1.17 1.47-4.25 6.83-5.95 7.88M33.09-54.05c-1.44 1.44-4.49 4.68-6.06 7.7-1.58 3.02-3.08 4.14-4.4 5.33M27.68-50.62c2.3-4.27 6.71-5.86 10.91-12.68M32.9-61.3c-.73 1.57-1.2 3.49-2.81 5.44M33.2-49.03c2.7-2.3 2.92-2.73 3.83-3.77.8-.94 1.39-1.66 2.06-2.63l.75-1.37c.79-1.14 2.34-3 2.75-3.46M3.88-59.44c-.4.46-1.23 1.48-2.02 2.61M22.3-51.4a25.12 25.12 0 0 1-3.87 5.83c-1.38 1.58-1.5 2.63-2.17 4.07M22.63-52.85c.66-1.31 1.97-4.4 3.87-5.97 1.9-1.58 2.76-2.5 3.61-3.42M22.5-56.07c-1.84 1.9-6.04 5.84-7.22 8.08-1.18 2.23-3.65 6.15-5.02 8.73M8.42-38.76c.6-1.57 1.33-4.03 2.64-5.54a30.46 30.46 0 0 0 2.36-2.97M7.76-40.93c.65-1.3 1.63-4.16 2.4-5.1 1.25-1.5 3.68-2.8 5-4.84 1.3-2.03 2.81-3.67 3.34-4.33M12.85-59.8c-1.05 1.17-1.11 2.95-2.3 5.83-1.18 2.9-4.4 5.9-5.77 7.16 0 0-1.02 1.08-1.6 2-.6.92-1.03 2.23-1.12 2.65M24.53-47.62c.33-.46 1.25-2.67 1.78-3.46 1.14-1.71 2.69-6.5 3.47-8.53.8-2.03 4.6-6.43 5.84-8M16.86-61.96c-1.25 1.51-3.09 3.86-3.61 5.63-.53 1.77-.92 2.89-1.25 3.35M21.65-62.05a24.66 24.66 0 0 0-4.34 5.2c-.91 1.64-3.05 3.42-5.39 7.42M19.87-55.87c.66-1.13 2.6-3.39 3.9-4.74M14.43-70.18c-1.11 1.3-3.41 5.39-4.53 8.27-1.12 2.9-3.28 6.57-5.32 8.2M15.76-69.43a37.65 37.65 0 0 1-3.37 6.74 30.44 30.44 0 0 0-3.02 6.95c-.4 1.45-2.5 4.27-4.52 5.84M1.86-75.12c.27-.41.49-.85.7-1.3M8.3-68.73c-.44.65-1.95 4.07-2.67 5.05-.72.98-1.87 2.4-3.47 3.48l-.3.19M34.9-55.93c.78-.85 3.46-3.57 4.23-4.08h.01l.3-.2c1.6-1.07 2.76-2.49 3.48-3.47.72-.98 2.78-3.86 3.2-4.51M31.26-42.1s5-7.12 7.87-10.1h.01c.48-.5.93-.94 1.33-1.28.96-.84 3.36-5.38 4.95-7.61M2.19-46.22c-.12.1-.23.18-.33.28M1.86-48.84c.85-.91 1.67-1.72 2.46-2.37M6.8-60.53c-1.6 2.23-2.65 6.2-3.62 7.04-.4.35-.84.79-1.32 1.28M20.55-76.41a25.73 25.73 0 0 0-2.37 2.88l-.04.04c-.98 1.4-1.44 2.42-2.18 3.43M18.3-76.41c-.81 1.05-2.18 2.52-3.44 3.87l-.62.74M16.32-76.41c-.62.73-1.26 1.55-1.63 2.17M9.54-69.81c1.05-.99 2.66-3.43 2.66-3.43.9-1.22 1.47-2.26 1.85-3.17M67.28-29.76c3.7-3.11 5.7-7.23 7.43-9.37.21-.27.42-.5.63-.66M75.34-2.52c-.2.17-.42.4-.63.66M70.83-36.77a52.1 52.1 0 0 1 1.8-2.89s1.3-1.64 1.92-2.03M59.46-23.82c4.9-2.5 6.77-8.56 10.43-11.7M59.85-26.01a68.44 68.44 0 0 1 8.16-10.21" style="fill:none;stroke:#000;stroke-width:.43"/><path d="M52.44-19.71c2.84-2.01 7.94-11.29 8.9-12.6 1.01-1.38 2.02-2.07 3.5-3.14" style="fill-rule:evenodd;clip-rule:evenodd;fill:none;stroke:#000;stroke-width:.43"/><path d="M51.8-23.37c2-3.06 5.03-4.52 6.39-7.23 1.23-2.46 4.36-6.6 6.1-8.53.19-.2 1.76-1.86 1.91-2 0 0 2.45-3.26 3-4.38M65.14-4.75c-1.17.5-2.26 1.58-3.3 2.89M51.7-25.9c3.59-3.54 3.5-8 7.27-11.65M39.92-25.43c1-1.66 3.2-3.93 4.5-6.16 1.18-2 5.32-9.19 5.92-10.17M71.13-22.58c1.58-1.84 1.98-4.74 2.83-6.32.34-.62 1.31-1.77 2.46-3.2M76.42-37.84c-.17.26-.35.51-.56.74-1.05 1.18-4.2 4.8-4.85 5.71M61.43-21.81c2.56-4.13 6.1-4.72 9.58-9.58M75.34-27.45c.37-.6.73-1.1 1.08-1.54M72.28-1.86l.35-.53s1.3-1.64 1.92-2.03M76.42-8.67c-1.25 1.15-1.33 2.24-2.72 3.4-1.51 1.25-3 2.97-3 2.97l-.28.44M68.01-36.23a21.29 21.29 0 0 0 2.7-3.34s1.48-1.73 2.99-2.98c1.4-1.15 1.47-2.25 2.72-3.4M67.76-1.86c3-2.86 5.96-6.8 8.66-9.7M64.3-1.86l.5-.53s1.22-.91 1.78-2.03a72.8 72.8 0 0 1 3.77-6.17M55.59-29.43c1.57-2.27 5.1-8.38 7.32-11.18M64.27-36.42a18.67 18.67 0 0 0 3.49-2.71c3-2.87 5.96-6.8 8.66-9.7M57.82-1.86l.67-.7M62.94-10.06c-1.71 2.69-5.45 6.17-6.17 6.89-.73.72-.68.61-.68.61-.13.2-.3.44-.51.7M65.06-20.85a33.14 33.14 0 0 0-4.3 8.31c-.84 2.56-2.42 4.05-4 5.89-1.57 1.84-1.63 2.75-2.16 3.48-.52.72-.48.7-.48.7l-.53.6M48.94-1.86l.41-.61s.4-1.03.98-2.01M48.56-14.26c-.32.78-2.82 3.6-3.41 4.72-.59 1.12-1.05 4.27-1.31 5.05-.26.8-.93 1.57-.93 1.57-.37.37-.7.73-1.01 1.06M76.42-35.5c-.54.9-.93 1.63-1.48 2.36M44.03-2.38l-.2.52M43.18-8.62c-.52.72-1.5 2.3-1.77 3.08-.26.8-.46 1.32-.46 1.32-.4.64-.7 1.5-1.1 2.36M74.42-19.45c-.92 1.05-4.29 4.5-5.08 6.21-.78 1.71-4.24 6.83-5.95 7.88M69.73-16.37a32.77 32.77 0 0 0-5.42 7.3c-1.57 3.01-4 4.72-5.31 5.9M64.97-13.34c2.3-4.27 6.74-6.2 10.94-13.02M71.62-26.8c-1.05 1.18-2.15 4.83-4.16 7.8M69.6-11.13c2.98-2.2 4.68-4.23 5.17-5.52.33-.87.98-1.93 1.65-2.9M59.93-14.53c-.85 1.96-2.83 4.66-4.21 6.24-1.38 1.57-1.51 2.62-2.17 4.07M59.72-16.04c.66-1.3 1.97-4.4 3.87-5.97 1.9-1.57 2.76-2.5 3.61-3.4M59.78-18.8c-1.83 1.91-6.03 5.85-7.21 8.08-1.19 2.23-2.7 4.99-4.4 6.23M45.94-2.45c.59-1.57 1.1-3.06 2.4-4.57A30.23 30.23 0 0 0 50.71-10M45.2-5a22.2 22.2 0 0 1 2.25-3.75c1.24-1.5 3.41-3.02 4.72-5.05 1.31-2.04 3.02-3.8 3.55-4.46M50.14-22.53c-1.05 1.18-1.12 2.95-2.3 5.84-1.18 2.89-4.4 5.9-5.77 7.15 0 0-1.02 1.08-1.61 2-.6.92-1.02 2.23-1.12 2.66M61.82-10.35c.33-.46 1.25-2.67 1.77-3.45 1.14-1.72 2.7-6.5 3.48-8.53.79-2.04 4.6-6.44 5.84-8.01M54.93-24.7c-1.25 1.51-3.87 3.88-4.4 5.65-.52 1.77-.92 2.89-1.24 3.34M58.47-24.17c-1.18.98-3.74 3.7-4.66 5.35-.92 1.64-1.67 2.45-4.3 5.69M56.6-17.68c.65-.84.63-.72 1.35-1.96.65-1.14.94-1.42 2.24-2.77M52.09-33.26a41.8 41.8 0 0 0-4.9 8.63c-1.12 2.89-2.92 5.28-4.15 8.08M52.84-31.25c-.65 1.84-1.72 3.53-3.16 5.83a30.42 30.42 0 0 0-3.02 6.96c-.4 1.44-4.04 6.27-6.07 7.85" style="fill:none;stroke:#000;stroke-width:.43"/><path d="M40.95-4.22c-.4.64-.71 1.5-1.11 2.36M72.76-19.97c.77-.85 2.88-2.26 3.66-2.77M76.42-14.93c-2.88 2.99-6.8 8.12-6.8 8.12M57.82-14.4c-2.65 3.19-5.1 7.2-5.32 7.82-.46 1.28-.3 2.65-1.18 4.72M53.24-32.8c.75-1 1.21-2.01 2.18-3.41l.05-.05c.57-.8 1.3-1.74 2.37-2.87h-.02l.67-.7M44.58-24.57c1.79-2.91 4.12-6.3 4.81-7.52.31-.54 1.42-1.75 2.66-3.1l.1-.08c1.25-1.35 2.62-2.82 3.45-3.86h-.02c.2-.27.46-.6 1.19-1.32.72-.72 4.46-4.2 6.17-6.89M51.98-36.97c.37-.61 1.01-1.44 1.63-2.17h-.02l.53-.6s-.04.01.48-.7c.53-.73.6-1.65 2.17-3.49 1.57-1.83 3.15-3.32 4-5.88a33.09 33.09 0 0 1 4.29-8.31M46.82-32.54a26.1 26.1 0 0 0 2.66-3.42c.9-1.23 1.48-2.27 1.85-3.18.86-2.06.71-3.44 1.17-4.72.66-1.84 3.67-5.84 5.32-7.8M29.45-29.62c4.09-2.3 7.42-8.16 9.14-10.3M38.05-2.52c-.2.17-.41.4-.63.66M33.55-36.77c.15-.26.53-.9 1.23-1.96.1-.17 1.12-1.2 1.24-1.37l1.84-1.19M23-24.33c4.42-5.1 5.76-7.43 10.09-10.93" style="fill:none;stroke:#000;stroke-width:.43"/><path d="M15.15-19.71c2.84-2.01 7.94-11.29 8.9-12.6.96-1.31 3.43-3.06 4.87-4.12" style="fill-rule:evenodd;clip-rule:evenodd;fill:none;stroke:#000;stroke-width:.43"/><path d="M15.13-23.82c1.35-3.1 4.42-4.07 5.77-6.78 1.23-2.46 4.36-6.6 6.11-8.53l.5-.53s1.22-.92 1.78-2.03a72.78 72.78 0 0 1 3.78-6.17M27.86-4.75c-1.17.5-2.27 1.58-3.3 2.89M13.73-24.5c3.33-3.36 4.46-10.16 8.93-14M5.76-23.26a84.94 84.94 0 0 0 5.52-8.16c.3-.54 2.24-2.42 3.49-3.76M2.88-26.71c1.05-.66 2.05-2.23 3.37-4.46 1.18-2 4.02-5.92 5.4-7.96l.42-.62s.39-1.02.98-2M33.86-22.58c1.57-1.84 1.96-4.74 2.81-6.32.34-.62 1.31-1.77 2.46-3.2h.01c1.63-2 4.72-5.2 5.78-7.66M24.14-21.81c2.56-4.13 6.1-4.72 9.58-9.58M38.05-27.45c.37-.6.73-1.1 1.09-1.54 2.12-2.64 4.04-3.17 6.34-8.5M1.86-32.1c1.63-2 3.61-4.58 4.68-7.03M1.86-29c2.11-2.63 4.03-3.16 6.33-8.5M35-1.86l.34-.53s1.3-1.64 1.92-2.03M39.13-8.67c-1.25 1.15-1.32 2.24-2.72 3.4-1.5 1.25-3 2.97-3 2.97-.08.15-.17.3-.27.44M33.14-39.13c-.65.98-1.5 1.94-2.41 2.9-2.88 3-6.6 6.06-8.16 10.22M30.48-1.86c3-2.86 5.96-6.8 8.66-9.7.85-.92 2.6-3.1 3.39-3.74M27.01-1.86l.5-.53s1.22-.91 1.78-2.03c.56-1.12 4.56-6.48 5.11-7.13M19.16-30.9c1.66-2.21 3.19-5.44 5.4-8.23 1.03-1.31 2.13-2.39 3.3-2.9M26.98-36.42a18.74 18.74 0 0 0 3.5-2.71M20.53-1.86l.68-.7M25.65-10.06c-1.7 2.69-5.45 6.17-6.17 6.89-.72.72-.68.61-.68.61-.13.2-.3.44-.5.7M27.77-20.85a33.07 33.07 0 0 0-4.29 8.31c-.85 2.56-2.43 4.05-4 5.89-1.57 1.84-1.64 2.76-2.17 3.48-.52.72-.48.7-.48.7l-.53.61M11.65-1.86l.41-.61s.4-1.03.99-2.01M11.28-14.26c-.33.78-2.83 3.6-3.42 4.72-.59 1.12-1.05 4.27-1.3 5.05-.27.8-.94 1.57-.94 1.57-.37.37-.7.73-1 1.06M1.86-35.5a23.2 23.2 0 0 1 2.76-3.63c.3-.34.63-.7 1-1.06 0 0 .67-.78.93-1.57s.72-3.94 1.31-5.05c.6-1.12 3.09-3.94 3.42-4.73M37.66-33.14c.54-.73.93-1.47 1.47-2.35l.02-.02a23.2 23.2 0 0 1 2.76-3.62h-.01c.3-.34.64-.7 1-1.06 0 0 .68-.78.94-1.57.26-.79.72-3.94 1.31-5.05.6-1.12 3.08-3.94 3.41-4.73M6.75-2.38l-.21.52M5.9-8.62c-.53.72-1.51 2.3-1.78 3.08-.26.8-.46 1.32-.46 1.32-.39.64-.7 1.5-1.1 2.36M37.92-20.1c-.73.84-4.94 4.87-5.86 6.87-.79 1.7-4.25 6.82-5.95 7.87M33.78-18.05c-1.45 1.44-5.18 5.95-6.75 8.97-1.58 3.02-4 4.73-5.32 5.9M27.68-13.34c2.3-4.27 6.74-6.2 10.94-13.02M33.86-25.47c-1.05 1.18-1.7 4.1-4.15 7.3M32.32-11.13c1.95-1.44 4.48-4.88 5.2-5.6-1.37 1.37.71-.67 1.38-1.63l1.07-1.13c.79-1.14 1.55-2.98 1.95-3.44M3.88-22.16c-.4.46-1.23 1.47-2.02 2.61M21.9-14.79c-.84 1.97-2.1 4.92-3.47 6.5-1.38 1.57-1.5 2.62-2.17 4.07M22.43-16.04c.66-1.3 1.97-4.4 3.88-5.97 1.9-1.57 2.75-2.5 3.6-3.4M22.5-18.8c-1.84 1.91-6.04 5.85-7.22 8.08-1.18 2.23-2.7 4.99-4.4 6.23M8.65-2.45c.6-1.57 1.1-3.06 2.4-4.57A30.46 30.46 0 0 0 13.43-10M7.91-5c.66-1.3 1.48-2.82 2.25-3.75 1.25-1.5 3.41-3.02 4.73-5.05 1.3-2.04 3.01-3.8 3.54-4.46M12.85-22.53c-1.05 1.18-1.11 2.95-2.3 5.84-1.18 2.89-4.4 5.9-5.77 7.15 0 0-1.02 1.08-1.6 2-.6.92-1.03 2.24-1.12 2.66M24.53-10.35c.33-.46 1.25-2.67 1.78-3.45 1.14-1.72 2.69-6.5 3.47-8.53.8-2.04 4.6-6.44 5.84-8.01M17.64-24.7c-1.24 1.51-3.87 3.88-4.4 5.65-.52 1.77-.91 2.89-1.24 3.34M21.19-24.17a19.35 19.35 0 0 0-3.88 4.6 17.53 17.53 0 0 1-5.7 6.42M18.63-16.54c.64-.84 1.3-1.86 2.03-3.1a22.5 22.5 0 0 1 3.15-3.86M14.09-32.1c-.91 1.44-3.53 6.23-4.9 9.17-1.33 2.8-1.91 5.1-3.95 6.73M15.66-31.33c-.66 1.83-1.82 3.61-3.27 5.91a30.42 30.42 0 0 0-3.02 6.96c-.39 1.44-2.49 4.26-4.52 5.84M1.86-37.84c.27-.42.49-.86.7-1.3" style="fill:none;stroke:#000;stroke-width:.43"/><path d="M3.66-4.22c-.4.64-.71 1.5-1.1 2.36M8.3-31.46c-.44.66-1.95 4.07-2.67 5.06-.72.98-1.87 2.4-3.47 3.48l-.3.19M35.47-19.97c.78-.85 2.89-2.26 3.66-2.77h.02l.3-.19c1.6-1.08 2.75-2.49 3.47-3.47.72-.99 2.91-3.7 3.34-4.36M32.34-6.81s3.92-5.13 6.8-8.12c.48-.5.93-.93 1.33-1.28.96-.84 2.01-4.81 3.6-7.04M2.19-8.95l-.33.28M1.86-11.56c.85-.92 1.67-1.73 2.46-2.37M6.9-22.67c-1.59 2.23-2.75 5.62-3.72 6.46-.4.34-.84.78-1.32 1.28M20.53-14.4c-1.64 1.98-4.66 5.98-5.32 7.82-.45 1.28-.3 2.65-1.17 4.72M21.42-40.1c-1.06 1.14-2.22 2.88-2.79 3.7l-.7.87c-.97 1.4-1.23 1.74-1.97 2.74M14.86-35.27c1.25-1.35 3.43-3.86 3.43-3.86.2-.27 5.65-5.52 7.36-8.2M14.69-36.97c.37-.61 1.01-1.44 1.63-2.17h-.02l.53-.6s-.04.01.49-.7c.52-.73.59-1.65 2.16-3.49 1.57-1.83 3.15-3.32 4-5.88a33.06 33.06 0 0 1 4.3-8.31M9.54-32.54a26.1 26.1 0 0 0 2.66-3.42c.9-1.23 1.47-2.27 1.85-3.18h-.01c.87-2.06.72-3.44 1.17-4.72.66-1.84 3.68-5.84 5.32-7.8M43.18-45.9c-.52.73-1.5 2.3-1.77 3.09 0 0-.46 1.31-.8 2.38a11.79 11.79 0 0 1-1.47 2.6v-.01c-.17.26-.36.51-.56.74-1.06 1.18-4.2 4.8-4.86 5.71" style="fill:none;stroke:#000;stroke-width:.43"/></svg>