<svg xmlns="http://www.w3.org/2000/svg" xml:space="preserve" width="37.8" height="37.8" viewBox="0.18 -37.98 37.8 37.8"><path d="M.18-37.98h37.8v37.8H.18z" style="fill:none"/><path d="M17.62-34.63a21.59 21.59 0 0 0-2.17-3.35M23.68-37.98c.3.66.58 1.36.82 2.1 1.37 4.26 3.5 16.76 12 21.76M1.4-37.98c1.87 1.13 3.67 2.03 4.85 2.98M15.12-30c-2.7-2.6-5.18-4.5-7.4-7.98M22.75-20.25c-.38-.75-.88-1.75-1.88-5.13s-6.62-9.5-8.75-11.5M27.51-37.98A88.1 88.1 0 0 1 29.25-33c1.25 4 4.12 8 5.87 9.5M33.25-35.38c-.6-.6-1.38-1.49-2.19-2.6M35.37-37c.9.67 1.78 1.4 2.61 2.18M14.12-18C9.78-22.78 5.62-29.82.18-34.86M3.75-19.17s.33 1.5 1.67 6C6.75-8.67 12-3.67 12-3.67c1.2.99 2.37 2.14 3.43 3.49M18.12-8.43c2.06 2.68 4.12 5.1 5.55 8.25M.18-.94c.4.27.8.52 1.19.76M6.12-3.05A26.93 26.93 0 0 0 7.7-.18M27.5-.18c-.98-2.59-2.05-5-2.88-6.37M25.75-15.55A45.8 45.8 0 0 1 33-5.93 14.77 14.77 0 0 0 37.98-.9M32.12-32.75 34-30.87a25.11 25.11 0 0 1 3.98 4.93M20-36.88c.5 1.26 1 3.63 1 3.63 1.25 2 3.75 11.38 6.12 14.38s9 10.25 9 10.25M35.37-20.5c.63.75 1.65 2.05 2.61 3.5M3.25-20.75c-1.17-2.05-2.1-3.74-3.07-5.27M5.75-4.5c-.13-.63-2.5-5.5-3.25-8.13a17.63 17.63 0 0 0-2.32-4.45M1.62-29.13C7.16-24.57 6-16.3 11.75-9.13c5.3 6.63 7.62 7.5 7.62 7.5M7.75-33.5s4.12 4.38 5.87 7.88 7.25 13.75 9.88 17.5M10.25-18.25c1.83 2.33 1.33 2.5 6.66 8.67M17.41-26s2.5 6.5 3.5 7.67c1 1.16 2.21 3.15 2.21 3.15 1.63 1.25 3.63 6.25 5 9.75a24.27 24.27 0 0 0 2.92 5.25M36.75-8c.44.48.85.94 1.23 1.4M4.37-1.5C2.81-3.06 1.65-4.73.18-6.5" style="fill:none;stroke:#000;stroke-width:.43"/></svg>