<svg xmlns="http://www.w3.org/2000/svg" xml:space="preserve" width="37.8" height="37.8" viewBox="0.25 -38.05 37.8 37.8"><path d="M.25-38.05h37.8v37.8H.25z" style="fill:none"/><path d="M.25-38.05h37.8v37.8H.25z"/><path d="M17.69-34.69a21.59 21.59 0 0 0-2.18-3.36M23.74-38.05c.3.67.58 1.37.82 2.11 1.38 4.25 3.5 16.75 12 21.75M1.47-38.05C3.34-36.92 5.14-36 6.3-35.06M15.19-30.06c-2.71-2.61-5.18-4.5-7.4-7.99M22.81-20.31c-.37-.75-.87-1.75-1.87-5.13s-6.63-9.5-8.75-11.5M27.58-38.05a88.1 88.1 0 0 1 1.73 4.99c1.25 4 4.13 8 5.88 9.5M33.31-35.44c-.6-.6-1.38-1.5-2.18-2.6M35.44-37.06c.9.67 1.77 1.4 2.6 2.18M14.19-18.06C9.84-22.84 5.69-29.88.25-34.93M3.81-19.23s.34 1.5 1.67 6 6.58 9.5 6.58 9.5c1.21.99 2.38 2.14 3.44 3.48M18.19-8.49c2.06 2.68 4.11 5.1 5.54 8.24M.25-1c.4.27.79.52 1.18.75M6.19-3.11A26.93 26.93 0 0 0 7.77-.25M27.57-.25c-.99-2.58-2.05-5-2.88-6.36M25.81-15.61A45.8 45.8 0 0 1 33.06-6a14.77 14.77 0 0 0 4.99 5.03M32.19-32.81l1.87 1.87A25.11 25.11 0 0 1 38.05-26M20.06-36.94c.5 1.25 1 3.63 1 3.63 1.25 2 3.75 11.37 6.13 14.37s9 10.25 9 10.25M35.44-20.56c.62.74 1.64 2.05 2.6 3.5M3.31-20.81c-1.17-2.05-2.1-3.74-3.06-5.27M5.81-4.56c-.12-.63-2.5-5.5-3.25-8.13a17.66 17.66 0 0 0-2.31-4.45M1.69-29.19c5.54 4.54 4.38 12.82 10.12 20 5.3 6.63 7.63 7.5 7.63 7.5M7.81-33.56s4.13 4.37 5.88 7.87 7.25 13.75 9.87 17.5M10.31-18.31c1.83 2.33 1.33 2.5 6.67 8.66M17.48-26.06s2.5 6.5 3.5 7.66c1 1.17 2.2 3.16 2.2 3.16 1.63 1.25 3.63 6.25 5 9.75a24.27 24.27 0 0 0 2.93 5.24M36.81-8.06c.44.48.85.94 1.24 1.4M4.44-1.56C2.87-3.13 1.7-4.8.24-6.56" style="fill:none;stroke:#fff;stroke-width:.58"/></svg>