<svg xmlns="http://www.w3.org/2000/svg" xml:space="preserve" width="37.8" height="37.8" viewBox="2.16 -39.96 37.8 37.8"><path d="M2.16-39.96h37.8v37.8H2.16z" style="fill:none"/><path d="M19.6-36.6a21.59 21.59 0 0 0-2.17-3.36M25.66-39.96c.3.67.58 1.37.82 2.1 1.37 4.26 3.5 16.76 12 21.76M3.38-39.96c1.87 1.13 3.67 2.03 4.85 2.98M17.1-31.98c-2.7-2.6-5.18-4.5-7.4-7.98M24.73-22.23c-.38-.75-.88-1.75-1.88-5.12s-6.62-9.5-8.75-11.5M29.5-39.96a88.1 88.1 0 0 1 1.73 4.98c1.25 4 4.12 8 5.87 9.5M35.23-37.35c-.6-.6-1.38-1.5-2.19-2.61M37.35-38.98c.9.67 1.77 1.4 2.61 2.19M16.1-19.98C11.76-24.75 7.6-31.8 2.16-36.84M5.73-21.14s.33 1.5 1.66 6 6.59 9.49 6.59 9.49c1.2 1 2.37 2.15 3.43 3.49M20.1-10.4c2.06 2.67 4.12 5.1 5.55 8.24M2.16-2.91c.4.26.79.51 1.19.75M8.1-5.03a26.85 26.85 0 0 0 1.58 2.87M29.48-2.16c-.98-2.58-2.05-5-2.88-6.37M27.73-17.53a45.8 45.8 0 0 1 7.25 9.63 14.77 14.77 0 0 0 4.98 5.02M34.1-34.73l1.88 1.88a25.09 25.09 0 0 1 3.98 4.94M21.98-38.85c.5 1.25 1 3.62 1 3.62 1.25 2 3.75 11.38 6.12 14.38s9 10.25 9 10.25M37.35-22.48c.62.75 1.65 2.05 2.61 3.5M5.23-22.73c-1.17-2.04-2.1-3.74-3.07-5.26M7.73-6.48c-.13-.62-2.5-5.5-3.25-8.12a17.66 17.66 0 0 0-2.32-4.46M3.6-31.1c5.54 4.54 4.38 12.81 10.13 20 5.3 6.62 7.62 7.5 7.62 7.5M9.73-35.48s4.12 4.38 5.87 7.88 7.25 13.75 9.88 17.5M12.23-20.23c1.83 2.34 1.33 2.5 6.66 8.67M19.4-27.98s2.5 6.5 3.5 7.67 2.2 3.16 2.2 3.16c1.63 1.25 3.63 6.25 5 9.75a24.27 24.27 0 0 0 2.92 5.24M38.73-9.98c.44.48.85.95 1.23 1.41M6.35-3.48c-1.56-1.56-2.72-3.23-4.19-5" style="fill:none;stroke:#ec008c;stroke-width:.58"/></svg>