<svg xmlns="http://www.w3.org/2000/svg" xml:space="preserve" width="59.33" height="59.33" viewBox="2 -61.33 59.33 59.33"><path d="M2-61.33h59.33V-2H2z" style="fill:none"/><path d="m25.3-59.77.93-1.56M43.58-59.83l.97-1.5M6.34-60.2l1.4-1.13M35.24-59.67l.54-1.66M54.35-61.33l-1.3 1.13M15.77-60.56l1.53-.77M27.2-3.7 26.18-2M45.59-3.69 44.5-2M9.22-3.27 7.64-2M36.38-3.94 35.75-2M55.84-3.39 54.25-2M19.07-2.98 17.13-2M26.8-56.37l1.9 3.18M9.24-56.32l2 3.11M44.84-55.95l2.87 2.33M18.63-53.09l-1.14-3.52M52.61-53.21l1.76-3.26M3.57-53.56 2-54.35M38.78-53.98l-3.3-1.67M27.44-49.55l-1.89 3.17M45.84-49.54l-2.01 3.11M7.44-47.95 11-48.97M34.51-49.42l2.45 2.77M2-45.61l1.33 1.51M56.09-49.24l-2.79 2.43M16.21-49.62l2.21 2.98M35.94-33.82l-1.89 3.17M54.33-30.65l-1.75-3.26M17.74-30.81l-2.58-2.66M45.13-34.06l-1.15 3.51M26.36-33.29l-3.3 1.67M8.94-35.01l-1.9 3.18M27.75-41.66l1.9 3.18M9.04-41.99l2.88 2.33M20.54-41.15l-3.04 2.11M45.93-41.23l2.82 2.4M55.27-39.13l-1.15-3.52M2-36.26l.92-.57M39.66-41.61l-3 2.17M27.53-23.75l-1.9-3.18M9.88-23.49l-2-3.11M45.59-26.65l1.12 3.53M19.98-26.14l-1.09 3.54M54.83-25.85l-1.78 3.24M3.56-24.55 2-25.13M38.82-24.2l-3.3-1.67M26.8-15.97l1.89-3.17M2-15.2l1.1 1.56M43.83-15.23l2.01-3.11M11-18.12l-2.87 2.33M37.15-15.48l-2.42-2.79M56.09-18.04l-2.79 2.43M19.06-15.51l-2.53-2.7M29.61-7.75l-1.9-3.18M9.04-10.49l2.88 2.33M19.55-7.63l-1.15-3.52M47.58-7.63l-1.14-3.52M55.27-7.63l-1.15-3.52M3.87-4.73 2-6.37M39.69-10.45l-3.24 1.79M59.68-55.22l1.65.83M60.3-46.88l1.03 1.18M59.19-34.87l2.14-1.34M59.5-25.83l1.83.67M60.39-16.66l.94 1.34M60.5-7.17l.83.73" style="fill:none;stroke:#000;stroke-width:.5"/><path d="M2.62-61.33V-2M3.79-61.33V-2M4.95-61.33V-2M6.11-61.33V-2M7.28-61.33V-2M8.44-61.33V-2M9.6-61.33V-2M10.77-61.33V-2M11.93-61.33V-2M13.1-61.33V-2M14.26-61.33V-2M15.42-61.33V-2M16.59-61.33V-2M17.75-61.33V-2M18.91-61.33V-2M20.08-61.33V-2M21.24-61.33V-2M22.4-61.33V-2M23.57-61.33V-2M24.73-61.33V-2M25.89-61.33V-2M27.06-61.33V-2M28.22-61.33V-2M29.39-61.33V-2M30.55-61.33V-2M31.71-61.33V-2M32.88-61.33V-2M34.04-61.33V-2M35.2-61.33V-2M36.37-61.33V-2M37.53-61.33V-2M38.7-61.33V-2M39.86-61.33V-2M41.02-61.33V-2M42.19-61.33V-2M43.35-61.33V-2M44.51-61.33V-2M45.68-61.33V-2M46.84-61.33V-2M48.01-61.33V-2M49.17-61.33V-2M50.33-61.33V-2M51.5-61.33V-2M52.66-61.33V-2M53.82-61.33V-2M54.99-61.33V-2M56.15-61.33V-2M57.31-61.33V-2M58.48-61.33V-2M59.64-61.33V-2M60.8-61.33V-2" style="fill:none;stroke:#000;stroke-width:.3"/></svg>