<?xml version="1.0" encoding="utf-8"?>
<svg xmlns="http://www.w3.org/2000/svg" version="1.1" x="0px" y="0px" xml:space="preserve" width="22.449" height="25.921" viewBox="1.436 -26.775 22.449 25.921">
	<g>
		<rect x="1.436" y="-26.775" style="fill:none;" width="22.449" height="25.921"/>
		<rect x="1.436" y="-26.775" width="22.449" height="25.921"/>
		<rect x="1.436" y="-26.775" style="fill:none;" width="22.449" height="25.921"/>

			<line style="fill:none;stroke:#FFFFFF;stroke-width:1.7;stroke-linecap:round;" x1="20.1" y1="-24.986" x2="20.149" y2="-24.986"/>

			<line style="fill:none;stroke:#FFFFFF;stroke-width:1.7;stroke-linecap:round;" x1="12.913" y1="-25.299" x2="12.961" y2="-25.299"/>
		<line style="fill:none;stroke:#FFFFFF;stroke-width:1.7;stroke-linecap:round;" x1="5.1" y1="-24.986" x2="5.149" y2="-24.986"/>
		<line style="fill:none;stroke:#FFFFFF;stroke-width:1.7;stroke-linecap:round;" x1="1.35" y1="-26.799" x2="1.399" y2="-26.799"/>

			<line style="fill:none;stroke:#FFFFFF;stroke-width:1.7;stroke-linecap:round;" x1="1.788" y1="-23.361" x2="1.836" y2="-23.361"/>
		<line style="fill:none;stroke:#FFFFFF;stroke-width:1.7;stroke-linecap:round;" x1="9.1" y1="-23.361" x2="9.149" y2="-23.361"/>

			<line style="fill:none;stroke:#FFFFFF;stroke-width:1.7;stroke-linecap:round;" x1="16.35" y1="-22.861" x2="16.399" y2="-22.861"/>

			<line style="fill:none;stroke:#FFFFFF;stroke-width:1.7;stroke-linecap:round;" x1="20.1" y1="-20.924" x2="20.149" y2="-20.924"/>

			<line style="fill:none;stroke:#FFFFFF;stroke-width:1.7;stroke-linecap:round;" x1="20.538" y1="-17.111" x2="20.586" y2="-17.111"/>

			<line style="fill:none;stroke:#FFFFFF;stroke-width:1.7;stroke-linecap:round;" x1="15.975" y1="-18.736" x2="16.024" y2="-18.736"/>

			<line style="fill:none;stroke:#FFFFFF;stroke-width:1.7;stroke-linecap:round;" x1="12.6" y1="-20.736" x2="12.649" y2="-20.736"/>

			<line style="fill:none;stroke:#FFFFFF;stroke-width:1.7;stroke-linecap:round;" x1="7.975" y1="-18.861" x2="8.024" y2="-18.861"/>

			<line style="fill:none;stroke:#FFFFFF;stroke-width:1.7;stroke-linecap:round;" x1="4.663" y1="-20.861" x2="4.711" y2="-20.861"/>
		<line style="fill:none;stroke:#FFFFFF;stroke-width:1.7;stroke-linecap:round;" x1="1.85" y1="-18.736" x2="1.899" y2="-18.736"/>

			<line style="fill:none;stroke:#FFFFFF;stroke-width:1.7;stroke-linecap:round;" x1="5.225" y1="-16.174" x2="5.274" y2="-16.174"/>

			<line style="fill:none;stroke:#FFFFFF;stroke-width:1.7;stroke-linecap:round;" x1="12.35" y1="-16.174" x2="12.399" y2="-16.174"/>

			<line style="fill:none;stroke:#FFFFFF;stroke-width:1.7;stroke-linecap:round;" x1="16.975" y1="-15.049" x2="17.024" y2="-15.049"/>

			<line style="fill:none;stroke:#FFFFFF;stroke-width:1.7;stroke-linecap:round;" x1="19.913" y1="-12.424" x2="19.961" y2="-12.424"/>

			<line style="fill:none;stroke:#FFFFFF;stroke-width:1.7;stroke-linecap:round;" x1="13.663" y1="-12.424" x2="13.711" y2="-12.424"/>
		<line style="fill:none;stroke:#FFFFFF;stroke-width:1.7;stroke-linecap:round;" x1="9.1" y1="-14.174" x2="9.149" y2="-14.174"/>

			<line style="fill:none;stroke:#FFFFFF;stroke-width:1.7;stroke-linecap:round;" x1="5.475" y1="-11.861" x2="5.524" y2="-11.861"/>

			<line style="fill:none;stroke:#FFFFFF;stroke-width:1.7;stroke-linecap:round;" x1="1.288" y1="-14.236" x2="1.336" y2="-14.236"/>
		<line style="fill:none;stroke:#FFFFFF;stroke-width:1.7;stroke-linecap:round;" x1="0.85" y1="-9.799" x2="0.899" y2="-9.799"/>
		<line style="fill:none;stroke:#FFFFFF;stroke-width:1.7;stroke-linecap:round;" x1="1.85" y1="-5.549" x2="1.899" y2="-5.549"/>
		<line style="fill:none;stroke:#FFFFFF;stroke-width:1.7;stroke-linecap:round;" x1="4.725" y1="-7.861" x2="4.774" y2="-7.861"/>
		<line style="fill:none;stroke:#FFFFFF;stroke-width:1.7;stroke-linecap:round;" x1="4.85" y1="-3.299" x2="4.899" y2="-3.299"/>
		<line style="fill:none;stroke:#FFFFFF;stroke-width:1.7;stroke-linecap:round;" x1="9.1" y1="-6.486" x2="9.149" y2="-6.486"/>

			<line style="fill:none;stroke:#FFFFFF;stroke-width:1.7;stroke-linecap:round;" x1="10.163" y1="-10.299" x2="10.211" y2="-10.299"/>

			<line style="fill:none;stroke:#FFFFFF;stroke-width:1.7;stroke-linecap:round;" x1="13.225" y1="-7.861" x2="13.274" y2="-7.861"/>

			<line style="fill:none;stroke:#FFFFFF;stroke-width:1.7;stroke-linecap:round;" x1="17.038" y1="-9.799" x2="17.086" y2="-9.799"/>

			<line style="fill:none;stroke:#FFFFFF;stroke-width:1.7;stroke-linecap:round;" x1="20.475" y1="-7.299" x2="20.524" y2="-7.299"/>

			<line style="fill:none;stroke:#FFFFFF;stroke-width:1.7;stroke-linecap:round;" x1="20.538" y1="-3.424" x2="20.586" y2="-3.424"/>
		<line style="fill:none;stroke:#FFFFFF;stroke-width:1.7;stroke-linecap:round;" x1="16.35" y1="-5.549" x2="16.399" y2="-5.549"/>

			<line style="fill:none;stroke:#FFFFFF;stroke-width:1.7;stroke-linecap:round;" x1="12.975" y1="-3.361" x2="13.024" y2="-3.361"/>

			<line style="fill:none;stroke:#FFFFFF;stroke-width:1.7;stroke-linecap:round;" x1="23.85" y1="-26.799" x2="23.899" y2="-26.799"/>

			<line style="fill:none;stroke:#FFFFFF;stroke-width:1.7;stroke-linecap:round;" x1="24.288" y1="-23.361" x2="24.336" y2="-23.361"/>

			<line style="fill:none;stroke:#FFFFFF;stroke-width:1.7;stroke-linecap:round;" x1="24.35" y1="-18.736" x2="24.399" y2="-18.736"/>

			<line style="fill:none;stroke:#FFFFFF;stroke-width:1.7;stroke-linecap:round;" x1="23.788" y1="-14.236" x2="23.836" y2="-14.236"/>
		<line style="fill:none;stroke:#FFFFFF;stroke-width:1.7;stroke-linecap:round;" x1="23.35" y1="-9.799" x2="23.399" y2="-9.799"/>
		<line style="fill:none;stroke:#FFFFFF;stroke-width:1.7;stroke-linecap:round;" x1="24.35" y1="-5.549" x2="24.399" y2="-5.549"/>

			<line style="fill:none;stroke:#FFFFFF;stroke-width:1.7;stroke-linecap:round;" x1="17.403" y1="-1.628" x2="17.452" y2="-1.628"/>
		<line style="fill:none;stroke:#FFFFFF;stroke-width:1.7;stroke-linecap:round;" x1="8.965" y1="-1.815" x2="9.014" y2="-1.815"/>
		<line style="fill:none;stroke:#FFFFFF;stroke-width:1.7;stroke-linecap:round;" x1="1.403" y1="-0.878" x2="1.452" y2="-0.878"/>
		<line style="fill:none;stroke:#FFFFFF;stroke-width:1.7;stroke-linecap:round;" x1="23.85" y1="-0.85" x2="23.899" y2="-0.85"/>
	</g>
</svg>
