<svg xmlns="http://www.w3.org/2000/svg" xml:space="preserve" width="80.13" height="80.13" viewBox="0 -80.13 80.13 80.13"><path d="M0-80.13h80.13V0H0z" style="fill:none"/><path d="M35.48-47.12c2.47.91 3.2-1.93 2.65-2.02-.55-.09-.36.19-1.1 1.2-.73 1-2.24.56-1.55.82zM26.8-43.07c.45.55 1.93 0 1.71-.6-.22-.61-.66.21-1.1.1-.44-.1-.88.14-.6.5zM13.45-48.47c-.92.64 1.67 2.48 1.92 1.74.27-.83-1-2.38-1.92-1.74zM21.23-45.63c-.92.45.3 2.52.73 1.92.46-.64.18-2.38-.73-1.92zM12.63-51.95c-.1.92 1.3 2.48 1.37 1.74.09-1.1-1.29-2.65-1.38-1.74zM22.8-58.95c-.55.54.64.9.55 2-.09 1.1.52 1.9.82 1.1.83-2.1-.82-3.66-1.37-3.1zM32.7-56.27c-.46-3.66-1.29-2.47-1.56-1.46-.28 1 1.66 2.27 1.56 1.46zM3.1-42.24c-.57.52-.14 2.2.4 1.73.57-.51.19-2.24-.4-1.73zM2.33-44.9c0 1.19 2.1.82 1.93.27-.24-.7-1.92-1.46-1.92-.27zM23.6-64.03c0-1-.55-1.74-1.18-1.1-.64.64 1.18 1.88 1.18 1.1zM20.3-76.7c0-1-.56-1.74-1.2-1.1-.64.64 1.2 1.88 1.2 1.1zM1.82-58.26c-1.18.45.6 2.32 1.1 1.64.55-.73.1-2.1-1.1-1.64zM11.98-43.99c.83.19 1.65-1.1.65-1.74-1.01-.64-1.44 1.56-.65 1.74zM20.34-40.26c.64-.56 0-1.93-.82-1.38-.83.55.18 1.92.82 1.38zM37.7-44.08c-.37-.82-1.88.63-1.28 1.47.46.63 1.64-.65 1.28-1.47zM29.19-49.57c-.47-.37-1.25 1.77-.55 1.92 1.28.28 1-1.55.55-1.92zM27.86-51.52c-.83.2-.55 1.96.27 1.84 1.2-.19.55-2.01-.27-1.84zM39.77-62.87c-.92 0-.96 1.74.17 1.74.92 0 .74-1.74-.17-1.74zM17.08-50.53c1-.08 0-1 .27-1.46.28-.46.46-1.1-.55-1.19-1-.09-.65 2.74.28 2.65zM2.37-60.28c.64 1.28 1.38-.91 1.1-1.37-.27-.46-1.46.67-1.1 1.37zM10.34-58.54c-.46.28-.73-.55-1.2.1-.45.63 1.77 2.17 1.93 1.37.18-.92-.28-1.74-.73-1.47zM18.02-59.36c-.91.27-.06 2 .74 1.55.64-.36.18-1.83-.74-1.55zM14.67-56.21c1.91.96 1-1.83 1-1.83s-2.28 1.19-1 1.83zM28.08-80.13c-.14.26-.1.53.32.73 1.05.53 1.25-.08 1.22-.73M30.47-41.52c1 .83 1.65-.27 1.19-1.1-.46-.82-1.84.57-1.19 1.1zM16.83-42.7c-.45.45 1.2 2.17 1.38 1.46.09-.37-.92-1.92-1.38-1.47zM10.75-40.91c-.46-.28-1.75.94-1.1 1.28.55.27 2.83-.25 1.1-1.28zM34.86-49.66c.82.73 1.65-1.74 1.1-1.83-.55-.1-1.78 1.22-1.1 1.83zM17.02-70.62c-1.2.46-.06 2.28 1 2.02.74-.19.19-2.48-1-2.02zM25.07-76.1c0-.93-1.92-.83-1.92.17 0 1.01 1.92.56 1.92-.18zM32.12-74.65c-.83 0-1.01 2.28.36 2.1.73-.09.46-2.1-.36-2.1zM34.04-77.85c-.73.73.92 2.7 1.55 1.65.28-.46-.82-2.38-1.55-1.65zM1.37-75.74c-.46.45.18.82.27 1.74.1.9.29 2.38.64 1.73 1.1-2-.45-3.93-.91-3.47zM9.65-70.25c-.27.27.49 2.69 1.1 1.92 1.47-1.83-.82-2.2-1.1-1.92zM7.04-80.13c-.07.2-.21.42-.4.66-.33.41-.7-.07-.93-.66M0-59.06c.57-.03 1.05-.28.88-.82-.15-.47-.5-.63-.88-.62M80.13-60.5c-.74 0-1.64.66-1.52.9.19.38.92.58 1.52.53M33.03-46.73c.92-.19.73-1.47-.36-1.47-1.1 0-.53 1.65.36 1.47zM31.05-45.3c-.64.64.8 1.9 1.37 1 .82-1.27-.73-1.64-1.37-1zM25.98-61.6c-1.1-.1-1.1 1.73.28 1.73.73 0 .82-1.65-.28-1.74zM22.32-67.87c-1.1-.1-1.1 1.73.28 1.73.73 0 .82-1.64-.28-1.73zM27.36-69.52c-1.1-.1-1.11 1.74.27 1.74.73 0 .83-1.65-.27-1.74zM27.51-72.64c-1.1-.08-1.1 1.75.27 1.75.74 0 .82-1.65-.27-1.75zM33.95-66.68c.73 0 .82-1.65-.28-1.74-1.1-.1-1.1 1.74.28 1.74zM14.82-44.26c-1.1-.1-1.1 1.73.27 1.73.74 0 .83-1.64-.27-1.73zM36.78-66.5c-1 .27-.28 1.65.46 1.28.55-.27.55-1.56-.46-1.28zM38.67-59.73c-1.01.27-.29 1.65.45 1.28.55-.27.55-1.55-.45-1.28zM20.62-60.54c-1.01.27-.29 1.65.45 1.28.55-.27.55-1.56-.45-1.28zM20.59-64.67c-1.01.27-.29 1.65.45 1.28.55-.28.55-1.55-.45-1.28zM17.38-65.5c-1 .28-.28 1.66.46 1.29.55-.28.55-1.56-.46-1.28zM9.7-61.1c-1.01.27-.29 1.65.45 1.28.55-.28.55-1.55-.45-1.28zM17.47-44.72c.55-.28.55-1.56-.45-1.28-1.01.27-.29 1.65.45 1.28zM18.3-60.83c.55-.27.55-1.55-.46-1.28-1 .28-.28 1.66.46 1.28zM31.3-70.25c-1.02.27-.29 1.65.45 1.28.55-.28.55-1.56-.46-1.28zM34.27-71.31c.44-.22.44-1.25-.36-1.03-.8.22-.23 1.32.37 1.03zM34.59-69.7c-.8.22-.23 1.32.36 1.02.44-.22.44-1.24-.36-1.02zM39.87-71.68c-.81.23-.23 1.33.36 1.03.44-.22.44-1.25-.36-1.03zM18.3-72.64c-.81.22-.23 1.33.36 1.03.44-.22.44-1.24-.36-1.03zM21.87-78.92c-.8.22-.23 1.32.36 1.03.44-.22.44-1.25-.36-1.03zM16.1-74.37c-.8.22-.23 1.32.36 1.03.45-.22.45-1.25-.36-1.03zM12.26-78.76c-.8.22-.23 1.32.37 1.02.43-.22.43-1.24-.37-1.02zM20.5-74.92c-.81.22-.23 1.32.36 1.02.44-.21.44-1.24-.37-1.02zM5.4-78.86c-.81.22-.23 1.33.36 1.03.44-.22.44-1.25-.36-1.03zM16.74-77.76c-.8.22-.22 1.33.37 1.03.44-.22.44-1.25-.37-1.03zM15.37-76.2c-.8.22-.23 1.32.36 1.02.45-.21.45-1.24-.36-1.02zM14-70.23c.44-.23.44-1.25-.37-1.03-.8.22-.23 1.32.37 1.03zM4.46-74.15c-.8.22-.23 1.33.37 1.03.43-.22.43-1.24-.37-1.03zM4.77-70.56c.44-.22.44-1.24-.36-1.02-.8.21-.23 1.31.36 1.02zM5.98-68.48c-.8.22-.23 1.32.36 1.02.44-.22.44-1.24-.36-1.02zM23.52-48.59c.3-1.7.82-1.37.91-1.74.1-.36-1.19-.81-2.01-.26-.83.54.91 3.01 1.1 2zM29.46-45.27c.16-.62-1.32-1.08-1.46-.36-.27 1.37 1.37.73 1.46.36zM25.1-45.76c.37-.18-.36-1.74-.91-1.1-.55.64.02 1.55.91 1.1zM36.88-75.56c-1.01.73.14 2.31.36 1.65.1-.28.64-2.38-.36-1.65zM19.58-57.07c-.1.55 1.92 1.47 1.92.73 0-1.74-1.75-1.76-1.92-.73zM4.85-53.83c-.83.09-.43 1.72.36 1.46.55-.18.46-1.55-.36-1.46zM3.12-49.57c-.55.73.98 1.14 1.19.73.36-.73-.64-1.46-1.2-.73zM3.34-50.76c.51.12.7-.65.2-1.02-.52-.39-.93.83-.2 1.02zM7.5-73.67c.37 1 1.74.27 1.28-.74-.46-1-1.6-.12-1.28.74zM10.56-75.8c-1 .37-.02 2.23.55 1.28.27-.45.46-1.64-.55-1.28zM19.9-80.13c-.04.21-.11.42-.2.56-.38.62-.93.02-.98-.56M8.23-76.66c0-.83-1-1.1-1.1-.37-.09.74 1.1 1.2 1.1.37zM5.76-76.48c-.82.19-.16 1.61.55 1.2.46-.28.27-1.38-.55-1.2zM.82-79.22c-.46 1 .46 1.74 1 1 .6-.79-.55-2-1-1zM32.02-49.7c.55-.64-.45-1.92-1-1.64-.55.27.6 2.11 1 1.65zM8.23-53.6c.55-.91-.46-1.55-.82-1-.37.54.42 1.68.82 1zM6.49-42.34c-.36.55.42 1.68.83 1 .55-.9-.46-1.55-.83-1zM3.67-46.9c-.3-1.02-1.45-.72-1.3-.08.16.64 1.52.83 1.3.08zM1.3-53.92c.15.64 1.51.84 1.3.09-.3-1.03-1.46-.73-1.3-.09zM5.86-54.33c.36-.1.91-1.1-.1-1.28-1-.18-.75 1.49.1 1.28zM6.77-46.55c-.37 1 .82 1.55 1.1 1.19.58-.78-.74-2.2-1.1-1.2zM9.48-42.52c1.28.64.55-2.3-.1-2.1-.64.17-.9 1.6.1 2.1zM38.16-51.86c-.83-.18-1.12 1.02-.28 1.2.46.08 1.1-1.01.27-1.2zM39.16-45.63c.74-.37.1-1.1-.55-1.1-.64 0-.12 1.43.55 1.1zM37.42-54.7c-.64 0-.12 1.44.55 1.1.74-.36.1-1.1-.55-1.1zM35.96-41.24c.37-.28.1-.64-.27-.64s-.03.86.27.64zM30.93-46.92c.36-.27.09-.64-.28-.64-.36 0-.02.87.28.64zM37.24-45.63c-.36 0-.03.86.27.64.37-.28.1-.64-.27-.64zM35.78-45.27c-.37 0-.03.87.27.64.37-.27.1-.64-.27-.64zM27.37-66.28c-.3 0-.02.7.22.51.3-.22.07-.51-.22-.51zM39.35-67.29c-.29 0-.02.7.22.52.3-.23.08-.52-.22-.52zM29.88-71.86c-.3 0-.02.69.22.51.3-.22.08-.51-.22-.51zM30.43-75.43c-.29 0-.02.69.22.51.3-.22.08-.51-.21-.51zM32.12-76.66c.29-.22.07-.51-.22-.51-.3 0-.02.7.22.51zM9.94-77.17c-.3 0-.03.7.21.51.3-.22.08-.51-.21-.51zM3.7-79.9c-.3 0-.03.68.21.5.3-.21.08-.5-.22-.5zM10.48-71.68c-.29 0-.02.7.22.51.3-.22.08-.51-.22-.51zM19.09-44.13c-.3 0-.02.69.21.5.3-.21.08-.5-.21-.5zM5.18-46.06c-.3 0-.03.7.22.52.29-.22.07-.52-.22-.52zM2.16-48.35c.3-.23.07-.52-.22-.52s-.02.7.22.52zM6.58-59.73c.3-.22.08-.51-.22-.51-.29 0-.02.7.22.51zM4.23-60.15c-.3 0-.02.69.22.5.3-.21.07-.5-.22-.5zM.64-51.86c.29-.22.07-.51-.22-.51-.3 0-.03.7.22.5zM5.08-51.45c-.3 0-.02.69.22.5.3-.22.08-.5-.22-.5zM12.26-49.3c.3-.22.07-.5-.22-.5-.3 0-.02.68.22.5zM.72-55.35c-.3 0-.02.7.22.51.3-.22.08-.51-.22-.51zM3.16-67.93c-.3 0-.02.7.22.52.3-.23.07-.52-.22-.52zM6.36-71.4c-.29 0-.02.69.22.5.3-.21.08-.5-.22-.5zM.65-72.44c-.3 0-.03.7.21.52.3-.22.08-.52-.21-.52zM15.57-71.77c-.3 0-.03.7.22.5.29-.21.07-.5-.22-.5zM22.69-73.4c-.3 0-.03.7.22.52.29-.23.07-.52-.22-.52zM8.96-70.25c.3-.22.08-.52-.22-.52-.29 0-.02.7.22.52zM14.53-68.62c-.3 0-.03.7.21.51.3-.22.08-.51-.21-.51zM4.66-66.78c.3-.22.07-.5-.22-.5-.29 0-.02.68.22.5zM1.32-61.4c.3-.22.08-.5-.22-.5-.29 0-.02.68.22.5zM14.75-52.86c-.29 0-.02.7.22.51.3-.22.08-.5-.22-.5zM20.77-46c.3-.22.08-.51-.22-.51s-.02.7.22.5zM22.7-46.28c.28-.22.06-.5-.23-.5-.3 0-.02.68.22.5zM33.3-40.33c.37-.27.1-.64-.27-.64-.36 0-.02.87.28.64zM38.8-42.25c.37-.27.09-.64-.28-.64s-.02.87.28.64zM39.5-40.39c.28 0 .28-1.28-.46-1.37-.73-.1-.9 1.37.46 1.37zM22.57-41.91c-.83 0-.48 1.65.46 1.65.36 0 .36-1.65-.46-1.65zM12.75-41.55c-.65-.27-.9 1.13-.1 1.29 1.01.17.74-1.01.1-1.29zM10.98-49.85c-.64-.27-.9 1.14-.1 1.29 1.01.18.74-1 .1-1.29zM10.61-52.4c-.64-.37-.85 1.28-.27 1.28.45 0 .91-.92.27-1.29zM8.32-48.47c-.64-.37-.85 1.28-.27 1.28.46 0 .91-.92.27-1.28zM8.78-53.23c-.64-.37-.85 1.28-.27 1.28.45 0 .91-.91.27-1.28zM12.53-56.25c-.64-.37-.85 1.28-.27 1.28.46 0 .92-.91.27-1.28zM15.61-60.95c-.64-.37-.85 1.28-.27 1.28.46 0 .92-.92.27-1.28zM15.04-66.44c-.64-.36-.85 1.28-.27 1.28.46 0 .92-.92.27-1.28zM10.7-54.24c-.91.19-.09 1.28.46 1.2 0 0 .46-1.38-.46-1.2zM28-55.61c-.73-.1-.76 1.18-.18 1.1.64-.1.9-1 .18-1.1zM32.12-53.5c-.74-.1-.76 1.17-.19 1.1.64-.1.92-1.02.19-1.1zM33.03-49.48c.64-.09.92-1 .18-1.1-.73-.09-.75 1.18-.18 1.1zM31.66-53.87c.64-.1.91-1 .18-1.1-.73-.1-.75 1.18-.18 1.1zM23.6-54.7c-.73-.08-.75 1.18-.18 1.1.64-.09.92-1 .18-1.1zM22.14-53.32c-.73-.1-.75 1.18-.18 1.1.64-.1.91-1 .18-1.1zM33.77-64.76c-.74-.1-.76 1.18-.19 1.1.64-.1.91-1.01.19-1.1zM24.98-63.02c-.74-.1-.76 1.17-.19 1.1.65-.1.92-1 .19-1.1zM22.32-71.8c-.73-.1-.75 1.17-.18 1.1.64-.1.91-1.02.18-1.1zM30.84-61.56c.63-.1.91-1 .18-1.1-.73-.1-.76 1.18-.18 1.1zM29.43-67.6c-.73-.1-.75 1.18-.18 1.1.64-.1.91-1 .18-1.1zM25.8-66.78c-.73-.09-.75 1.19-.18 1.1.64-.1.91-1 .18-1.1zM26.17-53.69c-.73.18-.18 1.5.46 1.28.82-.28.27-1.46-.46-1.28zM32.02-61.01c-.73.18-.17 1.5.46 1.28.83-.28.28-1.46-.46-1.28zM35.78-60c-.73.18-.18 1.49.45 1.28.83-.28.28-1.47-.45-1.29zM29.46-65.13c-.74.18-.17 1.5.46 1.28.82-.27.27-1.46-.46-1.28zM13.11-59.88c-.73-.55-1.06.96-.46 1.19.74.27 1.2-.64.46-1.2zM12.53-64.49c-.73-.55-1.06.96-.45 1.19.73.28 1.19-.64.45-1.19zM17.02-67.78c-.73-.55-1.07.96-.46 1.19.73.27 1.2-.64.46-1.2zM12.8-68.88c-.72-.55-1.06.96-.45 1.19.73.28 1.2-.64.46-1.19zM6.92-65.3c.73.27 1.19-.65.45-1.2-.72-.54-1.05.97-.45 1.2zM9.6-62.93c-.73-.55-1.06.96-.46 1.18.74.28 1.2-.63.46-1.18zM26.5-48.63c-.45-.18-.76.92-.18.92.46 0 .64-.73.18-.91zM17.3-49.85c-.47-.18-.77.92-.2.92.47 0 .65-.73.2-.92zM33.85-45.36c.46 0 .64-.73.19-.92-.46-.18-.76.92-.19.92zM33.89-42.99c.45 0 .64-.73.18-.92-.46-.18-.76.92-.18.92zM35.32-53.87c-.46-.19-.76.91-.18.91.45 0 .64-.73.18-.91zM38.7-52.5c.46 0 .64-.73.19-.91-.46-.19-.76.91-.18.91zM35.32-56.8c.46 0 .64-.73.18-.92-.45-.18-.76.92-.18.92zM38.8-72.81c.45 0 .64-.74.18-.92-.46-.18-.76.92-.18.92zM39.34-76.2c-.45-.18-.75.92-.18.92.46 0 .64-.74.19-.92zM36.58-57.22c-.54-.22-.91 1.1-.22 1.1.55 0 .77-.88.22-1.1zM35.85-62.9c-.55-.21-.91 1.1-.22 1.1.55 0 .77-.87.22-1.1zM29.19-55.98c.46 0 .64-.73.18-.91-.46-.18-.77.91-.18.91zM29.46-59.09c.46 0 .64-.73.19-.92-.46-.18-.76.92-.19.92zM26.5-78.15c-.45-.18-.75.92-.17.92.45 0 .64-.74.18-.92zM10.7-45.18c.46 0 .64-.73.19-.91-.46-.19-.77.91-.19.91zM6.03-43.53c.46 0 .65-.73.19-.92-.46-.18-.76.92-.19.92zM13.72-42.7c-.45-.19-.76.9-.18.9.46 0 .64-.72.18-.9zM5.9-48.06c-.47-.18-.77.92-.2.92.46 0 .65-.73.2-.92zM6.49-49.48c.46 0 .64-.73.19-.91-.46-.19-.77.91-.19.91zM5.03-41.24c.45 0 .64-.73.18-.92-.46-.18-.76.92-.18.92zM16.2-40.23c.45 0 .63-.74.18-.92-.46-.18-.77.92-.19.92zM7.91-40.38c.46 0 .64-.73.19-.91-.46-.19-.76.91-.19.91zM20.68-48.84c-.46-.18-.77.92-.19.92.46 0 .65-.73.19-.92zM8.14-50.12c-.46-.18-.77.92-.18.92.45 0 .64-.74.18-.92zM20.03-51.43c-.45-.19-.75.91-.18.91.46 0 .64-.72.18-.91zM18.61-54.8c-.46-.18-.76.92-.18.92.46 0 .64-.74.18-.92zM14.36-54.6c.46 0 .64-.73.19-.92-.46-.18-.77.92-.19.92zM.73-41.15c.46 0 .64-.73.18-.92-.46-.18-.76.92-.18.92zM9.79-55.98c-.46-.18-.76.92-.19.92.46 0 .64-.73.19-.92zM7.77-58.08c-.45-.18-.76.91-.18.91.46 0 .64-.73.18-.91zM6.31-56.3c.46 0 .64-.73.18-.92-.46-.18-.76.92-.18.92zM8.32-65.31c-.45-.18-.76.91-.18.91.46 0 .64-.73.18-.91zM9.42-66.96c-.46-.18-.76.92-.18.92.46 0 .64-.73.18-.92zM5.03-58.72c-.46-.19-.76.91-.19.91.46 0 .64-.73.19-.91zM5.12-62.66c-.46-.18-.76.92-.18.92.46 0 .64-.73.18-.92zM3.66-65.86c-.46-.18-.77.92-.19.92.46 0 .65-.74.19-.92zM3.66-68.42c.46 0 .64-.74.18-.92-.46-.18-.76.92-.18.92zM11.62-65.95c-.46-.18-.77.91-.19.91.46 0 .65-.73.19-.91zM13.18-62.66c-.46-.18-.77.92-.2.92.47 0 .65-.73.2-.92zM11.62-62.56c-.46-.19-.77.9-.19.9.46 0 .65-.72.19-.9zM31.65-65.57c.46 0 .64-.73.18-.9-.45-.2-.76.9-.18.9zM20.59-67.78c.45 0 .64-.73.18-.92-.46-.18-.76.92-.18.92zM19.67-67.05c-.46-.19-.77.91-.18.91.46 0 .64-.73.18-.9zM27.27-63.48c.45 0 .63-.73.18-.92-.46-.18-.76.92-.18.92zM38.06-61.65c-.45-.18-.76.92-.18.92.46 0 .64-.74.18-.92zM39.07-68.6c-.46-.19-.76.91-.18.91.45 0 .64-.73.18-.92zM38.4-78.46c-.46-.18-1.28 1.37-.18 1.28.45-.04.64-1.1.18-1.28zM15.19-63.48c-.46-.19-.77.92-.19.92.46 0 .64-.74.19-.92zM18.76-75.28c-.46-.2-.76.91-.19.91.46 0 .64-.73.19-.91zM36.52-79.9c-.45-.18-.76.92-.18.92.46 0 .64-.73.18-.91zM22.05-69.34c.46 0 .64-.73.18-.91-.45-.19-.76.91-.18.91zM24.7-70.53c-.45-.18-.76.92-.18.92.46 0 .64-.74.18-.92zM10.98-78.12c-.46-.19-.76.91-.19.91.46 0 .64-.73.19-.91zM3.03-78.1c-.46-.18-.76.92-.18.92.46 0 .64-.73.18-.92zM4.57-77.4c-.46-.17-.76.92-.18.92.46 0 .64-.73.18-.91zM7.04-73.1c-.46-.17-.76.93-.18.93.46 0 .64-.73.18-.92zM14.85-79.66c-.45-.18-.76.92-.18.92.46 0 .64-.73.18-.92zM26.53-58.9c-.45-.19-.76.9-.18.9.46 0 .64-.72.18-.9zM26.63-56.52c-.46-.19-.77.91-.19.91.46 0 .64-.73.19-.91zM25.53-52.23c-.46-.18-.77.92-.19.92.46 0 .64-.73.19-.92zM28.73-52.23c.46 0 .64-.73.18-.91-.45-.18-.76.91-.18.91zM21.96-55.43c-.46-.18-.76.92-.18.92.45 0 .64-.73.18-.92zM17.66-56.52c-.46-.19-.77.91-.19.91.46 0 .65-.73.19-.91zM28.64-40.8c.46 0 .63-.72.18-.9-.46-.2-.76.9-.18.9zM23.92-44c.46 0 .64-.74.18-.92-.45-.19-.76.91-.18.91zM26.77-35.26c.46 0 .64-.74.18-.92-.46-.18-.76.92-.18.92zM26.97-12.48c.46 0 .64-.74.19-.92-.46-.19-.77.92-.19.92zM19.12-46.28c.46 0 .64-.73.18-.91-.45-.18-.75.91-.18.91zM24.8-42.07c.45 0 .64-.73.18-.91-.46-.19-.76.91-.18.91zM29.83-61.47c-.46-.18-.76.92-.18.92.45 0 .64-.73.18-.92zM34.07-62.41c-.46-.19-.76.91-.18.91.45 0 .64-.73.18-.91zM34.27-55.9c-.46-.19-.76.91-.18.91.46 0 .64-.73.18-.91zM22.46-61.95c.45 0 .64-.72.18-.91-.46-.18-.76.91-.18.91zM20.26-70.65c.46 0 .64-.73.18-.91-.45-.19-.76.9-.18.9zM25.71-69.43c-.46-.18-.76.92-.18.92.45 0 .64-.74.18-.92zM24.43-72.27c-.46-.18-.76.92-.18.92.45 0 .64-.73.18-.92zM25.28-74.25c-.45-.18-.76.92-.18.92.46 0 .64-.74.18-.92zM33.85-73.64c.46 0 .64-.73.19-.92-.46-.17-.76.92-.19.92zM16.86-79.6c-.46-.17-.77.92-.19.92.46 0 .64-.73.19-.91zM29.83-54.42c.46 0 .64-.73.18-.91-.46-.19-.76.9-.18.9zM39.53-57.9c-.46-.18-.76.92-.19.92.46 0 .65-.74.19-.92z" style="fill-rule:evenodd;clip-rule:evenodd;fill:#00aeef"/><path d="M37.52-68.6c.45 0 .64-.74.18-.92-.46-.18-.76.91-.18.91z" style="fill:#00aeef"/><path d="M36.78-68.88c-.45-.18-.76.92-.18.92.46 0 .64-.74.18-.92zM36.42-71.26c-.46-.18-.77.91-.19.91.46 0 .65-.73.19-.91zM35.96-73.27c-.46-.19-.76.91-.18.91.45 0 .64-.73.18-.91zM24.33-79.76c-.46-.18-.76.91-.19.91.46 0 .64-.73.19-.91zM.75-45.96c.4.05 1.04-.3.76-.76-1.15-1.9-1.42.69-.76.76zM5.37-66.01c-.27.46.26 2.42.55 1.83.19-.37-.27-2.29-.55-1.83zM30.74-79.68c-.73.37 1.07 2.15 1.47 1.56.36-.55-.74-1.92-1.47-1.56zM28-75.01c0-.73-.82-1.65-1.2-.73-.36.91 1.2 1.52 1.2.73zM29.1-77.76c-.83 0-.64 1.28.27 1.1.46-.1.55-1.1-.27-1.1zM7.29-69.78c-.55.64.68 1.93 1.19 1.28.64-.82-.64-1.92-1.2-1.28zM6.54-62.43c-1.1.18-.06 1.48.55 1.28.55-.19.55-1.47-.54-1.28zM.87-63.8c.1.77 2.17.76 1.88-.02-.22-.62-1.98-.76-1.88.01zM1.67-65.86c.68-.4-.36-2.29-.82-1.46-.46.82.36 1.73.82 1.46zM1.66-70.53c-1 0-.36 1.51.46 1.37.54-.09.54-1.37-.46-1.37zM14.73-73.55c.36-.73-.82-1.73-1.19-1.28-.36.46.93 1.8 1.2 1.28zM12.2-72.12c.56-.1.28-1.2-.27-1.2s-.27 1.29.28 1.2zM13.63-77.85c-.55.73.52 1.6.91 1 .37-.54-.36-1.73-.9-1zM8.69-79.59c-1.01 0-.46 1.66.27 1.56.64-.1.74-1.56-.27-1.56zM39.44-65.4c-.64-.28-1.28 1.48-.64 1.65.73.18 1.29-1.38.64-1.65zM64.4-79.8c-.65-.28-1.29 1.48-.65 1.65.73.18 1.28-1.38.64-1.65zM80.13-10.45c-.5-.1-1.03.06-1.1.44-.14.86.51 1.21 1.1 1.27M40.8-9.03c.4-1.61-1.82-1.79-1.96-.98-.24 1.47 1.83 1.47 1.95.98zM80.13-50.1c-.57-.23-1.14-.3-1.22-.05-.22.73.52 1.19 1.22 1.34M0-8.74c.42.03.8-.09.85-.29.21-.84-.3-1.3-.85-1.41M0-48.8c.47.1.93.06 1.1-.13.3-.35-.4-.87-1.1-1.16M35.48-7.07c2.47.91 3.2-1.93 2.65-2.02-.55-.09-.36.19-1.1 1.2-.73 1-2.24.56-1.55.82zM28.3-3.07c.41-.14.75-.44.64-.75-.22-.6-.65.22-1.1.1-.43-.1-.88.15-.6.5.11.14.28.2.47.22" style="fill-rule:evenodd;clip-rule:evenodd;fill:#00aeef"/><path d="M27.71-3c.18.02.4-.01.6-.07M15.37-6.68c.27-.83-1-2.38-1.92-1.74-.92.64 1.67 2.49 1.92 1.74zM21.96-3.66c.46-.64.18-2.38-.73-1.92-.92.46.3 2.52.73 1.92zM16.56-12.17c.55 1 .54 1.69 1 .82.65-1.19-1.18-2.75-1.64-2.29-.46.46.09.46.64 1.47zM14-10.16c.09-1.1-1.29-2.65-1.38-1.74-.09.92 1.32 2.48 1.38 1.74zM24.18-15.45c.82-2.1-.83-3.65-1.38-3.1-.55.54.64.9.55 2-.09 1.1.52 1.89.82 1.1zM31.66-17.88c-.28 1.01 1.66 2.28 1.55 1.47-.45-3.66-1.28-2.47-1.55-1.47zM3.9-1.49c.3-1.06-1.52-2.83-1.8-1.76C1.8-2.2 3.63-.51 3.9-1.5zM4.03-4.66c-.17-.49-1.35-1.02-1.35-.2 0 .84 1.47.59 1.35.2zM3.06-14.91c-.44.44.84 1.3.84.77 0-.7-.39-1.22-.83-.77zM23.6-23.98c0-1-.55-1.74-1.18-1.1-.64.65 1.18 1.88 1.18 1.1zM19.95-37.34c0-1-.55-1.74-1.2-1.1-.63.64 1.2 1.88 1.2 1.1zM3.27-16.56c.55-.74.09-2.1-1.1-1.65-1.19.45.6 2.32 1.1 1.65zM11.98-3.94c.83.19 1.65-1.1.65-1.73-1.01-.65-1.44 1.56-.65 1.73zM36.42-2.56c.46.64 1.64-.64 1.28-1.47-.37-.82-1.88.64-1.28 1.47zM29.19-9.52c1.28.28 1-1.55.55-1.92-.47-.37-1.25 1.77-.55 1.92zM40.3-14.42c.63-.92-1.56-2.56-1.84-1.55-.27 1 1.22 2.43 1.83 1.55zM39.9-22.82c-.55 0-.57 1.04.11 1.04.55 0 .44-1.04-.1-1.04zM2.42-19.88c.65 1.28 2.02-.92 1.74-1.37-.27-.46-2.09.66-1.74 1.37z" style="fill-rule:evenodd;clip-rule:evenodd;fill:#00aeef"/><path d="M11.07-17.02c.18-.91-.28-1.74-.74-1.47-.45.28-.73-.55-1.19.1-.45.63 1.77 2.17 1.93 1.37z" style="fill:#00aeef"/><path d="M18.76-17.76c.64-.36.18-1.83-.74-1.55-.91.27-.06 2 .74 1.55zM16.2-19.13s-2.3 1.2-1.01 1.83c1.91.96 1-1.83 1-1.83zM30.47-1.47c1 .83 1.65-.27 1.19-1.1-.46-.82-1.84.57-1.19 1.1zM18.2-1.19c.1-.37-.9-1.92-1.37-1.46-.45.45 1.2 2.18 1.38 1.46zM9.24-.82c.55.27 2.83-.24 1.1-1.29-.46-.27-1.76.96-1.1 1.28zM34.25-12.2c-.55-.1-1.78 1.22-1.1 1.83.83.73 1.65-1.74 1.1-1.83zM30.84-26.04c1.47.92 1.14 2.18 1.56 1.28.64-1.37-2.2-3.47-2.65-2.84-.46.65-.38.65 1.1 1.56zM18.02-28.55c.74-.2.19-2.48-1-2.02-1.2.46-.06 2.28 1 2.02zM25.07-36.06c0-.91-1.92-.82-1.92.19 0 1 1.92.55 1.92-.19z" style="fill-rule:evenodd;clip-rule:evenodd;fill:#00aeef"/><path d="M32.14-31.8c.73-.09.46-2.1-.37-2.1-.82 0-1 2.27.37 2.1z" style="fill:#00aeef"/><path d="M35.6-37.95c.27-.46-.83-2.38-1.56-1.64-.73.73.92 2.7 1.55 1.64zM.69-34.4c0 .45.5.32.98.73.5.41 1.32 1.05 1.18.56-.44-1.54-2.16-1.75-2.16-1.3zM10-30.2c-.27.27.48 2.7 1.1 1.92 1.46-1.83-.83-2.2-1.1-1.92zM33.03-6.68c.92-.19.73-1.47-.36-1.47-1.1 0-.53 1.65.36 1.47zM34.23-2.5c.49-.76-.44-.98-.82-.6s.47 1.14.82.6zM25.07-19.3c.73 0 .82-1.66-.27-1.75-1.1-.09-1.11 1.74.27 1.74zM28.64-21.78c.73 0 .82-1.65-.28-1.74-1.1-.1-1.1 1.74.28 1.74zM22.6-26.08c.73 0 .82-1.65-.28-1.74-1.1-.1-1.1 1.74.28 1.74zM27.18-29.98c.72 0 .82-1.64-.28-1.74-1.1-.09-1.11 1.74.28 1.74zM33.67-28.37c-1.1-.09-1.1 1.74.28 1.74.73 0 .82-1.65-.28-1.74zM15.1-2.47c.73 0 .82-1.65-.28-1.74-1.1-.1-1.1 1.74.28 1.74zM37.24-25.17c.55-.27.55-1.55-.46-1.28-1 .27-.28 1.65.46 1.28zM39.68-18.4c.55-.27.55-1.55-.46-1.28-1 .28-.28 1.66.46 1.28zM22.05-20.22c.55-.28.55-1.56-.46-1.29-1 .28-.28 1.66.46 1.29zM20.13-21.5c.55-.28.55-1.56-.46-1.29-1 .28-.28 1.65.46 1.28zM21.04-23.34c.55-.27.55-1.55-.45-1.28-1.01.28-.29 1.65.45 1.28zM17.84-24.16c.55-.27.55-1.56-.46-1.28-1 .27-.28 1.65.46 1.28zM26.87-8.01c.55-.28.55-1.56-.46-1.29-1 .28-.28 1.66.46 1.29zM10.15-19.77c.55-.27.55-1.55-.45-1.28-1.01.28-.29 1.65.45 1.28zM17.47-4.67c.55-.27.55-1.55-.45-1.28-1.01.28-.29 1.65.45 1.28zM18.3-20.77c.55-.28.55-1.56-.46-1.28-1 .27-.28 1.65.46 1.28zM25.8-.37c.55-.28.55-1.56-.45-1.28-1.01.27-.29 1.65.45 1.28zM31.75-28.92c.55-.28.55-1.55-.46-1.28-1 .27-.28 1.65.46 1.28zM34.27-31.26c.44-.22.44-1.25-.36-1.03-.8.23-.23 1.32.37 1.03zM34.95-28.63c.44-.22.44-1.24-.36-1.02-.8.22-.23 1.32.36 1.02zM40-30.63c.43-.22.43-1.24-.38-1.02-.8.22-.22 1.32.37 1.02zM18.3-32.58c-.81.22-.23 1.32.36 1.02.44-.21.44-1.24-.36-1.02zM22.23-38.88c.44-.22.44-1.24-.36-1.02-.8.22-.23 1.32.36 1.02zM16.46-33.3c.45-.21.45-1.24-.36-1.02-.8.22-.23 1.32.36 1.02zM12.63-37.69c.43-.22.43-1.24-.37-1.02-.8.22-.23 1.32.37 1.02zM20.5-34.87c-.81.22-.23 1.32.36 1.03.44-.22.44-1.25-.37-1.02zM5.4-38.8c-.81.22-.23 1.32.36 1.02.44-.22.44-1.24-.36-1.02zM17.1-36.68c.45-.22.45-1.25-.36-1.02-.8.22-.22 1.32.37 1.02zM15.73-35.12c.44-.23.44-1.25-.36-1.03-.8.22-.23 1.32.36 1.03zM13.63-31.2c-.8.21-.23 1.32.37 1.02.44-.22.44-1.25-.37-1.03zM5.24-33.06c.44-.22.44-1.25-.37-1.03-.8.22-.22 1.32.37 1.03zM3.56-32.03c-.8.22-.22 1.32.37 1.02.44-.21.44-1.24-.37-1.02zM4.75-30.84c-.8.22-.22 1.32.37 1.02.44-.22.44-1.24-.37-1.02zM6.95-26.8c.44-.22.44-1.24-.37-1.02-.8.22-.22 1.32.37 1.02zM23.42-10.8c.1-.36-1.19-.82-2.01-.27-.83.55.91 3.02 1.1 2.01.3-1.7.82-1.37.91-1.74zM30.5-5.21c.15-.63-1.32-1.1-1.47-.37-.27 1.37 1.38.73 1.47.37zM25.71-4.03c.37-.18-.36-1.73-.92-1.1-.54.65.04 1.55.92 1.1zM37.24-33.86c.1-.27.64-2.38-.36-1.65-1.01.73.14 2.31.36 1.65zM25.25-37.34c.74-.36.55-2.38-.27-2.01-.82.36-.3 2.3.27 2.01zM21.5-16.3c0-1.73-1.75-1.75-1.92-.72-.1.54 1.92 1.47 1.92.73zM4.76-12.04c.56-.18.46-1.56-.36-1.46-.83.09-.42 1.72.36 1.46zM2.92-12.17c-.73-.55-1.3 1.2-.27 1.46.73.19 1-.91.27-1.46zM4.15-8c.59.45 1.32-.29.73-.94-.58-.67-1.43.42-.73.95zM7.5-32.58c.37 1 1.74.27 1.28-.73-.46-1-1.6-.13-1.28.73zM10.61-33.59c.28-.45.46-1.64-.55-1.27-1 .36-.02 2.22.55 1.27zM8.23-36.6c0-.83-1-1.1-1.1-.37-.09.73 1.1 1.19 1.1.36zM6.31-35.23c.46-.28.27-1.38-.55-1.2-.82.19-.16 1.62.55 1.2zM.82-39.17c-.46 1 .46 1.74 1 1 .6-.78-.55-2.01-1-1zM32.02-8.6c.55-.64-.45-1.92-1-1.65s.6 2.11 1 1.65zM8.87-2.98c.55-.92-.45-1.55-.82-1-.37.54.42 1.67.82 1zM2.38-6.93c.15.64 1.51.84 1.3.08-.3-1.02-1.46-.72-1.3-.08zM6.9-14.28c.35-.09.9-1.1-.1-1.28-1-.18-.75 1.5.1 1.28zM7.87-5.3c.58-.79-.74-2.2-1.1-1.2-.37 1 .82 1.56 1.1 1.2zM38.16-11.8c-.83-.19-1.12 1.01-.28 1.18.46.1 1.1-1 .27-1.19zM39.16-5.58c.74-.37.1-1.1-.55-1.1-.64 0-.12 1.43.55 1.1zM36.33-14.73c.73-.36.09-1.1-.55-1.1s-.13 1.44.55 1.1zM35.96-1.19c.37-.27.1-.64-.27-.64s-.03.87.27.64zM30.93-6.87c.36-.27.09-.64-.28-.64-.36 0-.02.87.28.64zM37.24-5.58c-.36 0-.03.86.27.64.37-.27.1-.64-.27-.64zM35.78-5.21c-.37 0-.03.86.27.63.37-.27.1-.63-.27-.63zM26.9-25.72c.3-.22.07-.5-.22-.5-.3 0-.02.69.22.5zM39.35-27.23c-.29 0-.02.69.22.5.3-.21.08-.5-.22-.5zM30.1-31.3c.3-.22.08-.51-.22-.51s-.02.7.22.51zM43.95-34.86c.3-.22.08-.5-.22-.5s-.02.68.22.5zM60.43-31.8c.29-.23.07-.52-.22-.52-.3 0-.02.7.22.51zM38.85-56.73c-.29 0-.02.7.22.52.3-.22.08-.52-.22-.52zM30.65-34.87c.3-.22.08-.5-.22-.5-.29 0-.02.68.22.5zM41.2-32.21c.3-.22.08-.52-.21-.52-.3 0-.02.7.22.52zM12.33-35.06c.3-.22.07-.52-.22-.52-.3 0-.02.7.22.52zM31.9-36.43c-.3 0-.02.7.22.51.29-.21.07-.5-.22-.5zM9.81-35.57c.3-.22.07-.51-.22-.51-.3 0-.03.7.22.51zM10.7-31.12c.3-.21.08-.5-.22-.5-.29 0-.02.69.22.5zM19.3-3.57c.3-.22.08-.51-.21-.51-.3 0-.02.69.21.51zM5.4-5.5c.29-.21.07-.5-.22-.5-.3 0-.03.69.22.5zM1.17-15.87c.3-.22.07-.51-.22-.51-.3 0-.02.7.22.51zM.64-29.44c.29-.22.07-.52-.22-.52-.3 0-.03.7.22.52zM.64-11.8c.29-.22.07-.52-.22-.52-.3 0-.03.7.22.51zM5.3-10.9c.3-.21.08-.5-.22-.5s-.01.69.22.5zM12.26-9.24c.3-.22.07-.51-.22-.51-.3 0-.02.69.22.5zM15.38-11.47c.3-.22.07-.51-.22-.51-.3 0-.02.7.22.51zM6.36-31.35c-.29 0-.02.69.22.51.3-.22.08-.51-.22-.51zM1.02-36.61c.3-.22.07-.51-.22-.51-.3 0-.03.69.22.5zM.87-43.68c-.29 0-.02.7.22.51.3-.22.08-.51-.22-.51zM3.31-43.6c-.29 0-.02.69.22.5.3-.21.08-.5-.21-.5zM8.74-30.71c-.29 0-.02.69.22.51.3-.22.08-.51-.22-.51zM4.66-26.72c.3-.22.07-.52-.22-.52-.29 0-.02.7.22.52zM12.71-13.91c.3-.22.08-.51-.22-.51-.29 0-.01.7.22.5zM20.77-5.95c.3-.22.08-.51-.22-.51s-.02.7.22.5zM22.7-6.22c.28-.22.06-.52-.23-.52-.3 0-.02.7.22.52zM33.3-.28c.37-.27.1-.64-.27-.64-.36 0-.02.87.28.65zM38.8-2.2c.37-.27.09-.64-.28-.64s-.02.87.28.64zM39.5-.34c.28 0 .28-1.28-.46-1.37-.73-.09-.9 1.37.46 1.37zM22.21-.29c.37 0 .37-1.65-.45-1.65-.83 0-.48 1.65.45 1.65zM10.98-9.8c-.64-.27-.9 1.14-.1 1.29 1.01.19.74-1 .1-1.28zM10.34-11.07c.45 0 .91-.92.27-1.28-.64-.37-.85 1.28-.27 1.28zM9.09-6.8c.45 0 .91-.9.27-1.27S8.5-6.8 9.09-6.8zM8.5-11.9c.46 0 .92-.91.28-1.28s-.85 1.28-.27 1.28zM12.53-16.2c-.64-.36-.85 1.28-.27 1.28.46 0 .92-.91.27-1.28zM14.73-21.78c-.64-.37-.86 1.28-.28 1.28.46 0 .92-.91.28-1.28zM3.75-22.51c.45 0 .91-.92.27-1.29-.64-.36-.85 1.29-.27 1.29zM14.91-26.72c.46 0 .92-.92.28-1.28-.64-.37-.86 1.28-.28 1.28zM11.16-13s.46-1.37-.46-1.18c-.91.18-.09 1.28.46 1.19zM31.93-12.36c.65-.09.92-1 .19-1.1-.73-.08-.76 1.19-.19 1.1zM35.35-9.64c.64-.1.92-1 .18-1.1-.73-.09-.75 1.18-.18 1.1zM31.66-13.82c.64-.1.91-1 .18-1.1-.73-.09-.75 1.18-.18 1.1zM24.3-14.2c-.72-.09-.75 1.19-.17 1.1.63-.09.91-1 .18-1.1zM21.96-12.17c.64-.1.91-1 .18-1.1-.73-.1-.75 1.18-.18 1.1zM33.77-24.7c-.74-.1-.76 1.17-.19 1.09.64-.1.91-1 .19-1.1zM24.98-22.97c-.74-.1-.76 1.18-.19 1.1.65-.1.92-1 .19-1.1zM22.88-33.52c-.73-.09-.75 1.19-.18 1.1.64-.09.91-1 .18-1.1zM30.84-21.5c.63-.1.91-1.01.18-1.1-.73-.1-.76 1.18-.18 1.1zM25.8-26.72c-.73-.1-.75 1.18-.18 1.1.64-.1.91-1.01.18-1.1zM33.27-20.82c.83-.28.28-1.47-.45-1.28-.73.18-.17 1.49.45 1.28zM35.78-19.95c-.73.18-.18 1.5.45 1.28.83-.27.28-1.46-.45-1.28zM29.46-25.08c-.74.19-.17 1.5.46 1.28.82-.27.27-1.46-.46-1.28zM12.86-18.06c.73.27 1.19-.64.45-1.19-.73-.55-1.06.96-.45 1.19zM12.08-23.25c.73.28 1.19-.64.45-1.18-.73-.55-1.06.96-.45 1.18zM16.56-26.54c.73.28 1.2-.64.46-1.19-.73-.55-1.06.96-.46 1.19zM12.35-27.64c.73.27 1.2-.64.46-1.19-.73-.54-1.07.96-.46 1.2zM6.68-24.8c.73.27 1.19-.64.45-1.2-.73-.54-1.06.97-.45 1.2zM8.91-21.84c.59.22.95-.5.36-.95-.58-.44-.85.77-.36.95zM26.8-6.22c.47 0 .65-.73.2-.9-.47-.2-.77.9-.2.9zM24.25-7.32c.45 0 .64-.73.18-.92-.46-.18-.76.92-.18.92zM17.3-9.8c-.47-.18-.77.92-.2.92.47 0 .65-.73.2-.91zM33.85-5.3c.46 0 .64-.74.19-.92-.46-.19-.76.91-.19.91zM35.14-12.9c.45 0 .64-.74.18-.92-.46-.18-.76.92-.18.92zM38.7-12.45c.46 0 .64-.73.19-.91-.46-.19-.76.91-.18.91zM35.32-16.75c.46 0 .64-.73.18-.91-.45-.19-.76.91-.18.91zM39.74-33.31c.46 0 .64-.73.18-.92-.45-.18-.76.92-.18.92zM39.34-36.15c-.45-.18-.75.92-.18.92.46 0 .64-.74.19-.92zM35.85-22.84c-.55-.22-.91 1.1-.22 1.1.55 0 .77-.88.22-1.1zM37.28-16.66c.46 0 .64-.73.18-.91-.45-.19-.76.91-.18.91zM29.19-15.93c.46 0 .64-.73.18-.91-.46-.18-.77.91-.18.91zM29.65-19.95c-.46-.18-.76.91-.19.91.46 0 .64-.73.19-.91zM27-38.99c-.47-.18-.77.92-.2.92.47 0 .65-.73.2-.92zM10.89-6.04c-.46-.18-.77.92-.19.92.46 0 .64-.74.19-.92zM6.03-3.48c.46 0 .65-.73.19-.91-.46-.19-.76.91-.19.91zM12.84-.39c.46 0 .64-.73.18-.91-.46-.18-.76.91-.18.91zM6.58-8.7c-.45-.18-.76.92-.18.92.46 0 .64-.73.18-.92zM6.49-9.43c.46 0 .64-.73.19-.91-.46-.18-.77.91-.19.91zM7.43-1.68c.45 0 .64-.74.18-.92-.46-.18-.77.92-.18.92zM16.2-.18c.45 0 .63-.74.18-.92-.46-.18-.77.92-.19.92zM20.5-7.87c.45 0 .64-.73.18-.92-.46-.18-.77.92-.19.92zM8.65-9.5c.46 0 .64-.73.18-.91-.45-.19-.76.91-.18.91zM19.3-13.36c-.45-.19-.75.91-.18.91.46 0 .64-.73.18-.91zM14.36-14.55c.46 0 .64-.73.19-.92-.46-.18-.77.92-.19.92zM.73-1.1c.46 0 .64-.73.18-.91-.46-.19-.76.91-.18.91zM1.45-13.86c.46 0 .64-.73.18-.91-.45-.19-.76.91-.18.91zM9.6-15c.46 0 .64-.74.19-.93-.46-.18-.76.92-.19.92zM2.24-8.89c.46 0 .64-.73.18-.91-.45-.19-.76.91-.18.91zM7.59-17.11c.46 0 .64-.74.18-.92-.45-.18-.76.92-.18.92z" style="fill-rule:evenodd;clip-rule:evenodd;fill:#00aeef"/><path d="M.77-19.25c.46 0 .64-.73.18-.92-.46-.18-.76.92-.18.92z" style="fill:#00aeef"/><path d="M5.05-16.55c-.46-.19-.77.91-.19.91.46 0 .64-.73.19-.91zM6.82-13.2c-.46-.18-.77.91-.18.91.46 0 .64-.73.18-.9zM8.83-23.65c.46 0 .64-.73.19-.92-.46-.18-.77.92-.19.92zM9.24-26c.46 0 .64-.72.18-.9-.46-.19-.76.9-.18.9zM5.54-18.1c.46 0 .64-.73.18-.91-.46-.19-.76.9-.18.9zM5.64-22.8c.46 0 .64-.74.18-.93-.46-.18-.76.92-.18.92zM3.47-24.9c.46 0 .64-.72.19-.9-.46-.2-.77.9-.19.9zM3.66-28.37c.46 0 .64-.73.18-.92-.46-.17-.76.92-.18.92zM11.43-24.98c.46 0 .65-.74.19-.92-.46-.18-.77.91-.19.91zM12.99-21.69c.46 0 .64-.73.19-.92-.46-.18-.77.92-.2.92zM11.62-22.51c-.46-.19-.77.91-.19.91.46 0 .65-.73.19-.91zM15.46-26.45c-.46-.18-.76.92-.18.92.45 0 .64-.73.18-.92zM20.77-28.65c-.46-.18-.76.92-.18.92.45 0 .64-.73.18-.92zM19.49-26.08c.46 0 .64-.73.18-.92-.46-.18-.77.92-.18.92zM27.45-24.34c-.46-.19-.76.91-.18.91.46 0 .63-.73.18-.91zM37.88-20.68c.46 0 .64-.73.18-.92-.45-.18-.76.92-.18.92zM38.89-27.64c.45 0 .64-.73.18-.91-.46-.19-.76.91-.18.91zM40.48-38.75c-.46-.18-1.28 1.37-.19 1.28.46-.04.64-1.1.19-1.28zM15.19-23.43c-.46-.18-.77.92-.19.92.46 0 .64-.74.19-.92zM18.76-35.23c-.46-.19-.76.91-.19.91.46 0 .64-.73.19-.91zM28.73-38.9c.46 0 .64-.73.18-.9-.45-.2-.76.9-.18.9zM59.92-19.4c.45 0 .63-.73.18-.92-.46-.18-.76.92-.18.92zM37.97-40c-.45-.18-.76.92-.18.92.46 0 .64-.73.18-.91zM22.93-30.2c-.46-.18-.77.91-.19.91.46 0 .64-.73.19-.91zM10.98-38.07c-.46-.18-.76.92-.19.92.46 0 .64-.74.19-.92zM3.02-34.41c.45 0 .64-.73.18-.91-.46-.19-.76.91-.18.91zM1.37-32.96c-.46-.18-.77.92-.19.92.46 0 .65-.74.19-.92zM2.98-37.52c.45 0 .64-.73.18-.92-.46-.18-.76.92-.18.92zM4.39-36.42c.46 0 .64-.73.18-.92-.46-.18-.76.92-.18.92zM6.86-32.12c.46 0 .64-.73.18-.92-.46-.18-.76.92-.18.92zM13.63-38.35c.46 0 .64-.73.18-.91-.45-.18-.76.91-.18.91zM26.35-17.93c.46 0 .64-.74.19-.92-.46-.19-.77.92-.19.92zM26.44-15.56c-.46-.18-.76.92-.18.92.46 0 .64-.73.18-.92zM26.16-10.65c.45 0 .64-.74.18-.92-.46-.19-.76.92-.18.92zM28.73-12.17c.46 0 .64-.73.18-.92-.45-.18-.76.92-.18.92zM21.78-14.46c.45 0 .64-.73.18-.91-.46-.19-.76.9-.18.9zM17.47-15.56c.46 0 .65-.73.2-.91-.47-.19-.77.91-.2.91zM27.71-3c-.15.28-.13.7.23.7.38 0 .57-.5.36-.77" style="fill-rule:evenodd;clip-rule:evenodd;fill:#00aeef"/><path d="M27.71-3c.09-.16.24-.28.4-.21.09.03.14.08.2.14M19.12-6.22c.46 0 .64-.74.18-.92-.45-.18-.75.92-.18.92zM23.76-2.7c.45 0 .64-.74.18-.92-.46-.18-.76.91-.18.91zM29.83-21.41c-.46-.19-.76.91-.18.91.45 0 .64-.73.18-.91zM20.31-29.7c.46 0 .64-.74.19-.92-.47-.18-.77.91-.19.91zM25.53-28.46c.45 0 .64-.74.18-.91-.46-.19-.76.91-.18.91zM28.2-27.54c.45 0 .63-.73.17-.91-.45-.19-.76.91-.18.91zM34.7-35.87c.46 0 .64-.74.18-.92-.46-.18-.76.92-.18.92zM24.25-31.3c.45 0 .64-.73.18-.91-.46-.19-.76.91-.18.91zM33.85-33.59c.46 0 .64-.73.19-.91-.46-.19-.76.91-.19.91zM17.38-39.72c-.46-.18-.76.92-.18.92.46 0 .64-.73.18-.92zM26.35-16.75c.46 0 .64-.73.19-.91-.46-.19-.77.91-.19.91zM30.01-15.28c-.46-.19-.76.91-.18.91.46 0 .64-.73.18-.91zM39.34-16.93c.46 0 .65-.74.2-.92-.47-.18-.77.92-.2.92zM38.4-30.5c-.47-.19-.77.9-.2.9.47 0 .65-.72.2-.9zM36.6-27.91c.46 0 .64-.74.18-.92-.45-.18-.76.92-.18.92zM36.23-30.29c.46 0 .65-.73.19-.92-.46-.18-.77.92-.19.92zM35.78-32.3c.45 0 .64-.74.18-.92-.46-.18-.76.91-.18.91zM1-5.04C1.18-5.4.73-7.31.45-6.87.18-6.4.71-4.44 1-5.04zM32.2-37.38c.37-.55-.73-1.92-1.46-1.55-.73.36 1.07 2.15 1.47 1.55zM28-32.88c0-.73-.82-1.65-1.2-.73-.36.9 1.2 1.51 1.2.73zM28.95-35.36c.47-.1.56-1.1-.27-1.1-.82 0-.64 1.28.27 1.1zM8.32-28.6c.64-.83-.64-1.93-1.19-1.28-.55.64.69 1.92 1.2 1.27zM6.4-20.4c.55-.2.55-1.47-.55-1.29-1.1.18-.06 1.49.55 1.28zM2.22-23.07c.06-.65-1.46-1.53-1.71-.79-.25.75 1.64 1.62 1.71.8zM.72-25.86c.72.33 1.68-1.6.74-1.5-.93.09-1.22 1.28-.74 1.5zM2.57-29.25c.55-.1.55-1.38-.45-1.38-1.01 0-.36 1.51.45 1.38zM15.58-31.5c.37-.73-.82-1.74-1.19-1.28-.36.45.93 1.8 1.2 1.28zM12.63-33.95c-.55 0-.28 1.28.27 1.19.55-.1.28-1.2-.28-1.2zM14.54-36.79c.37-.55-.36-1.74-.9-1-.56.73.51 1.6.9 1zM8.96-37.98c.64-.1.74-1.56-.27-1.56-1 0-.46 1.66.27 1.56zM35.78-23.43c.64 0 .82-1.28 0-1.46-.83-.19-.96 1.46 0 1.46zM38.8-23.7c.73.18 1.29-1.38.64-1.65-.64-.27-1.28 1.49-.64 1.65zM78.16-9.09c-.55-.09-.37.19-1.1 1.2-.74 1-2.25.56-1.56.82 2.47.92 3.2-1.92 2.66-2.02zM55.4-6.68c.27-.83-1.01-2.38-1.93-1.74-.92.64 1.67 2.49 1.92 1.74zM61.98-3.66c.46-.64.18-2.38-.73-1.92-.92.46.3 2.52.73 1.92zM55.89-12.17c.55 1 .54 1.69 1 .82.65-1.19-1.18-2.75-1.64-2.29-.46.46.1.46.64 1.47zM54.02-10.16c.1-1.1-1.28-2.65-1.37-1.74-.1.92 1.3 2.48 1.37 1.74zM63.72-16.2c-.1 1.1.52 1.88.82 1.1.83-2.1-.82-3.66-1.37-3.11-.55.55.64.91.55 2.01zM73.24-15.37c-.46-3.67-1.29-2.48-1.56-1.47-.28 1 1.66 2.28 1.56 1.47zM43.68-1.1c.82-.73.27-3.2-.55-2.47-.83.73-.2 3.14.55 2.47zM42.35-5.3c0 1.18 2.1.81 1.92.26-.23-.7-1.92-1.46-1.92-.27zM43.34-17.47c0-1-.55-1.74-1.19-1.1-.64.65 1.2 1.88 1.2 1.1zM63.63-23.98c0-1-.55-1.74-1.2-1.1-.63.65 1.2 1.88 1.2 1.1zM59.97-37.34c0-1-.55-1.74-1.2-1.1-.63.64 1.2 1.88 1.2 1.1zM52.65-5.67c-1-.65-1.44 1.56-.64 1.73.82.19 1.64-1.1.64-1.73zM60.36-.21c.65-.55 0-1.93-.82-1.38s.18 1.93.82 1.38zM76.44-2.56c.46.64 1.65-.64 1.28-1.47-.36-.82-1.87.64-1.28 1.47zM68.66-7.6c1.28.28 1-1.55.55-1.92-.45-.37-1.24 1.77-.55 1.92zM68.84-9.98c1.2-.18.55-2-.27-1.83-.82.19-.54 1.96.27 1.83zM79.78-14.37c.64-.91-1.56-2.56-1.83-1.56-.28 1.01 1.22 2.44 1.83 1.56zM79.13-21.3c.91 0 .73-1.75-.19-1.75-.92 0-.95 1.74.19 1.74zM59.83-9.48c1.01-.09 0-1 .28-1.46.28-.46.46-1.1-.55-1.2-1-.08-.65 2.75.27 2.66zM41.76-20.22c.64 1.27 2.01-.92 1.74-1.38-.28-.46-2.1.67-1.74 1.38zM51.1-17.02c.17-.91-.29-1.74-.74-1.47-.46.28-.73-.55-1.2.1-.45.63 1.77 2.17 1.93 1.37zM58.78-17.76c.64-.36.18-1.83-.74-1.55-.9.27-.06 2 .74 1.55zM55.52-19.82s-2.29 1.19-1 1.83c1.91.96 1-1.83 1-1.83zM58.23-1.19c.09-.37-.92-1.92-1.37-1.46-.46.45 1.2 2.18 1.37 1.46zM73.18-10.62c.82.73 1.64-1.74 1.1-1.83-.56-.09-1.79 1.22-1.1 1.83zM58.05-28.55c.73-.2.18-2.48-1.01-2.02-1.19.46-.06 2.28 1 2.02zM63.93-32.87c.44.05.74-.92.3-1.23-.44-.3-.7 1.2-.3 1.23zM24.55-34.1c-.43-.3-.7 1.2-.3 1.23.43.05.74-.92.3-1.23zM65.1-36.06c0-.91-1.93-.82-1.93.19 0 1 1.92.55 1.92-.19zM68.73-35.26c0-.92-1.92-.83-1.92.18 0 1 1.92.55 1.92-.18zM72.5-32.49c.74-.09.46-2.1-.36-2.1-.83 0-1.01 2.27.36 2.1zM76.63-36.15c.22-.37-.66-1.9-1.24-1.32-.59.59.74 2.16 1.24 1.32zM41.77-35.58c-.27.28.11.5.17 1.05.06.55.17 1.43.38 1.04.66-1.2-.27-2.36-.55-2.09zM52.83-28.83c1.46-1.83-.82-2.2-1.1-1.92-.19.2.13 1.45.55 1.9M52.28-28.84c.17.19.37.24.55.01M73.05-6.68c.92-.19.74-1.47-.36-1.47s-.53 1.65.36 1.47zM74.25-2.5c.82-1.28-.73-1.64-1.37-1-.64.64.8 1.9 1.37 1zM65.1-19.3c.73 0 .82-1.66-.28-1.75-1.1-.09-1.11 1.74.27 1.74zM68.66-21.78c.73 0 .83-1.65-.27-1.74-1.1-.1-1.11 1.74.27 1.74zM62.62-26.08c.73 0 .83-1.65-.27-1.74-1.1-.1-1.11 1.74.27 1.74zM69.52-26.97c.73 0 .82-1.65-.28-1.73-1.1-.1-1.1 1.73.28 1.73zM73.76-26.84c.59 0 .66-1.32-.22-1.4-.88-.07-.89 1.4.22 1.4zM55.12-2.47c.73 0 .82-1.65-.28-1.74-1.1-.1-1.1 1.74.28 1.74z" style="fill-rule:evenodd;clip-rule:evenodd;fill:#00aeef"/><path d="M77.27-25.17c.54-.27.54-1.55-.46-1.28-1.01.27-.29 1.65.45 1.28z" style="fill:#00aeef"/><path d="M62.08-20.22c.54-.28.54-1.56-.47-1.29-1 .28-.28 1.66.47 1.29zM61.06-23.34c.55-.27.55-1.55-.45-1.28-1 .28-.29 1.65.45 1.28zM57.86-24.16c.55-.27.55-1.56-.46-1.28-1 .27-.28 1.65.46 1.28zM49.72-21.05c-1.01.27-.29 1.65.45 1.28.55-.27.55-1.55-.45-1.28zM57.5-4.67c.55-.27.55-1.55-.46-1.28-1 .28-.28 1.65.46 1.28zM58.32-20.77c.55-.28.55-1.56-.46-1.28-1 .27-.28 1.65.46 1.28zM65.83-.37c.54-.28.54-1.56-.46-1.28-1.01.27-.29 1.65.46 1.28zM71.77-28.92c.56-.28.56-1.55-.46-1.28-1 .27-.28 1.65.46 1.28zM74.3-31.26c.44-.22.44-1.25-.37-1.03-.8.23-.23 1.32.37 1.03zM74.97-28.63c.44-.22.44-1.24-.36-1.02-.8.22-.23 1.32.36 1.02zM79.05-31.65c-.8.22-.23 1.32.37 1.02.43-.21.43-1.24-.37-1.02zM58.32-32.58c-.8.22-.23 1.32.37 1.02.44-.21.44-1.24-.37-1.02zM61.89-39.9c-.8.22-.23 1.32.36 1.02.44-.22.44-1.24-.36-1.02zM56.49-33.3c.44-.21.44-1.24-.37-1.02-.8.22-.22 1.32.37 1.02zM52.65-37.69c.44-.22.44-1.24-.37-1.02-.8.22-.23 1.32.37 1.02zM60.88-33.84c.45-.22.45-1.25-.36-1.02-.8.21-.23 1.31.36 1.02zM45.78-37.78c.44-.22.44-1.24-.36-1.02-.8.22-.23 1.32.36 1.02zM57.13-36.68c.44-.22.44-1.25-.36-1.02-.81.22-.23 1.32.36 1.02zM55.4-36.15c-.81.22-.24 1.32.36 1.03.44-.23.44-1.25-.37-1.03zM54.57-32.22c-.8.22-.23 1.32.36 1.02.45-.22.45-1.24-.36-1.02zM44.5-32.38c.44-.22.44-1.24-.36-1.02-.81.21-.23 1.32.36 1.02zM43.26-31c.44-.23.44-1.25-.37-1.03-.8.22-.22 1.32.37 1.02zM45.14-29.82c.44-.22.44-1.24-.36-1.02-.8.22-.23 1.32.36 1.02zM46.97-26.8c.44-.22.44-1.24-.36-1.02-.8.22-.23 1.32.36 1.02zM63.22-8.71c.3-1.7.83-1.38.92-1.74.09-.37-1.2-.83-2.02-.28-.82.55.92 3.02 1.1 2.02zM70.18-5.21c.15-.63-1.33-1.1-1.47-.37-.27 1.37 1.38.73 1.47.37zM65.04-4.37c.37-.19-.36-1.74-.91-1.1-.55.64.03 1.54.91 1.1zM74.52-22.06c.37-.73-1.1-1.74-1.56-1.28-.46.46 1.2 1.99 1.56 1.28zM77.27-33.86c.09-.27.64-2.38-.37-1.65-1 .73.14 2.31.36 1.65zM65.28-37.34c.73-.36.55-2.38-.28-2.01-.82.36-.3 2.3.28 2.01zM61.52-16.3c0-1.73-1.75-1.75-1.92-.72-.09.54 1.92 1.47 1.92.73zM45.23-11.62c.55-.19.46-1.56-.36-1.47-.82.1-.42 1.73.36 1.47zM43.04-9.84c.36-.74-.65-1.47-1.2-.74-.54.74 1 1.15 1.2.74zM42.95-12.17c.73.18 1-.92.27-1.47-.73-.54-1.31 1.2-.27 1.47z" style="fill-rule:evenodd;clip-rule:evenodd;fill:#00aeef"/><path d="M44.87-6.96c.73.55 1.64-.36.91-1.19-.73-.82-1.8.53-.91 1.2z" style="fill:#00aeef"/><path d="M48.8-33.31c-.45-1-1.6-.13-1.28.73.37 1 1.74.27 1.28-.73zM50.63-33.59c.27-.45.46-1.64-.55-1.27-1 .36-.02 2.22.55 1.27zM48.25-36.6c0-.83-1-1.1-1.1-.37-.09.73 1.1 1.19 1.1.36zM46.33-35.23c.46-.28.28-1.38-.55-1.2-.82.19-.15 1.62.55 1.2zM42.23-38.82c-.46 1 .45 1.74 1 1 .6-.79-.55-2-1-1zM72.05-8.6c.54-.64-.46-1.92-1.01-1.65s.6 2.11 1 1.65zM48.25-13.54c.55-.92-.46-1.56-.82-1.01-.37.55.42 1.68.82 1zM52.04-.46c.55-.92-.46-1.56-.83-1.01-.36.55.42 1.68.83 1zM42.25-7.15c-.3-1.03-1.45-.73-1.3-.08.15.64 1.52.83 1.3.08zM45.87-14.28c.37-.09.92-1.1-.09-1.28-1-.18-.75 1.5.1 1.28zM47.89-5.3c.58-.79-.73-2.2-1.1-1.2-.37 1 .82 1.56 1.1 1.2zM49.4-2.55c1.28.64.55-2.28-.1-2.1-.63.18-.9 1.6.1 2.1zM77.56-10.62c.46.1 1.1-1 .27-1.19-.82-.18-1.12 1.03-.27 1.2zM75.78-14.92c.74-.36.1-1.1-.54-1.1-.65 0-.13 1.44.54 1.1zM75.64-1.53c.36-.28.09-.65-.28-.65-.36 0-.03.87.28.65zM70.95-6.87c.36-.27.09-.64-.28-.64-.36 0-.02.87.28.64zM77.27-5.58c-.37 0-.03.86.27.64.36-.27.09-.64-.28-.64zM76.07-4.58c.37-.27.1-.64-.27-.64s-.03.87.27.64zM67.24-24.28c.3-.22.07-.51-.22-.51-.3 0-.02.69.22.5zM79.37-27.23c-.29 0-.02.69.22.5.3-.21.08-.5-.22-.5zM70.13-31.3c.29-.22.07-.51-.22-.51-.3 0-.03.7.22.51zM67.63-30.49c-.3 0-.02.7.22.52.3-.22.07-.52-.22-.52M70.67-34.87c.3-.22.08-.5-.21-.5-.3 0-.03.68.22.5zM72.14-36.6c.3-.22.08-.52-.22-.52s-.02.7.22.51zM49.95-37.12c-.29 0-.01.7.22.51.3-.22.08-.5-.22-.5zM50.72-31.12c.3-.21.08-.5-.22-.5-.29 0-.02.69.22.5zM77.21-21.64c-.29 0-.02.69.22.5.3-.21.08-.5-.22-.5zM59.33-3.57c.29-.22.07-.51-.22-.51-.3 0-.02.69.22.51zM45.2-6c-.3 0-.03.69.22.5.29-.21.07-.5-.22-.5zM46.6-19.68c.3-.22.08-.51-.21-.51-.3 0-.03.7.22.51zM40.66-11.8c.29-.22.07-.52-.22-.52-.3 0-.02.7.22.51zM45.1-11.4c-.29 0-.02.69.22.5.3-.21.08-.5-.21-.5zM52.28-9.24c.3-.22.08-.51-.22-.51-.29 0-.02.69.22.5zM79.35-3.26c-.3 0-.02.69.22.5.29-.21.07-.5-.22-.5zM43.4-27.36c.3-.22.08-.51-.22-.51-.29 0-.02.69.22.5zM46.39-31.35c-.3 0-.02.69.22.51.29-.22.07-.51-.22-.51zM48.98-30.2c.3-.22.08-.51-.21-.51-.3 0-.02.69.21.51zM44.68-26.72c.3-.22.08-.52-.22-.52-.29 0-.02.7.22.52zM52.74-13.91c.3-.22.07-.51-.22-.51-.3 0-.02.7.22.5zM60.8-5.95c.28-.22.06-.51-.23-.51-.3 0-.02.7.22.5zM71.78-4.15c.29-.22.07-.51-.22-.51-.29 0-.02.7.22.51zM77.36-13.64c-.29 0-.02.7.22.52.3-.22.08-.52-.22-.52zM79.2-7.15c-.3 0-.03.7.22.5.29-.21.07-.5-.23-.5zM78.8-19.07c.3-.22.08-.52-.21-.52-.3 0-.03.7.22.52zM62.71-6.22c.3-.22.08-.52-.22-.52-.29 0-.02.7.22.52zM73.33-.28c.36-.27.1-.64-.28-.64-.36 0-.02.87.28.65zM78.76-4.84c-.37 0-.03.87.27.64.37-.27.1-.64-.27-.64zM77.4-16.9c.36-.28.09-.65-.28-.65s-.03.88.28.65zM79.44-.26c.28 0 .28-1.28-.45-1.37-.73-.1-.9 1.37.45 1.37zM50.9-8.51c1.01.19.74-1.01.1-1.28-.64-.28-.9 1.13-.1 1.28zM50.36-11.07c.45 0 .91-.92.27-1.28-.64-.37-.85 1.28-.27 1.28zM48.07-7.14c.46 0 .91-.91.28-1.28-.64-.37-.86 1.28-.28 1.28zM48.8-13.18c-.64-.37-.85 1.28-.27 1.28.45 0 .91-.91.27-1.28zM52.28-14.92c.46 0 .92-.91.27-1.28-.64-.36-.85 1.28-.27 1.28zM54.48-20.5c.45 0 .91-.91.27-1.28s-.85 1.28-.27 1.28zM44.05-23.8c-.65-.36-.86 1.29-.28 1.29.46 0 .91-.92.28-1.29zM55.2-28c-.63-.37-.84 1.28-.27 1.28.46 0 .92-.92.28-1.28zM51.19-13s.45-1.37-.47-1.18c-.91.18-.09 1.28.47 1.19zM45.63-.46s.46-1.38-.46-1.2c-.91.19-.09 1.29.46 1.2zM71.95-12.36c.64-.09.92-1 .19-1.1-.73-.08-.75 1.19-.19 1.1zM75.59-8.38c.64-.09.91-1 .18-1.1-.73-.08-.75 1.19-.18 1.1zM70.64-13.47c.65-.1.92-1.01.19-1.1-.74-.1-.76 1.18-.19 1.1zM63.45-13.54c.63-.1.9-1.01.18-1.1-.73-.1-.76 1.18-.18 1.1zM61.98-12.17c.64-.1.92-1 .18-1.1-.72-.1-.75 1.18-.18 1.1zM68.2-.31c.64-.1.92-1 .19-1.1-.74-.1-.76 1.18-.19 1.1zM72.33-24.9c.63-.09.9-1 .17-1.1-.73-.08-.75 1.2-.17 1.1zM64.82-21.87c.64-.1.91-1 .18-1.1-.73-.1-.76 1.18-.18 1.1zM62.34-31.76c-.73-.09-.75 1.19-.18 1.1.64-.09.92-1 .19-1.1zM70.86-21.5c.64-.1.91-1.01.18-1.1-.73-.1-.76 1.18-.18 1.1zM66.85-26.84c.64-.1.92-1.01.19-1.1-.74-.1-.76 1.18-.19 1.1zM65.83-26.72c-.74-.1-.76 1.18-.19 1.1.64-.1.92-1.01.19-1.1zM66.65-12.36c.82-.27.27-1.46-.46-1.28-.73.19-.17 1.5.46 1.28zM72.5-19.68c.83-.27.28-1.46-.45-1.28-.74.19-.18 1.5.45 1.28zM76.26-18.67c.82-.27.27-1.46-.46-1.28-.73.18-.17 1.5.46 1.28zM69.94-23.8c.83-.27.27-1.46-.45-1.28-.73.19-.18 1.5.45 1.28zM70.2-18.17c.82-.27.27-1.47-.46-1.28-.73.18-.17 1.49.45 1.28zM52.92-21.32c-.73-.55-1.06.96-.46 1.19.73.27 1.2-.64.46-1.2zM52.1-23.25c.73.28 1.19-.64.45-1.18-.73-.55-1.06.96-.45 1.18zM57.04-27.73c-.73-.55-1.06.96-.46 1.19.73.27 1.2-.64.46-1.19zM52.28-28.84c.13-.13.32-.16.55.01" style="fill-rule:evenodd;clip-rule:evenodd;fill:#00aeef"/><path d="M52.28-28.84c-.3.28-.33 1.05.1 1.2.72.28 1.18-.64.45-1.19M46.7-24.8c.73.27 1.19-.64.46-1.2-.74-.54-1.07.97-.46 1.2zM66.83-5.18c.46 0 .64-.73.18-.91-.45-.18-.76.91-.18.91zM64.27-7.32c.46 0 .64-.73.18-.92-.46-.18-.76.92-.18.92zM57.13-8.88c.46 0 .64-.73.19-.91-.46-.19-.77.91-.19.91zM73.88-5.3c.46 0 .64-.74.18-.92-.46-.19-.76.91-.18.91zM70.95-1.15c.45 0 .64-.73.18-.91-.45-.19-.76.91-.18.91zM69.27-3.33c.46 0 .64-.74.19-.92-.46-.18-.77.92-.19.92zM75.16-12.9c.46 0 .64-.74.18-.92-.45-.18-.76.92-.18.92zM74.64-18c-.46-.19-.76.9-.18.9.45 0 .64-.71.18-.9zM78.13-32.76c.46 0 .64-.74.18-.92-.46-.18-.76.92-.18.92zM79.37-36.15c-.46-.18-.77.92-.19.92.46 0 .65-.74.19-.92zM75.65-21.74c.55 0 .77-.88.22-1.1-.55-.22-.91 1.1-.22 1.1zM68.25-14.73c.46 0 .64-.73.19-.91-.46-.18-.77.91-.19.91zM67.44-20.01c.46 0 .64-.73.18-.92-.45-.18-.76.92-.18.92zM78.73-24.2c.46 0 .64-.74.18-.92-.46-.18-.76.91-.18.91zM66.83-38.07c.46 0 .64-.73.18-.92-.45-.18-.76.92-.18.92zM50.72-5.12c.47 0 .64-.74.19-.92-.46-.18-.76.92-.19.92zM46.06-3.48c.46 0 .64-.73.18-.91-.46-.19-.76.91-.18.91zM52.34-1.91c.46 0 .64-.73.18-.92-.46-.18-.75.92-.18.92zM46.52-9.43c.45 0 .64-.73.18-.91-.46-.18-.76.91-.18.91zM56.22-.18c.45 0 .64-.74.18-.92-.46-.18-.77.92-.18.92zM47.4-1.31c.46 0 .64-.74.19-.92-.46-.19-.77.92-.19.92zM60.52-7.87c.45 0 .64-.73.18-.92-.46-.18-.76.92-.18.92zM47.98-9.15c.46 0 .64-.73.18-.91-.45-.19-.76.91-.18.91zM59.14-13.83c.46 0 .65-.73.19-.92-.46-.18-.77.92-.19.92zM54.39-14.55c.45 0 .64-.73.18-.92-.46-.18-.77.92-.18.92zM40.75-1.1c.46 0 .64-.73.18-.91-.46-.19-.77.91-.18.91zM42.3-14.92c.46 0 .65-.73.19-.91-.46-.19-.76.91-.19.91zM49.63-15c.45 0 .64-.74.18-.93-.46-.18-.76.92-.18.92zM47.61-17.11c.46 0 .64-.74.19-.92-.46-.18-.77.92-.19.92zM48.35-25.26c-.46-.18-.77.92-.19.92.46 0 .64-.74.19-.92zM49.26-26c.46 0 .64-.72.18-.9-.45-.19-.76.9-.18.9zM44.87-17.76c.45 0 .64-.73.18-.9-.46-.2-.76.9-.18.9zM44.96-21.69c.46 0 .64-.73.18-.92-.46-.18-.76.92-.18.92zM44.87-27.82c.45 0 .64-.73.18-.92-.46-.18-.76.92-.18.92zM43.5-24.9c.45 0 .63-.72.18-.9-.46-.2-.77.9-.19.9zM51.46-24.98c.45 0 .64-.74.18-.92-.45-.18-.76.91-.18.91zM51.46-21.6c.45 0 .64-.73.18-.91-.45-.18-.76.91-.18.91zM55.3-25.53c.46 0 .64-.73.18-.92-.45-.18-.76.92-.18.92zM60.6-27.73c.46 0 .65-.73.2-.92-.47-.18-.77.92-.2.92zM59.51-26.08c.46 0 .64-.73.18-.92-.46-.18-.76.92-.18.92zM73.95-20.3c-.46-.17-.76.92-.18.92.46 0 .64-.73.18-.91zM78.91-27.64c.46 0 .64-.73.18-.91-.45-.19-.76.91-.18.91zM78.7-38.68c-.46-.18-1.29 1.37-.19 1.28.46-.04.64-1.1.19-1.28zM55.47-23.08a.42.42 0 0 0-.13-.26" style="fill-rule:evenodd;clip-rule:evenodd;fill:#00aeef"/><path d="M55.34-23.34a.38.38 0 0 0-.13-.09c-.46-.18-.76.92-.18.92.3 0 .47-.31.44-.57M58.78-35.23c-.46-.19-.76.91-.18.91.45 0 .63-.73.18-.91zM68.75-38.9c.46 0 .64-.73.19-.9-.46-.2-.77.9-.19.9zM79.52-45.3c-.46-.19-.76.9-.18.9.46 0 .64-.72.18-.9zM62.08-29.29c.45 0 .63-.73.17-.91-.45-.18-.76.91-.17.91zM67.63-30.49c.46 0 .64-.73.18-.92-.46-.18-.76.92-.18.92M51-38.07c-.46-.18-.76.92-.19.92.46 0 .65-.74.19-.92zM43.9-38.92c.45 0 .63-.74.17-.92-.45-.18-.76.92-.18.92zM44.41-36.42c.46 0 .64-.73.18-.92-.46-.18-.76.92-.18.92zM46.88-32.12c.46 0 .64-.73.18-.92-.45-.18-.76.92-.18.92zM53.65-38.35c.46 0 .64-.73.19-.91-.46-.18-.77.91-.19.91zM66.37-17.93c.46 0 .64-.74.19-.92-.46-.19-.77.92-.19.92zM66.28-14.64c.46 0 .64-.73.18-.92-.45-.18-.76.92-.18.92zM65.37-11.26c.46 0 .64-.73.18-.91-.46-.19-.76.91-.18.91zM68.94-13.09c-.46-.18-.77.92-.18.92.45 0 .63-.73.18-.92zM66.42-9.03c.46 0 .64-.73.19-.91-.46-.19-.77.91-.19.91zM61.8-14.46c.45 0 .64-.73.18-.91-.46-.19-.76.9-.18.9zM57.68-16.48c-.46-.18-.76.92-.18.92.45 0 .64-.73.18-.92zM56.22-16.1c.45 0 .64-.74.18-.92-.46-.19-.77.91-.18.91zM59.14-6.22c.46 0 .65-.74.19-.92-.46-.18-.77.92-.19.92zM63.02-2.06c.46 0 .64-.74.19-.92-.46-.18-.77.92-.2.92zM67.24-2.93c.46 0 .64-.73.18-.91-.46-.19-.76.91-.18.91zM69.67-20.5c.45 0 .64-.73.18-.91-.46-.19-.76.91-.18.91zM63.17-22.24c.46 0 .64-.73.18-.91-.45-.19-.76.91-.18.91zM60.33-29.01c.46 0 .64-.73.19-.92-.46-.18-.77.92-.19.92zM55.47-23.08c.07.06.17.11.3.11.65 0 .9-1.03.26-1.28-.43-.18-.76.47-.69.9" style="fill-rule:evenodd;clip-rule:evenodd;fill:#00aeef"/><path d="M55.47-23.08a.47.47 0 0 1-.13-.26M65.55-28.46c.46 0 .64-.74.18-.91-.45-.19-.76.91-.18.91zM64.27-31.3c.46 0 .64-.73.18-.91-.46-.19-.76.91-.18.91zM73.88-33.59c.46 0 .64-.73.18-.91-.46-.19-.76.91-.18.91zM57.4-39.72c-.45-.18-.76.92-.18.92.46 0 .64-.73.18-.92z" style="fill-rule:evenodd;clip-rule:evenodd;fill:#00aeef"/><path d="M61.12-41.67c-.46-.18-.77.92-.18.92.45 0 .63-.74.18-.92z" style="fill:#00aeef"/><path d="M67.76-16.75c.45 0 .64-.73.18-.91-.46-.19-.76.91-.18.91zM70.29-15.74c.46 0 .64-.73.18-.92-.46-.18-.76.92-.18.92zM79.55-17.85c-.46-.18-.76.92-.18.92.46 0 .64-.73.18-.92zM77.72-29.46c-.46-.2-.76.9-.18.9.45 0 .64-.73.18-.9zM76.11-28.14c-.46-.18-.76.92-.18.92.46 0 .64-.73.18-.92zM76.44-31.2c-.46-.2-.77.91-.18.91.45 0 .64-.73.18-.92zM75.98-33.22c-.46-.18-.76.91-.18.91.46 0 .64-.72.18-.91zM40.6-3.44c.18-.36-.28-2.29-.56-1.83-.26.46.27 2.42.56 1.83zM73.47-37.24c.37-.55-.72-1.92-1.46-1.56-.73.37 1.07 2.15 1.46 1.56zM67.79-32.46c0-.73-.83-1.64-1.2-.73-.36.92 1.2 1.52 1.2.73zM70.36-37.29c-.82 0-.64 1.28.28 1.1.45-.1.55-1.1-.28-1.1zM49.04-27.91c.64-.83-.64-1.93-1.2-1.29-.54.65.7 1.93 1.2 1.29zM47.3-20.52c.56-.18.56-1.47-.54-1.28-1.1.18-.06 1.48.55 1.28zM41.66-23.25c.55-.36.28-2.1-.45-1.83-.74.28-.23 2.3.45 1.83zM41.73-26.96c.68-.4-.36-2.28-.82-1.46-.46.82.37 1.74.83 1.46zM42.21-29.23c.55-.09.55-1.37-.45-1.37-1.01 0-.36 1.5.45 1.37zM47.98-22.42c1.1-.37-.37-2.2-.55-1.56-.18.64-.03 1.75.55 1.56z" style="fill-rule:evenodd;clip-rule:evenodd;fill:#00aeef"/><path d="M54.75-33.5c.37-.73-.82-1.73-1.19-1.28-.37.46.93 1.8 1.2 1.29z" style="fill:#00aeef"/><path d="M52.92-32.76c.55-.1.27-1.2-.27-1.2-.55 0-.28 1.29.27 1.2zM53.65-37.8c-.55.74.52 1.6.92 1.01.36-.55-.37-1.74-.92-1zM48.71-39.53c-1 0-.45 1.66.28 1.55.64-.1.73-1.55-.28-1.55zM75.8-23.43c.64 0 .82-1.28 0-1.46-.83-.19-.96 1.46 0 1.46zM69.73-43.36c.44.55 1.93 0 1.7-.6-.21-.6-.65.21-1.09.1-.44-.1-.89.14-.6.5zM55.4-46.82c.27-.83-1.01-2.38-1.93-1.74-.92.64 1.67 2.48 1.92 1.74zM61.25-45.73c-.92.46.3 2.52.73 1.92.46-.64.18-2.38-.73-1.92zM55.94-53.78c-.46.46.1.46.64 1.46.55 1.01.54 1.7 1 .83.65-1.2-1.18-2.75-1.64-2.3zM54.02-50.3c.1-1.1-1.28-2.66-1.37-1.74-.1.92 1.3 2.47 1.37 1.74zM75-50.37c-.5 1.02.78.97 1.15 1.72.38.74.37 1.56.94.92.57-.63-.85-1.73-1.05-2.29-.19-.55-.77-.91-1.04-.35zM63.17-59.19c-.55.55.64.92.55 2.02-.1 1.1.52 1.88.82 1.1.83-2.11-.82-3.66-1.37-3.12zM73.24-55.52c-.46-3.66-1.29-2.47-1.56-1.46-.28 1 1.66 2.27 1.56 1.46zM44.37-41.24c.83-.73.27-3.2-.55-2.47-.82.73-.2 3.14.55 2.47zM40.68-43.8c0 1.18 2.1.82 1.92.27-.23-.7-1.92-1.46-1.92-.28zM62.44-65.22c-.64.64 1.19 1.87 1.19 1.1 0-1-.55-1.74-1.2-1.1zM59.97-77.48c0-1-.55-1.74-1.2-1.1-.63.64 1.2 1.87 1.2 1.1zM41.85-58.36c-1.2.46.6 2.33 1.1 1.65.54-.73.09-2.1-1.1-1.65zM52-44.08c.83.18 1.65-1.1.65-1.74-1-.64-1.44 1.56-.64 1.74zM61.95-36c.64-.55 0-1.92-.82-1.37-.83.55.18 1.92.82 1.37zM77.72-44.17c-.36-.82-1.87.63-1.28 1.46.46.64 1.65-.64 1.28-1.46zM69.21-49.66c-.45-.37-1.24 1.77-.55 1.92 1.28.27 1-1.56.55-1.92zM66.43-48.69c1.2-.18.55-2-.27-1.83-.82.18-.55 1.96.27 1.83zM77.82-61.92c-.55 0-.57 1.04.1 1.04.56 0 .45-1.04-.1-1.04zM61.98-51.23c-1-.1-.65 2.73.27 2.64 1.01-.09 0-1 .28-1.46.27-.45.46-1.1-.55-1.19zM41.76-60.37c.64 1.28 2.01-.91 1.74-1.38-.28-.45-2.1.68-1.74 1.38zM50.36-58.63c-.46.27-.73-.55-1.2.09-.45.64 1.77 2.18 1.93 1.37.18-.91-.28-1.74-.73-1.46zM58.05-59.45c-.92.27-.07 2 .73 1.55.64-.36.18-1.83-.73-1.55zM56.22-59.27s-2.3 1.19-1.01 1.83c1.91.96 1-1.83 1-1.83zM71.6-41.64c-.45-.82-1.84.56-1.18 1.1 1 .82 1.64-.27 1.18-1.1zM59.02-41.37c.1-.36-.92-1.92-1.37-1.46-.46.46 1.2 2.18 1.37 1.46zM50.36-42.25c-.46-.27-1.76.95-1.1 1.28.55.28 2.83-.24 1.1-1.28zM73.67-53.72c-.55-.1-1.77 1.22-1.1 1.83.83.73 1.66-1.74 1.1-1.83zM57.04-70.7c-1.19.44-.06 2.27 1 2 .74-.18.19-2.47-1-2zM65.1-76.2c0-.92-1.93-.83-1.93.18 0 1 1.92.55 1.92-.18zM72.14-74.73c-.83 0-1.01 2.27.36 2.1.74-.1.46-2.1-.36-2.1zM75.7-80.13c.03.54.33 1.05 1 .96.34-.03.46-.49.42-.96M41.4-75.84c-.47.46.17.83.26 1.74.1.92.3 2.39.65 1.74 1.1-2-.46-3.93-.92-3.48zM48.98-70.35l.03-.01M48.98-70.35c-.27.28.49 2.7 1.1 1.93 1.44-1.8-.72-2.18-1.07-1.94M73.78-48.48c-1.1 0-.53 1.64.37 1.46.92-.18.74-1.46-.37-1.46zM73.05-43.53c-.5.5.64 1.52 1.1.8.66-1.03-.58-1.32-1.1-.8zM64.82-61.2c-1.1-.08-1.11 1.75.27 1.75.74 0 .83-1.65-.27-1.74zM63.92-67.06c.73 0 .82-1.65-.28-1.74-1.1-.1-1.1 1.74.28 1.74zM69.73-68c-1.1-.09-1.11 1.74.27 1.74.73 0 .83-1.64-.27-1.73zM69.03-70.7c-1.1-.1-1.11 1.73.27 1.73.73 0 .83-1.65-.27-1.74zM73.97-66.78c.73 0 .82-1.64-.27-1.73-1.1-.1-1.12 1.73.27 1.73zM55.6-43.32c.73 0 .83-1.64-.27-1.74-1.1-.09-1.11 1.74.27 1.74zM76.8-66.6c-1 .28-.28 1.66.47 1.29.54-.28.54-1.56-.46-1.28zM61.61-61.65c-1 .28-.28 1.65.47 1.28.54-.27.54-1.55-.47-1.28zM61.06-63.48c.55-.27.55-1.56-.45-1.28-1 .27-.29 1.65.45 1.28zM57.4-65.59c-1 .28-.28 1.66.46 1.29.55-.28.55-1.56-.46-1.29zM49.72-61.2c-1.01.28-.29 1.66.45 1.29.55-.28.55-1.56-.45-1.28zM57.04-46.1c-1 .28-.28 1.66.46 1.29.55-.28.55-1.56-.46-1.28zM57.86-62.2c-1 .28-.28 1.65.46 1.28.55-.27.55-1.55-.46-1.28zM65.37-41.8c-1.01.28-.29 1.66.46 1.28.54-.27.54-1.55-.46-1.28zM75.58-38.72c.54-.28.54-1.56-.46-1.28-1 .27-.29 1.65.46 1.28zM71.31-70.35c-1 .28-.28 1.66.46 1.29.56-.28.56-1.56-.46-1.29zM67.72-73.15c-1.01.27-.29 1.65.45 1.28.55-.27.55-1.56-.45-1.28zM73.47-71.52c-.8.22-.22 1.32.37 1.03.44-.22.44-1.24-.37-1.03zM74.6-69.8c-.8.23-.22 1.33.37 1.03.44-.22.44-1.25-.36-1.02zM58.32-72.72c-.8.22-.23 1.32.37 1.02.44-.22.44-1.24-.37-1.02zM56.12-74.46c-.8.22-.22 1.32.37 1.02.44-.22.44-1.24-.37-1.02zM52.28-78.86c-.8.22-.23 1.33.37 1.03.44-.22.44-1.25-.37-1.03zM60.52-75.01c-.8.22-.23 1.32.36 1.02.45-.22.45-1.24-.36-1.02zM45.42-78.95c-.8.22-.23 1.33.36 1.03.44-.22.44-1.25-.36-1.03zM56.77-77.85c-.81.22-.23 1.32.36 1.03.44-.22.44-1.25-.37-1.03zM55.4-76.3c-.81.23-.24 1.33.36 1.03.44-.22.44-1.24-.37-1.02zM53.65-71.35c-.8.22-.22 1.32.37 1.02.44-.22.44-1.24-.37-1.02zM44.5-72.53c.44-.21.44-1.23-.36-1.02-.81.22-.23 1.32.36 1.02zM43.59-72.17c-.81.22-.23 1.31.36 1.02.44-.22.44-1.24-.36-1.02zM44.77-70.98c-.8.22-.22 1.31.37 1.02.44-.22.44-1.24-.37-1.03zM46.6-67.96c-.8.21-.22 1.32.37 1.02.44-.22.44-1.25-.36-1.02zM69.73-45.69c-.27 1.38 1.37.73 1.46.37.16-.62-1.32-1.08-1.46-.37zM64.82-45.27c-.55.64.03 1.54.91 1.1.37-.18-.36-1.74-.91-1.1z" style="fill-rule:evenodd;clip-rule:evenodd;fill:#00aeef"/><path d="M72.96-63.48c-.46.46 1.2 1.99 1.56 1.28.37-.73-1.1-1.74-1.56-1.28z" style="fill:#00aeef"/><path d="M77.66-70.7c.64.1 1.37-2.1.64-2.47-.73-.36-1.57 2.34-.64 2.48zM76.9-76.69c-1.01.73.14 2.31.36 1.65.1-.27.64-2.38-.36-1.65zM59.6-57.17c-.09.55 1.92 1.48 1.92.74 0-1.74-1.75-1.77-1.92-.74zM44.87-53.23c-.82.1-.42 1.72.36 1.46.55-.18.46-1.55-.36-1.46zM42.95-48.93c.36-.73-.65-1.46-1.2-.73-.54.73 1 1.14 1.2.73zM42.95-52.32c-.74-.54-1.32 1.21-.28 1.46.73.2 1-.9.27-1.46zM44.87-47.1c.73.55 1.64-.37.91-1.19-.73-.82-1.8.53-.91 1.19zM47.52-72.72c.37 1 1.74.27 1.28-.74-.45-1-1.6-.12-1.28.74zM49.6-80.13c-.03.75-1.06 1.14-1.37.29a.84.84 0 0 1-.05-.3M50.08-75.01c-1 .36-.01 2.23.55 1.28.27-.46.46-1.65-.55-1.28zM47.5-76.42c-.09.73 1.1 1.18 1.1.36 0-.83-1-1.1-1.1-.36zM45.78-76.57c-.82.19-.15 1.62.55 1.2.46-.28.28-1.38-.55-1.2zM40.84-79.31c-.46 1 .46 1.74 1 1 .6-.79-.54-2.01-1-1zM70.7-50.74c-.55.27.6 2.11 1 1.65.55-.64-.46-1.92-1-1.65zM39.59-50.21c-.55.27.61 2.11 1 1.64.56-.63-.45-1.91-1-1.64zM47.43-54.7c-.37.56.42 1.69.82 1.01.55-.91-.45-1.55-.82-1zM42.4-47.07c.15.64 1.51.83 1.3.08-.3-1.03-1.46-.72-1.3-.08zM40.28-53.66c.16.64 1.52.84 1.3.08-.3-1.02-1.45-.73-1.3-.08zM45.78-55.7c-1-.18-.75 1.49.1 1.28.36-.1.9-1.1-.1-1.28zM46.79-46.64c-.37 1 .82 1.55 1.1 1.18.58-.77-.73-2.19-1.1-1.18zM37.21-38.35c-.64.19-.9 1.62.1 2.1 1.27.65.54-2.28-.1-2.1zM77.42-52.1c-.83-.18-1.12 1.02-.28 1.19.46.1 1.1-1 .28-1.2zM76.76-55.17c-.64 0-.13 1.44.55 1.1.73-.37.1-1.1-.55-1.1zM75.98-41.34c.37-.27.1-.63-.27-.63s-.03.86.27.63zM70.95-47c.36-.28.09-.65-.28-.65-.36 0-.02.87.28.64zM77.54-45.09c.36-.27.09-.64-.28-.64-.36 0-.02.87.28.64zM78.5-47.29c-.37 0-.03.87.27.64.37-.27.1-.64-.27-.64zM75.73-44.38c.37-.27.1-.63-.28-.63-.36 0-.03.86.28.63zM67.42-66.28c-.29 0-.02.7.23.51.29-.22.07-.51-.23-.51zM79.72-65.21c.3-.22.07-.51-.22-.51-.3 0-.02.7.22.5zM78.68-66.3c.3-.22.07-.51-.22-.51-.3 0-.02.7.22.51zM69.9-71.95c-.29 0-.02.69.22.5.3-.21.08-.5-.22-.5zM70.46-75.52c-.3 0-.03.7.21.5.3-.21.08-.5-.21-.5zM74.6-76.11c.3-.23.08-.52-.21-.52s-.02.7.22.52zM72.14-76.75c.3-.22.08-.51-.22-.51s-.02.7.22.5zM49.95-77.26c-.29 0-.01.7.22.5.3-.21.08-.5-.22-.5zM50.5-71.77c-.29 0-.02.7.22.5.3-.21.08-.5-.22-.5zM59.33-43.71c.29-.22.07-.52-.22-.52-.3 0-.02.7.22.52zM45.2-46.15c-.3 0-.03.7.22.52.29-.22.07-.52-.22-.52zM46.39-60.33c-.3 0-.02.69.22.51.29-.22.07-.51-.22-.51zM56.55-7.92c-.3 0-.02.7.22.51.29-.21.07-.5-.22-.5zM52.58-18.9c-.3 0-.02.7.22.51.3-.22.07-.5-.22-.5zM27.18-20.52c.29-.22.07-.51-.22-.51-.3 0-.03.7.21.51zM40.44-52.46c-.3 0-.02.69.22.51.29-.22.07-.51-.22-.51zM45.33-51.03c.29-.22.07-.52-.22-.52-.3 0-.03.7.22.52zM52.28-49.39c.3-.22.08-.51-.22-.51-.29 0-.02.7.22.51zM41.72-67.5c-.3 0-.02.69.22.51.3-.22.07-.51-.22-.51zM46.39-71.5c-.3 0-.02.7.22.52.29-.22.07-.52-.22-.52zM49-70.36c.27-.22.05-.5-.23-.5-.3 0-.02.7.22.51M48.98-70.35l.03-.01M44.47-67.38c-.3 0-.03.7.21.51.3-.22.08-.5-.21-.5zM52.52-54.57c-.3 0-.02.7.22.52.3-.22.07-.52-.22-.52zM55.24-51.74c.3-.21.07-.5-.22-.5-.3 0-.02.69.22.5zM59.71-50.52c.3-.22.08-.5-.22-.5-.29 0-.02.68.22.5zM62.5-46.88c-.3 0-.03.7.21.51.3-.22.08-.51-.22-.51zM73.05-41.06c-.36 0-.02.86.28.64.36-.27.1-.64-.28-.64zM78.55-42.98c-.37 0-.03.87.27.64.37-.27.1-.64-.27-.64zM78.6-41.1c-.72-.08-.89 1.38.47 1.38.27 0 .27-1.28-.46-1.37zM62.59-42c-.82 0-.47 1.65.46 1.65.36 0 .36-1.66-.46-1.66zM52.77-41.64c-.64-.27-.9 1.14-.1 1.29 1.01.17.74-1.02.1-1.3zM51-49.94c-.64-.27-.9 1.14-.1 1.29 1.01.18.74-1.01.1-1.29zM50.63-52.5c-.64-.36-.85 1.28-.27 1.28.45 0 .91-.91.27-1.28zM48.35-48.56c-.64-.37-.86 1.28-.28 1.28.46 0 .91-.92.28-1.28zM48.53-52.04c.45 0 .91-.92.27-1.28-.64-.37-.85 1.28-.27 1.28zM52.55-56.34c-.64-.37-.85 1.28-.27 1.28.46 0 .91-.92.27-1.28zM54.48-60.64c.45 0 .91-.92.27-1.28-.64-.38-.85 1.28-.27 1.28zM44.05-63.94c-.65-.36-.86 1.28-.28 1.28.46 0 .91-.91.28-1.28zM55.2-68.15c-.63-.36-.84 1.28-.27 1.28.46 0 .92-.91.28-1.28zM50.72-54.33c-.91.18-.09 1.28.47 1.2 0-.01.45-1.38-.47-1.2zM68.02-55.7c-.73-.1-.75 1.18-.18 1.1.64-.1.91-1.01.18-1.1zM73.24-50.67c-.74-.1-.76 1.18-.19 1.1.64-.1.92-1 .19-1.1zM61.32-79.88c-.73-.1-.76 1.18-.18 1.1.64-.1.9-1.01.18-1.1zM71.69-53.27c.64-.1.9-1 .17-1.1-.73-.1-.75 1.18-.17 1.1zM63.63-54.78c-.73-.1-.76 1.17-.18 1.1.63-.1.9-1.02.18-1.1zM62.16-53.07c-.72-.09-.75 1.18-.18 1.1.64-.09.92-1 .18-1.1zM72.49-65.84c-.74-.1-.76 1.18-.19 1.1.65-.1.92-1.01.19-1.1zM65-63.11c-.73-.1-.76 1.18-.18 1.1.64-.1.91-1.01.18-1.1zM62.34-71.9c-.73-.1-.75 1.18-.18 1.1.64-.1.92-1 .19-1.1zM64.73-74.65c-.74-.08-.76 1.19-.19 1.1.64-.09.92-1 .19-1.1zM74.52-79.37c-.74-.1-.76 1.18-.18 1.1.63-.1.91-1.01.18-1.1zM70.86-61.65c.64-.1.91-1 .18-1.1-.73-.1-.76 1.18-.18 1.1zM67.83-64.22c-.73-.1-.76 1.18-.19 1.1.64-.1.92-1.01.19-1.1zM65.83-66.52c-.74-.1-.76 1.18-.19 1.1.64-.1.92-1.01.19-1.1zM67.02-53.78c-.73.18-.18 1.5.46 1.28.82-.27.27-1.46-.46-1.28zM72.05-61.1c-.74.18-.18 1.5.45 1.28.83-.28.28-1.46-.45-1.28zM75.8-60.1c-.73.19-.17 1.5.46 1.29.82-.28.27-1.47-.46-1.29zM69.48-65.22c-.73.18-.17 1.5.46 1.28.83-.27.27-1.46-.45-1.28zM70.19-59.17c-.73.18-.18 1.5.46 1.28.82-.27.27-1.46-.46-1.28zM52.95-59.84c-.73-.55-1.06.96-.46 1.19.74.27 1.2-.64.46-1.19zM52.1-63.39c.73.28 1.19-.64.45-1.19-.73-.55-1.06.96-.45 1.2zM57.04-67.87c-.73-.55-1.06.96-.46 1.19.73.27 1.2-.64.46-1.2zM52.37-67.78c.73.27 1.2-.64.46-1.2-.73-.54-1.06.97-.46 1.2zM47.16-66.14c-.74-.54-1.07.97-.46 1.2.73.27 1.19-.65.46-1.2zM49.63-63.02c-.74-.55-1.07.96-.46 1.19.73.27 1.19-.64.46-1.2zM67.78-45.84c-.46-.18-.77.92-.19.92.46 0 .64-.73.19-.92zM64.45-48.38c-.46-.18-.76.91-.18.91.46 0 .64-.73.18-.91zM57.31-49.94c-.45-.18-.76.92-.18.92.46 0 .64-.73.18-.92zM74.06-46.37c-.46-.18-.76.92-.18.92.46 0 .64-.74.18-.92zM75.16-53.05c.46 0 .64-.73.18-.91-.45-.19-.76.91-.18.91zM79.19-52.97c.46 0 .64-.73.18-.92-.46-.18-.77.92-.18.92zM73.92-58.34c-.45-.18-.76.92-.18.92.46 0 .64-.74.18-.92zM78.82-73.6c.46 0 .64-.73.18-.92-.45-.17-.76.92-.18.92zM79.37-76.3c-.46-.18-.77.92-.19.92.46 0 .65-.73.19-.91zM76.6-57.31c-.54-.22-.91 1.1-.21 1.1.54 0 .77-.88.22-1.1zM75.87-62.99c-.55-.22-.91 1.1-.22 1.1.55 0 .77-.88.22-1.1zM78-56.8c.45 0 .64-.73.18-.92-.46-.18-.76.92-.19.92zM69.21-56.07c.46 0 .64-.73.18-.91-.45-.19-.76.91-.18.91zM68.54-59.1c-.46-.2-.76.9-.18.9.45 0 .64-.73.18-.9zM67.01-79.13c-.45-.18-.76.92-.18.92.46 0 .64-.74.18-.92zM50.72-45.27c.47 0 .64-.73.19-.92-.46-.18-.76.92-.19.92zM46.24-44.54c-.46-.18-.76.92-.19.92.47 0 .65-.73.19-.92zM53.56-41.88c.46 0 .64-.73.18-.92-.45-.18-.76.92-.18.92zM49.26-43.07c.46 0 .64-.74.18-.92-.45-.18-.76.92-.18.92zM46.7-50.48c-.46-.19-.77.91-.19.91.46 0 .65-.73.19-.91zM45.78-41.8c-.46-.17-.76.92-.18.92.46 0 .64-.73.18-.91zM26.16-40.76c.45 0 .64-.73.18-.91-.46-.18-.76.91-.18.91zM56.22-40.33c.45 0 .64-.73.18-.91-.46-.18-.77.91-.18.91zM48.12-41.38c-.46-.19-.76.91-.18.91.45 0 .64-.73.18-.91zM60.7-48.93c-.46-.18-.76.92-.18.92.45 0 .63-.74.18-.92zM48.16-50.21c-.45-.18-.76.91-.18.91.46 0 .64-.73.18-.91zM59.14-52.6c.46 0 .65-.72.19-.9-.46-.19-.77.9-.19.9zM54.57-55.61c-.46-.18-.77.92-.19.92.46 0 .64-.74.19-.92zM40.75-41.24c.46 0 .64-.73.18-.92-.46-.18-.77.92-.18.92zM42.3-55.06c.46 0 .65-.73.19-.92-.46-.18-.76.92-.19.92zM49.8-56.07c-.45-.18-.75.92-.17.92.45 0 .64-.73.18-.92zM47.8-58.17c-.46-.19-.77.91-.19.91.46 0 .64-.73.19-.91zM46.33-55.7c.46 0 .64-.73.19-.92-.46-.18-.77.92-.19.92zM47.73-64c-.45-.18-.76.91-.18.91.46 0 .64-.72.18-.91zM49.44-67.05c-.45-.19-.76.91-.18.91.46 0 .64-.73.18-.9zM45.05-58.81c-.46-.19-.76.91-.18.91.46 0 .64-.73.18-.91zM45.14-62.75c-.46-.18-.76.92-.18.92.46 0 .64-.73.18-.92zM45.05-68.88c-.46-.18-.76.92-.18.92.46 0 .64-.74.18-.92zM58.78-63.84c-.46-.18-.76.92-.18.92.45 0 .63-.73.18-.92zM60.12-59.57c.46 0 .64-.73.18-.92-.46-.17-.76.92-.18.92z" style="fill-rule:evenodd;clip-rule:evenodd;fill:#00aeef"/><path d="M68.97-33.03c.45 0 .63-.73.18-.91-.46-.19-.76.91-.18.91z" style="fill:#00aeef"/><path d="M43.5-65.04c.45 0 .63-.73.18-.91-.46-.19-.77.91-.19.91zM43.86-69.43c-.46-.18-.76.92-.18.92.45 0 .64-.74.18-.92zM51.64-66.04c-.45-.19-.76.91-.18.91.45 0 .64-.73.18-.91zM51.64-62.66c-.45-.18-.76.92-.18.92.45 0 .64-.73.18-.92zM55.48-66.6c-.45-.18-.76.92-.18.92.46 0 .64-.73.18-.91zM60.8-68.79c-.47-.18-.77.92-.2.92.46 0 .65-.73.2-.92zM59.7-67.14c-.47-.19-.77.91-.19.91.46 0 .64-.73.18-.91zM68.03-61.2c-.46-.17-.76.92-.18.92.46 0 .64-.73.18-.91zM79.2-63.03c.46 0 .64-.74.18-.92-.45-.19-.76.92-.18.92zM78.91-67.78c.46 0 .64-.73.18-.92-.45-.18-.76.92-.18.92zM55.47-63.23a.4.4 0 0 0-.13-.26M55.34-63.48a.38.38 0 0 0-.13-.1c-.46-.17-.76.92-.18.92.3 0 .47-.3.44-.57M58.6-74.46c.45 0 .63-.73.18-.92-.46-.18-.76.92-.18.92zM68.94-79.95c-.46-.19-.77.91-.18.91.45 0 .63-.73.18-.91zM78.42-78.63c-.45-.18-.76.91-.18.91.46 0 .64-.73.18-.91zM62.08-69.43c.45 0 .63-.73.17-.92-.45-.18-.76.92-.17.92zM64.54-69.7c.46 0 .64-.74.19-.92-.46-.18-.77.92-.19.92zM51-78.22c-.46-.18-.76.92-.19.92.46 0 .65-.73.19-.92zM43.18-78.58c-.46-.18-.76.91-.18.91.45 0 .64-.73.18-.91zM44.6-77.48c-.47-.19-.77.91-.19.91.46 0 .64-.73.18-.91zM47.06-73.19c-.45-.17-.76.92-.18.92.46 0 .64-.73.18-.92zM48.95-78.48c-.45-.19-.76.91-.18.91.46 0 .64-.73.18-.91zM66.56-59c-.46-.18-.77.92-.19.92.46 0 .64-.73.19-.92zM66.28-54.78c.46 0 .64-.74.18-.92-.45-.18-.76.92-.18.92zM65.55-52.32c-.46-.18-.76.92-.18.92.46 0 .64-.73.18-.92zM68.69-51.7c-.46-.18-.76.92-.18.92.45 0 .64-.74.18-.92zM61.45-53.57c.46 0 .64-.73.19-.91-.47-.18-.77.91-.19.91zM59.9-55.7c-.46-.18-.77.92-.19.92.46 0 .64-.74.19-.92zM57.68-56.62c-.46-.18-.76.92-.18.92.45 0 .64-.73.18-.92zM56.4-57.17c-.46-.18-.77.92-.19.92.46 0 .65-.73.19-.92zM68.66-40.89c.46 0 .64-.73.18-.9-.45-.2-.76.9-.18.9zM59.33-47.28c-.46-.19-.77.91-.19.91.46 0 .64-.73.19-.91zM67.32-42.59c.46 0 .64-.73.18-.9-.46-.2-.76.9-.18.9zM69.85-61.56c-.46-.19-.76.92-.18.92.45 0 .64-.73.18-.92zM77.63-64.46c-.46-.18-.76.92-.18.92.45 0 .64-.73.18-.92zM63.35-63.3c-.45-.18-.76.92-.18.92.46 0 .64-.73.18-.92zM60.33-69.16c.46 0 .64-.73.19-.91-.46-.19-.77.91-.19.91z" style="fill-rule:evenodd;clip-rule:evenodd;fill:#00aeef"/><path d="M55.47-63.23a.49.49 0 0 1-.13-.26" style="fill-rule:evenodd;clip-rule:evenodd;fill:#00aeef"/><path d="M55.47-63.23c.07.07.17.11.3.11.65 0 .9-1.02.26-1.28-.43-.17-.76.48-.69.91M66.53-68.1c.45 0 .64-.74.18-.92-.46-.19-.76.91-.18.91zM64.45-72.36c-.46-.18-.76.92-.18.92.46 0 .64-.73.18-.92zM73.88-73.73c.46 0 .64-.73.18-.92-.46-.18-.76.92-.18.92zM54.73-79.78c-.45-.19-.76.91-.18.91.46 0 .64-.73.19-.91zM69.68-52.55c.45 0 .64-.73.18-.92-.46-.18-.76.92-.18.92zM70.03-55.43c-.45-.18-.76.92-.18.92.46 0 .64-.73.18-.92zM79.06-55.17c.46 0 .64-.73.19-.91-.46-.19-.77.91-.19.91zM79.48-70.76c-.46-.18-.77.92-.19.92.46 0 .64-.73.19-.92zM76.8-68.97c-.45-.19-.76.91-.18.91.46 0 .64-.73.19-.91zM76.44-71.35c-.46-.18-.77.91-.18.91.45 0 .64-.73.18-.91zM75.98-73.36c-.46-.19-.76.91-.18.91.46 0 .64-.73.18-.91zM40.47-47c-.26.45.26 2.41.56 1.82.18-.36-.28-2.29-.56-1.83zM70.77-79.77c-.74.36 1.06 2.15 1.46 1.55.36-.54-.73-1.92-1.46-1.55zM68.02-75.1c0-.74-.82-1.65-1.19-.74-.36.92 1.2 1.52 1.2.73zM69.12-77.85c-.83 0-.64 1.28.27 1.1.46-.1.55-1.1-.27-1.1zM47.16-69.34c-.55.64.68 1.93 1.19 1.28.63-.82-.64-1.92-1.2-1.28zM41.66-63.39c.55-.36.28-2.1-.45-1.83-.74.28-.23 2.29.45 1.83zM41.76-69.7c-1.01 0-.36 1.5.45 1.37.55-.1.55-1.37-.45-1.37zM53.56-74.92c-.36.46.93 1.8 1.2 1.28.36-.73-.83-1.74-1.2-1.28zM52.65-74.1c-.55 0-.28 1.28.27 1.2.55-.1.27-1.2-.27-1.2zM52.96-76.9c-.55.73.52 1.6.92 1 .36-.55-.37-1.73-.92-1zM75.8-63.57c.64 0 .82-1.28 0-1.47-.83-.18-.96 1.47 0 1.47zM28.08 0c.29-.55 1.32-1.08 1.32-1.08s.18.55.22 1.08M7.04 0c.47-1.24-1.27-1.48-1.5-1.25-.13.13-.03.73.17 1.25M19.9 0c.08-.48-.05-.96-.75-.71-.33.12-.45.41-.43.71M49.6 0a.96.96 0 0 0-.09-.43c-.4-.9-1.33-.31-1.33.43M77.12 0c-.06-.55-.34-1.13-.78-1.13-.42 0-.67.58-.64 1.13M18.72 0h1.18" style="fill-rule:evenodd;clip-rule:evenodd;fill:#00aeef"/></svg>