<?xml version="1.0" encoding="utf-8"?>
<svg xmlns="http://www.w3.org/2000/svg" version="1.1" x="0px" y="0px" xml:space="preserve" width="24.69" height="24.691" viewBox="0.085 -24.691 24.69 24.691">
	<g>
		<rect x="0.085" y="-24.691" style="fill:none;" width="24.69" height="24.691"/>
		<path style="fill:none;stroke:#00AEEF;stroke-width:0.4;" d="M16.437-16.734c-1.176,0.637-3.654,1.171-5.935,0.669"/>
		<path style="fill:none;stroke:#00AEEF;stroke-width:0.4;" d="M7.148-21.837c2.083,0.083,3.071-0.344,4.248-0.981"/>
		<path style="fill:none;stroke:#00AEEF;stroke-width:0.4;" d="M18.085-8.399c-0.917,0.25-3.333,0.667-4.25,0.584"/>
		<path style="fill:none;stroke:#00AEEF;stroke-width:0.4;" d="M14.919-10.316c-0.583,0.167-1.667,0.25-2.417,0.083"/>
		<path style="fill:none;stroke:#00AEEF;stroke-width:0.4;" d="M18.731-16.774c0.75,0.167,1.833,0.083,2.417-0.083"/>
		<path style="fill:none;stroke:#00AEEF;stroke-width:0.4;" d="M11.419-7.815c-0.75,0.083-3.417-0.25-4.25-0.917"/>
		<path style="fill:none;stroke:#00AEEF;stroke-width:0.4;" d="M9.585-12.566c0.667,0.25,3.25,0.5,3.917,0.417"/>
		<path style="fill:none;stroke:#00AEEF;stroke-width:0.4;" d="M21.085-14.566c-1.25,0.5-4.083,1.417-5.167,1.417"/>
		<path style="fill:none;stroke:#00AEEF;stroke-width:0.4;" d="M12.669-13.982c0.583,0.083,1.25-0.167,1.917-0.333"/>
		<path style="fill:none;stroke:#00AEEF;stroke-width:0.4;" d="M16.898-4.169c-0.667,0.167-1.333,0.416-1.917,0.333"/>
		<path style="fill:none;stroke:#00AEEF;stroke-width:0.4;" d="M16.419-5.899c0.833,0,3.715-0.321,5.25-0.833"/>
		<path style="fill:none;stroke:#00AEEF;stroke-width:0.4;" d="M13.752-18.566c1.083,0,3.167-1.083,4.5-1.667"/>
		<path style="fill:none;stroke:#00AEEF;stroke-width:0.4;" d="M8.419-18.732c1.167,0.083,2.333-0.25,3.167-0.5"/>
		<path style="fill:none;stroke:#00AEEF;stroke-width:0.4;" d="M10.502-5.565c0.75,0.166,1.833,0.25,2.667,0.166"/>
		<path style="fill:none;stroke:#00AEEF;stroke-width:0.4;" d="M17.169-10.482c1.675,0,3.167-0.083,4.583-0.583"/>
		<path style="fill:none;stroke:#00AEEF;stroke-width:0.4;" d="M17.419-2.399c-0.781,0.335-3.833,0.583-5.333,0.5"/>
		<path style="fill:none;stroke:#00AEEF;stroke-width:0.4;" d="M19.085-3.316c1.083,0,3.167-0.5,3.75-0.667"/>
		<path style="fill:none;stroke:#00AEEF;stroke-width:0.4;" d="M8.773-16.795c-0.75-0.083-2.25-0.083-3.416-0.417"/>
		<path style="fill:none;stroke:#00AEEF;stroke-width:0.4;" d="M22.502-1.482c-1.083,0.25-4,0.333-4.417,0.25"/>
		<path style="fill:none;stroke:#00AEEF;stroke-width:0.4;" d="M1.252-21.588c0.75,0.167,1.834,0.083,2.417-0.083"/>
		<path style="fill:none;stroke:#00AEEF;stroke-width:0.4;" d="M4.231-23.213c1.167,0.083,2.333-0.25,3.167-0.5"/>
		<path style="fill:none;stroke:#00AEEF;stroke-width:0.4;" d="M15.106-21.192c-0.833,0.083-1.917,0-2.667-0.167"/>
		<path style="fill:none;stroke:#00AEEF;stroke-width:0.4;" d="M13.752-23.588c1.812,0.397,4.428-0.112,4.979-0.269"/>
		<path style="fill:none;stroke:#00AEEF;stroke-width:0.4;" d="M23.169-16.399c0.531,0.117,1.073,0.177,1.607,0.193"/>
		<path style="fill:none;stroke:#00AEEF;stroke-width:0.4;" d="M21.335-22.399c1.599,0.064,2.552-0.173,3.44-0.574"/>
		<path style="fill:none;stroke:#00AEEF;stroke-width:0.4;" d="M20.481-9.024c0.833,0.667,3.5,1,4.25,0.917"/>
		<path style="fill:none;stroke:#00AEEF;stroke-width:0.4;" d="M22.252-12.899c0.412,0.154,1.553,0.309,2.524,0.385"/>
		<path style="fill:none;stroke:#00AEEF;stroke-width:0.4;" d="M19.835-19.066c1.167,0.083,3.583-0.25,4.417-0.5"/>
		<path style="fill:none;stroke:#00AEEF;stroke-width:0.4;" d="M23.169-5.899c0.456,0.102,1.036,0.172,1.607,0.193"/>
		<path style="fill:none;stroke:#00AEEF;stroke-width:0.4;" d="M24.335-3.232c0.134,0.007,0.282,0.014,0.44,0.02"/>
		<path style="fill:none;stroke:#00AEEF;stroke-width:0.4;" d="M23.835-0.769c0.189,0.047,0.526,0.095,0.94,0.138"/>
		<path style="fill:none;stroke:#00AEEF;stroke-width:0.4;" d="M4.359-17.067c-0.893,0.483-2.536,0.907-4.274,0.863"/>
		<path style="fill:none;stroke:#00AEEF;stroke-width:0.4;" d="M0.839-23.38c-0.256,0.138-0.502,0.267-0.753,0.382"/>
		<path style="fill:none;stroke:#00AEEF;stroke-width:0.4;" d="M5.979-8.732c-0.917,0.25-3.334,0.667-4.25,0.583"/>
		<path style="fill:none;stroke:#00AEEF;stroke-width:0.4;" d="M2.813-10.649c-0.584,0.167-1.667,0.25-2.417,0.083"/>
		<path style="fill:none;stroke:#00AEEF;stroke-width:0.4;" d="M1.424-12.482c-0.248,0.031-0.759,0.016-1.339-0.028"/>
		<path style="fill:none;stroke:#00AEEF;stroke-width:0.4;" d="M8.919-14.482c-1.061,0.854-4.023,1-5.106,1"/>
		<path style="fill:none;stroke:#00AEEF;stroke-width:0.4;" d="M2.479-14.649c-0.666,0.167-1.333,0.417-1.916,0.333"/>
		<path style="fill:none;stroke:#00AEEF;stroke-width:0.4;" d="M3.063-5.607c0.833,0,3.349,0.089,4.856-0.5"/>
		<path style="fill:none;stroke:#00AEEF;stroke-width:0.4;" d="M6.231-20.045c-1.333,0.583-3.502,1.146-4.585,1.146"/>
		<path style="fill:none;stroke:#00AEEF;stroke-width:0.4;" d="M1.091-5.732C0.781-5.701,0.435-5.693,0.085-5.704"/>
		<path style="fill:none;stroke:#00AEEF;stroke-width:0.4;" d="M5.063-10.816c1.667-0.167,2.5-0.333,3.916-0.583"/>
		<path style="fill:none;stroke:#00AEEF;stroke-width:0.4;" d="M5.091-3.316C4.341-3.166,1.699-3.15,0.085-3.21"/>
		<path style="fill:none;stroke:#00AEEF;stroke-width:0.4;" d="M6.979-3.649c1.083,0,3.166-0.5,3.75-0.666"/>
		<path style="fill:none;stroke:#00AEEF;stroke-width:0.4;" d="M10.396-1.816c-1.083,0.25-4,0.334-4.416,0.25"/>
		<path style="fill:none;stroke:#00AEEF;stroke-width:0.4;" d="M0.085-0.625c1.043,0.107,2.542,0.189,3.422,0.189"/>
	</g>
</svg>
