<svg xmlns="http://www.w3.org/2000/svg" xml:space="preserve" width="39.88" height="39.76" viewBox="4.42 -46.59 39.88 39.76"><path d="M4.42-46.59H44.3v39.76H4.42z" style="fill:none"/><path d="M.41-51.75h49V0h-49z"/><path d="M2.48-4.83c-.27-.7-.02-1.29.26-1.67.88-1.19 1.28-1.74 1.78-1.99s.56-.01 1.3.49.7.56 1.12 1.23c.42.66-.12 1.29-.62 1.77-.59.57-2.84 2.55-3.22 1.8-.44-.84-.5-1.31-.62-1.63zM42.26-4.83c-.27-.7-.02-1.29.26-1.67.88-1.19 1.28-1.74 1.78-1.99s.56-.01 1.3.49.7.56 1.12 1.23c.42.66-.12 1.29-.61 1.77-.6.57-2.85 2.55-3.23 1.8-.44-.84-.5-1.31-.62-1.63zM42.26-44.62c-.27-.7-.02-1.3.26-1.68.88-1.19 1.28-1.74 1.78-1.99s.56 0 1.3.5.7.55 1.12 1.22c.42.67-.11 1.3-.61 1.77-.6.58-2.85 2.55-3.23 1.81-.44-.85-.5-1.32-.62-1.63zM2.45-44.62c-.27-.7-.02-1.3.27-1.68.87-1.19 1.27-1.74 1.77-1.99s.56 0 1.31.5.7.55 1.11 1.22c.42.67-.11 1.3-.6 1.77-.6.58-2.85 2.55-3.24 1.81-.44-.85-.5-1.32-.62-1.63zM8.96-6.8c.24.36.94 1.07 1.39 1 .45-.06 1.23-.84 1.49-1 .26-.16.58-2.23.39-2.45-.2-.23-.98-.46-1.59-.42-.62.03-1.97-.2-2.07.61-.1.8.13 1.88.39 2.26zM17.69-6.76c.04.2.16 1.2.61 1.2.46 0 1.91-.59 2.53-1.24.61-.64.97-1.45.42-1.94-.55-.48-.94-1.26-1.72-.74-.77.52-1.94 2.2-1.84 2.72zM24.95-6.75c.14.36.68 1.95 2.46-.02.82-.92.56-2.16.4-2.58-.16-.42-.55-.78-1.1-.55-.55.23-2.12 2.27-1.77 3.15zM30.97-6.75c.27.32.83.95 2.35.01 1.52-.93 1.32-1 1.39-1.58.06-.58-.1-1.54-.9-1.23-.27.1-2.55.74-3.3 1.46-.74.7.14.95.46 1.34zM37.34-6.78c.23.32.85 1.44 1.34 1.4.48-.03 1.9-.3 2.06-1.4.16-1.1 1.63-3.92-1.73-3-.57.16-1.18.11-1.57.66s-.8 1.3-.1 2.34zM24.95-46.61c.14.36.68 1.95 2.46-.02.82-.92.56-2.16.4-2.58-.16-.42-.55-.78-1.1-.55-.55.23-2.12 2.27-1.77 3.15zM30.97-46.61c.27.32.83.95 2.35.02 1.52-.94 1.32-1 1.39-1.59.06-.58-.1-1.54-.9-1.23-.27.1-2.55.75-3.3 1.46-.74.7.14.95.46 1.34zM37.34-46.64c.23.32.85 1.43 1.34 1.4.48-.03 1.9-.3 2.06-1.4.16-1.1 1.63-3.92-1.73-3-.57.16-1.18.11-1.57.66-.39.55-.8 1.3-.1 2.34zM8.96-46.59c.24.37.94 1.07 1.39 1 .45-.06 1.23-.83 1.49-1 .26-.16.58-2.23.39-2.45-.2-.23-.98-.46-1.59-.42-.61.03-1.97-.2-2.07.61-.1.81.13 1.88.39 2.27zM17.69-46.55c.04.2.16 1.2.61 1.2.46 0 1.91-.59 2.53-1.24.61-.64.97-1.45.42-1.94-.55-.48-.94-1.26-1.72-.74-.77.52-1.94 2.2-1.84 2.72zM33.59-13c.15.47 1.38 2.3 1.89 2.33.5.04 1.62-.86 1.99-1.25.37-.39.99-1.76.12-1.92s-2.3-.67-2.7-.51c-.38.16-1.48.81-1.3 1.36zM44.26-15.83c.18-.1 1.09 0 1.02.8-.07.82-.76 1.4-.97 1.58-.21.17-1.92 1.78-2.35 1.7-.42-.06-2.04-.98-2.15-1.63-.1-.65.16-1.8.88-1.7.73.11 2.23.11 2.61-.05s.7-.58.96-.7zM4.44-15.83c.19-.1 1.1 0 1.02.8-.07.82-.75 1.4-.96 1.58-.22.17-1.93 1.78-2.35 1.7-.42-.06-2.04-.98-2.15-1.63-.1-.65.16-1.8.88-1.7.72.11 2.22.11 2.61-.05s.7-.58.95-.7zM30.85-12.56c.92.09 2 .69 1.56 1.44s-2.56 1.75-2.81 1.06-.07-2.63 1.25-2.5zM24.6-12.19c.62.63.93 1.56 1.87.69s2.15-2.29 1.65-2.98-1.84-.02-2.46.3-1.56 1.5-1.06 2zM29.35-14.5c-.54-.54-1.13-2.69.37-3s2.69-.38 3.19.31.87 1.5.06 2.13-2.75 1.44-3.62.56zM34.35-18.88c.18-.76 1.3-1.75 2.12-1.37s3.38 2.69 2.94 3.19-1.5 1-2.44.94-1.37-.13-1.69-.75-1.06-1.5-.93-2zM40.28-19.31c-.12.56.5-2.13 1.2-1.69s2.62 2.69 2.3 3.44-.87 1.31-1.5.87-1.56-1.18-1.8-1.8-.2-.82-.2-.82zM44.28-22.69c.44.1 1.07.31 1.38 1s.25 1.56-.25 1.5-.63-.44-1.13-.5-.93-.19-1.12-.81.56-1.31 1.12-1.19zM17.28-37.19c.44.1 1.07.31 1.38 1s.25 1.56-.25 1.5-.63-.44-1.13-.5-.93-.19-1.12-.81c-.19-.63.56-1.31 1.12-1.19zM4.46-22.69c.44.1 1.07.31 1.38 1s.25 1.56-.25 1.5-.63-.44-1.13-.5-.93-.18-1.12-.81.56-1.31 1.13-1.19zM7.03-12.94c.75.5.7.38.5 1.25s-.56 2.25-1.25 2S5.1-10 5.1-10.75s.62-1.81 1.18-2.13.75-.06.75-.06zM10.6-17.88c-.44-.75-1.2-1.93-1.94-1.8s-1.82 3.87-1.19 4.55 1.38.7 2.19.57 1.75-.82 1.56-1.57-.62-1.75-.62-1.75zM9.78-13.13c.59-.47 2.81-.87 3.25-.37s-1.87 2.44-2.62 2.5-1.94-1.06-.63-2.13zM14.78-12.44c.88-.43 1.07-1.12 1.75-.69.7.44 1.57 1.75 1.13 2.75s-.63 2.7-1.75 2.25-2.38-3.68-1.13-4.3zM18.72-13.69c.16.65 1.69 1.38 3 .75s1.63-1.5 1.38-2.25-2.25-1.12-3-.62-1.5 1.62-1.38 2.12zM13.72-15.63c.3.6.56.63 2.19.26s3.06-.82 1.87-1.76-1.5-1.06-2.3-.5c-.82.57-2 1.5-1.76 2zM24.97-22.56c.62.27 1.19 1.87 1.44 2.81s.75 1.81.12 2.63-1.25 1.12-2 .62-1.18-1.13-1.18-2.56 0-1.94.62-2.69.44-1.06 1-.81zM28.03-20.56c-.34-.83-.06-1.44 1.25-1.44s2.2-.38 2.75-.56 1.25-.31 1.57.12.3 2-1 2.38-4.25.25-4.57-.5zM39.9-26.44c.27-.77.13-1.12 1.26-.75s1.5-.25 1.75.63 0 1.87-.31 2.5-1.07 1.12-1.5.3-1.38-2.11-1.2-2.68zM40.47-29.44c.74.5 1.63 1 2.13.25s1-2.69.5-3.56-.63-1.44-1.38-1.5-1.62 1.13-1.62 2.13 0 2.43.37 2.68zM35.47-24.69c.6-.93 1.5-1.44 1.94-.94s2.37 2.5 2.19 3.32-.38 1.3-1.32 1-3.5-2.32-2.8-3.38zM6.97-23.06c.68-.88 1.38-2.06 2.31-2s.63 1.44.63 2.31-.06 2-.63 1.88-2.93-1.38-2.3-2.2zM11.35-19.88c.5 1 1.25 1.82 1.68 1.82s1.75-1.44 1.94-2.2.13-1.5-.94-2.05-1.5-1.13-2.06-.63-.81 2.69-.62 3.07zM17.16-20.75c.05-.73.5-1.56 1.94-1.5s2.75.38 2.8 1.25-.74 2.06-2 2.25-2.8-1.19-2.74-2zM21.28-10.69c-.48-.49-.3-1.25.7-.94s2.4.28 2.15 1.15c-.82 2.78-2.35.3-2.85-.2zM16.1-27.88c.53.54.68.88 1.75-.12s1.93-1.5 1.25-2-.44-.56-1.13.06-2.12 1.82-1.87 2.07zM5.4-30c.15-.84 0-.94 1.13-.88s2.25.7 2.57 1.2-1.07 2.9-1.7 2.9c-.87 0-3.38 4.71-2-3.22zM13.1-28.88c.67 0 1.8 1.32 1.06 2.07s-2.25 1.68-3.19.43-.38-2.3.44-3.12 1.37.63 1.69.63zM14.6-24.06c-.14-.68-.32-1.31.87-1.5s1.31-.38 1.75 0 1.06 1 .13 1.5-2.63.62-2.75 0zM20.16-27.25c.63-.02 3.94 1.31 4 1.94s-.5.94-1.44 1.37-1.75.25-2.62-.43-1.63-2.82.06-2.88zM27.66-28.25c.82 0 .87.19 1 1.69s.37 3.12-.25 3.12-1.44-.75-1.75-1.5-1.9-1.14-1.47-1.77 2.16-1.54 2.47-1.54zM31.85-27.5c.76.22 2 .94 2 1.75s-.88 1.31-1.7 1.56-1.18.13-1.5-.44.32-3.12 1.2-2.87zM33.97-29.31c.38-.44 1.81-1.44 2.69-1.56s1.5 0 1.62.68-.62 2.69-1.37 2.69-3.38-1.31-2.94-1.81zM30.22-34.31c1.51.81 3.13 2.62 2.5 3.44s-3.5 2.18-3.5 1.25.19-5.13 1-4.7zM35.97-35.94c.69-.07 2.5.94 2.38 1.69s-1.32 1.5-2 1.56-1.94.06-2.25-.69 1.25-2.5 1.87-2.56zM38.6-38.38c.76-.15 1.87-.74 2.56-.5s1.28.99 1.03 1.68-.97 1.26-1.9 1.14-2-.63-2.2-1-.12-1.19.5-1.31zM42.1-41.63c.62.07 1.68.38 1.5 1.13s-1.5.94-2.32.56-1.5-.37-1-1.19 1.2-.56 1.82-.5zM4.47-37.06c-.6.25-.69 1.33 0 2.01s1.56 2.24 2.38 2.18 1.37-.88 1.43-1.88.38-2.37-.87-2.69-2.94.38-2.94.38zM44.3-37.06c-.6.25-1.4.36 0 2.01.63.74 1.56 2.24 2.37 2.18s1.38-.88 1.44-1.88.38-2.37-.87-2.69-2.94.38-2.94.38zM9.61-32.33c-.07-.37.99-1.97 1.44-1.8.45.18 2.14 1.6 2.05 2-.1.41-1.94 1.32-2.32 1.26s-1.1-1.15-1.17-1.46zM15.52-34.4c.32.24 1.98 1.32 1.81 1.98-.17.65-1.28 2-1.6 1.87-.3-.12-1.34-1.54-1.2-2.37.14-.83.6-1.78.99-1.49zM11.9-40.38c.62-.17 1.8 1.85 2.12 2.38.3.53.1 1.84-.57 2.14-.67.3-2.26.28-2.68-.55-.43-.82-.53-2.22-.1-2.64.44-.42 1.13-1.3 1.24-1.33zM20.97-31.38c.83-.2 2.13-.06 2.94 1.07s1.44 1.62.81 2.06-1.62.25-2.62-.38-2.13-2.5-1.13-2.75zM24.85-36.06c.62-.38 1.25-.56 1.75-.13.5.44 1.37 2.5 1.12 3.31s-1.12 2.44-1.69 1.7-2.43-4.13-1.18-4.88zM31.22-38.19c.63-1.12 3.16-2.72 3.97-2.28s.84 1.66.03 2.72-3.37 2.94-3.75 1.75-.25-2.19-.25-2.19zM37.53-43.94c.73-.23 2.2-.37 2.38.25s0 1.81-.94 2.63-1.88 1.56-2 .75-.62-3.25.56-3.63zM35.03-45.06c-.46-.42-.93-.25-1.93.5s-2.38 2.25-1.76 2.87 1.2.7 2.25 0 2.07-2.81 1.44-3.37zM26.22-44c.63-.56 2.63-.63 3.13 0s.43 1.56-.25 2.38-1.57-.76-2.44-.88-1.75-.13-1.13-.81.7-.69.7-.69zM28.53-39.63c.7-.17 1.13 0 1.32.7s.37 1.74-.25 2.12-1.32.19-1.5-.69-.32-1.94.43-2.13zM19.97-33.38c-.9-.45-.87-.56.13-1.3s1.5-1.82 2-1.07.25 1.5-.38 2.13-1.12.56-1.75.24zM22.22-37.81c-1.13-1.13.5-1.56 1.63-2.13s1.06-1.56 1.75-.93 1.62 2.9.25 2.8c-.88-.05-3 .88-3.63.26zM18.85-42.19c-.6-.34.49-.81 1.68-1.94 1.07-1 1.7-1.75 2.25-1.25s.66 3.5-.59 4.37-2.34-.62-3.34-1.18zM16.85-39.13c.8-.7.12-1.5 1.43-1.06s2.44 1.13 2 2-1.18.82-1.8.07-2.13-.57-1.63-1zM11.53-42.94c-.05-.8.58-.58 1.44-1.5.88-.94 1.88-1.81 2.25-1.37s1.75 2.62 1.13 3.3c-.63.7-.6 3.7-1.39 2.8-1.15-1.3-3.36-2.29-3.43-3.23zM6.53-39.38C5.84-40 5.16-41 5.85-42.05s1.5-2.63 2.12-2.19 2 1.19 1.31 2.38-2 3.18-2.75 2.5z" style="fill:#fff"/></svg>