<svg xmlns="http://www.w3.org/2000/svg" xml:space="preserve" width="39.88" height="39.76" viewBox="4.41 -43.45 39.88 39.76"><path d="M4.41-43.45h39.88v39.76H4.41z" style="fill:none"/><path d="M2.48-1.63c-.27-.7-.02-1.3.26-1.68.88-1.18 1.28-1.73 1.78-1.98s.56-.02 1.3.48.7.56 1.12 1.23c.42.67-.12 1.3-.61 1.77C5.73-1.23 3.48.74 3.1 0c-.44-.85-.5-1.32-.62-1.63zM42.26-1.63c-.27-.7-.02-1.3.26-1.68.88-1.18 1.28-1.73 1.78-1.98s.56-.02 1.3.48.7.56 1.12 1.23c.42.67-.11 1.3-.61 1.77-.6.58-2.85 2.55-3.23 1.81-.44-.85-.5-1.32-.62-1.63zM42.26-41.43c-.27-.7-.02-1.3.26-1.67.88-1.2 1.28-1.74 1.78-2s.56 0 1.3.5.7.56 1.12 1.23c.42.66-.11 1.29-.61 1.77-.6.57-2.85 2.54-3.23 1.8-.44-.85-.5-1.31-.62-1.63zM2.45-41.43c-.27-.7-.02-1.3.27-1.67.87-1.2 1.27-1.74 1.77-2s.56 0 1.31.5.7.56 1.11 1.23c.42.66-.11 1.29-.6 1.77-.6.57-2.85 2.54-3.24 1.8-.44-.85-.5-1.31-.62-1.63zM8.96-3.6c.24.36.94 1.07 1.39 1 .45-.06 1.23-.84 1.49-1 .26-.16.58-2.23.39-2.46-.2-.23-.98-.45-1.59-.42-.62.03-1.97-.2-2.07.61-.1.81.13 1.88.39 2.27zM17.69-3.57c.04.2.16 1.2.61 1.2.46 0 1.91-.59 2.53-1.23.61-.65.97-1.46.42-1.94-.55-.49-.94-1.26-1.72-.75-.77.52-1.94 2.2-1.84 2.72zM24.95-3.56c.14.36.68 1.95 2.46-.02.82-.91.56-2.16.4-2.58-.16-.42-.55-.77-1.1-.55-.55.23-2.12 2.28-1.77 3.15zM30.97-3.56c.27.32.83.96 2.35.02s1.32-1 1.39-1.59c.06-.58-.1-1.53-.9-1.23-.27.1-2.55.75-3.3 1.46-.74.71.14.95.46 1.34zM37.34-3.59c.23.33.85 1.44 1.34 1.4.48-.03 1.9-.3 2.06-1.4.16-1.1 1.63-3.92-1.73-2.99-.57.16-1.18.1-1.57.66s-.8 1.3-.1 2.33zM24.95-43.42c.14.36.68 1.95 2.46-.02.82-.91.56-2.16.4-2.58-.16-.42-.55-.77-1.1-.55-.55.23-2.12 2.27-1.77 3.15zM30.97-43.42c.27.32.83.96 2.35.02s1.32-1 1.39-1.59c.06-.58-.1-1.53-.9-1.23-.27.1-2.55.75-3.3 1.46-.74.71.14.95.46 1.34zM37.34-43.45c.23.33.85 1.44 1.34 1.4.48-.03 1.9-.3 2.06-1.4.16-1.1 1.63-3.92-1.73-2.99-.57.16-1.18.1-1.57.66s-.8 1.3-.1 2.33zM8.96-43.4c.24.37.94 1.07 1.39 1.01.45-.07 1.23-.84 1.49-1 .26-.16.58-2.23.39-2.46-.2-.23-.98-.45-1.59-.42-.61.03-1.97-.2-2.07.61-.1.81.13 1.88.39 2.27zM17.69-43.36c.04.2.16 1.2.61 1.2.46 0 1.91-.59 2.53-1.23.61-.65.97-1.46.42-1.94-.55-.49-.94-1.26-1.72-.75-.77.52-1.94 2.2-1.84 2.72zM33.59-9.8c.15.46 1.38 2.3 1.89 2.33.5.03 1.62-.87 1.99-1.26.37-.38.99-1.76.12-1.92-.86-.15-2.3-.67-2.7-.5-.38.15-1.48.8-1.3 1.35zM44.26-12.64c.18-.1 1.09 0 1.02.81-.07.81-.76 1.4-.97 1.57-.21.18-1.92 1.78-2.35 1.71-.42-.07-2.04-.98-2.15-1.64-.1-.65.16-1.8.88-1.69.73.1 2.23.1 2.61-.05.4-.16.7-.59.96-.7zM4.44-12.64c.19-.1 1.1 0 1.02.81-.07.81-.75 1.4-.96 1.57-.22.18-1.93 1.78-2.35 1.71C1.73-8.62.11-9.53 0-10.19c-.1-.65.16-1.8.88-1.69.72.1 2.22.1 2.61-.05.39-.16.7-.59.95-.7zM30.85-9.37c.92.09 2 .69 1.56 1.44s-2.56 1.75-2.81 1.06-.07-2.62 1.25-2.5zM24.6-9c.62.63.93 1.57 1.87.7s2.15-2.3 1.65-2.98-1.84-.03-2.46.29-1.56 1.5-1.06 2zM29.35-11.3c-.54-.55-1.13-2.7.37-3s2.69-.38 3.19.3.87 1.5.06 2.13-2.75 1.44-3.62.56zM34.35-15.68c.18-.76 1.3-1.75 2.12-1.38s3.38 2.7 2.94 3.2-1.5 1-2.44.93-1.37-.13-1.69-.75-1.06-1.5-.93-2zM40.28-16.12c-.12.56.5-2.12 1.2-1.69s2.62 2.7 2.3 3.44-.87 1.31-1.5.88-1.56-1.2-1.8-1.82-.2-.8-.2-.8zM44.28-19.5c.44.1 1.07.32 1.38 1s.25 1.57-.25 1.5-.63-.43-1.13-.5-.93-.18-1.12-.8.56-1.32 1.12-1.2zM17.28-34c.44.1 1.07.32 1.38 1s.25 1.57-.25 1.5-.63-.43-1.13-.5c-.5-.06-.93-.18-1.12-.8-.19-.63.56-1.32 1.12-1.2zM4.46-19.5c.44.1 1.07.32 1.38 1s.25 1.57-.25 1.5-.63-.43-1.13-.5-.93-.18-1.12-.8.56-1.32 1.13-1.2zM7.03-9.74c.75.5.7.37.5 1.25s-.56 2.25-1.25 2S5.1-6.81 5.1-7.56s.62-1.8 1.18-2.12.75-.06.75-.06zM10.6-14.68c-.44-.75-1.2-1.94-1.94-1.82s-1.82 3.88-1.19 4.57 1.38.69 2.19.56 1.75-.81 1.56-1.56-.62-1.75-.62-1.75zM9.78-9.93c.59-.48 2.81-.88 3.25-.38s-1.87 2.44-2.62 2.5-1.94-1.06-.63-2.12zM14.78-9.24c.88-.44 1.07-1.13 1.75-.7.7.45 1.57 1.76 1.13 2.76s-.63 2.69-1.75 2.25-2.38-3.69-1.13-4.31zM18.72-10.5c.16.65 1.69 1.38 3 .76s1.63-1.5 1.38-2.25-2.25-1.13-3-.63-1.5 1.63-1.38 2.13zM13.72-12.43c.3.6.56.62 2.19.25s3.06-.81 1.87-1.75-1.5-1.06-2.3-.5c-.82.56-2 1.5-1.76 2zM24.97-19.37c.62.27 1.19 1.88 1.44 2.81.25.94.75 1.82.12 2.63s-1.25 1.12-2 .62-1.18-1.12-1.18-2.56 0-1.94.62-2.69.44-1.06 1-.8zM28.03-17.37c-.34-.82-.06-1.44 1.25-1.44s2.2-.37 2.75-.56 1.25-.31 1.57.13.3 2-1 2.37-4.25.25-4.57-.5zM39.9-23.24c.27-.78.13-1.13 1.26-.75s1.5-.25 1.75.62 0 1.88-.31 2.5-1.07 1.13-1.5.31-1.38-2.12-1.2-2.68zM40.47-26.24c.74.5 1.63 1 2.13.25s1-2.7.5-3.57-.63-1.43-1.38-1.5-1.62 1.13-1.62 2.13 0 2.44.37 2.69zM35.47-21.5c.6-.92 1.5-1.43 1.94-.93s2.37 2.5 2.19 3.31-.38 1.31-1.32 1-3.5-2.31-2.8-3.37zM6.97-19.87c.68-.88 1.38-2.06 2.31-2s.63 1.44.63 2.31-.06 2-.63 1.88-2.93-1.38-2.3-2.19zM11.35-16.68c.5 1 1.25 1.81 1.68 1.81s1.75-1.44 1.94-2.19.13-1.5-.94-2.06-1.5-1.12-2.06-.62-.81 2.68-.62 3.06zM17.16-17.56c.05-.72.5-1.56 1.94-1.5s2.75.38 2.8 1.25-.74 2.07-2 2.25-2.8-1.18-2.74-2zM21.28-7.5c-.48-.48-.3-1.24.7-.93s2.4.28 2.15 1.15c-.82 2.77-2.35.29-2.85-.21zM16.1-24.68c.53.53.68.87 1.75-.13s1.93-1.5 1.25-2-.44-.56-1.13.07-2.12 1.8-1.87 2.06zM5.4-26.8c.15-.84 0-.94 1.13-.88S8.78-27 9.1-26.5s-1.07 2.9-1.7 2.9c-.87 0-3.38 4.72-2-3.22zM13.1-25.68c.67 0 1.8 1.31 1.06 2.06s-2.25 1.69-3.19.44-.38-2.31.44-3.13 1.37.63 1.69.63zM14.6-20.87c-.14-.68-.32-1.31.87-1.5s1.31-.37 1.75 0 1.06 1 .13 1.5-2.63.63-2.75 0zM20.16-24.06c.63-.02 3.94 1.32 4 1.94s-.5.94-1.44 1.38-1.75.25-2.62-.44-1.63-2.81.06-2.88zM27.66-25.06c.82 0 .87.2 1 1.7s.37 3.12-.25 3.12-1.44-.75-1.75-1.5-1.9-1.15-1.47-1.77 2.16-1.55 2.47-1.55zM31.85-24.3c.76.21 2 .93 2 1.74s-.88 1.32-1.7 1.57-1.18.12-1.5-.44.32-3.13 1.2-2.88zM33.97-26.12c.38-.43 1.81-1.44 2.69-1.56s1.5 0 1.62.69-.62 2.68-1.37 2.68-3.38-1.3-2.94-1.8zM30.22-31.12c1.51.81 3.13 2.63 2.5 3.44s-3.5 2.19-3.5 1.25.19-5.13 1-4.69zM35.97-32.74c.69-.07 2.5.93 2.38 1.68s-1.32 1.5-2 1.57-1.94.06-2.25-.7 1.25-2.5 1.87-2.55zM38.6-35.18c.76-.16 1.87-.75 2.56-.5s1.28.98 1.03 1.67-.97 1.27-1.9 1.14-2-.62-2.2-1-.12-1.19.5-1.31zM42.1-38.43c.62.06 1.68.37 1.5 1.12s-1.5.94-2.32.57-1.5-.38-1-1.2 1.2-.55 1.82-.5zM4.47-33.87c-.6.25-.69 1.33 0 2.02s1.56 2.23 2.38 2.17 1.37-.88 1.43-1.88c.07-1 .38-2.37-.87-2.68s-2.94.37-2.94.37zM44.3-33.87c-.6.25-1.4.36 0 2.02.63.74 1.56 2.23 2.37 2.17s1.38-.88 1.44-1.88c.06-1 .38-2.37-.87-2.68s-2.94.37-2.94.37zM9.61-29.14c-.07-.37.99-1.96 1.44-1.8.45.18 2.14 1.6 2.05 2-.1.41-1.94 1.32-2.32 1.26s-1.1-1.14-1.17-1.46zM15.52-31.21c.32.24 1.98 1.32 1.81 1.98-.17.66-1.28 2-1.6 1.88-.3-.13-1.34-1.55-1.2-2.38s.6-1.78.99-1.48zM11.9-37.18c.62-.18 1.8 1.84 2.12 2.37.3.53.1 1.85-.57 2.14-.67.3-2.26.28-2.68-.54-.43-.83-.53-2.22-.1-2.64.44-.42 1.13-1.3 1.24-1.33zM20.97-28.18c.83-.2 2.13-.06 2.94 1.06s1.44 1.63.81 2.06-1.62.25-2.62-.37-2.13-2.5-1.13-2.75zM24.85-32.87c.62-.37 1.25-.56 1.75-.12.5.43 1.37 2.5 1.12 3.3s-1.12 2.45-1.69 1.7-2.43-4.13-1.18-4.88zM31.22-35c.63-1.12 3.16-2.72 3.97-2.28s.84 1.66.03 2.72-3.37 2.94-3.75 1.75c-.37-1.18-.25-2.18-.25-2.18zM37.53-40.74c.73-.23 2.2-.38 2.38.25s0 1.8-.94 2.62-1.88 1.56-2 .75-.62-3.25.56-3.62zM35.03-41.87c-.46-.42-.93-.25-1.93.5s-2.38 2.25-1.76 2.88 1.2.68 2.25 0 2.07-2.82 1.44-3.38zM26.22-40.8c.63-.57 2.63-.63 3.13 0s.43 1.55-.25 2.37-1.57-.75-2.44-.88-1.75-.12-1.13-.8.7-.7.7-.7zM28.53-36.43c.7-.18 1.13 0 1.32.69s.37 1.75-.25 2.12-1.32.19-1.5-.69-.32-1.93.43-2.12zM19.97-30.18c-.9-.46-.87-.56.13-1.31s1.5-1.82 2-1.07.25 1.5-.38 2.13-1.12.56-1.75.25zM22.22-34.62c-1.13-1.13.5-1.56 1.63-2.12s1.06-1.57 1.75-.94 1.62 2.9.25 2.81c-.88-.06-3 .88-3.63.25zM18.85-39c-.6-.33.49-.8 1.68-1.93 1.07-1 1.7-1.75 2.25-1.25s.66 3.48-.59 4.36-2.34-.61-3.34-1.17zM16.85-35.93c.8-.7.12-1.5 1.43-1.06s2.44 1.12 2 2-1.18.8-1.8.06-2.13-.56-1.63-1zM11.53-39.74c-.05-.81.58-.58 1.44-1.5.88-.94 1.88-1.82 2.25-1.38s1.75 2.63 1.13 3.31c-.63.7-.6 3.69-1.39 2.8-1.15-1.3-3.36-2.3-3.43-3.23zM6.53-36.18c-.69-.64-1.37-1.63-.68-2.69s1.5-2.63 2.12-2.19 2 1.19 1.31 2.38-2 3.19-2.75 2.5z"/></svg>