<svg xmlns="http://www.w3.org/2000/svg" xml:space="preserve" width="54.22" height="54.22" viewBox="0 -54.22 54.22 54.22"><path d="M0-54.22h54.22V0H0z" style="fill:none"/><path d="M4.94-24.61c-.38.71-1.26 1.15-1.04 1.53.22.38.6.91.98 1.07.39.17 2.73 1.55.86 3.2-.45.39-.3.24-.74.57-.44.33-.29.53 0 .97.27.41.33.42.93.64.6.22.38-.82.43-1.64.06-.82 1.53-1.3 2.03-1.91.49-.6-.06-1.15-.99-1.2-.93-.06-.65-.5-.49-.88.16-.38.33-.22.5-.71.16-.5-.17-.22-.83.05-.65.28-.49-.21-.49-.93 0-.7.03-1.72.61-1.63.77.1 1.35 0 1.58-.39.38-.61-.47-.44-.56-.59-.09-.15.15-.3.3-.4.14-.1-.11-.4-.55-.43-.6-.04-1.12.17-1.54.66-.2.24-.33.33-.48.9-.16.57-.5 1.12-.5 1.12zM16.18-17.72l.05-.14c.06-.49.11-1.11-.43-.73-.55.38-.5 1.8.38.87z" style="fill:#00aeef"/><path d="m4.64-19.07.11-.1c.28-.4.62-.94-.04-.85-.66.09-1.27 1.38-.07.95zM6.11-6.49c.28.5 1.59.05 1.26-.6-.33-.66-1.56.06-1.26.6zM18.49-15.24l.16.04c.34.17.47.33.83.27s.75-.74-.5-1.48c-1.27-.74-2.51-.8-2.74-.06-.23.73.33.96.91.92.59-.05.68.04 1.34.3zM19.01-13.74c-.93.22-.76 1.03-.76 2.02 0 .5 1.58-.05 2.4-1.15.82-1.09-.7-1.09-1.64-.87zM14.62-7.83c.55-.43.66-.7 1.2-.7.56 0 .72.1 1.43-.12.71-.21.77-1.7-.38-1.7s-2.77 1.6-3.4 2.36c-.49.6.6.6 1.15.16zM7.42-4.04c.6-.06 1.97-.82 1.92-1.42-.06-.6-.22-.66-1.15 0-.93.65-1.2 1.46-.76 1.42zM3.75-5.27c.33-.66.33-1.42 0-1.75-.33-.33-1.2.5-1.7 1.8-.2.55 1.37.6 1.7-.05zM8.78-24.45c-.6.6-.3.57-.08.79.4.4.22.08 1.08.22.6.1.97-.45.75-.68-.6-.6-1.15-.93-1.75-.33zM18.15-7.14c.27.28.82.06 1.3-.33.5-.38 1.27-.82 2.09-.93.82-.1.65-.49.65-1.09 0-.6-.05-.7.22-1.2.28-.5.66-1.1 1.1-1.1.43 0 .6-.27.65-.6.06-.33-.1-.38-.7-.38-.61 0-.38-.1-.67-.44-.27-.33-.32-.33-.87.06-.55.38-.55 1.2-.55 1.75 0 .54-.54 1.04-1.47 1.7-.93.65-2.03 2.29-1.75 2.56zM16.15-6c.37-.33-.08-.85-.55-.39-.33.33.16.71.55.39zM22.72-23.74c-.33.33.17.71.55.39.38-.33-.08-.85-.55-.39z" style="fill:#00aeef"/><path d="M11.19-8.69c.49-.54.55-.54 1.1-.49.54.06.98-.1.98-.76 0-.5.82-1.26 1.64-1.75.82-.5 1.15-.71.98-1.32-.16-.6-.98-1.2-1.37-.92-.38.27-1.75 2.84-2.95 3.5-1.2.65-2.4.87-2.68.43-.27-.43-.33-1.31-.76-1.31-.44 0-.5.55-.71.93-.22.38-.28.88-.99.82-.71-.05-1.26-.05-1.64.6-.39.66-.5 2.08.55 1.32 1.03-.77 2.51-2.25 3.22-1.54.71.71.93 1.92 1.26 1.92.33 0 .88-.88 1.37-1.43zM25.32-26.05s-.6-.29-.96-.09c-.25.14-1.06.76-.56 1.3.34.37.74 1.54 1.46.32.32-.53.66-1.53.06-1.53z" style="fill:#00aeef"/><path d="M20.85-16.72c.77.76 1.53.54 1.65.16.1-.38 1.53-.05 2.13-.43.6-.39.49-.72.98-1.48.5-.77.44-1.15.44-2.03 0-.43.42-.81 1.03-1.13 0 0 .94-.3 1.2-.75.24-.45-.02-.9.3-1.28.5-.58 1.4-1.53 2.05-1.2 0 0 .2.09.5-.19.3-.27.7-.69.21-.9-.56-.24-2.5-.66-3-.44-.48.22-.96 1.53-.91 2.13.03.38-.33.95-.33.95l-.03.01c-.23.15-.47.4-.74.84-.77 1.2-1.42.72-3.56.05-.48-.15-.87.4-.7 1 .16.6.53.53 2.06.53 1.54 0 1.32 1.04-.05 2.52s-2.6-1.6-3.83-.44c-.78.75-.16 1.31.6 2.08zM54.22-21.57l-.1.05c-.6.3-1.02.7-1.02 1.13 0 .88.05 1.26-.44 2.03-.5.76-.39 1.09-.99 1.47-.6.38-2.02.06-2.13.44-.11.38-.88.6-1.64-.17-.76-.76-1.39-1.33-.6-2.07 1.22-1.17 2.46 1.91 3.82.43 1.38-1.47 1.59-2.51.06-2.51s-1.9.06-2.07-.54c-.16-.6.22-1.15.7-1 2.14.68 2.8 1.15 3.56-.05.28-.43.52-.68.75-.84l.1-.04M31.1-22.35c.22.38.6.9.99 1.07.38.17 2.72 1.55.85 3.2-.44.38-.3.24-.74.56-.43.33-.28.54 0 .97.28.42.33.43.93.65.6.22.38-.82.44-1.64s1.53-1.31 2.02-1.91c.5-.6-.05-1.15-.98-1.2-.93-.06-.66-.5-.5-.88.17-.38.33-.22.5-.71.16-.5-.17-.22-.82.05-.66.28-.5-.22-.5-.93 0-.71-.3-1.05.28-.96.77.1 2.14-.62 2.26-1.06.1-.44.37-.81 1.35-.48 0 0 .29-.14.49-.06.52.2.83.69 1.22-.08l.36-.05c.26-.52.33-.59-.27-.46-.59.13-.81-.15-1.03-.39-.22-.24-.93-.11-1.37.07-.44.19-1.57.03-1.57.03-.6 0-1.8.85-2.21 1.33-.21.24-.34.33-.49.9-.14.57-.16.45-.16.45-.39.7-1.26 1.15-1.04 1.53zM35.28-4.02c.21 0 1.42-.97 1.42-1.18 0-.21-1.3-.45-1.52-.45-.21 0-1.08.42-1.08.63 0 .22.97 1 1.18 1zM34.5-7.6c.76 1.25 1.78.72 1.01-.49-.31-.5-1.26.06-1 .48z" style="fill:#00aeef"/><path d="M35.8-23.11c.26.49 1.58.05 1.25-.6-.33-.66-1.56.05-1.26.6zM45.4-15.41c.33-1.43 0-2.63-.77-2.63-.76 0-.82.6-.6 1.15.22.55.17.65.11 1.37v.16c-.05.38-.17.55 0 .87.17.33.93.5 1.26-.92zM45.46-11.02c0 .49 1.59-.06 2.4-1.15.83-1.1-.7-1.1-1.64-.88-.93.22-.76 1.03-.76 2.03zM42.18-7.48c.55-.44.66-.71 1.2-.71.55 0 .71.1 1.43-.11.7-.22.76-1.7-.39-1.7s-2.76 1.6-3.39 2.36c-.49.6.6.6 1.15.16zM36.56-1.67c.6-.06 1.97-.82 1.92-1.42-.06-.6-.22-.66-1.15 0-.93.65-1.2 1.46-.77 1.42zM31.75-4.92c.67-.31 1.13-.92 1.08-1.38-.06-.46-1.25-.35-2.45.38-.5.31.71 1.32 1.37 1zM45.97-5.96c.27.28.82.06 1.31-.33.5-.38 1.25-.82 2.08-.93.82-.1.66-.49.66-1.09 0-.6-.06-.71.21-1.2.28-.5.66-1.1 1.1-1.1.44 0 .6-.27.65-.6.06-.33-.1-.38-.71-.38-.6 0-.37-.1-.65-.44-.28-.33-.33-.33-.88.06-.55.38-.55 1.2-.55 1.75 0 .54-.54 1.03-1.48 1.69-.92.66-2.02 2.3-1.74 2.57zM45.19-6.71c.38-.33-.08-.86-.55-.39-.33.33.16.71.55.39zM50.48-23.35c.38-.33-.08-.85-.55-.39-.33.33.16.71.55.39zM38.4-8.69c.49-.54.55-.54 1.1-.49.54.06.98-.1.98-.76 0-.5.82-1.26 1.64-1.75.82-.5 1.14-.71.98-1.32-.16-.6-.98-1.2-1.37-.92-.38.27-1.74 2.84-2.95 3.5-1.2.65-2.4.87-2.68.43-.27-.44-.33-1.31-.76-1.31-.44 0-.5.55-.72.93-.21.38-.27.87-.98.82-.71-.06-1.26-.06-1.64.6-.39.66-.5 2.08.55 1.31 1.04-.76 2.51-2.24 3.22-1.53.72.71.93 1.92 1.26 1.92.33 0 .88-.88 1.37-1.43zM47.77-3.24c.65.05.82.16 1.47-.17.66-.33.6-.38 1.2-.33.6.06.83.22 1.32-.43.49-.66.54-.44.98-.06.44.39.82.33.87.06.06-.28-.49-.99-.7-1.2-.22-.23-.55-.44.38-.94 0 0 .62.1.73-.52.11-.6-.35-1.68-.96-1.14-.61.53-1.09 1.23-1.09 1.23-1.22 1.35-1.25 1.96-1.58 2.02-.33.05-.51.44-.88.22-1.77-1.07-1.89-.08-2.2.54-.3.6.46.72.46.72z" style="fill:#00aeef"/><path d="M28.14-9.37c.1.23.74 1.19.7 1.46-.05.29 1.46.2 1.6-.09.14-.27-.2-.65-.16-.88.04-.23.93-.48 1.11-1.04.4-1.2.82-3.17 1.64-2.96.82.22 1.75.39 2.4 0 .67-.38.6-.65 1.27-.54.65.1 2.07-.11 2.68-.44.6-.33.87-.5.92-.93.06-.44.86-.88.88-1.8.02-.58.09-.8 1.37-.51 1.28.3-1.38-2.47-1.68-1.88-.3.6-.3 1.19-.89.6-.59-.6-.4-.99-.89-.9-.49.11-1.52 1.15-1.52 1.15-.33.33-.87.82-1.15.88-.27.05-.87.54-.65.87.22.33.76.77 1.53.06.76-.71 1.47-.71 1.86-.33.38.38.33 1.31-.39 1.59-.71.27-1.74.93-2.35.38-.6-.55-.82-.82-1.15-.5-.32.34-.65.39-1.3.44-.67.06-2.14.28-2.52.77-.39.5-1.54.71-1.54 1.04 0 .33.6.65.82.82.22.17.39.5.17.88s-.55 1.47-1.42 1.31c-.88-.16-.55-.06-.99.16 0 0-.44.16-.35.4zM7.9-13.41c.19 1.08 2.01.12 2.01.12.66.1 2.08-.1 2.68-.44.6-.33.88-.49.93-.93.06-.44.93-.87.88-1.8-.06-.93-.5-2.02-1.48-2.02s-1.8.16-2.13.48c-.33.33-.88.83-1.15.88-.27.06-.88.55-.66.88.22.32.77.76 1.54.05.76-.71 1.47-.71 1.85-.33.39.39.33 1.31-.38 1.59-.71.27-1.64.77-2.35.38-.82-.44-1.94.05-1.75 1.14zM4.09-9.85c.4-1.2.82-3.18 1.64-2.96 0 0 .46-.57.17-.97-.3-.39 1.23-.2.76-.89-.37-.54-2.14.28-2.51.77-.39.49-1.54.71-1.54 1.04 0 .33.6.66.83.82.21.16.38.5.16.87-.22.39-.55 1.48-1.42 1.32-.88-.17-.55-.06-.99.16 0 0-.44.16-.35.4.1.23.74 1.18.7 1.46-.05.27 1.46.18 1.6-.1.14-.28-.21-.65-.16-.88.04-.23.93-.48 1.1-1.04zM23.56-13.37c.22.38 1.64-.11 2.35-.5.38-.2.8-.3 1.18-.3l.07.02c.14.1.44.16.98-.54.7-.93 1.09-1.53 1.75-1.53.65 0 .98-.44.76-1.1-.22-.65-1.3-1.65-1.14-1.93.17-.27 1.54-1.23.98-1.91-.73-.89-2.53-.49-1.83.56.22.33-.23 1.76-.29 1.92-.05.17.97.6 1.24.77.28.16.44.38.17.6-.28.22-.71.33-1.04.27-.33-.05-.72-.27-.93.27-.22.55-.02 1.44-.65 1.36l-.02.01c-.16-.1-.35-.25-.52-.38-.65-.5-.7.22-.93.88-.21.65-.5.66-.87.54-.88-.27-1.48.6-1.26.99zM45.95 0c.04-.09.07-.19.1-.31.17-.7.55-1.1 1.15-1.04.6.06.55.6 1.31.39.77-.22 1.92-.93 2.36-.6.44.32.87.65 1.2.1.3-.5 1.32-1.02 1.94-1l.21.02v1.08l-.19-.02c-.52-.04-.6.08-.92.52-.44.6-2.08.55-3.01.6-.34.03-.58.11-.75.26M54.22-12.18l-.11.1c-.17.19-.4.3-.6.48-.7.66-.71.9-.22 1.09.23.1.52 0 .78-.15l.15-.08M25.15-10.08c.23.1.52 0 .79-.16v-.02c.33-.21.63-.54.75-.75 0 0 .34.33.66.27.33-.05.54-.98.33-1.53-.22-.54-.65-.16-.65-.16-.32-.32-.67.16-1.1.7l-.02-.01c-.16.2-.34.4-.53.57-.71.65-.71.9-.23 1.09zM43.6-19.78c1.15-.22 2.9-.33 3.56-.83.65-.49 1.3-2.62 1.32-3.17 0-.42.22-.7.13-1-.1-.3-2.31-.52-2.56-.45h-.1c0-.6-.5-.7-.5-.7-.79.18-1.56-.96-1.92-.96-.83.02-1.32.77-1.1 1.32 0 0-.15.3.5.66.58.33 1.09.88 1.67.5l.41-.13c1.06.15.17 1.16.88.89.7-.28 1.98-.46 1.81.2-.16.66-1.42 2.08-2.13 2.14a3.3 3.3 0 0 1-1.61-.34c-.4-.2-.94-.2-1.34-.21-.47-.01-1.32-.6-.66-.76.66-.17 1.04.05 1.04-.33s-.1-.38-.44-.55c-.33-.16-.33-.16-.49-.38-.16-.22-.44-.27-.82-.27-.38 0-.38.05-.76-.28-.39-.33-.87-.33-1.15.28-.27.6-.06.97.6.92.66-.06.98 0 .98.44 0 .43-.27 1.26-1.15.98-.87-.27-1.2-.88-1.74-.77-.55.11-.6.55-.17 1.43.3.6.5 1.42 1.42.76.93-.66 1.26-1.31 2.03-1.1.76.23.93.44 1.15 1 .21.54 0 .92 1.14.7zM51.59-25.41c.33.36.74 1.54 1.46.32.31-.53.65-1.53.05-1.53 0 0-.59-.3-.95-.1-.25.15-1.06.77-.56 1.31zM12.08-54.22l-.03.09c-.16.28-.29.56-.4.78-.38.77-1.28-.01-1.8-.22-.2-.08-.5.06-.5.06-.98-.33-1.03.7-1.14 1.14-.11.44-.83.5-1.59.39-.58-.09-.27.25-.27.97 0 .7-.16 1.2.49.93.66-.28.98-.55.82-.06-.16.5-.33.33-.5.71-.16.38-.43.82.5.88.93.05 1.48.6.98 1.2-.49.6-1.97 1.1-2.02 1.91-.06.82.16 1.86-.44 1.64-.6-.22-.66-.23-.93-.64-.28-.44-.43-.64 0-.97.44-.33.3-.18.75-.57 1.86-1.64-.48-3.03-.86-3.2-.39-.16-.76-.69-.98-1.07-.22-.38.66-.82 1.03-1.53 0 0 .03.13.18-.45.14-.57.27-.66.48-.9a1.9 1.9 0 0 1 1.53-.65c.56 0 .7-.12 1.08-.32l.1-.12M14.75-46.05c-.55.38-.5 1.8.38.87l.05-.14c.06-.49.11-1.12-.43-.73z" style="fill:#00aeef"/><path d="M4.75-46.36c.28-.42.62-.94-.04-.86-.66.09-1.27 1.38-.07.96l.11-.1zM4.92-31.6c.27.5 1.59.06 1.26-.6-.33-.65-1.56.06-1.26.6zM18.93-44c-1.19-.84-2.42-1-2.72-.3-.29.71-.14 1.51.46 1.52.58 0 1.04-.42 1.67-.1l.16.07c.33.2-.45-.63-.08-.66.36-.02 1.7.33.51-.52zM21.16-39.1c-.88-.14-.59-1.43-.46-1.67.66-1.2-.69-.84-1.64-.87-2.71-.1-1.46 2.2-.07 1.34.73-.45 1.03 1.26.27 1.73-.77.48 1.75 1.74 2.42 1.17.66-.58.36-1.57-.52-1.7zM13.82-34.84c-.49.6.6.6 1.15.16.54-.44.65-.71 1.2-.71.55 0 .72.1 1.42-.11.72-.22.77-1.7-.38-1.7-1.14 0-2.76 1.6-3.39 2.36zM3.06-32.12c.32-.66.32-1.42 0-1.75-.33-.33-1.2.49-1.7 1.8-.2.55 1.37.6 1.7-.05zM10.53-51.32c-.6-.6-1.15-.93-1.75-.33-.6.6-.3.57-.08.79.4.4.22.08 1.08.23.6.1.97-.46.75-.69zM25.9-33.45c.4.4.23.09 1.1.23.6.1.96-.46.74-.68-.6-.61-1.15-.93-1.75-.33-.6.6-.3.56-.08.78zM17.98-33.91c.38-.33-.08-.86-.55-.39-.33.33.16.71.55.38zM25.31-50.94c-.32.33.17.71.55.39.39-.33-.08-.86-.55-.39zM15.9-40.2c-.17-.6-1-1.2-1.37-.93-.39.27-1.75 2.84-2.96 3.5-1.2.65-2.4.87-2.68.43-.27-.44-.33-1.31-.76-1.31-.44 0-.5.55-.71.93-.22.38-.28.88-.99.82-.71-.06-1.26-.05-1.64.6-.39.66-.5 2.08.55 1.32 1.03-.77 2.51-2.25 3.22-1.54.71.71.93 1.92 1.26 1.92.33 0 .88-.88 1.37-1.42.5-.55.55-.55 1.1-.5.54.06.98-.1.98-.76 0-.5.82-1.26 1.64-1.75.82-.5 1.15-.71.98-1.31z" style="fill:#00aeef"/><path d="M22.68-36.8c-1.23 1.36-1.26 1.97-1.6 2.03-.32.05-.59-.11-.86.21-.28.33-.11.23-.99.06-.87-.16.21 1.57-.55 2.17-.77.6-1.15.66-1.43.17-.27-.5-.43-1.15-1.3-.39-.89.77-1.2.88-1.7.39-.5-.5-1.32-1.59-2.24-1.43-.93.17-.72.28-.72.66s.66.93 1.43.93c.76 0 1.47 1.26.7 1.92-.76.65-1.44.52-2.2.66-.24.05-.67-.39-.75-.51-.09-.13-.56.07-.65.27-.08.18.08.94.78 1.05.7.1 1.16.5 1.48-.2.32-.7 1.66-.47 1.84-.46 1.05.11 1.03.28 1.2.44.17.17.6.28.94-.6.32-.87.37-1.42 1.36-1.37.98.06 1.48.22 1.91-.27.44-.49.5-.6 1.15-.55.66.06-1.2-1.51-.54-1.84.66-.33.6-.38 1.2-.33.6.06.83.22 1.32-.44.5-.65.55-.43.98-.05.44.38.82.33.88.05.05-.27-.5-.98-.71-1.2-.22-.22-.55-.44.38-.93 0 0 .86-.19.56-.47-.3-.28.58-.65.2-.83-.34.01-1.24-.05-2.07.86zM20.12-25.8c.64.04 1.2-.01 1.31-.26.14-.3.23-.68.49-.95l.15-.17c.18-.17-.24-.6.13-.63.93-.06 2.65.05 3-.6.1-.16.09-.64.62-.9.52-.25 1.64-1.81.4-2.33-3.18-1.34-1.72 2.08-2.05 2.63-.33.54-.77.22-1.2-.11-.44-.33-.92.72-1.68.93-.77.22-.72-.32-1.32-.38-.6-.05-.98.33-1.15 1.04-.03.14-.07.26-.12.36l-.18.17c-.2.38-.54-.24-1.2-.24-.81 0-1.3.76-1.08 1.3 0 0 .48.45 1.04-.05.54-.49.04-.33.8-.12l.23.04c1.48.28.33 2.02 1.04 1.74.72-.27 1.32.22 1.15.88-.16.66-1.42 2.08-2.13 2.13-.71.06-1.43-.22-1.53-.49-.11-.27-.16-.22.22-.55.38-.33.38-.44.1-.65-.26-.22-.76.1-.87.6-.1.5-.49.82-.88.55-.38-.28-1.98-2.28-1.32-2.44.66-.17 1.04.05 1.04-.33s-.11-.38-.44-.55c-.33-.16-.33-.16-.5-.38-.15-.22-.43-.27-.81-.27-.38 0-.38.05-.77-.28-.38-.32-1.2-.32-1.48.28-.27.6.28 1.3.93 1.25.66-.05 1.66 1.35 1.66 1.79 0 .43-.27 1.25-1.15.98-.87-.27-1.2-.88-1.75-.77-.54.11-.6.55-.16 1.43.3.6.5 1.42 1.42.76.93-.66 1.26-1.3 2.03-1.1.76.23.92.44 1.14 1 .22.54 0 .92 1.15.7 1.15-.22 2.9-.32 3.56-.82.65-.49 1.3-2.62 1.3-3.17.03-.42.24-.7.15-1-.1-.3-.24-.4-.5-.33-.7.18-1.51-.6-.79-.68M15.7-50.46c0-.38-.1-.38-.43-.55-.33-.16-.33-.16-.5-.38-.16-.22-.43-.27-.81-.27-.38 0-.39.05-.77-.28-.38-.32-1.2-.33-1.48.28-.27.6.28 1.3.93 1.25.66-.05.99 0 .99.44s-.28 1.26-1.15.99c-.88-.28-1.2-.88-1.75-.77-.55.1-.6.55-.16 1.42.3.62.49 1.42 1.42.77.93-.66 1.26-1.31 2.02-1.1 0 0 .92-.47.55-.91-.37-.45-.38-.45.1-.56.67-.15 1.05.05 1.05-.33zM20.19-52.98h-.01.01M20.19-52.98c.37.02.49-.35.4-.52-.3-.54-3.19-.24-3.19-.24-.82 0-1.32.76-1.1 1.3 0 0 .5.45 1.04-.05.55-.49.05-1.03.82-.81l.22.04c1.48.27.33 2.01 1.04 1.74.71-.27 1.31.22 1.15.87-.16.66-1.42 2.08-2.13 2.14-.71.06-1.43-.22-1.53-.5-.11-.27-.17-.21.21-.54.39-.33.39-.44.11-.66-.27-.22-.76.11-.87.6 0 0-1.79 2.83-.08 2.68l.19-.05c1.15-.22 2.9-.33 3.55-.82.66-.49 1.3-2.62 1.32-3.17.01-.42.22-.71.13-1-.1-.3-.24-.4-.49-.33-.7.18-1.51-.61-.8-.69M24.35-53.86s-.59-.3-.95-.09c-.25.14-1.06.76-.56 1.3.33.37.74 1.54 1.46.32.31-.53.65-1.53.05-1.53zM30.74-53.23c-.56-.24-.77-.65-1.26-.44-.5.22-1.99 1.53-1.93 2.14.03.37-.31.94-.31.94l-.21.14c-.24.15-.48.4-.76.83-.76 1.2-1.41.73-3.55.06-.48-.15-.87.4-.7 1 .16.6.53.53 2.06.53s1.32 1.04-.05 2.52c-1.37 1.47-2.6-1.61-3.83-.44-.78.75-.16 1.31.6 2.08.77.76 1.53.54 1.64.16.11-.38 1.53-.05 2.14-.44.6-.38.49-.71.98-1.47.5-.77.44-1.15.44-2.03 0-.44.42-.82 1.03-1.13l.17-.12s.94-.31 1.19-.76-.01-.9.3-1.28c.51-.58.68-1.53 1.34-1.2 0 0 .2.1.5-.18.3-.27.7-.7.21-.91zM39.08-54.22l-.08.12c-.15.27-.28.55-.4.78-.37.76-1.27-.02-1.8-.22-.2-.08-.5.05-.5.05-.97-.33-1.03.71-1.14 1.15-.11.44-.82.5-1.59.38-.57-.08-.27.26-.27.97s-.16 1.2.5.93c.65-.27.98-.55.81-.06-.16.5-.33.33-.49.72-.16.38-.44.82.5.87.92.05 1.47.6.98 1.2-.5.6-1.97 1.1-2.03 1.92-.05.82.17 1.86-.43 1.64-.6-.22-.66-.23-.93-.65-.29-.43-.44-.64 0-.97.43-.32.3-.18.74-.57 1.87-1.64-.47-3.03-.85-3.19-.39-.16-.77-.7-.99-1.07-.22-.39.66-.82 1.04-1.53 0 0 .02.12.17-.45.15-.57.28-.66.49-.9a1.9 1.9 0 0 1 1.53-.66c.56 0 .79-.14 1.17-.34l.09-.12M43-45.79c-.54.38-.49 1.8.38.88l.06-.15c.05-.49.1-1.11-.44-.73z" style="fill:#00aeef"/><path d="m31.86-46.27.1-.1c.28-.4.62-.94-.05-.85-.66.09-1.26 1.38-.05.95zM34.9-34.37c-.32-.66-1.55.05-1.25.6.27.5 1.58.05 1.26-.6zM46.08-42.62c-.68-1.29-1.52-1.64-2.1-1.13-.57.5-.75.87-.22 1.14.52.27.55.39.98.96l.1.12c.21.33.15-.47.49-.33.34.14 1.44.53.75-.76zM46.22-40.25c-.93.22-.76 1.03-.76 2.02 0 .5 1.58-.05 2.4-1.14.83-1.1-.7-1.1-1.64-.88zM42.18-34.68c.55-.44.66-.71 1.2-.71.55 0 .71.1 1.43-.11.7-.22.76-1.7-.39-1.7s-2.76 1.6-3.39 2.36c-.49.6.6.6 1.15.16zM35.68-31.68c-.05-.6-.33-1.04-1.26-.39-.93.66-.36 1.27.07 1.23.6-.06 1.25-.23 1.2-.84zM30.96-34.22c-.33-.33-1.2.5-1.7 1.8-.2.55 1.37.6 1.7-.05.33-.66.33-1.42 0-1.75zM50.14-39.45c-.55.38-.55 1.2-.55 1.75 0 .54-.55 1.03-1.48 1.7-.93.65-2.02 2.29-1.75 2.56s.82.05 1.31-.33c.5-.38 1.26-.82 2.08-.93.82-.1.65-.49.65-1.1 0-.6-.05-.7.23-1.2.27-.49.65-1.09 1.09-1.09.44 0 .6-.27.66-.6.05-.33-.11-.38-.72-.38-.6 0-.37-.1-.65-.44-.27-.33-.33-.33-.87.06zM45.19-33.91c.38-.33-.08-.86-.55-.39-.33.33.16.71.55.38zM49.93-50.94c-.33.33.16.71.55.39.38-.33-.08-.86-.55-.39z" style="fill:#00aeef"/><path d="M41.73-41.13c-.38.27-1.74 2.84-2.95 3.5-1.2.65-2.4.87-2.68.43-.27-.44-.33-1.31-.76-1.31-.44 0-.5.55-.72.93-.21.38-.27.88-.98.82-.71-.06-1.26-.05-1.64.6-.39.66-.5 2.08.54 1.32 1.05-.77 2.52-2.25 3.23-1.54.72.71.93 1.92 1.26 1.92.33 0 .88-.88 1.37-1.42.49-.55.55-.55 1.1-.5.54.06.98-.1.98-.76 0-.5.82-1.26 1.64-1.75.82-.5 1.14-.71.98-1.32-.16-.6-.98-1.2-1.37-.92zM46.42-30.27c.44-.5.49-.6 1.15-.55.65.06.82.17 1.47-.16.66-.33.6-.39 1.21-.33.6.05.82.22 1.31-.44.5-.66.55-.44.98-.05.44.38.82.32.88.05.05-.27-.5-.98-.71-1.2-.22-.22-.55-.44.38-.93 0 0-.48-1.35-1.31-.44-1.23 1.35-1.26 1.97-1.59 2.02-.33.06-.6-.1-.87.22-.28.33-.11.22-.99.06a3.09 3.09 0 0 0-2.57.49c-.76.6-1.15.66-1.42.16-.27-.49-.44-1.15-1.31-.38-.88.77-1.2.88-1.7.38-.49-.49-1.31-2.62-2.24-2.46-.93.16-.71.28-.71.66 0 1.27.66.93 1.42.93.77 0 1.48 2.3.71 2.95l-.04.02c-.7.89.54.8.54.8 1.03.17 1.03.28 1.2.44.16.16.6.27.93-.6.33-.88.38-1.42 1.36-1.37.99.05 1.48.22 1.92-.27z" style="fill:#00aeef"/><path d="M37.55-45.31c-.33.32-1.55-.2-1.82-.14s-.88.55-.66.88c.22.33.77.76 1.53.05 0 0 .53-.27.3.77-.08.37 1.02 0 1.78-.6 1.21-.93 1.33 3 .07 2.1-.61-.45-1.75.93-2.35.38-.6-.55-.82-.82-1.15-.5-.33.34-.65.39-1.31.45-.66.05-2.13.27-2.52.76-.38.5-1.53.71-1.53 1.04 0 .33.6.66.82.82.22.16.39.5.17.88s-.55 1.47-1.43 1.3c-.87-.16-.54-.05-.98.17 0 0-.45.16-.35.4.1.23.74 1.18.7 1.46-.05.28 1.46.18 1.6-.1.14-.27-.21-.64-.16-.88.04-.23.92-.48 1.11-1.04.4-1.2.82-3.17 1.64-2.95.82.22 1.75.38 2.4 0 .66-.39.6-.66 1.27-.55.65.1 2.07-.11 2.67-.44.6-.33.88-.5.93-.93.06-.44.93-.87.88-1.8-.06-.93-.5-2.03-1.48-2.03s-1.8.17-2.13.5zM8.72-44.98c-.28.05-.88.55-.66.88.22.32.77.76 1.53.05 0 0 3.99-1.6 2.4-2.3-.89-.4-1.8.17-2.13.5a3.7 3.7 0 0 1-1.14.87zM54.22-42.56a.39.39 0 0 1-.26.04l-.02.01-.5-.37c-.66-.5-.72.21-.93.87-.22.65-.51.66-.88.55-.88-.28-1.48.6-1.26.98.22.38 1.64-.1 2.35-.5.38-.2.8-.3 1.18-.3l.06.02c.06.03.14.07.26.05M29.89-43.42c.65 0 .98-.44.76-1.1-.22-.65-1.3-1.66-1.14-1.93.17-.27 1.54-1.24.98-1.92-.73-.88-2.53-.48-1.83.57.22.33-.23 1.76-.29 1.92-.05.16.97.6 1.24.77.28.16.44.38.17.6-.28.21-.71.32-1.04.27-.33-.06-.72-.28-.93.27-.22.55-.02 1.44-.65 1.36l-.02.01c-.16-.1-.35-.26-.52-.38-.65-.5-.7.22-.93.88-.21.65-.5.66-.87.54-.88-.27-1.48.6-1.26.99.22.38 1.64-.11 2.35-.5.38-.2.8-.3 1.17-.3l.08.02c.14.1.44.16.98-.54.7-.93 1.09-1.53 1.75-1.53zM54.22-29.61l-.26-.02c-.6-.11-1.75.44-2.08.98-.33.55-.77.22-1.2-.1 0 0-2.68-.9-3.86-.48-2.32.81 1.05 3.65 1.04 2.66-.05-2.58 3.35-1.13 4.02-.98.66.15 1.04-.5 1.04-.5.36-.49.43-.58 1.12-.5h.18M31.17-30.21c-.38-.64-2.95-.65-3.37.27-.17.35.06.62.01 1.16-.05.55.75 1.4 1.11 1.05.36-.36.8-2.48 2.38-1.75.58.27 1.52 1.87 2.16 1.55.64-.32 1.21-.05 1.63.21.41.26 1.83-.44 2.38-.44 0 0 .7.25.66-.08-.03-.32-.8-1.78-.26-1.73.54.05 1.1.4.83-.21-.25-.53-.17-.62-.71-.67 0 0-.2-.19-.9.19-.7.37-2.79 1.99-3.19 1.51-.4-.47-.72-1.06-1.25-.72-.52.33-1.1.3-1.48-.34zM28.57-38.55c.33-.05.55-.98.33-1.53-.22-.55-.66-.16-.66-.16-.31-.32-.65.16-1.08.7l-.02-.02c-.18.2-.35.4-.54.58-.71.66-.72.9-.23 1.09.23.1.52 0 .79-.16v-.02c.33-.22.63-.54.75-.75 0 0 .33.33.66.27zM47.5-52.8c.63.04 1.2-.01 1.3-.26.14-.3.23-.68.5-.95v-.15l.07-.06" style="fill:#00aeef"/><path d="M47.5-52.8c-.73.08.1.87.8.69.24-.06.39.03.48.32.09.3-.4.69-.14 1 .39.48-.76 1.17-.76.34-.01-.68-.44-1.15-1.15-.88-.71.27.43-1.46-1.05-1.74l-.22-.04c-.77-.22-.27.32-.8.82-.56.49-1.05.05-1.05.05-.22-.55.27-1.31 1.1-1.31.64 0 .98-.07 1.18-.45l.04-.16.03-.06M47.49-52.79h.01-.01M39-51.66c-.28.6.27 1.32.92 1.27.66-.06.99 0 .99.43 0 .44-.28 1.26-1.15.99-.88-.28-1.2-.88-1.75-.77-.55.1-.6.55-.17 1.42.31.62.5 1.42 1.43.77.93-.66 1.25-1.31 2.02-1.1.77.22.93.44 1.15.99.22.55.18 1.36 1.15.7.4-.26 1.67-.3 2.63.13.96.45 1.63-.88 1.26-1.85-.37-.96-1.11-1.1-1.7-.51-.6.59-1.19.59-1.76.22-.24-.17-.16-.22.22-.55.39-.33.39-.44.11-.66-.27-.21-.76.1-.87.6-.11.5-.5.83-.88.55-.38-.27-1.31-.93-.66-1.1.66-.16 1.05.06 1.05-.32s-.11-.38-.44-.55c-.33-.16-.33-.16-.5-.38-.16-.22-.43-.27-.81-.27-.39 0-.39.05-.77-.28s-1.2-.33-1.48.27zM52.53-53.25s-.6-.3-.95-.09c-.26.14-1.07.76-.57 1.3.34.36.74 1.54 1.46.32.32-.53.66-1.53.06-1.53zM6.76-41.9c-.65.06-2.13.28-2.5.77-.4.49-1.54.71-1.54 1.04 0 .33.6.65.82.82.22.16.38.49.16.87s-.55 1.48-1.42 1.31c-.87-.16-.55-.05-.98.17 0 0-.45.16-.35.39.1.23.74 1.18.7 1.46-.06.28 1.46.19 1.6-.09.13-.28-.21-.65-.17-.89.05-.23.93-.48 1.11-1.04.4-1.2.83-3.17 1.65-2.95.82.22 1.75.38 2.4 0 .66-.38.6-.66 1.26-.55.66.11 2.08-.1 2.68-.43.6-.33.75-.53.93-.93.5-1.1.98-2.17-.3-2.07-1.29.1-1.19 1.58-1.19 1.58l-.04.21c-.71.28-1.75.93-2.35.39-.6-.55-.82-.83-1.15-.5-.33.33-.66.39-1.32.44zM54.22-50.44c-.06-.06-.12-.11-.17-.12-.1-.02-.17.11-.17.11-.23.15-.47.4-.74.83-.77 1.2-1.42.73-3.56.06-.48-.15-.86.4-.7 1 .16.6.53.53 2.07.53 1.53 0 1.31 1.04-.06 2.52-1.37 1.47-2.6-1.61-3.82-.44-.79.75-.17 1.31.6 2.08.76.76 1.53.54 1.64.16.1-.38-1.24 4.3 2.13-.44.41-.58.5-.71.99-1.47.49-.77.43-1.15.43-2.03 0-.44.43-.82 1.03-1.13 0 0 .19-.15.33-.16M54.22-39.3c-.3.1-.67.23-.78.33-.71.66-.72.9-.24 1.09.17.07.65.02 1.02-.06M54.22-15.3l-.17-.03-.5-.37c-.66-.5-.71.21-.93.87-.22.66-.5.66-.88.55-.87-.28-1.47.6-1.25.98.22.38 1.64-.11 2.35-.5.38-.2.79-.3 1.17-.3l.21.04M0-21.55l.2-.1s.93-.3 1.18-.75c.25-.45-.01-.9.3-1.28.5-.58 1.37-1.53 2.03-1.2 0 0 .2.09.49-.19.3-.27.7-.7.21-.9-.56-.25-1.46-.66-1.95-.44-.5.22-1.98 1.53-1.93 2.13.04.38-.31.94-.31.94l-.22.1M4.75-1c.44.23 1.04-.44 1.64-.05.6.38 1.7-.44 1.94-1.04.23-.6 1.18-.17 1.51.22.33.38 1.2-.39 1.2-.93 0-.55-.7-.72-1.14-.77-.45-.05-.94.17-1.37.77-.44.6-.66.27-1.15-.11-.5-.38-.87.16-1.32.6 0 0-.05-.36-.45-.46-.41-.1-1.87 1.26-.86 1.77zM0-1.37l.17.02.39.05c1.2.17 1-.71 1.58-.65 0 0 1.57-.6 1.14-.8-.21-.1-.42-.19-.59-.3-.65-.44-.87-.27-.87-.27-.55 0-.39.16-.77.6-.33.38-.42.38-.84.3L0-2.44M0-10.73l.17-.08c.34-.22.64-.55.76-.76 0 0 .33.33.66.28.33-.06.55-.99.33-1.53-.22-.55-.66-.17-.66-.17-.32-.31-.66.16-1.09.7l-.17.13M0-41.21c.17-.03.4-.16.74-.6.7-.92 1.09-1.53 1.75-1.53.65 0 .98-.43.76-1.09-.22-.66-1.3-1.66-1.14-1.94.17-.27 1.54-1.23.98-1.91-.74-.89-2.53-.49-1.83.56.22.33-.23 1.76-.29 1.92-.05.17.97.6 1.24.77.28.16.44.38.17.6-.28.22-.71.33-1.04.27-.33-.05-.71-.27-.93.28-.19.46-.07 1.17-.41 1.33M0-28.54h.17l.39.06c.3.04.34-.15.49-.36 0 0 .23-.71-.02-.86-.23-.14-.23-.08-.23-.08-.33.38-.17.25-.6.18l-.2-.02M2.76-27.88c.54-.12 1.4.4 1.75.06.34-.34.85-.73 1.54-.56.69.18 2.14-1.15 2.18-1.8.04-.64-.02-1.62.42-1.36.43.26 1.02-.73.85-1.26-.17-.51-.9-.45-1.33-.37-.43.09-.4 1.76-.63 2.47-.23.7-.54.46-1.13.25-.59-.21-.78.42-1.06.98-.28.55-1.64.52-2.4.38-.34-.07-.62.17-.64.61-.01.45.45.6.45.6zM0-48.94c.05 0 .1 0 .14.04.13.13.04.19.27.1 0 0 .93-.32 1.18-.77.25-.44-.01-.9.3-1.27.51-.58.68-1.53 1.34-1.2 0 0 .2.09.5-.19.3-.27.7-.7.2-.9-.55-.25-.76-.66-1.26-.44-.49.22-1.97 1.53-1.92 2.13.03.38-.32.94-.32.94s-.12.15-.21.17c-.06.01-.14-.06-.22-.13M0-37.93c.17-.04.32-.1.4-.14l.21-.12c.34-.21.3-.54.41-.75l.66.27c.33-.05.55-.98.33-1.53-.22-.54-.66-.16-.66-.16-.31-.32-.3.16-.74.7l-.14.12c-.07.08-.26.16-.47.24M0-14.06l.17.03c.14.1.44.16.97-.54.71-.93 1.1-1.52 1.75-1.52.66 0 .99-.44.77-1.1-.22-.66-1.3-1.66-1.14-1.94.16-.27 1.54-1.23.97-1.91-.73-.89-2.53-.5-1.83.56.23.33-.23 1.76-.28 1.92-.06.17.97.6 1.24.77.27.16.44.38.16.6-.27.22-.7.33-1.04.27-.32-.05-.7-.27-.93.27C.6-16.1.8-15.2.17-15.29L0-15.3" style="fill:#00aeef"/><path d="m8.58 0 .07-.08c.44-.22.77-.4 1.53-.57.77-.16 2.3-.82 3.06-1.48.77-.65.06-1.91-.7-1.91-.77 0-1.43-.55-1.43-.93s-.22-.5.71-.66c.93-.16 1.75.94 2.24 1.43.5.49.82.38 1.7-.39.87-.76 1.04-.1 1.31.39 0 0 .65.58.48 1.02-.17.44-.88.47-1.34.44-.45-.04-1.46.74-.94.87.51.14.58.23.6.4.12.93-.76.77-.93.6-.16-.16-.16-.27-1.2-.44-.73-.11-1.25.56-1.62 1.24l-.03.07M19.16-5.3c.6.47.26 1.62 1.01 1.3.6-.26.49-.6 1.15-.54.65.05.82.16 1.47-.17.66-.32.6-.38 1.2-.32.6.05.83.22 1.32-.44.49-.66.55-.44.98-.06.44.39.83.33.88.06.05-.28-.5-.99-.71-1.2-.22-.23-.55-.44.38-.94 0 0 .86-.19.56-.47-.31-.27.58-.65.2-.83-.34.01-1.24-.05-2.07.87-1.23 1.35-1.26 1.97-1.59 2.02-.33.05-.6-.1-.87.22-.28.33-.11.22-.99.05 0 0-.7.14-.8-.24-.1-.39-.69-.61-.84-.31-.15.3-.46.3-.67.25-.21-.06-1.22.27-.61.74zM20.3-.45S22-.9 22.54-1.53c.65-.75 1.13-.41 1.13-.41.93-.06 1.94 1.28 2.66 1.09.69-.18-.56-1.77-.27-1.63.23.1 1.35-1.3-.27-1.1-.3.05-.15 1.13-.15 1.13-.33.55-.77-.48-1.2-.8-.44-.33-1.55-.07-2.32.14-.76.22-.52 1.36-1 1-1.63-1.2-2.45 1.4-.82 1.66zM27.98-1.76c.89.75.87-1.6 1.45-1.55.55.05 1.55 1.85 1.99 1.64.43-.22 1.04-.44 1.64-.06.6.39 1.65-.45 1.93-1.04.39-.81-.95-.82-.95-.82-.49-.38-.87.17-1.31.6-.44.45-1.4-.26-2.06-.7-.66-.43-1.2-1.4-1.2-1.4-2.93-.1-.92 1.67-1.3 2.1 0 0-.97.59-.2 1.23zM35.6 0l.08-.1c.44-.23.77-.41 1.53-.58.76-.16 2.3-.81 3.06-1.47.77-.66.06-1.92-.7-1.92-.77 0-1.43-.54-1.43-.93 0-.38-.21-.5.71-.66.93-.16 1.75.93 2.24 1.43.5.5.83.38 1.7-.38.87-.77 1.04-.12 1.31.38s.57.3 1.42-.17c.3-.16.6.22.53.9-.08.7-1.68 2.37-1.6 1.76.07-.6.4-.95-.19-1.12-.94-.28-1.03.49-1.36 1.36-.33.88-.77.77-.93.6-.17-.16-.17-.27-1.2-.43-.74-.12-1.25.55-1.62 1.23l-.07.1" style="fill:#00aeef"/></svg>