<svg xmlns="http://www.w3.org/2000/svg" xml:space="preserve" width="10.31" height="10.31" viewBox="0 -10.56 10.31 10.31"><path d="M0-10.56h10.31V-.25H0z" style="fill:none"/><path d="M1.78-7.13H0M3.47-1.97 1.78-.25M1.78-3.69H0M1.78-7.13l1.69 1.72M3.47-8.84 1.78-7.13M3.47-8.84l-1.69-1.72M3.47-8.84h3.5M6.97-1.97h-3.5M3.47-5.41 1.78-3.69M1.78-3.69l1.69 1.72M3.47-5.41h3.5M6.97-5.41l1.69-1.72M6.97-5.41l1.69 1.72M6.97-8.84l1.69 1.71M6.97-8.84l1.69-1.72M10.31-7.13H8.66M6.97-1.97 8.66-.25M6.97-1.97l1.69-1.72M8.66-3.69h1.65M0-10.56h1.78M0-.25h1.78M10.31-10.56H8.66M8.66-.25h1.65" style="fill:none;stroke:#000;stroke-width:.5"/></svg>