<?xml version="1.0" encoding="utf-8"?>
<svg version="1.1" xmlns="http://www.w3.org/2000/svg" x="0px" y="0px" xml:space="preserve" width="10.188" height="10.188" viewBox="0.238 -10.308 10.188 10.188">
	<g>
		<rect x="0.238" y="-10.308" style="fill:none;" width="10.188" height="10.188"/>
		<path style="fill:none;stroke:#00AEEF;stroke-width:0.5;" d="M10.436-2.325c-1.292,0-2.36,0.961-2.528,2.207"/>
		<path style="fill:none;stroke:#00AEEF;stroke-width:0.5;" d="M7.888-0.134C7.713-1.372,6.649-2.325,5.363-2.325
			c-1.288,0-2.353,0.954-2.527,2.195"/>
		<path style="fill:none;stroke:#00AEEF;stroke-width:0.5;" d="M2.826-0.134C2.651-1.372,1.587-2.325,0.3-2.325
			c-0.022,0-0.044,0-0.066,0.001"/>
		<path style="fill:none;stroke:#00AEEF;stroke-width:0.5;" d="M7.894-10.306c-0.006,0.072-0.009,0.146-0.009,0.219"/>
		<path style="fill:none;stroke:#00AEEF;stroke-width:0.5;" d="M2.825-10.347c-0.009,0.086-0.013,0.173-0.013,0.261"/>
		<path style="fill:none;stroke:#00AEEF;stroke-width:0.5;" d="M7.914-10.087c0-0.08-0.004-0.159-0.011-0.237"/>
		<path style="fill:none;stroke:#00AEEF;stroke-width:0.5;" d="M2.851-10.087c0-0.085-0.004-0.168-0.012-0.251"/>
		<path style="fill:none;stroke:#00AEEF;stroke-width:0.5;" d="M10.421-2.649c-0.011,0.094,0.015,0.205,0.015,0.302"/>
		<path style="fill:none;stroke:#00AEEF;stroke-width:0.5;" d="M10.441-2.696c-0.17-1.245-1.236-2.203-2.527-2.203
			c-1.409,0-2.551,1.142-2.551,2.551"/>
		<path style="fill:none;stroke:#00AEEF;stroke-width:0.5;" d="M5.402-2.348c0-1.409-1.142-2.551-2.551-2.551
			C1.442-4.899,0.3-3.757,0.3-2.348"/>
		<path style="fill:none;stroke:#00AEEF;stroke-width:0.5;" d="M0.34-2.348c0-0.237-0.032-0.467-0.092-0.685"/>
		<path style="fill:none;stroke:#00AEEF;stroke-width:0.5;" d="M10.436-7.853c-0.183-1.229-1.243-2.171-2.523-2.171
			c-1.409,0-2.551,1.142-2.551,2.551"/>
		<path style="fill:none;stroke:#00AEEF;stroke-width:0.5;" d="M5.402-7.473c0-1.409-1.142-2.551-2.551-2.551
			c-1.409,0-2.551,1.142-2.551,2.551"/>
		<path style="fill:none;stroke:#00AEEF;stroke-width:0.5;" d="M0.34-7.473c0-0.239-0.033-0.471-0.095-0.691"/>
		<path style="fill:none;stroke:#00AEEF;stroke-width:0.5;" d="M10.425-7.462c-1.409,0-2.551,1.142-2.551,2.551"/>
		<path style="fill:none;stroke:#00AEEF;stroke-width:0.5;" d="M7.902-4.91c0-1.409-1.142-2.551-2.551-2.551
			C3.942-7.462,2.8-6.319,2.8-4.91"/>
		<path style="fill:none;stroke:#00AEEF;stroke-width:0.5;" d="M2.84-4.91c0-1.409-1.142-2.551-2.551-2.551
			c-0.014,0-0.027,0.001-0.041,0.001"/>
	</g>
</svg>
