<?xml version="1.0" encoding="utf-8"?>
<svg version="1.1" xmlns="http://www.w3.org/2000/svg" x="0px" y="0px" xml:space="preserve" width="20.625" height="20.625" viewBox="0.147 -20.847 20.625 20.625">
	<g>
		<rect x="0.147" y="-20.847" style="fill:none;" width="20.625" height="20.625"/>
		<line style="fill:none;stroke:#000000;stroke-width:0.5;" x1="13.377" y1="-1.556" x2="13.667" y2="-0.222"/>
		<line style="fill:none;stroke:#000000;stroke-width:0.5;" x1="16.959" y1="-3.409" x2="13.377" y2="-1.556"/>
		<polyline style="fill:none;stroke:#000000;stroke-width:0.5;" points="18.739,-0.222 18.703,-0.28 16.959,-3.409 		"/>
		<line style="fill:none;stroke:#000000;stroke-width:0.5;" x1="19.126" y1="-5.056" x2="19.626" y2="-7.806"/>
		<line style="fill:none;stroke:#000000;stroke-width:0.5;" x1="20.772" y1="-3.982" x2="19.126" y2="-5.056"/>
		<line style="fill:none;stroke:#000000;stroke-width:0.5;" x1="19.126" y1="-5.056" x2="12.627" y2="-7.556"/>
		<line style="fill:none;stroke:#000000;stroke-width:0.5;" x1="19.126" y1="-5.056" x2="16.959" y2="-3.409"/>
		<line style="fill:none;stroke:#000000;stroke-width:0.5;" x1="2.751" y1="-8.556" x2="5.897" y2="-7.034"/>
		<polyline style="fill:none;stroke:#000000;stroke-width:0.5;" points="2.263,-2.622 4.459,-3.409 5.897,-7.034 		"/>
		<line style="fill:none;stroke:#000000;stroke-width:0.5;" x1="2.751" y1="-8.556" x2="0.147" y2="-8.035"/>
		<polyline style="fill:none;stroke:#000000;stroke-width:0.5;" points="2.263,-2.622 2.251,-2.618 0.152,-3.978 0.147,-3.981 		"/>
		<line style="fill:none;stroke:#000000;stroke-width:0.5;" x1="14.377" y1="-10.306" x2="17.689" y2="-11.431"/>
		<line style="fill:none;stroke:#000000;stroke-width:0.5;" x1="14.377" y1="-10.306" x2="11.377" y2="-12.681"/>
		<line style="fill:none;stroke:#000000;stroke-width:0.5;" x1="13.502" y1="-14.806" x2="19.376" y2="-13.681"/>
		<line style="fill:none;stroke:#000000;stroke-width:0.5;" x1="13.502" y1="-14.806" x2="11.377" y2="-12.681"/>
		<line style="fill:none;stroke:#000000;stroke-width:0.5;" x1="10.627" y1="-4.681" x2="13.377" y2="-1.556"/>
		<line style="fill:none;stroke:#000000;stroke-width:0.5;" x1="14.377" y1="-10.306" x2="10.627" y2="-4.681"/>
		<line style="fill:none;stroke:#000000;stroke-width:0.5;" x1="10.627" y1="-4.681" x2="7.627" y2="-4.431"/>
		<line style="fill:none;stroke:#000000;stroke-width:0.5;" x1="5.502" y1="-0.556" x2="6.148" y2="-0.222"/>
		<line style="fill:none;stroke:#000000;stroke-width:0.5;" x1="5.502" y1="-0.556" x2="7.627" y2="-4.431"/>
		<polyline style="fill:none;stroke:#000000;stroke-width:0.5;" points="13.335,-8.847 9.022,-8.534 6.272,-10.659 		"/>
		<line style="fill:none;stroke:#000000;stroke-width:0.5;" x1="11.377" y1="-12.681" x2="6.834" y2="-14.097"/>
		<polyline style="fill:none;stroke:#000000;stroke-width:0.5;" points="6.834,-14.097 6.272,-11.784 5.897,-7.034 		"/>
		<line style="fill:none;stroke:#000000;stroke-width:0.5;" x1="5.41" y1="-5.743" x2="7.627" y2="-4.431"/>
		<line style="fill:none;stroke:#000000;stroke-width:0.5;" x1="2.147" y1="-1.722" x2="5.502" y2="-0.556"/>
		<line style="fill:none;stroke:#000000;stroke-width:0.5;" x1="5.502" y1="-0.556" x2="5.214" y2="-0.222"/>
		<line style="fill:none;stroke:#000000;stroke-width:0.5;" x1="2.96" y1="-18.222" x2="0.585" y2="-18.659"/>
		<line style="fill:none;stroke:#000000;stroke-width:0.5;" x1="2.96" y1="-18.222" x2="5.214" y2="-20.847"/>
		<line style="fill:none;stroke:#000000;stroke-width:0.5;" x1="19.459" y1="-18.472" x2="18.209" y2="-16.909"/>
		<line style="fill:none;stroke:#000000;stroke-width:0.5;" x1="14.002" y1="-19.306" x2="13.667" y2="-20.847"/>
		<line style="fill:none;stroke:#000000;stroke-width:0.5;" x1="19.376" y1="-13.681" x2="18.209" y2="-16.909"/>
		<line style="fill:none;stroke:#000000;stroke-width:0.5;" x1="14.002" y1="-19.306" x2="18.209" y2="-16.909"/>
		<polyline style="fill:none;stroke:#000000;stroke-width:0.5;" points="20.772,-18.428 20.747,-18.412 19.459,-18.472 		"/>
		<polyline style="fill:none;stroke:#000000;stroke-width:0.5;" points="19.459,-18.472 18.775,-20.786 18.738,-20.847 		"/>
		<line style="fill:none;stroke:#000000;stroke-width:0.5;" x1="0.147" y1="-18.428" x2="1.752" y2="-19.431"/>
		<line style="fill:none;stroke:#000000;stroke-width:0.5;" x1="2.876" y1="-10.681" x2="3.772" y2="-15.534"/>
		<line style="fill:none;stroke:#000000;stroke-width:0.5;" x1="6.148" y1="-20.847" x2="9.377" y2="-19.181"/>
		<line style="fill:none;stroke:#000000;stroke-width:0.5;" x1="13.502" y1="-14.806" x2="14.002" y2="-19.306"/>
		<line style="fill:none;stroke:#000000;stroke-width:0.5;" x1="9.377" y1="-19.181" x2="14.002" y2="-19.306"/>
		<polyline style="fill:none;stroke:#000000;stroke-width:0.5;" points="6.834,-14.097 8.46,-15.284 9.377,-19.181 		"/>
		<polyline style="fill:none;stroke:#000000;stroke-width:0.5;" points="2.96,-18.222 3.71,-15.722 6.834,-14.097 		"/>
		<line style="fill:none;stroke:#000000;stroke-width:0.5;" x1="20.772" y1="-8.035" x2="19.626" y2="-7.806"/>
		<line style="fill:none;stroke:#000000;stroke-width:0.5;" x1="19.376" y1="-13.681" x2="17.689" y2="-11.431"/>
		<line style="fill:none;stroke:#000000;stroke-width:0.5;" x1="19.626" y1="-7.806" x2="17.689" y2="-11.431"/>
		<line style="fill:none;stroke:#000000;stroke-width:0.5;" x1="20.772" y1="-12.666" x2="19.376" y2="-13.681"/>
		<line style="fill:none;stroke:#000000;stroke-width:0.5;" x1="2.751" y1="-8.556" x2="2.876" y2="-10.681"/>
		<line style="fill:none;stroke:#000000;stroke-width:0.5;" x1="2.876" y1="-10.681" x2="0.147" y2="-12.666"/>
		<line style="fill:none;stroke:#000000;stroke-width:0.5;" x1="2.263" y1="-2.622" x2="2.272" y2="-2.659"/>
		<line style="fill:none;stroke:#000000;stroke-width:0.5;" x1="1.697" y1="-0.222" x2="2.263" y2="-2.622"/>
		<line style="fill:none;stroke:#000000;stroke-width:0.5;" x1="1.697" y1="-20.847" x2="1.834" y2="-19.472"/>
	</g>
</svg>
