<svg xmlns="http://www.w3.org/2000/svg" xml:space="preserve" width="20.63" height="20.63" viewBox="0 -20.63 20.63 20.63"><path d="M0-20.63h20.63V0H0z" style="fill:none"/><path d="M8.37-2.96 8.36-5.1l-2.44-.41-1.23 1.68 1.58 1.67zM18.13-12.37l-2-.13-.05 2.45 1.55.8 1-1.87zM1.14-19.03l-.12 1.75 1.25 1.25 1.87-.5-.12-2.75zM2.38-10.03l.79 1.31 1.5-.41.71-1.15-2-1zM10.25-13.73 8.9-12.49l.9 1.35 1.68-.11.45-1.35zM13.63-17.38l-.12-1.88-1.38-.37-1.25 1.25.63 1.62zM15.48-3.72l.6 1.59 2.09.66.56-2.62-1.88-.5z" style="fill:none;stroke:#00aeef;stroke-width:.58"/><path d="M16.38 0v-.07a.4.4 0 0 0-.8 0V0" style="fill:#00aeef"/><circle cx="13.79" cy="-2.2" r=".35" style="fill:#00aeef"/><circle cx="10.73" cy="-1.7" r=".41" style="fill:#00aeef"/><circle cx="14.6" cy="-5.95" r=".41" style="fill:#00aeef"/><circle cx="18.35" cy="-7.45" r=".41" style="fill:#00aeef"/><circle cx="20.17" cy="-5.45" r=".41" style="fill:#00aeef"/><circle cx="11.23" cy="-15.57" r=".41" style="fill:#00aeef"/><circle cx="14.6" cy="-9.95" r=".41" style="fill:#00aeef"/><circle cx="12.5" cy="-7.66" r=".41" style="fill:#00aeef"/><circle cx="11.42" cy="-9.74" r=".41" style="fill:#00aeef"/><path d="M7.33-20.64v.07a.4.4 0 1 0 .8-.07M4.03-20.63a.4.4 0 0 1-.8 0" style="fill:#00aeef"/><circle cx="8.67" cy="-14.24" r=".41" style="fill:#00aeef"/><circle cx="5.17" cy="-14.82" r=".41" style="fill:#00aeef"/><circle cx="1.26" cy="-13.35" r=".41" style="fill:#00aeef"/><circle cx="5.35" cy="-11.95" r=".41" style="fill:#00aeef"/><circle cx="5.98" cy="-8.32" r=".41" style="fill:#00aeef"/><circle cx="4.48" cy="-6.07" r=".41" style="fill:#00aeef"/><circle cx="1" cy="-7.43" r=".41" style="fill:#00aeef"/><circle cx="1.88" cy="-4.8" r=".41" style="fill:#00aeef"/><circle cx=".81" cy="-1.74" r=".41" style="fill:#00aeef"/><circle cx="9.17" cy="-7.24" r=".41" style="fill:#00aeef"/><circle cx="11.48" cy="-4.7" r=".41" style="fill:#00aeef"/><path d="M20.63-17.26h-.07a.4.4 0 1 0 .07.8M15.58-20.64v.07a.4.4 0 1 0 .8-.07M0-16.46a.4.4 0 0 0 0-.8M4.03 0v-.05a.4.4 0 1 0-.8.05M7.34-.02a.4.4 0 0 1 .79 0" style="fill:#00aeef"/><circle cx="7.6" cy="-10.45" r=".41" style="fill:#00aeef"/><circle cx="5.58" cy="-18.74" r=".41" style="fill:#00aeef"/><circle cx="8" cy="-17.49" r=".41" style="fill:#00aeef"/><circle cx="15.25" cy="-19.11" r=".41" style="fill:#00aeef"/><circle cx="18.69" cy="-19.3" r=".41" style="fill:#00aeef"/><circle cx="16.44" cy="-17.18" r=".41" style="fill:#00aeef"/><circle cx="18.6" cy="-15.07" r=".41" style="fill:#00aeef"/><circle cx="16.1" cy="-14.95" r=".41" style="fill:#00aeef"/><circle cx="13.48" cy="-13.32" r=".41" style="fill:#00aeef"/></svg>