<svg xmlns="http://www.w3.org/2000/svg" xml:space="preserve" width="54.13" height="54.13" viewBox="1.89 -55.52 54.13 54.13"><path d="M1.89-55.52h54.13v54.13H1.89z" style="fill:none"/><path d="M27.11-29.17h0M2.72-43.26h0M5.25-41.83h0M7.95-43.59h0M7.95-40.51h0M11.3-42.59h0M14.27-43.64h0M11.36-39.08h0M14.73-37.07h0M14.57-40.23h0M17.13-42.38h0M20.21-44.4h0M6.08-38.41h0M3.05-38.91h0M4.54-35.94h0M7.67-35.28h0M10.91-35.39h0M18.12-37.53h0M16.73-34.57h0M13.99-33.24h0M19.66-34.45h0M21.53-37.31h0M20.48-41.66h0M11.28-46.09h0M24.83-43.2h0M23.45-40.45h0M24.5-37.31h0M22.96-34.34h0M26.86-40.06h0M28.84-42.65h0M28.02-37.37h0M26.2-34.18h0M30.55-39.13h0M2.94-33.13h0M6.13-32.64h0M9.38-32.42h0M32.42-42.05h0M32.15-36.9h0M34.9-38.4h0M33.41-33.69h0M36.77-34.62h0M38.2-37.98h0M38.09-42.48h0M41.16-39.63h0M43.15-42.65h0M45.23-39.52h0M42.43-36.22h0M40.06-33.47h0M46.72-42.38h0M50.65-46.4h0M53.9-49.15h0M54.4-45.15h0M51.52-50.65h0M48.4-48.15h0M44.9-49.77h0M47.59-51.02h0M54.34-53.59h0M49.02-54.27h0M45.21-53.84h0M45.09-45.59h0M42.21-51.9h0M39.15-53.4h0M36.23-54.67h0M38.84-50.46h0M37.15-47.71h0M34.96-44.34h0M33.77-48.15h0M33.46-51.77h0M29.65-49.27h0M31.27-45.4h0M31.4-54.4h0M30.15-51.4h0M27.9-54.15h0M24.59-54.71h0M26.21-48.65h0M24.34-46.21h0M22.84-48.52h0M24.71-51.71h0M20.84-51.71h0M7.9-46.46h0M4.9-45.46h0M2.4-47.52h0M10.21-48.9h0M12.71-51.02h0M11.15-54.71h0M9.65-52.15h0M7.57-55.07h0M5.71-50.02h0M6.4-52.4h0M3.4-54.9h0M2.4-51.27h0M19.96-49.52h0M19.84-47.21h0M15.84-45.84h0M16.52-49.9h0M18.21-53.9h0M15.9-52.4h0M14.4-54.9h0M41.52-48.52h0M39.9-45.15h0M49.58-40.34h0M50.15-43.9h0M53.9-26.65h0M54.9-23.9h0M54.65-30.15h0M48.81-36.98h0M52.65-38.65h0M52.4-32.9h0M51.9-5.15h0M49.74-33.74h0M54.4-35.15h0M49.25-27.69h0M47.85-31.32h0M44.05-32.15h0M41.83-29.18h0M45.29-28.6h0M35.06-30.5h0M32.01-30.74h0M28.54-31.07h0M24.75-31.24h0M21.86-31.82h0M17.82-31.73h0M13.53-30.58h0M4.45-30.33h0M7.42-29.09h0M6.35-26.45h0M3.46-27.61h0M4.37-24.64h0M8-23.32h0M9.73-26.29h0M11.3-23.65h0M12.87-27.11h0M14.19-24.31h0M16.41-25.3h0M15.51-28.02h0M18.56-27.52h0M21.53-26.37h0M23.1-28.6h0M19.96-24.14h0M17.49-22.82h0M14.77-21.59h0M12.21-21.42h0M9.07-20.93h0M6.43-20.35h0M3.54-18.95h0M2.8-15.64h0M5.53-17.05h0M8.58-17.95h0M8.33-15.31h0M5.86-13.66h0M3.05-11.93h0M5.86-10.86h0M9.15-12.43h0M11.3-14.24h0M12.54-11.36h0M15.1-12.92h0M17.07-11.11h0M19.3-13.34h0M16.41-15.4h0M13.69-15.97h0M13.53-18.95h0M16.5-18.53h0M18.97-19.93h0M19.47-16.39h0M22.68-16.72h0M22.11-14.08h0M23.02-11.44h0M25.24-12.59h0M28.3-13.17h0M27.47-10.2h0M25.57-15.4h0M26.23-18.04h0M28.63-21.09h0M24.66-20.43h0M22.6-22.08h0M23.43-24.55h0M26.4-22.99h0M28.46-24.97h0M25.9-26.62h0M30.61-27.77h0M33.58-28.02h0M34.98-24.47h0M32.91-22.33h0M34.15-19.52h0M36.63-20.68h0M38.69-23.65h0M37.53-27.44h0M41.16-26.45h0M45.37-25.63h0M42.07-22.91h0M40.17-20.35h0M43.72-19.77h0M47.19-19.11h0M49.99-21.17h0M54.12-20.68h0M51.81-23.81h0M48.67-24.47h0M49.09-16.14h0M51.23-18.9h0M51.64-13.25h0M53.79-10.2h0M49.17-11.69h0M46.03-14.24h0M44.8-16.88h0M41.25-16.64h0M42.73-13.75h0M43.48-10.94h0M40.17-11.44h0M38.44-13.99h0M35.64-15.81h0M36.71-12.1h0M33-13.91h0M29.15-16.65h0M31.35-10.78h0M34.48-10.04h0M54.45-5.91h0M54.45-2.44h0M50.82-8.22h0M47.68-6.08h0M49.33-3.27h0M46.2-9.38h0M42.81-7.48h0M44.22-4.59h0M46.57-3.07h0M41.9-2.4h0M39.23-2.73h0M39.9-4.73h0M36.9-4.4h0M31.15-19.4h0M32.9-16.9h0M33.41-3.1h0M34.98-6.49h0M38.28-9.04h0M32.17-7.81h0M28.63-7.64h0M26.07-6.08h0M27.8-2.86h0M24.42-8.55h0M22.19-7.07h0M23.84-4.18h0M21.9-2.73h0M18.81-8.14h0M20.21-5.17h0M18.73-2.69h0M16.75-5.83h0M15.18-8.96h0M11.79-8.88h0M8.66-9.62h0M2.72-8.47h0M7.17-6.32h0M10.31-6.24h0M9.65-2.94h0M14.27-2.86h0M6.43-3.77h0M3.13-5.17h0M3.71-2.69h0" style="fill:none;stroke:#000;stroke-width:.7;stroke-linecap:round"/><path d="M22.15-54.65c1.31 0 1.56 1.56.19 1.63s-1.25-1.57-.19-1.63zM35.65-52.84c1.31-.06 1.38 1.63.13 1.63s-1.26-1.5-.13-1.63zM43.71-47.96c1.32-.07 1.63 1.56.32 1.62s-1.32-1.56-.32-1.62zM28.27-46.02c1-.07 1.44 1.37.2 1.5s-1.38-1.38-.2-1.5zM35.96-41.96c.82-.07 1.57 1.43.13 1.56s-1.25-1.44-.13-1.56zM14.03-49.27c1.18.06 1.25 1.5.12 1.56s-1.31-1.5-.13-1.56zM4.59-48.21c1 .06 1.5 1.18.19 1.43s-1.5-1.3-.2-1.43zM18.84-40.71c1.06-.07 1.3 1.5.06 1.56s-.94-1.5-.06-1.56zM9.03-39.77c1.25 0 1.62 1.37.12 1.56s-1.5-1.5-.13-1.56zM30.02-35.09c0 1.31-1.8 1.25-1.93.06s1.81-1.3 1.93-.06zM38.09-31.59c1.19 0 1.31 1.5.12 1.63s-1.5-1.56-.12-1.63zM47.27-35.4c0 1.25-1.75 1.38-1.87.13s1.75-1.44 1.88-.13zM52.9-42.65c1.13-.06 1.63 1.5.19 1.5s-1.25-1.38-.19-1.5zM51.21-52.96c-1.11.15-1.18-1.38-.3-1.5s2.12 1.25.3 1.5zM51.9-30.15c1.19-.06 1.31 1.44.19 1.5s-1.44-1.25-.19-1.5zM46.9-22.4c0 1.13-1.94 1.13-1.94.06s1.88-1.43 1.94-.06zM38.52-18.4c1.32-.06 1.25 1.44.2 1.5s-1.57-1.38-.2-1.5zM54.77-15.53c0 1.32-1.87 1.2-1.93.13s1.75-1.37 1.93-.13zM31.02-25.84c1.2 0 1.57 1.5.2 1.63-1.38.12-1.26-1.56-.2-1.63zM21.09-30.15c0 1.31-1.82 1.38-1.82.06s1.75-1.5 1.82-.06zM30.71-15.21c.88 0 1.63 1.81.06 1.75-1.56-.06-1.5-1.81-.06-1.75zM21.65-21.02c1.06.06 1.38 1.68.06 1.75s-1.12-1.7-.06-1.75zM12.03-17.59c0 1.13-1.88 1.63-1.94.13s1.81-1.44 1.94-.13zM11.53-29.21c.06 1.69-1.75 1.62-1.82.31s1.56-1.31 1.81-.31zM3.96-23.27c1.13 0 1.38 2 .07 2s-1.7-1.82-.07-2zM6.03-8.09c.06 1.13-2.13 1.44-2.2.13S5.9-9.6 6.04-8.1zM14.21-6.03c1.13 0 1.5 1.7.13 1.82s-1.75-1.69-.13-1.82zM21.34-11.28c1.18-.06 1.25 1.57.12 1.63s-1.8-1.46-.12-1.63zM31.71-5.34c0 1.19-1.87 1.31-1.87.13s1.81-1.32 1.87-.13zM40.52-7.59c0 1.25-1.75 1.25-1.87.13s1.69-1.57 1.88-.13zM49.15-10.34c1.19-.06 1.44 1.63.25 1.75s-1.69-1.62-.25-1.75z" style="fill:none;stroke:#000;stroke-width:.3"/></svg>