<svg xmlns="http://www.w3.org/2000/svg" xml:space="preserve" width="54.13" height="54.13" viewBox="1.52 -55.52 54.13 54.13"><path d="M1.52-55.52h54.13v54.13H1.52z" style="fill:none"/><path d="M29.98-45.07h0M24.9-47.65h0M23.77-43.27h0M20.02-47.65h0M22.65-51.77h0M17.27-50.77h0M14.65-47.02h0M12.53-52.65h0M18.77-54.27h0M7.28-53.9h0M2.77-53.65h0M4.15-48.02h0M9.65-46.02h0M11.03-40.65h0M7.15-42.65h0M9.15-30.02h0M14.4-29.77h0M11.03-25.9h0M6.03-26.4h0M2.4-29.15h0M2.9-22.9h0M8.4-21.52h0M12.53-18.77h0M8.4-16.27h0M3.52-16.15h0M6.15-12.03h0M3.65-7.78h0M9.65-8.53h0M10.78-4.03h0M14.53-7.65h0M15.28-13.15h0M17.02-19.52h0M17.77-25.9h0M19.65-31.02h0M24.02-34.27h0M22.9-26.9h0M22.02-22.15h0M25.27-18.27h0M22.65-13.15h0M18.65-10.15h0M23.65-8.53h0M20.4-3.65h0M26.9-3.4h0M29.02-8.9h0M31.9-13.4h0M30.27-16.9h0M35.02-16.15h0M33.27-20.52h0M38.9-18.4h0M41.77-14.28h0M41.15-9.15h0M35.15-8.15h0M34.4-4.15h0M38.02-2.4h0M45.77-11.28h0M47.27-7.4h0M46.15-2.77h0M50.4-5.28h0M54.27-7.15h0M53.4-14.03h0M49.27-15.65h0M54.4-19.15h0M49.27-20.4h0M44.27-20.65h0M44.4-25.4h0M39.27-26.02h0M33.02-25.65h0M26.77-25.9h0M31.02-29.65h0M35.52-29.65h0M33.02-34.27h0M28.4-34.02h0M31.15-38.4h0M36.4-40.52h0M37.02-36.77h0M42.15-35.02h0M42.02-29.9h0M47.65-30.52h0M52.4-28.27h0M53.9-33.77h0M47.77-36.4h0M52.27-38.52h0M48.77-42.52h0M43.65-43.9h0M41.4-40.02h0M39.77-47.4h0M50.9-46.65h0M54.65-42.77h0M54.15-50.4h0M49.65-53.9h0M43.65-54.15h0M42.4-50.4h0M38.77-53.52h0M36.65-50.52h0M31.02-49.4h0M32.27-53.27h0M26.4-54.15h0M35.02-46.52h0M4.4-37.9h0M9.28-36.27h0M2.77-34.02h0M12.65-33.77h0M14.9-39.02h0M20.15-40.27h0M23.65-38.15h0" style="fill:none;stroke:#000;stroke-width:.7;stroke-linecap:round"/><path d="m6.3-7.38-2.5 2 4 1.75s.75-2 0-2.5-1.5-1.25-1.5-1.25zM50.6-11.96c1 .5 2.76.75 2.26 2s-2.5 1-2.5 1l.25-3zM39.02-7.5l5.2 1.6-.8 3-2.4-1.6s-1.6-.8-2-3zM51.15-35.67v2.5H48.9zM3.8-44.57l1.5 4.25-3.5.25zM46.23-27.25l2 3.75 3.25-1.5-2.25-2zM44.93-40.89l-.9 2.16 1.44.54 1.62-1.08-.72-1.26zM25.15-31.85h1.8v3.38l-3.6-1.35.45-1.58zM18.61-17.43l1.35 2.32 2.1-2.7zM36.16-24.33l3.15 1.8-1.35 1.12-1.58-1.35zM37.46-34.05l2.52 1.62-2.7 1.8-1.8-2.34.9-1.44zM4.66-21.19 7-19.75l-1.44 1.08h-2.7zM4.52-34.21l2.16.36v2.88l-1.26 1.44-.36-2.88zM46.06-18.71l-2.88 2.16 2.52 1.98 1.26-2.34zM28.97-25.01l1.89 2.16-.81 3.51-3.24-1.62 1.62-1.35zM27.83-10.61l1.13-2.47-2.25-.9-1.35 2.02.67 1.35zM35.03-45.26l2.03-.45-.23 2.93-2.02.9-.68-1.8zM14.33-25.23l1.13 2.25-1.58 1.35-.45-2.25zM17.75-6.46l.65 4.53-2.27-2.59zM46.14-51.32l-1.57 2.25 1.12.9 5.63-.68-1.13-1.57h-2.25zM9.69-12.84l.23 1.8h3.15l-.68-2.02zM15.69-35.5l1.35 2.25 2.48-2.25-2.03-.9zM8.39-51.31l2.03 1.58-2.93 1.12-2.25-2.47zM35.04-12.91l1.08 2.16 3.06-1.26-.36-1.62zM17.83-47.08l.67 4.05-4.72.68-.23-2.7 2.47-.45zM27.83-41.21v2.25h-2.02zM52.98-3.98v2.25h-2.02zM28.3-52.33l-1.49 2.16 1.89.27.68-.54-.27-1.35zM28.2-5.17l1.35 2.25 2.48-2.25-2.03-.9z" style="fill:none;stroke:#000;stroke-width:.3"/></svg>