<svg xmlns="http://www.w3.org/2000/svg" xml:space="preserve" width="49.68" height="49.68" viewBox="2.06 -51.39 49.68 49.68"><path d="M2.06-51.39h49.68v49.68H2.06z" style="fill:none"/><path d="M16.55-49.49h0M16.55-46.73h0M16.03-44.32h0M12.06-44.15h0M18.61-37.07h0M11.2-33.45h0M18.61-32.93h0M22.58-32.93h0M23.62-35.52h0M22.24-38.97h0M25.52-37.94h0M25.52-41.21h0M23.96-43.45h0M24.31-46.73h0M23.45-49.15h0M25.52-50.7h0M30.69-46.73h0M33.45-46.91h0M31.38-42.25h0M34.48-41.73h0M34.48-38.28h0M28.96-37.24h0M36.73-42.25h0M39.83-43.97h0M41.04-51.05h0M48.63-50.35h0M48.98-44.49h0M46.39-43.11h0M47.08-40.7h0M46.22-37.94h0M46.39-36.04h0M48.98-36.9h0M6.88-15.51h0M7.06-13.96h0M3.61-13.96h0M8.78-7.4h0M2.75-4.64h0M9.64-2.57h0M14.82-6.37h0M13.27-8.61h0M15.51-11.71h0M10.51-8.78h0M13.27-13.79h0M15.34-16.37h0M12.23-16.37h0M13.27-18.96h0M24.48-16.55h0M20.86-14.13h0M24.14-13.1h0M23.45-10.85h0M20-7.58h0M26.89-12.75h0M30.86-16.55h0M32.07-20.68h0M36.73-16.03h0M37.59-18.61h0M40.01-19.13h0M40.01-14.13h0M37.42-12.75h0M35-9.99h0M40.18-11.37h0M42.25-9.13h0M16.2-36.04h0M28.96-34.48h0M34.83-32.76h0M40.18-32.24h0M37.42-34.14h0M37.94-31.21h0M45.18-27.07h0M41.21-24.65h0M35.35-25.86h0M35.17-23.1h0M35.17-21.03h0M42.77-19.65h0M45.52-17.75h0M49.32-21.38h0M44.66-24.65h0M24.48-19.13h0M20.74-23.5h0M22.58-27.07h0M9.24-32.56h0M6.2-29.83h0M3.78-27.24h0M13.79-22.58h0M11.71-28.1h0M20.34-30.69h0M30.69-29.83h0M27.76-29.83h0M23.1-24.14h0M6.54-37.42h0M8.78-38.63h0M10.16-35.35h0M4.13-33.8h0M46.39-31.21h0M50.01-31.04h0M3.09-45.35h0M14.3-46.91h0M4.64-47.42h0M10.85-41.73h0M14.82-38.28h0M16.72-26.03h0M2.57-21.03h0M50.01-6.2h0M41.73-3.95h0M30-4.64h0M5.16-10.16h0M20.34-10.51h0M27.76-18.1h0M8.09-23.79h0M38.11-25.34h0M46.73-20h0M37.42-5.85h0M29.66-25.52h0M21.03-42.25h0M15.68-33.28h0M10.16-50.35h0M40.18-48.98h0M35.17-3.95h0M4.64-23.45h0M49.49-42.42h0M18.1-41.9h0M14.99-40.7h0M12.23-39.66h0M5.5-43.77h0M6.88-49.66h0M11.89-45.87h0M19.82-46.73h0M27.59-46.39h0M27.93-48.63h0M32.07-50.53h0M37.42-45.35h0M26.72-43.97h0M29.14-41.21h0M19.13-39.14h0M7.06-32.41h0M13.1-29.66h0M9.3-28.45h0M5.68-26.03h0M4.3-37.42h0M16.2-30.34h0M14.13-27.07h0M13.1-24.65h0M10.85-23.1h0M10.85-19.48h0M17.93-17.75h0M9.64-13.96h0M12.75-11.2h0M6.2-7.75h0M3.61-8.78h0M8.27-4.64h0M11.37-3.61h0M17.06-2.75h0M17.93-6.2h0M17.41-10.16h0M18.79-11.89h0M20.17-18.61h0M19.82-21.55h0M24.31-30.17h0M25.69-32.93h0M32.24-34.31h0M31.73-37.24h0M21.2-36.21h0M37.94-36.38h0M31.9-39.31h0M36.9-39.14h0M43.11-39.66h0M42.25-41.9h0M43.11-44.15h0M42.59-46.39h0M43.45-48.28h0M48.63-47.42h0M45.87-45.18h0M43.63-35.17h0M40.35-35.17h0M40.35-38.63h0M46.91-33.8h0M43.11-30.34h0M38.45-28.96h0M34.83-28.27h0M32.59-24.48h0M25.52-22.93h0M29.68-19.82h0M33.62-15.51h0M34.14-12.4h0M31.04-10.51h0M29.66-8.27h0M26.89-8.27h0M27.24-15.16h0M22.93-8.61h0M23.79-4.3h0M27.93-3.26h0M45.52-12.23h0M43.45-16.55h0M39.66-16.72h0M39.83-22.75h0M45.18-22.41h0M49.84-18.1h0M50.01-14.13h0M45.87-8.96h0M50.53-10.68h0M46.73-6.37h0M47.42-4.47h0M45.18-3.09h0M38.45-3.44h0M32.93-5.68h0M21.72-2.4h0M3.44-31.38h0M11.2-48.11h0M50.53-27.76h0M51.22-23.1h0M4.13-16.37h0M49.66-33.28h0M48.63-8.96h0M2.4-11.71h0M3.95-2.4h0M51.1-35.43h0M2.92-40.01h0M14.47-42.77h0M22.24-44.66h0M20.51-48.98h0M29.83-44.49h0M33.97-44.49h0M34.66-35.87h0M39.83-46.91h0M46.22-47.08h0M45.35-50.18h0M50.01-39.14h0M7.58-19.13h0M5.5-12.4h0M4.3-6.2h0M14.3-3.44h0M16.55-8.09h0M16.55-20.34h0M21.72-16.37h0M27.24-10.16h0M25.69-5.5h0M30.86-13.61h0M38.11-10.34h0M36.21-7.92h0M40.01-6.54h0M19.48-34.66h0M26.38-35.52h0M31.38-32.07h0M37.94-21.89h0M48.28-15.86h0M34.66-18.61h0M27.59-20.86h0M13.79-31.9h0M9.82-26.2h0M47.59-29.14h0M7.06-40.7h0M7.92-47.94h0M4.47-49.84h0M47.94-25.86h0M32.41-8.09h0M19.82-3.26h0M17.23-22.75h0M30.69-27.76h0M47.77-23.62h0M38.8-41.21h0M28.27-39.31h0M11.03-37.76h0M36.21-48.46h0M42.77-37.24h0M48.63-12.06h0M5.68-3.44h0M3.95-42.42h0M13.79-49.66h0M31.38-48.46h0M3.95-29.48h0M7.23-34.31h0M4.3-18.96h0M10.54-15.6h0M8.96-10.34h0M11.37-6.2h0M17.23-14.82h0M25.52-28.1h0M20-28.1h0M27.76-31.9h0M44.32-32.93h0M42.59-12.23h0M42.59-22.24h0M40.52-27.07h0M49.84-2.92h0M43.97-6.2h0M32.76-2.4h0M18.96-50.87h0M21.55-5.29h0M26.03-25.86h0M29.31-23.27h0M42.77-28.45h0M7.06-21.89h0M9.13-45.18h0M33.97-30.43h0M13.27-36.04h0M18.79-44.32h0M6.71-45.7h0M6.54-28.1h0M17.23-28.45h0M22.58-21.03h0M45.7-14.47h0M16.89-4.64h0M36.38-50.7h0M51.22-8.09h0M50.7-48.8h0M51.39-16.72h0M50.7-43.97h0M51.05-25.17h0M29.48-50.35h0M16.55-49.49h0M23.96-43.45h0M48.98-36.9h0M31.52-18.33h0M23.45-10.85h0M40.01-14.13h0M10.68-30.11h0M8.67-42.19h0M17-38.6h0M25.69-32.93h0M36.9-39.14h0M43.45-48.28h0M33.25-26.81h0M51.22-23.1h0M9.39-17.46h0M11.37-6.2h0M32.76-2.4h0M42.77-28.45h0M19.3-25.8h0M51.22-8.09h0" style="fill:none;stroke:#000;stroke-width:.7;stroke-linecap:round"/></svg>