<svg xmlns="http://www.w3.org/2000/svg" xml:space="preserve" width="53.98" height="53.98" viewBox="1.84 -55.63 53.98 53.98"><path d="M1.84-55.63h53.98v53.98H1.84z" style="fill:none"/><path d="M17.58-53.57h0M17.58-50.57h0M17.02-47.94h0M12.71-47.76h0M19.83-40.07h0M12.07-35.36h0M19.83-35.57h0M24.14-35.57h0M23.77-42.13h0M25.98-40.65h0M27.33-44.57h0M25.64-47.01h0M26.02-50.57h0M24.65-53.65h0M27.33-54.88h0M32.95-50.57h0M35.95-50.76h0M37.65-40.98h0M29.98-40.65h0M42.88-47.57h0M44.2-55.25h0M52.44-54.5h0M52.43-49.01h0M50.98-47.32h0M50.76-44.01h0M49.68-41.76h0M7.09-16.64h0M7.82-14.3h0M3.52-14.96h0M9.15-7.83h0M10.08-2.59h0M15.7-6.71h0M14.02-9.15h0M11.02-9.34h0M14.57-14.11h0M16.27-17.58h0M14.15-16.82h0M14.02-20.39h0M26.15-16.65h0M20.65-13.98h0M25.83-14.02h0M21.33-8.02h0M28.83-13.64h0M32.43-17.14h0M34.81-23.01h0M39.51-17.21h0M39.31-20.48h0M43.07-20.58h0M43.07-15.14h0M40.26-13.64h0M37.77-10.28h0M45.51-9.71h0M31.08-37.26h0M37.45-35.39h0M44.31-34.32h0M40.26-36.89h0M40.82-33.7h0M48.69-29.2h0M44.38-26.58h0M36.31-28.51h0M37.82-22.64h0M46.07-21.14h0M53.19-23.02h0M48.13-26.58h0M26.2-20.58h0M20.81-28.01h0M24.14-29.2h0M9.98-33.98h0M3.71-29.39h0M11.4-23.46h0M12.33-30.33h0M21.65-34.15h0M29.98-30.15h0M6.48-40.98h0M9.15-41.76h0M10.95-37.42h0M3.51-37.34h0M50.01-33.7h0M53.94-33.51h0M2.96-49.07h0M15.14-50.76h0M4.82-50.48h0M15.71-41.38h0M17.77-28.08h0M2.4-22.64h0M53.94-6.52h0M44.95-4.09h0M5.35-10.46h0M21.84-10.84h0M41.01-27.33h0M50.38-21.52h0M38.65-6.65h0M31.82-27.52h0M16.64-35.95h0M10.65-54.5h0M37.82-4.09h0M16.18-44.39h0M11.48-43.82h0M6.34-47.01h0M7.09-53.75h0M11.65-50.65h0M21.14-50.57h0M29.58-50.19h0M34.45-54.69h0M40.26-49.07h0M28.64-47.57h0M31.26-44.57h0M20.98-43.82h0M7.27-35.01h0M9.71-30.7h0M5.82-27.15h0M4.27-40.45h0M14.96-29.2h0M13.83-26.58h0M11.4-20.95h0M10.63-14.3h0M6.34-8.21h0M3.52-9.34h0M11.96-3.71h0M18.14-2.77h0M26.32-6.82h0M18.66-10.46h0M21.52-20.02h0M21.14-23.2h0M27.52-35.57h0M34.64-37.07h0M34.08-40.26h0M35.81-43.48h0M39.7-42.32h0M46.44-42.88h0M46.44-47.76h0M45.88-50.19h0M52.44-51.32h0M49.44-48.88h0M46.15-37.15h0M43.15-36.98h0M43.45-41.76h0M50.98-37.32h0M40.98-30.32h0M37.45-30.51h0M35.01-26.39h0M26.82-23.65h0M32.06-22.01h0M36.14-16.64h0M36.7-13.27h0M33.47-10.84h0M31.82-8.77h0M29.48-7.48h0M29.2-16.27h0M24.52-9.15h0M29.95-3.34h0M49.07-13.08h0M46.65-16.65h0M42.65-17.15h0M43.31-23.48h0M48.69-24.14h0M53.94-15.14h0M49.44-9.52h0M50.38-6.71h0M48.69-3.15h0M41.38-3.52h0M33.78-6.46h0M23.2-2.4h0M3.34-33.89h0M54.5-29.95h0M4.09-17.58h0M53.57-35.95h0M52.44-9.52h0M3.9-2.4h0M2.77-43.26h0M23.77-48.32h0M32.01-48.13h0M36.51-48.13h0M42.88-50.76h0M49.82-50.94h0M48.88-54.32h0M53.94-42.32h0M7.83-20.58h0M5.59-13.27h0M4.27-6.52h0M15.14-3.52h0M17.58-8.59h0M17.58-21.89h0M22.15-16.65h0M29.34-10.46h0M33.14-14.58h0M41.15-10.65h0M38.95-8.4h0M43.07-6.9h0M20.77-37.45h0M33.7-34.64h0M40.82-23.58h0M52.07-17.02h0M36.13-20.48h0M29.58-22.45h0M14.58-34.45h0M10.27-28.26h0M51.31-30.65h0M7.27-44.01h0M4.46-53.94h0M51.69-27.89h0M34.82-8.59h0M21.14-3.34h0M15.15-23.65h0M32.95-29.95h0M41.76-44.57h0M30.33-42.51h0M11.58-40.82h0M46.07-40.26h0M52.44-12.9h0M5.77-3.52h0M14.58-53.75h0M2.9-52.44h0M4.91-52.44h0M6.91-52.44h0M8.9-52.44h0M10.9-52.44h0M12.9-52.44h0M14.9-52.44h0M16.9-52.44h0M18.9-52.44h0M20.9-52.44h0M22.9-52.44h0M24.9-52.44h0M26.91-52.44h0M28.91-52.44h0M30.91-52.44h0M32.91-52.44h0M34.9-52.44h0M36.9-52.44h0M38.9-52.44h0M40.91-52.44h0M42.91-52.44h0M44.91-52.44h0M46.92-52.44h0M48.92-52.44h0M50.92-52.44h0M52.92-52.44h0M54.9-52.44h0M2.84-45.69h0M4.85-45.69h0M6.85-45.69h0M8.85-45.69h0M10.85-45.69h0M12.84-45.69h0M14.84-45.69h0M16.84-45.69h0M18.85-45.69h0M20.85-45.69h0M22.85-45.69h0M24.85-45.69h0M26.85-45.69h0M28.85-45.69h0M30.85-45.69h0M32.85-45.69h0M34.85-45.69h0M36.85-45.69h0M38.85-45.69h0M40.85-45.69h0M42.85-45.69h0M44.85-45.69h0M46.86-45.69h0M48.87-45.69h0M50.87-45.69h0M52.87-45.69h0M54.85-45.69h0M2.84-38.88h0M4.85-38.88h0M6.85-38.88h0M8.85-38.88h0M10.85-38.88h0M12.84-38.88h0M14.84-38.88h0M16.84-38.88h0M18.85-38.88h0M20.85-38.88h0M22.85-38.88h0M24.85-38.88h0M26.85-38.88h0M28.85-38.88h0M30.85-38.88h0M32.85-38.88h0M34.85-38.88h0M36.85-38.88h0M38.85-38.88h0M40.85-38.88h0M42.85-38.88h0M44.85-38.88h0M46.86-38.88h0M48.87-38.88h0M50.87-38.88h0M52.87-38.88h0M54.85-38.88h0M2.79-32.18h0M4.79-32.18h0M6.79-32.18h0M8.79-32.18h0M10.79-32.18h0M12.79-32.18h0M14.79-32.18h0M16.79-32.18h0M18.79-32.18h0M20.79-32.18h0M22.79-32.18h0M24.79-32.18h0M26.8-32.18h0M28.8-32.18h0M30.8-32.18h0M32.8-32.18h0M34.79-32.18h0M36.79-32.18h0M38.79-32.18h0M40.8-32.18h0M42.8-32.18h0M44.8-32.18h0M46.8-32.18h0M48.81-32.18h0M50.81-32.18h0M52.81-32.18h0M54.79-32.18h0M2.73-25.43h0M4.73-25.43h0M6.73-25.43h0M8.73-25.43h0M10.73-25.43h0M12.73-25.43h0M14.73-25.43h0M16.73-25.43h0M18.73-25.43h0M20.73-25.43h0M22.73-25.43h0M24.73-25.43h0M26.74-25.43h0M28.74-25.43h0M30.74-25.43h0M32.74-25.43h0M34.73-25.43h0M36.73-25.43h0M38.73-25.43h0M40.74-25.43h0M42.74-25.43h0M44.74-25.43h0M46.75-25.43h0M48.75-25.43h0M50.75-25.43h0M52.75-25.43h0M54.73-25.43h0M2.67-18.68h0M4.68-18.68h0M6.68-18.68h0M8.68-18.68h0M10.68-18.68h0M12.67-18.68h0M14.67-18.68h0M16.67-18.68h0M18.68-18.68h0M20.68-18.68h0M22.68-18.68h0M24.68-18.68h0M26.68-18.68h0M28.68-18.68h0M30.68-18.68h0M32.68-18.68h0M34.68-18.68h0M36.68-18.68h0M38.68-18.68h0M40.68-18.68h0M42.68-18.68h0M44.68-18.68h0M46.69-18.68h0M48.7-18.68h0M50.7-18.68h0M52.7-18.68h0M54.68-18.68h0M2.62-11.94h0M4.62-11.94h0M6.62-11.94h0M8.62-11.94h0M10.62-11.94h0M12.62-11.94h0M14.62-11.94h0M16.61-11.94h0M18.62-11.94h0M20.62-11.94h0M22.62-11.94h0M24.62-11.94h0M26.63-11.94h0M28.63-11.94h0M30.63-11.94h0M32.63-11.94h0M34.62-11.94h0M36.62-11.94h0M38.62-11.94h0M40.63-11.94h0M42.63-11.94h0M44.63-11.94h0M46.63-11.94h0M48.64-11.94h0M50.64-11.94h0M52.64-11.94h0M54.62-11.94h0M2.62-5.19h0M4.62-5.19h0M6.62-5.19h0M8.62-5.19h0M10.62-5.19h0M12.62-5.19h0M14.62-5.19h0M16.61-5.19h0M18.62-5.19h0M20.62-5.19h0M22.62-5.19h0M24.62-5.19h0M26.63-5.19h0M28.63-5.19h0M30.63-5.19h0M32.63-5.19h0M34.62-5.19h0M36.62-5.19h0M38.62-5.19h0M40.63-5.19h0M42.63-5.19h0M44.63-5.19h0M46.63-5.19h0M48.64-5.19h0M50.64-5.19h0M52.64-5.19h0M54.62-5.19h0M7.46-37.07h0M4.27-20.39h0M9.47-10.65h0M11.96-6.52h0M18.33-15.89h0M27.33-30.33h0M21.33-30.33h0M29.76-34.45h0M47.76-35.57h0M45.88-13.08h0M45.88-23.95h0M43.63-29.2h0M53.75-2.96h0M47.38-6.52h0M35.2-2.4h0M20.2-55.07h0M27.89-27.89h0M46.07-30.7h0M7.27-23.58h0M9.52-48.88h0M20.02-47.94h0M6.9-49.44h0M6.71-30.33h0M18.33-30.7h0M24.14-22.64h0M49.26-15.52h0M39.13-54.88h0M55.25-8.59h0M55.15-17.15h0M54.69-47.57h0M55.07-27.14h0M31.64-54.5h0M17.58-53.57h0M25.64-47.01h0M52.15-40.65h0M33.05-20.1h0M43.07-15.14h0M18.98-42.15h0M27.52-35.57h0M39.7-42.32h0M38.31-27.26h0M11.18-16.89h0M11.96-6.52h0M35.2-2.4h0M46.07-30.7h0M55.25-8.59h0" style="fill:none;stroke:#000;stroke-width:.7;stroke-linecap:round"/></svg>