<svg xmlns="http://www.w3.org/2000/svg" xml:space="preserve" width="54.13" height="54.13" viewBox="1.94 -56.04 54.13 54.13"><path d="M1.94-56.04h54.13v54.13H1.94z" style="fill:none"/><path d="M2.4-53.16h0M4.4-53.48h0M6.22-54.1h0M8.14-54.23h0M10.09-54.1h0M12.03-53.66h0M13.88-53.29h0M15.91-53.16h0M17.96-53.48h0M19.78-54.1h0M21.71-54.23h0M23.66-54.1h0M25.59-53.66h0M27.33-53.29h0M29.33-53.22h0M31.39-53.54h0M33.21-54.16h0M35.13-54.28h0M37.08-54.16h0M39.02-53.71h0M40.92-53.34h0M42.9-53.22h0M44.96-53.54h0M46.77-54.16h0M48.7-54.28h0M50.65-54.16h0M52.59-53.71h0M54.32-53.34h0M2.77-48.59h0M4.58-49.21h0M6.51-49.34h0M8.46-49.21h0M10.4-48.77h0M12.24-48.4h0M14.27-48.27h0M16.33-48.59h0M18.15-49.21h0M20.07-49.34h0M22.02-49.21h0M23.96-48.77h0M25.69-48.4h0M27.7-48.33h0M29.75-48.65h0M31.57-49.27h0M33.5-49.39h0M35.45-49.27h0M37.38-48.82h0M39.29-48.45h0M41.27-48.33h0M43.32-48.65h0M45.14-49.27h0M47.07-49.39h0M49.02-49.27h0M50.95-48.82h0M52.69-48.45h0M54.67-48.39h0M2.42-44.21h0M4.34-44.34h0M6.29-44.21h0M8.23-43.77h0M10.08-43.4h0M12.11-43.27h0M14.16-43.59h0M15.98-44.21h0M17.91-44.34h0M19.86-44.21h0M21.79-43.77h0M23.52-43.4h0M25.53-43.33h0M27.59-43.65h0M29.41-44.27h0M31.33-44.39h0M33.28-44.27h0M35.22-43.82h0M37.12-43.45h0M39.1-43.33h0M41.16-43.65h0M42.97-44.27h0M44.9-44.39h0M46.85-44.27h0M48.79-43.82h0M50.52-43.45h0M52.51-43.39h0M54.56-43.7h0M2.58-39.38h0M4.51-39.5h0M6.46-39.38h0M8.4-38.93h0M10.24-38.56h0M12.27-38.44h0M14.33-38.76h0M16.15-39.38h0M18.07-39.5h0M20.02-39.38h0M21.96-38.93h0M23.69-38.56h0M25.7-38.5h0M27.75-38.81h0M29.57-39.43h0M31.5-39.56h0M33.45-39.43h0M35.38-38.99h0M37.29-38.62h0M39.27-38.5h0M41.32-38.81h0M43.14-39.43h0M45.07-39.56h0M47.02-39.43h0M48.95-38.99h0M50.69-38.62h0M52.67-38.55h0M54.73-38.87h0M3.1-33.59h0M4.92-34.21h0M6.84-34.34h0M8.79-34.21h0M10.73-33.77h0M12.58-33.4h0M14.61-33.27h0M16.66-33.59h0M18.48-34.21h0M20.41-34.34h0M22.36-34.21h0M24.29-33.77h0M26.02-33.4h0M28.03-33.33h0M30.09-33.65h0M31.91-34.27h0M33.83-34.39h0M35.78-34.27h0M37.72-33.82h0M39.62-33.45h0M41.6-33.33h0M43.66-33.65h0M45.47-34.27h0M47.4-34.39h0M49.35-34.27h0M51.29-33.82h0M53.02-33.45h0M55.01-33.39h0M2.93-28.92h0M4.75-29.54h0M6.68-29.67h0M8.63-29.54h0M10.56-29.1h0M12.41-28.73h0M14.44-28.61h0M16.5-28.92h0M18.31-29.54h0M20.24-29.67h0M22.19-29.54h0M24.13-29.1h0M25.86-28.73h0M27.86-28.66h0M29.92-28.98h0M31.74-29.6h0M33.66-29.73h0M35.61-29.6h0M37.55-29.16h0M39.45-28.79h0M41.43-28.66h0M43.49-28.98h0M45.31-29.6h0M47.23-29.73h0M49.18-29.6h0M51.12-29.16h0M52.85-28.79h0M54.84-28.72h0M2.42-23.61h0M4.27-23.92h0M6.08-24.54h0M8.01-24.67h0M9.96-24.54h0M11.9-24.1h0M13.74-23.73h0M15.77-23.61h0M17.83-23.92h0M19.65-24.54h0M21.57-24.67h0M23.52-24.54h0M25.46-24.1h0M27.19-23.73h0M29.2-23.66h0M31.25-23.98h0M33.07-24.6h0M35-24.73h0M36.95-24.6h0M38.88-24.16h0M40.79-23.79h0M42.77-23.66h0M44.82-23.98h0M46.64-24.6h0M48.57-24.73h0M50.52-24.6h0M52.45-24.16h0M54.19-23.79h0M3.27-18.61h0M5.27-18.92h0M7.08-19.54h0M9.01-19.67h0M10.96-19.54h0M12.9-19.1h0M14.74-18.73h0M16.77-18.61h0M18.83-18.92h0M20.65-19.54h0M22.57-19.67h0M24.52-19.54h0M26.46-19.1h0M28.19-18.73h0M30.2-18.66h0M32.25-18.98h0M34.07-19.6h0M36-19.73h0M37.95-19.6h0M39.88-19.16h0M41.79-18.79h0M43.77-18.66h0M45.82-18.98h0M47.64-19.6h0M49.57-19.73h0M51.52-19.6h0M53.45-19.16h0M55.19-18.79h0M3.1-13.77h0M5.1-14.09h0M6.92-14.71h0M8.84-14.84h0M10.79-14.71h0M12.73-14.27h0M14.58-13.9h0M16.61-13.77h0M18.66-14.09h0M20.48-14.71h0M22.41-14.84h0M24.36-14.71h0M26.29-14.27h0M28.02-13.9h0M30.03-13.83h0M32.09-14.15h0M33.91-14.77h0M35.83-14.89h0M37.78-14.77h0M39.72-14.32h0M41.62-13.95h0M43.6-13.83h0M45.66-14.15h0M47.47-14.77h0M49.4-14.89h0M51.35-14.77h0M53.29-14.32h0M55.02-13.95h0M3.82-9.05h0M5.63-9.67h0M7.56-9.79h0M9.51-9.67h0M11.45-9.22h0M13.29-8.86h0M15.32-8.73h0M17.38-9.05h0M19.2-9.67h0M21.12-9.79h0M23.07-9.67h0M25.01-9.22h0M26.74-8.86h0M28.75-8.79h0M30.8-9.11h0M32.62-9.72h0M34.55-9.85h0M36.5-9.72h0M38.44-9.28h0M40.34-8.91h0M42.32-8.79h0M44.37-9.11h0M46.19-9.72h0M48.12-9.85h0M50.07-9.72h0M52-9.28h0M53.74-8.91h0M55.73-8.84h0M2.55-4.16h0M4.36-4.78h0M6.29-4.9h0M8.24-4.78h0M10.18-4.33h0M12.02-3.97h0M14.05-3.84h0M16.11-4.16h0M17.93-4.78h0M19.85-4.9h0M21.8-4.78h0M23.74-4.33h0M25.47-3.97h0M27.48-3.9h0M29.53-4.22h0M31.35-4.83h0M33.28-4.96h0M35.23-4.83h0M37.16-4.39h0M39.07-4.02h0M41.05-3.9h0M43.1-4.22h0M44.92-4.83h0M46.85-4.96h0M48.8-4.83h0M50.73-4.39h0M52.47-4.02h0M54.45-3.95h0M4.78-51.35h0M10.4-51.6h0M15.53-50.73h0M20.77-51.85h0M26.15-50.91h0M31.15-51.16h0M36.65-51.66h0M42.21-50.6h0M47.4-51.85h0M52.9-50.85h0M3.46-31.35h0M9.09-31.6h0M14.21-30.73h0M19.46-31.85h0M24.84-30.91h0M29.84-31.16h0M35.34-31.66h0M40.9-30.6h0M46.09-31.85h0M51.59-30.85h0M5.09-26.6h0M10.71-26.85h0M15.84-25.98h0M21.09-27.1h0M26.46-26.16h0M31.46-26.41h0M36.96-26.91h0M42.52-25.85h0M47.71-27.1h0M53.21-26.1h0M3.21-21.1h0M8.46-22.23h0M13.84-21.29h0M18.84-21.54h0M24.34-22.04h0M29.9-20.98h0M35.09-22.23h0M40.59-21.23h0M45.96-21.73h0M6.84-16.98h0M12.46-17.23h0M17.59-16.35h0M22.84-17.48h0M28.21-16.54h0M33.21-16.79h0M38.71-17.29h0M44.27-16.23h0M49.46-17.48h0M54.96-16.48h0M3.71-11.35h0M8.96-12.47h0M14.34-11.54h0M19.34-11.79h0M24.84-12.29h0M30.4-11.22h0M35.59-12.47h0M41.09-11.47h0M46.46-11.97h0M8.15-2.4h0M21.52-2.73h0M35.15-2.6h0M6.96-7.47h0M12.34-6.54h0M17.34-6.79h0M22.84-7.29h0M28.4-6.22h0M33.59-7.47h0M39.09-6.47h0M44.46-6.97h0M42.9-46.35h0M49.4-46.48h0M42.52-41.73h0M5.4-41.85h0M52.9-40.98h0M47.9-41.73h0M39.9-35.6h0M44.77-37.1h0M50.4-36.35h0M51.9-21.85h0M52.02-11.97h0M55.02-55.35h0M42.4-55.48h0M28.52-55.48h0M15.15-55.48h0M50.02-7.6h0M48.9-2.6h0M55.27-6.47h0M55.4-36.35h0M55.15-45.85h0M38.27-45.23h0M33.71-46.85h0M28.02-45.91h0M23.21-45.79h0M18.84-46.85h0M12.9-45.54h0M7.78-46.66h0M10.09-40.85h0M16.09-41.66h0M21.15-41.48h0M26.65-40.85h0M31.84-42.23h0M37.27-41.04h0M34.46-36.54h0M28.59-35.85h0M23.34-36.16h0M18.02-36.91h0M12.84-35.6h0M7.71-36.73h0" style="fill:none;stroke:#000;stroke-width:.7;stroke-linecap:round"/></svg>