<svg xmlns="http://www.w3.org/2000/svg" xml:space="preserve" width="54.13" height="54.13" viewBox="0 -54.13 54.13 54.13"><path d="M0-54.13h54.13V0H0z" style="fill:none"/><path d="M5.63-52.77h9.08M23.75-52.77h9.08M50.96-52.77h-9.08M6.83-49.58H0M24.71-49.58h-9.08M33.75-49.58h9.08M16.96-46.58H7.88M34.96-46.58h-9.08M43.75-46.58h9.08M6.83-43.71H0M24.71-43.71h-9.08M33.63-43.71h9.08M50.71-40.71h-9.08M32.71-40.71h-9.08M14.58-40.71H5.5M0-37.58h5.08M23.08-37.58H14M31.88-37.58h9.08M41.63-34.71h9.08M23.75-34.71h9.08M5.88-34.71h9.08M4.96-31.58H0M13.75-31.58h9.08M31.75-31.58h9.08M39.75-28.58h9.08M30.83-28.58h-9.08M12.58-28.58H3.5M0-25.46h2.96M20.83-25.46h-9.08M29.88-25.46h9.08M37.63-22.58h9.08M19.63-22.58h9.08M10.83-22.58H1.75M2.58-19.46H0M20.58-19.46H11.5M29.5-19.46h9.08M39.75-16.46h9.08M21.75-16.46h9.08M12.83-16.46H3.75M5.08-13.46H0M13.88-13.46h9.08M31.75-13.46h9.08M41.63-10.58h9.08M32.96-10.58h-9.08M14.96-10.58H5.88M6.46-7.33H0M15.5-7.33h9.08M33.63-7.33h9.08M50.71-4.46h-9.08M32.96-4.46h-9.08M14.83-4.46H5.75M0-1.33h5.08M22.83-1.33h-9.08M40.71-1.33h-9.08M51.92-49.58h2.21M51.92-43.71h2.21M50.17-37.58h3.96M54.13-31.58h-4.09M48.04-25.46h6.09M47.67-19.46h6.46M50.17-13.46h3.96M51.54-7.33h2.59M50.17-1.33h3.96" style="fill:none;stroke:#000;stroke-width:.3"/><path d="M11.29-49.58h0M13.57-49.58h0M8.9-49.58h0M29.29-49.58h0M31.57-49.58h0M26.91-49.58h0M47.38-49.58h0M49.66-49.58h0M44.99-49.58h0M39.46-46.58h0M41.74-46.58h0M37.07-46.58h0M21.46-46.58h0M23.74-46.58h0M19.07-46.58h0M3.5-46.58h0M5.78-46.58h0M1.11-46.58h0M19.13-52.71h0M21.41-52.71h0M16.74-52.71h0M1.25-52.71h0M3.53-52.71h0M37.38-52.71h0M39.66-52.71h0M34.99-52.71h0M52.78-52.71h0M29.15-43.68h0M31.43-43.68h0M26.77-43.68h0M11.28-43.68h0M13.56-43.68h0M8.89-43.68h0M47.4-43.68h0M49.68-43.68h0M45.02-43.68h0M19-40.69h0M21.28-40.69h0M16.61-40.69h0M1.12-40.69h0M3.4-40.69h0M37.25-40.69h0M39.53-40.69h0M34.86-40.69h0M52.65-40.69h0M27.44-37.56h0M29.72-37.56h0M25.05-37.56h0M9.56-37.56h0M11.84-37.56h0M7.17-37.56h0M45.69-37.56h0M47.97-37.56h0M43.3-37.56h0M18.88-34.69h0M21.16-34.69h0M16.49-34.69h0M1-34.69h0M3.28-34.69h0M37.13-34.69h0M39.41-34.69h0M34.74-34.69h0M52.53-34.69h0M27.31-31.63h0M29.59-31.63h0M24.93-31.63h0M9.44-31.63h0M11.72-31.63h0M7.05-31.63h0M45.56-31.63h0M47.84-31.63h0M43.18-31.63h0M17.06-28.63h0M19.34-28.63h0M14.68-28.63h0M1.47-28.63h0M35.31-28.63h0M37.59-28.63h0M32.93-28.63h0M53.1-28.63h0M50.72-28.63h0M25.25-25.5h0M27.53-25.5h0M22.86-25.5h0M7.37-25.5h0M9.65-25.5h0M4.99-25.5h0M43.5-25.5h0M45.78-25.5h0M41.11-25.5h0M14.94-22.56h0M17.22-22.56h0M12.55-22.56h0M33.19-22.56h0M35.47-22.56h0M30.8-22.56h0M50.98-22.56h0M53.26-22.56h0M48.59-22.56h0M24.94-19.44h0M27.22-19.44h0M22.55-19.44h0M7.06-19.44h0M9.34-19.44h0M4.67-19.44h0M43.19-19.44h0M45.47-19.44h0M40.8-19.44h0M17.13-16.44h0M19.41-16.44h0M14.74-16.44h0M1.53-16.44h0M35.38-16.44h0M37.66-16.44h0M32.99-16.44h0M53.16-16.44h0M50.78-16.44h0M27.31-13.44h0M29.59-13.44h0M24.93-13.44h0M9.44-13.44h0M11.72-13.44h0M7.05-13.44h0M45.56-13.44h0M47.84-13.44h0M43.18-13.44h0M19.13-10.63h0M21.41-10.63h0M16.74-10.63h0M1.25-10.63h0M3.53-10.63h0M37.38-10.63h0M39.66-10.63h0M34.99-10.63h0M52.78-10.63h0M29-7.31h0M31.28-7.31h0M26.61-7.31h0M11.12-7.31h0M13.4-7.31h0M8.74-7.31h0M47.25-7.31h0M49.53-7.31h0M44.86-7.31h0M19.19-4.44h0M21.47-4.44h0M16.8-4.44h0M1.31-4.44h0M3.59-4.44h0M37.44-4.44h0M39.72-4.44h0M35.05-4.44h0M52.84-4.44h0M27.38-1.31h0M29.66-1.31h0M24.99-1.31h0M9.5-1.31h0M11.78-1.31h0M7.11-1.31h0M45.63-1.31h0M47.91-1.31h0M43.24-1.31h0" style="fill:none;stroke:#000;stroke-width:.7;stroke-linecap:round"/></svg>