<svg xmlns="http://www.w3.org/2000/svg" xml:space="preserve" width="54.13" height="54.13" viewBox="0 -54.13 54.13 54.13"><path d="M0-54.13h54.13V0H0z" style="fill:none"/><path d="M5.67-52.52h9.08M6.81-52.71v-1.23M23.79-52.52h9.09M24.94-52.71v-1.23M41.92-52.52H51M43.06-52.71v-1.23M6.88-49.42H0M24.75-49.42h-9.08M16.81-49.6v-1.23M42.88-49.42h-9.09M34.94-49.6v-1.23M17-46.42H7.92M9.06-47.83v1.23M35-46.42h-9.08M27.06-47.83v1.23M43.79-46.42h9.09M44.94-47.83v1.23M0-43.54h6.88M15.67-43.54h9.08M16.81-43.73v-1.22M33.67-43.54h9.08M34.81-43.73v-1.22M41.67-40.54h9.08M42.81-40.73v-1.22M23.67-40.54h9.08M24.81-40.73v-1.22M14.63-40.54H5.54M6.69-40.73v-1.22M5.13-37.42H0M23.13-37.42h-9.09M15.19-38.83v1.23M31.92-37.42H41M33.06-37.6v-1.23M50.75-34.54h-9.08M42.81-34.73v-1.22M23.79-34.54h9.09M24.94-34.73v-1.22M15-34.54H5.92M7.06-34.73v-1.22M0-31.42h5M13.79-31.42h9.09M14.94-31.61v-1.22M31.79-31.42h9.09M32.94-32.83v1.22M39.79-28.42h9.09M40.94-29.83v1.22M30.88-28.42h-9.09M22.94-28.61v-1.22M12.63-28.42H3.54M4.69-28.61v-1.22M3-25.29H0M20.88-25.29h-9.09M12.94-26.7v1.22M29.92-25.29H39M31.06-26.7v1.22M46.75-22.42h-9.08M38.81-23.83v1.22M28.75-22.42h-9.08M20.81-22.61v-1.22M10.88-22.42H1.79M2.94-22.61v-1.22M0-19.29h2.63M20.63-19.29h-9.09M12.69-19.48v-1.22M29.54-19.29h9.09M30.69-20.7v1.22M39.79-16.29h9.09M40.94-17.7v1.22M21.79-16.29h9.09M22.94-17.7v1.22M12.88-16.29H3.79M4.94-16.48v-1.22M5.13-13.29H0M13.92-13.29H23M15.06-13.48v-1.22M31.79-13.29h9.09M32.94-14.7v1.22M41.67-10.42h9.08M42.81-11.83v1.22M33-10.42h-9.08M25.06-10.61v-1.22M15-10.42H5.92M7.06-10.61v-1.22M6.5-7.17H0M15.54-7.17h9.09M16.69-8.58v1.22M33.67-7.17h9.08M34.81-8.58v1.22M50.75-4.29h-9.08M42.81-5.7v1.22M33-4.29h-9.08M25.06-5.7v1.22M14.88-4.29H5.79M6.94-5.7v1.22M0-1.17h5.13M22.88-1.17h-9.09M14.94-2.58v1.23M40.75-1.17h-9.08M32.81-1.35v-1.23M51.96-49.42h2.17M53.1-49.6v-1.23M54.13-43.54h-2.17M53.1-44.95v1.22M50.21-37.42h3.92M51.35-38.83v1.23M54.13-31.42h-4.05M51.23-31.61v-1.22M54.13-25.29h-6.05M49.23-26.7v1.22M54.13-19.29h-6.42M48.85-20.7v1.22M50.21-13.29h3.92M51.35-14.7v1.22M54.13-7.17h-2.55M52.73-8.58v1.22M50.21-1.17h3.92M51.35-2.58v1.23" style="fill:none;stroke:#000;stroke-width:.3"/><path d="M11.3-49.4h0M13.58-49.4h0M8.91-49.4h0M29.3-49.4h0M31.58-49.4h0M26.91-49.4h0M47.38-49.4h0M49.66-49.4h0M45-49.4h0M39.47-46.4h0M41.75-46.4h0M37.08-46.4h0M21.47-46.4h0M23.75-46.4h0M19.08-46.4h0M3.51-46.4h0M5.79-46.4h0M1.12-46.4h0M19.14-52.45h0M21.41-52.45h0M16.75-52.45h0M1.26-52.45h0M3.54-52.45h0M37.38-52.45h0M39.66-52.45h0M35-52.45h0M52.79-52.45h0M29.16-43.5h0M31.44-43.5h0M26.77-43.5h0M11.29-43.5h0M13.56-43.5h0M8.9-43.5h0M47.41-43.5h0M49.69-43.5h0M45.02-43.5h0M19.01-40.51h0M21.29-40.51h0M16.62-40.51h0M1.13-40.51h0M3.41-40.51h0M37.26-40.51h0M39.54-40.51h0M34.87-40.51h0M52.66-40.51h0M27.45-37.38h0M29.73-37.38h0M25.06-37.38h0M9.57-37.38h0M11.85-37.38h0M7.18-37.38h0M45.7-37.38h0M47.98-37.38h0M43.31-37.38h0M18.89-34.51h0M21.16-34.51h0M16.5-34.51h0M1.01-34.51h0M3.29-34.51h0M37.13-34.51h0M39.41-34.51h0M34.75-34.51h0M52.54-34.51h0M27.32-31.44h0M29.6-31.44h0M24.94-31.44h0M9.45-31.44h0M11.73-31.44h0M7.06-31.44h0M45.57-31.44h0M47.85-31.44h0M43.19-31.44h0M17.07-28.44h0M19.35-28.44h0M14.69-28.44h0M1.48-28.44h0M35.32-28.44h0M37.6-28.44h0M32.94-28.44h0M53.11-28.44h0M50.73-28.44h0M25.26-25.32h0M27.54-25.32h0M22.87-25.32h0M7.38-25.32h0M9.66-25.32h0M5-25.32h0M43.51-25.32h0M45.79-25.32h0M41.12-25.32h0M14.95-22.38h0M17.23-22.38h0M12.56-22.38h0M33.2-22.38h0M35.48-22.38h0M30.81-22.38h0M50.99-22.38h0M53.27-22.38h0M48.6-22.38h0M24.95-19.26h0M27.23-19.26h0M22.56-19.26h0M7.07-19.26h0M9.35-19.26h0M4.68-19.26h0M43.2-19.26h0M45.48-19.26h0M40.81-19.26h0M17.14-16.26h0M19.41-16.26h0M14.75-16.26h0M1.54-16.26h0M35.38-16.26h0M37.66-16.26h0M33-16.26h0M53.17-16.26h0M50.79-16.26h0M27.32-13.26h0M29.6-13.26h0M24.94-13.26h0M9.45-13.26h0M11.73-13.26h0M7.06-13.26h0M45.57-13.26h0M47.85-13.26h0M43.19-13.26h0M19.14-10.44h0M21.41-10.44h0M16.75-10.44h0M1.26-10.44h0M3.54-10.44h0M37.38-10.44h0M39.66-10.44h0M35-10.44h0M52.79-10.44h0M29.01-7.13h0M31.29-7.13h0M26.62-7.13h0M11.13-7.13h0M13.41-7.13h0M8.75-7.13h0M47.26-7.13h0M49.54-7.13h0M44.87-7.13h0M19.2-4.26h0M21.48-4.26h0M16.81-4.26h0M1.32-4.26h0M3.6-4.26h0M37.45-4.26h0M39.73-4.26h0M35.06-4.26h0M52.85-4.26h0M27.39-1.13h0M29.66-1.13h0M25-1.13h0M9.51-1.13h0M11.79-1.13h0M7.12-1.13h0M45.63-1.13h0M47.91-1.13h0M43.25-1.13h0" style="fill:none;stroke:#000;stroke-width:.7;stroke-linecap:round"/></svg>