<svg xmlns="http://www.w3.org/2000/svg" xml:space="preserve" width="54.13" height="54.13" viewBox="0 -54.13 54.13 54.13"><path d="M0-54.13h54.13V0H0z" style="fill:none"/><path d="M5.67-52.77h9.08M6.79-52.83l.81-1.14M23.79-52.77h9.09M24.92-52.83l.81-1.14M41.92-52.77H51M43.04-52.83l.81-1.14M6.88-49.58H0M24.75-49.58h-9.08M16.79-49.65l.81-1.13M42.88-49.58h-9.09M34.92-49.65l.81-1.13M17-46.58H7.92M9.85-47.78l-.81 1.13M35-46.58h-9.08M27.85-47.78l-.81 1.13M43.79-46.58h9.09M45.73-47.78l-.81 1.13M6.88-43.71H0M15.67-43.71h9.08M16.79-43.77l.81-1.14M33.67-43.71h9.08M34.79-43.77l.81-1.14M41.67-40.71h9.08M42.79-40.77l.81-1.14M23.67-40.71h9.08M24.79-40.77l.81-1.14M14.63-40.71H5.54M7.48-41.91l-.81 1.14M0-37.58h5.13M23.13-37.58h-9.09M15.98-38.78l-.81 1.13M31.92-37.58H41M33.85-38.78l-.81 1.13M41.67-34.71h9.08M42.79-34.77l.81-1.14M32.88-34.71h-9.09M24.92-34.77l.81-1.14M5.92-34.71H15M7.04-34.77l.81-1.14M5-31.58H0M13.79-31.58h9.09M14.92-31.65l.81-1.13M31.79-31.58h9.09M33.73-32.78l-.81 1.13M39.79-28.58h9.09M41.73-29.79l-.81 1.14M30.88-28.58h-9.09M23.73-29.79l-.81 1.14M12.63-28.58H3.54M4.67-28.65l.81-1.14M0-25.46h3M20.88-25.46h-9.09M13.73-26.66l-.81 1.14M29.92-25.46H39M31.85-26.66l-.81 1.14M46.75-22.58h-9.08M39.6-23.79l-.81 1.14M19.67-22.58h9.08M20.79-22.65l.81-1.14M10.88-22.58H1.79M3.73-23.79l-.81 1.14M2.63-19.46H0M20.63-19.46h-9.09M12.67-19.52l.81-1.14M29.54-19.46h9.09M31.48-20.66l-.81 1.14M39.79-16.46h9.09M41.73-17.66l-.81 1.14M21.79-16.46h9.09M23.73-17.66l-.81 1.14M12.88-16.46H3.79M4.92-16.52l.81-1.14M5.13-13.46H0M13.92-13.46H23M15.04-13.52l.81-1.14M31.79-13.46h9.09M33.73-14.66l-.81 1.14M41.67-10.58h9.08M43.6-11.79l-.81 1.14M33-10.58h-9.08M25.04-10.65l.81-1.14M15-10.58H5.92M7.04-10.65l.81-1.14M6.5-7.33H0M15.54-7.33h9.09M17.48-8.54l-.81 1.14M33.67-7.33h9.08M35.6-8.54l-.81 1.14M50.75-4.46h-9.08M43.6-5.66l-.81 1.14M33-4.46h-9.08M25.85-5.66l-.81 1.14M14.88-4.46H5.79M7.73-5.66l-.81 1.14M0-1.33h5.13M22.88-1.33h-9.09M15.73-2.54l-.81 1.14M40.75-1.33h-9.08M32.79-1.4l.81-1.14M51.96-49.58h2.17M53.08-49.65l.81-1.13M54.13-43.71h-2.17M53.89-44.91l-.81 1.14M50.21-37.58h3.92M51.33-37.65l.81-1.13M54.13-31.58h-4.05M51.21-31.65l.81-1.13M54.13-25.46h-6.05M50.02-26.66l-.81 1.14M54.13-19.46h-6.42M49.64-20.66l-.81 1.14M50.21-13.46h3.92M52.14-14.66l-.81 1.14M54.13-7.33h-2.55M53.52-8.54l-.81 1.14M50.21-1.33h3.92M51.33-1.4l.81-1.14" style="fill:none;stroke:#000;stroke-width:.3"/><path d="M11.34-49.57h0M13.62-49.57h0M8.95-49.57h0M29.34-49.57h0M31.62-49.57h0M26.95-49.57h0M47.42-49.57h0M49.7-49.57h0M45.04-49.57h0M39.51-46.57h0M41.79-46.57h0M37.12-46.57h0M21.51-46.57h0M23.79-46.57h0M19.12-46.57h0M3.55-46.57h0M5.83-46.57h0M1.16-46.57h0M19.18-52.69h0M21.45-52.69h0M16.79-52.69h0M1.3-52.69h0M3.58-52.69h0M37.42-52.69h0M39.7-52.69h0M35.04-52.69h0M52.83-52.69h0M29.2-43.67h0M31.48-43.67h0M26.82-43.67h0M11.32-43.67h0M13.6-43.67h0M8.94-43.67h0M47.45-43.67h0M49.73-43.67h0M45.06-43.67h0M19.05-40.67h0M21.33-40.67h0M16.66-40.67h0M1.17-40.67h0M3.45-40.67h0M37.3-40.67h0M39.58-40.67h0M34.91-40.67h0M52.7-40.67h0M27.49-37.55h0M29.77-37.55h0M25.1-37.55h0M9.61-37.55h0M11.89-37.55h0M7.22-37.55h0M45.74-37.55h0M48.02-37.55h0M43.35-37.55h0M18.93-34.67h0M21.2-34.67h0M16.54-34.67h0M1.05-34.67h0M3.33-34.67h0M37.17-34.67h0M39.45-34.67h0M34.79-34.67h0M52.58-34.67h0M27.36-31.61h0M29.64-31.61h0M24.98-31.61h0M9.48-31.61h0M11.77-31.61h0M7.1-31.61h0M45.61-31.61h0M47.89-31.61h0M43.23-31.61h0M17.11-28.61h0M19.39-28.61h0M14.73-28.61h0M1.52-28.61h0M35.36-28.61h0M37.64-28.61h0M32.98-28.61h0M53.15-28.61h0M50.77-28.61h0M25.3-25.48h0M27.58-25.48h0M22.91-25.48h0M7.42-25.48h0M9.7-25.48h0M5.04-25.48h0M43.55-25.48h0M45.83-25.48h0M41.16-25.48h0M14.99-22.55h0M17.27-22.55h0M12.6-22.55h0M33.24-22.55h0M35.52-22.55h0M30.85-22.55h0M51.03-22.55h0M53.31-22.55h0M48.64-22.55h0M24.99-19.42h0M27.27-19.42h0M22.6-19.42h0M7.11-19.42h0M9.39-19.42h0M4.72-19.42h0M43.24-19.42h0M45.52-19.42h0M40.85-19.42h0M17.18-16.42h0M19.45-16.42h0M14.79-16.42h0M1.58-16.42h0M35.42-16.42h0M37.7-16.42h0M33.04-16.42h0M53.22-16.42h0M50.83-16.42h0M27.36-13.42h0M29.64-13.42h0M24.98-13.42h0M9.48-13.42h0M11.77-13.42h0M7.1-13.42h0M45.61-13.42h0M47.89-13.42h0M43.23-13.42h0M19.18-10.61h0M21.45-10.61h0M16.79-10.61h0M1.3-10.61h0M3.58-10.61h0M37.42-10.61h0M39.7-10.61h0M35.04-10.61h0M52.83-10.61h0M29.05-7.3h0M31.33-7.3h0M26.66-7.3h0M11.17-7.3h0M13.45-7.3h0M8.79-7.3h0M47.3-7.3h0M49.58-7.3h0M44.91-7.3h0M19.24-4.42h0M21.52-4.42h0M16.85-4.42h0M1.36-4.42h0M3.64-4.42h0M37.49-4.42h0M39.77-4.42h0M35.1-4.42h0M52.89-4.42h0M27.43-1.3h0M29.7-1.3h0M25.04-1.3h0M9.55-1.3h0M11.83-1.3h0M7.16-1.3h0M45.67-1.3h0M47.95-1.3h0M43.29-1.3h0" style="fill:none;stroke:#000;stroke-width:.7;stroke-linecap:round"/></svg>