<svg xmlns="http://www.w3.org/2000/svg" xml:space="preserve" width="53.58" height="53.58" viewBox="0.16 -53.58 53.58 53.58"><path d="M.16-53.58h53.58V0H.16z" style="fill:none"/><path d="M4.28-51.75H.16M7.48-51.75h5.75M16.4-51.75h5.75M25.32-51.75h5.74M34.23-51.75h5.75M43.15-51.75h5.75M52.07-51.75h1.68M8.61-48.62H2.87M17.53-48.62h-5.75M26.44-48.62H20.7M35.36-48.62h-5.75M44.28-48.62h-5.75M47.45-48.62h5.74M2.53-45.65H.16M11.48-45.65H5.73M14.65-45.65h5.74M23.57-45.65h5.74M32.48-45.65h5.75M41.4-45.65h5.74M50.31-45.65h3.44M7.81-42.84H2.07M16.73-42.84h-5.74M25.65-42.84H19.9M34.56-42.84h-5.74M43.48-42.84h-5.74M52.4-42.84h-5.75M2.21-39.87H.16M5.41-39.87h5.75M20.07-39.87h-5.74M23.25-39.87h5.74M32.16-39.87h5.75M41.08-39.87h5.75M50-39.87h3.75M.16-36.87H0M5.75-36.87H.16M14.66-36.87H8.92M23.58-36.87h-5.75M26.75-36.87h5.74M35.67-36.87h5.74M44.58-36.87h5.75M53.5-36.87h.25M2.69-33.99H.16M11.64-33.99H5.89M20.55-33.99h-5.74M23.73-33.99h5.74M32.64-33.99h5.75M41.56-33.99h5.74M50.47-33.99h3.28M7.18-30.79H1.43M16.09-30.79h-5.74M25.01-30.79h-5.74M28.18-30.79h5.75M37.1-30.79h5.74M46.02-30.79h5.74M3.96-27.82H.16M12.91-27.82H7.17M16.08-27.82h5.75M25-27.82h5.74M39.66-27.82h-5.75M48.58-27.82h-5.75M51.75-27.82h2M2.71-24.68h5.74M17.37-24.68h-5.75M26.29-24.68h-5.75M29.46-24.68h5.74M38.37-24.68h5.75M47.29-24.68h5.74M3.48-21.88H.16M12.43-21.88H6.69M21.35-21.88H15.6M24.52-21.88h5.75M33.44-21.88h5.74M42.35-21.88h5.75M51.27-21.88h2.48M7.34-18.74H1.59M16.25-18.74h-5.74M25.17-18.74h-5.74M28.34-18.74h5.75M43-18.74h-5.74M46.17-18.74h5.75M2.69-15.77H.16M5.89-15.77h5.75M14.81-15.77h5.74M23.73-15.77h5.74M32.64-15.77h5.75M41.56-15.77h5.74M50.47-15.77h3.28M6.54-12.8H.8M15.46-12.8H9.71M24.37-12.8h-5.74M33.29-12.8h-5.74M36.46-12.8h5.75M51.12-12.8h-5.74M3.64-10.01H.16M12.59-10.01H6.85M15.76-10.01h5.75M24.68-10.01h5.75M33.6-10.01h5.74M42.51-10.01h5.75M51.43-10.01h2.32M8.77-6.87H3.02M17.69-6.87h-5.75M26.6-6.87h-5.74M35.52-6.87h-5.75M38.69-6.87h5.75M47.61-6.87h5.74M.16-3.9h5.07M8.44-3.9h5.74M17.36-3.9h5.74M26.27-3.9h5.75M35.19-3.9h5.74M44.1-3.9h5.75M53.02-3.9h.73M9.09-.93H3.34M18-.93h-5.74M26.92-.93h-5.74M35.84-.93h-5.75M44.76-.93h-5.75M53.67-.93h-5.74" style="fill:none;stroke:#000;stroke-width:.3"/><path d="M5.92-51.69h0M14.9-51.69h0M23.81-51.69h0M32.76-51.69h0M41.64-51.69h0M50.59-51.69h0M1.22-48.61h0M10.2-48.61h0M19.11-48.61h0M28.06-48.61h0M36.95-48.61h0M45.89-48.61h0M4.2-45.61h0M13.17-45.61h0M22.09-45.61h0M31.03-45.61h0M39.92-45.61h0M48.87-45.61h0M.56-42.78h0M9.53-42.78h0M18.45-42.78h0M27.39-42.78h0M36.28-42.78h0M45.23-42.78h0M3.78-39.86h0M12.76-39.86h0M21.67-39.86h0M30.61-39.86h0M39.5-39.86h0M48.45-39.86h0M7.33-36.86h0M16.31-36.86h0M25.23-36.86h0M34.17-36.86h0M43.05-36.86h0M52-36.86h0M4.22-34.03h0M13.2-34.03h0M22.11-34.03h0M31.06-34.03h0M39.95-34.03h0M48.89-34.03h0M8.81-30.86h0M17.79-30.86h0M26.7-30.86h0M35.65-30.86h0M44.53-30.86h0M53.48-30.86h0M5.5-27.78h0M14.48-27.78h0M23.4-27.78h0M32.34-27.78h0M41.23-27.78h0M50.17-27.78h0M9.92-24.64h0M1.16-24.64h0M18.9-24.64h0M27.81-24.64h0M36.76-24.64h0M45.64-24.64h0M5.12-21.89h0M14.1-21.89h0M23.01-21.89h0M31.95-21.89h0M40.84-21.89h0M49.79-21.89h0M8.72-18.69h0M17.7-18.69h0M26.61-18.69h0M35.56-18.69h0M44.45-18.69h0M53.39-18.69h0M4.3-15.69h0M13.28-15.69h0M22.2-15.69h0M31.14-15.69h0M40.03-15.69h0M48.98-15.69h0M8.05-12.78h0M17.03-12.78h0M25.95-12.78h0M34.89-12.78h0M43.78-12.78h0M52.73-12.78h0M5.22-9.94h0M14.2-9.94h0M23.11-9.94h0M32.06-9.94h0M40.95-9.94h0M49.89-9.94h0M1.39-6.83h0M10.37-6.83h0M19.28-6.83h0M28.23-6.83h0M37.11-6.83h0M46.06-6.83h0M6.8-3.86h0M15.78-3.86h0M24.7-3.86h0M33.64-3.86h0M42.53-3.86h0M51.48-3.86h0M1.64-.86h0M10.62-.86h0M19.53-.86h0M28.48-.86h0M37.36-.86h0M46.31-.86h0" style="fill:none;stroke:#000;stroke-width:.7;stroke-linecap:round"/></svg>