<svg xmlns="http://www.w3.org/2000/svg" xml:space="preserve" width="53.58" height="53.58" viewBox="0 -53.58 53.58 53.58"><path d="M0-53.58h53.58V0H0z" style="fill:none"/><path d="M3.78-52.32H0M6.36-52.32h6.37M15.27-52.32h6.37M24.19-52.32h6.37M33.11-52.32h6.37M42.02-52.32h6.37M53.58-52.32h-2.64M8.11-49.19H1.74M17.02-49.19h-6.37M25.94-49.19h-6.37M34.86-49.19h-6.37M43.77-49.19h-6.36M46.32-49.19h6.37M0-46.22h2.02M10.97-46.22H4.61M13.52-46.22h6.37M22.44-46.22h6.37M31.36-46.22h6.36M40.27-46.22h6.37M49.19-46.22h4.39M7.31-43.41H.94M16.23-43.41H9.86M25.15-43.41h-6.37M34.06-43.41h-6.37M42.98-43.41h-6.37M45.53-43.41h6.37M1.71-40.44H0M4.29-40.44h6.36M19.57-40.44H13.2M22.12-40.44h6.37M31.04-40.44h6.37M39.95-40.44h6.37M48.87-40.44h4.71M5.24-37.44H0M14.16-37.44H7.79M23.07-37.44h-6.36M25.62-37.44h6.37M34.54-37.44h6.37M43.46-37.44h6.37M53.58-37.44h-1.21M2.18-34.27H0M11.13-34.27H4.76M13.68-34.27h6.37M28.97-34.27H22.6M37.88-34.27h-6.36M46.8-34.27h-6.37M53.58-34.27h-4.23M6.67-31.36H.31M15.59-31.36H9.22M24.51-31.36h-6.37M27.06-31.36h6.36M35.97-31.36h6.37M44.89-31.36h6.37M3.46-28.39H0M6.04-28.39h6.37M21.32-28.39h-6.36M30.24-28.39h-6.37M32.79-28.39h6.37M41.7-28.39h6.37M50.62-28.39h2.96M7.95-25.54H1.58M16.86-25.54H10.5M25.78-25.54h-6.37M28.33-25.54h6.37M43.62-25.54h-6.37M46.16-25.54h6.37M2.98-22.45H0M11.93-22.45H5.56M14.48-22.45h6.37M23.39-22.45h6.37M32.31-22.45h6.37M41.23-22.45h6.37M50.14-22.45h3.44M6.83-19.31H.47M15.75-19.31H9.38M24.67-19.31H18.3M27.21-19.31h6.37M42.5-19.31h-6.37M45.05-19.31h6.37M0-16.34h2.18M4.76-16.34h6.37M20.05-16.34h-6.37M22.6-16.34h6.37M31.52-16.34h6.36M40.43-16.34h6.37M49.35-16.34h4.23M6.04-13.37H0M14.96-13.37H8.59M23.87-13.37H17.5M26.42-13.37h6.37M35.34-13.37h6.36M44.25-13.37h6.37M53.58-13.37h-.41M0-10.57h3.14M12.09-10.57H5.72M14.64-10.57h6.37M23.55-10.57h6.37M32.47-10.57h6.37M47.76-10.57h-6.37M50.3-10.57h3.28M8.27-7.44H1.9M17.18-7.44h-6.37M26.1-7.44h-6.37M35.02-7.44h-6.37M37.56-7.44h6.37M46.48-7.44h6.37M4.73-4.47H0M7.31-4.47h6.37M16.23-4.47h6.37M25.15-4.47h6.37M34.06-4.47h6.37M42.98-4.47h6.37M51.9-4.47h1.68M8.59-1.5H2.22M17.5-1.5h-6.37M26.42-1.5h-6.37M35.34-1.5h-6.37M44.25-1.5h-6.37M53.17-1.5H46.8" style="fill:none;stroke:#000;stroke-width:.3"/></svg>