<svg xmlns="http://www.w3.org/2000/svg" xml:space="preserve" width="53.58" height="53.58" viewBox="0 -53.58 53.58 53.58"><path d="M0-53.58h53.58V0H0z" style="fill:none"/><path d="M3.77-51.75H0M6.36-51.75h6.37M15.27-51.75h6.37M24.19-51.75h6.37M33.11-51.75h6.37M42.02-51.75h6.37M53.58-51.75h-2.64M8.11-48.62H1.74M17.02-48.62h-6.37M25.94-48.62h-6.37M34.86-48.62h-6.37M43.77-48.62h-6.36M46.32-48.62h6.37M2.02-45.65H0M4.6-45.65h1.37M10.97-45.65h-5M13.52-45.65h6.37M23.82-45.65h4.99M23.82-45.65h-1.38M31.35-45.65h6.37M41.6-45.65h-1.33M41.6-45.65h5.04M49.19-45.65h4.39M7.31-42.84H.94M16.23-42.84H9.86M25.14-42.84h-6.37M34.06-42.84h-6.37M42.98-42.84h-6.37M51.9-42.84h-6.38M1.71-39.87H0M4.29-39.87h1.06M5.35-39.87h5.3M19.57-39.87H13.2M23.39-39.87h-1.27M23.39-39.87h5.1M31.04-39.87h6.37M41.16-39.87h5.16M39.95-39.87h1.21M48.87-39.87h4.71M5.24-36.87H0M14.16-36.87H7.79M16.71-36.87h6.36M31.99-36.87h-6.37M34.54-36.87h6.37M43.46-36.87h6.37M52.37-36.87h1.21M2.18-33.99H0M11.13-33.99H4.76M13.68-33.99h1.16M20.05-33.99h-5.21M28.97-33.99H22.6M32.79-33.99h-1.28M37.88-33.99h-5.09M46.8-33.99h-6.37M49.35-33.99h1.21M50.56-33.99h3.02M6.67-30.79H.31M15.59-30.79H9.22M24.51-30.79h-6.37M27.06-30.79h6.36M35.97-30.79h6.37M44.89-30.79h6.37M3.46-27.82H0M12.41-27.82H6.04M14.95-27.82h1.04M21.32-27.82h-5.33M23.87-27.82h6.37M34.01-27.82h5.15M34.01-27.82h-1.22M41.7-27.82h6.37M50.62-27.82h1.32M51.94-27.82h1.64M1.58-24.68h6.37M16.86-24.68H10.5M25.78-24.68h-6.37M34.7-24.68h-6.37M43.62-24.68h-6.37M46.16-24.68h6.37M2.98-21.88H0M11.93-21.88H5.56M14.48-21.88h6.37M23.39-21.88h6.37M32.31-21.88h6.37M41.23-21.88h6.37M50.14-21.88h3.44M6.83-18.74H.47M15.75-18.74H9.38M24.67-18.74H18.3M27.21-18.74h6.37M42.5-18.74h-6.37M45.05-18.74h6.37M2.18-15.77H0M11.13-15.77H4.76M20.05-15.77h-6.37M22.6-15.77h6.37M31.51-15.77h6.37M40.43-15.77h6.37M49.35-15.77h4.23M0-12.8h1.34M6.04-12.8h-4.7M8.59-12.8h6.36M18.73-12.8H17.5M23.87-12.8h-5.14M32.79-12.8h-6.37M36.55-12.8h-1.21M36.55-12.8h5.15M44.25-12.8h6.37M53.58-12.8h-.41M0-10.01h3.14M12.09-10.01H5.72M14.64-10.01H21M23.55-10.01h6.37M32.47-10.01h6.37M41.39-10.01h6.37M50.3-10.01h3.28M8.27-6.87H1.9M17.18-6.87h-6.37M26.1-6.87h-6.37M35.02-6.87h-6.37M43.93-6.87h-6.37M46.48-6.87h6.37M4.73-3.9H0M7.31-3.9h6.37M16.23-3.9h6.37M25.14-3.9h6.37M34.06-3.9h6.37M42.98-3.9h6.37M51.9-3.9h1.68M8.59-.93H2.22M17.5-.93h-6.37M26.42-.93h-6.37M35.34-.93h-6.37M44.25-.93h-6.37M53.17-.93H46.8M7.67-51.81l1.08-1.42M25.6-51.81l1.09-1.42M43.63-51.81l1.08-1.42M47.79-48.63l1.09-1.41M29.98-48.63l1.09-1.41M11.83-48.63l1.09-1.41M5.94-45.6l.03-.05M5.97-45.65l1.05-1.37M23.82-45.65l1.06-1.37M23.79-45.6l.03-.05M41.56-45.6l.04-.05M41.6-45.65l1.05-1.37M37.92-42.9 39-44.31M20.17-42.9l1.08-1.41M2.21-42.9l1.08-1.41M41.16-39.87l-.01.02M41.16-39.87l1.07-1.4M23.39-39.87l1.07-1.4M23.38-39.85l.01-.02M5.33-39.85l.02-.02M5.35-39.87l1.07-1.4M45.77-38.31l-1.08 1.41M28.02-38.31l-1.08 1.41M9.04-36.9l1.09-1.41M32.79-33.99l-.02.03M33.86-35.37l-1.07 1.38M50.56-33.99l1.07-1.38M50.56-33.99l-.02.03M14.81-33.96l.03-.03M15.9-35.37l-1.06 1.38M47.09-32.24 46-30.83M29.38-32.24l-1.09 1.41M10.48-30.83l1.09-1.41M15.98-27.81l.01-.01M17.07-29.23l-1.08 1.41M34.01-27.82l1.08-1.41M34.01-27.82l-.01.01M51.94-27.82l1.08-1.41M51.94-27.82v.01M38.56-24.71l1.09-1.41M20.75-24.71l1.09-1.41M2.9-24.71l1.08-1.41M6.92-21.89l1.09-1.41M24.8-21.89l1.08-1.41M43.51-23.3l-1.09 1.41M38.51-20.19l-1.09 1.41M19.52-18.78l1.09-1.41M1.69-18.78l1.09-1.41M7.3-17.32l-1.09 1.41M24.07-15.91l1.08-1.41M42.84-17.32l-1.09 1.41M36.55-12.8l1.08-1.42M19.82-14.22l-1.09 1.42M2.42-14.22 1.34-12.8M42.73-10.1l1.09-1.41M25.94-11.51l-1.08 1.41M7.96-11.51 6.88-10.1M12.09-6.91l1.08-1.41M31.05-8.32l-1.09 1.41M44.27-3.92l1.09-1.41M39.18-.94l1.08-1.41M21.3-.94l1.09-1.41M3.36-.94l1.09-1.41M27.63-5.33l-1.08 1.41M9.57-5.33 8.48-3.92M49.22-8.32l-1.09 1.41" style="fill:none;stroke:#000;stroke-width:.3"/></svg>