<svg xmlns="http://www.w3.org/2000/svg" xml:space="preserve" width="53.58" height="53.58" viewBox="0 -53.58 53.58 53.58"><path d="M0-53.58h53.58V0H0z" style="fill:none"/><path d="M3.77-51.75H0M6.36-51.75h6.37M15.27-51.75h6.37M24.19-51.75h6.37M33.11-51.75h6.37M42.02-51.75h6.37M53.58-51.75h-2.64M8.11-48.62H1.74M17.02-48.62h-6.37M25.94-48.62h-6.37M34.86-48.62h-6.37M43.77-48.62h-6.36M46.32-48.62h6.37M2.02-45.65H0M4.6-45.65h1.34M10.97-45.65H5.94M13.52-45.65h6.37M23.79-45.65h-1.35M23.79-45.65h5.02M31.35-45.65h6.37M41.56-45.65h5.08M41.56-45.65h-1.29M49.19-45.65h4.39M7.31-42.84H.94M16.23-42.84H9.86M25.14-42.84h-6.37M34.06-42.84h-6.37M42.98-42.84h-6.37M51.9-42.84h-6.38M1.71-39.87H0M5.33-39.87h5.32M4.29-39.87h1.04M19.57-39.87H13.2M23.38-39.87h5.11M23.38-39.87h-1.26M31.04-39.87h6.37M41.15-39.87h5.17M39.95-39.87h1.2M48.87-39.87h4.71M5.24-36.87H0M14.16-36.87H7.79M16.71-36.87h6.36M31.99-36.87h-6.37M34.54-36.87h6.37M43.46-36.87h6.37M52.37-36.87h1.21M2.18-33.99H0M11.13-33.99H4.76M13.68-33.99h1.13M20.05-33.99h-5.24M28.97-33.99H22.6M37.88-33.99h-5.11M32.77-33.99h-1.26M46.8-33.99h-6.37M49.35-33.99h1.19M50.54-33.99h3.04M6.67-30.79H.31M15.59-30.79H9.22M24.51-30.79h-6.37M27.06-30.79h6.36M35.97-30.79h6.37M44.89-30.79h6.37M3.46-27.82H0M12.41-27.82H6.04M21.32-27.82h-5.34M14.95-27.82h1.03M23.87-27.82h6.37M34-27.82h5.16M34-27.82h-1.21M41.7-27.82h6.37M51.94-27.82h1.64M50.62-27.82h1.32M1.58-24.68h6.37M16.86-24.68H10.5M25.78-24.68h-6.37M34.7-24.68h-6.37M43.62-24.68h-6.37M46.16-24.68h6.37M2.98-21.88H0M11.93-21.88H5.56M14.48-21.88h6.37M23.39-21.88h6.37M32.31-21.88h6.37M41.23-21.88h6.37M50.14-21.88h3.44M6.83-18.74H.47M15.75-18.74H9.38M24.67-18.74H18.3M27.21-18.74h6.37M42.5-18.74h-6.37M45.05-18.74h6.37M0-15.77h2.18M4.76-15.77h6.37M20.05-15.77h-6.37M22.6-15.77h6.37M31.51-15.77h6.37M40.43-15.77h6.37M49.35-15.77h4.23M1.34-12.8H0M6.04-12.8h-4.7M14.95-12.8H8.59M23.87-12.8h-5.14M18.73-12.8H17.5M32.79-12.8h-6.37M36.55-12.8h5.15M36.55-12.8h-1.21M44.25-12.8h6.37M53.58-12.8h-.41M3.14-10.01H0M12.09-10.01H5.72M14.64-10.01H21M23.55-10.01h6.37M32.47-10.01h6.37M41.39-10.01h6.37M50.3-10.01h3.28M8.27-6.87H1.9M17.18-6.87h-6.37M26.1-6.87h-6.37M35.02-6.87h-6.37M43.93-6.87h-6.37M46.48-6.87h6.37M0-3.9h4.73M7.31-3.9h6.37M16.23-3.9h6.37M25.14-3.9h6.37M34.06-3.9h6.37M42.98-3.9h6.37M51.9-3.9h1.68M8.59-.93H2.22M17.5-.93h-6.37M26.42-.93h-6.37M35.34-.93h-6.37M44.25-.93h-6.37M53.17-.93H46.8M7.67-51.81v-1.7M25.6-51.81l.01-1.7M43.63-51.81v-1.7M47.8-50.32l-.01 1.69M29.99-50.32l-.01 1.69M11.84-50.32l-.01 1.69M5.94-45.6v-.05M5.94-45.65l.01-1.65M23.79-45.6v-.05M23.79-45.65l.01-1.65M41.56-45.65l.01-1.65M41.56-45.6v-.05M37.92-42.9v-1.69M20.17-42.9l.01-1.69M2.21-42.9l.01-1.69M41.15-39.87v.02M41.15-39.87v-1.68M23.38-39.87v-1.68M23.38-39.85v-.02M5.33-39.85v-.02M5.33-39.87l.01-1.68M44.7-38.59l-.01 1.69M26.95-38.59l-.01 1.69M9.04-36.9l.01-1.69M32.78-35.65l-.01 1.66M32.77-33.99v.03M50.54-33.99v.03M50.54-33.99l.01-1.66M14.82-35.65l-.01 1.66M14.81-33.96v-.03M46.01-32.53l-.01 1.7M28.3-32.53l-.01 1.7M10.48-30.83l.01-1.7M15.98-27.81v-.01M15.99-29.51l-.01 1.69M34-27.82v.01M34-27.82l.01-1.69M51.94-27.82l.01-1.69M51.94-27.82v.01M38.56-24.71l.01-1.69M20.75-24.71l.01-1.69M2.9-24.71l.01-1.69M6.93-23.58l-.01 1.69M24.8-21.89v-1.69M42.43-23.58l-.01 1.69M37.43-20.48l-.01 1.7M19.52-18.78l.01-1.7M1.69-18.78l.01-1.7M6.21-15.91l.01-1.69M24.07-15.91v-1.69M41.76-17.6l-.01 1.69M36.55-12.8v-1.7M18.74-14.5l-.01 1.7M1.34-12.8l.01-1.7M42.73-10.1l.01-1.69M24.87-11.79l-.01 1.69M6.88-10.1l.01-1.69M12.09-6.91l.01-1.7M29.97-8.61l-.01 1.7M44.27-3.92l.01-1.69M39.18-.94l.01-1.69M21.3-.94l.01-1.69M3.36-.94l.01-1.69M26.55-5.61v1.69M8.49-5.61l-.01 1.69M48.14-8.61l-.01 1.7" style="fill:none;stroke:#000;stroke-width:.3"/></svg>