<svg xmlns="http://www.w3.org/2000/svg" xml:space="preserve" width="54.13" height="54.13" viewBox="0 -54.13 54.13 54.13"><path d="M0-54.13h54.13V0H0z" style="fill:none"/><path d="M18.2-49.61v-2.34M.95-52.77h13.76M19.79-52.77h13.04M37.45-52.77h14.84M10.62-49.58H0M28.62-49.58H15.63M48.12-49.58H33.75M16.96-46.58H2.12M22.62-46.58h13.33M39.79-46.58h13.04M27.45-43.71H6.62M37.29-43.71h16.66M52.62-40.71H39.29M35.29-40.71h-15.5M14.58-40.71H1.62M7.79-37.58H0M14-37.58h12.79M31.88-37.58h15.91M37.41-34.71h-12.5M40.91-34.71h10.75M19.62-34.71H1.45M9.79-31.58H0M26.29-31.58H13.75M29.79-31.58h16.5M41.91-28.58h10.04M17.62-28.58h19.67M.29-28.58h12.29M9.12-25.46H0M29.45-25.46H14.96M46.83-25.46H35.62M37.63-22.58h14.82M19.63-22.58h13.32M14.12-22.58H2.62M0-19.46h6.95M24.12-19.46H11.5M29.5-19.46h15.29M52.45-16.46h-12.7M34.95-16.46h-13.2M17.62-16.46H2.12M9.79-13.46H0M15.54-13.46h13.91M33.41-13.46h13.54M40.33-10.58h10.79M36.95-10.58H23.66M19.04-10.58H3.62M6.46-7.33H0M25.79-7.33h-13M46.95-7.33h-16.5M41.63-4.46h9.08M23.88-4.46h13.07M18.12-4.46H1.95M0-1.33h10.95M25.21-1.33h-9.08M45.45-1.33H31.63M51.88-49.58h2.25M50.13-37.58h4M50-31.58h4.13M51.08-25.46h3.05M47.63-19.46h6.5M50.13-13.46h4M51.5-7.33h2.63M50.13-1.33h4M30.45-49.07v2.34M29.58-40.77v-2.33M10.33-34.78v-2.34M28.08-31v2.33M48.95-25.05v2.34M9.08-16.5v-2.33M49.83-49.02v2.34M39.95-27.88v2.34M17.95-21.96v2.34M37.08-15.83v2.33M11.7-10.64v-2.34M22.08-7.39v-2.34M39.58-3.86v2.34M39.45-34v2.33M53.45-34v2.33M.62-7.46v-2.33M4.33-43.07v2.34" style="fill:none;stroke:#000;stroke-width:.3"/></svg>