<svg xmlns="http://www.w3.org/2000/svg" xml:space="preserve" width="54.13" height="54.13" viewBox="1.6 -55.73 54.13 54.13"><path d="M1.6-55.73h54.13V-1.6H1.6z" style="fill:none"/><path d="M1.6-51.98h54.13M1.6-47.8h54.13M1.6-43.61h54.13M1.6-14h54.19M1.6-10.22h54.13M1.6-39.59h54.13M1.6-36.31h54.13M1.6-32.89h54.13M1.6-28.84h54.13M1.6-25.04h54.13M1.6-20.84h54.19M1.6-17.61h54.13M1.6-2.44h54.13M7.53-55.73v3.75M20.27-55.73v3.75M33.77-55.73v3.75M48.15-55.73v3.75M7.53-2.45v.85M20.27-2.45v.85M33.77-2.45v.85M48.15-2.45v.85M14.2-52.04v4.23M29.07-52.04v4.23M42.7-52.04v4.23M55.52-52.04v4.23M8.64-47.67v4.04M21.89-47.67v4.04M35.45-47.67v4.04M50.39-47.67v4.04M41.76-43.63v4M28.39-43.63v4M13.51-43.63v4M55.01-43.63v4M48.15-39.63v3.3M33.52-39.63v3.3M20.27-39.63v3.3M7.53-39.63v3.3M14.07-36.33v3.43M29.07-36.33v3.43M42.83-36.33v3.43M55.58-36.33v3.43M8.26-32.9v4.05M21.76-32.9v4.05M35.39-32.9v4.05M50.26-32.9v4.05M41.64-28.79v3.74M28.31-28.79v3.74M13.31-28.79v3.74M54.87-28.79v3.74M7.13-24.99v4.14M20.13-24.99v4.14M33.75-24.99v4.14M48-24.99v4.14M43.8-20.79v3.16M29.65-20.79v3.16M14.53-20.79v3.16M2.11-20.79v3.16M8.48-17.56V-14M21.73-17.56V-14M35.36-17.56V-14M50.23-17.56V-14M41.88-13.95v3.76M28.01-13.95v3.76M13.46-13.95v3.76M55.33-13.95v3.76M1.6-5.81h54.13M11.9-5.84v3.46M26.33-5.84v3.46M39.96-5.84v3.46M53.33-5.84v3.46M6.17-10.19v4.35M19.17-10.19v4.35M33.17-10.19v4.35M47.73-10.19v4.35" style="fill:none;stroke:#000;stroke-width:.3"/></svg>