<svg xmlns="http://www.w3.org/2000/svg" xml:space="preserve" width="54.22" height="54.13" viewBox="0 -54.13 54.22 54.13"><path d="M0-54.13h54.22V0H0z" style="fill:none"/><path d="M5.47-51.93v3.23M5.47-51.93V-52M14.85-51.9v-.06M14.85-51.9v3.12M23.59-48.78v-3.07M32.72-51.91v-.07M32.72-51.91v3.01M41.84-51.9v-.12M41.84-51.9v3.12M51.22-51.84v3.07M46.47-52.75v-.05M46.47-52.8v-1.33M37.59-52.87v-1.26M28.47-53v-1.13M19.09-52.87v-1.26M10.35-53v-1.13M.84-52.75v-1.38M46.22-44.67v-2.98M37.34-47.78v3.11M28.22-47.73v-.17M28.22-44.79v-2.94M18.84-44.71v-3.07M18.84-44.71v.04M10.1-47.8v3.13M10.1-47.8v-.1M.59-47.65v3.05M.59-44.54v-.06M50.84-43.53v2.74M41.97-40.76v-2.89M41.97-40.76v.09M32.84-43.78v2.86M23.47-40.83v-2.82M23.47-40.83v.04M14.72-40.92v-2.86M5.22-40.71v.04M5.22-40.71v-3.1M1.47-36.61v.07M1.47-36.61v-3.17M46.72-36.67v-3.11M37.59-39.9v3.23M28.22-39.78v2.99M19.47-36.71v-3.19M19.47-36.67v-.04M9.97-39.94v-.11M9.97-36.67v-3.27M51.59-35.7v-.09M51.59-32.92v-2.78M42.72-32.9v-2.87M42.72-35.77v-.09M42.72-32.9v.11M33.59-35.78v2.74M33.59-35.78v-.2M24.22-35.73v2.77M24.22-32.96v.04M24.22-35.73v-.13M15.47-35.77v-.21M15.47-35.77v2.85M5.97-35.8v2.88M5.97-35.8v-.1M47.22-32.01v2.69M47.22-29.29v-.03M38.34-32.08v.05M38.34-32.03v2.57M29.22-29.39v.1M29.22-31.99v-.04M29.22-29.39v-2.6M19.84-29.36v-2.54M19.84-29.36v.07M11.1-29.32v-2.71M11.1-29.29v-.03M1.59-31.97v-.04M1.59-31.97v2.69M51.47-28.28v2.74M42.59-25.52v.1M42.59-25.52v-2.88M33.47-28.45v2.82M33.47-28.45v-.08M33.47-25.54v-.09M24.09-28.4v2.81M24.09-25.59v.05M15.35-25.54v-2.9M15.35-28.44v-.09M5.84-28.47v-.09M5.84-25.48v.06M5.84-28.47v2.99M47.34-24.64v2.72M47.34-24.64v-.01M38.47-24.78v.12M38.47-24.66v2.74M29.34-21.94v-2.69M29.34-21.94v.15M29.34-24.63v-.16M19.97-21.91v.12M19.97-21.91v-2.74M19.97-24.78v.13M11.22-24.68v-.22M11.22-21.86v.07M11.22-24.68v2.82M1.72-21.81v.02M1.72-24.58v2.77M1.72-24.58v-.07M52.22-20.78v2.86M43.34-17.87v.08M43.34-17.87v-3.03M34.22-17.95v-3.04M34.22-20.99v-.04M34.22-17.95v.03M24.84-17.92v-2.98M16.09-20.98v3.06M16.09-21.03v.05M6.59-21.01v.02M6.59-20.99v3.07M46.97-14.3v.01M46.97-16.9v2.6M38.09-14.28v-2.75M38.09-14.28v.11M28.97-17v2.62M28.97-14.38v.09M28.97-17v-.15M19.59-17.03v2.68M19.59-14.35v.06M10.85-17.05v-.1M10.85-14.29v-.01M10.85-17.05v2.75M1.34-14.24v.07M1.34-14.24v-2.66M51.84-13.4v.05M51.84-10.42v-2.93M42.97-13.53v.13M42.97-10.38v-3.02M42.97-10.38v.09M33.84-10.46v-2.96M33.84-13.65v.23M33.84-10.46v.04M24.47-10.43v.01M24.47-13.53v.16M24.47-10.43v-2.94M15.72-13.41v2.99M15.72-13.65v.24M6.22-13.4v2.98M46.84-9.45v3.03M37.97-9.53v3.24M37.97-9.53v-.04M28.84-9.49v3.07M28.84-9.49v-.04M19.47-6.34V-9.4M19.47-6.34v.05M10.72-9.53v3.11M1.22-6.17v-.06M1.22-9.51v.04M1.22-6.23v-3.24M51.34-5.32v-.08M51.34-5.32v2.53M42.47-2.77v-2.62M42.47-2.77v.1M42.47-5.39v-.14M33.34-5.6v.2M33.34-5.4v2.48M23.97-2.83v.16M23.97-2.83v-2.53M23.97-5.42v.06M15.22-5.4v-.03M15.22-5.4v2.61M5.72-2.74v.07M5.72-2.74V-5.4M48.56-52.38a4.51 4.51 0 0 0-2.1-.42" style="fill:none;stroke:#000;stroke-width:.3"/><path d="m48.56-52.38-.1-.03.13.05-.03-.02M41.84-51.9a4.5 4.5 0 0 0 2.25-.4c.62-.35 1.52-.5 2.38-.5M5.47-51.93a6.56 6.56 0 0 1-2.13-.43 7.24 7.24 0 0 0-3.3-.32M14.85-51.9a6.22 6.22 0 0 1-2.42-.51c-.75-.49-3.33-.54-4.5 0-.8.36-1.63.5-2.46.48M41.84-51.9a6.01 6.01 0 0 1-2.25-.46c-.83-.43-2.5-.7-4.5.06-.83.31-1.65.41-2.37.4" style="fill:none;stroke:#000;stroke-width:.3"/><path d="M32.72-51.91c-1-.03-1.82-.28-2.2-.5a5.4 5.4 0 0 0-4.5.05c-1.34.7-3.56.6-4.5.1-1.17-.58-3.1-.9-4.6-.1-.63.35-1.36.46-2.08.46M48.56-52.38c2.59.98 3.1.45 4.4.02.32-.15.74-.26 1.2-.32M37.34-47.78c.72.02 1.52-.08 2.34-.4 2-.75 3.66-.48 4.5-.05.83.43 3.25.76 4.5.06 1.23-.7 3.6-.6 4.47-.08M10.1-47.8c.8.02 1.64-.12 2.41-.48 1.17-.54 3.75-.49 4.5 0 .92.43 3 .86 4.5.05 1.5-.8 3.42-.48 4.58.1.48.25 1.28.4 2.13.4M53.15-48.25c.38.15.72.26 1.02.34" style="fill:none;stroke:#000;stroke-width:.3"/><path d="m53.15-48.25-.1-.03.13.05-.03-.02M28.22-47.73c.83 0 1.71-.15 2.38-.5a5.4 5.4 0 0 1 4.5-.05c.39.22 1.22.48 2.24.5M10.1-47.8a6.54 6.54 0 0 1-2.17-.43c-1.42-.54-3.5-.49-4.5 0-1.12.36-1.66.8-3.39.32M18.84-44.7c-.62.02-1.26.16-1.83.47-1.5.81-3.58.38-4.5-.05-.75-.49-3.33-.54-4.5 0-1.5.69-3.16.6-4.58.05A7.07 7.07 0 0 0 .6-44.6M48.65-44.25c2.58.98 3.09.45 4.4.02.3-.14.68-.25 1.12-.31M32.84-43.78a5.16 5.16 0 0 1-2.25-.5 5.39 5.39 0 0 0-4.5.05c-1.33.7-3.55.6-4.5.1a5.75 5.75 0 0 0-2.75-.58" style="fill:none;stroke:#000;stroke-width:.3"/><path d="m48.65-44.25-.1-.03.13.05-.03-.02M.04-44.54c.18-.03.36-.05.56-.06" style="fill:none;stroke:#000;stroke-width:.3"/><path d="M32.84-43.78c.72.02 1.52-.08 2.34-.4 2-.75 3.66-.48 4.5-.05.83.43 3.25.76 4.5.06 1.23-.7 3.6-.6 4.47-.08M53.4-40.37l-.1-.04.13.06-.03-.02" style="fill:none;stroke:#000;stroke-width:.3"/><path d="M41.97-40.76a4.77 4.77 0 0 1 2.46.4c.83.44 3.25.76 4.5.06 1.23-.7 3.6-.6 4.47-.07M53.4-40.37c.28.1.53.2.77.26M5.22-40.71c-.6.05-1.16.17-1.54.36-1.18.38-1.7.84-3.64.24M23.47-40.83c-.59.04-1.17.19-1.7.48-1.5.8-3.6.37-4.5-.06-.76-.48-3.34-.54-4.5 0-.9.42-1.87.55-2.8.47M23.47-40.83c1.06-.07 2.12.2 2.88.58.94.48 3.16.6 4.5-.1a5.4 5.4 0 0 1 4.5-.06c.39.23 1.22.49 2.24.5M37.6-39.9c.7.01 1.51-.09 2.33-.4a7.23 7.23 0 0 1 2.04-.46M5.22-40.71c.97-.08 2.09.02 2.96.36.56.21 1.17.36 1.79.4M1.47-36.61c-.52 0-1.01.06-1.43.17M51.6-35.7c.73-.02 1.21-.29 1.95-.53.18-.08.39-.15.62-.21M49.15-36.25l-.1-.03.13.05-.03-.02" style="fill:none;stroke:#000;stroke-width:.3"/><path d="M49.15-36.25c1.13.43 1.87.57 2.44.55M15.47-35.77c.7 0 1.42-.12 2.04-.46a4.26 4.26 0 0 1 1.96-.48M24.22-35.73c-.85 0-1.65-.15-2.13-.4-.69-.34-1.64-.6-2.62-.58M24.22-35.73c.83 0 1.71-.15 2.38-.5a5.4 5.4 0 0 1 4.5-.05c.42.24 1.35.52 2.5.5M15.47-35.77c-.98 0-1.92-.26-2.46-.51-.75-.49-3.33-.54-4.5 0-.82.38-1.69.52-2.54.48M5.97-35.8c-.7-.03-1.4-.18-2.04-.43a6.9 6.9 0 0 0-2.46-.38M33.6-35.78a6.25 6.25 0 0 0 2.08-.4c2-.75 3.66-.48 4.5-.05a6.3 6.3 0 0 0 2.54.46M42.72-35.77c.72 0 1.44-.11 1.96-.4 1.23-.7 3.6-.6 4.47-.08M24.22-32.96c-.7 0-1.44.13-2.08.48-1.5.81-3.59.38-4.5-.05a4.73 4.73 0 0 0-2.17-.39M1.6-31.97a7.25 7.25 0 0 1-1.56-.38M29.22-32a4.98 4.98 0 0 0 2-.48 5.4 5.4 0 0 1 4.5-.05c.44.25 1.43.54 2.63.5M42.72-32.9c.9-.01 1.62.18 2.08.42.84.43 3.25.76 4.5.06.6-.34 1.47-.49 2.3-.5M15.47-32.92c-.86 0-1.77.12-2.33.39-1.5.69-3.17.6-4.59.05-1.41-.54-3.5-.48-4.5 0-.89.3-1.4.63-2.45.51M53.77-32.5l.4.15M53.77-32.5l-.1-.03.13.05-.03-.02" style="fill:none;stroke:#000;stroke-width:.3"/><path d="M51.6-32.92c.88 0 1.73.15 2.17.42M24.22-32.96c.93 0 1.84.25 2.5.59.55.28 1.52.43 2.5.38M42.72-32.9c-.71 0-1.53.14-2.42.48-.67.25-1.34.37-1.95.39M33.47-28.45a6.22 6.22 0 0 0 1.96-.4c2-.75 3.66-.48 4.5-.05.83.43 3.25.76 4.5.06.72-.4 1.82-.54 2.79-.48M29.22-29.39c.72.07 1.32.27 1.63.44.44.25 1.42.54 2.62.5M5.84-28.47c.82.02 1.64-.12 2.42-.48a6.7 6.7 0 0 1 2.84-.37M1.6-29.28a7.18 7.18 0 0 0-1.56.11M48.9-28.92c2.58.98 3.09.45 4.4.02.24-.11.53-.2.87-.27M11.1-29.32c.71.04 1.35.16 1.66.37.56.26 1.56.52 2.59.5" style="fill:none;stroke:#000;stroke-width:.3"/><path d="M5.84-28.47a6.54 6.54 0 0 1-2.16-.43 6.59 6.59 0 0 0-2.09-.38M19.84-29.36a4.51 4.51 0 0 0-2.58.46 4.2 4.2 0 0 1-1.92.46M48.9-28.92a3.97 3.97 0 0 0-1.68-.4M19.84-29.36c.76.08 1.46.3 2 .57.5.25 1.36.4 2.25.39M24.1-28.4c.8-.02 1.62-.17 2.24-.5.95-.5 2-.58 2.88-.49" style="fill:none;stroke:#000;stroke-width:.3"/><path d="m48.9-28.92-.1-.03.13.05-.03-.02M47.34-24.64c.73 0 1.44-.12 1.96-.41 1.24-.7 3.61-.6 4.47-.07" style="fill:none;stroke:#000;stroke-width:.3"/><path d="m53.77-25.12-.1-.04.13.06-.03-.02M24.1-25.59c-.67.01-1.35.16-1.96.49-.66.35-1.43.47-2.17.45M11.22-24.68c.65-.04 1.3-.2 1.92-.48a5.93 5.93 0 0 1 2.2-.38M19.97-24.65a6.21 6.21 0 0 1-2.33-.5 4.9 4.9 0 0 0-2.3-.4" style="fill:none;stroke:#000;stroke-width:.3"/><path d="M29.34-24.63a5.52 5.52 0 0 1-2.62-.37c-.7-.35-1.65-.6-2.63-.59M53.77-25.12l.4.14M42.6-25.52c.95-.03 1.72.17 2.2.42a6.3 6.3 0 0 0 2.54.46M1.72-24.58a6.94 6.94 0 0 1-1.68-.4M5.84-25.48c-.7.03-1.35.16-1.79.38-.85.27-1.37.6-2.33.52M5.84-25.48c.91-.04 1.92.07 2.71.38.83.31 1.75.48 2.67.42M29.34-24.63c.68-.05 1.35-.2 1.88-.47a4.84 4.84 0 0 1 2.25-.52M42.6-25.52c-.69.02-1.46.16-2.3.47a6.2 6.2 0 0 1-1.83.39M38.47-24.66a5.46 5.46 0 0 1-2.75-.5 5.06 5.06 0 0 0-2.25-.47M29.34-21.94c.9.04 1.65.26 2 .46a5.5 5.5 0 0 0 2.88.49M6.6-21a6.46 6.46 0 0 1-2.42-.42 6.9 6.9 0 0 0-2.46-.39M34.22-21a6.16 6.16 0 0 0 1.7-.37c2-.76 3.67-.49 4.5-.05.84.43 3.26.75 4.5.05 1.24-.7 3.63-.6 4.48-.07M19.97-21.9a4.38 4.38 0 0 0-2.2.47c-.52.28-1.1.41-1.67.45M11.22-21.86c-.9-.02-1.86.1-2.46.38-.7.33-1.43.48-2.16.49" style="fill:none;stroke:#000;stroke-width:.3"/><path d="M49.4-21.44c2.58.97 3.09.44 4.4.02.11-.06.23-.1.37-.15M16.1-20.98a6.29 6.29 0 0 1-2.84-.5 4.52 4.52 0 0 0-2.04-.38M1.72-21.8c-.62 0-1.22.08-1.68.23M49.4-21.44l-.1-.04.13.06a.1.1 0 0 0-.03-.02M19.97-21.9c.89.02 1.74.26 2.38.58.94.49 3.16.6 4.5-.1.8-.43 1.7-.55 2.5-.52M24.84-17.92a4.62 4.62 0 0 0-2.83.43c-1.5.81-3.58.38-4.5-.05-.75-.49-3.33-.54-4.5 0-.7.32-1.43.47-2.16.49M34.22-17.95c.61.1 1.1.26 1.38.4.66.39 2.58.87 4.58.12a6.71 6.71 0 0 1 3.16-.44M34.22-17.95a5.21 5.21 0 0 0-3.13.46c-.6.32-1.36.47-2.12.5M53.65-17.5l.52.18M10.85-17.05a6.46 6.46 0 0 1-2.42-.44c-1.42-.54-3.5-.48-4.5 0-1.23.4-1.75.89-3.89.17M43.34-17.87c.56.07 1.01.21 1.34.38.83.44 3.25.76 4.5.06 1.23-.7 3.62-.6 4.47-.07M24.84-17.92c.66.1 1.27.3 1.75.54.53.27 1.44.42 2.38.38" style="fill:none;stroke:#000;stroke-width:.3"/><path d="m53.65-17.5-.1-.04.13.05-.03-.01M54.17-14.08c-.23.06-.44.13-.62.22-.65.2-1.1.45-1.7.51M49.15-13.88c1.3.5 2.08.6 2.7.53M15.72-13.41a6.26 6.26 0 0 1-2.7-.5 4.7 4.7 0 0 0-2.17-.4M19.6-14.35c-.71 0-1.44.14-2.09.49a4.1 4.1 0 0 1-1.79.45M1.34-14.24c.88-.03 1.83.09 2.59.38 1.41.54 3.09.64 4.58-.06a6.08 6.08 0 0 1 2.34-.38" style="fill:none;stroke:#000;stroke-width:.3"/><path d="M24.47-13.37a5.31 5.31 0 0 1-2.38-.38 5.75 5.75 0 0 0-2.5-.6M46.97-14.3c-.83 0-1.7.16-2.3.5a3.9 3.9 0 0 1-1.7.4M49.15-13.88l-.1-.04.13.06-.03-.02M38.1-14.28c.9-.01 1.61.18 2.08.42.53.27 1.69.5 2.79.45M1.34-14.24c-.47.01-.91.07-1.3.16" style="fill:none;stroke:#000;stroke-width:.3"/><path d="M49.15-13.88a4.56 4.56 0 0 0-2.18-.42M28.97-14.38a4.9 4.9 0 0 0-2.38.52 5.1 5.1 0 0 1-2.12.49M33.84-13.42a5.45 5.45 0 0 1-2.75-.5 5 5 0 0 0-2.12-.46" style="fill:none;stroke:#000;stroke-width:.3"/><path d="M38.1-14.28c-.72 0-1.54.14-2.42.47a6.2 6.2 0 0 1-1.84.39M53.44-10c.26.1.5.19.73.26M28.84-9.49c-.96.05-1.92-.1-2.45-.38a5.72 5.72 0 0 0-1.92-.56M37.97-9.53c.62-.02 1.3-.13 2-.4a6.78 6.78 0 0 1 3-.45M37.97-9.53a5.37 5.37 0 0 1-2.58-.5 4.43 4.43 0 0 0-1.55-.43" style="fill:none;stroke:#000;stroke-width:.3"/><path d="M28.84-9.49a5.03 5.03 0 0 0 2.05-.49 5.14 5.14 0 0 1 2.96-.48M42.97-10.38c.63.06 1.14.22 1.5.4.83.43 3.25.76 4.5.06 1.24-.7 3.6-.6 4.47-.08M24.47-10.43c-.89-.1-1.84 0-2.67.45-1.5.81-3.58.38-4.5-.05-.75-.49-3.33-.54-4.5 0-1.49.69-3.16.6-4.58.05-1.42-.54-3.5-.48-4.5 0-.9.3-1.43.64-2.5.5" style="fill:none;stroke:#000;stroke-width:.3"/><path d="m53.44-10-.1-.03.13.05-.03-.02M.04-9.74c.47.14.85.23 1.18.27M51.34-5.32c.84.02 1.34-.28 2.13-.53.2-.1.43-.18.7-.24M33.34-5.4a5.2 5.2 0 0 1-2.33-.5 5.39 5.39 0 0 0-4.5.05c-.7.37-1.66.51-2.54.5M1.22-6.23c.89-.03 1.85.08 2.63.38 1.41.54 3.08.63 4.58-.06 1.17-.54 3.75-.48 4.5 0 .5.24 1.37.48 2.29.5" style="fill:none;stroke:#000;stroke-width:.3"/><path d="M42.47-5.4a6.15 6.15 0 0 1-2.38-.45c-.83-.44-2.5-.7-4.5.05-.78.3-1.56.4-2.25.4M.04-6.09c.35-.08.76-.13 1.18-.14M42.47-5.4c.78.02 1.57-.09 2.13-.4 1.23-.7 3.6-.6 4.47-.07M15.22-5.4c.75.02 1.54-.1 2.2-.45a4.3 4.3 0 0 1 2.05-.49M51.34-5.32a7.03 7.03 0 0 1-2.27-.55" style="fill:none;stroke:#000;stroke-width:.3"/><path d="m49.06-5.87-.1-.04.13.06-.03-.02M23.97-5.36a4.87 4.87 0 0 1-1.96-.39c-.67-.34-1.6-.6-2.54-.59M5.72-2.74c.78.01 1.59.13 2.25.39.74.28 1.55.44 2.38.43M53.19-2.37c-.86-.52-3.23-.62-4.47.07-.59.33-1.43.43-2.25.4" style="fill:none;stroke:#000;stroke-width:.3"/><path d="M.04-2.04c1.77.5 2.3.05 3.43-.31.53-.26 1.37-.4 2.25-.39M42.47-2.77c.74.03 1.34.2 1.75.42.44.22 1.33.42 2.25.46M53.19-2.37l-.1-.04.13.06-.03-.02M53.19-2.37c.36.14.69.24.98.33M23.97-2.83a4.44 4.44 0 0 0-2.42.48c-.74.4-1.64.5-2.46.44" style="fill:none;stroke:#000;stroke-width:.3"/><path d="M19.1-1.91a6.12 6.12 0 0 1-2.05-.5c-.75-.48-3.33-.54-4.5 0-.7.33-1.46.48-2.2.49M23.97-2.83c.81.06 1.58.29 2.17.58.94.48 3.16.6 4.5-.1a5.4 5.4 0 0 1 4.5-.06c.66.38 2.58.87 4.58.11a6.89 6.89 0 0 1 2.75-.47M46.47-1.9v-.02M46.47-1.9V0M37.59-1.87V0M28.47-1.83V0M19.09-1.91V0M19.09-1.99v.08M10.35-1.92V0M10.35-1.92v-.02M.84-1.86V0" style="fill:none;stroke:#000;stroke-width:.3"/><path d="M.04-54.13h54.13V0H.04z" style="fill:none"/></svg>