<svg xmlns="http://www.w3.org/2000/svg" xml:space="preserve" width="54" height="54" viewBox="0.06 -54.15 54 54"><path d="M.06-54.15h54v54h-54z" style="fill:none"/><path d="M38.4-47.42a216.64 216.64 0 0 1-9.56 2.82M22.1-42.88c2.19-.53 4.45-1.1 6.74-1.72M46.96-50.4c2.5-.97 4.9-1.97 7.1-3M46.96-50.4a164.53 164.53 0 0 1-8.57 2.98M5.23-39.65c4.1-.48 10.13-1.62 16.87-3.23M.06-53.4l1.61-.75M1.78-.15l1.96-.91M3.81-1.1l-.07.04M32.57-3.4C37-2.1 41.71-.96 46.66-.14M4.55-14.24l-.15-.07M19.8-7.77c-5.94-2.32-11.08-4.66-15.25-6.48M19.8-7.77C23.72-6.25 28-4.73 32.57-3.4M22.07-17.14c-1.5.31-3 .62-4.5.9" style="fill:none;stroke:#000;stroke-width:.3"/><path d="M.06-13.85c1.47-.1 2.97-.23 4.5-.4M31.23-19.26a268.6 268.6 0 0 1-9.16 2.12M46.24-23.4a303.3 303.3 0 0 1-15 4.14M17.57-16.24a167.1 167.1 0 0 1-13.02 2M46.24-23.4c3-.92 5.65-1.78 7.82-2.54M54.06-41.35l-1.3-.46M38.25-47.48l.14.06M52.75-41.81a246.8 246.8 0 0 1-14.36-5.6M48.55-13.65c1.77 0 3.6-.06 5.51-.2M38.03-13.97c-4.13-.3-11.54-1.04-15.96-3.17M22.06-17.15l.01.01M48.55-13.65h-.46s-5.03 0-7.7-.16c-.52-.04-1.34-.08-2.36-.16M48.43-29.04c1.88.27 3.76.5 5.63.7M19.83-35.12c8.95 2.48 18.75 4.7 28.6 6.08M19.83-35.12c-7.3-2.02-14.04-4.2-19.77-6.22M.06-41.94c10.04-.98 33.12-3.92 46.17-8.37M.06-46.27c13.57-.66 35.1-2.34 49.21-7.44M.06-50.35c12.5-.1 30.3-1.11 42.73-3.8M44.57-.5l-1.58.35M38.44-1.74C26.9-.45 14.01-.55 3.74-1.06M3.74-1.06l-3.68-.2M15.23-41.31c1.04.46 2.1.9 3.18 1.33M39.53-33.83c4.9 1 9.8 1.77 14.53 2.33M18.4-39.98a126 126 0 0 0 21.13 6.15M22.1-42.88c.86.4 1.9.83 3.08 1.27M22.1-42.88l-.2-.1M25.18-41.6c6.58 2.46 17.78 5.38 28.88 7.17M31.95-43.35c2.67 1.07 5.93 2.35 9.6 3.58M28.84-44.6l-.1-.05M54.06-36.33a107.4 107.4 0 0 1-12.5-3.44M31.95-43.35l-3.1-1.25M34.4-46.15c7.44 3 10.9 5.2 19.66 6.72M26.07-33.4c-6.45 1.25-16.2.55-26-1.04M.06-36.33l.5.1M19.83-35.12c.1 0 .18-.02.28-.03M7.89-35.12c3.95.4 7.98.46 11.94 0M7.89-35.12a76.21 76.21 0 0 1-7.34-1.11M8.77-38.31c-3.21-.3-5.9-.65-8.22-1.04M.06-39.44l.5.09M54.06-41.94l-1.3.13" style="fill:none;stroke:#000;stroke-width:.3"/><path d="M54.06-46.27c-5.79.27-10.12.37-11.8.46M46.96-50.4c2.06.05 4.46.07 7.1.05M46.96-50.4l-.07-.01M5.28-27.93c-1.56-.09-3.12-.2-4.65-.31M15.12-27.61c10.3.1 20.12-.62 26.51-2.45M.06-28.28l.57.04" style="fill:none;stroke:#000;stroke-width:.3"/><path d="M5.28-27.93c3.27.18 6.58.29 9.84.32M21-23.92c-6.99.58-14.2.81-20.94.74M48.43-29.04c-7.07 2.6-17 4.25-27.44 5.12M48.43-29.04h.02M.06-17.86c21.37-1.63 46.96-8.08 54-10.1M46.24-23.4h-.05M46.24-23.4c2.5.11 5.13.2 7.82.22M31.23-19.26l-.04-.01M31.23-19.26c2.7.93 7.1 1.3 9.27 1.49 2.19.18 5.06.29 5.06.29 2.72-.02 5.57-.15 8.5-.38M32.57-3.4c-7.21.27-19.53.21-32.5-1.23M32.57-3.4h.12M15.74-5.83C11.58-5.93 6.5-6.35.06-7.38M24.44-6.02a91.2 91.2 0 0 1-8.7.2M2.9-9.24c-.93-.15-1.87-.31-2.84-.5M19.8-7.77c-3.06.07-9.34-.24-16.9-1.47M19.8-7.77h.01M15.44-9.52c-4.17 0-8-.46-15.38-3.64M17.57-13.29a73.23 73.23 0 0 1-4.63-2.1M17.57-13.29C28.1-8.92 38.81-7.02 38.81-7.02c5 1.05 10.18 1.82 15.25 2.39M20.19-16.65c4.87 2.38 17.25 5.88 17.25 5.88 6.4 1.54 11.88 2.63 16.62 3.4M38.03-13.97l-.08-.02M38.03-13.97l4.4 1.45c3.98 1.18 7.92 2.1 11.63 2.79M52.94-13.65l1.12.5M39.6-2.9l2.46.5.34.13c2.55.3 6.25.65 10.66.94M39.6-2.9A862.3 862.3 0 0 1 23.13-6.6M53.06-1.33l1 .07M36.23-31.15c-5.77 1.12-20 1.56-36.17-.35M.06-27.97l.2-.06.37-.21M.69-28.27l-.06.03M5.28-27.93l-.22.12c-1.09.47-2.8 1.11-5 1.87M5.28-27.93l.16-.09M46.66-54.15c2.29.38 4.63.7 7.01.93M11.9-48.98c0-.92-3-.89-3 .17 0 .83 3 .92 3-.17zM29.78-38.07c-.28.78 2.51 1.88 2.88.85.3-.86-2.53-1.85-2.88-.85zM7.12-25.51c-.02.83 2.98.97 3-.12.02-.91-2.98-.94-3 .12zM33.7-16.43c-.16.82 2.77 1.5 2.98.43.18-.9-2.77-1.46-2.97-.43zM26.08-7.95c-.16.82 2.76 1.5 2.98.43.18-.9-2.77-1.46-2.98-.43z" style="fill:none;stroke:#000;stroke-width:.3"/><path d="M48.6-6.92c.18-.9-2.77-1.46-2.98-.43-.16.82 2.76 1.5 2.98.43zM.5-20.52c.06.83 3.06.71 2.99-.37-.06-.92-3.06-.68-2.98.37zM44.9-31.51c-.28.78 2.52 1.88 2.88.85.31-.86-2.52-1.84-2.88-.85zM42.33-50.52c0 .5 1.8.55 1.8-.1 0-.55-1.8-.53-1.8.1zM33-50.87c0-.55-1.8-.53-1.8.1 0 .5 1.8.55 1.8-.1zM53.06-47.98c0-.55-1.8-.53-1.8.1 0 .5 1.8.55 1.8-.1zM6.69-41.27c0-.55-1.8-.53-1.8.1 0 .5 1.8.55 1.8-.1zM24.81-19.15c0-.55-1.8-.53-1.8.1 0 .5 1.8.55 1.8-.1zM40.93-44.8c.25-.48-1.35-1.3-1.64-.74-.23.45 1.34 1.33 1.64.75zM4.6-16.44c-.05.5 1.74.71 1.8.06.05-.55-1.75-.69-1.8-.06zM2.9-10.88c.05-.55-1.75-.69-1.8-.06-.05.5 1.74.71 1.8.06zM16.56-21.65c.05-.54-1.74-.68-1.8-.06-.04.5 1.75.71 1.8.06zM6.65-5.36c.05-.54-1.75-.68-1.8-.06-.05.5 1.74.71 1.8.06zM17.93-2.2c-.05.5 1.74.7 1.8.05.05-.54-1.75-.69-1.8-.06zM20.06-31.48c.05-.55-1.74-.69-1.8-.06-.04.5 1.75.7 1.8.06zM35.19-33.27c.05-.55-1.75-.69-1.8-.06-.05.5 1.74.7 1.8.06zM3.06-32.81c.05-.55-1.74-.7-1.8-.06-.04.5 1.75.7 1.8.06zM31.36-23.59c.04-.54-1.75-.68-1.8-.05-.05.5 1.74.7 1.8.05zM22.5-46.63c0 .84 3 .92 3-.16 0-.92-3-.9-3 .16zM50.26-38.67c.28-.87-2.59-1.77-2.91-.76-.26.79 2.57 1.8 2.9.76zM11.23-44.48l-2.5-1M30.61-21.48l2.49 1M18.17-29.36l2.5 1M43.77-48.06l2.5 1M23.19-35.27l-1.27-1.9M26.94-25.02l-1.27-1.9M40.06-7.71l-1.27-1.9M41.17-16.42l1.27 1.9M17.56-10.21l-1.27-1.9M5.92-2.98l1.27 1.9M34.67-37.48l1.27 1.89M2.54-25.73l1.27 1.89M27.09-52.71l-2.5-1M2.25-49.02l2.5 1M29.4-48.23l-1.75 1.33M29.31-11.98l-1.75 1.33M50.21-2.58l1.75-1.34M23.4-5.04l-1.75 1.33M42.21-20.54l-1.75 1.33M8.77-28.4l1.75-1.33M13.27-16.84l2.04-.68M21.65-49.02l1.75-1.33M29.61-34.88l-2.17.37M7.63-52.81l-1.75 1.33M11.51-50.7v-3.45M30.78-52.26v-1.89M11.51-.15v-.59M30.78-.15v-.91M15.37-47.35v-3.43M2.3-46.28v4.04M34.87-49.95v2.62M48.22-50.37v4.23M17.59-44.12v2.23M.55-36.23v-3.12M.55-39.37v.02M.55-36.23v.03M25.18-41.61v-.11M25.18-41.61v3.93M31.95-43.35v3.86M31.95-43.35v-.02M41.55-39.72v-.05M41.55-43.03v3.26M36.89-34.53v-3.42M18.41-39.98v-.05M18.41-39.98v4.38M39.53-33.83v-.1M39.53-33.83v3.32M50.47-28.83v-3.04M27.47-33.03v2.7M48.3-24.12v-2.25M36.57-20.74v-2.79M31.12-25.16v-3.04M12.2-27.72v-2.65M7.89-35.12v1.67M15.12-27.61v-.01M15.12-23.58v-4.03M6.37-23.12v4.65M20.99-23.92v3.2M20.99-23.95v.03M9.78-15.06v-3.72M50.2-17.66v-5.54M27.35-18.26v2.79M48.55-13.65v2.68M48.55-13.65v-.05M31.74-12.45v3.75M17.57-13.29v.01M17.57-16.36v.12M17.57-13.29v-2.95M21.68-7.12v-4.56M39.59-2.91v-3.92M39.59-2.91v.04M9.36-12.09v1.97M2.9-9.24v-.02M2.9-9.24v2.21M15.74-5.83v2.3M15.74-5.83v-.07M4.45-1.03v-3.15M25.53-.93V-3.2M42.34-2.28v1.27" style="fill:none;stroke:#000;stroke-width:.3"/><path d="M52.9-51.31h0M15.65-45.65h0M14.44-39.02h0M4.31-37.15h0M13.94-33.77h0M29.19-42.4h0M52.06-35.77h0M39.56-49.65h0M41.06-52.65h0M42.06-35.31h0M45.06-43.48h0M36.94-43.52h0M51.19-44.52h0M20.56-52.81h0M11.31-20.9h0M4.94-29.65h0M26.94-29.15h0M37.94-27.65h0M46.94-12.65h0M38.19-12.27h0M30.56-16.77h0M19.69-18.52h0M45.19-20.77h0M52.19-8.9h0M50.56-15.9h0M42.19-4.02h0M1.81-16.52h0M20.94-25.77h0M34.94-22.02h0M31.94-6.4h0M22.56-13.65h0M12.19-12.65h0M6.94-9.65h0M1.69-5.65h0M11.69-2.4h0M32.19-2.4h0" style="fill:none;stroke:#000;stroke-width:.7;stroke-linecap:round"/></svg>