<svg xmlns="http://www.w3.org/2000/svg" xml:space="preserve" width="54.13" height="54.13" viewBox="0.14 -54.13 54.13 54.13"><path d="M.14-54.13h54.13V0H.14z" style="fill:none"/><path d="M27.62-50.38h-8.8M12.74-50.38h6.08M54.07-50.38h.2M.14-50.38h5.93M12.74-50.38H6.07M54.07-50.38h-7.38M32.32-50.38h8.92M46.69-50.38h-5.45M32.32-50.38h-4.7M54.27-46.2H.14M.14-42.01h11.91M53.55-42.01h.72M26.93-42.01H12.05M26.93-42.01H40.3M40.3-42.01h13.25M33.9-12.4h14.88M20.28-12.4H33.9M7.03-12.4H.14M7.03-12.4h13.25M48.78-12.4h5.49M26.55-8.63h13.88M40.43-8.63h13.45M26.55-8.63H12M12-8.63H.14M53.88-8.63h.39M46.69-37.99h7.58M46.69-37.99H32.07M18.82-37.99h13.25M6.07-37.99H.14M18.82-37.99H6.07M12.62-34.71H.14M54.12-34.71h.15M27.62-34.71h-15M41.37-34.71h12.75M41.37-34.71H27.62M54.27-31.29H48.8M20.3-31.29H6.8M33.93-31.29H20.3M48.8-31.29H33.93M6.8-31.29H.14M.14-27.24h54.13M.14-23.44h54.13M.14-19.24h54.13M.14-16.01h54.13M.14-.84h5.93M6.07-.84h4.37M54.27-.84h-2.39M38.5-.84h8.19M18.82-.84h-8.38M46.69-.84h5.19M38.5-.84h-6.18M24.88-.84h7.44M18.82-.84h6.06M6.07-54.13v3.75M18.82-54.13v3.75M32.32-50.38v-3.75M46.69-54.13v3.75M6.07-.85v.01M6.07 0v-.84M18.82-.84v-.01M18.82-.84V0M32.32-.85v.01M32.32 0v-.84M46.69-.85v.01M46.69 0v-.84M12.74-50.38v4.17M12.74-50.38v-.06M27.62-50.44v.06M27.62-50.38v4.17M41.24-46.21v-4.17M41.24-50.44v.06M54.07-50.38v-.06M54.07-50.38v4.17M7.18-42.02v-4.06M20.43-42.02v-4.06M33.99-42.02v-4.06M48.93-42.02v-4.06M40.3-42.01v-.01M40.3-38.02v-3.99M26.93-42.01v-.01M26.93-42.01v3.99M12.05-38.02v-3.99M12.05-42.01v-.01M53.55-42.01v-.01M53.55-38.02v-3.99M46.69-37.99v3.26M46.69-37.99v-.03M32.07-37.99v-.03M32.07-37.99v3.26M18.82-37.99v3.26M18.82-37.99v-.03M6.07-37.99v3.26M6.07-37.99v-.03M12.62-34.71v3.41M12.62-34.71v-.02M27.62-34.71v3.41M27.62-34.73v.02M41.37-34.71v-.02M41.37-34.71v3.41M54.12-34.71v-.02M54.12-34.71v3.41M6.8-31.29v4.04M6.8-31.3v.01M20.3-31.29v4.04M20.3-31.3v.01M33.93-31.3v.01M33.93-31.29v4.04M48.8-31.3v.01M48.8-31.29v4.04M40.18-27.19v3.74M26.86-27.19v3.74M11.86-27.19v3.74M53.41-23.45v-3.74M5.67-23.39v4.14M18.67-23.39v4.14M32.29-23.39v4.14M46.54-23.39v4.14M42.34-19.19v3.17M28.19-19.19v3.17M13.07-19.19v3.17M.65-19.19v3.17M7.03-12.4v-3.56M20.28-12.4v-3.56M33.9-12.4v-3.56M48.78-12.4v-3.56M40.43-8.63v-3.72M40.43-8.63v.04M26.55-8.63v-3.72M26.55-8.63v.04M12-8.63v.04M12-12.35v3.72M53.88-8.63v.04M53.88-8.63v-3.72M54.27-4.21h-2.39M38.5-4.21H24.88M38.5-4.21h13.38M24.88-4.21H10.44M.14-4.21h10.3M10.44-4.21v3.37M10.44-.78v-.06M10.44-4.24v.03M24.88-4.21v-.03M24.88-4.21v3.37M24.88-.78v-.06M38.5-4.21v-.03M38.5-.84v-3.37M38.5-.84v.06M51.88-4.24v.03M51.88-4.21v3.37M51.88-.78v-.06M4.71-8.59v4.35M17.71-8.59v4.35M31.71-8.59v4.35M46.28-8.59v4.35M.14-51.56a.95.95 0 0 0 0-1.79" style="fill:none;stroke:#000;stroke-width:.3"/><circle cx="12.48" cy="-52.45" r=".95" style="fill:none;stroke:#000;stroke-width:.3"/><circle cx="25.61" cy="-52.45" r=".95" style="fill:none;stroke:#000;stroke-width:.3"/><circle cx="39.86" cy="-52.45" r=".95" style="fill:none;stroke:#000;stroke-width:.3"/><circle cx="6.23" cy="-48.27" r=".95" style="fill:none;stroke:#000;stroke-width:.3"/><circle cx="20.61" cy="-48.27" r=".95" style="fill:none;stroke:#000;stroke-width:.3"/><circle cx="34.36" cy="-48.27" r=".95" style="fill:none;stroke:#000;stroke-width:.3"/><circle cx="47.98" cy="-48.27" r=".95" style="fill:none;stroke:#000;stroke-width:.3"/><circle cx="1.38" cy="-44.08" r=".95" style="fill:none;stroke:#000;stroke-width:.3"/><circle cx="13.73" cy="-44.08" r=".95" style="fill:none;stroke:#000;stroke-width:.3"/><circle cx="27.48" cy="-44.08" r=".95" style="fill:none;stroke:#000;stroke-width:.3"/><circle cx="41.61" cy="-44.08" r=".95" style="fill:none;stroke:#000;stroke-width:.3"/><circle cx="5.73" cy="-40" r=".95" style="fill:none;stroke:#000;stroke-width:.3"/><circle cx="19.48" cy="-40" r=".95" style="fill:none;stroke:#000;stroke-width:.3"/><circle cx="33.98" cy="-40" r=".95" style="fill:none;stroke:#000;stroke-width:.3"/><circle cx="47.23" cy="-40" r=".95" style="fill:none;stroke:#000;stroke-width:.3"/><path d="M.14-35.4a.95.95 0 0 0 0-1.9" style="fill:none;stroke:#000;stroke-width:.3"/><circle cx="12.48" cy="-36.35" r=".95" style="fill:none;stroke:#000;stroke-width:.3"/><circle cx="25.48" cy="-36.35" r=".95" style="fill:none;stroke:#000;stroke-width:.3"/><circle cx="39.73" cy="-36.35" r=".95" style="fill:none;stroke:#000;stroke-width:.3"/><circle cx="6.23" cy="-32.98" r=".95" style="fill:none;stroke:#000;stroke-width:.3"/><path d="M.14-29.75a.96.96 0 1 1 0 1" style="fill:none;stroke:#000;stroke-width:.3"/><circle cx="13.73" cy="-29.25" r=".95" style="fill:none;stroke:#000;stroke-width:.3"/><circle cx="27.48" cy="-29.25" r=".95" style="fill:none;stroke:#000;stroke-width:.3"/><circle cx="41.36" cy="-29.25" r=".95" style="fill:none;stroke:#000;stroke-width:.3"/><circle cx="5.48" cy="-25.25" r=".95" style="fill:none;stroke:#000;stroke-width:.3"/><circle cx="19.11" cy="-25.25" r=".95" style="fill:none;stroke:#000;stroke-width:.3"/><circle cx="33.73" cy="-25.25" r=".95" style="fill:none;stroke:#000;stroke-width:.3"/><circle cx="46.86" cy="-25.25" r=".95" style="fill:none;stroke:#000;stroke-width:.3"/><path d="M.14-20.84a.95.95 0 0 0 0-1.08" style="fill:none;stroke:#000;stroke-width:.3"/><circle cx="12.23" cy="-21.38" r=".95" style="fill:none;stroke:#000;stroke-width:.3"/><circle cx="25.48" cy="-21.38" r=".95" style="fill:none;stroke:#000;stroke-width:.3"/><circle cx="39.61" cy="-21.38" r=".95" style="fill:none;stroke:#000;stroke-width:.3"/><circle cx="6.86" cy="-17.63" r=".95" style="fill:none;stroke:#000;stroke-width:.3"/><circle cx="20.61" cy="-17.63" r=".95" style="fill:none;stroke:#000;stroke-width:.3"/><circle cx="34.98" cy="-17.63" r=".95" style="fill:none;stroke:#000;stroke-width:.3"/><circle cx="49.23" cy="-17.63" r=".95" style="fill:none;stroke:#000;stroke-width:.3"/><circle cx="1.31" cy="-14.25" r=".95" style="fill:none;stroke:#000;stroke-width:.3"/><circle cx="13.73" cy="-14.25" r=".95" style="fill:none;stroke:#000;stroke-width:.3"/><circle cx="27.23" cy="-14.25" r=".95" style="fill:none;stroke:#000;stroke-width:.3"/><circle cx="41.61" cy="-14.25" r=".95" style="fill:none;stroke:#000;stroke-width:.3"/><circle cx="5.61" cy="-10.38" r=".95" style="fill:none;stroke:#000;stroke-width:.3"/><circle cx="19.73" cy="-10.38" r=".95" style="fill:none;stroke:#000;stroke-width:.3"/><circle cx="33.86" cy="-10.38" r=".95" style="fill:none;stroke:#000;stroke-width:.3"/><circle cx="47.48" cy="-10.38" r=".95" style="fill:none;stroke:#000;stroke-width:.3"/><circle cx="53.08" cy="-6.25" r=".95" style="fill:none;stroke:#000;stroke-width:.3"/><circle cx="11.36" cy="-6.25" r=".95" style="fill:none;stroke:#000;stroke-width:.3"/><circle cx="24.73" cy="-6.25" r=".95" style="fill:none;stroke:#000;stroke-width:.3"/><circle cx="39.23" cy="-6.25" r=".95" style="fill:none;stroke:#000;stroke-width:.3"/><circle cx="4.73" cy="-2.43" r=".95" style="fill:none;stroke:#000;stroke-width:.3"/><circle cx="17.73" cy="-2.43" r=".95" style="fill:none;stroke:#000;stroke-width:.3"/><circle cx="31.73" cy="-2.43" r=".95" style="fill:none;stroke:#000;stroke-width:.3"/><circle cx="45.73" cy="-2.43" r=".95" style="fill:none;stroke:#000;stroke-width:.3"/><circle cx="20.36" cy="-32.98" r=".95" style="fill:none;stroke:#000;stroke-width:.3"/><circle cx="34.86" cy="-32.98" r=".95" style="fill:none;stroke:#000;stroke-width:.3"/><circle cx="47.98" cy="-32.98" r=".95" style="fill:none;stroke:#000;stroke-width:.3"/><path d="M54.27-53.34a.96.96 0 0 0-1.3.89.95.95 0 0 0 1.3.9M54.27-37.3h-.04a.95.95 0 1 0 0 1.9h.04M54.27-29.75a.95.95 0 0 0 0 1M54.27-21.92a.95.95 0 1 0 0 1.08" style="fill:none;stroke:#000;stroke-width:.3"/></svg>