<svg xmlns="http://www.w3.org/2000/svg" xml:space="preserve" width="54.13" height="54.13" viewBox="1.82 -55.73 54.13 54.13"><path d="M1.82-55.73h54.13V-1.6H1.82z" style="fill:none"/><path d="M1.82-51.98h54.12M1.82-47.8h54.12M1.82-43.61h54.12M1.82-14H56M1.82-10.22h54.12M1.82-39.59h54.12M1.82-36.31h54.12M1.82-32.89h54.12M1.82-28.84h54.12M1.82-25.04h54.12M1.82-20.84H56M1.82-17.61h54.12M1.82-2.44h54.12M7.74-55.73v3.75M20.49-55.73v3.75M33.99-55.73v3.75M48.37-55.73v3.75M7.74-2.45v.85M20.49-2.45v.85M33.99-2.45v.85M48.37-2.45v.85M14.42-52.04v4.23M29.29-52.04v4.23M42.92-52.04v4.23M55.74-52.04v4.23M8.85-47.67v4.04M22.1-47.67v4.04M35.67-47.67v4.04M50.6-47.67v4.04M41.98-43.63v4M28.6-43.63v4M13.73-43.63v4M55.23-43.63v4M48.37-39.63v3.3M33.74-39.63v3.3M20.49-39.63v3.3M7.74-39.63v3.3M14.29-36.33v3.43M29.29-36.33v3.43M43.04-36.33v3.43M55.79-36.33v3.43M8.48-32.9v4.05M21.98-32.9v4.05M35.6-32.9v4.05M50.48-32.9v4.05M41.85-28.79v3.74M28.53-28.79v3.74M13.53-28.79v3.74M55.08-28.79v3.74M7.34-24.99v4.14M20.34-24.99v4.14M33.97-24.99v4.14M48.22-24.99v4.14M44.02-20.79v3.16M29.87-20.79v3.16M14.74-20.79v3.16M2.33-20.79v3.16M8.7-17.56V-14M21.95-17.56V-14M35.58-17.56V-14M50.45-17.56V-14M42.1-13.95v3.76M28.23-13.95v3.76M13.68-13.95v3.76M55.55-13.95v3.76M1.82-5.81h54.12M12.11-5.84v3.46M26.55-5.84v3.46M40.17-5.84v3.46M53.55-5.84v3.46M6.39-10.19v4.35M19.39-10.19v4.35M33.39-10.19v4.35M47.95-10.19v4.35" style="fill:none;stroke:#000;stroke-width:.3"/><path d="M9.15-54.89h0M11.57-53.06h0M15.07-54.98h0M18.48-53.14h0M22.07-54.64h0M24.48-53.06h0M27.9-54.73h0M31.48-52.81h0M19.19-49.1h0M16.07-50.64h0M11.82-48.81h0M9.15-50.73h0M6.07-49.1h0M3.23-50.73h0M5.32-52.73h0M2.65-54.73h0M22.57-50.73h0M27.07-49.1h0M31.15-50.81h0M33.82-48.98h0M37.94-50.35h0M40.98-48.81h0M44.69-50.48h0M47.94-49.1h0M50.94-50.73h0M54.32-49.23h0M52.23-46.73h0M54.98-44.73h0M3.48-46.98h0M6.4-44.64h0M10.57-46.73h0M14.19-44.85h0M17.69-46.6h0M20.15-44.56h0M23.98-46.89h0M26.94-45.1h0M30.07-46.89h0M33.07-45.23h0M36.94-46.48h0M40.44-44.98h0M44.07-46.6h0M48.07-44.85h0M6.19-40.85h0M3.19-42.1h0M9.44-42.23h0M11.9-40.64h0M15.32-42.23h0M18.57-40.85h0M22.32-42.64h0M25.23-40.64h0M30.07-42.35h0M33.07-40.98h0M36.73-42.64h0M39.82-40.98h0M43.9-42.56h0M46.94-40.98h0M50.15-42.56h0M53.69-40.85h0M50.82-38.6h0M46.65-37.23h0M41.57-38.48h0M36.69-38.1h0M31.44-38.35h0M26.94-37.73h0M22.4-38.56h0M18.44-37.48h0M14.07-38.23h0M10.07-37.6h0M5.57-37.85h0M54.69-37.48h0M2.44-35.35h0M7.15-35.06h0M12.07-33.98h0M16.48-34.73h0M21.48-34.06h0M25.98-35.06h0M32.15-34.89h0M36.48-35.23h0M40.65-34.39h0M44.98-34.73h0M49.15-35.06h0M53.82-34.73h0M51.57-31.89h0M54.57-29.98h0M48.73-29.89h0M43.57-27.89h0M46.32-26.06h0M49.73-27.89h0M52.9-26.14h0M49.65-23.98h0M52.69-22.35h0M46.32-22.23h0M43.07-23.98h0M3.15-11.72h0M8.32-12.56h0M11.9-11.14h0M15.4-13.14h0M18.4-11.22h0M22.4-13.06h0M25.69-11.47h0M30.15-13.06h0M32.57-11.47h0M37.07-13.22h0M39.94-11.6h0M44.07-13.14h0M47.07-11.35h0M50.65-13.14h0M53.73-11.22h0M4.19-7.22h0M8.32-9.22h0M11.19-7.22h0M14.48-9.47h0M17.23-6.97h0M21.07-9.31h0M23.94-7.1h0M27.9-9.22h0M31.32-7.1h0M35.4-9.14h0M38.57-7.1h0M42.48-9.14h0M46.07-7.35h0M50.15-9.14h0M53.23-6.81h0M54.57-4.85h0M2.94-3.6h0M7.23-5.06h0M10.32-3.89h0M14.32-4.56h0M19.98-4.56h0M24.82-3.73h0M27.94-4.72h0M31.32-3.48h0M35.07-4.85h0M38.32-3.6h0M42.19-4.85h0M46.48-3.89h0M50.82-4.22h0M46.69-19.1h0M50.57-19.73h0M54.44-19.1h0M41.69-19.1h0M36.82-19.85h0M31.82-19.1h0M31.57-22.23h0M25.07-22.1h0M28.32-23.89h0M22.23-23.89h0M18.44-22.23h0M15.4-23.89h0M12.4-21.81h0M9.23-23.89h0M5.23-22.06h0M2.4-24.06h0M3.69-19.1h0M7.82-19.73h0M7.32-15.39h0M4.07-16.48h0M51.73-16.31h0M48.57-15.35h0M42.65-15.72h0M37.19-16.6h0M32.82-15.39h0M28.15-15.56h0M23.82-16.73h0M19.69-15.35h0M15.32-16.23h0M10.32-15.89h0M55.19-15.6h0M12.32-18.6h0M17.57-18.98h0M21.94-19.23h0M27.19-19.73h0M36.23-23.81h0M39.32-21.89h0M45.32-31.64h0M37.23-31.56h0M41.73-30.14h0M33.07-29.98h0M30.48-31.56h0M26.69-30.1h0M23.9-31.56h0M20.32-30.23h0M17.73-31.81h0M14.15-29.89h0M10.32-31.48h0M6.57-29.98h0M3.19-31.6h0M2.69-27.73h0M5.32-25.64h0M8.48-27.64h0M11.65-25.98h0M15.48-27.89h0M18.48-25.98h0M22.07-27.81h0M25.73-25.98h0M30.23-27.64h0M33.57-25.89h0M37.73-27.73h0M40.15-25.98h0M36.4-55.06h0M39.73-52.64h0M42.98-54.73h0M46.23-52.81h0M49.98-55.06h0M53.15-52.81h0" style="fill:none;stroke:#000;stroke-width:.7;stroke-linecap:round"/></svg>