<svg xmlns="http://www.w3.org/2000/svg" xml:space="preserve" width="54.24" height="54.13" viewBox="1.6 -55.73 54.24 54.13"><path d="M1.6-55.73h54.24V-1.6H1.6z" style="fill:none"/><path d="M1.65-51.98h54.13M1.65-47.8h54.13M1.65-43.61h54.13M1.65-14h54.19M1.65-10.22h54.13M1.65-39.59h54.13M1.65-36.31h54.13M1.65-32.89h54.13M1.65-28.84h54.13M1.65-25.04h54.13M1.65-20.84h54.19M1.65-17.61h54.13M1.65-2.44h54.13M7.58-55.73v3.75M20.33-55.73v3.75M33.83-55.73v3.75M48.2-55.73v3.75M7.58-2.45v.85M20.33-2.45v.85M33.83-2.45v.85M48.2-2.45v.85M14.25-52.04v4.23M29.13-52.04v4.23M42.75-52.04v4.23M55.58-52.04v4.23M8.69-47.67v4.04M21.94-47.67v4.04M35.5-47.67v4.04M50.44-47.67v4.04M41.82-43.63v4M28.44-43.63v4M13.57-43.63v4M55.07-43.63v4M48.2-39.63v3.3M33.58-39.63v3.3M20.33-39.63v3.3M7.58-39.63v3.3M14.13-36.33v3.43M29.13-36.33v3.43M42.88-36.33v3.43M55.63-36.33v3.43M8.32-32.9v4.05M21.82-32.9v4.05M35.44-32.9v4.05M50.32-32.9v4.05M41.69-28.79v3.74M28.37-28.79v3.74M13.37-28.79v3.74M54.92-28.79v3.74M7.18-24.99v4.14M20.18-24.99v4.14M33.8-24.99v4.14M48.05-24.99v4.14M43.85-20.79v3.16M29.7-20.79v3.16M14.58-20.79v3.16M2.16-20.79v3.16M8.54-17.56V-14M21.79-17.56V-14M35.41-17.56V-14M50.29-17.56V-14M41.94-13.95v3.76M28.06-13.95v3.76M13.51-13.95v3.76M55.39-13.95v3.76M1.65-5.81h54.13M11.95-5.84v3.46M26.39-5.84v3.46M40.01-5.84v3.46M53.39-5.84v3.46M6.22-10.19v4.35M19.23-10.19v4.35M33.23-10.19v4.35M47.79-10.19v4.35M10.41-54.07h7.25M37.54-54.07h7.25M17.91-49.8h7.25M45.66-49.8h7.25M25.16-45.74h7.25M1.6-45.74h4.49M31.84-41.49h7.25M3.46-41.49h7.25M37.09-37.99h7.25M45.84-34.62h7.25M52.96-30.74h2.79M44.84-26.99h7.25M37.46-22.99h7.25M33.34-19.24h7.25M25.21-15.74h7.25M17.09-12.12h7.25M8.96-7.74h7.25M1.84-4.07h7.25M10.21-37.88h7.25M17.59-34.63h7.25M24.96-30.88h7.25M17.46-26.88h7.25M10.09-22.88h7.25M4.84-19.13h7.25M1.6-15.63h3.86M45.34-12h7.25M36.96-7.88h7.25M29.59-4.13h7.25M52.91-45.74h2.82M52.91-15.63h2.82M1.66-30.74h2.63" style="fill:none;stroke:#000;stroke-width:.3"/></svg>