<svg xmlns="http://www.w3.org/2000/svg" xml:space="preserve" width="54.13" height="54.13" viewBox="0.06 -54.13 54.13 54.13"><path d="M.06-54.13h54.13V0H.06z" style="fill:none"/><path d="M32.23-50.38h8.93M32.23-50.38h-4.7M46.61-50.38h-5.45M53.98-50.38h-7.37M53.98-50.38h.2M12.66-50.38H5.98M12.66-50.38h6.07M27.53-50.38h-8.8M.06-50.38h5.92M54.18-46.2H.06M11.97-42.01h14.87M53.47-42.01h.71M53.47-42.01H40.22M11.97-42.01H.06M26.84-42.01h13.38M48.69-12.4h5.49M20.19-12.4h13.63M20.19-12.4H6.94M48.69-12.4H33.82M6.94-12.4H.06M53.79-8.63h.39M26.47-8.63h13.87M.06-8.63h11.86M26.47-8.63H11.92M53.79-8.63H40.34M31.98-37.99H18.73M46.61-37.99h7.57M31.98-37.99h14.63M18.73-37.99H5.98M.06-37.99h5.92M54.03-34.71h.15M54.03-34.71H41.28M12.53-34.71H.06M27.53-34.71h13.75M12.53-34.71h15M48.72-31.29h5.46M20.22-31.29H6.72M6.72-31.29H.06M33.84-31.29H20.22M48.72-31.29H33.84M.06-27.24h54.12M.06-23.44h54.12M.06-19.24h54.12M.06-16.01h54.12M18.73-.84h-8.38M32.23-.84h6.19M18.73-.84h6.06M5.98-.84h4.37M.06-.84h5.92M46.61-.84h-8.19M24.79-.84h7.44M51.79-.84h-5.18M51.79-.84h2.39M5.98-54.13v3.75M18.73-54.13v3.75M32.23-50.38v-3.75M46.61-54.13v3.75M5.98 0v-.84M5.98-.85v.01M18.73-.84v-.01M18.73-.84V0M32.23-.85v.01M32.23 0v-.84M46.61 0v-.84M46.61-.85v.01M12.66-50.38v-.06M12.66-50.38v4.17M27.53-50.38v4.17M27.53-50.44v.06M41.16-50.44v.06M41.16-46.21v-4.17M53.98-50.38v4.17M53.98-50.38v-.06M7.09-42.02v-4.06M20.34-42.02v-4.06M33.91-42.02v-4.06M48.84-42.02v-4.06M40.22-38.02v-3.99M40.22-42.02v.01M26.84-42.01v-.01M26.84-38.02v-3.99M11.97-42.01v3.99M11.97-42.01v-.01M53.47-42.01v3.99M53.47-42.01v-.01M46.61-37.99v-.03M46.61-37.99v3.26M31.98-37.99v-.03M31.98-37.99v3.26M18.73-37.99v-.03M18.73-37.99v3.26M5.98-38.02v.03M5.98-34.73v-3.26M12.53-34.71v-.02M12.53-34.71v3.41M27.53-34.71v-.02M27.53-34.71v3.41M41.28-34.73v.02M41.28-34.71v3.41M54.03-34.71v-.02M54.03-34.71v3.41M6.72-31.29v4.04M6.72-31.3v.01M20.22-31.29v4.04M20.22-31.3v.01M33.84-31.29v4.04M33.84-31.3v.01M48.72-31.29v-.01M48.72-31.29v4.04M40.09-27.19v3.74M26.77-27.19v3.74M11.77-27.19v3.74M53.33-23.45v-3.74M5.58-23.39v4.14M18.58-23.39v4.14M32.21-23.39v4.14M46.46-23.39v4.14M42.26-16.02v-3.17M28.11-19.19v3.17M12.98-19.19v3.17M.57-19.19v3.17M6.94-15.96v3.56M20.19-12.4v-3.56M33.82-15.96v3.56M48.69-12.4v-3.56M40.34-8.59v-.04M40.34-12.35v3.72M26.47-12.35v3.72M26.47-8.63v.04M11.92-8.63v.04M11.92-8.63v-3.72M53.79-8.63v-3.72M53.79-8.63v.04M24.79-4.21h13.63M24.79-4.21H10.35M51.79-4.21H38.42M51.79-4.21h2.39M.06-4.21h10.29M10.35-4.21v3.37M10.35-4.24v.03M10.35-.78v-.06M24.79-4.21v-.03M24.79-.78v-.06M24.79-4.21v3.37M38.42-4.24v.03M38.42-4.21v3.37M38.42-.78v-.06M51.79-4.21v3.37M51.79-4.21v-.03M51.79-.84v.06M4.63-8.59v4.35M17.63-8.59v4.35M31.63-8.59v4.35M46.19-8.59v4.35M.06-43.28c.31.05.66.07 1.03.07 1.31 0 2.38-.35 2.38-.79 0-.44-1.06-.8-2.38-.8-.37 0-.72.03-1.03.08" style="fill:none;stroke:#000;stroke-width:.3"/><ellipse cx="20.77" cy="-48.15" rx="2.38" ry=".79" style="fill:none;stroke:#000;stroke-width:.3"/><ellipse cx="39.77" cy="-52.15" rx="2.38" ry=".79" style="fill:none;stroke:#000;stroke-width:.3"/><ellipse cx="18.49" cy="-39.88" rx="2.38" ry=".79" style="fill:none;stroke:#000;stroke-width:.3"/><ellipse cx="39.22" cy="-36.23" rx="2.38" ry=".79" style="fill:none;stroke:#000;stroke-width:.3"/><ellipse cx="5.71" cy="-33" rx="2.38" ry=".79" style="fill:none;stroke:#000;stroke-width:.3"/><ellipse cx="26.84" cy="-29.13" rx="2.38" ry=".79" style="fill:none;stroke:#000;stroke-width:.3"/><ellipse cx="46.34" cy="-25.25" rx="2.38" ry=".79" style="fill:none;stroke:#000;stroke-width:.3"/><ellipse cx="11.96" cy="-21.13" rx="2.38" ry=".79" style="fill:none;stroke:#000;stroke-width:.3"/><ellipse cx="34.72" cy="-17.63" rx="2.38" ry=".79" style="fill:none;stroke:#000;stroke-width:.3"/><ellipse cx="19.59" cy="-10.38" rx="2.38" ry=".79" style="fill:none;stroke:#000;stroke-width:.3"/><path d="M.06-13.51c.4-.15.66-.34.66-.55 0-.22-.25-.4-.66-.55" style="fill:none;stroke:#000;stroke-width:.3"/><ellipse cx="38.84" cy="-6.25" rx="2.38" ry=".79" style="fill:none;stroke:#000;stroke-width:.3"/><ellipse cx="16.77" cy="-2.65" rx="2.38" ry=".79" style="fill:none;stroke:#000;stroke-width:.3"/><path d="M54.18-44.72c-.8.13-1.35.4-1.35.72 0 .32.55.59 1.35.72M54.18-14.61a5.5 5.5 0 0 0-1.72-.25c-1.31 0-2.38.36-2.38.8 0 .44 1.07.8 2.38.8.68 0 1.29-.1 1.72-.25" style="fill:none;stroke:#000;stroke-width:.3"/></svg>