<svg xmlns="http://www.w3.org/2000/svg" xml:space="preserve" width="54.13" height="54.13" viewBox="0 -54.2 54.13 54.13"><path d="M0-54.2h54.13V-.07H0z" style="fill:none"/><path d="M30.77-50.45h-2.42M42.02-50.45H30.77M42.02-50.45h3.13M17.34-50.45h11.01M54.13-50.45h-8.98M4.59-50.45h12.75M4.59-50.45H0M34.78-46.28H7.97M54.13-46.28H34.78M7.97-46.28H0M27.53-42.09H12.72M27.53-42.09h13.44M40.97-42.09h12.81M53.78-42.09h.35M12.72-42.09H0M12.6-12.48h14.5M41.1-12.48h12.58M53.68-12.48h.45M12.6-12.48H0M27.1-12.48h14M5.46-8.7h4.83M10.29-8.7h8.17M32.46-8.7h-7.67M18.46-8.7h6.33M51.23-8.7h2.9M5.46-8.7H0M51.23-8.7h-4.17M47.06-8.7h-8.27M32.46-8.7h6.33M6.62-38.07H0M6.62-38.07h12.69M47.25-38.07h6.88M32.62-38.07H19.31M47.25-38.07H32.62M28.04-34.79h-15M28.04-34.79h13.81M53.91-34.79h.22M53.91-34.79H41.85M13.04-34.79H0M51.71-31.36h2.42M7.48-31.36H0M34.61-31.36h14.94M34.61-31.36H20.92M51.71-31.36h-2.16M7.48-31.36h13.44M27.49-27.32h-15M40.87-27.32H27.49M12.49-27.32H0M54.05-27.32h.08M54.05-27.32H40.87M54.13-23.51H0M54.13-19.32H0M51.82-16.09H0M51.82-16.09h2.31M9.02-.91H0M50.39-.91h3.74M9.02-.91h14.31M23.33-.91h13.69M37.02-.91h13.37M54.13-4.29H0M5.46-8.7l.04-.07M5.46-8.7 2.87-4.31M15.87-4.31l2.59-4.39M18.46-8.7l.04-.07M32.46-8.7l.04-.07M32.46-8.7l-2.59 4.39M47.06-8.7l-2.63 4.39M50.39-.91l2.05-3.35M50.39-.91l-.01.02M37.02-.91l2.04-3.35M37.02-.91 37-.89M23.33-.91l-.02.02M23.33-.91l2.05-3.35M9.02-.91 9-.89M9.02-.91l2.04-3.35M53.68-12.48l.02-.02M51.23-8.7l-.04.06M51.23-8.7l2.45-3.78M47.31-12.52l2.13-3.56M44.81-19.39l2.57-4.06M51.82-16.09l-.01.01M51.82-16.09l2.04-3.2M54.05-27.32l-2.24 3.74M54.06-27.33l-.01.01M49.55-31.36l.01-.03M49.55-31.36l-2.42 4.03M53.91-34.79l.02-.02M51.71-31.36l2.2-3.43M51.71-31.36l-.02.03M47.25-38.07l-2 3.24M47.25-38.07v-.01M51.36-38.08l2.42-4.01M53.78-42.09l.03-.05M46.19-42.14l2.65-4.11M53.9-50.44l-2.61 4.11M45.15-50.45l2.28-3.75M45.15-50.45l-.01.01M41.1-12.48l.03-.04M38.79-8.7l2.31-3.78M38.75-8.64l.04-.06M27.1-12.48l.03-.04M24.75-8.64l.04-.06M24.79-8.7l2.31-3.78M12.6-12.48l.03-.04M12.6-12.48 10.29-8.7M10.25-8.64l.04-.06M32.44-12.52l2.12-3.56M18.75-12.52l2.13-3.56M5.5-12.52l2.13-3.56M40-16.14l1.94-3.13M25.75-16.14l1.94-3.13M10.69-16.14l1.94-3.13M30.5-19.39l2.56-4.06M16.88-19.39l2.56-4.06M3.88-19.39l2.56-4.06M40.87-27.32l-2.24 3.74M40.88-27.33l-.01.01M27.5-27.33l-.01.01M27.49-27.32l-2.24 3.74M12.49-27.32l-2.24 3.74M12.49-27.32l.01-.01M34.61-31.36l.02-.03M34.61-31.36l-2.42 4.03M18.5-27.33l2.42-4.03M20.94-31.39l-.02.03M7.48-31.36l-2.42 4.03M7.48-31.36l.02-.03M41.88-34.83l-.03.04M39.88-31.39l1.97-3.4M28.04-34.79l-1.98 3.4M28.04-34.79l.02-.04M13.04-34.79l-1.98 3.4M13.04-34.79l.02-.04M32.62-38.07l.01-.01M32.62-38.07l-1.99 3.24M17.31-34.83l2-3.24M19.31-38.08v.01M6.62-38.07l-1.99 3.24M6.62-38.07l.01-.01M40.97-42.09l.03-.05M38.56-38.08l2.41-4.01M27.53-42.09l.03-.05M27.53-42.09l-2.4 4.01M12.72-42.09l-2.41 4.01M12.72-42.09l.03-.05M34.78-46.28l.03-.05M34.78-46.28l-2.53 4.14M18.63-42.14l2.5-4.13M7.97-46.28l.03-.05M7.97-46.28l-2.53 4.14M42.02-50.45l-2.52 4.12M42.02-50.45l.02-.04M25.81-46.33l2.54-4.12M28.38-50.49l-.03.04M13.46-50.41l-2.52 4.08M30.77-50.44v-.01M30.77-50.45l2.29-3.75M17.34-50.45l2.28-3.75M17.33-50.44l.01-.01M4.59-50.45l-.01.01M6.87-54.2l-2.28 3.75M47.88-.83l-.46.75M33.5-.83l-.45.75M20.06-.83l-.45.75M7.31-.83l-.45.75" style="fill:none;stroke:#000;stroke-width:.3"/></svg>