<svg xmlns="http://www.w3.org/2000/svg" xml:space="preserve" width="54" height="54" viewBox="0.06 -54.15 54 54"><path d="M.06-54.15h54v54h-54z" style="fill:none"/><path d="M5.23-39.65c4.1-.49 10.13-1.62 16.87-3.23M38.4-47.42a219.4 219.4 0 0 1-9.56 2.82M54.06-53.4a108.5 108.5 0 0 1-7.1 2.99M38.4-47.42c2.92-.94 5.8-1.94 8.56-2.99M22.1-42.88c2.19-.53 4.45-1.1 6.74-1.72M.06-53.4l1.61-.75M3.74-1.06l.07-.04M3.74-1.06l-1.96.91M41.47-1.14c1 .22 2 .42 3.01.61M44.48-.53l2.18.38M19.8-7.77c-3.7-1.45-7.1-2.9-10.13-4.23M32.57-3.4c2.85.84 5.82 1.6 8.9 2.26M19.8-7.77C23.72-6.25 28-4.73 32.57-3.4M9.67-12l-5.12-2.25M4.55-14.25l-.15-.07M29.01-18.71c-2.28.54-4.6 1.07-6.94 1.57M4.55-14.25a169.2 169.2 0 0 0 13.75-2.13M46.24-23.4c3-.92 5.65-1.78 7.82-2.54M18.3-16.38c1.26-.24 2.52-.5 3.77-.77M29.01-18.71l2.22-.55M4.55-14.25c-1.52.17-3.02.3-4.49.4M31.23-19.26a303.6 303.6 0 0 0 15.01-4.15M54.06-41.35l-1.3-.46M38.4-47.42c2.95 1.28 7.96 3.32 14.35 5.6M38.4-47.42l-.15-.06M37.99-13.97c-4.15-.3-11.52-1.04-15.92-3.17M22.07-17.14l-.01-.01M37.99-13.97c1.04.08 1.87.12 2.4.16 2.67.16 7.7.16 7.7.16 1.9.02 3.9-.05 5.97-.2" style="fill:none;stroke:#000;stroke-width:.3"/><path d="M19.83-35.12c-7.3-2.02-14.04-4.2-19.77-6.22M19.83-35.12c8.95 2.48 18.75 4.7 28.6 6.08M48.43-29.04c1.88.26 3.76.5 5.63.7M.06-41.94c7.5-.73 22.25-2.55 34.68-5.28M34.74-47.23c4.23-.92 8.18-1.96 11.49-3.09M37.85-50.56c-10.32 2.2-22.03 3.33-31.56 3.94M.06-46.28c1.93-.09 4.02-.2 6.23-.34M37.85-50.56c4.1-.87 7.98-1.9 11.42-3.15M17.87-51.02c-1.53.1-3.06.2-4.56.27M17.87-51.02c8.73-.58 17.72-1.57 24.92-3.13M.06-50.35c4-.04 8.52-.16 13.25-.4M48.56-1.65c-1.26.4-2.62.77-4.08 1.12M42.8-.15l1.68-.38M31.56-1.14c-9.6.63-19.55.49-27.82.08M31.56-1.14c2.32-.15 4.63-.35 6.88-.6M.06-1.27c1.18.08 2.41.15 3.68.21M20.45-39.2a132.44 132.44 0 0 0 21.42 5.83M20.45-39.2a94.95 94.95 0 0 1-5.22-2.11M41.87-33.37c4.12.78 8.22 1.4 12.2 1.87M22.1-42.88c5.64 2.65 18.86 6.34 31.96 8.45M22.1-42.88l-.2-.1M28.84-44.6l-.11-.05M41.55-39.77c-5.25-1.77-9.68-3.62-12.7-4.83M41.55-39.77c3.81 1.29 8.05 2.52 12.51 3.45M34.4-46.15c7.44 3 10.9 5.2 19.66 6.72M8.06-33.35c6.91.74 13.33.86 18.01-.06M8.06-33.35c-2.62-.28-5.3-.65-8-1.09M9.55-34.97c3.42.26 6.87.25 10.28-.15M9.55-34.97c-3.22-.24-6.4-.73-9.49-1.37M19.83-35.12c.1 0 .18-.02.28-.03M8.77-38.31c-2.23-.21-4.2-.45-5.97-.7M.06-39.44c.86.15 1.77.3 2.74.43M54.06-41.94l-1.3.13M54.06-46.27c-5.79.27-10.12.36-11.8.46M54.06-50.35c-2.64.02-5.04 0-7.1-.06M46.88-50.41h.08M.63-28.24l-.57-.04M.63-28.24c1.53.12 3.09.22 4.65.3M5.28-27.93c13.6.75 27.94.28 36.35-2.13M24.2-24.21A224.3 224.3 0 0 1 .06-23.18M48.43-29.04h.02M48.43-29.04c-6.34 2.33-14.98 3.9-24.23 4.82M12.98-19.31c-4.35.62-8.72 1.13-12.92 1.45M52.63-27.56l1.43-.4M12.98-19.31a354.85 354.85 0 0 0 39.64-8.25M51.89-23.21c-1.94-.04-3.82-.1-5.65-.2M46.24-23.4l-.05-.01M51.89-23.21l2.17.03M31.23-19.26l-.04-.01M31.23-19.26c2.7.93 7.1 1.3 9.27 1.49 2.19.18 5.06.29 5.06.29 2.72-.02 5.57-.15 8.5-.38M32.57-3.4h.12M32.57-3.4c-6.38.24-16.75.22-28.03-.79M.06-4.63c1.5.17 3 .31 4.48.45M.06-7.38c6.4 1.02 11.48 1.44 15.63 1.55" style="fill:none;stroke:#000;stroke-width:.3"/><path d="M24.44-6.02c-2.44.16-5.28.28-8.76.19M19.8-7.77c-3.09.07-9.46-.25-17.1-1.5M19.8-7.77h.01M.06-9.73c.9.16 1.77.32 2.63.46M8.16-10.33c2.76.67 4.97.8 7.28.8M8.16-10.33a50.36 50.36 0 0 1-8.1-2.82M12.94-15.4C24.69-9.52 38.8-7.02 38.8-7.02c5 1.05 10.18 1.82 15.25 2.39M54.06-7.38a216.13 216.13 0 0 1-16.62-3.4s-12.38-3.5-17.25-5.87M37.99-13.97l-.55-.18M54.06-9.73c-1.8-.34-3.64-.72-5.52-1.17M37.99-13.97l4.45 1.45c2.05.61 4.1 1.15 6.1 1.62M54.06-13.15l-1.12-.5M23.13-6.58c12.93 3 18.93 4.18 18.93 4.18l.34.13h.03M53.06-1.33c-4.4-.29-8.07-.64-10.63-.94M53.06-1.33l1 .06M36.23-31.15c-5.77 1.12-20 1.56-36.17-.35M.63-28.24l-.36.21-.2.06M.63-28.24l.06-.03M12.19-27.71l2.37-2.58M5.28-27.93l-.22.11c-1.09.48-2.8 1.12-5 1.88M5.28-27.93l.16-.09M46.66-54.15c2.29.38 4.63.7 7.01.93M17.87-51.02l-3.45 3.68M17.87-51.02h.01M28.61-52.02l2.01-2.13M31.56-1.14l.07-.07M31.56-1.14l-.94.99M34.73-47.21l.01-.02M37.85-50.56l.09-.09M37.85-50.56l-3.11 3.33M6.29-46.62l.02-.03M6.29-46.62l-3.96 4.37M17.58-41.92l2.4-2.56M52.06-50.31l-3.87 4.25M34.56-42.31l-2.6 2.87M25.15-37.69l2.6-2.87M37-34.46l2.5-2.73M52.63-27.56l-2.61 2.87M52.63-27.56v-.01M24.25-24.27l-.05.06M24.2-24.21l-3.05 3.46M10.5-23.27l-4 4.68M12.98-19.31l-3.96 4.43M12.98-19.31l.08-.09M36.46-20.69l3.23-3.65M52.94-31.57l-2.5 2.67M41.55-39.77l2.18-2.46M41.55-39.77l-.01.02M.4-36.29l2.4-2.72M2.81-39.02l-.01.01M41.87-33.37l-2.47 2.76M41.87-33.37l.03-.03M20.45-39.2l-3.03 3.36M20.45-39.2l.03-.03M9.55-34.97l-1.49 1.62M8.06-33.35l-.04.04M9.55-34.97l.01-.01M28.31-32.9l-2.23 2.56M17.19-27.59l-3.75 4.11M33.75-28.52l-2.85 3.43M51.89-23.21l-5.06 5.71M51.89-23.21l.05-.06M29.01-18.71l.05-.06M29.01-18.71l-2.68 3.02M50.94-13.65l-2.4 2.75M48.52-10.88l.02-.02M34.5-11.59l-2.67 2.96M18.31-16.4l-.01.02M18.3-16.38l-2.22 2.44M42.44-2.27l-.97 1.13M41.46-1.13l.01-.01M24.58-.81l2.23-2.4M15.68-5.83l-2.03 2.27M15.68-5.83h.01M4.56-4.21l-.02.03M1.9-1.25l2.64-2.93M.96-7.31l1.73-1.96M2.75-9.34l-.06.07M8.16-10.33l-.01.02M8.16-10.33 9.67-12M9.67-12l.02-.02M18.69-8.27l3.12-3.38M36.75-3.52l2.88-3.19M16.42-.15l.39-.44M13.31-50.75l3.08-3.4M13.31-50.75l-.02.02" style="fill:none;stroke:#000;stroke-width:.3"/></svg>