<svg xmlns="http://www.w3.org/2000/svg" xml:space="preserve" width="54.13" height="54.13" viewBox="0.06 -54.2 54.13 54.13"><path d="M.06-54.2h54.13V-.07H.06z" style="fill:none"/><path d="M42.08-50.45H30.84M42.08-50.45h3.13M54.19-50.45h-8.98M28.41-50.45h2.43M28.41-50.45H17.4M4.65-50.45H.06M4.65-50.45H17.4M8.03-46.28H.06M54.19-46.28H34.85M34.85-46.28H8.03M53.85-42.09H41.03M41.03-42.09H27.6M12.78-42.09H27.6M53.85-42.09h.34M12.78-42.09H.06M27.17-12.48H12.66M41.17-12.48h12.58M53.75-12.48h.44M12.66-12.48H.06M54.19-12.48h.06M41.17-12.48h-14M51.29-8.7h2.9M24.85-8.7h7.68M38.85-8.7h8.28M10.35-8.7h8.18M10.35-8.7H5.53M38.85-8.7h-6.32M24.85-8.7h-6.32M5.53-8.7H.06M51.29-8.7h-4.16M6.68-38.07H.06M32.69-38.07H19.37M32.69-38.07h14.62M19.37-38.07H6.68M47.31-38.07h6.88M13.1-34.79H.06M41.92-34.79h12.06M28.1-34.79h-15M41.92-34.79H28.1M53.98-34.79h.21M7.55-31.36H.06M49.61-31.36h2.16M34.67-31.36h14.94M20.99-31.36h13.68M20.99-31.36H7.55M51.77-31.36h2.42M54.12-27.32h.07M27.56-27.32h-15M40.93-27.32H27.56M12.56-27.32H.06M40.93-27.32h13.19M.06-23.52h54.13M.06-19.32h54.13M54.25-19.32h-.06M51.88-16.09h2.31M51.88-16.09H.06M9.08-.92h14.31M50.45-.92h3.74M37.08-.92h13.37M23.39-.92h13.69M.06-.92h9.02M.06-4.29h54.13M5.53-8.7l-2.6 4.38M5.56-8.77l-.03.07M18.56-8.77l-.03.07M18.53-8.7l-2.6 4.38M32.53-8.7l-2.6 4.38M32.56-8.77l-.03.07M47.13-8.7 44.5-4.32M50.45-.92l2.05-3.34M50.45-.92l-.01.03M37.08-.92l2.05-3.34M37.08-.92l-.02.03M23.39-.92l-.01.03M23.39-.92l2.05-3.34M9.08-.92l2.05-3.34M9.08-.92l-.02.03M51.29-8.7l-.04.06M53.75-12.48l.01-.02M51.29-8.7l2.46-3.78M47.38-12.52l2.12-3.56M47.44-23.45l-2.56 4.06M51.88-16.09l2.05-3.2M51.88-16.09v.01M54.13-27.33l-.01.01M51.88-23.58l2.24-3.74M49.63-31.39l-.02.03M49.61-31.36l-2.42 4.03M51.75-31.33l.02-.03M53.98-34.79l-2.21 3.43M53.99-34.81l-.01.02M47.31-38.07v-.01M47.31-38.07l-2 3.24M53.85-42.09l-2.43 4.01M53.85-42.09l.03-.05M46.25-42.14l2.66-4.11M51.35-46.33l2.62-4.11M45.21-50.45l-.01.01M45.21-50.45l2.29-3.75M41.17-12.48l.02-.04M38.85-8.7l2.32-3.78M38.85-8.7l-.04.06M24.85-8.7l2.32-3.78M27.17-12.48l.02-.04M24.85-8.7l-.04.06M12.66-12.48l.03-.04M10.35-8.7l-.04.06M12.66-12.48 10.35-8.7M32.5-12.52l2.13-3.56M18.81-12.52l2.13-3.56M5.56-12.52l2.13-3.56M40.06-16.14 42-19.27M25.81-16.14l1.94-3.13M10.75-16.14l1.94-3.13M33.13-23.45l-2.57 4.06M19.5-23.45l-2.56 4.06M6.5-23.45l-2.56 4.06M40.93-27.32l-2.24 3.74M40.93-27.32l.01-.01M27.56-27.33v.01M27.56-27.32l-2.25 3.74M12.56-27.32l-2.25 3.74M12.56-27.33v.01M34.67-31.36l-2.42 4.03M34.67-31.36l.02-.03M20.99-31.36l.01-.03M20.99-31.36l-2.43 4.03M7.55-31.36l.01-.03M7.55-31.36l-2.42 4.03M41.92-34.79l-1.98 3.4M41.92-34.79l.02-.04M28.1-34.79l-1.97 3.4M28.13-34.83l-.03.04M13.1-34.79l.03-.04M13.1-34.79l-1.97 3.4M32.69-38.07l-2 3.24M32.69-38.07v-.01M19.37-38.07l.01-.01M19.37-38.07l-1.99 3.24M6.68-38.07l.01-.01M6.68-38.07l-1.99 3.24M41.03-42.09l-2.4 4.01M41.03-42.09l.03-.05M27.6-42.09l.03-.05M25.19-38.08l2.41-4.01M12.81-42.14l-.03.05M12.78-42.09l-2.4 4.01M34.85-46.28l-2.54 4.14M34.85-46.28l.03-.05M18.69-42.14l2.5-4.13M8.03-46.28 5.5-42.14M8.03-46.28l.03-.05M42.08-50.45l.02-.04M42.08-50.45l-2.52 4.12M28.41-50.45l.03-.04M28.41-50.45l-2.53 4.12M13.52-50.41 11-46.33M30.84-50.45l-.01.01M30.84-50.45l2.28-3.75M17.39-50.44l.01-.01M17.4-50.45l2.28-3.75M4.65-50.45l2.28-3.75M4.65-50.45l-.01.01M47.94-.83l-.45.75M33.56-.83l-.45.75M20.13-.83l-.46.75M7.38-.83l-.46.75" style="fill:none;stroke:#000;stroke-width:.3"/><circle cx="11.73" cy="-52.5" r=".95" style="fill:none;stroke:#000;stroke-width:.3"/><circle cx="25.05" cy="-52.5" r=".95" style="fill:none;stroke:#000;stroke-width:.3"/><circle cx="38.8" cy="-52.5" r=".95" style="fill:none;stroke:#000;stroke-width:.3"/><circle cx="52.93" cy="-52.5" r=".95" style="fill:none;stroke:#000;stroke-width:.3"/><circle cx="5.05" cy="-48.2" r=".95" style="fill:none;stroke:#000;stroke-width:.3"/><circle cx="18.93" cy="-48.2" r=".95" style="fill:none;stroke:#000;stroke-width:.3"/><circle cx="33.38" cy="-48.2" r=".95" style="fill:none;stroke:#000;stroke-width:.3"/><circle cx="46.8" cy="-48.2" r=".95" style="fill:none;stroke:#000;stroke-width:.3"/><circle cx="12.8" cy="-44.08" r=".95" style="fill:none;stroke:#000;stroke-width:.3"/><path d="M.06-43.13h.12a.96.96 0 1 0-.12-1.9" style="fill:none;stroke:#000;stroke-width:.3"/><circle cx="26.63" cy="-44.08" r=".95" style="fill:none;stroke:#000;stroke-width:.3"/><circle cx="40.93" cy="-44.08" r=".95" style="fill:none;stroke:#000;stroke-width:.3"/><circle cx="46.18" cy="-39.93" r=".95" style="fill:none;stroke:#000;stroke-width:.3"/><circle cx="32.93" cy="-39.93" r=".95" style="fill:none;stroke:#000;stroke-width:.3"/><circle cx="18.68" cy="-39.93" r=".95" style="fill:none;stroke:#000;stroke-width:.3"/><circle cx="4.3" cy="-39.93" r=".95" style="fill:none;stroke:#000;stroke-width:.3"/><circle cx="53.18" cy="-36.33" r=".95" style="fill:none;stroke:#000;stroke-width:.3"/><circle cx="38.8" cy="-36.33" r=".95" style="fill:none;stroke:#000;stroke-width:.3"/><circle cx="24.8" cy="-36.33" r=".95" style="fill:none;stroke:#000;stroke-width:.3"/><circle cx="11.93" cy="-36.33" r=".95" style="fill:none;stroke:#000;stroke-width:.3"/><circle cx="4.93" cy="-33.05" r=".95" style="fill:none;stroke:#000;stroke-width:.3"/><circle cx="19.43" cy="-33.05" r=".95" style="fill:none;stroke:#000;stroke-width:.3"/><circle cx="33.68" cy="-33.05" r=".95" style="fill:none;stroke:#000;stroke-width:.3"/><circle cx="47.05" cy="-33.05" r=".95" style="fill:none;stroke:#000;stroke-width:.3"/><circle cx="12.93" cy="-29.33" r=".95" style="fill:none;stroke:#000;stroke-width:.3"/><circle cx="26.43" cy="-29.33" r=".95" style="fill:none;stroke:#000;stroke-width:.3"/><circle cx="40.68" cy="-29.33" r=".95" style="fill:none;stroke:#000;stroke-width:.3"/><path d="M.06-28.41a.96.96 0 0 0 0-1.84" style="fill:none;stroke:#000;stroke-width:.3"/><circle cx="4.43" cy="-25.4" r=".95" style="fill:none;stroke:#000;stroke-width:.3"/><circle cx="18.8" cy="-25.4" r=".95" style="fill:none;stroke:#000;stroke-width:.3"/><circle cx="32.8" cy="-25.4" r=".95" style="fill:none;stroke:#000;stroke-width:.3"/><circle cx="46.05" cy="-25.4" r=".95" style="fill:none;stroke:#000;stroke-width:.3"/><circle cx="52.55" cy="-21.33" r=".95" style="fill:none;stroke:#000;stroke-width:.3"/><circle cx="38.8" cy="-21.33" r=".95" style="fill:none;stroke:#000;stroke-width:.3"/><circle cx="24.43" cy="-21.33" r=".95" style="fill:none;stroke:#000;stroke-width:.3"/><circle cx="11.43" cy="-21.33" r=".95" style="fill:none;stroke:#000;stroke-width:.3"/><circle cx="4.43" cy="-17.7" r=".95" style="fill:none;stroke:#000;stroke-width:.3"/><circle cx="18.68" cy="-17.7" r=".95" style="fill:none;stroke:#000;stroke-width:.3"/><circle cx="33.68" cy="-17.7" r=".95" style="fill:none;stroke:#000;stroke-width:.3"/><circle cx="47.18" cy="-17.7" r=".95" style="fill:none;stroke:#000;stroke-width:.3"/><path d="M.06-13.38a.95.95 0 0 0 0-1.85" style="fill:none;stroke:#000;stroke-width:.3"/><circle cx="41.05" cy="-14.3" r=".95" style="fill:none;stroke:#000;stroke-width:.3"/><circle cx="26.68" cy="-14.3" r=".95" style="fill:none;stroke:#000;stroke-width:.3"/><circle cx="13.18" cy="-14.3" r=".95" style="fill:none;stroke:#000;stroke-width:.3"/><circle cx="4.43" cy="-10.55" r=".95" style="fill:none;stroke:#000;stroke-width:.3"/><circle cx="18.55" cy="-10.55" r=".95" style="fill:none;stroke:#000;stroke-width:.3"/><circle cx="32.8" cy="-10.55" r=".95" style="fill:none;stroke:#000;stroke-width:.3"/><circle cx="46.8" cy="-10.55" r=".95" style="fill:none;stroke:#000;stroke-width:.3"/><circle cx="52.05" cy="-6.45" r=".95" style="fill:none;stroke:#000;stroke-width:.3"/><circle cx="38.55" cy="-6.45" r=".95" style="fill:none;stroke:#000;stroke-width:.3"/><circle cx="24.05" cy="-6.45" r=".95" style="fill:none;stroke:#000;stroke-width:.3"/><circle cx="10.3" cy="-6.45" r=".95" style="fill:none;stroke:#000;stroke-width:.3"/><circle cx="3.18" cy="-2.58" r=".95" style="fill:none;stroke:#000;stroke-width:.3"/><circle cx="16.93" cy="-2.58" r=".95" style="fill:none;stroke:#000;stroke-width:.3"/><circle cx="30.93" cy="-2.58" r=".95" style="fill:none;stroke:#000;stroke-width:.3"/><circle cx="44.68" cy="-2.58" r=".95" style="fill:none;stroke:#000;stroke-width:.3"/><path d="M54.19-45.02a.95.95 0 0 0 0 1.89M54.19-30.25a.95.95 0 0 0-1.21.92.96.96 0 0 0 1.2.92M54.19-15.23a.95.95 0 1 0 0 1.85" style="fill:none;stroke:#000;stroke-width:.3"/></svg>