<svg xmlns="http://www.w3.org/2000/svg" xml:space="preserve" width="54.13" height="54.13" viewBox="0 -54.2 54.13 54.13"><path d="M0-54.2h54.13V-.07H0z" style="fill:none"/><path d="M54.13-50.45h-8.98M4.59-50.45H0M42.02-50.45H30.77M17.34-50.45h11.01M17.34-50.45H4.59M30.77-50.45h-2.42M42.02-50.45h3.13M54.13-46.28H34.78M34.78-46.28H7.97M7.97-46.28H0M12.72-42.09H0M40.97-42.09h12.81M27.53-42.09h13.44M27.53-42.09H12.72M53.78-42.09h.35M53.68-12.48h.45M12.6-12.48h14.5M41.1-12.48h-14M41.1-12.48h12.58M54.13-12.48h.06M12.6-12.48H0M51.23-8.7h2.9M18.46-8.7h6.33M5.46-8.7H0M38.79-8.7h8.27M51.23-8.7h-4.17M24.79-8.7h7.67M10.29-8.7H5.46M38.79-8.7h-6.33M10.29-8.7h8.17M6.62-38.07h12.69M32.62-38.07h14.63M6.62-38.07H0M54.13-38.07h-6.88M32.62-38.07H19.31M28.04-34.79h-15M13.04-34.79H0M41.85-34.79h12.06M28.04-34.79h13.81M54.13-34.79h-.22M34.61-31.36H20.92M49.55-31.36h2.16M51.71-31.36h2.42M7.49-31.36h13.43M7.49-31.36H0M34.61-31.36h14.94M54.05-27.32H40.87M40.87-27.32H27.49M12.49-27.32H0M54.05-27.32h.08M27.49-27.32h-15M54.13-23.52H0M54.19-19.32h-.06M0-19.32h54.13M51.82-16.09h2.31M0-16.09h51.82M0-.92h9.02M37.02-.92h13.37M50.39-.92h3.74M23.33-.92h13.69M9.02-.92h14.31M0-4.29h54.13M5.46-8.7 2.87-4.32M5.5-8.77l-.04.07M18.5-8.77l-.04.07M18.46-8.7l-2.59 4.38M32.5-8.77l-.04.07M29.87-4.32l2.59-4.38M47.06-8.7l-2.63 4.38M50.39-.92l-.01.03M50.39-.92l2.05-3.34M37.02-.92 37-.89M37.02-.92l2.04-3.34M23.33-.92l-.02.03M23.33-.92l2.05-3.34M9.02-.92l2.04-3.34M9.02-.92 9-.89M53.68-12.48l.02-.02M51.23-8.7l2.45-3.78M51.23-8.7l-.04.06M47.31-12.52l2.13-3.56M47.38-23.45l-2.57 4.06M53.86-19.29l-2.04 3.2M51.81-16.08l.01-.01M54.05-27.32l.01-.01M54.05-27.32l-2.24 3.74M49.55-31.36l.01-.03M49.55-31.36l-2.42 4.03M51.69-31.33l.02-.03M53.91-34.79l-2.2 3.43M53.91-34.79l.01-.02M47.25-38.08v.01M45.25-34.83l2-3.24M53.78-42.09l-2.42 4.01M53.78-42.09l.03-.05M46.19-42.14l2.65-4.11M51.29-46.33l2.61-4.11M45.15-50.45l2.28-3.75M45.15-50.45l-.01.01M38.79-8.7l-.04.06M41.1-12.48 38.79-8.7M41.1-12.48l.03-.04M24.75-8.64l.04-.06M27.1-12.48 24.79-8.7M27.13-12.52l-.03.04M10.29-8.7l-.04.06M12.6-12.48l.03-.04M12.6-12.48 10.29-8.7M32.44-12.52l2.12-3.56M18.75-12.52l2.13-3.56M5.5-12.52l2.13-3.56M41.94-19.27 40-16.14M27.69-19.27l-1.94 3.13M12.63-19.27l-1.94 3.13M33.06-23.45l-2.56 4.06M19.44-23.45l-2.56 4.06M6.44-23.45l-2.56 4.06M40.88-27.33l-.01.01M40.87-27.32l-2.24 3.74M27.49-27.32l-2.24 3.74M27.5-27.33l-.01.01M12.49-27.32l-2.24 3.74M12.49-27.32l.01-.01M34.61-31.36l-2.42 4.03M34.61-31.36l.02-.03M18.5-27.33l2.42-4.03M20.94-31.39l-.02.03M7.49-31.36l-2.43 4.03M7.49-31.36l.01-.03M41.85-34.79l.03-.04M41.85-34.79l-1.97 3.4M28.04-34.79l.02-.04M28.04-34.79l-1.98 3.4M13.04-34.79l-1.98 3.4M13.04-34.79l.02-.04M32.62-38.07l-1.99 3.24M32.62-38.07l.01-.01M19.31-38.08v.01M17.31-34.83l2-3.24M6.62-38.07l-1.99 3.24M6.62-38.07l.01-.01M40.97-42.09l.03-.05M38.56-38.08l2.41-4.01M27.53-42.09l-2.4 4.01M27.53-42.09l.03-.05M12.72-42.09l.03-.05M12.72-42.09l-2.41 4.01M34.78-46.28l.03-.05M34.78-46.28l-2.53 4.14M18.63-42.14l2.5-4.13M7.97-46.28l.03-.05M7.97-46.28l-2.53 4.14M42.02-50.45l-2.52 4.12M42.02-50.45l.02-.04M25.81-46.33l2.54-4.12M28.38-50.49l-.03.04M13.46-50.41l-2.52 4.08M30.77-50.45l2.29-3.75M30.77-50.44v-.01M17.34-50.45l2.28-3.75M17.34-50.45l-.01.01M4.59-50.45l2.28-3.75M4.58-50.44l.01-.01M47.88-.83l-.46.75M33.5-.83l-.45.75M20.06-.83l-.45.75M7.31-.83l-.45.75M8.12-52.27h7.25M35.25-52.27h7.25M22.67-48.26h-7.25M50.42-48.26h-7.25M22.81-44.19h7.25M3.4-44.19H0M36.5-39.94h-7.25M.87-39.94h7.25M42.2-36.44h-7.25M51.25-33.07H44M51.2-29.19h2.93M49.65-25.44H42.4M42.41-21.44h-7.25M37.33-17.69h-7.25M22.82-14.19h7.25M14.92-10.57h7.25M13.97-6.19H6.72M7.26-2.52H.01M8.07-36.33h7.25M23.22-33.08h-7.25M22.91-29.33h7.25M22.27-25.33h-7.25M15.14-21.33H7.89M8.55-17.58H1.3M3.07-14.08H0M43-10.46h7.25M41.97-6.33h-7.25M34.45-2.58H27.2M50.22-44.19h3.91M50.52-14.08h3.61M2.52-29.19H0M53.72-2.52h.41" style="fill:none;stroke:#000;stroke-width:.3"/><path d="M17.46-2.62h0M20.46-2.62h0M14.29-2.62h0M24.13-6.37h0M27.13-6.37h0M20.96-6.37h0M33.08-10.37h0M36.08-10.37h0M29.92-10.37h0M4.96-10.37h0M7.96-10.37h0M1.79-10.37h0M13.21-14.19h0M16.21-14.19h0M10.04-14.19h0M41.08-14.19h0M44.08-14.19h0M37.92-14.19h0M46.96-17.75h0M49.96-17.75h0M43.79-17.75h0M19.21-17.75h0M22.21-17.75h0M16.04-17.75h0M25.21-21.5h0M28.21-21.5h0M22.04-21.5h0M53.21-21.5h0M50.04-21.5h0M2.21-21.5h0M32.83-25.37h0M35.83-25.37h0M29.67-25.37h0M4.83-25.37h0M7.83-25.37h0M1.67-25.37h0M12.96-29.37h0M15.96-29.37h0M9.79-29.37h0M40.83-29.37h0M43.83-29.37h0M37.67-29.37h0M33.96-33.12h0M36.96-33.12h0M30.79-33.12h0M5.58-33.12h0M8.58-33.12h0M2.42-33.12h0M53.08-36.37h0M49.92-36.37h0M2.21-36.37h0M18.83-39.99h0M21.83-39.99h0M15.67-39.99h0M46.46-39.99h0M49.46-39.99h0M43.29-39.99h0M40.46-44.24h0M43.46-44.24h0M37.29-44.24h0M13.08-44.24h0M16.08-44.24h0M9.92-44.24h0M33.96-48.37h0M36.96-48.37h0M30.79-48.37h0M5.33-48.37h0M8.33-48.37h0M2.17-48.37h0M25.33-52.24h0M28.33-52.24h0M22.17-52.24h0M53.33-52.24h0M50.17-52.24h0M2.21-52.24h0M25.08-36.37h0M28.08-36.37h0M21.92-36.37h0M52.52-6.37h0M49.35-6.37h0M1.25-6.37h0M44.71-2.62h0M47.71-2.62h0M41.54-2.62h0" style="fill:none;stroke:#000;stroke-width:.6;stroke-linecap:round"/></svg>