<svg xmlns="http://www.w3.org/2000/svg" xml:space="preserve" width="54.13" height="54.13" viewBox="0.15 -54.25 54.13 54.13"><path d="M.15-54.25h54.13V-.12H.15z" style="fill:none"/><path d="M54.27-33.16v.32M54.27-4.06v.04M.15-4.06v.04M54.27-17.99v.78M16.27-50.41l-.18.02h-.87M16.27-50.41c3.32-.5 3.32-3.41-.18-3.84M10.32-50.39H8.68l-.16-.02M10.32-50.39h4.9" style="fill:none;stroke:#000;stroke-width:.3"/><path d="M8.68-54.25c-3.41.5-3.35 3.29-.16 3.84M8.68-54.25h7.41M21.27-50.41c-3.19-.56-3.25-3.35.15-3.84M25.1-50.39h4.49c3.5-.42 3.56-3.42 0-3.86M21.27-50.41l.15.02h3.67M29.59-54.25h-8.16M44.17-50.41c3.32-.5 3.32-3.41-.18-3.84M38.72-50.39h5" style="fill:none;stroke:#000;stroke-width:.3"/><path d="M43.72-50.39h.27l.18-.02M34.92-54.25c-3.4.5-3.34 3.29-.15 3.84" style="fill:none;stroke:#000;stroke-width:.3"/><path d="M38.72-50.39h-3.8l-.15-.02M34.92-54.25h9.07M10.32-50.39l-.17-.02H8.52M8.52-50.41H3.58M2.6-50.39l.14-.02h.84M10.32-50.39c3.39.56 3.27 3.47-.17 3.84H2.74c-3.3-.43-3.46-3.23-.15-3.84" style="fill:none;stroke:#000;stroke-width:.3"/><path d="M15.22-50.39c-3.32.6-3.15 3.4.14 3.84h9.57c3.44-.37 3.56-3.28.16-3.84" style="fill:none;stroke:#000;stroke-width:.3"/><path d="M21.27-50.41h3.65l.17.02M16.27-50.41h-.9l-.15.02M21.27-50.41h-5M38.72-50.39c3.39.56 3.27 3.47-.17 3.84h-8.31c-3.34-.44-3.46-3.31 0-3.86h4.53M38.72-50.39l-.17-.02h-3.78" style="fill:none;stroke:#000;stroke-width:.3"/><path d="M51.8-50.39c3.39.56 3.27 3.47-.17 3.84h-7.77c-3.29-.43-3.45-3.23-.14-3.84M49.16-50.41h-4.99M51.8-50.39l-.17-.02h-2.47M43.72-50.39l.14-.02h.3M1.88-42.7H.15M4.72-42.73c3.3-.46 3.3-3.35-.2-3.78H.15M4.72-42.73l-.2.03H1.88" style="fill:none;stroke:#000;stroke-width:.3"/><path d="M14.5-42.7H9.79c-3.34-.44-3.47-3.31 0-3.81h7.96c3.5.43 3.5 3.32.2 3.79" style="fill:none;stroke:#000;stroke-width:.3"/><path d="M14.5-42.7h3.24l.2-.03M29.36-42.7h1.98l.2-.03M24.43-42.7h4.93M33.98-44.49v-.22M33.98-44.49c-.07.79-.89 1.55-2.44 1.77M24.43-42.7h-1.4c-.06 0-.12-.02-.17-.03" style="fill:none;stroke:#000;stroke-width:.3"/><path d="M22.86-42.73c-3.17-.5-3.24-3.3.17-3.78h8.3c1.7.2 2.57 1 2.65 1.8M37.83-42.7h-1.3c-.06 0-.12-.02-.17-.03" style="fill:none;stroke:#000;stroke-width:.3"/><path d="M46.49-42.73c3.3-.46 3.3-3.35-.2-3.78h-9.77c-1.64.23-2.47 1-2.54 1.8M36.36-42.73c-1.5-.24-2.3-.99-2.38-1.76M37.83-42.7h4.9M46.49-42.73l-.2.03h-3.56M33.98-44.7v.21M1.88-42.7c-.76.14-1.33.4-1.73.7M4.72-42.73h-2.7l-.14.03M4.72-42.73h4.72c3.56.5 3.5 3.5 0 3.87H2.03a3.86 3.86 0 0 1-1.88-.7M24.43-42.7c-.06 0-.11-.02-.17-.03h-1.4M22.86-42.73h-4.92M14.5-42.7l.15-.03h3.29" style="fill:none;stroke:#000;stroke-width:.3"/><path d="M24.43-42.7c3.4.56 3.28 3.47-.17 3.84h-9.61c-3.3-.43-3.46-3.23-.14-3.84M29.36-42.7l.14-.03h2.04M37.83-42.7c-.06 0-.11-.02-.17-.03h-1.3M36.36-42.73h-4.82" style="fill:none;stroke:#000;stroke-width:.3"/><path d="M37.83-42.7c3.4.56 3.28 3.47-.17 3.84H29.5c-3.3-.43-3.46-3.23-.14-3.84" style="fill:none;stroke:#000;stroke-width:.3"/><path d="M42.73-42.7c-3.31.6-3.15 3.4.15 3.84h7.96c3.5-.38 3.56-3.38 0-3.87h-4.35" style="fill:none;stroke:#000;stroke-width:.3"/><path d="M46.49-42.73h-3.61l-.15.03M.15-34.98h3.26c3.5-.42 3.56-3.42 0-3.86H.15" style="fill:none;stroke:#000;stroke-width:.3"/><path d="M8.69-38.84c-3.46.5-3.34 3.38 0 3.87h7.41c3.5-.43 3.56-3.43 0-3.87H8.69z" style="fill:none;stroke:#000;stroke-width:.3"/><path d="M29.41-38.84h-7.96c-3.46.5-3.34 3.38 0 3.87h7.96c3.5-.43 3.57-3.43 0-3.87z" style="fill:none;stroke:#000;stroke-width:.3"/><path d="M43.99-38.84h-9.36c-3.47.5-3.34 3.38 0 3.87h9.36c3.5-.43 3.56-3.43 0-3.87zM12.6-32.8a1.3 1.3 0 0 0 0-.42M12.6-33.22c-.14-.78-1.01-1.52-2.64-1.74H2.75c-3.46.55-3.34 3.42 0 3.86h7.21c1.62-.17 2.5-.91 2.63-1.7" style="fill:none;stroke:#000;stroke-width:.3"/><path d="M12.6-32.8c.13.77.98 1.5 2.52 1.7h9.82c3.5-.37 3.56-3.37 0-3.86h-9.82c-1.57.25-2.4.98-2.53 1.74" style="fill:none;stroke:#000;stroke-width:.3"/><path d="M12.6-33.22c-.03.14-.03.28 0 .42M30.15-34.96c-3.46.55-3.34 3.42 0 3.86h8.51c3.5-.37 3.56-3.37 0-3.86h-8.51zM54.27-33.16c.02.1.02.21 0 .32" style="fill:none;stroke:#000;stroke-width:.3"/><path d="M54.27-33.16c-.1-.8-.97-1.58-2.63-1.8h-7.71c-3.47.55-3.34 3.42 0 3.86h7.7c1.65-.18 2.54-.94 2.64-1.74M.15-27.21h4c3.5-.43 3.56-3.43 0-3.86h-4" style="fill:none;stroke:#000;stroke-width:.3"/><path d="M9.36-27.21h8.27c3.5-.43 3.56-3.43 0-3.86H9.36c-3.46.5-3.33 3.37 0 3.86z" style="fill:none;stroke:#000;stroke-width:.3"/><path d="M22.86-27.21h8.42c3.5-.43 3.56-3.43 0-3.86h-8.42c-3.46.5-3.34 3.37 0 3.86z" style="fill:none;stroke:#000;stroke-width:.3"/><path d="M46.15-27.21c3.5-.43 3.56-3.43 0-3.86h-9.66c-3.47.5-3.34 3.37 0 3.86h9.66zM8.13-23.38H9.2l.2-.02M1.62-23.4c-.6-.1-1.1-.28-1.47-.5M3.22-23.38H1.79l-.17-.02M9.4-23.4c3.3-.47 3.3-3.36-.2-3.79H1.79c-.69.1-1.23.3-1.64.54M3.22-23.38h4.91M16.18-23.38h-1.77l-.17-.02M21.13-23.38h3.05l.2-.02M16.18-23.38h4.95" style="fill:none;stroke:#000;stroke-width:.3"/><path d="M24.37-23.4c3.3-.47 3.3-3.36-.2-3.79h-9.76c-3.4.5-3.34 3.28-.17 3.79M37.69-23.4c-.07 0-.13.02-.2.03h-2.74M29.3-23.4l.18.03h.35M34.75-23.38h-4.92" style="fill:none;stroke:#000;stroke-width:.3"/><path d="M29.3-23.4c-3.17-.51-3.23-3.3.18-3.79h8c3.5.43 3.5 3.32.2 3.79M44.01-23.38h4.98M50.96-23.4c-.07 0-.13.02-.2.03H49M42.58-23.4c.06 0 .11.02.17.03h1.26M53.38-25.52c.04.16.04.33 0 .49M53.39-25.03c-.15.74-.96 1.42-2.43 1.63" style="fill:none;stroke:#000;stroke-width:.3"/><path d="M42.58-23.4c-3.17-.51-3.23-3.3.17-3.79h8.01c1.6.2 2.47.91 2.63 1.67M1.62-23.4H.15M3.22-23.38c3.38.52 3.26 3.42-.18 3.84H.15M3.22-23.38l-.18-.02H1.62M9.4-23.4h4.84M8.13-23.38l.16-.02h1.1M16.18-23.38 16-23.4h-1.76" style="fill:none;stroke:#000;stroke-width:.3"/><path d="M16.18-23.38c3.38.52 3.26 3.42-.18 3.84H8.29c-3.29-.48-3.46-3.27-.16-3.83M29.3-23.4h.35l.18.03M29.31-23.4h-4.94M21.13-23.38l.16-.02h3.08" style="fill:none;stroke:#000;stroke-width:.3"/><path d="M21.13-23.38c-3.3.57-3.13 3.36.16 3.84h8.36c3.44-.41 3.56-3.32.18-3.83" style="fill:none;stroke:#000;stroke-width:.3"/><path d="M34.75-23.38c-3.3.57-3.12 3.36.16 3.84h8.92c3.44-.41 3.56-3.32.18-3.83M42.58-23.4h-4.89" style="fill:none;stroke:#000;stroke-width:.3"/><path d="M37.69-23.4H34.9l-.15.03M42.58-23.4h1.25l.18.03M4.39-15.66h5.26M2.7-15.66c-3.34-.49-3.46-3.37 0-3.87h7.11c3.56.44 3.5 3.44 0 3.87M17.66-15.66h5.22" style="fill:none;stroke:#000;stroke-width:.3"/><path d="M24.91-15.66c3.5-.43 3.56-3.43 0-3.87H15.1c-3.46.5-3.34 3.38 0 3.87M41.74-17.82c.03.14.03.28 0 .42M36.5-15.66h-5.21M41.74-17.4c-.12.8-1 1.54-2.63 1.74" style="fill:none;stroke:#000;stroke-width:.3"/><path d="M41.74-17.82c-.13-.77-1-1.5-2.63-1.7h-8.96c-3.46.5-3.34 3.37 0 3.86M41.74-17.82c.13-.76.96-1.48 2.53-1.7h7.42c1.5.18 2.36.82 2.59 1.53M54.27-17.21c-.22.72-1.09 1.37-2.58 1.55M44.27-15.66c-1.54-.23-2.4-.96-2.53-1.74M51.35-15.66h-5.19M41.74-17.82c-.02.14-.02.28 0 .42M2.7-15.66H.15M2.02-11.85H.15M4.39-11.85c3.5-.38 3.56-3.38 0-3.81M2.7-15.66h1.69M9.81-15.66h5.29" style="fill:none;stroke:#000;stroke-width:.3"/><path d="M14.65-11.85h-5c-3.34-.44-3.46-3.31 0-3.81M17.66-15.66c3.56.44 3.5 3.44 0 3.81M9.81-15.66h-.16M17.66-15.66H15.1M24.91-15.66h5.24M31.29-11.85c3.5-.38 3.56-3.38 0-3.81" style="fill:none;stroke:#000;stroke-width:.3"/><path d="M22.88-15.66c-3.47.5-3.34 3.37 0 3.81M24.26-11.85h5.24M22.88-15.66h2.03M30.15-15.66h1.14M36.5-15.66c-3.46.5-3.34 3.37 0 3.81M46.16-15.66c1.7.2 2.57.99 2.65 1.8M48.8-13.63v-.23M44.27-15.66h-5.16M48.8-13.63c-.07.81-.95 1.6-2.64 1.78M37.66-11.85h5.22M36.5-15.66h2.61M44.27-15.66h1.89M2.01-4.06c3.5-.43 3.56-3.43 0-3.91H.15M.15-4.06h.2M7.76-4.06H13" style="fill:none;stroke:#000;stroke-width:.3"/><path d="M7.35-4.06c-3.34-.49-3.46-3.36 0-3.91h7.76c1.55.2 2.4.89 2.6 1.63M17.72-5.68c-.2.75-1.07 1.43-2.6 1.62M17.72-6.34c.06.22.06.44 0 .66M20.23-4.06c-1.47-.22-2.31-.89-2.51-1.62M31.7-6.29c.05.18.05.37 0 .55M17.72-6.34c-.06.22-.06.44 0 .66M22.21-4.06h5.17M17.72-6.34c.18-.73 1-1.4 2.5-1.64h8.87c1.58.22 2.44.93 2.61 1.7M29.09-4.06c1.57-.2 2.45-.9 2.62-1.68M35.84-4.06H41" style="fill:none;stroke:#000;stroke-width:.3"/><path d="M31.7-6.29c-.03.18-.03.37 0 .55M34.23-4.06c-1.5-.22-2.35-.92-2.52-1.68M31.7-6.29c.16-.74 1-1.44 2.53-1.69h9.4c3.57.5 3.5 3.5 0 3.92M7.76-4.06c3.56.54 3.5 3.54 0 3.91H.35c-.07 0-.14-.02-.2-.03M.15-4.02l.2-.04M7.35-4.06H2.01M2.01-4.06H.35M7.35-4.06h.41M15.11-4.06h5.12" style="fill:none;stroke:#000;stroke-width:.3"/><path d="M24.84-1.85c-.12.79-1 1.53-2.63 1.7H13c-3.34-.44-3.46-3.31 0-3.91M24.84-1.85c.03-.14.03-.28 0-.42" style="fill:none;stroke:#000;stroke-width:.3"/><path d="M22.21-4.06c1.63.24 2.5 1 2.63 1.79M15.11-4.06H13M22.21-4.06h-1.98M38.47-1.85c.02-.14.02-.28 0-.42M34.23-4.06h-5.14M35.84-4.06c1.62.24 2.5 1 2.63 1.79M27.38-4.06c-1.58.27-2.41 1.02-2.54 1.79M38.47-1.85c-.13.79-1.01 1.53-2.63 1.7h-8.46c-1.55-.2-2.4-.93-2.54-1.7" style="fill:none;stroke:#000;stroke-width:.3"/><path d="M24.84-2.27c-.02.14-.02.28 0 .42M27.38-4.06h1.71M35.84-4.06h-1.61M41-4.06c-1.58.27-2.4 1.02-2.53 1.79M38.47-1.85a1.26 1.26 0 0 1 0-.42M38.47-1.85c.13.78.99 1.5 2.53 1.7h8.21c3.5-.37 3.56-3.38 0-3.91M43.64-4.06h5.24M43.64-4.06H41M2.6-50.39h.8l.18-.02" style="fill:none;stroke:#000;stroke-width:.3"/><path d="M3.58-50.41c3.32-.5 3.32-3.41-.18-3.84M2.59-50.39H.15M.15-54.25H3.4M54.27-46.51H51.5c-3.47.5-3.34 3.37 0 3.81h2.78M54.27-42c-.9.72-.89 1.75 0 2.44M2.02-11.85c-.82.13-1.45.4-1.87.73M.15-8.68c.43.33 1.05.58 1.88.7h7.4c3.5-.38 3.57-3.38 0-3.87H4.4M4.39-11.85H2.02" style="fill:none;stroke:#000;stroke-width:.3"/><path d="M24.26-11.85c3.56.49 3.5 3.49 0 3.86h-9.61c-3.34-.44-3.46-3.31 0-3.86M17.66-11.85h5.22M14.65-11.85h3.01M24.26-11.85h-1.38M36.5-11.85h-5.21" style="fill:none;stroke:#000;stroke-width:.3"/><path d="M37.66-11.85c3.57.49 3.5 3.49 0 3.86H29.5c-3.34-.44-3.46-3.31 0-3.86M29.5-11.85h1.79M37.66-11.85H36.5" style="fill:none;stroke:#000;stroke-width:.3"/><path d="M42.88-11.85c-3.47.55-3.34 3.42 0 3.86h7.96c3.5-.37 3.56-3.37 0-3.86h-4.68M46.16-11.85h-3.28" style="fill:none;stroke:#000;stroke-width:.3"/><path d="M54.27-11.12c-.9.71-.89 1.74 0 2.44M54.27-34.98h-5c-3.33-.48-3.46-3.36 0-3.86h5M54.27-31.07h-2.86c-3.46.5-3.33 3.37 0 3.86h2.87M53.38-25.52c-.03.16-.03.33 0 .49M53.38-25.52c.08-.41.38-.81.9-1.13M54.27-23.9c-.5-.32-.8-.72-.88-1.13M50.96-23.4h3.31M54.27-19.54h-5.12c-3.29-.48-3.46-3.27-.16-3.83M50.96-23.4h-1.81l-.16.03M48.8-13.63c.08.8.95 1.57 2.55 1.78h2.92M48.8-13.63v-.23M51.69-15.66h2.58M48.8-13.86c.07-.8.9-1.56 2.55-1.8M51.35-15.66h.34M54.27-7.97h-5.4c-3.46.55-3.33 3.42 0 3.9M49.21-4.06h5.06M49.21-4.06h-.33M54.27-4.02c-3.18.66-3.07 3.33 0 3.84M51.8-50.39H49.3l-.15-.02M49.31-54.25c-3.4.5-3.34 3.29-.15 3.84M51.79-50.39h2.48M49.31-54.25h4.96" style="fill:none;stroke:#000;stroke-width:.3"/></svg>