<svg xmlns="http://www.w3.org/2000/svg" xml:space="preserve" width="54.13" height="54.13" viewBox="0.15 -54.35 54.13 54.13"><path d="M.15-54.35h54.13V-.22H.15z" style="fill:none"/><path d="m45.84-50.55-.17-.07c-.53-.29-1.18-.7-1.42-1.3-.35-.93.21-1.81 1.12-2.08.66-.2 1.27-.3 1.86-.36M45.84-50.55a7 7 0 0 0 2.45.33M47.23-54.35c1.08-.1 2.09-.04 3.15-.04.38 0 .74.02 1.1.04M54.28-54.08c-.97-.11-1.87-.22-2.8-.28" style="fill:none;stroke:#000;stroke-width:.3"/><path d="M54.28-50.4c-1 .21-2.06.23-3.07.14-.98-.06-1.96.03-2.92.04M31-50.33c.32.12.66.19 1 .19.98.04 1.94.07 2.9.07M39.22-50.29c.87-.1 1.74-.21 2.62-.37M39.22-50.29c-1.44.15-2.87.22-4.32.22" style="fill:none;stroke:#000;stroke-width:.3"/><path d="M41.84-50.66c.33-.06.66-.12 1-.2.7-.1 1.53-1.05 1.18-1.64-1.48-2.53-4.4-1.68-7.22-1.68-2.13 0-4.4-.38-6.28.32-.58.24-1.2.78-1.11 1.71.07.86.76 1.51 1.58 1.82M20.03-49.89l-.73-.05c-.42-.05-.92-.14-1.4-.28M17.9-50.22c-1.2-.32-2.36-.91-2.24-1.87.7-1.78 2.2-2.2 3.84-2.26M25.83-50.46c.8-.18 1.59-.39 2.4-.63.61-.08 1.28-.84 1.01-1.28-.62-1.46-1.9-1.89-3.37-1.98M23.97-54.35c.64-.03 1.28-.05 1.9 0M20.75-54.35c.67.01 1.33.05 1.95.04l1.27-.04M19.5-54.35c.41-.02.83-.02 1.25 0M20.03-49.89c1.5.07 2.94-.04 4.37-.29M25.83-50.46l-1.43.29M9.73-54.35h.02c.47-.02.97-.03 1.49 0M9.4-54.35h.33M6.83-54.35c.6.03 1.22.05 1.84 0" style="fill:none;stroke:#000;stroke-width:.3"/><path d="M4.1-54.35c-.86.19-1.43.75-1.5 2.2 0 .53.79 1.33 1.58 1.6 3.27 1.14 6.72.17 10.26-.18.7 0 1.01-.67 1.15-1.6.03-1.45-2.22-1.94-4.35-2.02M8.67-54.35l.42-.05c.11-.02.15.03.3.05M4.1-54.35c.74-.17 1.7-.06 2.74 0M51.87-46.4c-1.1-.3-1.86-.9-1.99-1.95-.06-.5.7-1.68 2.17-1.72.96-.03 1.58-.15 2.23-.25M53.2-46.2c.34.03.7.04 1.08.04M53.2-46.2c-.48-.03-.93-.1-1.33-.2" style="fill:none;stroke:#000;stroke-width:.3"/><path d="m46.33-46.52 1.7-.15c.52 0 1.58-1.18 1.78-1.68.41-1.03-.33-1.57-1.52-1.87M45.84-50.55c.87.06 1.74.15 2.45.33M45.84-50.55l-1.62-.1c-.73 0-1.55-.03-2.37 0M44.2-46.32c-3.46.3-7.12.37-7.31-1.58a3.34 3.34 0 0 1 2.33-2.39M44.2-46.32l2.13-.2M41.84-50.66c-.9.02-1.82.1-2.62.37M30.2-46.36c.84-.07 1.7-.17 2.53-.3M31-50.33c1.35.07 2.7.15 3.9.26M31-50.33l-1-.05c-1.57-.07-2.53.13-3.94-.04a.85.85 0 0 0-.23-.04M30.2-46.36c-3.5.28-6.82-.01-7.34-1.9" style="fill:none;stroke:#000;stroke-width:.3"/><path d="M32.73-46.65c.94-.14 1.84-.3 2.66-.46.66-.13 1.8-.75 1.54-1.54-.09-.62-.84-1.2-1.55-1.37l-.48-.05M22.8-48.53c-.02-.36.1-.82.7-1.27.17-.1.51-.25.9-.38M25.83-50.46c-.37 0-.94.13-1.43.29M22.8-48.53a1.67 1.67 0 0 0 .06.28M22.86-48.25c-.01.64-.91 1.22-1.44 1.32-.83.15-1.75.3-2.7.43M20.03-49.89c-.82-.1-1.5-.22-2.14-.33M15.92-46.2c.93-.07 1.88-.17 2.8-.3M10.2-46.55c.5.16 1.07.26 1.7.33M10.2-46.55c-1.04-.32-1.77-.83-2.04-1.62-.09-1.77 4.55-2.52 7.03-2.34h.26c.86.03 1.6.15 2.44.3M22.8-48.53l-.01-.04c-.3-.66-.66-1.1-1.46-1.19l-1.3-.13" style="fill:none;stroke:#000;stroke-width:.3"/><path d="M22.8-48.53c.04.1.06.18.06.28M11.9-46.22c1.2.13 2.6.12 4.02.02M46.33-46.52a9.1 9.1 0 0 0-2.13.2M42.14-44.35c.3.9 1.12 1.55 2.1 1.88M42.1-44.46l.04.11M42.1-44.46c-.17-.7.8-1.32 1.5-1.68l.6-.18M44.24-42.47c.3.1.63.18.96.22l.48.07M45.68-42.19c1.07.12 2.08.07 3.07-.06M46.33-46.52c.62 0 1.24.03 1.87.03 1.2 0 2.52-.02 3.67.08M50.22-42.5c-.49.1-.98.19-1.47.25M53.2-46.2c-.4-.1-.85-.16-1.33-.2M53.2-46.2c.44.12.8.28 1.08.5M50.22-42.5c1.01-.19 2.03-.43 3.1-.63.34-.06.69-.24.96-.51M36.77-42.48c1.07-.02 2.16-.07 3.32-.2M31.87-42.35l-.2.01c-.59-.03-1.33-.1-2-.26M42.14-44.35c.1.5-.54 1.45-1.36 1.57l-.7.1M42.1-44.46l.04.11M30.2-46.36c-1.14.32-2.07.96-2.5 2.17.02.88.92 1.34 1.97 1.59M32.73-46.65c-.88 0-1.76.07-2.53.29M32.73-46.65c1.07 0 2.16.1 3.1.16 2.3.14 5.24-.12 6.27 2.03M31.87-42.35c1.69-.13 3.27-.1 4.9-.13M14.09-43.95c.05.6.86 1.06 1.64 1.28" style="fill:none;stroke:#000;stroke-width:.3"/><path d="M14.1-44.18c.19-1.13.88-1.72 1.82-2.02M15.73-42.67l.3.07c.85 0 1.68.04 2.51.09M22.9-42.36c-1.44.04-2.89-.07-4.35-.15M25.18-42.6c.4-.06.79-.15 1.19-.27.7-.17 1.5-.75 1.26-1.56-.6-2.1-3.12-2.24-6.48-2.06-.72.04-1.57 0-2.43 0M18.72-46.5c-.99 0-1.99.04-2.8.3M22.9-42.36c.76-.03 1.52-.1 2.28-.23M14.09-43.95a2.75 2.75 0 0 1 .02-.22M2.25-42.57c.08.03.17.05.26.06l.46-.03M2.5-46.32c-.97.33-1.64 1-1.67 2.3 0 .48.7 1.23 1.42 1.45M7.84-42.7c-1.61.06-3.22.1-4.87.17M14.09-43.95c-.13.45-.75.86-1.15.9-.92.1-1.82.18-2.7.24M11.9-46.22c.86.3 1.6.83 2.1 1.76.06.1.1.19.1.28M4.5-46.62c-.72.02-1.42.1-2 .3M10.2-46.55c.6.05 1.17.15 1.7.33" style="fill:none;stroke:#000;stroke-width:.3"/><path d="M14.09-43.95a.62.62 0 0 0 .02-.23M7.84-42.7c.8-.03 1.6-.06 2.4-.11M4.5-46.62c1.06-.03 2.18.06 3.13.04.85-.01 1.73-.04 2.57.03M53.98-42.66l.3.04M50.22-42.5c1.36-.14 2.68-.2 4.06-.11M48.75-42.25c-.82.31-1.49 1.06-1.52 1.86-.04.92.8 1.31 1.62 1.48M48.85-38.9l.47.07 1.48.09M50.8-38.74c1.17.07 2.33.13 3.48.12M50.22-42.5l-.91.12a2.3 2.3 0 0 0-.56.13M44.24-42.47c.52.04 1 .12 1.44.29M44.24-42.47c-1.07-.07-2.26.02-3.33-.17h-.44a15.8 15.8 0 0 0-.38-.05M40.09-42.69c-1.23-.11-2.14 0-3.32.2M37.06-38.73c.55.05 1.1.02 1.65-.1M36.77-42.48l-1.36.23c-.77.14-1.64 1.18-1.3 2 .24.6.83 1.07 1.48 1.24.48.14.97.24 1.47.29" style="fill:none;stroke:#000;stroke-width:.3"/><path d="M45.68-42.19c.6.24 1.1.64 1.4 1.36.3.64-.53 1.7-1.35 1.82-2.36.6-4.54-.3-7.02.18M31.87-42.35a3.8 3.8 0 0 0-1.17-.16c-.4-.06-.73-.08-1.03-.1M31.87-42.35l.36.1c.83.12 1.83.44 1.65 1.6.12 0 .1 1.32-1 1.53-.59.1-1.16.18-1.73.23M25.18-42.6c-.91.1-1.46.12-2.28.24M20.41-40.4l.04.16c.35 1.06 1.96 1.3 3.14 1.3 2.1-.03 4.02.16 6 .13M20.45-40.82c-.04.13-.05.27-.03.41" style="fill:none;stroke:#000;stroke-width:.3"/><path d="M31.16-38.89c-.54.05-1.06.07-1.58.08M25.18-42.6c.3-.02.64-.06 1.04-.12.3-.04.8.06 1.26.01M29.66-42.6c-.7-.03-1.27 0-2.18-.1M20.45-40.82c.22-.76 1.23-1.38 1.99-1.47l.46-.07M27.81-42.78c-.1.04-.21.06-.33.07M27.4-42.72l.08.01M7.84-42.7c.6-.16 1.53-.08 2.12-.14l.27.03M7-39.01a2.2 2.2 0 0 1-.75-.23 1.7 1.7 0 0 1-.65-.65M20.41-40.4c-.18.55-.86 1.1-1.6 1.2-3.4.49-5.86.09-9.28.09-.4-.02-.81.02-1.22.07M5.7-41.16l-.15.46c-.08.33-.05.6.05.8M5.7-41.16c.36-.86.96-1.18 1.97-1.49l.17-.05M10.23-42.81c.96.05 1.83-.13 2.85.03.8.13 1.73.12 2.65.1M20.45-40.82v-.01c-.2-1.01-.93-1.47-1.9-1.68M15.73-42.67c1-.01 2-.02 2.81.16M7-39.01c.43.06.87.01 1.31-.03M20.41-40.4a.84.84 0 0 0 .04-.42M52.02-35c1.25-.22 2.3-.8 2.2-2.12-.12-.94-1.08-1.08-2.08-1.37-.45-.1-.9-.19-1.34-.25M52.02-35c-.46.08-.96.11-1.43.11M48.85-38.9c-.45-.02-.9-.01-1.36.01-2.24.12-5.6.04-5.77 2.48.38 1.14 2 1.53 3.3 1.65 1.53.11 2.95-.24 4.54-.18.31.03.66.05 1.02.05M48.85-38.9c.65 0 1.3.06 1.95.16M28.52-34.98c.13.04.27.05.41.04" style="fill:none;stroke:#000;stroke-width:.3"/><path d="M39.75-35c1.11-.21 2.22-1.08 1.97-2.24-.18-.65-.88-1.24-1.65-1.41-.47 0-.94-.12-1.35-.18M28.93-34.94c3.19-.3 6.01-.1 9.19-.02M31.16-38.89c-.54 0-1.07 0-1.58.08M28.52-34.98c-.72-.2-1.34-1.02-1.49-1.57-.3-1 .78-1.72 1.67-2.04.28-.1.58-.18.88-.22M38.71-38.83c-.55.04-1.1.08-1.65.1M38.12-34.96l1.07.02c.18 0 .37-.02.56-.05M31.16-38.89c.47 0 .94.02 1.4 0 .41-.01 1.26 0 1.68.06.93.13 1.87.15 2.82.1M25.28-35.14c-.4.15-.84.24-1.27.3M14.64-34.89l.25.05M12.34-37.34c-.07.15-.1.32-.11.52M14.64-34.89c-1.24-.22-2.4-.77-2.41-1.88v-.05" style="fill:none;stroke:#000;stroke-width:.3"/><path d="M25.28-35.14c.96-.35 1.72-1.01 1.65-2.16-.65-2.2-5.13-1.53-7.78-1.53-1.77 0-3.53-.35-5.12.3-.66.28-1.42.55-1.7 1.19M19.15-34.73l-2.77-.03M19.15-34.73a89.64 89.64 0 0 0 4.86-.12M15.2-34.8c.42.04.82.05 1.18.04M15.2-34.8l-.3-.05M10.92-35.13l.1-.05c.7-.4.96-.9 1.2-1.64M10.92-35.13c-.48.24-.96.37-1.46.42" style="fill:none;stroke:#000;stroke-width:.3"/><path d="M8.31-39.04c1.84.03 3.67.44 4.03 1.7M5.51-34.8c-.86.02-1.72 0-2.58-.09M7-39.01l-.7.06c-1.04.12-2.03.18-3.07.07" style="fill:none;stroke:#000;stroke-width:.3"/><path d="m12.23-36.83.13-.42-.02-.1M7-39.01c.42-.03.87-.04 1.31-.03M2.93-34.89c-.52-.06-1.04-.15-1.57-.29a1.75 1.75 0 0 1-1.2-1.21l-.01-.12M9.46-34.7c-1.1.12-2.24-.08-3.39-.12l-.56.01M3.23-38.88h-.05c-.39.03-.8.05-1.17.17M.15-36.77v.26M2.01-38.71c-.13.04-.25.1-.36.18-.66.45-1.42.98-1.5 1.76M52.02-35c.5.01 1.03.06 1.54.06h.72M54.28-30.8c-.39-.01-.77-.02-1.15-.05M50.01-31.34c.2.08.4.14.6.17.87.18 1.7.28 2.52.32M52.02-35c-.5-.02-.98 0-1.43.11M50.59-34.89c-.13.03-.26.07-.39.13-.76.4-1.93 1.2-1.58 2.14.19.54.76 1.03 1.4 1.28M44.39-30.82c-1.37-.03-2.72-.1-4.1-.17M46.35-31.02a6.04 6.04 0 0 1-1.96.2M38.18-31.08l.3.03 1.8.06" style="fill:none;stroke:#000;stroke-width:.3"/><path d="M46.35-31.02c1.08-.3 1.98-.94 2.16-2.08-.09-.97-.62-1.6-2.48-1.6-2.57 0-4.55-.18-4.55-.18L39.75-35M38.12-34.96a9 9 0 0 1 1.63-.03M38.12-34.96a4.4 4.4 0 0 0-1.05.26c-.71.35-1.54 1.17-1.24 1.94.32.86 1.24 1.53 2.35 1.68M25.28-35.14c1.01-.1 2.11.05 3.24.16M25.28-35.14a4.8 4.8 0 0 0-1.27.3M28.52-34.98l.41.04" style="fill:none;stroke:#000;stroke-width:.3"/><path d="m24.01-34.85-.44.2c-.77.42-1.7 1.36-1.36 2.18.53 1.36 2.52 1.14 3.94 1.14 3-.06 6 .75 8.97-.25.68-.23.63-1.17.53-2.07-.27-2.32-4.4-1.08-6.72-1.3M19.15-34.73c-.9-.12-1.8-.2-2.77-.03M15.84-30.88c-1.69.06-3.37.1-5.03-.12" style="fill:none;stroke:#000;stroke-width:.3"/><path d="M20.05-31.06c1.1-.27 2.08-.97 1.99-2.05-.06-.77-1-1.36-1.95-1.48l-.94-.14M15.2-34.8c.4.01.82-.12 1.18.04M10.92-35.13a5.48 5.48 0 0 0-1.46.42M14.9-34.84l-.26-.05M15.2-34.8l-.17-.02-.14-.03M9.46-34.7c-.87.42-1.76 1.34-1.39 2.35.18.42.53.89 1 1 .23.07.46.12.7.17M20.05-31.06a4.3 4.3 0 0 1-1.02.13c-1.06-.02-2.13.02-3.19.05M10.92-35.13c1.2-.16 2.45.04 3.72.24M9.76-31.18l1.05.18M50.01-31.34a6 6 0 0 1 .37.05c.94.1 1.85.15 2.75.44M54.28-30.34a5.92 5.92 0 0 0-1.15-.5M46.35-31.02c-.67.04-1.36.07-1.96.2M50.01-31.34a4.85 4.85 0 0 0-1.69.11c-.57.14-1.26.18-1.97.22M49.97-27.03c.83 0 1.68-.05 2.53-.13.26-.02.53-.05.8-.12M44.39-30.82c-1.15.23-1.99.8-1.85 2.3.06.41.6.83 1.12 1 2.15.3 4.2.5 6.3.49M53.44-27.32c.3-.08.58-.19.84-.33M53.3-27.28l.14-.04M39.12-27.24a8.12 8.12 0 0 1-2.18.02M29.49-27.32c-.95-.22-1.73-.8-1.97-1.61-.2-.53.44-1.74 1.47-1.95 1.94-.38 3.77 0 5.72-.05.96-.03 2.23-.13 3.47-.15M36.94-27.22c-1.78-.2-3.49-.02-5.25.01M38.18-31.08c.73-.01 1.46.01 2.1.1M29.49-27.32c.22.06.45.09.68.1.51.02 1.02.02 1.52.01" style="fill:none;stroke:#000;stroke-width:.3"/><path d="m39.12-27.24.9-.16c1.11-.3 2.4-.88 2.58-2.12-.1-.9-1.05-1.3-2.31-1.47M21.27-31.17c-.42.05-.82.09-1.22.11M22.02-26.86c.85-.04 1.7-.14 2.52-.31M22.02-26.86c-1.87.1-3.8-.08-5.7-.42-.94-.12-2.06-.53-2.24-1.41-.26-1.13.69-1.87 1.76-2.19" style="fill:none;stroke:#000;stroke-width:.3"/><path d="M20.92-31.17c2.7-.47 5.75.06 6.42 1.47.3.77-.06 1.71-1.3 2.12-.49.17-.99.3-1.5.4M20.05-31.06c-1 .06-1.97.05-3.02 0-.38 0-.8.07-1.19.18M8.24-27.28c-.47-.03-.93-.06-1.4-.06-2 .11-5.26.2-5.82-1.15M5.7-31.23c-1 .02-2.03.08-2.88.36M1.11-29.4c.32-.77.94-1.21 1.71-1.47M10.81-31l-1.05-.18M1.11-29.4c-.07.2-.13.41-.17.65.02.09.04.18.08.26" style="fill:none;stroke:#000;stroke-width:.3"/><path d="M9.76-31.18a9.8 9.8 0 0 0-2.16-.1c-.57.03-1.23.03-1.9.05M11.54-27.17h-.17c-1.05.09-2.09-.03-3.13-.1M11.54-27.17c1.32-.1 2.82-.6 2.43-2.58-.07-.35-.6-.83-1.12-.89-.7-.1-1.36-.23-2.04-.36M53.45-27.28h-.15M53.3-27.28c-1.03 0-2.26.01-3.33.25M53.44-27.32c.27.02.55.03.84.03M47.67-25.49c.07-.55.64-.88 1.24-1.2a5.3 5.3 0 0 1 1.05-.34M47.73-24.98c.3 1.12 1.6 1.59 2.77 1.59M47.67-25.49c-.02.15 0 .32.06.5M53.44-27.32l-.29-.02M51.31-23.36l-.81-.03M51.31-23.36c1 .04 1.98.08 2.97.06M33.98-25.48c.19-.6.82-1.1 1.38-1.39a5.5 5.5 0 0 1 1.58-.35M33.94-25.27v.29c.12.82 1.12 1.24 2 1.41.58.1 1.15.17 1.71.23" style="fill:none;stroke:#000;stroke-width:.3"/><path d="M47.73-24.98c.02-.2 0-.37-.06-.5M39.12-27.24c-.74-.01-1.47-.04-2.18.02M39.57-23.21c2.3.07 4.57-.17 6.98-.71.47-.12.94-.6 1.18-1.06M39.12-27.24c.63 0 1.26 0 1.9-.1 1.99-.3 4.75-.01 5.68.82.43.4.82.63.97 1.03M39.57-23.21c-.64-.02-1.27-.07-1.92-.13M33.98-25.48l-.04.21M29.49-27.32c.65.04 1.3.1 2 .1l.2.01M24.54-27.17c-.92.03-1.82.08-2.52.32M20.63-25.3V-25.05M20.63-25.06c0 .51.3.85.7 1.02 2.24.83 4.53.72 7.01.77M33.94-25.27c.02-.07.04-.14.04-.22M29.49-27.32c-.77-.04-1.55-.07-2.44.04-.74.09-1.63.08-2.51.1M28.34-23.27c.8.01 1.65-.03 2.48-.16M22.02-26.86c-.77.26-1.31.72-1.39 1.57" style="fill:none;stroke:#000;stroke-width:.3"/><path d="M33.98-25.48c.11-1.02-1.26-1.61-2.29-1.73M33.94-25.27l-.01.04c-.18.53-.24.85-.89 1.15a8.2 8.2 0 0 1-2.22.65M5.84-25.76c-.1.17-.16.35-.18.54.03.14.07.26.14.38M20.63-25.3a.88.88 0 0 0-.23-.46c-1.76-2-4.62-1.12-7.16-1.42l-.51-.04c-.44.06-.82.06-1.2.05M15-23.23c-1.54-.01-3.08-.13-4.7-.07" style="fill:none;stroke:#000;stroke-width:.3"/><path d="M11.54-27.17c-.79-.03-1.5-.17-2.46-.17a3.9 3.9 0 0 0-.84.06M5.8-24.84c.43.79 1.58 1.28 2.73 1.47M15-23.23c.81 0 1.62-.03 2.45-.12M20.63-25.06a.74.74 0 0 0 0-.23M10.3-23.3l-.46.03c-.4.01-.86-.02-1.31-.1M5.84-25.76c.4-.73 1.36-1.32 2.4-1.52M17.45-23.35l.7-.1c.96-.14 2.32-.83 2.48-1.61M46.16-19.38h.1c2.41-.18 4.77-.06 7.01-.77.47-.12 1.12-.65.88-1.24a3.44 3.44 0 0 0-2.84-1.97M41.9-21.86c-.07.17-.1.33-.08.48" style="fill:none;stroke:#000;stroke-width:.3"/><path d="M44.84-19.4c.44.04.88.05 1.32.02M44.84-19.4a6.01 6.01 0 0 1-1.23-.28c-.74-.34-1.72-.93-1.8-1.7M51.31-23.36a5 5 0 0 0-.81-.03M41.9-21.86c1.12-2.53 4-1.18 6.24-1.53.76-.12 1.71.18 2.36 0M26.82-21.37c.4 1.06 1.5 1.43 2.68 1.72M26.82-21.37v-.02a.96.96 0 0 1-.03-.4M26.79-21.8c.1-.67.87-1.28 1.55-1.47M30.82-23.43c-.82.02-1.64.06-2.48.16M39.1-19.49l-.2.05c-.55.08-1.07.15-1.59.2M30.82-23.43c1.26-.03 2.52 0 3.77.04M29.5-19.66l.14.04c1.38.26 2.69.42 4 .49" style="fill:none;stroke:#000;stroke-width:.3"/><path d="M37.31-19.23a24.2 24.2 0 0 1-3.68.1M37.65-23.34c-1.14.05-2.26.22-3.41-.05M41.9-21.86c-.33-.74-1.34-1.15-2.33-1.35M39.57-23.21c-.27-.06-.54-.1-.8-.12a9.38 9.38 0 0 0-1.12-.01M41.82-21.38c-.33 1.2-1.56 1.63-2.72 1.9M41.9-21.86c-.01.17-.04.33-.08.48M20.44-19.13c1.07.08 2.12.09 3.17-.08M26.82-21.37c.01-.14 0-.28-.03-.43M26.82-21.37c-.06.8-.82 1.5-1.6 1.77M17.45-23.35c.93.06 1.85.17 2.6.15 1.64-.04 2.93-.49 4.76-.07.82.23 1.7.64 1.94 1.35l.04.12M25.21-19.6l-.1.04c-.5.16-1 .28-1.5.36M15.07-19.56h.11M15.8-19.55a19.71 19.71 0 0 0-.62 0M20.44-19.13c-1.52-.1-3.07-.35-4.63-.42M15-23.23c.73-.19 1.6-.18 2.45-.12M15-23.23c-.2.05-.39.11-.56.2-.37.17-1.46.8-1.54 2-.05.93 1.19 1.44 2.17 1.47M7-23.37l.43.04M7-23.37h1.53M7-23.37l-.58-.02M9.79-19.26c-1.59.16-3.14.17-4.67 0M10.3-23.3a16.6 16.6 0 0 0-1.77-.07M9.79-19.26l.58-.06c.32-.06.58-.14.8-.24" style="fill:none;stroke:#000;stroke-width:.3"/><path d="M11.17-19.56c.68-.32 1.03-.87 1.76-1.92.33-.45-.14-1.09-.56-1.26a6.21 6.21 0 0 0-2.07-.56M3.12-19.62c.66.16 1.33.27 2 .35M7-23.37c-1.93-.17-3.9-.33-5.76.21-.65.18-1.3.91-.94 1.77.44 1.06.82 1.18 1.53 1.42.43.13.86.25 1.3.35M48.39-17.48c0 .09.02.18.05.28.36.98 1.4 1.46 2.52 1.64M48.45-17.96c-.05.15-.07.31-.06.48M50.96-15.56l.48.07c.51 0 1.01.02 1.51.03M52.95-15.46l1.33.03M48.45-17.96c.2-.67.9-1.2 1.46-1.42 1.36-.46 2.86-.44 4.37-.35M39.1-19.49c.51 0 1.03.02 1.56.05 1.44.07 2.8.02 4.18.03M48.39-17.48c-.26.79-1.24 1.32-2.07 1.69-.23.1-.46.17-.7.25M39.42-15.38c-.77-.14-1.54-.32-2.3-.53a1.88 1.88 0 0 1-1.35-1.12c-.4-.96.72-1.92 1.54-2.2M48.45-17.96c0-.07-.01-.13-.03-.2-.11-.47-.8-1.17-1.4-1.17l-.86-.05" style="fill:none;stroke:#000;stroke-width:.3"/><path d="M39.1-19.49a6.32 6.32 0 0 0-1.79.26M44.84-19.4c.44 0 .88 0 1.32.02M43.79-15.16c-.99.12-2 .1-3-.02M43.79-15.16c.62-.07 1.23-.2 1.83-.39M48.39-17.48c.05-.15.07-.31.06-.49M40.8-15.18a19.5 19.5 0 0 1-1.38-.2M30.77-15.37c.68.05 1.3-.08 1.9-.21M25.21-19.6a4.64 4.64 0 0 0-1.6.4M25.96-15.63c-.77-.03-1.53-.12-2.29-.33M25.21-19.6c.94-.07 1.9.06 2.9-.02.47-.04.93-.05 1.39-.03M23.61-19.2c-.78.38-1.56 1.22-1.28 2.17.18.53.71.95 1.3 1.06l.04.02M32.67-15.58c.42-.1.84-.18 1.27-.21 1.89-.12 1.65-1.06 1.65-1.89-.1-.85-1.07-1.22-1.96-1.45M25.96-15.63c1.54.07 3.1-.06 4.74.25h.07M29.5-19.66a28.38 28.38 0 0 1 4.13.52M16.08-15.57c.69-.03 1.37-.08 2.06-.12M15.07-19.56h-.46a14.9 14.9 0 0 0-3.44 0M20.44-19.13c-1.81-.27-2.06-.4-3.97-.4l-.66-.02M9.52-15.74c.83.13 1.64.2 2.45.24M16.08-15.57c-1.36.08-2.73.13-4.11.07M9.79-19.26c.44-.14.9-.24 1.38-.3" style="fill:none;stroke:#000;stroke-width:.3"/><path d="m20.44-19.13.27.04c.71.12 1.21.24 1.45.94.35 1.06-.84 2.34-1.77 2.36-.76.02-1.5.06-2.25.1M9.79-19.26c-.16.05-.32.1-.48.17-.77.3-1.83 1-1.47 2.06.17.53.7 1.18 1.35 1.24l.33.05M15.07-19.56h.11M15.8-19.55h-.62M50.96-15.56c.71-.04 1.39-.05 2 .1M43.79-15.16c-.79.33-1.36.92-1.42 1.9 1 1.48 3.1 1.43 4.37 1.55.88.08 1.74.13 2.58.13M51.78-11.77c.66-.11 1.3-.27 1.96-.48.19-.06.37-.16.54-.3M52.95-15.46c.5.13.95.37 1.33.79" style="fill:none;stroke:#000;stroke-width:.3"/><path d="M45.63-15.54c-.66.04-1.3.15-1.84.38M45.63-15.54c.95-.07 1.93 0 2.66.07.87.08 1.8-.03 2.67-.08M51.78-11.77c-.81.13-1.63.19-2.46.19M39.42-15.38c-1.7-.2-4.26-.38-4.89-.3h.12c-.7 0-1.34.04-1.98.1M30.77-15.37c.66-.08 1.27-.16 1.9-.21M30.77-15.37l-1.95.23c-.67.07-1.65.82-1.36 1.7.24.72.94 1.2 1.7 1.43M36.2-11.67c1.24-.05 2.47-.15 3.73-.34M36.2-11.67c-1.53.05-3.06.02-4.62-.08M40.8-15.18c.65.15 1.3.53 1.5 1.16.33.94-.64 1.7-1.23 1.82l-1.14.2M29.16-12.01c.18.05.36.09.54.1.63.07 1.26.12 1.88.16M40.8-15.18a17.65 17.65 0 0 0-1.37-.2M13.85-13.8a1 1 0 0 0 .06.4M16.06-12c-.88-.17-1.68-.5-2.1-1.26l-.05-.13M16.08-15.57c-.3.06-.59.14-.88.25-.52.24-1.3.82-1.35 1.52M21.93-11.76a48.5 48.5 0 0 0 2.27-.19M16.06-12c.63.12 1.3.17 1.91.25h.05M20.92-15.85a27.7 27.7 0 0 1 2.75-.1M25.96-15.63c.78.28 1.2.75 1.15 1.49-.06.87-.44 1.9-1.3 2l-1.6.2M25.96-15.63c-.58-.2-1.36-.3-2.29-.33M21.93-11.76c-1.24.07-2.54.1-3.91 0M18.14-15.69c-.7 0-1.38 0-2.06.12M21.27-15.97c-1 .34-2.06.3-3.13.28M13.9-13.4c-.03.65-.6 1.35-1.17 1.38l-1.82.1M7.07-11.73c-.97.03-1.95.05-2.95.03M2.56-15.5h-.03c-.53.18-.94.71-1.23 1.24-.47.94.25 1.94 1.12 2.35M7.07-11.73a146 146 0 0 0 3.84-.18M9.52-15.74c-.84.02-1.7.07-2.5 0-.74-.05-1.47-.1-2.19-.1M2.56-15.5c.73-.24 1.5-.33 2.27-.34M4.12-11.7l-1-.02a1.9 1.9 0 0 1-.7-.19" style="fill:none;stroke:#000;stroke-width:.3"/><path d="M13.9-13.4c.02-.13 0-.27-.05-.4M13.85-13.8c0-.03-.02-.05-.03-.07a2.85 2.85 0 0 0-1.85-1.64M9.52-15.74c.87-.01 1.72 0 2.45.24M51.78-11.77c.36.01.72.03 1.06.06.46.04.95.02 1.44-.02M51.17-7.76c1.05.08 2.08.14 3.1.12M51.78-11.77c-.84-.04-1.7 0-2.46.19M49.44-7.96c.27.06.54.1.82.13l.91.07M47.12-9.43c.6.84 1.4 1.27 2.32 1.47M47.2-9.83c.4-1 1.18-1.5 2.12-1.75M47.2-9.83l-.12.34.04.05M39.93-12c-1.24.07-2.52.07-3.73.33M47.2-9.83c0-.1-.02-.2-.06-.3-.3-.65-1-1.24-1.89-1.54a13.79 13.79 0 0 0-5.32-.34M39.64-7.94a31 31 0 0 0-2.34-.01c-.32.02-.66.03-1 .01" style="fill:none;stroke:#000;stroke-width:.3"/><path d="M36.2-11.67c-.34.07-.69.17-1.02.3-.65.3-1.65 1.06-1.41 1.89.27 1.1 1.4 1.48 2.54 1.54M47.2-9.83a1 1 0 0 1-.08.4M39.64-7.94c2.12.08 4.2.22 6.32-.43.4-.16.95-.57 1.16-1.07M31.58-11.75c-.73-.19-1.58-.25-2.42-.26M20.27-9.73l.06.13c.47 1.06 1.65 1.31 2.71 1.3M20.23-10.09c.05-.62.72-1.24 1.28-1.52a4 4 0 0 1 .42-.15M21.93-11.76a6.83 6.83 0 0 1 2.27-.19" style="fill:none;stroke:#000;stroke-width:.3"/><path d="M24.2-11.95c.88.04 1.78.13 2.67.05.67-.06 1.48-.12 2.3-.11M23.04-8.3c4.66-.1 4.7.74 8.06-.05.62-.15 2.43-.4 2.52-1.2.14-1.24-.77-1.89-2.03-2.2M20.23-10.09c-.01.12 0 .24.04.36M14.74-7.72a32.9 32.9 0 0 1-4.08-.14M5.52-10.51c-.04.2-.04.4.02.61l.06.2" style="fill:none;stroke:#000;stroke-width:.3"/><path d="M20.27-9.73a.56.56 0 0 0-.04-.36M16.06-12c.69 0 1.34.06 1.96.25M16.68-7.9c-.64.1-1.29.15-1.94.18M16.06-12c-.79 0-1.61.04-2.46.02-.44.1-2.1.1-2.21.1l-.48-.03M20.23-10.09l-.05-.07a4.04 4.04 0 0 0-2.16-1.6M20.27-9.73c-.09.52-.77 1.1-1.18 1.25-.8.27-1.6.46-2.4.58M5.52-10.51c.12-.55.62-.98 1.18-1.11l.37-.1M9.3-7.99l-.87-.08C7.26-8.24 5.99-8.61 5.6-9.7" style="fill:none;stroke:#000;stroke-width:.3"/><path d="M10.91-11.91c-2.76-.15-3.17-.02-3.84.18M9.3-7.99l1.36.13M41.73-5.7c.1.61.9 1.18 1.64 1.46l.27.08M41.72-6.26c.23-2.16 3.55-1.75 5.48-1.7l-.06.07c.65-.1 1.46-.12 2.3-.07M49.44-7.96c.58.04 1.17.1 1.73.2M43.64-4.17c.75.2 1.48.28 2.22.3M50.3-4h.14c.32-.03.6-.08.9-.14M45.86-3.88c1.46.04 2.93-.15 4.44-.13M41.72-6.26a2.44 2.44 0 0 0 0 .55M51.33-4.14c.4-.1.8-.21 1.23-.34 1.03-.3 1.71-.97 1.6-1.84-.07-.66-1.4-1.17-2.99-1.44M41.72-6.26a1.1 1.1 0 0 0-.06-.16 2.9 2.9 0 0 0-2.02-1.52M41.73-5.7c.04-.19.04-.37 0-.56M39.64-7.94l-.1-.01c-1.53-.2-2.07-.1-3.23.01M31.05-4.1c1 .08 1.98.17 2.95.23M37.63-3.87c-1.2.1-2.4.08-3.63 0M26.84-6.3a.67.67 0 0 0 .08.5M41.73-5.7c-.15.62-.8 1.15-1.36 1.28-.26.08-.5.16-.76.22M31.05-4.1l-1.41-.08c-1.14-.12-2.23-.62-2.72-1.61M37.63-3.87c.66-.06 1.32-.17 1.98-.33M26.84-6.3c.15-.57 1-1 1.52-1.34 1.3-.8 7.03-.22 7.03-.22l.92-.08M16.68-7.9a5.23 5.23 0 0 0-1.94.18" style="fill:none;stroke:#000;stroke-width:.3"/><path d="m26.84-6.3.03.06c.06.15.07.3.05.45M13.14-5.71c.47.97 1.5 1.42 2.6 1.6M15.75-4.11c.43.06.87.09 1.3.09h.13M17.18-4.02c2-.05 3.55.22 5.57.04.94-.11 2.06.03 2.82-.38.57-.28 1.25-.83 1.35-1.43M13.12-6.34c-.07.21-.08.42.02.63M23.04-8.3c1.45.17 3.14.57 3.8 2M23.04-8.3c-1.18.11-2.37.07-3.53.35-.93.22-1.9.1-2.83.05M13.12-6.34c.19-.51.81-1 1.32-1.26l.3-.12M9.3-7.99a9 9 0 0 1 1.36.13M13.12-6.34c-.23-.8-1.23-1.3-2.04-1.44a8.06 8.06 0 0 0-.42-.08M3.68-8.08c-.68-.04-1.3.02-1.95.35M13.14-5.71c-.23.58-.64 1.11-1.23 1.23M9.3-7.99c-.88-.02-1.74.06-2.7.1-1.16.04-2.08-.15-2.92-.2M2.66-4.2c.85.16 1.7.23 2.57.25" style="fill:none;stroke:#000;stroke-width:.3"/><path d="M9.72-4.17c-1.51.11-3.01.25-4.5.22M9.72-4.17l.12-.01c.8-.06 1.1-.1 2.06-.3M1.73-7.73l-.02.01C1-7.25 0-6.72.24-5.77c.17.65.64 1.12 1.12 1.23.43.14.86.25 1.3.34M13.14-5.71a1.3 1.3 0 0 0-.02-.63M53.1-.23h-.9c-1.4.01-3-.35-3.9-1.54M48.35-2.21a3.8 3.8 0 0 0-.09.39l.04.05M51.33-4.14c.98-.05 2.04.07 2.95.08M50.3-4c-.91.2-1.64.7-1.95 1.79M50.3-4c.33-.08.67-.12 1.03-.14M43.64-4.17c-.55-.01-1.13 0-1.71.02l-.84-.14c-.54.03-1.02.05-1.48.09M45.86-3.88c-.7-.2-1.44-.27-2.22-.29M39.61-4.2a9.3 9.3 0 0 0-1.98.33M35.57-2.43c-.04.17-.03.35.02.55" style="fill:none;stroke:#000;stroke-width:.3"/><path d="M48.3-1.77c.06-.15.08-.3.05-.45M37.63-3.87a8.8 8.8 0 0 0-.74.25c-.63.27-1.2.66-1.32 1.2M48.3-1.77c-.2.5-.87 1-1.4 1.06-3.78.5-6.6.58-10.25-.11-.47-.1-.94-.6-1.06-1.06" style="fill:none;stroke:#000;stroke-width:.3"/><path d="M45.86-3.88a5 5 0 0 1 2.34 1.4c.08.09.12.17.15.27M31.04-.23l-.34-.03c-1.17-.15-2.34-.04-3.5.03M22.21-2.41c.65-2.65 3.8-1.15 5.93-1.3.95-.07 1.92-.28 2.91-.38M22.19-2.23c-.06.86.96 1.54 1.73 1.76.43.13.86.2 1.3.24M22.19-2.23l.02-.18M35.6-1.88a1.3 1.3 0 0 0-.03-.55M34-3.87c.73.27 1.4.78 1.57 1.44M35.6-1.88c-.24.7-.32.9-.97 1.3-.3.18-.67.29-1.05.35M33.58-.23c-.82.14-1.76.07-2.54 0" style="fill:none;stroke:#000;stroke-width:.3"/><path d="M25.22-.23c.65.06 1.31.04 1.98 0M31.05-4.1a7.27 7.27 0 0 1 2.95.23M22.19-2.23l.02-.18M22.19-2.23C21.92-.85 20.57-.44 19.2-.44c-3.62 0-6.54.18-10.02-.15-.76-.07-1.41-.7-1.7-1.35-.42-.89.64-1.83 1.4-2 .28-.1.55-.17.83-.23M9.72-4.17c.72-.18 1.44-.28 2.19-.3M17.18-4.02c2.46.13 4.97.27 5.04 1.6M15.75-4.11a14.9 14.9 0 0 1-1.55-.19c-.79-.15-1.55-.2-2.29-.18M15.75-4.11l1.43.09M.15-50.4c.29-.05.57-.12.85-.22.64-.29 1.76-1.17 1.35-2.06-.3-.76-1-1.24-1.83-1.35l-.37-.05M.15-46.16c.75 0 1.55-.07 2.35-.16M4.5-46.62c.78-.13 1.5-.27 2.15-.4.52-.1 1.42-.88 1.42-1.41-.18-.89-1.33-1.5-2.4-1.68-1.23 0-2.37-.36-3.7-.36-.76 0-1.3.07-1.82.15M4.5-46.62c-.64.12-1.32.22-2 .3M.15-43.62c.28-.27.48-.64.5-1.1 0-.43-.18-.76-.5-1M.15-42.63c.66.07 1.39.05 2.1.06M2.97-42.53a12.2 12.2 0 0 0-.73-.04M2.01-38.71c-.61.06-1.24.09-1.86.1M.15-42.62l.26.02M5.6-39.9c-.25.3-.6.54-.9.66-.48.15-.98.26-1.47.36M5.6-39.9c.26-.3.4-.69.23-1.05a2.86 2.86 0 0 0-.12-.21M5.7-41.16c-.6-1-1.62-1.29-2.73-1.38M2.01-38.71c.4-.04.82-.1 1.22-.17M2.82-30.87c-.9.03-1.78.07-2.67.06M5.7-31.23c.9-.43 1.62-1.26 1.36-2.12-.16-.66-.8-1.21-1.55-1.46M5.7-31.23c-.34.16-.7.26-1.05.3-.62 0-1.23.03-1.83.06M2.93-34.89c-.94 0-1.85-.03-2.78-.05" style="fill:none;stroke:#000;stroke-width:.3"/><path d="M5.51-34.8c-.31-.1-.65-.16-.98-.14-.55.04-1.08.05-1.6.05M1.11-29.4c-.09-.36-.49-.69-.96-.95M1.01-28.5c-.16.36-.48.65-.86.86M1.11-29.4c.07.35.03.65-.1.9M5.8-24.84c.16-.29.22-.59.09-.85l-.05-.07M5.84-25.76C4.77-27.64 2.3-27.3.15-27.3M5.8-24.84c-.28.5-.87.95-1.39 1.1-1.44.3-2.85.42-4.26.44M2.56-15.5c.76-.06 1.52-.16 2.27-.34M5.12-19.27c-.6-.23-1.3-.31-2-.35M2.56-15.5c-.8.06-1.6.07-2.41.07" style="fill:none;stroke:#000;stroke-width:.3"/><path d="m4.83-15.84.53-.13c.76-.17 1.7-1.12 1.3-1.88a2.6 2.6 0 0 0-1.54-1.42M3.12-19.62c-.75-.03-1.5-.01-2.18-.06l-.79-.05M.15-12.54c.42-.36.7-.95.5-1.42-.15-.3-.32-.54-.5-.74M1.73-7.73c.66-.07 1.3-.18 1.95-.35M5.6-9.7a2.67 2.67 0 0 1-1.92 1.62M4.12-11.7a4.76 4.76 0 0 0-1.7-.21M5.52-10.51a2.5 2.5 0 0 0-1.4-1.19M.15-7.64c.53 0 1.06-.03 1.58-.09" style="fill:none;stroke:#000;stroke-width:.3"/><path d="m5.52-10.51.01.02c.15.25.15.53.07.8M2.42-11.91c-.73.02-1.51.12-2.27.18M.15-4.06h.38c.66-.02 1.4-.1 2.13-.14M2.66-4.2a6.4 6.4 0 0 1 2.57.25M.18-.28c2.47.01 4.04-.19 4.93-.56.76-.41 1.95-1.04 1.54-1.93-.36-.6-.85-.97-1.42-1.18M.15-1.26c1.01.06 2.03-.62 2.52-1.97-1.1.55-1.8.8-2.52.8M26.76-2.6c1.12 2.47 3.82 2.25 4.72-.23-2.02 1.01-2.7 1.01-4.72.23zM17.53-6.65c1.12 2.48 3.82 2.25 4.72-.22-2.02 1.01-2.7 1.01-4.72.22zM45.07-6.4c1.12 2.48 3.82 2.25 4.73-.22-2.03 1.01-2.7 1.01-4.73.22zM24.46-10.83c1.13 2.47 3.83 2.25 4.73-.23-2.03 1.01-2.7 1.01-4.73.23zM.15-8.7c.81-.17 1.56-.83 1.96-1.92-.81.4-1.4.65-1.96.74M4.94-14.33c1.13 2.47 3.83 2.25 4.73-.23-2.03 1.01-2.7 1.01-4.73.23zM32.78-14.25c1.12 2.48 3.82 2.25 4.72-.23-2.02 1.02-2.7 1.02-4.72.23zM31.17-18.45c-2.03 1-2.7 1-4.73.22 1.13 2.47 3.83 2.25 4.73-.22zM.15-16.43c1.04.1 2.1-.58 2.6-1.96-1.13.56-1.84.81-2.6.79M22.19-22.06c-2.02 1.01-2.7 1.01-4.72.23 1.12 2.47 3.82 2.25 4.72-.23zM50-22.04c-2.02 1.01-2.7 1.01-4.72.23 1.12 2.47 3.82 2.25 4.72-.23zM29.36-26.16c-2.03 1-2.7 1-4.73.22 1.13 2.48 3.83 2.25 4.73-.22zM.15-24.3c.77-.21 1.47-.86 1.85-1.9-.76.37-1.33.61-1.85.72M4.99-29.77C6.1-27.3 8.8-27.52 9.7-30c-2.02 1.02-2.7 1.02-4.72.23zM32.4-29.86c1.13 2.48 3.83 2.25 4.73-.22-2.03 1.01-2.7 1.01-4.73.22zM26.46-33.81c1.13 2.47 3.83 2.25 4.73-.23-2.03 1.01-2.7 1.01-4.73.23zM.15-32.96c.98.19 1.74-.03 3.12-.72-.58 1.61-1.94 2.27-3.12 1.84M3.76-37.65c1.12 2.48 3.82 2.25 4.72-.22-2.02 1.01-2.7 1.01-4.72.22zM36.8-37.85c-2.03 1.01-2.7 1.01-4.73.23 1.12 2.47 3.82 2.24 4.72-.23zM29.1-41.64c-2.02 1.01-2.7 1.01-4.72.22 1.13 2.48 3.83 2.25 4.73-.22zM.15-39.54c.8-.18 1.54-.83 1.94-1.92-.8.4-1.4.65-1.94.75M9.5-45.43c-2.02 1-2.7 1-4.72.22 1.12 2.48 3.82 2.25 4.72-.22zM37.21-45.35c-2.02 1.01-2.7 1.01-4.72.23 1.12 2.47 3.82 2.24 4.72-.23zM.15-47.37c1.25.7 2.81.08 3.46-1.69-1.54.77-2.3.95-3.46.65M31.6-49.1c-2.02 1.01-2.7 1.01-4.72.23 1.13 2.47 3.83 2.24 4.73-.23zM24.48-53.02c-2.02 1.02-2.7 1.02-4.72.23 1.12 2.47 3.82 2.25 4.72-.23zM52.69-53.3c-2.02 1-2.7 1-4.72.22 1.12 2.47 3.82 2.25 4.72-.23zM39.38-1.56c2.03-.8 2.7-.8 4.73.22-.9-2.47-3.6-2.7-4.73-.22zM12.42-1.46c2.03-.79 2.7-.79 4.73.23-.9-2.48-3.6-2.7-4.73-.23zM4.46-5.02c2.03-.79 2.7-.79 4.73.22-.9-2.47-3.6-2.7-4.72-.22zM32.5-4.96c2.03-.79 2.7-.79 4.73.23-.9-2.48-3.6-2.7-4.72-.23zM10.88-8.98c2.03-.79 2.7-.79 4.73.23-.9-2.48-3.6-2.7-4.73-.23zM38.26-8.98c2.02-.79 2.7-.79 4.72.23-.9-2.48-3.6-2.7-4.72-.23zM51.36-12.59c-.9-2.47-3.6-2.7-4.73-.22 2.03-.8 2.7-.8 4.73.22zM39.84-16.63c2.02-.78 2.7-.78 4.72.23-.9-2.48-3.6-2.7-4.72-.23zM18.38-12.96c2.03-.79 2.7-.79 4.73.23-.9-2.48-3.6-2.7-4.73-.23zM12.76-16.65c2.02-.78 2.7-.78 4.72.23-.9-2.48-3.6-2.7-4.72-.23zM4.8-20.48c2.02-.79 2.7-.79 4.72.23-.9-2.48-3.6-2.7-4.72-.23zM31.84-20.5c2.02-.79 2.7-.79 4.72.23-.9-2.48-3.6-2.7-4.72-.23zM43.27-24.34c-.9-2.47-3.6-2.7-4.72-.22 2.02-.8 2.7-.8 4.72.22zM10.53-24.4c2.02-.78 2.7-.78 4.72.23-.9-2.48-3.6-2.7-4.72-.23zM50.96-28.17c-.9-2.48-3.6-2.7-4.72-.23 2.02-.78 2.7-.78 4.72.23zM18.78-28.13c2.02-.78 2.7-.78 4.72.23-.9-2.48-3.6-2.7-4.72-.23zM12.65-32.04c2.03-.79 2.7-.79 4.73.22-.9-2.47-3.6-2.7-4.73-.22zM21.92-35.88c-.9-2.48-3.6-2.7-4.73-.23 2.03-.78 2.7-.78 4.73.23zM50.13-35.76c-.9-2.47-3.6-2.7-4.73-.22 2.03-.79 2.7-.79 4.73.22zM38.28-39.96c2.02-.79 2.7-.79 4.72.23-.9-2.48-3.6-2.7-4.72-.23zM10.49-40.15c2.02-.78 2.7-.78 4.72.23-.9-2.48-3.6-2.7-4.72-.23zM18.8-43.63c2.02-.78 2.7-.78 4.72.23-.9-2.48-3.6-2.7-4.72-.23zM50.46-43.46c-.9-2.48-3.6-2.7-4.72-.23 2.02-.79 2.7-.79 4.72.23zM45.84-47.44c-.9-2.48-3.6-2.7-4.73-.23 2.02-.78 2.7-.78 4.73.23zM34.49-51.52c2.02-.79 2.7-.79 4.72.22-.9-2.47-3.6-2.7-4.72-.22zM17.42-47.38c-.9-2.48-3.6-2.7-4.73-.23 2.03-.78 2.7-.78 4.73.23zM6.24-51.65c2.02-.78 2.7-.78 4.72.23-.9-2.48-3.6-2.7-4.72-.23zM39.7-32.3c2.02-.78 2.7-.78 4.72.23-.9-2.47-3.6-2.7-4.73-.22zM54.28-2.44c-.62 0-1.27-.2-2.19-.56.51 1.12 1.34 1.69 2.19 1.74M54.28-9.88c-.82.14-1.55-.05-2.75-.52.62 1.38 1.73 1.92 2.75 1.7M54.28-17.6a6.73 6.73 0 0 1-2.1-.57c.49 1.09 1.28 1.65 2.1 1.74M54.28-25.48c-.86.17-1.6-.01-2.86-.5.65 1.42 1.81 1.95 2.86 1.68M54.28-32.96a9.2 9.2 0 0 1-1.59-.5c.4.85.96 1.38 1.59 1.61M54.28-40.71c-.83.14-1.56-.05-2.77-.52.62 1.38 1.74 1.92 2.77 1.7M54.28-48.41c-.37-.1-.77-.24-1.25-.42.31.7.75 1.18 1.25 1.45M54.28-50.32v-.08M.15-42.62v-.01M54.28-42.62v-.01" style="fill:none;stroke:#000;stroke-width:.3"/></svg>