<svg xmlns="http://www.w3.org/2000/svg" xml:space="preserve" width="53.98" height="53.98" viewBox="0.1 -53.98 53.98 53.98"><path d="M.1-53.98h53.98V0H.1z" style="fill:none"/><path d="M.1-47.06h53.98M54.08-51.31H.1M.1-48.9c.65.04 1.3.3 2.27.78-.44-1.23-1.34-1.9-2.27-1.97M4.4-49.6c1.12 2.47 3.82 2.25 4.72-.23-2.02 1.01-2.7 1.01-4.72.23zM27.62-38.33c-2.02 1.01-2.7 1.01-4.72.23 1.12 2.47 3.82 2.25 4.72-.23zM45.75-43.77c-2.03 1.02-2.7 1.02-4.73.23 1.13 2.47 3.83 2.25 4.73-.23zM27.32-23.14c1.13 2.47 3.83 2.25 4.73-.23-2.03 1.02-2.7 1.02-4.73.23zM.1-25.01c.48-.33.89-.86 1.15-1.57-.44.22-.8.39-1.15.51M26.87-12.64c-2.02 1.01-2.7 1.01-4.72.22 1.12 2.48 3.82 2.25 4.72-.22zM5.02-5.58C6.15-3.1 8.85-3.33 9.75-5.8c-2.03 1-2.7 1-4.73.22zM39.77-3.17C40.9-.69 43.6-.92 44.5-3.39c-2.03 1.01-2.7 1.01-4.73.22zM11.15-48.35c2.02-.78 2.7-.78 4.72.23-.9-2.48-3.6-2.7-4.72-.23zM10.75-42.12c-.9-2.48-3.6-2.7-4.73-.23 2.03-.78 2.7-.78 4.73.23zM38.02-31.03c2.03-.8 2.7-.8 4.73.22-.9-2.47-3.6-2.7-4.73-.22zM16.9-29.85c-.9-2.47-3.6-2.7-4.73-.22 2.03-.79 2.7-.79 4.73.22zM13.35-17.42c-.9-2.48-3.6-2.7-4.73-.23 2.03-.78 2.7-.78 4.73.23zM22.02-.97c2.03-.79 2.7-.79 4.73.22-.9-2.47-3.6-2.7-4.73-.22zM44.77-14.35c2.03-.78 2.7-.78 4.73.23-.9-2.48-3.6-2.7-4.73-.23zM17.9-49.6c1.12 2.47 3.82 2.25 4.72-.23-2.02 1.01-2.7 1.01-4.72.23zM24.65-48.35c2.02-.78 2.7-.78 4.72.23-.9-2.48-3.6-2.7-4.72-.23zM31.4-49.6c1.12 2.47 3.82 2.25 4.72-.23-2.02 1.01-2.7 1.01-4.72.23zM38.15-48.35c2.02-.78 2.7-.78 4.72.23-.9-2.48-3.6-2.7-4.72-.23zM44.9-49.6c1.12 2.47 3.82 2.25 4.72-.23-2.02 1.01-2.7 1.01-4.72.23zM54.08-50.09c-.93-.06-1.89.5-2.45 1.74a5.64 5.64 0 0 1 2.45-.55M54.08-26.07c-1.23.47-1.99.33-3.58-.28.8 1.76 2.4 2.15 3.58 1.34" style="fill:none;stroke:#000;stroke-width:.3"/></svg>