<svg xmlns="http://www.w3.org/2000/svg" xml:space="preserve" width="54.13" height="54.13" viewBox="1 -55.13 54.13 54.13"><path d="M1-55.13h54.13V-1H1z" style="fill:none"/><path d="M22.16-26.35h2.97c.41-1 2.06-1.01 2.4.02h2.92M22.16-25.03h2.97c.41.99 2.06 1 2.4-.02h2.92M29.4-17.92h2.98c.4-.99 2.06-1 2.39.02h2.93M29.4-16.6h2.98c.4 1 2.06 1.01 2.39-.02h2.93M2.76-4.84h2.97c.42-1 2.06-1.02 2.4.02h2.92M2.76-3.52h2.97c.42.99 2.06 1 2.4-.03h2.92M18.43-46.18h2.97c.41-.99 2.06-1 2.4.02h2.92M18.43-44.86h2.97c.41 1 2.06 1.01 2.4-.02h2.92M44.1-48.84h2.97c.4-1 2.06-1.02 2.39.02h2.93M44.1-47.52h2.97c.4.99 2.06 1 2.39-.03h2.93M36.25-38.9h2.97c.41-.99 2.06-1 2.4.03h2.92M36.25-37.58h2.97c.41 1 2.06 1.02 2.4-.02h2.92M45.9-23.86h2.97c.41-.99 2.06-1 2.4.02h2.92M45.9-22.54h2.97c.41 1 2.06 1.01 2.4-.02h2.92M45.82-13.71h2.97c.41-.99 2.06-1.01 2.4.02h2.92M45.82-12.39h2.97c.41.99 2.06 1.01 2.4-.02h2.92M36-5.18h2.97c.41-.99 2.06-1 2.4.02h2.92M36-3.86h2.97c.41 1 2.06 1.01 2.4-.02h2.92M17.63-8.48h2.97c.41-.99 2.06-1 2.4.02h2.92M17.63-7.16h2.97c.41 1 2.06 1.01 2.4-.02h2.92M6.2-18.03h2.96c.41-.99 2.06-1.01 2.4.02h2.92M6.2-16.7h2.96c.41.98 2.06 1 2.4-.03h2.92M1.9-33.16h2.97c.41-.99 2.06-1.01 2.4.02h2.92M1.9-31.84h2.97c.41 1 2.06 1.01 2.4-.02h2.92" style="fill:none;stroke:#000;stroke-width:.3"/></svg>