<svg xmlns="http://www.w3.org/2000/svg" xml:space="preserve" width="46.75" height="46.75" viewBox="0 -46.75 46.75 46.75"><path d="M0-46.75h46.75V0H0z" style="fill:none"/><path d="M37.82-45.44h7.82M18.07-45.44h7.82M2.37-45.44h6.88M36.49-33.82h6.9M23.64-33.82h-6.9M7.76-33.82H.71M38.84-19.17h7.1M26.27-19.17h-7.15M10.3-19.17H4.71M33.25-4.86h6.84M14.54-4.86H7.76M10.1-42.48H17M24.47-42.48h7.18M38.49-39.55H32.9M7.99-39.61h-6.3M11.56-36.61h5.73M42.43-36.61h4.32M26.2-30.86h5.45M10.62-30.86h-6.3M16.74-27.98h6.71M3.95-27.98H0M38.46-27.98H32.9M33.7-24.98h-5.64M10.32-24.98H4.03M20.33-22.23h-7.55M40.32-22.23h-5.63M27.53-16.23h5.37M15.32-16.23H9.03M2.82-13.48H0M19.23-13.48H13.7M31.65-13.48h5.58M20.33-10.48h7.53M36.49-10.48h5.62M15.35-7.57h5.53M0-7.57h1.02M33.65-7.57h-5.59M33.45-1.81h-5.39M17.29-1.81H11.9M11.48-10.36H5.96M45.32-27.98h1.43M43.4-13.48h3.35M42.17-7.57h4.58" style="fill:none;stroke:#000;stroke-width:.3"/><path d="M1.12-42.5h0M4.71-42.5h0M2.92-42.5h0M8.31-42.5h0M6.51-42.5h0M19.08-42.5h0M22.68-42.5h0M20.88-42.5h0M33.45-42.5h0M37.04-42.5h0M35.25-42.5h0M40.63-42.5h0M38.84-42.5h0M44.23-42.5h0M42.43-42.5h0M46.02-42.5h0M1.12-36.62h0M4.71-36.62h0M2.92-36.62h0M8.31-36.62h0M6.51-36.62h0M10.1-36.62h0M19.08-36.62h0M22.68-36.62h0M20.88-36.62h0M26.27-36.62h0M24.47-36.62h0M29.86-36.62h0M28.06-36.62h0M33.45-36.62h0M31.65-36.62h0M37.04-36.62h0M35.25-36.62h0M40.63-36.62h0M38.84-36.62h0M1.12-30.93h0M2.92-30.93h0M11.9-30.93h0M15.49-30.93h0M13.7-30.93h0M19.08-30.93h0M17.29-30.93h0M22.68-30.93h0M20.88-30.93h0M24.47-30.93h0M33.45-30.93h0M37.04-30.93h0M35.25-30.93h0M40.63-30.93h0M38.84-30.93h0M44.23-30.93h0M42.43-30.93h0M46.02-30.93h0M1.12-25.04h0M2.92-25.04h0M11.9-25.04h0M15.49-25.04h0M13.7-25.04h0M19.08-25.04h0M17.29-25.04h0M22.68-25.04h0M20.88-25.04h0M26.27-25.04h0M24.47-25.04h0M37.04-25.04h0M35.25-25.04h0M40.63-25.04h0M38.84-25.04h0M44.23-25.04h0M42.43-25.04h0M46.02-25.04h0M1.12-19.22h0M2.92-19.22h0M11.9-19.22h0M15.49-19.22h0M13.7-19.22h0M17.29-19.22h0M29.86-19.22h0M28.06-19.22h0M33.45-19.22h0M31.65-19.22h0M37.04-19.22h0M35.25-19.22h0M4.71-13.46h0M8.31-13.46h0M6.51-13.46h0M11.9-13.46h0M10.1-13.46h0M22.68-13.46h0M20.88-13.46h0M26.27-13.46h0M24.47-13.46h0M29.86-13.46h0M28.06-13.46h0M40.63-13.46h0M38.84-13.46h0M42.43-13.46h0M4.71-7.58h0M2.92-7.58h0M8.31-7.58h0M6.51-7.58h0M11.9-7.58h0M10.1-7.58h0M13.7-7.58h0M22.68-7.58h0M26.27-7.58h0M24.47-7.58h0M37.04-7.58h0M35.25-7.58h0M40.63-7.58h0M38.84-7.58h0M1.12-1.82h0M4.71-1.82h0M2.92-1.82h0M8.31-1.82h0M6.51-1.82h0M10.1-1.82h0M19.08-1.82h0M22.68-1.82h0M20.88-1.82h0M26.27-1.82h0M24.47-1.82h0M37.04-1.82h0M35.25-1.82h0M40.63-1.82h0M38.84-1.82h0M44.23-1.82h0M42.43-1.82h0M46.02-1.82h0M.57-45.45h0M13.15-45.45h0M11.35-45.45h0M16.74-45.45h0M14.94-45.45h0M27.52-45.45h0M31.1-45.45h0M29.31-45.45h0M34.69-45.45h0M32.9-45.45h0M36.49-45.45h0M.57-39.57h0M9.56-39.57h0M13.15-39.57h0M11.35-39.57h0M16.74-39.57h0M14.94-39.57h0M20.33-39.57h0M18.53-39.57h0M23.93-39.57h0M22.13-39.57h0M27.52-39.57h0M25.72-39.57h0M31.1-39.57h0M29.31-39.57h0M41.88-39.57h0M40.09-39.57h0M45.47-39.57h0M43.68-39.57h0M9.56-33.88h0M13.15-33.88h0M11.35-33.88h0M14.94-33.88h0M27.52-33.88h0M25.72-33.88h0M31.1-33.88h0M29.31-33.88h0M34.69-33.88h0M32.9-33.88h0M45.47-33.88h0M5.96-27.99h0M9.56-27.99h0M7.76-27.99h0M13.15-27.99h0M11.35-27.99h0M14.94-27.99h0M27.52-27.99h0M25.72-27.99h0M31.1-27.99h0M29.31-27.99h0M41.88-27.99h0M40.09-27.99h0M43.68-27.99h0M2.37-22.17h0M.57-22.17h0M5.96-22.17h0M4.17-22.17h0M9.56-22.17h0M7.76-22.17h0M11.35-22.17h0M23.93-22.17h0M22.13-22.17h0M27.52-22.17h0M25.72-22.17h0M31.1-22.17h0M29.31-22.17h0M32.9-22.17h0M41.88-22.17h0M45.47-22.17h0M43.68-22.17h0M2.37-16.41h0M.57-16.41h0M5.96-16.41h0M4.17-16.41h0M7.76-16.41h0M16.74-16.41h0M20.33-16.41h0M18.53-16.41h0M23.93-16.41h0M22.13-16.41h0M25.72-16.41h0M34.69-16.41h0M38.29-16.41h0M36.49-16.41h0M41.88-16.41h0M40.09-16.41h0M45.47-16.41h0M43.68-16.41h0M2.37-10.53h0M.57-10.53h0M4.17-10.53h0M13.15-10.53h0M16.74-10.53h0M14.94-10.53h0M18.53-10.53h0M31.1-10.53h0M29.31-10.53h0M34.69-10.53h0M32.9-10.53h0M45.47-10.53h0M43.68-10.53h0M2.37-4.77h0M.57-4.77h0M5.96-4.77h0M4.17-4.77h0M16.74-4.77h0M20.33-4.77h0M18.53-4.77h0M23.93-4.77h0M22.13-4.77h0M27.52-4.77h0M25.72-4.77h0M31.1-4.77h0M29.31-4.77h0M41.88-4.77h0M45.47-4.77h0M43.68-4.77h0" style="fill:none;stroke:#000;stroke-width:.7;stroke-linecap:round"/></svg>