<svg xmlns="http://www.w3.org/2000/svg" xml:space="preserve" width="85.04" height="85.04" viewBox="1.72 -87.12 85.04 85.04"><path d="M1.72-87.12h85.04v85.04H1.72z" style="fill:none"/><path d="M3.5-84.5h0M6.67-84.84h0M10.07-85.4h0M13.07-85.9h0M3.34-82.3h0M6.15-82.42h0M9.34-82.86h0M12.5-83.65h0M3.34-80.23h0M5.96-80.48h0M8.59-80.86h0M19.27-84.3h0M3.09-78.11h0M5.34-78.36h0M7.55-78.69h0M9.8-79.19h0M12.05-79.61h0M14.21-80.28h0M16.3-80.94h0M18.46-81.69h0M20.63-82.61h0M22.55-83.44h0M24.46-84.53h0M28.63-84.84h0M26.94-83.78h0M25.19-82.9h0M23.44-81.9h0M21.63-81.15h0M19.75-80.28h0M17.88-79.59h0M16-78.84h0M14.13-78.28h0M12.32-77.78h0M10.32-77.21h0M8.38-76.96h0M6.38-76.59h0M4.38-76.46h0M2.44-76.4h0M3.69-75.15h0M2.4-73.8h0M9.4-70.98h0M7.34-70.92h0M5.21-70.86h0M2.96-71.05h0M5.34-67.86h0M2.46-67.98h0M8.21-67.8h0M11.03-67.92h0M13.53-68.17h0M15.9-68.55h0M21.27-66.61h0M23.27-67.23h0M18.9-66.11h0M16.59-65.67h0M13.96-65.36h0M11.46-65.11h0M6.09-64.98h0M8.65-64.98h0M3.4-65.05h0M3.77-61.55h0M9.59-58.73h0M3.4-58.55h0M6.65-58.61h0M19.27-59.67h0M16.09-59.23h0M12.9-58.92h0M22.15-60.17h0M4.96-55.05h0M7.15-55.17h0M9.15-55.3h0M2.77-55.05h0M10.96-55.48h0M12.96-55.73h0M14.96-55.98h0M25.21-58.11h0M27.34-58.61h0M29.27-59.23h0M31.15-59.8h0M35.82-58.9h0M39.19-58.65h0M42.19-58.59h0M44.88-58.71h0M38.88-55.71h0M35.19-55.96h0M31.32-56.59h0M42.13-55.71h0M45.5-55.96h0M47.94-56.34h0M50.44-56.65h0M52.82-56.96h0M24.9-60.67h0M27.71-61.36h0M30.21-62.11h0M32.59-62.92h0M16.02-62.17h0M13.08-61.85h0M9.77-61.66h0M6.58-61.53h0M18.59-62.48h0M21.09-62.92h0M23.4-63.42h0M25.59-63.98h0M27.84-64.67h0M30.09-65.48h0M34.84-63.8h0M38.94-62.65h0M40.71-63.67h0M42.4-64.73h0M40.69-61.84h0M42.57-61.02h0M44.44-60.34h0M46.38-59.77h0M48.32-59.09h0M50.32-58.71h0M37.27-64.73h0M5.38-74.28h0M7.13-73.34h0M8.94-72.53h0M10.82-71.84h0M12.69-71.21h0M14.69-70.59h0M16.63-70.09h0M18.57-69.65h0M20.5-69.15h0M22.38-68.65h0M24.32-68.28h0M26.19-67.84h0M28.19-67.46h0M32.25-66.67h0M34.42-66.42h0M36.59-66.25h0M38.84-66.25h0M41.5-66.17h0M30.25-67h0M25.15-69.73h0M29.46-68.92h0M33.21-68.55h0M37.15-68.3h0M40.9-68.17h0M43.9-66.03h0M46.19-66.03h0M48.07-66.09h0M85.88-55.09h0M84.82-53.96h0M85.13-51.9h0M85.07-49.4h0M85.57-41.9h0M82.57-41.96h0M79.63-42.15h0M76.63-42.52h0M73.5-42.84h0M70.69-43.34h0M83.96-37.92h0M85.71-34.05h0M83.59-34.17h0M81.4-34.3h0M79.53-34.42h0M77.38-34.59h0M75.38-34.9h0M62.25-37.84h0M64.34-37.17h0M66.42-36.5h0M60.19-38.71h0M58.38-39.52h0M56.63-40.46h0M54.88-41.46h0M58.07-44.46h0M56.19-43.77h0M54.19-43.09h0M44.57-40.46h0M42.69-40.02h0M40.75-39.52h0M38.75-39.09h0M36.82-38.77h0M35-38.27h0M32.94-37.9h0M31-37.59h0M29.07-37.27h0M27.13-36.96h0M25.13-36.65h0M23.13-36.4h0M21.19-36.09h0M19.25-35.84h0M17.32-35.65h0M15.32-35.34h0M13.44-35.09h0M11.15-34.8h0M9.03-34.61h0M6.96-34.55h0M4.96-34.3h0M2.77-34.05h0M5.32-32.02h0M3.69-32.84h0M2.5-12.96h0M4.63-11.15h0M3.69-8.65h0M2.88-5.53h0M3-2.59h0M6-2.84h0M9-3.15h0M11.88-3.65h0M14.82-4.28h0M17.44-4.9h0M5.94-5.59h0M8.94-5.9h0M11.82-6.46h0M6.5-10.34h0M8.32-9.53h0M10.25-8.78h0M12.13-8.21h0M14-7.53h0M15.88-6.9h0M17.82-6.34h0M19.75-5.84h0M21.82-5.4h0M23.57-5.03h0M25.5-4.65h0M27.63-4.21h0M29.57-3.84h0M31.5-3.52h0M33.5-3.15h0M35.5-2.9h0M43.32-2.4h0M45.57-2.46h0M47.5-2.46h0M49.57-2.59h0M51.5-2.84h0M53.5-3.15h0M55.5-3.34h0M57.5-3.65h0M59.32-3.96h0M61.19-4.34h0M63.25-4.92h0M65.42-5.5h0M67.84-5.97h0M70.34-6.67h0M72.75-7.42h0M74.84-7.92h0M67.94-2.4h0M65.44-3.46h0M46.15-4.36h0M53.96-4.92h0M50.02-4.48h0M60.27-5.73h0M57.15-5.23h0M63.46-6.36h0M42.4-4.48h0M41.25-6.28h0M44.13-6.09h0M47.13-6.09h0M50.19-6.21h0M53.07-6.59h0M56.13-6.9h0M59.07-7.53h0M62-8.28h0M64.75-9.03h0M67.75-10.03h0M76.96-11.42h0M74.65-10.23h0M76.82-8.4h0M78.63-9.03h0M80.5-9.78h0M82.32-10.65h0M84.13-11.53h0M85.32-9.15h0M79.82-6.84h0M82.63-6.15h0M85.75-5.59h0M85.5-2.52h0M83-2.67h0M80.59-2.92h0M77.79-3.5h0M74.92-4.25h0M72.34-5.34h0M70.44-11.09h0M43-8.59h0M46-8.53h0M49-8.46h0M51.94-8.78h0M55-9.09h0M57.75-9.65h0M60.19-10.21h0M62.44-10.84h0M64.44-11.46h0M40-9.03h0M41.25-11.71h0M49.57-11.28h0M44.13-11.4h0M47-11.21h0M52.19-11.46h0M54.44-11.71h0M56.38-12.03h0M58.25-12.46h0M51.07-14.34h0M48.5-14.03h0M45.69-13.96h0M48.19-16.84h0M50-16.02h0M51.88-15.4h0M53.82-14.9h0M55.69-14.4h0M63.57-13.34h0M65.57-13.28h0M67.5-13.09h0M69.57-13.09h0M71.5-13.09h0M73.5-13.09h0M75.63-13.09h0M77.63-13.03h0M79.57-13.03h0M81.63-12.96h0M83.75-13.09h0M85.5-12.96h0M35.94-15.03h0M38.25-12.28h0M35.38-12.96h0M32-13.9h0M37.07-9.46h0M38.25-6.65h0M35.32-7.09h0M38.65-4.67h0M34.19-10.09h0M32.32-7.59h0M34.65-5.11h0M29.44-8.21h0M31.32-10.71h0M28.38-11.65h0M25.57-12.59h0M30.09-5.73h0M18.07-11.9h0M25.77-6.61h0M21.4-7.67h0M17.21-8.92h0M13.71-10.17h0M10.15-11.42h0M10.38-13.4h0M12.38-13.53h0M14.25-13.78h0M16.32-13.9h0M18.32-14.15h0M20.32-14.28h0M22.32-14.59h0M24.19-14.84h0M26.13-15.09h0M28.13-15.4h0M30-15.71h0M32.07-16.09h0M34.07-16.34h0M35.88-16.77h0M37.94-17.09h0M39.88-17.59h0M41.88-17.9h0M43.75-18.27h0M45.69-18.65h0M47.57-19.21h0M49.5-19.65h0M51.5-20.09h0M53.38-20.59h0M55.32-21.21h0M57.25-21.71h0M59.13-22.34h0M61.07-23.02h0M62.94-23.71h0M64.69-24.46h0M66.63-25.21h0M7.13-31.09h0M8.94-30.34h0M10.88-29.65h0M12.88-29.02h0M14.75-28.4h0M16.5-27.9h0M18.57-27.4h0M20.44-26.9h0M22.38-26.4h0M24.32-26.02h0M26.32-25.71h0M28.19-25.4h0M30.13-25.09h0M32.17-24.92h0M34.17-24.75h0M36.42-24.59h0M38.92-24.25h0M41.25-24h0M43.75-23.84h0M35.52-27.11h0M31.46-27.55h0M27.34-28.17h0M22.84-29.05h0M18.77-30.11h0M14.96-31.36h0M11.34-32.67h0M39.4-26.86h0M18.67-33.67h0M43.21-26.8h0M46.9-26.86h0M22.5-32.67h0M28.13-35.15h0M30.94-34.52h0M33.94-33.77h0M36.88-33.21h0M39.82-32.77h0M42.82-32.4h0M45.69-32.21h0M48.75-32.02h0M51.63-31.9h0M63-33.21h0M65.25-34.09h0M67.25-34.96h0M35.88-36.59h0M39-35.84h0M41.82-35.34h0M44.75-34.96h0M47.69-34.65h0M50.57-34.65h0M53.38-34.46h0M55.82-34.52h0M57.82-34.77h0M59.69-35.02h0M61.63-35.34h0M63.5-35.84h0M59.38-37.27h0M57.32-36.77h0M54.13-38.84h0M56.38-38.96h0M52.69-36.65h0M55.19-36.65h0M51.38-39.09h0M49.5-36.9h0M48.75-39.46h0M46.13-37.59h0M43.07-38.4h0M25.5-31.84h0M36.34-30h0M39.63-29.9h0M42.63-29.71h0M45.5-29.71h0M48.57-29.77h0M51.94-29.9h0M55.25-30.09h0M58.25-30.46h0M61-30.84h0M64-31.4h0M66.94-31.96h0M69.69-32.52h0M72.32-33.09h0M75.07-33.71h0M50.96-27.05h0M54.96-27.42h0M58.46-27.92h0M46-23.75h0M48.38-23.84h0M56.25-24.71h0M58.32-24.9h0M60.25-25.27h0M62.25-25.65h0M64.19-26.09h0M61.84-28.42h0M65.03-28.98h0M68.15-29.61h0M71.15-30.48h0M73.59-31.17h0M76.13-32.02h0M78.55-32.94h0M84.88-32.84h0M83.13-31.77h0M81.32-31.09h0M79.5-30.27h0M77.57-29.59h0M75.69-28.96h0M73.75-28.4h0M71.88-27.84h0M69.88-27.27h0M68-26.84h0M65.94-26.34h0M45.96-43.05h0M42.21-42.11h0M38.15-41.17h0M34.34-40.3h0M30.02-39.55h0M26.15-38.92h0M22.59-38.48h0M3-37.84h0M16.09-37.86h0M19.27-38.11h0M38.82-43.52h0M36.27-43.23h0M24-42.09h0M26.5-42.34h0M21-41.96h0M18.07-41.84h0M15.07-41.77h0M12-41.77h0M9.07-41.71h0M6.13-41.84h0M3.07-41.9h0M23.82-44.27h0M20.82-44.34h0M17.82-44.34h0M14.75-44.52h0M11.82-44.71h0M8.82-44.77h0M5.82-45.02h0M2.94-45.34h0M26.69-44.34h0M80.28-38.23h0M76.4-38.67h0M72.59-39.3h0M68.59-40.17h0M65.03-41.17h0M61.4-42.55h0M75.63-47.34h0M82.25-50.21h0M83.19-53.09h0M81.38-52.21h0M79.5-51.4h0M77.63-50.71h0M75.75-50.02h0M72.15-53.42h0M73.82-49.4h0M71.88-48.9h0M69.88-48.46h0M68-47.84h0M66.13-47.4h0M64.13-47.09h0M62.13-46.71h0M60.25-46.34h0M58.25-45.96h0M56.32-45.71h0M54.25-45.4h0M52.38-45.15h0M50.44-45.02h0M48.38-44.77h0M46.19-44.65h0M43.44-44.65h0M41.38-44.77h0M39.38-44.9h0M37.44-45.15h0M35.5-45.27h0M33.44-45.59h0M31.5-45.9h0M29.57-46.21h0M27.57-46.52h0M25.69-46.77h0M23.88-47.21h0M21.82-47.59h0M19.75-48.15h0M20.57-46.46h0M17.57-46.77h0M14.63-47.02h0M11.63-47.46h0M8.69-47.96h0M5.75-48.52h0M2.82-49.02h0M14.5-48.46h0M11.5-48.9h0M8.69-49.52h0M5.75-50.46h0M2.88-51.34h0M10.19-51.09h0M8.44-51.71h0M6.69-52.46h0M5.21-53.3h0M3.84-54.11h0M69.28-52.11h0M66.15-50.73h0M63.02-49.67h0M59.4-48.61h0M55.77-47.86h0M40.34-46.73h0M44.02-46.61h0M47.84-46.8h0M51.65-47.23h0M36.4-46.92h0M32.65-47.36h0M29.34-47.92h0M30.25-50.77h0M26.88-51.65h0M25.96-48.67h0M18.96-50.73h0M22.46-49.67h0M15.71-51.98h0M12.65-53.3h0M23.54-52.59h0M19.71-54.11h0M36.94-49.9h0M43.38-53.34h0M33-53.9h0M29.63-54.46h0M26.38-55.52h0M33.75-50.15h0M39.88-49.71h0M45.88-53.59h0M48.19-53.77h0M42.69-49.65h0M50.38-54.02h0M56.82-51.34h0M59.44-52.02h0M61.82-52.71h0M64.19-53.46h0M66.63-54.34h0M53.94-50.65h0M58.94-55.65h0M56.69-55.15h0M54.63-54.77h0M52.5-54.34h0M51.07-50.15h0M48.44-49.9h0M45.69-49.76h0M83.88-55.21h0M81.88-55.21h0M79.88-55.27h0M77.88-55.4h0M69.88-55.84h0M67.94-56.02h0M65.82-56.27h0M63.88-56.46h0M61.88-56.71h0M60-56.96h0M58.07-57.34h0M56-57.65h0M54.07-58.02h0M52.19-58.4h0M50.25-66.21h0M52.13-66.46h0M54.13-66.65h0M56.13-66.96h0M58.13-67.28h0M60.07-67.53h0M62.07-67.9h0M64.07-68.34h0M66-68.71h0M67.88-69.15h0M69.75-69.59h0M79.38-72.46h0M81.19-73.28h0M83-74.09h0M84.88-74.96h0M57.46-69.55h0M61.34-70.17h0M53.46-68.86h0M49.09-68.42h0M45.15-68.23h0M65.34-71.05h0M68.78-72.05h0M72.03-73.05h0M75.15-74.23h0M14.09-72.86h0M11.21-74.05h0M8.57-75.34h0M13.75-75.96h0M16.32-74.46h0M19.13-73.46h0M21.94-72.46h0M24.94-71.9h0M27.82-71.4h0M30.75-71.03h0M33.82-70.71h0M37-70.46h0M40-70.4h0M42.75-70.53h0M45.63-70.59h0M48.63-70.96h0M58.38-73.15h0M60.82-73.96h0M63.19-74.78h0M17.82-77.78h0M20.5-76.4h0M23.19-75.46h0M26-74.78h0M29.38-74.15h0M32.57-73.84h0M36-73.65h0M39.63-73.84h0M42.88-74.21h0M46.07-74.65h0M48.69-75.09h0M51.13-75.53h0M53.38-76.03h0M24.57-78.59h0M22.07-79.28h0M27.44-77.9h0M33.75-80.09h0M31.13-80.65h0M28.13-81.46h0M36.44-79.59h0M39-79.28h0M41.63-79.09h0M31.88-84.34h0M33.75-83.4h0M35.44-82.78h0M37.25-81.9h0M39.19-81.15h0M41.13-80.53h0M43-79.9h0M44.88-79.34h0M46.88-78.84h0M48.75-78.4h0M50.75-77.96h0M52.63-77.65h0M54.57-77.28h0M56.57-76.96h0M58.57-76.84h0M60.57-76.65h0M62.5-76.4h0M64.44-76.28h0M66.44-76.09h0M68.5-76.03h0M70.5-75.96h0M72.44-76.03h0M74.44-75.96h0M76.57-75.96h0M78.75-76.09h0M80.88-76.09h0M83.13-76.34h0M85.38-76.34h0M37.94-76.9h0M40.44-76.9h0M42.88-77.03h0M45.25-77.28h0M59.21-78.86h0M55.3-79.53h0M36.3-85.84h0M47.3-85.94h0M49.63-85.03h0M52.13-84.03h0M54.38-83.36h0M56.8-82.69h0M85.71-80.03h0M83.38-80.11h0M80.71-80.03h0M78.05-80.03h0M75.38-80.19h0M72.63-80.28h0M69.88-80.53h0M66.71-80.94h0M76.13-77.36h0M73.38-77.48h0M70.19-77.67h0M63.21-78.44h0M39.3-84.53h0M42.3-83.19h0M45.46-82.11h0M48.57-81.11h0M51.88-80.19h0M66.94-77.92h0M78.63-77.36h0M81-77.42h0M83.32-77.61h0M85.63-77.8h0M65.23-83.78h0M62.17-84.47h0M59.3-85.47h0M56.36-86.72h0M68.17-83.22h0M70.98-82.84h0M73.92-82.59h0M73.98-85.71h0M70.92-86.4h0M85.75-84.5h0M85.75-82.24h0M82.86-82.22h0M80.11-82.28h0M76.86-82.4h0M8.28-29.05h0M2.96-29.67h0M5.59-29.36h0M15.71-25.73h0M18.84-25.86h0M27.21-24.11h0M24.21-23.73h0M21.46-23.48h0M18.34-23.11h0M14.71-22.86h0M10.84-22.73h0M6.84-22.61h0M3.15-19.11h0M2.46-15.36h0M6.21-15.55h0M9.9-15.8h0M13.96-16.17h0M17.34-16.61h0M20.59-17.05h0M23.9-17.55h0M26.84-18.05h0M29.71-18.61h0M32.52-19.11h0M35.34-19.8h0M38.09-20.42h0M40.59-21.05h0M42.71-21.61h0M44.77-22.23h0M5.78-19.23h0M8.78-19.42h0M11.84-19.61h0M15.03-19.8h0M18.09-20.17h0M21.46-20.48h0M32.59-22.11h0M34.77-22.48h0M37.09-22.86h0M3.21-22.48h0M4.4-25.86h0M63.42-16.73h0M59.05-17.61h0M55.05-18.77h0M67.73-16.05h0M71.98-15.67h0M75.8-15.42h0M79.61-15.3h0M83.86-15.3h0M61.17-20.92h0M65.11-20.3h0M75.98-19.3h0M79.05-19.11h0M82.17-19.11h0M85.17-19.11h0M68.73-23.61h0M73.73-23.23h0M78.86-22.73h0M84.11-22.48h0M85.23-26.11h0M84.92-30.17h0M76.34-62.36h0M72.96-62.67h0M69.34-63.17h0M65.9-63.73h0M61.96-64.48h0M57.46-65.48h0M84.34-58.61h0M80.28-58.73h0M75.96-58.98h0M71.59-59.42h0M66.53-60.11h0M52.9-62.8h0M48.46-64.11h0M85.78-71.23h0M82.46-71.8h0M78.78-68.98h0M75.84-69.48h0M81.59-68.48h0M84.65-68.17h0M85.59-65.05h0M82.84-65.36h0M80.15-65.61h0M77.28-65.92h0M74.65-66.3h0M68.71-67.36h0M71.84-66.73h0M21.59-85.17h0M23.77-86.54h0M27.65-86.67h0M26.09-85.67h0M30.09-85.79h0M31.15-86.79h0M25.71-2.86h0M22.59-2.86h0M17.84-2.73h0M19.9-3.92h0M15.46-86.61h0M15.4-84.3h0M17.77-85.36h0M20.4-86.55h0M17.84-2.73h0M19.9-3.92h0" style="fill:none;stroke:#000;stroke-width:.7;stroke-linecap:round"/><path d="M11.27-81.4c1.36-.26 4.19-1.07 5.62-1.63M30.04-77.37c1.35.29 4.28.62 5.81.65M36.08-53.35c1.37.2 3.65.33 5.18.25M49.89-23.97c1.39 0 2.87-.14 4.38-.44M38.22-14.48c1.36.3 3.62.58 5.16.62M37.27-2.78c1.35.3 2.63.15 4.17.2M68.74-36.04c1.33.42 3.56.9 5.08 1.08M27.83-31.35c1.34.36 3.59.74 5.12.85M4.33-12.97c1.38.11 2.84-.15 4.37-.31M69.3-19.8c1.36.25 2.35.29 3.89.27M76.67-27.1c1.37.24 2.53.44 4.44.55M66.59-7.23a40.4 40.4 0 0 0 5.45-1.9M20.82-10.9c1.74.78 4.7 1.7 5.68 1.94M57.52-14.03c1.36.24 2.68.43 4.18.56M63.26-45.36c1.28.56 4.07 1.49 5.57 1.83M17.26-56.23c1.38-.2 4.25-.86 5.7-1.35M6.51-37.86c1.39.12 4.33.1 5.86-.05M28.41-42.57c1.39-.04 4.3-.4 5.8-.74M7.31-25.7c1.38.17 4.33.22 5.86.1M12.08-50.42c1.27.56 4.06 1.48 5.56 1.82M58.58-82.27c1.33.37 4.23.89 5.76 1M50.66-71.4c1.38-.15 4.26-.74 5.73-1.2M77.24-85.2c1.36.28 4.28.6 5.82.62M71.62-70.1c1.37-.26 4.19-1.08 5.62-1.66M56.94-61.78c1.33.4 4.2 1.01 5.73 1.19M78.44-46.66c1.33.41 4.2 1.02 5.73 1.2M79.14-62.1c2.38.32 4.63.44 6.4.5M71.27-55.66c1.37.2 3.9.24 5.43.18M16.72-71.95c1.28.53 4.1 1.4 5.6 1.7M32.08-60.14a41.4 41.4 0 0 0 5.54-1.92M46.7-40.98c1.36-.22 4.22-.94 5.66-1.45M54.93-32.1c1.38-.04 4.3-.38 5.8-.7M24.24-20.91c1.39-.04 4.31-.38 5.81-.71" style="fill:none;stroke:#000;stroke-width:.3"/></svg>