<svg xmlns="http://www.w3.org/2000/svg" xml:space="preserve" width="53.98" height="53.98" viewBox="0.11 -54.08 53.98 53.98"><path d="M.11-54.08h53.98V-.1H.11z" style="fill:none"/><path d="m30.2-30.23 3.76-3.75M8.43-8.48 30.2-30.23M37.46-37.48l-3.5 3.5M52.89-52.9l1.19-1.18M.11-.17l8.32-8.31M45.07-45.09l7.82-7.81M37.46-37.48l7.61-7.61M49.3-52.9l1.18-1.18M37.49-41.11l-3.63 3.63M4.83-8.48.11-3.76M37.49-41.11 49.3-52.9M4.83-8.48l21.78-21.75M33.86-37.48l-7.25 7.25M33.89-41.11l8.01-8M33.89-41.11l-7.5 7.5M41.9-49.11l4.98-4.97M8.24-15.48.11-7.35M8.24-15.48l18.15-18.13M.11-10.95 11.4-22.23M11.4-22.23l4.01-4M38.3-49.11l4.99-4.97M22.79-33.61l11.64-11.62M34.43-45.23l3.87-3.88M22.79-33.61l-7.38 7.38M15.31-29.73l-3.5 3.5M30.83-45.23l-15.52 15.5M11.81-26.23l-4.01 4M.11-14.54l4.02-4.02M39.69-54.08l-4.98 4.97M30.83-45.23l3.88-3.88M4.13-18.56l3.67-3.67M11.71-29.73.54-18.56M.11-18.13l.43-.43M11.71-29.73l7.64-7.63M27.23-45.23l8.86-8.85M19.35-37.36l7.88-7.87M15.75-37.36l12.01-12M15.75-37.36.11-21.73M27.76-49.36l4.73-4.72M19.7-44.9l9.2-9.18M19.7-44.9.11-25.32M4.67-33.48.11-28.92M4.67-33.48 16.1-44.9M16.1-44.9l8.18-8.16M24.28-53.06l1.02-1.02M20.68-53.06l1.02-1.02M.11-32.51l7.72-7.72M7.83-40.23l12.85-12.83M12.95-48.94l4.13-4.12M.11-36.1l4.13-4.13M17.08-53.06l1.02-1.02M12.95-48.94l-8.71 8.71M4.64-44.23l9.87-9.85M.11-39.7l4.53-4.53M1.05-44.23l9.86-9.85M.11-43.29l.94-.94M7.31-54.08l-7.2 7.2M.11-50.48l3.6-3.6M25.79-22.23l-3.37 3.37M15.28-11.73 3.65-.11M15.28-11.73l7.14-7.13M41.06-37.48l-11.51 11.5M29.55-25.98l-3.76 3.75M41.06-37.48l13.02-13.01M18.88-11.73l3.76-3.75M54.08-46.9l-2.66 2.67M33.15-25.98l15.14-15.13M26.01-18.86l-3.37 3.38M48.29-41.11l3.13-3.12M18.88-11.73 7.25-.11M33.15-25.98l-7.14 7.12M22.48-11.73l7.13-7.13M36.75-25.98l7.75-7.75M22.48-11.73l-8.76 8.75M54.08-43.3l-2.19 2.19M36.75-25.98l-7.14 7.12M44.5-33.73l7.39-7.38M10.84-.11l2.88-2.87M23.2-8.86l-5.88 5.88M44.6-30.23 23.2-8.86M14.44-.11l2.88-2.87M44.6-30.23l3.5-3.5M48.1-33.73l5.98-5.97M48.2-30.23l5.88-5.88M48.2-30.23l-7.51 7.5M18.04-.11l2.88-2.87M40.69-22.73 26.8-8.86M26.8-8.86l-5.88 5.88M44.29-22.73l3.51-3.5M54.08-32.51l-6.28 6.28M30.4-8.86 21.64-.11M44.29-22.73 30.4-8.86M51.4-26.23l2.68-2.69M37.13-11.98l6.88-6.88M51.4-26.23l-7.39 7.37M37.13-11.98 25.24-.11M54.08-25.32l-9.72 9.71M28.84-.11l6.26-6.25M44.36-15.61 35.1-6.36M54.08-21.73 38.7-6.36M32.44-.11l6.26-6.25M47.93-11.98 42.3-6.36M36.04-.11l6.26-6.25M54.08-18.13l-6.15 6.15M51.53-11.98l2.55-2.55M39.64-.11l3-3M51.53-11.98l-8.89 8.87M54.08-10.94l-7.84 7.83M46.24-3.11l-3 3M54.08-7.34 46.84-.11M54.08-3.75 50.44-.11M7.83-40.23H4.24M11.33-40.23h-3.5M4.24-40.23h-.66M22.79-33.61h-3.58M26.39-33.61h-3.6M26.39-33.61h.57M29.55-25.98h3.6M36.75-25.98h.21M33.15-25.98h3.6M29.21-25.98h.34M11.71-29.73h3.6M15.31-29.73h.65M11.71-29.73h-3.5M.11-18.56h.43M4.13-18.56h.62M.54-18.56h3.59M15.75-37.36h-2.04M22.08-37.36h-2.73M19.35-37.36h-3.6M33.89-41.11h-1.68M39.58-41.11h-2.09M37.49-41.11h-3.6M19.7-44.9h-3.6M16.1-44.9h-3.35M20.13-44.9h-.43M48.29-41.11h3.6M45.33-41.11h2.96M51.89-41.11h.32M33.08-37.48h.78M41.06-37.48h-3.6M37.46-37.48h-3.6M42.21-37.48h-1.15M4.67-33.48H1.71M6.71-33.48H4.67M33.96-33.98h-1.88M33.96-33.98h2.12M47.29-45.09h-2.22M45.07-45.09h-1.78M53.04-52.9h-.15M49.04-52.9h.26M52.89-52.9H49.3M48.1-33.73h2.86M44.5-33.73h-2.04M44.5-33.73h3.6M30.2-30.23h2.26M26.61-30.23h-2.03M30.2-30.23h-3.59M48.2-30.23h1.76M44.6-30.23h-1.52M44.6-30.23h3.6M47.8-26.23h3.6M47.8-26.23h-.22M51.4-26.23h2.06M10.58-26.23h1.23M15.41-26.23h-3.6M15.41-26.23h1.55M12.95-48.94h-2.82M16.5-48.94h-3.55M11.83-22.23h-.43M11.4-22.23H7.8M7.8-22.23H4.46M24.33-22.23h1.46M25.79-22.23h2.04M40.69-22.73h3.6M44.29-22.73h1.79M39.08-22.73h1.61M44.01-18.86h.95M41.83-18.86h2.18M29.61-18.86h-3.6M22.42-18.86h-.09M22.42-18.86h3.59M29.61-18.86h1.1M.11-44.23h.94M1.05-44.23h3.59M5.79-44.23H4.64M8.24-15.48h-.41M10.96-15.48H8.24M22.64-15.48h-3.56M22.64-15.48h3.07M44.36-15.61h.35M41.33-15.61h3.03M27.76-49.36h2.45M26.83-49.36h.93M12.21-11.73h2.12M22.48-11.73h.6M22.48-11.73h-.4M14.33-11.73h.95M18.88-11.73h3.2M15.28-11.73h3.6M41.9-49.11h-3.6M34.71-49.11h3.59M34.71-49.11h-1.46M44.13-49.11H41.9M17.08-53.06h-1.12M24.28-53.06h-3.6M26.83-53.06h-2.55M17.08-53.06h3.6M34.58-11.98h2.55M37.13-11.98h1.83M51.53-11.98h-3.6M47.46-11.98h.47M51.96-11.98h-.43M42.3-6.36h-3.6M42.3-6.36h.91M35.1-6.36h3.6M35.1-6.36h-.52M27.23-45.23h-1.1M27.23-45.23h3.6M34.43-45.23h-3.6M34.43-45.23h.32M26.8-8.86h3.6M30.4-8.86h.81M23.2-8.86h-1.87M26.8-8.86h-3.6M4.83-8.48H2.58M8.43-8.48h-3.6M11.08-8.48H8.43M13.72-2.98h-.01M13.72-2.98h3.6M20.92-2.98h.91M20.92-2.98h-3.6M42.64-3.11h-.31M48.71-3.11h-2.47M46.24-3.11h-3.6M54.08-18.56h-3.1M51.42-44.23h2.66M51.42-44.23h-.02" style="fill:none;stroke:#000;stroke-width:.3"/><path d="m10.02-33.48 2.25-1-.25-1-.75-.13-.87-.87.62-.88-1.75-1.5-4.25.88 1.13 2s0 .12 1.12-.38 1.13 1.5 1.13 1.5l1-.12.62 1.5zM24.83-39.23c2.75 1 1.13 2.37 1.13 2.37l.5.5c.62 0 1.25 2 1.25 2l1.62-.87-.25-.63 1.5-1.5-.62-.5.62-.62-3.75-1.5-2 .75zM22.42-30.69c.25 0 .41-.04.41-.04-.14 0-.28.02-.41.04M22.42-30.69a2.97 2.97 0 0 1-2.46-1.04 4.34 4.34 0 0 1-3.38 1l4.13 1.37s.6-1.1 1.7-1.33M43.96-37.33l5.62 1.12c-.37-.75-.5-.87-.25-1.5s.75-.62.75-.62-.5-1-1.37-.88-1.25.13-1.63-.75-1.12-.12-1 .63-.62 1.25-2.12 2zM36.58-29.73l1.38-1.5s1.25.12 1.87.37 1.5.25.75-.12-.62-1.38-.62-1.38c-1.13.25-2.25-.37-2.13-1.37-.62 1-1.12 1.25-1.12 1.25l-2.63.75 2.5 2zM41.08-25.48c1.88 1.5 4.75 1.62 4.75 1.62l1.88-.12-1.75-.63v-.62l-1.5-1.63c-1.13 1.75-3.38 1.38-3.38 1.38zM36.08-21.98l-1.25-2s-1.12.87-1.87-.13-1.88-1.12-1.88-1.12l-.25 1.37-1.62.5s.62.63 1.37.63.88 1.12.88 1.12 2.5-1.87 4.62-.37zM19.08-21.6s2 1 2.63-1.63c1.37-1 1.12-1.5.5-1.75s-1.13-.88-1.13-.88.38.75-.62.75-2 .13-1.38.88.13 1.5-.12 1.62.12 1 .12 1zM3.96-25.48s1.25.5 1.5 1.12-.13-.25 1.12-.5 1.88-1 1.88-1l-1-1.12-1.5-.63-2 2.13zM12.1-18.31s.76.87 1 1.5c.63-.38 2.13.75 2.13.75-.5-1.88.63-1.38.63-1.38s0-2.62-.5-1.62-3.25.75-3.25.75zM1.83-13.86s3.25 1 4 2c.88-.62 2.25-1 2.25-1s-.12-.37-.87-.62-1.38-.63-.75-2c-1.5.12-2.25-.75-2.25-.75l-1-.13s.75 1-1.38 2.5zM2.96-4.23l1.12 1.75s2.63-.88 4.5-.13c.63-.75 1-1 1-1s-1 .13-1.37-.62c-.88.5-3 0-3.5-.88l-1.75.88zM13.08-7.23c1.13.87 2.5 3 3 2.25s2.13-1.5 2.5-1.5-.62-1.13-.5-1.5-1.75 0-2.12-.63-.38 1.25-2.88 1.38zM26.2-5.23s1.5 1.5 1.5 1.87 4.88-.75 4.88-.75l-2.75-2.75s-1.12 1.75-3.62 1.63zM26.08-13.48c2.25.62 3.63 2.37 4 2.87s.63-1.62 1.88-2.25c-1.25-.5-1.38-.75-1.38-1.75s-1 1.25-2 0c-.37.88-3.59.83-2.5 1.13zM34.56-16.73c-.45-.13-.85-.13-.85-.13.3.07.59.1.85.13M34.56-16.73c.74.2 1.61.73 1.15 2.12l3.12-.75 1.5-2.62-1.87-.5s-.95 2-3.9 1.75M39.96-10.6l1.12 1s1.38-.76 1.75.5l2.13-.63s-.75-.63 0-2.13l-1.5.38-2.38-.13-1.12 1zM46.83-17.86l1.75 1.88 1.63-1 2.75-.5-3.13-.88s-.75-2.25-.75-1.25-2.25 1.75-2.25 1.75zM47.46-6.6s2.25 1.87 3.5 2.74c.25-.75 1.75-2.12 1.25-2.12s-.75-.88-.38-1.88c-.5 1-4.37 1.25-4.37 1.25zM41.92-43.94l-.67-1.5s-.33 1.17-1.17.33c-.83-.83-1.83-2-1.83-2l-.83.84-1 1.16 1.33 1.17h4.17zM50.42-47.23l-1-.83s1-1 0-1.67c-1-.67-1.67-1.5-1.67-1.5l-1 .67-1.67-.5-.16 2.16 1 .34-.5 1.16 3 1.17 2-1zM35.26-54.08l-.51 1.22 2.33.5 1.84-1.66c-.2 0-.39-.02-.55-.06h-3.1zM22.44-48.42l2.5-1.33-2.17-2-2.17 2.33-1.33-.66-1 2.33s.5 1.16 1.83.66 2.17.84 2.17.84l.17-2.17zM9.38-47.77l-2-3.5-3.84.5 1.83 2.83s0-.67 1-.83 3 1 3 1zM17.08-42.86l-1.5 1.25 2 .25 2 1.25 2-1.25-2-.25zM.11-30.53l1.29-.83-1.29-.57zM54.08-31.93l-.96-.43-1.75.5 1.25 2.25 1.46-.92zM35.27-.1l.31-.76 1.5-.66s.13 1.1 1.2 1.41h-3z"/></svg>