<svg xmlns="http://www.w3.org/2000/svg" xml:space="preserve" width="53.98" height="53.98" viewBox="1 -54.98 53.98 53.98"><path d="M1-54.98h53.98V-1H1z" style="fill:none"/><circle cx="4.44" cy="-36.02" r="2.36" style="fill:none;stroke:#000;stroke-width:.3"/><path d="M3.62-36.84h1.64v1.64H3.62z" style="fill:none;stroke:#000;stroke-width:.3"/><circle cx="37.91" cy="-32.68" r="2.36" style="fill:none;stroke:#000;stroke-width:.3"/><path d="M37.09-33.5h1.64v1.64h-1.64z" style="fill:none;stroke:#000;stroke-width:.3"/><circle cx="51.39" cy="-26.58" r="2.36" style="fill:none;stroke:#000;stroke-width:.3"/><path d="M50.57-27.4h1.64v1.64h-1.64z" style="fill:none;stroke:#000;stroke-width:.3"/><circle cx="23.8" cy="-39.41" r="2.36" style="fill:none;stroke:#000;stroke-width:.3"/><path d="M22.98-40.23h1.64v1.64h-1.64z" style="fill:none;stroke:#000;stroke-width:.3"/><circle cx="8.89" cy="-46.83" r="2.36" style="fill:none;stroke:#000;stroke-width:.3"/><path d="M8.07-47.65h1.64v1.64H8.07z" style="fill:none;stroke:#000;stroke-width:.3"/><circle cx="42.8" cy="-45.66" r="2.36" style="fill:none;stroke:#000;stroke-width:.3"/><path d="M41.98-46.48h1.64v1.64h-1.64z" style="fill:none;stroke:#000;stroke-width:.3"/><circle cx="23.14" cy="-51.21" r="2.36" style="fill:none;stroke:#000;stroke-width:.3"/><path d="M22.32-52.03h1.64v1.64h-1.64z" style="fill:none;stroke:#000;stroke-width:.3"/><circle cx="51.27" cy="-51.71" r="2.36" style="fill:none;stroke:#000;stroke-width:.3"/><path d="M50.45-52.53h1.64v1.64h-1.64z" style="fill:none;stroke:#000;stroke-width:.3"/><circle cx="19.82" cy="-27.86" r="2.36" style="fill:none;stroke:#000;stroke-width:.3"/><path d="M19-28.68h1.64v1.64H19z" style="fill:none;stroke:#000;stroke-width:.3"/><circle cx="4.82" cy="-16.24" r="2.36" style="fill:none;stroke:#000;stroke-width:.3"/><path d="M4-17.06h1.64v1.64H4z" style="fill:none;stroke:#000;stroke-width:.3"/><circle cx="39.07" cy="-18.11" r="2.36" style="fill:none;stroke:#000;stroke-width:.3"/><path d="M38.25-18.93h1.64v1.64h-1.64z" style="fill:none;stroke:#000;stroke-width:.3"/><circle cx="48.82" cy="-9.86" r="2.36" style="fill:none;stroke:#000;stroke-width:.3"/><path d="M48-10.68h1.64v1.64H48z" style="fill:none;stroke:#000;stroke-width:.3"/><circle cx="34.2" cy="-4.99" r="2.36" style="fill:none;stroke:#000;stroke-width:.3"/><path d="M33.38-5.81h1.64v1.64h-1.64z" style="fill:none;stroke:#000;stroke-width:.3"/><circle cx="22.57" cy="-11.99" r="2.36" style="fill:none;stroke:#000;stroke-width:.3"/><path d="M21.75-12.81h1.64v1.64h-1.64z" style="fill:none;stroke:#000;stroke-width:.3"/><circle cx="11.82" cy="-4.24" r="2.36" style="fill:none;stroke:#000;stroke-width:.3"/><path d="M11-5.06h1.64v1.64H11z" style="fill:none;stroke:#000;stroke-width:.3"/></svg>