<svg xmlns="http://www.w3.org/2000/svg" xml:space="preserve" width="53.98" height="53.98" viewBox="0.14 -53.98 53.98 53.98"><path d="M.14-53.98h53.98V0H.14z" style="fill:none"/><path d="M47.84-19.39a2.33 2.33 0 0 0 2.33-2.33M47.84-19.39a2.33 2.33 0 0 1-2.34-2.33M50.17-21.72a2.33 2.33 0 0 0-4.67 0M47.84-21.72v2.33M47.84-21.72v-2.27M47.84-21.72h2.33M47.84-21.72H45.5M42.86-33.69a2.33 2.33 0 0 0-4.67 0M42.86-33.69a2.33 2.33 0 0 1-2.33 2.33M40.52-31.36a2.33 2.33 0 0 1-2.33-2.33M40.52-33.69v2.33M40.52-33.69v-2.27M40.52-33.69h-2.33M40.52-33.69h2.34M35.66-23.11a2.33 2.33 0 1 0-4.66 0M33.33-20.78a2.33 2.33 0 0 0 2.33-2.33M33.33-20.78A2.33 2.33 0 0 1 31-23.11M33.33-20.78v-2.33M33.33-23.11v-2.27M33.33-23.11h2.33M31-23.11h2.33M18.46-14.85a2.33 2.33 0 0 0 2.34-2.33M16.13-17.18a2.33 2.33 0 0 0 2.33 2.33M16.13-17.18a2.33 2.33 0 1 1 4.67 0M18.46-14.85v-2.33M18.46-19.45v2.27M16.13-17.18h2.33M18.46-17.18h2.34M4.82-8.76a2.33 2.33 0 0 0-4.67 0M2.48-6.43A2.33 2.33 0 0 1 .15-8.76M4.82-8.76a2.33 2.33 0 0 1-2.34 2.33M2.48-8.76v-2.27M2.48-8.76v2.33M2.48-8.76H.15M2.48-8.76h2.34M18.17-4.74a2.33 2.33 0 0 1-2.33 2.33M15.84-2.41a2.33 2.33 0 0 1-2.34-2.33M18.17-4.74a2.33 2.33 0 0 0-4.67 0M15.84-4.74v-2.27M15.84-4.74v2.33M15.84-4.74h2.33M15.84-4.74H13.5M33.86-9.07a2.33 2.33 0 0 1-2.33 2.33M33.86-9.07a2.33 2.33 0 0 0-4.67 0M31.52-6.74a2.33 2.33 0 0 1-2.33-2.33M31.52-9.07v2.33M31.52-9.07v-2.28M31.52-9.07h-2.33M31.52-9.07h2.34M45.9-3.7a2.33 2.33 0 0 1-2.33-2.33M48.23-6.03A2.33 2.33 0 0 1 45.9-3.7M48.23-6.03a2.33 2.33 0 0 0-4.66 0M45.9-6.03V-8.3M45.9-6.03v2.33M45.9-6.03h2.33M45.9-6.03h-2.33M43.57-6.03h-.01M16.48-31.04a2.33 2.33 0 0 0 2.34 2.33M21.15-31.04a2.33 2.33 0 1 0-4.67 0M18.82-28.71a2.33 2.33 0 0 0 2.33-2.33M18.82-28.71v-2.33M18.82-33.31v2.27M16.48-31.04h2.34M21.15-31.04h-2.33M7.67-22.24a2.33 2.33 0 0 0-4.67 0M5.34-19.91A2.33 2.33 0 0 1 3-22.24M7.67-22.24a2.33 2.33 0 0 1-2.33 2.33M5.34-22.24v-2.27M5.34-22.24v2.33M5.34-22.24h2.33M5.34-22.24H3M3.63-34.3a2.33 2.33 0 0 0-3.5-2.02M3.63-34.3a2.33 2.33 0 0 1-2.33 2.34M.14-32.28c.34.2.74.32 1.16.32M1.3-34.29v-2.27M1.3-34.29v2.33M1.3-34.29H.14M1.3-34.29h2.33M8.48-42.58a2.33 2.33 0 0 0-4.66 0M6.15-40.26a2.33 2.33 0 0 0 2.33-2.32M6.15-40.26a2.33 2.33 0 0 1-2.33-2.32M6.15-42.58v-2.28M6.15-42.58v2.32M3.82-42.58h-.01M6.15-42.58H3.82M6.15-42.58h2.33M2.67-49.02A2.33 2.33 0 0 1 .34-46.7M2.67-49.02a2.33 2.33 0 0 0-2.54-2.33M.34-46.7h-.2M.34-46.69v-2.33M.34-51.29v2.27M.34-49.02h-.2M2.67-49.02H.34M13.67-49.27a2.33 2.33 0 0 0-4.67 0M11.34-46.94A2.33 2.33 0 0 1 9-49.27M13.67-49.27a2.33 2.33 0 0 1-2.33 2.33M11.34-49.27v2.33M11.34-49.27v-2.27M11.34-49.27H9M11.34-49.27h2.33M18.67-43.52a2.33 2.33 0 0 0-4.67 0M16.34-41.2A2.33 2.33 0 0 1 14-43.51M16.34-41.2a2.33 2.33 0 0 0 2.33-2.32M16.34-43.52v2.33M16.34-43.52v-2.27M16.34-43.52h2.33M16.34-43.52H14M27.73-39.96a2.33 2.33 0 0 0 2.34-2.33M25.4-42.3a2.33 2.33 0 0 0 2.33 2.34M30.07-42.3a2.33 2.33 0 0 0-4.67 0M27.73-39.96v-2.33M27.73-44.56v2.27M25.4-42.29h2.33M30.07-42.29h-2.34M22.48-48.32a2.33 2.33 0 0 1-2.33-2.33M24.82-50.65a2.33 2.33 0 0 1-2.34 2.33M24.82-50.65a2.33 2.33 0 0 0-4.67 0M22.48-50.65v-2.27M22.48-50.65v2.33M22.48-50.65h2.34M22.48-50.65h-2.33M34.55-49.52a2.33 2.33 0 0 1-2.34 2.33M34.55-49.52a2.33 2.33 0 0 0-4.67 0" style="fill:none;stroke:#000;stroke-width:.3"/><path d="M32.21-47.2a2.33 2.33 0 0 1-2.33-2.32M32.21-49.52v2.33M32.21-49.52v-2.27M32.21-49.52h-2.33M32.21-49.52h2.34M37.84-41.44a2.33 2.33 0 0 1-2.34-2.33M40.17-43.77a2.33 2.33 0 0 1-2.33 2.33M40.17-43.77a2.33 2.33 0 0 0-4.67 0M37.84-43.77v2.33M37.84-43.77v-2.27M37.84-43.77h2.33M37.84-43.77H35.5M45.17-50.5a2.33 2.33 0 0 0-4.67 0M42.84-48.17a2.33 2.33 0 0 1-2.34-2.33M42.84-48.17a2.33 2.33 0 0 0 2.33-2.33M42.84-50.5v-2.27M42.84-50.5v2.33M42.84-50.5H40.5M42.84-50.5h2.33M51.48-43.67a2.33 2.33 0 0 0-4.66 0M49.15-41.34a2.33 2.33 0 0 0 2.33-2.33M49.15-41.34a2.33 2.33 0 0 1-2.33-2.33M49.15-43.67v-2.27M49.15-43.67v2.33M49.15-43.67h-2.33M46.82-43.67h-.01M49.15-43.67h2.33M52.95-34.3c0 .87.47 1.62 1.16 2.02M54.11-36.32c-.7.4-1.16 1.16-1.16 2.02M52.95-34.29h1.16M52.94-34.29h.01M51.98-49.02c0 1.22.94 2.22 2.13 2.32M51.98-49.02c0-1.23.94-2.23 2.13-2.33M51.98-49.02h2.13" style="fill:none;stroke:#000;stroke-width:.3"/></svg>