<svg xmlns="http://www.w3.org/2000/svg" xml:space="preserve" width="38.86" height="38.86" viewBox="0.11 -38.97 38.86 38.86"><path d="M.11-38.97h38.86V-.11H.11z" style="fill:none"/><path d="M.11-38.97 38.97-.15M2.7-38.97 38.97-2.74M5.29-38.97 38.97-5.32M7.88-38.97 38.97-7.91M10.47-38.97l28.5 28.47M13.06-38.97l25.91 25.88M15.65-38.97l23.32 23.3M18.24-38.97l20.73 20.71M20.83-38.97l18.14 18.12M23.42-38.97l15.55 15.53M26.01-38.97l12.96 12.95M28.6-38.97l10.37 10.36M31.19-38.97l7.78 7.77M33.78-38.97l5.19 5.18M36.37-38.97l2.6 2.59M.11-36.38 36.42-.11M.11-33.79 33.83-.11M.11-31.21 31.24-.11M.11-28.62 28.65-.11M.11-26.03 26.05-.11M.11-23.44 23.46-.11M.11-20.85 20.87-.11M.11-18.26 18.28-.11M.11-15.67 15.69-.11M.11-13.08 13.1-.11M.11-10.49 10.5-.11M.11-7.91l7.8 7.8M.11-5.32 5.32-.11M.11-2.73 2.73-.11" style="fill:none;stroke:#000;stroke-width:.3"/></svg>