<svg xmlns="http://www.w3.org/2000/svg" xml:space="preserve" width="54.13" height="54.13" viewBox="0 -54.13 54.13 54.13"><path d="M0-54.13h54.13V0H0z" style="fill:none"/><path d="M1.25-35.8v2.46M1.25-28.42v2.46M1.25-43.19v2.46M1.25-40.73v2.46M1.25-30.88v2.46M1.25-33.34v2.46M1.25-38.27v2.47M1.25-53.04v2.46M1.25-54.13v1.09M1.25-48.11v2.46M1.25-45.65v2.46M1.25-50.58v2.47M1.25-18.57v2.46M1.25-1.34V0M1.25-3.8v2.46M1.25-6.26v2.46M1.25-8.72v2.46M1.25-23.49v2.46M1.25-21.03v2.46M1.25-25.96v2.47M1.25-13.65v2.46M1.25-16.11v2.46M1.25-11.19v2.47M3.71-30.88v2.46M3.71-28.42v2.46M3.71-23.49v2.46M3.71-25.96v2.47M3.71-45.65v2.46M3.71-35.8v2.46M3.71-38.27v2.47M3.71-43.19v2.46M3.71-40.73v2.46M3.71-21.03v2.46M3.71-8.72v2.46M3.71-54.13v1.09M3.71-3.8v2.46M3.71-53.04v2.46M3.71 0v-1.34M3.71-50.58v2.47M3.71-48.11v2.46M3.71-16.11v2.46M3.71-13.65v2.46M3.71-11.19v2.47M3.71-18.57v2.46M3.71-6.26v2.46M3.71-33.34v2.46M6.17-23.49v2.46M6.17-25.96v2.47M6.17-28.42v2.46M6.17-21.03v2.46M6.17-18.57v2.46M6.17-30.88v2.46M6.17-45.65v2.46M6.17-33.34v2.46M6.17-13.65v2.46M6.17-43.19v2.46M6.17-35.8v2.46M6.17-38.27v2.47M6.17-40.73v2.46M6.17-54.13v1.09M6.17 0v-1.34M6.17-53.04v2.46M6.17-6.26v2.46M6.17-8.72v2.46M6.17-11.19v2.47M6.17-1.34V-3.8M6.17-48.11v2.46M6.17-50.58v2.47M6.17-16.11v2.46M8.64-8.72v2.46M8.64-30.88v2.46M8.64-16.11v2.46M8.64-50.58v2.47M8.64-11.19v2.47M8.64-33.34v2.46M8.64-43.19v2.46M8.64-21.03v2.46M8.64-18.57v2.46M8.64-54.13v1.09M8.64-53.04v2.46M8.64-1.34V-3.8M8.64-3.8v-2.46M8.64 0v-1.34M8.64-40.73v2.46M8.64-25.96v2.47M8.64-48.11v2.46M8.64-28.42v2.46M8.64-23.49v2.46M8.64-35.8v2.46M8.64-45.65v2.46M8.64-38.27v2.47M8.64-13.65v2.46M11.1-43.19v2.46M11.1 0v-1.34M11.1-45.65v2.46M11.1-6.26v-2.46M11.1-35.8v2.46M11.1-30.88v2.46M11.1-33.34v2.46M11.1-28.42v2.46M11.1-38.27v2.47M11.1-25.96v2.47M11.1-18.57v2.46M11.1-11.19v2.47M11.1-54.13v1.09M11.1-13.65v2.46M11.1-21.03v2.46M11.1-23.49v2.46M11.1-53.04v2.46M11.1-16.11v2.46M11.1-40.73v2.46M11.1-48.11v2.46M11.1-50.58v2.47M11.1-1.34V-3.8M11.1-3.8v-2.46M13.56-54.13v1.09M13.56-25.96v2.47M13.56-3.8v-2.46M13.56-1.34V-3.8M13.56-28.42v2.46M13.56-50.58v2.47M13.56-53.04v2.46M13.56-6.26v-2.46M13.56-48.11v2.46M13.56-43.19v2.46M13.56-40.73v2.46M13.56-30.88v2.46M13.56-33.34v2.46M13.56-35.8v2.46M13.56-38.27v2.47M13.56 0v-1.34M13.56-13.65v2.46M13.56-18.57v2.46M13.56-45.65v2.46M13.56-16.11v2.46M13.56-23.49v2.46M13.56-21.03v2.46M13.56-8.72v-2.47M16.02-45.65v2.46M16.02-54.13v1.09M16.02 0v-1.34M16.02-48.11v2.46M16.02-1.34V-3.8M16.02-18.57v2.46M16.02-16.11v2.46M16.02-38.27v2.47M16.02-50.58v2.47M16.02-40.73v2.46M16.02-3.8v-2.46M16.02-11.19v-2.46M16.02-43.19v2.46M16.02-28.42v2.46M16.02-6.26v-2.46M16.02-33.34v2.46M16.02-8.72v-2.47M16.02-30.88v2.46M16.02-35.8v2.46M16.02-25.96v2.47M16.02-21.03v2.46M16.02-23.49v2.46M16.02-53.04v2.46M18.48-8.72v-2.47M18.48-48.11v2.46M18.48-40.73v2.46M18.48-25.96v2.47M18.48-21.03v2.46M18.48-6.26v-2.46M18.48-13.65v-2.46M18.48-18.57v2.46M18.48-43.19v2.46M18.48-33.34v2.46M18.48-30.88v2.46M18.48-23.49v2.46M18.48-28.42v2.46M18.48-45.65v2.46M18.48-53.04v2.46M18.48 0v-1.34M18.48-1.34V-3.8M18.48-50.58v2.47M18.48-54.13v1.09M18.48-38.27v2.47M18.48-35.8v2.46M18.48-11.19v-2.46M18.48-3.8v-2.46M20.95-33.34v2.46M20.95-38.27v2.47M20.95-13.65v-2.46M20.95-6.26v-2.46M20.95 0v-1.34M20.95-53.04v2.46M20.95-45.65v2.46M20.95-40.73v2.46M20.95-3.8v-2.46M20.95-11.19v-2.46M20.95-48.11v2.46M20.95-35.8v2.46M20.95-50.58v2.47M20.95-1.34V-3.8M20.95-8.72v-2.47M20.95-43.19v2.46M20.95-54.13v1.09M20.95-16.11v-2.46M20.95-25.96v2.47M20.95-30.88v2.46M20.95-28.42v2.46M20.95-23.49v2.46M20.95-21.03v2.46M23.41-45.65v2.46M23.41-16.11v-2.46M23.41-6.26v-2.46M23.41-48.11v2.46M23.41-38.27v2.47M23.41-30.88v2.46M23.41-43.19v2.46M23.41-18.57v-2.46M23.41-8.72v-2.47M23.41-1.34V-3.8M23.41-23.49v2.46M23.41-53.04v2.46M23.41-28.42v2.46M23.41-54.13v1.09M23.41 0v-1.34M23.41-11.19v-2.46M23.41-13.65v-2.46M23.41-35.8v2.46M23.41-50.58v2.47M23.41-25.96v2.47M23.41-3.8v-2.46M23.41-33.34v2.46M23.41-40.73v2.46M25.87-54.13v1.09M25.87-28.42v2.46M25.87-45.65v2.46M25.87-30.88v2.46M25.87-13.65v-2.46M25.87-48.11v2.46M25.87-40.73v2.46M25.87-16.11v-2.46M25.87-21.03v-2.46M25.87-43.19v2.46M25.87-33.34v2.46M25.87-35.8v2.46M25.87-11.19v-2.46M25.87-3.8v-2.46M25.87-50.58v2.47M25.87 0v-1.34M25.87-23.49v-2.47M25.87-1.34V-3.8M25.87-8.72v-2.47M25.87-53.04v2.46M25.87-6.26v-2.46M25.87-18.57v-2.46M25.87-38.27v2.47M28.33 0v-1.34M28.33-16.11v-2.46M28.33-23.49v-2.47M28.33-38.27v2.47M28.33-1.34V-3.8M28.33-11.19v-2.46M28.33-50.58v2.47M28.33-53.04v2.46M28.33-40.73v2.46M28.33-54.13v1.09M28.33-43.19v2.46M28.33-48.11v2.46M28.33-18.57v-2.46M28.33-33.34v2.46M28.33-35.8v2.46M28.33-13.65v-2.46M28.33-21.03v-2.46M28.33-45.65v2.46M28.33-8.72v-2.47M28.33-6.26v-2.46M28.33-30.88v2.46M28.33-3.8v-2.46M28.33-25.96v-2.46M30.79-16.11v-2.46M30.79-43.19v2.46M30.79-28.42v-2.46M30.79-50.58v2.47M30.79-6.26v-2.46M30.79-45.65v2.46M30.79-11.19v-2.46M30.79-38.27v2.47M30.79-33.34v2.46M30.79-53.04v2.46M30.79-8.72v-2.47M30.79-23.49v-2.47M30.79-40.73v2.46M30.79-1.34V-3.8M30.79-28.42v2.46M30.79-13.65v-2.46M30.79-48.11v2.46M30.79-21.03v-2.46M30.79-3.8v-2.46M30.79 0v-1.34M30.79-18.57v-2.46M30.79-35.8v2.46M30.79-54.13v1.09M33.26-8.72v-2.47M33.26-6.26v-2.46M33.26-30.88v-2.46M33.26-38.27v2.47M33.26-16.11v-2.46M33.26-35.8v2.46M33.26-13.65v-2.46M33.26-43.19v2.46M33.26-18.57v-2.46M33.26-21.03v-2.46M33.26-1.34V-3.8M33.26-40.73v2.46M33.26-53.04v2.46M33.26-48.11v2.46M33.26-3.8v-2.46M33.26-11.19v-2.46M33.26-50.58v2.47M33.26-23.49v-2.47M33.26-25.96v-2.46M33.26-45.65v2.46M33.26 0v-1.34M33.26-54.13v1.09M33.26-30.88v2.46M35.72-45.65v2.46M35.72-53.04v2.46M35.72-28.42v-2.46M35.72-23.49v-2.47M35.72-25.96v-2.46M35.72-1.34V-3.8M35.72-11.19v-2.46M35.72-43.19v2.46M35.72-3.8v-2.46M35.72-33.34v2.46M35.72-18.57v-2.46M35.72-40.73v2.46M35.72-50.58v2.47M35.72-16.11v-2.46M35.72-33.34v-2.46M35.72-48.11v2.46M35.72 0v-1.34M35.72-13.65v-2.46M35.72-8.72v-2.47M35.72-54.13v1.09M35.72-21.03v-2.46M35.72-38.27v2.47M35.72-6.26v-2.46M38.18-50.58v2.47M38.18-16.11v-2.46M38.18-18.57v-2.46M38.18-35.8v-2.47M38.18-40.73v2.46M38.18-21.03v-2.46M38.18-23.49v-2.47M38.18-45.65v2.46M38.18-3.8v-2.46M38.18-13.65v-2.46M38.18-48.11v2.46M38.18-54.13v1.09M38.18-43.19v2.46M38.18-6.26v-2.46M38.18-8.72v-2.47M38.18-35.8v2.46M38.18-1.34V-3.8M38.18-53.04v2.46M38.18-28.42v-2.46M38.18 0v-1.34M38.18-25.96v-2.46M38.18-11.19v-2.46M38.18-30.88v-2.46M40.64-1.34V-3.8M40.64-48.11v2.46M40.64-8.72v-2.47M40.64-38.27v2.47M40.64-6.26v-2.46M40.64-45.65v2.46M40.64-11.19v-2.46M40.64-33.34v-2.46M40.64-3.8v-2.46M40.64-21.03v-2.46M40.64-18.57v-2.46M40.64-16.11v-2.46M40.64 0v-1.34M40.64-28.42v-2.46M40.64-23.49v-2.47M40.64-30.88v-2.46M40.64-13.65v-2.46M40.64-50.58v2.47M40.64-25.96v-2.46M40.64-43.19v2.46M40.64-38.27v-2.46M40.64-54.13v1.09M40.64-53.04v2.46M43.1-35.8v-2.47M43.1-3.8v-2.46M43.1-1.34V-3.8M43.1-33.34v-2.46M43.1-6.26v-2.46M43.1-13.65v-2.46M43.1-48.11v2.46M43.1-23.49v-2.47M43.1-21.03v-2.46M43.1-53.04v2.46M43.1-40.73v-2.46M43.1-45.65v2.46M43.1-40.73v2.46M43.1-28.42v-2.46M43.1-18.57v-2.46M43.1-30.88v-2.46M43.1-50.58v2.47M43.1-8.72v-2.47M43.1-11.19v-2.46M43.1-25.96v-2.46M43.1 0v-1.34M43.1-54.13v1.09M43.1-16.11v-2.46M45.56-6.26v-2.46M45.56-25.96v-2.46M45.56-33.34v-2.46M45.56-8.72v-2.47M45.56-35.8v-2.47M45.56-53.04v2.46M45.56-30.88v-2.46M45.56-11.19v-2.46M45.56-1.34V-3.8M45.56-28.42v-2.46M45.56 0v-1.34M45.56-54.13v1.09M45.56-38.27v-2.46M45.56-18.57v-2.46M45.56-48.11v2.46M45.56-3.8v-2.46M45.56-23.49v-2.47M45.56-16.11v-2.46M45.56-21.03v-2.46M45.56-43.19v-2.46M45.56-43.19v2.46M45.56-13.65v-2.46M45.56-50.58v2.47M48.03-53.04v2.46M48.03-50.58v2.47M48.03-6.26v-2.46M48.03-25.96v-2.46M48.03-21.03v-2.46M48.03-18.57v-2.46M48.03-16.11v-2.46M48.03-23.49v-2.47M48.03-30.88v-2.46M48.03-13.65v-2.46M48.03-54.13v1.09M48.03-8.72v-2.47M48.03-11.19v-2.46M48.03-28.42v-2.46M48.03 0v-1.34M48.03-1.34V-3.8M48.03-35.8v-2.47M48.03-33.34v-2.46M48.03-45.65v2.46M48.03-38.27v-2.46M48.03-40.73v-2.46M48.03-45.65v-2.46M48.03-3.8v-2.46M50.49-21.03v-2.46M50.49-23.49v-2.47M50.49-18.57v-2.46M50.49-16.11v-2.46M50.49-11.19v-2.46M50.49-25.96v-2.46M50.49-13.65v-2.46M50.49-38.27v-2.46M50.49-28.42v-2.46M50.49-48.11v2.46M50.49-35.8v-2.47M50.49-43.19v-2.46M50.49-8.72v-2.47M50.49-33.34v-2.46M50.49-54.13v1.09M50.49-30.88v-2.46M50.49-1.34V-3.8M50.49-6.26v-2.46M50.49 0v-1.34M50.49-48.11v-2.47M50.49-3.8v-2.46M50.49-40.73v-2.46M50.49-53.04v2.46M52.95-54.13v1.09M52.95-43.19v-2.46M52.95-8.72v-2.47M52.95-11.19v-2.46M52.95-50.58v-2.46M52.95-50.58v2.47M52.95-45.65v-2.46M52.95 0v-1.34M52.95-28.42v-2.46M52.95-1.34V-3.8M52.95-30.88v-2.46M52.95-33.34v-2.46M52.95-35.8v-2.47M52.95-6.26v-2.46M52.95-23.49v-2.47M52.95-18.57v-2.46M52.95-25.96v-2.46M52.95-21.03v-2.46M52.95-40.73v-2.46M52.95-13.65v-2.46M52.95-3.8v-2.46M52.95-38.27v-2.46M52.95-16.11v-2.46M35.72-1.34h2.46M11.1-1.34h2.46M50.49-1.34h2.46M33.26-1.34h2.46M30.79-1.34h2.47M43.1-1.34h2.46M18.48-1.34h2.47M20.95-1.34h2.46M16.02-1.34h2.46M25.87-1.34h2.46M1.25-1.34h2.46M38.18-1.34h2.46M50.49-1.34h-2.46M0-1.34h1.25M13.56-1.34h2.46M3.71-1.34h2.46M8.64-1.34h2.46M6.17-1.34h2.47M52.95-1.34h1.18M48.03-1.34h-2.47M40.64-1.34h2.46M23.41-1.34h2.46M28.33-1.34h2.46M1.25-3.8h2.46M48.03-3.8h2.46M33.26-3.8h2.46M13.56-3.8h2.46M16.02-3.8h2.46M11.1-3.8h2.46M18.48-3.8h2.47M45.56-3.8H43.1M23.41-3.8h2.46M28.33-3.8h2.46M40.64-3.8h2.46M38.18-3.8h2.46M20.95-3.8h2.46M35.72-3.8h2.46M8.64-3.8h2.46M0-3.8h1.25M48.03-3.8h-2.47M50.49-3.8h2.46M25.87-3.8h2.46M52.95-3.8h1.18M6.17-3.8h2.47M3.71-3.8h2.46M30.79-3.8h2.47M20.95-6.26h2.46M28.33-6.26h2.46M25.87-6.26h2.46M23.41-6.26h2.46M16.02-6.26h2.46M6.17-6.26h2.47M13.56-6.26h2.46M8.64-6.26h2.46M11.1-6.26h2.46M18.48-6.26h2.47M50.49-6.26h2.46M48.03-6.26h2.46M1.25-6.26h2.46M38.18-6.26h2.46M45.56-6.26h2.47M0-6.26h1.25M30.79-6.26h2.47M43.1-6.26h-2.46M3.71-6.26h2.46M54.13-6.26h-1.18M45.56-6.26H43.1M33.26-6.26h2.46M35.72-6.26h2.46M6.17-8.72h2.47M43.1-8.72h-2.46M16.02-8.72h2.46M13.56-8.72h2.46M48.03-8.72h2.46M11.1-8.72h2.46M18.48-8.72h2.47M1.25-8.72h2.46M52.95-8.72h-2.46M33.26-8.72h2.46M45.56-8.72h2.47M23.41-8.72h2.46M20.95-8.72h2.46M25.87-8.72h2.46M43.1-8.72h2.46M8.64-8.72h2.46M40.64-8.72h-2.46M30.79-8.72h2.47M0-8.72h1.25M54.13-8.72h-1.18M28.33-8.72h2.46M3.71-8.72h2.46M35.72-8.72h2.46M52.95-11.19h-2.46M33.26-11.19h2.46M30.79-11.19h2.47M6.17-11.19h2.47M8.64-11.19h2.46M40.64-11.19h-2.46M20.95-11.19h2.46M25.87-11.19h2.46M16.02-11.19h2.46M1.25-11.19h2.46M23.41-11.19h2.46M18.48-11.19h2.47M38.18-11.19h-2.46M0-11.19h1.25M11.1-11.19h2.46M13.56-11.19h2.46M28.33-11.19h2.46M3.71-11.19h2.46M40.64-11.19h2.46M45.56-11.19h2.47M43.1-11.19h2.46M50.49-11.19h-2.46M54.13-11.19h-1.18M38.18-13.65h-2.46M38.18-13.65h2.46M11.1-13.65h2.46M8.64-13.65h2.46M6.17-13.65h2.47M48.03-13.65h-2.47M40.64-13.65h2.46M43.1-13.65h2.46M28.33-13.65h2.46M18.48-13.65h2.47M20.95-13.65h2.46M23.41-13.65h2.46M50.49-13.65h-2.46M52.95-13.65h-2.46M54.13-13.65h-1.18M35.72-13.65h-2.46M25.87-13.65h2.46M30.79-13.65h2.47M16.02-13.65h2.46M1.25-13.65h2.46M3.71-13.65h2.46M0-13.65h1.25M13.56-13.65h2.46M23.41-16.11h2.46M38.18-16.11h2.46M3.71-16.11h2.46M20.95-16.11h2.46M0-16.11h1.25M16.02-16.11h2.46M18.48-16.11h2.47M54.13-16.11h-1.18M1.25-16.11h2.46M52.95-16.11h-2.46M13.56-16.11h2.46M48.03-16.11h-2.47M35.72-16.11h-2.46M45.56-16.11H43.1M40.64-16.11h2.46M33.26-16.11h-2.47M6.17-16.11h2.47M35.72-16.11h2.46M25.87-16.11h2.46M50.49-16.11h-2.46M28.33-16.11h2.46M11.1-16.11h2.46M8.64-16.11h2.46M6.17-18.57h2.47M45.56-18.57H43.1M35.72-18.57h2.46M18.48-18.57h2.47M30.79-18.57h-2.46M50.49-18.57h-2.46M11.1-18.57h2.46M13.56-18.57h2.46M8.64-18.57h2.46M3.71-18.57h2.46M33.26-18.57h2.46M54.13-18.57h-1.18M48.03-18.57h-2.47M0-18.57h1.25M52.95-18.57h-2.46M23.41-18.57h2.46M43.1-18.57h-2.46M1.25-18.57h2.46M33.26-18.57h-2.47M20.95-18.57h2.46M16.02-18.57h2.46M38.18-18.57h2.46M25.87-18.57h2.46M20.95-21.03h2.46M50.49-21.03h-2.46M30.79-21.03h-2.46M28.33-21.03h-2.46M1.25-21.03h2.46M13.56-21.03h2.46M6.17-21.03h2.47M54.13-21.03h-1.18M23.41-21.03h2.46M48.03-21.03h-2.47M30.79-21.03h2.47M11.1-21.03h2.46M0-21.03h1.25M35.72-21.03h2.46M8.64-21.03h2.46M33.26-21.03h2.46M16.02-21.03h2.46M3.71-21.03h2.46M43.1-21.03h-2.46M45.56-21.03H43.1M18.48-21.03h2.47M52.95-21.03h-2.46M40.64-21.03h-2.46M1.25-23.49h2.46M28.33-23.49h-2.46M30.79-23.49h2.47M33.26-23.49h2.46M0-23.49h1.25M25.87-23.49h-2.46M8.64-23.49h2.46M52.95-23.49h-2.46M13.56-23.49h2.46M28.33-23.49h2.46M3.71-23.49h2.46M43.1-23.49h-2.46M20.95-23.49h2.46M50.49-23.49h-2.46M45.56-23.49H43.1M11.1-23.49h2.46M48.03-23.49h-2.47M38.18-23.49h-2.46M18.48-23.49h2.47M40.64-23.49h-2.46M6.17-23.49h2.47M16.02-23.49h2.46M54.13-23.49h-1.18M45.56-25.96H43.1M8.64-25.96h2.46M54.13-25.96h-1.18M3.71-25.96h2.46M52.95-25.96h-2.46M25.87-25.96h2.46M13.56-25.96h2.46M18.48-25.96h2.47M43.1-25.96h-2.46M35.72-25.96h-2.46M1.25-25.96h2.46M30.79-25.96h2.47M28.33-25.96h2.46M48.03-25.96h-2.47M25.87-25.96h-2.46M20.95-25.96h2.46M6.17-25.96h2.47M16.02-25.96h2.46M38.18-25.96h-2.46M11.1-25.96h2.46M0-25.96h1.25M40.64-25.96h-2.46M50.49-25.96h-2.46M18.48-28.42h2.47M54.13-28.42h-1.18M13.56-28.42h2.46M33.26-28.42h-2.47M23.41-28.42h-2.46M8.64-28.42h2.46M35.72-28.42h-2.46M45.56-28.42H43.1M38.18-28.42h-2.46M16.02-28.42h2.46M0-28.42h1.25M1.25-28.42h2.46M40.64-28.42h-2.46M23.41-28.42h2.46M52.95-28.42h-2.46M6.17-28.42h2.47M11.1-28.42h2.46M50.49-28.42h-2.46M28.33-28.42h-2.46M30.79-28.42h-2.46M48.03-28.42h-2.47M3.71-28.42h2.46M43.1-28.42h-2.46M16.02-30.88h2.46M20.95-30.88h-2.47M35.72-30.88h-2.46M20.95-30.88h2.46M33.26-30.88h-2.47M11.1-30.88h2.46M30.79-30.88h-2.46M43.1-30.88h-2.46M13.56-30.88h2.46M25.87-30.88h-2.46M40.64-30.88h-2.46M38.18-30.88h-2.46M28.33-30.88h-2.46M1.25-30.88h2.46M3.71-30.88h2.46M8.64-30.88h2.46M48.03-30.88h-2.47M52.95-30.88h-2.46M45.56-30.88H43.1M54.13-30.88h-1.18M0-30.88h1.25M6.17-30.88h2.47M50.49-30.88h-2.46M1.25-33.34h2.46M50.49-33.34h-2.46M54.13-33.34h-1.18M11.1-33.34h2.46M43.1-33.34h-2.46M3.71-33.34h2.46M52.95-33.34h-2.46M25.87-33.34h-2.46M33.26-33.34h-2.47M30.79-33.34h-2.46M35.72-33.34h-2.46M28.33-33.34h-2.46M38.18-33.34h-2.46M13.56-33.34h2.46M40.64-33.34h-2.46M18.48-33.34h-2.46M0-33.34h1.25M18.48-33.34h2.47M6.17-33.34h2.47M23.41-33.34h-2.46M8.64-33.34h2.46M45.56-33.34H43.1M48.03-33.34h-2.47M11.1-35.8h2.46M54.13-35.8h-1.18M48.03-35.8h-2.47M28.33-35.8h-2.46M52.95-35.8h-2.46M16.02-35.8h-2.46M35.72-35.8h-2.46M3.71-35.8h2.46M33.26-35.8h-2.47M30.79-35.8h-2.46M38.18-35.8h-2.46M16.02-35.8h2.46M45.56-35.8H43.1M25.87-35.8h-2.46M1.25-35.8h2.46M43.1-35.8h-2.46M40.64-35.8h-2.46M20.95-35.8h-2.47M23.41-35.8h-2.46M6.17-35.8h2.47M50.49-35.8h-2.46M8.64-35.8h2.46M0-35.8h1.25M8.64-38.27h2.46M30.79-38.27h-2.46M28.33-38.27h-2.46M38.18-38.27h-2.46M40.64-38.27h-2.46M35.72-38.27h-2.46M33.26-38.27h-2.47M13.56-38.27H11.1M20.95-38.27h-2.47M6.17-38.27h2.47M1.25-38.27h2.46M0-38.27h1.25M43.1-38.27h-2.46M50.49-38.27h-2.46M45.56-38.27H43.1M48.03-38.27h-2.47M23.41-38.27h-2.46M25.87-38.27h-2.46M54.13-38.27h-1.18M18.48-38.27h-2.46M3.71-38.27h2.46M52.95-38.27h-2.46M13.56-38.27h2.46M54.13-40.73h-1.18M40.64-40.73h-2.46M23.41-40.73h-2.46M18.48-40.73h-2.46M0-40.73h1.25M25.87-40.73h-2.46M28.33-40.73h-2.46M20.95-40.73h-2.47M16.02-40.73h-2.46M38.18-40.73h-2.46M30.79-40.73h-2.46M43.1-40.73h-2.46M35.72-40.73h-2.46M1.25-40.73h2.46M33.26-40.73h-2.47M11.1-40.73h2.46M48.03-40.73h-2.47M52.95-40.73h-2.46M45.56-40.73H43.1M11.1-40.73H8.64M50.49-40.73h-2.46M3.71-40.73h2.46M6.17-40.73h2.47M54.13-43.19h-1.18M38.18-43.19h-2.46M52.95-43.19h-2.46M40.64-43.19h-2.46M35.72-43.19h-2.46M48.03-43.19h-2.47M45.56-43.19H43.1M0-43.19h1.25M50.49-43.19h-2.46M3.71-43.19h2.46M30.79-43.19h-2.46M8.64-43.19H6.17M43.1-43.19h-2.46M33.26-43.19h-2.47M13.56-43.19H11.1M8.64-43.19h2.46M16.02-43.19h-2.46M20.95-43.19h-2.47M18.48-43.19h-2.46M23.41-43.19h-2.46M1.25-43.19h2.46M28.33-43.19h-2.46M25.87-43.19h-2.46M18.48-45.65h-2.46M20.95-45.65h-2.47M25.87-45.65h-2.46M23.41-45.65h-2.46M40.64-45.65h-2.46M38.18-45.65h-2.46M43.1-45.65h-2.46M45.56-45.65H43.1M30.79-45.65h-2.46M33.26-45.65h-2.47M48.03-45.65h-2.47M28.33-45.65h-2.46M35.72-45.65h-2.46M54.13-45.65h-1.18M52.95-45.65h-2.46M50.49-45.65h-2.46M0-45.65h1.25M6.17-45.65H3.71M6.17-45.65h2.47M11.1-45.65H8.64M13.56-45.65H11.1M1.25-45.65h2.46M16.02-45.65h-2.46M3.71-48.11H1.25M0-48.11h1.25M40.64-48.11h-2.46M20.95-48.11h-2.47M18.48-48.11h-2.46M23.41-48.11h-2.46M8.64-48.11H6.17M13.56-48.11H11.1M25.87-48.11h-2.46M16.02-48.11h-2.46M35.72-48.11h-2.46M38.18-48.11h-2.46M30.79-48.11h-2.46M33.26-48.11h-2.47M28.33-48.11h-2.46M11.1-48.11H8.64M52.95-48.11h-2.46M54.13-48.11h-1.18M50.49-48.11h-2.46M48.03-48.11h-2.47M3.71-48.11h2.46M43.1-48.11h-2.46M45.56-48.11H43.1M54.13-50.58h-1.18M1.25-50.58H0M45.56-50.58H43.1M13.56-50.58H11.1M16.02-50.58h-2.46M38.18-50.58h-2.46M18.48-50.58h-2.46M11.1-50.58H8.64M40.64-50.58h-2.46M28.33-50.58h-2.46M43.1-50.58h-2.46M25.87-50.58h-2.46M33.26-50.58h-2.47M23.41-50.58h-2.46M35.72-50.58h-2.46M20.95-50.58h-2.47M30.79-50.58h-2.46M6.17-50.58H3.71M1.25-50.58h2.46M52.95-50.58h-2.46M8.64-50.58H6.17M50.49-50.58h-2.46M48.03-50.58h-2.47M33.26-53.04h-2.47M50.49-53.04h-2.46M35.72-53.04h-2.46M43.1-53.04h-2.46M38.18-53.04h-2.46M48.03-53.04h-2.47M52.95-53.04h-2.46M45.56-53.04H43.1M3.71-53.04H1.25M6.17-53.04H3.71M8.64-53.04H6.17M0-53.04h1.25M30.79-53.04h-2.46M11.1-53.04H8.64M25.87-53.04h-2.46M28.33-53.04h-2.46M23.41-53.04h-2.46M16.02-53.04h-2.46M13.56-53.04H11.1M20.95-53.04h-2.47M18.48-53.04h-2.46M40.64-53.04h-2.46M54.13-53.04h-1.18" style="fill:none;stroke:#000;stroke-width:.3"/><path d="M0-54.13h54.13V0H0z" style="fill:none"/></svg>