<svg xmlns="http://www.w3.org/2000/svg" xml:space="preserve" width="44.67" height="44.67" viewBox="0 -44.67 44.67 44.67"><path d="M0-44.67h44.67V0H0z" style="fill:none"/><path d="M.66-33h7.5M24.13-32.93h7.5M11.5-3.08H4M35-3.08h-7.5M16.9-17.88H9.4M40.4-17.88h-7.5M0-43.4h3.78M6.36-43.4h6.37M15.27-43.4h6.37M24.19-43.4h6.37M33.11-43.4h6.37M8.11-40.27H1.74M17.02-40.27h-6.37M25.94-40.27h-6.37M34.86-40.27h-6.37M43.77-40.27h-6.36M2.02-37.3H0M4.61-37.3h6.36M13.52-37.3h6.37M22.44-37.3h6.37M31.35-37.3h6.37M5.24-28.52H0M7.79-28.52h6.37M23.07-28.52h-6.36M31.99-28.52h-6.37M34.54-28.52h6.37M0-25.35h2.18M11.13-25.35H4.76M20.05-25.35h-6.37M22.6-25.35h6.37M31.52-25.35h6.36M6.67-22.44H.31M15.59-22.44H9.22M18.14-22.44h6.37M33.42-22.44h-6.36M42.34-22.44h-6.37M2.98-13.53H0M5.56-13.53h6.37M14.48-13.53h6.37M23.39-13.53h6.37M32.31-13.53h6.37M6.83-10.39H.47M9.38-10.39h6.37M18.3-10.39h6.37M27.21-10.39h6.37M36.13-10.39h6.37M0-7.42h2.18M11.13-7.42H4.76M20.05-7.42h-6.37M28.97-7.42H22.6M37.88-7.42h-6.36M19.45-19.64H7.02M31.35-19.64h13.32M7.02-19.64H0M31.35-19.64h-11.9M41.73-16.35h2.94M0-16.35h41.73M31.35-19.64v3.27M31.35-19.64v-.03M41.73-16.35v-3.23M41.73-16.35v.07M19.45-19.64v3.27M19.45-19.67v.03M7.02-19.67v.03M7.02-19.64v3.27M34.05-31.31h10.12M9.55-31.31H0M44.17-31.31h.5M9.55-31.31h12.4M21.95-31.31h12.1M9.55-34.69h12.4M44.17-34.69H34.05M9.55-34.69H0M21.95-34.69h12.1M44.17-34.69h.5M9.55-31.31v.04M9.55-34.69v3.38M9.55-34.69v-.01M21.95-31.31v-3.38M21.95-31.27v-.04M21.95-34.69v-.01M44.17-31.31v.04M44.17-34.69v-.01M44.17-31.31v-3.38M34.05-31.31v-3.38M34.05-31.31v.04M34.05-34.7v.01M0-4.66h44.67M0-1.44h44.67M36.91-1.45v-3.16M25.28-4.61v3.16M13.71-4.61v3.16M1.71-4.61v3.16M42.07-43.4h2.6M40.32-37.3h4.35M44.67-28.52h-1.13M40.48-25.35h4.19M44.67-13.53h-3.39M40.48-7.42h4.19" style="fill:none;stroke:#000;stroke-width:.3"/><path d="M16.03-32.89h0M18.01-32.89h0M13.96-32.89h0M39.67-32.89h0M41.65-32.89h0M37.59-32.89h0M25.54-17.88h0M27.52-17.88h0M23.47-17.88h0M19.67-3.01h0M21.65-3.01h0M17.59-3.01h0M41.92-3.01h0M43.9-3.01h0M39.84-3.01h0M1.54-17.88h0M3.52-17.88h0M44.26-17.88h0" style="fill:none;stroke:#000;stroke-width:.7;stroke-linecap:round"/></svg>