<svg xmlns="http://www.w3.org/2000/svg" xml:space="preserve" width="53.58" height="53.58" viewBox="0 -53.58 53.58 53.58"><path d="M0-53.58h53.58V0H0z" style="fill:none"/><path d="M3.78-52.32H0M6.36-52.32h6.37M15.27-52.32h6.37M24.19-52.32h6.37M33.11-52.32h6.37M42.02-52.32h6.37M53.58-52.32h-2.64M0-40.44h1.71M4.29-40.44h6.36M13.2-40.44h6.37M22.12-40.44h6.37M31.04-40.44h6.37M39.95-40.44h6.37M48.87-40.44h4.71M5.24-37.44H0M14.16-37.44H7.79M23.07-37.44h-6.36M31.99-37.44h-6.37M40.91-37.44h-6.37M49.83-37.44h-6.37M53.58-37.44h-1.21M0-34.27h2.18M11.13-34.27H4.76M13.68-34.27h6.37M22.6-34.27h6.37M31.52-34.27h6.36M40.43-34.27h6.37M49.35-34.27h4.23M6.67-31.36H.31M15.59-31.36H9.22M24.51-31.36h-6.37M33.42-31.36h-6.36M42.34-31.36h-6.37M44.89-31.36h6.37M3.46-28.39H0M6.04-28.39h6.37M14.96-28.39h6.36M23.87-28.39h6.37M32.79-28.39h6.37M41.7-28.39h6.37M50.62-28.39h2.96M7.95-25.54H1.58M16.86-25.54H10.5M25.78-25.54h-6.37M34.7-25.54h-6.37M43.62-25.54h-6.37M52.53-25.54h-6.37M0-13.37h6.04M14.96-13.37H8.59M17.5-13.37h6.37M26.42-13.37h6.37M35.34-13.37h6.36M44.25-13.37h6.37M53.58-13.37h-.41M0-10.58h3.14M12.09-10.58H5.72M21.01-10.58h-6.37M29.92-10.58h-6.37M38.84-10.58h-6.37M47.76-10.58h-6.37M50.3-10.58h3.28M8.27-7.44H1.9M10.81-7.44h6.37M26.1-7.44h-6.37M35.02-7.44h-6.37M37.56-7.44h6.37M46.48-7.44h6.37M4.73-4.47H0M7.31-4.47h6.37M16.23-4.47h6.37M25.15-4.47h6.37M34.06-4.47h6.37M42.98-4.47h6.37M51.9-4.47h1.68M8.59-1.5H2.22M17.5-1.5h-6.37M26.42-1.5h-6.37M35.34-1.5h-6.37M44.25-1.5h-6.37M53.17-1.5H46.8M45.88-46.37h4.74M5.26-46.37h3.86M37.87-46.37h-6.61M18.01-46.37h6.11M53.58-46.37h-2.96M31.26-46.37h-7.14M9.12-46.37h8.89M45.88-46.37h-8.01M5.26-46.37H0M53.58-43.09H0M45.88-46.37v3.27M45.88-46.37v-.03M31.26-46.4v.03M31.26-46.37v3.27M18.01-43.1v-3.27M18.01-46.37v-.03M5.26-46.37v3.27M5.26-46.37v-.03M37.87-49.75h12.75M50.62-49.75h2.96M9.12-49.75H0M37.87-49.75H24.12M9.12-49.75h15M9.12-46.34v-.03M9.12-49.75v3.38M9.12-49.75v-.01M24.12-49.75v-.01M24.12-46.37v-3.38M24.12-46.34v-.03M37.87-49.75v-.01M37.87-46.37v.03M37.87-49.75v3.38M50.62-49.75v-.01M50.62-46.37v-3.38M50.62-46.34v-.03M8.44-15.66h13.24M35.31-15.66H21.68M50.19-15.66h3.39M8.44-15.66H0M35.31-15.66h14.88M53.58-22.5H0M53.58-19.27H0M43.75-19.28v-3.17M29.6-19.28v-3.17M14.48-19.28v-3.17M2.06-22.45v3.17M8.44-15.66v-3.56M21.68-19.22v3.56M35.31-15.66v-3.56M50.19-15.66v-3.56" style="fill:none;stroke:#000;stroke-width:.3"/></svg>