<svg xmlns="http://www.w3.org/2000/svg" xml:space="preserve" width="44.67" height="44.67" viewBox="0 -44.67 44.67 44.67"><path d="M0-44.67h44.67V0H0z" style="fill:none"/><path d="M3.78-43.4H0M6.36-43.4h6.37M15.27-43.4h6.37M24.19-43.4h6.37M33.11-43.4h6.37M8.11-40.27H1.74M17.02-40.27h-6.37M19.57-40.27h6.37M34.86-40.27h-6.37M37.41-40.27h6.36M0-37.3h2.02M10.97-37.3H4.61M19.89-37.3h-6.37M22.44-37.3h6.37M37.72-37.3h-6.37M5.24-28.52H0M14.16-28.52H7.79M16.71-28.52h6.36M25.62-28.52h6.37M34.54-28.52h6.37M0-25.35h2.18M11.13-25.35H4.76M20.05-25.35h-6.37M22.6-25.35h6.37M31.52-25.35h6.36M6.67-22.44H.31M9.22-22.44h6.37M18.14-22.44h6.37M33.42-22.44h-6.36M35.97-22.44h6.37M2.98-13.53H0M5.56-13.53h6.37M14.48-13.53h6.37M23.39-13.53h6.37M32.31-13.53h6.37M6.83-10.39H.47M9.38-10.39h6.37M18.3-10.39h6.37M27.21-10.39h6.37M36.13-10.39h6.37M0-7.42h2.18M11.13-7.42H4.76M20.05-7.42h-6.37M28.97-7.42H22.6M37.88-7.42h-6.36M4.46-19.64H0M33.96-19.64H19.21M19.21-19.64H4.46M33.96-19.64h10.71M0-16.35h44.67M33.96-19.64v3.27M33.96-19.64v-.03M19.21-19.64v3.27M19.21-19.67v.03M4.46-19.67v.03M4.46-19.64v3.27M23.92-31.31h14M6.98-31.31h16.94M6.98-31.31H0M37.92-31.31h6.75M6.98-34.69H0M37.92-34.69h6.75M37.92-34.69h-14M6.98-34.69h16.94M6.98-34.69v3.38M6.98-34.69v-.01M6.98-31.31v.04M23.92-34.69v3.38M23.92-34.69v-.01M23.92-31.27v-.04M37.92-31.31v.04M37.92-31.31v-3.38M37.92-34.7v.01M0-4.66h44.67M0-1.44h44.67M36.91-1.45v-3.16M25.28-4.61v3.16M13.71-4.61v3.16M1.71-4.61v3.16M42.07-43.4h2.6M44.67-37.3h-4.35M44.67-28.52h-1.13M40.48-25.35h4.19M41.28-13.53h3.39M40.48-7.42h4.19" style="fill:none;stroke:#000;stroke-width:.3"/></svg>