<svg xmlns="http://www.w3.org/2000/svg" xml:space="preserve" width="53.58" height="53.58" viewBox="0 -53.58 53.58 53.58"><path d="M0-53.58h53.58V0H0z" style="fill:none"/><path d="M3.77-51.5H0M6.35-51.5h6.37M15.27-51.5h6.37M24.18-51.5h6.37M33.1-51.5h6.37M42.02-51.5h6.37M53.58-51.5h-2.65M0-39.62h1.7M4.28-39.62h1.06M5.34-39.62h5.31M13.2-39.62h6.37M23.38-39.62h5.1M23.38-39.62h-1.27M31.03-39.62h6.37M41.15-39.62h5.16M41.15-39.62h-1.2M48.86-39.62h4.72M5.24-36.62H0M14.15-36.62H7.78M16.7-36.62h6.37M31.98-36.62h-6.36M34.53-36.62h6.37M49.82-36.62h-6.37M53.58-36.62h-1.21M0-33.73h2.18M11.13-33.73H4.76M13.67-33.73h1.16M14.83-33.73h5.21M28.96-33.73h-6.37M32.79-33.73h-1.28M32.79-33.73h5.09M46.79-33.73h-6.37M50.56-33.73h3.02M49.34-33.73h1.22M6.67-30.54H.3M15.59-30.54H9.22M18.13-30.54h6.37M33.42-30.54h-6.37M35.97-30.54h6.37M44.88-30.54h6.37M3.45-27.57H0M6.03-27.57h6.37M15.98-27.57h5.34M14.95-27.57h1.03M23.86-27.57h6.37M34-27.57h-1.22M34-27.57h5.15M41.7-27.57h6.37M51.94-27.57h1.64M50.61-27.57h1.33M7.94-24.43H1.57M16.86-24.43h-6.37M25.77-24.43h-6.36M34.69-24.43h-6.37M43.61-24.43h-6.37M52.52-24.43h-6.36M6.03-12.55h-4.7M0-12.55h1.33M14.95-12.55H8.58M17.5-12.55h1.23M23.86-12.55h-5.13M26.41-12.55h6.37M36.54-12.55h5.16M35.33-12.55h1.21M44.24-12.55h6.37M53.58-12.55h-.42M3.13-9.76H0M5.71-9.76h6.37M14.63-9.76H21M29.91-9.76h-6.36M38.83-9.76h-6.37M41.38-9.76h6.37M50.3-9.76h3.28M8.26-6.62H1.89M17.18-6.62h-6.37M26.09-6.62h-6.36M35.01-6.62h-6.37M43.93-6.62h-6.37M46.48-6.62h6.36M0-3.65h4.72M7.3-3.65h6.37M16.22-3.65h6.37M25.14-3.65h6.37M34.05-3.65h6.37M42.97-3.65h6.37M51.89-3.65h1.69M8.58-.68H2.21M17.5-.68h-6.37M26.41-.68h-6.37M35.33-.68h-6.37M44.24-.68h-6.36M53.16-.68h-6.37M7.66-51.56l1.08-1.41M25.6-51.56l1.08-1.41M43.62-51.56l1.08-1.41M41.14-39.6l.01-.02M41.15-39.62l1.08-1.39M23.38-39.62l1.07-1.39M23.37-39.6l.01-.02M5.34-39.62l1.07-1.39M5.33-39.6l.01-.02M45.77-38.05l-1.09 1.41M28.02-38.05l-1.09 1.41M10.12-38.05l-1.08 1.41M32.79-33.73l1.06-1.39M32.77-33.7l.02-.03M50.56-33.73l-.02.03M50.56-33.73l1.06-1.39M14.83-33.73l1.06-1.39M14.81-33.7l.02-.03M45.99-30.58l1.09-1.41M28.29-30.58l1.08-1.41M10.47-30.58l1.09-1.41M15.98-27.57l1.08-1.4M15.97-27.56l.01-.01M34-27.57l1.08-1.4M34-27.57l-.01.01M51.94-27.57l1.08-1.4M51.94-27.57l-.01.01M38.56-24.45l1.08-1.42M20.75-24.45l1.08-1.42M2.89-24.45l1.09-1.42M36.54-12.55l1.09-1.41M18.73-12.55l1.08-1.41M2.42-13.96l-1.09 1.41M42.73-9.84l1.08-1.41M24.85-9.84l1.09-1.41M6.87-9.84l1.09-1.41M13.17-8.07l-1.09 1.41M29.96-6.66l1.08-1.41M44.27-3.67l1.08-1.41M39.17-.69l1.09-1.41M21.3-.69l1.08-1.41M3.36-.69 4.44-2.1M27.63-5.08l-1.09 1.41M9.56-5.08 8.48-3.67M49.21-8.07l-1.09 1.41M5.26-45.58H0M5.26-45.58h3.86M45.88-45.58h4.74M37.87-45.58h-6.61M53.58-45.58h-2.96M45.88-45.58h-8.01M31.26-45.58h-7.14M9.12-45.58h8.89M18.01-45.58h6.11M53.58-42.29H0M45.88-45.58v3.27M45.88-45.58v-.03M31.26-45.58v3.27M31.26-45.61v.03M18.01-42.31v-3.27M18.01-45.58v-.03M5.26-45.58v-.03M5.26-45.58v3.27M9.12-48.95h15M50.62-48.95h2.96M37.87-48.95H24.12M37.87-48.95h12.75M9.12-48.95H0M9.12-45.54v-.04M9.12-48.95v3.37M9.12-48.95v-.02M24.12-45.54v-.04M24.12-45.58v-3.37M24.12-48.95v-.02M37.87-45.58v.04M37.87-48.95v3.37M37.87-48.95v-.02M50.62-45.58v-3.37M50.62-45.54v-.04M50.62-48.95v-.02M8.44-14.87H0M50.19-14.87h3.39M8.44-14.87h13.24M35.31-14.87h14.88M21.68-14.87h13.63M53.58-21.7H0M53.58-18.48H0M43.75-18.49v-3.16M29.6-18.49v-3.16M14.48-18.49v-3.16M2.06-21.65v3.16M8.44-14.87v-3.56M21.68-14.87v-3.56M35.31-14.87v-3.56M50.19-14.87v-3.56" style="fill:none;stroke:#000;stroke-width:.3"/></svg>