<svg xmlns="http://www.w3.org/2000/svg" xml:space="preserve" width="48.71" height="48.71" viewBox="0 -48.71 48.71 48.71"><path d="M0-48.71h48.71V0H0z" style="fill:none"/><path d="M.37-38.37H0M2.69-38.37h5.74M10.72-38.37h5.73M18.75-38.37h5.73M26.77-38.37h5.73M34.8-38.37h5.73M42.82-38.37h5.88M3.52-34.57H0M11.54-34.57H5.81M13.84-34.57h5.73M21.86-34.57h5.73M35.62-34.57h-5.73M43.65-34.57h-5.74M48.71-34.57h-2.77M0-31.36h.77M8.82-31.36H3.09M16.85-31.36h-5.73M24.87-31.36h-5.73M32.9-31.36h-5.74M40.92-31.36h-5.73M43.22-31.36h5.49M.37-14.41H0M2.69-14.41h5.74M10.72-14.41h5.73M18.75-14.41h5.73M26.77-14.41h5.73M34.8-14.41h5.73M42.82-14.41h5.88M3.52-10.87H0M11.54-10.87H5.81M19.57-10.87h-5.73M21.86-10.87h5.73M29.89-10.87h5.73M43.65-10.87h-5.74M45.94-10.87h2.77M.77-6.99H0M8.82-6.99H3.09M16.85-6.99h-5.73M19.14-6.99h5.73M32.9-6.99h-5.74M40.92-6.99h-5.73M43.22-6.99h5.49M24.73-45.34h-7.92M11.34-45.34h5.47M0-45.34h5.33M11.34-45.34H5.33M41.9-45.34h-4.91M28.96-45.34h-4.23M48.53-45.34h.18M28.96-45.34h8.03M48.53-45.34H41.9M48.71-41.58H0M43.8-28.16h4.91M43.8-28.16H30.41M6-28.16H0M18.15-28.16H6M18.15-28.16h12.26M48.71-24.51H0M48.71-21.09H0M48.71-17.31H0M28.96-.75h5.56M5.33-.75H0M41.9-.75h4.66M41.9-.75h-7.38M46.56-.75h2.15M22.26-.75h6.7M9.27-.75h7.54M5.33-.75h3.94M16.81-.75h5.45M5.33-48.71v3.37M16.81-48.71v3.37M28.96-45.34v-3.37M41.9-48.71v3.37M5.33-.75v-.02M5.33-.75V0M16.81-.77v.02M16.81 0v-.75M28.96-.75v-.02M28.96 0v-.75M41.9-.75v-.02M41.9-.75V0M11.34-45.34v3.75M11.34-45.34v-.05M24.73-45.39v.05M24.73-45.34v3.75M36.99-45.39v.05M36.99-41.59v-3.75M48.53-45.34v3.75M6-28.16v-.01M6-28.16v3.64M18.15-28.16v3.64M18.15-28.17v.01M30.41-24.52v-3.64M30.41-28.17v.01M43.8-28.16v3.64M43.8-28.17v.01M36.03-21.11v-3.36M24.04-21.11v-3.36M10.54-24.47v3.36M47.94-21.11v-3.36M4.97-21.05v3.73M16.67-17.32v-3.73M28.93-17.32v-3.73M41.76-17.32v-3.73M46.56-3.79H34.52M22.26-3.79h12.26M9.27-3.79h12.99M9.27-3.79H0M46.56-3.79h2.15M9.27-3.79v-.02M9.27-3.79v3.04M9.27-.7v-.05M22.26-3.81v.02M22.26-3.79v3.04M22.26-.7v-.05M34.52-.75v.05M34.52-3.81v.02M34.52-.75v-3.04M46.56-3.79v-.02M46.56-3.79v3.04M46.56-.7v-.05" style="fill:none;stroke:#000;stroke-width:.3"/></svg>