<svg xmlns="http://www.w3.org/2000/svg" xml:space="preserve" width="48.71" height="48.71" viewBox="0 -48.71 48.71 48.71"><path d="M0-48.71h48.71V0H0z" style="fill:none"/><path d="M3.52-34.51H0M5.81-34.51h5.73M13.84-34.51h5.73M21.86-34.51h5.73M29.89-34.51h5.73M37.91-34.51h5.74M48.71-34.51h-2.77M0-31.3h.77M8.82-31.3H3.09M16.85-31.3h-5.73M24.87-31.3h-5.73M32.9-31.3h-5.74M40.92-31.3h-5.73M43.22-31.3h5.49M0-10.81h3.52M5.81-10.81h5.73M13.84-10.81h5.73M21.86-10.81h5.73M29.89-10.81h5.73M37.91-10.81h5.74M45.94-10.81h2.77M0-6.94h.77M8.82-6.94H3.09M16.85-6.94h-5.73M19.14-6.94h5.73M32.9-6.94h-5.74M40.92-6.94h-5.73M43.22-6.94h5.49M48.53-45.28H41.9M0-45.28h5.33M41.9-45.28h-4.91M48.53-45.28h.18M24.73-45.28h-7.92M28.96-45.28h8.03M28.96-45.28h-4.23M11.34-45.28h5.47M11.34-45.28H5.33M48.71-41.52H0M18.15-28.1h12.26M43.8-28.1h4.91M43.8-28.1H30.41M18.15-28.1H6M6-28.1H0M48.71-24.46H0M48.71-21.04H0M48.71-17.26H0M9.27-.7h7.54M28.96-.7h5.56M41.9-.7h-7.38M46.56-.7H41.9M46.56-.7h2.15M22.26-.7h6.7M9.27-.7H5.33M16.81-.7h5.45M0-.7h5.33M5.33-45.28v-3.43M16.81-45.28v-3.43M28.96-45.28v-3.43M41.9-45.28v-3.43M5.33-.7V0M5.33-.71v.01M16.81-.71v.01M16.81-.7V0M28.96-.7v-.01M28.96 0v-.7M41.9-.7V0M41.9-.71v.01M11.34-45.28v3.75M11.34-45.28v-.06M24.73-45.34v.06M24.73-45.28v3.75M36.99-41.53v-3.75M36.99-45.34v.06M48.53-45.28v3.75M6-28.1v-.01M6-28.1v3.63M18.15-28.11v.01M18.15-28.1v3.63M30.41-28.11v.01M30.41-24.47v-3.63M43.8-28.11v.01M43.8-28.1v3.63M48.71-14.15H0M8.55-17.24v3.08M20.7-14.16v-3.08M32.96-14.16v-3.08M46.35-14.16v-3.08M36.03-21.05v-3.36M24.04-21.05v-3.36M10.54-24.41v3.36M47.94-21.05v-3.36M48.71-37.91H0M27.93-37.92v-3.37M15.93-37.92v-3.37M2.43-37.92v-3.37M39.83-37.92v-3.37M4.97-20.99v3.72M16.67-17.27v-3.72M28.93-17.27v-3.72M41.76-17.27v-3.72M46.56-3.73h2.15M46.56-3.73H34.52M9.27-3.73H0M22.26-3.73h12.26M9.27-3.73h12.99M9.27-.7v.06M9.27-3.73V-.7M9.27-3.73v-.03M22.26-3.73V-.7M22.26-.64V-.7M22.26-3.76v.03M34.52-.7v.06M34.52-.7v-3.03M34.52-3.76v.03M46.56-.7v.06M46.56-3.73V-.7M46.56-3.73v-.03" style="fill:none;stroke:#000;stroke-width:.3"/></svg>