<svg xmlns="http://www.w3.org/2000/svg" xml:space="preserve" width="54" height="54" viewBox="1.62 -55.7 54 54"><path d="M1.62-55.7h54v54h-54z" style="fill:none"/><path d="M7.7-44.7h0M5.95-49.87h0M3.33-52.33h0M5.95-52.37h0M5.79-54.39h0M8.7-51.57h0M9.51-54.1h0M12.12-52.53h0M14.2-54.13h0M16.82-54.51h0M2.45-54.95h0M4.89-45.7h0M4.58-42.58h0M2.78-44.03h0M3.49-49.55h0M2.95-39.64h0M6.01-38.83h0M7.95-36.08h0M5.45-34.83h0M9.07-38.89h0M3.83-36.89h0M6.95-41.83h0M8.7-47.58h0M11.78-48.53h0M17.32-51.2h0M16.7-48.45h0M19.32-49.58h0M18.7-46.7h0M15.7-45.83h0M17.57-44.45h0M14.2-43.33h0M12.07-41.7h0M16.32-41.83h0M19.32-42.33h0M20.07-44.83h0M21.82-43.33h0M22.57-45.7h0M24.95-46.95h0M24.82-44.45h0M27.57-45.58h0M27.2-43.08h0M25.07-41.7h0M26.7-39.51h0M30.07-43.95h0M29.57-41.7h0M32.08-41.58h0M30.07-39.7h0M27.64-34.64h0M28.76-37.14h0M30.82-35.14h0M32.39-37.33h0M34.33-39.7h0M35.76-42.64h0M37.58-39.83h0M40.33-40.14h0M42.26-43.14h0M39.01-43.08h0M36.51-45.76h0M44.33-52.33h0M52.33-42.83h0M53.33-38.45h0M51.7-40.33h0M49.95-38.45h0M50.95-36.53h0M54.58-36.33h0M52.83-35.08h0M49.62-34.37h0M47.95-37.45h0M44.7-39.7h0M44.78-36.7h0M42.28-35.87h0M46.83-35.2h0M47.28-32.53h0M51.33-33.08h0M49.95-31.03h0M54.2-52.95h0M51.58-51.95h0M52.08-54.7h0M48.83-54.7h0M48.45-52.45h0M45.95-53.83h0M43.33-54.95h0M54.45-33.58h0M54.58-43.33h0M54.2-40.45h0M47.45-47.2h0M48.83-49.33h0M49.95-46.2h0M46.58-44.83h0M48.95-41.08h0M46.83-42.45h0M48.95-43.2h0M51.78-45.03h0M52.2-48.7h0M54.2-46.95h0M54.7-49.33h0M40.58-46.01h0M39.14-48.95h0M35.76-48.83h0M30.07-47.39h0M28.82-50.14h0M26.07-49.51h0M23.26-51.2h0M20.57-52.2h0M21.7-54.76h0M24.45-54.01h0M26.95-52.33h0M30.89-52.45h0M36.51-54.33h0M39.83-54.76h0M33.58-46.39h0M32.14-49.2h0M34.2-50.83h0M46.83-50.95h0M41.08-52.58h0M37.89-36.58h0M35.01-36.83h0M35.14-33.83h0M34.45-31.2h0M37.33-31.95h0M36.7-29.7h0M40.08-31.82h0M41.45-33.2h0M41.7-29.95h0M43.62-31.53h0M44.62-34.03h0M46.62-29.87h0M43.78-28.53h0M41.78-25.87h0M41.33-23.45h0M44.83-22.2h0M47.33-24.82h0M47.7-22.2h0M49.83-23.95h0M50.33-26.82h0M52.45-28.03h0M54.78-29.37h0M52.45-25.7h0M52.08-22.57h0M54.45-24.2h0M49.83-20.32h0M54.33-17.7h0M52.7-15.7h0M50.58-14.45h0M52.45-13.2h0M53.33-10.57h0M54.7-13.49h0M48.33-12.82h0M47.58-10.32h0M44.83-10.32h0M37.45-2.2h0M49.95-8.95h0M48.7-6.58h0M52.2-7.95h0M51.2-5.7h0M48.58-3.7h0M45.58-5.2h0M42.95-7.33h0M42.58-4.7h0M41.7-2.45h0M40.2-5.95h0M39.45-3.83h0M45.45-2.95h0M51.7-3.08h0M53.95-5.58h0M54.7-8.7h0M54.58-3.33h0M46.33-8.07h0M11.2-18.95h0M50.58-11.2h0M46.83-19.57h0M42.95-19.07h0M41.7-21.32h0M38.58-17.07h0M46.33-17.07h0M43.58-16.32h0M43.2-13.57h0M41.2-15.2h0M40.2-12.57h0M37.33-14.45h0M37.45-11.7h0M35.7-16.82h0M37.33-19.45h0M34.58-19.57h0M35.83-22.07h0M37.58-24.07h0M34.58-25.2h0M36.83-26.57h0M34.45-28.32h0M31.95-26.95h0M28.82-28.82h0M25.07-29.07h0M21.45-29.07h0M19.95-26.82h0M23.45-26.95h0M21.82-24.95h0M27.07-26.82h0M25.32-24.82h0M29.07-25.2h0M31.82-23.7h0M29.2-22.95h0M32.08-21.32h0M29.45-20.45h0M31.82-18.7h0M32.58-33.26h0M29.51-32.51h0M25.95-32.76h0M23.82-39.58h0M22.32-37.26h0M25.32-36.58h0M23.7-34.33h0M20.51-35.33h0M17.89-33.26h0M14.26-36.58h0M14.51-33.95h0M12.07-32.14h0M15.14-31.2h0M18.2-30.01h0M16.64-27.2h0M14.39-28.57h0M13.32-26.7h0M14.82-24.82h0M18.2-24.57h0M16.7-22.57h0M20.07-22.7h0M18.82-20.2h0M23.2-23.07h0M26.45-22.07h0M23.95-20.7h0M21.2-19.32h0M25.2-18.7h0M22.82-17.32h0M19.32-17.32h0M21.45-15.32h0M18.45-14.32h0M16.07-15.57h0M29.07-16.95h0M32.7-16.32h0M30.57-15.07h0M34.45-13.95h0M34.2-11.57h0M36.2-9.07h0M39.45-9.82h0M34.78-6.87h0M32.83-8.7h0M31.32-12.45h0M28.45-13.7h0M29.57-10.57h0M30.2-7.83h0M32.08-5.64h0M36.14-4.76h0M31.07-3.45h0M28.7-4.83h0M25.82-6.83h0M25.57-10.2h0M23.45-8.07h0M23.7-5.58h0M26.28-2.87h0M23.32-3.2h0M20.82-4.58h0M18.57-2.58h0M21.07-12.32h0M20.07-9.95h0M17.57-11.7h0M14.95-13.45h0M13.32-16.45h0M13.57-20.2h0M11.2-21.95h0M8.7-20.82h0M8.95-24.45h0M6.58-23.2h0M4.83-26.07h0M7.33-26.95h0M6.08-29.7h0M3.83-28.82h0M2.2-26.2h0M5.08-20.95h0M3.04-19.17h0M7.2-18.82h0M5.2-17.32h0M9.57-16.82h0M11.57-14.32h0M3.95-13.37h0M7.1-15.53h0M3.1-15.61h0M6.14-13.01h0M2.36-10.77h0M4.95-10.7h0M3.45-7.69h0M2.88-5.47h0M12.45-12.45h0M9.95-11.2h0M12.45-9.95h0M15.07-10.45h0M17.45-8.82h0M18.28-6.7h0M10.7-8.32h0M7.83-8.07h0M14.32-7.64h0M11.78-6.2h0M16.45-5.37h0M14.08-4.2h0M15.78-3.1h0M11.8-2.7h0M9.28-5.03h0M6.62-5.1h0M8.08-2.53h0M3.45-3.03h0M4.89-32.2h0M2.27-31.53h0M2.58-34.45h0M15.95-17.95h0M11.51-29.39h0M9.26-32.2h0M19.57-38.95h0M20.7-47.58h0M10.82-45.39h0M9.89-42.51h0M11.07-36.83h0M10.57-34.58h0M28.82-55.2h0" style="fill:none;stroke:#000;stroke-width:.6;stroke-linecap:round"/><path d="M21.95-48.87h0M23.26-48.7h0M24.64-48.33h0M25.95-47.89h0M27.3-47.26h0" style="fill:none;stroke:#000;stroke-width:.8;stroke-linecap:round"/><path d="M28.53-46.49h0M30.06-45.51h0" style="fill:none;stroke:#000;stroke-width:.7;stroke-linecap:round"/><path d="M31.6-44.48h0M33.11-43.31h0" style="fill:none;stroke:#000;stroke-width:.6;stroke-linecap:round"/><path d="M44.95-50.2h0M43.63-50.16h0M42.21-50.31h0M40.84-50.53h0M39.41-50.93h0" style="fill:none;stroke:#000;stroke-width:.8;stroke-linecap:round"/><path d="M38.07-51.5h0M36.41-52.22h0" style="fill:none;stroke:#000;stroke-width:.7;stroke-linecap:round"/><path d="M34.72-53h0M33.05-53.91h0" style="fill:none;stroke:#000;stroke-width:.6;stroke-linecap:round"/><path d="M22.95-42.08h0M21.81-41.41h0M20.49-40.87h0M19.18-40.41h0M17.73-40.09h0" style="fill:none;stroke:#000;stroke-width:.8;stroke-linecap:round"/><path d="M16.28-39.95h0M14.48-39.79h0M15.45-38.66h0M16.2-37.58h0M16.95-36.49h0M17.53-35.58h0" style="fill:none;stroke:#000;stroke-width:.7;stroke-linecap:round"/><path d="M12.62-39.67h0M10.72-39.68h0" style="fill:none;stroke:#000;stroke-width:.6;stroke-linecap:round"/><path d="M41.08-17.45h0M18.95-4.45h0M40.51-18.64h0M19.8-5.72h0" style="fill:none;stroke:#000;stroke-width:.8;stroke-linecap:round"/><path d="M40.08-20h0" style="fill:none;stroke:#000;stroke-width:.9;stroke-linecap:round"/><path d="M20.66-7.08h0M39.74-21.34h0M21.59-8.34h0M39.53-22.82h0M22.46-9.78h0" style="fill:none;stroke:#000;stroke-width:.8;stroke-linecap:round"/><path d="M39.45-24.45h0" style="fill:none;stroke:#000;stroke-width:.7;stroke-linecap:round"/><path d="M4.58-4.58h0M4.91-5.85h0M5.46-7.17h0M6.06-8.41h0M6.85-9.67h0" style="fill:none;stroke:#000;stroke-width:.8;stroke-linecap:round"/><path d="M7.84-10.97h0M8.65-12.27h0M9.49-13.71h0M23.33-11.3h0M39.51-26.09h0M24.27-12.73h0M24.95-13.95h0M25.9-15.38h0" style="fill:none;stroke:#000;stroke-width:.7;stroke-linecap:round"/><path d="M46.49-26.55h0M45.03-25.45h0M43.62-24.37h0M47.88-27.49h0" style="fill:none;stroke:#000;stroke-width:.8;stroke-linecap:round"/><path d="M49.31-28.5h0M52.03-30.53h0M50.62-29.53h0M53.53-31.45h0" style="fill:none;stroke:#000;stroke-width:.7;stroke-linecap:round"/><path d="M28.39-30.7h0M30.19-30.38h0M31.95-30.07h0M26.76-31.08h0" style="fill:none;stroke:#000;stroke-width:.8;stroke-linecap:round"/><path d="M25.05-31.44h0M21.7-32.05h0M23.4-31.69h0M20.01-32.52h0" style="fill:none;stroke:#000;stroke-width:.7;stroke-linecap:round"/><path d="M40.21-37.08h0M39.1-35.63h0M38.03-34.2h0M41.3-38.36h0" style="fill:none;stroke:#000;stroke-width:.8;stroke-linecap:round"/><path d="M42.4-39.72h0M44.47-42.41h0M44.12-44.08h0M43.87-45.87h0M43.7-47.78h0M43.38-41.06h0M45.45-41.53h0M46.37-40.45h0M47.45-39.45h0M26.62-16.62h0M27.29-17.84h0M28.24-19.27h0M28.28-7.2h0M27.87-8.57h0M27.43-9.89h0M27.02-11.56h0M26.7-13.12h0M2.62-46.53h0M4.03-47.11h0M5.5-47.75h0M6.98-48.28h0M8.5-48.99h0M10.08-49.76h0M11.66-50.42h0M12.9-51.05h0M14.49-51.7h0M15.78-52.33h0M17.02-52.96h0M18.61-53.61h0M13.14-44.88h0M13.56-46.25h0M13.94-47.59h0M14.54-49.2h0M15.14-50.67h0" style="fill:none;stroke:#000;stroke-width:.7;stroke-linecap:round"/><path d="M39.55-27.94h0M39.72-29.84h0" style="fill:none;stroke:#000;stroke-width:.65;stroke-linecap:round"/><path d="M37.26-5.83h0M38.39-6.89h0M33.76-2.58h0M34.95-3.7h0" style="fill:none;stroke:#000;stroke-width:.7;stroke-linecap:round"/><path d="M39.59-7.86h0M41.13-8.99h0" style="fill:none;stroke:#000;stroke-width:.65;stroke-linecap:round"/><path d="M42.48-10.2h0" style="fill:none;stroke:#000;stroke-width:.7;stroke-linecap:round"/><path d="M43.89-11.4h0M45.43-12.53h0M46.68-13.66h0M47.86-14.59h0M49.05-15.78h0M50.28-16.75h0M51.47-17.93h0M52.73-19.06h0M53.9-20h0M55.1-21.18h0M2.45-22.16h0M3.64-23.34h0" style="fill:none;stroke:#000;stroke-width:.65;stroke-linecap:round"/><path d="M17.26-20.32h0M16.1-20.94h0M14.94-21.77h0M13.86-22.64h0M12.82-23.7h0" style="fill:none;stroke:#000;stroke-width:.8;stroke-linecap:round"/><path d="M11.93-24.86h0M10.84-26.31h0" style="fill:none;stroke:#000;stroke-width:.7;stroke-linecap:round"/><path d="M9.76-27.82h0M8.76-29.44h0M7.76-31.06h0M6.76-32.68h0" style="fill:none;stroke:#000;stroke-width:.65;stroke-linecap:round"/></svg>