<svg xmlns="http://www.w3.org/2000/svg" xml:space="preserve" width="72" height="72" viewBox="2 -74 72 72"><path d="M2-74h72v72H2z" style="fill:none"/><path d="M2-53.28c3.17-4.32 6.77-9.78 8.04-12.48M12.63-68.61a53.35 53.35 0 0 0 4.4-5.39M19.69-51.86c2.75-2.75 9-11.5 11-15.75M25.25-33.25C28-36 36.33-46.06 38.33-50.31M40.96-55.88c2.45-2.46 9.96-12.88 12.97-18.12M17.88-48.15c-2.45 4-9.63 12.01-12.67 14.44M2-27.95c.84-1.1 1.56-2.1 2.08-2.94M33.94-71.42c.56-.54 1.36-1.44 2.3-2.58M24.13-29.15C21.93-25.57 12.54-14 8.61-10.86M43.44-31.28c-1.57 3.34-6.67 7.83-9.72 11.64a32.73 32.73 0 0 1-2.19 2.5M57.42-50.36c-1.57 3.33-6.67 7.83-9.73 11.63a32.93 32.93 0 0 1-2.18 2.5M51.89-22.54c.59-.59 1.34-1.46 2.18-2.5 3.06-3.8 8.15-8.3 9.72-11.64M60.39-56.75c.59-.59 1.34-1.46 2.18-2.5 3.06-3.8 8.15-8.3 9.72-11.63M69.31-47.68A59.54 59.54 0 0 0 74-53.53M74-28.19l-.02.03c-3.2 4.18-8 12.47-10.45 14.43M28.27-14.55c-1.21 2.58-8.57 9-11.2 12.55M59.13-10.03c-.37.77-4.87 6.78-5.62 8l-.02.03M47.66-18.19C46-14.8 40.04-6.55 36.29-2M73.16-13.03A196.12 196.12 0 0 1 64.02-2" style="fill:none;stroke:#000;stroke-width:.5;stroke-linecap:square"/><path d="M25.88-74c-.5.59-1.02 1.17-1.54 1.75M21.9-69.63l.82-.87M22.72-70.5c.54-.56 1.08-1.15 1.62-1.75" style="fill:none;stroke:#000;stroke-width:.3;stroke-linecap:square"/><path d="m62.27-72.14-.35.36M63.88-73.9l-1.61 1.76" style="fill:none;stroke:#000;stroke-width:.5;stroke-linecap:square"/><path d="M3.93-44.66c.38-.5.75-.98 1.08-1.44M2-42.28l.43-.51M2.43-42.79c.53-.64 1.03-1.27 1.5-1.87M21.44-40.9l1.54-1.84M19.81-39.03c.5-.55 1.05-1.2 1.63-1.87M27.52-48.39l-1.46 1.86M22.98-42.74l1.55-1.89M24.53-44.63l1.53-1.9M29.07-50.4l.53-.72M29.07-50.4l-1.55 2.01M18.63-37.74c.34-.35.74-.8 1.18-1.29M44.14-69.64l-1.52 1.91M39.42-64.05a64.2 64.2 0 0 0 1.62-1.81M42.62-67.73l-1.57 1.87M39.42-64.05l-.65.69M45.62-71.6l.66-.9M44.14-69.64c.52-.67 1.02-1.33 1.48-1.96M72.75-41.03 74-42.5M69.49-37.42l-.67.7M71.14-39.2c.54-.6 1.08-1.21 1.61-1.83M69.49-37.42c.54-.57 1.1-1.17 1.65-1.78M17.35-62.12c-.5.64-1.02 1.3-1.58 1.98M14.25-58.34c.52-.6 1.03-1.2 1.52-1.8M18.32-63.41c-.3.4-.62.85-.97 1.3M12.64-56.52c-.56.62-1.11 1.22-1.65 1.79M14.25-58.34c-.53.61-1.07 1.23-1.61 1.82M10.99-54.73l-.67.7M52.53-57.82l1.45-1.98M48.1-51.94l1.49-1.94M55.42-61.8l1.42-1.96M52.53-57.82l-1.47 1.98M53.98-59.8l1.44-2M56.84-63.76l.43-.6M51.06-55.84l-1.47 1.96M48.1-51.94c-.56.7-1.08 1.35-1.54 1.9M46.56-50.04c-.45.53-.85.98-1.18 1.33M51.76-33.28l.63-.67M52.4-33.95c.53-.56 1.07-1.14 1.62-1.75M57.2-39.39c-.5.6-1.01 1.22-1.54 1.83M57.2-39.39a78.8 78.8 0 0 0 1.53-1.9M55.66-37.56c-.54.63-1.1 1.25-1.64 1.86M59.76-42.66c-.31.43-.66.9-1.03 1.36M54-11.71l-1.12 1.18M60.32-19.15c-.48.64-1 1.3-1.57 2M60.32-19.15l.57-.76M55.64-13.51l-1.63 1.8M57.25-15.35l-1.6 1.84M58.75-17.15c-.48.6-.98 1.2-1.5 1.8M7.57-22.15l.85-.9M10-24.77c.56-.61 1.1-1.24 1.64-1.86M8.42-23.05 10-24.77M11.64-26.63l1.57-1.87M15.57-31.54l-.8 1.09M13.21-28.5a76.4 76.4 0 0 0 1.55-1.95M29.02-5.76l.94-1.26M25.98-2.05a102 102 0 0 0 1.57-1.87M27.55-3.92l1.47-1.84M26.21-22.38c-.3.35-.6.67-.86.94M27.79-24.18l1.57-1.86M29.36-26.04l1.55-1.9M35.46-33.7c.42-.54.78-1.03 1.06-1.41M27.79-24.18c-.57.67-1.1 1.28-1.58 1.8M30.9-27.93c.54-.65 1.06-1.3 1.57-1.94M32.47-29.87l1.5-1.89M33.96-31.75l1.5-1.94M2-73.9l13.77 13.76M27.52-48.39 15.77-60.14M58.75-17.15 27.52-48.39M58.75-17.15 73.9-2M70.59-2 57.25-15.35M14.25-58.34l11.81 11.81M26.06-46.53l31.19 31.18M2-70.59l12.25 12.25M67.15-2 55.64-13.51M2-67.15l10.64 10.63M24.53-44.63 12.64-56.52M24.53-44.63l10.93 10.94M55.64-13.51 35.46-33.69M22.98-42.74 10.99-54.73M22.98-42.74l10.98 10.99M63.72-2l-9.71-9.71M33.96-31.75l20.05 20.04M2-63.72l8.99 8.99M21.44-40.9l11.03 11.03M21.44-40.9 2-60.34M60.34-2 32.47-29.87M19.81-39.03l11.1 11.1M56.84-2 30.91-27.93M2-56.84l17.81 17.81M2-53.4l27.36 27.36M53.4-2 29.36-26.04M49.97-2 27.79-24.18M2-49.97l25.79 25.79M2-46.59l1.93 1.93M26.21-22.38 3.93-44.66M46.59-2 26.21-22.38M2.43-42.79l12.33 12.34M2-43.22l.43.43M43.22-2 14.76-30.45M39.72-2 13.21-28.5M2-39.72 13.21-28.5M11.64-26.63 36.28-2M2-36.28l9.64 9.65M10.01-24.77 29.02-5.76M32.78-2l-3.76-3.76M2-32.78l8.01 8.01M8.42-23.05 27.55-3.92M2-29.47l6.42 6.42M29.47-2l-1.92-1.92M2-26.03 25.98-2.05M2-22.53 22.53-2M2-19.15 19.15-2M2-15.72 15.72-2M2-12.28 12.28-2M2-8.84 8.84-2M2-5.4 5.4-2M74-70.53 70.53-74M74-67.28 67.28-74M74-63.78 63.88-73.9M60.41-74l1.86 1.86M74-60.41 62.27-72.14M74-56.91 56.91-74M74-53.47 53.47-74M50.03-74 74-50.03M46.59-74l10.25 10.24M56.84-63.76 74-46.59M55.42-61.8 74-43.22M45.62-71.6l9.8 9.8M43.22-74l2.4 2.4M44.14-69.64 39.78-74M53.98-59.8l-9.84-9.84M53.98-59.8l18.77 18.77M74-39.78l-1.25-1.25M52.53-57.82l-9.91-9.91M74-36.34l-2.86-2.86M36.34-74l6.28 6.27M52.53-57.82 71.14-39.2M32.91-74l8.14 8.14M51.06-55.84 41.05-65.86M74-32.91l-4.51-4.51M69.49-37.42 51.06-55.84M39.42-64.05 29.47-74M74-29.47 49.59-53.88M39.42-64.05l10.17 10.17M48.09-51.94 26.03-74M58.73-41.3 48.09-51.94M74-26.03 58.73-41.3M24.34-72.25l22.22 22.21M22.59-74l1.75 1.75M74-22.59l-16.79-16.8M57.21-39.39 46.56-50.04M22.72-70.5l32.94 32.94M19.22-74l3.5 3.5M74-19.22 55.66-37.56M74-15.72 54.02-35.7M15.72-74l38.3 38.3M74-12.35l-21.6-21.6M12.35-74 52.4-33.95M8.91-74 74-8.91M5.47-74l11.88 11.88M60.32-19.15 74-5.47M29.07-50.4l31.25 31.25M29.07-50.4 17.35-62.12" style="fill:none;stroke:#000;stroke-width:.3;stroke-linecap:square"/></svg>