<svg xmlns="http://www.w3.org/2000/svg" xml:space="preserve" width="58.85" height="58.85" viewBox="0.13 -58.93 58.85 58.85"><path d="M.13-58.93h58.85V-.08H.13z" style="fill:none"/><path d="M2.09-58.93a12.79 12.79 0 0 0 5.71 6.19c3.1 1.58 4.7 4.37 5.5 5.91.9 1.72 4.16 4.37 6.5 5.47s5.36 4.26 5.91 5.91c.55 1.65 4.13 5.09 5.91 6.05 1.8.96 5.1 4.13 5.78 5.64.69 1.51 3.16 4.4 5.91 5.91 2.75 1.51 5.23 4.26 5.92 5.91.68 1.65 3.43 4.82 5.9 5.92 1.34.59 2.71 1.76 3.86 3.06M8.48-58.93a12.79 12.79 0 0 0 5.71 6.19c3.1 1.58 4.7 4.37 5.5 5.91.9 1.72 4.16 4.37 6.5 5.47 2.34 1.1 5.36 4.26 5.91 5.91.55 1.65 4.13 5.09 5.92 6.05 1.78.96 5.08 4.13 5.77 5.64.69 1.51 3.16 4.4 5.91 5.91 2.75 1.51 5.23 4.26 5.92 5.91.45 1.09 1.8 2.83 3.36 4.2M15.03-58.93a12.79 12.79 0 0 0 5.72 6.19c3.1 1.58 4.7 4.37 5.5 5.91.9 1.72 4.16 4.37 6.5 5.47 2.33 1.1 5.36 4.26 5.9 5.91.56 1.65 4.13 5.09 5.92 6.05s5.09 4.13 5.78 5.64c.68 1.51 3.16 4.4 5.91 5.91.96.53 1.9 1.21 2.73 1.95M21.59-58.93a12.8 12.8 0 0 0 5.71 6.19c3.1 1.58 4.7 4.37 5.5 5.91.9 1.72 4.16 4.37 6.5 5.47 2.34 1.1 5.36 4.26 5.91 5.91.55 1.65 4.13 5.09 5.91 6.05 1.8.96 5.1 4.13 5.78 5.64.33.73 1.08 1.79 2.08 2.85M28.14-58.93a12.79 12.79 0 0 0 5.71 6.19c3.1 1.58 4.7 4.37 5.5 5.91.9 1.72 4.16 4.37 6.5 5.47 2.34 1.1 5.36 4.26 5.91 5.91.55 1.65 4.13 5.09 5.92 6.05.38.2.83.5 1.3.88M34.7-58.93a12.79 12.79 0 0 0 5.7 6.19c3.1 1.58 4.7 4.37 5.5 5.91.9 1.72 4.17 4.37 6.5 5.47 2.34 1.1 5.37 4.26 5.92 5.91.1.33.34.74.66 1.19M41.24-58.93a12.8 12.8 0 0 0 5.72 6.19c3.1 1.58 4.7 4.37 5.5 5.91.9 1.72 4.16 4.37 6.5 5.47h.02M47.8-58.93a12.8 12.8 0 0 0 5.71 6.19c3.06 1.56 4.66 4.3 5.47 5.85M54.35-58.93c.74 1.84 2.4 4.07 4.63 5.55M.13-2.96A14.9 14.9 0 0 1 2.14-.08M.13-7.74c.82.72 1.7 1.34 2.55 1.71C4.98-5 7.43-2.23 8.53-.08M.13-15.9a12.74 12.74 0 0 1 3.19 3.96c.69 1.65 3.44 4.81 5.91 5.91 2.3 1.03 4.75 3.8 5.86 5.95M.13-20.91a16.15 16.15 0 0 0 3.83 3.06c2.75 1.51 5.22 4.26 5.91 5.91.7 1.65 3.44 4.81 5.92 5.91 2.3 1.03 4.74 3.8 5.85 5.95M.13-28.52c1.77 1.35 3.93 3.57 4.47 4.76.69 1.5 3.16 4.4 5.91 5.9 2.75 1.52 5.23 4.27 5.92 5.92.68 1.65 3.43 4.81 5.9 5.91C24.64-5 27.1-2.23 28.2-.08M.13-34.27a20.45 20.45 0 0 0 5.25 4.87c1.79.96 5.09 4.12 5.78 5.64.68 1.5 3.16 4.4 5.9 5.9 2.76 1.52 5.23 4.27 5.92 5.92.69 1.65 3.44 4.81 5.91 5.91 2.3 1.03 4.75 3.8 5.86 5.95M.13-41.35c2.34 1.1 5.34 4.25 5.89 5.9.55 1.65 4.13 5.09 5.91 6.05 1.8.96 5.09 4.12 5.78 5.64.69 1.5 3.16 4.4 5.91 5.9 2.75 1.52 5.23 4.27 5.91 5.92.7 1.65 3.44 4.81 5.92 5.91 2.3 1.03 4.74 3.8 5.85 5.95M.13-46.89l.03.06c.9 1.72 4.16 4.37 6.5 5.47s5.36 4.26 5.91 5.9c.55 1.66 4.13 5.1 5.92 6.06 1.78.96 5.08 4.12 5.77 5.64.69 1.5 3.16 4.4 5.91 5.91 2.75 1.51 5.23 4.26 5.92 5.91.68 1.65 3.44 4.82 5.91 5.92C44.3-5 46.75-2.23 47.85-.08M.13-53.38c.35.23.71.45 1.09.64 3.1 1.58 4.7 4.37 5.5 5.91.89 1.72 4.16 4.37 6.5 5.47 2.33 1.1 5.36 4.26 5.9 5.9.56 1.66 4.13 5.1 5.92 6.06s5.09 4.12 5.78 5.64c.68 1.5 3.16 4.4 5.9 5.91 2.76 1.51 5.23 4.26 5.92 5.91.69 1.65 3.44 4.82 5.91 5.92C50.85-5 53.3-2.23 54.41-.08M12.69-51.78l-2.6-1.12M11.72-45.91l-2.6-1.12M17.18-47.7l-.13 2.72M27.09-38.27l-2.91-1.3M33.75-31.05l-3.01-.93M24.57-27.96l-2.4-.71M40.34-25.37l-.74 2.85M48.75-15.71l-2.53-2M54.76-10.2l-2.4-.91M12.88-56.19l-.85-2.3M20.68-51.58l-2.11 1.1M26.14-45.15l-3.06.19M12.77-40.27l-2.36-.21M33.67-38.39l-.37 2.97M40.18-29.63l-1.29-2.64M47.33-24.6l-1.45 2.46M33.85-25.77l-1.02 1.57M21.7-56.15l-1.61 1.24M41.06-37.87l-2.68-1.4M26.07-32.04l-3.03-1.86M30.3-47.69l-.37 2.47M47.7-30.75l-3.09-.37M55.12-22.27l-2.43-.45M55.35-14.85l-.74-2.47M3.85-48.55l-1.61 1.24M16.61-36.31l-.37 2.48M29.66-21.34l-.75-1.98M40.52-10.55l-.74-2.48M5.2-52.94l-2.97-1.73M41.95-17.07l-2.18-.63M47.58-9.13l-1.67-2.18M48.99-3.94l-1 1.83M54.43-3.18l-.65-2.03M35.74-17.15l-1.64 1.04M18.96-38.16l-.99-2.73M47.33-56.65l-2.6-1.12M55.24-49.65l-.33 3.5M48.42-50.04l-3.34-.49M55.09-55.08l-3.05.18M39.91-49.31l-1.33-2.84M56.68-40.61l-2.49-1.34M33.12-57.62l-1.61 1.24M47.69-43.52l-.37 2.47M55.24-27.34l-.37-2.85M33.18-51.73l-2.83-.67M48.41-36.48h-2.15M24.29-7.9l-2.85-.74M5.24-6.15l2.03-.18M4.34-22.29l-2.96-.75M23.07-22.65l-1.51 1.09M5.38-11.67l-.74-3.34M25.64-2.35l-2.65 1.29M16.48-3.53l-2.45-1.46M18.18-13.67l-1.41-2.45M11.55-26.44l-1.16-2.17M9.41-35.48l-1.27 1.73M3.06-42.84l-.32 2.03M9.24-23.32l-.95 2.26M17.07-27.15l-.93-1.7M17.29-22.1l-1.72 1.62M29.62-9.67l-.9 1.87M23.91-13.98l-.82-2.36M15.74-10.48l-.41 2.93M37.72-7.84l-2.02.87M4.08-3.45l-.84 2.23M3.05-29.38l-2.17-.81M3.74-35.31l-2.06.49M12.28-14.34l-2.67-.8M31.07-15.15l-.81 1.84M39.82-44.18l-2.85-.74M36.39-3.79l-.82 1.83" style="fill:none;stroke:#000;stroke-width:.3"/></svg>