<svg xmlns="http://www.w3.org/2000/svg" xml:space="preserve" width="54.17" height="54.17" viewBox="1.6 -55.77 54.17 54.17"><path d="M1.6-55.77h54.17V-1.6H1.6z" style="fill:none"/><path d="M55.77-53.65c-4.1 3.66-6.98 6-6.25 6.72.75.75-1 2.16-3.5 4.66s-7.34 6.92-6.67 8.59c0 0 .58.85.08 1.29-.5.44-8.69 9.19-9.31 9.75s-1.19 1.69-1.06 2.25.12 1.37-.63 2.12-6.19 6.44-7.06 7.32" style="fill:none;stroke:#000;stroke-width:.3"/><path d="M55.77-51.74c-2.3 2.04-4.5 3.37-4.42 4.14.08.83.75 1-.5 2.33l-.51.54M50.34-44.73c-1.7 1.74-5.72 5.77-7.13 7.12M43.21-37.61l-.28.26c-1.16 1.08-2.08 2.5-1.83 3.33.25.84.33 1.25-.5 2.09 0 0-6.98 7.22-7.8 7.97-.8.75-1.68 2.07-1.62 2.75s.32 1.32-.25 1.94l-1.09 1.16M24.48-12.46l-2.55 2.7c-.8.87-1.18 1.24-1.06 1.87s.5 1.19.13 1.62-2.82 3-2.82 3M50.68-54.93c-1.16 1.25-5.33 4.16-5.16 5.16s.5 1.34-.09 1.92M41.35-52.93c-1.5 1.58-2.75 3-3.08 3.33s-.5.67-.34 1.5c.17.83-.08.58-.91 1.42-.84.83-3.59 3.75-3.59 3.75M38.1-53.85a77.4 77.4 0 0 1-4 3.92c-.58.5-.83.58-.83 1.33s-.59 1.75-1.67 2.92M16.43-30.64c.44-.31 2.75-2.81 3.25-3.38s.44-1 .44-1.68.63-1.5 1.38-2.25l8.43-8.57c.92-.91 1-1.41 1-2.08s0-.83.59-1.5c.53-.61 2.98-3.07 5.51-5.67M28.02-46.6c.91-.92 1.08-1.17.83-2.08-.25-.92 0-1.75.75-2.42.66-.58 3.24-2.96 4.82-4.67M22.35-45.68s.67-.67 1.5-1.59c.83-.91.92-1.33.58-2.25-.33-.91.25-.91.84-1.66.53-.68 2.57-2.88 4.19-4.59M1.6-29.01c2.05-2.23 6.7-7.26 7.33-8 0 0 .63-.57 1-1.13s.44-.44.25-1.06-.37-.88-.06-1.2.65-.7.65-.7c.33-.33 5.41-4.92 6.16-5.5s1.09-1.25.92-2.17c-.17-.91-.08-1 .58-1.58.58-.5 3.66-3.45 5.83-5.42M6.1-36.18c1-1 1.67-1.75 1.67-2.92s.66-1.83 1.66-2.67c1-.83 4.67-4.5 5.75-5.41 1.09-.92 1-1.5 1-2.17s.09-.67.92-1.59c.7-.77 3.23-3.07 4.96-4.83M17.1-52.93c.54-.48 1.48-1.45 2.8-2.84M14.18-49.35c-1.58 1.67-4.91 5-6.33 6.33-1.42 1.34-2.08 1.86-2.17 2.7l-.25 1.3c-.12.88-.12 1.25-1.12 2.38-.57.63-1.77 1.55-2.71 2.22M2.12-54.1l1.7-1.67M4.77-54.52 2.2-52.27c-.2.2-.4.37-.6.55M1.6-49.7l.69-.65 6.21-5.42M1.6-45.64l1.52-1.52c1.42-1.42 1.42-1.59 1.25-2.42-.17-.83 1.75-2.17 3-3.42l3.18-2.77M13.14-55.77l-4.2 3.67c-1.26 1.25-3.17 2.58-3 3.42.16.83.16 1-1.26 2.41l-3.08 3.1M22.02-1.6c.34-.34.65-.67.91-.96 0 0 1.25-1.46 2.09-2.29s1.08-1.08.83-2.08-.75-1.75 2.42-4.92 4.58-5.08 4.58-5.08 2.17-2.25 3-3.25c.83-1 .17-1.5.17-2.34 0-.83.83-1.5 1.75-2.5s9.7-9.64 9.7-9.64c.76-.75 1.09-1.5.84-2.17-.25-.67.33-1.58 1.25-2.58.7-.78 4.07-4.15 6.2-6.3M55.77-11.65l-.96.88s-.38.32-.38.7.5.8.13 1.3-3.25 3.2-3.75 3.63-.94 1-.75 1.44.5.5.31.87-.44.69-.44.69l-.65.54M47.35-2.4c-.23.25-.5.52-.79.8M55.12-25.58c-.94.94-3.19 3.44-3.81 4.13s-1.31 1.3-1.31 2 .5 1.18.12 1.75-4.31 4.68-4.31 4.68c-.81.82-2.75 2.63-3.56 3.5s-.88.7-.81 1.5.62 1.25-.2 2.25-.8.63-3.55 3.46l-.7.71M34.38-1.6l.64-.7M32.35-2.48c-.2.25-.46.54-.76.88M55.77-34.45c-.75.54-1.34.93-1.34.93s-.93.75-1.12 1.2c-.19.43-.06 1-.06 1.5s-1.31 2.18-1.31 2.18c-1 1.06-5.57 5.5-6.32 6.13s-1.25 1.25-1.18 1.93.43 1.7-.25 2.25-5.82 5.75-6.75 6.63-1.5 1.5-1.5 2.12.5 1.13-.07 1.82-3.93 3.37-4.93 4.5.66-.63-1 1.12l-.52.54" style="fill:none;stroke:#000;stroke-width:.3"/><path d="m33.85-15.68-4.67 4.91c-1.08 1.17-.91 2.5-.83 3.67.08 1.17-.75 1.92-1.42 2.67l-1.75 1.95-.97.88M55.77-49.72c-1.17 1.05-2.48 2.1-2.34 2.79.17.83.17 1-1.25 2.41-1.41 1.42-6.75 6.75-7.66 7.75s-1.5 1.92-1.25 2.59c.25.66-.09 1.41-.84 2.16 0 0-6.68 6.75-7.5 7.7s-1.43 2-1.25 2.5.5 1.37-.12 2-8.06 9-8.5 9.43-1.75 1.81-1.81 2.31.56 1.19.56 1.81S22-3.95 21.43-3.33l-.58.69-1 1.04M46.6-55.77c-1.95 1.92-4.93 4.51-5.67 5.17-.83.75-.83 1.08-.66 2.17.16 1.08-.75 2.16-1.92 3.16L29-35.85c-.67.67-.41 1-.33 1.83.08.84-.75 1.42-1.25 2.09-.5.66-7 7.16-8.17 8.16s-.91 1.25-.83 2.09c.09.83-.5 1.58-1.58 2.66-1.08 1.09-6.5 6.84-7.58 7.92s-.5 1.25 0 2.08c.5.84.41 1.67-.34 2.34-.75.66-3.5 3.46-3.5 3.46L3.78-1.6M9.93-2.89 8.45-1.6M10.5-1.6l4.52-3.94s.91-.92 1.29-1.35.44-1.25.25-1.69 1.69-2.25 3.87-4.44 4.63-4.56 5.13-5 .99-.7.62-1.43c-.25-.5.4-1.38 1.82-3M16.58-4.64 13.09-1.6" style="fill:none;stroke:#000;stroke-width:.3"/><path d="M49.33-55.77c-1.91 1.59-5.83 4.83-5.98 5.5-.17.75.58 1.75-.17 2.59a78.5 78.5 0 0 1-4.58 4.5l-6.48 6.41c-.81.82-1 1.38-.81 2.2s.31.87-1.25 2.62-8.19 8.37-8.88 9.06-.69 1.06-.5 1.94-.3 1.3-1.37 2.37-5.75 6.13-7 7.44-.88 1.87-.63 2.5.63 1.12 0 1.81-4.06 3.75-4.93 4.56M24.87-23.77c.88-.87 8.56-8.94 8.56-8.94.7-.68 1.38-1.37 1.2-2.12s-.2-1.25.5-1.81 7.3-7.13 7.8-7.63M34.37-16.14s3.63-3.56 4.25-4.31.75-1.07.56-1.94.44-1.44.94-2 3.06-3.5 4.38-4.81l1.43-1.5c.75-.82 3.1-3.07 3.1-3.07.76-.75 1.1-1.5.84-2.16-.25-.67.33-1.59 1.25-2.59.55-.6 2.71-2.78 4.65-4.72M29.43-39.27c-1.83 2.09-2.75 3.42-3.16 3.92s-.59.92-.42 1.5c.17.58-.17.92-.67 1.42-.5.5-2.58 2.41-2.58 2.41M15.2-55.43c-1.83 2.08-6.5 5.85-6.91 6.35-.42.5-.59.92-.42 1.5.17.58-.17.92-.67 1.42l-4.08 3.98M20.68-27.85s-4 4.5-4.41 4.92c-.42.41-.75.83-.67 1.58.08.75.08.92-.33 1.33l-2.84 2.75M43.37-23.33c-.81 1-1.5 1.63-1.37 2.31s.25 1.57-.38 2.25-4.69 4.44-5.31 5.13-1.75 1.87-1.63 2.69.25 1.18-.37 2-4.94 4.93-5.56 5.62M11.77-15.85s-3.42 3.17-3.84 3.42c-.41.25-1.58 1.83-.75 3.08.31.47 0 .58-.5 1.17-.34.4-3.3 3.06-5.08 4.64M14.8-26.14l-3.37 3.37c-.75.75-1.37 1.25-1.25 2s-.5 1.75-1.75 3c-1 1.01-4.96 4.47-6.83 6.16M15.3-29.27c-2.5 2.5-4.24 3.88-5 4.88s-1.5 1.25-1.62 2.62-.25 1.25-1.25 2.25c-.73.74-4.1 3.63-5.83 5.11M1.6-16.82c1.48-1.32 4.1-3.63 4.7-4.07.88-.63.76-1.63.76-2.5s.5-1.13 1.75-2.25 5.5-5 7.12-6.63c0 0 1.32-1.62 1.7-2s.37-.68.43-1.5-.13-1.06.81-2.06 7.44-7.12 8.25-7.87M1.6-18.85c.74-.68 1.75-1.63 2.33-2.3 1-1.12 1.13-.62 1.13-2s1-1.87 1.87-2.87 3.22-2.9 4.63-4.5c.94-1.06 1.56-1.43 2.31-2.25.75-.8 1.56-1.37 2.13-2s.43-1.5.43-2.25.44-1 .94-1.56c0 0 1.25-1.25 2.38-2.31s6.02-5.96 6.02-5.96c.91-.92 1.16-1.33.83-2.08-.33-.75 0-1.08.5-1.75.42-.57 3-3.34 4.53-5.08M8.8-30.4c-1.74 1.88-3.12 3.38-4 4.26s-1.37 1.25-1.5 2.12-.12 1.25-.62 1.63c-.25.19-.7.48-1.08.71M5.56-35.77a36.6 36.6 0 0 1-3.96 4.13M20.18-43.77c-1.87 1.88-3.62 3.5-4.37 4.25s-1.13 1.5-1.25 2.13-.13 1.25-.88 2l-2.12 2.12M55.77-3.57l-1.07.95M47.8-2.83s.57-.31.82-.62.13-.7.06-1.13.5-.81 1.13-1.5 2.68-2.37 2.93-3 0-.5-.18-1-.38-1 .12-1.44 2-2 2-2l1.08-.92M55.77-16.86l-1.09.97s-.87.31-.93.81-.13.94-.63 1.56-1.19 1.2-2.75 2.63-3.94 3.37-4 4.25.38 1.12-.19 1.62-2.37 2.5-2.37 2.5M54.8-18.02s.42-.36.97-.87M55.77-21.7l-.71.43s-1.19 1.06-1.5 1.63-.25 1.25-.25 1.81-.31 1.06-1.06 1.81-6.31 5.44-7.2 6.5c0 0-.8.94-1.12 1.19s-.75.88-.62 1.44.31 1.37-.06 1.8-2.81 2.7-3.31 3.2M33.87-3.95c.94-1 3.75-3.25 4.19-3.88s-.25-1.06-.19-1.81.75-1.13 2.31-2.81 5.94-6.13 6.57-7 .3-1.32.06-1.7.56-1.24 1.12-1.87 1.13-1.18 2.25-2.25c1.06-1 2.64-2.46 3.5-3.25.69-.62 1.5-2.62 1.5-2.62l.58-.53M54.93-28.14l.84-.92M19.12-31.52s1.69-1.5 2.25-2.12.81-1.31.94-2.19.56-1 1.44-2 2.5-2.63 4.62-4.81M55.06-37.14c-1.19 1.37-3.31 3.87-3.88 4.44s-.62.8-.62 1.43.06.88-.69 1.63l-4 3.94" style="fill:none;stroke:#000;stroke-width:.3"/></svg>