<svg xmlns="http://www.w3.org/2000/svg" xml:space="preserve" width="52.75" height="52.75" viewBox="1.6 -54.35 52.75 52.75"><path d="M1.6-54.35h52.75V-1.6H1.6z" style="fill:none"/><path d="M1.6-43.03c1.89-2.71 3.42-3.27 5.37-3.61 2.2-.4 2.13-2.25 3-3.88s2-1.87 3.38-2.5c.79-.36 1.17-.8 1.44-1.33M1.6-40.24c.31-.48.55-.92.75-1.28.75-1.37 3.5-2.87 5.25-3.37s2.5-1.13 3.75-3.13 2-2.75 3.5-3.25c1.26-.42 1.72-1.37 2.51-3.08" style="fill:none;stroke:#000;stroke-width:.3"/><path d="M1.6-37.63c.96-.95 1.79-2.04 2.25-2.89.87-1.62 1.37-1.5 3.5-2.37s3.75-1.88 4.37-3.13 2.13-2.5 3.75-3.62a13.48 13.48 0 0 0 3.94-4.71M1.6-26.5c.96-1.64 3.18-3.98 5-4.9 2-1 3.12-2.62 4-4.62s3.62-4.25 6.12-5.5 3.75-4.37 4.63-5.87 5.12-3.5 6.75-4.38c1.16-.62 1.56-1.64 1.78-2.58" style="fill:none;stroke:#000;stroke-width:.3"/><path d="M1.6-23.79a20.98 20.98 0 0 0 2.12-3.1c.88-1.63 3-2.88 5-4.38s2.75-3.75 3.38-4.75 3.37-3.25 5.62-4.37 4.13-4.75 4.88-6 3.12-2.63 5.62-3.63c1.93-.77 2.82-2.73 3.3-4.33M1.6-11.17c1.62-.86 3.27-1.73 4.43-2.47 1.38-.88 3.57-3.25 4.07-4.88s3.37-3.12 4.75-3.62c1.9-.7 3.37-3.5 3.87-4.88s2.38-3.25 5-4.25c2.63-1 5.25-5.62 6-7.12s3.88-3.75 5.63-4.38 3.37-3.5 3.87-4.87 2.25-3.5 4-4.25a4.25 4.25 0 0 0 2.22-2.46" style="fill:none;stroke:#000;stroke-width:.3"/><path d="M1.6-9.3c1.4-1.08 3.5-2.57 4.93-2.72 2.73-.27 3.7-2.5 4.44-4.37s2.5-2.75 3.75-3.5a10.81 10.81 0 0 0 5.19-6.32c1.08-3.23 4.59-3.38 7.31-5.75 1.88-1.62 2.72-3.61 4.19-5.87 1.5-2.31 3.69-3.19 5.69-4.19s3.37-4.62 4.12-6.12 1.75-1.5 3.25-2.5a8.12 8.12 0 0 0 3.17-3.71" style="fill:none;stroke:#000;stroke-width:.3"/><path d="M1.6-6.8c1.58-1.2 4.29-3.61 7-4.22 3.1-.7 3.87-3.25 4.5-4.87s2-1.75 4.12-2.63 3.38-4.87 3.94-5.94c.94-1.77 1.31-1.62 2.94-2.56s2.25-1.44 3.06-2.69 2.12-2.5 3.31-3.43 1.31-1.63 2.13-3.13 4.75-3.44 6.18-4.62 2.2-2 2.7-4.25 3.43-3.44 5.24-4.63a7.56 7.56 0 0 0 3.24-4.58" style="fill:none;stroke:#000;stroke-width:.3"/><path d="M1.6-4.97c1.75-1.2 6.28-3.46 9-4.86 2.06-1.06 3.62-3.19 4-4.56s.62-1 1.25-1.5c.62-.5.75-.63 1.75-1.63s2.62-1.62 3.93-3c.83-.86.82-2.25 1.25-3.31s1.07-1.13 2.82-2.19 2.5-2.56 3.37-3.87 2.06-2.13 3.5-3 1.5-2.06 2.25-3.25 3.94-2.31 5.31-3.13 2.5-2.69 2.94-4.94 2.31-2.8 3.56-3.3 1.63-1 3.25-2.45a7.68 7.68 0 0 0 2.44-4.4M1.6-20.79a9.72 9.72 0 0 0 2.37-3.98c.75-2.12 2.63-3 5.13-4.37s3.5-3.63 4.5-5.63 2.25-2.75 4.75-3.62 3.75-3.63 4.75-5.75 2.62-2.63 5.62-3.88c2.5-1.04 3.87-4.16 4.7-6.33M54.35-43l-.48.73c-1.02 1.61-1.89 3.47-4.5 4.25-.84.25 0 0-1.02.38-1.03.37-2.76 2.25-3.63 4-.88 1.75-2 2.75-5.13 4.12s-3.12 2.75-3.87 4.5-2.75 3-4.25 3.75-2.88 1.88-3.38 3.5-2.12 3.13-4.62 5-4.25 3.38-5.75 4.88l-2.38 5c-.2.47-.35.9-.55 1.29M54.35-20.77c-.3.28-.63.53-.98.75l-1.71 1.2c-1 .7-2.25.43-3.19 1.74s-2.06 2.81-3.13 3.06-2.3.88-3.56 2.25-1.75 1.88-3.62 3.5-3.44 3.13-3.69 3.75-.63 1.75-.63 1.75l-.43 1.17" style="fill:none;stroke:#000;stroke-width:.3"/><path d="M54.35-40.2a7.75 7.75 0 0 1-4.73 3.56l-2.15 1.12c-1 1-1.38 3.5-3.25 4.88-1.88 1.37-5.5 3.25-6.88 5.25s-1.75 4.87-4.12 5.62-3 1.5-4.13 3.5-2.25 3.5-4.75 5.25-5.37 6-6.5 8.38l-.48 1.04" style="fill:none;stroke:#000;stroke-width:.3"/><path d="M54.35-37.61a9 9 0 0 1-2.73 1.97l-2.65 1.87c-.88 1.13-3.25 4.75-5.13 5.63s-4.25 1.75-5 3.12-3.5 6.13-5.62 7.13-3.25 2.87-4.25 4.37-.88 3.25-3.13 4.25-4.75 3.88-5.87 6.5c-.17.4-.36.8-.56 1.17M29.88-1.6l.21-1.04c.25-1.13.63-4.2 1.5-5.38s3.57-2.37 5.13-3.06 3.44-3.5 4.19-4.75 3.19-2.13 4.44-3.31 1.18-1.44 1.8-2.25l1.84-.88c1.88-.5 4.38-2.12 5.13-3.75.06-.14.14-.29.23-.44" style="fill:none;stroke:#000;stroke-width:.3"/><path d="M31.51-1.6c.14-.48.25-.92.33-1.3.38-1.62 1.25-3.12 2.2-4.12s3-2.5 4.3-3.56 2.94-2.56 3.75-3.88 1.38-1.12 2.75-1.68c1.38-.56 1.57-1.31 2.25-2.19s1.82-1.44 3.07-2.13l1.7-.93c.82-.53 1.7-1.41 2.49-2.37M45.44-1.6c.15-.4.24-.77.28-1.04 0 0 .38-3.25 1.06-4.13s1.2-1.19 3.25-2.19 2.88-1.37 2.88-1.37l.56-.38.88-.46M47.64-1.6c.13-.35.22-.72.27-1.1 0 0 .75-2.25 1.56-3s2.7-1.88 3.82-2.75l1.06-.84M49.96-1.6c.08-.36.13-.73.14-1.1 0 0 .43-1.32 1.5-2.2s.32-.28 2.19-1.5c.16-.1.35-.24.56-.4M54.35-4.97c-.18.12-.32.23-.44.33-1.28 1.09-.69.5-1.06 1s-.57 1.37-.57 1.37c0 .22-.03.44-.06.67M5.03-52.08l-2.37-.62M3.47-48.83l-.75 2.13M18.35-50.27l-2.03.73M20.49-47.18l-.37-1.88M48.41-30.77l.37 1.88M22.47-53.35l-1.12 2.71M52.97-30.64l-1.81 1.19M13.45-46.1l2.25 1.06M17.74-46.27l-.12 2.25M47.16-12.89l1.94-1.25M51.03-13.02l.38 1.88M13.91-41.83l-1.94.81M8.28-52.45l1.94-.82M10.78-43.58l-.75 2M5.47-40.52l2.44-.06M6.1-36.52l1.5-1.5M6.14-22.14l-1.5 1.5M9.97-39.27v2.13M26.16-17.7l-1.94.81M23.03-19.45l-.75 2M20.16-16.45l-2.44.06M19.85-13.89l-1.5 1.5M22.22-15.14v2.12M6.85-50.52v2.13M3.6-35.7l-.07-2.25M6.97-33.39l-1.87-.75M3.03-30.02l-.68-2.5M41.85-52.1l-2-1.17M37.01-53.27l-2.16.67M36.78-49.02l.57-1.75M37.72-47.14l-2.31.31M33.12-49.91l.06 2.12M33.47-43.33l-.37-2.37M30.72-45.64l-2.44-.88M26.35-44.77l-1.69 1.25M28.07-40.75l-2.31-.18M27.37-36.39l-.44-2.19M21.95-39.73l1.5 1.69M23.24-35.91l-2.12 1.31M24.47-32.79l-1.69-.58M19.2-29.23l-.19-2.68M14.16-32.58l2.44-.62M47.97-11.02l-.37 2.13M43.47-7.64h2.5M39.51-6.93l1.5-2.34M44.37-5.1l-1.38 1.75M40.51-2.6l-.16-2.33M37.85-2.6l-1.17-2.17M14.35-28.79l2 1.19M12.47-26.95l-1.37-1.82M5.53-2.06 4.16-3.87M14.78-24.64l-2.25.81M9.18-22.27l.06-2.18M6.47-19.95l2.75.25M5.3-24.66l1.88-.94M6.66-15.58 5.28-17.7M13.46-4.1l-2.15-1.73M12.95-8.47l-2.08-.26M9.07-4.62 8.01-2.1M2.53-17.27l.13-1.87M3.91-14.64l-1.75 1.12M51.43-50.33l2.44.88M50.12-47.81l-.94 2.25M52.6-44.27l-2.32-.18M49.97-40.14l-.44-2.19M45.35-45.14l1.83.87M48.28-38.89h-2.5M46.49-41.85l-2.71.77M42.33-33.89l-1.38 1.75M43.03-36.02l-.18-2.68M37.85-36.14l2.43-.63M38.7-32.79l-2-1.19M36.6-29.6l-1.38-1.81M44.03-12.21l1.38 1.82M15.6-10.39l-1.38-1.82M35.01-26.43l-2.25.81M32.01-29.1l.07-2.19M32.16-23.45l-2.75-.25M28.14-25.7l1.87-.94M28.41-20.52l-1.38-2.12M24.28-23.64l-.12 1.87M44.47-27.39l2.56.44M48.53-26.14l-.56 2.5M52.16-26.77l-1.88.25M39.1-18.7l-.63 2.81M51.6-34.27l1.75 1.13M45.22-24.52l-1.62 1.94M16.47-8.08l-1.62 1.94M41.41-22.77l.19-2.31M40.72-19.95l2.38.62M25.1-7.21l2.68-.56M27.6-3.02l.56-2.5M37.6-21.02l1.87-.25M29.66-9.39l.62-2.82M34.68-11.43l-2-1.67M7.85-7.02 6.22-5.08M24.22-2.83 23.1-5.02M32.97-15.58l2.38.62M52.1-17.02l.37 1.88M18.51-36.98v2.13M30.53-43.56l-.56 1.75M25.49-53.64l1.38 1.81" style="fill:none;stroke:#000;stroke-width:.3"/></svg>