<svg xmlns="http://www.w3.org/2000/svg" xml:space="preserve" width="53.75" height="53.75" viewBox="2.85 -55.35 53.75 53.75"><path d="M2.85-55.35H56.6V-1.6H2.85z" style="fill:none"/><path d="M56.6-51.1c-.74.41-1.3 1-1.38 2-.12 1.75 0 3.63-1.12 4.5s-2.13.25-2.25 1.63-.38 5.12-2.88 5.5-3 .25-3.87 1-1.13 1.12-2 1.12-1.25 1.38-.13 2.38c1.13 1 1.63 1.12 1.63 2.25s1 1.25 2.13 1.62 5 .63 1.62 2-4.25 1.88-5.13 3.38-.62 2.75-1.87 3.25-1.63-.13-2.13.87-.5 1.38-1.37 1.38-1.75 1.12.25 1.37 2.25.25 2.88 1.25.37 1.12 1.75.75 1.75-1.63 2.87-.13 2.38 2.5 3.13 4.25 1.12 2.25-.25 3.63-2.63 2.25-3.38 2.63c-.7.35-.73 1.47-2.22 2.87" style="fill:none;stroke:#000;stroke-width:.3"/><path d="m56.6-40.29-.13.07c-1.74.87-1.5 1.87-1.87 2.75s-.5 3-2.5 3.5-3.5.5-1.63 1.5c1.88 1 3.88 4.25 3.13 5.62s-1.5 1.38-1.75 2.13.13 2.12-1.5 1.62-2.13-.5-2.63 1-1.37 2.88 0 3.63 4 1.75 4 3 .13 1.62 1.26 2.25 1.5 2.12 1.62 2.87.25 3.38-1.13 4.38-2.93 1.18-3.8 2.18-.68.5-1.82 2.19" style="fill:none;stroke:#000;stroke-width:.3"/><path d="M56.6-47.94c-.21.5-.37 1.07-.5 1.71-.38 1.88-.51 4.15-1.38 4-.74-.12-1.24-.5-1.62.88s-1.25 4.5-3 4.87-3.13-.37-4 .38-2.25 1.87-1.25 3c1 1.12 1.25 1 1.25 1.87 0 .88 0 1 1.38 1s3.12.25 3.37 1.38.13 2.37-1.25 2.75-3 .12-3.88 1.12-1.24 1.75-1.5 3.13-.74 2.25-1.74 2.12-.88.25-1.63.88-.88 1 0 1.25 1.38.12 1.38.87-.38.5 1.12.63 2.5-.88 4.25 1.25 2.38 1.37 3 3.75 1.25 2.87 0 4-3.88 2.5-4.63 3-.5-.13-.5 1.25c0 .62-.32.98-.7 1.25" style="fill:none;stroke:#000;stroke-width:.3"/><path d="M56.6-41.8c-.18.3-.43.5-.75.57-1.13.25-1.88 1.25-2.25 2.25s-1.5 3.5-2.63 3.75-3.5.5-4 1-.24.88.13 1.5 0 1.25 1.25 1.38 4.25.75 4 2.75-1.75 4.5-3.5 4.13-2.5.37-2.63 1.62-.24 2.38-1.12 3.25-3 1.63-.75 1.88 2.5.24 3.75 1.24 1.63.38 2 1.63-.13.62 1.13 1.75 2.37 1.5 2.12 3.37 0 2.88-1.38 3.5-2.5 1.13-3.24 1.75-1.75.5-1.38 1.75c.17.56-.21.83-.7 1.13M47.85-55.35c-1.17 1.72-1 2.29-2 4.81 0 0-1.13.94-.69 3.13s1.06 3.25-.44 4-2.12 1.37-3.06 1.56-1.74.29-1.74.29l-.2.02c-1 .13-.87.63-.87 1.56s-.5 1.06-1.81 1.56-2.2.5-3 .32-.88.37-1.13 1-.56 1.06-2.06 1.5c-1.5.43.87 1.93 1.94 2.3a3.7 3.7 0 0 1 2.25 2.07c.37.94.56.69 1.5.69s1.18.37 1.3.81.38.75 1.26 1.06 1.06.7.87 1.25-.3.57-.75.82-1.06.56-1.43 1.25-.38.56-1.25 1-1.38 1.18-1.88 2.56-2.25 1.75-3.75 1.94c-1.5.18-1.25.3-1.62 1s-.44.56-1.25 1-.82.3-.38 1.12 1.19.81 3.13 1 1.37.63 2.06 1.44.75.69 1.87 1.06 1.94 2.5 3 4.19-.12 2.56-1.56 4.38-1.62 2.38-1.62 2.38c-.17.23-.31.45-.44.68" style="fill:none;stroke:#000;stroke-width:.3"/><path d="M44.77-55.35c-.45.32-.97.53-1.1.94 0 0 .24.62.12 1.75s-.32 1.37-.82 2.37-.68 1.38-.24 2.75.3 2.44-1.44 2.94-4.38.81-4.82 1.81-.74 2.25-2 2.31-2.93-.37-3.68.75-1.06 1.57-1.69 1.63-1.94.19-2.13.94c0 0 0 1 .94 2s.94.87.94 1.5-.31 1 1 1.5 2.5.44 2.88 1.75.37 1.19 1.56 1.5 1.81 1.25 1.06 2.12-2.94 1.44-2.94 2.38-.62 2.06-2.19 2.31-3.37.31-3.3.94-.45 1.37-1.32 1.87c0 0-.19.07-.88.25s-1.18.5-1.18.5c-.88.25-.75.94-.2 1.5s.63.7 1 1.32.38.75 2.7 1.3 2.93 2.94 3.18 4.26 1.38 1.56 2.94 2.12c1.57.56.5 2.63-.43 3.63-.94 1-1.44 1.88-1.44 1.88-.3.31-.5.62-.64.93" style="fill:none;stroke:#000;stroke-width:.3"/><path d="M46.64-55.35c-.61.37-1.4.77-1.54 1.81 0 0 .25 1-.25 1.81s-1.44 2-.87 3.75.43 3.2-.82 3.82-2.56 1.18-3.5 1.3-1.68.07-1.87.82-1.06 1.69-1.94 2.12-.81.38-2 .63c0 0-1.25-.06-1.81.94s-.44.94-1.63 1.31-2.06.44-1.37 1.5.75 1.31.87 1.81.25.75 1.38 1.13c1.12.37 1.87.18 2.5 1.37.62 1.19.56 1.31 1.37 1.56s2.2.63 2.07 1.57.37 1.75-1.13 2.56-2.37 1.44-2.62 2.25-.5 2.06-2 2.31-3 0-3.44.81-.19 1-1.13 1.38-1.37.62-1.37.62c-1.31.19-.88.63-.5 1.63s1.31 1 2.75 1.18 3.44 2 4 2.75 1.06 2.2 3.06 3.63.19 3.5-.69 4.44-1.62 2.25-1.62 2.25c-.15.23-.27.45-.36.68M2.85-51.1c.56-.32 1.23-.53 1.88-.75 1.5-.5 1.74-.5 2.87-1.87s1.63 0 5.5-1.5c0 0 .13.02.4-.13M2.85-40.29c1.63-.82 1.76-1.09 2.25-2.18 0 0 .13-.5.38-2.63s.62-3.5 2-3.62 3.24-.63 3.12-1.63-.75-1.12 1.38-1 3.12-.75 4.74-1.87c.86-.6 1.69-1.33 2.4-2.13M2.85-47.94a3.6 3.6 0 0 1 2-2.04c1.5-.62 2-1 2.63-1.75s1-1 2.5-1.5 3.24-.62 4.62-1.25c.38-.17.77-.48 1.17-.87" style="fill:none;stroke:#000;stroke-width:.3"/><path d="M2.85-41.8c.46-.75.57-2.05.75-3.3.25-1.75.5-1.88 1.13-2.75s2.5-1.75 3.74-2.38.75-1.12 1.25-1.75 2.5-.62 4-.75c1.2-.1 2.84-1.44 3.92-2.62M13.5-1.6c.3-.18.8-.6 1.48-1.63 1.25-1.87 2.12-2.87 2.62-3.5 0 0 1.88-3.5-1.25-3.24s-5.63-1.25-6.38-2.13-1.87-.88-2.12-2.25c-.25-1.38-.25-1.38-1.13-1.88s-5.12-3.12.13-5.25 4.13-2.5 4.38-3.37.62-1.63 2.62-1.75 3.38-.38 2.38-1.75-.88-2.13-.88-2.13-.37-1-2.37-1.5-3.63-1.37-3.38-2.62.13-1.38-1-2.25-1.87-2.75-1.37-4 3.75-3.25 5.62-3.88 2.38-.5 2.5-1.37 2.88-1.5 4.63-1.88 3.87-.37 3.87-1.5 1.25-2 3-2.62 2.5-.63 2.5-1.75c0-.5-.03-1.01.05-1.5" style="fill:none;stroke:#000;stroke-width:.3"/><path d="M34.1-55.35a7.2 7.2 0 0 0-.81 2.88c-.19 1.62-2.19 2.56-3.5 3.18s-1.69.75-1.63 1.94-2.69 2.06-5.44 2.38-2.8 1-3.06 1.93-2.87 1.38-5.44 2.2-1.18 2-.3 2.43.55 1.06.62 2.19 2.25 1.44 5.31 1.94 1.37 2.8.81 3.87.31 1.75 1 2.88-1.25 3.37-3.19 3.87-2.68.63-3.18 1.81-1.25 1.44-2.57 1.94-1.68.63-1 1.25.44.56.44 1.44-.31 1.19 1 1.5 2.25.5 2.81 1.44 1.07 1.3 3.82 1.37 2.06 1.88 2.25 3.63.68 1.87.12 2.93-1.44 2.5-1.44 2.5a11.9 11.9 0 0 1-1.6 2.25" style="fill:none;stroke:#000;stroke-width:.3"/><path d="M15.77-1.6c1.07-1.04 2.17-2.66 3.08-3.75 0 0 1-.94 1-2.5s.06-2.75-2.06-3.06-3.88-1.25-4.88-1.81-1.87-1.25-2.62-1.57-1.06-.3-1.13-1.5-.68-1.37-1.43-1.56-3-1.75-.7-2.87 4.63-2.44 4.82-2.75-.5-1.63 2.19-2.13 5.56-1.44 4.31-3-1.25-1.81-.88-2.62-1.56-1.75-3.87-2.63-2.56-1.25-2.31-2.25-.06-1.62-1.44-2.31-2.69-3 .69-4.44 5.19-2 5.56-2.81 1.88-1.5 3.69-1.81 5.37-1.06 5.37-2.06.32-1.57 1.7-1.75 3.05-.75 3.3-2.13c.18-.96.17-1.71.5-2.44" style="fill:none;stroke:#000;stroke-width:.3"/><path d="M17.64-1.6c.28-.31.53-.61.71-.88l1.75-2.75c.75-1.18 1.5-1.8 1-3.56s-.06-2.8-1.88-3.06-3.18.44-3.87-.75-2.06-1.81-3.19-2.12-1.81-.13-1.75-1.25.81-1.57-.69-2-2-1.38-.5-2.13 2.7-1.69 3.38-1.75.94-.31 1.31-1 .75-1.25 2.06-1.44 2.94-1 3.56-1.68.94-1.44.13-2.44-1.38-1.31-.88-1.94 1.63-2.69-1.06-3.13-5.06-1.18-4.75-2.37.2-1.31-.94-2-2.87-2.31-.68-3.13 3.8-1.62 4.37-1.68 1.69-.75 2.06-1.5-.06-1.5 2.57-1.75 6.18-.88 6.43-2.13.07-1.75 1.94-2.25 2.31-.75 2.75-1.87c.36-.93.26-2.08.7-3.2" style="fill:none;stroke:#000;stroke-width:.3"/><path d="m42.88-55.35-.28.25c-.88.75-.13.5-.25 2.25s-.25 2-.88 2.88c0 0-2.12 1.37-1.06 2.43s1.38 1.5-.12 2.06-5.38 1.38-5.69 1.82-.38.25-.19.93-.25 1.2-1.44 1.26c-1.18.06-2.75.25-3.37 1.12s-1.25 1.38-2.5 1.44-2.75.25-2.31 1.19 2.12 1.62 1.87 2.43.31 1.13.94 2.13.94 2.69 2.25 2.87 1.62-.43 1.94.88c.31 1.31.56 1.44 1.44 1.5s1.12.5 0 .94-1.94.25-2 1.5-.38 2.06-1.7 2.3-3.8.07-3.8.95-.32 1.8-1.7 2.19l-3.18 1.25c-1.38.43-.38 1.37.69 1.62s.81.94 1.56 2.5 2.56 1.63 3.87 1.63 2.07 2.68 2.32 3.93 1.8 1.19 2.75 2.44c.93 1.25-1.7 3.44-1.7 3.44a2.4 2.4 0 0 0-.94 1.62M5.85-53.48l-2-1.12M9.86-44.81l-.07-2.29M13.41-47.29l-.94-2.12M8.1-42.91l-2.25.06M17.52-50.06l-1.92-.67M20.85-53.73l-2.17.75M21.1-49.39l-1-1.92M26.18-52.98l-2-.83M4.35-36.48l.83-2M6.52-34.81l1.83 1.42M6.93-31.48l-2.16.42M9.77-29.31l.83-2.08M4.31-14.1l.83-2.08M14.52-27.73l-2.17-1.16M10.02-24.73l-1-2.16M8.02-24.06l-2.75.33M6.18-26.14l-1.91-2M14.02-17.23l2.16-.58M18.27-14.31l.33-2.17M22.93-13.22l-2.25-1M17.6-21.64l.83 2.5M23.27-21.73l-2.59-.83M23.6-27.31v2.5M28.77-24.73l-2.5-.91M30.02-29.14l-.09 2.5M27.52-29.81l-2 1.42M25.93-30.56l-1.83-1.42M22.52-34.73l1.16-2M16.77-36.98l1.5 1.17M16.85-38.98l.92-2M21.85-38.39l-2 .66M21.35-43.31l1.25 1.83M55.28-2.39l-1.25-1.84M26.68-40.64l1.92-.84M25.6-42.81l.58-2M31.1-43.73l-1.5-1.5M30.93-47.48l2.75-.75M36.18-47.81l-.25 2.42M40.02-50.73l-2.34 1.25M35.52-51.06l-.34-2.42M38.18-53.64l2.42-.84M51.52-53.48l2.75-.5M49.85-50.89l-1.83-1.34M50.68-48.31l1 1.92M54.02-51.06l-.17 2.33M47.1-43.73l.42-2.41M49.02-42.48l1.91-1M49.1-38.89l-1-2.17M44.1-41.48l2.17.34M44.77-37.31l-1.17-2M40.18-37.56l1-2.67M33.6-35.23l2-1.33M40.93-34.73l-2.41-.25M36.43-31.64l.17-2.09M39.85-30.14l1.75-1.75M43.6-28.06l-1.25-1.83M47.68-27.89l-2.33.16M40.27-24.39l1.66-1.92M37.43-23.39l1.25 2M34.27-19.48l2.83-.41M33.35-17.64l.67 2.25M29.77-17.14l1.66-1.5M38.6-14.47l-2.83.33M41.85-11.31l.5 2.09M43.02-13.06l2.58.17M49.18-22.06l.17 2.75M51.52-18.48l2.33-1.08M53.91-22.37l2.25.92M55.27-13.81l-1.34-2.08M55.18-27.4s-.08 2.17-.08 2.5M55.68-30.23l-1.83-1M54.1-33.48l1.67-2M38.6-8.89l.75-3.08M44.85-9.97l2.08.75M45.35-6.56l-2.75.17M42.02-2.56l-1.17-2.16M38.85-4.47 36.6-3.06M23.93-10.64l2.59-.83M23.68-8.64l1.92 1.83M31.18-6.31h-2.75M27.93-2.39l-.58-2.42M24.27-4.06l-3 1.25M5.77-11.14l2.75-1.17M5.27-6.39 3.43-8.64M10.1-7.89l-3-.67M16.6-8.72l-2.08 1.41M11.2-3.14l-.16-2.75M6.79-4.04 3.95-2.62" style="fill:none;stroke:#000;stroke-width:.3"/></svg>