<svg xmlns="http://www.w3.org/2000/svg" xml:space="preserve" width="46" height="46" viewBox="1 -47.34 46 46"><path d="M1-47.34h46v46H1z" style="fill:none"/><path d="M8.38-42.74 7.2-40.83v1.34M7.2-40.83l-1.19-1.91M16.07-42.74l-1.19 1.91v1.34M14.88-40.83l-1.18-1.91M23.63-42.74l-1.18 1.91v1.34M22.45-40.83l-1.19-1.91M31.26-42.74l-1.19 1.91v1.34M30.07-40.83l-1.19-1.91M38.95-42.74l-1.19 1.91v1.34M37.76-40.83l-1.19-1.91M46.7-42.74l-1.19 1.91v1.34M45.51-40.83l-1.19-1.91M42.76-32.34l-1.19-1.91v-1.34M41.57-34.25l-1.19 1.91M35.01-32.34l-1.19-1.91v-1.34M33.82-34.25l-1.19 1.91M27.32-32.34l-1.19-1.91v-1.34M26.13-34.25l-1.18 1.91M19.7-32.34l-1.19-1.91v-1.34M18.51-34.25l-1.19 1.91M12.13-32.34l-1.18-1.91v-1.34M10.95-34.25l-1.19 1.91M4.45-32.34l-1.19-1.91v-1.34M3.26-34.25l-1.19 1.91M8.38-27.28 7.2-25.37v1.34M7.2-25.38l-1.19-1.9M16.07-27.28l-1.19 1.91v1.34M14.88-25.38l-1.18-1.9M23.63-27.28l-1.18 1.91v1.34M22.45-25.38l-1.19-1.9M31.26-27.28l-1.19 1.91v1.34M30.07-25.38l-1.19-1.9M38.95-27.28l-1.19 1.91v1.34M37.76-25.38l-1.19-1.9M46.7-27.28l-1.19 1.91v1.34M45.51-25.38l-1.19-1.9M42.76-16.9l-1.19-1.91v-1.34M41.57-18.81l-1.19 1.91M35.01-16.9l-1.19-1.91v-1.34M33.82-18.81l-1.19 1.91M27.32-16.9l-1.19-1.91v-1.34M26.13-18.81l-1.18 1.91M19.7-16.9l-1.19-1.91v-1.34M18.51-18.81l-1.19 1.91M12.13-16.9l-1.18-1.91v-1.34M10.95-18.81 9.76-16.9M4.45-16.9l-1.19-1.91v-1.34M3.26-18.81 2.07-16.9M8.38-11.95 7.2-10.04v1.34M7.2-10.04l-1.19-1.91M16.07-11.95l-1.19 1.91v1.34M14.88-10.04l-1.18-1.91M23.63-11.95l-1.18 1.91v1.34M22.45-10.04l-1.19-1.91M31.26-11.95l-1.19 1.91v1.34M30.07-10.04l-1.19-1.91M38.95-11.95l-1.19 1.91v1.34M37.76-10.04l-1.19-1.91M46.7-11.95l-1.19 1.91v1.34M45.51-10.04l-1.19-1.91M42.76-1.6l-1.19-1.91v-1.34M41.57-3.51 40.38-1.6M35.01-1.6l-1.19-1.91v-1.34M33.82-3.51 32.63-1.6M27.32-1.6l-1.19-1.91v-1.34M26.13-3.51 24.95-1.6M19.7-1.6l-1.19-1.91v-1.34M18.51-3.51 17.32-1.6M12.13-1.6l-1.18-1.91v-1.34M10.95-3.51 9.76-1.6M4.45-1.6 3.26-3.51v-1.34M3.26-3.51 2.07-1.6" style="fill:none;stroke:#000;stroke-width:.3"/></svg>