<svg xmlns="http://www.w3.org/2000/svg" xml:space="preserve" width="46" height="46" viewBox="1 -47.23 46 46"><path d="M1-47.23h46v46H1z" style="fill:none"/><path d="m6.01-43.2 2.31 3.18M8.38-43.2l-2.37 3.25M13.7-43.2l2.31 3.18M16.07-43.2l-2.37 3.25M21.26-43.2l2.31 3.18M23.63-43.2l-2.37 3.25M28.88-43.2l2.32 3.18M31.26-43.2l-2.38 3.25M36.57-43.2l2.31 3.18M38.95-43.2l-2.38 3.25M44.32-43.2l2.31 3.18M46.7-43.2l-2.38 3.25M2.11-35.52l2.31 3.19M4.49-35.52l-2.38 3.25M9.8-35.52l2.31 3.19M12.18-35.52 9.8-32.27M17.36-35.52l2.32 3.19M19.74-35.52l-2.38 3.25M24.99-35.52l2.31 3.19M27.36-35.52l-2.37 3.25M32.67-35.52l2.32 3.19M35.05-35.52l-2.38 3.25M40.42-35.52l2.32 3.19M42.8-35.52l-2.38 3.25M6.03-27.77l2.31 3.19M8.4-27.77l-2.37 3.25M13.72-27.77l2.31 3.19M16.09-27.77l-2.37 3.25M21.28-27.77l2.31 3.19M23.65-27.77l-2.37 3.25M28.9-27.77l2.32 3.19M31.28-27.77l-2.38 3.25M36.59-27.77l2.31 3.19M38.97-27.77l-2.38 3.25M44.34-27.77l2.31 3.19M46.72-27.77l-2.38 3.25M1.95-20.02l2.31 3.19M4.32-20.02l-2.37 3.25M9.63-20.02l2.32 3.19M12.01-20.02l-2.38 3.25M17.2-20.02l2.31 3.19M19.57-20.02l-2.37 3.25M24.82-20.02l2.31 3.19M27.2-20.02l-2.38 3.25M32.51-20.02l2.31 3.19M34.88-20.02l-2.37 3.25M40.26-20.02l2.31 3.19M42.63-20.02l-2.37 3.25M5.95-12.52l2.31 3.19M8.32-12.52 5.95-9.27M13.63-12.52l2.32 3.19M16.01-12.52l-2.38 3.25M21.2-12.52l2.31 3.19M23.57-12.52 21.2-9.27M28.82-12.52l2.31 3.19M31.2-12.52l-2.38 3.25M36.51-12.52l2.31 3.19M38.88-12.52l-2.37 3.25M44.26-12.52l2.31 3.19M46.63-12.52l-2.37 3.25M2.11-4.85l2.31 3.19M4.49-4.85 2.11-1.6M9.8-4.85l2.31 3.19M12.18-4.85 9.8-1.6M17.36-4.85l2.32 3.19M19.74-4.85 17.36-1.6M24.99-4.85l2.31 3.19M27.36-4.85 24.99-1.6M32.67-4.85l2.32 3.19M35.05-4.85 32.67-1.6M40.42-4.85l2.32 3.19M42.8-4.85 40.42-1.6" style="fill:none;stroke:#000;stroke-width:.3"/></svg>