<svg xmlns="http://www.w3.org/2000/svg" xml:space="preserve" width="68.98" height="68.98" viewBox="1.6 -70.1 68.98 68.98"><path d="M1.6-70.1h68.98v68.98H1.6z" style="fill:none"/><path d="M16.68-43.62h-4.69M7.36-43.62h4.63M11.99-41.93v-1.69M11.99-43.62v-1.5M24.61-43.62h4.63M33.93-43.62h-4.69M29.24-43.62v-1.5M29.24-41.93v-1.69M1.6-49.37h1.74M8.03-49.37H3.34M3.34-49.37v-1.5M3.34-47.68v-1.69M25.28-49.37h-4.69M15.97-49.37h4.62M20.59-49.37v-1.5M20.59-49.37v1.69M16.68-55.1h-4.69M7.36-55.1h4.63M11.99-55.1v-1.5M11.99-53.41v-1.69M24.61-55.1h4.63M33.93-55.1h-4.69M29.24-55.1v-1.5M29.24-55.1v1.69M1.6-60.85h1.74M8.03-60.85H3.34M3.34-62.35v1.5M3.34-59.16v-1.69M25.28-60.85h-4.69M15.97-60.85h4.62M20.59-60.85v-1.5M20.59-59.16v-1.69M8.03-37.83H3.34M3.34-37.83H1.6M3.34-37.83v-1.5M3.34-37.83v1.69M15.97-37.83h4.62M25.28-37.83h-4.69M20.59-36.14v-1.69M20.59-37.83v-1.5M11.99-66.58h4.69M7.36-66.58h4.63M11.99-64.89v-1.69M11.99-66.58v-1.5M29.24-66.58h4.69M24.61-66.58h4.63M29.24-64.89v-1.69M29.24-66.58v-1.5M7.36-9.08h4.63M16.68-9.08h-4.69M11.99-9.08v-1.5M11.99-7.39v-1.69M33.93-9.08h-4.69M24.61-9.08h4.63M29.24-9.08v1.69M29.24-10.58v1.5M3.34-14.83H1.6M8.03-14.83H3.34M3.34-14.83v1.69M3.34-14.83v-1.5M15.97-14.83h4.62M25.28-14.83h-4.69M20.59-14.83v1.69M20.59-14.83v-1.5M16.68-20.56h-4.69M7.36-20.56h4.63M11.99-18.87v-1.69M11.99-20.56v-1.5M33.93-20.56h-4.69M24.61-20.56h4.63M29.24-20.56v1.69M29.24-20.56v-1.5M1.6-26.31h1.74M8.03-26.31H3.34M3.34-24.62v-1.69M3.34-27.81v1.5M15.97-26.31h4.62M25.28-26.31h-4.69M20.59-24.62v-1.69M20.59-26.31v-1.5M3.34-3.29H1.6M8.03-3.29H3.34M3.34-1.6v-1.69M3.34-4.79v1.5M25.28-3.29h-4.69M20.59-3.29h-4.62M20.59-4.79v1.5M20.59-3.29v1.69M7.36-32.04h4.63M16.68-32.04h-4.69M11.99-32.04v-1.5M11.99-30.35v-1.69M24.61-32.04h4.63M33.93-32.04h-4.69M29.24-32.04v-1.5M29.24-32.04v1.69M41.85-43.62h4.62M51.16-43.62h-4.69M46.47-43.62v-1.5M46.47-41.93v-1.69M63.72-43.62h4.69M59.1-43.62h4.62M63.72-43.62v-1.5M63.72-43.62v1.69M42.51-49.37h-4.68M33.2-49.37h4.63M37.83-49.37v1.69M37.83-49.37v-1.5M59.76-49.37h-4.68M50.45-49.37h4.63M55.08-49.37v1.69M55.08-49.37v-1.5M70.58-49.37H67.7M41.85-55.1h4.62M51.16-55.1h-4.69M46.47-55.1v-1.5M46.47-55.1v1.69M59.1-55.1h4.62M63.72-55.1h4.69M63.72-55.1v1.69M63.72-55.1v-1.5M42.51-60.85h-4.68M33.2-60.85h4.63M37.83-59.16v-1.69M37.83-60.85v-1.5M50.45-60.85h4.63M59.76-60.85h-4.68M55.08-59.16v-1.69M55.08-60.85v-1.5M67.7-60.85h2.88M42.51-37.83h-4.68M33.2-37.83h4.63M37.83-37.83v1.69M37.83-37.83v-1.5M50.45-37.83h4.63M59.76-37.83h-4.68M55.08-37.83v1.69M55.08-37.83v-1.5M67.7-37.83h2.88M46.47-66.58h4.69M41.85-66.58h4.62M46.47-66.58v-1.5M46.47-64.89v-1.69M59.1-66.58h4.62M63.72-66.58h4.69M63.72-66.58v-1.5M63.72-64.89v-1.69M51.16-9.08h-4.69M41.85-9.08h4.62M46.47-10.58v1.5M46.47-9.08v1.69M63.72-9.08h4.69M59.1-9.08h4.62M63.72-9.08v1.69M63.72-9.08v-1.5M33.2-14.83h4.63M42.51-14.83h-4.68M37.83-14.83v1.69M37.83-14.83v-1.5M55.08-14.83h4.68M50.45-14.83h4.63M55.08-14.83v1.69M55.08-14.83v-1.5M67.7-14.83h2.88M51.16-20.56h-4.69M41.85-20.56h4.62M46.47-20.56v1.69M46.47-20.56v-1.5M63.72-20.56h4.69M63.72-20.56H59.1M63.72-20.56v-1.5M63.72-20.56v1.69M42.51-26.31h-4.68M33.2-26.31h4.63M37.83-27.81v1.5M37.83-26.31v1.69M55.08-26.31h4.68M50.45-26.31h4.63M55.08-26.31v-1.5M55.08-26.31v1.69M67.7-26.31h2.88M42.51-3.29h-4.68M37.83-3.29H33.2M37.83-4.79v1.5M37.83-3.29v1.69M59.76-3.29h-4.68M55.08-3.29h-4.63M55.08-4.79v1.5M55.08-3.29v1.69M67.7-3.29h2.88M41.85-32.04h4.62M51.16-32.04h-4.69M46.47-32.04v-1.5M46.47-32.04v1.69M59.1-32.04h4.62M68.41-32.04h-4.69M63.72-32.04v1.69M63.72-33.54v1.5" style="fill:none;stroke:#000;stroke-width:.3"/></svg>