<svg xmlns="http://www.w3.org/2000/svg" xml:space="preserve" width="53.75" height="53.75" viewBox="1 -54.75 53.75 53.75"><path d="M1-54.75h53.75V-1H1z" style="fill:none"/><path d="m2.6-53.9-1.1 1.65 2 .83zM5.08-53l1.84.17.16 1.58-1.33.08zM2-49.08l1.42-.84 1.16 1.75-1.25.42zM6.92-49.25l2.66-.33.09 1.83zM10.33-53.42v1.5l1.5 1.09.84-1.59zM15.42-52.08l1.33-1.42 1.08 2.17zM19.5-53l1.42 1.58 1.91-1.25-.75-1.16zM24.42-51.75l-.92 1.33L25.25-49l.92-1.33zM20.83-49.83l.34 2.41-2.5-.33zM13.08-48.92l1.17-1 1.58.34-.58 1.83zM27.33-53.42l.92 1.5h1.92l-.84-1.58zM31.42-51.33H33l-.33 1.91-2-1zM29-49.5l.33 2.25-2.41-.58zM33.92-53.17l2.25-.83v2.17zM38.67-52.5l1.08-1 1.33 1.33-.41.84-1.34-.09zM43.33-50.92l.75 1.09 1.67-.92-1.33-1.42zM38.83-49.33l1.75-.5 1.5 1.25-2.16 1zM35.75-49.33l.75 2.16-2.25-.16zM46.67-53.17l2.25-.16.75 1.16-2.09.5zM50.58-51.25l1.5.75-1 1.33-1.08-.58zM51.92-52.83l.08-.67 1.08-.67.84 2.34zM52.83-48.83l1.09 1.16-1.67.59zM46.25-48.92l1.5.09.75 1.25-2.92.16zM1.33-19.58l1.42-.84 1.17 1.75-1.25.42zM5.83-19.67 8.5-20l.08 1.83zM20.92-20.58l.33 2.41-2.5-.33zM12.58-19.5l1.17-1 1.58.33-.58 1.84zM29.42-20.25l.33 2.25-2.42-.58zM33.1-18.98l1.75-.5 1.5 1.25-2.16 1zM38.88-21.73l.75 2.17-2.25-.17zM52.83-19.58l1.09 1.16-1.67.59zM46.44-19.83l1.5.08.75 1.25-2.92.17zM3.5-40.75l2.42.25-.25 1.75-2.09-.08zM8.33-40.92l2.17.34-.67 1.83zM12.17-38l3.08-.58-.58 2.58zM17.08-40.58l3.09.5-.75.91-.25 1.75zM23.75-39.67l1.17 1.59-2.17 1.16-1.33-.33zM27.83-40.42l.34 1.84 2.5-1.25zM33.75-39.92l2.5-.41.25 1.75zM41.75-40.75l.25 2 2.42-1.08zM48.25-40.25l.92 1.75 1.41-1.42-.75-.91zM52.83-40.67l.92.92-1.67.83zM7.42-37.75l-.34 1.17 1.59 1.25.5-1.67zM11.08-34.83l-.75 1.33 2.25 1 .34-1.75zM15.58-34l-.08 1.08 2 .25v-1.58zM22.33-34.25l-1.41 1.5 2.33.92zM25.67-35.33l1.33-.75h1.58l-.66 2.41zM30.17-33.5l-1.09 1.75 2.25.08zM31.33-36.67l2.67-.08-1.08 2.17zM39.5-37.92l.17 2.67-2.25-.5zM12.92-17.17l.16 2.67-2.25-.5zM41.58-33.92l-.08 1.84 2.33-.25-1-1.5zM44.33-36.58l2.59-.75-.34 2.33zM48.42-33.67l1.16-.25 1 1.92-2.25.33zM52.83-37.5l-.75 1.92 1.59.5.75-1.67zM53-33.5l-.75.67.92 1.25 1.08-1zM35.75-33.67l-.92 1.84 2.67-.09zM4.17-35.5 2.83-34l2.17.75zM6.83-4.25 6.5-3.08l1.58 1.25.5-1.67zM15.67-3.17l-.09 1.09 2 .25v-1.59zM22.33-4.25l-1.41 1.5 2.33.92zM24.33-4.67l1.34-.75h1.58L26.58-3zM30.17-3.5l-1.09 1.75 2.25.08zM37.67-5.08l2.66-.09L39.25-3zM12.58-4.17l.17 2.67L10.5-2zM41.58-3.92l-.08 1.84 2.33-.25-1-1.5zM43.83-4.92l2.59-.75-.34 2.34zM48.42-3.67l1.16-.25 1 1.92-2.25.33zM32.92-5.25l-.75 1.92 1.58.5.75-1.67zM53-3.5l-.75.67.92 1.25 1.08-1zM35.75-3.67l-.92 1.84 2.67-.09zM3.21-4.06l-1.33 1.5 2.16.75zM3.96-24.21l1.17 1.84-2.5.16zM6.21-23.94l2.25-.08-1 1.83zM8.67-21.62l2.16-1.17.25 2.08zM12.79-23.69l1.09 1.42 1.83-1.67zM17.38-23.04l.08 1.42 1.75.66.33-1.66zM20.21-24.27l1.75-.5.17 2.08zM22.9-21.37l1 1.75 1.5-1.75zM26.13-22.69l.66 1.17 2.25-1.83-1.75-.67zM31.33-22.62l-1.41 1.25 3 .25zM33.13-23.52l1.5 1.58 1.5-1.91-2.42-.25zM39.29-23.52l1.59-.17 1.16.75-.83 1.17zM42.33-20.5l-1 1.33 1.92.67 1.42-1zM45.88-23.69l2.83-.16-1.33 1.75zM50.13-21.58l1.5.66-.17 1.09-2.42-.42zM54.06-22.12l-2.56-.63 1.38-1.62zM2-16.5l2.42.25-.25 1.75-2.09-.08zM6.83-16.67l2.17.34-.67 1.83zM16.33-17.25l3.09.5-.75.92-.25 1.75zM24.29-17.37l1.17 1.58-2.17 1.17-1.33-.34zM27.44-16.06l.33 1.83 2.5-1.25zM34.17-16l2.5-.42.25 1.75zM40.25-16.5l.25 2 2.42-1.08zM45.35-16.46l.92 1.75 1.42-1.41-.75-.92zM51.06-16.94 52.63-15l-2.57.44z" style="fill:none;stroke:#000;stroke-width:.3;stroke-linejoin:bevel"/><path d="M5.08-50.17h0M9.5-50.92h0M13.92-53.17h0M14.33-50.83h0M17.92-49.83h0M19.17-51.67h0M18.25-53.83h0M11.33-48.17h0M13.67-46.92h0M17.08-47.17h0M20.25-45.92h0M22.33-50h0M24.25-53.33h0M27.08-51.25h0M30.92-54.17h0M32.42-52.5h0M30.92-48.92h0M24.5-47.83h0M23.5-45h0M27.92-45.83h0M31.33-46.5h0M35-46h0M37.92-46.25h0M37.67-49.33h0M34.92-50.83h0M37.67-52.33h0M41.88-54.19h0M42.17-50.58h0M43.75-47.83h0M47.5-50.17h0M45-53.33h0M50.67-54.17h0M52.33-51.5h0M53.92-49.5h0M50.25-47.75h0M53.67-45.58h0M50.5-45.33h0M46.58-45.75h0M6.67-47.67h0M2-46.92h0M4.75-45.92h0M9.33-45.33h0M12.75-44h0M9.58-42.83h0M6.75-44.42h0M5-42.17h0M3.17-43.83h0M1.92-39.5h0M16-44.83h0M15.08-41.75h0M12.67-40.17h0M19.17-43.5h0M7.5-54.25h0M21.92-42.25h0M25.75-42.42h0M29.92-43.58h0M33.42-43.58h0M31.83-40.67h0M26-39.25h0M20.83-39.08h0M16.67-38.42h0M10.83-36.58h0M5.56-37.5h0M2.31-36.5h0M19.33-35.58h0M14.25-33.75h0M23.92-35.92h0M25.5-33.17h0M28.5-30.08h0M30.5-35h0M29.83-37.58h0M35.08-38h0M35.92-42.17h0M37.67-44.17h0M40.75-45.75h0M40.42-43.42h0M38.75-40.92h0M35.75-35.25h0M33-32h0M39.08-33.17h0M41.83-35.92h0M40.5-38.92h0M44.33-38.25h0M47.08-40.08h0M44.17-41.75h0M44.08-44.5h0M47.33-42.83h0M51.08-41.58h0M52.83-43.33h0M49.67-36.58h0M51.33-33.75h0M45.17-33.92h0M46.83-31h0M50.08-30.67h0M53.17-29.92h0M42.88-31.06h0M39.08-30.58h0M36.08-30.67h0M31.92-29.17h0M38-27.06h0M24.42-30.75h0M19.17-32.33h0M16.25-36.08h0M16.25-30.67h0M10.67-31.33h0M6.92-34h0M2.08-32.58h0M5-31.83h0M4.58-21h0M9.08-13.58h0M17.08-19.67h0M13.92-13.5h0M17.5-12.5h0M20.5-15.83h0M24.33-24.5h0M10.92-10.83h0M13.83-10.42h0M16.67-9.83h0M20-9.83h0M21.92-12.67h0M30.92-27h0M26.67-13.92h0M30.5-16.83h0M32-15.17h0M30.5-11.58h0M24.08-10.5h0M23.08-7.67h0M27.5-8.5h0M30.92-9.17h0M34-10.58h0M37.5-8.92h0M37.25-12h0M34.5-13.5h0M46.58-28.25h0M38.92-17.58h0M41.75-13.25h0M43.33-10.5h0M47.08-12.83h0M43.44-16.94h0M48.92-15.5h0M54.25-16.75h0M52.54-11.17h0M48.21-10.42h0M53.25-8.25h0M50.08-8h0M46.17-8.42h0M7.42-11.08h0M1.58-9.58h0M4.33-8.58h0M9.67-8.58h0M12.33-6.67h0M9.17-5.5h0M6.33-7.08h0M4.58-4.83h0M2.75-6.5h0M1.5-4h0M15.58-7.5h0M14.67-4.42h0M5.25-17.67h0M18.75-6.17h0M10.58-18.75h0M21.5-4.92h0M3.5-12.5h0M29.5-6.25h0M33-6.25h0M28.58-3.75h0M25.58-1.92h0M20.42-1.75h0M32-19.67h0M36.25-21.17h0M5.92-25.5h0M6.33-13.67h0M18.75-28.75h0M12.58-28.5h0M25.5-18.5h0M23.83-27.92h0M21.67-29.92h0M21.17-26.33h0M27.42-28h0M35.33-7.75h0M36.25-5.5h0M40.33-10.67h0M40-6.08h0M41-8.33h0M43.63-23.63h0M34.33-25.33h0M35.08-28.33h0M40.38-28.44h0M45.56-21.06h0M40.08-1.58h0M46.67-2.75h0M42.17-5.17h0M43.67-7.17h0M48.25-6.08h0M50.67-4.25h0M52.42-6h0M27.33-11.33h0M52.75-27.33h0M49.67-28.5h0M43.5-28.67h0M45.17-25.75h0M48.42-25.42h0M51.5-24.67h0M41.67-25.58h0M37.81-24.06h0M27.75-25.67h0M30.25-23.83h0M17.42-25.08h0M15.58-27.58h0M15.08-16.75h0M12.42-25h0M9-26.08h0M5.25-28.75h0M8.33-29.58h0M3.33-26.58h0M1.79-42.46h0M53.54-14.17h0M50.13-18.25h0M2.04-28.75h0M1.63-24.63h0" style="fill:none;stroke:#000;stroke-width:.8;stroke-linecap:round;stroke-linejoin:bevel"/></svg>