<svg xmlns="http://www.w3.org/2000/svg" xml:space="preserve" width="54.25" height="54.25" viewBox="1.23 -55.25 54.25 54.25"><path d="M1.23-55.25h54.25V-1H1.23z" style="fill:none"/><path d="M1.6-54.15s2.25.25 2.75.63-2.5.87-2.5.87l-.25-1.5z" style="fill:none;stroke:#000;stroke-width:.3"/><path d="M16.23-54.38c-.5 2.26 2.37 3.32 3.12 3.5.2.05-2.38 2.26-2.38 2.26-.74-.76-5.37-1-6.37-.76 0 0 1.63-1.12 1.25-2.18 0 0 2.75-.7 2.81-1.75l1.57-1.06zM18.79-54.13a8.65 8.65 0 0 0 2.69 1.44s.8-.87.87-1.75l-3.56.31zM25.54-53.81c.06.87.5 1.69.75 2.25 0 0 1.37-1.69 2.31-2l-3.06-.25zM1.66-48.83l2.5-2.88 3.75.25-.56 2.31.5 1.19-1.37.69-.25 1.12-2.44.44-1.06-1.75zM20.23-48l.56 1.94-.94 1.69 2.88 2 2.18-.88 1.82-2.44 1.37-1.12-1.81-1.88-.31-1.25-3.19-.43-1.31 1.31zM2.04-43.37l-.25 2.62 1.44-.75.75-.19.06-2.31zM8.1-43.06l1-1.38-.06-1.31 1.31-1.06 2.63.62 2.43-.31 2.32 1.5-.94.94-2.25-.69-.69 1.06-1 .32-1.25 1.81-1.06-.94zM15.73-41.44l2.62.07.13.68 1.62 1.38-.5.69-.75.25-.56 1.06-2.81.87.68-2.81zM21.1-41.19l1.31-.25 1.07.94 1.68.56-1.56.44-1.31.69-.63-1.5zM5.66-39.31 8.85-40l1.19 1.31 2.37.94-2.06 1.81 1.19 2.07H9.98L7.1-32.81l-.69-.06-.5-2.69.82-2.44zM2.29-37.81l1.12-.13-.12 2.69-1.75.25zM26.16-41.12l1.38-1.82.94-.12 1.87-2.06 1.06 1.5 1.38 1-1.5 1.43-.56 1.69-3-1.44zM21.35-36.56l3.38-.75 1.5-1.31 2.12 1.31 1.81.25 3 2.94-2.43 2.25-2.44-1.82h-3.56l-2.07-1.81zM15.48-32.75l1.56-1.19 2 1.75-1.69 1.32zM2.91-29.31s1.38-2.06 1.81-2.13l.13 2.88-1.94-.75zM7.1-29.12l2.25-1.13 1.44.44 2.81-1.13.38 1.94 2.62 2-1.44.13-1 1.75-1.93-2.07H9.41l-1.12.25zM19.16-28l1.5-1.87 2.57.93-1.32.57zM25.16-29.81l1.13-1.31 2 .93 1.94.44.06 2.13-1.88.18-1.18-1.18zM34.23-31.25l.31-1.87h2.31l-.56 1.37zM33.66-37.19s1.81-.06 2.56.13.82.37.82.37l1.75-1.06 1.43-.38s0-.56.32-1 1.3-.74 1.3-.74-1.5-1.07-1.8-1.57-2.25.25-2.25.25l-2.13-.06-1.19 1s.44.5 0 1.38-.8 1.68-.8 1.68zM37.91-44.31l2.44-2.19.25 2.5zM44.73-49.44c1.06.5 2.56.69 2.56.69l.25 5c-1.07-.56-2.88-.88-3.25-.56s-1-2.06-1.44-2.19.81-.94 1-1.44.88-1.5.88-1.5zM50.48-47.94c.37-.56 1-1 1-1l3.12 2.75-1.44 1.75s-2.12-.12-2.44-.44.07-2.43.07-2.43l-.31-.63zM50.04-41.5s.87.69 1.56.75 2.25-.06 2.25-.06l.25 2.87s-.56.2-1.75.44-1.56.13-2.25 1.06-.88 1.25-.88 1.25l-1.5-.06s-1.25-1-1.8-1.06.12-1.38 0-2.31-.32-1.44-.32-1.44 1.63-.06 2.31-.25 2.13-1.19 2.13-1.19zM43.35-37.25 41.79-36l-1-.81s.68-.94 1.18-1.06 1.38.62 1.38.62zM43.04-33.88c.62 0 2.37-.12 2.37-.12s.19.88.13 1.38-1.44 0-1.44 0l-1.06-1.26zM51.35-36l.56 1.13 1.94.5-.12-1.44zM50.66-32.75l3.63.06-.81 1.69-4.44-.81zM47.54-29.63c1.56-.43 1.3-.56 2.3-.25s2 .94 2.7 1.13 1.87.38 1.87.38-.25.87-.37 1.43 1.12 3.06 1.12 3.06l-3.75-.37s-.31-.75-1.19-1.06-1.25-.44-1.68-1.31-2.38-1.63-2.38-1.63l1.38-1.38zM38.04-30c1.93-.19 3.3-.13 3.3-.13s.45.57.45.82-1.25.87-1.7 1.37-.37 1.56-.3 2 .75 1.69.75 1.69l-1.32 1.13s-1.24-1.13-1.68-1.63-1.32-1.13-2.5-1.25-1.2-.56-.82-1.06.26-1.19 1.13-1.31S38.04-30 38.04-30zM42.48-25.25s1.8-.5 2.3-.19L48.67-23l-.75.69s-.62-.63-1.19-.81-1.74.12-1.74.12l-1.38.75s-.31-1.88-.44-2.13-.68-.87-.68-.87zM49.85-19.75s1.31-.75 1.88-.75.5 0 1 .31 1.56.44 1.56.44l-.57 2.19s-1.06-.94-1.37-1.06-2.5.25-2.5.25v-1.38zM39.29-21.38l1.18.25s-.93 1.07-.8 1.7-.2-.26-.63-.57.25-1.38.25-1.38zM31.29-24.5l1.12-.06s.07.56.63.87l2.19 1.2-1.7 2s-2.24-.57-2.55-.45-1-.56-1-.56.93-1.56 1-1.75.3-1.25.3-1.25zM36.54-19.25s2.62 1.88 2.75 2.31-.38.88-.7 1.5L37.86-14h-3.63c-.68 0-1.3.38-1.3.38l-1-.32.37-2.06.68-1s.2.06.88-.25 1.31-1.13 1.5-1.44l1.19-.56zM43.31-20.57s1.95.55 2.5 1.01c.54.46 1.05.7.95 1.2-.1.51-.14.76-.16 1.1-.02.34.73 2 .73 2s-1.33.34-1.74.63l-1.04.76-3.8-2.04 1.4-1.27 1.17-2.08-.01-1.31zM50.04-16.06l1.5.5-.07 1.37s-1-.12-1.3-.25-1.13-.3-1.32-.19 1.19-1.43 1.19-1.43zM9.35-53.73l1.5.5-.06 1.38s-1-.13-1.31-.25-1.13-.32-1.32-.2c-.19.13 1.19-1.43 1.19-1.43zM29.91-19.06l1.88-.25s-.75 1.44-.56 2.06-.7-.38-.7-.38l-.62-1.43zM19.35-24.75s1.88-.31 3.19-1 2.37-1.38 2.37-1.38 1.07.88 1.2 1.38 1.18 1 1.8 1.19 0 1.62 0 1.62-.62.07-1 .25-.93 2.13-1 2.31-1.68 0-2.12 0-1.81-.37-1.81-.37-.7-.25-.25-1.06-.7-1.5-1.25-1.69-1.2-.56-1.2-.56l.07-.69zM23.54-17.81l4.44.06L27.1-15l-2.69.13-.18-1.5zM29.1-15.12l1.5.68-.31 1.25-1.69.13.25-1.13zM19.73-18.81l2.12-.06-.44.75v1.25l-.81-.07zM20.66-15.69l1.63-.06.25 1.69.56.69-.75.56-1-.38-1.12.25zM15.1-17.75l2.13.25-.25 1.13.06 1.81-2-.13-1.94.63 1.06-2.13zM11.41-23.06l2.94-.75 1 1.25 2.31.75-.62 1.37-2.75.38-3.25-2zM1.73-25.29l4.43-.19.38.88.69.87-1.5.69-2.19 1.31-.88.56-.12-2.18-.81-1.44zM5.58-20.32l1.69.45 3.51 1.24-1.12 3.14-4.75 1.93-2.59-.72 1.84-3.53zM33.6-52.06l2.44 1.37 4.19-1.37.56 3.19-3.63 1.12-3.06 2.5-2.19-3.44-1.56-.93.19-1.5zM35.85-54.19l.38 1.13 1.87-.75zM42.41-53.31l1.44 1.75 1.63-.5 1.12.44 1.13-1.19-.5-1.06-1.94-.63-2.31.63zM48.85-53.5s1.94 1.13 2.25 1.5.75 1.19.75 1.19l1.81-.31-.75-1.13c-.13-.19-.31-1.31-.31-1.31l-2.38-.31-1.37.37zM37.35-2.92a8.62 8.62 0 0 0 2.69 1.44s.81-.87.87-1.75l-3.56.31zM40.81-12.19l1.31-.25 1.06.94 1.69.56-1.56.44-1.31.69-.63-1.5zM2.5-2.4s1.37-2.06 1.8-2.12l.13 2.87L2.5-2.4zM28.54-3.67l1.12-1.31 2 .94 1.94.44.06 2.12-1.87.19-1.19-1.19zM41.4-7.52l-1.57 1.25-1-.81s.69-.94 1.19-1.07 1.37.63 1.37.63zM2.04-11.92c.62 0 2.37-.12 2.37-.12s.19.87.13 1.37-1.44 0-1.44 0l-1.06-1.25zM48.62-4.56s1.81-.5 2.31-.19l3.88 2.44-.75.69s-.63-.63-1.19-.82-1.75.13-1.75.13l-1.38.75s-.3-1.88-.43-2.13-.69-.87-.69-.87zM43.18-7.1l1.13-.07s.06.57.62.88l2.2 1.19-1.7 2s-2.25-.57-2.56-.44-1-.56-1-.56.94-1.57 1-1.75.31-1.25.31-1.25zM6.23-10.54l2.25-1.13 1.43.44 2.82-1.12.37 1.93 2.63 2-1.44.13-1 1.75-1.94-2.06H8.54l-1.13.25zM18.29-9.42l1.5-1.87 2.56.94-1.31.56zM24.29-11.23l1.12-1.31 2 .94 1.94.43.06 2.13-1.87.19-1.19-1.19zM3.16-7.29l3.63.06-.81 1.69-4.44-.81zM47.35-12.25c1.56-.44 1.31-.56 2.31-.25s2 .94 2.69 1.13 1.88.37 1.88.37-.25.88-.38 1.44 1.13 3.06 1.13 3.06l-3.75-.38s-.32-.75-1.2-1.06-1.24-.43-1.68-1.3-2.38-1.63-2.38-1.63l1.38-1.38zM34.54-11.04c1.93-.19 3.3-.13 3.3-.13s.45.57.45.82-1.25.87-1.7 1.37-.37 1.56-.3 2 .75 1.69.75 1.69l-1.32 1.12s-1.24-1.12-1.68-1.62-1.32-1.13-2.5-1.25c-1.2-.13-1.2-.56-.82-1.07s.25-1.18 1.13-1.3c.88-.13 2.69-1.63 2.69-1.63zM18.48-6.17s1.87-.3 3.18-1 2.38-1.37 2.38-1.37 1.06.87 1.19 1.37 1.18 1 1.8 1.2 0 1.62 0 1.62-.62.06-1 .25-.93 2.12-1 2.3-1.68 0-2.12 0-1.81-.37-1.81-.37-.69-.25-.25-1.06-.69-1.5-1.25-1.69-1.19-.56-1.19-.56l.07-.69zM8.04-4.29l2.94-.75 1 1.25 2.31.75-.63 1.37-2.75.38-3.25-2zM2.95-15.31l.11 1.22M3.47-16.43l.41 2.58M4.16-17.81l.75 4.25M4.71-18.68l1.12 4.72M5.24-19.6l1.61 5.33M6.01-20.22l1.74 5.49M6.97-19.97l1.56 5.02M8.05-19.56l1.26 4.2M8.89-19.27l1.01 3.16M9.75-18.91l.6 1.64M19.29-24.06l6.19-2.57M20.48-23.5l5.43-2.63M21.54-22.88l4.69-2.62M21.73-21.81l5-3.25" style="fill:none;stroke:#000;stroke-width:.3;stroke-linejoin:round"/><path d="M21.98-20.75c0-.25 5.25-4.06 5.25-4.06M23.04-20.5l4.87-4.06M24.29-20.38l3.81-3.5M44.07-20.43l-2.25 5.02M47.48-27.69l6.56.44M25.79-33.63l3.25-3.43M46.85-40.13l3.5 3.32M35.29-51l1.44 3.5M15.47-53.88l.13 4.69M51.1-52l1.75-.63M47.91-40.31l3.07 3.06M48.79-40.75l3 3.37M49.73-41.25l2.62 3.75M51.23-40.88l1.62 3.19M53.04-40.81l.44 2.93M45.79-39.31l4.06 3.18M45.85-37.88l3.5 2.38M36.54-50.88l1.12 2.94M37.73-51.25l.93 3M38.73-51.56l.81 3.06M39.54-51.75l.69 3.06M33.6-52.06l2.38 5.25M32.41-51.5l2.88 5.25M31.04-51.25l3.69 5.44M48.54-26.63l5.56.25M46.73-28.69l7.5.88M47.54-29.63l4.19.57M50.23-25.31l4.12-.19M53.1-24.06l1.75-.44M30.29-36.81l-2.75 3.12M31.04-36.13l-2.19 2.82M31.79-35.44l-2.31 2.63M32.41-34.75l-2.25 2.5M27.91-37.56l-3.43 3.62M27.1-38.06l-3.56 3.31M24.48-37.25l-1.82 1.75M22.6-36.75l-.62.75M44.92-20.03l-2.22 5.1M45.8-19.56l-2.39 5.03M46.72-18.72l-2.54 4.61M46.73-16.79l-1.42 2.31M47.03-15.82l-.31.68M16.66-52.44l-.12 3.63M17.79-51.56l.06 2.12M14.22-52.56l.13 3.25M13.1-51.94l.12 2.44M11.79-50.88l.25 1.38M7.91-39.75 11.47-37M6.66-39.44l4.06 3.19M6.6-37.56l4.12 2.43M6.22-36.63l4.5 2.75M5.91-35.56l3 2.06M6.22-33.94l1.44.88M50.35-52.63l2.25-.62M51.6-51.25l1.56-.63M49.54-53.13l1.62-.62M37.04-11.19l.69 1.31M35.66-11l1.32 1.75M34.23-10.75l2.25 2.06M33.23-10.13l3 2.32M31.23-9l5.31 4.19M32.29-9.69l4.37 3.56M30.73-8l1.31 1.06M5.91-7.19l-.75 1.44M4.85-7.25l-.5 1.37M3.91-7.31l-.56 1.18M2.66-6.94l-.25.75" style="fill:none;stroke:#000;stroke-width:.3;stroke-linejoin:round"/><path d="M6.47-12.88h0M12.97-18.67h0M11.31-14.17h0M16.48-11.17h0M9.64-6.33h0M16.48-4.33h0M5.64-3.17h0M25.64-13.83h0M28.31-7h0M35.98-2.33h0M45.48-8.83h0M32.31-11.83h0M38.98-13.33h0M33.6-19.13h0M52.04-12.56h0M47.29-20.5h0M42.41-27.69h0M31.1-26.31h0M47.64-3.5h0M51.04-30.44h0M49.1-34.06h0M40.35-32.69h0M34.48-35.5h0M29.23-38.63h0M44.23-40.25h0M28.35-32h0M21.23-31.25h0M19.6-21.56h0M18.91-15.25h0M52.04-42.69h0M48.91-46.63h0M49.1-51.5h0M53.23-49.19h0M42.79-49.5h0M37.85-52.63h0M28.29-48.69h0M34.35-43.38h0M19.48-42.25h0M19.04-48.56h0M9.06-49h0M12.14-39.75h0M3.48-33.17h0M5.81-41.75h0M20.89-34.17h0M12.81-32.92h0M10.39-25.17h0M18.64-26.83h0M4.14-20.08h0M6.06-28h0M15.14-43.33h0M32.98-29.83h0M13.31-48.17h0M31.81-53h0M22.64-52h0M44.98-30h0M47.81-25.5h0M41.81-22.83h0M51.14-22.33h0M36.64-23.33h0M8.31-32h0M13.81-36.5h0M7.97-21.83h0M27.81-20.83h0M26.64-27.67h0M45.81-12.83h0M17.81-18.5h0M48.64-6.67h0M40.48-4.83h0M16.64-7.5h0M32.98-5h0M27.48-2.33h0M38.98-36h0M42.14-43.5h0M1.81-27.5h0M6.31-54.83h0M54.14-16h0M54.64-4.67h0M19.14-1.67h0M54.48-54.33h0M1.81-9.33h0" style="fill:none;stroke:#000;stroke-width:.8;stroke-linecap:round;stroke-linejoin:round"/></svg>