<svg xmlns="http://www.w3.org/2000/svg" xml:space="preserve" width="65.24" height="65.24" viewBox="2.21 -66.84 65.24 65.24"><path d="M2.21-66.84h65.24V-1.6H2.21z" style="fill:none"/><path d="M47.13-5.83c2.63.05 7.03.36 8.47.48 1.8.15 4.95-.15 7.5-.3M47.13-5.83c-.67 0-1.22 0-1.58.03M54.63-64.36c-1.86.01-3.63.05-4.98.13M49.65-64.23c-.97.06-1.73.13-2.15.23-.37.08-.83.16-1.35.23M46.15-63.77c-3.08.4-8.3.52-9.45.52M60.27-64.36c-1.72-.02-3.73-.02-5.65 0M62.27-64.34c.82 0 1.5.02 1.95.03M60.27-64.36l2 .02M64.22-64.31l.7.01c.61 0 1.48 0 2.53.02M53.81-57.6c.9-.02 1.97-.03 3.12 0M51.55-57.55c.47 0 1.26-.03 2.27-.05M63.96-57.25l-5.33-.28M56.94-57.6a50.58 50.58 0 0 1 1.69.07M63.96-57.25h.06l3.43.12M62.4-49.95a56.2 56.2 0 0 0-3.95.05c-2.85.15-7.2-.15-8.85 0M62.4-49.95c.98.02 1.62.05 1.62.05.98-.06 2.14-.12 3.43-.17M45.15-44.78c1.81.03 3.64.08 5.2.13 4.65.15 13.37-.15 13.37-.15 1.15.09 2.58.18 3.73.2" style="fill:none;stroke:#000;stroke-width:.6"/><path d="M36.85-44.65c1.2-.2 4.71-.2 8.3-.13M25.7-36.9c1.05-.16 6.12-.17 9.42-.47s10.73.22 15.98.37c.7.02 1.43.06 2.18.1M54.18-36.84l-.9-.06M62.93-35.94c-1.75-.22-5.35-.65-8.75-.9M66.88-35.74h-1.95M63.73-35.84l-.8-.1M64.93-35.75c-.36 0-.67-.03-.91-.05l-.29-.04M66.88-35.74h.57M42.1-31.6c1.05-.15 4.5-.15 6.15-.3 1.65-.15 6.15.15 8.7.3 2.55.15 7.67.3 7.67.3a26.5 26.5 0 0 1 2.83-.01M37.75-17.8c.9-.15 2.85.15 6.15 0 3.3-.15 8.7-.45 12.15-.75 3.45-.3 8.87-.3 8.87-.3.61 0 1.48 0 2.53.02M66.33-11.72l-1.95-.07M66.33-11.72l1.12.04M63.17-11.87a29.28 29.28 0 0 0-3.97-.08c-1.65.15-7.35-.45-8.1-.3M64.38-11.79l-.36-.01-.84-.07M63.47-5.8c1.12-.07 2.47-.14 3.98-.2M56.8-24.55h2.55c1.05 0 4.37-.45 4.37-.45.97-.05 2.3 0 3.73.08M26.88-63.72l-2.45-.06M24.43-63.78l-2.13-.07c-1.89-.08-7.29-.2-12.45-.3M33.25-63.4c-.66-.11-1.83-.18-3.23-.23M30.02-63.63c-.97-.04-2.06-.06-3.15-.09M9.85-64.16l-3.3-.06M2.2-64.28l3.6.05M6.55-64.22H5.8M41.08-57.92c2.18.33 4 .07 5.82.07M9.46-56.84c-2.44-.07-4.96-.19-7.26-.29M38.68-58.15a11.82 11.82 0 0 1 2.4.23M38.68-58.15c-2.92-.03-7.38.42-10.23.3-3.6-.15-5.25 0-9.6.75-2.17.37-5.67.37-9.39.26M2.2-50.07c7.77-.31 19.95-.37 22.65.02l.75.1M42.85-50.05c-.9-.15-5.7-.15-7.35.15-1.53.28-6.64.3-9.9-.06M12.9-44.71c-.64.08-1.4.16-2.38.21-2.84.15-5.62-.3-6.52-.15-.36.06-1.02.07-1.8.05M31.9-44.65c-6.3.3-11.25.45-14.55-.15-1.88-.34-2.75-.13-4.45.09M15.18-35.65a40.6 40.6 0 0 0 4.83-.4M8.58-35.76l.8.03M7.7-35.8l.88.04M20-36.04l.6-.1M12.1-35.64c.97.02 2 .02 3.08 0" style="fill:none;stroke:#000;stroke-width:.6"/><path d="M9.38-35.73c.83.03 1.75.07 2.73.09M7.7-35.8H7c-1.48 0-3.24.04-4.8.06M36.7-31.6c-3.37 0-9.64-.28-14.07-.31M6.85-31.17l2.25.02c4.95 0 6.6-.15 9-.6.77-.15 2.44-.18 4.53-.17M5.78-31.2c-1.4-.03-2.58-.08-3.58-.11M5.78-31.2c.34.02.7.02 1.07.03M3.96-18.8l-1.45-.03M33.25-17.95c-1.42-.24-5.29-.29-8.54-.37M4.78-18.8h-.82M23.43-18.36l1.27.04M4.78-18.8a1021.6 1021.6 0 0 1 18.65.44M26.05-12.45c-2.19.01-3.93.24-7.2.8l-.9.13M17.95-11.53c-3.8.44-10.4.08-15.75-.15M26.05-12.45c.73 0 1.5.01 2.4.05 3.6.15 9.75-.6 12.15-.15 2.4.45 4.35.15 6.3.15M38.13-6.03l1.57-.02M2.2-6c7.78-.28 19.46-.33 22.1.05 3.15.45 9 .45 10.65.15.68-.13 1.91-.2 3.17-.23M39.7-6.05c1.2 0 2.23.04 2.6.1M28.98-25.12h-.83M31.78-25.04c.93.05 1.7.1 2.22.19 2.85.45 9.15.45 13.8-.15 3.25-.42 3.94-.4 5.03-.2M9.46-24.43l1.14.03c2.85 0 4.95-.15 7.35-.45a115 115 0 0 1 10.2-.28M54.7-24.85c-.86-.14-1.4-.26-1.87-.34M9.46-24.43c-1.99-.09-4.8-.34-7.26-.49M30.7-25.08l-1.72-.04M31.78-25.04l-1.07-.04" style="fill:none;stroke:#000;stroke-width:.6"/><path d="M4.97-5.41v3.81M3.33-5.33v3.73M5.8-5.41v3.81M6.55-5.49v3.89M7.53-5.49v3.89M28.45-5.04v3.44M29.27-4.88v3.28M30.02-4.96v3.36M31-4.96v3.36M9.85-5.49v3.89M11.68-5.56v3.96M14.13-5.56v3.96M45.02-5.11v3.51M47.85-5.18v3.58M48.85-5.36v3.76M43.5-5.18v3.58M41.23-5.33v3.73M53.73-5.16v3.56M51.54-5.23v3.63M50.51-5.3v3.7M49.65-5.53v3.93M55.98-5v3.4M57.75-5v3.4M54.63-5.08v3.48M26.88-5.04v3.44M37.6-5.33v3.73M38.42-5.41v3.81M39.17-5.41v3.81M40.15-5.33v3.73M21.97-12.47v-5.26M22.63-12.4v-5.18M23.48-17.73v5.33M20.05-12.47v-5.19M26.05-12.45v-5.05" style="fill:none;stroke:#000;stroke-width:.3"/><path d="M26.05-12.45v.05" style="fill:none;stroke:#000;stroke-width:.6"/><path d="M24.25-17.78v5.1M32.88-4.96v3.36M36.02-5.26v3.66M62.27-4.96v3.36M64.22-5.11v3.51M4.08-17.87v6.22M5.9-17.87v6.15M9.83-18.54v6.74M9.17-18.24v5.91M8.35-17.87v6.15" style="fill:none;stroke:#000;stroke-width:.3"/><path d="M17.95-11.53v.03" style="fill:none;stroke:#000;stroke-width:.6"/><path d="M18.23-18.26v6.73M16.38-18.18v6.6M14.18-17.77v5.92M11.55-18.07v5.92M10.63-17.92V-12M63.4-12.07v-6.14M64.11-12.22v-6.18M62.85-12.07v-6.14M66.35-12.5v-5.91M65.58-12.2v-5.91M64.9-12.1v-5.91M17.35-18.33v6.83M61.08-4.81v3.21M36.02-17.01v4.08M38.85-17.68V-13M34.5-17.16V-13M32.23-16.93v3.78M44.73-17.2v4.57M43.92-17.18v4.48M42.2-17.13v4.35M41.13-17.2v4.35M40.3-17.35V-13M46.98-17.89v5.42M48.75-17.87v5.4M45.63-16.98v4.43M28.6-17.8v4.65M29.43-17.73v4.51M30.18-17.66v4.44M31.15-17.8v4.65M27.02-17.73v4.65M53.27-12.78v-5.18M55.23-12.93v-5.01M52.08-12.63v-5.38M51.27-12.55v-5.44M58.67-12.78v-5.18M60.63-12.93v-5.01M57.48-12.63v-5.38M56.67-12.55v-5.44M60.27-4.74v3.14M4.97-64.29v-2.56M3.33-64.29v-2.56M5.8-66.85v2.62" style="fill:none;stroke:#000;stroke-width:.3"/><path d="M5.8-64.21v-.02M6.55-64.14v-.08" style="fill:none;stroke:#000;stroke-width:.6"/><path d="M6.55-64.22v-2.63M7.53-64.29v-2.56M28.45-63.76v-3.09M29.27-63.69v-3.16" style="fill:none;stroke:#000;stroke-width:.3"/><path d="M30.02-63.63v.02" style="fill:none;stroke:#000;stroke-width:.6"/><path d="M30.02-63.63v-3.22M31-63.76v-3.09" style="fill:none;stroke:#000;stroke-width:.3"/><path d="M9.85-64.16v.02" style="fill:none;stroke:#000;stroke-width:.6"/><path d="M9.85-64.16v-2.69M11.68-64.14v-2.71M16.75-64.14v-2.71M21.45-64.06v-2.79M18.55-63.99v-2.86M20.55-64.06v-2.79M14.13-64.14v-2.71M23.73-63.84v-3.01M45.02-63.76v-3.09M47.85-64.44v-2.41M48.85-64.61v-2.24M43.5-63.91v-2.94M41.23-63.69v-3.16M53.73-64.59v-2.26M51.54-64.56v-2.29M50.51-64.51v-2.34" style="fill:none;stroke:#000;stroke-width:.3"/><path d="M49.65-64.23v.09" style="fill:none;stroke:#000;stroke-width:.6"/><path d="M49.65-64.23v-2.62M55.98-64.59v-2.26M57.75-64.56v-2.29" style="fill:none;stroke:#000;stroke-width:.3"/><path d="M54.63-64.36" style="fill:none;stroke:#000;stroke-width:.6"/><path d="M54.63-64.36v-2.49M26.88-63.72v-3.13" style="fill:none;stroke:#000;stroke-width:.3"/><path d="M26.88-63.72v.03" style="fill:none;stroke:#000;stroke-width:.6"/><path d="M37.6-63.46v-3.39M38.42-63.39v-3.46M39.17-63.31v-3.54M40.15-63.46v-3.39M32.88-63.54v-3.31M36.02-63.39v-3.46M62.27-64.34v-2.51" style="fill:none;stroke:#000;stroke-width:.3"/><path d="M62.27-64.31v-.03M64.22-64.29v-.02" style="fill:none;stroke:#000;stroke-width:.6"/><path d="M64.22-64.31v-2.54M22.57-64.36v-2.49M16.75-5.55v3.95M21.45-5.77v4.17M18.55-5.62v4.02M20.55-5.7v4.1M23.73-5.32v3.72M22.57-6v4.4M61.08-64.36v-2.49M60.27-64.36v-2.49" style="fill:none;stroke:#000;stroke-width:.3"/><path d="M60.27-64.36v.02" style="fill:none;stroke:#000;stroke-width:.6"/><path d="M4.53-36.22v-8.08M2.88-44.23v8.01M5.35-36.14v-8.16M6.1-36.07v-8.31M7.08-36.22v-8.16M28-43.58v6.16M28.83-43.44v6.09M29.58-43.51v6.24M30.55-43.51v6.09M10.1-36.41v-7.97M11.92-36.41v-8.05M17-36.41v-7.7M21.15-36.53v-7.66M18.8-36.26v-7.93M20.1-36.69v-7.57M14.37-36.41v-8.39M23.28-36.8v-7.08M44.58-43.66v5.55M47.4-37.75v-5.98M48.4-37.92v-5.99M43.05-43.73v5.47M40.78-43.88v5.84" style="fill:none;stroke:#000;stroke-width:.3"/><path d="M53.28-36.9v.03" style="fill:none;stroke:#000;stroke-width:.6"/><path d="M53.28-43.71v6.81M51.4-37.58v-5.9M50.57-37.85v-5.93M49.84-37.53v-6.02M49.2-37.45v-6.63M55.53-36.87v-6.68M57.3-36.84v-6.71M54.18-43.63v6.79" style="fill:none;stroke:#000;stroke-width:.3"/><path d="M54.18-36.84v.2" style="fill:none;stroke:#000;stroke-width:.6"/><path d="M26.43-43.58v6.23M37.15-43.88v6.07M37.98-43.96v6.22M38.73-43.96v6.3M39.7-43.88v6.07M21.52-50.68v-6.29M22.41-50.6v-6.22M23.04-50.6v-6.37M19.6-51.03v-5.17" style="fill:none;stroke:#000;stroke-width:.3"/><path d="M25.6-49.91v-.05" style="fill:none;stroke:#000;stroke-width:.6"/><path d="M25.6-49.96v-7.13M23.8-50.88v-6.14M32.43-43.51v5.62M35.58-43.81v6.07M61.83-36.59v-7.61M63.78-35.87v-8.48M22.05-36.73v-7.23M3.63-50.2v-6.22M5.46-50.28v-6.14M8.8-50.28v-6.14" style="fill:none;stroke:#000;stroke-width:.3"/><path d="M9.46-56.84v-.25" style="fill:none;stroke:#000;stroke-width:.6"/><path d="M9.46-56.84v6.49M7.9-50.28v-6.14M17.79-50.4v-5.72M15.93-50.47v-5.57M13.73-50.4v-5.92M11.4-50.7v-5.92M10.63-50.4v-5.92M63.96-57.25v7.24" style="fill:none;stroke:#000;stroke-width:.3"/><path d="M63.96-57.25v-.19" style="fill:none;stroke:#000;stroke-width:.6"/><path d="M63.15-56.76v6.6" style="fill:none;stroke:#000;stroke-width:.3"/><path d="M62.4-49.95v.02" style="fill:none;stroke:#000;stroke-width:.6"/><path d="M62.4-49.95v-6.81M65.91-50.35v-6.61M65.13-56.66v6.61M16.9-50.4v-5.79M60.63-36.64v-7.41M35.58-50.09v-7.19M38.4-50.51v-7.1M34.05-50.17v-7.26M31.78-50.32v-6.89M44.28-50.14v-7.34M43.48-57.45v7.24M42.6-50.21v-7.22M40.68-50.37v-7.11M39.85-57.28v6.77M46.53-57.13v6.8M48.3-57.11v6.78M45.18-57.25v7.19M28.15-50.32v-7.07M28.98-50.39v-6.93M29.73-50.39v-6.85M30.7-50.32v-7.07M26.58-50.59v-6.73M52.83-57.2v6.91M54.78-57.18v6.74M51.63-57.25v7.11M50.83-50.06v-7.17M58.23-57.2v6.91M60.18-50.44v-6.74M57.03-57.25v7.11M56.23-57.23v7.17M21.52-31.34v5.95M22.11-31.34v5.87M23.04-31.34v6.02M19.6-31.26v6.21M25.6-31.11v5.79M23.8-31.39v5.8M3.63-30.78v5.87M5.46-24.99v-5.79" style="fill:none;stroke:#000;stroke-width:.3"/><path d="M9.46-24.43v.06" style="fill:none;stroke:#000;stroke-width:.6"/><path d="M9.46-24.43v-6.34M8.65-30.56v5.57M7.9-30.78v5.79M17.79-30.83v5.72M15.93-30.75v5.57M13.73-31.03v5.92M11.4-30.98v6.26M10.63-30.68v6.26M63.96-31.11v6.05M63.08-30.81v5.22M62.4-30.44v5.45M65.91-25.41v-5.23M65.13-30.34v5.23M16.9-30.91v5.8M35.58-30.96v6.15M38.4-31.29v6.06M34.05-31.11v6.23M31.78-25.04v-6.19" style="fill:none;stroke:#000;stroke-width:.3"/><path d="M31.78-25.04v.01" style="fill:none;stroke:#000;stroke-width:.6"/><path d="M44.28-24.85v-6.31M43.48-24.93v-6.2M41.76-31.08V-25M40.68-31.16v6.08M39.85-30.96v5.73M46.53-25.74v-5.07M48.3-25.74v-5.05M45.18-24.78v-6.15" style="fill:none;stroke:#000;stroke-width:.3"/><path d="M28.15-25.13v.1" style="fill:none;stroke:#000;stroke-width:.6"/><path d="M28.15-25.13v-6.28M28.98-31.34v6.22" style="fill:none;stroke:#000;stroke-width:.3"/><path d="M28.98-25.12v.01" style="fill:none;stroke:#000;stroke-width:.6"/><path d="M29.73-25.11v-6.15" style="fill:none;stroke:#000;stroke-width:.3"/><path d="M30.7-25.08v.05" style="fill:none;stroke:#000;stroke-width:.6"/><path d="M30.7-31.41v6.33M26.58-31.34v6.04M52.83-30.88v5.68" style="fill:none;stroke:#000;stroke-width:.3"/><path d="M52.83-25.2v.2" style="fill:none;stroke:#000;stroke-width:.6"/><path d="M54.78-30.86v5.71M51.63-25.54v-5.39M50.83-25.47v-5.44M58.23-30.88v6.22M60.18-30.86v6.05M57.03-30.93v6.08M56.23-30.91v6.13M59.83-36.62v-7.36M66.85-36.59v-7.61M65.65-36.64v-7.41M64.85-36.62v-7.36M8.74-36.19v-7.97M32.73-12.29V-6M33.52-12.35v6.37M34.3-12.15v6.22M35.27-12.29v6.36M31.15-12.22V-6M37.15-12.07v5.79M15.46-11.05v4.49M17-11.05v4.41M22.07-11.74v5.1M25.15-12.41v6.39M23.88-11.94v5.92M11.55-10.82v4.41M14.63-11.15v4.66M13.35-10.68v4.19M19.45-11.74v5.1M29.05-12.13v6.41M27.48-12.06v6.27M28.45-12.21v6.49" style="fill:none;stroke:#000;stroke-width:.3"/><path d="M47.13-5.83v.07" style="fill:none;stroke:#000;stroke-width:.6"/><path d="M47.13-5.83v-6.09M49.95-11.56v5.72M45.6-5.84v-6.23M43.33-11.84v5.85M55.45-11.69v5.95M54.84-11.72v5.84M53.99-11.69v5.73M53.26-11.77v6.08M51.4-11.92v6.08M58.08-11.77v6.11M59.85-11.74v6.08M56.38-11.54v5.8M2.95-11.19v4.69M8.82-11.05v4.58M8.03-11.03v4.48M7.15-11v4.45M6.3-10.63v4.35M5.23-10.71v4.35M4.4-10.86v4.36M9.73-10.83v4.43M39.7-6.05v-6.32" style="fill:none;stroke:#000;stroke-width:.3"/><path d="M39.7-6.05v.06" style="fill:none;stroke:#000;stroke-width:.6"/><path d="M40.52-11.95v5.89M41.27-11.88v5.82M42.25-12.03v6.04" style="fill:none;stroke:#000;stroke-width:.3"/><path d="M38.13-6.03v.11" style="fill:none;stroke:#000;stroke-width:.6"/><path d="M38.13-6.03v-6.26" style="fill:none;stroke:#000;stroke-width:.3"/><path d="M64.38-11.84v.05" style="fill:none;stroke:#000;stroke-width:.6"/><path d="M64.38-11.79v5.83" style="fill:none;stroke:#000;stroke-width:.3"/><path d="M66.33-11.72v-.09" style="fill:none;stroke:#000;stroke-width:.6"/><path d="M66.33-11.72v5.61M63.17-11.87v6.06" style="fill:none;stroke:#000;stroke-width:.3"/><path d="M63.17-11.89v.02" style="fill:none;stroke:#000;stroke-width:.6"/><path d="M62.38-11.86v6.12M32.28-49.46v4.56M33.13-49.44v4.56M33.85-49.31v4.48M34.83-49.46v4.63M30.7-44.9v-4.49M36.7-49.58v4.41M15.01-49.95v4.84M16.55-49.6v4.41M21.63-49.95v5.45M24.7-49.93v5.36M23.43-49.45v4.88M11.1-44.62v-5.45M14.18-50.05v5.01M12.9-44.71v-5.21" style="fill:none;stroke:#000;stroke-width:.3"/><path d="M12.9-44.71v.02" style="fill:none;stroke:#000;stroke-width:.6"/><path d="M19-50.29v5.1M28.6-44.62v-4.68M27.03-44.69v-4.54M28-44.62v-4.76M46.68-49.78v4.43M49.51-49.42v4" style="fill:none;stroke:#000;stroke-width:.3"/><path d="M45.15-44.78v.05" style="fill:none;stroke:#000;stroke-width:.6"/><path d="M45.15-44.78v-5.15M42.88-49.36v4.48M55.23-49.45v4.13M54.4-49.58v4.11M53.55-49.55v4M52.82-49.63v4.35M50.95-49.78v4.36M57.63-49.63v4.38M59.4-49.6v4.35M55.94-49.4v4.08M8.38-44.68v-5.27M7.58-44.76v-5.16M6.71-44.76v-5.14M5.85-45.52v-4.01M4.78-44.91v-5.04M3.96-45.05v-5.05M9.28-44.6v-5.12M39.26-49.88v5M40.08-49.46v4.5M40.83-49.39v4.43M41.8-49.54v4.66M37.68-49.81v5M63.93-49.7v4.15M65.88-49.67v5.01M62.73-49.75v4.35M61.93-49.72v4.4M33.28-63.11v4.91M34.13-63.08v4.91M34.85-62.96v4.83M35.83-58.13v-4.98M31.7-63.03v4.83M37.7-58.47v-4.41M16.01-63.94v6.56M17.55-63.94v6.49M22.63-63.59v5.79M25.7-63.23v5.01" style="fill:none;stroke:#000;stroke-width:.3"/><path d="M24.43-63.79v.01" style="fill:none;stroke:#000;stroke-width:.6"/><path d="M24.43-63.78v5.91M12.1-63.71v6.48M15.18-64.04v6.74M13.9-63.56v6.26M20-63.59v6.14M29.6-62.95v5.03M28.03-62.87v4.88M29-63.02v5.1M47.68-63.77v5.81M50.51-57.69v-6.06" style="fill:none;stroke:#000;stroke-width:.3"/><path d="M46.15-63.77v-.15" style="fill:none;stroke:#000;stroke-width:.6"/><path d="M46.15-63.77v5.74M43.88-57.84v-4.82M56.08-57.73v-6.31M55.4-57.73v-6.18M54.55-57.81v-6.08M53.81-57.6v-6.36" style="fill:none;stroke:#000;stroke-width:.3"/><path d="M53.81-57.54v-.06" style="fill:none;stroke:#000;stroke-width:.6"/><path d="M51.95-57.69v-6.42M58.63-57.53v-6.43" style="fill:none;stroke:#000;stroke-width:.3"/><path d="M58.63-57.53v.02" style="fill:none;stroke:#000;stroke-width:.6"/><path d="M60.4-57.51v-6.43" style="fill:none;stroke:#000;stroke-width:.3"/><path d="M56.94-57.59v-.01" style="fill:none;stroke:#000;stroke-width:.6"/><path d="M56.94-57.6v-6.14M3.5-64.07v6.75M9.38-57.29v-6.65M8.58-57.36v-6.55M7.71-57.36v-6.53M6.85-57.09v-6.43M5.78-63.59v6.42M4.95-63.74v6.42M10.28-63.71v6.5M40.26-58.19v-4.99" style="fill:none;stroke:#000;stroke-width:.3"/><path d="M41.08-57.91v-.01" style="fill:none;stroke:#000;stroke-width:.6"/><path d="M41.08-57.92v-4.84M41.83-57.91v-4.78M42.8-57.84v-5M38.68-58.15v-4.96" style="fill:none;stroke:#000;stroke-width:.3"/><path d="M38.68-58.15v.04" style="fill:none;stroke:#000;stroke-width:.6"/><path d="M64.93-64.03v6.22M66.88-64.01v6.05M63.73-57.66v-6.42M62.93-57.59v-6.47M32.28-24.18v5.6M33.01-24.15v5.67M33.85-24.03v5.53M34.83-24.18v5.68M30.7-24.45v5.87M36.7-23.26v4.41M14.73-23.97v5.18M16.55-24.31v5.45M21.63-24.66v5.8M24.7-24.64v6.32" style="fill:none;stroke:#000;stroke-width:.3"/><path d="M24.7-18.25v-.07M23.43-18.36v.11" style="fill:none;stroke:#000;stroke-width:.6"/><path d="M23.43-18.36v-5.8M11.1-23.74v4.41M14.18-24.07v5.01M12.9-23.94v4.88M19-23.97v5.11M28.6-24.7v6.41M27.03-24.63v6.26M28-18.29v-6.49M46.68-23.45v4.42M49.51-24.48v5.38M45.15-23.61v5.2M42.88-23.73v5.17M55.08-23.68v4.23M54.4-24.29v5.14M53.55-24.27v5.05M52.82-24.34v5.39M50.95-24.49v5.39M57.63-24v5.08M59.4-23.97v5.05M55.94-23.77V-19M8.38-24.32v4.93M7.58-24.29v4.82M6.71-24.27v4.8M5.85-23.89v4.69" style="fill:none;stroke:#000;stroke-width:.3"/><path d="M4.78-18.8v.22" style="fill:none;stroke:#000;stroke-width:.6"/><path d="M4.78-18.8v-5.52" style="fill:none;stroke:#000;stroke-width:.3"/><path d="M3.96-18.81v.08" style="fill:none;stroke:#000;stroke-width:.6"/><path d="M3.96-24.47v5.66M9.28-24.09v4.77M39.26-23.56v5M40.08-23.14v4.5M40.83-23.76v5.12M41.8-23.91v5.35M37.68-23.49v5M63.93-24.41v5.19M65.88-24.39v5.02M62.73-24.12v5.05M61.93-24.09V-19M33.28-32.22v-4.91M34.13-32.2v-4.91M34.8-32.05v-4.98M35.83-32.15v-4.98M31.7-32.22v-4.84M37.7-36.91v4.42M16.01-35.54v3.45M17.55-35.54v3.38" style="fill:none;stroke:#000;stroke-width:.3"/><path d="M22.63-31.91v.09" style="fill:none;stroke:#000;stroke-width:.6"/><path d="M22.63-36.23v4.32M25.7-36.91v4.67M24.43-31.89v-4.54M12.1-31.25v-4.39" style="fill:none;stroke:#000;stroke-width:.3"/><path d="M12.1-35.64v-.02" style="fill:none;stroke:#000;stroke-width:.6"/><path d="M15.18-32.01v-3.64" style="fill:none;stroke:#000;stroke-width:.3"/><path d="M15.18-35.65" style="fill:none;stroke:#000;stroke-width:.6"/><path d="M13.9-35.51v4.19M20-32.16v-3.88" style="fill:none;stroke:#000;stroke-width:.3"/><path d="M20-36.04v-.19" style="fill:none;stroke:#000;stroke-width:.6"/><path d="M29.6-31.94v-5.03M28.03-32.01v-4.88M29-31.94v-5.1M47.68-36.41v4.43M50.51-36.39v3.99M46.15-36.56v4.5M43.88-36.68v4.82M56.23-36.16v4.13M55.4-36.21v4.11M54.62-36.36v4M53.74-36.59v4.35M51.95-36.75v4.35M58.63-35.91v4.38M60.4-35.89v4.36M56.94-36.03v4.08M3.5-31.34v-3.99M9.38-31.31v-4.42" style="fill:none;stroke:#000;stroke-width:.3"/><path d="M9.38-35.73v-.16M8.58-35.76v-.1" style="fill:none;stroke:#000;stroke-width:.6"/><path d="M8.58-31.39v-4.37M7.71-35.79v4.4" style="fill:none;stroke:#000;stroke-width:.3"/><path d="M7.71-35.79v-.05M6.85-31.12v-.05" style="fill:none;stroke:#000;stroke-width:.6"/><path d="M6.85-31.17v-4.3" style="fill:none;stroke:#000;stroke-width:.3"/><path d="M5.78-31.19" style="fill:none;stroke:#000;stroke-width:.6"/><path d="M5.78-31.19v-4.35M4.95-31.34v-4.35M10.28-35.66v4.42M40.26-37.21v5M41.83-31.94v-4.77M42.8-36.86v5M38.68-37.13v5M64.93-35.75v3.92" style="fill:none;stroke:#000;stroke-width:.3"/><path d="M64.93-35.98v.23M66.88-35.74v-.22" style="fill:none;stroke:#000;stroke-width:.6"/><path d="M66.88-35.74v3.76M63.73-35.84v4.16" style="fill:none;stroke:#000;stroke-width:.3"/><path d="M63.73-36.03v.19M62.93-36.01v.07" style="fill:none;stroke:#000;stroke-width:.6"/><path d="M62.93-35.94v4.33M2.5-24.71v5.66" style="fill:none;stroke:#000;stroke-width:.3"/></svg>