<svg xmlns="http://www.w3.org/2000/svg" xml:space="preserve" width="85.88" height="85.88" viewBox="1.52 -87.79 85.88 85.88"><path d="M1.52-87.79H87.4v85.88H1.52z" style="fill:none"/><path d="M26.4-77.33h0M38.4-73.58h0M38.07-82.74h0M46.15-79.08h0M69.9-77.08h0M82.15-73.58h0M77.15-82.58h0M55.15-86.33h0M30.9-82.41h0M15.15-76.58h0M14.9-62.33h0M33.65-60.08h0M36.9-51.08h0M44.9-61.08h0M50.65-51.33h0M56.9-62.83h0M64.15-58.83h0M58.15-58.58h0M52.4-58.08h0M42.9-54.83h0M32.4-54.58h0M30.9-48.08h0M29.4-62.58h0M38.4-64.58h0M30.9-72.33h0M18.15-50.08h0M20.65-44.83h0M4.03-39.6h0M6.15-47.58h0M24.4-33.08h0M8.15-24.83h0M24.15-26.33h0M22.15-16.33h0M15.9-15.58h0M15.65-8.33h0M12.28-2.4h0M30.9-6.08h0M37.65-7.83h0M37.9-14.08h0M38.4-22.83h0M30.65-31.33h0M29.65-37.08h0M27.65-42.58h0M35.15-44.83h0M40.4-36.83h0M43.9-48.58h0M56.15-50.33h0M50.15-45.58h0M45.9-41.08h0M51.15-37.83h0M57.4-37.83h0M57.15-43.83h0M62.15-46.83h0M70.9-43.83h0M71.4-55.33h0M68.65-68.83h0M62.65-71.83h0M64.9-82.33h0M84.4-79.33h0M76.4-76.58h0M82.4-67.33h0M73.65-71.83h0M76.4-65.58h0M79.65-58.58h0M84.65-36.58h0M76.9-34.33h0M73.4-38.33h0M69.15-34.83h0M63.65-35.08h0M63.15-29.33h0M69.4-26.58h0M76.65-24.58h0M72.9-31.58h0M81.65-21.33h0M81.4-14.33h0M75.65-12.08h0M69.4-20.33h0M70.15-14.83h0M50.9-13.58h0M43.15-11.58h0M32.4-24.08h0M28.4-17.08h0M20.9-22.33h0M14.15-26.08h0M6.4-31.08h0M2.65-25.83h0M2.9-18.08h0M20.4-9.58h0M49.22-3.64h0M83.65-25.33h0M84.65-44.08h0M78.65-44.58h0M85.65-86.58h0M81.9-83.08h0M2.4-52.58h0M7.65-52.33h0M2.65-9.83h0M5.65-21.58h0M64.65-52.33h0M74.15-49.83h0M81.9-54.33h0M72.4-61.33h0M64.15-65.08h0M51.15-68.83h0M58.4-76.33h0M24.9-69.33h0M19.65-73.08h0M8.4-69.08h0M2.9-77.08h0M2.83-60.73h0M12.9-50.08h0M9.15-57.83h0M16.15-58.08h0M23.4-52.33h0M24.15-61.83h0M20.65-58.83h0M15.4-68.58h0M8.65-79.83h0M14.9-81.58h0M22.65-83.33h0M34.9-39.83h0M20.9-40.33h0M10.15-43.33h0M14.9-33.58h0M38.9-30.83h0M45.65-36.58h0M58.4-33.33h0M63.9-40.33h0M78.4-39.33h0M81.4-29.33h0M64.15-22.83h0M76.9-17.58h0M81.15-7.58h0M55.9-7.08h0M48.9-8.33h0M24.65-9.33h0M6.58-4.74h0M8.15-14.58h0M15.15-20.58h0M33.15-17.58h0M45.15-17.08h0M46.9-26.08h0M52.4-17.83h0M68.58-10.06h0M72.98-5.66h0M64.07-3.08h0M63.15-12.33h0M58.15-14.83h0M57.65-20.58h0M53.65-28.33h0M42.4-44.33h0M38.9-57.83h0M32.9-66.58h0M39.65-68.33h0M44.9-72.83h0M32.65-76.58h0M44.65-84.33h0" style="fill:none;stroke:#000;stroke-width:.7;stroke-linecap:round"/><path d="m10.9-79.83 2.25 2.63M11.03-83.58l3.37.13M21.9-80.39l2.69 2.05M18.4-81.45l-2.13 2.75M20.02-84.2l-2.75-1.75M25.27-86.95l-2.25 1.5M26.9-83.58l.12 3.13M30.27-86.14l2.5 1.25M36.65-84.51l2-2.37M41.4-83.58l2.75 2.25M37.27-79.95l.63 3M33.02-79.95l-2.5 2.62M44.02-76.95l-2.12 2.62M40.52-70.58l3.38 1.13M36.23-72.23l-3.31-2.48M32.77-69.83l-2.87 1.38M36.77-68.7l-1 3.37M41.52-65.58l1.75 2.75M43.52-58.2l-2.75 1.62M39.02-60.95l-3.5-.5M40.4-51.95l3.62.25M38.92-49.96l1.25 3M7.78-83.19l-2.38 2.5M5.28-77.95l4 1.12M4.28-74.2l1.12 3.62M6.03-67.58 3.02-65.2M6.03-61.92l-.37 3.63M3.27-55.08l2.88 2M3.65-49.33l-1.63 3M1.9-86.7l3.25.75M10.03-45.7 8.9-49.2M13.61-45.28l3.12-2.13M10.15-52.95l3.38-.63M8.28-64.08l3.62.13M12.4-73.45l-4.12.25M12.9-70.33l-2 3M15.9-66.7l2.5 2M15.9-74.33l1.12 3.75M27.62-52.83l3.77 1.08M19.98-76.04l3.29 1.34M27.15-74.7l1.58 3.27M23.02-70.7l-2.62 2.75M23.52-65.7l3.38-.5M29.65-64.83l3.25 2M31.52-59.33l-2.12 2.88M36.52-53.08l-1.5-3.25M33.09-46.03l2.75-3.13M27.9-46.83l-1.75-3M21.73-46.94l1.13-3.13M21.52-56.16l3.25 1.38M25.39-57.98l1.3-3.52M21.4-62.7l-3.13 2.12M16.69-55.53l2.38 3.12M53.94-79.83l2.25 2.63M54.06-83.58l3.38.13M64.94-80.39l2.69 2.05M61.44-81.45l-2.13 2.75M63.06-84.2l-2.75-1.75M68.31-86.95l-2.25 1.5M69.94-83.58l.12 3.13M73.31-86.14l2.5 1.25M79.69-84.51l2-2.37M84.44-83.58l2.75 2.25M80.31-79.95l.63 3M76.06-79.95l-2.5 2.62M87.06-76.95l-2.12 2.62M83.56-70.58l3.38 1.13M79.69-73.33l-4.13-.12M75.81-69.83l-2.87 1.38M79.81-68.7l-1 3.37M84.56-65.58l1.75 2.75M86.56-58.2l-2.75 1.62M82.06-60.95l-3.5-.5M83.44-51.95l3.62.25M81.96-49.96l1.25 3M50.81-84.33l-2.37 2.5M48.31-77.95l4 1.12M47.31-74.2l1.13 3.62M49.06-67.58l-3 2.38M48.51-60.5l1.69 3.23M46.31-55.08l2.88 2M48.39-49.33l-1.63 3M44.94-86.7l3.25.75M53.91-44.28l-1.12-3.5M57.81-47.58l3.13-2.12M53.19-52.95l3.37-.63M56.05-60.2l-1 3.62M51.48-63.2l3.34-1.41M55.44-73.45l-4.13.25M55.94-70.33l-2 3M58.94-66.7l2.5 2M58.94-74.33l1.12 3.75M62.86-74.54l3.44-.88M70.89-74.46l-1.85 3.13M66.06-70.7l-2.62 2.75M66.56-65.7l3.38-.5M72.69-64.83l3.25 2M75.75-59.06l-2.12 2.88M79.56-53.08l-1.5-3.25M76.41-46.32l2.75-3.12M74.94-52.45h-4M70.94-46.83l-1.75-3M64.9-46.58l1.13-3.12M65.9-55.58l3.25 1.38M10.46-59.91l3.25 1.38M70.01-58.13l-1.7-3.34M64.44-62.7l-3.13 2.12M59.56-56.7l2.38 3.12M10.93-36.82l2.25 2.62M11.06-40.57l3.37.12M21.93-37.38l2.69 2.04M18.43-38.45l-2.12 2.75M20.06-42.05l-2.75-1.75M25.31-43.95l-2.25 1.5M28.07-40.57l-1.64 2.66M30.31-43.14l2.5 1.25M36.68-41.51l2-2.37M41.43-40.57l2.75 2.25M37.31-36.95l.62 3M33.06-36.95l-2.5 2.63M44.06-33.95l-2.13 2.63M40.56-27.57l3.37 1.12M36.6-30.94l-3.95 1.17M32.81-26.82l-2.88 1.37M36.81-25.7l-1 3.38M41.56-22.57l1.75 2.75M43.56-15.2l-2.75 1.63M39.06-17.95l-3.5-.5M40.43-8.95l3.63.25M39.81-5.43l1.25 2.99M7.81-41.32l-2.38 2.5M5.31-34.95l4 1.13M4.31-31.2l1.12 3.63M6.06-24.57l-3 2.37M6.07-18.91l-.38 3.62M3.31-12.07l2.87 2M3.68-6.32l-1.62 3M1.93-43.7l3.25.75M10.14-2.09l-1.12-3.5M15.16-3.88l3.13-2.13M10.18-9.95l3.38-.62M14.18-17.2l-2.65 2.66M8.31-19.94l3.62.13M12.43-30.45l-4.12.25M12.93-27.32l-2 3M15.93-23.7l2.5 2M15.93-31.32l1.13 3.75M19.81-32.32l3.14 1.67M27.89-31.46l-1.86 3.12M21.37-28.63l-.94 3.68M23.56-22.7l3.37-.5M29.68-21.82l3.25 2M31.56-15.47l-2.13 2.87M36.56-10.07l-1.5-3.25M33.08-3.26l2.75-3.12M31.93-8.6h-4M28.04-2.88l-1.75-3M21.3-4.21l1.13-3.13M21.91-13.34l3.25 1.37M25.55-15.53l1.27-3.52M21.43-19.7l-3.12 2.13M16.56-13.7l2.37 3.13M53.99-36.85l2.25 2.62M54.12-40.6l3.37.12M64.99-37.42l2.69 2.05M61.49-38.48l-2.12 2.75M63.12-42.36l-2.75-1.75M68.37-43.98l-2.25 1.5M71.63-40.22l-1.51 2.74M73.37-43.17l2.5 1.25M79.74-41.54l2-2.37M84.49-40.6l2.75 2.25M80.37-36.98l.62 3M76.12-36.98l-2.5 2.63M87.12-33.98l-2.13 2.62M83.62-27.61l3.37 1.13M79.74-30.36l-4.12-.12M75.87-26.86l-2.88 1.38M79.87-25.73l-1 3.37M84.62-22.61l1.75 2.75M86.62-15.23l-2.75 1.62M82.12-17.98l-3.5-.5M83.49-8.98l3.63.25M83.08-5.63l1.25 3M50.87-41.35l-2.38 2.5M48.37-34.98l4 1.13M47.37-31.23l1.12 3.62M49.12-24.61l-3 2.38M49.13-18.95l-.38 3.63M46.37-12.11l2.87 2M46.74-6.36l-1.62 3.01M44.99-43.73l3.25.75M53.24-2.21l-1.12-3.5M58.05-3.02l3.13-2.13M53.24-9.98l3.38-.63M56.39-17.23l-2.74 2.57M51.37-21.11l3.62.13M55.49-30.48l-4.12.25M55.99-27.36l-2 3M58.99-23.73l2.5 2M58.99-31.36l1.13 3.75M62.87-32.35l3.5.62M69.89-32.34l1.05 3.48M66.12-27.73l-2.63 2.75M66.62-22.73l3.37-.5M72.74-21.86l3.25 2M74.62-16.36l-2.13 2.88M79.62-10.11l-1.5-3.25M76.08-3.77l2.75-3.13M74.76-8.57l-3.54-1.87M71.08-2.25l-1.75-3M64.87-5.86l1.12-3.12M64.62-14.61l3.25 1.38M67.42-16.52l3.35-1.69M64.49-19.73l-3.12 2.12M59.7-12.52l2.38 3.12" style="fill:none;stroke:#000;stroke-width:.3"/></svg>