<svg xmlns="http://www.w3.org/2000/svg" xml:space="preserve" width="54.33" height="54.33" viewBox="1.6 -55.94 54.33 54.33"><path d="M1.6-55.94h54.33v54.33H1.6z" style="fill:none"/><path d="m42.47-55.71.65.17c5.94 1.5 8.55 5.6 10.13 10.25M41.63-55.91c.22.07.61.13.84.2M53.78-43.91c-.19-.43-.37-.88-.54-1.38M54.74-42.15c-.34-.5-.66-1.1-.96-1.76M54.74-42.15c.21.31.43.6.65.85.17.2.35.44.54.61M52.68-37.92c.54.61 1.14 1.17 1.83 1.68.44.32.9.47 1.4.76M33.77-55.94c.17.13.44.26.6.38 2.37 1.74 5.01 3.33 7.56 4.2M48.33-46.63a7.74 7.74 0 0 0-1.82-2.44M46.51-49.07c-.98-.86-2.33-1.54-4.39-2.22l-.19-.06M51-40.4c.5.92 1.04 1.74 1.68 2.48M48.94-45.29c-.2-.49-.4-.93-.61-1.34M51-40.4c-.4-.76-.78-1.6-1.13-2.51-.34-.9-.64-1.68-.93-2.38M5.68-34.18a23.08 23.08 0 0 0-4.08-1.29M26.43-8.1c2.6 2.75 5.07 4.96 6.75 6.06l.36.24.31.2M17.72-19.06c.44.69.91 1.39 1.4 2.08M17.72-19.06a29.01 29.01 0 0 1-3.29-6.6l-.06-.2M26.43-8.1a83.51 83.51 0 0 1-6.1-7.2M19.12-16.98l1.21 1.67M11.5-30.43c-.95-.94-2-1.72-3.06-2.36M14.37-25.86a11.65 11.65 0 0 0-2.88-4.57M8.44-32.79a21.28 21.28 0 0 0-2.76-1.39M19.74-26.19l-.18-.47c-2-5.5-5.25-10.13-10.75-11.25l-1.07-.24M41.73-1.6c-.16-.07-.35-.14-.44-.2M19.74-26.19c.74 1.8 2.22 4.37 4.16 7.2M41.29-1.8a18.36 18.36 0 0 1-2.13-1.15M29.9-11.26a51.37 51.37 0 0 0 7.23 6.92M28.18-13.29a83.2 83.2 0 0 1-2-2.53M28.18-13.29c.57.69 1.14 1.37 1.73 2.03M23.9-18.99c.7 1.03 1.47 2.1 2.28 3.17M37.13-4.34c.69.51 1.36.98 2.03 1.4" style="fill:none;stroke:#000;stroke-width:.3;stroke-linecap:square"/><path d="M7.74-38.15c-3.89-.92-5.56-2.08-6-2.44-.1-.06-.13-.14-.13-.14l-.01.03" style="fill:none;stroke:#000;stroke-width:.3;stroke-linejoin:round"/><path d="m5.12-50.35.03-.02M11.71-55.59l.48-.33M11.71-55.59l-6.56 5.22M11.71-55.59l-.03-.01M16.27-47.09l-.04.04M16.27-47.09l4.41-4.1M20.68-51.19l-8.97-4.4M34.93-39.27l.09-4.25M27.48-42.24l-2.38-3.78M16.93-46.66h-.06M30.35-37.69l-2.87-4.55M30.35-37.69l4.25-1.46M34.93-39.27l-.33.12M16.93-46.66l8.17.64M27.48-42.24l-4.54 3.07M22.94-39.17l-.01.01M27.48-42.24l.04-.03M26.4-48.8l1.1-2.35M26.4-48.8l-1.3 2.78M27.5-51.15l.02-.04M26.4-48.8l-3.65-1.52M26.4-48.8l.03.01M20.68-51.19l.43-4.75M20.68-51.19l2.07.87M38.02-34.44l-3.09-4.83M38.02-34.44l.16.26 3.34 2.41M30.21-31.43l.04-1.6M30.35-37.69l-.1 4.66M41.68-11.69l.01-.04M41.69-11.73l.11-2.43M30.21-31.43l-.03 1.5M31.06-27.73l-.88-2.2M39.34-21.26l-2.41-4.09M39.34-21.26l2.59 4.41M41.93-16.85l-.13 2.69M31.77-25.93l-.71-1.8M36.93-25.35l-5.16-.58M30.18-33.02l.07-.01M38.02-34.44l-.17.17-7.6 1.24M38.02-34.44l3.16-3.25M38.35-29.43l2.67-1.09M38.35-29.43l-6.07-.38M32.28-29.81l-2.1-.12M38.35-29.43l-1.42 4.08M34.18-18.27l-5.93-1.08M39.34-21.26l-5.16 2.99M39.34-21.26l.01-.01 1.92-1.5M30.1-31.43l-5.83-3.42M28.12-25.61l-2.02.18M31.77-25.93l-.4 7.14M31.77-25.93l-3.65.32M48.83-15.43l2.19 2.91M46.68-18.27l2.15 2.84M46.68-18.27l-4.75 1.42M55.93-13.55l-1.31.76M51.02-12.52l3.6-.27M36.69-15.48l-2.51-2.79M36.69-15.48l3.49 3.88M40.18-11.6l-3.62.87M51.06-21.48l-4.38 3.21M46.77-21.27l-.09 3M55.93-15.83l-5.04 3.12M13.35-54.77l-4.69 4.86M8.61-49.86l.05-.05M15.1-53.85l-4.16 4.45M10.94-49.4l-.03.03M13.15-48.66l-.01.01M13.15-48.66l3.62-4.36M14.99-47.83l3.44-4.44M14.98-47.83h.01M20.85-53.44l-4.2-2.48M19.98-55.94l1.04.75M5.04-55.94l2.91 3.3M7.67-55.94l1.66 2.13M22.75-50.32l.64-5.62M22.75-50.32v.03M16.35-4.39l-3.04 1.91-1.17.88M16.35-4.39l3.67 2.78M23.38-1.61l.3-2.7h-2.33M21.35-4.31l-.26 2.7M16.73-1.61l-2.46-1.45M9.98-1.6 8.85-3.23l-.99-1.44M7-5.91l4.12-3.44M14.37-7.79l-1.69-.81M11.12-9.35l1.56.75M7.86-4.67 7-5.91M17.25-6.41l-2.88-1.38M9.98-55.92l.79 1.07M25.43-54.69l-.66 5.09M18.77-49.27l6.91 1.83M20-44.1l6.1-.25M26.77-41.85l-5.09.19M21.68-41.66h0M25.52-40.77l4.75 5.83M29.27-31.93l-5.75-7.51M26.52-43.85l2.41-5.25M28.18-41.29l1.61-3.66M29.79-44.95l.98-2.24M29.1-39.77l5.83-1.83M28.93-42.85l5.67-1M29.79-44.95l2.98-.32M29.79-44.95l-.11.01M32.6-33.52l-.25-4.83M34.6-39.15v-.04M34.6-39.15l.42 5.21M37.02-36.19l2.66-3.41M35.93-37.85l2-3.17M40.02-32.94l2.08-2.33M40.43-32.52H30.35M32.28-29.81l1.07 3.96M32.27-29.85l.01.04M34.43-29.6l.84 4M37.27-26.35l-.75-3.17M38.68-22.52l1.59-1.5M37.62-24.41l2.56-2.02M37.52-26.85l3.16-2M31.06-27.73h0M31.06-27.73l-5.31.63M30.37-29.35l-5.06.5M30.1-31.43l-5.29.33M30.21-31.43l10.97.58M30.21-31.43h-.11M27.06-33.1l-2.56.25M28.12-25.66v.05M28.12-25.61l-.44 5.13M29.43-19.16l.44-6.57M33.56-25.73l-.44 7.25M35.31-25.41l-.38 6.62M36.93-20.1l.25-4.75M39.93-20.16l-4.56 3.12M40.75-18.85l-4.06 3.37M36.69-15.48h-.01M38.06-14.04l3.69-3M39.43-12.54l2.37-1.62M41.8-14.16h.01M43.68-11.98l-.18-5.18M45.25-17.79l.56 5.69M47.81-12.23v-.02M47.81-12.25l-.5-5.16M49.87-14.1l6.06-4.13M48.83-15.43l7.1-4.63M48.83-15.43l-.02.02M3.04-16.71l-.2.13M2.84-16.58l-1.24.76M2.77-19.04l-1.17.8M2.71-14.16l-1.11.62M1.6-20.06l.36-.23M47.81-16.79l6.37-4.5M49.5-14.48l.12 2.07M40.81-22.35l3 4.81M43.5-21.85l2.25 3.81M36-16.16l-6.75-1.32M37.37-14.66l-6.56-.44M38.93-12.85l-5.87.06M36.62-54.1l-.55-1.84M38.75-52.85l-.9-3.09M40.31-52.04l-.88-3.9M41.93-51.35l-.43-3.25M41.32-55.94l.18 1.34M41.93-51.35h0M44.87-54.98l-3.37.38M41.5-54.6h0M41.75-52.91l5.56-.75M41.93-51.6l7.38-.44M45.68-51.79l-.87 1.56M48-51.91l-1.49 2.84M46.51-49.07l-.01.03M47.68-47.79l2.13-3.81M48.33-46.63l2.54-3.6M48.33-46.63l-.02.03M49.81-48.66l2 .18M48.75-47.16l3.87.25M48.94-45.29h4.31M48.94-45.29h-.07M53.81-43.91h-.03M53.78-43.91l-.97.06M49.68-43.66l3.13-.19M51-40.4l.12-3.33M51-40.4v.05M52.81-43.91v.06M52.68-37.91v-.01M52.68-37.92l.13-5.93M54.35-37.72l-.1 1.24M54.74-42.15l-.24 2.8M54.74-42.15l.01-.01M54.5-39.35l-.15 1.63M54.5-39.35h0M55.93-39.27l-1.42-.04M54.35-37.72l1.58.11M54.31-37.73l.04.01M35.12-5.98l.25 1.89.71 2.48M37.13-4.34l-.01-.07M37.13-4.34l.05.25.69 2.49M39.16-2.94l.29 1.34M39.16-2.94v-.03M41.29-1.79l.02.19M41.29-1.79h0M4.1-39.19l-2.5-.08M4.04-37.44l-2.44-.15M33.43-1.91l2.25-.82M31.75-3.1l3.56-1.31M34.87-6.16l-4.44 1.93M31-10.04l2.93 4.25M29.91-11.26l-3.04 3.6M29.91-11.26l.02-.03M32.43-5.1l-3.56-4.88M30.68-4.35l-2.93-4.31M5.68-34.18v.02M5.87-38.6l-.19 4.42M7-33.6l.74-4.55M7.74-38.15l.01-.01M7.56-36.66l4.19-.13M7.25-34.98h7.12M16-32.85l-7.56.06M16-32.85h.31M8.44-32.79h-.01M11.49-30.43l-.31-2.36M11.49-30.43l.01.02M14.37-25.86v.01M13.56-32.79l.81 6.93M16.15-29.96l.43 8.18M16.62-21.04l-.04-.74M16-32.85l.15 2.89M16-32.85h0M16.15-29.96l2.53 1.17M16.12-29.98l.03.02M16.31-27.54l3.43 1.35M19.74-26.19l.07.03M21.81-22.23l-5.38-2.68M16.56-21.79l.02.01M23.9-18.99l-4.04-1.54M16.58-21.78l3.28 1.25M23.9-18.99l.03.01M19.86-20.53l-2.14 1.47M19.86-20.53l.01-.01M17.72-19.06l-.04.02M19.12-16.98h0M22.62-19.41l-3.5 2.43M20.31-15.29l.02-.02M24.43-18.16l-4.1 2.85M21.68-16.23l.38 3.13M23.81-17.73l.5 7.25M26.18-15.85v.03M26.43-8.04v-.06M26.43-8.1l-.25-7.72M28.18-13.29l.32 3.69M28.18-13.29h0M27.5-51.15a23.33 23.33 0 0 1-2.44-4.64l-.06-.14" style="fill:none;stroke:#000;stroke-width:.3;stroke-linecap:square"/><path d="M27.5-51.15c6.2 9.12 16.7 11 14.3 18.61-2.74 8.75-2.24 10 3.26 11 4.62.84 6.77-.97 10.31.66.18.09.37.22.56.32M49.98-55.45c-.2-.16-.54-.32-.74-.48M55.93-51.61a30.3 30.3 0 0 1-5.95-3.84M8.66-49.91c.67.11 1.44.27 2.28.5M13.15-48.66c-.77-.3-1.51-.55-2.2-.74M22.94-39.17c.47 1.17.85 2.46 1.12 3.88l.25 1.44c1.02 6.2 2.96 20.67 13.56 23.69a12.5 12.5 0 0 1 3.93 2.18M16.93-46.66c-.22-.15-.44-.3-.66-.43M16.27-47.1a18.2 18.2 0 0 0-1.28-.73M41.8-7.98c.49.37.98.77 1.49 1.2M16.93-46.66a16.35 16.35 0 0 1 4.75 5M13.15-48.66c.6.24 1.22.51 1.84.83M21.68-41.66c.47.76.89 1.59 1.26 2.5M5.15-50.37c.38.08.77.15 1.16.2 0 0 .92.02 2.35.26M43.28-6.79c1.73 1.45 3.56 3.17 5.52 4.81.11.1.38.25.57.37M1.6-51.6c1.14.54 2.32.96 3.55 1.23M1.6-20.57c.5.27 1.02.61 1.58 1.03 0 0 2.32 3.19 7.44 5.88s6.44 3.25 6.44 3.25c2.97 1.23 5.7 3.2 7.93 8.8M16.35-4.39l2.4-5.09M2.84-16.58l-.03 3.48M2.84-16.58l.03-3.15M2.81-12.29v-.81M2.81-12.29 7-5.91M4.08-2.66 7-5.91M8.93-14.6 4-10.73M2.87-17.85l1.56-.25M2.87-16.04l3.06-.69M2.87-14.48 8-15.23M7.25-13.35l-4.44.25M2.81-13.1h0M6.43-12.6l1.92 1.33M11.12-9.35 13-12.41M8.35-11.27l2.77 1.92M8.06-13.85 12-10.91M14.37-11.66 12.68-8.6M12.68-8.6h0M14.37-7.79l1.44-3.12M14.37-7.79h0M16.06-7.04l1.25-3.25M6.37-6.91l3.31-3.32M8.35-11.27 5.5-8.35M8.35-11.27l.02-.02M7.12-12.04 4.75-9.6M13.37-8.23l-3.87.32M15.43-7.16s-7.43.62-7.62.62M7.86-4.67l-.05.01M7.86-4.67l8.89-.62M13.68-2.79h-4.5M17.56-3.54l2.81-4.75M19.62-6.91l2.5.31M18.06-4.23l3.29-.08M19.18-2.29l.69-1.94M2.26-55.94l4.07 4.61M1.6-53.41l2.29 2.59M55.93-53.41l-2.3-2.53M55.93-2.35l-.5-.56-2.81-3.07M49.87-6.29l.04.05M53.69-1.61 53-2.35l-3.09-3.89M4.08-2.66l.95 1.06M5.56-4.23l.79.96L7.66-1.6M1.6-2.33l.65.73M47.81-12.25l3.21-.27M40.18-11.6l1.51-.13M40.18-11.6l-.5 2.12M47.81-12.25l-6.12.52M43.28-6.79l6.63.55M43.25-6.79h.03M49.91-6.24l4.71.39M48.31-6.29l.25 4.06M46.37-4.1l-.12-2.38M39.93-10.35l14.69-.19M41.8-7.98l12.76.07M41.8-7.98h-.05M2.75-12.29l-1.15.55M3.75-10.79 1.6-9.67M5.87-7.6l-1.5 4.56M2.5-4.04l2.06-5.44M1.6-7.52l1.02-2.64M4-2.66 1.6-4.7M54.62-11.1l1.31-.62M54.75-9.07l1.18-.62M55.18-5.48l.75-2.05M54.62-10.54v-.56M55.93-4.67l-1.31-1.18M54.62-11.1v-1.69M54.62-10.54v4.69M4.12-39.27l-.19 4.42" style="fill:none;stroke:#000;stroke-width:.3;stroke-linecap:square"/></svg>