<svg xmlns="http://www.w3.org/2000/svg" xml:space="preserve" width="80.56" height="80.5" viewBox="1 -81.5 80.56 80.5"><path d="M1-81.5h80.56V-1H1z" style="fill:none"/><path d="M9.63-78.25h2.81M11-79.75v3M9.63-64.88h2.81M11-66.38v3M23.06-64.88h2.82M24.44-66.38v3M36.48-64.88h2.81M37.85-66.38v3M36.48-78.19h2.81M37.85-79.69v3M23.08-78.19h2.82M24.46-79.69v3M29.78-71.49h2.81M31.16-72.99v3M3-71.56h2.81M4.37-73.06v3M16.4-71.56h2.81M17.77-73.06v3M9.63-51.48h2.81M11-52.98v3M36.48-51.42h2.81M37.85-52.92v3M23.08-51.42h2.82M24.46-52.92v3M29.78-44.72h2.81M31.16-46.22v3M3-44.79h2.81M4.37-46.29v3M3-58.1h2.81M4.37-59.6v3M16.39-58.1h2.81M17.77-59.6v3M29.83-58.1h2.81M31.2-59.6v3M16.4-44.79h2.81M17.77-46.29v3M49.93-78.25h2.82M51.31-79.75v3M49.93-64.88h2.82M51.31-66.38v3M63.37-64.88h2.81M64.75-66.38v3M76.79-64.88h2.81M78.16-66.38v3M76.79-78.19h2.81M78.16-79.69v3M63.39-78.19h2.81M64.77-79.69v3M70.09-71.49h2.81M71.47-72.99v3M43.3-71.56h2.82M44.68-73.06v3M56.71-71.56h2.81M58.08-73.06v3M49.93-51.48h2.82M51.31-52.98v3M76.79-51.42h2.81M78.16-52.92v3M63.39-51.42h2.81M64.77-52.92v3M70.09-44.72h2.81M71.47-46.22v3M43.3-44.79h2.82M44.68-46.29v3M43.3-58.1h2.82M44.68-59.6v3M56.7-58.1h2.81M58.08-59.6v3M70.14-58.1h2.81M71.51-59.6v3M56.71-44.79h2.81M58.08-46.29v3M9.63-38h2.81M11-39.5v3M9.63-24.63h2.81M11-26.13v3M23.06-24.63h2.82M24.44-26.13v3M36.48-24.63h2.81M37.85-26.13v3M36.48-37.94h2.81M37.85-39.44v3M23.08-37.94h2.82M24.46-39.44v3M29.78-31.24h2.81M31.16-32.74v3M3-31.31h2.81M4.37-32.81v3M16.4-31.31h2.81M17.77-32.81v3M9.63-11.23h2.81M11-12.73v3M36.48-11.17h2.81M37.85-12.67v3M23.08-11.17h2.82M24.46-12.67v3M29.78-4.47h2.81M31.16-5.97v3M3-4.54h2.81M4.37-6.04v3M3-17.85h2.81M4.37-19.35v3M16.39-17.85h2.81M17.77-19.35v3M29.83-17.85h2.81M31.2-19.35v3M16.4-4.54h2.81M17.77-6.04v3M49.93-38h2.82M51.31-39.5v3M49.93-24.63h2.82M51.31-26.13v3M63.37-24.63h2.81M64.75-26.13v3M76.79-24.63h2.81M78.16-26.13v3M76.79-37.94h2.81M78.16-39.44v3M63.39-37.94h2.81M64.77-39.44v3M70.09-31.24h2.81M71.47-32.74v3M43.3-31.31h2.82M44.68-32.81v3M56.71-31.31h2.81M58.08-32.81v3M49.93-11.23h2.82M51.31-12.73v3M76.79-11.17h2.81M78.16-12.67v3M63.39-11.17h2.81M64.77-12.67v3M70.09-4.47h2.81M71.47-5.97v3M43.3-4.54h2.82M44.68-6.04v3M43.3-17.85h2.82M44.68-19.35v3M56.7-17.85h2.81M58.08-19.35v3M70.14-17.85h2.81M71.51-19.35v3M56.71-4.54h2.81M58.08-6.04v3" style="fill:none;stroke:#000;stroke-width:.3"/></svg>