<svg xmlns="http://www.w3.org/2000/svg" xml:space="preserve" width="80.56" height="80.5" viewBox="1 -81.99 80.56 80.5"><path d="M1-81.99h80.56v80.5H1z" style="fill:none"/><path d="M8.52-71.97h0M8.46-68.66h0M3.83-68.6h0M12.52-69.03h0M15.21-67.16h0M18.58-66.53h0M25.08-75.03h0M22.08-69.28h0M15.58-63.91h0M17.71-69.91h0M18.21-75.66h0M21.71-73.28h0M25.33-71.91h0M21.33-78.28h0M13.08-73.1h0M6.33-74.91h0M7.71-79.53h0M14.27-81.22h0M17.58-79.35h0M3.77-78.66h0M2.27-74.47h0M15.08-76.97h0M9.83-75.47h0M8.52-54.26h0M4.71-54.03h0M8.46-50.95h0M3.83-50.89h0M13.83-51.89h0M15.83-49.26h0M11.08-48.16h0M6.08-47.91h0M8.33-45.16h0M12.21-43.78h0M18.83-48.91h0M13.92-46.03h0M17.71-53.01h0M17.46-55.53h0M21.71-55.58h0M21.33-60.58h0M20.96-64.95h0M13.08-55.39h0M6.33-57.2h0M5.65-65.51h0M7.71-61.83h0M11.71-61.53h0M17.58-61.64h0M4.08-62.01h0M2.27-56.76h0M15.08-59.26h0M9.83-57.76h0M35.27-71.97h0M35.2-68.66h0M30.58-68.6h0M27.08-68.78h0M28.65-65.41h0M24.42-62.2h0M24.21-58.78h0M25.58-55.41h0M27.33-60.41h0M39.27-69.03h0M41.95-67.16h0M45.75-66.7h0M42.33-63.91h0M44.45-69.91h0M44.08-75.7h0M48.42-71.7h0M47.75-75.03h0M48.08-78.28h0M39.83-73.1h0M33.08-74.91h0M34.45-79.53h0M41.02-81.22h0M44.33-79.35h0M51.58-2.7h0M30.52-78.66h0M27.21-77.66h0M26.33-81.28h0M29.02-74.47h0M40.42-78.03h0M36.58-75.47h0M35.27-54.26h0M31.33-54.89h0M27.71-53.76h0M20.83-51.14h0M35.2-50.95h0M27.21-49.91h0M26.42-46.53h0M21.42-45.7h0M23.08-43.03h0M57.08-48.37h0M53.58-46.03h0M61.92-46.2h0M79.46-44.51h0M22.96-48.78h0M31.21-51.51h0M41.83-52.76h0M41.95-49.45h0M37.83-48.16h0M32.33-48.01h0M35.08-45.16h0M38.95-43.78h0M45.83-47.39h0M40.92-46.03h0M45.08-51.26h0M44.2-55.53h0M47.21-52.89h0M50.21-55.41h0M52.96-57.91h0M53.46-54.41h0M56.21-56.01h0M56.83-52.26h0M59.71-51.51h0M54.08-50.78h0M50.71-48.16h0M55.33-60.78h0M47.83-61.53h0M47.7-64.95h0M39.83-55.39h0M33.92-57.03h0M48.08-45.41h0M32.96-65.39h0M34.45-61.83h0M38.45-61.53h0M44.33-61.64h0M30.25-61.87h0M27.92-56.87h0M41.83-59.26h0M37.42-58.03h0M80.99-70.6h0M80.99-52.89h0M80.71-64.03h0M73.15-72.53h0M73.21-69.22h0M76.71-71.89h0M77.83-69.16h0M69.15-69.6h0M66.46-67.72h0M61.08-69.03h0M65.08-73.66h0M63.96-70.47h0M63.46-76.22h0M59.75-75.03h0M60.33-78.85h0M56.58-80.66h0M53.96-78.66h0M57.08-77.78h0M54.92-75.53h0M51.83-74.16h0M53.42-71.03h0M66.83-63.28h0M49.42-68.53h0M53.92-67.53h0M60.42-72.7h0M57.96-68.03h0M56.96-64.66h0M53.21-63.53h0M51.33-60.66h0M48.08-57.41h0M68.58-73.66h0M79.21-80.51h0M73.96-80.1h0M67.33-81.28h0M69.71-79.03h0M78.71-75.01h0M76.83-78.14h0M66.58-77.53h0M23.08-3.53h0M10.58-2.2h0M2.25-2.53h0M18.42-2.87h0M30.92-25.03h0M44.58-3.37h0M30.25-2.7h0M44.42-11.37h0M58.25-2.87h0M47.58-2.2h0M71.25-2.37h0M63.25-2.53h0M71.83-76.03h0M73.15-54.83h0M76.96-54.6h0M73.58-49.89h0M79.08-48.78h0M67.46-52.72h0M66.46-50.01h0M70.58-48.72h0M76.71-47.51h0M74.58-45.51h0M68.21-43.28h0M61.71-49.47h0M66.08-46.76h0M69.08-65.78h0M64.21-56.1h0M62.75-59.2h0M59.96-56.14h0M60.33-61.14h0M60.71-65.51h0M68.58-55.95h0M75.33-57.76h0M70.58-52.66h0M73.96-62.39h0M69.96-62.1h0M64.08-62.2h0M77.9-61.51h0M79.4-57.33h0M66.58-59.83h0M72.46-65.91h0M8.52-11.51h0M8.46-14.82h0M3.83-14.89h0M12.52-14.45h0M15.21-16.32h0M19.08-25.28h0M24.42-17.53h0M23.96-8.68h0M26.21-6.51h0M22.08-14.2h0M14.25-19.37h0M18.58-15.2h0M18.08-10.2h0M21.71-10.2h0M30.08-38.87h0M21.25-6.37h0M10.92-9.7h0M6.33-8.57h0M7.25-3.2h0M15.58-12.2h0M4.42-11.87h0M2.27-9.01h0M14.75-8.03h0M13.58-4.87h0M8.52-29.22h0M4.71-29.45h0M8.46-32.53h0M19.25-41.87h0M14.21-31.32h0M15.21-34.03h0M11.08-35.32h0M6.08-35.57h0M8.33-38.32h0M14.25-40.7h0M18.83-34.57h0M13.92-37.45h0M17.42-38.03h0M17.46-27.95h0M21.71-27.91h0M21.33-22.91h0M20.96-18.53h0M13.08-28.09h0M6.33-26.28h0M2.58-37.53h0M7.71-21.66h0M11.71-21.95h0M17.58-21.84h0M3.77-22.53h0M2.27-26.72h0M15.08-24.22h0M10.25-18.03h0M34.42-13.37h0M34.08-17.03h0M30.58-14.89h0M27.08-14.7h0M28.08-18.07h0M24.42-21.28h0M24.25-31.7h0M27.33-23.07h0M39.27-14.45h0M41.95-16.32h0M46.58-16.32h0M42.33-19.57h0M42.75-14.03h0M44.95-7.82h0M47.75-13.03h0M47.75-8.45h0M49.75-5.7h0M39.83-10.39h0M33.08-8.57h0M34.45-3.95h0M39.08-3.53h0M30.75-12.03h0M26.88-3.68h0M29.02-9.01h0M40.08-6.7h0M36.08-7.03h0M35.27-29.22h0M31.45-29.45h0M28.08-30.2h0M20.96-31.32h0M35.2-32.53h0M27.21-33.57h0M26.42-36.95h0M21.42-37.78h0M26.75-42.2h0M57.08-35.12h0M53.02-37.45h0M61.92-37.28h0M76.25-42.53h0M72.42-41.37h0M56.42-42.87h0M51.42-42.87h0M34.58-41.87h0M30.75-42.37h0M8.58-42.03h0M5.42-40.03h0M2.21-47.01h0M80.42-40.28h0M22.96-34.7h0M30.58-32.59h0M40.95-31.32h0M41.95-34.03h0M37.83-35.32h0M32.83-35.57h0M35.08-38.32h0M40.75-40.7h0M46.7-34.57h0M40.92-37.45h0M44.42-38.37h0M44.2-27.95h0M49.08-31.7h0M48.42-29.03h0M52.96-25.57h0M53.46-29.07h0M56.83-28.2h0M56.05-39.42h0M59.58-39.73h0M60.42-30.61h0M54.08-32.7h0M50.42-34.76h0M55.33-22.7h0M47.83-21.95h0M49.42-18.7h0M39.83-28.09h0M33.92-26.45h0M48.08-38.07h0M37.75-18.03h0M34.45-21.66h0M38.45-21.95h0M44.33-21.84h0M30.25-21.61h0M27.92-26.61h0M41.83-24.22h0M37.75-30.87h0M80.99-12.89h0M80.99-30.59h0M80.71-19.45h0M73.15-10.95h0M73.21-14.26h0M78.33-15.28h0M69.15-13.89h0M66.46-15.76h0M61.08-14.45h0M65.08-9.82h0M9.92-5.7h0M64.25-7.03h0M59.96-9.64h0M60.92-5.53h0M53.96-4.82h0M58.08-11.7h0M54.92-7.95h0M51.83-9.32h0M45.75-42.2h0M66.83-20.2h0M53.75-14.37h0M50.42-16.03h0M54.58-11.45h0M57.96-15.45h0M62.92-42.7h0M53.42-18.7h0M51.33-22.82h0M46.08-25.37h0M68.58-9.82h0M75.33-8.01h0M79.92-5.7h0M74.25-4.7h0M76.92-17.7h0M69.42-38.03h0M79.4-8.45h0M66.92-4.53h0M71.08-8.37h0M73.15-28.66h0M76.96-28.89h0M73.21-31.97h0M79.08-34.7h0M67.46-30.76h0M65.42-33.7h0M70.58-34.76h0M75.58-35.01h0M73.33-37.76h0M68.21-40.2h0M61.71-34.01h0M66.08-36.72h0M64.42-18.03h0M64.08-29.7h0M58.25-25.03h0M61.21-27.01h0M60.33-22.34h0M60.71-17.97h0M68.58-27.53h0M76.75-32.37h0M72.33-25.01h0M73.96-21.09h0M72.71-17.64h0M70.96-21.89h0M64.08-21.28h0M77.9-21.97h0M79.4-26.16h0M67.96-23.14h0M11.42-32.2h0" style="fill:none;stroke:#000;stroke-width:.6;stroke-linecap:round"/><path d="m38.74-66.03.28 2-1.91-.64M24.63-66.97l1.02 1.75-2.02.13M57.76-59.34l1.01 1.74-2.01.13M17.74-6.78l1.01 1.75-2.01.13M70.07-46.78l1.01 1.75-2.01.13M45.57-20.28l1.01 1.75-2.01.13M25.34-78.31l-1.94-.54 1.34-1.5M30.52-73.03l1.75 1-1.68 1.12M55.93-72.7l1.75 1L56-70.57M18.1-45.47l.23 2-1.9-.68M71.1-60.04l.23 2.01-1.9-.68M43.6-6.29l.23 2.01-1.9-.68M63.85-41.04l.23 2.01-1.9-.68M64.6-53.54l.23 2.01-1.9-.68M51.1-52.04l.23 2.01-1.9-.68M6.18-42.65l-1.85-.82 1.56-1.28M18-73.62l-1.17 1.65-.95-1.78M32.43-58.3l-1.97-.42 1.25-1.58M37.22-51.1l1.11-1.68 1.02 1.74M30.96-36.61l.06 2.01-1.83-.84M51.53-80.8l.05 2.02-1.83-.85M70.28-6.55l.05 2.02-1.83-.85M17.49-57.82l1.66-1.15.29 2M10.14-52.88l1.69 1.1-1.73 1.02M30.58-19.82l1.69 1.1-1.74 1.03M25.55-52.21l-1.59 1.24-.4-1.98M77.83-66.03l-1.59 1.24-.4-1.98M52.05-40.75l-1.59 1.24-.4-1.98M44.22-72.77l-1.59 1.24-.4-1.98M3.62-34.17l-.1 2.01-1.76-.99M50.43-27.3l-.1 2.02-1.76-.99M11.29-24.67l-1.96-.49 1.32-1.53M59.29-6.04l-1.96-.49 1.32-1.54M18.43-17.61l-1.72-1.05 1.71-1.08M77.08-11.28l-1.72-1.05 1.7-1.08M58.31-30.99l-1.73-1.04 1.71-1.08M23.51-26.82l1.99-.36-.57 1.94M75.67-52.11l1.98-.36-.57 1.94M5.27-19.91l1 1.75-2.01.11M78.83-24.05l-2 .29.64-1.92M37.31-38.19l1.53-1.33.5 1.96M67.8-17.41l1.53-1.33.5 1.96M56.12-44.71l1.53-1.32.5 1.95M43.58-57.78l1.53-1.33.5 1.96M36.29-77.94l1.52-1.32.51 1.95M23.01-38.87l.54-1.94 1.5 1.34M62.3-64.04l.53-1.94 1.5 1.34M35.8-9.31l.53-1.94 1.5 1.34M42.76-44.32l1.39-1.46.69 1.89M10.47-40.81l1.93.59-1.39 1.46M62.4-80.37l1.93.59-1.39 1.46M76.59-75.5l-1.88.74.17-2.01M49.4-12.87l1.93.59-1.39 1.46M24.34-13.06l1.93.59-1.39 1.46M76.78-4.27l1.93.59-1.39 1.46M4.31-73.15l.77 1.87-2.01-.14M9.57-65.51l2.01-.02-.87 1.81M2.57-59.51l2.01-.02-.87 1.81M18.08-32.37l.69 1.9-2-.23M69.4-33.43l.68 1.9-2-.23M64.65-26.66l.68 1.9-2-.23M37.66-24.09l-2.01-.13 1.01-1.75M31.58-4.53l-2.01-.13 1.01-1.75M58.35-18.65l-2.02-.13 1.02-1.75M5.75-5.03l-2.01-.13 1.01-1.75M31.97-44.88l-2.01.16.75-1.87M68.83-71.28l-2.01.16.76-1.88M51.35-63.69l-2.02.16.76-1.87M13.78-11.07l-2.01.16.76-1.87M78.08-38.03l-2.01.16.76-1.88M64.83-11.78l-2.01.16.76-1.88M44.12-32.51l1.96.48-1.29 1.54M10.83-77.78l.81-1.85 1.3 1.54" style="fill:none;stroke:#000;stroke-width:.3"/></svg>