<svg xmlns="http://www.w3.org/2000/svg" xml:space="preserve" width="80.56" height="80.5" viewBox="1 -81.5 80.56 80.5"><path d="M1-81.5h80.56V-1H1z" style="fill:none"/><path d="m38.74-65.54.28 2-1.91-.64M24.63-66.47l1.02 1.74-2.02.13M58.61-58.85l1.01 1.75-2.01.13M16.59-6.83l1.01 1.75-2.01.13M70.07-46.29l1.01 1.75-2.01.13M44.24-19.39l1.01 1.75-2.01.13M22.32-77.93l-.63-1.92 2 .29M30.52-72.54l1.75 1-1.68 1.12M55.93-72.21l1.75 1.01L56-70.08M18.1-44.98l.23 2-1.9-.68M71.94-58.98l.24 2.01-1.9-.68M43.6-7.5l.23 2.01-1.9-.68M63.76-41.89l.24 2-1.9-.68M64.6-53.05l.23 2.01-1.9-.68M49.76-52.64l.24 2-1.9-.68M4.76-42.15l-1.84-.83 1.56-1.28M16.58-72.28l-1.16 1.65-.96-1.78M32.43-57.81l-1.97-.42 1.25-1.58M37.22-50.6l1.11-1.69 1.02 1.74M30.7-34.41l.05 2.02-1.83-.85M51.53-80.31l.05 2.02-1.83-.85M70.28-6.06l.05 2.02-1.83-.85M17.49-57.33l1.66-1.15.29 2M10.14-52.39l1.69 1.1-1.73 1.03M31.31-19.99l1.69 1.1-1.74 1.03M25.55-51.72l-1.59 1.24-.4-1.98M77.83-65.54l-1.59 1.24-.4-1.98M52.05-38.84l-1.59 1.24-.4-1.98M45.5-71.39l-1.59 1.24-.4-1.98M3.62-33.68l-.1 2.01-1.76-.98M50.35-27.16l-.1 2.02-1.76-.99M11.72-24.98l-1.96-.49L11.08-27M58.75-4.39l-1.96-.49 1.32-1.53M18.43-18.25l-1.72-1.05 1.71-1.08M76.98-12.59l-1.73-1.05 1.71-1.08M58.31-30.49l-1.73-1.05 1.71-1.08M22.83-24.97l1.99-.36-.57 1.94M80.26-48.53l-1.18-1.64 2-.32M5.27-19.42l1 1.75-2.01.11M79.54-25.1l-2 .29.64-1.92M37.22-38.02l1.53-1.32.5 1.95M68.69-18.27l1.53-1.33.5 1.96M56.12-45.64l1.53-1.32.5 1.96M43.58-57.29l1.53-1.32.5 1.95M36.29-77.45l1.52-1.32.51 1.95M22.21-37.29l.54-1.95 1.5 1.35M62.3-63.55l.53-1.94 1.5 1.34M35.21-10.79l.54-1.95 1.5 1.35M42.76-43.83l1.39-1.46.69 1.9M9.9-38.9l1.93.59-1.39 1.46M62.4-79.88l1.93.59-1.39 1.46M77.72-75.01l-1.88.74.18-2.01M49.4-12.38l1.93.59-1.39 1.46M24.34-12.57l1.93.59-1.39 1.46M78.76-3.78l1.93.59-1.39 1.47M4.31-72.65l.77 1.86-2.01-.14M9.57-65.02l2.01-.02-.87 1.82M2.57-59.02l2.01-.02-.87 1.82M18.08-31.88l.69 1.9-2-.23M69.4-32.94l.68 1.9-2-.23M64.65-26.17l.68 1.9-2-.23M37.5-26.14l-2.01-.13 1.01-1.74M30.94-3.79l-2.02-.13 1.02-1.75M58.35-18.16l-2.02-.13 1.02-1.75M6.72-8.01 4.7-8.14l1.02-1.74M31.97-44.39l-2.01.16.75-1.87M69.97-70.79l-2.01.16.75-1.87M51-62.14l-2.01.16.76-1.87M14.35-12.28l-2.01.16.75-1.87M78.08-37.54l-2.01.16.76-1.88M66.25-11.01l-2.01.16.75-1.87M43.79-32.11l1.96.47-1.3 1.55M10.82-79.08l.8-1.86 1.3 1.55" style="fill:none;stroke:#000;stroke-width:.3"/></svg>