<svg xmlns="http://www.w3.org/2000/svg" xml:space="preserve" width="80.56" height="80.5" viewBox="1.12 -81.99 80.56 80.5"><path d="M1.12-81.99h80.56v80.5H1.12z" style="fill:none"/><path d="m10.06-79.67 2.03 2.02M12.09-79.67l-2.03 2.02M16.81-72.98l2.03 2.02M18.84-72.98l-2.03 2.02M3.5-72.98l2.03 2.02M5.53-72.98 3.5-70.96M23.38-79.67l2.02 2.02M25.4-79.67l-2.02 2.02M30.13-72.98l2.02 2.02M32.15-72.98l-2.02 2.02M36.69-79.67l2.02 2.02M38.71-79.67l-2.02 2.02M43.44-72.98l2.02 2.02M45.46-72.98l-2.02 2.02M50-79.67l2.02 2.02M52.02-79.67 50-77.65M56.77-72.98l2.02 2.02M58.79-72.98l-2.02 2.02M63.33-79.67l2.02 2.02M65.35-79.67l-2.02 2.02M70.08-72.98l2.02 2.02M72.1-72.98l-2.02 2.02M76.64-79.67l2.03 2.02M78.67-79.67l-2.03 2.02M10.06-53.05l2.03 2.03M12.09-53.05l-2.03 2.03M16.81-46.36l2.03 2.03M18.84-46.36l-2.03 2.03M3.5-46.36l2.03 2.03M5.53-46.36 3.5-44.33M10.06-66.36l2.03 2.03M12.09-66.36l-2.03 2.03M16.81-59.67l2.03 2.02M18.84-59.67l-2.03 2.02M3.5-59.67l2.03 2.02M5.53-59.67 3.5-57.65M23.38-53.05l2.02 2.03M25.4-53.05l-2.02 2.03M30.13-46.36l2.02 2.03M32.15-46.36l-2.02 2.03M23.38-66.36l2.02 2.03M25.4-66.36l-2.02 2.03M30.13-59.67l2.02 2.02M32.15-59.67l-2.02 2.02M36.69-53.05l2.02 2.03M38.71-53.05l-2.02 2.03M43.44-46.36l2.02 2.03M45.46-46.36l-2.02 2.03M36.69-66.36l2.02 2.03M38.71-66.36l-2.02 2.03M43.44-59.67l2.02 2.02M45.46-59.67l-2.02 2.02M50-53.05l2.02 2.03M52.02-53.05 50-51.02M50-66.36l2.02 2.03M52.02-66.36 50-64.33M56.77-46.36l2.02 2.03M58.79-46.36l-2.02 2.03M56.77-59.67l2.02 2.02M58.79-59.67l-2.02 2.02M63.33-53.05l2.02 2.03M65.35-53.05l-2.02 2.03M70.08-46.36l2.02 2.03M72.1-46.36l-2.02 2.03M63.33-66.36l2.02 2.03M65.35-66.36l-2.02 2.03M70.08-59.67l2.02 2.02M72.1-59.67l-2.02 2.02M76.64-53.05l2.03 2.03M78.67-53.05l-2.03 2.03M76.64-66.36l2.03 2.03M78.67-66.36l-2.03 2.03M10.06-26.48l2.03 2.02M12.09-26.48l-2.03 2.02M16.81-19.8l2.03 2.03M18.84-19.8l-2.03 2.03M3.5-19.8l2.03 2.03M5.53-19.8 3.5-17.77M10.06-39.8l2.03 2.03M12.09-39.8l-2.03 2.03M16.81-33.11l2.03 2.03M18.84-33.11l-2.03 2.03M3.5-33.11l2.03 2.03M5.53-33.11 3.5-31.08M23.38-26.48l2.02 2.02M25.4-26.48l-2.02 2.02M30.13-19.8l2.02 2.03M32.15-19.8l-2.02 2.03M23.38-39.8l2.02 2.03M25.4-39.8l-2.02 2.03M30.13-33.11l2.02 2.03M32.15-33.11l-2.02 2.03M36.69-26.48l2.02 2.02M38.71-26.48l-2.02 2.02M43.44-19.8l2.02 2.03M45.46-19.8l-2.02 2.03M36.69-39.8l2.02 2.03M38.71-39.8l-2.02 2.03M43.44-33.11l2.02 2.03M45.46-33.11l-2.02 2.03M50-26.48l2.02 2.02M52.02-26.48 50-24.46M50-39.8l2.02 2.03M52.02-39.8 50-37.77M56.77-19.8l2.02 2.03M58.79-19.8l-2.02 2.03M56.77-33.11l2.02 2.03M58.79-33.11l-2.02 2.03M63.33-26.48l2.02 2.02M65.35-26.48l-2.02 2.02M70.08-19.8l2.02 2.03M72.1-19.8l-2.02 2.03M63.33-39.8l2.02 2.03M65.35-39.8l-2.02 2.03M70.08-33.11l2.02 2.03M72.1-33.11l-2.02 2.03M76.64-26.48l2.03 2.02M78.67-26.48l-2.03 2.02M76.64-39.8l2.03 2.03M78.67-39.8l-2.03 2.03M10.06-13.18l2.03 2.02M12.09-13.18l-2.03 2.02M16.81-6.5l2.03 2.03M18.84-6.5l-2.03 2.03M3.5-6.5l2.03 2.03M5.53-6.5 3.5-4.47M23.38-13.18l2.02 2.02M25.4-13.18l-2.02 2.02M30.13-6.5l2.02 2.03M32.15-6.5l-2.02 2.03M36.69-13.18l2.02 2.02M38.71-13.18l-2.02 2.02M43.44-6.5l2.02 2.03M45.46-6.5l-2.02 2.03M50-13.18l2.02 2.02M52.02-13.18 50-11.16M56.77-6.5l2.02 2.03M58.79-6.5l-2.02 2.03M63.33-13.18l2.02 2.02M65.35-13.18l-2.02 2.02M70.08-6.5l2.02 2.03M72.1-6.5l-2.02 2.03M76.64-13.18l2.03 2.02M78.67-13.18l-2.03 2.02" style="fill:none;stroke:#000;stroke-width:.3"/><path d="M8.64-71.97h0M8.57-68.66h0M3.95-68.6h0M12.64-69.03h0M15.32-67.16h0M18.7-66.53h0M25.2-75.03h0M22.2-69.28h0M15.7-63.91h0M17.82-69.91h0M18.32-75.66h0M21.82-73.28h0M25.45-71.91h0M21.45-78.28h0M13.2-73.1h0M6.45-74.91h0M7.83-79.53h0M14.39-81.22h0M17.7-79.35h0M3.89-78.66h0M2.39-74.47h0M15.2-76.97h0M9.95-75.47h0M8.64-54.26h0M4.83-54.03h0M8.57-50.95h0M3.95-50.89h0M14.32-52.16h0M15.32-49.45h0M11.2-48.16h0M6.2-47.91h0M8.45-45.16h0M12.32-43.78h0M18.95-48.91h0M14.03-46.03h0M17.82-52.2h0M17.57-55.53h0M21.82-55.58h0M21.45-60.58h0M21.07-64.95h0M13.2-55.39h0M6.45-57.2h0M5.2-64.83h0M7.83-61.83h0M11.82-61.53h0M17.7-61.64h0M3.89-60.95h0M2.39-56.76h0M15.2-59.26h0M9.95-57.76h0M35.38-71.97h0M35.32-68.66h0M30.7-68.6h0M27.2-68.78h0M28.2-65.41h0M24.53-62.2h0M24.32-58.78h0M25.7-55.41h0M27.45-60.41h0M39.38-69.03h0M42.07-67.16h0M46.7-67.16h0M42.45-63.91h0M44.57-69.91h0M45.07-75.66h0M47.58-71.91h0M47.87-75.03h0M48.2-78.28h0M39.95-73.1h0M33.2-74.91h0M34.57-79.53h0M41.13-81.22h0M44.45-79.35h0M51.7-2.7h0M30.63-78.66h0M27.32-77.66h0M26.45-81.28h0M29.13-74.47h0M41.95-76.97h0M36.7-75.47h0M35.38-54.26h0M31.57-54.03h0M28.2-53.28h0M21.07-52.16h0M35.32-50.95h0M27.32-49.91h0M26.53-46.53h0M21.53-45.7h0M24.03-44.2h0M57.2-48.37h0M53.7-46.03h0M62.03-46.2h0M77.37-45.87h0M80.53-43.2h0M23.07-48.78h0M30.7-50.89h0M41.07-52.16h0M42.07-49.45h0M37.95-48.16h0M32.95-47.91h0M35.2-45.16h0M39.07-43.78h0M46.82-48.91h0M41.03-46.03h0M44.57-52.2h0M44.32-55.53h0M47.95-52.53h0M50.33-55.41h0M53.08-57.91h0M53.58-54.41h0M56.95-55.28h0M56.87-51.87h0M60.53-52.87h0M54.2-50.78h0M50.83-48.16h0M55.45-60.78h0M47.95-61.53h0M47.82-64.95h0M39.95-55.39h0M34.03-57.03h0M48.2-45.41h0M31.95-64.83h0M34.57-61.83h0M38.57-61.53h0M44.45-61.64h0M30.37-61.87h0M28.03-56.87h0M41.95-59.26h0M37.53-58.03h0M81.11-70.6h0M81.11-52.89h0M80.83-64.03h0M73.26-72.53h0M73.33-69.22h0M77.95-69.16h0M69.26-69.6h0M66.58-67.72h0M61.2-69.03h0M65.2-73.66h0M64.08-70.47h0M63.58-76.22h0M60.08-73.85h0M60.45-78.85h0M56.7-80.66h0M54.08-78.66h0M57.2-77.78h0M55.03-75.53h0M51.95-74.16h0M51.08-70.91h0M66.95-63.28h0M49.53-68.53h0M54.03-67.53h0M54.7-72.03h0M58.08-68.03h0M57.08-64.66h0M53.33-63.53h0M51.45-60.66h0M48.2-57.41h0M68.7-73.66h0M75.45-75.47h0M74.08-80.1h0M67.45-81.28h0M69.83-79.03h0M77.45-72.53h0M79.51-75.03h0M66.7-77.53h0M23.2-3.53h0M10.7-2.2h0M2.37-2.53h0M18.53-2.87h0M31.03-25.03h0M44.7-3.37h0M30.37-2.7h0M43.53-10.53h0M58.37-2.87h0M47.7-2.2h0M77.53-2.53h0M71.37-2.37h0M63.37-2.53h0M71.95-76.03h0M73.26-54.83h0M77.08-54.6h0M73.33-51.51h0M79.2-48.78h0M67.58-52.72h0M66.58-50.01h0M70.7-48.72h0M75.7-48.47h0M73.45-45.72h0M68.33-43.28h0M61.83-49.47h0M66.2-46.76h0M69.2-65.78h0M64.33-56.1h0M62.87-59.2h0M60.08-56.14h0M60.45-61.14h0M60.83-65.51h0M68.7-55.95h0M75.45-57.76h0M70.7-52.66h0M74.08-62.39h0M70.08-62.1h0M64.2-62.2h0M78.01-61.51h0M79.51-57.33h0M66.7-59.83h0M72.58-65.91h0M8.64-11.51h0M8.57-14.82h0M3.95-14.89h0M12.64-14.45h0M15.32-16.32h0M19.2-25.28h0M24.53-17.53h0M25.2-8.45h0M22.2-14.2h0M14.37-19.37h0M18.7-15.2h0M18.2-10.2h0M21.82-10.2h0M30.2-38.87h0M21.37-6.37h0M11.03-9.7h0M6.45-8.57h0M7.37-3.2h0M15.7-12.2h0M4.53-11.87h0M2.39-9.01h0M14.87-8.03h0M13.7-4.87h0M8.64-29.22h0M4.83-29.45h0M8.57-32.53h0M19.37-41.87h0M14.32-31.32h0M15.32-34.03h0M11.2-35.32h0M6.2-35.57h0M8.45-38.32h0M14.37-40.7h0M18.95-34.57h0M14.03-37.45h0M17.53-38.03h0M17.57-27.95h0M21.82-27.91h0M21.45-22.91h0M21.07-18.53h0M13.2-28.09h0M6.45-26.28h0M2.7-37.53h0M7.83-21.66h0M11.82-21.95h0M17.7-21.84h0M3.89-22.53h0M2.39-26.72h0M15.2-24.22h0M10.37-18.03h0M35.38-11.51h0M35.32-14.82h0M30.7-14.89h0M27.2-14.7h0M28.2-18.07h0M24.53-21.28h0M24.37-31.7h0M25.7-28.07h0M27.45-23.07h0M39.38-14.45h0M42.07-16.32h0M46.7-16.32h0M42.45-19.57h0M44.57-13.57h0M45.07-7.82h0M47.58-11.57h0M47.87-8.45h0M49.03-6.03h0M39.95-10.39h0M33.2-8.57h0M34.57-3.95h0M39.2-3.53h0M30.87-12.03h0M27.32-5.82h0M29.13-9.01h0M41.95-6.51h0M37.7-7.03h0M35.38-29.22h0M31.57-29.45h0M28.2-30.2h0M21.07-31.32h0M35.32-32.53h0M27.32-33.57h0M26.53-36.95h0M21.53-37.78h0M26.87-42.2h0M57.2-35.12h0M53.7-37.45h0M62.03-37.28h0M76.37-42.53h0M72.53-41.37h0M56.53-42.87h0M51.53-42.87h0M34.7-41.87h0M30.87-42.37h0M8.7-42.03h0M5.53-40.03h0M2.2-43.03h0M80.53-40.28h0M23.07-34.7h0M30.7-32.59h0M41.07-31.32h0M42.07-34.03h0M37.95-35.32h0M32.95-35.57h0M35.2-38.32h0M40.87-40.7h0M46.82-34.57h0M41.03-37.45h0M44.53-38.37h0M44.32-27.95h0M47.95-30.95h0M50.33-28.07h0M53.08-25.57h0M53.58-29.07h0M56.95-28.2h0M57.87-39.7h0M60.53-30.61h0M54.2-32.7h0M50.83-35.32h0M55.45-22.7h0M47.95-21.95h0M47.82-18.53h0M39.95-28.09h0M34.03-26.45h0M48.2-38.07h0M36.87-18.2h0M34.57-21.66h0M38.57-21.95h0M44.45-21.84h0M30.37-21.61h0M28.03-26.61h0M41.95-24.22h0M37.87-30.87h0M81.11-12.89h0M81.11-30.59h0M80.83-19.45h0M73.26-10.95h0M73.33-14.26h0M77.95-14.32h0M69.26-13.89h0M66.58-15.76h0M61.2-14.45h0M65.2-9.82h0M10.03-5.7h0M64.37-7.03h0M60.08-9.64h0M61.03-5.53h0M54.08-4.82h0M58.2-11.7h0M55.03-7.95h0M51.95-9.32h0M45.87-42.2h0M66.95-20.2h0M49.53-14.95h0M54.03-15.95h0M54.7-11.45h0M58.08-15.45h0M63.03-42.7h0M53.33-19.95h0M51.45-22.82h0M46.2-25.37h0M68.7-9.82h0M75.45-8.01h0M80.03-5.7h0M74.37-4.7h0M77.03-17.7h0M69.53-38.03h0M79.51-8.45h0M67.03-4.53h0M71.2-8.37h0M73.26-28.66h0M77.08-28.89h0M73.33-31.97h0M79.2-34.7h0M67.58-30.76h0M66.58-33.47h0M70.7-34.76h0M75.7-35.01h0M73.45-37.76h0M68.33-40.2h0M61.83-34.01h0M66.2-36.72h0M69.2-17.7h0M64.33-27.39h0M58.37-25.03h0M60.08-27.34h0M60.45-22.34h0M60.83-17.97h0M68.7-27.53h0M75.45-25.72h0M71.37-25.03h0M74.08-21.09h0M70.08-21.39h0M64.2-21.28h0M78.01-21.97h0M79.51-26.16h0M66.7-23.66h0M11.53-32.2h0" style="fill:none;stroke:#000;stroke-width:.6;stroke-linecap:round"/></svg>