<svg xmlns="http://www.w3.org/2000/svg" xml:space="preserve" width="86.25" height="86.25" viewBox="1.05 -87.25 86.25 86.25"><path d="M1.05-87.25H87.3V-1H1.05z" style="fill:none"/><path d="m13.3-80.25 3.94-4.31M14.68-83.19l1.44 1.25M6.32-82.09l-4-4.26M3.49-83.69l1.36-1.34M1.6-74.65l5.41-2.2M4.11-76.71l.76 1.75M20.68-54.83l5.41-2.2M23.19-56.89l.76 1.75M10.16-73.75l5.73-1.14M13.01-75.3l.42 1.86M18.84-71l3.71-4.5M20.06-74l1.5 1.18M11-53.81l3.71-4.5M12.22-56.81l1.5 1.18M32.42-73.21l-3.86-4.39M29.65-74.9l1.4-1.29M7.57-50.03 2.46-47.2M5.33-47.69l-.97-1.64M31.88-61.63l2.05-5.46M32.06-64.86l1.8.62M21.09-45.94l2.05-5.47M21.27-49.18l1.8.63M42.87-66.03l-5.82.46M39.86-64.83l-.2-1.89M16.24-48.09l-5.82.46M13.23-46.89l-.19-1.89M7.47-67.58l-4.32 3.93M5.83-64.78l-1.32-1.38M14.73-61.91l-2.5-5.28M12.53-64.3l1.7-.85M41.14-54.28l-2.49-5.28M38.95-56.67l1.7-.86M32.92-80.91l-1.71-5.58M31.09-83.59l1.81-.6M38.38-83.11l5.33-2.39M40.81-85.26l.82 1.72M38.6-70.88l2.53-5.26M39.07-74.09l1.74.79M24.3-79.3l-2.97-5.02M21.89-81.47l1.62-1.01M35.03-54.41l-4.8-3.33M31.94-55.38l1.04-1.59M40.55-46.5l-4.79-3.33M37.46-47.47l1.05-1.59M24.55-62.37l-5.84.07M21.47-61.37l-.07-1.9M32.3-47.5l-5.84.06M29.22-46.5l-.07-1.9M7.72-55.92l-5.84.07M4.64-54.92l-.07-1.9M55.97-79.04l3.94-4.31M57.35-81.98l1.43 1.25M49.57-82.09l-4-4.26M46.74-83.69l1.36-1.34M44.79-75.71l5.41-2.2M47.29-77.77l.76 1.74M63.37-58.09l5.41-2.2M65.88-60.15l.76 1.75M56.05-71.56l3.5-4.67M57.13-74.62l1.55 1.11M64.29-71.68l3.72-4.51M65.52-74.69l1.49 1.18M53.68-53.81l3.72-4.5M54.91-56.81l1.5 1.18M75.67-73.21l-3.86-4.39M72.9-74.9l1.4-1.29M48.35-44.67l-.43-5.82M47.16-47.69l1.89-.19M28.27-65.68l-3.86-4.39M25.5-67.37l1.4-1.29M74.28-61.63l2.05-5.46M74.46-64.86l1.8.62M66.9-44.63l2.05-5.46M67.09-47.87l1.8.63M86.12-66.03l-5.82.46M83.11-64.83l-.2-1.89M57.17-50.1l-.95 5.76M57.62-46.89l-1.89-.26M50.72-67.58l-4.32 3.93M49.08-64.78l-1.32-1.38M57.98-61.91l-2.5-5.28M55.78-64.3l1.7-.85M84.39-54.28l-2.49-5.28M82.2-56.67l1.7-.86M76.17-80.91l-1.71-5.58M74.34-83.59l1.81-.6M81.63-83.11l5.33-2.39M84.06-85.26l.82 1.72M81.85-70.88l2.53-5.26M82.32-74.09l1.74.79M67.55-79.3l-2.97-5.02M65.14-81.47l1.62-1.01M75.91-53.22l-4.8-3.33M72.81-54.19l1.05-1.59M86.22-45.85l-4.8-3.32M83.13-46.82l1.04-1.59M68.57-66.04l-5.84.07M65.48-65.04l-.06-1.9M78.05-49.5l-5.83.06M74.97-48.5l-.07-1.9M50.97-55.92l-5.84.07M47.89-54.92l-.07-1.9M13.28-38.67l3.94-4.31M14.66-41.6l1.44 1.25M6.32-38.84l-4-4.26M3.49-40.44l1.36-1.34M1.6-31.4l5.41-2.2M4.11-33.46l.76 1.75M20.68-12.71l5.41-2.2M23.19-14.77l.76 1.74M8.83-30.36l5.72-1.14M11.68-31.91l.41 1.86M17.59-27l3.71-4.5M18.81-30l1.5 1.18M11-10.56l3.71-4.5M12.22-13.56l1.5 1.18M30.55-28.25l-3.85-4.38M27.78-29.94l1.4-1.29M6.68-2.75 2.82-7.13M3.91-4.44l1.4-1.29M30.05-18.75l2.05-5.47M30.24-21.99l1.8.63M21.09-2.69l2.05-5.47M21.27-5.93l1.8.63M39.81-19.21l-2.55-5.25M37.59-21.58l1.69-.87M16.24-4.84l-5.82.46M13.23-3.64l-.19-1.89M7.47-24.33 3.15-20.4M5.83-21.53l-1.32-1.38M14.73-18.66l-2.5-5.28M12.53-21.05l1.7-.85M39.03-10.18l1.6-5.61M38.95-13.42l1.84.48M40.05-37.75l-1.71-5.58M38.23-40.43l1.8-.6M28.98-37.11l5.32-2.39M31.41-39.26l.82 1.72M34.56-30.64l5.7-1.27M37.37-32.26l.46 1.85M33.8-9.5 29-12.82M30.71-10.47l1.05-1.59M64.8-51.5l-4.79-3.33M61.71-52.47l1.05-1.59M42.97-2.6l-4.8-3.32M39.88-3.57l1.04-1.59M25.32-22.79l-5.84.07M22.23-21.79l-.06-1.9M34.26-3.31l-5.84.07M31.17-2.31l-.06-1.9M7.72-12.67l-5.84.07M4.64-11.67l-.07-1.9M53.93-36.54l3.94-4.31M55.3-39.48l1.44 1.25M49.53-37.14l-4-4.26M46.7-38.74l1.36-1.34M44.65-28.6l2.64-5.21M45.19-31.8l1.72.82M63.89-12.71l5.41-2.2M66.4-14.77l.76 1.74M55.49-31.81l5.73-1.14M58.34-33.37l.42 1.86M64.25-28.43l3.71-4.51M65.47-31.44l1.5 1.18M54.21-10.56l3.71-4.5M55.43-13.56l1.5 1.18M75.63-29.96l-3.86-4.39M72.86-31.65l1.4-1.29M49.89-2.75l-3.86-4.38M47.12-4.44l1.4-1.29M74.24-18.38l2.04-5.46M74.42-21.61l1.8.62M64.3-2.69l2.05-5.47M64.48-5.93l1.8.63M86.08-22.78l-5.83.46M83.06-21.58l-.19-1.89M59.45-4.84l-5.82.46M56.44-3.64l-.2-1.89M49.8-21.77l-4.32 3.93M48.16-18.97l-1.32-1.38M59.12-18.97l-2.49-5.28M56.93-21.36l1.7-.85M84.35-11.03l-2.49-5.28M82.16-13.42l1.7-.86M76.13-37.66l-1.71-5.58M74.3-40.34l1.81-.6M81.59-39.86l5.33-2.39M84.02-42.01l.82 1.72M81.81-27.63l2.53-5.26M82.28-30.84l1.74.79M67.51-36.05l-2.97-5.02M65.1-38.22l1.62-1.01M22.61-34.88l-1.34-5.69M20.96-37.67l1.84-.49M78.24-11.16l-4.8-3.33M75.15-12.13l1.04-1.59M86.18-2.6l-4.8-3.32M83.08-3.57l1.05-1.59M68.53-22.79l-5.84.07M65.44-21.79l-.06-1.9M55.03-26.73l-5.84.07M51.94-25.73l-.06-1.9M77.47-3.31l-5.84.07M74.38-2.31l-.07-1.9M50.93-12.67l-5.84.07M47.84-11.67l-.06-1.9" style="fill:none;stroke:#000;stroke-width:.3"/></svg>