<svg xmlns="http://www.w3.org/2000/svg" xml:space="preserve" width="80.56" height="80.5" viewBox="1 -81.99 80.56 80.5"><path d="M1-81.99h80.56v80.5H1z" style="fill:none"/><path d="M8.52-71.97h0M8.46-68.66h0M3.83-68.6h0M12.52-69.03h0M15.21-67.16h0M18.58-66.53h0M25.08-75.03h0M22.08-69.28h0M15.58-63.91h0M17.71-69.91h0M18.21-75.66h0M21.71-73.28h0M25.33-71.91h0M21.33-78.28h0M13.08-73.1h0M6.33-74.91h0M7.71-79.53h0M14.27-81.22h0M17.58-79.35h0M3.77-78.66h0M2.27-74.47h0M15.08-76.97h0M9.83-75.47h0M8.52-54.26h0M4.71-54.03h0M8.46-50.95h0M3.83-50.89h0M13.83-51.89h0M15.83-49.26h0M11.08-48.16h0M6.08-47.91h0M8.33-45.16h0M12.21-43.78h0M18.83-48.91h0M13.92-46.03h0M17.71-53.01h0M17.46-55.53h0M21.71-55.58h0M21.33-60.58h0M20.96-64.95h0M13.08-55.39h0M6.33-57.2h0M5.65-65.51h0M7.71-61.83h0M11.71-61.53h0M17.58-61.64h0M4.08-62.01h0M2.27-56.76h0M15.08-59.26h0M9.83-57.76h0M35.27-71.97h0M35.2-68.66h0M30.58-68.6h0M27.08-68.78h0M28.65-65.41h0M24.42-62.2h0M24.21-58.78h0M25.58-55.41h0M27.33-60.41h0M39.27-69.03h0M41.95-67.16h0M45.75-66.7h0M42.33-63.91h0M44.45-69.91h0M44.08-75.7h0M48.42-71.7h0M47.75-75.03h0M48.08-78.28h0M39.83-73.1h0M33.08-74.91h0M34.45-79.53h0M41.02-81.22h0M44.33-79.35h0M51.58-2.7h0M30.52-78.66h0M27.21-77.66h0M26.33-81.28h0M29.02-74.47h0M40.42-78.03h0M36.58-75.47h0M35.27-54.26h0M31.33-54.89h0M27.71-53.76h0M20.83-51.14h0M35.2-50.95h0M27.21-49.91h0M26.42-46.53h0M21.42-45.7h0M23.08-43.03h0M57.08-48.37h0M53.58-46.03h0M61.92-46.2h0M79.46-44.51h0M22.96-48.78h0M31.21-51.51h0M41.83-52.76h0M41.95-49.45h0M37.83-48.16h0M32.33-48.01h0M35.08-45.16h0M38.95-43.78h0M45.83-47.39h0M40.92-46.03h0M45.08-51.26h0M44.2-55.53h0M47.21-52.89h0M50.21-55.41h0M52.96-57.91h0M53.46-54.41h0M56.21-56.01h0M56.83-52.26h0M59.71-51.51h0M54.08-50.78h0M50.71-48.16h0M55.33-60.78h0M47.83-61.53h0M47.7-64.95h0M39.83-55.39h0M33.92-57.03h0M48.08-45.41h0M32.96-65.39h0M34.45-61.83h0M38.45-61.53h0M44.33-61.64h0M30.25-61.87h0M27.92-56.87h0M41.83-59.26h0M37.42-58.03h0M80.99-70.6h0M80.99-52.89h0M80.71-64.03h0M73.15-72.53h0M73.21-69.22h0M76.71-71.89h0M77.83-69.16h0M69.15-69.6h0M66.46-67.72h0M61.08-69.03h0M65.08-73.66h0M63.96-70.47h0M63.46-76.22h0M59.75-75.03h0M60.33-78.85h0M56.58-80.66h0M53.96-78.66h0M57.08-77.78h0M54.92-75.53h0M51.83-74.16h0M53.42-71.03h0M66.83-63.28h0M49.42-68.53h0M53.92-67.53h0M60.42-72.7h0M57.96-68.03h0M56.96-64.66h0M53.21-63.53h0M51.33-60.66h0M48.08-57.41h0M68.58-73.66h0M79.21-80.51h0M73.96-80.1h0M67.33-81.28h0M69.71-79.03h0M78.71-75.01h0M76.83-78.14h0M66.58-77.53h0M23.08-3.53h0M10.58-2.2h0M2.25-2.53h0M18.42-2.87h0M30.92-25.03h0M44.58-3.37h0M30.25-2.7h0M47.54-13.51h0M58.25-2.87h0M47.58-2.2h0M71.25-2.37h0M63.25-2.53h0M71.83-76.03h0M73.15-54.83h0M76.96-54.6h0M73.58-49.89h0M79.08-48.78h0M67.46-52.72h0M66.46-50.01h0M70.58-48.72h0M76.71-47.51h0M74.58-45.51h0M68.21-43.28h0M61.71-49.47h0M66.08-46.76h0M69.08-65.78h0M64.21-56.1h0M62.75-59.2h0M59.96-56.14h0M60.33-61.14h0M60.71-65.51h0M68.58-55.95h0M75.33-57.76h0M70.58-52.66h0M73.96-62.39h0M69.96-62.1h0M64.08-62.2h0M77.9-61.51h0M79.4-57.33h0M66.58-59.83h0M72.46-65.91h0M8.52-11.51h0M8.46-14.82h0M3.83-14.89h0M15.21-16.32h0M19.08-25.28h0M24.42-17.53h0M23.96-8.68h0M26.21-6.51h0M22.08-14.2h0M14.25-19.37h0M18.58-15.2h0M18.08-10.2h0M21.71-10.2h0M30.08-38.87h0M21.25-6.37h0M10.92-9.7h0M7.25-3.2h0M15.58-12.2h0M4.42-11.87h0M2.27-9.01h0M14.75-8.03h0M13.58-4.87h0M8.52-29.22h0M4.71-29.45h0M8.46-32.53h0M19.25-41.87h0M14.21-31.32h0M15.21-34.03h0M11.08-35.32h0M6.08-35.57h0M8.33-38.32h0M14.25-40.7h0M18.83-34.57h0M13.92-37.45h0M17.42-38.03h0M17.46-27.95h0M21.71-27.91h0M21.33-22.91h0M20.96-18.53h0M13.08-28.09h0M6.33-26.28h0M2.58-37.53h0M7.71-21.66h0M11.71-21.95h0M17.58-21.84h0M3.77-22.53h0M2.27-26.72h0M15.08-24.22h0M10.25-18.03h0M35.38-15.01h0M35.38-18.51h0M30.58-14.89h0M27.08-14.7h0M28.08-18.07h0M24.42-21.28h0M24.25-31.7h0M27.33-23.07h0M39.27-14.45h0M45.71-10.26h0M41.95-16.32h0M46.58-16.32h0M42.33-19.57h0M42.75-14.03h0M44.95-7.82h0M47.75-8.45h0M49.75-5.7h0M41.46-10.76h0M33.08-8.57h0M34.45-3.95h0M39.08-3.53h0M33.54-11.68h0M26.88-3.68h0M29.02-9.01h0M40.08-6.7h0M36.08-7.03h0M35.27-29.22h0M31.45-29.45h0M28.08-30.2h0M20.96-31.32h0M35.2-32.53h0M27.21-33.57h0M26.42-36.95h0M26.75-42.2h0M57.08-35.12h0M53.02-37.45h0M61.92-37.28h0M76.25-42.53h0M72.42-41.37h0M56.42-42.87h0M50.96-43.89h0M34.58-41.87h0M30.75-42.37h0M8.58-42.03h0M5.42-40.03h0M2.21-47.01h0M80.42-40.28h0M22.96-34.7h0M30.58-32.59h0M40.95-31.32h0M41.95-34.03h0M37.83-35.32h0M32.83-35.57h0M33.71-39.14h0M40.75-40.7h0M46.7-34.57h0M41.96-37.01h0M44.42-38.37h0M44.2-27.95h0M49.08-31.7h0M48.42-29.03h0M52.96-25.57h0M53.46-29.07h0M56.83-28.2h0M56.05-39.42h0M59.58-39.73h0M60.42-30.61h0M54.08-32.7h0M50.42-34.76h0M55.33-22.7h0M47.83-21.95h0M49.42-18.7h0M39.83-28.09h0M33.92-26.45h0M48.08-38.07h0M39.04-18.35h0M34.45-21.66h0M38.45-21.95h0M44.33-21.84h0M30.25-21.61h0M27.92-26.61h0M41.83-24.22h0M37.75-30.87h0M80.99-12.89h0M80.99-30.59h0M80.71-19.45h0M73.15-10.95h0M73.21-14.26h0M78.33-15.28h0M69.15-13.89h0M66.46-15.76h0M61.08-14.45h0M9.92-5.7h0M64.25-7.03h0M59.96-9.64h0M60.92-5.53h0M53.96-4.82h0M58.08-11.7h0M53.21-7.76h0M45.75-42.2h0M66.83-20.2h0M53.75-14.37h0M50.42-16.03h0M54.58-11.45h0M57.96-15.45h0M62.92-42.7h0M53.42-18.7h0M51.33-22.82h0M46.08-25.37h0M68.58-9.82h0M75.33-8.01h0M79.92-5.7h0M74.25-4.7h0M76.92-17.7h0M69.42-38.03h0M79.4-8.45h0M66.92-4.53h0M71.08-8.37h0M73.15-28.66h0M76.96-28.89h0M73.21-31.97h0M79.08-34.7h0M67.46-30.76h0M65.42-33.7h0M70.58-34.76h0M75.58-35.01h0M73.33-37.76h0M68.21-40.2h0M61.71-34.01h0M66.08-36.72h0M64.42-18.03h0M64.08-29.7h0M58.25-25.03h0M61.21-27.01h0M60.33-22.34h0M60.71-17.97h0M68.58-27.53h0M76.75-32.37h0M72.33-25.01h0M73.96-21.09h0M72.71-17.64h0M70.96-21.89h0M64.08-21.28h0M77.9-21.97h0M79.4-26.16h0M67.96-23.14h0M11.42-32.2h0" style="fill:none;stroke:#000;stroke-width:.6;stroke-linecap:round"/><path d="m10.65-80.01.56 3.25M12.04-80.26l.67 3.5M14.77-72.33l3.38.69M14.86-73.79l3.51.61M16.9-57.83l3.37.69M16.98-59.29l3.51.61M10.21-67.45 9.08-64.2M11.59-67.05l-1.08 3.4M24.08-53.64l-1.12 3.25M25.46-53.23l-1.07 3.39M5.79-61.14l-2.94 1.8M6.6-59.95l-2.99 1.94M23.44-67.33l.89 3.32M24.81-67.78l1.01 3.42M31.99-60.21l-2.56 2.29M33.01-59.19l-2.6 2.44M43.62-73.59l-2.57 2.29M44.63-72.56l-2.59 2.44M75.31-77.16l-1.72 2.97M76.59-76.51l-1.7 3.13M76.17-67.37l-.56 3.39M77.6-67.21l-.49 3.53M69.6-58.65l1.92 2.85M70.76-59.51l2.06 2.9M78.14-53.07l-2.71 2.12M79.08-51.98l-2.75 2.27M39.65-78.25l-3.02-1.64M39.03-76.95l-3.17-1.62M32.3-72.65l-3.43.09M32.41-71.22l-3.55.19M39.43-66.09l-3.44.1M39.54-64.65l-3.56.19M25.37-79.71l-2.57 2.29M26.38-78.69l-2.59 2.44M6.59-72.86l-3.38.64M6.92-71.46l-3.48.75M53.02-79.11l-2.4-2.45M52.05-78.05l-2.56-2.48M58.97-72.75l-3.42.35M59.19-71.33l-3.53.46M62.33-66.72l.39 3.42M63.75-66.95l.5 3.53M49.4-65.84l.38 3.41M50.82-66.08l.49 3.53M55.96-57.84l3.34.82M56.23-59.25l3.48.75M44.81-60.43l-1.06 3.27M46.2-60.05l-1 3.41M49.33-50.91l2.5 2.36M50.27-52l2.65 2.38M37.94-54.03l-.27 3.43M39.38-53.99l-.18 3.56M57.16-43.32l1.68-3M55.87-43.96l1.66-3.15M43.66-42.09l1.31-3.18M42.31-42.57l1.26-3.33M29.55-44.23l2.96-1.76M28.75-45.44l3.02-1.89M9.21-52.02l3.34.81M9.48-53.44l3.48.75M3.43-41.36l2.17-2.67M2.27-42.21l2.17-2.82M12.54-36.68l-.3-3.42M11.12-36.48l-.41-3.54M22.84-39.88l-2.52 2.34M23.87-38.88l-2.55 2.49M1.71-32.77l3.34.81M1.98-34.19l3.48.75M16.08-30.52l3.34.81M16.35-31.94l3.49.75M28.16-36.88l1.86 2.9M29.34-37.71l1.99 2.95M35.5-24.52l3.41.46M35.62-25.95l3.54.38M30.97-19.99l.69 3.37M32.36-20.35l.81 3.47M24.08-13.09l2.96 1.74M24.75-14.37l3.11 1.73M15.8-18.14l3.41.46M15.92-19.57l3.54.38M4.91-17.12l3.41-.45M4.65-18.53l3.52-.57M11.86-14.79l-.06 3.44M13.3-14.83l.03 3.56M15.97-5.14l3.41.46M16.09-6.57l3.54.38M4.06-4.97l3.15-1.36M3.42-6.26l3.23-1.5M30.95-7.92l-1.77 2.95M32.22-7.24l-1.76 3.1M36.3-9.94l3.37-.65M35.95-11.33l3.48-.77M41.78-7.14l.81 3.35M43.16-7.54l.93 3.43M48.96-10.52l3.42.31M49.02-11.96l3.55.23M56.8-20.99l.99 3.29M58.16-21.47l1.11 3.38M64.05-23.74l2.54-2.32M63.02-24.76l2.57-2.47M74.84-25.45l1.17 3.24M76.17-26l1.29 3.31M70.72-15.54l-.67-3.38M69.33-15.19l-.79-3.48M74.47-11.8l3.41.45M74.59-13.24l3.54.38M75.63-2.97l3.41.46M75.75-4.4l3.55.38M69.69-8.35l-1.97 2.81M70.91-7.58l-1.97 2.96M64.17-9.82l.56-3.39M62.74-9.98l.49-3.53M56.49-7.69l-.3 3.42M57.93-7.63l-.23 3.55M48.3-25.97l3.41.46M48.42-27.4l3.54.38M44.77-20.27l1.85 2.9M45.95-21.11l1.99 2.96M36.13-37.98l3.43.24M36.16-39.42l3.55.16M48.13-39.56l3.37.71M48.36-40.99l3.5.65M62.6-40.28l1.95 2.84M63.75-41.15l2.09 2.89M76.04-36.62l2.62-2.22M75.05-37.67l2.67-2.37M67.99-31.95l2.72 2.1M68.81-33.13l2.88 2.11M55.99-30.95l3.16-1.37M55.35-32.24l3.23-1.5M45.25-29.48l-.11-3.43M43.81-29.36l-.2-3.56M23.71-24.7l2.76-2.05M22.79-25.81l2.81-2.2M11.82-24.14l-.47-3.41M10.4-23.87l-.58-3.52M16.23-45.7l2.35 2.5M17.23-46.74l2.5 2.54M62.6-53.34l1.04 3.28M63.95-53.84l1.16 3.36M68.65-46.19l2.31 2.55M69.67-47.21l2.46 2.58M67.98-72.94l-2.44 2.43M69.04-71.97l-2.45 2.58M64.76-81.02l-3.03 1.63M65.51-79.78l-3.1 1.77" style="fill:none;stroke:#000;stroke-width:.3"/></svg>