<svg xmlns="http://www.w3.org/2000/svg" xml:space="preserve" width="54" height="54" viewBox="1 -55 54 54"><path d="M1-55h54v54H1z" style="fill:none"/><path d="m29.72-52.71-1.05-.67-2.89 4.52 1.05.67zM32.5-37.49l.58-1.11-4.74-2.51-.58 1.11zM44.56-28.77l1.24.2.84-5.3-1.23-.19zM31.19-4.18l1.23.19.85-5.29-1.24-.2zM14.75-22.7l1.25-.01-.03-5.36-1.25.01zM30.71-22.66l1.07.65 2.76-4.6-1.07-.64zM37.28-18.23l.28 1.22 5.23-1.16-.27-1.22zM44.58-9.02l1.21.3 1.3-5.2-1.22-.3zM42.96-22.04l.83-.93-3.98-3.59-.84.94zM22.8-11.4l1.21.3 1.28-5.21-1.22-.3zM23.22-44.71l-.93-.83-3.59 3.98.93.83zM53.41-5.74l-.59-1.11-4.74 2.49.58 1.11zM11.82-14.19l-.59-1.1-4.72 2.54.59 1.1zM20.66-48.33l.87-.9-4.02-4.12-.87.89zM49.22-50.96l-1.05-.67-2.89 4.52 1.05.67zM51.47-35.75l.85-.91-3.89-3.69-.86.91zM43.28-40.96l-.81-.95-4.09 3.47.81.95zM39.73-47.74l.98-.78-3.47-4.6-.98.78zM13.26-32.45l-.84-.93-3.99 3.6.84.92zM13.83-44.63l1.25-.02-.03-5.36-1.25.01zM28.77-29.28l1.22-.29-1.23-5.22-1.21.29zM11-2.86l1.22-.29-1.23-5.22-1.22.29zM52.88-43.04l1.21-.32-1.34-5.19-1.21.31zM36.35-44.4l.11-1.25-5.34-.47-.11 1.24zM40.73-32.13l-.18-1.24-5.31.75.18 1.24zM21.5-32.21l.79-.98-4.17-3.37-.79.98zM53.17-10.47l1.02-.73-3.13-4.37-1.01.73zM2.91-31.35l1.25-.04-.12-5.36-1.25.03zM2.41-15.6l1.25-.04L3.54-21l-1.25.03zM10.27-20.56l.67-1.06-4.53-2.88-.66 1.06zM6.14-4.85l.67-1.06-4.52-2.88-.67 1.06zM27.25-2.31l.67-1.06-4.52-2.88-.67 1.06zM18.37-11.85l.95-.81-3.47-4.09-.95.81zM32.16-13.33l.95-.81-3.47-4.09-.95.81zM26.06-22.39l-.11-1.25-5.35.47.12 1.25zM11.2-37.78l.91-.85-3.66-3.92-.91.85zM42.11-2.06l.52-1.14-4.87-2.25-.52 1.13zM53.97-23.52l-.93-.83-3.59 3.98.93.83zM20.99-5.94l-.93-.83-3.59 3.98.93.83zM41.51-12.52l-.93-.83-3.59 3.98.93.83zM53.24-27.52l.91-.85-3.67-3.92-.91.85zM7.7-46.08l-.72-1.02-4.41 3.05.72 1.03zM10.06-50.63l.39-1.19-5.44-1.91-.38 1.19z" style="fill:none;stroke:#000;stroke-width:.3"/></svg>