<svg xmlns="http://www.w3.org/2000/svg" xml:space="preserve" width="43.33" height="43.33" viewBox="1 -44.33 43.33 43.33"><path d="M1-44.33h43.33V-1H1z" style="fill:none"/><path d="m40.21-41.75 1.07 2.98 1.06-2.98M34.02-41.75l1.06 2.98 1.06-2.98M27.82-41.75l1.06 2.98 1.06-2.98M21.62-41.75l1.06 2.98 1.07-2.98M15.42-41.75l1.06 2.98 1.07-2.98M9.22-41.75l1.07 2.98 1.06-2.98M3.03-41.75l1.06 2.98 1.06-2.98M1-31.49l1.06-2.99M3.03-27.24l1.06 2.98 1.06-2.98M1-17.03l1.06-2.98M3.03-12.78l1.06 2.99 1.06-2.99M1-2.56l1.06-2.99M43.27-34.48l1.07 2.99M37.13-34.56l1.06 2.99 1.06-2.99M30.93-34.56l1.06 2.99 1.06-2.99M24.73-34.56l1.06 2.99 1.06-2.99M18.53-34.56l1.06 2.99 1.07-2.99M12.33-34.56l1.07 2.99 1.06-2.99M6.14-34.56l1.06 2.99 1.06-2.99M40.21-27.32l1.07 2.99 1.06-2.99M34.02-27.32l1.06 2.99 1.06-2.99M27.82-27.32l1.06 2.99 1.06-2.99M21.62-27.32l1.06 2.99 1.07-2.99M15.42-27.32l1.06 2.99 1.07-2.99M9.22-27.32l1.07 2.99 1.06-2.99M43.27-20.02l1.07 2.99M37.13-20.08l1.06 2.99 1.06-2.99M30.93-20.08l1.06 2.99 1.06-2.99M24.73-20.08l1.06 2.99 1.06-2.99M18.53-20.08l1.06 2.99 1.07-2.99M12.33-20.08l1.07 2.99 1.06-2.99M6.14-20.08l1.06 2.99 1.06-2.99M40.21-12.84l1.07 2.99 1.06-2.99M34.02-12.84l1.06 2.99 1.06-2.99M27.82-12.84l1.06 2.99 1.06-2.99M21.62-12.84l1.06 2.99 1.07-2.99M15.42-12.84l1.06 2.99 1.07-2.99M9.22-12.84l1.07 2.99 1.06-2.99M43.28-5.55l1.06 2.99M37.13-5.6l1.06 2.99 1.06-2.99M30.93-5.6l1.06 2.99 1.06-2.99M24.73-5.6l1.06 2.99 1.06-2.99M18.53-5.6l1.06 2.99 1.07-2.99M12.33-5.6l1.07 2.99 1.06-2.99M6.14-5.6 7.2-2.61 8.26-5.6" style="fill:none;stroke:#000;stroke-width:.3;stroke-linecap:round;stroke-linejoin:round"/></svg>