<svg xmlns="http://www.w3.org/2000/svg" xml:space="preserve" width="53.67" height="53.67" viewBox="1 -54.67 53.67 53.67"><path d="M1-54.67h53.67V-1H1z" style="fill:none"/><path d="M3.5-51.1c.88.5 1.63.38 2.5-.37s1.13-.75 2.25-.5 1.25.13 2.38-.62 1.24-1.25 1.74-1M19-53.04c-1.25.87-1.5.5-1.13 1.62s.38.88-.37 1.5-1.25.75-1 1.75-.13 1.13-.63 1.63M2.88-46.06c.62-.37 1.62-.75 2.37-.12s2.19 1.76 2.56.64 1.69-.49 2.56.01M22.13-52.42c-.13 1.25.12 2 1 2.13s.87-.25 1 .62.12 1.13 1.12 1.13 1.5 0 1.63.87.62 1.38 1.62 1.38M13.58-38.53c.15 1.25.55 1.93 1.43 1.87.89-.07.8-.44 1.12.4.3.82.36 1.06 1.34.85.97-.21 1.46-.32 1.77.5M19.38-46.67c0 1.38.25 1.75.75 2.25s.87.63.25 1.38-.5.75.37 1.62.5 1.5-.38 2.63-1 1.25-.75 1.75M12.81-43.23c-.81.25-1.37.44-1.25 1.06s.13 1.2-.87 1.38-.94.25-.94 1.19-.06 1.25-.63 1.62-.43.5-.5.75M2.81-41.17c.25.75.31.88.56 1.32s.2.8-.12 1.12-.75.56-.25 1.38.56 1.43.19 1.87-.56.81-.19 1.44M11.19-32.1c.5-.2.69-.57 1.44.06.75.62.62.31 1.56.18s.87-.12 1.44.32 1.5.68 2.87-.63M12.38-28.54c1.24.19 1.93.12 2.06.87s0 .82.68 1 1.13.44.63 1.5-.5 1.07-.38 1.38M5.75-26.73c.69.38.69-.06 1.19.75s.56.63 1.19.94.43.62.5 1.37.12 1.2 1.06 1.2 1.44.55 1.62 1.05M18.5-27.23c.38-.44.69-.56 1.13-1.19s.93-.75 1.87-.5.88.13 1.38-.5 1.06-.8 1.43-.75M8.44-32.6c-.75 0-1.5.06-1.63.62-.12.56-.62 1.06-1.37.88s-1.19-.25-1.5.12-.88.5-1.19.44M24.25-45.3c.5.82.44.76.81 1s.38.76.31 1.13-.3.63.44 1 1.06 1.07.44 1.63-.81.81-.81 1.19M28.88-38.6c.3-.57.56-1 .93-1.13s.7-.25.88-.94-.19-1.12.5-1.06.62.19.87-.56.82-1.31 1.5-.94M31.5-35.42c-.38 0-.56-.06-1.06.32s-1.13.3-1.63-.13-.56-.63-1-.19-.81.88-1.62.13-1.38-.69-1.69-.5M25.25-32.54c1 .5 1.19.5 1.31 1.12.13.63.19.82 1.19 1s1.75.94 1.63 1.7-.2 1.18.93 1.24 1.44-.06 1.57.5M23.56-25.67c-1.06-.25-1.94-.37-2.06.5s-.56 1.5-1.25 1.75-.75.13-.94.88-.87 1.56-1.69 1.69M2.63-24.17c.06.7-.13.88.62 1.38s.81 1.06.5 1.87-.44.82.13 1.44.43 1.19 0 1.94M2.31-11.23c.19-.62.19-.94.81-.94s1.2-.37 1.32-1.06S5-14.73 6-14.42s1.94.38 2.56-.68M10.63-18.04c.8.19 1.3.75 2.12.37s1-.56 1.5 0 1.94 1.13 2.5.63 1.25-.56 1.63-.44M15.56-14.42c.81 0 .75-.25 1.06.25s.38.7 1.13.7.81-.26 1.25.43.69 1 1.56 1 1 .06 1.25.5.56.5 1.06.44M27.81-20.42c-.62-.3-.87-.5-1.31-.37s-1.06.19-1.56-.25-.75-.5-1.44.12-.81.7-1.56.63-.88.06-.94.5M25.06-14.17c.44-.43.81-.87.63-1.56s.25-1.87 1-1.87 1.25-.25 1.93-1 1.13-.88 1.7-.82M11.54-7.35c-.32-.96-.44-1.59-1.02-1.6-.57 0-1.42-.42-1.63-1.15a2.15 2.15 0 0 0-1.08-1.38M28.5-10.35c.63.25 1 .43 1.69-.13s1-.62 1.56-.44 1.38-.12 1.56-.87.81-1.19 1.13-1.25M33.38-23.73c.56.94.68.94 1.37 1s.88.06 1.19.69.69.81 1.81.56 1.38.13 1.5.56M35.88-18.73c.68.38.87.63.56 1.19s-.07 1.44.3 1.87.57.75.32 1.44.25 1.69.75 2M45-23.35c-.5.43-.63.56-.44 1.43s.38 1.38-.44 1.63-1.87.5-2.18 1.06-.88.69-1.38.63M32.81-33.48c.38.19.31-.12.69.75.38.88.25.38.94.69.69.31 1 1.37.5 2.06s-.63 1.31-.13 1.75.5.81.44 1.25M39.5-24.85c.38-.44.19-.75.75-.82s1-.12 1.38-.5.43-.62 1.06-.43.5.25 1.18-.07.7-.25 1.26-.06.56.19 1.37 0 1.06-.19 1.38-.06M47.25-17.98c-.56.38-.44.31-.75.94s-.31.69-.88.87-.93.32-.87 1 .25 1.38-.88 1.75-1.37.5-1.56 1-.56.88-.68 1.25M50.36-20.67c.8.5 1.03.42.8 1.2-.24.78.14 1.46.9 1.37.75-.08 1.99.16 2.21.75M47.36-14.4c.66-.12.48-.1 1.14.18.66.27.4.39 1.12.08.72-.32 1.56-.38 2.07.49.51.87 1.37 1.3 1.8 1.15M54.16-26.73c-.33.3-.42.29-1.08.3-.67 0-1.85.45-1.86 1.38-.02.93.2 1.56-.87 1.76-1.07.2-1.52.26-1.73.78M43.88-30.8c-1.07-.43-1.32-.68-1.57-.18s-1.31 1.44-1.69.94-.37-.75-.93-.69-.94-.44-1.2-.94M53.94-30.81c-.85-.55-.7-.43-1.46 0-.77.42-2.33.24-2.33-.73 0-.98.17-1.66-.5-1.56-.65.1-.6.23-1.26-.24M37.44-44.6c-.38.5-.63.8-.25 1.3s.5 1.45-.25 2.2-1.19.75-1 1.43.31 1.57-.25 2M39.44-39.48c.31 1 .25 1.19.62 1.5s.44.75.38 1.31.44 1.2 1.25 1.07.75-.5 1.19-.13.3.37 1 .44.75.19.93.56M48.69-41.54c-1 .19-1.25-.13-1.5.25s-.63.31-.94.5-.31-.06-.56.69-1.44 1.3-1.88.87-.87-.87-1.25-.69M53.87-39.78c-.79.3-.83.34-1.08.8-.25.45-.33.63-1.4.49-1.06-.14-1.53.28-1.72 1.22-.18.93-.52 1.3-1.13 1.5M50.06-47.54c1 .62.94.37 1.19 1.19s.31 1.43 1 1.93.81.63.88 1.38M47.63-46.23c-.38.81-1.63 1.44-2.2 1s-1-1-1.8-.37-1.32.62-2.07.43-.93-.25-1.18-.06M44.56-52.98c.75.69 1.75 2.13 1 2.44s-1.06.19-1.12.81-.44 1.19-1.06 1.69-.76.62-.82.94M48.25-53.67c1.13 1.19.69.75 1.5.88s1-.38 1.31.56-.19 1.44.81 1.69 1.5.43 1.7 1M40.56-50.92c-.94-.3-2.31-1-2.75-.12S36.75-49.17 36-49.1s-1.19-.13-1.63.43-1.12.82-1.74 1M27-52.35c.75-.75.56-1.38 1.75-.82s1.13.5 2 .2.94-.76 1.75-.07.81.44 1.13.5.74.25.87.81M47.11-9.7c.95.84 1.56 1.16 1.25 1.86-.3.7-.44.68.04 1.21s.7.98-.3 1.6c-1 .62-1 .62-1.06.95M1.94-8.23c1 .5 1.19.5 1.31 1.13s.19.8 1.19 1 1.75.93 1.62 1.68-.18 1.2.94 1.25 1.44-.06 1.56.5M44.06-8.42c-.62-.3-.87-.5-1.31-.37s-1.06.19-1.56-.25-.75-.5-1.44.12-.81.7-1.56.63-.88.06-.94.5M16.4-2.66c.11-.6.18-1.18-.36-1.64-.54-.47-.85-1.7-.23-2.12.62-.42.9-.9 1.05-1.91s.44-1.35.94-1.62M34.81-2.3c.63.26 1 .45 1.69-.12s1-.62 1.56-.43 1.38-.13 1.56-.88.82-1.19 1.13-1.25M53.88-6.98c-.5.44-.63.56-.44 1.44s.37 1.37-.44 1.62-1.88.5-2.19 1.07-.87.68-1.37.62M27.13-8.32c.37.19.3-.12.68.75s.25.38.94.69 1 1.38.5 2.06-.62 1.31-.12 1.75.5.81.43 1.25M25.31-4.23c-1.06-.44-1.31-.69-1.56-.19s-1.31 1.44-1.69.94-.37-.75-.94-.69-.93-.43-1.18-.93" style="fill:none;stroke:#000;stroke-width:.3"/></svg>