<svg xmlns="http://www.w3.org/2000/svg" xml:space="preserve" width="54.5" height="54.5" viewBox="3.16 -56.1 54.5 54.5"><path d="M3.16-56.1h54.5v54.5H3.16z" style="fill:none"/><path d="m54.43-1.6.15-.37c.59-1.4 1.25-4.2 1.83-6.05.63-2-1.06-2.75-2.87-3.68s-2.25-.88-4.38-1.5c-3.24-.96-3.81-4.09-6.75-4.65s-6.12-3-6.25-4.81 3.13-2.94 5-3.25 3.44-.75 1.94-.94-2.5-.44-4.69-1.19c-2.28-.78-.33-1.85-6.33-2.48s-7.17-5.83-6.56-7.25c.74-1.74 3.25-2.25 6.06-2.5s2.9-.9 6.08-1.45 2.88-1.38.69-1.25-3.06.48-10.75-2.82c-2.19-.93-3.1-1.15-5.02-1.9-3.06-1.18-6.89-1.97-7.17-3.66-.16-1 1.5-2.17 7.5-1.33 6 .83 8.5-1 13.17-1.34a194.2 194.2 0 0 1 14.33-.16c.94.02 3.19-.09 4.02-1.92" style="fill:none;stroke:#000;stroke-width:.3;stroke-linecap:square"/><path d="M38.6-42.98c-3.44.08 14.38-2.75 14.81-2.25s-.19 1.25-1.69 1.57-11.87 1.56-13.5 1.81 3.13-1.19.38-1.13zM52.02-49.06c-2.17 1.66-3.81.63-9.25.75s-12-.44-7.2-1.44 7.13-1.18 10-.75 7.76.44 6.45 1.44zM42.29-26.98c-2.67-.38 6 .44 8.31.25s3.19-.43 3.19.07-1.81.93-4 .8-5.94-.68-6.81-.5-.25-.55-.7-.62zM40.1-34.98c2.35 1.62 4.13 1.13 6.63.13s1.93-1 3.68-.81 3.13-.19 4.63-.94 2.37-1.63 1.19-1.44-4.63 1.31-6.13 1.25-2.94.25-4.31.81-6.69.32-5.69 1z"/><path d="M5.27-1.6C1.6-6.95 11.04-9.54 11.4-9.73c4.84-2.41 4.22-7.68-2.5-7.95-6.25-.25-3.37-3.25 3.5-4s6.26-3.54 5.88-6.3 3.74-3.37-6.37-5.62c-1.13-.25-3.13-.38-4.13-1.75s-2-3.63.5-4.13 7.74-3.23 3.88-5.5c-9.76-5.7 2.18-8.06-6.9-11.12M32.09-30.48 14.35-12.72M29.98-30.97 14.21-15.18M52.48-56.1l-1.87 1.88M28.24-31.83 12.97-16.54M49.89-56.1l-1.92 1.93M36.63-42.82l-1.94 1.94M26.88-33.07l-8.8 8.82M18.08-24.25l-1.44 1.44M16.64-22.81l-5.5 5.5M47.29-56.1l-1.84 1.85M34.49-43.28l-3.06 3.07M25.87-34.65l-7.53 7.54M13-21.77l-4.12 4.13M44.7-56.1l-1.86 1.86M32.47-43.86l-4.25 4.26M25.35-36.73l-6.69 6.69M9.98-21.34l-3.37 3.37M42.1-56.1l-1.87 1.88M30.61-44.59 17.83-31.8M39.51-56.1l-2.02 2.02M28.68-45.27 15.94-32.51M36.91-56.1l-2.25 2.25M26.85-46.03l-12.99 13M34.31-56.1l-2.88 2.89M25.02-46.8 11.85-33.6M31.72-56.1l-3.53 3.53M23.07-47.44 9.73-34.09M29.12-56.1l-3.6 3.61M21.18-48.15 8.06-35.02M26.53-56.1l-3.43 3.43M19.29-48.85l-5.69 5.69M11.04-40.6l-4.03 4.04M23.93-56.1l-3.26 3.26M17.39-49.56l-4.84 4.85M21.33-56.1l-3.27 3.27M15.88-50.64l-4.94 4.94M18.74-56.1l-9.25 9.26M16.14-56.1l-7.76 7.78M13.55-56.1l-5.41 5.41M10.95-56.1l-2.17 2.18M8.36-56.1l-.94.94M41.67-27.09l-1.44 1.43M8.35-56.1l17.63 17.62M34.13-30.32l4.94 4.94M52.07-12.38l4.34 4.34M10.97-56.1l4.44 4.44M17.44-49.63 27.6-39.48M39.29-27.79l1.87 1.88M13.6-56.1l3.34 3.34M21.69-48.01l7.97 7.97M16.23-56.1l3.12 3.12M25.76-46.57l6.28 6.28M18.79-56.1l3.28 3.28M30.13-44.76l3.97 3.97M21.41-56.1l3.53 3.53M34.19-43.32l1.88 1.88M23.91-56.1l3.5 3.5M37.19-42.82l1.04 1.03M26.54-56.1l3.19 3.19M29.16-56.1l2.82 2.81M31.79-56.1l2.28 2.28M34.29-56.1l2.06 2.06M36.91-56.1l1.94 1.94M39.54-56.1l1.87 1.87M42.16-56.1l1.82 1.81M44.66-56.1l1.82 1.81M47.29-56.1l1.87 1.87M49.91-56.1l1.78 1.78M52.54-56.1l1.06 1.06M8.9-52.97l16.6 16.6M31.16-30.72l6.18 6.19M48.28-13.59 55.87-6M8.25-51.06l27.97 27.97M41.06-18.25 55.31-4M8.34-48.41 11-45.75M11-45.75l2.62 2.63M13.62-43.12 54.66-2.09M9.15-39.78l7.38 7.37M7.25-39.06l5.69 5.69M7.06-36.69l2.5 2.5M7.53-20.59l3.06 3.06M5.87-19.62l1.72 1.71M4.68-2.73l1.14 1.11M4.61-2.97l6.71-6.72M52.47-1.6l2.91-2.84M56.46-8.12 49.87-1.6M55.94-10.2l-8.66 8.6M54.39-11.24l-9.7 9.64M52.69-12.14 42.09-1.6M50.73-12.78 39.5-1.6M48.75-13.39 36.9-1.6M47.04-14.28 34.3-1.6M45.78-15.61 31.7-1.6M44.41-16.85 29.11-1.6M42.71-17.74 26.51-1.6M40.72-18.35 23.92-1.6M38.99-19.21 21.32-1.6M37.53-20.35 18.73-1.6M36.36-21.78 16.12-1.6M39.65-27.67 13.53-1.6M37.73-28.35 10.93-1.6M36.34-29.55 8.34-1.6M5.82-1.61l28.5-28.52M52.54-1.6 12.56-41.56M10.97-40.59 49.92-1.6M18.72-30.22 47.29-1.6M18.31-28 44.67-1.6M18.44-25.31 42.17-1.6M17.69-23.5 39.54-1.6M36.92-1.6 15.94-22.56M13.9-22.03 34.29-1.6M11.72-21.66 31.79-1.6M9.5-21.25 29.17-1.6M14.53-13.59 26.54-1.6M23.92-1.6 13.81-11.69M12.53-10.47l8.89 8.87M10.81-9.56l7.98 7.96M16.23-1.6 9-8.81M7.25-7.94l6.36 6.34M10.98-1.6 5.81-6.81M4.72-5.28 8.36-1.6" style="fill:none;stroke:#000;stroke-width:.3;stroke-linecap:square"/></svg>