<svg xmlns="http://www.w3.org/2000/svg" xml:space="preserve" width="57.6" height="57.6" viewBox="0 -57.6 57.6 57.6"><path d="M0-57.6h57.6V0H0z" style="fill:none"/><ellipse cx="55.76" cy="-6.93" rx=".79" ry=".75" style="fill:none;stroke:#000;stroke-width:.4"/><ellipse cx="34.17" cy="-48.78" rx="1.05" ry=".71" style="fill:none;stroke:#000;stroke-width:.4"/><ellipse cx="22.01" cy="-15.1" rx="1.05" ry=".71" style="fill:none;stroke:#000;stroke-width:.4"/><ellipse cx="20.43" cy="-38.34" rx="1.05" ry=".71" style="fill:none;stroke:#000;stroke-width:.4"/><ellipse cx="36.67" cy="-34.85" rx="1.05" ry=".71" style="fill:none;stroke:#000;stroke-width:.4"/><ellipse cx="6.87" cy="-42.97" rx="1.05" ry=".71" style="fill:none;stroke:#000;stroke-width:.4"/><ellipse cx="10.73" cy="-21.65" rx="1.05" ry=".83" style="fill:none;stroke:#000;stroke-width:.4"/><ellipse cx="14.99" cy="-47.38" rx=".58" ry=".79" style="fill:none;stroke:#000;stroke-width:.4"/><ellipse cx="25.1" cy="-24.07" rx=".51" ry=".7" style="fill:none;stroke:#000;stroke-width:.4" transform="rotate(-88.18 25.1 -24.07)"/><ellipse cx="47.99" cy="-6.98" rx=".51" ry=".7" style="fill:none;stroke:#000;stroke-width:.4" transform="rotate(-88.18 48 -6.98)"/><ellipse cx="49.86" cy="-15.78" rx=".51" ry=".7" style="fill:none;stroke:#000;stroke-width:.4" transform="rotate(-88.18 49.86 -15.78)"/><ellipse cx="32.11" cy="-14.69" rx=".83" ry=".94" style="fill:none;stroke:#000;stroke-width:.4"/><ellipse cx="13.75" cy="-11.89" rx=".71" ry=".74" style="fill:none;stroke:#000;stroke-width:.4"/><ellipse cx="10.82" cy="-1.55" rx="1.15" ry=".76" style="fill:none;stroke:#000;stroke-width:.4"/><ellipse cx="44.13" cy="-54.1" rx=".83" ry="1.13" style="fill:none;stroke:#000;stroke-width:.4" transform="rotate(-75.24 44.13 -54.1)"/><ellipse cx="49.44" cy="-35.03" rx=".99" ry=".73" style="fill:none;stroke:#000;stroke-width:.4" transform="rotate(-3.71 49.46 -35.02)"/><ellipse cx="26.57" cy="-56.11" rx=".99" ry=".73" style="fill:none;stroke:#000;stroke-width:.4" transform="rotate(-79.2 26.57 -56.1)"/><path d="M29.5-39.22c-.54.3-1.16.23-1.38-.17-.22-.4.04-.97.59-1.27.54-.3.92.05 1.15.45.22.4.2.7-.35 1z" style="fill:none;stroke:#000;stroke-width:.4"/><ellipse cx="5.84" cy="-51.08" rx=".82" ry=".7" style="fill:none;stroke:#000;stroke-width:.4"/><ellipse cx="56.1" cy="-49.97" rx=".82" ry=".7" style="fill:none;stroke:#000;stroke-width:.4"/><ellipse cx="49.17" cy="-46.79" rx=".82" ry=".7" style="fill:none;stroke:#000;stroke-width:.4"/><path d="M12.36-33.63c.42-.04.59-.5.57-.71-.03-.21-.26-.4-.68-.36-.42.04-.74.25-.72.46.02.2.41.65.83.6z" style="fill:none;stroke:#000;stroke-width:.4"/><ellipse cx="25.2" cy="-48.46" rx=".9" ry=".45" style="fill:none;stroke:#000;stroke-width:.4" transform="rotate(-80.74 25.2 -48.46)"/><path d="M49.05-54.55h0M46.67-52.38h0M52.42-55.92h0M56.3-55.42h0M52.42-51.17h0M45.05-47.8h0M45.55-42.17h0M54.11-44.61h0M49.01-41.13h0M54.92-35.3h0M54.92-31.22h0M49.59-30.22h0M51.05-24.3h0M52.42-19.55h0M55.92-14.51h0M44.92-14.55h0M48.05-11.18h0M44.51-8.72h0M42.51-5.3h0M31.93-8.3h0M36.59-1.63h0M23.09-2.13h0M20.84-6.05h0M21.51-9.72h0M27.59-9.63h0M26.59-6.13h0M29.51-5.72h0M31.51-1.8h0M18.01-13.55h0M14.68-6.13h0M14.18-2.22h0M9.59-4.13h0M11.09-8.63h0M3.01-1.72h0M6.17-4.3h0M2.59-8.05h0M5.92-.8h0M13.09-18.63h0M7.09-21.22h0M2.51-20.22h0M.42-11.22h0M12.01-15.8h0M7.84-16.22h0M3.59-15.22h0M17.59-18.3h0M27.09-14.3h0M45.76-2.22h0M51.59-4.72h0M56.84-1.3h0M57.09-4.63h0M52.01-.97h0M52.92-11.05h0M40.8-10.68h0M35.92-11.3h0M34.05-17.18h0M37.67-15.05h0M33.05-21.43h0M30.05-19.8h0M25.59-19.05h0M19.93-21.8h0M15.05-24.55h0M1.55-39.55h0M44.51-36.63h0M45.67-30.22h0M41.59-47.38h0M38.05-45.67h0" style="fill:none;stroke:#000;stroke-width:.8;stroke-linecap:round"/><path d="M7.62-46.3h0M7.51-46.3h.11M36.62-24.13h0M36.51-24.13h.11M46.62-25.13h0M46.51-25.13h.11" style="fill:none;stroke:#000;stroke-linecap:round;stroke-miterlimit:1.41"/><ellipse cx="56.42" cy="-21.81" rx=".9" ry=".64" style="fill:none;stroke:#000;stroke-width:.4"/><ellipse cx="42.09" cy="-18.36" rx=".9" ry=".64" style="fill:none;stroke:#000;stroke-width:.4"/><path d="M37.67-4.8c.5 0 .66-.29.66-.64 0-.35-.16-.64-.65-.64-.5 0-.9.29-.9.64 0 .35.4.64.9.64zM5.63-9.78c.5-.08.85-.42.8-.77-.06-.35-.5-.57-1-.5-.48.08-.6.44-.55.8.06.34.26.54.75.47zM1.13-32.32c.5-.08.85-.42.8-.77-.06-.35-.5-.57-1-.5-.49.08-.6.44-.55.79.06.35.26.55.75.48zM54.23-40.26c.49.1.94-.1 1-.44.08-.35-.26-.71-.75-.8-.49-.1-.72.2-.79.54-.07.35.05.6.54.7zM41.76-41.45c.49-.07.84-.42.79-.77-.05-.35-.5-.57-.99-.5-.49.08-.6.45-.55.8.05.34.25.55.75.47zM25.13-30.32c.5-.08.85-.42.8-.77-.06-.35-.5-.57-1-.5-.48.08-.6.44-.55.79.06.35.26.55.75.48z" style="fill:none;stroke:#000;stroke-width:.4"/><path d="M40.17-52.05h0M36.67-52.55h0M30.59-53.22h0M23.34-52.55h0M19.01-55.22h0M17.18-52.22h0M13.34-52.72h0M9.59-48.63h0M2.67-48.72h0M2.09-53.63h0M3.09-44.72h0M12.01-43.3h0M8.09-35.13h0M3.09-36.22h0M15.51-42.63h0M17.09-36.22h0M19.09-31.13h0M16.09-32.13h0M22.26-33.97h0M12.59-37.63h0M10.59-31.22h0M11.59-26.05h0M4.59-25.05h0M17.59-27.47h0M5.09-31.63h0M7.17-28.72h0M.42-29.05h0M8.51-55.22h0M20.01-49.05h0M29.84-49.22h0M31.51-44.22h0M35.01-40.13h0M32.59-37.13h0M39.01-37.63h0M42.51-33.72h0M27.26-44.05h0M25.09-37.13h0M28.51-33.63h0M33.01-31.05h0M23.01-28.63h0M22.09-26.13h0M28.59-27.22h0M31.09-26.22h0M36.51-28.13h0M40.01-25.13h0M42.51-22.3h0M46.67-20.18h0M38.09-20.3h0M43.17-26.05h0M56.17-25.55h0M39.42-31.22h0M22.59-42.8h0M20.09-44.72h0M33.51-56.72h0" style="fill:none;stroke:#000;stroke-width:.8;stroke-linecap:round"/></svg>