<svg xmlns="http://www.w3.org/2000/svg" xml:space="preserve" width="58.32" height="58.32" viewBox="1.86 -60.18 58.32 58.32"><path d="M1.86-60.18h58.32v58.32H1.86z" style="fill:none"/><circle cx="13.84" cy="-55.65" r="1.17" style="fill:none;stroke:#ec008c;stroke-width:.43"/><path d="M15.05-60.17a1.17 1.17 0 1 0 2.34 0" style="fill:none;stroke:#ec008c;stroke-width:.43"/><circle cx="16.22" cy="-40.7" r="1.17" style="fill:none;stroke:#ec008c;stroke-width:.43"/><path d="M5.61-60.17a1.17 1.17 0 1 0 2.34 0" style="fill:none;stroke:#ec008c;stroke-width:.43"/><circle cx="6.78" cy="-40.74" r="1.17" style="fill:none;stroke:#ec008c;stroke-width:.43"/><circle cx="21.32" cy="-58.01" r="1.17" style="fill:none;stroke:#ec008c;stroke-width:.43"/><circle cx="21.32" cy="-53.2" r="1.17" style="fill:none;stroke:#ec008c;stroke-width:.43"/><path d="M1.86-52.03a1.17 1.17 0 1 0 0-2.34M1.86-56.84a1.17 1.17 0 1 0 0-2.34" style="fill:none;stroke:#ec008c;stroke-width:.43"/><circle cx="6.98" cy="-50.69" r="1.17" style="fill:none;stroke:#ec008c;stroke-width:.43"/><circle cx="8.7" cy="-55.65" r="1.17" style="fill:none;stroke:#ec008c;stroke-width:.43"/><circle cx="16.07" cy="-50.69" r="1.17" style="fill:none;stroke:#ec008c;stroke-width:.43"/><circle cx="11.05" cy="-47.95" r="1.17" style="fill:none;stroke:#ec008c;stroke-width:.43"/><circle cx="11.04" cy="-43.25" r="1.17" style="fill:none;stroke:#ec008c;stroke-width:.43"/><circle cx="17.91" cy="-45.77" r="1.17" style="fill:none;stroke:#ec008c;stroke-width:.43"/><circle cx="4.08" cy="-45.77" r="1.17" style="fill:none;stroke:#ec008c;stroke-width:.43"/><circle cx="33.34" cy="-55.65" r="1.17" style="fill:none;stroke:#ec008c;stroke-width:.43"/><path d="M34.55-60.17a1.17 1.17 0 1 0 2.34 0" style="fill:none;stroke:#ec008c;stroke-width:.43"/><circle cx="35.72" cy="-40.7" r="1.17" style="fill:none;stroke:#ec008c;stroke-width:.43"/><path d="M25.11-60.17a1.17 1.17 0 1 0 2.34 0" style="fill:none;stroke:#ec008c;stroke-width:.43"/><circle cx="26.28" cy="-40.74" r="1.17" style="fill:none;stroke:#ec008c;stroke-width:.43"/><circle cx="40.82" cy="-58.01" r="1.17" style="fill:none;stroke:#ec008c;stroke-width:.43"/><circle cx="40.82" cy="-53.2" r="1.17" style="fill:none;stroke:#ec008c;stroke-width:.43"/><circle cx="26.48" cy="-50.69" r="1.17" style="fill:none;stroke:#ec008c;stroke-width:.43"/><circle cx="28.2" cy="-55.65" r="1.17" style="fill:none;stroke:#ec008c;stroke-width:.43"/><circle cx="35.57" cy="-50.69" r="1.17" style="fill:none;stroke:#ec008c;stroke-width:.43"/><circle cx="30.55" cy="-47.95" r="1.17" style="fill:none;stroke:#ec008c;stroke-width:.43"/><circle cx="30.54" cy="-43.25" r="1.17" style="fill:none;stroke:#ec008c;stroke-width:.43"/><circle cx="37.41" cy="-45.77" r="1.17" style="fill:none;stroke:#ec008c;stroke-width:.43"/><circle cx="23.58" cy="-45.77" r="1.17" style="fill:none;stroke:#ec008c;stroke-width:.43"/><circle cx="52.84" cy="-55.65" r="1.17" style="fill:none;stroke:#ec008c;stroke-width:.43"/><path d="M54.05-60.17a1.17 1.17 0 1 0 2.34 0" style="fill:none;stroke:#ec008c;stroke-width:.43"/><circle cx="55.22" cy="-40.7" r="1.17" style="fill:none;stroke:#ec008c;stroke-width:.43"/><path d="M44.61-60.17a1.17 1.17 0 1 0 2.34 0" style="fill:none;stroke:#ec008c;stroke-width:.43"/><circle cx="45.78" cy="-40.74" r="1.17" style="fill:none;stroke:#ec008c;stroke-width:.43"/><path d="M60.2-59.18a1.17 1.17 0 0 0 0 2.34M60.18-54.37a1.17 1.17 0 0 0 0 2.34" style="fill:none;stroke:#ec008c;stroke-width:.43"/><circle cx="45.98" cy="-50.69" r="1.17" style="fill:none;stroke:#ec008c;stroke-width:.43"/><circle cx="47.7" cy="-55.65" r="1.17" style="fill:none;stroke:#ec008c;stroke-width:.43"/><circle cx="55.07" cy="-50.69" r="1.17" style="fill:none;stroke:#ec008c;stroke-width:.43"/><circle cx="50.05" cy="-47.95" r="1.17" style="fill:none;stroke:#ec008c;stroke-width:.43"/><circle cx="50.04" cy="-43.25" r="1.17" style="fill:none;stroke:#ec008c;stroke-width:.43"/><circle cx="56.91" cy="-45.77" r="1.17" style="fill:none;stroke:#ec008c;stroke-width:.43"/><circle cx="43.08" cy="-45.77" r="1.17" style="fill:none;stroke:#ec008c;stroke-width:.43"/><circle cx="13.84" cy="-36.21" r="1.17" style="fill:none;stroke:#ec008c;stroke-width:.43"/><circle cx="16.22" cy="-40.7" r="1.17" style="fill:none;stroke:#ec008c;stroke-width:.43"/><circle cx="16.22" cy="-21.26" r="1.17" style="fill:none;stroke:#ec008c;stroke-width:.43"/><circle cx="6.78" cy="-21.3" r="1.17" style="fill:none;stroke:#ec008c;stroke-width:.43"/><circle cx="21.32" cy="-38.57" r="1.17" style="fill:none;stroke:#ec008c;stroke-width:.43"/><circle cx="21.32" cy="-33.76" r="1.17" style="fill:none;stroke:#ec008c;stroke-width:.43"/><path d="M1.86-32.59a1.17 1.17 0 1 0 0-2.34M1.87-37.4a1.17 1.17 0 1 0 0-2.34" style="fill:none;stroke:#ec008c;stroke-width:.43"/><circle cx="6.98" cy="-31.25" r="1.17" style="fill:none;stroke:#ec008c;stroke-width:.43"/><circle cx="8.7" cy="-36.21" r="1.17" style="fill:none;stroke:#ec008c;stroke-width:.43"/><circle cx="16.07" cy="-31.25" r="1.17" style="fill:none;stroke:#ec008c;stroke-width:.43"/><circle cx="11.05" cy="-28.51" r="1.17" style="fill:none;stroke:#ec008c;stroke-width:.43"/><circle cx="11.04" cy="-23.81" r="1.17" style="fill:none;stroke:#ec008c;stroke-width:.43"/><circle cx="17.91" cy="-26.34" r="1.17" style="fill:none;stroke:#ec008c;stroke-width:.43"/><circle cx="4.08" cy="-26.34" r="1.17" style="fill:none;stroke:#ec008c;stroke-width:.43"/><circle cx="33.34" cy="-36.21" r="1.17" style="fill:none;stroke:#ec008c;stroke-width:.43"/><circle cx="35.72" cy="-40.7" r="1.17" style="fill:none;stroke:#ec008c;stroke-width:.43"/><circle cx="35.72" cy="-21.26" r="1.17" style="fill:none;stroke:#ec008c;stroke-width:.43"/><circle cx="26.28" cy="-21.3" r="1.17" style="fill:none;stroke:#ec008c;stroke-width:.43"/><circle cx="40.82" cy="-38.57" r="1.17" style="fill:none;stroke:#ec008c;stroke-width:.43"/><circle cx="40.82" cy="-33.76" r="1.17" style="fill:none;stroke:#ec008c;stroke-width:.43"/><circle cx="26.48" cy="-31.25" r="1.17" style="fill:none;stroke:#ec008c;stroke-width:.43"/><circle cx="28.2" cy="-36.21" r="1.17" style="fill:none;stroke:#ec008c;stroke-width:.43"/><circle cx="35.57" cy="-31.25" r="1.17" style="fill:none;stroke:#ec008c;stroke-width:.43"/><circle cx="30.55" cy="-28.51" r="1.17" style="fill:none;stroke:#ec008c;stroke-width:.43"/><circle cx="30.54" cy="-23.81" r="1.17" style="fill:none;stroke:#ec008c;stroke-width:.43"/><circle cx="37.41" cy="-26.34" r="1.17" style="fill:none;stroke:#ec008c;stroke-width:.43"/><circle cx="23.58" cy="-26.34" r="1.17" style="fill:none;stroke:#ec008c;stroke-width:.43"/><circle cx="52.84" cy="-36.21" r="1.17" style="fill:none;stroke:#ec008c;stroke-width:.43"/><circle cx="55.22" cy="-40.7" r="1.17" style="fill:none;stroke:#ec008c;stroke-width:.43"/><circle cx="55.22" cy="-21.26" r="1.17" style="fill:none;stroke:#ec008c;stroke-width:.43"/><path d="M60.18-39.74a1.17 1.17 0 0 0 0 2.34M60.2-34.93a1.17 1.17 0 0 0 0 2.34" style="fill:none;stroke:#ec008c;stroke-width:.43"/><circle cx="45.98" cy="-31.25" r="1.17" style="fill:none;stroke:#ec008c;stroke-width:.43"/><circle cx="47.7" cy="-36.21" r="1.17" style="fill:none;stroke:#ec008c;stroke-width:.43"/><circle cx="55.07" cy="-31.25" r="1.17" style="fill:none;stroke:#ec008c;stroke-width:.43"/><circle cx="50.05" cy="-28.51" r="1.17" style="fill:none;stroke:#ec008c;stroke-width:.43"/><circle cx="50.04" cy="-23.81" r="1.17" style="fill:none;stroke:#ec008c;stroke-width:.43"/><circle cx="56.91" cy="-26.34" r="1.17" style="fill:none;stroke:#ec008c;stroke-width:.43"/><circle cx="43.08" cy="-26.34" r="1.17" style="fill:none;stroke:#ec008c;stroke-width:.43"/><circle cx="13.84" cy="-16.77" r="1.17" style="fill:none;stroke:#ec008c;stroke-width:.43"/><circle cx="16.22" cy="-21.26" r="1.17" style="fill:none;stroke:#ec008c;stroke-width:.43"/><path d="M17.39-1.86a1.17 1.17 0 0 0-2.34 0M7.95-1.87a1.17 1.17 0 0 0-2.34 0" style="fill:none;stroke:#ec008c;stroke-width:.43"/><circle cx="21.32" cy="-19.14" r="1.17" style="fill:none;stroke:#ec008c;stroke-width:.43"/><circle cx="21.32" cy="-14.32" r="1.17" style="fill:none;stroke:#ec008c;stroke-width:.43"/><path d="M1.86-13.15a1.17 1.17 0 1 0 0-2.34M1.86-17.96a1.17 1.17 0 1 0 0-2.34" style="fill:none;stroke:#ec008c;stroke-width:.43"/><circle cx="6.98" cy="-11.81" r="1.17" style="fill:none;stroke:#ec008c;stroke-width:.43"/><circle cx="8.7" cy="-16.77" r="1.17" style="fill:none;stroke:#ec008c;stroke-width:.43"/><circle cx="16.07" cy="-11.81" r="1.17" style="fill:none;stroke:#ec008c;stroke-width:.43"/><circle cx="11.05" cy="-9.07" r="1.17" style="fill:none;stroke:#ec008c;stroke-width:.43"/><circle cx="11.04" cy="-4.37" r="1.17" style="fill:none;stroke:#ec008c;stroke-width:.43"/><circle cx="17.91" cy="-6.9" r="1.17" style="fill:none;stroke:#ec008c;stroke-width:.43"/><circle cx="4.08" cy="-6.9" r="1.17" style="fill:none;stroke:#ec008c;stroke-width:.43"/><circle cx="33.34" cy="-16.77" r="1.17" style="fill:none;stroke:#ec008c;stroke-width:.43"/><circle cx="35.72" cy="-21.26" r="1.17" style="fill:none;stroke:#ec008c;stroke-width:.43"/><path d="M36.89-1.87a1.17 1.17 0 0 0-2.34 0M27.45-1.87a1.17 1.17 0 0 0-2.34 0" style="fill:none;stroke:#ec008c;stroke-width:.43"/><circle cx="40.82" cy="-19.14" r="1.17" style="fill:none;stroke:#ec008c;stroke-width:.43"/><circle cx="40.82" cy="-14.32" r="1.17" style="fill:none;stroke:#ec008c;stroke-width:.43"/><circle cx="26.48" cy="-11.81" r="1.17" style="fill:none;stroke:#ec008c;stroke-width:.43"/><circle cx="28.2" cy="-16.77" r="1.17" style="fill:none;stroke:#ec008c;stroke-width:.43"/><circle cx="35.57" cy="-11.81" r="1.17" style="fill:none;stroke:#ec008c;stroke-width:.43"/><circle cx="30.55" cy="-9.07" r="1.17" style="fill:none;stroke:#ec008c;stroke-width:.43"/><circle cx="30.54" cy="-4.37" r="1.17" style="fill:none;stroke:#ec008c;stroke-width:.43"/><circle cx="37.41" cy="-6.9" r="1.17" style="fill:none;stroke:#ec008c;stroke-width:.43"/><circle cx="23.58" cy="-6.9" r="1.17" style="fill:none;stroke:#ec008c;stroke-width:.43"/><circle cx="52.84" cy="-16.77" r="1.17" style="fill:none;stroke:#ec008c;stroke-width:.43"/><circle cx="55.22" cy="-21.26" r="1.17" style="fill:none;stroke:#ec008c;stroke-width:.43"/><path d="M56.39-1.87a1.17 1.17 0 0 0-2.34 0" style="fill:none;stroke:#ec008c;stroke-width:.43"/><circle cx="45.78" cy="-21.26" r="1.17" style="fill:none;stroke:#ec008c;stroke-width:.43"/><path d="M46.95-1.87a1.17 1.17 0 0 0-2.34 0M60.2-20.3a1.17 1.17 0 0 0 0 2.34M60.2-15.5a1.17 1.17 0 0 0 0 2.35" style="fill:none;stroke:#ec008c;stroke-width:.43"/><circle cx="45.98" cy="-11.81" r="1.17" style="fill:none;stroke:#ec008c;stroke-width:.43"/><circle cx="47.7" cy="-16.77" r="1.17" style="fill:none;stroke:#ec008c;stroke-width:.43"/><circle cx="55.07" cy="-11.81" r="1.17" style="fill:none;stroke:#ec008c;stroke-width:.43"/><circle cx="50.05" cy="-9.07" r="1.17" style="fill:none;stroke:#ec008c;stroke-width:.43"/><circle cx="50.04" cy="-4.37" r="1.17" style="fill:none;stroke:#ec008c;stroke-width:.43"/><circle cx="56.91" cy="-6.9" r="1.17" style="fill:none;stroke:#ec008c;stroke-width:.43"/><circle cx="43.08" cy="-6.9" r="1.17" style="fill:none;stroke:#ec008c;stroke-width:.43"/></svg>