<svg xmlns="http://www.w3.org/2000/svg" width="33.5" height="33.5"><path fill="none" d="M0 0h33.5v33.5H0z"/><path d="M0 8.88c.3 0 .52-.24.52-.52S.3 7.84 0 7.84m33.48 0c-.28 0-.52.23-.52.52s.23.52.52.52"/><circle cx="1.94" cy="5.54" r=".52"/><circle cx="1.88" cy="2.67" r=".52"/><circle cx="7.04" cy="4.19" r=".52"/><circle cx="5.69" cy="1.73" r=".52"/><circle cx="4.38" cy="4.17" r=".52"/><circle cx="5.63" cy="6.92" r=".52"/><circle cx="2.88" cy="8.36" r=".52"/><path d="M2.36.04c0 .3.23.52.52.52s.5-.23.5-.52m4.48 0c0 .3.23.52.5.52S8.9.33 8.9.04M.52.04A.5.5 0 0 1 0 .56V0l.52.04z"/><circle cx="8.38" cy="8.36" r=".52"/><circle cx="10.31" cy="5.54" r=".52"/><circle cx="10.25" cy="2.67" r=".52"/><circle cx="15.42" cy="4.19" r=".52"/><circle cx="14.06" cy="1.73" r=".52"/><circle cx="12.75" cy="4.17" r=".52"/><circle cx="14" cy="6.92" r=".52"/><circle cx="11.25" cy="8.36" r=".52"/><path d="M10.73.04c0 .3.23.52.52.52s.52-.23.52-.52"/><circle cx="16.75" cy="8.29" r=".52"/><path d="M16.23.04c0 .3.23.52.52.52s.52-.23.52-.52"/><circle cx="18.69" cy="5.54" r=".52"/><circle cx="18.63" cy="2.67" r=".52"/><circle cx="23.79" cy="4.19" r=".52"/><circle cx="22.44" cy="1.73" r=".52"/><circle cx="21.13" cy="4.17" r=".52"/><circle cx="22.38" cy="6.92" r=".52"/><circle cx="19.63" cy="8.36" r=".52"/><path d="M19.1.04c0 .3.24.52.52.52s.52-.23.52-.52"/><circle cx="25.13" cy="8.29" r=".52"/><path d="M24.6.04c0 .3.24.52.52.52s.52-.23.52-.52m-8.37 33.44c0-.28-.23-.52-.52-.52s-.52.24-.52.52"/><circle cx="27.06" cy="5.54" r=".52"/><circle cx="27" cy="2.67" r=".52"/><circle cx="32.17" cy="4.19" r=".52"/><circle cx="30.81" cy="1.73" r=".52"/><circle cx="29.5" cy="4.17" r=".52"/><circle cx="30.75" cy="6.92" r=".52"/><circle cx="28" cy="8.36" r=".52"/><path d="M27.48.04c0 .3.23.52.52.52s.52-.23.52-.52M33.5.56a.51.51 0 0 1-.52-.52h.52v.52zM0 17.25c.3 0 .52-.23.52-.52S.3 16.2 0 16.2m33.48 0c-.28 0-.52.25-.52.53s.23.52.52.52"/><circle cx="1.94" cy="13.92" r=".52"/><circle cx="1.88" cy="11.04" r=".52"/><circle cx="7.04" cy="12.56" r=".52"/><circle cx="5.69" cy="10.11" r=".52"/><circle cx="4.38" cy="12.54" r=".52"/><circle cx="5.63" cy="15.29" r=".52"/><circle cx="2.88" cy="16.73" r=".52"/><circle cx="8.38" cy="16.67" r=".52"/><circle cx="10.31" cy="13.92" r=".52"/><circle cx="10.25" cy="11.04" r=".52"/><circle cx="15.42" cy="12.56" r=".52"/><circle cx="14.06" cy="10.11" r=".52"/><circle cx="12.75" cy="12.54" r=".52"/><circle cx="14" cy="15.29" r=".52"/><circle cx="11.25" cy="16.73" r=".52"/><circle cx="18.69" cy="13.92" r=".52"/><circle cx="18.63" cy="11.04" r=".52"/><circle cx="23.79" cy="12.56" r=".52"/><circle cx="22.44" cy="10.11" r=".52"/><circle cx="21.13" cy="12.54" r=".52"/><circle cx="22.38" cy="15.29" r=".52"/><circle cx="19.63" cy="16.73" r=".52"/><circle cx="25.13" cy="16.67" r=".52"/><circle cx="27.06" cy="13.92" r=".52"/><circle cx="27" cy="11.04" r=".52"/><circle cx="32.17" cy="12.56" r=".52"/><circle cx="30.81" cy="10.11" r=".52"/><circle cx="29.5" cy="12.54" r=".52"/><circle cx="30.75" cy="15.29" r=".52"/><circle cx="28" cy="16.73" r=".52"/><path d="M0 25.63c.3 0 .52-.24.52-.52s-.23-.5-.52-.5m33.48-.01c-.28 0-.52.22-.52.5s.23.52.52.52"/><circle cx="1.94" cy="22.29" r=".52"/><circle cx="1.88" cy="19.42" r=".52"/><circle cx="7.04" cy="20.94" r=".52"/><circle cx="5.69" cy="18.48" r=".52"/><circle cx="4.38" cy="20.92" r=".52"/><circle cx="5.63" cy="23.67" r=".52"/><circle cx="2.88" cy="25.11" r=".52"/><circle cx="8.38" cy="25.04" r=".52"/><circle cx="10.31" cy="22.29" r=".52"/><circle cx="10.25" cy="19.42" r=".52"/><circle cx="15.42" cy="20.94" r=".52"/><circle cx="14.06" cy="18.48" r=".52"/><circle cx="12.75" cy="20.92" r=".52"/><circle cx="14" cy="23.67" r=".52"/><circle cx="11.25" cy="25.11" r=".52"/><circle cx="16.75" cy="25.04" r=".52"/><circle cx="16.75" cy="16.79" r=".52"/><circle cx="18.69" cy="22.29" r=".52"/><circle cx="18.63" cy="19.42" r=".52"/><circle cx="23.79" cy="20.94" r=".52"/><circle cx="22.44" cy="18.48" r=".52"/><circle cx="21.13" cy="20.92" r=".52"/><circle cx="22.38" cy="23.67" r=".52"/><circle cx="19.63" cy="25.11" r=".52"/><circle cx="25.13" cy="25.04" r=".52"/><circle cx="27.06" cy="22.29" r=".52"/><circle cx="27" cy="19.42" r=".52"/><circle cx="32.17" cy="20.94" r=".52"/><circle cx="30.81" cy="18.48" r=".52"/><circle cx="29.5" cy="20.92" r=".52"/><circle cx="30.75" cy="23.67" r=".52"/><path d="M0 32.98c.3 0 .52.23.52.52H0v-.52zm33.5 0c-.3 0-.52.23-.52.52h.52v-.52z"/><circle cx="1.94" cy="30.67" r=".52"/><circle cx="1.88" cy="27.79" r=".52"/><circle cx="7.04" cy="29.31" r=".52"/><circle cx="5.69" cy="26.86" r=".52"/><circle cx="4.38" cy="29.29" r=".52"/><circle cx="5.63" cy="32.04" r=".52"/><path d="M3.4 33.48c0-.28-.24-.52-.53-.52s-.5.24-.5.52m6.53-.02c0-.3-.24-.52-.53-.52s-.5.23-.5.52"/><circle cx="10.31" cy="30.67" r=".52"/><circle cx="10.25" cy="27.79" r=".52"/><circle cx="15.42" cy="29.31" r=".52"/><circle cx="14.06" cy="26.86" r=".52"/><circle cx="12.75" cy="29.29" r=".52"/><circle cx="14" cy="32.04" r=".52"/><path d="M11.77 33.48c0-.28-.23-.52-.52-.52s-.52.24-.52.52"/><circle cx="18.69" cy="30.67" r=".52"/><circle cx="18.63" cy="27.79" r=".52"/><circle cx="23.79" cy="29.31" r=".52"/><circle cx="22.44" cy="26.86" r=".52"/><circle cx="21.13" cy="29.29" r=".52"/><circle cx="22.38" cy="32.04" r=".52"/><path d="M20.14 33.48c0-.28-.23-.52-.52-.52s-.5.24-.5.52m6.52-.02c0-.3-.23-.52-.52-.52s-.5.23-.5.52"/><circle cx="27.06" cy="30.67" r=".52"/><circle cx="27" cy="27.79" r=".52"/><circle cx="32.17" cy="29.31" r=".52"/><circle cx="30.81" cy="26.86" r=".52"/><circle cx="29.5" cy="29.29" r=".52"/><circle cx="30.75" cy="32.04" r=".52"/><path d="M28.52 33.48c0-.28-.23-.52-.52-.52s-.52.24-.52.52"/><circle cx="28" cy="25.17" r=".52"/></svg>