<svg xmlns="http://www.w3.org/2000/svg" xml:space="preserve" width="59.18" height="59.18" viewBox="1 -60.18 59.18 59.18"><path d="M1-60.18h59.18V-1H1z" style="fill:none"/><path d="M1-57.95a.42.42 0 0 0 0-.84"/><circle cx="2.84" cy="-58.37" r=".42"/><circle cx="4.68" cy="-58.37" r=".42"/><circle cx="6.53" cy="-58.36" r=".42"/><circle cx="8.38" cy="-58.38" r=".42"/><path d="M1-56.1a.42.42 0 0 0 0-.84"/><circle cx="2.84" cy="-56.52" r=".42"/><circle cx="4.68" cy="-56.52" r=".42"/><circle cx="6.53" cy="-56.51" r=".42"/><circle cx="8.38" cy="-56.53" r=".42"/><path d="M1-54.25a.42.42 0 0 0 0-.84"/><circle cx="2.84" cy="-54.67" r=".42"/><circle cx="4.68" cy="-54.67" r=".42"/><circle cx="6.53" cy="-54.66" r=".42"/><circle cx="8.38" cy="-54.68" r=".42"/><path d="M1-52.4a.42.42 0 0 0 0-.85"/><circle cx="2.84" cy="-52.82" r=".42"/><circle cx="4.68" cy="-52.82" r=".42"/><circle cx="6.53" cy="-52.81" r=".42"/><circle cx="8.38" cy="-52.83" r=".42"/><circle cx="10.24" cy="-58.37" r=".42"/><circle cx="12.08" cy="-58.37" r=".42"/><circle cx="13.93" cy="-58.36" r=".42"/><circle cx="15.78" cy="-58.38" r=".42"/><circle cx="10.24" cy="-56.52" r=".42"/><circle cx="12.08" cy="-56.52" r=".42"/><circle cx="13.93" cy="-56.51" r=".42"/><circle cx="15.78" cy="-56.53" r=".42"/><circle cx="10.24" cy="-54.67" r=".42"/><circle cx="12.08" cy="-54.67" r=".42"/><circle cx="13.93" cy="-54.66" r=".42"/><circle cx="15.78" cy="-54.68" r=".42"/><circle cx="10.24" cy="-52.82" r=".42"/><circle cx="12.08" cy="-52.82" r=".42"/><circle cx="13.93" cy="-52.81" r=".42"/><circle cx="15.78" cy="-52.83" r=".42"/><path d="M1-50.54a.42.42 0 0 0 0-.85"/><circle cx="2.84" cy="-50.97" r=".42"/><circle cx="4.68" cy="-50.97" r=".42"/><circle cx="6.53" cy="-50.96" r=".42"/><circle cx="8.38" cy="-50.98" r=".42"/><path d="M1-48.7a.42.42 0 0 0 0-.84"/><circle cx="2.84" cy="-49.12" r=".42"/><circle cx="4.68" cy="-49.12" r=".42"/><circle cx="6.53" cy="-49.11" r=".42"/><circle cx="8.38" cy="-49.13" r=".42"/><path d="M1-46.84a.42.42 0 0 0 0-.85"/><circle cx="2.84" cy="-47.27" r=".42"/><circle cx="4.68" cy="-47.27" r=".42"/><circle cx="6.53" cy="-47.26" r=".42"/><circle cx="8.38" cy="-47.28" r=".42"/><path d="M1-45a.42.42 0 0 0 0-.84"/><circle cx="2.84" cy="-45.42" r=".42"/><circle cx="4.68" cy="-45.42" r=".42"/><circle cx="6.53" cy="-45.41" r=".42"/><circle cx="8.38" cy="-45.43" r=".42"/><circle cx="10.24" cy="-50.97" r=".42"/><circle cx="12.08" cy="-50.97" r=".42"/><circle cx="13.93" cy="-50.96" r=".42"/><circle cx="15.78" cy="-50.98" r=".42"/><circle cx="10.24" cy="-49.12" r=".42"/><circle cx="12.08" cy="-49.12" r=".42"/><circle cx="13.93" cy="-49.11" r=".42"/><circle cx="15.78" cy="-49.13" r=".42"/><circle cx="10.24" cy="-47.27" r=".42"/><circle cx="12.08" cy="-47.27" r=".42"/><circle cx="13.93" cy="-47.26" r=".42"/><circle cx="15.78" cy="-47.28" r=".42"/><circle cx="10.24" cy="-45.42" r=".42"/><circle cx="12.08" cy="-45.42" r=".42"/><circle cx="13.93" cy="-45.41" r=".42"/><circle cx="15.78" cy="-45.43" r=".42"/><circle cx="17.63" cy="-58.37" r=".42"/><circle cx="19.47" cy="-58.37" r=".42"/><circle cx="21.32" cy="-58.36" r=".42"/><circle cx="23.17" cy="-58.38" r=".42"/><circle cx="17.63" cy="-56.52" r=".42"/><circle cx="19.47" cy="-56.52" r=".42"/><circle cx="21.32" cy="-56.51" r=".42"/><circle cx="23.17" cy="-56.53" r=".42"/><circle cx="17.63" cy="-54.67" r=".42"/><circle cx="19.47" cy="-54.67" r=".42"/><circle cx="21.32" cy="-54.66" r=".42"/><circle cx="23.17" cy="-54.68" r=".42"/><circle cx="17.63" cy="-52.82" r=".42"/><circle cx="19.47" cy="-52.82" r=".42"/><circle cx="21.32" cy="-52.81" r=".42"/><circle cx="23.17" cy="-52.83" r=".42"/><circle cx="25.03" cy="-58.37" r=".42"/><circle cx="26.87" cy="-58.37" r=".42"/><circle cx="28.72" cy="-58.36" r=".42"/><circle cx="30.57" cy="-58.38" r=".42"/><circle cx="25.03" cy="-56.52" r=".42"/><circle cx="26.87" cy="-56.52" r=".42"/><circle cx="28.72" cy="-56.51" r=".42"/><circle cx="30.57" cy="-56.53" r=".42"/><circle cx="25.03" cy="-54.67" r=".42"/><circle cx="26.87" cy="-54.67" r=".42"/><circle cx="28.72" cy="-54.66" r=".42"/><circle cx="30.57" cy="-54.68" r=".42"/><circle cx="25.03" cy="-52.82" r=".42"/><circle cx="26.87" cy="-52.82" r=".42"/><circle cx="28.72" cy="-52.81" r=".42"/><circle cx="30.57" cy="-52.83" r=".42"/><circle cx="17.63" cy="-50.97" r=".42"/><circle cx="19.47" cy="-50.97" r=".42"/><circle cx="21.32" cy="-50.96" r=".42"/><circle cx="23.17" cy="-50.98" r=".42"/><circle cx="17.63" cy="-49.12" r=".42"/><circle cx="19.47" cy="-49.12" r=".42"/><circle cx="21.32" cy="-49.11" r=".42"/><circle cx="23.17" cy="-49.13" r=".42"/><circle cx="17.63" cy="-47.27" r=".42"/><circle cx="19.47" cy="-47.27" r=".42"/><circle cx="21.32" cy="-47.26" r=".42"/><circle cx="23.17" cy="-47.28" r=".42"/><circle cx="17.63" cy="-45.42" r=".42"/><circle cx="19.47" cy="-45.42" r=".42"/><circle cx="21.32" cy="-45.41" r=".42"/><circle cx="23.17" cy="-45.43" r=".42"/><circle cx="25.03" cy="-50.97" r=".42"/><circle cx="26.87" cy="-50.97" r=".42"/><circle cx="28.72" cy="-50.96" r=".42"/><circle cx="30.57" cy="-50.98" r=".42"/><circle cx="25.03" cy="-49.12" r=".42"/><circle cx="26.87" cy="-49.12" r=".42"/><circle cx="28.72" cy="-49.11" r=".42"/><circle cx="30.57" cy="-49.13" r=".42"/><circle cx="25.03" cy="-47.27" r=".42"/><circle cx="26.87" cy="-47.27" r=".42"/><circle cx="28.72" cy="-47.26" r=".42"/><circle cx="30.57" cy="-47.28" r=".42"/><circle cx="25.03" cy="-45.42" r=".42"/><circle cx="26.87" cy="-45.42" r=".42"/><circle cx="28.72" cy="-45.41" r=".42"/><circle cx="30.57" cy="-45.43" r=".42"/><path d="M1-43.13a.42.42 0 0 0 0-.85"/><circle cx="2.84" cy="-43.56" r=".42"/><circle cx="4.68" cy="-43.56" r=".42"/><circle cx="6.53" cy="-43.55" r=".42"/><circle cx="8.38" cy="-43.57" r=".42"/><path d="M1-41.28a.42.42 0 0 0 0-.85"/><circle cx="2.84" cy="-41.71" r=".42"/><circle cx="4.68" cy="-41.71" r=".42"/><circle cx="6.53" cy="-41.7" r=".42"/><circle cx="8.38" cy="-41.72" r=".42"/><path d="M1-39.44a.42.42 0 0 0 0-.84"/><circle cx="2.84" cy="-39.86" r=".42"/><circle cx="4.68" cy="-39.86" r=".42"/><circle cx="6.53" cy="-39.85" r=".42"/><circle cx="8.38" cy="-39.87" r=".42"/><path d="M1-37.59a.42.42 0 0 0 0-.84"/><circle cx="2.84" cy="-38.01" r=".42"/><circle cx="4.68" cy="-38.01" r=".42"/><circle cx="6.53" cy="-38" r=".42"/><circle cx="8.38" cy="-38.02" r=".42"/><circle cx="10.24" cy="-43.56" r=".42"/><circle cx="12.08" cy="-43.56" r=".42"/><circle cx="13.93" cy="-43.55" r=".42"/><circle cx="15.78" cy="-43.57" r=".42"/><circle cx="10.24" cy="-41.71" r=".42"/><circle cx="12.08" cy="-41.71" r=".42"/><circle cx="13.93" cy="-41.7" r=".42"/><circle cx="15.78" cy="-41.72" r=".42"/><circle cx="10.24" cy="-39.86" r=".42"/><circle cx="12.08" cy="-39.86" r=".42"/><circle cx="13.93" cy="-39.85" r=".42"/><circle cx="15.78" cy="-39.87" r=".42"/><circle cx="10.24" cy="-38.01" r=".42"/><circle cx="12.08" cy="-38.01" r=".42"/><circle cx="13.93" cy="-38" r=".42"/><circle cx="15.78" cy="-38.02" r=".42"/><path d="M1-35.73a.42.42 0 0 0 0-.85"/><circle cx="2.84" cy="-36.16" r=".42"/><circle cx="4.68" cy="-36.16" r=".42"/><circle cx="6.53" cy="-36.15" r=".42"/><circle cx="8.38" cy="-36.16" r=".42"/><path d="M1-33.88a.42.42 0 0 0 0-.85"/><circle cx="2.84" cy="-34.31" r=".42"/><circle cx="4.68" cy="-34.31" r=".42"/><circle cx="6.53" cy="-34.3" r=".42"/><circle cx="8.38" cy="-34.31" r=".42"/><path d="M1-32.03a.42.42 0 0 0 0-.85"/><circle cx="2.84" cy="-32.46" r=".42"/><circle cx="4.68" cy="-32.46" r=".42"/><circle cx="6.53" cy="-32.45" r=".42"/><circle cx="8.38" cy="-32.47" r=".42"/><path d="M1-30.18a.42.42 0 0 0 0-.85"/><circle cx="2.84" cy="-30.61" r=".42"/><circle cx="4.68" cy="-30.61" r=".42"/><circle cx="6.53" cy="-30.6" r=".42"/><circle cx="8.38" cy="-30.62" r=".42"/><circle cx="10.24" cy="-36.16" r=".42"/><circle cx="12.08" cy="-36.16" r=".42"/><circle cx="13.93" cy="-36.15" r=".42"/><circle cx="15.78" cy="-36.16" r=".42"/><circle cx="10.24" cy="-34.31" r=".42"/><circle cx="12.08" cy="-34.31" r=".42"/><circle cx="13.93" cy="-34.3" r=".42"/><circle cx="15.78" cy="-34.31" r=".42"/><circle cx="10.24" cy="-32.46" r=".42"/><circle cx="12.08" cy="-32.46" r=".42"/><circle cx="13.93" cy="-32.45" r=".42"/><circle cx="15.78" cy="-32.47" r=".42"/><circle cx="10.24" cy="-30.61" r=".42"/><circle cx="12.08" cy="-30.61" r=".42"/><circle cx="13.93" cy="-30.6" r=".42"/><circle cx="15.78" cy="-30.62" r=".42"/><circle cx="17.63" cy="-43.56" r=".42"/><circle cx="19.47" cy="-43.56" r=".42"/><circle cx="21.32" cy="-43.55" r=".42"/><circle cx="23.17" cy="-43.57" r=".42"/><circle cx="17.63" cy="-41.71" r=".42"/><circle cx="19.47" cy="-41.71" r=".42"/><circle cx="21.32" cy="-41.7" r=".42"/><circle cx="23.17" cy="-41.72" r=".42"/><circle cx="17.63" cy="-39.86" r=".42"/><circle cx="19.47" cy="-39.86" r=".42"/><circle cx="21.32" cy="-39.85" r=".42"/><circle cx="23.17" cy="-39.87" r=".42"/><circle cx="17.63" cy="-38.01" r=".42"/><circle cx="19.47" cy="-38.01" r=".42"/><circle cx="21.32" cy="-38" r=".42"/><circle cx="23.17" cy="-38.02" r=".42"/><circle cx="25.03" cy="-43.56" r=".42"/><circle cx="26.87" cy="-43.56" r=".42"/><circle cx="28.72" cy="-43.55" r=".42"/><circle cx="30.57" cy="-43.57" r=".42"/><circle cx="25.03" cy="-41.71" r=".42"/><circle cx="26.87" cy="-41.71" r=".42"/><circle cx="28.72" cy="-41.7" r=".42"/><circle cx="30.57" cy="-41.72" r=".42"/><circle cx="25.03" cy="-39.86" r=".42"/><circle cx="26.87" cy="-39.86" r=".42"/><circle cx="28.72" cy="-39.85" r=".42"/><circle cx="30.57" cy="-39.87" r=".42"/><circle cx="25.03" cy="-38.01" r=".42"/><circle cx="26.87" cy="-38.01" r=".42"/><circle cx="28.72" cy="-38" r=".42"/><circle cx="30.57" cy="-38.02" r=".42"/><circle cx="17.63" cy="-36.16" r=".42"/><circle cx="19.47" cy="-36.16" r=".42"/><circle cx="21.32" cy="-36.15" r=".42"/><circle cx="23.17" cy="-36.16" r=".42"/><circle cx="17.63" cy="-34.31" r=".42"/><circle cx="19.47" cy="-34.31" r=".42"/><circle cx="21.32" cy="-34.3" r=".42"/><circle cx="23.17" cy="-34.31" r=".42"/><circle cx="17.63" cy="-32.46" r=".42"/><circle cx="19.47" cy="-32.46" r=".42"/><circle cx="21.32" cy="-32.45" r=".42"/><circle cx="23.17" cy="-32.47" r=".42"/><circle cx="17.63" cy="-30.61" r=".42"/><circle cx="19.47" cy="-30.61" r=".42"/><circle cx="21.32" cy="-30.6" r=".42"/><circle cx="23.17" cy="-30.62" r=".42"/><circle cx="25.03" cy="-36.16" r=".42"/><circle cx="26.87" cy="-36.16" r=".42"/><circle cx="28.72" cy="-36.15" r=".42"/><circle cx="30.57" cy="-36.16" r=".42"/><circle cx="25.03" cy="-34.31" r=".42"/><circle cx="26.87" cy="-34.31" r=".42"/><circle cx="28.72" cy="-34.3" r=".42"/><circle cx="30.57" cy="-34.31" r=".42"/><circle cx="25.03" cy="-32.46" r=".42"/><circle cx="26.87" cy="-32.46" r=".42"/><circle cx="28.72" cy="-32.45" r=".42"/><circle cx="30.57" cy="-32.47" r=".42"/><circle cx="25.03" cy="-30.61" r=".42"/><circle cx="26.87" cy="-30.61" r=".42"/><circle cx="28.72" cy="-30.6" r=".42"/><circle cx="30.57" cy="-30.62" r=".42"/><path d="M1-28.33c.23 0 .42-.2.42-.43a.42.42 0 0 0-.42-.42"/><circle cx="2.84" cy="-28.76" r=".42"/><circle cx="4.68" cy="-28.76" r=".42"/><circle cx="6.53" cy="-28.75" r=".42"/><circle cx="8.38" cy="-28.77" r=".42"/><path d="M1-26.48a.42.42 0 0 0 0-.85"/><circle cx="2.84" cy="-26.91" r=".42"/><circle cx="4.68" cy="-26.91" r=".42"/><circle cx="6.53" cy="-26.9" r=".42"/><circle cx="8.38" cy="-26.92" r=".42"/><path d="M1-24.64a.42.42 0 0 0 0-.84"/><circle cx="2.84" cy="-25.06" r=".42"/><circle cx="4.68" cy="-25.06" r=".42"/><circle cx="6.53" cy="-25.05" r=".42"/><circle cx="8.38" cy="-25.07" r=".42"/><path d="M1-22.79a.42.42 0 0 0 0-.84"/><circle cx="2.84" cy="-23.21" r=".42"/><circle cx="4.68" cy="-23.21" r=".42"/><circle cx="6.53" cy="-23.2" r=".42"/><circle cx="8.38" cy="-23.22" r=".42"/><circle cx="10.24" cy="-28.76" r=".42"/><circle cx="12.08" cy="-28.76" r=".42"/><circle cx="13.93" cy="-28.75" r=".42"/><circle cx="15.78" cy="-28.77" r=".42"/><circle cx="10.24" cy="-26.91" r=".42"/><circle cx="12.08" cy="-26.91" r=".42"/><circle cx="13.93" cy="-26.9" r=".42"/><circle cx="15.78" cy="-26.92" r=".42"/><circle cx="10.24" cy="-25.06" r=".42"/><circle cx="12.08" cy="-25.06" r=".42"/><circle cx="13.93" cy="-25.05" r=".42"/><circle cx="15.78" cy="-25.07" r=".42"/><circle cx="10.24" cy="-23.21" r=".42"/><circle cx="12.08" cy="-23.21" r=".42"/><circle cx="13.93" cy="-23.2" r=".42"/><circle cx="15.78" cy="-23.22" r=".42"/><path d="M1-20.93a.42.42 0 0 0 0-.85"/><circle cx="2.84" cy="-21.36" r=".42"/><circle cx="4.68" cy="-21.36" r=".42"/><circle cx="6.53" cy="-21.35" r=".42"/><circle cx="8.38" cy="-21.37" r=".42"/><path d="M1-19.08c.23 0 .42-.2.42-.43a.42.42 0 0 0-.42-.42"/><circle cx="2.84" cy="-19.51" r=".42"/><circle cx="4.68" cy="-19.51" r=".42"/><circle cx="6.53" cy="-19.5" r=".42"/><circle cx="8.38" cy="-19.52" r=".42"/><path d="M1-17.23a.42.42 0 0 0 0-.85"/><circle cx="2.84" cy="-17.66" r=".42"/><circle cx="4.68" cy="-17.66" r=".42"/><circle cx="6.53" cy="-17.65" r=".42"/><circle cx="8.38" cy="-17.67" r=".42"/><path d="M1-15.38a.42.42 0 0 0 0-.85"/><circle cx="2.84" cy="-15.81" r=".42"/><circle cx="4.68" cy="-15.81" r=".42"/><circle cx="6.53" cy="-15.8" r=".42"/><circle cx="8.38" cy="-15.82" r=".42"/><circle cx="10.24" cy="-21.36" r=".42"/><circle cx="12.08" cy="-21.36" r=".42"/><circle cx="13.93" cy="-21.35" r=".42"/><circle cx="15.78" cy="-21.37" r=".42"/><circle cx="10.24" cy="-19.51" r=".42"/><circle cx="12.08" cy="-19.51" r=".42"/><circle cx="13.93" cy="-19.5" r=".42"/><circle cx="15.78" cy="-19.52" r=".42"/><circle cx="10.24" cy="-17.66" r=".42"/><circle cx="12.08" cy="-17.66" r=".42"/><circle cx="13.93" cy="-17.65" r=".42"/><circle cx="15.78" cy="-17.67" r=".42"/><circle cx="10.24" cy="-15.81" r=".42"/><circle cx="12.08" cy="-15.81" r=".42"/><circle cx="13.93" cy="-15.8" r=".42"/><circle cx="15.78" cy="-15.82" r=".42"/><circle cx="17.63" cy="-28.76" r=".42"/><circle cx="19.47" cy="-28.76" r=".42"/><circle cx="21.32" cy="-28.75" r=".42"/><circle cx="23.17" cy="-28.77" r=".42"/><circle cx="17.63" cy="-26.91" r=".42"/><circle cx="19.47" cy="-26.91" r=".42"/><circle cx="21.32" cy="-26.9" r=".42"/><circle cx="23.17" cy="-26.92" r=".42"/><circle cx="17.63" cy="-25.06" r=".42"/><circle cx="19.47" cy="-25.06" r=".42"/><circle cx="21.32" cy="-25.05" r=".42"/><circle cx="23.17" cy="-25.07" r=".42"/><circle cx="17.63" cy="-23.21" r=".42"/><circle cx="19.47" cy="-23.21" r=".42"/><circle cx="21.32" cy="-23.2" r=".42"/><circle cx="23.17" cy="-23.22" r=".42"/><circle cx="25.03" cy="-28.76" r=".42"/><circle cx="26.87" cy="-28.76" r=".42"/><circle cx="28.72" cy="-28.75" r=".42"/><circle cx="30.57" cy="-28.77" r=".42"/><circle cx="25.03" cy="-26.91" r=".42"/><circle cx="26.87" cy="-26.91" r=".42"/><circle cx="28.72" cy="-26.9" r=".42"/><circle cx="30.57" cy="-26.92" r=".42"/><circle cx="25.03" cy="-25.06" r=".42"/><circle cx="26.87" cy="-25.06" r=".42"/><circle cx="28.72" cy="-25.05" r=".42"/><circle cx="30.57" cy="-25.07" r=".42"/><circle cx="25.03" cy="-23.21" r=".42"/><circle cx="26.87" cy="-23.21" r=".42"/><circle cx="28.72" cy="-23.2" r=".42"/><circle cx="30.57" cy="-23.22" r=".42"/><circle cx="17.63" cy="-21.36" r=".42"/><circle cx="19.47" cy="-21.36" r=".42"/><circle cx="21.32" cy="-21.35" r=".42"/><circle cx="23.17" cy="-21.37" r=".42"/><circle cx="17.63" cy="-19.51" r=".42"/><circle cx="19.47" cy="-19.51" r=".42"/><circle cx="21.32" cy="-19.5" r=".42"/><circle cx="23.17" cy="-19.52" r=".42"/><circle cx="17.63" cy="-17.66" r=".42"/><circle cx="19.47" cy="-17.66" r=".42"/><circle cx="21.32" cy="-17.65" r=".42"/><circle cx="23.17" cy="-17.67" r=".42"/><circle cx="17.63" cy="-15.81" r=".42"/><circle cx="19.47" cy="-15.81" r=".42"/><circle cx="21.32" cy="-15.8" r=".42"/><circle cx="23.17" cy="-15.82" r=".42"/><circle cx="25.03" cy="-21.36" r=".42"/><circle cx="26.87" cy="-21.36" r=".42"/><circle cx="28.72" cy="-21.35" r=".42"/><circle cx="30.57" cy="-21.37" r=".42"/><circle cx="25.03" cy="-19.51" r=".42"/><circle cx="26.87" cy="-19.51" r=".42"/><circle cx="28.72" cy="-19.5" r=".42"/><circle cx="30.57" cy="-19.52" r=".42"/><circle cx="25.03" cy="-17.66" r=".42"/><circle cx="26.87" cy="-17.66" r=".42"/><circle cx="28.72" cy="-17.65" r=".42"/><circle cx="30.57" cy="-17.67" r=".42"/><circle cx="25.03" cy="-15.81" r=".42"/><circle cx="26.87" cy="-15.81" r=".42"/><circle cx="28.72" cy="-15.8" r=".42"/><circle cx="30.57" cy="-15.82" r=".42"/><path d="M1-13.52c.23 0 .42-.2.42-.43a.42.42 0 0 0-.42-.42"/><circle cx="2.84" cy="-13.95" r=".42"/><circle cx="4.68" cy="-13.95" r=".42"/><circle cx="6.53" cy="-13.94" r=".42"/><circle cx="8.38" cy="-13.96" r=".42"/><path d="M1-11.67a.42.42 0 0 0 0-.85"/><circle cx="2.84" cy="-12.1" r=".42"/><circle cx="4.68" cy="-12.1" r=".42"/><circle cx="6.53" cy="-12.09" r=".42"/><circle cx="8.38" cy="-12.11" r=".42"/><path d="M1-9.82a.42.42 0 0 0 0-.85"/><circle cx="2.84" cy="-10.25" r=".42"/><circle cx="4.68" cy="-10.25" r=".42"/><circle cx="6.53" cy="-10.24" r=".42"/><circle cx="8.38" cy="-10.26" r=".42"/><path d="M1-7.97a.42.42 0 0 0 0-.85"/><circle cx="2.84" cy="-8.4" r=".42"/><circle cx="4.68" cy="-8.4" r=".42"/><circle cx="6.53" cy="-8.39" r=".42"/><circle cx="8.38" cy="-8.41" r=".42"/><circle cx="10.24" cy="-13.95" r=".42"/><circle cx="12.08" cy="-13.95" r=".42"/><circle cx="13.93" cy="-13.94" r=".42"/><circle cx="15.78" cy="-13.96" r=".42"/><circle cx="10.24" cy="-12.1" r=".42"/><circle cx="12.08" cy="-12.1" r=".42"/><circle cx="13.93" cy="-12.09" r=".42"/><circle cx="15.78" cy="-12.11" r=".42"/><circle cx="10.24" cy="-10.25" r=".42"/><circle cx="12.08" cy="-10.25" r=".42"/><circle cx="13.93" cy="-10.24" r=".42"/><circle cx="15.78" cy="-10.26" r=".42"/><circle cx="10.24" cy="-8.4" r=".42"/><circle cx="12.08" cy="-8.4" r=".42"/><circle cx="13.93" cy="-8.39" r=".42"/><circle cx="15.78" cy="-8.41" r=".42"/><path d="M1-6.12a.42.42 0 0 0 0-.85"/><circle cx="2.84" cy="-6.54" r=".42"/><circle cx="4.68" cy="-6.54" r=".42"/><circle cx="6.53" cy="-6.53" r=".42"/><circle cx="8.38" cy="-6.55" r=".42"/><path d="M1-4.27c.23 0 .42-.2.42-.43A.42.42 0 0 0 1-5.12"/><circle cx="2.84" cy="-4.7" r=".42"/><circle cx="4.68" cy="-4.7" r=".42"/><circle cx="6.53" cy="-4.68" r=".42"/><circle cx="8.38" cy="-4.7" r=".42"/><path d="M1-2.42a.42.42 0 0 0 0-.85"/><circle cx="2.84" cy="-2.85" r=".42"/><circle cx="4.68" cy="-2.85" r=".42"/><circle cx="6.53" cy="-2.84" r=".42"/><circle cx="8.38" cy="-2.85" r=".42"/><path d="M3.27-1a.42.42 0 0 0-.85 0M1-1v-.42c.24 0 .43.19.43.42h-.42M4.26-1a.42.42 0 0 1 .85 0M6.95-1a.42.42 0 0 0-.84 0M8.8-1a.42.42 0 0 0-.84 0"/><circle cx="10.24" cy="-6.54" r=".42"/><circle cx="12.08" cy="-6.54" r=".42"/><circle cx="13.93" cy="-6.53" r=".42"/><circle cx="15.78" cy="-6.55" r=".42"/><circle cx="10.24" cy="-4.7" r=".42"/><circle cx="12.08" cy="-4.7" r=".42"/><circle cx="13.93" cy="-4.68" r=".42"/><circle cx="15.78" cy="-4.7" r=".42"/><circle cx="10.24" cy="-2.85" r=".42"/><circle cx="12.08" cy="-2.85" r=".42"/><circle cx="13.93" cy="-2.84" r=".42"/><circle cx="15.78" cy="-2.85" r=".42"/><path d="M9.82-1a.42.42 0 0 1 .84 0M12.5-1a.42.42 0 0 0-.84 0M13.5-1a.42.42 0 0 1 .85 0M16.2-1a.42.42 0 0 0-.84 0"/><circle cx="17.63" cy="-13.95" r=".42"/><circle cx="19.47" cy="-13.95" r=".42"/><circle cx="21.32" cy="-13.94" r=".42"/><circle cx="23.17" cy="-13.96" r=".42"/><circle cx="17.63" cy="-12.1" r=".42"/><circle cx="19.47" cy="-12.1" r=".42"/><circle cx="21.32" cy="-12.09" r=".42"/><circle cx="23.17" cy="-12.11" r=".42"/><circle cx="17.63" cy="-10.25" r=".42"/><circle cx="19.47" cy="-10.25" r=".42"/><circle cx="21.32" cy="-10.24" r=".42"/><circle cx="23.17" cy="-10.26" r=".42"/><circle cx="17.63" cy="-8.4" r=".42"/><circle cx="19.47" cy="-8.4" r=".42"/><circle cx="21.32" cy="-8.39" r=".42"/><circle cx="23.17" cy="-8.41" r=".42"/><circle cx="25.03" cy="-13.95" r=".42"/><circle cx="26.87" cy="-13.95" r=".42"/><circle cx="28.72" cy="-13.94" r=".42"/><circle cx="30.57" cy="-13.96" r=".42"/><circle cx="25.03" cy="-12.1" r=".42"/><circle cx="26.87" cy="-12.1" r=".42"/><circle cx="28.72" cy="-12.09" r=".42"/><circle cx="30.57" cy="-12.11" r=".42"/><circle cx="25.03" cy="-10.25" r=".42"/><circle cx="26.87" cy="-10.25" r=".42"/><circle cx="28.72" cy="-10.24" r=".42"/><circle cx="30.57" cy="-10.26" r=".42"/><circle cx="25.03" cy="-8.4" r=".42"/><circle cx="26.87" cy="-8.4" r=".42"/><circle cx="28.72" cy="-8.39" r=".42"/><circle cx="30.57" cy="-8.41" r=".42"/><circle cx="17.63" cy="-6.54" r=".42"/><circle cx="19.47" cy="-6.54" r=".42"/><circle cx="21.32" cy="-6.53" r=".42"/><circle cx="23.17" cy="-6.55" r=".42"/><circle cx="17.63" cy="-4.7" r=".42"/><circle cx="19.47" cy="-4.7" r=".42"/><circle cx="21.32" cy="-4.68" r=".42"/><circle cx="23.17" cy="-4.7" r=".42"/><circle cx="17.63" cy="-2.85" r=".42"/><circle cx="19.47" cy="-2.85" r=".42"/><circle cx="21.32" cy="-2.84" r=".42"/><circle cx="23.17" cy="-2.85" r=".42"/><path d="M17.2-1a.42.42 0 0 1 .85 0M19.9-1a.42.42 0 0 0-.85 0M20.9-1a.42.42 0 0 1 .84 0M23.6-1a.42.42 0 0 0-.86 0"/><circle cx="25.03" cy="-6.54" r=".42"/><circle cx="26.87" cy="-6.54" r=".42"/><circle cx="28.72" cy="-6.53" r=".42"/><circle cx="30.57" cy="-6.55" r=".42"/><circle cx="25.03" cy="-4.7" r=".42"/><circle cx="26.87" cy="-4.7" r=".42"/><circle cx="28.72" cy="-4.68" r=".42"/><circle cx="30.57" cy="-4.7" r=".42"/><circle cx="25.03" cy="-2.85" r=".42"/><circle cx="26.87" cy="-2.85" r=".42"/><circle cx="28.72" cy="-2.84" r=".42"/><circle cx="30.57" cy="-2.85" r=".42"/><path d="M24.6-1a.42.42 0 0 1 .85 0M27.3-1a.42.42 0 0 0-.86 0M28.3-1a.42.42 0 0 1 .84 0M31-1a.42.42 0 0 0-.86 0"/><circle cx="32.41" cy="-58.37" r=".42"/><circle cx="34.24" cy="-58.37" r=".42"/><circle cx="36.09" cy="-58.36" r=".42"/><circle cx="37.94" cy="-58.38" r=".42"/><circle cx="32.41" cy="-56.52" r=".42"/><circle cx="34.24" cy="-56.52" r=".42"/><circle cx="36.09" cy="-56.51" r=".42"/><circle cx="37.94" cy="-56.53" r=".42"/><circle cx="32.41" cy="-54.67" r=".42"/><circle cx="34.24" cy="-54.67" r=".42"/><circle cx="36.09" cy="-54.66" r=".42"/><circle cx="37.94" cy="-54.68" r=".42"/><circle cx="32.41" cy="-52.82" r=".42"/><circle cx="34.24" cy="-52.82" r=".42"/><circle cx="36.09" cy="-52.81" r=".42"/><circle cx="37.94" cy="-52.83" r=".42"/><circle cx="39.8" cy="-58.37" r=".42"/><circle cx="41.64" cy="-58.37" r=".42"/><circle cx="43.49" cy="-58.36" r=".42"/><circle cx="45.34" cy="-58.38" r=".42"/><circle cx="39.8" cy="-56.52" r=".42"/><circle cx="41.64" cy="-56.52" r=".42"/><circle cx="43.49" cy="-56.51" r=".42"/><circle cx="45.34" cy="-56.53" r=".42"/><circle cx="39.8" cy="-54.67" r=".42"/><circle cx="41.64" cy="-54.67" r=".42"/><circle cx="43.49" cy="-54.66" r=".42"/><circle cx="45.34" cy="-54.68" r=".42"/><circle cx="39.8" cy="-52.82" r=".42"/><circle cx="41.64" cy="-52.82" r=".42"/><circle cx="43.49" cy="-52.81" r=".42"/><circle cx="45.34" cy="-52.83" r=".42"/><circle cx="32.41" cy="-50.97" r=".42"/><circle cx="34.24" cy="-50.97" r=".42"/><circle cx="36.09" cy="-50.96" r=".42"/><circle cx="37.94" cy="-50.98" r=".42"/><circle cx="32.41" cy="-49.12" r=".42"/><circle cx="34.24" cy="-49.12" r=".42"/><circle cx="36.09" cy="-49.11" r=".42"/><circle cx="37.94" cy="-49.13" r=".42"/><circle cx="32.41" cy="-47.27" r=".42"/><circle cx="34.24" cy="-47.27" r=".42"/><circle cx="36.09" cy="-47.26" r=".42"/><circle cx="37.94" cy="-47.28" r=".42"/><circle cx="32.41" cy="-45.42" r=".42"/><circle cx="34.24" cy="-45.42" r=".42"/><circle cx="36.09" cy="-45.41" r=".42"/><circle cx="37.94" cy="-45.43" r=".42"/><circle cx="39.8" cy="-50.97" r=".42"/><circle cx="41.64" cy="-50.97" r=".42"/><circle cx="43.49" cy="-50.96" r=".42"/><circle cx="45.34" cy="-50.98" r=".42"/><circle cx="39.8" cy="-49.12" r=".42"/><circle cx="41.64" cy="-49.12" r=".42"/><circle cx="43.49" cy="-49.11" r=".42"/><circle cx="45.34" cy="-49.13" r=".42"/><circle cx="39.8" cy="-47.27" r=".42"/><circle cx="41.64" cy="-47.27" r=".42"/><circle cx="43.49" cy="-47.26" r=".42"/><circle cx="45.34" cy="-47.28" r=".42"/><circle cx="39.8" cy="-45.42" r=".42"/><circle cx="41.64" cy="-45.42" r=".42"/><circle cx="43.49" cy="-45.41" r=".42"/><circle cx="45.34" cy="-45.43" r=".42"/><circle cx="47.19" cy="-58.37" r=".42"/><circle cx="49.03" cy="-58.37" r=".42"/><circle cx="50.88" cy="-58.36" r=".42"/><circle cx="52.73" cy="-58.38" r=".42"/><circle cx="47.19" cy="-56.52" r=".42"/><circle cx="49.03" cy="-56.52" r=".42"/><circle cx="50.88" cy="-56.51" r=".42"/><circle cx="52.73" cy="-56.53" r=".42"/><circle cx="47.19" cy="-54.67" r=".42"/><circle cx="49.03" cy="-54.67" r=".42"/><circle cx="50.88" cy="-54.66" r=".42"/><circle cx="52.73" cy="-54.68" r=".42"/><circle cx="47.19" cy="-52.82" r=".42"/><circle cx="49.03" cy="-52.82" r=".42"/><circle cx="50.88" cy="-52.81" r=".42"/><circle cx="52.73" cy="-52.83" r=".42"/><circle cx="54.59" cy="-58.37" r=".42"/><circle cx="56.43" cy="-58.37" r=".42"/><circle cx="58.28" cy="-58.36" r=".42"/><path d="M60.18-58.8h-.05a.42.42 0 1 0 .05.84"/><circle cx="54.59" cy="-56.52" r=".42"/><circle cx="56.43" cy="-56.52" r=".42"/><circle cx="58.28" cy="-56.51" r=".42"/><path d="M60.18-56.95h-.05a.42.42 0 1 0 .05.84"/><circle cx="54.59" cy="-54.67" r=".42"/><circle cx="56.43" cy="-54.67" r=".42"/><circle cx="58.28" cy="-54.66" r=".42"/><path d="M60.18-55.1h-.05a.42.42 0 1 0 .05.84"/><circle cx="54.59" cy="-52.82" r=".42"/><circle cx="56.43" cy="-52.82" r=".42"/><circle cx="58.28" cy="-52.81" r=".42"/><path d="M60.18-53.25h-.05a.42.42 0 1 0 .05.84"/><circle cx="47.19" cy="-50.97" r=".42"/><circle cx="49.03" cy="-50.97" r=".42"/><circle cx="50.88" cy="-50.96" r=".42"/><circle cx="52.73" cy="-50.98" r=".42"/><circle cx="47.19" cy="-49.12" r=".42"/><circle cx="49.03" cy="-49.12" r=".42"/><circle cx="50.88" cy="-49.11" r=".42"/><circle cx="52.73" cy="-49.13" r=".42"/><circle cx="47.19" cy="-47.27" r=".42"/><circle cx="49.03" cy="-47.27" r=".42"/><circle cx="50.88" cy="-47.26" r=".42"/><circle cx="52.73" cy="-47.28" r=".42"/><circle cx="47.19" cy="-45.42" r=".42"/><circle cx="49.03" cy="-45.42" r=".42"/><circle cx="50.88" cy="-45.41" r=".42"/><circle cx="52.73" cy="-45.43" r=".42"/><circle cx="54.59" cy="-50.97" r=".42"/><circle cx="56.43" cy="-50.97" r=".42"/><circle cx="58.28" cy="-50.96" r=".42"/><path d="M60.18-51.4h-.05a.42.42 0 1 0 .05.84"/><circle cx="54.59" cy="-49.12" r=".42"/><circle cx="56.43" cy="-49.12" r=".42"/><circle cx="58.28" cy="-49.11" r=".42"/><path d="M60.18-49.55h-.05a.42.42 0 1 0 .05.84"/><circle cx="54.59" cy="-47.27" r=".42"/><circle cx="56.43" cy="-47.27" r=".42"/><circle cx="58.28" cy="-47.26" r=".42"/><path d="M60.18-47.7h-.05a.42.42 0 1 0 .05.84"/><circle cx="54.59" cy="-45.42" r=".42"/><circle cx="56.43" cy="-45.42" r=".42"/><circle cx="58.28" cy="-45.41" r=".42"/><path d="M60.18-45.85h-.05a.42.42 0 1 0 .05.84"/><circle cx="32.41" cy="-43.56" r=".42"/><circle cx="34.24" cy="-43.56" r=".42"/><circle cx="36.09" cy="-43.55" r=".42"/><circle cx="37.94" cy="-43.57" r=".42"/><circle cx="32.41" cy="-41.71" r=".42"/><circle cx="34.24" cy="-41.71" r=".42"/><circle cx="36.09" cy="-41.7" r=".42"/><circle cx="37.94" cy="-41.72" r=".42"/><circle cx="32.41" cy="-39.86" r=".42"/><circle cx="34.24" cy="-39.86" r=".42"/><circle cx="36.09" cy="-39.85" r=".42"/><circle cx="37.94" cy="-39.87" r=".42"/><circle cx="32.41" cy="-38.01" r=".42"/><circle cx="34.24" cy="-38.01" r=".42"/><circle cx="36.09" cy="-38" r=".42"/><circle cx="37.94" cy="-38.02" r=".42"/><circle cx="39.8" cy="-43.56" r=".42"/><circle cx="41.64" cy="-43.56" r=".42"/><circle cx="43.49" cy="-43.55" r=".42"/><circle cx="45.34" cy="-43.57" r=".42"/><circle cx="39.8" cy="-41.71" r=".42"/><circle cx="41.64" cy="-41.71" r=".42"/><circle cx="43.49" cy="-41.7" r=".42"/><circle cx="45.34" cy="-41.72" r=".42"/><circle cx="39.8" cy="-39.86" r=".42"/><circle cx="41.64" cy="-39.86" r=".42"/><circle cx="43.49" cy="-39.85" r=".42"/><circle cx="45.34" cy="-39.87" r=".42"/><circle cx="39.8" cy="-38.01" r=".42"/><circle cx="41.64" cy="-38.01" r=".42"/><circle cx="43.49" cy="-38" r=".42"/><circle cx="45.34" cy="-38.02" r=".42"/><circle cx="32.41" cy="-36.16" r=".42"/><circle cx="34.24" cy="-36.16" r=".42"/><circle cx="36.09" cy="-36.15" r=".42"/><circle cx="37.94" cy="-36.16" r=".42"/><circle cx="32.41" cy="-34.31" r=".42"/><circle cx="34.24" cy="-34.31" r=".42"/><circle cx="36.09" cy="-34.3" r=".42"/><circle cx="37.94" cy="-34.31" r=".42"/><circle cx="32.41" cy="-32.46" r=".42"/><circle cx="34.24" cy="-32.46" r=".42"/><circle cx="36.09" cy="-32.45" r=".42"/><circle cx="37.94" cy="-32.47" r=".42"/><circle cx="32.41" cy="-30.61" r=".42"/><circle cx="34.24" cy="-30.61" r=".42"/><circle cx="36.09" cy="-30.6" r=".42"/><circle cx="37.94" cy="-30.62" r=".42"/><circle cx="39.8" cy="-36.16" r=".42"/><circle cx="41.64" cy="-36.16" r=".42"/><circle cx="43.49" cy="-36.15" r=".42"/><circle cx="45.34" cy="-36.16" r=".42"/><circle cx="39.8" cy="-34.31" r=".42"/><circle cx="41.64" cy="-34.31" r=".42"/><circle cx="43.49" cy="-34.3" r=".42"/><circle cx="45.34" cy="-34.31" r=".42"/><circle cx="39.8" cy="-32.46" r=".42"/><circle cx="41.64" cy="-32.46" r=".42"/><circle cx="43.49" cy="-32.45" r=".42"/><circle cx="45.34" cy="-32.47" r=".42"/><circle cx="39.8" cy="-30.61" r=".42"/><circle cx="41.64" cy="-30.61" r=".42"/><circle cx="43.49" cy="-30.6" r=".42"/><circle cx="45.34" cy="-30.62" r=".42"/><circle cx="47.19" cy="-43.56" r=".42"/><circle cx="49.03" cy="-43.56" r=".42"/><circle cx="50.88" cy="-43.55" r=".42"/><circle cx="52.73" cy="-43.57" r=".42"/><circle cx="47.19" cy="-41.71" r=".42"/><circle cx="49.03" cy="-41.71" r=".42"/><circle cx="50.88" cy="-41.7" r=".42"/><circle cx="52.73" cy="-41.72" r=".42"/><circle cx="47.19" cy="-39.86" r=".42"/><circle cx="49.03" cy="-39.86" r=".42"/><circle cx="50.88" cy="-39.85" r=".42"/><circle cx="52.73" cy="-39.87" r=".42"/><circle cx="47.19" cy="-38.01" r=".42"/><circle cx="49.03" cy="-38.01" r=".42"/><circle cx="50.88" cy="-38" r=".42"/><circle cx="52.73" cy="-38.02" r=".42"/><circle cx="54.59" cy="-43.56" r=".42"/><circle cx="56.43" cy="-43.56" r=".42"/><circle cx="58.28" cy="-43.55" r=".42"/><path d="M60.18-43.99h-.05a.42.42 0 1 0 .05.84"/><circle cx="54.59" cy="-41.71" r=".42"/><circle cx="56.43" cy="-41.71" r=".42"/><circle cx="58.28" cy="-41.7" r=".42"/><path d="M60.18-42.14h-.05a.42.42 0 1 0 .05.84"/><circle cx="54.59" cy="-39.86" r=".42"/><circle cx="56.43" cy="-39.86" r=".42"/><circle cx="58.28" cy="-39.85" r=".42"/><path d="M60.18-40.29h-.05a.42.42 0 1 0 .05.84"/><circle cx="54.59" cy="-38.01" r=".42"/><circle cx="56.43" cy="-38.01" r=".42"/><circle cx="58.28" cy="-38" r=".42"/><path d="M60.18-38.44h-.05a.42.42 0 1 0 .05.84"/><circle cx="47.19" cy="-36.16" r=".42"/><circle cx="49.03" cy="-36.16" r=".42"/><circle cx="50.88" cy="-36.15" r=".42"/><circle cx="52.73" cy="-36.16" r=".42"/><circle cx="47.19" cy="-34.31" r=".42"/><circle cx="49.03" cy="-34.31" r=".42"/><circle cx="50.88" cy="-34.3" r=".42"/><circle cx="52.73" cy="-34.31" r=".42"/><circle cx="47.19" cy="-32.46" r=".42"/><circle cx="49.03" cy="-32.46" r=".42"/><circle cx="50.88" cy="-32.45" r=".42"/><circle cx="52.73" cy="-32.47" r=".42"/><circle cx="47.19" cy="-30.61" r=".42"/><circle cx="49.03" cy="-30.61" r=".42"/><circle cx="50.88" cy="-30.6" r=".42"/><circle cx="52.73" cy="-30.62" r=".42"/><circle cx="54.59" cy="-36.16" r=".42"/><circle cx="56.43" cy="-36.16" r=".42"/><circle cx="58.28" cy="-36.15" r=".42"/><path d="M60.18-36.59h-.05a.42.42 0 1 0 .05.85"/><circle cx="54.59" cy="-34.31" r=".42"/><circle cx="56.43" cy="-34.31" r=".42"/><circle cx="58.28" cy="-34.3" r=".42"/><path d="M60.18-34.74h-.05a.42.42 0 1 0 .05.84"/><circle cx="54.59" cy="-32.46" r=".42"/><circle cx="56.43" cy="-32.46" r=".42"/><circle cx="58.28" cy="-32.45" r=".42"/><path d="M60.18-32.89h-.05a.42.42 0 1 0 .05.84"/><circle cx="54.59" cy="-30.61" r=".42"/><circle cx="56.43" cy="-30.61" r=".42"/><circle cx="58.28" cy="-30.6" r=".42"/><path d="M60.18-31.04h-.05a.42.42 0 1 0 .05.84"/><circle cx="32.41" cy="-28.76" r=".42"/><circle cx="34.24" cy="-28.76" r=".42"/><circle cx="36.09" cy="-28.75" r=".42"/><circle cx="37.94" cy="-28.77" r=".42"/><circle cx="32.41" cy="-26.91" r=".42"/><circle cx="34.24" cy="-26.91" r=".42"/><circle cx="36.09" cy="-26.9" r=".42"/><circle cx="37.94" cy="-26.92" r=".42"/><circle cx="32.41" cy="-25.06" r=".42"/><circle cx="34.24" cy="-25.06" r=".42"/><circle cx="36.09" cy="-25.05" r=".42"/><circle cx="37.94" cy="-25.07" r=".42"/><circle cx="32.41" cy="-23.21" r=".42"/><circle cx="34.24" cy="-23.21" r=".42"/><circle cx="36.09" cy="-23.2" r=".42"/><circle cx="37.94" cy="-23.22" r=".42"/><circle cx="39.8" cy="-28.76" r=".42"/><circle cx="41.64" cy="-28.76" r=".42"/><circle cx="43.49" cy="-28.75" r=".42"/><circle cx="45.34" cy="-28.77" r=".42"/><circle cx="39.8" cy="-26.91" r=".42"/><circle cx="41.64" cy="-26.91" r=".42"/><circle cx="43.49" cy="-26.9" r=".42"/><circle cx="45.34" cy="-26.92" r=".42"/><circle cx="39.8" cy="-25.06" r=".42"/><circle cx="41.64" cy="-25.06" r=".42"/><circle cx="43.49" cy="-25.05" r=".42"/><circle cx="45.34" cy="-25.07" r=".42"/><circle cx="39.8" cy="-23.21" r=".42"/><circle cx="41.64" cy="-23.21" r=".42"/><circle cx="43.49" cy="-23.2" r=".42"/><circle cx="45.34" cy="-23.22" r=".42"/><circle cx="32.41" cy="-21.36" r=".42"/><circle cx="34.24" cy="-21.36" r=".42"/><circle cx="36.09" cy="-21.35" r=".42"/><circle cx="37.94" cy="-21.37" r=".42"/><circle cx="32.41" cy="-19.51" r=".42"/><circle cx="34.24" cy="-19.51" r=".42"/><circle cx="36.09" cy="-19.5" r=".42"/><circle cx="37.94" cy="-19.52" r=".42"/><circle cx="32.41" cy="-17.66" r=".42"/><circle cx="34.24" cy="-17.66" r=".42"/><circle cx="36.09" cy="-17.65" r=".42"/><circle cx="37.94" cy="-17.67" r=".42"/><circle cx="32.41" cy="-15.81" r=".42"/><circle cx="34.24" cy="-15.81" r=".42"/><circle cx="36.09" cy="-15.8" r=".42"/><circle cx="37.94" cy="-15.82" r=".42"/><circle cx="39.8" cy="-21.36" r=".42"/><circle cx="41.64" cy="-21.36" r=".42"/><circle cx="43.49" cy="-21.35" r=".42"/><circle cx="45.34" cy="-21.37" r=".42"/><circle cx="39.8" cy="-19.51" r=".42"/><circle cx="41.64" cy="-19.51" r=".42"/><circle cx="43.49" cy="-19.5" r=".42"/><circle cx="45.34" cy="-19.52" r=".42"/><circle cx="39.8" cy="-17.66" r=".42"/><circle cx="41.64" cy="-17.66" r=".42"/><circle cx="43.49" cy="-17.65" r=".42"/><circle cx="45.34" cy="-17.67" r=".42"/><circle cx="39.8" cy="-15.81" r=".42"/><circle cx="41.64" cy="-15.81" r=".42"/><circle cx="43.49" cy="-15.8" r=".42"/><circle cx="45.34" cy="-15.82" r=".42"/><circle cx="47.19" cy="-28.76" r=".42"/><circle cx="49.03" cy="-28.76" r=".42"/><circle cx="50.88" cy="-28.75" r=".42"/><circle cx="52.73" cy="-28.77" r=".42"/><circle cx="47.19" cy="-26.91" r=".42"/><circle cx="49.03" cy="-26.91" r=".42"/><circle cx="50.88" cy="-26.9" r=".42"/><circle cx="52.73" cy="-26.92" r=".42"/><circle cx="47.19" cy="-25.06" r=".42"/><circle cx="49.03" cy="-25.06" r=".42"/><circle cx="50.88" cy="-25.05" r=".42"/><circle cx="52.73" cy="-25.07" r=".42"/><circle cx="47.19" cy="-23.21" r=".42"/><circle cx="49.03" cy="-23.21" r=".42"/><circle cx="50.88" cy="-23.2" r=".42"/><circle cx="52.73" cy="-23.22" r=".42"/><circle cx="54.59" cy="-28.76" r=".42"/><circle cx="56.43" cy="-28.76" r=".42"/><circle cx="58.28" cy="-28.75" r=".42"/><path d="M60.18-29.19h-.05a.42.42 0 1 0 .05.84"/><circle cx="54.59" cy="-26.91" r=".42"/><circle cx="56.43" cy="-26.91" r=".42"/><circle cx="58.28" cy="-26.9" r=".42"/><path d="M60.18-27.34h-.05a.42.42 0 1 0 .05.84"/><circle cx="54.59" cy="-25.06" r=".42"/><circle cx="56.43" cy="-25.06" r=".42"/><circle cx="58.28" cy="-25.05" r=".42"/><path d="M60.18-25.49h-.05a.42.42 0 1 0 .05.84"/><circle cx="54.59" cy="-23.21" r=".42"/><circle cx="56.43" cy="-23.21" r=".42"/><circle cx="58.28" cy="-23.2" r=".42"/><path d="M60.18-23.64h-.05a.42.42 0 1 0 .05.84"/><circle cx="47.19" cy="-21.36" r=".42"/><circle cx="49.03" cy="-21.36" r=".42"/><circle cx="50.88" cy="-21.35" r=".42"/><circle cx="52.73" cy="-21.37" r=".42"/><circle cx="47.19" cy="-19.51" r=".42"/><circle cx="49.03" cy="-19.51" r=".42"/><circle cx="50.88" cy="-19.5" r=".42"/><circle cx="52.73" cy="-19.52" r=".42"/><circle cx="47.19" cy="-17.66" r=".42"/><circle cx="49.03" cy="-17.66" r=".42"/><circle cx="50.88" cy="-17.65" r=".42"/><circle cx="52.73" cy="-17.67" r=".42"/><circle cx="47.19" cy="-15.81" r=".42"/><circle cx="49.03" cy="-15.81" r=".42"/><circle cx="50.88" cy="-15.8" r=".42"/><circle cx="52.73" cy="-15.82" r=".42"/><circle cx="54.59" cy="-21.36" r=".42"/><circle cx="56.43" cy="-21.36" r=".42"/><circle cx="58.28" cy="-21.35" r=".42"/><path d="M60.18-21.79h-.05a.42.42 0 1 0 .05.84"/><circle cx="54.59" cy="-19.51" r=".42"/><circle cx="56.43" cy="-19.51" r=".42"/><circle cx="58.28" cy="-19.5" r=".42"/><path d="M60.18-19.94h-.05a.42.42 0 1 0 .05.84"/><circle cx="54.59" cy="-17.66" r=".42"/><circle cx="56.43" cy="-17.66" r=".42"/><circle cx="58.28" cy="-17.65" r=".42"/><path d="M60.18-18.09h-.05a.42.42 0 1 0 .05.84"/><circle cx="54.59" cy="-15.81" r=".42"/><circle cx="56.43" cy="-15.81" r=".42"/><circle cx="58.28" cy="-15.8" r=".42"/><path d="M60.18-16.24h-.05a.42.42 0 1 0 .05.84"/><circle cx="32.41" cy="-13.95" r=".42"/><circle cx="34.24" cy="-13.95" r=".42"/><circle cx="36.09" cy="-13.94" r=".42"/><circle cx="37.94" cy="-13.96" r=".42"/><circle cx="32.41" cy="-12.1" r=".42"/><circle cx="34.24" cy="-12.1" r=".42"/><circle cx="36.09" cy="-12.09" r=".42"/><circle cx="37.94" cy="-12.11" r=".42"/><circle cx="32.41" cy="-10.25" r=".42"/><circle cx="34.24" cy="-10.25" r=".42"/><circle cx="36.09" cy="-10.24" r=".42"/><circle cx="37.94" cy="-10.26" r=".42"/><circle cx="32.41" cy="-8.4" r=".42"/><circle cx="34.24" cy="-8.4" r=".42"/><circle cx="36.09" cy="-8.39" r=".42"/><circle cx="37.94" cy="-8.41" r=".42"/><circle cx="39.8" cy="-13.95" r=".42"/><circle cx="41.64" cy="-13.95" r=".42"/><circle cx="43.49" cy="-13.94" r=".42"/><circle cx="45.34" cy="-13.96" r=".42"/><circle cx="39.8" cy="-12.1" r=".42"/><circle cx="41.64" cy="-12.1" r=".42"/><circle cx="43.49" cy="-12.09" r=".42"/><circle cx="45.34" cy="-12.11" r=".42"/><circle cx="39.8" cy="-10.25" r=".42"/><circle cx="41.64" cy="-10.25" r=".42"/><circle cx="43.49" cy="-10.24" r=".42"/><circle cx="45.34" cy="-10.26" r=".42"/><circle cx="39.8" cy="-8.4" r=".42"/><circle cx="41.64" cy="-8.4" r=".42"/><circle cx="43.49" cy="-8.39" r=".42"/><circle cx="45.34" cy="-8.41" r=".42"/><circle cx="32.41" cy="-6.54" r=".42"/><circle cx="34.24" cy="-6.54" r=".42"/><circle cx="36.09" cy="-6.53" r=".42"/><circle cx="37.94" cy="-6.55" r=".42"/><circle cx="32.41" cy="-4.7" r=".42"/><circle cx="34.24" cy="-4.7" r=".42"/><circle cx="36.09" cy="-4.68" r=".42"/><circle cx="37.94" cy="-4.7" r=".42"/><circle cx="32.41" cy="-2.85" r=".42"/><circle cx="34.24" cy="-2.85" r=".42"/><circle cx="36.09" cy="-2.84" r=".42"/><circle cx="37.94" cy="-2.85" r=".42"/><path d="M31.98-1a.42.42 0 0 1 .85 0M34.67-1a.42.42 0 0 0-.85 0M35.67-1a.42.42 0 0 1 .85 0M38.37-1a.42.42 0 0 0-.85 0"/><circle cx="39.8" cy="-6.54" r=".42"/><circle cx="41.64" cy="-6.54" r=".42"/><circle cx="43.49" cy="-6.53" r=".42"/><circle cx="45.34" cy="-6.55" r=".42"/><circle cx="39.8" cy="-4.7" r=".42"/><circle cx="41.64" cy="-4.7" r=".42"/><circle cx="43.49" cy="-4.68" r=".42"/><circle cx="45.34" cy="-4.7" r=".42"/><circle cx="39.8" cy="-2.85" r=".42"/><circle cx="41.64" cy="-2.85" r=".42"/><circle cx="43.49" cy="-2.84" r=".42"/><circle cx="45.34" cy="-2.85" r=".42"/><path d="M39.38-1a.42.42 0 0 1 .85 0M42.07-1a.42.42 0 0 0-.85 0M43.07-1a.42.42 0 0 1 .85 0M45.77-1a.42.42 0 0 0-.85 0"/><circle cx="47.19" cy="-13.95" r=".42"/><circle cx="49.03" cy="-13.95" r=".42"/><circle cx="50.88" cy="-13.94" r=".42"/><circle cx="52.73" cy="-13.96" r=".42"/><circle cx="47.19" cy="-12.1" r=".42"/><circle cx="49.03" cy="-12.1" r=".42"/><circle cx="50.88" cy="-12.09" r=".42"/><circle cx="52.73" cy="-12.11" r=".42"/><circle cx="47.19" cy="-10.25" r=".42"/><circle cx="49.03" cy="-10.25" r=".42"/><circle cx="50.88" cy="-10.24" r=".42"/><circle cx="52.73" cy="-10.26" r=".42"/><circle cx="47.19" cy="-8.4" r=".42"/><circle cx="49.03" cy="-8.4" r=".42"/><circle cx="50.88" cy="-8.39" r=".42"/><circle cx="52.73" cy="-8.41" r=".42"/><circle cx="54.59" cy="-13.95" r=".42"/><circle cx="56.43" cy="-13.95" r=".42"/><circle cx="58.28" cy="-13.94" r=".42"/><path d="M60.18-14.38h-.05a.42.42 0 1 0 .05.85"/><circle cx="54.59" cy="-12.1" r=".42"/><circle cx="56.43" cy="-12.1" r=".42"/><circle cx="58.28" cy="-12.09" r=".42"/><path d="M60.18-12.53h-.05a.42.42 0 1 0 .05.84"/><circle cx="54.59" cy="-10.25" r=".42"/><circle cx="56.43" cy="-10.25" r=".42"/><circle cx="58.28" cy="-10.24" r=".42"/><path d="M60.18-10.68h-.05a.42.42 0 1 0 .05.84"/><circle cx="54.59" cy="-8.4" r=".42"/><circle cx="56.43" cy="-8.4" r=".42"/><circle cx="58.28" cy="-8.39" r=".42"/><path d="M60.18-8.83h-.05a.42.42 0 1 0 .05.84"/><circle cx="47.19" cy="-6.54" r=".42"/><circle cx="49.03" cy="-6.54" r=".42"/><circle cx="50.88" cy="-6.53" r=".42"/><circle cx="52.73" cy="-6.55" r=".42"/><circle cx="47.19" cy="-4.7" r=".42"/><circle cx="49.03" cy="-4.7" r=".42"/><circle cx="50.88" cy="-4.68" r=".42"/><circle cx="52.73" cy="-4.7" r=".42"/><circle cx="47.19" cy="-2.85" r=".42"/><circle cx="49.03" cy="-2.85" r=".42"/><circle cx="50.88" cy="-2.84" r=".42"/><circle cx="52.73" cy="-2.85" r=".42"/><path d="M46.77-1a.42.42 0 0 1 .85 0M49.46-1a.42.42 0 0 0-.85 0M50.46-1a.42.42 0 0 1 .84 0M53.15-1a.42.42 0 0 0-.84 0"/><circle cx="54.59" cy="-6.54" r=".42"/><circle cx="56.43" cy="-6.54" r=".42"/><circle cx="58.28" cy="-6.53" r=".42"/><path d="M60.18-6.97h-.05a.42.42 0 1 0 .05.84"/><circle cx="54.59" cy="-4.7" r=".42"/><circle cx="56.43" cy="-4.7" r=".42"/><circle cx="58.28" cy="-4.68" r=".42"/><path d="M60.18-5.12h-.05a.42.42 0 1 0 .05.84"/><circle cx="54.59" cy="-2.85" r=".42"/><circle cx="56.43" cy="-2.85" r=".42"/><circle cx="58.28" cy="-2.84" r=".42"/><path d="M60.18-3.27h-.05a.42.42 0 1 0 .05.83M54.17-1a.42.42 0 0 1 .85 0M56.86-1A.42.42 0 0 0 56-1M57.86-1a.42.42 0 0 1 .84 0M60.18-1v-.43h-.05a.42.42 0 0 0-.42.42V-1h.47M2.42-60.18a.42.42 0 0 0 .85 0M1.44-60.18c0 .23-.2.42-.43.42v-.43h.43zM4.26-60.18a.42.42 0 0 0 .85 0M6.1-60.18a.42.42 0 1 0 .85 0M8.8-60.18a.42.42 0 0 1-.84 0M9.82-60.18a.42.42 0 0 0 .84 0M11.66-60.18a.42.42 0 0 0 .84 0M13.5-60.18a.42.42 0 1 0 .85 0M16.2-60.18a.42.42 0 0 1-.84 0M17.2-60.18a.42.42 0 0 0 .85 0M19.05-60.18a.42.42 0 1 0 .84 0M20.9-60.18a.42.42 0 0 0 .84 0M23.6-60.18c-.01.23-.2.41-.43.41a.42.42 0 0 1-.43-.41M24.6-60.18a.42.42 0 0 0 .85 0M26.45-60.18a.42.42 0 0 0 .84 0M28.3-60.18a.42.42 0 0 0 .84 0M31-60.18a.42.42 0 0 1-.86 0M31.98-60.18a.42.42 0 0 0 .85 0M33.82-60.18a.42.42 0 0 0 .85 0M35.67-60.18a.42.42 0 0 0 .85 0M38.37-60.18a.42.42 0 0 1-.85 0M39.38-60.18a.42.42 0 0 0 .85 0M41.22-60.18a.42.42 0 0 0 .85 0M43.07-60.18a.42.42 0 0 0 .85 0M45.77-60.18c0 .23-.2.41-.43.41s-.42-.18-.42-.41M46.77-60.18a.42.42 0 0 0 .85 0M48.6-60.18a.42.42 0 0 0 .85 0M50.46-60.18a.42.42 0 1 0 .85 0M53.15-60.18a.42.42 0 0 1-.84 0M54.17-60.18a.42.42 0 0 0 .85 0M56-60.18a.42.42 0 0 0 .85 0M57.86-60.18a.42.42 0 0 0 .84 0M60.17-60.18h-.42c0 .24.19.43.42.43v-.43"/></svg>