<svg xmlns="http://www.w3.org/2000/svg" xml:space="preserve" width="144" height="144" viewBox="1 -145 144 144"><path d="M1-145h144V-1H1z" style="fill:none"/><path d="M1-145h144V-1H1z"/><circle cx="12.96" cy="-143" r=".5" style="fill:#fff"/><circle cx="18.33" cy="-141.79" r=".5" style="fill:#fff"/><circle cx="26.67" cy="-143.71" r=".5" style="fill:#fff"/><circle cx="16" cy="-137.04" r=".5" style="fill:#fff"/><circle cx="10" cy="-139.04" r=".5" style="fill:#fff"/><circle cx="2.33" cy="-137.04" r=".5" style="fill:#fff"/><circle cx="8.33" cy="-133.37" r=".5" style="fill:#fff"/><circle cx="13.67" cy="-131.04" r=".5" style="fill:#fff"/><circle cx="20" cy="-128.71" r=".5" style="fill:#fff"/><circle cx="23" cy="-136.37" r=".5" style="fill:#fff"/><circle cx="29" cy="-136.04" r=".5" style="fill:#fff"/><circle cx="33.33" cy="-141.04" r=".5" style="fill:#fff"/><circle cx="39.67" cy="-142.71" r=".5" style="fill:#fff"/><circle cx="43.67" cy="-140.37" r=".5" style="fill:#fff"/><circle cx="50.5" cy="-139.96" r=".5" style="fill:#fff"/><circle cx="54" cy="-143.71" r=".5" style="fill:#fff"/><circle cx="57.67" cy="-139.04" r=".5" style="fill:#fff"/><circle cx="53.67" cy="-134.71" r=".5" style="fill:#fff"/><circle cx="50" cy="-128.71" r=".5" style="fill:#fff"/><circle cx="46.33" cy="-122.71" r=".5" style="fill:#fff"/><circle cx="43.6" cy="-126.47" r=".5" style="fill:#fff"/><circle cx="46.75" cy="-134.71" r=".5" style="fill:#fff"/><circle cx="45" cy="-117.21" r=".5" style="fill:#fff"/><circle cx="40.67" cy="-132.04" r=".5" style="fill:#fff"/><circle cx="37" cy="-126.71" r=".5" style="fill:#fff"/><circle cx="31.67" cy="-127.04" r=".5" style="fill:#fff"/><circle cx="30" cy="-123.04" r=".5" style="fill:#fff"/><circle cx="24.33" cy="-124.71" r=".5" style="fill:#fff"/><circle cx="24" cy="-118.37" r=".5" style="fill:#fff"/><circle cx="22" cy="-111.04" r=".5" style="fill:#fff"/><circle cx="20.33" cy="-104.71" r=".5" style="fill:#fff"/><circle cx="20.67" cy="-100.04" r=".5" style="fill:#fff"/><circle cx="14.33" cy="-98.71" r=".5" style="fill:#fff"/><circle cx="15" cy="-104.71" r=".5" style="fill:#fff"/><circle cx="16" cy="-110.37" r=".5" style="fill:#fff"/><circle cx="16.67" cy="-117.37" r=".5" style="fill:#fff"/><circle cx="18" cy="-122.71" r=".5" style="fill:#fff"/><circle cx="11.67" cy="-123.71" r=".5" style="fill:#fff"/><circle cx="6.33" cy="-127.71" r=".5" style="fill:#fff"/><circle cx="2.67" cy="-130.04" r=".5" style="fill:#fff"/><circle cx="3.67" cy="-120.37" r=".5" style="fill:#fff"/><circle cx="9.67" cy="-116.71" r=".5" style="fill:#fff"/><circle cx="7.67" cy="-110.71" r=".5" style="fill:#fff"/><circle cx="4" cy="-108.71" r=".5" style="fill:#fff"/><circle cx="3.33" cy="-114.71" r=".5" style="fill:#fff"/><circle cx="27.67" cy="-114.71" r=".5" style="fill:#fff"/><circle cx="35.67" cy="-120.37" r=".5" style="fill:#fff"/><circle cx="40" cy="-120.37" r=".5" style="fill:#fff"/><circle cx="39" cy="-112.71" r=".5" style="fill:#fff"/><circle cx="34.75" cy="-114.21" r=".5" style="fill:#fff"/><circle cx="38.67" cy="-108.37" r=".5" style="fill:#fff"/><circle cx="32" cy="-106.71" r=".5" style="fill:#fff"/><circle cx="27.33" cy="-109.04" r=".5" style="fill:#fff"/><circle cx="27" cy="-130.71" r=".5" style="fill:#fff"/><circle cx="34.33" cy="-132.04" r=".5" style="fill:#fff"/><circle cx="37" cy="-136.37" r=".5" style="fill:#fff"/><circle cx="63" cy="-142.37" r=".5" style="fill:#fff"/><circle cx="68.67" cy="-143.37" r=".5" style="fill:#fff"/><circle cx="70" cy="-138.71" r=".5" style="fill:#fff"/><circle cx="75" cy="-143.08" r=".5" style="fill:#fff"/><circle cx="81.67" cy="-143.37" r=".5" style="fill:#fff"/><circle cx="65.25" cy="-134.71" r=".5" style="fill:#fff"/><circle cx="59" cy="-134.71" r=".5" style="fill:#fff"/><circle cx="56.67" cy="-123.71" r=".5" style="fill:#fff"/><circle cx="60.33" cy="-129.46" r=".5" style="fill:#fff"/><circle cx="56" cy="-130.71" r=".5" style="fill:#fff"/><circle cx="69.33" cy="-132.04" r=".5" style="fill:#fff"/><circle cx="75.33" cy="-135.71" r=".5" style="fill:#fff"/><circle cx="82" cy="-139.04" r=".5" style="fill:#fff"/><circle cx="87.67" cy="-141.37" r=".5" style="fill:#fff"/><circle cx="94" cy="-143.37" r=".5" style="fill:#fff"/><circle cx="101.67" cy="-143.04" r=".5" style="fill:#fff"/><circle cx="93.33" cy="-136.46" r=".5" style="fill:#fff"/><circle cx="87.04" cy="-135.25" r=".5" style="fill:#fff"/><circle cx="82.67" cy="-130.12" r=".5" style="fill:#fff"/><circle cx="77.67" cy="-131.71" r=".5" style="fill:#fff"/><circle cx="76.5" cy="-126.71" r=".5" style="fill:#fff"/><circle cx="70" cy="-122.46" r=".5" style="fill:#fff"/><circle cx="63.67" cy="-120.71" r=".5" style="fill:#fff"/><circle cx="57.67" cy="-118.04" r=".5" style="fill:#fff"/><circle cx="68" cy="-116.45" r=".5" style="fill:#fff"/><circle cx="60.33" cy="-115.37" r=".5" style="fill:#fff"/><circle cx="56.33" cy="-110.71" r=".5" style="fill:#fff"/><circle cx="51.33" cy="-115.04" r=".5" style="fill:#fff"/><circle cx="51" cy="-108.04" r=".5" style="fill:#fff"/><circle cx="47" cy="-110.21" r=".5" style="fill:#fff"/><circle cx="50.33" cy="-103.37" r=".5" style="fill:#fff"/><circle cx="56" cy="-104.71" r=".5" style="fill:#fff"/><circle cx="62.71" cy="-107.41" r=".5" style="fill:#fff"/><circle cx="67" cy="-109.04" r=".5" style="fill:#fff"/><circle cx="65.33" cy="-112.37" r=".5" style="fill:#fff"/><circle cx="72.33" cy="-110.04" r=".5" style="fill:#fff"/><circle cx="73.33" cy="-115.04" r=".5" style="fill:#fff"/><circle cx="76.33" cy="-119.71" r=".5" style="fill:#fff"/><circle cx="81.67" cy="-123.37" r=".5" style="fill:#fff"/><circle cx="87" cy="-126.04" r=".5" style="fill:#fff"/><circle cx="89.63" cy="-130.75" r=".5" style="fill:#fff"/><circle cx="97.17" cy="-132.62" r=".5" style="fill:#fff"/><circle cx="99.17" cy="-138.62" r=".5" style="fill:#fff"/><circle cx="107.33" cy="-142.04" r=".5" style="fill:#fff"/><circle cx="114" cy="-143.71" r=".5" style="fill:#fff"/><circle cx="125.33" cy="-143.71" r=".5" style="fill:#fff"/><circle cx="119" cy="-141.04" r=".5" style="fill:#fff"/><circle cx="116" cy="-135.12" r=".5" style="fill:#fff"/><circle cx="109.25" cy="-134.46" r=".5" style="fill:#fff"/><circle cx="129.33" cy="-124.46" r=".5" style="fill:#fff"/><circle cx="102.67" cy="-131.62" r=".5" style="fill:#fff"/><circle cx="65.33" cy="-127.12" r=".5" style="fill:#fff"/><circle cx="71.33" cy="-128.04" r=".5" style="fill:#fff"/><circle cx="105.67" cy="-137.37" r=".5" style="fill:#fff"/><circle cx="92.37" cy="-125.41" r=".5" style="fill:#fff"/><circle cx="87.67" cy="-120.54" r=".5" style="fill:#fff"/><circle cx="82.33" cy="-116.71" r=".5" style="fill:#fff"/><circle cx="78.33" cy="-111.04" r=".5" style="fill:#fff"/><circle cx="84.67" cy="-107.79" r=".5" style="fill:#fff"/><circle cx="87" cy="-113.04" r=".5" style="fill:#fff"/><circle cx="98" cy="-121.12" r=".5" style="fill:#fff"/><circle cx="101.67" cy="-126.12" r=".5" style="fill:#fff"/><circle cx="97.33" cy="-128.71" r=".5" style="fill:#fff"/><circle cx="107.67" cy="-128.79" r=".5" style="fill:#fff"/><circle cx="114" cy="-129.79" r=".5" style="fill:#fff"/><circle cx="120" cy="-133.04" r=".5" style="fill:#fff"/><circle cx="123.67" cy="-138.04" r=".5" style="fill:#fff"/><circle cx="131.67" cy="-136.71" r=".5" style="fill:#fff"/><circle cx="128.67" cy="-139.37" r=".5" style="fill:#fff"/><circle cx="126" cy="-133.37" r=".5" style="fill:#fff"/><circle cx="120.33" cy="-128.71" r=".5" style="fill:#fff"/><circle cx="114" cy="-122.71" r=".5" style="fill:#fff"/><circle cx="107.67" cy="-123.04" r=".5" style="fill:#fff"/><circle cx="95.67" cy="-116.71" r=".5" style="fill:#fff"/><circle cx="95.33" cy="-110.04" r=".5" style="fill:#fff"/><circle cx="90.5" cy="-111.21" r=".5" style="fill:#fff"/><circle cx="90.75" cy="-103.71" r=".5" style="fill:#fff"/><circle cx="131.33" cy="-131.37" r=".5" style="fill:#fff"/><circle cx="125.63" cy="-127.41" r=".5" style="fill:#fff"/><circle cx="121" cy="-122.12" r=".5" style="fill:#fff"/><circle cx="115.33" cy="-117.71" r=".5" style="fill:#fff"/><circle cx="110" cy="-117.37" r=".5" style="fill:#fff"/><circle cx="106" cy="-113.04" r=".5" style="fill:#fff"/><circle cx="100.67" cy="-107.71" r=".5" style="fill:#fff"/><circle cx="106.33" cy="-106.71" r=".5" style="fill:#fff"/><circle cx="110.67" cy="-111.04" r=".5" style="fill:#fff"/><circle cx="116" cy="-111.37" r=".5" style="fill:#fff"/><circle cx="125" cy="-119.12" r=".5" style="fill:#fff"/><circle cx="136.67" cy="-125.46" r=".5" style="fill:#fff"/><circle cx="133" cy="-121.04" r=".5" style="fill:#fff"/><circle cx="144" cy="-125.37" r=".5" style="fill:#fff"/><circle cx="138" cy="-121.04" r=".5" style="fill:#fff"/><circle cx="134" cy="-116.71" r=".5" style="fill:#fff"/><circle cx="140" cy="-114.71" r=".5" style="fill:#fff"/><circle cx="143" cy="-119.04" r=".5" style="fill:#fff"/><circle cx="127.67" cy="-114.71" r=".5" style="fill:#fff"/><circle cx="122.25" cy="-112.96" r=".5" style="fill:#fff"/><circle cx="123.5" cy="-108.71" r=".5" style="fill:#fff"/><circle cx="118" cy="-107.21" r=".5" style="fill:#fff"/><circle cx="129.67" cy="-110.04" r=".5" style="fill:#fff"/><circle cx="136" cy="-109.04" r=".5" style="fill:#fff"/><circle cx="142.33" cy="-109.04" r=".5" style="fill:#fff"/><circle cx="138" cy="-105.37" r=".5" style="fill:#fff"/><circle cx="132" cy="-105.04" r=".5" style="fill:#fff"/><circle cx="126" cy="-102.71" r=".5" style="fill:#fff"/><circle cx="119.33" cy="-102.71" r=".5" style="fill:#fff"/><circle cx="121.67" cy="-98.71" r=".5" style="fill:#fff"/><circle cx="135" cy="-95.71" r=".5" style="fill:#fff"/><circle cx="104" cy="-117.45" r=".5" style="fill:#fff"/><circle cx="110.67" cy="-138.71" r=".5" style="fill:#fff"/><circle cx="116.5" cy="-95.71" r=".5" style="fill:#fff"/><circle cx="112.5" cy="-104.71" r=".5" style="fill:#fff"/><circle cx="106.5" cy="-99.96" r=".5" style="fill:#fff"/><circle cx="110.33" cy="-97.04" r=".5" style="fill:#fff"/><circle cx="115" cy="-100.71" r=".5" style="fill:#fff"/><circle cx="101.67" cy="-101.37" r=".5" style="fill:#fff"/><circle cx="95.33" cy="-103.04" r=".5" style="fill:#fff"/><circle cx="89.67" cy="-99.04" r=".5" style="fill:#fff"/><circle cx="83.63" cy="-102.08" r=".5" style="fill:#fff"/><circle cx="81.25" cy="-97.71" r=".5" style="fill:#fff"/><circle cx="84.67" cy="-93.71" r=".5" style="fill:#fff"/><circle cx="75.33" cy="-91.21" r=".5" style="fill:#fff"/><circle cx="63.33" cy="-83.87" r=".5" style="fill:#fff"/><circle cx="55" cy="-77.96" r=".5" style="fill:#fff"/><circle cx="38.67" cy="-77.62" r=".5" style="fill:#fff"/><circle cx="46.67" cy="-85.79" r=".5" style="fill:#fff"/><circle cx="29.33" cy="-86.54" r=".5" style="fill:#fff"/><circle cx="24.33" cy="-93.87" r=".5" style="fill:#fff"/><circle cx="48.17" cy="-72.62" r=".5" style="fill:#fff"/><circle cx="44" cy="-65.71" r=".5" style="fill:#fff"/><circle cx="49.25" cy="-61.46" r=".5" style="fill:#fff"/><circle cx="39" cy="-64.79" r=".5" style="fill:#fff"/><circle cx="27.67" cy="-34.71" r=".5" style="fill:#fff"/><circle cx="37.33" cy="-60.12" r=".5" style="fill:#fff"/><circle cx="28" cy="-67.21" r=".5" style="fill:#fff"/><circle cx="20.5" cy="-71.21" r=".5" style="fill:#fff"/><circle cx="21.5" cy="-79.71" r=".5" style="fill:#fff"/><circle cx="10.75" cy="-76.21" r=".5" style="fill:#fff"/><circle cx="4.25" cy="-79.21" r=".5" style="fill:#fff"/><circle cx="11.75" cy="-81.71" r=".5" style="fill:#fff"/><circle cx="16" cy="-78.46" r=".5" style="fill:#fff"/><circle cx="26.71" cy="-73.66" r=".5" style="fill:#fff"/><circle cx="31.75" cy="-74.96" r=".5" style="fill:#fff"/><circle cx="27.75" cy="-79.46" r=".5" style="fill:#fff"/><circle cx="34" cy="-79.71" r=".5" style="fill:#fff"/><circle cx="35" cy="-71.71" r=".5" style="fill:#fff"/><circle cx="41.33" cy="-72.12" r=".5" style="fill:#fff"/><circle cx="50.25" cy="-65.21" r=".5" style="fill:#fff"/><circle cx="59" cy="-73.87" r=".5" style="fill:#fff"/><circle cx="64.75" cy="-68.96" r=".5" style="fill:#fff"/><circle cx="62.75" cy="-64.96" r=".5" style="fill:#fff"/><circle cx="67.75" cy="-63.46" r=".5" style="fill:#fff"/><circle cx="68.5" cy="-59.21" r=".5" style="fill:#fff"/><circle cx="66.25" cy="-52.96" r=".5" style="fill:#fff"/><circle cx="65.5" cy="-47.71" r=".5" style="fill:#fff"/><circle cx="68.75" cy="-40.46" r=".5" style="fill:#fff"/><circle cx="73" cy="-46.37" r=".5" style="fill:#fff"/><circle cx="77.25" cy="-40.71" r=".5" style="fill:#fff"/><circle cx="73.25" cy="-35.71" r=".5" style="fill:#fff"/><circle cx="86" cy="-35.21" r=".5" style="fill:#fff"/><circle cx="79.75" cy="-35.46" r=".5" style="fill:#fff"/><circle cx="75.75" cy="-28.96" r=".5" style="fill:#fff"/><circle cx="68" cy="-30.96" r=".5" style="fill:#fff"/><circle cx="65.75" cy="-36.71" r=".5" style="fill:#fff"/><circle cx="62.75" cy="-41.21" r=".5" style="fill:#fff"/><circle cx="60.5" cy="-46.96" r=".5" style="fill:#fff"/><circle cx="59" cy="-52.38" r=".5" style="fill:#fff"/><circle cx="62.25" cy="-57.46" r=".5" style="fill:#fff"/><circle cx="55.33" cy="-62.38" r=".5" style="fill:#fff"/><circle cx="57" cy="-68.79" r=".5" style="fill:#fff"/><circle cx="56.5" cy="-58.21" r=".5" style="fill:#fff"/><circle cx="51.75" cy="-55.21" r=".5" style="fill:#fff"/><circle cx="53.75" cy="-49.21" r=".5" style="fill:#fff"/><circle cx="54" cy="-43.04" r=".5" style="fill:#fff"/><circle cx="56.67" cy="-37.38" r=".5" style="fill:#fff"/><circle cx="59" cy="-33.71" r=".5" style="fill:#fff"/><circle cx="61.25" cy="-29.96" r=".5" style="fill:#fff"/><circle cx="58.5" cy="-25.46" r=".5" style="fill:#fff"/><circle cx="51" cy="-25.71" r=".5" style="fill:#fff"/><circle cx="46" cy="-30.96" r=".5" style="fill:#fff"/><circle cx="42" cy="-26.96" r=".5" style="fill:#fff"/><circle cx="99.67" cy="-113.37" r=".5" style="fill:#fff"/><circle cx="35.5" cy="-17.96" r=".5" style="fill:#fff"/><circle cx="41.75" cy="-19.21" r=".5" style="fill:#fff"/><circle cx="43.67" cy="-14.71" r=".5" style="fill:#fff"/><circle cx="47.5" cy="-20.96" r=".5" style="fill:#fff"/><circle cx="38" cy="-13.12" r=".5" style="fill:#fff"/><circle cx="33.5" cy="-5.21" r=".5" style="fill:#fff"/><circle cx="30.67" cy="-10.12" r=".5" style="fill:#fff"/><circle cx="24" cy="-5.21" r=".5" style="fill:#fff"/><circle cx="21.04" cy="-9.66" r=".5" style="fill:#fff"/><circle cx="26" cy="-12.96" r=".5" style="fill:#fff"/><circle cx="28" cy="-18.71" r=".5" style="fill:#fff"/><circle cx="30" cy="-15.37" r=".5" style="fill:#fff"/><circle cx="36.67" cy="-7.37" r=".5" style="fill:#fff"/><circle cx="40" cy="-3.04" r=".5" style="fill:#fff"/><circle cx="18.5" cy="-2.21" r=".5" style="fill:#fff"/><circle cx="29" cy="-2.84" r=".5" style="fill:#fff"/><circle cx="20" cy="-23.21" r=".5" style="fill:#fff"/><circle cx="23" cy="-18.96" r=".5" style="fill:#fff"/><circle cx="15.75" cy="-18.96" r=".5" style="fill:#fff"/><circle cx="10.5" cy="-20.71" r=".5" style="fill:#fff"/><circle cx="5.5" cy="-17.46" r=".5" style="fill:#fff"/><circle cx="9.75" cy="-13.21" r=".5" style="fill:#fff"/><circle cx="17.25" cy="-13.21" r=".5" style="fill:#fff"/><circle cx="15.5" cy="-7.21" r=".5" style="fill:#fff"/><circle cx="10" cy="-6.96" r=".5" style="fill:#fff"/><circle cx="5.5" cy="-9.46" r=".5" style="fill:#fff"/><circle cx="2" cy="-5.21" r=".5" style="fill:#fff"/><circle cx="8.27" cy="-2.59" r=".5" style="fill:#fff"/><circle cx="31" cy="-96.21" r=".5" style="fill:#fff"/><circle cx="27.67" cy="-25.12" r=".5" style="fill:#fff"/><circle cx="23.33" cy="-28.71" r=".5" style="fill:#fff"/><circle cx="20" cy="-44.71" r=".5" style="fill:#fff"/><circle cx="20" cy="-52.38" r=".5" style="fill:#fff"/><circle cx="29.33" cy="-30.38" r=".5" style="fill:#fff"/><circle cx="34" cy="-24.46" r=".5" style="fill:#fff"/><circle cx="32.33" cy="-38.38" r=".5" style="fill:#fff"/><circle cx="43.33" cy="-24.04" r=".5" style="fill:#fff"/><circle cx="38.33" cy="-34.38" r=".5" style="fill:#fff"/><circle cx="43.75" cy="-36.96" r=".5" style="fill:#fff"/><circle cx="43" cy="-43.46" r=".5" style="fill:#fff"/><circle cx="32.17" cy="-44.63" r=".5" style="fill:#fff"/><circle cx="37.75" cy="-39.21" r=".5" style="fill:#fff"/><circle cx="35.67" cy="-30.38" r=".5" style="fill:#fff"/><circle cx="31.17" cy="-51.13" r=".5" style="fill:#fff"/><circle cx="37" cy="-46.46" r=".5" style="fill:#fff"/><circle cx="42.33" cy="-51.46" r=".5" style="fill:#fff"/><circle cx="47.75" cy="-46.37" r=".5" style="fill:#fff"/><circle cx="47.75" cy="-51.21" r=".5" style="fill:#fff"/><circle cx="43.5" cy="-58.37" r=".5" style="fill:#fff"/><circle cx="37" cy="-55.21" r=".5" style="fill:#fff"/><circle cx="31.5" cy="-57.21" r=".5" style="fill:#fff"/><circle cx="26.5" cy="-61.66" r=".5" style="fill:#fff"/><circle cx="22" cy="-64.96" r=".5" style="fill:#fff"/><circle cx="14.5" cy="-65.21" r=".5" style="fill:#fff"/><circle cx="15" cy="-69.71" r=".5" style="fill:#fff"/><circle cx="10.25" cy="-69.21" r=".5" style="fill:#fff"/><circle cx="4" cy="-71.46" r=".5" style="fill:#fff"/><circle cx="6" cy="-65.21" r=".5" style="fill:#fff"/><circle cx="8" cy="-60.96" r=".5" style="fill:#fff"/><circle cx="11.5" cy="-54.96" r=".5" style="fill:#fff"/><circle cx="15.25" cy="-50.96" r=".5" style="fill:#fff"/><circle cx="25.75" cy="-45.21" r=".5" style="fill:#fff"/><circle cx="26" cy="-39.21" r=".5" style="fill:#fff"/><circle cx="20.54" cy="-40" r=".5" style="fill:#fff"/><circle cx="15.75" cy="-42.96" r=".5" style="fill:#fff"/><circle cx="12" cy="-46.96" r=".5" style="fill:#fff"/><circle cx="7.75" cy="-50.96" r=".5" style="fill:#fff"/><circle cx="4" cy="-54.96" r=".5" style="fill:#fff"/><circle cx="15.75" cy="-59.21" r=".5" style="fill:#fff"/><circle cx="21" cy="-59.04" r=".5" style="fill:#fff"/><circle cx="25.33" cy="-49.71" r=".5" style="fill:#fff"/><circle cx="25.67" cy="-55.38" r=".5" style="fill:#fff"/><circle cx="15.79" cy="-33.25" r=".5" style="fill:#fff"/><circle cx="10" cy="-30.71" r=".5" style="fill:#fff"/><circle cx="6" cy="-24.71" r=".5" style="fill:#fff"/><circle cx="2.32" cy="-27.21" r=".5" style="fill:#fff"/><circle cx="13.04" cy="-27.66" r=".5" style="fill:#fff"/><circle cx="19" cy="-28.46" r=".5" style="fill:#fff"/><circle cx="22.25" cy="-33.21" r=".5" style="fill:#fff"/><circle cx="11.75" cy="-36.96" r=".5" style="fill:#fff"/><circle cx="7.5" cy="-40.71" r=".5" style="fill:#fff"/><circle cx="3.5" cy="-45.21" r=".5" style="fill:#fff"/><circle cx="5.5" cy="-35.21" r=".5" style="fill:#fff"/><circle cx="53.5" cy="-30.71" r=".5" style="fill:#fff"/><circle cx="51.5" cy="-34.46" r=".5" style="fill:#fff"/><circle cx="48.25" cy="-40.21" r=".5" style="fill:#fff"/><circle cx="79.25" cy="-56.21" r=".5" style="fill:#fff"/><circle cx="81.75" cy="-51.21" r=".5" style="fill:#fff"/><circle cx="87.33" cy="-54.38" r=".5" style="fill:#fff"/><circle cx="86" cy="-46.04" r=".5" style="fill:#fff"/><circle cx="92" cy="-42.96" r=".5" style="fill:#fff"/><circle cx="97.75" cy="-46.96" r=".5" style="fill:#fff"/><circle cx="99.29" cy="-41.66" r=".5" style="fill:#fff"/><circle cx="104" cy="-45.46" r=".5" style="fill:#fff"/><circle cx="110" cy="-40.71" r=".5" style="fill:#fff"/><circle cx="116.67" cy="-41.63" r=".5" style="fill:#fff"/><circle cx="119.75" cy="-37.21" r=".5" style="fill:#fff"/><circle cx="126.33" cy="-41.54" r=".5" style="fill:#fff"/><circle cx="132.25" cy="-34.96" r=".5" style="fill:#fff"/><circle cx="139.75" cy="-34.96" r=".5" style="fill:#fff"/><circle cx="143.67" cy="-37.38" r=".5" style="fill:#fff"/><circle cx="143.33" cy="-31.04" r=".5" style="fill:#fff"/><circle cx="143.68" cy="-23.26" r=".5" style="fill:#fff"/><circle cx="138" cy="-27.46" r=".5" style="fill:#fff"/><circle cx="132.25" cy="-30.46" r=".5" style="fill:#fff"/><circle cx="124.67" cy="-34.21" r=".5" style="fill:#fff"/><circle cx="113.75" cy="-35.96" r=".5" style="fill:#fff"/><circle cx="125.75" cy="-26.96" r=".5" style="fill:#fff"/><circle cx="132" cy="-23.21" r=".5" style="fill:#fff"/><circle cx="138.5" cy="-20.96" r=".5" style="fill:#fff"/><circle cx="144" cy="-17.21" r=".5" style="fill:#fff"/><circle cx="137.75" cy="-14.71" r=".5" style="fill:#fff"/><circle cx="143.25" cy="-9.46" r=".5" style="fill:#fff"/><circle cx="109.03" cy="-2.61" r=".5" style="fill:#fff"/><circle cx="136.67" cy="-2.37" r=".5" style="fill:#fff"/><circle cx="122.63" cy="-2.61" r=".5" style="fill:#fff"/><circle cx="140" cy="-7.21" r=".5" style="fill:#fff"/><circle cx="127.75" cy="-5.21" r=".5" style="fill:#fff"/><circle cx="131.75" cy="-9.21" r=".5" style="fill:#fff"/><circle cx="132.25" cy="-15.46" r=".5" style="fill:#fff"/><circle cx="126" cy="-12.21" r=".5" style="fill:#fff"/><circle cx="122" cy="-8.96" r=".5" style="fill:#fff"/><circle cx="117.5" cy="-5.21" r=".5" style="fill:#fff"/><circle cx="112.25" cy="-7.71" r=".5" style="fill:#fff"/><circle cx="105.5" cy="-9.71" r=".5" style="fill:#fff"/><circle cx="99.75" cy="-11.71" r=".5" style="fill:#fff"/><circle cx="91.75" cy="-15.21" r=".5" style="fill:#fff"/><circle cx="97.5" cy="-18.96" r=".5" style="fill:#fff"/><circle cx="104" cy="-16.71" r=".5" style="fill:#fff"/><circle cx="109.5" cy="-13.21" r=".5" style="fill:#fff"/><circle cx="115.75" cy="-12.71" r=".5" style="fill:#fff"/><circle cx="120.5" cy="-16.96" r=".5" style="fill:#fff"/><circle cx="125.5" cy="-19.71" r=".5" style="fill:#fff"/><circle cx="120" cy="-25.21" r=".5" style="fill:#fff"/><circle cx="116.25" cy="-30.21" r=".5" style="fill:#fff"/><circle cx="109.25" cy="-33.46" r=".5" style="fill:#fff"/><circle cx="104" cy="-31.46" r=".5" style="fill:#fff"/><circle cx="98.25" cy="-26.46" r=".5" style="fill:#fff"/><circle cx="92" cy="-22.87" r=".5" style="fill:#fff"/><circle cx="85.5" cy="-24.96" r=".5" style="fill:#fff"/><circle cx="85.25" cy="-29.96" r=".5" style="fill:#fff"/><circle cx="91.75" cy="-28.96" r=".5" style="fill:#fff"/><circle cx="97.75" cy="-32.71" r=".5" style="fill:#fff"/><circle cx="94" cy="-36.96" r=".5" style="fill:#fff"/><circle cx="88.25" cy="-39.46" r=".5" style="fill:#fff"/><circle cx="81.75" cy="-43.21" r=".5" style="fill:#fff"/><circle cx="77.75" cy="-47.21" r=".5" style="fill:#fff"/><circle cx="73.75" cy="-52.71" r=".5" style="fill:#fff"/><circle cx="104.25" cy="-22.46" r=".5" style="fill:#fff"/><circle cx="107.75" cy="-26.71" r=".5" style="fill:#fff"/><circle cx="109.5" cy="-20.96" r=".5" style="fill:#fff"/><circle cx="114" cy="-17.71" r=".5" style="fill:#fff"/><circle cx="114" cy="-23.21" r=".5" style="fill:#fff"/><circle cx="103.75" cy="-37.21" r=".5" style="fill:#fff"/><circle cx="87.25" cy="-18.54" r=".5" style="fill:#fff"/><circle cx="82.54" cy="-21" r=".5" style="fill:#fff"/><circle cx="74" cy="-22.46" r=".5" style="fill:#fff"/><circle cx="71.5" cy="-26.87" r=".5" style="fill:#fff"/><circle cx="64.75" cy="-24.96" r=".5" style="fill:#fff"/><circle cx="59.75" cy="-21.21" r=".5" style="fill:#fff"/><circle cx="54.04" cy="-21.91" r=".5" style="fill:#fff"/><circle cx="48.75" cy="-16.71" r=".5" style="fill:#fff"/><circle cx="46" cy="-10.96" r=".5" style="fill:#fff"/><circle cx="41.5" cy="-7.21" r=".5" style="fill:#fff"/><circle cx="48.25" cy="-2.96" r=".5" style="fill:#fff"/><circle cx="52" cy="-8.71" r=".5" style="fill:#fff"/><circle cx="57.75" cy="-12.46" r=".5" style="fill:#fff"/><circle cx="52.67" cy="-13.71" r=".5" style="fill:#fff"/><circle cx="63" cy="-16.46" r=".5" style="fill:#fff"/><circle cx="66.5" cy="-18.96" r=".5" style="fill:#fff"/><circle cx="78" cy="-16.96" r=".5" style="fill:#fff"/><circle cx="89" cy="-12.21" r=".5" style="fill:#fff"/><circle cx="95" cy="-7.21" r=".5" style="fill:#fff"/><circle cx="101.36" cy="-4.71" r=".5" style="fill:#fff"/><circle cx="91.5" cy="-3.71" r=".5" style="fill:#fff"/><circle cx="85.75" cy="-7.21" r=".5" style="fill:#fff"/><circle cx="81.25" cy="-11.46" r=".5" style="fill:#fff"/><circle cx="75.25" cy="-13.21" r=".5" style="fill:#fff"/><circle cx="70.25" cy="-15.46" r=".5" style="fill:#fff"/><circle cx="66.5" cy="-9.96" r=".5" style="fill:#fff"/><circle cx="60.25" cy="-7.46" r=".5" style="fill:#fff"/><circle cx="56.59" cy="-3.27" r=".5" style="fill:#fff"/><circle cx="62" cy="-3.71" r=".5" style="fill:#fff"/><circle cx="69.5" cy="-4.71" r=".5" style="fill:#fff"/><circle cx="77.5" cy="-7.21" r=".5" style="fill:#fff"/><circle cx="70" cy="-73.21" r=".5" style="fill:#fff"/><circle cx="81.25" cy="-83.71" r=".5" style="fill:#fff"/><circle cx="74.67" cy="-84.87" r=".5" style="fill:#fff"/><circle cx="85.25" cy="-79.71" r=".5" style="fill:#fff"/><circle cx="90" cy="-84.96" r=".5" style="fill:#fff"/><circle cx="93.75" cy="-90.96" r=".5" style="fill:#fff"/><circle cx="101.75" cy="-86.96" r=".5" style="fill:#fff"/><circle cx="97.75" cy="-96.71" r=".5" style="fill:#fff"/><circle cx="101.25" cy="-93.96" r=".5" style="fill:#fff"/><circle cx="106.75" cy="-92.96" r=".5" style="fill:#fff"/><circle cx="111.79" cy="-92.75" r=".5" style="fill:#fff"/><circle cx="111.25" cy="-87.46" r=".5" style="fill:#fff"/><circle cx="119.25" cy="-91.21" r=".5" style="fill:#fff"/><circle cx="124" cy="-92.96" r=".5" style="fill:#fff"/><circle cx="130" cy="-97.46" r=".5" style="fill:#fff"/><circle cx="136.54" cy="-100.33" r=".5" style="fill:#fff"/><circle cx="142.67" cy="-103.37" r=".5" style="fill:#fff"/><circle cx="139.5" cy="-93.21" r=".5" style="fill:#fff"/><circle cx="142.67" cy="-89.37" r=".5" style="fill:#fff"/><circle cx="138.25" cy="-86.46" r=".5" style="fill:#fff"/><circle cx="142.67" cy="-84.04" r=".5" style="fill:#fff"/><circle cx="131.5" cy="-90.96" r=".5" style="fill:#fff"/><circle cx="128" cy="-88.96" r=".5" style="fill:#fff"/><circle cx="125.33" cy="-83.71" r=".5" style="fill:#fff"/><circle cx="121.75" cy="-86.71" r=".5" style="fill:#fff"/><circle cx="117.75" cy="-82.96" r=".5" style="fill:#fff"/><circle cx="112" cy="-80.21" r=".5" style="fill:#fff"/><circle cx="106.25" cy="-84.21" r=".5" style="fill:#fff"/><circle cx="97" cy="-86.21" r=".5" style="fill:#fff"/><circle cx="92.75" cy="-81.71" r=".5" style="fill:#fff"/><circle cx="87.75" cy="-75.21" r=".5" style="fill:#fff"/><circle cx="85" cy="-71.21" r=".5" style="fill:#fff"/><circle cx="82" cy="-65.46" r=".5" style="fill:#fff"/><circle cx="88" cy="-60.46" r=".5" style="fill:#fff"/><circle cx="91.33" cy="-62.71" r=".5" style="fill:#fff"/><circle cx="96" cy="-65.21" r=".5" style="fill:#fff"/><circle cx="89.75" cy="-67.71" r=".5" style="fill:#fff"/><circle cx="92" cy="-72.96" r=".5" style="fill:#fff"/><circle cx="95.25" cy="-78.21" r=".5" style="fill:#fff"/><circle cx="101.75" cy="-73.21" r=".5" style="fill:#fff"/><circle cx="97.5" cy="-68.96" r=".5" style="fill:#fff"/><circle cx="105.71" cy="-66.66" r=".5" style="fill:#fff"/><circle cx="100.75" cy="-61.46" r=".5" style="fill:#fff"/><circle cx="107.75" cy="-61.21" r=".5" style="fill:#fff"/><circle cx="104.96" cy="-57.66" r=".5" style="fill:#fff"/><circle cx="111.25" cy="-54.96" r=".5" style="fill:#fff"/><circle cx="117.25" cy="-53.46" r=".5" style="fill:#fff"/><circle cx="124" cy="-56.96" r=".5" style="fill:#fff"/><circle cx="130.25" cy="-54.96" r=".5" style="fill:#fff"/><circle cx="136.75" cy="-50.96" r=".5" style="fill:#fff"/><circle cx="141.5" cy="-51.21" r=".5" style="fill:#fff"/><circle cx="142.75" cy="-46.71" r=".5" style="fill:#fff"/><circle cx="139.75" cy="-41.21" r=".5" style="fill:#fff"/><circle cx="132.33" cy="-43.71" r=".5" style="fill:#fff"/><circle cx="135.75" cy="-45.46" r=".5" style="fill:#fff"/><circle cx="128" cy="-47.21" r=".5" style="fill:#fff"/><circle cx="123.25" cy="-50.71" r=".5" style="fill:#fff"/><circle cx="120.25" cy="-45.21" r=".5" style="fill:#fff"/><circle cx="113.75" cy="-47.46" r=".5" style="fill:#fff"/><circle cx="109.5" cy="-47.71" r=".5" style="fill:#fff"/><circle cx="104" cy="-50.96" r=".5" style="fill:#fff"/><circle cx="98" cy="-55.21" r=".5" style="fill:#fff"/><circle cx="92.25" cy="-52.46" r=".5" style="fill:#fff"/><circle cx="94.33" cy="-57.71" r=".5" style="fill:#fff"/><circle cx="81.5" cy="-59.71" r=".5" style="fill:#fff"/><circle cx="73.75" cy="-67.21" r=".5" style="fill:#fff"/><circle cx="73.25" cy="-61.21" r=".5" style="fill:#fff"/><circle cx="69.67" cy="-54.38" r=".5" style="fill:#fff"/><circle cx="76.25" cy="-71.71" r=".5" style="fill:#fff"/><circle cx="79.67" cy="-75.71" r=".5" style="fill:#fff"/><circle cx="102" cy="-81.21" r=".5" style="fill:#fff"/><circle cx="105" cy="-78.46" r=".5" style="fill:#fff"/><circle cx="110" cy="-69.71" r=".5" style="fill:#fff"/><circle cx="114.75" cy="-73.71" r=".5" style="fill:#fff"/><circle cx="117.5" cy="-76.96" r=".5" style="fill:#fff"/><circle cx="121.75" cy="-79.21" r=".5" style="fill:#fff"/><circle cx="129.75" cy="-79.71" r=".5" style="fill:#fff"/><circle cx="133.75" cy="-83.46" r=".5" style="fill:#fff"/><circle cx="138.3" cy="-80.04" r=".5" style="fill:#fff"/><circle cx="136" cy="-75.21" r=".5" style="fill:#fff"/><circle cx="143" cy="-73.46" r=".5" style="fill:#fff"/><circle cx="141.75" cy="-67.71" r=".5" style="fill:#fff"/><circle cx="143.33" cy="-56.04" r=".5" style="fill:#fff"/><circle cx="132" cy="-71.46" r=".5" style="fill:#fff"/><circle cx="125" cy="-75.71" r=".5" style="fill:#fff"/><circle cx="121.5" cy="-71.21" r=".5" style="fill:#fff"/><circle cx="116.25" cy="-67.21" r=".5" style="fill:#fff"/><circle cx="111" cy="-63.21" r=".5" style="fill:#fff"/><circle cx="117.75" cy="-61.21" r=".5" style="fill:#fff"/><circle cx="114.33" cy="-57.71" r=".5" style="fill:#fff"/><circle cx="90.33" cy="-49.38" r=".5" style="fill:#fff"/><circle cx="123" cy="-65.46" r=".5" style="fill:#fff"/><circle cx="127.75" cy="-68.71" r=".5" style="fill:#fff"/><circle cx="132.75" cy="-62.96" r=".5" style="fill:#fff"/><circle cx="136.25" cy="-65.96" r=".5" style="fill:#fff"/><circle cx="128.5" cy="-60.71" r=".5" style="fill:#fff"/><circle cx="135.5" cy="-56.96" r=".5" style="fill:#fff"/><circle cx="140.25" cy="-58.71" r=".5" style="fill:#fff"/><circle cx="82.25" cy="-89.21" r=".5" style="fill:#fff"/><circle cx="89.25" cy="-93.21" r=".5" style="fill:#fff"/><circle cx="71.67" cy="-79.04" r=".5" style="fill:#fff"/><circle cx="65.33" cy="-78.21" r=".5" style="fill:#fff"/><circle cx="45.5" cy="-77.21" r=".5" style="fill:#fff"/><circle cx="52.17" cy="-70.62" r=".5" style="fill:#fff"/><circle cx="33" cy="-67.04" r=".5" style="fill:#fff"/><circle cx="32" cy="-62.04" r=".5" style="fill:#fff"/><circle cx="68.77" cy="-85.96" r=".5" style="fill:#fff"/><circle cx="75.75" cy="-96.46" r=".5" style="fill:#fff"/><circle cx="70" cy="-94.46" r=".5" style="fill:#fff"/><circle cx="66.25" cy="-90.46" r=".5" style="fill:#fff"/><circle cx="60" cy="-88.96" r=".5" style="fill:#fff"/><circle cx="55.75" cy="-84.46" r=".5" style="fill:#fff"/><circle cx="50.75" cy="-81.62" r=".5" style="fill:#fff"/><circle cx="50" cy="-88.71" r=".5" style="fill:#fff"/><circle cx="41.17" cy="-82.62" r=".5" style="fill:#fff"/><circle cx="78.33" cy="-105.04" r=".5" style="fill:#fff"/><circle cx="72.79" cy="-102.25" r=".5" style="fill:#fff"/><circle cx="66" cy="-102.37" r=".5" style="fill:#fff"/><circle cx="64" cy="-96.71" r=".5" style="fill:#fff"/><circle cx="68.96" cy="-99" r=".5" style="fill:#fff"/><circle cx="58.25" cy="-95.21" r=".5" style="fill:#fff"/><circle cx="54.67" cy="-91.04" r=".5" style="fill:#fff"/><circle cx="60.67" cy="-101.04" r=".5" style="fill:#fff"/><circle cx="55.33" cy="-99.36" r=".5" style="fill:#fff"/><circle cx="50" cy="-95.04" r=".5" style="fill:#fff"/><circle cx="43.5" cy="-92.46" r=".5" style="fill:#fff"/><circle cx="37.67" cy="-88.37" r=".5" style="fill:#fff"/><circle cx="30.67" cy="-91.12" r=".5" style="fill:#fff"/><circle cx="21" cy="-90.21" r=".5" style="fill:#fff"/><circle cx="16" cy="-93.46" r=".5" style="fill:#fff"/><circle cx="8" cy="-97.71" r=".5" style="fill:#fff"/><circle cx="3" cy="-93.04" r=".5" style="fill:#fff"/><circle cx="7.75" cy="-91.21" r=".5" style="fill:#fff"/><circle cx="5.75" cy="-86.96" r=".5" style="fill:#fff"/><circle cx="13.75" cy="-86.96" r=".5" style="fill:#fff"/><circle cx="20" cy="-85.21" r=".5" style="fill:#fff"/><circle cx="26" cy="-82.96" r=".5" style="fill:#fff"/><circle cx="34.33" cy="-84.54" r=".5" style="fill:#fff"/><circle cx="38" cy="-94.04" r=".5" style="fill:#fff"/><circle cx="45" cy="-99.46" r=".5" style="fill:#fff"/><circle cx="38.33" cy="-100.71" r=".5" style="fill:#fff"/><circle cx="42.5" cy="-103.21" r=".5" style="fill:#fff"/><circle cx="32.67" cy="-100.37" r=".5" style="fill:#fff"/><circle cx="26" cy="-101.04" r=".5" style="fill:#fff"/><circle cx="8" cy="-103.37" r=".5" style="fill:#fff"/><circle cx="2" cy="-100.37" r=".5" style="fill:#fff"/><circle cx="137.33" cy="-130.71" r=".5" style="fill:#fff"/><circle cx="136.67" cy="-136.37" r=".5" style="fill:#fff"/><circle cx="143" cy="-134.04" r=".5" style="fill:#fff"/><circle cx="131" cy="-143.71" r=".5" style="fill:#fff"/><circle cx="137.33" cy="-141.37" r=".5" style="fill:#fff"/><circle cx="143" cy="-140.37" r=".5" style="fill:#fff"/><circle cx="75.8" cy="-2.71" r=".5" style="fill:#fff"/><circle cx="83.7" cy="-3.27" r=".5" style="fill:#fff"/><circle cx="54" cy="-119.96" r=".5" style="fill:#fff"/><circle cx="51.63" cy="-124.33" r=".5" style="fill:#fff"/><circle cx="5.33" cy="-143.04" r=".5" style="fill:#fff"/></svg>