<svg xmlns="http://www.w3.org/2000/svg" xml:space="preserve" width="72" height="72" viewBox="1 -73 72 72"><path d="M1-73h72v72H1z" style="fill:none"/><circle cx="6.98" cy="-72" r=".5" style="fill:#00aeef"/><circle cx="9.67" cy="-71.39" r=".5" style="fill:#00aeef"/><circle cx="13.83" cy="-72.35" r=".5" style="fill:#00aeef"/><circle cx="8.5" cy="-69.02" r=".5" style="fill:#00aeef"/><circle cx="5.5" cy="-70.02" r=".5" style="fill:#00aeef"/><circle cx="1.67" cy="-69.02" r=".5" style="fill:#00aeef"/><circle cx="4.67" cy="-67.19" r=".5" style="fill:#00aeef"/><circle cx="7.33" cy="-66.02" r=".5" style="fill:#00aeef"/><circle cx="10.5" cy="-64.85" r=".5" style="fill:#00aeef"/><circle cx="12" cy="-68.69" r=".5" style="fill:#00aeef"/><circle cx="15" cy="-68.52" r=".5" style="fill:#00aeef"/><circle cx="17.17" cy="-71.02" r=".5" style="fill:#00aeef"/><circle cx="20.33" cy="-71.85" r=".5" style="fill:#00aeef"/><circle cx="22.33" cy="-70.69" r=".5" style="fill:#00aeef"/><circle cx="25.75" cy="-70.48" r=".5" style="fill:#00aeef"/><circle cx="27.5" cy="-72.35" r=".5" style="fill:#00aeef"/><circle cx="29.33" cy="-70.02" r=".5" style="fill:#00aeef"/><circle cx="27.33" cy="-67.85" r=".5" style="fill:#00aeef"/><circle cx="25.5" cy="-64.85" r=".5" style="fill:#00aeef"/><circle cx="23.67" cy="-61.85" r=".5" style="fill:#00aeef"/><circle cx="21.88" cy="-64.73" r=".5" style="fill:#00aeef"/><circle cx="23.88" cy="-67.85" r=".5" style="fill:#00aeef"/><circle cx="23" cy="-59.1" r=".5" style="fill:#00aeef"/><circle cx="20.83" cy="-66.52" r=".5" style="fill:#00aeef"/><circle cx="19" cy="-63.85" r=".5" style="fill:#00aeef"/><circle cx="16.33" cy="-64.02" r=".5" style="fill:#00aeef"/><circle cx="15.5" cy="-62.02" r=".5" style="fill:#00aeef"/><circle cx="12.67" cy="-62.85" r=".5" style="fill:#00aeef"/><circle cx="12.5" cy="-59.69" r=".5" style="fill:#00aeef"/><circle cx="11.5" cy="-56.02" r=".5" style="fill:#00aeef"/><circle cx="10.67" cy="-52.85" r=".5" style="fill:#00aeef"/><circle cx="10.83" cy="-50.52" r=".5" style="fill:#00aeef"/><circle cx="7.67" cy="-49.85" r=".5" style="fill:#00aeef"/><circle cx="8" cy="-52.85" r=".5" style="fill:#00aeef"/><circle cx="8.5" cy="-55.69" r=".5" style="fill:#00aeef"/><circle cx="8.83" cy="-59.19" r=".5" style="fill:#00aeef"/><circle cx="9.5" cy="-61.85" r=".5" style="fill:#00aeef"/><circle cx="6.33" cy="-62.35" r=".5" style="fill:#00aeef"/><circle cx="3.67" cy="-64.35" r=".5" style="fill:#00aeef"/><circle cx="1.83" cy="-65.52" r=".5" style="fill:#00aeef"/><circle cx="2.33" cy="-60.69" r=".5" style="fill:#00aeef"/><circle cx="5.33" cy="-58.85" r=".5" style="fill:#00aeef"/><circle cx="4.33" cy="-55.85" r=".5" style="fill:#00aeef"/><circle cx="2.5" cy="-54.85" r=".5" style="fill:#00aeef"/><circle cx="2.17" cy="-57.85" r=".5" style="fill:#00aeef"/><circle cx="14.33" cy="-57.85" r=".5" style="fill:#00aeef"/><circle cx="18.33" cy="-60.69" r=".5" style="fill:#00aeef"/><circle cx="20.5" cy="-60.69" r=".5" style="fill:#00aeef"/><circle cx="20" cy="-56.85" r=".5" style="fill:#00aeef"/><circle cx="17.88" cy="-57.6" r=".5" style="fill:#00aeef"/><circle cx="19.83" cy="-54.69" r=".5" style="fill:#00aeef"/><circle cx="16.5" cy="-53.85" r=".5" style="fill:#00aeef"/><circle cx="14.17" cy="-55.02" r=".5" style="fill:#00aeef"/><circle cx="14" cy="-65.85" r=".5" style="fill:#00aeef"/><circle cx="17.67" cy="-66.52" r=".5" style="fill:#00aeef"/><circle cx="19" cy="-68.69" r=".5" style="fill:#00aeef"/><circle cx="32" cy="-71.69" r=".5" style="fill:#00aeef"/><circle cx="34.83" cy="-72.19" r=".5" style="fill:#00aeef"/><circle cx="35.5" cy="-69.85" r=".5" style="fill:#00aeef"/><circle cx="38" cy="-72.04" r=".5" style="fill:#00aeef"/><circle cx="41.33" cy="-72.19" r=".5" style="fill:#00aeef"/><circle cx="33.13" cy="-67.85" r=".5" style="fill:#00aeef"/><circle cx="30" cy="-67.85" r=".5" style="fill:#00aeef"/><circle cx="28.83" cy="-62.35" r=".5" style="fill:#00aeef"/><circle cx="30.67" cy="-65.23" r=".5" style="fill:#00aeef"/><circle cx="28.5" cy="-65.85" r=".5" style="fill:#00aeef"/><circle cx="35.17" cy="-66.52" r=".5" style="fill:#00aeef"/><circle cx="38.17" cy="-68.35" r=".5" style="fill:#00aeef"/><circle cx="41.5" cy="-70.02" r=".5" style="fill:#00aeef"/><circle cx="44.33" cy="-71.19" r=".5" style="fill:#00aeef"/><circle cx="47.5" cy="-72.19" r=".5" style="fill:#00aeef"/><circle cx="51.33" cy="-72.02" r=".5" style="fill:#00aeef"/><circle cx="47.17" cy="-68.73" r=".5" style="fill:#00aeef"/><circle cx="44.02" cy="-68.13" r=".5" style="fill:#00aeef"/><circle cx="41.83" cy="-65.56" r=".5" style="fill:#00aeef"/><circle cx="39.33" cy="-66.35" r=".5" style="fill:#00aeef"/><circle cx="38.75" cy="-63.85" r=".5" style="fill:#00aeef"/><circle cx="35.5" cy="-61.73" r=".5" style="fill:#00aeef"/><circle cx="32.33" cy="-60.85" r=".5" style="fill:#00aeef"/><circle cx="29.33" cy="-59.52" r=".5" style="fill:#00aeef"/><circle cx="34.5" cy="-58.73" r=".5" style="fill:#00aeef"/><circle cx="30.67" cy="-58.19" r=".5" style="fill:#00aeef"/><circle cx="28.67" cy="-55.85" r=".5" style="fill:#00aeef"/><circle cx="26.17" cy="-58.02" r=".5" style="fill:#00aeef"/><circle cx="26" cy="-54.52" r=".5" style="fill:#00aeef"/><circle cx="24" cy="-55.6" r=".5" style="fill:#00aeef"/><circle cx="25.67" cy="-52.19" r=".5" style="fill:#00aeef"/><circle cx="28.5" cy="-52.85" r=".5" style="fill:#00aeef"/><circle cx="31.85" cy="-54.21" r=".5" style="fill:#00aeef"/><circle cx="34" cy="-55.02" r=".5" style="fill:#00aeef"/><circle cx="33.17" cy="-56.69" r=".5" style="fill:#00aeef"/><circle cx="36.67" cy="-55.52" r=".5" style="fill:#00aeef"/><circle cx="37.17" cy="-58.02" r=".5" style="fill:#00aeef"/><circle cx="38.67" cy="-60.35" r=".5" style="fill:#00aeef"/><circle cx="41.33" cy="-62.19" r=".5" style="fill:#00aeef"/><circle cx="44" cy="-63.52" r=".5" style="fill:#00aeef"/><circle cx="45.31" cy="-65.87" r=".5" style="fill:#00aeef"/><circle cx="49.08" cy="-66.81" r=".5" style="fill:#00aeef"/><circle cx="50.08" cy="-69.81" r=".5" style="fill:#00aeef"/><circle cx="54.17" cy="-71.52" r=".5" style="fill:#00aeef"/><circle cx="57.5" cy="-72.35" r=".5" style="fill:#00aeef"/><circle cx="63.17" cy="-72.35" r=".5" style="fill:#00aeef"/><circle cx="60" cy="-71.02" r=".5" style="fill:#00aeef"/><circle cx="58.5" cy="-68.06" r=".5" style="fill:#00aeef"/><circle cx="55.13" cy="-67.73" r=".5" style="fill:#00aeef"/><circle cx="65.17" cy="-62.73" r=".5" style="fill:#00aeef"/><circle cx="51.83" cy="-66.31" r=".5" style="fill:#00aeef"/><circle cx="33.17" cy="-64.06" r=".5" style="fill:#00aeef"/><circle cx="36.17" cy="-64.52" r=".5" style="fill:#00aeef"/><circle cx="53.33" cy="-69.19" r=".5" style="fill:#00aeef"/><circle cx="46.69" cy="-63.21" r=".5" style="fill:#00aeef"/><circle cx="44.33" cy="-60.77" r=".5" style="fill:#00aeef"/><circle cx="41.67" cy="-58.85" r=".5" style="fill:#00aeef"/><circle cx="39.67" cy="-56.02" r=".5" style="fill:#00aeef"/><circle cx="42.83" cy="-54.4" r=".5" style="fill:#00aeef"/><circle cx="44" cy="-57.02" r=".5" style="fill:#00aeef"/><circle cx="49.5" cy="-61.06" r=".5" style="fill:#00aeef"/><circle cx="51.33" cy="-63.56" r=".5" style="fill:#00aeef"/><circle cx="49.17" cy="-64.85" r=".5" style="fill:#00aeef"/><circle cx="54.33" cy="-64.89" r=".5" style="fill:#00aeef"/><circle cx="57.5" cy="-65.39" r=".5" style="fill:#00aeef"/><circle cx="60.5" cy="-67.02" r=".5" style="fill:#00aeef"/><circle cx="62.33" cy="-69.52" r=".5" style="fill:#00aeef"/><circle cx="66.33" cy="-68.85" r=".5" style="fill:#00aeef"/><circle cx="64.83" cy="-70.19" r=".5" style="fill:#00aeef"/><circle cx="63.5" cy="-67.19" r=".5" style="fill:#00aeef"/><circle cx="60.67" cy="-64.85" r=".5" style="fill:#00aeef"/><circle cx="57.5" cy="-61.85" r=".5" style="fill:#00aeef"/><circle cx="54.33" cy="-62.02" r=".5" style="fill:#00aeef"/><circle cx="48.33" cy="-58.85" r=".5" style="fill:#00aeef"/><circle cx="48.17" cy="-55.52" r=".5" style="fill:#00aeef"/><circle cx="45.75" cy="-56.1" r=".5" style="fill:#00aeef"/><circle cx="45.88" cy="-52.35" r=".5" style="fill:#00aeef"/><circle cx="66.17" cy="-66.19" r=".5" style="fill:#00aeef"/><circle cx="63.31" cy="-64.21" r=".5" style="fill:#00aeef"/><circle cx="61" cy="-61.56" r=".5" style="fill:#00aeef"/><circle cx="58.17" cy="-59.35" r=".5" style="fill:#00aeef"/><circle cx="55.5" cy="-59.19" r=".5" style="fill:#00aeef"/><circle cx="53.5" cy="-57.02" r=".5" style="fill:#00aeef"/><circle cx="50.83" cy="-54.35" r=".5" style="fill:#00aeef"/><circle cx="53.67" cy="-53.85" r=".5" style="fill:#00aeef"/><circle cx="55.83" cy="-56.02" r=".5" style="fill:#00aeef"/><circle cx="58.5" cy="-56.19" r=".5" style="fill:#00aeef"/><circle cx="63" cy="-60.06" r=".5" style="fill:#00aeef"/><circle cx="68.83" cy="-63.23" r=".5" style="fill:#00aeef"/><circle cx="67" cy="-61.02" r=".5" style="fill:#00aeef"/><circle cx="72.5" cy="-63.19" r=".5" style="fill:#00aeef"/><circle cx="69.5" cy="-61.02" r=".5" style="fill:#00aeef"/><circle cx="67.5" cy="-58.85" r=".5" style="fill:#00aeef"/><circle cx="70.5" cy="-57.85" r=".5" style="fill:#00aeef"/><circle cx="72" cy="-60.02" r=".5" style="fill:#00aeef"/><circle cx="64.33" cy="-57.85" r=".5" style="fill:#00aeef"/><circle cx="61.63" cy="-56.98" r=".5" style="fill:#00aeef"/><circle cx="62.25" cy="-54.85" r=".5" style="fill:#00aeef"/><circle cx="59.5" cy="-54.1" r=".5" style="fill:#00aeef"/><circle cx="65.33" cy="-55.52" r=".5" style="fill:#00aeef"/><circle cx="68.5" cy="-55.02" r=".5" style="fill:#00aeef"/><circle cx="71.67" cy="-55.02" r=".5" style="fill:#00aeef"/><circle cx="69.5" cy="-53.19" r=".5" style="fill:#00aeef"/><circle cx="66.5" cy="-53.02" r=".5" style="fill:#00aeef"/><circle cx="63.5" cy="-51.85" r=".5" style="fill:#00aeef"/><circle cx="60.17" cy="-51.85" r=".5" style="fill:#00aeef"/><circle cx="61.33" cy="-49.85" r=".5" style="fill:#00aeef"/><circle cx="68" cy="-48.35" r=".5" style="fill:#00aeef"/><circle cx="52.5" cy="-59.23" r=".5" style="fill:#00aeef"/><circle cx="55.83" cy="-69.85" r=".5" style="fill:#00aeef"/><circle cx="58.75" cy="-48.35" r=".5" style="fill:#00aeef"/><circle cx="56.75" cy="-52.85" r=".5" style="fill:#00aeef"/><circle cx="53.75" cy="-50.48" r=".5" style="fill:#00aeef"/><circle cx="55.67" cy="-49.02" r=".5" style="fill:#00aeef"/><circle cx="58" cy="-50.85" r=".5" style="fill:#00aeef"/><circle cx="51.33" cy="-51.19" r=".5" style="fill:#00aeef"/><circle cx="48.17" cy="-52.02" r=".5" style="fill:#00aeef"/><circle cx="45.33" cy="-50.02" r=".5" style="fill:#00aeef"/><circle cx="42.31" cy="-51.54" r=".5" style="fill:#00aeef"/><circle cx="41.13" cy="-49.35" r=".5" style="fill:#00aeef"/><circle cx="42.83" cy="-47.35" r=".5" style="fill:#00aeef"/><circle cx="38.17" cy="-46.1" r=".5" style="fill:#00aeef"/><circle cx="32.17" cy="-42.44" r=".5" style="fill:#00aeef"/><circle cx="28" cy="-39.48" r=".5" style="fill:#00aeef"/><circle cx="19.83" cy="-39.31" r=".5" style="fill:#00aeef"/><circle cx="23.83" cy="-43.39" r=".5" style="fill:#00aeef"/><circle cx="15.17" cy="-43.77" r=".5" style="fill:#00aeef"/><circle cx="12.67" cy="-47.44" r=".5" style="fill:#00aeef"/><circle cx="24.58" cy="-36.81" r=".5" style="fill:#00aeef"/><circle cx="22.5" cy="-33.35" r=".5" style="fill:#00aeef"/><circle cx="25.13" cy="-31.23" r=".5" style="fill:#00aeef"/><circle cx="20" cy="-32.9" r=".5" style="fill:#00aeef"/><circle cx="14.33" cy="-17.85" r=".5" style="fill:#00aeef"/><circle cx="19.17" cy="-30.56" r=".5" style="fill:#00aeef"/><circle cx="14.5" cy="-34.1" r=".5" style="fill:#00aeef"/><circle cx="10.75" cy="-36.1" r=".5" style="fill:#00aeef"/><circle cx="11.25" cy="-40.35" r=".5" style="fill:#00aeef"/><circle cx="5.88" cy="-38.6" r=".5" style="fill:#00aeef"/><circle cx="2.63" cy="-40.1" r=".5" style="fill:#00aeef"/><circle cx="6.38" cy="-41.35" r=".5" style="fill:#00aeef"/><circle cx="8.5" cy="-39.73" r=".5" style="fill:#00aeef"/><circle cx="13.85" cy="-37.33" r=".5" style="fill:#00aeef"/><circle cx="16.38" cy="-37.98" r=".5" style="fill:#00aeef"/><circle cx="14.38" cy="-40.23" r=".5" style="fill:#00aeef"/><circle cx="17.5" cy="-40.35" r=".5" style="fill:#00aeef"/><circle cx="18" cy="-36.35" r=".5" style="fill:#00aeef"/><circle cx="21.17" cy="-36.56" r=".5" style="fill:#00aeef"/><circle cx="25.63" cy="-33.1" r=".5" style="fill:#00aeef"/><circle cx="30" cy="-37.44" r=".5" style="fill:#00aeef"/><circle cx="32.88" cy="-34.98" r=".5" style="fill:#00aeef"/><circle cx="31.88" cy="-32.98" r=".5" style="fill:#00aeef"/><circle cx="34.38" cy="-32.23" r=".5" style="fill:#00aeef"/><circle cx="34.75" cy="-30.1" r=".5" style="fill:#00aeef"/><circle cx="33.63" cy="-26.98" r=".5" style="fill:#00aeef"/><circle cx="33.25" cy="-24.35" r=".5" style="fill:#00aeef"/><circle cx="34.88" cy="-20.73" r=".5" style="fill:#00aeef"/><circle cx="37" cy="-23.69" r=".5" style="fill:#00aeef"/><circle cx="39.13" cy="-20.85" r=".5" style="fill:#00aeef"/><circle cx="37.13" cy="-18.35" r=".5" style="fill:#00aeef"/><circle cx="43.5" cy="-18.1" r=".5" style="fill:#00aeef"/><circle cx="40.38" cy="-18.23" r=".5" style="fill:#00aeef"/><circle cx="38.38" cy="-14.98" r=".5" style="fill:#00aeef"/><circle cx="34.5" cy="-15.98" r=".5" style="fill:#00aeef"/><circle cx="33.38" cy="-18.85" r=".5" style="fill:#00aeef"/><circle cx="31.88" cy="-21.1" r=".5" style="fill:#00aeef"/><circle cx="30.75" cy="-23.98" r=".5" style="fill:#00aeef"/><circle cx="30" cy="-26.69" r=".5" style="fill:#00aeef"/><circle cx="31.63" cy="-29.23" r=".5" style="fill:#00aeef"/><circle cx="28.17" cy="-31.69" r=".5" style="fill:#00aeef"/><circle cx="29" cy="-34.9" r=".5" style="fill:#00aeef"/><circle cx="28.75" cy="-29.6" r=".5" style="fill:#00aeef"/><circle cx="26.38" cy="-28.1" r=".5" style="fill:#00aeef"/><circle cx="27.38" cy="-25.1" r=".5" style="fill:#00aeef"/><circle cx="27.5" cy="-22.02" r=".5" style="fill:#00aeef"/><circle cx="28.83" cy="-19.19" r=".5" style="fill:#00aeef"/><circle cx="30" cy="-17.35" r=".5" style="fill:#00aeef"/><circle cx="31.13" cy="-15.48" r=".5" style="fill:#00aeef"/><circle cx="29.75" cy="-13.23" r=".5" style="fill:#00aeef"/><circle cx="26" cy="-13.35" r=".5" style="fill:#00aeef"/><circle cx="23.5" cy="-15.98" r=".5" style="fill:#00aeef"/><circle cx="21.5" cy="-13.98" r=".5" style="fill:#00aeef"/><circle cx="50.33" cy="-57.19" r=".5" style="fill:#00aeef"/><circle cx="18.25" cy="-9.48" r=".5" style="fill:#00aeef"/><circle cx="21.38" cy="-10.1" r=".5" style="fill:#00aeef"/><circle cx="22.33" cy="-7.85" r=".5" style="fill:#00aeef"/><circle cx="24.25" cy="-10.98" r=".5" style="fill:#00aeef"/><circle cx="19.5" cy="-7.06" r=".5" style="fill:#00aeef"/><circle cx="17.25" cy="-3.1" r=".5" style="fill:#00aeef"/><circle cx="15.83" cy="-5.56" r=".5" style="fill:#00aeef"/><circle cx="12.5" cy="-3.1" r=".5" style="fill:#00aeef"/><circle cx="11.02" cy="-5.33" r=".5" style="fill:#00aeef"/><circle cx="13.5" cy="-6.98" r=".5" style="fill:#00aeef"/><circle cx="14.5" cy="-9.85" r=".5" style="fill:#00aeef"/><circle cx="15.5" cy="-8.19" r=".5" style="fill:#00aeef"/><circle cx="18.83" cy="-4.19" r=".5" style="fill:#00aeef"/><circle cx="20.5" cy="-2.02" r=".5" style="fill:#00aeef"/><circle cx="9.75" cy="-1.6" r=".5" style="fill:#00aeef"/><circle cx="15" cy="-1.92" r=".5" style="fill:#00aeef"/><circle cx="10.5" cy="-12.1" r=".5" style="fill:#00aeef"/><circle cx="12" cy="-9.98" r=".5" style="fill:#00aeef"/><circle cx="8.38" cy="-9.98" r=".5" style="fill:#00aeef"/><circle cx="5.75" cy="-10.85" r=".5" style="fill:#00aeef"/><circle cx="3.25" cy="-9.23" r=".5" style="fill:#00aeef"/><circle cx="5.38" cy="-7.1" r=".5" style="fill:#00aeef"/><circle cx="9.13" cy="-7.1" r=".5" style="fill:#00aeef"/><circle cx="8.25" cy="-4.1" r=".5" style="fill:#00aeef"/><circle cx="5.5" cy="-3.98" r=".5" style="fill:#00aeef"/><circle cx="3.25" cy="-5.23" r=".5" style="fill:#00aeef"/><circle cx="1.5" cy="-3.1" r=".5" style="fill:#00aeef"/><circle cx="4.63" cy="-1.79" r=".5" style="fill:#00aeef"/><circle cx="16" cy="-48.6" r=".5" style="fill:#00aeef"/><circle cx="14.33" cy="-13.06" r=".5" style="fill:#00aeef"/><circle cx="12.17" cy="-14.85" r=".5" style="fill:#00aeef"/><circle cx="10.5" cy="-22.85" r=".5" style="fill:#00aeef"/><circle cx="10.5" cy="-26.69" r=".5" style="fill:#00aeef"/><circle cx="15.17" cy="-15.69" r=".5" style="fill:#00aeef"/><circle cx="17.5" cy="-12.73" r=".5" style="fill:#00aeef"/><circle cx="16.67" cy="-19.69" r=".5" style="fill:#00aeef"/><circle cx="22.17" cy="-12.52" r=".5" style="fill:#00aeef"/><circle cx="19.67" cy="-17.69" r=".5" style="fill:#00aeef"/><circle cx="22.38" cy="-18.98" r=".5" style="fill:#00aeef"/><circle cx="22" cy="-22.23" r=".5" style="fill:#00aeef"/><circle cx="16.58" cy="-22.81" r=".5" style="fill:#00aeef"/><circle cx="19.38" cy="-20.1" r=".5" style="fill:#00aeef"/><circle cx="18.33" cy="-15.69" r=".5" style="fill:#00aeef"/><circle cx="16.08" cy="-26.06" r=".5" style="fill:#00aeef"/><circle cx="19" cy="-23.73" r=".5" style="fill:#00aeef"/><circle cx="21.67" cy="-26.23" r=".5" style="fill:#00aeef"/><circle cx="24.38" cy="-23.69" r=".5" style="fill:#00aeef"/><circle cx="24.38" cy="-26.1" r=".5" style="fill:#00aeef"/><circle cx="22.25" cy="-29.69" r=".5" style="fill:#00aeef"/><circle cx="19" cy="-28.1" r=".5" style="fill:#00aeef"/><circle cx="16.25" cy="-29.1" r=".5" style="fill:#00aeef"/><circle cx="13.75" cy="-31.33" r=".5" style="fill:#00aeef"/><circle cx="11.5" cy="-32.98" r=".5" style="fill:#00aeef"/><circle cx="7.75" cy="-33.1" r=".5" style="fill:#00aeef"/><circle cx="8" cy="-35.35" r=".5" style="fill:#00aeef"/><circle cx="5.63" cy="-35.1" r=".5" style="fill:#00aeef"/><circle cx="2.5" cy="-36.23" r=".5" style="fill:#00aeef"/><circle cx="3.5" cy="-33.1" r=".5" style="fill:#00aeef"/><circle cx="4.5" cy="-30.98" r=".5" style="fill:#00aeef"/><circle cx="6.25" cy="-27.98" r=".5" style="fill:#00aeef"/><circle cx="8.13" cy="-25.98" r=".5" style="fill:#00aeef"/><circle cx="13.38" cy="-23.1" r=".5" style="fill:#00aeef"/><circle cx="13.5" cy="-20.1" r=".5" style="fill:#00aeef"/><circle cx="10.77" cy="-20.5" r=".5" style="fill:#00aeef"/><circle cx="8.38" cy="-21.98" r=".5" style="fill:#00aeef"/><circle cx="6.5" cy="-23.98" r=".5" style="fill:#00aeef"/><circle cx="4.38" cy="-25.98" r=".5" style="fill:#00aeef"/><circle cx="2.5" cy="-27.98" r=".5" style="fill:#00aeef"/><circle cx="8.38" cy="-30.1" r=".5" style="fill:#00aeef"/><circle cx="11" cy="-30.02" r=".5" style="fill:#00aeef"/><circle cx="13.17" cy="-25.35" r=".5" style="fill:#00aeef"/><circle cx="13.33" cy="-28.19" r=".5" style="fill:#00aeef"/><circle cx="8.4" cy="-17.13" r=".5" style="fill:#00aeef"/><circle cx="5.5" cy="-15.85" r=".5" style="fill:#00aeef"/><circle cx="3.5" cy="-12.85" r=".5" style="fill:#00aeef"/><circle cx="1.66" cy="-14.1" r=".5" style="fill:#00aeef"/><circle cx="7.02" cy="-14.33" r=".5" style="fill:#00aeef"/><circle cx="10" cy="-14.73" r=".5" style="fill:#00aeef"/><circle cx="11.63" cy="-17.1" r=".5" style="fill:#00aeef"/><circle cx="6.38" cy="-18.98" r=".5" style="fill:#00aeef"/><circle cx="4.25" cy="-20.85" r=".5" style="fill:#00aeef"/><circle cx="2.25" cy="-23.1" r=".5" style="fill:#00aeef"/><circle cx="3.25" cy="-18.1" r=".5" style="fill:#00aeef"/><circle cx="27.25" cy="-15.85" r=".5" style="fill:#00aeef"/><circle cx="26.25" cy="-17.73" r=".5" style="fill:#00aeef"/><circle cx="24.63" cy="-20.6" r=".5" style="fill:#00aeef"/><circle cx="40.13" cy="-28.6" r=".5" style="fill:#00aeef"/><circle cx="41.38" cy="-26.1" r=".5" style="fill:#00aeef"/><circle cx="44.17" cy="-27.69" r=".5" style="fill:#00aeef"/><circle cx="43.5" cy="-23.52" r=".5" style="fill:#00aeef"/><circle cx="46.5" cy="-21.98" r=".5" style="fill:#00aeef"/><circle cx="49.38" cy="-23.98" r=".5" style="fill:#00aeef"/><circle cx="50.15" cy="-21.33" r=".5" style="fill:#00aeef"/><circle cx="52.5" cy="-23.23" r=".5" style="fill:#00aeef"/><circle cx="55.5" cy="-20.85" r=".5" style="fill:#00aeef"/><circle cx="58.83" cy="-21.31" r=".5" style="fill:#00aeef"/><circle cx="60.38" cy="-19.1" r=".5" style="fill:#00aeef"/><circle cx="63.67" cy="-21.27" r=".5" style="fill:#00aeef"/><circle cx="66.63" cy="-17.98" r=".5" style="fill:#00aeef"/><circle cx="70.38" cy="-17.98" r=".5" style="fill:#00aeef"/><circle cx="72.33" cy="-19.19" r=".5" style="fill:#00aeef"/><circle cx="72.17" cy="-16.02" r=".5" style="fill:#00aeef"/><circle cx="72.34" cy="-12.13" r=".5" style="fill:#00aeef"/><circle cx="69.5" cy="-14.23" r=".5" style="fill:#00aeef"/><circle cx="66.63" cy="-15.73" r=".5" style="fill:#00aeef"/><circle cx="62.83" cy="-17.6" r=".5" style="fill:#00aeef"/><circle cx="57.38" cy="-18.48" r=".5" style="fill:#00aeef"/><circle cx="63.38" cy="-13.98" r=".5" style="fill:#00aeef"/><circle cx="66.5" cy="-12.1" r=".5" style="fill:#00aeef"/><circle cx="69.75" cy="-10.98" r=".5" style="fill:#00aeef"/><circle cx="72.5" cy="-9.1" r=".5" style="fill:#00aeef"/><circle cx="69.38" cy="-7.85" r=".5" style="fill:#00aeef"/><circle cx="72.13" cy="-5.23" r=".5" style="fill:#00aeef"/><circle cx="55.01" cy="-1.8" r=".5" style="fill:#00aeef"/><circle cx="68.83" cy="-1.69" r=".5" style="fill:#00aeef"/><circle cx="61.81" cy="-1.8" r=".5" style="fill:#00aeef"/><circle cx="70.5" cy="-4.1" r=".5" style="fill:#00aeef"/><circle cx="64.38" cy="-3.1" r=".5" style="fill:#00aeef"/><circle cx="66.38" cy="-5.1" r=".5" style="fill:#00aeef"/><circle cx="66.63" cy="-8.23" r=".5" style="fill:#00aeef"/><circle cx="63.5" cy="-6.6" r=".5" style="fill:#00aeef"/><circle cx="61.5" cy="-4.98" r=".5" style="fill:#00aeef"/><circle cx="59.25" cy="-3.1" r=".5" style="fill:#00aeef"/><circle cx="56.63" cy="-4.35" r=".5" style="fill:#00aeef"/><circle cx="53.25" cy="-5.35" r=".5" style="fill:#00aeef"/><circle cx="50.38" cy="-6.35" r=".5" style="fill:#00aeef"/><circle cx="46.38" cy="-8.1" r=".5" style="fill:#00aeef"/><circle cx="49.25" cy="-9.98" r=".5" style="fill:#00aeef"/><circle cx="52.5" cy="-8.85" r=".5" style="fill:#00aeef"/><circle cx="55.25" cy="-7.1" r=".5" style="fill:#00aeef"/><circle cx="58.38" cy="-6.85" r=".5" style="fill:#00aeef"/><circle cx="60.75" cy="-8.98" r=".5" style="fill:#00aeef"/><circle cx="63.25" cy="-10.35" r=".5" style="fill:#00aeef"/><circle cx="60.5" cy="-13.1" r=".5" style="fill:#00aeef"/><circle cx="58.63" cy="-15.6" r=".5" style="fill:#00aeef"/><circle cx="55.13" cy="-17.23" r=".5" style="fill:#00aeef"/><circle cx="52.5" cy="-16.23" r=".5" style="fill:#00aeef"/><circle cx="49.63" cy="-13.73" r=".5" style="fill:#00aeef"/><circle cx="46.5" cy="-11.94" r=".5" style="fill:#00aeef"/><circle cx="43.25" cy="-12.98" r=".5" style="fill:#00aeef"/><circle cx="43.13" cy="-15.48" r=".5" style="fill:#00aeef"/><circle cx="46.38" cy="-14.98" r=".5" style="fill:#00aeef"/><circle cx="49.38" cy="-16.85" r=".5" style="fill:#00aeef"/><circle cx="47.5" cy="-18.98" r=".5" style="fill:#00aeef"/><circle cx="44.63" cy="-20.23" r=".5" style="fill:#00aeef"/><circle cx="41.38" cy="-22.1" r=".5" style="fill:#00aeef"/><circle cx="39.38" cy="-24.1" r=".5" style="fill:#00aeef"/><circle cx="37.38" cy="-26.85" r=".5" style="fill:#00aeef"/><circle cx="52.63" cy="-11.73" r=".5" style="fill:#00aeef"/><circle cx="54.38" cy="-13.85" r=".5" style="fill:#00aeef"/><circle cx="55.25" cy="-10.98" r=".5" style="fill:#00aeef"/><circle cx="57.5" cy="-9.35" r=".5" style="fill:#00aeef"/><circle cx="57.5" cy="-12.1" r=".5" style="fill:#00aeef"/><circle cx="52.38" cy="-19.1" r=".5" style="fill:#00aeef"/><circle cx="44.13" cy="-9.77" r=".5" style="fill:#00aeef"/><circle cx="41.77" cy="-11" r=".5" style="fill:#00aeef"/><circle cx="37.5" cy="-11.73" r=".5" style="fill:#00aeef"/><circle cx="36.25" cy="-13.94" r=".5" style="fill:#00aeef"/><circle cx="32.88" cy="-12.98" r=".5" style="fill:#00aeef"/><circle cx="30.38" cy="-11.1" r=".5" style="fill:#00aeef"/><circle cx="27.52" cy="-11.46" r=".5" style="fill:#00aeef"/><circle cx="24.88" cy="-8.85" r=".5" style="fill:#00aeef"/><circle cx="23.5" cy="-5.98" r=".5" style="fill:#00aeef"/><circle cx="21.25" cy="-4.1" r=".5" style="fill:#00aeef"/><circle cx="24.63" cy="-1.98" r=".5" style="fill:#00aeef"/><circle cx="26.5" cy="-4.85" r=".5" style="fill:#00aeef"/><circle cx="29.38" cy="-6.73" r=".5" style="fill:#00aeef"/><circle cx="26.83" cy="-7.35" r=".5" style="fill:#00aeef"/><circle cx="32" cy="-8.73" r=".5" style="fill:#00aeef"/><circle cx="33.75" cy="-9.98" r=".5" style="fill:#00aeef"/><circle cx="39.5" cy="-8.98" r=".5" style="fill:#00aeef"/><circle cx="45" cy="-6.6" r=".5" style="fill:#00aeef"/><circle cx="48" cy="-4.1" r=".5" style="fill:#00aeef"/><circle cx="51.18" cy="-2.85" r=".5" style="fill:#00aeef"/><circle cx="46.25" cy="-2.35" r=".5" style="fill:#00aeef"/><circle cx="43.38" cy="-4.1" r=".5" style="fill:#00aeef"/><circle cx="41.13" cy="-6.23" r=".5" style="fill:#00aeef"/><circle cx="38.13" cy="-7.1" r=".5" style="fill:#00aeef"/><circle cx="35.63" cy="-8.23" r=".5" style="fill:#00aeef"/><circle cx="33.75" cy="-5.48" r=".5" style="fill:#00aeef"/><circle cx="30.63" cy="-4.23" r=".5" style="fill:#00aeef"/><circle cx="28.79" cy="-2.14" r=".5" style="fill:#00aeef"/><circle cx="31.5" cy="-2.35" r=".5" style="fill:#00aeef"/><circle cx="35.25" cy="-2.85" r=".5" style="fill:#00aeef"/><circle cx="39.25" cy="-4.1" r=".5" style="fill:#00aeef"/><circle cx="35.5" cy="-37.1" r=".5" style="fill:#00aeef"/><circle cx="41.13" cy="-42.35" r=".5" style="fill:#00aeef"/><circle cx="37.83" cy="-42.94" r=".5" style="fill:#00aeef"/><circle cx="43.13" cy="-40.35" r=".5" style="fill:#00aeef"/><circle cx="45.5" cy="-42.98" r=".5" style="fill:#00aeef"/><circle cx="47.38" cy="-45.98" r=".5" style="fill:#00aeef"/><circle cx="51.38" cy="-43.98" r=".5" style="fill:#00aeef"/><circle cx="49.38" cy="-48.85" r=".5" style="fill:#00aeef"/><circle cx="51.13" cy="-47.48" r=".5" style="fill:#00aeef"/><circle cx="53.88" cy="-46.98" r=".5" style="fill:#00aeef"/><circle cx="56.4" cy="-46.88" r=".5" style="fill:#00aeef"/><circle cx="56.13" cy="-44.23" r=".5" style="fill:#00aeef"/><circle cx="60.13" cy="-46.1" r=".5" style="fill:#00aeef"/><circle cx="62.5" cy="-46.98" r=".5" style="fill:#00aeef"/><circle cx="65.5" cy="-49.23" r=".5" style="fill:#00aeef"/><circle cx="68.77" cy="-50.67" r=".5" style="fill:#00aeef"/><circle cx="71.83" cy="-52.19" r=".5" style="fill:#00aeef"/><circle cx="70.25" cy="-47.1" r=".5" style="fill:#00aeef"/><circle cx="71.83" cy="-45.19" r=".5" style="fill:#00aeef"/><circle cx="69.63" cy="-43.73" r=".5" style="fill:#00aeef"/><circle cx="71.83" cy="-42.52" r=".5" style="fill:#00aeef"/><circle cx="66.25" cy="-45.98" r=".5" style="fill:#00aeef"/><circle cx="64.5" cy="-44.98" r=".5" style="fill:#00aeef"/><circle cx="63.17" cy="-42.35" r=".5" style="fill:#00aeef"/><circle cx="61.38" cy="-43.85" r=".5" style="fill:#00aeef"/><circle cx="59.38" cy="-41.98" r=".5" style="fill:#00aeef"/><circle cx="56.5" cy="-40.6" r=".5" style="fill:#00aeef"/><circle cx="53.63" cy="-42.6" r=".5" style="fill:#00aeef"/><circle cx="49" cy="-43.6" r=".5" style="fill:#00aeef"/><circle cx="46.88" cy="-41.35" r=".5" style="fill:#00aeef"/><circle cx="44.38" cy="-38.1" r=".5" style="fill:#00aeef"/><circle cx="43" cy="-36.1" r=".5" style="fill:#00aeef"/><circle cx="41.5" cy="-33.23" r=".5" style="fill:#00aeef"/><circle cx="44.5" cy="-30.73" r=".5" style="fill:#00aeef"/><circle cx="46.17" cy="-31.85" r=".5" style="fill:#00aeef"/><circle cx="48.5" cy="-33.1" r=".5" style="fill:#00aeef"/><circle cx="45.38" cy="-34.35" r=".5" style="fill:#00aeef"/><circle cx="46.5" cy="-36.98" r=".5" style="fill:#00aeef"/><circle cx="48.13" cy="-39.6" r=".5" style="fill:#00aeef"/><circle cx="51.38" cy="-37.1" r=".5" style="fill:#00aeef"/><circle cx="49.25" cy="-34.98" r=".5" style="fill:#00aeef"/><circle cx="53.35" cy="-33.83" r=".5" style="fill:#00aeef"/><circle cx="50.88" cy="-31.23" r=".5" style="fill:#00aeef"/><circle cx="54.38" cy="-31.1" r=".5" style="fill:#00aeef"/><circle cx="52.98" cy="-29.33" r=".5" style="fill:#00aeef"/><circle cx="56.13" cy="-27.98" r=".5" style="fill:#00aeef"/><circle cx="59.13" cy="-27.23" r=".5" style="fill:#00aeef"/><circle cx="62.5" cy="-28.98" r=".5" style="fill:#00aeef"/><circle cx="65.63" cy="-27.98" r=".5" style="fill:#00aeef"/><circle cx="68.88" cy="-25.98" r=".5" style="fill:#00aeef"/><circle cx="71.25" cy="-26.1" r=".5" style="fill:#00aeef"/><circle cx="71.88" cy="-23.85" r=".5" style="fill:#00aeef"/><circle cx="70.38" cy="-21.1" r=".5" style="fill:#00aeef"/><circle cx="66.67" cy="-22.35" r=".5" style="fill:#00aeef"/><circle cx="68.38" cy="-23.23" r=".5" style="fill:#00aeef"/><circle cx="64.5" cy="-24.1" r=".5" style="fill:#00aeef"/><circle cx="62.13" cy="-25.85" r=".5" style="fill:#00aeef"/><circle cx="60.63" cy="-23.1" r=".5" style="fill:#00aeef"/><circle cx="57.38" cy="-24.23" r=".5" style="fill:#00aeef"/><circle cx="55.25" cy="-24.35" r=".5" style="fill:#00aeef"/><circle cx="52.5" cy="-25.98" r=".5" style="fill:#00aeef"/><circle cx="49.5" cy="-28.1" r=".5" style="fill:#00aeef"/><circle cx="46.63" cy="-26.73" r=".5" style="fill:#00aeef"/><circle cx="47.67" cy="-29.35" r=".5" style="fill:#00aeef"/><circle cx="41.25" cy="-30.35" r=".5" style="fill:#00aeef"/><circle cx="37.38" cy="-34.1" r=".5" style="fill:#00aeef"/><circle cx="37.13" cy="-31.1" r=".5" style="fill:#00aeef"/><circle cx="35.33" cy="-27.69" r=".5" style="fill:#00aeef"/><circle cx="38.63" cy="-36.35" r=".5" style="fill:#00aeef"/><circle cx="40.33" cy="-38.35" r=".5" style="fill:#00aeef"/><circle cx="51.5" cy="-41.1" r=".5" style="fill:#00aeef"/><circle cx="53" cy="-39.73" r=".5" style="fill:#00aeef"/><circle cx="55.5" cy="-35.35" r=".5" style="fill:#00aeef"/><circle cx="57.88" cy="-37.35" r=".5" style="fill:#00aeef"/><circle cx="59.25" cy="-38.98" r=".5" style="fill:#00aeef"/><circle cx="61.38" cy="-40.1" r=".5" style="fill:#00aeef"/><circle cx="65.38" cy="-40.35" r=".5" style="fill:#00aeef"/><circle cx="67.38" cy="-42.23" r=".5" style="fill:#00aeef"/><circle cx="70.5" cy="-41.23" r=".5" style="fill:#00aeef"/><circle cx="68.5" cy="-38.1" r=".5" style="fill:#00aeef"/><circle cx="72" cy="-37.23" r=".5" style="fill:#00aeef"/><circle cx="71.38" cy="-34.35" r=".5" style="fill:#00aeef"/><circle cx="72.17" cy="-28.52" r=".5" style="fill:#00aeef"/><circle cx="66.5" cy="-36.23" r=".5" style="fill:#00aeef"/><circle cx="63" cy="-38.35" r=".5" style="fill:#00aeef"/><circle cx="61.25" cy="-36.1" r=".5" style="fill:#00aeef"/><circle cx="58.63" cy="-34.1" r=".5" style="fill:#00aeef"/><circle cx="56" cy="-32.1" r=".5" style="fill:#00aeef"/><circle cx="59.38" cy="-31.1" r=".5" style="fill:#00aeef"/><circle cx="57.67" cy="-29.35" r=".5" style="fill:#00aeef"/><circle cx="45.67" cy="-25.19" r=".5" style="fill:#00aeef"/><circle cx="62" cy="-33.23" r=".5" style="fill:#00aeef"/><circle cx="64.38" cy="-34.85" r=".5" style="fill:#00aeef"/><circle cx="66.88" cy="-31.98" r=".5" style="fill:#00aeef"/><circle cx="68.63" cy="-33.48" r=".5" style="fill:#00aeef"/><circle cx="64.75" cy="-30.85" r=".5" style="fill:#00aeef"/><circle cx="68.25" cy="-28.98" r=".5" style="fill:#00aeef"/><circle cx="70.63" cy="-29.85" r=".5" style="fill:#00aeef"/><circle cx="41.63" cy="-45.1" r=".5" style="fill:#00aeef"/><circle cx="45.13" cy="-47.1" r=".5" style="fill:#00aeef"/><circle cx="36.33" cy="-40.02" r=".5" style="fill:#00aeef"/><circle cx="33.17" cy="-39.6" r=".5" style="fill:#00aeef"/><circle cx="23.25" cy="-39.1" r=".5" style="fill:#00aeef"/><circle cx="26.58" cy="-35.81" r=".5" style="fill:#00aeef"/><circle cx="17" cy="-34.02" r=".5" style="fill:#00aeef"/><circle cx="16.5" cy="-31.52" r=".5" style="fill:#00aeef"/><circle cx="34.6" cy="-44.33" r=".5" style="fill:#00aeef"/><circle cx="38.38" cy="-48.73" r=".5" style="fill:#00aeef"/><circle cx="35.5" cy="-47.73" r=".5" style="fill:#00aeef"/><circle cx="33.63" cy="-45.73" r=".5" style="fill:#00aeef"/><circle cx="30.5" cy="-44.98" r=".5" style="fill:#00aeef"/><circle cx="28.38" cy="-42.73" r=".5" style="fill:#00aeef"/><circle cx="25.88" cy="-41.31" r=".5" style="fill:#00aeef"/><circle cx="25.5" cy="-44.85" r=".5" style="fill:#00aeef"/><circle cx="21.08" cy="-41.81" r=".5" style="fill:#00aeef"/><circle cx="39.67" cy="-53.02" r=".5" style="fill:#00aeef"/><circle cx="36.9" cy="-51.63" r=".5" style="fill:#00aeef"/><circle cx="33.5" cy="-51.69" r=".5" style="fill:#00aeef"/><circle cx="32.5" cy="-48.85" r=".5" style="fill:#00aeef"/><circle cx="34.98" cy="-50" r=".5" style="fill:#00aeef"/><circle cx="29.63" cy="-48.1" r=".5" style="fill:#00aeef"/><circle cx="27.83" cy="-46.02" r=".5" style="fill:#00aeef"/><circle cx="30.83" cy="-51.02" r=".5" style="fill:#00aeef"/><circle cx="28.17" cy="-49.19" r=".5" style="fill:#00aeef"/><circle cx="25.5" cy="-48.02" r=".5" style="fill:#00aeef"/><circle cx="22.25" cy="-46.73" r=".5" style="fill:#00aeef"/><circle cx="19.33" cy="-44.69" r=".5" style="fill:#00aeef"/><circle cx="15.83" cy="-46.06" r=".5" style="fill:#00aeef"/><circle cx="11" cy="-45.6" r=".5" style="fill:#00aeef"/><circle cx="8.5" cy="-47.23" r=".5" style="fill:#00aeef"/><circle cx="4.5" cy="-49.35" r=".5" style="fill:#00aeef"/><circle cx="2" cy="-47.02" r=".5" style="fill:#00aeef"/><circle cx="4.38" cy="-46.1" r=".5" style="fill:#00aeef"/><circle cx="3.38" cy="-43.98" r=".5" style="fill:#00aeef"/><circle cx="7.38" cy="-43.98" r=".5" style="fill:#00aeef"/><circle cx="10.5" cy="-43.1" r=".5" style="fill:#00aeef"/><circle cx="13.5" cy="-41.98" r=".5" style="fill:#00aeef"/><circle cx="17.67" cy="-42.77" r=".5" style="fill:#00aeef"/><circle cx="19.5" cy="-47.52" r=".5" style="fill:#00aeef"/><circle cx="23" cy="-50.23" r=".5" style="fill:#00aeef"/><circle cx="19.67" cy="-50.85" r=".5" style="fill:#00aeef"/><circle cx="21.75" cy="-52.1" r=".5" style="fill:#00aeef"/><circle cx="16.83" cy="-50.69" r=".5" style="fill:#00aeef"/><circle cx="13.5" cy="-51.02" r=".5" style="fill:#00aeef"/><circle cx="4.5" cy="-52.19" r=".5" style="fill:#00aeef"/><circle cx="1.5" cy="-50.69" r=".5" style="fill:#00aeef"/><circle cx="69.17" cy="-65.85" r=".5" style="fill:#00aeef"/><circle cx="68.83" cy="-68.69" r=".5" style="fill:#00aeef"/><circle cx="72" cy="-67.52" r=".5" style="fill:#00aeef"/><circle cx="66" cy="-72.35" r=".5" style="fill:#00aeef"/><circle cx="69.17" cy="-71.19" r=".5" style="fill:#00aeef"/><circle cx="72" cy="-70.69" r=".5" style="fill:#00aeef"/><circle cx="38.4" cy="-1.85" r=".5" style="fill:#00aeef"/><circle cx="42.35" cy="-2.14" r=".5" style="fill:#00aeef"/><circle cx="27.5" cy="-60.48" r=".5" style="fill:#00aeef"/><circle cx="26.31" cy="-62.67" r=".5" style="fill:#00aeef"/><circle cx="3.17" cy="-72.02" r=".5" style="fill:#00aeef"/></svg>