<svg xmlns="http://www.w3.org/2000/svg" xml:space="preserve" width="57.6" height="57.6" viewBox="0 -57.6 57.6 57.6"><path d="M0-57.6h57.6V0H0z" style="fill:none"/><path d="M0-57.6h57.6V0H0z"/><circle cx="49.63" cy="-44.23" r=".78" style="fill:#fff"/><circle cx="48.88" cy="-55.43" r=".78" style="fill:#fff"/><circle cx="42.47" cy="-51.22" r=".78" style="fill:#fff"/><circle cx="28.47" cy="-51.31" r=".78" style="fill:#fff"/><circle cx="22.46" cy="-51.47" r=".78" style="fill:#fff"/><circle cx="14.38" cy="-50.56" r=".78" style="fill:#fff"/><circle cx="10.05" cy="-52.22" r=".78" style="fill:#fff"/><circle cx="4.63" cy="-48.39" r=".78" style="fill:#fff"/><circle cx="1.55" cy="-49.48" r=".78" style="fill:#fff"/><path d="M0-50.62a.78.78 0 0 0 0-1.56M57.6-52.18h-.01a.78.78 0 0 0 0 1.56h.01" style="fill:#fff"/><circle cx="8.63" cy="-42.56" r=".78" style="fill:#fff"/><circle cx="16.71" cy="-43.88" r=".78" style="fill:#fff"/><circle cx="21.29" cy="-44.97" r=".78" style="fill:#fff"/><circle cx="50.04" cy="-27.47" r=".78" style="fill:#fff"/><circle cx="38.38" cy="-49.55" r=".78" style="fill:#fff"/><circle cx="27.8" cy="-56.39" r=".78" style="fill:#fff"/><circle cx="18.47" cy="-37.89" r=".78" style="fill:#fff"/><circle cx="25.88" cy="-30.55" r=".78" style="fill:#fff"/><circle cx="34.21" cy="-29.47" r=".78" style="fill:#fff"/><circle cx="30.29" cy="-19.3" r=".78" style="fill:#fff"/><circle cx="56.8" cy="-26.31" r=".78" style="fill:#fff"/><circle cx="48.63" cy="-17.55" r=".78" style="fill:#fff"/><circle cx=".81" cy="-32.63" r=".78" style="fill:#fff"/><circle cx="19.73" cy="-28.38" r=".78" style="fill:#fff"/><circle cx="24.89" cy="-23.3" r=".78" style="fill:#fff"/><circle cx="12.38" cy="-18.48" r=".78" style="fill:#fff"/><circle cx="31.72" cy="-13.06" r=".78" style="fill:#fff"/><circle cx="41.3" cy="-14.39" r=".78" style="fill:#fff"/><circle cx="56.63" cy="-8.47" r=".78" style="fill:#fff"/><circle cx="52.38" cy="-2.39" r=".78" style="fill:#fff"/><circle cx="41.55" cy="-.81" r=".78" style="fill:#fff"/><path d="M45.5 0a.78.78 0 0 1 1.54 0M47.05-57.6a.78.78 0 0 1-1.56 0" style="fill:#fff"/><circle cx="13.55" cy="-3.39" r=".78" style="fill:#fff"/><circle cx="6.55" cy="-3.89" r=".78" style="fill:#fff"/><circle cx="1.3" cy="-16.48" r=".78" style="fill:#fff"/><circle cx="39.64" cy="-26.05" r=".78" style="fill:#fff"/><circle cx="20.98" cy="-32.47" r=".78" style="fill:#fff"/><circle cx="3.56" cy="-21.55" r=".78" style="fill:#fff"/><circle cx="45.97" cy="-46.22" r=".78" style="fill:#fff"/><circle cx="31.63" cy="-40.23" r=".78" style="fill:#fff"/><circle cx="33.63" cy="-37.56" r=".78" style="fill:#fff"/><circle cx="38.47" cy="-32.39" r=".78" style="fill:#fff"/><circle cx="44.63" cy="-30.06" r=".78" style="fill:#fff"/><circle cx="46.63" cy="-26.39" r=".78" style="fill:#fff"/><circle cx="51.47" cy="-24.06" r=".78" style="fill:#fff"/><circle cx="44.63" cy="-17.06" r=".78" style="fill:#fff"/><circle cx="54.63" cy="-30.39" r=".78" style="fill:#fff"/><circle cx="48.8" cy="-47.39" r=".78" style="fill:#fff"/><circle cx="39.13" cy="-45.23" r=".78" style="fill:#fff"/><circle cx="51.47" cy="-50.39" r=".78" style="fill:#fff"/><circle cx="47.63" cy="-33.89" r=".78" style="fill:#fff"/><circle cx="22.22" cy="-10.56" r=".78" style="fill:#fff"/><circle cx="19.32" cy="-11.68" r=".78" style="fill:#fff"/><circle cx="22.38" cy="-2.48" r=".78" style="fill:#fff"/><circle cx="16.63" cy="-10.14" r=".78" style="fill:#fff"/><circle cx="29.8" cy="-5.39" r=".78" style="fill:#fff"/><circle cx="54.13" cy="-41.72" r=".41" style="fill:#fff"/><circle cx="56.47" cy="-41.55" r=".41" style="fill:#fff"/><circle cx="55.47" cy="-39.22" r=".41" style="fill:#fff"/><circle cx="52.63" cy="-44.22" r=".41" style="fill:#fff"/><circle cx="47.97" cy="-41.22" r=".41" style="fill:#fff"/><circle cx="45.13" cy="-44.05" r=".41" style="fill:#fff"/><circle cx="42.13" cy="-44.89" r=".41" style="fill:#fff"/><circle cx="43.63" cy="-47.72" r=".41" style="fill:#fff"/><circle cx="45.3" cy="-48.55" r=".41" style="fill:#fff"/><circle cx="50.63" cy="-40.55" r=".41" style="fill:#fff"/><circle cx="51.8" cy="-42.55" r=".41" style="fill:#fff"/><circle cx="49.47" cy="-38.72" r=".41" style="fill:#fff"/><circle cx="52.63" cy="-38.39" r=".41" style="fill:#fff"/><circle cx="56.13" cy="-36.55" r=".41" style="fill:#fff"/><circle cx="55.3" cy="-34.89" r=".41" style="fill:#fff"/><circle cx="52.8" cy="-35.39" r=".41" style="fill:#fff"/><circle cx="50.8" cy="-33.22" r=".41" style="fill:#fff"/><circle cx="53.3" cy="-32.72" r=".41" style="fill:#fff"/><circle cx="56.3" cy="-32.72" r=".41" style="fill:#fff"/><circle cx="57.13" cy="-34.39" r=".41" style="fill:#fff"/><circle cx="57.13" cy="-11.05" r=".41" style="fill:#fff"/><circle cx="54.13" cy="-10.55" r=".41" style="fill:#fff"/><circle cx="51.63" cy="-11.14" r=".41" style="fill:#fff"/><circle cx="51.63" cy="-13.55" r=".41" style="fill:#fff"/><circle cx="48.8" cy="-12.55" r=".41" style="fill:#fff"/><circle cx="49.72" cy="-11.3" r=".41" style="fill:#fff"/><circle cx="50.55" cy="-8.3" r=".41" style="fill:#fff"/><circle cx="53.63" cy="-6.39" r=".41" style="fill:#fff"/><circle cx="15.93" cy="-8.84" r=".41" style="fill:#fff"/><circle cx=".77" cy="-14.34" r=".41" style="fill:#fff"/><circle cx="25.1" cy="-27.5" r=".41" style="fill:#fff"/><circle cx="22.35" cy="-26.25" r=".41" style="fill:#fff"/><circle cx="31.18" cy="-9.17" r=".41" style="fill:#fff"/><circle cx="6.52" cy="-29.09" r=".41" style="fill:#fff"/><circle cx="19.85" cy="-38.51" r=".41" style="fill:#fff"/><circle cx="23.27" cy="-55" r=".41" style="fill:#fff"/><circle cx="29.35" cy="-55.84" r=".41" style="fill:#fff"/><circle cx="14.18" cy="-48.67" r=".41" style="fill:#fff"/><circle cx="16.31" cy="-49.96" r=".41" style="fill:#fff"/><circle cx="22.68" cy="-56.59" r=".41" style="fill:#fff"/><circle cx="30.1" cy="-50.67" r=".41" style="fill:#fff"/><circle cx="1.6" cy="-56.59" r=".41" style="fill:#fff"/><circle cx="48.52" cy="-43.26" r=".41" style="fill:#fff"/><circle cx="37.6" cy="-48.34" r=".41" style="fill:#fff"/><circle cx="30.6" cy="-47.51" r=".41" style="fill:#fff"/><circle cx="43.68" cy="-2.71" r=".41" style="fill:#fff"/><circle cx="31.43" cy="-.46" r=".41" style="fill:#fff"/><circle cx="8.81" cy="-3.34" r=".41" style="fill:#fff"/><circle cx="49.56" cy="-31.59" r=".41" style="fill:#fff"/><circle cx="5.31" cy="-20.84" r=".41" style="fill:#fff"/><circle cx="1.31" cy="-10.96" r=".41" style="fill:#fff"/><circle cx="52.68" cy="-3.96" r=".41" style="fill:#fff"/><circle cx="54.06" cy="-8.84" r=".41" style="fill:#fff"/><circle cx="56.56" cy="-.96" r=".41" style="fill:#fff"/><circle cx="54.22" cy="-.43" r=".41" style="fill:#fff"/><circle cx="55.63" cy="-5.47" r=".41" style="fill:#fff"/><circle cx="55.47" cy="-2.81" r=".41" style="fill:#fff"/><circle cx="45.05" cy="-11.97" r=".41" style="fill:#fff"/><circle cx="44.22" cy="-14.64" r=".41" style="fill:#fff"/><circle cx="37.72" cy="-13.47" r=".41" style="fill:#fff"/><circle cx="36.55" cy="-12.47" r=".41" style="fill:#fff"/><circle cx="35.47" cy="-16.47" r=".41" style="fill:#fff"/><circle cx="33.55" cy="-15.3" r=".41" style="fill:#fff"/><circle cx="33.88" cy="-13.64" r=".41" style="fill:#fff"/><circle cx="28.8" cy="-12.47" r=".41" style="fill:#fff"/><circle cx="29.55" cy="-10.39" r=".41" style="fill:#fff"/><circle cx="27.38" cy="-19.05" r=".41" style="fill:#fff"/><circle cx="28.63" cy="-21.64" r=".41" style="fill:#fff"/><circle cx="27.22" cy="-22.89" r=".41" style="fill:#fff"/><circle cx="24.55" cy="-20.47" r=".41" style="fill:#fff"/><circle cx="22.8" cy="-19.3" r=".41" style="fill:#fff"/><circle cx="24.63" cy="-17.14" r=".41" style="fill:#fff"/><circle cx="27.8" cy="-17.14" r=".41" style="fill:#fff"/><circle cx="29.55" cy="-16.22" r=".41" style="fill:#fff"/><circle cx="31.8" cy="-16.72" r=".41" style="fill:#fff"/><circle cx="34.13" cy="-17.89" r=".41" style="fill:#fff"/><circle cx="32.55" cy="-19.14" r=".41" style="fill:#fff"/><circle cx="40.22" cy="-10.64" r=".41" style="fill:#fff"/><circle cx="42.63" cy="-11.3" r=".41" style="fill:#fff"/><circle cx="42.47" cy="-8.55" r=".41" style="fill:#fff"/><circle cx="43.55" cy="-6.39" r=".41" style="fill:#fff"/><circle cx="41.55" cy="-3.31" r=".41" style="fill:#fff"/><circle cx="45.3" cy="-1.39" r=".41" style="fill:#fff"/><circle cx="49.3" cy="-.72" r=".41" style="fill:#fff"/><circle cx="38.22" cy="-3.81" r=".41" style="fill:#fff"/><circle cx="40.38" cy="-5.3" r=".41" style="fill:#fff"/><circle cx="38.46" cy="-.48" r=".41" style="fill:#fff"/><circle cx="38.3" cy="-15.14" r=".41" style="fill:#fff"/><circle cx="39.38" cy="-18.05" r=".41" style="fill:#fff"/><circle cx="42.76" cy="-18.18" r=".41" style="fill:#fff"/><circle cx="40.63" cy="-16.05" r=".41" style="fill:#fff"/><circle cx="4.51" cy="-41.8" r=".41" style="fill:#fff"/><circle cx="35.55" cy="-2.47" r=".41" style="fill:#fff"/><circle cx="7.88" cy="-1.55" r=".41" style="fill:#fff"/><circle cx="27.8" cy="-31.55" r=".41" style="fill:#fff"/><circle cx="47.55" cy="-2.06" r=".41" style="fill:#fff"/><circle cx="46.55" cy="-10.47" r=".41" style="fill:#fff"/><circle cx="47.8" cy="-8.97" r=".41" style="fill:#fff"/><circle cx="44.8" cy="-8.39" r=".41" style="fill:#fff"/><circle cx="46.63" cy="-6.22" r=".41" style="fill:#fff"/><circle cx="47.88" cy="-5.05" r=".41" style="fill:#fff"/><circle cx="49.55" cy="-6.55" r=".41" style="fill:#fff"/><circle cx="50.55" cy="-5.55" r=".41" style="fill:#fff"/><circle cx="49.63" cy="-4.22" r=".41" style="fill:#fff"/><circle cx="57.01" cy="-13.43" r=".41" style="fill:#fff"/><circle cx="54.55" cy="-14.22" r=".41" style="fill:#fff"/><circle cx="50.3" cy="-16.05" r=".41" style="fill:#fff"/><circle cx="48.47" cy="-26.14" r=".41" style="fill:#fff"/><circle cx="48.05" cy="-24.55" r=".41" style="fill:#fff"/><circle cx="37.72" cy="-18.89" r=".41" style="fill:#fff"/><circle cx="49.88" cy="-19.55" r=".41" style="fill:#fff"/><circle cx="55.63" cy="-12.8" r=".41" style="fill:#fff"/><circle cx="19.63" cy="-15.3" r=".41" style="fill:#fff"/><circle cx="14.63" cy="-21.22" r=".41" style="fill:#fff"/><circle cx="14.97" cy="-15.64" r=".41" style="fill:#fff"/><circle cx="13.63" cy="-14.55" r=".41" style="fill:#fff"/><circle cx="17.38" cy="-14.55" r=".41" style="fill:#fff"/><circle cx="24.55" cy="-32.64" r=".41" style="fill:#fff"/><circle cx="46.3" cy="-40.64" r=".41" style="fill:#fff"/><circle cx="34.38" cy="-20.05" r=".41" style="fill:#fff"/><circle cx="35.72" cy="-22.22" r=".41" style="fill:#fff"/><circle cx="36.72" cy="-24.39" r=".41" style="fill:#fff"/><circle cx="33.3" cy="-24.14" r=".41" style="fill:#fff"/><circle cx="31.88" cy="-22.14" r=".41" style="fill:#fff"/><circle cx="57.13" cy="-28.22" r=".41" style="fill:#fff"/><circle cx="52.47" cy="-28.55" r=".41" style="fill:#fff"/><circle cx="50.13" cy="-29.55" r=".41" style="fill:#fff"/><circle cx="47.38" cy="-31.88" r=".41" style="fill:#fff"/><circle cx="44.3" cy="-33.22" r=".41" style="fill:#fff"/><circle cx="44.47" cy="-35.47" r=".41" style="fill:#fff"/><circle cx="43.8" cy="-37.3" r=".41" style="fill:#fff"/><circle cx="42.05" cy="-36.22" r=".41" style="fill:#fff"/><circle cx="39.22" cy="-36.89" r=".41" style="fill:#fff"/><circle cx="39.63" cy="-33.97" r=".41" style="fill:#fff"/><circle cx="42.38" cy="-31.97" r=".41" style="fill:#fff"/><circle cx="38.13" cy="-35.3" r=".41" style="fill:#fff"/><circle cx="35.72" cy="-35.55" r=".41" style="fill:#fff"/><circle cx="36.22" cy="-33.97" r=".41" style="fill:#fff"/><circle cx="35.63" cy="-38.55" r=".41" style="fill:#fff"/><circle cx="46.47" cy="-42.55" r=".41" style="fill:#fff"/><circle cx="40.55" cy="-43.39" r=".41" style="fill:#fff"/><circle cx="31.97" cy="-44.14" r=".41" style="fill:#fff"/><circle cx="29.47" cy="-44.3" r=".41" style="fill:#fff"/><circle cx="26.8" cy="-44.72" r=".41" style="fill:#fff"/><circle cx="25.22" cy="-43.72" r=".41" style="fill:#fff"/><circle cx="27.55" cy="-47.14" r=".41" style="fill:#fff"/><circle cx="25.47" cy="-48.64" r=".41" style="fill:#fff"/><circle cx="25.22" cy="-51.22" r=".41" style="fill:#fff"/><circle cx="24.47" cy="-46.39" r=".41" style="fill:#fff"/><circle cx="22.38" cy="-48.38" r=".41" style="fill:#fff"/><circle cx="19.55" cy="-47.64" r=".41" style="fill:#fff"/><circle cx="17.97" cy="-46.72" r=".41" style="fill:#fff"/><circle cx="48.05" cy="-35.72" r=".41" style="fill:#fff"/><circle cx="55.3" cy="-24.64" r=".41" style="fill:#fff"/><circle cx="53.72" cy="-27.22" r=".41" style="fill:#fff"/><circle cx="53.72" cy="-22.39" r=".41" style="fill:#fff"/><circle cx="56.63" cy="-21.72" r=".41" style="fill:#fff"/><circle cx="57.01" cy="-23.87" r=".41" style="fill:#fff"/><circle cx="43.97" cy="-25.39" r=".41" style="fill:#fff"/><circle cx="41.88" cy="-24.3" r=".41" style="fill:#fff"/><circle cx="45.05" cy="-23.89" r=".41" style="fill:#fff"/><circle cx="48.55" cy="-21.47" r=".41" style="fill:#fff"/><circle cx="52.55" cy="-20.72" r=".41" style="fill:#fff"/><circle cx="51.72" cy="-18.55" r=".41" style="fill:#fff"/><circle cx="54.55" cy="-19.39" r=".41" style="fill:#fff"/><circle cx="56.55" cy="-19.22" r=".41" style="fill:#fff"/><circle cx="55.97" cy="-15.47" r=".41" style="fill:#fff"/><circle cx="52.38" cy="-16.3" r=".41" style="fill:#fff"/><circle cx="46.72" cy="-16.39" r=".41" style="fill:#fff"/><circle cx="48.47" cy="-14.64" r=".41" style="fill:#fff"/><circle cx="46.05" cy="-20.05" r=".41" style="fill:#fff"/><circle cx="45.72" cy="-22.47" r=".41" style="fill:#fff"/><circle cx="43.88" cy="-21.39" r=".41" style="fill:#fff"/><circle cx="42.38" cy="-20.22" r=".41" style="fill:#fff"/><circle cx="40.3" cy="-21.64" r=".41" style="fill:#fff"/><circle cx="38.8" cy="-23.14" r=".41" style="fill:#fff"/><circle cx="47.8" cy="-28.72" r=".41" style="fill:#fff"/><circle cx="50.47" cy="-36.39" r=".41" style="fill:#fff"/><circle cx="45.97" cy="-38.39" r=".41" style="fill:#fff"/><circle cx="43.3" cy="-41.22" r=".41" style="fill:#fff"/><circle cx="38.8" cy="-41.72" r=".41" style="fill:#fff"/><circle cx="41.3" cy="-39.22" r=".41" style="fill:#fff"/><circle cx="36.97" cy="-39.72" r=".41" style="fill:#fff"/><circle cx="34.8" cy="-40.89" r=".41" style="fill:#fff"/><circle cx="36.8" cy="-43.55" r=".41" style="fill:#fff"/><circle cx="35.97" cy="-46.55" r=".41" style="fill:#fff"/><circle cx="33.97" cy="-44.89" r=".41" style="fill:#fff"/><circle cx="40.13" cy="-47.39" r=".41" style="fill:#fff"/><circle cx="56.13" cy="-52.89" r=".41" style="fill:#fff"/><circle cx="55.8" cy="-54.39" r=".41" style="fill:#fff"/><circle cx="52.63" cy="-54.39" r=".41" style="fill:#fff"/><circle cx="51.63" cy="-52.55" r=".41" style="fill:#fff"/><circle cx="54.13" cy="-51.39" r=".41" style="fill:#fff"/><circle cx="53.97" cy="-56.05" r=".41" style="fill:#fff"/><circle cx="56.13" cy="-56.72" r=".41" style="fill:#fff"/><circle cx="52.3" cy="-56.89" r=".41" style="fill:#fff"/><circle cx="49.86" cy="-57.19" r=".41" style="fill:#fff"/><circle cx="56.47" cy="-48.89" r=".41" style="fill:#fff"/><circle cx="54.47" cy="-47.89" r=".41" style="fill:#fff"/><circle cx="52.13" cy="-47.39" r=".41" style="fill:#fff"/><circle cx="55.97" cy="-44.39" r=".41" style="fill:#fff"/><circle cx="50.01" cy="-46.3" r=".41" style="fill:#fff"/><circle cx="49.51" cy="-23.43" r=".41" style="fill:#fff"/><circle cx="48.8" cy="-51.72" r=".41" style="fill:#fff"/><circle cx="48.13" cy="-49.89" r=".41" style="fill:#fff"/><circle cx="44.97" cy="-51.22" r=".41" style="fill:#fff"/><circle cx="46.3" cy="-53.39" r=".41" style="fill:#fff"/><circle cx="37.88" cy="-56.39" r=".41" style="fill:#fff"/><circle cx="42.22" cy="-55.64" r=".41" style="fill:#fff"/><circle cx="43.05" cy="-54.05" r=".41" style="fill:#fff"/><circle cx="39.72" cy="-53.72" r=".41" style="fill:#fff"/><circle cx="40.6" cy="-56.67" r=".41" style="fill:#fff"/><circle cx="36.63" cy="-55.3" r=".41" style="fill:#fff"/><circle cx="34.72" cy="-55.22" r=".41" style="fill:#fff"/><circle cx="35.38" cy="-53.47" r=".41" style="fill:#fff"/><circle cx="32.22" cy="-56.3" r=".41" style="fill:#fff"/><path d="M35.66-57.6a.4.4 0 0 1-.82 0M34.84 0a.4.4 0 0 1 .4-.39c.23 0 .4.17.42.39" style="fill:#fff"/><circle cx="5.88" cy="-57.05" r=".41" style="fill:#fff"/><circle cx="3.55" cy="-56.22" r=".41" style="fill:#fff"/><circle cx="1.55" cy="-54.05" r=".41" style="fill:#fff"/><circle cx="6.22" cy="-54.72" r=".41" style="fill:#fff"/><circle cx="8.22" cy="-56.72" r=".41" style="fill:#fff"/><circle cx="11.47" cy="-57.05" r=".41" style="fill:#fff"/><circle cx="14.82" cy="-57.18" r=".41" style="fill:#fff"/><circle cx="19.47" cy="-56.64" r=".41" style="fill:#fff"/><circle cx="24.22" cy="-53.64" r=".41" style="fill:#fff"/><circle cx="20.55" cy="-54.39" r=".41" style="fill:#fff"/><circle cx="16.72" cy="-54.72" r=".41" style="fill:#fff"/><circle cx="13.63" cy="-54.39" r=".41" style="fill:#fff"/><circle cx="10.88" cy="-54.14" r=".41" style="fill:#fff"/><circle cx="7.55" cy="-52.72" r=".41" style="fill:#fff"/><circle cx="4.3" cy="-52.72" r=".41" style="fill:#fff"/><circle cx="6.63" cy="-50.64" r=".41" style="fill:#fff"/><circle cx="3.63" cy="-50.39" r=".41" style="fill:#fff"/><circle cx="8.05" cy="-48.72" r=".41" style="fill:#fff"/><circle cx="10.3" cy="-49.72" r=".41" style="fill:#fff"/><circle cx="12.05" cy="-50.64" r=".41" style="fill:#fff"/><circle cx="11.63" cy="-47.72" r=".41" style="fill:#fff"/><circle cx="9.05" cy="-46.3" r=".41" style="fill:#fff"/><circle cx="12.05" cy="-45.39" r=".41" style="fill:#fff"/><circle cx="15.47" cy="-46.14" r=".41" style="fill:#fff"/><circle cx="10.55" cy="-43.55" r=".41" style="fill:#fff"/><circle cx="12.72" cy="-42.8" r=".41" style="fill:#fff"/><circle cx="7.05" cy="-44.8" r=".41" style="fill:#fff"/><circle cx="6.47" cy="-46.55" r=".41" style="fill:#fff"/><circle cx="3.13" cy="-46.22" r=".41" style="fill:#fff"/><circle cx=".63" cy="-45.39" r=".41" style="fill:#fff"/><circle cx="1.88" cy="-44.3" r=".41" style="fill:#fff"/><circle cx="4.55" cy="-44.22" r=".41" style="fill:#fff"/><circle cx="5.63" cy="-43.22" r=".41" style="fill:#fff"/><circle cx="6.05" cy="-40.47" r=".41" style="fill:#fff"/><circle cx="3.22" cy="-39.72" r=".41" style="fill:#fff"/><circle cx=".64" cy="-37.64" r=".41" style="fill:#fff"/><circle cx="4.63" cy="-38.22" r=".41" style="fill:#fff"/><circle cx="3.63" cy="-36.22" r=".41" style="fill:#fff"/><circle cx="3.97" cy="-34.3" r=".41" style="fill:#fff"/><circle cx="7.38" cy="-34.3" r=".41" style="fill:#fff"/><circle cx="8.05" cy="-38.39" r=".41" style="fill:#fff"/><circle cx="10.22" cy="-37.72" r=".41" style="fill:#fff"/><circle cx="9.88" cy="-40.39" r=".41" style="fill:#fff"/><circle cx="12.22" cy="-40.97" r=".41" style="fill:#fff"/><circle cx="12.3" cy="-38.47" r=".41" style="fill:#fff"/><circle cx="13.22" cy="-36.8" r=".41" style="fill:#fff"/><circle cx="11.72" cy="-35.3" r=".41" style="fill:#fff"/><circle cx="14.13" cy="-34.14" r=".41" style="fill:#fff"/><circle cx="16.55" cy="-34.3" r=".41" style="fill:#fff"/><circle cx="15.88" cy="-37.22" r=".41" style="fill:#fff"/><circle cx="14.55" cy="-44.39" r=".41" style="fill:#fff"/><circle cx="6.88" cy="-31.39" r=".41" style="fill:#fff"/><circle cx="5.63" cy="-33.39" r=".41" style="fill:#fff"/><circle cx="9.8" cy="-32.39" r=".41" style="fill:#fff"/><circle cx="10.88" cy="-30.3" r=".41" style="fill:#fff"/><circle cx="13.05" cy="-29.39" r=".41" style="fill:#fff"/><circle cx="15.13" cy="-30.3" r=".41" style="fill:#fff"/><circle cx="13.38" cy="-32.3" r=".41" style="fill:#fff"/><circle cx="16.97" cy="-29.8" r=".41" style="fill:#fff"/><circle cx="18.47" cy="-34.55" r=".41" style="fill:#fff"/><circle cx="20.8" cy="-37.14" r=".41" style="fill:#fff"/><circle cx="20.72" cy="-34.72" r=".41" style="fill:#fff"/><circle cx="23.55" cy="-34.8" r=".41" style="fill:#fff"/><circle cx="22.72" cy="-36.64" r=".41" style="fill:#fff"/><circle cx="26.22" cy="-33.64" r=".41" style="fill:#fff"/><circle cx="27.88" cy="-34.97" r=".41" style="fill:#fff"/><circle cx="31.18" cy="-35.84" r=".41" style="fill:#fff"/><circle cx="33.35" cy="-42.34" r=".41" style="fill:#fff"/><circle cx="24.6" cy="-41.59" r=".41" style="fill:#fff"/><circle cx="20.02" cy="-30.67" r=".41" style="fill:#fff"/><circle cx="18.68" cy="-32.34" r=".41" style="fill:#fff"/><circle cx="41.02" cy="-41.01" r=".41" style="fill:#fff"/><circle cx="37.43" cy="-41.26" r=".41" style="fill:#fff"/><circle cx="20.1" cy="-43.76" r=".41" style="fill:#fff"/><circle cx="6.6" cy="-36.67" r=".41" style="fill:#fff"/><circle cx=".85" cy="-35.26" r=".41" style="fill:#fff"/><circle cx="37.6" cy="-21.17" r=".41" style="fill:#fff"/><circle cx="27.97" cy="-39.22" r=".41" style="fill:#fff"/><circle cx="27.3" cy="-36.89" r=".41" style="fill:#fff"/><circle cx="30.13" cy="-37.8" r=".41" style="fill:#fff"/><circle cx="29.63" cy="-33.8" r=".41" style="fill:#fff"/><circle cx="32.13" cy="-33.89" r=".41" style="fill:#fff"/><circle cx="30.63" cy="-31.14" r=".41" style="fill:#fff"/><circle cx="35.8" cy="-31.22" r=".41" style="fill:#fff"/><circle cx="34.22" cy="-32.3" r=".41" style="fill:#fff"/><circle cx="18.38" cy="-22.3" r=".41" style="fill:#fff"/><circle cx="20.05" cy="-20.72" r=".41" style="fill:#fff"/><circle cx="17.55" cy="-20.3" r=".41" style="fill:#fff"/><circle cx="15.38" cy="-23.64" r=".41" style="fill:#fff"/><circle cx="18.55" cy="-17.55" r=".41" style="fill:#fff"/><circle cx="21.05" cy="-17.97" r=".41" style="fill:#fff"/><circle cx="21.88" cy="-16.8" r=".41" style="fill:#fff"/><circle cx="22.63" cy="-14.39" r=".41" style="fill:#fff"/><circle cx="25.05" cy="-15.14" r=".41" style="fill:#fff"/><circle cx="25.97" cy="-13.22" r=".41" style="fill:#fff"/><circle cx="24.38" cy="-12.39" r=".41" style="fill:#fff"/><circle cx="16.55" cy="-13.22" r=".41" style="fill:#fff"/><circle cx="19.97" cy="-8.89" r=".41" style="fill:#fff"/><circle cx="18.55" cy="-7.14" r=".41" style="fill:#fff"/><circle cx="21.63" cy="-6.3" r=".41" style="fill:#fff"/><circle cx="23.63" cy="-8.22" r=".41" style="fill:#fff"/><circle cx="27.47" cy="-7.55" r=".41" style="fill:#fff"/><circle cx="26.13" cy="-5.39" r=".41" style="fill:#fff"/><circle cx="28.38" cy="-4.3" r=".41" style="fill:#fff"/><circle cx="31.72" cy="-3.31" r=".41" style="fill:#fff"/><circle cx="32.8" cy="-1.97" r=".41" style="fill:#fff"/><circle cx="29.47" cy="-1.39" r=".41" style="fill:#fff"/><circle cx="32.38" cy="-7.14" r=".41" style="fill:#fff"/><circle cx="35.8" cy="-8.39" r=".41" style="fill:#fff"/><circle cx="38.72" cy="-6.55" r=".41" style="fill:#fff"/><circle cx="36.72" cy="-5.39" r=".41" style="fill:#fff"/><circle cx="34.47" cy="-7.22" r=".41" style="fill:#fff"/><circle cx="34.38" cy="-4.22" r=".41" style="fill:#fff"/><circle cx="15.88" cy="-6.39" r=".41" style="fill:#fff"/><circle cx="14.13" cy="-6.3" r=".41" style="fill:#fff"/><circle cx="9.63" cy="-9.05" r=".41" style="fill:#fff"/><circle cx="6.55" cy="-10.55" r=".41" style="fill:#fff"/><circle cx="4.88" cy="-12.72" r=".41" style="fill:#fff"/><circle cx="3.63" cy="-15.22" r=".41" style="fill:#fff"/><circle cx="3.22" cy="-18.47" r=".41" style="fill:#fff"/><circle cx="6.47" cy="-23.47" r=".41" style="fill:#fff"/><circle cx="2.05" cy="-12.97" r=".41" style="fill:#fff"/><circle cx="1.3" cy="-8.89" r=".41" style="fill:#fff"/><circle cx="3.47" cy="-10.3" r=".41" style="fill:#fff"/><circle cx="4.63" cy="-9.39" r=".41" style="fill:#fff"/><circle cx="6.47" cy="-7.55" r=".41" style="fill:#fff"/><circle cx="3.13" cy="-6.64" r=".41" style="fill:#fff"/><circle cx="4.97" cy="-5.72" r=".41" style="fill:#fff"/><circle cx="3.72" cy="-4.55" r=".41" style="fill:#fff"/><circle cx="1.47" cy="-2.47" r=".41" style="fill:#fff"/><circle cx="3.55" cy="-.56" r=".41" style="fill:#fff"/><circle cx="9.63" cy="-2.22" r=".41" style="fill:#fff"/><circle cx="9.63" cy="-5.39" r=".41" style="fill:#fff"/><circle cx="6.3" cy="-2.14" r=".41" style="fill:#fff"/><circle cx="16.13" cy="-1.22" r=".41" style="fill:#fff"/><circle cx="12.47" cy="-1.39" r=".41" style="fill:#fff"/><circle cx="11.38" cy="-4.64" r=".41" style="fill:#fff"/><circle cx="15.55" cy="-4.22" r=".41" style="fill:#fff"/><circle cx="19.22" cy="-1.64" r=".41" style="fill:#fff"/><circle cx="15.8" cy="-18.05" r=".41" style="fill:#fff"/><circle cx="24.55" cy="-2.22" r=".41" style="fill:#fff"/><circle cx="22.88" cy="-.56" r=".41" style="fill:#fff"/><circle cx="20.38" cy="-3.81" r=".41" style="fill:#fff"/><circle cx="19.47" cy="-5.39" r=".41" style="fill:#fff"/><circle cx="23.97" cy="-3.72" r=".41" style="fill:#fff"/><circle cx="24.3" cy="-6.47" r=".41" style="fill:#fff"/><circle cx="26.55" cy="-2.31" r=".41" style="fill:#fff"/><circle cx="27.72" cy="-.47" r=".41" style="fill:#fff"/><circle cx="13.55" cy="-8.3" r=".41" style="fill:#fff"/><circle cx="14.46" cy="-11.3" r=".41" style="fill:#fff"/><circle cx="1.77" cy="-5.17" r=".41" style="fill:#fff"/><circle cx="10.93" cy="-12.67" r=".41" style="fill:#fff"/><circle cx="23.85" cy="-24.75" r=".41" style="fill:#fff"/><circle cx="14.02" cy="-24.25" r=".41" style="fill:#fff"/><circle cx="56.18" cy="-30.17" r=".41" style="fill:#fff"/><circle cx="51.85" cy="-31.09" r=".41" style="fill:#fff"/><circle cx="30.68" cy="-14.26" r=".41" style="fill:#fff"/><circle cx="11.55" cy="-11.3" r=".41" style="fill:#fff"/><circle cx="11.47" cy="-16.47" r=".41" style="fill:#fff"/><circle cx="10.72" cy="-20.3" r=".41" style="fill:#fff"/><circle cx="9.63" cy="-18.39" r=".41" style="fill:#fff"/><circle cx="8.8" cy="-16.39" r=".41" style="fill:#fff"/><circle cx="9.55" cy="-13.47" r=".41" style="fill:#fff"/><circle cx="6.8" cy="-13.22" r=".41" style="fill:#fff"/><circle cx="6.3" cy="-16.39" r=".41" style="fill:#fff"/><circle cx="5.97" cy="-19.14" r=".41" style="fill:#fff"/><circle cx="7.8" cy="-19.72" r=".41" style="fill:#fff"/><circle cx="7.63" cy="-22.05" r=".41" style="fill:#fff"/><circle cx="26.55" cy="-10.89" r=".41" style="fill:#fff"/><circle cx="32.63" cy="-9.22" r=".41" style="fill:#fff"/><circle cx="34.55" cy="-10.47" r=".41" style="fill:#fff"/><circle cx="38.47" cy="-9.55" r=".41" style="fill:#fff"/><circle cx="38.63" cy="-12.22" r=".41" style="fill:#fff"/><circle cx="29.55" cy="-28.64" r=".41" style="fill:#fff"/><circle cx="27.8" cy="-27.47" r=".41" style="fill:#fff"/><circle cx="23.63" cy="-28.47" r=".41" style="fill:#fff"/><circle cx="23.13" cy="-30.72" r=".41" style="fill:#fff"/><circle cx="38.3" cy="-29.47" r=".41" style="fill:#fff"/><circle cx="41.22" cy="-29.47" r=".41" style="fill:#fff"/><circle cx="42.47" cy="-27.64" r=".41" style="fill:#fff"/><circle cx="37.38" cy="-27.55" r=".41" style="fill:#fff"/><circle cx="32.47" cy="-27.39" r=".41" style="fill:#fff"/><circle cx="31.13" cy="-26.05" r=".41" style="fill:#fff"/><circle cx="34.63" cy="-25.39" r=".41" style="fill:#fff"/><circle cx="30.55" cy="-23.89" r=".41" style="fill:#fff"/><circle cx="27.47" cy="-24.47" r=".41" style="fill:#fff"/><circle cx="25.13" cy="-26.22" r=".41" style="fill:#fff"/><circle cx="20.72" cy="-26.3" r=".41" style="fill:#fff"/><circle cx="21.97" cy="-22.47" r=".41" style="fill:#fff"/><circle cx="18.72" cy="-24.47" r=".41" style="fill:#fff"/><circle cx="17.3" cy="-27.22" r=".41" style="fill:#fff"/><circle cx="15.05" cy="-27.64" r=".41" style="fill:#fff"/><circle cx="14.38" cy="-26.14" r=".41" style="fill:#fff"/><circle cx="10.63" cy="-27.64" r=".41" style="fill:#fff"/><circle cx="8.38" cy="-29.72" r=".41" style="fill:#fff"/><circle cx="6.63" cy="-27.89" r=".41" style="fill:#fff"/><circle cx="8.63" cy="-27.39" r=".41" style="fill:#fff"/><circle cx="9.63" cy="-24.89" r=".41" style="fill:#fff"/><circle cx="12.05" cy="-25.55" r=".41" style="fill:#fff"/><circle cx=".64" cy="-29.48" r=".41" style="fill:#fff"/><circle cx="1.8" cy="-28.3" r=".41" style="fill:#fff"/><circle cx="3.63" cy="-31.64" r=".41" style="fill:#fff"/><circle cx="1.97" cy="-33.55" r=".41" style="fill:#fff"/><circle cx=".55" cy="-18.39" r=".41" style="fill:#fff"/><circle cx="4.55" cy="-30.05" r=".41" style="fill:#fff"/><circle cx="8.47" cy="-35.72" r=".41" style="fill:#fff"/><circle cx="16.97" cy="-31.72" r=".41" style="fill:#fff"/><circle cx="44.97" cy="-54.72" r=".41" style="fill:#fff"/><circle cx="31.8" cy="-29.72" r=".41" style="fill:#fff"/><circle cx="10.3" cy="-7.55" r=".41" style="fill:#fff"/><circle cx="45.97" cy="-4.05" r=".41" style="fill:#fff"/><circle cx="11.8" cy="-22.3" r=".41" style="fill:#fff"/><circle cx="5.72" cy="-25.72" r=".41" style="fill:#fff"/><circle cx="4.47" cy="-27.3" r=".41" style="fill:#fff"/><circle cx="4.55" cy="-24.39" r=".41" style="fill:#fff"/><circle cx="1.72" cy="-24.47" r=".41" style="fill:#fff"/><circle cx="1.3" cy="-22.14" r=".41" style="fill:#fff"/><circle cx="23.38" cy="-38.3" r=".41" style="fill:#fff"/><circle cx="25.55" cy="-39.55" r=".41" style="fill:#fff"/><circle cx="1.55" cy="-41.39" r=".41" style="fill:#fff"/><circle cx="16.3" cy="-41.55" r=".41" style="fill:#fff"/><circle cx="21.55" cy="-42.3" r=".41" style="fill:#fff"/><circle cx="23.13" cy="-43.72" r=".41" style="fill:#fff"/><circle cx="26.55" cy="-41.3" r=".41" style="fill:#fff"/><circle cx="30.05" cy="-41.64" r=".41" style="fill:#fff"/><circle cx="21.47" cy="-40.47" r=".41" style="fill:#fff"/><circle cx="18.63" cy="-41.55" r=".41" style="fill:#fff"/><circle cx="17.55" cy="-40.3" r=".41" style="fill:#fff"/><circle cx="14.47" cy="-39.3" r=".41" style="fill:#fff"/><circle cx="16.63" cy="-52.39" r=".41" style="fill:#fff"/><circle cx="18.8" cy="-52.3" r=".41" style="fill:#fff"/><circle cx="19.55" cy="-50.55" r=".41" style="fill:#fff"/><circle cx="17.63" cy="-48.64" r=".41" style="fill:#fff"/><circle cx="24.47" cy="-56.3" r=".41" style="fill:#fff"/><circle cx="27.63" cy="-53.39" r=".41" style="fill:#fff"/><circle cx="30.05" cy="-52.97" r=".41" style="fill:#fff"/><circle cx="31.63" cy="-53.72" r=".41" style="fill:#fff"/><circle cx="32.72" cy="-51.8" r=".41" style="fill:#fff"/><circle cx="31.55" cy="-49.39" r=".41" style="fill:#fff"/><circle cx="34.72" cy="-49.47" r=".41" style="fill:#fff"/><circle cx="33.63" cy="-47.39" r=".41" style="fill:#fff"/><circle cx="31.38" cy="-45.39" r=".41" style="fill:#fff"/><circle cx="28.72" cy="-48.22" r=".41" style="fill:#fff"/><circle cx="40.3" cy="-51.72" r=".41" style="fill:#fff"/><circle cx="41.8" cy="-49.22" r=".41" style="fill:#fff"/><circle cx="47.97" cy="-53.97" r=".41" style="fill:#fff"/><circle cx="57.13" cy="-46.18" r=".41" style="fill:#fff"/><circle cx="37.97" cy="-52.3" r=".41" style="fill:#fff"/><circle cx="35.8" cy="-51.64" r=".41" style="fill:#fff"/></svg>