<svg xmlns="http://www.w3.org/2000/svg" xml:space="preserve" width="57.6" height="57.6" viewBox="1 -58.6 57.6 57.6"><path d="M1-58.6h57.6V-1H1z" style="fill:none"/><circle cx="50.63" cy="-45.23" r=".78" style="fill:#ec008c"/><circle cx="49.88" cy="-56.43" r=".78" style="fill:#ec008c"/><circle cx="43.47" cy="-52.22" r=".78" style="fill:#ec008c"/><circle cx="29.47" cy="-52.31" r=".78" style="fill:#ec008c"/><circle cx="23.46" cy="-52.47" r=".78" style="fill:#ec008c"/><circle cx="15.38" cy="-51.56" r=".78" style="fill:#ec008c"/><circle cx="11.05" cy="-53.22" r=".78" style="fill:#ec008c"/><circle cx="5.63" cy="-49.39" r=".78" style="fill:#ec008c"/><circle cx="2.55" cy="-50.48" r=".78" style="fill:#ec008c"/><path d="M1-51.62a.78.78 0 0 0 0-1.56M58.6-53.18h-.01a.78.78 0 0 0 0 1.56h.01" style="fill:#ec008c"/><circle cx="9.63" cy="-43.56" r=".78" style="fill:#ec008c"/><circle cx="17.71" cy="-44.88" r=".78" style="fill:#ec008c"/><circle cx="22.29" cy="-45.97" r=".78" style="fill:#ec008c"/><circle cx="51.04" cy="-28.47" r=".78" style="fill:#ec008c"/><circle cx="39.38" cy="-50.55" r=".78" style="fill:#ec008c"/><circle cx="28.8" cy="-57.39" r=".78" style="fill:#ec008c"/><circle cx="19.47" cy="-38.89" r=".78" style="fill:#ec008c"/><circle cx="26.88" cy="-31.55" r=".78" style="fill:#ec008c"/><circle cx="35.21" cy="-30.47" r=".78" style="fill:#ec008c"/><circle cx="31.29" cy="-20.3" r=".78" style="fill:#ec008c"/><circle cx="57.8" cy="-27.31" r=".78" style="fill:#ec008c"/><circle cx="49.63" cy="-18.55" r=".78" style="fill:#ec008c"/><circle cx="1.81" cy="-33.63" r=".78" style="fill:#ec008c"/><circle cx="20.73" cy="-29.38" r=".78" style="fill:#ec008c"/><circle cx="25.89" cy="-24.3" r=".78" style="fill:#ec008c"/><circle cx="13.38" cy="-19.48" r=".78" style="fill:#ec008c"/><circle cx="32.72" cy="-14.06" r=".78" style="fill:#ec008c"/><circle cx="42.3" cy="-15.39" r=".78" style="fill:#ec008c"/><circle cx="57.63" cy="-9.47" r=".78" style="fill:#ec008c"/><circle cx="53.38" cy="-3.39" r=".78" style="fill:#ec008c"/><circle cx="42.55" cy="-1.81" r=".78" style="fill:#ec008c"/><path d="M46.5-1a.78.78 0 0 1 1.54 0M48.05-58.6a.78.78 0 0 1-1.56 0" style="fill:#ec008c"/><circle cx="14.55" cy="-4.39" r=".78" style="fill:#ec008c"/><circle cx="7.55" cy="-4.89" r=".78" style="fill:#ec008c"/><circle cx="2.3" cy="-17.48" r=".78" style="fill:#ec008c"/><circle cx="40.64" cy="-27.05" r=".78" style="fill:#ec008c"/><circle cx="21.98" cy="-33.47" r=".78" style="fill:#ec008c"/><circle cx="4.56" cy="-22.55" r=".78" style="fill:#ec008c"/><circle cx="46.97" cy="-47.22" r=".78" style="fill:#ec008c"/><circle cx="32.63" cy="-41.23" r=".78" style="fill:#ec008c"/><circle cx="34.63" cy="-38.56" r=".78" style="fill:#ec008c"/><circle cx="39.47" cy="-33.39" r=".78" style="fill:#ec008c"/><circle cx="45.63" cy="-31.06" r=".78" style="fill:#ec008c"/><circle cx="47.63" cy="-27.39" r=".78" style="fill:#ec008c"/><circle cx="52.47" cy="-25.06" r=".78" style="fill:#ec008c"/><circle cx="45.63" cy="-18.06" r=".78" style="fill:#ec008c"/><circle cx="55.63" cy="-31.39" r=".78" style="fill:#ec008c"/><circle cx="49.8" cy="-48.39" r=".78" style="fill:#ec008c"/><circle cx="40.13" cy="-46.23" r=".78" style="fill:#ec008c"/><circle cx="52.47" cy="-51.39" r=".78" style="fill:#ec008c"/><circle cx="48.63" cy="-34.89" r=".78" style="fill:#ec008c"/><circle cx="23.22" cy="-11.56" r=".78" style="fill:#ec008c"/><circle cx="20.32" cy="-12.68" r=".78" style="fill:#ec008c"/><circle cx="23.38" cy="-3.48" r=".78" style="fill:#ec008c"/><circle cx="17.63" cy="-11.14" r=".78" style="fill:#ec008c"/><circle cx="30.8" cy="-6.39" r=".78" style="fill:#ec008c"/><circle cx="55.13" cy="-42.72" r=".41" style="fill:#ec008c"/><circle cx="57.47" cy="-42.55" r=".41" style="fill:#ec008c"/><circle cx="56.47" cy="-40.22" r=".41" style="fill:#ec008c"/><circle cx="53.63" cy="-45.22" r=".41" style="fill:#ec008c"/><circle cx="48.97" cy="-42.22" r=".41" style="fill:#ec008c"/><circle cx="46.13" cy="-45.05" r=".41" style="fill:#ec008c"/><circle cx="43.13" cy="-45.89" r=".41" style="fill:#ec008c"/><circle cx="44.63" cy="-48.72" r=".41" style="fill:#ec008c"/><circle cx="46.3" cy="-49.55" r=".41" style="fill:#ec008c"/><circle cx="51.63" cy="-41.55" r=".41" style="fill:#ec008c"/><circle cx="52.8" cy="-43.55" r=".41" style="fill:#ec008c"/><circle cx="50.47" cy="-39.72" r=".41" style="fill:#ec008c"/><circle cx="53.63" cy="-39.39" r=".41" style="fill:#ec008c"/><circle cx="57.13" cy="-37.55" r=".41" style="fill:#ec008c"/><circle cx="56.3" cy="-35.89" r=".41" style="fill:#ec008c"/><circle cx="53.8" cy="-36.39" r=".41" style="fill:#ec008c"/><circle cx="51.8" cy="-34.22" r=".41" style="fill:#ec008c"/><circle cx="54.3" cy="-33.72" r=".41" style="fill:#ec008c"/><circle cx="57.3" cy="-33.72" r=".41" style="fill:#ec008c"/><circle cx="58.13" cy="-35.39" r=".41" style="fill:#ec008c"/><circle cx="58.13" cy="-12.05" r=".41" style="fill:#ec008c"/><circle cx="55.13" cy="-11.55" r=".41" style="fill:#ec008c"/><circle cx="52.63" cy="-12.14" r=".41" style="fill:#ec008c"/><circle cx="52.63" cy="-14.55" r=".41" style="fill:#ec008c"/><circle cx="49.8" cy="-13.55" r=".41" style="fill:#ec008c"/><circle cx="50.72" cy="-12.3" r=".41" style="fill:#ec008c"/><circle cx="51.55" cy="-9.3" r=".41" style="fill:#ec008c"/><circle cx="54.63" cy="-7.39" r=".41" style="fill:#ec008c"/><circle cx="16.93" cy="-9.84" r=".41" style="fill:#ec008c"/><circle cx="1.77" cy="-15.34" r=".41" style="fill:#ec008c"/><circle cx="26.1" cy="-28.5" r=".41" style="fill:#ec008c"/><circle cx="23.35" cy="-27.25" r=".41" style="fill:#ec008c"/><circle cx="32.18" cy="-10.17" r=".41" style="fill:#ec008c"/><circle cx="7.52" cy="-30.09" r=".41" style="fill:#ec008c"/><circle cx="20.85" cy="-39.51" r=".41" style="fill:#ec008c"/><circle cx="24.27" cy="-56" r=".41" style="fill:#ec008c"/><circle cx="30.35" cy="-56.84" r=".41" style="fill:#ec008c"/><circle cx="15.18" cy="-49.67" r=".41" style="fill:#ec008c"/><circle cx="17.31" cy="-50.96" r=".41" style="fill:#ec008c"/><circle cx="23.68" cy="-57.59" r=".41" style="fill:#ec008c"/><circle cx="31.1" cy="-51.67" r=".41" style="fill:#ec008c"/><circle cx="2.6" cy="-57.59" r=".41" style="fill:#ec008c"/><circle cx="49.52" cy="-44.26" r=".41" style="fill:#ec008c"/><circle cx="38.6" cy="-49.34" r=".41" style="fill:#ec008c"/><circle cx="31.6" cy="-48.51" r=".41" style="fill:#ec008c"/><circle cx="44.68" cy="-3.71" r=".41" style="fill:#ec008c"/><circle cx="32.43" cy="-1.46" r=".41" style="fill:#ec008c"/><circle cx="9.81" cy="-4.34" r=".41" style="fill:#ec008c"/><circle cx="50.56" cy="-32.59" r=".41" style="fill:#ec008c"/><circle cx="6.31" cy="-21.84" r=".41" style="fill:#ec008c"/><circle cx="2.31" cy="-11.96" r=".41" style="fill:#ec008c"/><circle cx="53.68" cy="-4.96" r=".41" style="fill:#ec008c"/><circle cx="55.06" cy="-9.84" r=".41" style="fill:#ec008c"/><circle cx="57.56" cy="-1.96" r=".41" style="fill:#ec008c"/><circle cx="55.22" cy="-1.43" r=".41" style="fill:#ec008c"/><circle cx="56.63" cy="-6.47" r=".41" style="fill:#ec008c"/><circle cx="56.47" cy="-3.81" r=".41" style="fill:#ec008c"/><circle cx="46.05" cy="-12.97" r=".41" style="fill:#ec008c"/><circle cx="45.22" cy="-15.64" r=".41" style="fill:#ec008c"/><circle cx="38.72" cy="-14.47" r=".41" style="fill:#ec008c"/><circle cx="37.55" cy="-13.47" r=".41" style="fill:#ec008c"/><circle cx="36.47" cy="-17.47" r=".41" style="fill:#ec008c"/><circle cx="34.55" cy="-16.3" r=".41" style="fill:#ec008c"/><circle cx="34.88" cy="-14.64" r=".41" style="fill:#ec008c"/><circle cx="29.8" cy="-13.47" r=".41" style="fill:#ec008c"/><circle cx="30.55" cy="-11.39" r=".41" style="fill:#ec008c"/><circle cx="28.38" cy="-20.05" r=".41" style="fill:#ec008c"/><circle cx="29.63" cy="-22.64" r=".41" style="fill:#ec008c"/><circle cx="28.22" cy="-23.89" r=".41" style="fill:#ec008c"/><circle cx="25.55" cy="-21.47" r=".41" style="fill:#ec008c"/><circle cx="23.8" cy="-20.3" r=".41" style="fill:#ec008c"/><circle cx="25.63" cy="-18.14" r=".41" style="fill:#ec008c"/><circle cx="28.8" cy="-18.14" r=".41" style="fill:#ec008c"/><circle cx="30.55" cy="-17.22" r=".41" style="fill:#ec008c"/><circle cx="32.8" cy="-17.72" r=".41" style="fill:#ec008c"/><circle cx="35.13" cy="-18.89" r=".41" style="fill:#ec008c"/><circle cx="33.55" cy="-20.14" r=".41" style="fill:#ec008c"/><circle cx="41.22" cy="-11.64" r=".41" style="fill:#ec008c"/><circle cx="43.63" cy="-12.3" r=".41" style="fill:#ec008c"/><circle cx="43.47" cy="-9.55" r=".41" style="fill:#ec008c"/><circle cx="44.55" cy="-7.39" r=".41" style="fill:#ec008c"/><circle cx="42.55" cy="-4.3" r=".41" style="fill:#ec008c"/><circle cx="46.3" cy="-2.39" r=".41" style="fill:#ec008c"/><circle cx="50.3" cy="-1.72" r=".41" style="fill:#ec008c"/><circle cx="39.22" cy="-4.8" r=".41" style="fill:#ec008c"/><circle cx="41.38" cy="-6.3" r=".41" style="fill:#ec008c"/><circle cx="39.46" cy="-1.48" r=".41" style="fill:#ec008c"/><circle cx="39.3" cy="-16.14" r=".41" style="fill:#ec008c"/><circle cx="40.38" cy="-19.05" r=".41" style="fill:#ec008c"/><circle cx="43.76" cy="-19.18" r=".41" style="fill:#ec008c"/><circle cx="41.63" cy="-17.05" r=".41" style="fill:#ec008c"/><circle cx="5.51" cy="-42.8" r=".41" style="fill:#ec008c"/><circle cx="36.55" cy="-3.47" r=".41" style="fill:#ec008c"/><circle cx="8.88" cy="-2.56" r=".41" style="fill:#ec008c"/><circle cx="28.8" cy="-32.55" r=".41" style="fill:#ec008c"/><circle cx="48.55" cy="-3.06" r=".41" style="fill:#ec008c"/><circle cx="47.55" cy="-11.47" r=".41" style="fill:#ec008c"/><circle cx="48.8" cy="-9.97" r=".41" style="fill:#ec008c"/><circle cx="45.8" cy="-9.39" r=".41" style="fill:#ec008c"/><circle cx="47.63" cy="-7.22" r=".41" style="fill:#ec008c"/><circle cx="48.88" cy="-6.05" r=".41" style="fill:#ec008c"/><circle cx="50.55" cy="-7.55" r=".41" style="fill:#ec008c"/><circle cx="51.55" cy="-6.55" r=".41" style="fill:#ec008c"/><circle cx="50.63" cy="-5.22" r=".41" style="fill:#ec008c"/><circle cx="58.01" cy="-14.43" r=".41" style="fill:#ec008c"/><circle cx="55.55" cy="-15.22" r=".41" style="fill:#ec008c"/><circle cx="51.3" cy="-17.05" r=".41" style="fill:#ec008c"/><circle cx="49.47" cy="-27.14" r=".41" style="fill:#ec008c"/><circle cx="49.05" cy="-25.55" r=".41" style="fill:#ec008c"/><circle cx="38.72" cy="-19.89" r=".41" style="fill:#ec008c"/><circle cx="50.88" cy="-20.55" r=".41" style="fill:#ec008c"/><circle cx="56.63" cy="-13.8" r=".41" style="fill:#ec008c"/><circle cx="20.63" cy="-16.3" r=".41" style="fill:#ec008c"/><circle cx="15.63" cy="-22.22" r=".41" style="fill:#ec008c"/><circle cx="15.97" cy="-16.64" r=".41" style="fill:#ec008c"/><circle cx="14.63" cy="-15.55" r=".41" style="fill:#ec008c"/><circle cx="18.38" cy="-15.55" r=".41" style="fill:#ec008c"/><circle cx="25.55" cy="-33.64" r=".41" style="fill:#ec008c"/><circle cx="47.3" cy="-41.64" r=".41" style="fill:#ec008c"/><circle cx="35.38" cy="-21.05" r=".41" style="fill:#ec008c"/><circle cx="36.72" cy="-23.22" r=".41" style="fill:#ec008c"/><circle cx="37.72" cy="-25.39" r=".41" style="fill:#ec008c"/><circle cx="34.3" cy="-25.14" r=".41" style="fill:#ec008c"/><circle cx="32.88" cy="-23.14" r=".41" style="fill:#ec008c"/><circle cx="58.13" cy="-29.22" r=".41" style="fill:#ec008c"/><circle cx="53.47" cy="-29.55" r=".41" style="fill:#ec008c"/><circle cx="51.13" cy="-30.55" r=".41" style="fill:#ec008c"/><circle cx="48.38" cy="-32.88" r=".41" style="fill:#ec008c"/><circle cx="45.3" cy="-34.22" r=".41" style="fill:#ec008c"/><circle cx="45.47" cy="-36.47" r=".41" style="fill:#ec008c"/><circle cx="44.8" cy="-38.3" r=".41" style="fill:#ec008c"/><circle cx="43.05" cy="-37.22" r=".41" style="fill:#ec008c"/><circle cx="40.22" cy="-37.89" r=".41" style="fill:#ec008c"/><circle cx="40.63" cy="-34.97" r=".41" style="fill:#ec008c"/><circle cx="43.38" cy="-32.97" r=".41" style="fill:#ec008c"/><circle cx="39.13" cy="-36.3" r=".41" style="fill:#ec008c"/><circle cx="36.72" cy="-36.55" r=".41" style="fill:#ec008c"/><circle cx="37.22" cy="-34.97" r=".41" style="fill:#ec008c"/><circle cx="36.63" cy="-39.55" r=".41" style="fill:#ec008c"/><circle cx="47.47" cy="-43.55" r=".41" style="fill:#ec008c"/><circle cx="41.55" cy="-44.39" r=".41" style="fill:#ec008c"/><circle cx="32.97" cy="-45.14" r=".41" style="fill:#ec008c"/><circle cx="30.47" cy="-45.3" r=".41" style="fill:#ec008c"/><circle cx="27.8" cy="-45.72" r=".41" style="fill:#ec008c"/><circle cx="26.22" cy="-44.72" r=".41" style="fill:#ec008c"/><circle cx="28.55" cy="-48.14" r=".41" style="fill:#ec008c"/><circle cx="26.47" cy="-49.64" r=".41" style="fill:#ec008c"/><circle cx="26.22" cy="-52.22" r=".41" style="fill:#ec008c"/><circle cx="25.47" cy="-47.39" r=".41" style="fill:#ec008c"/><circle cx="23.38" cy="-49.38" r=".41" style="fill:#ec008c"/><circle cx="20.55" cy="-48.64" r=".41" style="fill:#ec008c"/><circle cx="18.97" cy="-47.72" r=".41" style="fill:#ec008c"/><circle cx="49.05" cy="-36.72" r=".41" style="fill:#ec008c"/><circle cx="56.3" cy="-25.64" r=".41" style="fill:#ec008c"/><circle cx="54.72" cy="-28.22" r=".41" style="fill:#ec008c"/><circle cx="54.72" cy="-23.39" r=".41" style="fill:#ec008c"/><circle cx="57.63" cy="-22.72" r=".41" style="fill:#ec008c"/><circle cx="58.01" cy="-24.87" r=".41" style="fill:#ec008c"/><circle cx="44.97" cy="-26.39" r=".41" style="fill:#ec008c"/><circle cx="42.88" cy="-25.3" r=".41" style="fill:#ec008c"/><circle cx="46.05" cy="-24.89" r=".41" style="fill:#ec008c"/><circle cx="49.55" cy="-22.47" r=".41" style="fill:#ec008c"/><circle cx="53.55" cy="-21.72" r=".41" style="fill:#ec008c"/><circle cx="52.72" cy="-19.55" r=".41" style="fill:#ec008c"/><circle cx="55.55" cy="-20.39" r=".41" style="fill:#ec008c"/><circle cx="57.55" cy="-20.22" r=".41" style="fill:#ec008c"/><circle cx="56.97" cy="-16.47" r=".41" style="fill:#ec008c"/><circle cx="53.38" cy="-17.3" r=".41" style="fill:#ec008c"/><circle cx="47.72" cy="-17.39" r=".41" style="fill:#ec008c"/><circle cx="49.47" cy="-15.64" r=".41" style="fill:#ec008c"/><circle cx="47.05" cy="-21.05" r=".41" style="fill:#ec008c"/><circle cx="46.72" cy="-23.47" r=".41" style="fill:#ec008c"/><circle cx="44.88" cy="-22.39" r=".41" style="fill:#ec008c"/><circle cx="43.38" cy="-21.22" r=".41" style="fill:#ec008c"/><circle cx="41.3" cy="-22.64" r=".41" style="fill:#ec008c"/><circle cx="39.8" cy="-24.14" r=".41" style="fill:#ec008c"/><circle cx="48.8" cy="-29.72" r=".41" style="fill:#ec008c"/><circle cx="51.47" cy="-37.39" r=".41" style="fill:#ec008c"/><circle cx="46.97" cy="-39.39" r=".41" style="fill:#ec008c"/><circle cx="44.3" cy="-42.22" r=".41" style="fill:#ec008c"/><circle cx="39.8" cy="-42.72" r=".41" style="fill:#ec008c"/><circle cx="42.3" cy="-40.22" r=".41" style="fill:#ec008c"/><circle cx="37.97" cy="-40.72" r=".41" style="fill:#ec008c"/><circle cx="35.8" cy="-41.89" r=".41" style="fill:#ec008c"/><circle cx="37.8" cy="-44.55" r=".41" style="fill:#ec008c"/><circle cx="36.97" cy="-47.55" r=".41" style="fill:#ec008c"/><circle cx="34.97" cy="-45.89" r=".41" style="fill:#ec008c"/><circle cx="41.13" cy="-48.39" r=".41" style="fill:#ec008c"/><circle cx="57.13" cy="-53.89" r=".41" style="fill:#ec008c"/><circle cx="56.8" cy="-55.39" r=".41" style="fill:#ec008c"/><circle cx="53.63" cy="-55.39" r=".41" style="fill:#ec008c"/><circle cx="52.63" cy="-53.55" r=".41" style="fill:#ec008c"/><circle cx="55.13" cy="-52.39" r=".41" style="fill:#ec008c"/><circle cx="54.97" cy="-57.05" r=".41" style="fill:#ec008c"/><circle cx="57.13" cy="-57.72" r=".41" style="fill:#ec008c"/><circle cx="53.3" cy="-57.89" r=".41" style="fill:#ec008c"/><circle cx="50.86" cy="-58.19" r=".41" style="fill:#ec008c"/><circle cx="57.47" cy="-49.89" r=".41" style="fill:#ec008c"/><circle cx="55.47" cy="-48.89" r=".41" style="fill:#ec008c"/><circle cx="53.13" cy="-48.39" r=".41" style="fill:#ec008c"/><circle cx="56.97" cy="-45.39" r=".41" style="fill:#ec008c"/><circle cx="51.01" cy="-47.3" r=".41" style="fill:#ec008c"/><circle cx="50.51" cy="-24.43" r=".41" style="fill:#ec008c"/><circle cx="49.8" cy="-52.72" r=".41" style="fill:#ec008c"/><circle cx="49.13" cy="-50.89" r=".41" style="fill:#ec008c"/><circle cx="45.97" cy="-52.22" r=".41" style="fill:#ec008c"/><circle cx="47.3" cy="-54.39" r=".41" style="fill:#ec008c"/><circle cx="38.88" cy="-57.39" r=".41" style="fill:#ec008c"/><circle cx="43.22" cy="-56.64" r=".41" style="fill:#ec008c"/><circle cx="44.05" cy="-55.05" r=".41" style="fill:#ec008c"/><circle cx="40.72" cy="-54.72" r=".41" style="fill:#ec008c"/><circle cx="41.6" cy="-57.67" r=".41" style="fill:#ec008c"/><circle cx="37.63" cy="-56.3" r=".41" style="fill:#ec008c"/><circle cx="35.72" cy="-56.22" r=".41" style="fill:#ec008c"/><circle cx="36.38" cy="-54.47" r=".41" style="fill:#ec008c"/><circle cx="33.22" cy="-57.3" r=".41" style="fill:#ec008c"/><path d="M36.66-58.6a.4.4 0 0 1-.82 0M35.84-1a.4.4 0 0 1 .4-.39c.23 0 .4.17.42.39" style="fill:#ec008c"/><circle cx="6.88" cy="-58.05" r=".41" style="fill:#ec008c"/><circle cx="4.55" cy="-57.22" r=".41" style="fill:#ec008c"/><circle cx="2.55" cy="-55.05" r=".41" style="fill:#ec008c"/><circle cx="7.22" cy="-55.72" r=".41" style="fill:#ec008c"/><circle cx="9.22" cy="-57.72" r=".41" style="fill:#ec008c"/><circle cx="12.47" cy="-58.05" r=".41" style="fill:#ec008c"/><circle cx="15.82" cy="-58.18" r=".41" style="fill:#ec008c"/><circle cx="20.47" cy="-57.64" r=".41" style="fill:#ec008c"/><circle cx="25.22" cy="-54.64" r=".41" style="fill:#ec008c"/><circle cx="21.55" cy="-55.39" r=".41" style="fill:#ec008c"/><circle cx="17.72" cy="-55.72" r=".41" style="fill:#ec008c"/><circle cx="14.63" cy="-55.39" r=".41" style="fill:#ec008c"/><circle cx="11.88" cy="-55.14" r=".41" style="fill:#ec008c"/><circle cx="8.55" cy="-53.72" r=".41" style="fill:#ec008c"/><circle cx="5.3" cy="-53.72" r=".41" style="fill:#ec008c"/><circle cx="7.63" cy="-51.64" r=".41" style="fill:#ec008c"/><circle cx="4.63" cy="-51.39" r=".41" style="fill:#ec008c"/><circle cx="9.05" cy="-49.72" r=".41" style="fill:#ec008c"/><circle cx="11.3" cy="-50.72" r=".41" style="fill:#ec008c"/><circle cx="13.05" cy="-51.64" r=".41" style="fill:#ec008c"/><circle cx="12.63" cy="-48.72" r=".41" style="fill:#ec008c"/><circle cx="10.05" cy="-47.3" r=".41" style="fill:#ec008c"/><circle cx="13.05" cy="-46.39" r=".41" style="fill:#ec008c"/><circle cx="16.47" cy="-47.14" r=".41" style="fill:#ec008c"/><circle cx="11.55" cy="-44.55" r=".41" style="fill:#ec008c"/><circle cx="13.72" cy="-43.8" r=".41" style="fill:#ec008c"/><circle cx="8.05" cy="-45.8" r=".41" style="fill:#ec008c"/><circle cx="7.47" cy="-47.55" r=".41" style="fill:#ec008c"/><circle cx="4.13" cy="-47.22" r=".41" style="fill:#ec008c"/><circle cx="1.63" cy="-46.39" r=".41" style="fill:#ec008c"/><circle cx="2.88" cy="-45.3" r=".41" style="fill:#ec008c"/><circle cx="5.55" cy="-45.22" r=".41" style="fill:#ec008c"/><circle cx="6.63" cy="-44.22" r=".41" style="fill:#ec008c"/><circle cx="7.05" cy="-41.47" r=".41" style="fill:#ec008c"/><circle cx="4.22" cy="-40.72" r=".41" style="fill:#ec008c"/><circle cx="1.64" cy="-38.64" r=".41" style="fill:#ec008c"/><circle cx="5.63" cy="-39.22" r=".41" style="fill:#ec008c"/><circle cx="4.63" cy="-37.22" r=".41" style="fill:#ec008c"/><circle cx="4.97" cy="-35.3" r=".41" style="fill:#ec008c"/><circle cx="8.38" cy="-35.3" r=".41" style="fill:#ec008c"/><circle cx="9.05" cy="-39.39" r=".41" style="fill:#ec008c"/><circle cx="11.22" cy="-38.72" r=".41" style="fill:#ec008c"/><circle cx="10.88" cy="-41.39" r=".41" style="fill:#ec008c"/><circle cx="13.22" cy="-41.97" r=".41" style="fill:#ec008c"/><circle cx="13.3" cy="-39.47" r=".41" style="fill:#ec008c"/><circle cx="14.22" cy="-37.8" r=".41" style="fill:#ec008c"/><circle cx="12.72" cy="-36.3" r=".41" style="fill:#ec008c"/><circle cx="15.13" cy="-35.14" r=".41" style="fill:#ec008c"/><circle cx="17.55" cy="-35.3" r=".41" style="fill:#ec008c"/><circle cx="16.88" cy="-38.22" r=".41" style="fill:#ec008c"/><circle cx="15.55" cy="-45.39" r=".41" style="fill:#ec008c"/><circle cx="7.88" cy="-32.39" r=".41" style="fill:#ec008c"/><circle cx="6.63" cy="-34.39" r=".41" style="fill:#ec008c"/><circle cx="10.8" cy="-33.39" r=".41" style="fill:#ec008c"/><circle cx="11.88" cy="-31.3" r=".41" style="fill:#ec008c"/><circle cx="14.05" cy="-30.39" r=".41" style="fill:#ec008c"/><circle cx="16.13" cy="-31.3" r=".41" style="fill:#ec008c"/><circle cx="14.38" cy="-33.3" r=".41" style="fill:#ec008c"/><circle cx="17.97" cy="-30.8" r=".41" style="fill:#ec008c"/><circle cx="19.47" cy="-35.55" r=".41" style="fill:#ec008c"/><circle cx="21.8" cy="-38.14" r=".41" style="fill:#ec008c"/><circle cx="21.72" cy="-35.72" r=".41" style="fill:#ec008c"/><circle cx="24.55" cy="-35.8" r=".41" style="fill:#ec008c"/><circle cx="23.72" cy="-37.64" r=".41" style="fill:#ec008c"/><circle cx="27.22" cy="-34.64" r=".41" style="fill:#ec008c"/><circle cx="28.88" cy="-35.97" r=".41" style="fill:#ec008c"/><circle cx="32.18" cy="-36.84" r=".41" style="fill:#ec008c"/><circle cx="34.35" cy="-43.34" r=".41" style="fill:#ec008c"/><circle cx="25.6" cy="-42.59" r=".41" style="fill:#ec008c"/><circle cx="21.02" cy="-31.67" r=".41" style="fill:#ec008c"/><circle cx="19.68" cy="-33.34" r=".41" style="fill:#ec008c"/><circle cx="42.02" cy="-42.01" r=".41" style="fill:#ec008c"/><circle cx="38.43" cy="-42.26" r=".41" style="fill:#ec008c"/><circle cx="21.1" cy="-44.76" r=".41" style="fill:#ec008c"/><circle cx="7.6" cy="-37.67" r=".41" style="fill:#ec008c"/><circle cx="1.85" cy="-36.26" r=".41" style="fill:#ec008c"/><circle cx="38.6" cy="-22.17" r=".41" style="fill:#ec008c"/><circle cx="28.97" cy="-40.22" r=".41" style="fill:#ec008c"/><circle cx="28.3" cy="-37.89" r=".41" style="fill:#ec008c"/><circle cx="31.13" cy="-38.8" r=".41" style="fill:#ec008c"/><circle cx="30.63" cy="-34.8" r=".41" style="fill:#ec008c"/><circle cx="33.13" cy="-34.89" r=".41" style="fill:#ec008c"/><circle cx="31.63" cy="-32.14" r=".41" style="fill:#ec008c"/><circle cx="36.8" cy="-32.22" r=".41" style="fill:#ec008c"/><circle cx="35.22" cy="-33.3" r=".41" style="fill:#ec008c"/><circle cx="19.38" cy="-23.3" r=".41" style="fill:#ec008c"/><circle cx="21.05" cy="-21.72" r=".41" style="fill:#ec008c"/><circle cx="18.55" cy="-21.3" r=".41" style="fill:#ec008c"/><circle cx="16.38" cy="-24.64" r=".41" style="fill:#ec008c"/><circle cx="19.55" cy="-18.55" r=".41" style="fill:#ec008c"/><circle cx="22.05" cy="-18.97" r=".41" style="fill:#ec008c"/><circle cx="22.88" cy="-17.8" r=".41" style="fill:#ec008c"/><circle cx="23.63" cy="-15.39" r=".41" style="fill:#ec008c"/><circle cx="26.05" cy="-16.14" r=".41" style="fill:#ec008c"/><circle cx="26.97" cy="-14.22" r=".41" style="fill:#ec008c"/><circle cx="25.38" cy="-13.39" r=".41" style="fill:#ec008c"/><circle cx="17.55" cy="-14.22" r=".41" style="fill:#ec008c"/><circle cx="20.97" cy="-9.89" r=".41" style="fill:#ec008c"/><circle cx="19.55" cy="-8.14" r=".41" style="fill:#ec008c"/><circle cx="22.63" cy="-7.3" r=".41" style="fill:#ec008c"/><circle cx="24.63" cy="-9.22" r=".41" style="fill:#ec008c"/><circle cx="28.47" cy="-8.55" r=".41" style="fill:#ec008c"/><circle cx="27.13" cy="-6.39" r=".41" style="fill:#ec008c"/><circle cx="29.38" cy="-5.3" r=".41" style="fill:#ec008c"/><circle cx="32.72" cy="-4.3" r=".41" style="fill:#ec008c"/><circle cx="33.8" cy="-2.97" r=".41" style="fill:#ec008c"/><circle cx="30.47" cy="-2.39" r=".41" style="fill:#ec008c"/><circle cx="33.38" cy="-8.14" r=".41" style="fill:#ec008c"/><circle cx="36.8" cy="-9.39" r=".41" style="fill:#ec008c"/><circle cx="39.72" cy="-7.55" r=".41" style="fill:#ec008c"/><circle cx="37.72" cy="-6.39" r=".41" style="fill:#ec008c"/><circle cx="35.47" cy="-8.22" r=".41" style="fill:#ec008c"/><circle cx="35.38" cy="-5.22" r=".41" style="fill:#ec008c"/><circle cx="16.88" cy="-7.39" r=".41" style="fill:#ec008c"/><circle cx="15.13" cy="-7.3" r=".41" style="fill:#ec008c"/><circle cx="10.63" cy="-10.05" r=".41" style="fill:#ec008c"/><circle cx="7.55" cy="-11.55" r=".41" style="fill:#ec008c"/><circle cx="5.88" cy="-13.72" r=".41" style="fill:#ec008c"/><circle cx="4.63" cy="-16.22" r=".41" style="fill:#ec008c"/><circle cx="4.22" cy="-19.47" r=".41" style="fill:#ec008c"/><circle cx="7.47" cy="-24.47" r=".41" style="fill:#ec008c"/><circle cx="3.05" cy="-13.97" r=".41" style="fill:#ec008c"/><circle cx="2.3" cy="-9.89" r=".41" style="fill:#ec008c"/><circle cx="4.47" cy="-11.3" r=".41" style="fill:#ec008c"/><circle cx="5.63" cy="-10.39" r=".41" style="fill:#ec008c"/><circle cx="7.47" cy="-8.55" r=".41" style="fill:#ec008c"/><circle cx="4.13" cy="-7.64" r=".41" style="fill:#ec008c"/><circle cx="5.97" cy="-6.72" r=".41" style="fill:#ec008c"/><circle cx="4.72" cy="-5.55" r=".41" style="fill:#ec008c"/><circle cx="2.47" cy="-3.47" r=".41" style="fill:#ec008c"/><circle cx="4.55" cy="-1.55" r=".41" style="fill:#ec008c"/><circle cx="10.63" cy="-3.22" r=".41" style="fill:#ec008c"/><circle cx="10.63" cy="-6.39" r=".41" style="fill:#ec008c"/><circle cx="7.3" cy="-3.14" r=".41" style="fill:#ec008c"/><circle cx="17.13" cy="-2.22" r=".41" style="fill:#ec008c"/><circle cx="13.47" cy="-2.39" r=".41" style="fill:#ec008c"/><circle cx="12.38" cy="-5.64" r=".41" style="fill:#ec008c"/><circle cx="16.55" cy="-5.22" r=".41" style="fill:#ec008c"/><circle cx="20.22" cy="-2.64" r=".41" style="fill:#ec008c"/><circle cx="16.8" cy="-19.05" r=".41" style="fill:#ec008c"/><circle cx="25.55" cy="-3.22" r=".41" style="fill:#ec008c"/><circle cx="23.88" cy="-1.56" r=".41" style="fill:#ec008c"/><circle cx="21.38" cy="-4.8" r=".41" style="fill:#ec008c"/><circle cx="20.47" cy="-6.39" r=".41" style="fill:#ec008c"/><circle cx="24.97" cy="-4.72" r=".41" style="fill:#ec008c"/><circle cx="25.3" cy="-7.47" r=".41" style="fill:#ec008c"/><circle cx="27.55" cy="-3.31" r=".41" style="fill:#ec008c"/><circle cx="28.72" cy="-1.47" r=".41" style="fill:#ec008c"/><circle cx="14.55" cy="-9.3" r=".41" style="fill:#ec008c"/><circle cx="15.46" cy="-12.3" r=".41" style="fill:#ec008c"/><circle cx="2.77" cy="-6.17" r=".41" style="fill:#ec008c"/><circle cx="11.93" cy="-13.67" r=".41" style="fill:#ec008c"/><circle cx="24.85" cy="-25.75" r=".41" style="fill:#ec008c"/><circle cx="15.02" cy="-25.25" r=".41" style="fill:#ec008c"/><circle cx="57.18" cy="-31.17" r=".41" style="fill:#ec008c"/><circle cx="52.85" cy="-32.09" r=".41" style="fill:#ec008c"/><circle cx="31.68" cy="-15.26" r=".41" style="fill:#ec008c"/><circle cx="12.55" cy="-12.3" r=".41" style="fill:#ec008c"/><circle cx="12.47" cy="-17.47" r=".41" style="fill:#ec008c"/><circle cx="11.72" cy="-21.3" r=".41" style="fill:#ec008c"/><circle cx="10.63" cy="-19.39" r=".41" style="fill:#ec008c"/><circle cx="9.8" cy="-17.39" r=".41" style="fill:#ec008c"/><circle cx="10.55" cy="-14.47" r=".41" style="fill:#ec008c"/><circle cx="7.8" cy="-14.22" r=".41" style="fill:#ec008c"/><circle cx="7.3" cy="-17.39" r=".41" style="fill:#ec008c"/><circle cx="6.97" cy="-20.14" r=".41" style="fill:#ec008c"/><circle cx="8.8" cy="-20.72" r=".41" style="fill:#ec008c"/><circle cx="8.63" cy="-23.05" r=".41" style="fill:#ec008c"/><circle cx="27.55" cy="-11.89" r=".41" style="fill:#ec008c"/><circle cx="33.63" cy="-10.22" r=".41" style="fill:#ec008c"/><circle cx="35.55" cy="-11.47" r=".41" style="fill:#ec008c"/><circle cx="39.47" cy="-10.55" r=".41" style="fill:#ec008c"/><circle cx="39.63" cy="-13.22" r=".41" style="fill:#ec008c"/><circle cx="30.55" cy="-29.64" r=".41" style="fill:#ec008c"/><circle cx="28.8" cy="-28.47" r=".41" style="fill:#ec008c"/><circle cx="24.63" cy="-29.47" r=".41" style="fill:#ec008c"/><circle cx="24.13" cy="-31.72" r=".41" style="fill:#ec008c"/><circle cx="39.3" cy="-30.47" r=".41" style="fill:#ec008c"/><circle cx="42.22" cy="-30.47" r=".41" style="fill:#ec008c"/><circle cx="43.47" cy="-28.64" r=".41" style="fill:#ec008c"/><circle cx="38.38" cy="-28.55" r=".41" style="fill:#ec008c"/><circle cx="33.47" cy="-28.39" r=".41" style="fill:#ec008c"/><circle cx="32.13" cy="-27.05" r=".41" style="fill:#ec008c"/><circle cx="35.63" cy="-26.39" r=".41" style="fill:#ec008c"/><circle cx="31.55" cy="-24.89" r=".41" style="fill:#ec008c"/><circle cx="28.47" cy="-25.47" r=".41" style="fill:#ec008c"/><circle cx="26.13" cy="-27.22" r=".41" style="fill:#ec008c"/><circle cx="21.72" cy="-27.3" r=".41" style="fill:#ec008c"/><circle cx="22.97" cy="-23.47" r=".41" style="fill:#ec008c"/><circle cx="19.72" cy="-25.47" r=".41" style="fill:#ec008c"/><circle cx="18.3" cy="-28.22" r=".41" style="fill:#ec008c"/><circle cx="16.05" cy="-28.64" r=".41" style="fill:#ec008c"/><circle cx="15.38" cy="-27.14" r=".41" style="fill:#ec008c"/><circle cx="11.63" cy="-28.64" r=".41" style="fill:#ec008c"/><circle cx="9.38" cy="-30.72" r=".41" style="fill:#ec008c"/><circle cx="7.63" cy="-28.89" r=".41" style="fill:#ec008c"/><circle cx="9.63" cy="-28.39" r=".41" style="fill:#ec008c"/><circle cx="10.63" cy="-25.89" r=".41" style="fill:#ec008c"/><circle cx="13.05" cy="-26.55" r=".41" style="fill:#ec008c"/><circle cx="1.64" cy="-30.48" r=".41" style="fill:#ec008c"/><circle cx="2.8" cy="-29.3" r=".41" style="fill:#ec008c"/><circle cx="4.63" cy="-32.64" r=".41" style="fill:#ec008c"/><circle cx="2.97" cy="-34.55" r=".41" style="fill:#ec008c"/><circle cx="1.55" cy="-19.39" r=".41" style="fill:#ec008c"/><circle cx="5.55" cy="-31.05" r=".41" style="fill:#ec008c"/><circle cx="9.47" cy="-36.72" r=".41" style="fill:#ec008c"/><circle cx="17.97" cy="-32.72" r=".41" style="fill:#ec008c"/><circle cx="45.97" cy="-55.72" r=".41" style="fill:#ec008c"/><circle cx="32.8" cy="-30.72" r=".41" style="fill:#ec008c"/><circle cx="11.3" cy="-8.55" r=".41" style="fill:#ec008c"/><circle cx="46.97" cy="-5.05" r=".41" style="fill:#ec008c"/><circle cx="12.8" cy="-23.3" r=".41" style="fill:#ec008c"/><circle cx="6.72" cy="-26.72" r=".41" style="fill:#ec008c"/><circle cx="5.47" cy="-28.3" r=".41" style="fill:#ec008c"/><circle cx="5.55" cy="-25.39" r=".41" style="fill:#ec008c"/><circle cx="2.72" cy="-25.47" r=".41" style="fill:#ec008c"/><circle cx="2.3" cy="-23.14" r=".41" style="fill:#ec008c"/><circle cx="24.38" cy="-39.3" r=".41" style="fill:#ec008c"/><circle cx="26.55" cy="-40.55" r=".41" style="fill:#ec008c"/><circle cx="2.55" cy="-42.39" r=".41" style="fill:#ec008c"/><circle cx="17.3" cy="-42.55" r=".41" style="fill:#ec008c"/><circle cx="22.55" cy="-43.3" r=".41" style="fill:#ec008c"/><circle cx="24.13" cy="-44.72" r=".41" style="fill:#ec008c"/><circle cx="27.55" cy="-42.3" r=".41" style="fill:#ec008c"/><circle cx="31.05" cy="-42.64" r=".41" style="fill:#ec008c"/><circle cx="22.47" cy="-41.47" r=".41" style="fill:#ec008c"/><circle cx="19.63" cy="-42.55" r=".41" style="fill:#ec008c"/><circle cx="18.55" cy="-41.3" r=".41" style="fill:#ec008c"/><circle cx="15.47" cy="-40.3" r=".41" style="fill:#ec008c"/><circle cx="17.63" cy="-53.39" r=".41" style="fill:#ec008c"/><circle cx="19.8" cy="-53.3" r=".41" style="fill:#ec008c"/><circle cx="20.55" cy="-51.55" r=".41" style="fill:#ec008c"/><circle cx="18.63" cy="-49.64" r=".41" style="fill:#ec008c"/><circle cx="25.47" cy="-57.3" r=".41" style="fill:#ec008c"/><circle cx="28.63" cy="-54.39" r=".41" style="fill:#ec008c"/><circle cx="31.05" cy="-53.97" r=".41" style="fill:#ec008c"/><circle cx="32.63" cy="-54.72" r=".41" style="fill:#ec008c"/><circle cx="33.72" cy="-52.8" r=".41" style="fill:#ec008c"/><circle cx="32.55" cy="-50.39" r=".41" style="fill:#ec008c"/><circle cx="35.72" cy="-50.47" r=".41" style="fill:#ec008c"/><circle cx="34.63" cy="-48.39" r=".41" style="fill:#ec008c"/><circle cx="32.38" cy="-46.39" r=".41" style="fill:#ec008c"/><circle cx="29.72" cy="-49.22" r=".41" style="fill:#ec008c"/><circle cx="41.3" cy="-52.72" r=".41" style="fill:#ec008c"/><circle cx="42.8" cy="-50.22" r=".41" style="fill:#ec008c"/><circle cx="48.97" cy="-54.97" r=".41" style="fill:#ec008c"/><circle cx="58.13" cy="-47.18" r=".41" style="fill:#ec008c"/><circle cx="38.97" cy="-53.3" r=".41" style="fill:#ec008c"/><circle cx="36.8" cy="-52.64" r=".41" style="fill:#ec008c"/></svg>