<svg xmlns="http://www.w3.org/2000/svg" xml:space="preserve" width="57.6" height="57.6" viewBox="1 -58.6 57.6 57.6"><path d="M1-58.6h57.6V-1H1z" style="fill:none"/><circle cx="54.99" cy="-56.24" r=".88" style="fill-rule:evenodd;clip-rule:evenodd"/><circle cx="49.42" cy="-56.05" r=".88" style="fill-rule:evenodd;clip-rule:evenodd"/><path d="M46.64-58.6a.88.88 0 0 1-1.77 0M51.09-58.6v.03a.88.88 0 0 0 1.77 0v-.03M51.07-1a.88.88 0 0 1 1.76 0M58.6-18.96h-.02a.88.88 0 0 0 0 1.77h.02M58.6-9.02h-.02a.88.88 0 0 0 0 1.77h.02M58.6-1v-.83h-.02a.88.88 0 0 0-.88.83h.9M58.6-58.57v.83h-.02a.88.88 0 0 1-.88-.84h.9M36.15-1v-.01a.88.88 0 0 0-1.77 0V-1M41.2-1v-.02a.88.88 0 0 0-1.77 0V-1M46.65-1v-.01a.88.88 0 0 0-1.77 0V-1" style="fill-rule:evenodd;clip-rule:evenodd"/><circle cx="45.81" cy="-55.07" r=".88" style="fill-rule:evenodd;clip-rule:evenodd"/><path d="M41.25-58.6a.88.88 0 0 1-1.76 0" style="fill-rule:evenodd;clip-rule:evenodd"/><circle cx="41.92" cy="-54.8" r=".88" style="fill-rule:evenodd;clip-rule:evenodd"/><circle cx="37.67" cy="-55.05" r=".88" style="fill-rule:evenodd;clip-rule:evenodd"/><path d="M36.18-58.6a.88.88 0 0 1-1.76 0" style="fill-rule:evenodd;clip-rule:evenodd"/><circle cx="34.05" cy="-54.3" r=".88" style="fill-rule:evenodd;clip-rule:evenodd"/><circle cx="29.93" cy="-54.3" r=".88" style="fill-rule:evenodd;clip-rule:evenodd"/><circle cx="28.05" cy="-57.42" r=".88" style="fill-rule:evenodd;clip-rule:evenodd"/><circle cx="23.93" cy="-57.42" r=".88" style="fill-rule:evenodd;clip-rule:evenodd"/><circle cx="26.05" cy="-54.06" r=".88" style="fill-rule:evenodd;clip-rule:evenodd"/><circle cx="28.18" cy="-50.92" r=".88" style="fill-rule:evenodd;clip-rule:evenodd"/><circle cx="32.05" cy="-51.17" r=".88" style="fill-rule:evenodd;clip-rule:evenodd"/><circle cx="36.17" cy="-51.67" r=".88" style="fill-rule:evenodd;clip-rule:evenodd"/><circle cx="40.42" cy="-51.42" r=".88" style="fill-rule:evenodd;clip-rule:evenodd"/><circle cx="44.92" cy="-51.67" r=".88" style="fill-rule:evenodd;clip-rule:evenodd"/><circle cx="48.74" cy="-52.49" r=".88" style="fill-rule:evenodd;clip-rule:evenodd"/><circle cx="52.05" cy="-53.49" r=".88" style="fill-rule:evenodd;clip-rule:evenodd"/><circle cx="55.56" cy="-52.57" r=".88" style="fill-rule:evenodd;clip-rule:evenodd"/><circle cx="54.36" cy="-49.56" r=".88" style="fill-rule:evenodd;clip-rule:evenodd"/><path d="M58.6-55.56a.88.88 0 0 0 0 1.76M58.6-50.38a.88.88 0 0 0 0 1.77" style="fill-rule:evenodd;clip-rule:evenodd"/><circle cx="56.31" cy="-45.69" r=".88" style="fill-rule:evenodd;clip-rule:evenodd"/><path d="M58.6-43.77h-.03a.88.88 0 0 0 0 1.77h.03" style="fill-rule:evenodd;clip-rule:evenodd"/><circle cx="52.23" cy="-46.42" r=".88" style="fill-rule:evenodd;clip-rule:evenodd"/><circle cx="53.86" cy="-42.87" r=".88" style="fill-rule:evenodd;clip-rule:evenodd"/><circle cx="55.93" cy="-40.07" r=".88" style="fill-rule:evenodd;clip-rule:evenodd"/><circle cx="57.05" cy="-36.31" r=".88" style="fill-rule:evenodd;clip-rule:evenodd"/><circle cx="55.12" cy="-32.32" r=".88" style="fill-rule:evenodd;clip-rule:evenodd"/><circle cx="57.13" cy="-29.66" r=".88" style="fill-rule:evenodd;clip-rule:evenodd"/><circle cx="53.55" cy="-35.56" r=".88" style="fill-rule:evenodd;clip-rule:evenodd"/><circle cx="52.3" cy="-38.5" r=".88" style="fill-rule:evenodd;clip-rule:evenodd"/><circle cx="50.61" cy="-42.25" r=".88" style="fill-rule:evenodd;clip-rule:evenodd"/><circle cx="46.8" cy="-41.93" r=".88" style="fill-rule:evenodd;clip-rule:evenodd"/><circle cx="48.8" cy="-38.56" r=".88" style="fill-rule:evenodd;clip-rule:evenodd"/><circle cx="49.92" cy="-34.81" r=".88" style="fill-rule:evenodd;clip-rule:evenodd"/><circle cx="52.04" cy="-31.29" r=".88" style="fill-rule:evenodd;clip-rule:evenodd"/><circle cx="53.64" cy="-28.15" r=".88" style="fill-rule:evenodd;clip-rule:evenodd"/><circle cx="56.8" cy="-25.31" r=".88" style="fill-rule:evenodd;clip-rule:evenodd"/><circle cx="53.36" cy="-24.5" r=".88" style="fill-rule:evenodd;clip-rule:evenodd"/><circle cx="49.48" cy="-26.93" r=".88" style="fill-rule:evenodd;clip-rule:evenodd"/><circle cx="48.74" cy="-30.46" r=".88" style="fill-rule:evenodd;clip-rule:evenodd"/><circle cx="45.87" cy="-33.22" r=".88" style="fill-rule:evenodd;clip-rule:evenodd"/><circle cx="45.28" cy="-30.28" r=".88" style="fill-rule:evenodd;clip-rule:evenodd"/><circle cx="46.15" cy="-35.99" r=".88" style="fill-rule:evenodd;clip-rule:evenodd"/><circle cx="44.42" cy="-39.18" r=".88" style="fill-rule:evenodd;clip-rule:evenodd"/><circle cx="42.3" cy="-42.06" r=".88" style="fill-rule:evenodd;clip-rule:evenodd"/><circle cx="40.17" cy="-39.18" r=".88" style="fill-rule:evenodd;clip-rule:evenodd"/><circle cx="37.8" cy="-41.56" r=".88" style="fill-rule:evenodd;clip-rule:evenodd"/><circle cx="42.42" cy="-35.81" r=".88" style="fill-rule:evenodd;clip-rule:evenodd"/><circle cx="41.76" cy="-31.91" r=".88" style="fill-rule:evenodd;clip-rule:evenodd"/><circle cx="45.52" cy="-27.04" r=".88" style="fill-rule:evenodd;clip-rule:evenodd"/><circle cx="49.66" cy="-23.62" r=".88" style="fill-rule:evenodd;clip-rule:evenodd"/><circle cx="57.31" cy="-21.57" r=".88" style="fill-rule:evenodd;clip-rule:evenodd"/><circle cx="54.64" cy="-17.47" r=".88" style="fill-rule:evenodd;clip-rule:evenodd"/><path d="M1-17.22h.05a.88.88 0 0 0 0-1.77H1" style="fill-rule:evenodd;clip-rule:evenodd"/><circle cx="56.84" cy="-14.73" r=".88" style="fill-rule:evenodd;clip-rule:evenodd"/><circle cx="48.49" cy="-45.81" r=".88" style="fill-rule:evenodd;clip-rule:evenodd"/><circle cx="46.29" cy="-48.42" r=".88" style="fill-rule:evenodd;clip-rule:evenodd"/><circle cx="50.04" cy="-49.42" r=".88" style="fill-rule:evenodd;clip-rule:evenodd"/><circle cx="44.17" cy="-45.55" r=".88" style="fill-rule:evenodd;clip-rule:evenodd"/><circle cx="42.29" cy="-48.8" r=".88" style="fill-rule:evenodd;clip-rule:evenodd"/><circle cx="38.42" cy="-48.3" r=".88" style="fill-rule:evenodd;clip-rule:evenodd"/><circle cx="40.29" cy="-45.42" r=".88" style="fill-rule:evenodd;clip-rule:evenodd"/><circle cx="36.54" cy="-44.92" r=".88" style="fill-rule:evenodd;clip-rule:evenodd"/><circle cx="34.79" cy="-48.3" r=".88" style="fill-rule:evenodd;clip-rule:evenodd"/><circle cx="30.54" cy="-48.17" r=".88" style="fill-rule:evenodd;clip-rule:evenodd"/><circle cx="32.54" cy="-44.55" r=".88" style="fill-rule:evenodd;clip-rule:evenodd"/><circle cx="28.92" cy="-44.05" r=".88" style="fill-rule:evenodd;clip-rule:evenodd"/><circle cx="30.37" cy="-40.97" r=".88"/><circle cx="34.17" cy="-41.06" r=".88" style="fill-rule:evenodd;clip-rule:evenodd"/><circle cx="36.17" cy="-37.56" r=".88" style="fill-rule:evenodd;clip-rule:evenodd"/><circle cx="38.9" cy="-35.85" r=".88" style="fill-rule:evenodd;clip-rule:evenodd"/><circle cx="37.96" cy="-32.39" r=".88" style="fill-rule:evenodd;clip-rule:evenodd"/><circle cx="34.46" cy="-34.4" r=".88" style="fill-rule:evenodd;clip-rule:evenodd"/><circle cx="32.3" cy="-37.8" r=".88" style="fill-rule:evenodd;clip-rule:evenodd"/><circle cx="30.61" cy="-34.36" r=".88" style="fill-rule:evenodd;clip-rule:evenodd"/><circle cx="28.18" cy="-37.36" r=".88" style="fill-rule:evenodd;clip-rule:evenodd"/><circle cx="26.37" cy="-40.49" r=".88" style="fill-rule:evenodd;clip-rule:evenodd"/><circle cx="24.93" cy="-43.55" r=".88" style="fill-rule:evenodd;clip-rule:evenodd"/><circle cx="23.08" cy="-46.92" r=".88" style="fill-rule:evenodd;clip-rule:evenodd"/><circle cx="19.99" cy="-49.42" r=".88" style="fill-rule:evenodd;clip-rule:evenodd"/><circle cx="18.3" cy="-52.92" r=".88" style="fill-rule:evenodd;clip-rule:evenodd"/><circle cx="16.49" cy="-55.36" r=".88" style="fill-rule:evenodd;clip-rule:evenodd"/><circle cx="14.43" cy="-57.42" r=".88" style="fill-rule:evenodd;clip-rule:evenodd"/><circle cx="11.62" cy="-55.13" r=".88" style="fill-rule:evenodd;clip-rule:evenodd"/><path d="M10.73-58.6a.88.88 0 0 1-1.76 0" style="fill-rule:evenodd;clip-rule:evenodd"/><circle cx="13.92" cy="-52.92" r=".88" style="fill-rule:evenodd;clip-rule:evenodd"/><circle cx="15.54" cy="-49.8" r=".88" style="fill-rule:evenodd;clip-rule:evenodd"/><circle cx="19.11" cy="-46.39" r=".88" style="fill-rule:evenodd;clip-rule:evenodd"/><circle cx="20.54" cy="-43.3" r=".88" style="fill-rule:evenodd;clip-rule:evenodd"/><circle cx="22.42" cy="-40.55" r=".88" style="fill-rule:evenodd;clip-rule:evenodd"/><circle cx="23.79" cy="-37.55" r=".88" style="fill-rule:evenodd;clip-rule:evenodd"/><circle cx="25.79" cy="-34.42" r=".88" style="fill-rule:evenodd;clip-rule:evenodd"/><circle cx="21.68" cy="-34.05" r=".88" style="fill-rule:evenodd;clip-rule:evenodd"/><circle cx="18.3" cy="-33.67" r=".88" style="fill-rule:evenodd;clip-rule:evenodd"/><circle cx="13.98" cy="-34.27" r=".88" style="fill-rule:evenodd;clip-rule:evenodd"/><circle cx="11.68" cy="-31.8" r=".88" style="fill-rule:evenodd;clip-rule:evenodd"/><circle cx="8.75" cy="-34.4" r=".88" style="fill-rule:evenodd;clip-rule:evenodd"/><circle cx="4.58" cy="-35.87" r=".88" style="fill-rule:evenodd;clip-rule:evenodd"/><circle cx="10.67" cy="-36.49" r=".88" style="fill-rule:evenodd;clip-rule:evenodd"/><circle cx="2.05" cy="-33.45" r=".88" style="fill-rule:evenodd;clip-rule:evenodd"/><circle cx="2.5" cy="-38.81" r=".88" style="fill-rule:evenodd;clip-rule:evenodd"/><circle cx="4.99" cy="-41.92" r=".88" style="fill-rule:evenodd;clip-rule:evenodd"/><circle cx="7.05" cy="-38.42" r=".88" style="fill-rule:evenodd;clip-rule:evenodd"/><circle cx="12.38" cy="-38.96" r=".88" style="fill-rule:evenodd;clip-rule:evenodd"/><circle cx="20.04" cy="-37.42" r=".88" style="fill-rule:evenodd;clip-rule:evenodd"/><circle cx="16.27" cy="-37.15" r=".88" style="fill-rule:evenodd;clip-rule:evenodd"/><circle cx="14.64" cy="-41.38" r=".88" style="fill-rule:evenodd;clip-rule:evenodd"/><circle cx="18.27" cy="-40.27" r=".88" style="fill-rule:evenodd;clip-rule:evenodd"/><circle cx="17.05" cy="-43.93" r=".88" style="fill-rule:evenodd;clip-rule:evenodd"/><circle cx="14.43" cy="-46.43" r=".88" style="fill-rule:evenodd;clip-rule:evenodd"/><circle cx="12.43" cy="-44.18" r=".88" style="fill-rule:evenodd;clip-rule:evenodd"/><circle cx="9.27" cy="-41.68" r=".88" style="fill-rule:evenodd;clip-rule:evenodd"/><circle cx="7.55" cy="-44.81" r=".88" style="fill-rule:evenodd;clip-rule:evenodd"/><circle cx="3.55" cy="-45.25" r=".88" style="fill-rule:evenodd;clip-rule:evenodd"/><path d="M1-41.99a.88.88 0 0 0 0-1.76" style="fill-rule:evenodd;clip-rule:evenodd"/><circle cx="5.42" cy="-48" r=".88" style="fill-rule:evenodd;clip-rule:evenodd"/><path d="M1-48.57a.88.88 0 0 0 0-1.77" style="fill-rule:evenodd;clip-rule:evenodd"/><circle cx="10.3" cy="-47.18" r=".88" style="fill-rule:evenodd;clip-rule:evenodd"/><circle cx="7.86" cy="-50.31" r=".88" style="fill-rule:evenodd;clip-rule:evenodd"/><circle cx="12.05" cy="-50.06" r=".88" style="fill-rule:evenodd;clip-rule:evenodd"/><circle cx="9.54" cy="-52.55" r=".88" style="fill-rule:evenodd;clip-rule:evenodd"/><circle cx="5.92" cy="-53.75" r=".88" style="fill-rule:evenodd;clip-rule:evenodd"/><path d="M1-53.8a.88.88 0 0 0 0-1.77" style="fill-rule:evenodd;clip-rule:evenodd"/><circle cx="3.55" cy="-51.43" r=".88" style="fill-rule:evenodd;clip-rule:evenodd"/><circle cx="7.78" cy="-56.08" r=".88" style="fill-rule:evenodd;clip-rule:evenodd"/><path d="M1-58.6v.9c.47-.01.85-.4.85-.87v-.03H1" style="fill-rule:evenodd;clip-rule:evenodd"/><circle cx="3.74" cy="-57.12" r=".88" style="fill-rule:evenodd;clip-rule:evenodd"/><circle cx="27.73" cy="-31.77" r=".88" style="fill-rule:evenodd;clip-rule:evenodd"/><circle cx="31.01" cy="-30.58" r=".88" style="fill-rule:evenodd;clip-rule:evenodd"/><circle cx="34.21" cy="-30.78" r=".88" style="fill-rule:evenodd;clip-rule:evenodd"/><circle cx="30.42" cy="-25.55" r=".88" style="fill-rule:evenodd;clip-rule:evenodd"/><circle cx="34.17" cy="-27.57" r=".88" style="fill-rule:evenodd;clip-rule:evenodd"/><circle cx="37.57" cy="-29.17" r=".88" style="fill-rule:evenodd;clip-rule:evenodd"/><circle cx="37.54" cy="-25.93" r=".88" style="fill-rule:evenodd;clip-rule:evenodd"/><circle cx="37.42" cy="-22.43" r=".88" style="fill-rule:evenodd;clip-rule:evenodd"/><circle cx="41.42" cy="-21.68" r=".88" style="fill-rule:evenodd;clip-rule:evenodd"/><circle cx="46.67" cy="-16.93" r=".88" style="fill-rule:evenodd;clip-rule:evenodd"/><circle cx="48.54" cy="-13.3" r=".88" style="fill-rule:evenodd;clip-rule:evenodd"/><circle cx="51.54" cy="-10.55" r=".88" style="fill-rule:evenodd;clip-rule:evenodd"/><circle cx="42.79" cy="-17.43" r=".88" style="fill-rule:evenodd;clip-rule:evenodd"/><circle cx="41.41" cy="-28.46" r=".88" style="fill-rule:evenodd;clip-rule:evenodd"/><circle cx="41.42" cy="-25.06" r=".88" style="fill-rule:evenodd;clip-rule:evenodd"/><circle cx="45.32" cy="-23.53" r=".88" style="fill-rule:evenodd;clip-rule:evenodd"/><circle cx="45.45" cy="-20.22" r=".88" style="fill-rule:evenodd;clip-rule:evenodd"/><circle cx="49.47" cy="-19.87" r=".88" style="fill-rule:evenodd;clip-rule:evenodd"/><circle cx="53.49" cy="-20.81" r=".88" style="fill-rule:evenodd;clip-rule:evenodd"/><circle cx="50.89" cy="-16.72" r=".88" style="fill-rule:evenodd;clip-rule:evenodd"/><circle cx="53.39" cy="-13.97" r=".88" style="fill-rule:evenodd;clip-rule:evenodd"/><circle cx="56.55" cy="-11" r=".88" style="fill-rule:evenodd;clip-rule:evenodd"/><circle cx="54.17" cy="-8.3" r=".88" style="fill-rule:evenodd;clip-rule:evenodd"/><circle cx="52.36" cy="-4.99" r=".88"/><circle cx="46.42" cy="-5.81" r=".88" style="fill-rule:evenodd;clip-rule:evenodd"/><circle cx="49.92" cy="-7.43" r=".88" style="fill-rule:evenodd;clip-rule:evenodd"/><circle cx="48.9" cy="-3.12" r=".88" style="fill-rule:evenodd;clip-rule:evenodd"/><circle cx="43.3" cy="-3.68" r=".88" style="fill-rule:evenodd;clip-rule:evenodd"/><circle cx="47.17" cy="-10.06" r=".88" style="fill-rule:evenodd;clip-rule:evenodd"/><circle cx="43.67" cy="-9.56" r=".88" style="fill-rule:evenodd;clip-rule:evenodd"/><circle cx="44.3" cy="-13.67" r=".88" style="fill-rule:evenodd;clip-rule:evenodd"/><circle cx="41.3" cy="-6.68" r=".88" style="fill-rule:evenodd;clip-rule:evenodd"/><circle cx="37.92" cy="-4.17" r=".88" style="fill-rule:evenodd;clip-rule:evenodd"/><circle cx="37.17" cy="-8.18" r=".88" style="fill-rule:evenodd;clip-rule:evenodd"/><circle cx="40.17" cy="-10.93" r=".88" style="fill-rule:evenodd;clip-rule:evenodd"/><circle cx="39.24" cy="-14.49" r=".88" style="fill-rule:evenodd;clip-rule:evenodd"/><circle cx="38.05" cy="-18.3" r=".88" style="fill-rule:evenodd;clip-rule:evenodd"/><circle cx="34.05" cy="-20.05" r=".88" style="fill-rule:evenodd;clip-rule:evenodd"/><circle cx="33.92" cy="-24.05" r=".88" style="fill-rule:evenodd;clip-rule:evenodd"/><circle cx="30.43" cy="-21.93" r=".88" style="fill-rule:evenodd;clip-rule:evenodd"/><circle cx="26.43" cy="-20.55" r=".88" style="fill-rule:evenodd;clip-rule:evenodd"/><circle cx="22.68" cy="-19.8" r=".88" style="fill-rule:evenodd;clip-rule:evenodd"/><circle cx="19.55" cy="-20.55" r=".88" style="fill-rule:evenodd;clip-rule:evenodd"/><circle cx="16.93" cy="-17.05" r=".88" style="fill-rule:evenodd;clip-rule:evenodd"/><circle cx="12.3" cy="-18.18" r=".88" style="fill-rule:evenodd;clip-rule:evenodd"/><circle cx="10.18" cy="-15.05" r=".88" style="fill-rule:evenodd;clip-rule:evenodd"/><circle cx="7.67" cy="-18.68" r=".88" style="fill-rule:evenodd;clip-rule:evenodd"/><circle cx="4" cy="-18.94" r=".88" style="fill-rule:evenodd;clip-rule:evenodd"/><circle cx="6.57" cy="-22.02" r=".88" style="fill-rule:evenodd;clip-rule:evenodd"/><circle cx="10.62" cy="-21.21" r=".88" style="fill-rule:evenodd;clip-rule:evenodd"/><circle cx="15.05" cy="-20.8" r=".88" style="fill-rule:evenodd;clip-rule:evenodd"/><circle cx="13.74" cy="-24.61" r=".88"/><circle cx="17.92" cy="-23.49" r=".88" style="fill-rule:evenodd;clip-rule:evenodd"/><circle cx="21.93" cy="-23.43" r=".88" style="fill-rule:evenodd;clip-rule:evenodd"/><circle cx="26.62" cy="-23.74" r=".88" style="fill-rule:evenodd;clip-rule:evenodd"/><circle cx="24.15" cy="-26.68" r=".88" style="fill-rule:evenodd;clip-rule:evenodd"/><circle cx="20.3" cy="-26.81" r=".88"/><circle cx="16.55" cy="-27.31" r=".88" style="fill-rule:evenodd;clip-rule:evenodd"/><circle cx="16.18" cy="-30.8" r=".88" style="fill-rule:evenodd;clip-rule:evenodd"/><circle cx="20.3" cy="-30.43" r=".88" style="fill-rule:evenodd;clip-rule:evenodd"/><circle cx="23.93" cy="-30.43" r=".88" style="fill-rule:evenodd;clip-rule:evenodd"/><circle cx="28.4" cy="-27.93" r=".88" style="fill-rule:evenodd;clip-rule:evenodd"/><circle cx="12.68" cy="-28.18" r=".88" style="fill-rule:evenodd;clip-rule:evenodd"/><circle cx="10.22" cy="-24.59" r=".88" style="fill-rule:evenodd;clip-rule:evenodd"/><circle cx="8.18" cy="-26.79" r=".88" style="fill-rule:evenodd;clip-rule:evenodd"/><circle cx="6.19" cy="-29.44" r=".88" style="fill-rule:evenodd;clip-rule:evenodd"/><circle cx="4.95" cy="-25.13" r=".88" style="fill-rule:evenodd;clip-rule:evenodd"/><circle cx="2.65" cy="-22.79" r=".88" style="fill-rule:evenodd;clip-rule:evenodd"/><circle cx="2.85" cy="-27.25" r=".88" style="fill-rule:evenodd;clip-rule:evenodd"/><circle cx="6.32" cy="-32.68" r=".88" style="fill-rule:evenodd;clip-rule:evenodd"/><circle cx="3.22" cy="-30.65" r=".88" style="fill-rule:evenodd;clip-rule:evenodd"/><circle cx="9.49" cy="-29.59" r=".88" style="fill-rule:evenodd;clip-rule:evenodd"/><circle cx="34.92" cy="-16.05" r=".88" style="fill-rule:evenodd;clip-rule:evenodd"/><circle cx="36.3" cy="-12.3" r=".88" style="fill-rule:evenodd;clip-rule:evenodd"/><circle cx="33.17" cy="-9.68" r=".88" style="fill-rule:evenodd;clip-rule:evenodd"/><circle cx="33.67" cy="-4.92" r=".88" style="fill-rule:evenodd;clip-rule:evenodd"/><circle cx="31.3" cy="-2.67" r=".88" style="fill-rule:evenodd;clip-rule:evenodd"/><circle cx="29.99" cy="-6.11" r=".88" style="fill-rule:evenodd;clip-rule:evenodd"/><circle cx="29.43" cy="-10.56" r=".88" style="fill-rule:evenodd;clip-rule:evenodd"/><circle cx="32.05" cy="-13.8" r=".88" style="fill-rule:evenodd;clip-rule:evenodd"/><circle cx="28.05" cy="-15.05" r=".88" style="fill-rule:evenodd;clip-rule:evenodd"/><circle cx="25.8" cy="-10.68" r=".88" style="fill-rule:evenodd;clip-rule:evenodd"/><circle cx="26.3" cy="-6.8" r=".88" style="fill-rule:evenodd;clip-rule:evenodd"/><circle cx="27.43" cy="-3.3" r=".88" style="fill-rule:evenodd;clip-rule:evenodd"/><circle cx="23.68" cy="-3.05" r=".88" style="fill-rule:evenodd;clip-rule:evenodd"/><circle cx="22.43" cy="-6.55" r=".88" style="fill-rule:evenodd;clip-rule:evenodd"/><circle cx="18.43" cy="-6.8" r=".88" style="fill-rule:evenodd;clip-rule:evenodd"/><circle cx="19.93" cy="-3.55" r=".88" style="fill-rule:evenodd;clip-rule:evenodd"/><circle cx="16.05" cy="-3.05" r=".88" style="fill-rule:evenodd;clip-rule:evenodd"/><circle cx="12.05" cy="-3.17" r=".88" style="fill-rule:evenodd;clip-rule:evenodd"/><path d="M10.74-1v-.05A.88.88 0 1 0 8.99-1" style="fill-rule:evenodd;clip-rule:evenodd"/><circle cx="8.43" cy="-4.43" r=".88" style="fill-rule:evenodd;clip-rule:evenodd"/><circle cx="5.3" cy="-2.31" r=".88" style="fill-rule:evenodd;clip-rule:evenodd"/><circle cx="4.42" cy="-6.43" r=".88" style="fill-rule:evenodd;clip-rule:evenodd"/><circle cx="2.26" cy="-3.73" r=".88" style="fill-rule:evenodd;clip-rule:evenodd"/><path d="M1-1h.83A.88.88 0 0 0 1-1.86V-1" style="fill-rule:evenodd;clip-rule:evenodd"/><circle cx="2.42" cy="-13.18" r=".88" style="fill-rule:evenodd;clip-rule:evenodd"/><circle cx="5.42" cy="-15.05" r=".88" style="fill-rule:evenodd;clip-rule:evenodd"/><circle cx="7.79" cy="-12.3" r=".88" style="fill-rule:evenodd;clip-rule:evenodd"/><circle cx="12.42" cy="-10.8" r=".88" style="fill-rule:evenodd;clip-rule:evenodd"/><circle cx="14.29" cy="-14.3" r=".88" style="fill-rule:evenodd;clip-rule:evenodd"/><circle cx="18.42" cy="-13.05" r=".88" style="fill-rule:evenodd;clip-rule:evenodd"/><circle cx="23.04" cy="-13.68" r=".88" style="fill-rule:evenodd;clip-rule:evenodd"/><circle cx="25.04" cy="-16.93" r=".88" style="fill-rule:evenodd;clip-rule:evenodd"/><circle cx="30.92" cy="-17.93" r=".88" style="fill-rule:evenodd;clip-rule:evenodd"/><circle cx="20.17" cy="-16.3" r=".88" style="fill-rule:evenodd;clip-rule:evenodd"/><circle cx="7.55" cy="-8.43" r=".88" style="fill-rule:evenodd;clip-rule:evenodd"/><path d="M1-9.04a.88.88 0 0 1 0 1.77" style="fill-rule:evenodd;clip-rule:evenodd"/><circle cx="10.79" cy="-7.3" r=".88" style="fill-rule:evenodd;clip-rule:evenodd"/><circle cx="14.04" cy="-6.67" r=".88" style="fill-rule:evenodd;clip-rule:evenodd"/><circle cx="16.04" cy="-9.93" r=".88" style="fill-rule:evenodd;clip-rule:evenodd"/><circle cx="20.92" cy="-10.05" r=".88" style="fill-rule:evenodd;clip-rule:evenodd"/><circle cx="4.3" cy="-10.43" r=".88" style="fill-rule:evenodd;clip-rule:evenodd"/><circle cx="56.8" cy="-5.55" r=".88" style="fill-rule:evenodd;clip-rule:evenodd"/><circle cx="55.05" cy="-2.55" r=".88" style="fill-rule:evenodd;clip-rule:evenodd"/><circle cx="26.92" cy="-47.17" r=".88" style="fill-rule:evenodd;clip-rule:evenodd"/><circle cx="24.85" cy="-49.67" r=".88" style="fill-rule:evenodd;clip-rule:evenodd"/><circle cx="22.61" cy="-52" r=".88" style="fill-rule:evenodd;clip-rule:evenodd"/><circle cx="21.18" cy="-55.06" r=".88" style="fill-rule:evenodd;clip-rule:evenodd"/><circle cx="19.43" cy="-57.56" r=".88" style="fill-rule:evenodd;clip-rule:evenodd"/><circle cx="31.98" cy="-57.53" r=".88" style="fill-rule:evenodd;clip-rule:evenodd"/></svg>