<svg xmlns="http://www.w3.org/2000/svg" xml:space="preserve" width="72.67" height="72.67" viewBox="2.15 -74.4 72.67 72.67"><path d="M2.15-74.4h72.67v72.67H2.15z" style="fill:none"/><path d="M7.42-73.61c1.45-.48 1.5 2.25.25 2.75s-1.37-2.38-.25-2.75zM12.68-73.11c.57-1.03 3.12.37 1.75 1.62s-2.38-.5-1.75-1.62zM19.93-70.74c.95 1.53 1.37 3.38-.88 2.5s.25-3.5.88-2.5zM24.93-72.11c-1.11.31-1.25 3 1.12 3s-.25-3.25-1.13-3zM32.8-73.99c.8-.64 2.25 1.75.38 2.38s-1-1.88-.38-2.38zM42.92-73.74c-2.2.32-1.12 2.5.5 2.25s1.25-2.5-.5-2.25zM4.17-66.49c.47-1.05 2.38 0 1.75 1.25-.62 1.25-2.62.75-1.75-1.25zM8.93-59.99c-1.3 1.2.25 3.38 1.5 2.25s0-3.62-1.5-2.25zM2.67-44.49c.43-1.85 2.63.75 1.75 2s-2.37.75-1.75-2zM8.18-52.49c1.06-1.06 2.62.25 1.12 2s-1.75-1.37-1.13-2zM51.05-72.86c1.66-.83 1.88 1.75.63 2.5s-1.63-2-.63-2.5zM59.05-71.99c1.35-.27 2.38 1.88.63 2.5s-1.88-2.25-.63-2.5zM2.92-38.49c.46-1.06 1.38-1 1.63.88s-2.75 1.75-1.63-.88zM3.55-30.99c.33-1.55 2.5-1.37 2.38.38S3.17-29.24 3.54-31zM5.55-23.36C7.21-24.9 8.3-21.5 6.8-21.11s-3-.63-1.25-2.25zM5.55-16.49c1.2-1.49 2.38.88 1.25 1.88s-2.25-.63-1.25-1.88zM12.82-22.74c1.28-2.02 1.93.3 1.82 2.06-.1 1.76-3.3.24-1.82-2.06zM71.47-73.3c.73-2.21 2.37 1.25.87 2.63s-1.37-1.13-.87-2.63zM68.86-65.86c1.46-.1 1.88 2 .5 2.62s-2.25-2.5-.5-2.62zM72.22-59.74c-1.27 1.1.12 3.38 1.25 2.13s-.25-3-1.25-2.13zM72.6-53.74c1.22-1.07 2.12 2.5.74 2.88s-1.75-2-.75-2.88zM69.97-47.36c1.79-.21 1.37 2.87.12 3.12s-2.25-2.87-.12-3.12zM70.1-39.36c1.48.5 1.12 3.75-.5 2.62s-.26-2.87.5-2.62zM68.97-32.49c1.46.98-3.13 3.88-2.38 1.25s1.63-1.75 2.38-1.25zM72.34-27.24c-1.33.9-1 4.38.5 3s.63-3.75-.5-3zM70.6-19.74c1.7.52 2.24 2.88.37 2.88s-1.63-3.25-.38-2.88zM72.22-12.24c1.5-.75 1.75 2.38.37 3s-2.12-2.12-.37-3zM15.55-65.49c1.6.96 1.75 3.88 0 3.25s-.63-3.62 0-3.25zM30.68-65.86C31.84-66 32.3-63 30.93-63s-1.38-2.75-.25-2.87zM36.8-68.61c1.91 0 2.13 3 .38 2.87s-1.88-2.87-.38-2.87zM46.17-68.11c2 .5.38 3.62-.87 2.75s-.63-3.13.88-2.75zM55.55-66.74c1.59.35 1.25 2.75-.13 2.75s-1-3 .13-2.75zM62.99-62.99c2.02.74 1.62 4.38-.63 3.75-2.25-.62-.75-4.25.63-3.75zM66.42-55.74c1-.1 1.25 2.5 0 3s-1.25-2.87 0-3zM50.3-61.99c1.13-.37 2 2 .38 2.63S48.8-61.5 50.3-62zM10.68-8.18c1.2-.71 2.75 1.88 1.62 2.75s-2.88-2-1.63-2.75zM3.55-7.05c1-2.7 2.5 2.38 1 2.88s-1.75-.88-1-2.88zM19.68-5.67c.55-1.12 2.87 2.87 1.62 3.37s-2.38-1.88-1.63-3.38zM31.43-8.18c1.1-.15 1.75 2.88 0 3s-.88-2.87 0-3zM50.92-7.55c1.28-1.48 1.88 2.88.63 3.38s-2.25-1.5-.63-3.38zM59.05-6.55c-1.08.62-1.63 3.5.5 2.75s.38-3.25-.5-2.75zM65.42-5.05c.57-1.14 2.13.38 1.75 1.75s-3 .75-1.75-1.75zM39.17-6.8c1.3.48 2.63-2.88 1-3.5s-2 3.13-1 3.5zM45.17-9.05c1.08-.41 2.25 2.75.88 3s-2.5-2.38-.88-3zM25.18-10.68c1.46-.32 2.25 4 .5 4.13s-1.63-3.88-.5-4.13zM39.3-24.99c.84-.25 1.75 1.38 1.25 2.5s-.5 1.25-1.13 1.5-1.37-3.62-.12-4zM45.17-16.61c1 1 1.5 3.25-.5 2.37s.5-2.37.5-2.37zM34.8-16.24c.58-.96 2 1.13 1.5 1.88s-3.25 1-1.5-1.88zM28.55-18.61c1.48.9.5 2.5-1.25 2.12s-1-3.5 1.25-2.12zM19.8-15.61c1.48-.37 1.75 1.75.5 2.37s-1.5-2.12-.5-2.37zM13.43-14.36c1.26-.21 1.12 3.5-.63 2.62s-.13-2.5.63-2.62zM19.55-23.36c.54-.92 2-.13 1.13 1.37s-2 .13-1.13-1.37zM30.8-39.11c.54-.92 2-.13 1.13 1.37s-2 .13-1.13-1.37zM64.55-70.11c.54-.93 2-.13 1.13 1.37s-2 .13-1.13-1.37zM25.93-26.24c1.35 0 .75 3.5-.5 3.25s-.13-3.25.5-3.25zM64.55-14.74c2.06-.51 2.25 3.13.63 3.88-1.63.75-1.63-3.63-.63-3.88zM57.05-19.43c1.35-.55 2.75 1 1.38 2.38s-3.5-1.5-1.38-2.38zM50.8-22.11c1.58.23.88 2.87-.25 3.37s-3.13-3.87.25-3.37zM65.55-23.11c.92-1.02 2.38 2.87.88 3.12s-2-1.87-.88-3.12zM60.67-27.86c1.29-.4 1.5 2.12.63 3.25s-3-2.5-.63-3.25zM52.67-28.86c2.36 1.04.25 3.87-1.25 2.87s.13-3.37 1.25-2.87zM58.42-34.99c1.67 0 1.25 2.38-.12 3.13s-1-3.13.13-3.13zM63.05-43.61c1.7 1 .38 3.62-1.25 3.5s-.25-4.38 1.25-3.5zM44.92-27.49c.88-1.75 1.88-.75 2.13 1.25s-3.38 1.25-2.13-1.25zM49.05-37.24c1.55-.88 2.75 2.38 1.25 2.88s-3-1.88-1.25-2.88zM42.17-37.24c1.94.26 1.5 2.13.25 2.5s-2.12-2.75-.25-2.5zM54.42-43.99c1.54-.57 2.25 2.75.75 3s-1.75-2.62-.75-3zM32.55-26.24c1.36-.72 2.38 2.63 1.13 3.25s-3-2.25-1.13-3.25zM37.3-33.61c1.54-.39 1.5 2.5.38 3s-2.88-2.38-.38-3zM11.18-31.74c.94-1.41 3.12.38 2.12 1.63s-3.38.25-2.13-1.63zM17.43-30.24c1.14-.57 2 1.88.75 2.5s-1.75-2-.75-2.5zM55.42-12.86c1.14-.57 2 1.87.75 2.5s-1.75-2-.75-2.5zM27.55-34.24c1.24-.61 2 2.63.88 3.38s-3.13-2.25-.88-3.38zM9.68-38.74c1-1 1.75 1 .75 2.38s-2.5-.63-.75-2.38zM18.18-38.61c.57-.97 1.62 1.62.75 2.37s-2-.25-.75-2.37zM36.42-43.24c.53-.65 1.5 2.13.38 2.75s-1.38-1.5-.38-2.75zM46.05-43.74c.98-.18 2 2.38.5 2.75s-1.88-2.5-.5-2.75zM61.55-50.36c1.89-.24 1.88 3 .38 3.25s-1.38-3.13-.38-3.25zM57.67-57.36c1.28.18 1.5 3.25-.25 3.12s-.62-3.25.25-3.12zM51.42-49.99c1-.98 2 1.63.75 2.38s-1.62-1.5-.75-2.38zM30.05-46.61c.74-.68 1.63 1.37.63 2.5s-2.13-1.13-.63-2.5zM23.93-43.36c1.47-.98 1.87 2.25 1 2.87s-2.5-1.87-1-2.87zM18.3-47.49c1.17.18 1.5 2 .25 2.75s-1.88-3-.25-2.75zM11.55-46.24c1.03-.72 2 2.75.75 3.5s-2.88-2-.75-3.5zM44.67-49.86c.76-.67 2.38 1.62.63 2.25s-1.63-1.38-.63-2.25zM46.3-57.36c.98-.2 1.75 2 .25 2.37s-1.5-2.12-.25-2.37zM42.3-62.74c1.47-1.32 1 3 .5 2.88s-3.13-.5-.5-2.88zM36.42-60.24c.86-.21 1.25 2.13.25 2.75s-1.25-2.5-.25-2.75zM39.67-52.11c1.62-.32 1.5 1.75.38 2.5s-1.63-2.25-.38-2.5zM33.67-53.36c1.21-.32 1.5 1.37.38 2.25s-2.25-1.75-.38-2.25zM16.68-57.24c1.11.08 1.12 3.13-.25 3.25s-1.63-3.37.25-3.25zM22.8-53.36c1.66-.56 1.5 2.5.25 2.87s-1-2.62-.25-2.87zM29.55-58.61c1.28.15 1.25 3.25-.25 3.5s-1.88-3.75.25-3.5zM22.8-62.74c.98-.77 1.88 2.25.63 3.13s-2.38-1.75-.63-3.13z" style="fill:none;stroke:#000;stroke-width:.4"/></svg>