<svg xmlns="http://www.w3.org/2000/svg" width="49.7" height="49.49"><path fill="none" d="M0 0h49.7v49.5H0z"/><path fill="#EC008C" d="M48 0c0 .25.2.45.44.45s.45-.2.45-.45m-3.53 0c0 .25.2.45.45.45s.46-.2.46-.45m-3.53 0c0 .25.2.45.45.45s.44-.2.44-.45M40.1 0c0 .25.2.45.46.45S41 .25 41 0m-3.5 0c0 .25.2.45.44.45s.45-.2.45-.45M34.8 0c0 .25.2.45.45.45s.45-.2.45-.45m-3.46 0c0 .25.2.45.45.45s.44-.2.44-.45M29.6 0c0 .25.2.45.46.45s.45-.2.45-.45m-3.58 0c0 .25.2.45.45.45s.45-.2.45-.45m-3.47 0c0 .25.2.45.45.45s.46-.2.46-.45m-3.59 0c0 .25.2.45.45.45s.45-.2.45-.45M19.1 0c0 .25.2.45.46.45S20 .25 20 0m-3.5 0c0 .25.2.45.44.45s.45-.2.45-.45m-3.46 0c0 .25.2.45.45.45s.44-.2.44-.45M11.3 0c0 .25.2.45.45.45s.45-.2.45-.45M8.68 0c0 .25.2.45.45.45s.44-.2.44-.45M6.05 0c0 .25.2.45.45.45s.45-.2.45-.45M3.42 0c0 .25.2.45.45.45s.46-.2.46-.45M.74 0c0 .25.2.45.45.45s.44-.2.44-.45M0 1.76c.25 0 .45-.2.45-.45S.25.87 0 .87"/><circle cx="2.56" cy="1.31" r=".45" fill="#EC008C"/><circle cx="5.19" cy="1.31" r=".45" fill="#EC008C"/><circle cx="7.88" cy="1.31" r=".45" fill="#EC008C"/><circle cx="10.44" cy="1.31" r=".45" fill="#EC008C"/><circle cx="13" cy="1.31" r=".45" fill="#EC008C"/><circle cx="15.63" cy="1.31" r=".45" fill="#EC008C"/><circle cx="18.25" cy="1.31" r=".45" fill="#EC008C"/><circle cx="20.94" cy="1.31" r=".45" fill="#EC008C"/><circle cx="23.56" cy="1.31" r=".45" fill="#EC008C"/><circle cx="26.06" cy="1.31" r=".45" fill="#EC008C"/><circle cx="28.75" cy="1.31" r=".45" fill="#EC008C"/><circle cx="31.38" cy="1.31" r=".45" fill="#EC008C"/><circle cx="33.94" cy="1.31" r=".45" fill="#EC008C"/><circle cx="36.63" cy="1.31" r=".45" fill="#EC008C"/><circle cx="39.19" cy="1.31" r=".45" fill="#EC008C"/><circle cx="41.81" cy="1.31" r=".45" fill="#EC008C"/><circle cx="44.44" cy="1.31" r=".45" fill="#EC008C"/><circle cx="47.06" cy="1.31" r=".45" fill="#EC008C"/><path fill="#EC008C" d="M49.7.86c-.26 0-.46.2-.46.45s.2.46.45.46"/><circle cx="48.44" cy="2.56" r=".45" fill="#EC008C"/><circle cx="45.81" cy="2.56" r=".45" fill="#EC008C"/><circle cx="43.19" cy="2.56" r=".45" fill="#EC008C"/><circle cx="40.56" cy="2.56" r=".45" fill="#EC008C"/><circle cx="37.94" cy="2.56" r=".45" fill="#EC008C"/><circle cx="35.25" cy="2.56" r=".45" fill="#EC008C"/><circle cx="32.69" cy="2.56" r=".45" fill="#EC008C"/><circle cx="30.06" cy="2.56" r=".45" fill="#EC008C"/><circle cx="27.38" cy="2.56" r=".45" fill="#EC008C"/><circle cx="24.81" cy="2.56" r=".45" fill="#EC008C"/><circle cx="22.13" cy="2.56" r=".45" fill="#EC008C"/><circle cx="19.56" cy="2.56" r=".45" fill="#EC008C"/><circle cx="16.94" cy="2.56" r=".45" fill="#EC008C"/><circle cx="14.38" cy="2.56" r=".45" fill="#EC008C"/><circle cx="11.75" cy="2.56" r=".45" fill="#EC008C"/><circle cx="9.13" cy="2.56" r=".45" fill="#EC008C"/><circle cx="6.5" cy="2.56" r=".45" fill="#EC008C"/><circle cx="3.88" cy="2.56" r=".45" fill="#EC008C"/><circle cx="1.19" cy="2.56" r=".45" fill="#EC008C"/><path fill="#EC008C" d="M0 4.33c.25 0 .45-.2.45-.46s-.2-.45-.45-.45"/><circle cx="2.56" cy="3.88" r=".45" fill="#EC008C"/><circle cx="5.19" cy="3.88" r=".45" fill="#EC008C"/><circle cx="7.88" cy="3.88" r=".45" fill="#EC008C"/><circle cx="10.44" cy="3.88" r=".45" fill="#EC008C"/><circle cx="13" cy="3.88" r=".45" fill="#EC008C"/><circle cx="15.63" cy="3.88" r=".45" fill="#EC008C"/><circle cx="18.25" cy="3.88" r=".45" fill="#EC008C"/><circle cx="20.94" cy="3.88" r=".45" fill="#EC008C"/><circle cx="23.56" cy="3.88" r=".45" fill="#EC008C"/><circle cx="26.06" cy="3.88" r=".45" fill="#EC008C"/><circle cx="28.75" cy="3.88" r=".45" fill="#EC008C"/><circle cx="31.38" cy="3.88" r=".45" fill="#EC008C"/><circle cx="33.94" cy="3.88" r=".45" fill="#EC008C"/><circle cx="36.63" cy="3.88" r=".45" fill="#EC008C"/><circle cx="39.19" cy="3.88" r=".45" fill="#EC008C"/><circle cx="41.81" cy="3.88" r=".45" fill="#EC008C"/><circle cx="44.44" cy="3.88" r=".45" fill="#EC008C"/><circle cx="47.06" cy="3.88" r=".45" fill="#EC008C"/><path fill="#EC008C" d="M49.7 3.42c-.26 0-.46.2-.46.46s.2.45.45.45"/><circle cx="48.44" cy="5.13" r=".45" fill="#EC008C"/><circle cx="45.81" cy="5.13" r=".45" fill="#EC008C"/><circle cx="43.19" cy="5.13" r=".45" fill="#EC008C"/><circle cx="40.56" cy="5.13" r=".45" fill="#EC008C"/><circle cx="37.94" cy="5.13" r=".45" fill="#EC008C"/><circle cx="35.25" cy="5.13" r=".45" fill="#EC008C"/><circle cx="32.69" cy="5.13" r=".45" fill="#EC008C"/><circle cx="30.06" cy="5.13" r=".45" fill="#EC008C"/><circle cx="27.38" cy="5.13" r=".45" fill="#EC008C"/><circle cx="24.81" cy="5.13" r=".45" fill="#EC008C"/><circle cx="22.13" cy="5.13" r=".45" fill="#EC008C"/><circle cx="19.56" cy="5.13" r=".45" fill="#EC008C"/><circle cx="16.94" cy="5.13" r=".45" fill="#EC008C"/><circle cx="14.38" cy="5.13" r=".45" fill="#EC008C"/><circle cx="11.75" cy="5.13" r=".45" fill="#EC008C"/><circle cx="9.13" cy="5.13" r=".45" fill="#EC008C"/><circle cx="6.5" cy="5.13" r=".45" fill="#EC008C"/><circle cx="3.88" cy="5.13" r=".45" fill="#EC008C"/><circle cx="1.19" cy="5.13" r=".45" fill="#EC008C"/><path fill="#EC008C" d="M0 6.95c.25 0 .45-.2.45-.45s-.2-.45-.45-.45"/><circle cx="2.56" cy="6.5" r=".45" fill="#EC008C"/><circle cx="5.19" cy="6.5" r=".45" fill="#EC008C"/><circle cx="7.88" cy="6.5" r=".45" fill="#EC008C"/><circle cx="10.44" cy="6.5" r=".45" fill="#EC008C"/><circle cx="13" cy="6.5" r=".45" fill="#EC008C"/><circle cx="15.63" cy="6.5" r=".45" fill="#EC008C"/><circle cx="18.25" cy="6.5" r=".45" fill="#EC008C"/><circle cx="20.94" cy="6.5" r=".45" fill="#EC008C"/><circle cx="23.56" cy="6.5" r=".45" fill="#EC008C"/><circle cx="26.06" cy="6.5" r=".45" fill="#EC008C"/><circle cx="28.75" cy="6.5" r=".45" fill="#EC008C"/><circle cx="31.38" cy="6.5" r=".45" fill="#EC008C"/><circle cx="33.94" cy="6.5" r=".45" fill="#EC008C"/><circle cx="36.63" cy="6.5" r=".45" fill="#EC008C"/><circle cx="39.19" cy="6.5" r=".45" fill="#EC008C"/><circle cx="41.81" cy="6.5" r=".45" fill="#EC008C"/><circle cx="44.44" cy="6.5" r=".45" fill="#EC008C"/><circle cx="47.06" cy="6.5" r=".45" fill="#EC008C"/><path fill="#EC008C" d="M49.7 6.05a.45.45 0 1 0-.01.9"/><circle cx="48.44" cy="7.75" r=".45" fill="#EC008C"/><circle cx="45.81" cy="7.75" r=".45" fill="#EC008C"/><circle cx="43.19" cy="7.75" r=".45" fill="#EC008C"/><circle cx="40.56" cy="7.75" r=".45" fill="#EC008C"/><circle cx="37.94" cy="7.75" r=".45" fill="#EC008C"/><circle cx="35.25" cy="7.75" r=".45" fill="#EC008C"/><circle cx="32.69" cy="7.75" r=".45" fill="#EC008C"/><circle cx="30.06" cy="7.75" r=".45" fill="#EC008C"/><circle cx="27.38" cy="7.75" r=".45" fill="#EC008C"/><circle cx="24.81" cy="7.75" r=".45" fill="#EC008C"/><circle cx="22.13" cy="7.75" r=".45" fill="#EC008C"/><circle cx="19.56" cy="7.75" r=".45" fill="#EC008C"/><circle cx="16.94" cy="7.75" r=".45" fill="#EC008C"/><circle cx="14.38" cy="7.75" r=".45" fill="#EC008C"/><circle cx="11.75" cy="7.75" r=".45" fill="#EC008C"/><circle cx="9.13" cy="7.75" r=".45" fill="#EC008C"/><circle cx="6.5" cy="7.75" r=".45" fill="#EC008C"/><circle cx="3.88" cy="7.75" r=".45" fill="#EC008C"/><circle cx="1.19" cy="7.75" r=".45" fill="#EC008C"/><path fill="#EC008C" d="M0 9.58c.25 0 .45-.2.45-.45s-.2-.46-.45-.46"/><circle cx="2.56" cy="9.13" r=".45" fill="#EC008C"/><circle cx="5.19" cy="9.13" r=".45" fill="#EC008C"/><circle cx="7.88" cy="9.13" r=".45" fill="#EC008C"/><circle cx="10.44" cy="9.13" r=".45" fill="#EC008C"/><circle cx="13" cy="9.13" r=".45" fill="#EC008C"/><circle cx="15.63" cy="9.13" r=".45" fill="#EC008C"/><circle cx="18.25" cy="9.13" r=".45" fill="#EC008C"/><circle cx="20.94" cy="9.13" r=".45" fill="#EC008C"/><circle cx="23.56" cy="9.13" r=".45" fill="#EC008C"/><circle cx="26.06" cy="9.13" r=".45" fill="#EC008C"/><circle cx="28.75" cy="9.13" r=".45" fill="#EC008C"/><circle cx="31.38" cy="9.13" r=".45" fill="#EC008C"/><circle cx="33.94" cy="9.13" r=".45" fill="#EC008C"/><circle cx="36.63" cy="9.13" r=".45" fill="#EC008C"/><circle cx="39.19" cy="9.13" r=".45" fill="#EC008C"/><circle cx="41.81" cy="9.13" r=".45" fill="#EC008C"/><circle cx="44.44" cy="9.13" r=".45" fill="#EC008C"/><circle cx="47.06" cy="9.13" r=".45" fill="#EC008C"/><path fill="#EC008C" d="M49.7 8.68a.45.45 0 1 0-.01.9"/><circle cx="48.44" cy="10.38" r=".45" fill="#EC008C"/><circle cx="45.81" cy="10.38" r=".45" fill="#EC008C"/><circle cx="43.19" cy="10.38" r=".45" fill="#EC008C"/><circle cx="40.56" cy="10.38" r=".45" fill="#EC008C"/><circle cx="37.94" cy="10.38" r=".45" fill="#EC008C"/><circle cx="35.25" cy="10.38" r=".45" fill="#EC008C"/><circle cx="32.69" cy="10.38" r=".45" fill="#EC008C"/><circle cx="30.06" cy="10.38" r=".45" fill="#EC008C"/><circle cx="27.38" cy="10.38" r=".45" fill="#EC008C"/><circle cx="24.81" cy="10.38" r=".45" fill="#EC008C"/><circle cx="22.13" cy="10.38" r=".45" fill="#EC008C"/><circle cx="19.56" cy="10.38" r=".45" fill="#EC008C"/><circle cx="16.94" cy="10.38" r=".45" fill="#EC008C"/><circle cx="14.38" cy="10.38" r=".45" fill="#EC008C"/><circle cx="11.75" cy="10.38" r=".45" fill="#EC008C"/><circle cx="9.13" cy="10.38" r=".45" fill="#EC008C"/><circle cx="6.5" cy="10.38" r=".45" fill="#EC008C"/><circle cx="3.88" cy="10.38" r=".45" fill="#EC008C"/><circle cx="1.19" cy="10.38" r=".45" fill="#EC008C"/><path fill="#EC008C" d="M0 12.2c.25 0 .45-.2.45-.45s-.2-.45-.45-.45"/><circle cx="2.56" cy="11.75" r=".45" fill="#EC008C"/><circle cx="5.19" cy="11.75" r=".45" fill="#EC008C"/><circle cx="7.88" cy="11.75" r=".45" fill="#EC008C"/><circle cx="10.44" cy="11.75" r=".45" fill="#EC008C"/><circle cx="13" cy="11.75" r=".45" fill="#EC008C"/><circle cx="15.63" cy="11.75" r=".45" fill="#EC008C"/><circle cx="18.25" cy="11.75" r=".45" fill="#EC008C"/><circle cx="20.94" cy="11.75" r=".45" fill="#EC008C"/><circle cx="23.56" cy="11.75" r=".45" fill="#EC008C"/><circle cx="26.06" cy="11.75" r=".45" fill="#EC008C"/><circle cx="28.75" cy="11.75" r=".45" fill="#EC008C"/><circle cx="31.38" cy="11.75" r=".45" fill="#EC008C"/><circle cx="33.94" cy="11.75" r=".45" fill="#EC008C"/><circle cx="36.63" cy="11.75" r=".45" fill="#EC008C"/><circle cx="39.19" cy="11.75" r=".45" fill="#EC008C"/><circle cx="41.81" cy="11.75" r=".45" fill="#EC008C"/><circle cx="44.44" cy="11.75" r=".45" fill="#EC008C"/><circle cx="47.06" cy="11.75" r=".45" fill="#EC008C"/><path fill="#EC008C" d="M49.7 11.3a.45.45 0 1 0-.01.9"/><circle cx="48.44" cy="13" r=".45" fill="#EC008C"/><circle cx="45.81" cy="13" r=".45" fill="#EC008C"/><circle cx="43.19" cy="13" r=".45" fill="#EC008C"/><circle cx="40.56" cy="13" r=".45" fill="#EC008C"/><circle cx="37.94" cy="13" r=".45" fill="#EC008C"/><circle cx="35.25" cy="13" r=".45" fill="#EC008C"/><circle cx="32.69" cy="13" r=".45" fill="#EC008C"/><circle cx="30.06" cy="13" r=".45" fill="#EC008C"/><circle cx="27.38" cy="13" r=".45" fill="#EC008C"/><circle cx="24.81" cy="13" r=".45" fill="#EC008C"/><circle cx="22.13" cy="13" r=".45" fill="#EC008C"/><circle cx="19.56" cy="13" r=".45" fill="#EC008C"/><circle cx="16.94" cy="13" r=".45" fill="#EC008C"/><circle cx="14.38" cy="13" r=".45" fill="#EC008C"/><circle cx="11.75" cy="13" r=".45" fill="#EC008C"/><circle cx="9.13" cy="13" r=".45" fill="#EC008C"/><circle cx="6.5" cy="13" r=".45" fill="#EC008C"/><circle cx="3.88" cy="13" r=".45" fill="#EC008C"/><circle cx="1.19" cy="13" r=".45" fill="#EC008C"/><path fill="#EC008C" d="M0 14.76c.25 0 .45-.2.45-.45s-.2-.44-.45-.44"/><circle cx="2.56" cy="14.31" r=".45" fill="#EC008C"/><circle cx="5.19" cy="14.31" r=".45" fill="#EC008C"/><circle cx="7.88" cy="14.31" r=".45" fill="#EC008C"/><circle cx="10.44" cy="14.31" r=".45" fill="#EC008C"/><circle cx="13" cy="14.31" r=".45" fill="#EC008C"/><circle cx="15.63" cy="14.31" r=".45" fill="#EC008C"/><circle cx="18.25" cy="14.31" r=".45" fill="#EC008C"/><circle cx="20.94" cy="14.31" r=".45" fill="#EC008C"/><circle cx="23.56" cy="14.31" r=".45" fill="#EC008C"/><circle cx="26.06" cy="14.31" r=".45" fill="#EC008C"/><circle cx="28.75" cy="14.31" r=".45" fill="#EC008C"/><circle cx="31.38" cy="14.31" r=".45" fill="#EC008C"/><circle cx="33.94" cy="14.31" r=".45" fill="#EC008C"/><circle cx="36.63" cy="14.31" r=".45" fill="#EC008C"/><circle cx="39.19" cy="14.31" r=".45" fill="#EC008C"/><circle cx="41.81" cy="14.31" r=".45" fill="#EC008C"/><circle cx="44.44" cy="14.31" r=".45" fill="#EC008C"/><circle cx="47.06" cy="14.31" r=".45" fill="#EC008C"/><path fill="#EC008C" d="M49.7 13.86c-.26 0-.46.2-.46.45s.2.46.45.46"/><circle cx="48.44" cy="15.56" r=".45" fill="#EC008C"/><circle cx="45.81" cy="15.56" r=".45" fill="#EC008C"/><circle cx="43.19" cy="15.56" r=".45" fill="#EC008C"/><circle cx="40.56" cy="15.56" r=".45" fill="#EC008C"/><circle cx="37.94" cy="15.56" r=".45" fill="#EC008C"/><circle cx="35.25" cy="15.56" r=".45" fill="#EC008C"/><circle cx="32.69" cy="15.56" r=".45" fill="#EC008C"/><circle cx="30.06" cy="15.56" r=".45" fill="#EC008C"/><circle cx="27.38" cy="15.56" r=".45" fill="#EC008C"/><circle cx="24.81" cy="15.56" r=".45" fill="#EC008C"/><circle cx="22.13" cy="15.56" r=".45" fill="#EC008C"/><circle cx="19.56" cy="15.56" r=".45" fill="#EC008C"/><circle cx="16.94" cy="15.56" r=".45" fill="#EC008C"/><circle cx="14.38" cy="15.56" r=".45" fill="#EC008C"/><circle cx="11.75" cy="15.56" r=".45" fill="#EC008C"/><circle cx="9.13" cy="15.56" r=".45" fill="#EC008C"/><circle cx="6.5" cy="15.56" r=".45" fill="#EC008C"/><circle cx="3.88" cy="15.56" r=".45" fill="#EC008C"/><circle cx="1.19" cy="15.56" r=".45" fill="#EC008C"/><path fill="#EC008C" d="M0 17.4c.25 0 .45-.2.45-.46s-.2-.45-.45-.45"/><circle cx="2.56" cy="16.94" r=".45" fill="#EC008C"/><circle cx="5.19" cy="16.94" r=".45" fill="#EC008C"/><circle cx="7.88" cy="16.94" r=".45" fill="#EC008C"/><circle cx="10.44" cy="16.94" r=".45" fill="#EC008C"/><circle cx="13" cy="16.94" r=".45" fill="#EC008C"/><circle cx="15.63" cy="16.94" r=".45" fill="#EC008C"/><circle cx="18.25" cy="16.94" r=".45" fill="#EC008C"/><circle cx="20.94" cy="16.94" r=".45" fill="#EC008C"/><circle cx="23.56" cy="16.94" r=".45" fill="#EC008C"/><circle cx="26.06" cy="16.94" r=".45" fill="#EC008C"/><circle cx="28.75" cy="16.94" r=".45" fill="#EC008C"/><circle cx="31.38" cy="16.94" r=".45" fill="#EC008C"/><circle cx="33.94" cy="16.94" r=".45" fill="#EC008C"/><circle cx="36.63" cy="16.94" r=".45" fill="#EC008C"/><circle cx="39.19" cy="16.94" r=".45" fill="#EC008C"/><circle cx="41.81" cy="16.94" r=".45" fill="#EC008C"/><circle cx="44.44" cy="16.94" r=".45" fill="#EC008C"/><circle cx="47.06" cy="16.94" r=".45" fill="#EC008C"/><path fill="#EC008C" d="M49.7 16.5c-.26 0-.46.2-.46.44s.2.45.45.45"/><circle cx="48.44" cy="18.19" r=".45" fill="#EC008C"/><circle cx="45.81" cy="18.19" r=".45" fill="#EC008C"/><circle cx="43.19" cy="18.19" r=".45" fill="#EC008C"/><circle cx="40.56" cy="18.19" r=".45" fill="#EC008C"/><circle cx="37.94" cy="18.19" r=".45" fill="#EC008C"/><circle cx="35.25" cy="18.19" r=".45" fill="#EC008C"/><circle cx="32.69" cy="18.19" r=".45" fill="#EC008C"/><circle cx="30.06" cy="18.19" r=".45" fill="#EC008C"/><circle cx="27.38" cy="18.19" r=".45" fill="#EC008C"/><circle cx="24.81" cy="18.19" r=".45" fill="#EC008C"/><circle cx="22.13" cy="18.19" r=".45" fill="#EC008C"/><circle cx="19.56" cy="18.19" r=".45" fill="#EC008C"/><circle cx="16.94" cy="18.19" r=".45" fill="#EC008C"/><circle cx="14.38" cy="18.19" r=".45" fill="#EC008C"/><circle cx="11.75" cy="18.19" r=".45" fill="#EC008C"/><circle cx="9.13" cy="18.19" r=".45" fill="#EC008C"/><circle cx="6.5" cy="18.19" r=".45" fill="#EC008C"/><circle cx="3.88" cy="18.19" r=".45" fill="#EC008C"/><circle cx="1.19" cy="18.19" r=".45" fill="#EC008C"/><path fill="#EC008C" d="M0 20c.25 0 .45-.2.45-.44s-.2-.45-.45-.45"/><circle cx="2.56" cy="19.56" r=".45" fill="#EC008C"/><circle cx="5.19" cy="19.56" r=".45" fill="#EC008C"/><circle cx="7.88" cy="19.56" r=".45" fill="#EC008C"/><circle cx="10.44" cy="19.56" r=".45" fill="#EC008C"/><circle cx="13" cy="19.56" r=".45" fill="#EC008C"/><circle cx="15.63" cy="19.56" r=".45" fill="#EC008C"/><circle cx="18.25" cy="19.56" r=".45" fill="#EC008C"/><circle cx="20.94" cy="19.56" r=".45" fill="#EC008C"/><circle cx="23.56" cy="19.56" r=".45" fill="#EC008C"/><circle cx="26.06" cy="19.56" r=".45" fill="#EC008C"/><circle cx="28.75" cy="19.56" r=".45" fill="#EC008C"/><circle cx="31.38" cy="19.56" r=".45" fill="#EC008C"/><circle cx="33.94" cy="19.56" r=".45" fill="#EC008C"/><circle cx="36.63" cy="19.56" r=".45" fill="#EC008C"/><circle cx="39.19" cy="19.56" r=".45" fill="#EC008C"/><circle cx="41.81" cy="19.56" r=".45" fill="#EC008C"/><circle cx="44.44" cy="19.56" r=".45" fill="#EC008C"/><circle cx="47.06" cy="19.56" r=".45" fill="#EC008C"/><path fill="#EC008C" d="M49.7 19.1c-.26 0-.46.2-.46.46s.2.45.45.45"/><circle cx="48.44" cy="20.81" r=".45" fill="#EC008C"/><circle cx="45.81" cy="20.81" r=".45" fill="#EC008C"/><circle cx="43.19" cy="20.81" r=".45" fill="#EC008C"/><circle cx="40.56" cy="20.81" r=".45" fill="#EC008C"/><circle cx="37.94" cy="20.81" r=".45" fill="#EC008C"/><circle cx="35.25" cy="20.81" r=".45" fill="#EC008C"/><circle cx="32.69" cy="20.81" r=".45" fill="#EC008C"/><circle cx="30.06" cy="20.81" r=".45" fill="#EC008C"/><circle cx="27.38" cy="20.81" r=".45" fill="#EC008C"/><circle cx="24.81" cy="20.81" r=".45" fill="#EC008C"/><circle cx="22.13" cy="20.81" r=".45" fill="#EC008C"/><circle cx="19.56" cy="20.81" r=".45" fill="#EC008C"/><circle cx="16.94" cy="20.81" r=".45" fill="#EC008C"/><circle cx="14.38" cy="20.81" r=".45" fill="#EC008C"/><circle cx="11.75" cy="20.81" r=".45" fill="#EC008C"/><circle cx="9.13" cy="20.81" r=".45" fill="#EC008C"/><circle cx="6.5" cy="20.81" r=".45" fill="#EC008C"/><circle cx="3.88" cy="20.81" r=".45" fill="#EC008C"/><circle cx="1.19" cy="20.81" r=".45" fill="#EC008C"/><path fill="#EC008C" d="M0 22.64c.25 0 .45-.2.45-.45s-.2-.46-.45-.46"/><circle cx="2.56" cy="22.19" r=".45" fill="#EC008C"/><circle cx="5.19" cy="22.19" r=".45" fill="#EC008C"/><circle cx="7.88" cy="22.19" r=".45" fill="#EC008C"/><circle cx="10.44" cy="22.19" r=".45" fill="#EC008C"/><circle cx="13" cy="22.19" r=".45" fill="#EC008C"/><circle cx="15.63" cy="22.19" r=".45" fill="#EC008C"/><circle cx="18.25" cy="22.19" r=".45" fill="#EC008C"/><circle cx="20.94" cy="22.19" r=".45" fill="#EC008C"/><circle cx="23.56" cy="22.19" r=".45" fill="#EC008C"/><circle cx="26.06" cy="22.19" r=".45" fill="#EC008C"/><circle cx="28.75" cy="22.19" r=".45" fill="#EC008C"/><circle cx="31.38" cy="22.19" r=".45" fill="#EC008C"/><circle cx="33.94" cy="22.19" r=".45" fill="#EC008C"/><circle cx="36.63" cy="22.19" r=".45" fill="#EC008C"/><circle cx="39.19" cy="22.19" r=".45" fill="#EC008C"/><circle cx="41.81" cy="22.19" r=".45" fill="#EC008C"/><circle cx="44.44" cy="22.19" r=".45" fill="#EC008C"/><circle cx="47.06" cy="22.19" r=".45" fill="#EC008C"/><path fill="#EC008C" d="M49.7 21.74c-.26 0-.46.2-.46.45s.2.44.45.44"/><circle cx="48.44" cy="23.44" r=".45" fill="#EC008C"/><circle cx="45.81" cy="23.44" r=".45" fill="#EC008C"/><circle cx="43.19" cy="23.44" r=".45" fill="#EC008C"/><circle cx="40.56" cy="23.44" r=".45" fill="#EC008C"/><circle cx="37.94" cy="23.44" r=".45" fill="#EC008C"/><circle cx="35.25" cy="23.44" r=".45" fill="#EC008C"/><circle cx="32.69" cy="23.44" r=".45" fill="#EC008C"/><circle cx="30.06" cy="23.44" r=".45" fill="#EC008C"/><circle cx="27.38" cy="23.44" r=".45" fill="#EC008C"/><circle cx="24.81" cy="23.44" r=".45" fill="#EC008C"/><circle cx="22.13" cy="23.44" r=".45" fill="#EC008C"/><circle cx="19.56" cy="23.44" r=".45" fill="#EC008C"/><circle cx="16.94" cy="23.44" r=".45" fill="#EC008C"/><circle cx="14.38" cy="23.44" r=".45" fill="#EC008C"/><circle cx="11.75" cy="23.44" r=".45" fill="#EC008C"/><circle cx="9.13" cy="23.44" r=".45" fill="#EC008C"/><circle cx="6.5" cy="23.44" r=".45" fill="#EC008C"/><circle cx="3.88" cy="23.44" r=".45" fill="#EC008C"/><circle cx="1.19" cy="23.44" r=".45" fill="#EC008C"/><path fill="#EC008C" d="M0 25.2c.25 0 .45-.2.45-.45s-.2-.45-.45-.45"/><circle cx="2.56" cy="24.75" r=".45" fill="#EC008C"/><circle cx="5.19" cy="24.75" r=".45" fill="#EC008C"/><circle cx="7.88" cy="24.75" r=".45" fill="#EC008C"/><circle cx="10.44" cy="24.75" r=".45" fill="#EC008C"/><circle cx="13" cy="24.75" r=".45" fill="#EC008C"/><circle cx="15.63" cy="24.75" r=".45" fill="#EC008C"/><circle cx="18.25" cy="24.75" r=".45" fill="#EC008C"/><circle cx="20.94" cy="24.75" r=".45" fill="#EC008C"/><circle cx="23.56" cy="24.75" r=".45" fill="#EC008C"/><circle cx="26.06" cy="24.75" r=".45" fill="#EC008C"/><circle cx="28.75" cy="24.75" r=".45" fill="#EC008C"/><circle cx="31.38" cy="24.75" r=".45" fill="#EC008C"/><circle cx="33.94" cy="24.75" r=".45" fill="#EC008C"/><circle cx="36.63" cy="24.75" r=".45" fill="#EC008C"/><circle cx="39.19" cy="24.75" r=".45" fill="#EC008C"/><circle cx="41.81" cy="24.75" r=".45" fill="#EC008C"/><circle cx="44.44" cy="24.75" r=".45" fill="#EC008C"/><circle cx="47.06" cy="24.75" r=".45" fill="#EC008C"/><path fill="#EC008C" d="M49.7 24.3a.45.45 0 1 0-.01.9"/><circle cx="48.44" cy="26" r=".45" fill="#EC008C"/><circle cx="45.81" cy="26" r=".45" fill="#EC008C"/><circle cx="43.19" cy="26" r=".45" fill="#EC008C"/><circle cx="40.56" cy="26" r=".45" fill="#EC008C"/><circle cx="37.94" cy="26" r=".45" fill="#EC008C"/><circle cx="35.25" cy="26" r=".45" fill="#EC008C"/><circle cx="32.69" cy="26" r=".45" fill="#EC008C"/><circle cx="30.06" cy="26" r=".45" fill="#EC008C"/><circle cx="27.38" cy="26" r=".45" fill="#EC008C"/><circle cx="24.81" cy="26" r=".45" fill="#EC008C"/><circle cx="22.13" cy="26" r=".45" fill="#EC008C"/><circle cx="19.56" cy="26" r=".45" fill="#EC008C"/><circle cx="16.94" cy="26" r=".45" fill="#EC008C"/><circle cx="14.38" cy="26" r=".45" fill="#EC008C"/><circle cx="11.75" cy="26" r=".45" fill="#EC008C"/><circle cx="9.13" cy="26" r=".45" fill="#EC008C"/><circle cx="6.5" cy="26" r=".45" fill="#EC008C"/><circle cx="3.88" cy="26" r=".45" fill="#EC008C"/><circle cx="1.19" cy="26" r=".45" fill="#EC008C"/><path fill="#EC008C" d="M0 27.83c.25 0 .45-.2.45-.45s-.2-.46-.45-.46"/><circle cx="2.56" cy="27.38" r=".45" fill="#EC008C"/><circle cx="5.19" cy="27.38" r=".45" fill="#EC008C"/><circle cx="7.88" cy="27.38" r=".45" fill="#EC008C"/><circle cx="10.44" cy="27.38" r=".45" fill="#EC008C"/><circle cx="13" cy="27.38" r=".45" fill="#EC008C"/><circle cx="15.63" cy="27.38" r=".45" fill="#EC008C"/><circle cx="18.25" cy="27.38" r=".45" fill="#EC008C"/><circle cx="20.94" cy="27.38" r=".45" fill="#EC008C"/><circle cx="23.56" cy="27.38" r=".45" fill="#EC008C"/><circle cx="26.06" cy="27.38" r=".45" fill="#EC008C"/><circle cx="28.75" cy="27.38" r=".45" fill="#EC008C"/><circle cx="31.38" cy="27.38" r=".45" fill="#EC008C"/><circle cx="33.94" cy="27.38" r=".45" fill="#EC008C"/><circle cx="36.63" cy="27.38" r=".45" fill="#EC008C"/><circle cx="39.19" cy="27.38" r=".45" fill="#EC008C"/><circle cx="41.81" cy="27.38" r=".45" fill="#EC008C"/><circle cx="44.44" cy="27.38" r=".45" fill="#EC008C"/><circle cx="47.06" cy="27.38" r=".45" fill="#EC008C"/><path fill="#EC008C" d="M49.7 26.93a.45.45 0 1 0-.01.9"/><circle cx="48.44" cy="28.63" r=".45" fill="#EC008C"/><circle cx="45.81" cy="28.63" r=".45" fill="#EC008C"/><circle cx="43.19" cy="28.63" r=".45" fill="#EC008C"/><circle cx="40.56" cy="28.63" r=".45" fill="#EC008C"/><circle cx="37.94" cy="28.63" r=".45" fill="#EC008C"/><circle cx="35.25" cy="28.63" r=".45" fill="#EC008C"/><circle cx="32.69" cy="28.63" r=".45" fill="#EC008C"/><circle cx="30.06" cy="28.63" r=".45" fill="#EC008C"/><circle cx="27.38" cy="28.63" r=".45" fill="#EC008C"/><circle cx="24.81" cy="28.63" r=".45" fill="#EC008C"/><circle cx="22.13" cy="28.63" r=".45" fill="#EC008C"/><circle cx="19.56" cy="28.63" r=".45" fill="#EC008C"/><circle cx="16.94" cy="28.63" r=".45" fill="#EC008C"/><circle cx="14.38" cy="28.63" r=".45" fill="#EC008C"/><circle cx="11.75" cy="28.63" r=".45" fill="#EC008C"/><circle cx="9.13" cy="28.63" r=".45" fill="#EC008C"/><circle cx="6.5" cy="28.63" r=".45" fill="#EC008C"/><circle cx="3.88" cy="28.63" r=".45" fill="#EC008C"/><circle cx="1.19" cy="28.63" r=".45" fill="#EC008C"/><path fill="#EC008C" d="M0 30.45c.25 0 .45-.2.45-.45s-.2-.45-.45-.45"/><circle cx="2.56" cy="30" r=".45" fill="#EC008C"/><circle cx="5.19" cy="30" r=".45" fill="#EC008C"/><circle cx="7.88" cy="30" r=".45" fill="#EC008C"/><circle cx="10.44" cy="30" r=".45" fill="#EC008C"/><circle cx="13" cy="30" r=".45" fill="#EC008C"/><circle cx="15.63" cy="30" r=".45" fill="#EC008C"/><circle cx="18.25" cy="30" r=".45" fill="#EC008C"/><circle cx="20.94" cy="30" r=".45" fill="#EC008C"/><circle cx="23.56" cy="30" r=".45" fill="#EC008C"/><circle cx="26.06" cy="30" r=".45" fill="#EC008C"/><circle cx="28.75" cy="30" r=".45" fill="#EC008C"/><circle cx="31.38" cy="30" r=".45" fill="#EC008C"/><circle cx="33.94" cy="30" r=".45" fill="#EC008C"/><circle cx="36.63" cy="30" r=".45" fill="#EC008C"/><circle cx="39.19" cy="30" r=".45" fill="#EC008C"/><circle cx="41.81" cy="30" r=".45" fill="#EC008C"/><circle cx="44.44" cy="30" r=".45" fill="#EC008C"/><circle cx="47.06" cy="30" r=".45" fill="#EC008C"/><path fill="#EC008C" d="M49.7 29.55a.45.45 0 1 0-.01.9"/><circle cx="48.44" cy="31.25" r=".45" fill="#EC008C"/><circle cx="45.81" cy="31.25" r=".45" fill="#EC008C"/><circle cx="43.19" cy="31.25" r=".45" fill="#EC008C"/><circle cx="40.56" cy="31.25" r=".45" fill="#EC008C"/><circle cx="37.94" cy="31.25" r=".45" fill="#EC008C"/><circle cx="35.25" cy="31.25" r=".45" fill="#EC008C"/><circle cx="32.69" cy="31.25" r=".45" fill="#EC008C"/><circle cx="30.06" cy="31.25" r=".45" fill="#EC008C"/><circle cx="27.38" cy="31.25" r=".45" fill="#EC008C"/><circle cx="24.81" cy="31.25" r=".45" fill="#EC008C"/><circle cx="22.13" cy="31.25" r=".45" fill="#EC008C"/><circle cx="19.56" cy="31.25" r=".45" fill="#EC008C"/><circle cx="16.94" cy="31.25" r=".45" fill="#EC008C"/><circle cx="14.38" cy="31.25" r=".45" fill="#EC008C"/><circle cx="11.75" cy="31.25" r=".45" fill="#EC008C"/><circle cx="9.13" cy="31.25" r=".45" fill="#EC008C"/><circle cx="6.5" cy="31.25" r=".45" fill="#EC008C"/><circle cx="3.88" cy="31.25" r=".45" fill="#EC008C"/><circle cx="1.19" cy="31.25" r=".45" fill="#EC008C"/><path fill="#EC008C" d="M0 33.08c.25 0 .45-.2.45-.45s-.2-.46-.45-.46"/><circle cx="2.56" cy="32.63" r=".45" fill="#EC008C"/><circle cx="5.19" cy="32.63" r=".45" fill="#EC008C"/><circle cx="7.88" cy="32.63" r=".45" fill="#EC008C"/><circle cx="10.44" cy="32.63" r=".45" fill="#EC008C"/><circle cx="13" cy="32.63" r=".45" fill="#EC008C"/><circle cx="15.63" cy="32.63" r=".45" fill="#EC008C"/><circle cx="18.25" cy="32.63" r=".45" fill="#EC008C"/><circle cx="20.94" cy="32.63" r=".45" fill="#EC008C"/><circle cx="23.56" cy="32.63" r=".45" fill="#EC008C"/><circle cx="26.06" cy="32.63" r=".45" fill="#EC008C"/><circle cx="28.75" cy="32.63" r=".45" fill="#EC008C"/><circle cx="31.38" cy="32.63" r=".45" fill="#EC008C"/><circle cx="33.94" cy="32.63" r=".45" fill="#EC008C"/><circle cx="36.63" cy="32.63" r=".45" fill="#EC008C"/><circle cx="39.19" cy="32.63" r=".45" fill="#EC008C"/><circle cx="41.81" cy="32.63" r=".45" fill="#EC008C"/><circle cx="44.44" cy="32.63" r=".45" fill="#EC008C"/><circle cx="47.06" cy="32.63" r=".45" fill="#EC008C"/><path fill="#EC008C" d="M49.7 32.17c-.26 0-.46.2-.46.46s.2.45.45.45"/><circle cx="48.44" cy="33.88" r=".45" fill="#EC008C"/><circle cx="45.81" cy="33.88" r=".45" fill="#EC008C"/><circle cx="43.19" cy="33.88" r=".45" fill="#EC008C"/><circle cx="40.56" cy="33.88" r=".45" fill="#EC008C"/><circle cx="37.94" cy="33.88" r=".45" fill="#EC008C"/><circle cx="35.25" cy="33.88" r=".45" fill="#EC008C"/><circle cx="32.69" cy="33.88" r=".45" fill="#EC008C"/><circle cx="30.06" cy="33.88" r=".45" fill="#EC008C"/><circle cx="27.38" cy="33.88" r=".45" fill="#EC008C"/><circle cx="24.81" cy="33.88" r=".45" fill="#EC008C"/><circle cx="22.13" cy="33.88" r=".45" fill="#EC008C"/><circle cx="19.56" cy="33.88" r=".45" fill="#EC008C"/><circle cx="16.94" cy="33.88" r=".45" fill="#EC008C"/><circle cx="14.38" cy="33.88" r=".45" fill="#EC008C"/><circle cx="11.75" cy="33.88" r=".45" fill="#EC008C"/><circle cx="9.13" cy="33.88" r=".45" fill="#EC008C"/><circle cx="6.5" cy="33.88" r=".45" fill="#EC008C"/><circle cx="3.88" cy="33.88" r=".45" fill="#EC008C"/><circle cx="1.19" cy="33.88" r=".45" fill="#EC008C"/><path fill="#EC008C" d="M0 35.58c.25 0 .45-.2.45-.45s-.2-.46-.45-.46"/><circle cx="2.56" cy="35.13" r=".45" fill="#EC008C"/><circle cx="5.19" cy="35.13" r=".45" fill="#EC008C"/><circle cx="7.88" cy="35.13" r=".45" fill="#EC008C"/><circle cx="10.44" cy="35.13" r=".45" fill="#EC008C"/><circle cx="13" cy="35.13" r=".45" fill="#EC008C"/><circle cx="15.63" cy="35.13" r=".45" fill="#EC008C"/><circle cx="18.25" cy="35.13" r=".45" fill="#EC008C"/><circle cx="20.94" cy="35.13" r=".45" fill="#EC008C"/><circle cx="23.56" cy="35.13" r=".45" fill="#EC008C"/><circle cx="26.06" cy="35.13" r=".45" fill="#EC008C"/><circle cx="28.75" cy="35.13" r=".45" fill="#EC008C"/><circle cx="31.38" cy="35.13" r=".45" fill="#EC008C"/><circle cx="33.94" cy="35.13" r=".45" fill="#EC008C"/><circle cx="36.63" cy="35.13" r=".45" fill="#EC008C"/><circle cx="39.19" cy="35.13" r=".45" fill="#EC008C"/><circle cx="41.81" cy="35.13" r=".45" fill="#EC008C"/><circle cx="44.44" cy="35.13" r=".45" fill="#EC008C"/><circle cx="47.06" cy="35.13" r=".45" fill="#EC008C"/><path fill="#EC008C" d="M49.7 34.67c-.26 0-.46.2-.46.46s.2.45.45.45"/><circle cx="48.44" cy="36.38" r=".45" fill="#EC008C"/><circle cx="45.81" cy="36.38" r=".45" fill="#EC008C"/><circle cx="43.19" cy="36.38" r=".45" fill="#EC008C"/><circle cx="40.56" cy="36.38" r=".45" fill="#EC008C"/><circle cx="37.94" cy="36.38" r=".45" fill="#EC008C"/><circle cx="35.25" cy="36.38" r=".45" fill="#EC008C"/><circle cx="32.69" cy="36.38" r=".45" fill="#EC008C"/><circle cx="30.06" cy="36.38" r=".45" fill="#EC008C"/><circle cx="27.38" cy="36.38" r=".45" fill="#EC008C"/><circle cx="24.81" cy="36.38" r=".45" fill="#EC008C"/><circle cx="22.13" cy="36.38" r=".45" fill="#EC008C"/><circle cx="19.56" cy="36.38" r=".45" fill="#EC008C"/><circle cx="16.94" cy="36.38" r=".45" fill="#EC008C"/><circle cx="14.38" cy="36.38" r=".45" fill="#EC008C"/><circle cx="11.75" cy="36.38" r=".45" fill="#EC008C"/><circle cx="9.13" cy="36.38" r=".45" fill="#EC008C"/><circle cx="6.5" cy="36.38" r=".45" fill="#EC008C"/><circle cx="3.88" cy="36.38" r=".45" fill="#EC008C"/><circle cx="1.19" cy="36.38" r=".45" fill="#EC008C"/><path fill="#EC008C" d="M0 38.26c.25 0 .45-.2.45-.45s-.2-.44-.45-.44"/><circle cx="2.56" cy="37.81" r=".45" fill="#EC008C"/><circle cx="5.19" cy="37.81" r=".45" fill="#EC008C"/><circle cx="7.88" cy="37.81" r=".45" fill="#EC008C"/><circle cx="10.44" cy="37.81" r=".45" fill="#EC008C"/><circle cx="13" cy="37.81" r=".45" fill="#EC008C"/><circle cx="15.63" cy="37.81" r=".45" fill="#EC008C"/><circle cx="18.25" cy="37.81" r=".45" fill="#EC008C"/><circle cx="20.94" cy="37.81" r=".45" fill="#EC008C"/><circle cx="23.56" cy="37.81" r=".45" fill="#EC008C"/><circle cx="26.06" cy="37.81" r=".45" fill="#EC008C"/><circle cx="28.75" cy="37.81" r=".45" fill="#EC008C"/><circle cx="31.38" cy="37.81" r=".45" fill="#EC008C"/><circle cx="33.94" cy="37.81" r=".45" fill="#EC008C"/><circle cx="36.63" cy="37.81" r=".45" fill="#EC008C"/><circle cx="39.19" cy="37.81" r=".45" fill="#EC008C"/><circle cx="41.81" cy="37.81" r=".45" fill="#EC008C"/><circle cx="44.44" cy="37.81" r=".45" fill="#EC008C"/><circle cx="47.06" cy="37.81" r=".45" fill="#EC008C"/><path fill="#EC008C" d="M49.7 37.36c-.26 0-.46.2-.46.45s.2.46.45.46"/><circle cx="48.44" cy="39.06" r=".45" fill="#EC008C"/><circle cx="45.81" cy="39.06" r=".45" fill="#EC008C"/><circle cx="43.19" cy="39.06" r=".45" fill="#EC008C"/><circle cx="40.56" cy="39.06" r=".45" fill="#EC008C"/><circle cx="37.94" cy="39.06" r=".45" fill="#EC008C"/><circle cx="35.25" cy="39.06" r=".45" fill="#EC008C"/><circle cx="32.69" cy="39.06" r=".45" fill="#EC008C"/><circle cx="30.06" cy="39.06" r=".45" fill="#EC008C"/><circle cx="27.38" cy="39.06" r=".45" fill="#EC008C"/><circle cx="24.81" cy="39.06" r=".45" fill="#EC008C"/><circle cx="22.13" cy="39.06" r=".45" fill="#EC008C"/><circle cx="19.56" cy="39.06" r=".45" fill="#EC008C"/><circle cx="16.94" cy="39.06" r=".45" fill="#EC008C"/><circle cx="14.38" cy="39.06" r=".45" fill="#EC008C"/><circle cx="11.75" cy="39.06" r=".45" fill="#EC008C"/><circle cx="9.13" cy="39.06" r=".45" fill="#EC008C"/><circle cx="6.5" cy="39.06" r=".45" fill="#EC008C"/><circle cx="3.88" cy="39.06" r=".45" fill="#EC008C"/><circle cx="1.19" cy="39.06" r=".45" fill="#EC008C"/><path fill="#EC008C" d="M0 40.83c.25 0 .45-.2.45-.45s-.2-.46-.45-.46"/><circle cx="2.56" cy="40.38" r=".45" fill="#EC008C"/><circle cx="5.19" cy="40.38" r=".45" fill="#EC008C"/><circle cx="7.88" cy="40.38" r=".45" fill="#EC008C"/><circle cx="10.44" cy="40.38" r=".45" fill="#EC008C"/><circle cx="13" cy="40.38" r=".45" fill="#EC008C"/><circle cx="15.63" cy="40.38" r=".45" fill="#EC008C"/><circle cx="18.25" cy="40.38" r=".45" fill="#EC008C"/><circle cx="20.94" cy="40.38" r=".45" fill="#EC008C"/><circle cx="23.56" cy="40.38" r=".45" fill="#EC008C"/><circle cx="26.06" cy="40.38" r=".45" fill="#EC008C"/><circle cx="28.75" cy="40.38" r=".45" fill="#EC008C"/><circle cx="31.38" cy="40.38" r=".45" fill="#EC008C"/><circle cx="33.94" cy="40.38" r=".45" fill="#EC008C"/><circle cx="36.63" cy="40.38" r=".45" fill="#EC008C"/><circle cx="39.19" cy="40.38" r=".45" fill="#EC008C"/><circle cx="41.81" cy="40.38" r=".45" fill="#EC008C"/><circle cx="44.44" cy="40.38" r=".45" fill="#EC008C"/><circle cx="47.06" cy="40.38" r=".45" fill="#EC008C"/><path fill="#EC008C" d="M49.7 39.92c-.26 0-.46.2-.46.46s.2.45.45.45"/><circle cx="48.44" cy="41.63" r=".45" fill="#EC008C"/><circle cx="45.81" cy="41.63" r=".45" fill="#EC008C"/><circle cx="43.19" cy="41.63" r=".45" fill="#EC008C"/><circle cx="40.56" cy="41.63" r=".45" fill="#EC008C"/><circle cx="37.94" cy="41.63" r=".45" fill="#EC008C"/><circle cx="35.25" cy="41.63" r=".45" fill="#EC008C"/><circle cx="32.69" cy="41.63" r=".45" fill="#EC008C"/><circle cx="30.06" cy="41.63" r=".45" fill="#EC008C"/><circle cx="27.38" cy="41.63" r=".45" fill="#EC008C"/><circle cx="24.81" cy="41.63" r=".45" fill="#EC008C"/><circle cx="22.13" cy="41.63" r=".45" fill="#EC008C"/><circle cx="19.56" cy="41.63" r=".45" fill="#EC008C"/><circle cx="16.94" cy="41.63" r=".45" fill="#EC008C"/><circle cx="14.38" cy="41.63" r=".45" fill="#EC008C"/><circle cx="11.75" cy="41.63" r=".45" fill="#EC008C"/><circle cx="9.13" cy="41.63" r=".45" fill="#EC008C"/><circle cx="6.5" cy="41.63" r=".45" fill="#EC008C"/><circle cx="3.88" cy="41.63" r=".45" fill="#EC008C"/><circle cx="1.19" cy="41.63" r=".45" fill="#EC008C"/><path fill="#EC008C" d="M0 43.45c.25 0 .45-.2.45-.45s-.2-.45-.45-.45"/><circle cx="2.56" cy="43" r=".45" fill="#EC008C"/><circle cx="5.19" cy="43" r=".45" fill="#EC008C"/><circle cx="7.88" cy="43" r=".45" fill="#EC008C"/><circle cx="10.44" cy="43" r=".45" fill="#EC008C"/><circle cx="13" cy="43" r=".45" fill="#EC008C"/><circle cx="15.63" cy="43" r=".45" fill="#EC008C"/><circle cx="18.25" cy="43" r=".45" fill="#EC008C"/><circle cx="20.94" cy="43" r=".45" fill="#EC008C"/><circle cx="23.56" cy="43" r=".45" fill="#EC008C"/><circle cx="26.06" cy="43" r=".45" fill="#EC008C"/><circle cx="28.75" cy="43" r=".45" fill="#EC008C"/><circle cx="31.38" cy="43" r=".45" fill="#EC008C"/><circle cx="33.94" cy="43" r=".45" fill="#EC008C"/><circle cx="36.63" cy="43" r=".45" fill="#EC008C"/><circle cx="39.19" cy="43" r=".45" fill="#EC008C"/><circle cx="41.81" cy="43" r=".45" fill="#EC008C"/><circle cx="44.44" cy="43" r=".45" fill="#EC008C"/><circle cx="47.06" cy="43" r=".45" fill="#EC008C"/><path fill="#EC008C" d="M49.7 42.55a.45.45 0 1 0-.01.9"/><circle cx="48.44" cy="44.25" r=".45" fill="#EC008C"/><circle cx="45.81" cy="44.25" r=".45" fill="#EC008C"/><circle cx="43.19" cy="44.25" r=".45" fill="#EC008C"/><circle cx="40.56" cy="44.25" r=".45" fill="#EC008C"/><circle cx="37.94" cy="44.25" r=".45" fill="#EC008C"/><circle cx="35.25" cy="44.25" r=".45" fill="#EC008C"/><circle cx="32.69" cy="44.25" r=".45" fill="#EC008C"/><circle cx="30.06" cy="44.25" r=".45" fill="#EC008C"/><circle cx="27.38" cy="44.25" r=".45" fill="#EC008C"/><circle cx="24.81" cy="44.25" r=".45" fill="#EC008C"/><circle cx="22.13" cy="44.25" r=".45" fill="#EC008C"/><circle cx="19.56" cy="44.25" r=".45" fill="#EC008C"/><circle cx="16.94" cy="44.25" r=".45" fill="#EC008C"/><circle cx="14.38" cy="44.25" r=".45" fill="#EC008C"/><circle cx="11.75" cy="44.25" r=".45" fill="#EC008C"/><circle cx="9.13" cy="44.25" r=".45" fill="#EC008C"/><circle cx="6.5" cy="44.25" r=".45" fill="#EC008C"/><circle cx="3.88" cy="44.25" r=".45" fill="#EC008C"/><circle cx="1.19" cy="44.25" r=".45" fill="#EC008C"/><path fill="#EC008C" d="M0 46.08c.25 0 .45-.2.45-.45s-.2-.46-.45-.46"/><circle cx="2.56" cy="45.63" r=".45" fill="#EC008C"/><circle cx="5.19" cy="45.63" r=".45" fill="#EC008C"/><circle cx="7.88" cy="45.63" r=".45" fill="#EC008C"/><circle cx="10.44" cy="45.63" r=".45" fill="#EC008C"/><circle cx="13" cy="45.63" r=".45" fill="#EC008C"/><circle cx="15.63" cy="45.63" r=".45" fill="#EC008C"/><circle cx="18.25" cy="45.63" r=".45" fill="#EC008C"/><circle cx="20.94" cy="45.63" r=".45" fill="#EC008C"/><circle cx="23.56" cy="45.63" r=".45" fill="#EC008C"/><circle cx="26.06" cy="45.63" r=".45" fill="#EC008C"/><circle cx="28.75" cy="45.63" r=".45" fill="#EC008C"/><circle cx="31.38" cy="45.63" r=".45" fill="#EC008C"/><circle cx="33.94" cy="45.63" r=".45" fill="#EC008C"/><circle cx="36.63" cy="45.63" r=".45" fill="#EC008C"/><circle cx="39.19" cy="45.63" r=".45" fill="#EC008C"/><circle cx="41.81" cy="45.63" r=".45" fill="#EC008C"/><circle cx="44.44" cy="45.63" r=".45" fill="#EC008C"/><circle cx="47.06" cy="45.63" r=".45" fill="#EC008C"/><path fill="#EC008C" d="M49.7 45.17c-.26 0-.46.2-.46.46s.2.45.45.45"/><circle cx="48.44" cy="46.88" r=".45" fill="#EC008C"/><circle cx="45.81" cy="46.88" r=".45" fill="#EC008C"/><circle cx="43.19" cy="46.88" r=".45" fill="#EC008C"/><circle cx="40.56" cy="46.88" r=".45" fill="#EC008C"/><circle cx="37.94" cy="46.88" r=".45" fill="#EC008C"/><circle cx="35.25" cy="46.88" r=".45" fill="#EC008C"/><circle cx="32.69" cy="46.88" r=".45" fill="#EC008C"/><circle cx="30.06" cy="46.88" r=".45" fill="#EC008C"/><circle cx="27.38" cy="46.88" r=".45" fill="#EC008C"/><circle cx="24.81" cy="46.88" r=".45" fill="#EC008C"/><circle cx="22.13" cy="46.88" r=".45" fill="#EC008C"/><circle cx="19.56" cy="46.88" r=".45" fill="#EC008C"/><circle cx="16.94" cy="46.88" r=".45" fill="#EC008C"/><circle cx="14.38" cy="46.88" r=".45" fill="#EC008C"/><circle cx="11.75" cy="46.88" r=".45" fill="#EC008C"/><circle cx="9.13" cy="46.88" r=".45" fill="#EC008C"/><circle cx="6.5" cy="46.88" r=".45" fill="#EC008C"/><circle cx="3.88" cy="46.88" r=".45" fill="#EC008C"/><circle cx="1.19" cy="46.88" r=".45" fill="#EC008C"/><path fill="#EC008C" d="M0 48.7c.25 0 .45-.2.45-.45s-.2-.45-.45-.45"/><circle cx="2.56" cy="48.25" r=".45" fill="#EC008C"/><circle cx="5.19" cy="48.25" r=".45" fill="#EC008C"/><circle cx="7.88" cy="48.25" r=".45" fill="#EC008C"/><circle cx="10.44" cy="48.25" r=".45" fill="#EC008C"/><circle cx="13" cy="48.25" r=".45" fill="#EC008C"/><circle cx="15.63" cy="48.25" r=".45" fill="#EC008C"/><circle cx="18.25" cy="48.25" r=".45" fill="#EC008C"/><circle cx="20.94" cy="48.25" r=".45" fill="#EC008C"/><circle cx="23.56" cy="48.25" r=".45" fill="#EC008C"/><circle cx="26.06" cy="48.25" r=".45" fill="#EC008C"/><circle cx="28.75" cy="48.25" r=".45" fill="#EC008C"/><circle cx="31.38" cy="48.25" r=".45" fill="#EC008C"/><circle cx="33.94" cy="48.25" r=".45" fill="#EC008C"/><circle cx="36.63" cy="48.25" r=".45" fill="#EC008C"/><circle cx="39.19" cy="48.25" r=".45" fill="#EC008C"/><circle cx="41.81" cy="48.25" r=".45" fill="#EC008C"/><circle cx="44.44" cy="48.25" r=".45" fill="#EC008C"/><circle cx="47.06" cy="48.25" r=".45" fill="#EC008C"/><path fill="#EC008C" d="M49.7 47.8a.45.45 0 1 0-.01.9m-1.69.8c0-.25.2-.45.44-.45s.44.2.45.45m-3.53 0c0-.25.2-.45.45-.45s.46.2.46.45m-3.53 0c0-.25.2-.45.45-.45s.43.2.44.45m-3.53 0c.02-.25.22-.45.46-.45s.45.2.45.45m-3.51 0c0-.25.2-.45.44-.45s.44.2.45.45m-3.59 0c0-.25.2-.45.45-.45s.45.2.45.45m-3.46 0c0-.25.2-.45.45-.45s.43.2.44.45m-3.53 0c0-.25.2-.45.46-.45s.45.2.45.45m-3.58 0c0-.25.2-.45.45-.45s.44.2.45.45m-3.47 0c0-.25.2-.45.45-.45s.46.2.46.45m-3.59 0c0-.25.2-.45.45-.45s.44.2.45.45m-3.48 0c0-.25.2-.45.46-.45s.45.2.45.45m-3.51 0c0-.25.2-.45.44-.45s.44.2.45.45m-3.46 0c0-.25.2-.45.45-.45s.44.2.44.45m-3.52 0c0-.25.2-.45.45-.45s.45.2.45.45m-3.52 0c0-.25.2-.45.45-.45s.44.2.44.45m-3.52 0c0-.25.2-.45.45-.45s.45.2.45.45m-3.53 0c0-.25.2-.45.45-.45s.45.2.45.45m-3.58 0c0-.25.2-.45.45-.45s.43.2.44.45"/></svg>