<svg xmlns="http://www.w3.org/2000/svg" xml:space="preserve" width="72" height="72" viewBox="0 -72 72 72"><path d="M0-72h72V0H0z" style="fill:none"/><path d="M21-69.25h0M20-64h0M20.25-61.75h0M18-59.5h0M15.25-61.75h0M22.75-52.25h0M15.25-49.25h0M14-48.25h0M24-45.25h0M30.75-46.5h0M31.25-49h0M29.25-54h0M32.25-54h0M32.5-58.5h0M31.75-60.5h0M29.25-61.5h0M32.25-65.25h0M32-69.25h0M29.25-69h0M34-71h0M41.5-65.25h0M45.5-65.5h0M40.25-62h0M45-60.5h0M45-58.75h0M47-58h0M47-56h0M47.25-49.5h0M39-51.5h0M50.25-58.75h0M52.25-60.25h0M54.75-61.25h0M54.75-65.5h0M56.5-71.5h0M64-65.75h0M65-69.75h0M68-69.25h0M68-62h0M64.25-60h0M65.25-56.5h0M64-52.5h0M66.25-52.5h0M68-51h0M69.25-52h0M69.5-54.25h0M71.25-54.75h0M8-25.25h0M7-20h0M7.25-17.75h0M5-15.5h0M2.25-17.75h0M9.75-8.25h0M2.25-5.25h0M1-4.25h0M11-1.25h0M17.75-2.5h0M18.25-5h0M16.25-10h0M19.25-10h0M19.5-14.5h0M18.75-16.5h0M16.25-17.5h0M19.25-21.25h0M19-25.25h0M16.25-25h0M21-27h0M28.5-21.25h0M32.5-21.5h0M27.25-18h0M32-16.5h0M32-14.75h0M34-14h0M34-12h0M34.25-5.5h0M26-7.5h0M37.25-14.75h0M39.25-16.25h0M41.75-17.25h0M41.75-21.5h0M43.5-27.5h0M51-21.75h0M52-25.75h0M55-25.25h0M55-18h0M51.25-16h0M52.25-12.5h0M51-8.5h0M53.25-8.5h0M55-7h0M56.25-8h0M56.5-10.25h0M58.25-10.75h0M21-45.25h0M22.75-48.25h0M25.25-47.75h0M35.25-49h0M39-47.5h0M45-42.75h0M46.25-43.25h0M55.25-44.25h0M51.25-47h0M52-42.75h0M62.5-36.75h0M58.25-34h0M49-33.25h0M48-31h0M52-29.25h0M53.5-27.25h0M62.25-24.25h0M65-20.5h0M67-20.5h0M69.5-27.25h0M60-33.25h0M47.25-24.5h0M32.5-25.25h0M37-27.75h0M26.25-34.5h0M29.75-36.75h0M17-43.75h0M10.5-42.75h0M6-40.75h0M2.5-37h0M11.25-35.5h0M17-30.25h0M12.75-36.25h0M26.5-42h0M37.75-41.25h0M39.5-39.75h0M28-30.25h0M6.5-51.75h0M10.25-52h0M11.75-48.75h0M3-46.5h0M64.25-42.75h0M67.5-41.5h0M69.5-42.5h0M7.25-56.5h0M1.5-63.25h0M14.5-65.75h0M8.5-67h0M3.5-69.75h0M3.75-66.25h0M12.75-58h0M18.5-53h0M21.25-35.25h0M.75-28h0M66.5-35h0M68-6.25h0M59.75-2.5h0M40.5-4.25h0M44-9.25h0M25.75-2.25h0M4.5-12.25h0M26.5-12.75h0M37.25-23.75h0M22-30.5h0M8.75-32h0M24-43.25h0M41.5-37.75h0M51.5-34.75h0M60.75-26.25h0M67.5-28.5h0M51.25-6h0M40-34.5h0M53.25-57.25h0M34-56.25h0M27.5-58.75h0M12.75-53h0M19.75-45.75h0M49.5-67.75h0M11.75-70.5h0M55.25-68.5h0M59-51.5h0M67.5-15h0M47.25-2.5h0M5.25-2.5h0M4.75-32h0M69.75-59.5h0M23.25-58.25h0M20.5-55h0M14.75-55h0M2.75-59h0M6-60.5h0M7-69.5h0M10-64h0M16-64h0M16.5-69h0M25.75-65.25h0M37-64.75h0M40.5-67.75h0M37.5-68h0M43.25-70h0M49.5-64h0M46-63h0M35.75-61.25h0M39.25-57.25h0M24.75-54.25h0M8.25-45h0M16-40.5h0M10.5-38.75h0M5.25-35.25h0M2.75-40.25h0M7.5-47.25h0M3.25-51.75h0M20.5-41.5h0M17.5-36.75h0M16-33.25h0M12.75-31h0M12.75-25.75h0M4-25.5h0M5.75-23.75h0M11-21.75h0M11-17.75h0M15.5-13.75h0M10-12.5h0M6-8.75h0M2.25-10.25h0M7.25-4.5h0M13.5-2.75h0M13.5-6.5h0M21.5-3.75h0M23-6.5h0M22.25-12.25h0M24.25-14.75h0M22-19h0M26.25-24.5h0M25.75-28.75h0M31.25-34.75h0M32.25-41.25h0M26-38.25h0M34.25-44.5h0M37.25-43.75h0M41.75-46.5h0M43-51.5h0M36.5-53h0M27.75-50h0M52-50.25h0M43.25-54.5h0M50.5-54.25h0M59.5-55h0M58.25-58.25h0M61.5-61.25h0M58.75-64.75h0M60-67.5h0M67.5-66.25h0M69.5-64.25h0M65.75-62.5h0M61.75-55.75h0M60.25-48.5h0M55.5-48.5h0M55.5-53.5h0M65-46.5h0M61.25-45.25h0M57.75-41.5h0M52.75-39.5h0M47.5-38.5h0M44.25-33h0M34-30.75h0M40.75-24.25h0M45.75-20h0M46.5-15.5h0M42-12.75h0M40-9.5h0M36-9.5h0M36.5-19.5h0M30-8.75h0M31.5-3.75h0M37-1.25h0M58.75-15.25h0M63-15.25h0M60-21.5h0M54.5-21.75h0M59.25-28h0M54.75-30.5h0M55.75-36.75h0M62.5-30h0M67-24.75h0M69.5-18h0M63.5-10.5h0M69.25-8.75h0M64.75-6.75h0M65.75-4h0M69.25-1.75h0M62.5-2h0M60.75-6.5h0M52.75-2.5h0M44.75-5.75h0M44.5-1h0M28.5-1h0M.75-42.75h0M24.5-71.25h0M13.25-67.25h0M71-37h0" style="fill:none;stroke:#ed1b2e;stroke-width:.8;stroke-linecap:round"/></svg>