<svg xmlns="http://www.w3.org/2000/svg" xml:space="preserve" width="71.71" height="71.71" viewBox="1 -73.58 71.71 71.71"><path d="M1-73.58h71.71v71.71H1z" style="fill:none"/><path d="M1.98-73.58v71.72M3.92-73.58v71.72M5.85-73.58v71.72M7.79-73.58v71.72M9.73-73.58v71.72M11.67-73.58v71.72M13.6-73.58v71.72M15.54-73.58v71.72M17.48-73.58v71.72M19.42-73.58v71.72M21.35-73.58v71.72M23.29-73.58v71.72M25.23-73.58v71.72M27.17-73.58v71.72M29.1-73.58v71.72M31.04-73.58v71.72M32.98-73.58v71.72M34.92-73.58v71.72M36.85-73.58v71.72M38.79-73.58v71.72M40.73-73.58v71.72M42.67-73.58v71.72M44.6-73.58v71.72M46.54-73.58v71.72M48.48-73.58v71.72M50.42-73.58v71.72M52.35-73.58v71.72M54.29-73.58v71.72M56.23-73.58v71.72M58.17-73.58v71.72M60.1-73.58v71.72M62.04-73.58v71.72M63.98-73.58v71.72M65.92-73.58v71.72M67.85-73.58v71.72M69.79-73.58v71.72M71.73-73.58v71.72" style="fill-rule:evenodd;clip-rule:evenodd;fill:none;stroke:#00aeef;stroke-width:.43"/></svg>