<svg xmlns="http://www.w3.org/2000/svg" xml:space="preserve" width="75.64" height="75.64" viewBox="1.08 -79.74 75.64 75.64"><path d="M1.08-79.74h75.64V-4.1H1.08z" style="fill:none"/><path d="M2.4-79.74V-4.1" style="fill-rule:evenodd;clip-rule:evenodd;fill:none;stroke:#ec008c;stroke-width:.7"/><path d="M4.92-79.74V-4.1" style="fill-rule:evenodd;clip-rule:evenodd;fill:none;stroke:#ec008c;stroke-width:1.55"/><path d="M7.44-79.74V-4.1" style="fill-rule:evenodd;clip-rule:evenodd;fill:none;stroke:#ec008c;stroke-width:.7"/><path d="M9.96-79.74V-4.1" style="fill-rule:evenodd;clip-rule:evenodd;fill:none;stroke:#ec008c;stroke-width:1.55"/><path d="M12.48-79.74V-4.1" style="fill-rule:evenodd;clip-rule:evenodd;fill:none;stroke:#ec008c;stroke-width:.7"/><path d="M15-79.74V-4.1" style="fill-rule:evenodd;clip-rule:evenodd;fill:none;stroke:#ec008c;stroke-width:1.55"/><path d="M17.52-79.74V-4.1" style="fill-rule:evenodd;clip-rule:evenodd;fill:none;stroke:#ec008c;stroke-width:.7"/><path d="M20.03-79.74V-4.1" style="fill-rule:evenodd;clip-rule:evenodd;fill:none;stroke:#ec008c;stroke-width:1.55"/><path d="M22.55-79.74V-4.1" style="fill-rule:evenodd;clip-rule:evenodd;fill:none;stroke:#ec008c;stroke-width:.7"/><path d="M25.07-79.74V-4.1" style="fill-rule:evenodd;clip-rule:evenodd;fill:none;stroke:#ec008c;stroke-width:1.55"/><path d="M27.59-79.74V-4.1" style="fill-rule:evenodd;clip-rule:evenodd;fill:none;stroke:#ec008c;stroke-width:.7"/><path d="M30.11-79.74V-4.1" style="fill-rule:evenodd;clip-rule:evenodd;fill:none;stroke:#ec008c;stroke-width:1.55"/><path d="M32.63-79.74V-4.1" style="fill-rule:evenodd;clip-rule:evenodd;fill:none;stroke:#ec008c;stroke-width:.7"/><path d="M35.15-79.74V-4.1" style="fill-rule:evenodd;clip-rule:evenodd;fill:none;stroke:#ec008c;stroke-width:1.55"/><path d="M37.67-79.74V-4.1" style="fill-rule:evenodd;clip-rule:evenodd;fill:none;stroke:#ec008c;stroke-width:.7"/><path d="M40.19-79.74V-4.1" style="fill-rule:evenodd;clip-rule:evenodd;fill:none;stroke:#ec008c;stroke-width:1.55"/><path d="M42.71-79.74V-4.1" style="fill-rule:evenodd;clip-rule:evenodd;fill:none;stroke:#ec008c;stroke-width:.7"/><path d="M45.23-79.74V-4.1" style="fill-rule:evenodd;clip-rule:evenodd;fill:none;stroke:#ec008c;stroke-width:1.55"/><path d="M47.74-79.74V-4.1" style="fill-rule:evenodd;clip-rule:evenodd;fill:none;stroke:#ec008c;stroke-width:.7"/><path d="M50.26-79.74V-4.1" style="fill-rule:evenodd;clip-rule:evenodd;fill:none;stroke:#ec008c;stroke-width:1.55"/><path d="M52.78-79.74V-4.1" style="fill-rule:evenodd;clip-rule:evenodd;fill:none;stroke:#ec008c;stroke-width:.7"/><path d="M55.3-79.74V-4.1" style="fill-rule:evenodd;clip-rule:evenodd;fill:none;stroke:#ec008c;stroke-width:1.55"/><path d="M57.82-79.74V-4.1" style="fill-rule:evenodd;clip-rule:evenodd;fill:none;stroke:#ec008c;stroke-width:.7"/><path d="M60.34-79.74V-4.1" style="fill-rule:evenodd;clip-rule:evenodd;fill:none;stroke:#ec008c;stroke-width:1.55"/><path d="M62.86-79.74V-4.1" style="fill-rule:evenodd;clip-rule:evenodd;fill:none;stroke:#ec008c;stroke-width:.7"/><path d="M65.38-79.74V-4.1" style="fill-rule:evenodd;clip-rule:evenodd;fill:none;stroke:#ec008c;stroke-width:1.55"/><path d="M67.9-79.74V-4.1" style="fill-rule:evenodd;clip-rule:evenodd;fill:none;stroke:#ec008c;stroke-width:.7"/><path d="M70.42-79.74V-4.1" style="fill-rule:evenodd;clip-rule:evenodd;fill:none;stroke:#ec008c;stroke-width:1.55"/><path d="M72.94-79.74V-4.1" style="fill-rule:evenodd;clip-rule:evenodd;fill:none;stroke:#ec008c;stroke-width:.7"/><path d="M75.46-79.74V-4.1" style="fill-rule:evenodd;clip-rule:evenodd;fill:none;stroke:#ec008c;stroke-width:1.55"/></svg>