<svg xmlns="http://www.w3.org/2000/svg" xml:space="preserve" width="74.28" height="74.28" viewBox="1 -76.48 74.28 74.28"><path d="M1-76.48h74.28V-2.2H1z" style="fill:none"/><path d="M3.04-76.48V-2.2" style="fill-rule:evenodd;clip-rule:evenodd;fill:none;stroke:#000;stroke-width:.33"/><path d="M7.17-76.48V-2.2" style="fill-rule:evenodd;clip-rule:evenodd;fill:none;stroke:#000;stroke-width:.6"/><path d="M11.29-76.48V-2.2" style="fill-rule:evenodd;clip-rule:evenodd;fill:none;stroke:#000;stroke-width:.33"/><path d="M15.42-76.48V-2.2" style="fill-rule:evenodd;clip-rule:evenodd;fill:none;stroke:#000;stroke-width:.6"/><path d="M19.54-76.48V-2.2" style="fill-rule:evenodd;clip-rule:evenodd;fill:none;stroke:#000;stroke-width:.33"/><path d="M23.67-76.48V-2.2" style="fill-rule:evenodd;clip-rule:evenodd;fill:none;stroke:#000;stroke-width:.6"/><path d="M27.79-76.48V-2.2" style="fill-rule:evenodd;clip-rule:evenodd;fill:none;stroke:#000;stroke-width:.33"/><path d="M31.92-76.48V-2.2" style="fill-rule:evenodd;clip-rule:evenodd;fill:none;stroke:#000;stroke-width:.6"/><path d="M36.04-76.48V-2.2" style="fill-rule:evenodd;clip-rule:evenodd;fill:none;stroke:#000;stroke-width:.33"/><path d="M40.17-76.48V-2.2" style="fill-rule:evenodd;clip-rule:evenodd;fill:none;stroke:#000;stroke-width:.6"/><path d="M44.29-76.48V-2.2" style="fill-rule:evenodd;clip-rule:evenodd;fill:none;stroke:#000;stroke-width:.33"/><path d="M48.42-76.48V-2.2" style="fill-rule:evenodd;clip-rule:evenodd;fill:none;stroke:#000;stroke-width:.6"/><path d="M52.54-76.48V-2.2" style="fill-rule:evenodd;clip-rule:evenodd;fill:none;stroke:#000;stroke-width:.33"/><path d="M56.67-76.48V-2.2" style="fill-rule:evenodd;clip-rule:evenodd;fill:none;stroke:#000;stroke-width:.6"/><path d="M60.79-76.48V-2.2" style="fill-rule:evenodd;clip-rule:evenodd;fill:none;stroke:#000;stroke-width:.33"/><path d="M64.92-76.48V-2.2" style="fill-rule:evenodd;clip-rule:evenodd;fill:none;stroke:#000;stroke-width:.6"/><path d="M69.04-76.48V-2.2" style="fill-rule:evenodd;clip-rule:evenodd;fill:none;stroke:#000;stroke-width:.33"/><path d="M73.17-76.48V-2.2" style="fill-rule:evenodd;clip-rule:evenodd;fill:none;stroke:#000;stroke-width:.6"/></svg>