<svg xmlns="http://www.w3.org/2000/svg" xml:space="preserve" width="72.86" height="72.86" viewBox="1.07 -74.72 72.86 72.86"><path d="M1.07-74.72h72.86v72.86H1.07z" style="fill:none"/><path d="M1.07-74.72h72.86v72.86H1.07z"/><path d="M1.86-74.72v72.86M3.44-74.72v72.86M5.03-74.72v72.86M6.61-74.72v72.86M8.19-74.72v72.86M9.78-74.72v72.86M11.36-74.72v72.86M12.94-74.72v72.86M14.53-74.72v72.86M16.11-74.72v72.86M17.69-74.72v72.86M19.27-74.72v72.86M20.86-74.72v72.86M22.44-74.72v72.86M24.02-74.72v72.86M25.61-74.72v72.86M27.19-74.72v72.86M28.77-74.72v72.86M30.36-74.72v72.86M31.94-74.72v72.86M33.52-74.72v72.86M35.11-74.72v72.86M36.69-74.72v72.86M38.27-74.72v72.86M39.85-74.72v72.86M41.44-74.72v72.86M43.02-74.72v72.86M44.6-74.72v72.86M46.19-74.72v72.86M47.77-74.72v72.86M49.35-74.72v72.86M50.94-74.72v72.86M52.52-74.72v72.86M54.1-74.72v72.86M55.69-74.72v72.86M57.27-74.72v72.86M58.85-74.72v72.86M60.44-74.72v72.86M62.02-74.72v72.86M63.6-74.72v72.86M65.19-74.72v72.86M66.77-74.72v72.86" style="fill-rule:evenodd;clip-rule:evenodd;fill:none;stroke:#fff;stroke-width:.43"/><path d="M68.35-74.72v72.86" style="fill:none;stroke:#fff;stroke-width:.43"/><path d="M69.94-74.72v72.86M71.52-74.72v72.86M73.11-74.72v72.86" style="fill-rule:evenodd;clip-rule:evenodd;fill:none;stroke:#fff;stroke-width:.43"/></svg>