<svg xmlns="http://www.w3.org/2000/svg" xml:space="preserve" width="72.86" height="72.86" viewBox="0 -72.86 72.86 72.86"><path d="M0-72.86h72.86V0H0z" style="fill:none"/><path d="M.79-72.86V0M2.38-72.86V0M3.96-72.86V0M5.54-72.86V0M7.13-72.86V0M8.71-72.86V0M10.29-72.86V0M11.88-72.86V0M13.46-72.86V0M15.04-72.86V0M16.63-72.86V0M18.21-72.86V0M19.79-72.86V0M21.38-72.86V0M22.96-72.86V0M24.54-72.86V0M26.13-72.86V0M27.71-72.86V0M29.29-72.86V0M30.87-72.86V0M32.46-72.86V0M34.04-72.86V0M35.62-72.86V0M37.21-72.86V0M38.79-72.86V0M40.37-72.86V0M41.96-72.86V0M43.54-72.86V0M45.12-72.86V0M46.71-72.86V0M48.29-72.86V0M49.87-72.86V0M51.45-72.86V0M53.04-72.86V0M54.62-72.86V0M56.2-72.86V0M57.79-72.86V0M59.37-72.86V0M60.95-72.86V0M62.54-72.86V0M64.12-72.86V0M65.7-72.86V0" style="fill-rule:evenodd;clip-rule:evenodd;fill:none;stroke:#00aeef;stroke-width:.43"/><path d="M67.29-72.86V0" style="fill:none;stroke:#00aeef;stroke-width:.43"/><path d="M68.87-72.86V0M70.45-72.86V0M72.05-72.86V0" style="fill-rule:evenodd;clip-rule:evenodd;fill:none;stroke:#00aeef;stroke-width:.43"/></svg>