<svg xmlns="http://www.w3.org/2000/svg" xml:space="preserve" width="73.08" height="73.08" viewBox="1 -74.74 73.08 73.08"><path d="M1-74.74h73.08v73.08H1z" style="fill:none"/><path d="M2.3-74.74v73.08M4.82-74.74v73.08M7.34-74.74v73.08M9.86-74.74v73.08M12.38-74.74v73.08M14.9-74.74v73.08M17.42-74.74v73.08M19.93-74.74v73.08M22.45-74.74v73.08M24.97-74.74v73.08M27.49-74.74v73.08M30.01-74.74v73.08M32.53-74.74v73.08M35.05-74.74v73.08M37.57-74.74v73.08M40.09-74.74v73.08M42.61-74.74v73.08M45.13-74.74v73.08M47.65-74.74v73.08M50.16-74.74v73.08M52.68-74.74v73.08M55.2-74.74v73.08M57.72-74.74v73.08M60.24-74.74v73.08M62.76-74.74v73.08M65.28-74.74v73.08M67.8-74.74v73.08M70.32-74.74v73.08M72.84-74.74v73.08" style="fill-rule:evenodd;clip-rule:evenodd;fill:none;stroke:#000;stroke-width:.33"/></svg>