<svg xmlns="http://www.w3.org/2000/svg" xml:space="preserve" width="80.65" height="80.65" viewBox="0 -80.65 80.65 80.65"><path d="M0-80.65h80.65V0H0z" style="fill:none"/><path d="M1.84-80.65v2.68M1.84-2.53V0M7.6-80.65v2.68M7.6-2.53V0M13.36-80.65v2.68M13.36-2.53V0M19.12-80.65v2.68M19.12-2.53V0M24.88-80.65v2.68M24.88-2.53V0M30.64-80.65v2.68M30.64-2.53V0M36.4-80.65v2.68M36.4-2.53V0M42.16-80.65v2.68M42.16-2.53V0M47.91-80.65v2.68M47.91-2.53V0M53.67-80.65v2.68M53.67-2.53V0M59.43-80.65v2.68M59.43-2.53V0M65.19-80.65v2.68M65.19-2.53V0M70.95-80.65v2.68M70.95-2.53V0M76.71-80.65v2.68M76.71-2.53V0M1.84-74.53v5.56M1.84-65.53v5.56M1.84-56.53v5.56M1.84-47.53v5.56M1.84-38.53v5.56M1.84-29.53v5.56M1.84-20.53v5.56M1.84-11.53v5.56M7.6-74.53v5.56M7.6-65.53v5.56M7.6-56.53v5.56M7.6-47.53v5.56M7.6-38.53v5.56M7.6-29.53v5.56M7.6-20.53v5.56M7.6-11.53v5.56M13.36-74.53v5.56M13.36-65.53v5.56M13.36-56.53v5.56M13.36-47.53v5.56M13.36-38.53v5.56M13.36-29.53v5.56M13.36-20.53v5.56M13.36-11.53v5.56M19.12-74.53v5.56M19.12-65.53v5.56M19.12-56.53v5.56M19.12-47.53v5.56M19.12-38.53v5.56M19.12-29.53v5.56M19.12-20.53v5.56M19.12-11.53v5.56M24.88-74.53v5.56M24.88-65.53v5.56M24.88-56.53v5.56M24.88-47.53v5.56M24.88-38.53v5.56M24.88-29.53v5.56M24.88-20.53v5.56M24.88-11.53v5.56M30.64-74.53v5.56M30.64-65.53v5.56M30.64-56.53v5.56M30.64-47.53v5.56M30.64-38.53v5.56M30.64-29.53v5.56M30.64-20.53v5.56M30.64-11.53v5.56M36.4-74.53v5.56M36.4-65.53v5.56M36.4-56.53v5.56M36.4-47.53v5.56M36.4-38.53v5.56M36.4-29.53v5.56M36.4-20.53v5.56M36.4-11.53v5.56M42.16-74.53v5.56M42.16-65.53v5.56M42.16-56.53v5.56M42.16-47.53v5.56M42.16-38.53v5.56M42.16-29.53v5.56M42.16-20.53v5.56M42.16-11.53v5.56M47.91-74.53v5.56M47.91-65.53v5.56M47.91-56.53v5.56M47.91-47.53v5.56M47.91-38.53v5.56M47.91-29.53v5.56M47.91-20.53v5.56M47.91-11.53v5.56M53.67-74.53v5.56M53.67-65.53v5.56M53.67-56.53v5.56M53.67-47.53v5.56M53.67-38.53v5.56M53.67-29.53v5.56M53.67-20.53v5.56M53.67-11.53v5.56M59.43-74.53v5.56M59.43-65.53v5.56M59.43-56.53v5.56M59.43-47.53v5.56M59.43-38.53v5.56M59.43-29.53v5.56M59.43-20.53v5.56M59.43-11.53v5.56M65.19-74.53v5.56M65.19-65.53v5.56M65.19-56.53v5.56M65.19-47.53v5.56M65.19-38.53v5.56M65.19-29.53v5.56M65.19-20.53v5.56M65.19-11.53v5.56M70.95-74.53v5.56M70.95-65.53v5.56M70.95-56.53v5.56M70.95-47.53v5.56M70.95-38.53v5.56M70.95-29.53v5.56M70.95-20.53v5.56M70.95-11.53v5.56M76.71-74.53v5.56M76.71-65.53v5.56M76.71-56.53v5.56M76.71-47.53v5.56M76.71-38.53v5.56M76.71-29.53v5.56M76.71-20.53v5.56M76.71-11.53v5.56M4.72-79.39v5.56M4.72-70.39v5.56M4.72-61.39v5.56M4.72-52.39v5.56M4.72-43.39v5.56M4.72-34.39v5.57M4.72-25.39v5.57M4.72-16.39v5.57M4.72-7.39v5.57M10.48-79.39v5.56M10.48-70.39v5.56M10.48-61.39v5.56M10.48-52.39v5.56M10.48-43.39v5.56M10.48-34.39v5.57M10.48-25.39v5.57M10.48-16.39v5.57M10.48-7.39v5.57M16.24-79.39v5.56M16.24-70.39v5.56M16.24-61.39v5.56M16.24-52.39v5.56M16.24-43.39v5.56M16.24-34.39v5.57M16.24-25.39v5.57M16.24-16.39v5.57M16.24-7.39v5.57M22-79.39v5.56M22-70.39v5.56M22-61.39v5.56M22-52.39v5.56M22-43.39v5.56M22-34.39v5.57M22-25.39v5.57M22-16.39v5.57M22-7.39v5.57M27.76-79.39v5.56M27.76-70.39v5.56M27.76-61.39v5.56M27.76-52.39v5.56M27.76-43.39v5.56M27.76-34.39v5.57M27.76-25.39v5.57M27.76-16.39v5.57M27.76-7.39v5.57M33.52-79.39v5.56M33.52-70.39v5.56M33.52-61.39v5.56M33.52-52.39v5.56M33.52-43.39v5.56M33.52-34.39v5.57M33.52-25.39v5.57M33.52-16.39v5.57M33.52-7.39v5.57M39.28-79.39v5.56M39.28-70.39v5.56M39.28-61.39v5.56M39.28-52.39v5.56M39.28-43.39v5.56M39.28-34.39v5.57M39.28-25.39v5.57M39.28-16.39v5.57M39.28-7.39v5.57M45.04-79.39v5.56M45.04-70.39v5.56M45.04-61.39v5.56M45.04-52.39v5.56M45.04-43.39v5.56M45.04-34.39v5.57M45.04-25.39v5.57M45.04-16.39v5.57M45.04-7.39v5.57M50.79-79.39v5.56M50.79-70.39v5.56M50.79-61.39v5.56M50.79-52.39v5.56M50.79-43.39v5.56M50.79-34.39v5.57M50.79-25.39v5.57M50.79-16.39v5.57M50.79-7.39v5.57M56.55-79.39v5.56M56.55-70.39v5.56M56.55-61.39v5.56M56.55-52.39v5.56M56.55-43.39v5.56M56.55-34.39v5.57M56.55-25.39v5.57M56.55-16.39v5.57M56.55-7.39v5.57M62.31-79.39v5.56M62.31-70.39v5.56M62.31-61.39v5.56M62.31-52.39v5.56M62.31-43.39v5.56M62.31-34.39v5.57M62.31-25.39v5.57M62.31-16.39v5.57M62.31-7.39v5.57M68.07-79.39v5.56M68.07-70.39v5.56M68.07-61.39v5.56M68.07-52.39v5.56M68.07-43.39v5.56M68.07-34.39v5.57M68.07-25.39v5.57M68.07-16.39v5.57M68.07-7.39v5.57M73.83-79.39v5.56M73.83-70.39v5.56M73.83-61.39v5.56M73.83-52.39v5.56M73.83-43.39v5.56M73.83-34.39v5.57M73.83-25.39v5.57M73.83-16.39v5.57M73.83-7.39v5.57M79.59-79.39v5.56M79.59-70.39v5.56M79.59-61.39v5.56M79.59-52.39v5.56M79.59-43.39v5.56M79.59-34.39v5.57M79.59-25.39v5.57M79.59-16.39v5.57M79.59-7.39v5.57" style="fill-rule:evenodd;clip-rule:evenodd;fill:none;stroke:#ec008c;stroke-width:.58"/><path d="M0-80.65h80.65V0H0z" style="fill-rule:evenodd;clip-rule:evenodd;fill:none"/><path d="M0-80.65h80.65V0H0z" style="fill-rule:evenodd;clip-rule:evenodd;fill:none"/></svg>