<svg xmlns="http://www.w3.org/2000/svg" xml:space="preserve" width="90.65" height="90.65" viewBox="1 -92.09 90.65 90.65"><path d="M1-92.09h90.65v90.65H1z" style="fill:none"/><path d="m21.36-29.43 1.25-2.55M12.48-27.52l2.82-.27M5.84-28.08l1.98-2.04M19.58-23.48l-.63 2.77M12.2-22.18l-2.75-.73M3.14-24.48l-1.06-2.63M5.95-19.53l-2.57 1.2M14.05-16.44l-2.42 1.48M22.14-14.42l-2.47-1.39M6.19-12.31l-1.37-2.48M44.04-29.43l1.25-2.55M35.16-27.52l2.82-.27M28.52-28.08l1.98-2.04M42.26-23.48l-.63 2.77M34.88-22.18l-2.75-.73M25.82-24.48l-1.07-2.63M28.63-19.53l-2.57 1.2M36.73-16.44l-2.42 1.48M44.82-14.42l-2.47-1.39M28.87-12.31l-1.37-2.48M66.72-29.43l1.25-2.55M57.84-27.52l2.82-.27M51.2-28.08l1.98-2.04M64.94-23.48l-.64 2.77M57.55-22.18l-2.74-.73M48.5-24.48l-1.07-2.63M51.31-19.53l-2.57 1.2M59.41-16.44l-2.42 1.48M67.5-14.42l-2.47-1.39M51.55-12.31l-1.37-2.48M89.4-29.43l1.25-2.55M80.51-27.52l2.83-.27M73.88-28.08l1.98-2.04M87.62-23.48l-.64 2.77M80.23-22.18l-2.74-.73M71.18-24.48l-1.07-2.63M73.99-19.53l-2.57 1.2M82.09-16.44l-2.42 1.48M90.18-14.42l-2.47-1.39M74.23-12.31l-1.37-2.48M21.36-52.11l1.25-2.55M12.48-50.2l2.82-.27M5.84-50.76l1.98-2.04M18.95-43.39l.63-2.77M12.2-44.86l-2.75-.73M3.14-47.16l-1.06-2.63M5.95-42.21l-2.57 1.2M14.05-39.12l-2.42 1.48M22.14-37.09l-2.47-1.4M15.87-31.88l.54-2.85M4.82-37.47l1.37 2.49M44.04-52.11l1.25-2.55M35.16-50.2l2.82-.27M28.52-50.76l1.98-2.04M41.63-43.39l.63-2.77M34.88-44.86l-2.75-.73M25.82-47.16l-1.07-2.63M28.63-42.21l-2.57 1.2M36.73-39.12l-2.42 1.48M44.82-37.09l-2.47-1.4M27.5-37.47l1.37 2.49M66.72-52.11l1.25-2.55M57.84-50.2l2.82-.27M51.2-50.76l1.98-2.04M64.3-43.39l.64-2.77M57.55-44.86l-2.74-.73M48.5-47.16l-1.07-2.63M51.31-42.21l-2.57 1.2M59.41-39.12l-2.42 1.48M67.5-37.09l-2.47-1.4M50.18-37.47l1.37 2.49M89.4-52.11l1.25-2.55M80.51-50.2l2.83-.27M73.88-50.76l1.98-2.04M86.98-43.39l.64-2.77M80.23-44.86l-2.74-.73M71.18-47.16l-1.07-2.63M73.99-42.21l-2.57 1.2M82.09-39.12l-2.42 1.48M90.18-37.09l-2.47-1.4M72.86-37.47l1.37 2.49M21.36-74.79l1.25-2.55M12.48-72.88l2.82-.27M5.84-73.44l1.98-2.04M18.95-66.07l.63-2.77M12.2-67.53l-2.75-.74M3.14-69.84l-1.06-2.63M5.95-64.89l-2.57 1.2M14.05-61.8l-2.42 1.48M22.14-59.77l-2.47-1.4M4.82-60.15l1.37 2.49M44.04-74.79l1.25-2.55M35.16-72.88l2.82-.27M28.52-73.44l1.98-2.04M41.63-66.07l.63-2.77M34.88-67.53l-2.75-.74M25.82-69.84l-1.07-2.63M28.63-64.89l-2.57 1.2M36.73-61.8l-2.42 1.48M44.82-59.77l-2.47-1.4M27.5-60.15l1.37 2.49M66.72-74.79l1.25-2.55M57.84-72.88l2.82-.27M51.2-73.44l1.98-2.04M64.3-66.07l.64-2.77M57.55-67.53l-2.74-.74M48.5-69.84l-1.07-2.63M51.31-64.89l-2.57 1.2M59.41-61.8l-2.42 1.48M67.5-59.77l-2.47-1.4M50.18-60.15l1.37 2.49M89.4-74.79l1.25-2.55M80.51-72.88l2.83-.27M73.88-73.44l1.98-2.04M86.98-66.07l.64-2.77M80.23-67.53l-2.74-.74M71.18-69.84l-1.07-2.63M73.99-64.89l-2.57 1.2M82.09-61.8l-2.42 1.48M90.18-59.77l-2.47-1.4M72.86-60.15l1.37 2.49M18.95-88.75l.63-2.77M9.45-90.94l2.75.73M5.95-87.57l-2.57 1.2M14.05-84.48 11.63-83M22.14-82.45l-2.47-1.39M4.82-82.83l1.37 2.49M41.63-88.75l.63-2.77M32.13-90.94l2.75.73M28.63-87.57l-2.57 1.2M36.73-84.48 34.31-83M44.82-82.45l-2.47-1.39M27.5-82.83l1.37 2.49M64.3-88.75l.64-2.77M54.81-90.94l2.74.73M51.31-87.57l-2.57 1.2M59.41-84.48 56.99-83M67.5-82.45l-2.47-1.39M50.18-82.83l1.37 2.49M86.98-88.75l.64-2.77M77.49-90.94l2.74.73M73.99-87.57l-2.57 1.2M82.09-84.48 79.67-83M90.18-82.45l-2.47-1.39M72.86-82.83l1.37 2.49M38.54-31.88l.55-2.85M61.22-31.88l.55-2.85M83.9-31.88l.54-2.85M83.9-54.56l.54-2.85M61.22-54.56l.55-2.85M38.54-54.56l.55-2.85M15.87-54.56l.54-2.85M15.87-77.24l.54-2.85M38.54-77.24l.55-2.85M61.22-77.24l.55-2.85M83.9-77.24l.54-2.85M16.41-12.12l-.23 1.18M39.09-12.12l-.23 1.18M61.77-12.12l-.23 1.18M84.44-12.12l-.22 1.18M21.36-6.81l1.25-2.55M12.48-4.9l2.82-.27M5.84-5.46 7.82-7.5M2.08-4.49l1.06 2.63M44.04-6.81l1.25-2.55M35.16-4.9l2.82-.27M28.52-5.46 30.5-7.5M24.75-4.49l1.07 2.63M66.72-6.81l1.25-2.55M57.84-4.9l2.82-.27M51.2-5.46l1.98-2.04M47.43-4.49l1.07 2.63M89.4-6.81l1.25-2.55M80.51-4.9l2.83-.27M73.88-5.46l1.98-2.04M70.11-4.49l1.07 2.63M16.18-10.92l-.31 1.66M38.86-10.92l-.32 1.66M61.54-10.92l-.32 1.66M84.22-10.92l-.32 1.66" style="fill-rule:evenodd;clip-rule:evenodd;fill:none;stroke:#000;stroke-width:.43"/></svg>