<svg xmlns="http://www.w3.org/2000/svg" xml:space="preserve" width="90.65" height="90.65" viewBox="1.08 -92.39 90.65 90.65"><path d="M1.08-92.39h90.65v90.65H1.08z" style="fill:none"/><path d="M1.08-92.39h90.65v90.65H1.08z"/><path d="m21.45-29.73 1.25-2.55M12.56-27.82l2.83-.27M5.92-28.38l1.98-2.04M19.66-23.78l-.63 2.76M12.28-22.48l-2.74-.73M3.22-24.78l-1.06-2.63M6.04-19.83l-2.58 1.2M14.14-16.74l-2.43 1.47M22.23-14.72l-2.47-1.39M6.27-12.61l-1.36-2.48M44.13-29.73l1.25-2.55M35.24-27.82l2.82-.27M28.6-28.38l1.98-2.04M42.34-23.78l-.63 2.76M34.96-22.48l-2.74-.73M25.9-24.78l-1.06-2.63M28.71-19.83l-2.57 1.2M36.81-16.74l-2.42 1.47M44.91-14.72l-2.47-1.39M28.95-12.61l-1.37-2.48M66.81-29.73l1.25-2.55M57.92-27.82l2.82-.27M51.28-28.38l1.98-2.04M65.02-23.78l-.63 2.76M57.64-22.48l-2.74-.73M48.58-24.78l-1.06-2.63M51.39-19.83l-2.57 1.2M59.49-16.74l-2.42 1.47M67.59-14.72l-2.48-1.39M51.63-12.61l-1.37-2.48M89.48-29.73l1.25-2.55M80.6-27.82l2.82-.27M73.96-28.38l1.98-2.04M87.7-23.78l-.63 2.76M80.32-22.48l-2.74-.73M71.26-24.78l-1.06-2.63M74.07-19.83l-2.57 1.2M82.17-16.74l-2.42 1.47M90.27-14.72l-2.48-1.39M74.31-12.61l-1.37-2.48M21.45-52.41l1.25-2.55M12.56-50.5l2.83-.27M5.92-51.06 7.9-53.1M19.03-43.69l.63-2.77M12.28-45.16l-2.74-.73M3.22-47.46l-1.06-2.63M6.04-42.51l-2.58 1.2M14.14-39.42l-2.43 1.48M22.23-37.4l-2.47-1.39M15.95-32.18l.54-2.85M4.91-37.77l1.36 2.49M44.13-52.41l1.25-2.55M35.24-50.5l2.82-.27M28.6-51.06l1.98-2.04M41.71-43.69l.63-2.77M34.96-45.16l-2.74-.73M25.9-47.46l-1.06-2.63M28.71-42.51l-2.57 1.2M36.81-39.42l-2.42 1.48M44.91-37.4l-2.47-1.39M27.58-37.77l1.37 2.49M66.81-52.41l1.25-2.55M57.92-50.5l2.82-.27M51.28-51.06l1.98-2.04M64.39-43.69l.63-2.77M57.64-45.16l-2.74-.73M48.58-47.46l-1.06-2.63M51.39-42.51l-2.57 1.2M59.49-39.42l-2.42 1.48M67.59-37.4l-2.48-1.39M50.26-37.77l1.37 2.49M89.48-52.41l1.25-2.55M80.6-50.5l2.82-.27M73.96-51.06l1.98-2.04M87.07-43.69l.63-2.77M80.32-45.16l-2.74-.73M71.26-47.46l-1.06-2.63M74.07-42.51l-2.57 1.2M82.17-39.42l-2.42 1.48M90.27-37.4l-2.48-1.39M72.94-37.77l1.37 2.49M21.45-75.09l1.25-2.55M12.56-73.18l2.83-.27M5.92-73.74l1.98-2.04M19.03-66.37l.63-2.77M12.28-67.83l-2.74-.74M3.22-70.14l-1.06-2.63M6.04-65.19l-2.58 1.2M14.14-62.1l-2.43 1.48M22.23-60.07l-2.47-1.4M4.91-60.45l1.36 2.49M44.13-75.09l1.25-2.55M35.24-73.18l2.82-.27M28.6-73.74l1.98-2.04M41.71-66.37l.63-2.77M34.96-67.83l-2.74-.74M25.9-70.14l-1.06-2.63M28.71-65.19l-2.57 1.2M36.81-62.1l-2.42 1.48M44.91-60.07l-2.47-1.4M27.58-60.45l1.37 2.49M66.81-75.09l1.25-2.55M57.92-73.18l2.82-.27M51.28-73.74l1.98-2.04M64.39-66.37l.63-2.77M57.64-67.83l-2.74-.74M48.58-70.14l-1.06-2.63M51.39-65.19l-2.57 1.2M59.49-62.1l-2.42 1.48M67.59-60.07l-2.48-1.4M50.26-60.45l1.37 2.49M89.48-75.09l1.25-2.55M80.6-73.18l2.82-.27M73.96-73.74l1.98-2.04M87.07-66.37l.63-2.77M80.32-67.83l-2.74-.74M71.26-70.14l-1.06-2.63M74.07-65.19l-2.57 1.2M82.17-62.1l-2.42 1.48M90.27-60.07l-2.48-1.4M72.94-60.45l1.37 2.49M19.03-89.05l.63-2.77M9.54-91.25l2.74.74M6.04-87.87l-2.58 1.2M14.14-84.78l-2.43 1.48M22.23-82.75l-2.47-1.39M4.91-83.13l1.36 2.49M41.71-89.05l.63-2.77M32.22-91.25l2.74.74M28.71-87.87l-2.57 1.2M36.81-84.78l-2.42 1.48M44.91-82.75l-2.47-1.39M27.58-83.13l1.37 2.49M64.39-89.05l.63-2.77M54.9-91.25l2.74.74M51.39-87.87l-2.57 1.2M59.49-84.78l-2.42 1.48M67.59-82.75l-2.48-1.39M50.26-83.13l1.37 2.49M87.07-89.05l.63-2.77M77.58-91.25l2.74.74M74.07-87.87l-2.57 1.2M82.17-84.78l-2.42 1.48M90.27-82.75l-2.48-1.39M72.94-83.13l1.37 2.49M38.63-32.18l.54-2.85M61.31-32.18l.54-2.85M83.99-32.18l.54-2.85M83.99-54.86l.54-2.85M61.31-54.86l.54-2.85M38.63-54.86l.54-2.85M15.95-54.86l.54-2.85M15.95-77.54l.54-2.85M38.63-77.54l.54-2.85M61.31-77.54l.54-2.85M83.99-77.54l.54-2.85M16.49-12.42l-.22 1.19M39.17-12.42l-.22 1.19M61.85-12.42l-.23 1.19M84.53-12.42l-.23 1.19M21.45-7.11l1.25-2.55M12.56-5.2l2.83-.27M5.92-5.76 7.9-7.79M2.16-4.79l1.06 2.63M44.13-7.11l1.25-2.55M35.24-5.2l2.82-.27M28.6-5.76l1.98-2.03M24.84-4.79l1.06 2.63M66.81-7.11l1.25-2.55M57.92-5.2l2.82-.27M51.28-5.76l1.98-2.03M47.52-4.79l1.06 2.63M89.48-7.11l1.25-2.55M80.6-5.2l2.82-.27M73.96-5.76l1.98-2.03M70.2-4.79l1.06 2.63M16.27-11.22l-.32 1.66M38.95-11.22l-.32 1.66M61.62-11.22l-.31 1.66M84.3-11.22l-.31 1.66" style="fill-rule:evenodd;clip-rule:evenodd;fill:none;stroke:#fff;stroke-width:.58"/></svg>