<svg xmlns="http://www.w3.org/2000/svg" xml:space="preserve" width="70.06" height="70.06" viewBox="1 -71.06 70.06 70.06"><path d="M1-71.06h70.06V-1H1z" style="fill:none"/><path d="m2.36-54.32 2.84-1.86M7.52-55.77l-1.99-2.17M8.72-60.52l-2.59 1.29M8.72-63.95l-1.89 2.4M5.6-60.12l-2.06-1.79M2.72-59.27l-1.38-2.75M10.8-56.47l-3.16-1.29M3.47-56.91l.61-2.93M2.36-63.1l2.89-1.78M19.69-56.47l-3.15-1.29M19.69-65.24l-3.15-1.29M7.52-64.54l-1.99-2.17M8.72-69.29 6.13-68M5.6-68.89l-2.06-1.8M2.77-67.86 1.39-70.6M10.8-65.24l-3.16-1.29M3.47-65.68l.61-2.93M10.97-54.32l2.84-1.86M16.13-55.77l-1.99-2.17M17.33-60.52l-2.6 1.29M17.33-63.95l-1.9 2.4M14.21-60.12l-2.06-1.79M11.05-59.32l-1.39-2.75M12.08-56.91l.61-2.93M10.97-63.1l2.83-1.87M16.13-64.54l-1.99-2.17M17.33-69.29 14.73-68M14.21-68.89l-2.06-1.8M9.57-70.6l1.38 2.74M12.08-65.68l.61-2.93M19.88-54.32l2.83-1.86M25.04-55.77l-1.99-2.17M26.24-60.52l-2.6 1.29M26.24-63.95l-1.9 2.4M23.12-60.12l-2.07-1.79M19.95-59.32l-1.38-2.75M28.32-56.47l-3.16-1.29M20.98-56.91l.61-2.93M19.88-63.1l2.89-1.78M37.21-56.47l-3.16-1.29M37.21-65.24l-3.16-1.29M25.04-64.54l-1.99-2.17M26.24-69.29 23.64-68M23.12-68.89l-2.07-1.8M19.86-67.86l-1.38-2.74M28.32-65.24l-3.16-1.29M20.98-65.68l.61-2.93M28.48-54.32l2.84-1.86M33.65-55.77l-1.99-2.17M34.85-60.52l-2.6 1.29M34.85-63.95l-1.9 2.4M31.73-60.12l-2.07-1.79M28.56-59.32l-1.38-2.75M29.59-56.91l.61-2.93M28.48-63.1l2.83-1.87M33.65-64.54l-1.99-2.17M34.85-69.29 32.25-68M31.73-68.89l-2.07-1.8M27.13-70.65l1.38 2.75M29.59-65.68l.61-2.93M37.39-54.32l2.84-1.86M42.55-55.77l-1.99-2.17M43.75-60.52l-2.59 1.29M43.75-63.95l-1.9 2.4M40.63-60.12l-2.06-1.79M37.47-59.32l-1.38-2.75M45.83-56.47l-3.16-1.29M38.5-56.91l.61-2.93M37.39-63.1l2.89-1.78M54.72-56.47l-3.15-1.29M54.72-65.24l-3.15-1.29M42.55-64.54l-1.99-2.17M43.75-69.29 41.16-68M40.63-68.89l-2.06-1.8M37.47-67.95l-1.38-2.75M45.83-65.24l-3.16-1.29M38.5-65.68l.61-2.93M46-54.32l2.84-1.86M51.16-55.77l-1.99-2.17M52.36-60.52l-2.59 1.29M52.36-63.95l-1.9 2.4M49.24-60.12l-2.06-1.79M46.08-59.32l-1.39-2.75M47.11-56.91l.61-2.93M46-63.1l2.83-1.87M51.16-64.54l-1.99-2.17M52.36-69.29 49.77-68M49.29-68.89l-2.06-1.8M44.69-70.7l1.39 2.75M47.11-65.68l.61-2.93M54.91-54.32l2.83-1.86M60.07-55.77l-1.99-2.17M61.27-60.52l-2.6 1.29M61.27-63.95l-1.9 2.4M58.15-60.12l-2.07-1.79M54.98-59.32l-1.38-2.75M63.35-56.47l-3.16-1.29M56.01-56.91l.61-2.93M54.91-63.1l2.89-1.78M60.07-64.54l-1.99-2.17M61.27-69.29 58.67-68M58.15-68.89l-2.07-1.8M54.98-67.86 53.6-70.6M63.35-65.24l-3.16-1.29M56.01-65.68l.61-2.93M63.52-54.32l2.83-1.86M68.68-55.77l-1.99-2.17M70.08-60.62l-2.59 1.29M70.08-64.06l-1.89 2.4M66.76-60.12l-2.07-1.79M63.59-59.32l-1.38-2.75M64.62-56.91l.61-2.93M63.52-63.1l2.82-1.87M68.68-64.54l-1.99-2.17M70.06-69.38l-2.59 1.29M66.76-68.89l-2.07-1.8M62.21-70.65l1.38 2.75M64.62-65.68l.61-2.93M2.36-36.81l2.84-1.86M7.52-38.25l-1.99-2.17M8.72-43l-2.59 1.29M8.72-46.44l-1.89 2.4M5.6-42.6l-2.06-1.8M2.77-41.56l-1.38-2.75M10.8-38.95l-3.16-1.29M3.47-39.39l.61-2.93M2.36-45.58l2.89-1.78M19.69-38.95l-3.15-1.29M19.69-47.73l-3.15-1.29M7.52-47.03 5.53-49.2M8.72-51.78l-2.59 1.29M8.72-55.21l-1.89 2.4M5.6-51.38l-2.06-1.79M2.87-50.34l-1.38-2.75M10.8-47.73l-3.16-1.29M3.47-48.16l.61-2.93M10.97-36.81l2.84-1.86M16.13-38.25l-1.99-2.17M17.33-43l-2.6 1.29M17.33-46.44l-1.9 2.4M14.21-42.6l-2.06-1.8M11.05-41.8l-1.39-2.75M12.08-39.39l.61-2.93M10.97-45.58l2.83-1.88M16.13-47.03l-1.99-2.17M17.33-51.78l-2.6 1.29M17.33-55.21l-1.9 2.4M14.21-51.38l-2.06-1.79M9.66-53.33l1.39 2.75M12.08-48.16l.61-2.93M19.88-36.81l2.83-1.86M25.04-38.25l-1.99-2.17M26.24-43l-2.6 1.29M26.24-46.44l-1.9 2.4M23.12-42.6l-2.07-1.8M19.95-41.8l-1.38-2.75M28.32-38.95l-3.16-1.29M20.98-39.39l.61-2.93M19.88-45.58l2.89-1.78M37.21-38.95l-3.16-1.29M37.21-47.73l-3.16-1.29M25.04-47.03l-1.99-2.17M26.24-51.78l-2.6 1.29M26.24-55.21l-1.9 2.4M23.12-51.38l-2.07-1.79M19.95-50.58l-1.38-2.75M28.32-47.73l-3.16-1.29M20.98-48.16l.61-2.93M28.48-36.81l2.84-1.86M33.65-38.25l-1.99-2.17M34.85-43l-2.6 1.29M34.85-46.44l-1.9 2.4M31.73-42.6l-2.07-1.8M28.56-41.8l-1.38-2.75M29.59-39.39l.61-2.93M28.48-45.58l2.83-1.88M33.65-47.03l-1.99-2.17M34.85-51.78l-2.6 1.29M34.85-55.21l-1.9 2.4M31.73-51.38l-2.07-1.79M27.18-53.33l1.38 2.75M29.59-48.16l.61-2.93M37.39-36.81l2.84-1.86M42.55-38.25l-1.99-2.17M43.75-43l-2.59 1.29M43.75-46.44l-1.9 2.4M40.63-42.6l-2.06-1.8M37.47-41.8l-1.38-2.75M45.83-38.95l-3.16-1.29M38.5-39.39l.61-2.93M37.39-45.58l2.89-1.78M54.72-38.95l-3.15-1.29M54.72-47.73l-3.15-1.29M42.55-47.03l-1.99-2.17M43.75-51.78l-2.59 1.29M43.75-55.21l-1.9 2.4M40.63-51.38l-2.06-1.79M37.47-50.58l-1.38-2.75M45.83-47.73l-3.16-1.29M38.5-48.16l.61-2.93M46-36.81l2.84-1.86M51.16-38.25l-1.99-2.17M52.36-43l-2.59 1.29M52.36-46.44l-1.9 2.4M49.24-42.6l-2.06-1.8M46.08-41.8l-1.39-2.75M47.11-39.39l.61-2.93M46-45.58l2.83-1.88M51.16-47.03l-1.99-2.17M52.36-51.78l-2.59 1.29M52.36-55.21l-1.9 2.4M49.24-51.38l-2.06-1.79M44.69-53.33l1.39 2.75M47.11-48.16l.61-2.93M54.91-36.81l2.83-1.86M60.07-38.25l-1.99-2.17M61.27-43l-2.6 1.29M61.27-46.44l-1.9 2.4M58.15-42.6l-2.07-1.8M54.98-41.8l-1.38-2.75M63.35-38.95l-3.16-1.29M56.01-39.39l.61-2.93M54.91-45.58l2.89-1.78M60.07-47.03l-1.99-2.17M61.27-51.78l-2.6 1.29M61.27-55.21l-1.9 2.4M58.15-51.38l-2.07-1.79M54.98-50.58l-1.38-2.75M63.35-47.73l-3.16-1.29M56.01-48.16l.61-2.93M63.52-36.81l2.83-1.86M68.68-38.25l-1.99-2.17M70.08-43.11l-2.59 1.29M70.08-46.54l-1.89 2.4M66.76-42.6l-2.07-1.8M63.59-41.8l-1.38-2.75M64.62-39.39l.61-2.93M63.52-45.58l2.82-1.88M68.68-47.03l-1.99-2.17M70.08-51.88l-2.59 1.29M70.08-55.31l-1.89 2.4M66.76-51.38l-2.07-1.79M62.21-53.33l1.38 2.75M64.62-48.16l.61-2.93M2.36-19.29l2.84-1.86M7.52-20.74l-1.99-2.17M8.72-25.49 6.13-24.2M8.72-28.92l-1.89 2.4M5.6-25.09l-2.06-1.79M2.77-24.19l-1.38-2.75M10.8-21.43l-3.16-1.3M3.47-21.88l.61-2.93M2.36-28.07l2.89-1.78M19.69-21.43l-3.15-1.3M19.69-30.21l-3.15-1.29M7.52-29.51l-1.99-2.17M8.72-34.26l-2.59 1.29M8.72-37.69 6.83-35.3M5.6-33.86l-2.06-1.8M2.77-33.02l-1.38-2.75M10.8-30.21 7.64-31.5M3.47-30.65l.61-2.93M10.97-19.29l2.84-1.86M16.13-20.74l-1.99-2.17M17.33-25.49l-2.6 1.29M17.33-28.92l-1.9 2.4M14.21-25.09l-2.06-1.79M11.05-24.29l-1.39-2.75M12.08-21.88l.61-2.93M10.97-28.07l2.83-1.87M16.13-29.51l-1.99-2.17M17.33-34.26l-2.6 1.29M17.33-37.69l-1.9 2.39M14.21-33.86l-2.06-1.8M9.66-35.81l1.39 2.75M12.08-30.65l.61-2.93M19.88-19.29l2.83-1.86M25.04-20.74l-1.99-2.17M26.24-25.49l-2.6 1.29M26.24-28.92l-1.9 2.4M23.12-25.09l-2.07-1.79M19.95-24.29l-1.38-2.75M28.32-21.43l-3.16-1.3M20.98-21.88l.61-2.93M19.88-28.07l2.89-1.78M37.21-21.43l-3.16-1.3M37.21-30.21l-3.16-1.29M25.04-29.51l-1.99-2.17M26.24-34.26l-2.6 1.29M26.24-37.69l-1.9 2.39M23.12-33.86l-2.07-1.8M19.95-33.06l-1.38-2.75M28.32-30.21l-3.16-1.29M20.98-30.65l.61-2.93M28.48-19.29l2.84-1.86M33.65-20.74l-1.99-2.17M34.85-25.49l-2.6 1.29M34.85-28.92l-1.9 2.4M31.73-25.09l-2.07-1.79M28.56-24.29l-1.38-2.75M29.59-21.88l.61-2.93M28.48-28.07l2.83-1.87M33.65-29.51l-1.99-2.17M34.85-34.26l-2.6 1.29M34.85-37.69l-1.9 2.39M31.73-33.86l-2.07-1.8M27.18-35.81l1.38 2.75M29.59-30.65l.61-2.93M37.39-19.29l2.84-1.86M42.55-20.74l-1.99-2.17M43.75-25.49l-2.59 1.29M43.75-28.92l-1.9 2.4M40.63-25.09l-2.06-1.79M37.47-24.29l-1.38-2.75M45.83-21.43l-3.16-1.3M38.5-21.88l.61-2.93M37.39-28.07l2.89-1.78M54.72-21.43l-3.15-1.3M54.72-30.21l-3.15-1.29M42.55-29.51l-1.99-2.17M43.75-34.26l-2.59 1.29M43.75-37.69l-1.9 2.39M40.63-33.86l-2.06-1.8M37.47-33.06l-1.38-2.75M45.83-30.21l-3.16-1.29M38.5-30.65l.61-2.93M46-19.29l2.84-1.86M51.16-20.74l-1.99-2.17M52.36-25.49l-2.59 1.29M52.36-28.92l-1.9 2.4M49.24-25.09l-2.06-1.79M46.08-24.29l-1.39-2.75M47.11-21.88l.61-2.93M46-28.07l2.83-1.87M51.16-29.51l-1.99-2.17M52.36-34.26l-2.59 1.29M52.36-37.69l-1.9 2.39M49.24-33.86l-2.06-1.8M44.69-35.81l1.39 2.75M47.11-30.65l.61-2.93M54.91-19.29l2.83-1.86M60.07-20.74l-1.99-2.17M61.27-25.49l-2.6 1.29M61.27-28.92l-1.9 2.4M58.15-25.09l-2.07-1.79M54.98-24.29l-1.38-2.75M63.35-21.43l-3.16-1.3M56.01-21.88l.61-2.93M54.91-28.07l2.89-1.78M60.07-29.51l-1.99-2.17M61.27-34.26l-2.6 1.29M61.27-37.69l-1.9 2.39M58.15-33.86l-2.07-1.8M54.98-33.06l-1.38-2.75M63.35-30.21l-3.16-1.29M56.01-30.65l.61-2.93M63.52-19.29l2.83-1.86M68.68-20.74l-1.99-2.17M70.08-25.59l-2.59 1.29M70.08-29.02l-1.89 2.39M66.76-25.09l-2.07-1.79M63.59-24.29l-1.38-2.75M64.62-21.88l.61-2.93M63.52-28.07l2.82-1.87M68.68-29.51l-1.99-2.17M70.08-34.37l-2.59 1.29M70.08-37.8l-1.89 2.4M66.76-33.86l-2.07-1.8M62.21-35.81l1.38 2.75M64.62-30.65l.61-2.93M2.36-1.78 5.2-3.64M7.52-3.22 5.53-5.39M8.72-7.97 6.13-6.68M8.72-11.4 6.83-9.01M5.6-7.57l-2.06-1.8M2.77-6.54 1.39-9.28M10.8-3.92 7.64-5.21M3.47-4.36l.61-2.93M2.36-10.55l2.89-1.78M19.69-3.92l-3.15-1.29M19.69-12.69l-3.15-1.29M7.52-12l-1.99-2.17M8.72-16.75l-2.59 1.29M8.72-20.18l-1.89 2.4M5.6-16.35l-2.06-1.79M2.82-15.26l-1.38-2.75M10.8-12.69l-3.16-1.29M3.47-13.13l.61-2.94M10.97-1.78l2.84-1.86M16.13-3.22l-1.99-2.17M17.33-7.97l-2.6 1.29M17.33-11.4l-1.9 2.39M14.33-7.88l-2.07-1.79M11.05-6.77 9.66-9.52M12.08-4.36l.61-2.93M10.97-10.55l2.83-1.88M16.13-12l-1.99-2.17M17.33-16.75l-2.6 1.29M17.33-20.18l-1.9 2.4M14.21-16.35l-2.06-1.79M9.66-18.3l1.39 2.75M12.08-13.13l.61-2.94M19.88-1.78l2.83-1.86M25.04-3.22l-1.99-2.17M26.24-7.97l-2.6 1.29M26.24-11.4l-1.9 2.39M23.12-7.57l-2.07-1.8M19.95-6.77l-1.38-2.75M28.32-3.92l-3.16-1.29M20.98-4.36l.61-2.93M19.88-10.55l2.89-1.78M37.21-3.92l-3.16-1.29M37.21-12.69l-3.16-1.29M25.04-12l-1.99-2.17M26.24-16.75l-2.6 1.29M26.24-20.18l-1.9 2.4M23.12-16.35l-2.07-1.79M19.95-15.55l-1.38-2.75M28.32-12.69l-3.16-1.29M20.98-13.13l.61-2.94M28.48-1.78l2.84-1.86M33.65-3.22l-1.99-2.17M34.85-7.97l-2.6 1.29M34.85-11.4l-1.9 2.39M31.73-7.57l-2.07-1.8M28.56-6.77l-1.38-2.75M29.59-4.36l.61-2.93M28.48-10.55l2.83-1.88M33.65-12l-1.99-2.17M34.85-16.75l-2.6 1.29M34.85-20.18l-1.9 2.4M31.73-16.35l-2.07-1.79M27.18-18.3l1.38 2.75M29.59-13.13l.61-2.94M37.39-1.78l2.84-1.86M42.55-3.22l-1.99-2.17M43.75-7.97l-2.59 1.29M43.75-11.4l-1.9 2.39M40.63-7.57l-2.06-1.8M37.47-6.77l-1.38-2.75M45.83-3.92l-3.16-1.29M38.5-4.36l.61-2.93M37.39-10.55l2.89-1.78M54.72-3.92l-3.15-1.29M54.72-12.69l-3.15-1.29M42.55-12l-1.99-2.17M43.75-16.75l-2.59 1.29M43.75-20.18l-1.9 2.4M40.63-16.35l-2.06-1.79M37.47-15.55l-1.38-2.75M45.83-12.69l-3.16-1.29M38.5-13.13l.61-2.94M46-1.78l2.84-1.86M51.16-3.22l-1.99-2.17M52.36-7.97l-2.59 1.29M52.36-11.4l-1.9 2.39M49.24-7.57l-2.06-1.8M46.08-6.77l-1.39-2.75M47.11-4.36l.61-2.93M46-10.55l2.83-1.88M51.16-12l-1.99-2.17M52.36-16.75l-2.59 1.29M52.36-20.18l-1.9 2.4M49.24-16.35l-2.06-1.79M44.69-18.3l1.39 2.75M47.11-13.13l.61-2.94M54.91-1.78l2.83-1.86M60.07-3.22l-1.99-2.17M61.27-7.97l-2.6 1.29M61.27-11.4l-1.9 2.39M58.15-7.57l-2.07-1.8M54.98-6.77 53.6-9.52M63.35-3.92l-3.16-1.29M56.01-4.36l.61-2.93M54.91-10.55l2.89-1.78M60.07-12l-1.99-2.17M61.27-16.75l-2.6 1.29M61.27-20.18l-1.9 2.4M58.15-16.35l-2.07-1.79M54.98-15.55 53.6-18.3M63.35-12.69l-3.16-1.29M56.01-13.13l.61-2.94M63.52-1.78l2.83-1.86M68.68-3.22l-1.99-2.17M70.08-8.08l-2.59 1.29M70.08-11.51l-1.89 2.4M66.76-7.57l-2.07-1.8M63.59-6.77l-1.38-2.75M64.62-4.36l.61-2.93M63.52-10.55l2.82-1.88M68.68-12l-1.99-2.17M70.08-16.85l-2.59 1.29M70.08-20.28l-1.89 2.39M66.76-16.35l-2.07-1.79M62.21-18.3l1.38 2.75M64.62-13.13l.61-2.94" style="fill:none;stroke:#00aeef;stroke-width:.58;stroke-linecap:square;stroke-linejoin:bevel"/><path d="m1-56.95 1.18.48M1-65.72l1.18.48M7.41-71.06l-.58.73M16.02-71.06l-.59.73M24.92-71.06l-.58.73M33.53-71.06l-.58.73M42.44-71.06l-.59.73M51.05-71.06l-.59.73M69.08-57.76l1.98.81M71.06-65.72l-1.98-.81M59.95-71.06l-.58.73M68.56-71.06l-.58.73M1-39.43l1.18.48M2.18-47.73 1-48.21M69.08-40.24l1.98.81M71.06-48.21l-1.98-.81M1-21.92l1.18.49M2.18-30.21 1-30.69M69.08-22.73l1.98.81M71.06-30.69l-1.98-.81M1-4.4l1.18.48M2.18-12.69 1-13.18M69.08-5.21l1.98.81M69.08-13.98l1.98.8M8.72-2.67 7.41-1M17.33-2.67 16.02-1M26.24-2.67 24.92-1M34.85-2.67 33.53-1M43.75-2.67 42.44-1M52.36-2.67 51.05-1M61.27-2.67 59.95-1M69.88-2.67 68.56-1" style="fill-rule:evenodd;clip-rule:evenodd;fill:none;stroke:#00aeef;stroke-width:.58;stroke-linecap:square;stroke-linejoin:bevel"/></svg>