<svg xmlns="http://www.w3.org/2000/svg" xmlns:xlink="http://www.w3.org/1999/xlink" width="25.8" height="25.8"><defs><path id="a" d="M0 0h25.8v25.8H0z"/></defs><clipPath id="b"><use xlink:href="#a" overflow="visible"/></clipPath><path fill="none" stroke="#00AEEF" stroke-width=".5" d="m11.56 14.25-1 1.63m.29-4.28.78 1.44m-1.89-.79.1 2.16m4.31 7.23-.36-1.88m-6.29-.54.34-1.9M5.9 18.76l-1.48-1.22m-3.57.04-.85-.7m9.32-.68-1.48-1.22m1.86 4.46-.65-1.8m-6.7 2.79 1.88-1.6m4.39-5.33-1.85.5m5.43 7.66-1.54 1.14m-2.9-.8-1 1.64m8.36-8.34.75 1.76m2.83-5.93-.24 2.58m-5.72 5.39.96-1.68m4.07-.07-1.48 1.2m1.01 4.77 1.48 1.2M18 15.77l-1.46-1.22m-2.39-.85-.67 1.8m1.88-1.85 1.63-1M5.6 19.9l-1.1 1.57M18.37 9.13l-1.07 1.6M6.27 16.96l-.77-2.34m.4-6.94 1.23-1.46m8.21 6.03.2-2.46m-5.91.67.86-2.06m1.03 10.44-.63 1.8m4.79-.77-1.48-1.22m-5.7-6.73-1.18-2.1m5.58 13.86-1.64 1M5.17 12.4l1.85.5m-.58-3.8-.73 1.36M20.5 2.62l.1 2.3M13.65 1.5l1.48 1.22m-3.93.05L9.26 4.1M7.84 2.17 6.16 1.02m6.32 6.38.96 1.65M13.2 5.6l.24-1.52m3.24.56-1.76-.77m-2.5-1.13-1 1.64M21.6 9.45l-1.7 1.52M7.95 8.78l.86-2.2m.02-1.38L7.47 3.83m10.45.02 1-1.74m1.02 4.65.04 1.92M18.2 5.55l1.9.1m-10 1.37 1.5-1.22m8.67 7.94-.75 1.77m2.92 1.79.32 1.87m-.06-4.12.72 1.78m-2.16 5.31 1.47-1.23m1.83-.04-1 1.64m-3.63.05-.45-2.3m3.08-9.96 1.9.16m-.68 8.78L25.25 18m-3.9-1.68-.8 1.74m4.8-5.03-1.4-1.3M3.72 2.02 2.5 3.37M4.8 5.8l1.48-1.23m-.72-1.6L5 1.14m16.64 12.38 1.9.22M3.02 21.42l-.75 1.76m-.03 1.77 1.47-1.22m.51-9.11L2.75 13.4M21.92 3.2l1.63-1.02M22.5 4.3l-.64 1.82M0 20.95l1.2.98m-.5-7.67-.7.2m0-3.98.44.76M2.1 6.03.22 6.5m.9 6.45 1-1.64M2.5 8.2 1 9.45M3.66 6.8l.97 1.66M3.07 9.58 4.3 11.6m-2.5 2.9-.36 1.9m1.02.93 1.8-1.38m1.01 8.32-.14-1.9M0 23.64l.63-.52m13.17-16 1.77-1.48m1.18.31.96 1.65m-2.79.27 1.7.86m-3.87 7.77-1.48 1.22m-2.22 2.3-1.78.7m1.69 1.72.9 1.9m8.18-2.47-1.8-.66m.16-17.86.17-1.96m1.73 17.26-.47 1.86m-3.46 2.31 1.83-.55m-1.64-11.7-1.72 1.85M22.38 23l.75 1.76m2.05-8.4.63.52m-.29 3.82.3.25m-1.16-6.15 1.14-.34m-.52-4.86.52.88m0 13.16-.84.7M23.67 8.28l-.76-1.76m2.25 13.11.64-.14M0 19.5l1.22-.28m19.28-6.97 2.32-.56M4.3 3.94 2.72 5.02m18.8 15.35L20.18 19m3.61-15.12.88 1.7M.66 8.03 0 7.98m25.8 0-1.25-.1m-12.75.99.52 2.26m6.94 7.07-.37-1.9m3.94-7.33-1.68-.93M14.32 23.9l1.67.5M9.05 2.73l.2-1.9M1.34 4.86.9 2.5M25.8 2l-.6 1.63M0 2l.06-.17M21.4 23.62l-.8 1.74m-2.4.44h.03m-5.03-1.07-.34 1.07m-3.23-.5.36.5m12.83-.1-.13.1m-19.24-.66-.15.66m3.42-.9-1.24.9m-4.77-.98.2.98m24.27-.38-.23.38m-9.79-.5.02.5m-7.34 0-.27-1.55m9.53 1.55-.46-.8m1.59-25h-.02m1.65.97L18.23 0M12.4 1.4l.46-1.4m-1.89 1.4L10 0m11.34 1.1L22.7 0M3.03 1.2 3.3 0m1.96.16L5.48 0M1.07.9.9 0m23.3 1.25L24.94 0m-9.71 1.4V0m-.01 0v-.08M7.9.34 7.83 0m9.27 0 .37.67" clip-path="url(#b)"/></svg>