<svg xmlns="http://www.w3.org/2000/svg" xml:space="preserve" width="17.8" height="17.8" viewBox="0 -17.8 17.8 17.8"><path d="M0-17.8h17.8V0H0z" style="fill:none"/><path d="m15.54-16.63 1.28 1.65M16.8-15l.98-1.87M4.56-15.87l-.92-1.88M3.66-17.73 2.31-16.1M1.69-3.31l2.04-.45M3.71-3.75l-1.27-1.7M3-10.27 1.7-11.9M1.72-11.89.76-10M6.26-11.34l2.09.02M8.33-11.32l-.86-1.93M14-.85l1.37-1.58M15.36-2.4l-2.03-.61M10.7-16.78l-.4 2.05M10.3-14.75l2.06-.5M13.32-10.78l1.18-1.72M14.49-12.47l-2.08-.38M8.14-3.03l-.86 1.9M7.28-1.15H9.4M7.93-7.89l-2.08-.16M5.87-8.05l.73 1.99M16.48-7.99l-.86 1.9M15.63-6.11h2.11M12.35-5.44l.06-2.1M12.42-7.51l-1.95.82" style="fill:none;stroke:#ed1b2e;stroke-width:.55"/></svg>