<svg xmlns="http://www.w3.org/2000/svg" xml:space="preserve" width="17.79" height="17.8" viewBox="1.14 -18.85 17.79 17.8"><path d="M1.14-18.85h17.79v17.8H1.14z" style="fill:none"/><path d="m16.68-17.68 1.28 1.65M17.94-16.05l.98-1.87M5.7-16.92l-.92-1.88M4.8-18.78l-1.35 1.63M2.83-4.37l2.04-.45M4.85-4.8 3.58-6.5M4.14-11.32l-1.3-1.63M2.86-12.94l-.96 1.89M7.4-12.39l2.09.01M9.47-12.37l-.86-1.94M15.14-1.9l1.37-1.58M16.5-3.46l-2.03-.6M11.84-17.83l-.4 2.05M11.44-15.81l2.06-.49M14.46-11.83l1.18-1.72M15.64-13.53l-2.09-.37M9.28-4.09l-.86 1.91M8.42-2.21h2.12M9.07-8.94 6.99-9.1M7.01-9.11l.73 1.99M17.63-9.04l-.87 1.9M16.77-7.16h2.11M13.49-6.5l.06-2.09M13.56-8.56l-1.95.82" style="fill:none;stroke:#000;stroke-width:.45"/></svg>