<svg xmlns="http://www.w3.org/2000/svg" xml:space="preserve" width="34.35" height="34.35" viewBox="1.69 -35.85 34.35 34.35"><path d="M1.69-35.85h34.35V-1.5H1.69z" style="fill:none"/><path d="m12.36-22.72 4.38.06-.07-.16-1.87-3.95M3.87-7.42l4.32-.7-.09-.15-2.53-3.57M24.42-10.54l.43-4.36-.16.05-4.1 1.53M26.38-20.93l2.32-3.71-.16-.03-4.36-.46M9.9-30.43l-1.55-4.09-.12.12-3 3.18M6.9-19.85l-2.65-3.48-.08.14-1.97 3.91M17.02-15.62l-4.32-.68.04.16 1.28 4.18M21.86-33.3l-1.02 4.26.17-.03 4.27-.95M30.44-32.71l2.72 3.43.08-.15 1.89-3.94M32.02-16.08l-1.29 4.18.17-.02 4.32-.67M27.83-2.2l2.85-3.32-.16-.05-4.23-1.11M16.91-6.93 14.98-3l.17.01 4.38.01" style="fill:none;stroke:#000;stroke-width:.6;stroke-linecap:round"/></svg>