<svg xmlns="http://www.w3.org/2000/svg" xml:space="preserve" width="71.34" height="71.3" viewBox="2.16 -73.46 71.34 71.3"><path d="M2.16-73.46H73.5v71.3H2.16z" style="fill:none"/><path d="m2.16-49.65.15-.19 1.08 2.09-1.23-.04M35.37-71.05l-2.32.41 1.09 1.92zM7.97-71.02l-.06-2.24-1.99 1.46zM30.6-39.44l2.55-.68-1.88-1.42zM35.1-43.15l1.55 1.78.64-2.61zM6.63-40.08l-1.65-1.68-.9 2.36zM23.15-71.24l-2.17-1.51-.22 2.34zM25.4-66.24l-.16-2.35-2.22 1.21zM14.29-71.89l-2.51.34 1.82 1.91zM9.84-67.26l-.19 2.53 2.25-1.39zM24.56-61.55l-2.57.47 1.61 2.3zM27.93-59.41l-1.22 2.01 2.51.29zM32.84-59.93l.02 2.64 2.04-1.16zM36.77-54.92l-2.06 1.12 2.02 1.51zM30.68-49.81l1.35 2.14.98-2.45zM8.11-56.61l-1.49-2.53-1.31 2.26zM18.75-56.85l-.18 2.52 2.24-1.38zM28.09-45.51l-.19 2.53 2.25-1.39zM19.38-40l1.85 1.88.65-2.26zM10.67-41.71l2.59.5-.75-2.23zM20.88-49.41l2.92.2-1.12-2.36zM26.32-54.03l.75 2.41 1.58-2.11zM24.15-43.37l-.34-2.33-2.12 1.38zM7.99-47.05l-.35 2.51 2.33-1.25zM15.68-47.16l2.59-.49-1.52-1.8zM17.4-41.95l1.33-2.28-2.36-.03zM31.45-66.59l-2.17-.9.09 2.52zM19.33-66.7l-1.14-2.05-1.49 2.03zM16.61-63.75l.93 2.47 1.51-1.81zM14.68-56.83l-2.22 1.43 2.08 1.1zM10.47-60.14l2.75.58-1.19-2.68zM10.43-50.8l1.45 1.86 1.16-2.25zM7.31-53.23l-2.64-.1 1.08 2.09zM36.48-63.03l-1.8-1.52-.67 2.44zM3.07-67.07l2.46-.19-1.44-1.89zM5.43-64.36l-1.99 1.63 2.56.95zM38.49-49.04l-1.56 1.99 2.64.1zM25.81-37.81l.08 2.28L27.76-37zM71.04-71.05l-2.32.41 1.09 1.92zM43.79-70.87l-.07-2.48-2.21 1.61zM70.9-38.29l-1.7-1.27-.59 1.89zM72.99-44.61l-2.18.83L72.35-42zM42.3-40.34l-1.64-1.68-.91 2.36zM57.97-71.13l-2.16-1.51-.22 2.34zM61.73-64.54l-.16-2.34-2.22 1.21zM49.96-71.89l-2.5.34 1.82 1.91zM45.51-67.09l-.19 2.52 2.25-1.38zM60.83-61.63l-2.32.42 1.45 2.08zM63.68-59.3l-1.22 2.01 2.51.29zM67.99-59.34 68-56.7l2.04-1.16zM70.95-54.87l2.03 1.51.04-2.64zM66.71-50.85l1.35 2.14.98-2.45zM43.9-56.75l-1.48-2.53-1.31 2.26zM55.09-56.72l-.19 2.52 2.25-1.39zM65.72-42.62l2.02-1.24-1.85-1.03zM56.76-41.31l1.85 1.88.65-2.26zM46.24-39.88l2.59.5-.75-2.23zM58.4-49.95l-1.01-2.13-1.62 1.95zM61.45-53.49l.74 2.41 1.59-2.11zM62.57-44.45l-.4-3.41-2.53 2.01zM44.27-47.15l-.34 2.51 2.33-1.24zM52.47-46.54l2.6-.5-1.52-1.79zM51.88-43.35l1.02 2.31 1.33-2.28zM67.24-66.66l-2.18-.9.1 2.53zM55.15-66.87l-1.14-2.05-1.5 2.03zM55.15-62.13l-2.44-.66.93 2.47zM50.38-56.82l-2.22 1.43 2.08 1.1zM48.9-59.56l-1.2-2.68-1.55 2.1zM49.6-50.88l-2.61.39 1.45 1.86zM43.1-53.22l-2.64-.09 1.08 2.09zM72.11-62.89l-1.8-1.52-.68 2.44zM41.14-67.37l-1.44-1.89-1.02 2.08zM41.02-64.3l-1.8 1.47 2.32.85zM62.92-39.13l.1 2.53 2.07-1.63zM2.16-12.19l1.23.05-1.08-2.09-.15.19M73.5-49.64l-1.41 1.79 1.41.06M73.5-14.03l-1.41 1.79 1.41.05M31.85-35.75l1.22 2.13 1.36-2.59zM7.01-36.4l2.06.78-.06-2.23zM32.37-3.85l2.29-.61-1.7-1.28zM35.74-8.44l1.4 1.61.57-2.35zM3.68-3.6l2.55-.69-1.64-1.68zM20.25-32.37l2.15-.75-1.95-1.36zM25.07-28.95l-.17-2.35-2.22 1.22zM13.59-38.01l1.64 1.72.62-2.02zM11.43-29.7l-2.06-1.13-.18 2.52zM23.73-23.12l.86-2.49-2.31.42zM29.63-22.33l-1.29-2.3-1.22 2.01zM34.95-22.32l-2.06-1.47.01 2.64zM35.31-18.36l2.03 1.52.03-2.64zM33.28-12.87l.88-2.21-2.1.28zM8.73-21.87 7.25-24.4l-1.31 2.26zM19.34-18.38l2.25-1.39-2.06-1.14zM30.11-8.45l2.03-1.25-1.86-1.02zM21.24-5.72l1.66 1.69.59-2.03zM9.64-5.12l2.59.5-.74-2.23zM20.64-13.72l2.63.18-1.01-2.12zM26.64-18.33l.75 2.41 1.58-2.11zM25.78-11.05l-1.91 1.24 2.22.85zM7.18-9.72l2.32-1.24-1.98-1.27zM17.84-11.52l-1.51-1.79-1.08 2.29zM15.05-7.21l1.02 2.31 1.33-2.28zM31.69-31l-2.41-1 .1 2.81zM13.81-31.75l2.64.02-1.14-2.05zM18.57-25.62l1.51-1.8-2.44-.67zM12.99-19.05l2.08 1.1.14-2.53zM14.57-24.62l-1.08-2.41-1.4 1.89zM12.52-16.08l-2.61.4 1.45 1.85zM6.76-18.42l-2.63-.1 1.08 2.09zM36.59-27.34l-2-1.68-.75 2.71zM3.44-32.59l2.46-.2-1.44-1.88zM3.42-26.98l2.31.86-.51-2.32zM39.73-11.79l-.97-1.88-1.4 1.8zM68.56-34.09l1.09 1.91 1.23-2.33zM41.45-35.49l2.28.87-.06-2.48zM67.11-3.97l2.55-.68-1.88-1.42zM70.85-8.64l1.55 1.79.64-2.61zM40.07-3.83l2.55-.69-1.65-1.68zM59.59-35.14l-2.17-1.51-.22 2.34zM61.07-28.79l-.17-2.34-2.22 1.21zM50.35-35.61l-2.5.34 1.82 1.91zM47.27-29.59l-2.06-1.14-.18 2.52zM59.78-23.84l-2.31.42 1.45 2.07zM62.36-23.37l2.51.29-1.29-2.3zM68.68-24.59l.01 2.63 2.04-1.16zM71.67-17.43l.04-2.64-2.07 1.13zM66.35-14.88l1.22 1.93.88-2.21zM41.93-23.69l-1.31 2.26 2.79.27zM56.31-19l-2.06-1.14-.18 2.52zM63.93-7.98l2.24-1.39-2.06-1.13zM56.59-5.15l1.85 1.88.65-2.26zM46.64-4.29l2.59.5-.74-2.23zM56.71-14.18l2.63.18-1.01-2.13zM62.23-18.02l.75 2.41 1.58-2.11zM60.83-8.58l-.33-2.33-2.13 1.38zM43.89-8.65l2.33-1.24-1.98-1.27zM50.95-10.96l2.59-.5-1.52-1.79zM51.9-7.64l1.02 2.32 1.33-2.29zM67.17-31.21l-2.18-.9.1 2.53zM52.43-30.89l2.64.02-1.14-2.05zM53.3-27.92l.93 2.47 1.51-1.81zM49.23-18.29l.14-2.52-2.22 1.43zM50.23-23.95l-1.07-2.41-1.4 1.89zM46.54-14.47l1.44 1.85 1.17-2.24zM43.84-17.05l-2.63-.09 1.08 2.09zM72.47-27.89l-1.8-1.52-.67 2.44zM37.44-31.86l2.73-.21-1.61-2.1zM41.68-26.18l-.58-2.58-1.99 1.63zM29.04-73.46l-1.88 1.47-.05-1.47M64.71-73.46l-1.87 1.47-.06-1.47M29.02-2.16l.22-.17-2.17-.9.04 1.07M64.69-2.16l.22-.17-2.17-.9.04 1.07" style="fill:none;stroke:#00aeef;stroke-width:.58"/></svg>