<svg xmlns="http://www.w3.org/2000/svg" width="71.34" height="71.3"><path fill="none" d="M0 0h71.34v71.3H0z"/><path d="M0 0h71.34v71.3H0z"/><path fill="#fff" d="m0 23.8.15-.18 1.08 2.1L0 25.66M33.2 2.4l-2.3.43 1.08 1.9zm-27.4.04L5.76.2l-2 1.46zm22.64 31.58 2.55-.68-1.9-1.42zm4.5-3.72 1.55 1.8.63-2.62zM4.47 33.38 2.82 31.7l-.9 2.36zM21 2.22 18.8.72l-.22 2.33zm2.24 5-.16-2.35-2.22 1.2zM12.13 1.57l-2.5.34 1.8 1.92zM7.68 6.2l-.2 2.53 2.26-1.4zm14.72 5.7-2.57.48 1.6 2.3zm3.37 2.15-1.22 2 2.5.3zm4.91-.52.02 2.64L32.74 15zm3.92 5.01-2.05 1.12 2.02 1.5zm-6.08 5.11 1.35 2.14.98-2.46zm-22.57-6.8-1.5-2.53-1.3 2.26zm10.65-.25-.2 2.53 2.25-1.38zm9.33 11.35-.2 2.53 2.26-1.4zm-8.71 5.51 1.85 1.88.65-2.26zM8.5 31.75l2.6.5-.75-2.23zm10.22-7.7 2.92.2-1.12-2.36zm5.44-4.62.75 2.4 1.6-2.1zM22 30.1l-.35-2.34-2.12 1.38zM5.83 26.4l-.35 2.52 2.33-1.25zm7.69-.1 2.6-.5-1.53-1.8zm1.72 5.2 1.33-2.27-2.36-.04zM29.3 6.87l-2.18-.9.1 2.52zm-12.13-.11L16.03 4.7l-1.5 2.04zM14.45 9.7l.93 2.48 1.5-1.8zm-1.93 6.93-2.22 1.43 2.08 1.1zM8.3 13.32l2.76.58-1.2-2.68zm-.03 9.34 1.45 1.86 1.16-2.25zm-3.13-2.43-2.63-.1 1.1 2.1zm29.18-9.8-1.8-1.52-.67 2.45zM.9 6.4l2.47-.2-1.44-1.9zm2.37 2.7-2 1.63 2.57.95zm33.06 15.32-1.56 2 2.64.1zM23.65 35.65l.08 2.28 1.87-1.47zM68.88 2.4l-2.32.43 1.1 1.9zm-27.25.2L41.56.1l-2.2 1.62zm27.11 32.57-1.7-1.27-.6 1.9zm2.09-6.32-2.18.83 1.54 1.78zm-30.69 4.27-1.64-1.68-.9 2.36zM55.8 2.33 53.66.83l-.23 2.33zm3.77 6.59-.16-2.34-2.2 1.2zM47.8 1.57l-2.5.34 1.82 1.92zm-4.45 4.8-.2 2.52 2.26-1.4zm15.31 5.46-2.3.43 1.44 2.07zm2.86 2.33-1.22 2 2.5.3zm4.31-.04v2.64l2.05-1.16zm2.97 4.47 2.02 1.5.04-2.64zm-4.25 4.01 1.35 2.15.98-2.45zm-22.81-5.9-1.48-2.52-1.3 2.26zm11.19.04-.2 2.52 2.26-1.4zm10.63 14.1 2.02-1.24-1.85-1.03zm-8.96 1.31 1.85 1.88.65-2.26zm-10.52 1.43 2.6.5-.76-2.23zM56.24 23.5l-1-2.1-1.63 1.93zm3.04-3.53.75 2.4 1.6-2.1zm.78 8.6-.32-2.76-2.05 1.64zM42.1 26.3l-.33 2.52 2.32-1.24zm8.2.62 2.6-.5-1.5-1.8zm-.6 3.18 1.04 2.32 1.32-2.28zM65.08 6.8l-2.18-.9.1 2.53zM53 6.6l-1.15-2.06-1.5 2.03zm0 4.73-2.45-.66.93 2.47zm-4.78 5.31L46 18.07l2.08 1.1zm-1.48-2.74-1.2-2.68-1.55 2.1zm.7 8.68-2.6.4 1.44 1.85zm-6.5-2.33-2.64-.1 1.08 2.1zm29-9.68-1.8-1.52-.67 2.44zM38.98 6.1l-1.44-1.9-1.02 2.08zm-.12 3.06-1.8 1.47 2.32.85zm21.9 25.17.1 2.53 2.07-1.63zM0 61.27l1.23.05-1.08-2.1-.15.2m71.34-35.6-1.4 1.8 1.4.04m0 33.76-1.4 1.8 1.4.05M29.7 37.7l1.2 2.14 1.37-2.6zm-24.85-.64 2.06.78-.05-2.23zM30.2 69.6l2.3-.6-1.7-1.28zm3.38-4.58 1.4 1.6.57-2.34zM1.52 69.86l2.55-.7-1.64-1.67zM18.1 41.1l2.14-.76-1.95-1.36zm4.8 3.4-.16-2.34-2.22 1.22zm-11.47-9.04 1.64 1.7.62-2zm-2.16 8.31L7.2 42.63l-.17 2.52zm12.3 6.57.86-2.5-2.3.43zm5.9.79-1.3-2.3-1.2 2zm5.33.01-2.07-1.47v2.64zm.35 3.96 2.02 1.52.04-2.64zm-2.05 5.5.9-2.22-2.1.28zm-24.53-9L5.1 49.05l-1.32 2.26zm10.61 3.48 2.25-1.4-2.06-1.13zM27.95 65l2.03-1.24-1.86-1.02zm-8.87 2.74 1.66 1.7.6-2.04zm-11.6.6 2.6.5-.75-2.23zm11-8.6 2.63.18-1-2.12zm6-4.61.75 2.4 1.58-2.1zm-.86 7.27-1.9 1.25 2.2.85zM5 63.74l2.34-1.24-1.98-1.27zm10.68-1.8-1.5-1.8-1.1 2.3zm-2.78 4.31 1 2.3 1.34-2.27zm16.63-23.79-2.42-1 .12 2.8zm-17.88-.76 2.64.03-1.15-2.05zm4.75 6.14 1.52-1.8-2.45-.67zm-5.57 6.56 2.08 1.1.14-2.52zm1.57-5.56-1.07-2.4-1.4 1.88zm-2.04 8.54-2.6.4 1.44 1.85zM4.6 55.04l-2.63-.1 1.08 2.1zm29.83-8.92-2-1.68-.75 2.7zM1.28 40.87l2.46-.2-1.45-1.9zm-.02 5.61 2.3.86-.5-2.32zm36.31 15.19-.97-1.88-1.4 1.8zm28.83-22.3 1.1 1.9 1.22-2.32zm-27.1-1.4 2.27.87-.06-2.48zM64.95 69.5l2.55-.7-1.88-1.4zm3.75-4.68 1.54 1.8.64-2.62zm-30.8 4.81 2.56-.7-1.65-1.67zm19.53-31.31-2.17-1.5-.22 2.33zm1.47 6.35-.16-2.34-2.22 1.2zm-10.7-6.82-2.5.34 1.8 1.9zm-3.1 6.02-2.05-1.14-.18 2.52zm12.52 5.75-2.3.42 1.44 2.07zm2.58.48 2.5.28-1.28-2.3zm6.32-1.23v2.64l2.05-1.16zm2.98 7.16.05-2.63-2.07 1.12zm-5.3 2.55 1.2 1.93.9-2.2zm-24.43-8.81-1.32 2.26 2.8.27zm14.38 4.68-2.06-1.13-.2 2.52zm7.62 11.03 2.24-1.4-2.05-1.12zm-7.34 2.82 1.85 1.9.65-2.27zm-9.95.87 2.6.5-.75-2.23zm10.07-9.9 2.63.2-1-2.14zm5.52-3.83.75 2.4 1.58-2.1zm-1.4 9.44-.33-2.33-2.13 1.38zm-16.94-.08 2.33-1.23-1.98-1.27zm7.07-2.3 2.58-.5-1.52-1.8zm.94 3.32 1.02 2.32 1.33-2.3zM65 42.25l-2.17-.9.1 2.53zm-14.73.32 2.64.02-1.13-2.07zm.87 2.97.93 2.47 1.5-1.8zm-4.07 9.63.14-2.52-2.2 1.43zm1-5.67L47 47.1 45.6 49zM44.38 59l1.44 1.84L47 58.6zm-2.7-2.59-2.63-.08 1.08 2.1zM70.3 45.57l-1.8-1.52-.66 2.44zM35.27 41.6l2.74-.2-1.6-2.1zm4.25 5.68-.58-2.58-2 1.63zM26.88 0 25 1.47 24.95 0m37.6 0-1.87 1.47L60.62 0M26.86 71.3l.22-.17-2.17-.9.05 1.07m37.57 0 .22-.17-2.17-.9.04 1.07M0 23.8v1.86m71.34 0v-1.84M24.95 71.3h1.9M0 61.27v-1.85M60.62 71.3h1.9m8.82-10.03v-1.85M62.55 0h-1.93M26.88 0h-1.93"/></svg>