<svg xmlns="http://www.w3.org/2000/svg" xml:space="preserve" width="86.61" height="86.61" viewBox="0 -86.61 86.61 86.61"><path d="M0-86.61h86.61V0H0z" style="fill:none"/><path d="m0-72.15.09-.11.66 1.27-.75-.03M20.18-85.15l-1.42.25.67 1.17z" style="fill:#00aeef"/><path d="m20.18-85.15-1.42.25.67 1.17z" style="fill:none"/><path d="m3.53-85.13-.04-1.36-1.21.88z" style="fill:#00aeef"/><path d="m3.53-85.13-.04-1.36-1.21.88z" style="fill:none"/><path d="m18.83-66.36-1.15-.86-.4 1.28z" style="fill:#00aeef"/><path d="m18.83-66.36-1.15-.86-.4 1.28z" style="fill:none"/><path d="m20.01-68.2.94 1.08.39-1.58z" style="fill:#00aeef"/><path d="m20.01-68.2.94 1.08.39-1.58z" style="fill:none"/><path d="m2.72-66.33-1-1.02-.55 1.43z" style="fill:#00aeef"/><path d="m2.72-66.33-1-1.02-.55 1.43z" style="fill:none"/><path d="m12.75-85.27-1.31-.91-.14 1.42z" style="fill:#00aeef"/><path d="m12.75-85.27-1.31-.91-.14 1.42z" style="fill:none"/><path d="m14.12-82.23-.1-1.42-1.35.73z" style="fill:#00aeef"/><path d="m14.12-82.23-.1-1.42-1.35.73z" style="fill:none"/><path d="m7.37-85.66-1.52.21 1.1 1.16z" style="fill:#00aeef"/><path d="m7.37-85.66-1.52.21 1.1 1.16z" style="fill:none"/><path d="m4.67-82.84-.12 1.53 1.37-.84z" style="fill:#00aeef"/><path d="m4.67-82.84-.12 1.53 1.37-.84z" style="fill:none"/><path d="m13.61-79.38-1.56.29.98 1.39z" style="fill:#00aeef"/><path d="m13.61-79.38-1.56.29.98 1.39z" style="fill:none"/><path d="m15.65-78.08-.74 1.22 1.53.18z" style="fill:#00aeef"/><path d="m15.65-78.08-.74 1.22 1.53.18z" style="fill:none"/><path d="m18.64-78.39.01 1.6 1.24-.71z" style="fill:#00aeef"/><path d="m18.64-78.39.01 1.6 1.24-.71z" style="fill:none"/><path d="m21.03-75.35-1.26.68 1.23.92z" style="fill:#00aeef"/><path d="m21.03-75.35-1.26.68 1.23.92z" style="fill:none"/><path d="m17.33-72.24.82 1.3.59-1.49z" style="fill:#00aeef"/><path d="m17.33-72.24.82 1.3.59-1.49z" style="fill:none"/><path d="m3.61-76.38-.9-1.54-.79 1.38z" style="fill:#00aeef"/><path d="m3.61-76.38-.9-1.54-.79 1.38z" style="fill:none"/><path d="m10.08-76.52-.11 1.53 1.36-.84z" style="fill:#00aeef"/><path d="m10.08-76.52-.11 1.53 1.36-.84z" style="fill:none"/><path d="m15.75-69.63-.11 1.53 1.36-.84z" style="fill:#00aeef"/><path d="m15.75-69.63-.11 1.53 1.36-.84z" style="fill:none"/><path d="m10.46-66.29 1.13 1.15.39-1.38z" style="fill:#00aeef"/><path d="m10.46-66.29 1.13 1.15.39-1.38z" style="fill:none"/><path d="m6.74-67.02-.45-1.36-1.12 1.05z" style="fill:#00aeef"/><path d="m6.74-67.02-.45-1.36-1.12 1.05z" style="fill:none"/><path d="m11.37-72 1.78.12-.68-1.44z" style="fill:#00aeef"/><path d="m11.37-72 1.78.12-.68-1.44z" style="fill:none"/><path d="m14.68-74.81.45 1.46.96-1.28z" style="fill:#00aeef"/><path d="m14.68-74.81.45 1.46.96-1.28z" style="fill:none"/><path d="m13.36-68.33-.21-1.42-1.29.84z" style="fill:#00aeef"/><path d="m13.36-68.33-.21-1.42-1.29.84z" style="fill:none"/><path d="m3.54-70.57-.21 1.52 1.41-.75z" style="fill:#00aeef"/><path d="m3.54-70.57-.21 1.52 1.41-.75z" style="fill:none"/><path d="m8.21-70.64 1.58-.29-.93-1.1z" style="fill:#00aeef"/><path d="m8.21-70.64 1.58-.29-.93-1.1z" style="fill:none"/><path d="m10.06-68.86-1.42-.02.62 1.41z" style="fill:#00aeef"/><path d="m10.06-68.86-1.42-.02.62 1.41z" style="fill:none"/><path d="m17.79-82.44-1.32-.55.06 1.54z" style="fill:#00aeef"/><path d="m17.79-82.44-1.32-.55.06 1.54z" style="fill:none"/><path d="m10.43-82.51-.69-1.24-.91 1.23z" style="fill:#00aeef"/><path d="m10.43-82.51-.69-1.24-.91 1.23z" style="fill:none"/><path d="m8.78-80.72.57 1.5.91-1.09z" style="fill:#00aeef"/><path d="m8.78-80.72.57 1.5.91-1.09z" style="fill:none"/><path d="m7.6-76.51-1.34.87 1.26.66z" style="fill:#00aeef"/><path d="m7.6-76.51-1.34.87 1.26.66z" style="fill:none"/><path d="m5.05-78.52 1.67.35-.73-1.63z" style="fill:#00aeef"/><path d="m5.05-78.52 1.67.35-.73-1.63z" style="fill:none"/><path d="m6.61-73.08-1.58.23.87 1.13z" style="fill:#00aeef"/><path d="m6.61-73.08-1.58.23.87 1.13z" style="fill:none"/><path d="m3.13-74.33-1.61-.05.66 1.27z" style="fill:#00aeef"/><path d="m3.13-74.33-1.61-.05.66 1.27z" style="fill:none"/><path d="m20.85-80.28-1.09-.92-.41 1.48z" style="fill:#00aeef"/><path d="m20.85-80.28-1.09-.92-.41 1.48z" style="fill:none"/><path d="m.55-82.73 1.5-.12-.88-1.14z" style="fill:#00aeef"/><path d="m.55-82.73 1.5-.12-.88-1.14z" style="fill:none"/><path d="m1.99-81.09-1.22.99 1.57.58z" style="fill:#00aeef"/><path d="m1.99-81.09-1.22.99 1.57.58z" style="fill:none"/><path d="m22.07-71.78-.95 1.21 1.6.06z" style="fill:#00aeef"/><path d="m22.07-71.78-.95 1.21 1.6.06z" style="fill:none"/><path d="m14.36-64.95.06 1.38 1.13-.89z" style="fill:#00aeef"/><path d="m14.36-64.95.06 1.38 1.13-.89z" style="fill:none"/><path d="m41.85-85.15-1.41.25.66 1.17z" style="fill:#00aeef"/><path d="m41.85-85.15-1.41.25.66 1.17z" style="fill:none"/><path d="m25.29-85.04-.04-1.51-1.35.98z" style="fill:#00aeef"/><path d="m25.29-85.04-.04-1.51-1.35.98z" style="fill:none"/><path d="m40.73-66.02-.37 1.15 1.4-.38z" style="fill:#00aeef"/><path d="m40.73-66.02-.37 1.15 1.4-.38z" style="fill:none"/><path d="m43.03-69.09-1.33.51.94 1.08z" style="fill:#00aeef"/><path d="m43.03-69.09-1.33.51.94 1.08z" style="fill:none"/><path d="m22.84-66.08 1.55-.42-1-1.02z" style="fill:#00aeef"/><path d="m22.84-66.08 1.55-.42-1-1.02z" style="fill:none"/><path d="m33.91-85.2-1.32-.92-.13 1.43z" style="fill:#00aeef"/><path d="m33.91-85.2-1.32-.92-.13 1.43z" style="fill:none"/><path d="m36.19-81.19-.1-1.43-1.35.74z" style="fill:#00aeef"/><path d="m36.19-81.19-.1-1.43-1.35.74z" style="fill:none"/><path d="m29.04-85.66-1.52.21 1.1 1.16z" style="fill:#00aeef"/><path d="m29.04-85.66-1.52.21 1.1 1.16z" style="fill:none"/><path d="m26.33-82.74-.11 1.53 1.36-.84z" style="fill:#00aeef"/><path d="m26.33-82.74-.11 1.53 1.36-.84z" style="fill:none"/><path d="m35.64-79.43-1.41.26.89 1.26z" style="fill:#00aeef"/><path d="m35.64-79.43-1.41.26.89 1.26z" style="fill:none"/><path d="m37.37-78.01-.74 1.22 1.53.18z" style="fill:#00aeef"/><path d="m37.37-78.01-.74 1.22 1.53.18z" style="fill:none"/><path d="M39.99-78.03v1.6l1.25-.71z" style="fill:#00aeef"/><path d="M39.99-78.03v1.6l1.25-.71z" style="fill:none"/><path d="m43.04-76.01-1.25.69 1.23.92z" style="fill:#00aeef"/><path d="m43.04-76.01-1.25.69 1.23.92z" style="fill:none"/><path d="m39.22-72.88.81 1.3.6-1.49z" style="fill:#00aeef"/><path d="m39.22-72.88.81 1.3.6-1.49z" style="fill:none"/><path d="m25.36-76.46-.9-1.54-.8 1.38z" style="fill:#00aeef"/><path d="m25.36-76.46-.9-1.54-.8 1.38z" style="fill:none"/><path d="m32.15-76.45-.11 1.54 1.36-.84z" style="fill:#00aeef"/><path d="m32.15-76.45-.11 1.54 1.36-.84z" style="fill:none"/><path d="m39.84-68.63-1.13-.62-.1 1.37z" style="fill:#00aeef"/><path d="m39.84-68.63-1.13-.62-.1 1.37z" style="fill:none"/><path d="m33.17-67.08 1.12 1.14.4-1.37z" style="fill:#00aeef"/><path d="m33.17-67.08 1.12 1.14.4-1.37z" style="fill:none"/><path d="m26.78-66.21 1.57.3-.45-1.35z" style="fill:#00aeef"/><path d="m26.78-66.21 1.57.3-.45-1.35z" style="fill:none"/><path d="m34.17-72.33-.62-1.29-.98 1.18z" style="fill:#00aeef"/><path d="m34.17-72.33-.62-1.29-.98 1.18z" style="fill:none"/><path d="m36.02-74.48.45 1.46.96-1.28z" style="fill:#00aeef"/><path d="m36.02-74.48.45 1.46.96-1.28z" style="fill:none"/><path d="m36.49-69.26-.2-1.67-1.24.98z" style="fill:#00aeef"/><path d="m36.49-69.26-.2-1.67-1.24.98z" style="fill:none"/><path d="m25.58-70.63-.21 1.52 1.42-.75z" style="fill:#00aeef"/><path d="m25.58-70.63-.21 1.52 1.42-.75z" style="fill:none"/><path d="m30.57-70.26 1.57-.3-.92-1.09z" style="fill:#00aeef"/><path d="m30.57-70.26 1.57-.3-.92-1.09z" style="fill:none"/><path d="m30.2-68.32.62 1.4.81-1.38z" style="fill:#00aeef"/><path d="m30.2-68.32.62 1.4.81-1.38z" style="fill:none"/><path d="m39.53-82.48-1.32-.55.06 1.54z" style="fill:#00aeef"/><path d="m39.53-82.48-1.32-.55.06 1.54z" style="fill:none"/><path d="m32.19-82.61-.69-1.25-.91 1.24z" style="fill:#00aeef"/><path d="m32.19-82.61-.69-1.25-.91 1.24z" style="fill:none"/><path d="m32.19-79.73-1.48-.4.57 1.5z" style="fill:#00aeef"/><path d="m32.19-79.73-1.48-.4.57 1.5z" style="fill:none"/><path d="m29.29-76.5-1.35.86 1.27.67z" style="fill:#00aeef"/><path d="m29.29-76.5-1.35.86 1.27.67z" style="fill:none"/><path d="m28.39-78.17-.72-1.63-.95 1.28z" style="fill:#00aeef"/><path d="m28.39-78.17-.72-1.63-.95 1.28z" style="fill:none"/><path d="m28.82-72.89-1.59.23.88 1.13z" style="fill:#00aeef"/><path d="m28.82-72.89-1.59.23.88 1.13z" style="fill:none"/><path d="m24.87-74.31-1.6-.06.66 1.27z" style="fill:#00aeef"/><path d="m24.87-74.31-1.6-.06.66 1.27z" style="fill:none"/><path d="m42.49-80.19-1.09-.92-.41 1.48z" style="fill:#00aeef"/><path d="m42.49-80.19-1.09-.92-.41 1.48z" style="fill:none"/><path d="m23.68-82.91-.88-1.15-.61 1.26z" style="fill:#00aeef"/><path d="m23.68-82.91-.88-1.15-.61 1.26z" style="fill:none"/><path d="m23.61-81.05-1.09.89 1.4.52z" style="fill:#00aeef"/><path d="m23.61-81.05-1.09.89 1.4.52z" style="fill:none"/><path d="m36.91-65.76.06 1.54 1.26-.99z" style="fill:#00aeef"/><path d="m36.91-65.76.06 1.54 1.26-.99z" style="fill:none"/><path d="m0-49.39.75.03-.66-1.27-.09.11" style="fill:#00aeef"/><path d="m0-49.39.75.03-.66-1.27-.09.11" style="fill:none"/><path d="m43.43-72.26-.95 1.21 1.61.06z" style="fill:#00aeef"/><path d="m43.43-72.26-.95 1.21 1.61.06z" style="fill:none"/><path d="m44.09-49.36-.66-1.27-.95 1.21z" style="fill:#00aeef"/><path d="m44.09-49.36-.66-1.27-.95 1.21z" style="fill:none"/><path d="m19.61-63.99-1.57.29.73 1.29z" style="fill:#00aeef"/><path d="m19.61-63.99-1.57.29.73 1.29z" style="fill:none"/><path d="m4.2-63.62-.04-1.36-1.21.88z" style="fill:#00aeef"/><path d="m4.2-63.62-.04-1.36-1.21.88z" style="fill:none"/><path d="m19.74-44.7-1.03-.78-.36 1.15z" style="fill:#00aeef"/><path d="m19.74-44.7-1.03-.78-.36 1.15z" style="fill:none"/><path d="m20.71-46.96.84.97.35-1.42z" style="fill:#00aeef"/><path d="m20.71-46.96.84.97.35-1.42z" style="fill:none"/><path d="m.93-44.18 1.54-.41-.99-1.02z" style="fill:#00aeef"/><path d="m.93-44.18 1.54-.41-.99-1.02z" style="fill:none"/><path d="m12.3-62.11-1.19-.82-.12 1.28z" style="fill:#00aeef"/><path d="m12.3-62.11-1.19-.82-.12 1.28z" style="fill:none"/><path d="m13.92-59.58-.1-1.42-1.35.74z" style="fill:#00aeef"/><path d="m13.92-59.58-.1-1.42-1.35.74z" style="fill:none"/><path d="m6.95-65.07.99 1.04.38-1.23z" style="fill:#00aeef"/><path d="m6.95-65.07.99 1.04.38-1.23z" style="fill:none"/><path d="m4.38-60.72-.11 1.53 1.36-.84z" style="fill:#00aeef"/><path d="m4.38-60.72-.11 1.53 1.36-.84z" style="fill:none"/><path d="m13.11-56.03.52-1.52-1.41.26z" style="fill:#00aeef"/><path d="m13.11-56.03.52-1.52-1.41.26z" style="fill:none"/><path d="m15.16-55.73 1.53.18-.79-1.4z" style="fill:#00aeef"/><path d="m15.16-55.73 1.53.18-.79-1.4z" style="fill:none"/><path d="m19.92-55.54-1.25-.9.01 1.6z" style="fill:#00aeef"/><path d="m19.92-55.54-1.25-.9.01 1.6z" style="fill:none"/><path d="m21.39-53.82-1.25.68 1.23.92z" style="fill:#00aeef"/><path d="m21.39-53.82-1.25.68 1.23.92z" style="fill:none"/><path d="m18.9-49.81.54-1.34-1.28.17z" style="fill:#00aeef"/><path d="m18.9-49.81.54-1.34-1.28.17z" style="fill:none"/><path d="m2.29-55.44 1.7.17-.9-1.54z" style="fill:#00aeef"/><path d="m2.29-55.44 1.7.17-.9-1.54z" style="fill:none"/><path d="M10.44-53.16 11.8-54l-1.25-.69z" style="fill:#00aeef"/><path d="M10.44-53.16 11.8-54l-1.25-.69z" style="fill:none"/><path d="m16.98-47.12 1.23-.76-1.13-.62z" style="fill:#00aeef"/><path d="m16.98-47.12 1.23-.76-1.13-.62z" style="fill:none"/><path d="m12.75-45.85-1.36.2 1.01 1.03z" style="fill:#00aeef"/><path d="m12.75-45.85-1.36.2 1.01 1.03z" style="fill:none"/><path d="m5.51-45.15 1.57.3-.45-1.35z" style="fill:#00aeef"/><path d="m5.51-45.15 1.57.3-.45-1.35z" style="fill:none"/><path d="m12.83-50.21-.62-1.29-.98 1.18z" style="fill:#00aeef"/><path d="m12.83-50.21-.62-1.29-.98 1.18z" style="fill:none"/><path d="m14.87-53.12.45 1.46.97-1.28z" style="fill:#00aeef"/><path d="m14.87-53.12.45 1.46.97-1.28z" style="fill:none"/><path d="m14.35-48.7-1.16.75 1.35.52z" style="fill:#00aeef"/><path d="m14.35-48.7-1.16.75 1.35.52z" style="fill:none"/><path d="m3.26-49.42-.21 1.53 1.41-.76z" style="fill:#00aeef"/><path d="m3.26-49.42-.21 1.53 1.41-.76z" style="fill:none"/><path d="m7.99-49.18 1.58-.3-.93-1.09z" style="fill:#00aeef"/><path d="m7.99-49.18 1.58-.3-.93-1.09z" style="fill:none"/><path d="m10.06-47.19-1.43-.01.62 1.4z" style="fill:#00aeef"/><path d="m10.06-47.19-1.43-.01.62 1.4z" style="fill:none"/><path d="m16.47-61.43.07 1.71 1.4-1.1z" style="fill:#00aeef"/><path d="m16.47-61.43.07 1.71 1.4-1.1z" style="fill:none"/><path d="m7.99-62.51-.91 1.24 1.6.01z" style="fill:#00aeef"/><path d="m7.99-62.51-.91 1.24 1.6.01z" style="fill:none"/><path d="m9.4-59.05.57 1.5.91-1.1z" style="fill:#00aeef"/><path d="m9.4-59.05.57 1.5.91-1.1z" style="fill:none"/><path d="m7.84-52.89.08-1.54-1.34.87z" style="fill:#00aeef"/><path d="m7.84-52.89.08-1.54-1.34.87z" style="fill:none"/><path d="m6.88-58.41-.85 1.15 1.51.32z" style="fill:#00aeef"/><path d="m6.88-58.41-.85 1.15 1.51.32z" style="fill:none"/><path d="m4.71-51.52.88 1.13.71-1.36z" style="fill:#00aeef"/><path d="m4.71-51.52.88 1.13.71-1.36z" style="fill:none"/><path d="m2.8-53.18-1.6-.06.65 1.27z" style="fill:#00aeef"/><path d="m2.8-53.18-1.6-.06.65 1.27z" style="fill:none"/><path d="m20.92-58.6-1.22-1.02-.45 1.65z" style="fill:#00aeef"/><path d="m20.92-58.6-1.22-1.02-.45 1.65z" style="fill:none"/><path d="m.78-61.79 1.49-.11-.87-1.15z" style="fill:#00aeef"/><path d="m.78-61.79 1.49-.11-.87-1.15z" style="fill:none"/><path d="m.77-58.37 1.4.52-.31-1.41z" style="fill:#00aeef"/><path d="m.77-58.37 1.4.52-.31-1.41z" style="fill:none"/><path d="m23.18-49.02-.59-1.15-.85 1.09z" style="fill:#00aeef"/><path d="m23.18-49.02-.59-1.15-.85 1.09z" style="fill:none"/><path d="m40.34-62.7.66 1.17.75-1.42z" style="fill:#00aeef"/><path d="m40.34-62.7.66 1.17.75-1.42z" style="fill:none"/><path d="m25.26-63.02-.04-1.51-1.35.99z" style="fill:#00aeef"/><path d="m25.26-63.02-.04-1.51-1.35.99z" style="fill:none"/><path d="m40.07-44.25 1.54-.41-1.14-.86z" style="fill:#00aeef"/><path d="m40.07-44.25 1.54-.41-1.14-.86z" style="fill:none"/><path d="m42.67-46.15.39-1.59-1.33.51z" style="fill:#00aeef"/><path d="m42.67-46.15.39-1.59-1.33.51z" style="fill:none"/><path d="m23.45-44.66 1.55-.41-1-1.02z" style="fill:#00aeef"/><path d="m23.45-44.66 1.55-.41-1-1.02z" style="fill:none"/><path d="m34.89-63.33-1.32-.92-.13 1.42z" style="fill:#00aeef"/><path d="m34.89-63.33-1.32-.92-.13 1.42z" style="fill:none"/><path d="m35.78-59.47-.09-1.43-1.35.74z" style="fill:#00aeef"/><path d="m35.78-59.47-.09-1.43-1.35.74z" style="fill:none"/><path d="m29.28-63.62-1.52.21 1.1 1.16z" style="fill:#00aeef"/><path d="m29.28-63.62-1.52.21 1.1 1.16z" style="fill:none"/><path d="m26.16-60.66-.12 1.54 1.37-.84z" style="fill:#00aeef"/><path d="m26.16-60.66-.12 1.54 1.37-.84z" style="fill:none"/><path d="m35-56.47-1.4.26.88 1.25z" style="fill:#00aeef"/><path d="m35-56.47-1.4.26.88 1.25z" style="fill:none"/><path d="m36.57-56.19 1.53.18-.79-1.4z" style="fill:#00aeef"/><path d="m36.57-56.19 1.53.18-.79-1.4z" style="fill:none"/><path d="m41.66-56.03-1.25-.9.01 1.61z" style="fill:#00aeef"/><path d="m41.66-56.03-1.25-.9.01 1.61z" style="fill:none"/><path d="m42.23-52.57.02-1.61-1.25.69z" style="fill:#00aeef"/><path d="m42.23-52.57.02-1.61-1.25.69z" style="fill:none"/><path d="m40.27-51.19-1.28.17.74 1.17z" style="fill:#00aeef"/><path d="m40.27-51.19-1.28.17.74 1.17z" style="fill:none"/><path d="m23.36-55.01 1.7.17-.9-1.54z" style="fill:#00aeef"/><path d="m23.36-55.01 1.7.17-.9-1.54z" style="fill:none"/><path d="m32.9-53.53-1.25-.69-.12 1.53z" style="fill:#00aeef"/><path d="m32.9-53.53-1.25-.69-.12 1.53z" style="fill:none"/><path d="m38.89-47.68-1.25-.69-.12 1.53z" style="fill:#00aeef"/><path d="m38.89-47.68-1.25-.69-.12 1.53z" style="fill:none"/><path d="m33.07-45.11 1.12 1.14.4-1.37z" style="fill:#00aeef"/><path d="m33.07-45.11 1.12 1.14.4-1.37z" style="fill:none"/><path d="m27.23-44.32 1.57.31-.45-1.36z" style="fill:#00aeef"/><path d="m27.23-44.32 1.57.31-.45-1.36z" style="fill:none"/><path d="m33.14-50.6 1.6.11-.62-1.29z" style="fill:#00aeef"/><path d="m33.14-50.6 1.6.11-.62-1.29z" style="fill:none"/><path d="m36.49-52.94.46 1.47.96-1.28z" style="fill:#00aeef"/><path d="m36.49-52.94.46 1.47.96-1.28z" style="fill:none"/><path d="m35.64-47.2-.2-1.41-1.29.83z" style="fill:#00aeef"/><path d="m35.64-47.2-.2-1.41-1.29.83z" style="fill:none"/><path d="m25.35-47.24 1.42-.76-1.21-.77z" style="fill:#00aeef"/><path d="m25.35-47.24 1.42-.76-1.21-.77z" style="fill:none"/><path d="m29.64-48.65 1.57-.3-.92-1.09z" style="fill:#00aeef"/><path d="m29.64-48.65 1.57-.3-.92-1.09z" style="fill:none"/><path d="m30.22-46.63.62 1.41.8-1.39z" style="fill:#00aeef"/><path d="m30.22-46.63.62 1.41.8-1.39z" style="fill:none"/><path d="m38.17-61.49.06 1.53 1.26-.99z" style="fill:#00aeef"/><path d="m38.17-61.49.06 1.53 1.26-.99z" style="fill:none"/><path d="m32.14-60.74-.69-1.25-.91 1.24z" style="fill:#00aeef"/><path d="m32.14-60.74-.69-1.25-.91 1.24z" style="fill:none"/><path d="m32.55-58.54-1.48-.41.56 1.5z" style="fill:#00aeef"/><path d="m32.55-58.54-1.48-.41.56 1.5z" style="fill:none"/><path d="m28.68-54.63-1.35.87 1.27.66z" style="fill:#00aeef"/><path d="m28.68-54.63-1.35.87 1.27.66z" style="fill:none"/><path d="M29.2-56.54 28.55-58l-.85 1.15z" style="fill:#00aeef"/><path d="M29.2-56.54 28.55-58l-.85 1.15z" style="fill:none"/><path d="m26.96-50.78.88 1.13.7-1.37z" style="fill:#00aeef"/><path d="m26.96-50.78.88 1.13.7-1.37z" style="fill:none"/><path d="m25.32-52.34-1.6-.06.66 1.27z" style="fill:#00aeef"/><path d="m25.32-52.34-1.6-.06.66 1.27z" style="fill:none"/><path d="m43.05-58.63-1.09-.92-.41 1.48z" style="fill:#00aeef"/><path d="m43.05-58.63-1.09-.92-.41 1.48z" style="fill:none"/><path d="m22.11-62.75-.68 1.41 1.66-.13z" style="fill:#00aeef"/><path d="m22.11-62.75-.68 1.41 1.66-.13z" style="fill:none"/><path d="m24.01-57.89-.35-1.57-1.21.99z" style="fill:#00aeef"/><path d="m24.01-57.89-.35-1.57-1.21.99z" style="fill:none"/><path d="m16.33-86.61-1.14.89-.03-.89M38-86.61l-1.14.89-.03-.89M16.38-43.69l-1.42-.11.53 1.44z" style="fill:#00aeef"/><path d="m16.38-43.69-1.42-.11.53 1.44z" style="fill:none"/><path d="m36.37-42.84 1.6.01-.69-1.25z" style="fill:#00aeef"/><path d="m36.37-42.84 1.6.01-.69-1.25z" style="fill:none"/><path d="m63.5-85.15-1.41.25.67 1.17z" style="fill:#00aeef"/><path d="m63.5-85.15-1.41.25.67 1.17z" style="fill:none"/><path d="m46.86-85.13-.04-1.36-1.21.88z" style="fill:#00aeef"/><path d="m46.86-85.13-.04-1.36-1.21.88z" style="fill:none"/><path d="m62.16-66.36-1.15-.86-.4 1.28z" style="fill:#00aeef"/><path d="m62.16-66.36-1.15-.86-.4 1.28z" style="fill:none"/><path d="m63.34-68.2.94 1.08.39-1.58z" style="fill:#00aeef"/><path d="m63.34-68.2.94 1.08.39-1.58z" style="fill:none"/><path d="m44.49-65.92 1.55-.41-1-1.02z" style="fill:#00aeef"/><path d="m44.49-65.92 1.55-.41-1-1.02z" style="fill:none"/><path d="m56.08-85.27-1.31-.91-.14 1.42z" style="fill:#00aeef"/><path d="m56.08-85.27-1.31-.91-.14 1.42z" style="fill:none"/><path d="m57.45-82.23-.1-1.42-1.35.73z" style="fill:#00aeef"/><path d="m57.45-82.23-.1-1.42-1.35.73z" style="fill:none"/><path d="m50.7-85.66-1.53.21 1.11 1.16z" style="fill:#00aeef"/><path d="m50.7-85.66-1.53.21 1.11 1.16z" style="fill:none"/><path d="m47.99-82.84-.11 1.53 1.37-.84z" style="fill:#00aeef"/><path d="m47.99-82.84-.11 1.53 1.37-.84z" style="fill:none"/><path d="m56.94-79.38-1.57.29.98 1.39z" style="fill:#00aeef"/><path d="m56.94-79.38-1.57.29.98 1.39z" style="fill:none"/><path d="m58.98-78.08-.74 1.22 1.53.18z" style="fill:#00aeef"/><path d="m58.98-78.08-.74 1.22 1.53.18z" style="fill:none"/><path d="m61.97-78.39.01 1.6 1.24-.71z" style="fill:#00aeef"/><path d="m61.97-78.39.01 1.6 1.24-.71z" style="fill:none"/><path d="m64.36-75.35-1.26.68 1.23.92z" style="fill:#00aeef"/><path d="m64.36-75.35-1.26.68 1.23.92z" style="fill:none"/><path d="m60.66-72.24.82 1.3.59-1.49z" style="fill:#00aeef"/><path d="m60.66-72.24.82 1.3.59-1.49z" style="fill:none"/><path d="m46.94-76.38-.9-1.54-.8 1.38z" style="fill:#00aeef"/><path d="m46.94-76.38-.9-1.54-.8 1.38z" style="fill:none"/><path d="m53.41-76.52-.12 1.53 1.37-.84z" style="fill:#00aeef"/><path d="m53.41-76.52-.12 1.53 1.37-.84z" style="fill:none"/><path d="m59.08-69.63-.11 1.53 1.36-.84z" style="fill:#00aeef"/><path d="m59.08-69.63-.11 1.53 1.36-.84z" style="fill:none"/><path d="m53.79-66.29 1.13 1.15.39-1.38z" style="fill:#00aeef"/><path d="m53.79-66.29 1.13 1.15.39-1.38z" style="fill:none"/><path d="m50.07-67.02-.45-1.36-1.12 1.05z" style="fill:#00aeef"/><path d="m50.07-67.02-.45-1.36-1.12 1.05z" style="fill:none"/><path d="m54.7-72 1.78.12-.69-1.44z" style="fill:#00aeef"/><path d="m54.7-72 1.78.12-.69-1.44z" style="fill:none"/><path d="m58-74.81.46 1.46.96-1.28z" style="fill:#00aeef"/><path d="m58-74.81.46 1.46.96-1.28z" style="fill:none"/><path d="m56.69-68.33-.21-1.42-1.29.84z" style="fill:#00aeef"/><path d="m56.69-68.33-.21-1.42-1.29.84z" style="fill:none"/><path d="m46.87-70.57-.21 1.52 1.41-.75z" style="fill:#00aeef"/><path d="m46.87-70.57-.21 1.52 1.41-.75z" style="fill:none"/><path d="m51.54-70.64 1.57-.29-.92-1.1z" style="fill:#00aeef"/><path d="m51.54-70.64 1.57-.29-.92-1.1z" style="fill:none"/><path d="m53.39-68.86-1.43-.02.63 1.41z" style="fill:#00aeef"/><path d="m53.39-68.86-1.43-.02.63 1.41z" style="fill:none"/><path d="m61.12-82.44-1.32-.55.06 1.54z" style="fill:#00aeef"/><path d="m61.12-82.44-1.32-.55.06 1.54z" style="fill:none"/><path d="m53.76-82.51-.69-1.24-.91 1.23z" style="fill:#00aeef"/><path d="m53.76-82.51-.69-1.24-.91 1.23z" style="fill:none"/><path d="m52.11-80.72.56 1.5.92-1.09z" style="fill:#00aeef"/><path d="m52.11-80.72.56 1.5.92-1.09z" style="fill:none"/><path d="m50.93-76.51-1.34.87 1.26.66z" style="fill:#00aeef"/><path d="m50.93-76.51-1.34.87 1.26.66z" style="fill:none"/><path d="m48.38-78.52 1.67.35-.73-1.63z" style="fill:#00aeef"/><path d="m48.38-78.52 1.67.35-.73-1.63z" style="fill:none"/><path d="m49.94-73.08-1.59.23.88 1.13z" style="fill:#00aeef"/><path d="m49.94-73.08-1.59.23.88 1.13z" style="fill:none"/><path d="m46.45-74.33-1.6-.05.66 1.27z" style="fill:#00aeef"/><path d="m46.45-74.33-1.6-.05.66 1.27z" style="fill:none"/><path d="m64.18-80.28-1.09-.92-.41 1.48z" style="fill:#00aeef"/><path d="m64.18-80.28-1.09-.92-.41 1.48z" style="fill:none"/><path d="m45.38-82.85-.88-1.14-.62 1.26z" style="fill:#00aeef"/><path d="m45.38-82.85-.88-1.14-.62 1.26z" style="fill:none"/><path d="m45.31-81.09-1.21.99 1.56.58z" style="fill:#00aeef"/><path d="m45.31-81.09-1.21.99 1.56.58z" style="fill:none"/><path d="m65.4-71.78-.95 1.21 1.6.06z" style="fill:#00aeef"/><path d="m65.4-71.78-.95 1.21 1.6.06z" style="fill:none"/><path d="m57.69-64.95.06 1.38 1.13-.89z" style="fill:#00aeef"/><path d="m57.69-64.95.06 1.38 1.13-.89z" style="fill:none"/><path d="m85.17-85.15-1.41.25.67 1.17z" style="fill:#00aeef"/><path d="m85.17-85.15-1.41.25.67 1.17z" style="fill:none"/><path d="m68.62-85.04-.04-1.51-1.35.98z" style="fill:#00aeef"/><path d="m68.62-85.04-.04-1.51-1.35.98z" style="fill:none"/><path d="m83.69-64.87 1.4-.38-1.03-.77z" style="fill:#00aeef"/><path d="m83.69-64.87 1.4-.38-1.03-.77z" style="fill:none"/><path d="m86.36-69.09-1.33.51.94 1.08z" style="fill:#00aeef"/><path d="m86.36-69.09-1.33.51.94 1.08z" style="fill:none"/><path d="m66.17-66.08 1.55-.42-1-1.02z" style="fill:#00aeef"/><path d="m66.17-66.08 1.55-.42-1-1.02z" style="fill:none"/><path d="m77.24-85.2-1.32-.92-.14 1.43z" style="fill:#00aeef"/><path d="m77.24-85.2-1.32-.92-.14 1.43z" style="fill:none"/><path d="m79.52-81.19-.1-1.43-1.35.74z" style="fill:#00aeef"/><path d="m79.52-81.19-.1-1.43-1.35.74z" style="fill:none"/><path d="m72.37-85.66-1.52.21 1.1 1.16z" style="fill:#00aeef"/><path d="m72.37-85.66-1.52.21 1.1 1.16z" style="fill:none"/><path d="m69.66-82.74-.11 1.53 1.36-.84z" style="fill:#00aeef"/><path d="m69.66-82.74-.11 1.53 1.36-.84z" style="fill:none"/><path d="m78.97-79.43-1.41.26.88 1.26z" style="fill:#00aeef"/><path d="m78.97-79.43-1.41.26.88 1.26z" style="fill:none"/><path d="m80.7-78.01-.74 1.22 1.53.18z" style="fill:#00aeef"/><path d="m80.7-78.01-.74 1.22 1.53.18z" style="fill:none"/><path d="M83.32-78.03v1.6l1.25-.71z" style="fill:#00aeef"/><path d="M83.32-78.03v1.6l1.25-.71z" style="fill:none"/><path d="m85.12-75.32 1.23.92.02-1.61z" style="fill:#00aeef"/><path d="m85.12-75.32 1.23.92.02-1.61z" style="fill:none"/><path d="m82.54-72.88.82 1.3.6-1.49z" style="fill:#00aeef"/><path d="m82.54-72.88.82 1.3.6-1.49z" style="fill:none"/><path d="m68.69-76.46-.9-1.54-.8 1.38z" style="fill:#00aeef"/><path d="m68.69-76.46-.9-1.54-.8 1.38z" style="fill:none"/><path d="m75.48-76.45-.11 1.54 1.36-.84z" style="fill:#00aeef"/><path d="m75.48-76.45-.11 1.54 1.36-.84z" style="fill:none"/><path d="m83.17-68.63-1.13-.62-.1 1.37z" style="fill:#00aeef"/><path d="m83.17-68.63-1.13-.62-.1 1.37z" style="fill:none"/><path d="m76.5-67.08 1.12 1.14.4-1.37z" style="fill:#00aeef"/><path d="m76.5-67.08 1.12 1.14.4-1.37z" style="fill:none"/><path d="m70.1-66.21 1.58.3-.45-1.35z" style="fill:#00aeef"/><path d="m70.1-66.21 1.58.3-.45-1.35z" style="fill:none"/><path d="m77.49-72.33-.61-1.29-.98 1.18z" style="fill:#00aeef"/><path d="m77.49-72.33-.61-1.29-.98 1.18z" style="fill:none"/><path d="m79.34-74.48.46 1.46.96-1.28z" style="fill:#00aeef"/><path d="m79.34-74.48.46 1.46.96-1.28z" style="fill:none"/><path d="m79.82-69.26-.2-1.67-1.24.98z" style="fill:#00aeef"/><path d="m79.82-69.26-.2-1.67-1.24.98z" style="fill:none"/><path d="m68.91-70.63-.21 1.52 1.42-.75z" style="fill:#00aeef"/><path d="m68.91-70.63-.21 1.52 1.42-.75z" style="fill:none"/><path d="m73.89-70.26 1.58-.3-.92-1.09z" style="fill:#00aeef"/><path d="m73.89-70.26 1.58-.3-.92-1.09z" style="fill:none"/><path d="m73.53-68.32.62 1.4.81-1.38z" style="fill:#00aeef"/><path d="m73.53-68.32.62 1.4.81-1.38z" style="fill:none"/><path d="m82.86-82.48-1.32-.55.06 1.54z" style="fill:#00aeef"/><path d="m82.86-82.48-1.32-.55.06 1.54z" style="fill:none"/><path d="m75.52-82.61-.69-1.25-.91 1.24z" style="fill:#00aeef"/><path d="m75.52-82.61-.69-1.25-.91 1.24z" style="fill:none"/><path d="m75.52-79.73-1.48-.4.56 1.5z" style="fill:#00aeef"/><path d="m75.52-79.73-1.48-.4.56 1.5z" style="fill:none"/><path d="m72.62-76.5-1.35.86 1.27.67z" style="fill:#00aeef"/><path d="m72.62-76.5-1.35.86 1.27.67z" style="fill:none"/><path d="m71.72-78.17-.73-1.63-.94 1.28z" style="fill:#00aeef"/><path d="m71.72-78.17-.73-1.63-.94 1.28z" style="fill:none"/><path d="m72.15-72.89-1.59.23.88 1.13z" style="fill:#00aeef"/><path d="m72.15-72.89-1.59.23.88 1.13z" style="fill:none"/><path d="m68.2-74.31-1.6-.06.65 1.27z" style="fill:#00aeef"/><path d="m68.2-74.31-1.6-.06.65 1.27z" style="fill:none"/><path d="m85.82-80.19-1.09-.92-.41 1.48z" style="fill:#00aeef"/><path d="m85.82-80.19-1.09-.92-.41 1.48z" style="fill:none"/><path d="m67.01-82.91-.88-1.15-.61 1.26z" style="fill:#00aeef"/><path d="m67.01-82.91-.88-1.15-.61 1.26z" style="fill:none"/><path d="m66.94-81.05-1.09.89 1.4.52z" style="fill:#00aeef"/><path d="m66.94-81.05-1.09.89 1.4.52z" style="fill:none"/><path d="m80.24-65.76.06 1.54 1.26-.99z" style="fill:#00aeef"/><path d="m80.24-65.76.06 1.54 1.26-.99z" style="fill:none"/><path d="m86.61-72.08-.8 1.03.8.03" style="fill:#00aeef"/><path d="m86.61-72.08-.8 1.03.8.03" style="fill:none"/><path d="m86.61-50.44-.8 1.02.8.03" style="fill:#00aeef"/><path d="m86.61-50.44-.8 1.02.8.03" style="fill:none"/><path d="m62.94-63.99-1.57.29.73 1.29z" style="fill:#00aeef"/><path d="m62.94-63.99-1.57.29.73 1.29z" style="fill:none"/><path d="m47.52-63.62-.03-1.36-1.21.88z" style="fill:#00aeef"/><path d="m47.52-63.62-.03-1.36-1.21.88z" style="fill:none"/><path d="m61.68-44.33 1.39-.37-1.03-.78z" style="fill:#00aeef"/><path d="m61.68-44.33 1.39-.37-1.03-.78z" style="fill:none"/><path d="m64.58-46.14.35-1.43-1.2.46z" style="fill:#00aeef"/><path d="m64.58-46.14.35-1.43-1.2.46z" style="fill:none"/><path d="m44.33-44.52 1.55-.41-1-1.02z" style="fill:#00aeef"/><path d="m44.33-44.52 1.55-.41-1-1.02z" style="fill:none"/><path d="m55.62-62.11-1.18-.82-.12 1.28z" style="fill:#00aeef"/><path d="m55.62-62.11-1.18-.82-.12 1.28z" style="fill:none"/><path d="M57.24-59.58 57.15-61l-1.35.74z" style="fill:#00aeef"/><path d="M57.24-59.58 57.15-61l-1.35.74z" style="fill:none"/><path d="m50.27-65.07 1 1.04.38-1.23z" style="fill:#00aeef"/><path d="m50.27-65.07 1 1.04.38-1.23z" style="fill:none"/><path d="m47.71-60.72-.11 1.53 1.36-.84z" style="fill:#00aeef"/><path d="m47.71-60.72-.11 1.53 1.36-.84z" style="fill:none"/><path d="m56.44-56.03.52-1.52-1.41.26z" style="fill:#00aeef"/><path d="m56.44-56.03.52-1.52-1.41.26z" style="fill:none"/><path d="m58.49-55.73 1.53.18-.79-1.4z" style="fill:#00aeef"/><path d="m58.49-55.73 1.53.18-.79-1.4z" style="fill:none"/><path d="m63.25-55.54-1.25-.9.01 1.6z" style="fill:#00aeef"/><path d="m63.25-55.54-1.25-.9.01 1.6z" style="fill:none"/><path d="m64.72-53.82-1.25.68 1.23.92z" style="fill:#00aeef"/><path d="m64.72-53.82-1.25.68 1.23.92z" style="fill:none"/><path d="m62.23-49.81.54-1.34-1.28.17z" style="fill:#00aeef"/><path d="m62.23-49.81.54-1.34-1.28.17z" style="fill:none"/><path d="m45.62-55.44 1.7.17-.9-1.54z" style="fill:#00aeef"/><path d="m45.62-55.44 1.7.17-.9-1.54z" style="fill:none"/><path d="m53.77-53.16 1.36-.84-1.25-.69z" style="fill:#00aeef"/><path d="m53.77-53.16 1.36-.84-1.25-.69z" style="fill:none"/><path d="m60.31-47.12 1.23-.76-1.13-.62z" style="fill:#00aeef"/><path d="m60.31-47.12 1.23-.76-1.13-.62z" style="fill:none"/><path d="m56.29-45.67-1.37.21 1.01 1.03z" style="fill:#00aeef"/><path d="m56.29-45.67-1.37.21 1.01 1.03z" style="fill:none"/><path d="m48.11-44.85 1.57.31-.45-1.36z" style="fill:#00aeef"/><path d="m48.11-44.85 1.57.31-.45-1.36z" style="fill:none"/><path d="m56.16-50.21-.62-1.29-.98 1.18z" style="fill:#00aeef"/><path d="m56.16-50.21-.62-1.29-.98 1.18z" style="fill:none"/><path d="m58.2-53.12.45 1.46.96-1.28z" style="fill:#00aeef"/><path d="m58.2-53.12.45 1.46.96-1.28z" style="fill:none"/><path d="m57.68-48.7-1.16.75 1.34.52z" style="fill:#00aeef"/><path d="m57.68-48.7-1.16.75 1.34.52z" style="fill:none"/><path d="m46.59-49.42-.21 1.53 1.41-.76z" style="fill:#00aeef"/><path d="m46.59-49.42-.21 1.53 1.41-.76z" style="fill:none"/><path d="m51.28-48.68 1.58-.3-.92-1.09z" style="fill:#00aeef"/><path d="m51.28-48.68 1.58-.3-.92-1.09z" style="fill:none"/><path d="m51.39-46.75.62 1.41.8-1.39z" style="fill:#00aeef"/><path d="m51.39-46.75.62 1.41.8-1.39z" style="fill:none"/><path d="m59.8-61.43.07 1.71 1.4-1.1z" style="fill:#00aeef"/><path d="m59.8-61.43.07 1.71 1.4-1.1z" style="fill:none"/><path d="m51.31-62.51-.9 1.24 1.6.01z" style="fill:#00aeef"/><path d="m51.31-62.51-.9 1.24 1.6.01z" style="fill:none"/><path d="m52.73-59.05.57 1.5.91-1.1z" style="fill:#00aeef"/><path d="m52.73-59.05.57 1.5.91-1.1z" style="fill:none"/><path d="m51.17-52.89.08-1.54-1.34.87z" style="fill:#00aeef"/><path d="m51.17-52.89.08-1.54-1.34.87z" style="fill:none"/><path d="m50.21-58.41-.85 1.15 1.51.32z" style="fill:#00aeef"/><path d="m50.21-58.41-.85 1.15 1.51.32z" style="fill:none"/><path d="m48.04-51.52.88 1.13.7-1.36z" style="fill:#00aeef"/><path d="m48.04-51.52.88 1.13.7-1.36z" style="fill:none"/><path d="m46.2-53.78-1.6-.06.66 1.27z" style="fill:#00aeef"/><path d="m46.2-53.78-1.6-.06.66 1.27z" style="fill:none"/><path d="m64.24-58.6-1.21-1.02-.46 1.65z" style="fill:#00aeef"/><path d="m64.24-58.6-1.21-1.02-.46 1.65z" style="fill:none"/><path d="m44.11-61.79 1.49-.11-.88-1.15z" style="fill:#00aeef"/><path d="m44.11-61.79 1.49-.11-.88-1.15z" style="fill:none"/><path d="m44.18-59.19 1.4.52-.31-1.41z" style="fill:#00aeef"/><path d="m44.18-59.19 1.4.52-.31-1.41z" style="fill:none"/><path d="m64.71-49.2 1.44.05-.59-1.14z" style="fill:#00aeef"/><path d="m64.71-49.2 1.44.05-.59-1.14z" style="fill:none"/><path d="m85.08-62.95-1.41.25.66 1.17z" style="fill:#00aeef"/><path d="m85.08-62.95-1.41.25.66 1.17z" style="fill:none"/><path d="m68.58-63.02-.03-1.51-1.35.99z" style="fill:#00aeef"/><path d="m68.58-63.02-.03-1.51-1.35.99z" style="fill:none"/><path d="m84.34-44.81-1.15-.87-.4 1.28z" style="fill:#00aeef"/><path d="m84.34-44.81-1.15-.87-.4 1.28z" style="fill:none"/><path d="m86-46.15.39-1.59-1.33.51z" style="fill:#00aeef"/><path d="m86-46.15.39-1.59-1.33.51z" style="fill:none"/><path d="m67.91-44.73-1-1.02-.55 1.43z" style="fill:#00aeef"/><path d="m67.91-44.73-1-1.02-.55 1.43z" style="fill:none"/><path d="m78.22-63.33-1.32-.92-.13 1.42z" style="fill:#00aeef"/><path d="m78.22-63.33-1.32-.92-.13 1.42z" style="fill:none"/><path d="m79.11-59.47-.09-1.43-1.35.74z" style="fill:#00aeef"/><path d="m79.11-59.47-.09-1.43-1.35.74z" style="fill:none"/><path d="m72.61-63.62-1.53.21 1.11 1.16z" style="fill:#00aeef"/><path d="m72.61-63.62-1.53.21 1.11 1.16z" style="fill:none"/><path d="m69.48-60.66-.11 1.54 1.36-.84z" style="fill:#00aeef"/><path d="m69.48-60.66-.11 1.54 1.36-.84z" style="fill:none"/><path d="m78.33-56.47-1.4.26.88 1.25z" style="fill:#00aeef"/><path d="m78.33-56.47-1.4.26.88 1.25z" style="fill:none"/><path d="m79.9-56.19 1.53.18-.79-1.4z" style="fill:#00aeef"/><path d="m79.9-56.19 1.53.18-.79-1.4z" style="fill:none"/><path d="m84.99-56.03-1.25-.9.01 1.61z" style="fill:#00aeef"/><path d="m84.99-56.03-1.25-.9.01 1.61z" style="fill:none"/><path d="m85.58-54.18-1.26.69 1.24.92z" style="fill:#00aeef"/><path d="m85.58-54.18-1.26.69 1.24.92z" style="fill:none"/><path d="m83.6-51.19-1.28.17.74 1.17z" style="fill:#00aeef"/><path d="m83.6-51.19-1.28.17.74 1.17z" style="fill:none"/><path d="m68.39-54.84-.9-1.54-.8 1.37z" style="fill:#00aeef"/><path d="m68.39-54.84-.9-1.54-.8 1.37z" style="fill:none"/><path d="m76.23-53.53-1.25-.69-.12 1.53z" style="fill:#00aeef"/><path d="m76.23-53.53-1.25-.69-.12 1.53z" style="fill:none"/><path d="m80.97-48.37-.12 1.53 1.37-.84z" style="fill:#00aeef"/><path d="m80.97-48.37-.12 1.53 1.37-.84z" style="fill:none"/><path d="m77.52-43.97.39-1.37-1.51.23z" style="fill:#00aeef"/><path d="m77.52-43.97.39-1.37-1.51.23z" style="fill:none"/><path d="m70.35-44.59 1.58.3-.46-1.35z" style="fill:#00aeef"/><path d="m70.35-44.59 1.58.3-.46-1.35z" style="fill:none"/><path d="m76.47-50.6 1.6.11-.62-1.29z" style="fill:#00aeef"/><path d="m76.47-50.6 1.6.11-.62-1.29z" style="fill:none"/><path d="m79.82-52.94.46 1.47.96-1.28z" style="fill:#00aeef"/><path d="m79.82-52.94.46 1.47.96-1.28z" style="fill:none"/><path d="m77.48-47.78 1.49.58-.2-1.41z" style="fill:#00aeef"/><path d="m77.48-47.78 1.49.58-.2-1.41z" style="fill:none"/><path d="m68.68-47.24 1.41-.76-1.2-.77z" style="fill:#00aeef"/><path d="m68.68-47.24 1.41-.76-1.2-.77z" style="fill:none"/><path d="m72.97-48.65 1.57-.3-.92-1.09z" style="fill:#00aeef"/><path d="m72.97-48.65 1.57-.3-.92-1.09z" style="fill:none"/><path d="m73.54-46.63.63 1.41.8-1.39z" style="fill:#00aeef"/><path d="m73.54-46.63.63 1.41.8-1.39z" style="fill:none"/><path d="m81.5-61.49.06 1.53 1.26-.99z" style="fill:#00aeef"/><path d="m81.5-61.49.06 1.53 1.26-.99z" style="fill:none"/><path d="m75.47-60.74-.69-1.25-.92 1.24z" style="fill:#00aeef"/><path d="m75.47-60.74-.69-1.25-.92 1.24z" style="fill:none"/><path d="m75.88-58.54-1.48-.41.56 1.5z" style="fill:#00aeef"/><path d="m75.88-58.54-1.48-.41.56 1.5z" style="fill:none"/><path d="m71.93-53.1.08-1.53-1.35.87z" style="fill:#00aeef"/><path d="m71.93-53.1.08-1.53-1.35.87z" style="fill:none"/><path d="M72.53-56.54 71.88-58l-.85 1.15z" style="fill:#00aeef"/><path d="M72.53-56.54 71.88-58l-.85 1.15z" style="fill:none"/><path d="m70.29-50.78.88 1.13.7-1.37z" style="fill:#00aeef"/><path d="m70.29-50.78.88 1.13.7-1.37z" style="fill:none"/><path d="m68.65-52.34-1.6-.06.66 1.27z" style="fill:#00aeef"/><path d="m68.65-52.34-1.6-.06.66 1.27z" style="fill:none"/><path d="m84.95-59.85-.41 1.48 1.5-.56z" style="fill:#00aeef"/><path d="m84.95-59.85-.41 1.48 1.5-.56z" style="fill:none"/><path d="m65.44-62.75-.68 1.41 1.66-.13z" style="fill:#00aeef"/><path d="m65.44-62.75-.68 1.41 1.66-.13z" style="fill:none"/><path d="m67.33-57.89-.34-1.57-1.22.99z" style="fill:#00aeef"/><path d="m67.33-57.89-.34-1.57-1.22.99z" style="fill:none"/><path d="m59.66-86.61-1.14.89-.03-.89M81.33-86.61l-1.14.89-.03-.89M58.12-42.7l1.58-.25-.89-1.12z" style="fill:#00aeef"/><path d="m58.12-42.7 1.58-.25-.89-1.12z" style="fill:none"/><path d="m81.59-43.84-1.42.22.85 1.28z" style="fill:#00aeef"/><path d="m81.59-43.84-1.42.22.85 1.28z" style="fill:none"/><path d="m0-28.83.09-.12.66 1.27-.75-.03M18.35-41.85l.66 1.16.75-1.41z" style="fill:#00aeef"/><path d="m18.35-41.85.66 1.16.75-1.41z" style="fill:none"/><path d="m2.28-42.29 1.25.47-.04-1.36z" style="fill:#00aeef"/><path d="m2.28-42.29 1.25.47-.04-1.36z" style="fill:none"/><path d="m17.28-22.63 1.55-.42-1.15-.86z" style="fill:#00aeef"/><path d="m17.28-22.63 1.55-.42-1.15-.86z" style="fill:none"/><path d="m20.01-24.89.94 1.08.39-1.58z" style="fill:#00aeef"/><path d="m20.01-24.89.94 1.08.39-1.58z" style="fill:none"/><path d="m2.72-23.02-1-1.02-.55 1.43z" style="fill:#00aeef"/><path d="m2.72-23.02-1-1.02-.55 1.43z" style="fill:none"/><path d="m12.75-41.95-1.31-.92-.14 1.42z" style="fill:#00aeef"/><path d="m12.75-41.95-1.31-.92-.14 1.42z" style="fill:none"/><path d="m14.12-38.92-.1-1.42-1.35.74z" style="fill:#00aeef"/><path d="m14.12-38.92-.1-1.42-1.35.74z" style="fill:none"/><path d="m5.85-42.14 1.1 1.16.42-1.37z" style="fill:#00aeef"/><path d="m5.85-42.14 1.1 1.16.42-1.37z" style="fill:none"/><path d="m5.92-38.84-1.25-.69L4.55-38z" style="fill:#00aeef"/><path d="m5.92-38.84-1.25-.69L4.55-38z" style="fill:none"/><path d="m13.61-36.07-1.56.29.98 1.4z" style="fill:#00aeef"/><path d="m13.61-36.07-1.56.29.98 1.4z" style="fill:none"/><path d="m16.5-34.07-.79-1.39-.74 1.22z" style="fill:#00aeef"/><path d="m16.5-34.07-.79-1.39-.74 1.22z" style="fill:none"/><path d="M20.27-34.11 19.02-35l.01 1.6z" style="fill:#00aeef"/><path d="M20.27-34.11 19.02-35l.01 1.6z" style="fill:none"/><path d="m19.77-31.36 1.23.92.03-1.6z" style="fill:#00aeef"/><path d="m19.77-31.36 1.23.92.03-1.6z" style="fill:none"/><path d="m18.74-29.12-1.41.19.82 1.3z" style="fill:#00aeef"/><path d="m18.74-29.12-1.41.19.82 1.3z" style="fill:none"/><path d="m3.61-33.07-.9-1.53-.79 1.37z" style="fill:#00aeef"/><path d="m3.61-33.07-.9-1.53-.79 1.37z" style="fill:none"/><path d="m11.33-32.52-1.25-.69-.11 1.53z" style="fill:#00aeef"/><path d="m11.33-32.52-1.25-.69-.11 1.53z" style="fill:none"/><path d="m15.64-24.79 1.36-.84-1.25-.69z" style="fill:#00aeef"/><path d="m15.64-24.79 1.36-.84-1.25-.69z" style="fill:none"/><path d="m10.46-22.97 1.13 1.14.39-1.37z" style="fill:#00aeef"/><path d="m10.46-22.97 1.13 1.14.39-1.37z" style="fill:none"/><path d="m5.17-24.01 1.57.3-.45-1.35z" style="fill:#00aeef"/><path d="m5.17-24.01 1.57.3-.45-1.35z" style="fill:none"/><path d="m11.37-28.69 1.78.12-.68-1.43z" style="fill:#00aeef"/><path d="m11.37-28.69 1.78.12-.68-1.43z" style="fill:none"/><path d="m14.86-31.99.46 1.46.96-1.28z" style="fill:#00aeef"/><path d="m14.86-31.99.46 1.46.96-1.28z" style="fill:none"/><path d="m13.36-25.02-.21-1.41-1.29.83z" style="fill:#00aeef"/><path d="m13.36-25.02-.21-1.41-1.29.83z" style="fill:none"/><path d="m4.74-26.49-1.2-.77-.21 1.53z" style="fill:#00aeef"/><path d="m4.74-26.49-1.2-.77-.21 1.53z" style="fill:none"/><path d="m8.21-27.32 1.58-.3-.93-1.09z" style="fill:#00aeef"/><path d="m8.21-27.32 1.58-.3-.93-1.09z" style="fill:none"/><path d="m9.26-24.16.8-1.39-1.42-.01z" style="fill:#00aeef"/><path d="m9.26-24.16.8-1.39-1.42-.01z" style="fill:none"/><path d="m18.18-39.41-1.32-.55.06 1.54z" style="fill:#00aeef"/><path d="m18.18-39.41-1.32-.55.06 1.54z" style="fill:none"/><path d="m10.43-39.19-.69-1.25-.91 1.24z" style="fill:#00aeef"/><path d="m10.43-39.19-.69-1.25-.91 1.24z" style="fill:none"/><path d="m10.26-37-1.48-.4.57 1.5z" style="fill:#00aeef"/><path d="m10.26-37-1.48-.4.57 1.5z" style="fill:none"/><path d="m7.52-31.66.08-1.54-1.34.87z" style="fill:#00aeef"/><path d="m7.52-31.66.08-1.54-1.34.87z" style="fill:none"/><path d="m5.99-36.49-.94 1.28 1.67.35z" style="fill:#00aeef"/><path d="m5.99-36.49-.94 1.28 1.67.35z" style="fill:none"/><path d="m5.03-29.53.87 1.12.71-1.36z" style="fill:#00aeef"/><path d="m5.03-29.53.87 1.12.71-1.36z" style="fill:none"/><path d="m3.13-31.01-1.61-.06.66 1.27z" style="fill:#00aeef"/><path d="m3.13-31.01-1.61-.06.66 1.27z" style="fill:none"/><path d="m18.67-36.59 1.5-.57-1.1-.92z" style="fill:#00aeef"/><path d="m18.67-36.59 1.5-.57-1.1-.92z" style="fill:none"/><path d="m1.17-40.68-.62 1.26 1.5-.11z" style="fill:#00aeef"/><path d="m1.17-40.68-.62 1.26 1.5-.11z" style="fill:none"/><path d="m1.99-37.77-1.22.99 1.57.57z" style="fill:#00aeef"/><path d="m1.99-37.77-1.22.99 1.57.57z" style="fill:none"/><path d="m22.72-27.2-.65-1.27-.95 1.21z" style="fill:#00aeef"/><path d="m22.72-27.2-.65-1.27-.95 1.21z" style="fill:none"/><path d="m15.55-21.15-1.19-.49.06 1.38z" style="fill:#00aeef"/><path d="m15.55-21.15-1.19-.49.06 1.38z" style="fill:none"/><path d="m40.76-40.53.74-1.42-1.41.25z" style="fill:#00aeef"/><path d="m40.76-40.53.74-1.42-1.41.25z" style="fill:none"/><path d="m25.29-41.73-.04-1.51-1.35.98z" style="fill:#00aeef"/><path d="m25.29-41.73-.04-1.51-1.35.98z" style="fill:none"/><path d="m40.73-22.71-.37 1.15 1.4-.37z" style="fill:#00aeef"/><path d="m40.73-22.71-.37 1.15 1.4-.37z" style="fill:none"/><path d="m43.03-25.77-1.33.5.94 1.08z" style="fill:#00aeef"/><path d="m43.03-25.77-1.33.5.94 1.08z" style="fill:none"/><path d="m24.39-23.18-1-1.02-.55 1.43z" style="fill:#00aeef"/><path d="m24.39-23.18-1-1.02-.55 1.43z" style="fill:none"/><path d="m34.29-41.74-1.32-.91-.13 1.42z" style="fill:#00aeef"/><path d="m34.29-41.74-1.32-.91-.13 1.42z" style="fill:none"/><path d="m36.19-37.88-.1-1.42-1.35.73z" style="fill:#00aeef"/><path d="m36.19-37.88-.1-1.42-1.35.73z" style="fill:none"/><path d="m28.62-40.98.42-1.37-1.52.21z" style="fill:#00aeef"/><path d="m28.62-40.98.42-1.37-1.52.21z" style="fill:none"/><path d="m26.33-39.43-.11 1.53 1.36-.84z" style="fill:#00aeef"/><path d="m26.33-39.43-.11 1.53 1.36-.84z" style="fill:none"/><path d="m34.23-35.85.89 1.25.52-1.51z" style="fill:#00aeef"/><path d="m34.23-35.85.89 1.25.52-1.51z" style="fill:none"/><path d="m36.63-33.47 1.53.17-.79-1.4z" style="fill:#00aeef"/><path d="m36.63-33.47 1.53.17-.79-1.4z" style="fill:none"/><path d="M39.99-34.72v1.6l1.25-.71z" style="fill:#00aeef"/><path d="M39.99-34.72v1.6l1.25-.71z" style="fill:none"/><path d="m41.79-32.01 1.23.92.02-1.6z" style="fill:#00aeef"/><path d="m41.79-32.01 1.23.92.02-1.6z" style="fill:none"/><path d="m40.03-28.27.6-1.48-1.41.19z" style="fill:#00aeef"/><path d="m40.03-28.27.6-1.48-1.41.19z" style="fill:none"/><path d="m25.36-33.15-.9-1.54-.8 1.38z" style="fill:#00aeef"/><path d="m25.36-33.15-.9-1.54-.8 1.38z" style="fill:none"/><path d="m33.4-32.44-1.25-.69-.11 1.53z" style="fill:#00aeef"/><path d="m33.4-32.44-1.25-.69-.11 1.53z" style="fill:none"/><path d="m38.61-24.56 1.23-.76-1.13-.62z" style="fill:#00aeef"/><path d="m38.61-24.56 1.23-.76-1.13-.62z" style="fill:none"/><path d="m34.29-22.63.4-1.37-1.52.23z" style="fill:#00aeef"/><path d="m34.29-22.63.4-1.37-1.52.23z" style="fill:none"/><path d="m26.78-22.9 1.57.3-.45-1.35z" style="fill:#00aeef"/><path d="m26.78-22.9 1.57.3-.45-1.35z" style="fill:none"/><path d="m34.17-29.02-.62-1.29-.98 1.18z" style="fill:#00aeef"/><path d="m34.17-29.02-.62-1.29-.98 1.18z" style="fill:none"/><path d="m37.43-30.99-1.41-.18.45 1.47z" style="fill:#00aeef"/><path d="m37.43-30.99-1.41-.18.45 1.47z" style="fill:none"/><path d="m36.49-25.95-.2-1.67-1.24.99z" style="fill:#00aeef"/><path d="m36.49-25.95-.2-1.67-1.24.99z" style="fill:none"/><path d="m25.37-25.79 1.42-.76-1.21-.77z" style="fill:#00aeef"/><path d="m25.37-25.79 1.42-.76-1.21-.77z" style="fill:none"/><path d="m30.57-26.95 1.57-.3-.92-1.09z" style="fill:#00aeef"/><path d="m30.57-26.95 1.57-.3-.92-1.09z" style="fill:none"/><path d="m30.2-25.01.62 1.41.81-1.39z" style="fill:#00aeef"/><path d="m30.2-25.01.62 1.41.81-1.39z" style="fill:none"/><path d="m38.21-39.72.06 1.54 1.26-.99z" style="fill:#00aeef"/><path d="m38.21-39.72.06 1.54 1.26-.99z" style="fill:none"/><path d="m32.19-39.3-.69-1.25-.91 1.24z" style="fill:#00aeef"/><path d="m32.19-39.3-.69-1.25-.91 1.24z" style="fill:none"/><path d="m31.28-35.32.91-1.1-1.48-.4z" style="fill:#00aeef"/><path d="m31.28-35.32.91-1.1-1.48-.4z" style="fill:none"/><path d="m29.29-33.19-1.35.87 1.27.66z" style="fill:#00aeef"/><path d="m29.29-33.19-1.35.87 1.27.66z" style="fill:none"/><path d="m28.39-34.86-.72-1.63-.95 1.28z" style="fill:#00aeef"/><path d="m28.39-34.86-.72-1.63-.95 1.28z" style="fill:none"/><path d="m28.82-29.58-1.59.24.88 1.12z" style="fill:#00aeef"/><path d="m28.82-29.58-1.59.24.88 1.12z" style="fill:none"/><path d="m24.87-31-1.6-.06.66 1.27z" style="fill:#00aeef"/><path d="m24.87-31-1.6-.06.66 1.27z" style="fill:none"/><path d="m42.49-36.88-1.09-.92-.41 1.48z" style="fill:#00aeef"/><path d="m42.49-36.88-1.09-.92-.41 1.48z" style="fill:none"/><path d="m21.66-39.83 1.49-.11-.88-1.15z" style="fill:#00aeef"/><path d="m21.66-39.83 1.49-.11-.88-1.15z" style="fill:none"/><path d="m23.92-36.32-.31-1.41-1.09.88z" style="fill:#00aeef"/><path d="m23.92-36.32-.31-1.41-1.09.88z" style="fill:none"/><path d="m38.23-21.9-1.32-.54.06 1.53z" style="fill:#00aeef"/><path d="m38.23-21.9-1.32-.54.06 1.53z" style="fill:none"/><path d="m0-6.08.75.03-.66-1.27L0-7.2" style="fill:#00aeef"/><path d="m0-6.08.75.03-.66-1.27L0-7.2" style="fill:none"/><path d="m44.09-27.68-.66-1.27-.95 1.21z" style="fill:#00aeef"/><path d="m44.09-27.68-.66-1.27-.95 1.21z" style="fill:none"/><path d="m44.09-6.05-.66-1.27-.95 1.21z" style="fill:#00aeef"/><path d="m44.09-6.05-.66-1.27-.95 1.21z" style="fill:none"/><path d="m18.04-20.39.73 1.29.84-1.57z" style="fill:#00aeef"/><path d="m18.04-20.39.73 1.29.84-1.57z" style="fill:none"/><path d="m2.95-20.79 1.25.48-.04-1.36z" style="fill:#00aeef"/><path d="m2.95-20.79 1.25.48-.04-1.36z" style="fill:none"/><path d="m18.35-1.01 1.39-.38-1.03-.77z" style="fill:#00aeef"/><path d="m18.35-1.01 1.39-.38-1.03-.77z" style="fill:none"/><path d="m20.4-3.8.85.97.35-1.42z" style="fill:#00aeef"/><path d="m20.4-3.8.85.97.35-1.42z" style="fill:none"/><path d="m.93-.86 1.54-.42-.99-1.02z" style="fill:#00aeef"/><path d="m.93-.86 1.54-.42-.99-1.02z" style="fill:none"/><path d="m10.99-18.34 1.31-.46-1.19-.82z" style="fill:#00aeef"/><path d="m10.99-18.34 1.31-.46-1.19-.82z" style="fill:none"/><path d="m12.47-16.95 1.45.69-.1-1.43z" style="fill:#00aeef"/><path d="m12.47-16.95 1.45.69-.1-1.43z" style="fill:none"/><path d="m6.95-21.76.99 1.04.38-1.23z" style="fill:#00aeef"/><path d="m6.95-21.76.99 1.04.38-1.23z" style="fill:none"/><path d="m5.63-16.71-1.25-.69-.11 1.53z" style="fill:#00aeef"/><path d="m5.63-16.71-1.25-.69-.11 1.53z" style="fill:none"/><path d="m13.11-12.72.52-1.51-1.41.25z" style="fill:#00aeef"/><path d="m13.11-12.72.52-1.51-1.41.25z" style="fill:none"/><path d="m16.69-12.24-.79-1.4-.74 1.22z" style="fill:#00aeef"/><path d="m16.69-12.24-.79-1.4-.74 1.22z" style="fill:none"/><path d="m19.92-12.23-1.25-.9.01 1.61z" style="fill:#00aeef"/><path d="m19.92-12.23-1.25-.9.01 1.61z" style="fill:none"/><path d="m20.14-9.83 1.23.92.02-1.6z" style="fill:#00aeef"/><path d="m20.14-9.83 1.23.92.02-1.6z" style="fill:none"/><path d="m18.9-6.5.54-1.34-1.28.17z" style="fill:#00aeef"/><path d="m18.9-6.5.54-1.34-1.28.17z" style="fill:none"/><path d="m3.99-11.96-.9-1.54-.8 1.38z" style="fill:#00aeef"/><path d="m3.99-11.96-.9-1.54-.8 1.38z" style="fill:none"/><path d="m10.44-9.84 1.36-.85-1.25-.68z" style="fill:#00aeef"/><path d="m10.44-9.84 1.36-.85-1.25-.68z" style="fill:none"/><path d="m16.98-3.81 1.23-.75-1.13-.63z" style="fill:#00aeef"/><path d="m16.98-3.81 1.23-.75-1.13-.63z" style="fill:none"/><path d="m11.59-2.15 1.01 1.03.36-1.23z" style="fill:#00aeef"/><path d="m11.59-2.15 1.01 1.03.36-1.23z" style="fill:none"/><path d="m4.55-1.78 1.57.3-.45-1.36z" style="fill:#00aeef"/><path d="m4.55-1.78 1.57.3-.45-1.36z" style="fill:none"/><path d="m11.23-7.01 1.6.11-.62-1.29z" style="fill:#00aeef"/><path d="m11.23-7.01 1.6.11-.62-1.29z" style="fill:none"/><path d="m14.87-9.81.45 1.47.97-1.29z" style="fill:#00aeef"/><path d="m14.87-9.81.45 1.47.97-1.29z" style="fill:none"/><path d="m13.19-4.64 1.35.53-.19-1.28z" style="fill:#00aeef"/><path d="m13.19-4.64 1.35.53-.19-1.28z" style="fill:none"/><path d="m3.05-4.58 1.41-.76-1.2-.76z" style="fill:#00aeef"/><path d="m3.05-4.58 1.41-.76-1.2-.76z" style="fill:none"/><path d="m9.53-5.67-.92-1.09-.66 1.39z" style="fill:#00aeef"/><path d="m9.53-5.67-.92-1.09-.66 1.39z" style="fill:none"/><path d="m7.83-3.06.62 1.41.81-1.39z" style="fill:#00aeef"/><path d="m7.83-3.06.62 1.41.81-1.39z" style="fill:none"/><path d="m17.94-17.51-1.47-.6.07 1.7z" style="fill:#00aeef"/><path d="m17.94-17.51-1.47-.6.07 1.7z" style="fill:none"/><path d="m7.08-17.96 1.6.01-.69-1.25z" style="fill:#00aeef"/><path d="m7.08-17.96 1.6.01-.69-1.25z" style="fill:none"/><path d="m9.97-14.24.91-1.09-1.48-.41z" style="fill:#00aeef"/><path d="m9.97-14.24.91-1.09-1.48-.41z" style="fill:none"/><path d="m6.58-10.25 1.26.67.08-1.53z" style="fill:#00aeef"/><path d="m6.58-10.25 1.26.67.08-1.53z" style="fill:none"/><path d="m7.54-13.63-.66-1.46-.85 1.14z" style="fill:#00aeef"/><path d="m7.54-13.63-.66-1.46-.85 1.14z" style="fill:none"/><path d="m6.3-8.44-1.59.24.88 1.12z" style="fill:#00aeef"/><path d="m6.3-8.44-1.59.24.88 1.12z" style="fill:none"/><path d="m2.8-9.86-1.6-.06.65 1.27z" style="fill:#00aeef"/><path d="m2.8-9.86-1.6-.06.65 1.27z" style="fill:none"/><path d="m20.92-15.28-1.22-1.03-.45 1.65z" style="fill:#00aeef"/><path d="m20.92-15.28-1.22-1.03-.45 1.65z" style="fill:none"/><path d="m.78-18.48 1.49-.11-.87-1.15z" style="fill:#00aeef"/><path d="m.78-18.48 1.49-.11-.87-1.15z" style="fill:none"/><path d="m.77-15.06 1.4.52-.31-1.41z" style="fill:#00aeef"/><path d="m.77-15.06 1.4.52-.31-1.41z" style="fill:none"/><path d="m22.83-5.83-.59-1.15-.86 1.09z" style="fill:#00aeef"/><path d="m22.83-5.83-.59-1.15-.86 1.09z" style="fill:none"/><path d="m40.34-19.39.66 1.17.75-1.42z" style="fill:#00aeef"/><path d="m40.34-19.39.66 1.17.75-1.42z" style="fill:none"/><path d="m23.87-20.23 1.39.53-.04-1.51z" style="fill:#00aeef"/><path d="m23.87-20.23 1.39.53-.04-1.51z" style="fill:none"/><path d="m39.46-1.09 1.55-.41-1.15-.86z" style="fill:#00aeef"/><path d="m39.46-1.09 1.55-.41-1.15-.86z" style="fill:none"/><path d="m41.73-3.92.94 1.08.39-1.58z" style="fill:#00aeef"/><path d="m41.73-3.92.94 1.08.39-1.58z" style="fill:none"/><path d="m23.03-1 1.55-.42-1-1.02z" style="fill:#00aeef"/><path d="m23.03-1 1.55-.42-1-1.02z" style="fill:none"/><path d="m33.57-20.94-.13 1.42 1.45-.5z" style="fill:#00aeef"/><path d="m33.57-20.94-.13 1.42 1.45-.5z" style="fill:none"/><path d="m35.78-16.16-.09-1.43-1.35.74z" style="fill:#00aeef"/><path d="m35.78-16.16-.09-1.43-1.35.74z" style="fill:none"/><path d="m29.28-20.31-1.52.21 1.1 1.16z" style="fill:#00aeef"/><path d="m29.28-20.31-1.52.21 1.1 1.16z" style="fill:none"/><path d="m27.41-16.65-1.25-.69-.12 1.53z" style="fill:#00aeef"/><path d="m27.41-16.65-1.25-.69-.12 1.53z" style="fill:none"/><path d="m35-13.16-1.4.26.88 1.26z" style="fill:#00aeef"/><path d="m35-13.16-1.4.26.88 1.26z" style="fill:none"/><path d="m36.57-12.87 1.53.17-.79-1.4z" style="fill:#00aeef"/><path d="m36.57-12.87 1.53.17-.79-1.4z" style="fill:none"/><path d="m40.41-13.61.01 1.6 1.24-.71z" style="fill:#00aeef"/><path d="m40.41-13.61.01 1.6 1.24-.71z" style="fill:none"/><path d="m42.23-9.26.02-1.6-1.25.68z" style="fill:#00aeef"/><path d="m42.23-9.26.02-1.6-1.25.68z" style="fill:none"/><path d="m38.99-7.71.74 1.17.54-1.34z" style="fill:#00aeef"/><path d="m38.99-7.71.74 1.17.54-1.34z" style="fill:none"/><path d="m24.16-13.07-.8 1.38 1.7.16z" style="fill:#00aeef"/><path d="m24.16-13.07-.8 1.38 1.7.16z" style="fill:none"/><path d="m32.9-10.22-1.25-.69-.12 1.53z" style="fill:#00aeef"/><path d="m32.9-10.22-1.25-.69-.12 1.53z" style="fill:none"/><path d="m37.52-3.52 1.37-.84-1.25-.69z" style="fill:#00aeef"/><path d="m37.52-3.52 1.37-.84-1.25-.69z" style="fill:none"/><path d="m33.07-1.8 1.12 1.14.4-1.37z" style="fill:#00aeef"/><path d="m33.07-1.8 1.12 1.14.4-1.37z" style="fill:none"/><path d="m27.02-1.28 1.58.31-.46-1.36z" style="fill:#00aeef"/><path d="m27.02-1.28 1.58.31-.46-1.36z" style="fill:none"/><path d="m33.14-7.29 1.6.11-.62-1.29z" style="fill:#00aeef"/><path d="m33.14-7.29 1.6.11-.62-1.29z" style="fill:none"/><path d="m36.49-9.62.46 1.46.96-1.28z" style="fill:#00aeef"/><path d="m36.49-9.62.46 1.46.96-1.28z" style="fill:none"/><path d="m35.64-3.89-.2-1.41-1.29.83z" style="fill:#00aeef"/><path d="m35.64-3.89-.2-1.41-1.29.83z" style="fill:none"/><path d="m25.35-3.93 1.42-.76-1.21-.76z" style="fill:#00aeef"/><path d="m25.35-3.93 1.42-.76-1.21-.76z" style="fill:none"/><path d="m29.64-5.34 1.57-.29-.92-1.1z" style="fill:#00aeef"/><path d="m29.64-5.34 1.57-.29-.92-1.1z" style="fill:none"/><path d="m30.22-3.31.62 1.4.8-1.38z" style="fill:#00aeef"/><path d="m30.22-3.31.62 1.4.8-1.38z" style="fill:none"/><path d="m39.49-17.64-1.32-.54.06 1.54z" style="fill:#00aeef"/><path d="m39.49-17.64-1.32-.54.06 1.54z" style="fill:none"/><path d="m30.54-17.44 1.6.01-.69-1.25z" style="fill:#00aeef"/><path d="m30.54-17.44 1.6.01-.69-1.25z" style="fill:none"/><path d="m31.07-15.64.56 1.5.92-1.09z" style="fill:#00aeef"/><path d="m31.07-15.64.56 1.5.92-1.09z" style="fill:none"/><path d="m28.6-9.78.08-1.54-1.35.87z" style="fill:#00aeef"/><path d="m28.6-9.78.08-1.54-1.35.87z" style="fill:none"/><path d="m29.2-13.23-.65-1.46-.85 1.15z" style="fill:#00aeef"/><path d="m29.2-13.23-.65-1.46-.85 1.15z" style="fill:none"/><path d="m26.96-7.47.88 1.13.7-1.36z" style="fill:#00aeef"/><path d="m26.96-7.47.88 1.13.7-1.36z" style="fill:none"/><path d="m25.32-9.03-1.6-.06.66 1.27z" style="fill:#00aeef"/><path d="m25.32-9.03-1.6-.06.66 1.27z" style="fill:none"/><path d="m42.71-15.62-1.09-.92-.41 1.48z" style="fill:#00aeef"/><path d="m42.71-15.62-1.09-.92-.41 1.48z" style="fill:none"/><path d="m21.43-18.03 1.66-.13-.98-1.27z" style="fill:#00aeef"/><path d="m21.43-18.03 1.66-.13-.98-1.27z" style="fill:none"/><path d="m24.01-14.58-.35-1.56-1.21.98z" style="fill:#00aeef"/><path d="m24.01-14.58-.35-1.56-1.21.98z" style="fill:none"/><path d="m16.34 0 .11-.09-1.32-.55.03.64" style="fill:#00aeef"/><path d="m16.34 0 .11-.09-1.32-.55.03.64" style="fill:none"/><path d="m38.01 0 .11-.09-1.32-.55.03.64" style="fill:#00aeef"/><path d="m38.01 0 .11-.09-1.32-.55.03.64" style="fill:none"/><path d="m62.09-41.59.67 1.17.74-1.42z" style="fill:#00aeef"/><path d="m62.09-41.59.67 1.17.74-1.42z" style="fill:none"/><path d="m45.61-42.29 1.25.47-.04-1.36z" style="fill:#00aeef"/><path d="m45.61-42.29 1.25.47-.04-1.36z" style="fill:none"/><path d="m60.61-22.63 1.55-.42-1.15-.86z" style="fill:#00aeef"/><path d="m60.61-22.63 1.55-.42-1.15-.86z" style="fill:none"/><path d="m63.34-24.89.94 1.08.39-1.58z" style="fill:#00aeef"/><path d="m63.34-24.89.94 1.08.39-1.58z" style="fill:none"/><path d="m44.49-22.61 1.55-.41-1-1.02z" style="fill:#00aeef"/><path d="m44.49-22.61 1.55-.41-1-1.02z" style="fill:none"/><path d="m56.08-41.95-1.31-.92-.14 1.42z" style="fill:#00aeef"/><path d="m56.08-41.95-1.31-.92-.14 1.42z" style="fill:none"/><path d="m57.45-38.92-.1-1.42-1.35.74z" style="fill:#00aeef"/><path d="m57.45-38.92-.1-1.42-1.35.74z" style="fill:none"/><path d="m49.17-42.14 1.11 1.16.42-1.37z" style="fill:#00aeef"/><path d="m49.17-42.14 1.11 1.16.42-1.37z" style="fill:none"/><path d="m49.25-38.84-1.26-.69-.11 1.53z" style="fill:#00aeef"/><path d="m49.25-38.84-1.26-.69-.11 1.53z" style="fill:none"/><path d="m56.94-36.07-1.57.29.98 1.4z" style="fill:#00aeef"/><path d="m56.94-36.07-1.57.29.98 1.4z" style="fill:none"/><path d="m59.77-33.37-.79-1.4-.74 1.23z" style="fill:#00aeef"/><path d="m59.77-33.37-.79-1.4-.74 1.23z" style="fill:none"/><path d="m63.22-34.18-1.25-.9.01 1.6z" style="fill:#00aeef"/><path d="m63.22-34.18-1.25-.9.01 1.6z" style="fill:none"/><path d="m63.1-31.36 1.23.92.03-1.6z" style="fill:#00aeef"/><path d="m63.1-31.36 1.23.92.03-1.6z" style="fill:none"/><path d="m60.66-28.93.82 1.3.59-1.49z" style="fill:#00aeef"/><path d="m60.66-28.93.82 1.3.59-1.49z" style="fill:none"/><path d="m45.24-33.23 1.7.16-.9-1.53z" style="fill:#00aeef"/><path d="m45.24-33.23 1.7.16-.9-1.53z" style="fill:none"/><path d="m54.66-32.52-1.25-.69-.12 1.53z" style="fill:#00aeef"/><path d="m54.66-32.52-1.25-.69-.12 1.53z" style="fill:none"/><path d="m58.97-24.79 1.36-.84-1.25-.69z" style="fill:#00aeef"/><path d="m58.97-24.79 1.36-.84-1.25-.69z" style="fill:none"/><path d="m53.79-22.97 1.13 1.14.39-1.37z" style="fill:#00aeef"/><path d="m53.79-22.97 1.13 1.14.39-1.37z" style="fill:none"/><path d="m48.5-24.01 1.57.3-.45-1.35z" style="fill:#00aeef"/><path d="m48.5-24.01 1.57.3-.45-1.35z" style="fill:none"/><path d="m54.7-28.69 1.78.12-.69-1.43z" style="fill:#00aeef"/><path d="m54.7-28.69 1.78.12-.69-1.43z" style="fill:none"/><path d="m58-31.5.46 1.47.96-1.29z" style="fill:#00aeef"/><path d="m58-31.5.46 1.47.96-1.29z" style="fill:none"/><path d="m56.69-25.02-.21-1.41-1.29.83z" style="fill:#00aeef"/><path d="m56.69-25.02-.21-1.41-1.29.83z" style="fill:none"/><path d="m48.07-26.49-1.2-.77-.21 1.53z" style="fill:#00aeef"/><path d="m48.07-26.49-1.2-.77-.21 1.53z" style="fill:none"/><path d="m51.54-27.32 1.57-.3-.92-1.09z" style="fill:#00aeef"/><path d="m51.54-27.32 1.57-.3-.92-1.09z" style="fill:none"/><path d="m52.59-24.16.8-1.39-1.43-.01z" style="fill:#00aeef"/><path d="m52.59-24.16.8-1.39-1.43-.01z" style="fill:none"/><path d="m61.12-39.13-1.32-.55.06 1.54z" style="fill:#00aeef"/><path d="m61.12-39.13-1.32-.55.06 1.54z" style="fill:none"/><path d="m53.76-39.19-.69-1.25-.91 1.24z" style="fill:#00aeef"/><path d="m53.76-39.19-.69-1.25-.91 1.24z" style="fill:none"/><path d="m53.59-37-1.48-.4.56 1.5z" style="fill:#00aeef"/><path d="m53.59-37-1.48-.4.56 1.5z" style="fill:none"/><path d="m50.85-31.66.08-1.54-1.34.87z" style="fill:#00aeef"/><path d="m50.85-31.66.08-1.54-1.34.87z" style="fill:none"/><path d="m49.32-36.49-.94 1.28 1.67.35z" style="fill:#00aeef"/><path d="m49.32-36.49-.94 1.28 1.67.35z" style="fill:none"/><path d="m48.35-29.53.88 1.12.71-1.36z" style="fill:#00aeef"/><path d="m48.35-29.53.88 1.12.71-1.36z" style="fill:none"/><path d="m44.85-31.07.66 1.27.94-1.21z" style="fill:#00aeef"/><path d="m44.85-31.07.66 1.27.94-1.21z" style="fill:none"/><path d="m62.68-36.4 1.5-.57-1.09-.92z" style="fill:#00aeef"/><path d="m62.68-36.4 1.5-.57-1.09-.92z" style="fill:none"/><path d="m45.38-39.53-.88-1.15-.62 1.26z" style="fill:#00aeef"/><path d="m45.38-39.53-.88-1.15-.62 1.26z" style="fill:none"/><path d="m45.66-36.21-.35-1.56-1.21.99z" style="fill:#00aeef"/><path d="m45.66-36.21-.35-1.56-1.21.99z" style="fill:none"/><path d="m66.05-27.2-.65-1.27-.95 1.21z" style="fill:#00aeef"/><path d="m66.05-27.2-.65-1.27-.95 1.21z" style="fill:none"/><path d="m58.88-21.15-1.19-.49.06 1.38z" style="fill:#00aeef"/><path d="m58.88-21.15-1.19-.49.06 1.38z" style="fill:none"/><path d="m83.76-41.59.67 1.17.74-1.42z" style="fill:#00aeef"/><path d="m83.76-41.59.67 1.17.74-1.42z" style="fill:none"/><path d="m68.62-41.73-.04-1.51-1.35.98z" style="fill:#00aeef"/><path d="m68.62-41.73-.04-1.51-1.35.98z" style="fill:none"/><path d="m85.09-21.93-1.03-.78-.37 1.15z" style="fill:#00aeef"/><path d="m85.09-21.93-1.03-.78-.37 1.15z" style="fill:none"/><path d="m86.36-25.77-1.33.5.94 1.08z" style="fill:#00aeef"/><path d="m86.36-25.77-1.33.5.94 1.08z" style="fill:none"/><path d="m67.72-23.18-1-1.02-.55 1.43z" style="fill:#00aeef"/><path d="m67.72-23.18-1-1.02-.55 1.43z" style="fill:none"/><path d="m77.24-41.89-1.32-.91-.14 1.42z" style="fill:#00aeef"/><path d="m77.24-41.89-1.32-.91-.14 1.42z" style="fill:none"/><path d="m79.52-37.88-.1-1.42-1.35.73z" style="fill:#00aeef"/><path d="m79.52-37.88-.1-1.42-1.35.73z" style="fill:none"/><path d="m71.95-40.98.42-1.37-1.52.21z" style="fill:#00aeef"/><path d="m71.95-40.98.42-1.37-1.52.21z" style="fill:none"/><path d="m69.66-39.43-.11 1.53 1.36-.84z" style="fill:#00aeef"/><path d="m69.66-39.43-.11 1.53 1.36-.84z" style="fill:none"/><path d="m78.44-34.6.53-1.51-1.41.26z" style="fill:#00aeef"/><path d="m78.44-34.6.53-1.51-1.41.26z" style="fill:none"/><path d="m79.96-33.47 1.53.17-.79-1.4z" style="fill:#00aeef"/><path d="m79.96-33.47 1.53.17-.79-1.4z" style="fill:none"/><path d="m84.57-33.83-1.25-.89v1.6z" style="fill:#00aeef"/><path d="m84.57-33.83-1.25-.89v1.6z" style="fill:none"/><path d="m85.12-32.01 1.23.92.02-1.6z" style="fill:#00aeef"/><path d="m85.12-32.01 1.23.92.02-1.6z" style="fill:none"/><path d="m83.36-28.27.6-1.48-1.42.19z" style="fill:#00aeef"/><path d="m83.36-28.27.6-1.48-1.42.19z" style="fill:none"/><path d="m68.69-33.15-.9-1.54-.8 1.38z" style="fill:#00aeef"/><path d="m68.69-33.15-.9-1.54-.8 1.38z" style="fill:none"/><path d="m76.73-32.44-1.25-.69-.11 1.53z" style="fill:#00aeef"/><path d="m76.73-32.44-1.25-.69-.11 1.53z" style="fill:none"/><path d="m81.94-24.56 1.23-.76-1.13-.62z" style="fill:#00aeef"/><path d="m81.94-24.56 1.23-.76-1.13-.62z" style="fill:none"/><path d="m76.5-23.77 1.12 1.14.4-1.37z" style="fill:#00aeef"/><path d="m76.5-23.77 1.12 1.14.4-1.37z" style="fill:none"/><path d="m70.1-22.9 1.58.3-.45-1.35z" style="fill:#00aeef"/><path d="m70.1-22.9 1.58.3-.45-1.35z" style="fill:none"/><path d="m77.49-29.02-.61-1.29-.98 1.18z" style="fill:#00aeef"/><path d="m77.49-29.02-.61-1.29-.98 1.18z" style="fill:none"/><path d="m80.76-30.99-1.42-.18.46 1.47z" style="fill:#00aeef"/><path d="m80.76-30.99-1.42-.18.46 1.47z" style="fill:none"/><path d="m79.82-25.95-.2-1.67-1.24.99z" style="fill:#00aeef"/><path d="m79.82-25.95-.2-1.67-1.24.99z" style="fill:none"/><path d="m68.7-25.79 1.42-.76-1.21-.77z" style="fill:#00aeef"/><path d="m68.7-25.79 1.42-.76-1.21-.77z" style="fill:none"/><path d="m73.89-26.95 1.58-.3-.92-1.09z" style="fill:#00aeef"/><path d="m73.89-26.95 1.58-.3-.92-1.09z" style="fill:none"/><path d="m73.53-25.01.62 1.41.81-1.39z" style="fill:#00aeef"/><path d="m73.53-25.01.62 1.41.81-1.39z" style="fill:none"/><path d="m81.54-39.72.06 1.54 1.26-.99z" style="fill:#00aeef"/><path d="m81.54-39.72.06 1.54 1.26-.99z" style="fill:none"/><path d="m75.52-39.3-.69-1.25-.91 1.24z" style="fill:#00aeef"/><path d="m75.52-39.3-.69-1.25-.91 1.24z" style="fill:none"/><path d="m74.6-35.32.92-1.1-1.48-.4z" style="fill:#00aeef"/><path d="m74.6-35.32.92-1.1-1.48-.4z" style="fill:none"/><path d="m72.62-33.19-1.35.87 1.27.66z" style="fill:#00aeef"/><path d="m72.62-33.19-1.35.87 1.27.66z" style="fill:none"/><path d="m71.72-34.86-.73-1.63-.94 1.28z" style="fill:#00aeef"/><path d="m71.72-34.86-.73-1.63-.94 1.28z" style="fill:none"/><path d="m72.15-29.58-1.59.24.88 1.12z" style="fill:#00aeef"/><path d="m72.15-29.58-1.59.24.88 1.12z" style="fill:none"/><path d="m68.2-31-1.6-.06.65 1.27z" style="fill:#00aeef"/><path d="m68.2-31-1.6-.06.65 1.27z" style="fill:none"/><path d="m85.82-36.88-1.09-.92-.41 1.48z" style="fill:#00aeef"/><path d="m85.82-36.88-1.09-.92-.41 1.48z" style="fill:none"/><path d="m65.52-39.48 1.49-.12-.88-1.15z" style="fill:#00aeef"/><path d="m65.52-39.48 1.49-.12-.88-1.15z" style="fill:none"/><path d="m67.25-36.32-.31-1.41-1.09.88z" style="fill:#00aeef"/><path d="m67.25-36.32-.31-1.41-1.09.88z" style="fill:none"/><path d="m81.56-21.9-1.32-.54.06 1.53z" style="fill:#00aeef"/><path d="m81.56-21.9-1.32-.54.06 1.53z" style="fill:none"/><path d="m86.61-28.76-.8 1.02.8.03" style="fill:#00aeef"/><path d="m86.61-28.76-.8 1.02.8.03" style="fill:none"/><path d="m86.61-7.13-.8 1.02.8.03" style="fill:#00aeef"/><path d="m86.61-7.13-.8 1.02.8.03" style="fill:none"/><path d="m61.37-20.39.73 1.29.84-1.57z" style="fill:#00aeef"/><path d="m61.37-20.39.73 1.29.84-1.57z" style="fill:none"/><path d="m46.28-20.79 1.24.48-.03-1.36z" style="fill:#00aeef"/><path d="m46.28-20.79 1.24.48-.03-1.36z" style="fill:none"/><path d="m61.68-1.01 1.39-.38-1.03-.77z" style="fill:#00aeef"/><path d="m61.68-1.01 1.39-.38-1.03-.77z" style="fill:none"/><path d="m63.73-3.8.85.97.35-1.42z" style="fill:#00aeef"/><path d="m63.73-3.8.85.97.35-1.42z" style="fill:none"/><path d="m44.26-.86 1.54-.42-1-1.02z" style="fill:#00aeef"/><path d="m44.26-.86 1.54-.42-1-1.02z" style="fill:none"/><path d="m54.32-18.34 1.3-.46-1.18-.82z" style="fill:#00aeef"/><path d="m54.32-18.34 1.3-.46-1.18-.82z" style="fill:none"/><path d="m55.8-16.95 1.44.69-.09-1.43z" style="fill:#00aeef"/><path d="m55.8-16.95 1.44.69-.09-1.43z" style="fill:none"/><path d="m50.27-21.76 1 1.04.38-1.23z" style="fill:#00aeef"/><path d="m50.27-21.76 1 1.04.38-1.23z" style="fill:none"/><path d="m48.96-16.71-1.25-.69-.11 1.53z" style="fill:#00aeef"/><path d="m48.96-16.71-1.25-.69-.11 1.53z" style="fill:none"/><path d="m56.44-12.72.52-1.51-1.41.25z" style="fill:#00aeef"/><path d="m56.44-12.72.52-1.51-1.41.25z" style="fill:none"/><path d="m60.02-12.24-.79-1.4-.74 1.22z" style="fill:#00aeef"/><path d="m60.02-12.24-.79-1.4-.74 1.22z" style="fill:none"/><path d="m63.25-12.23-1.25-.9.01 1.61z" style="fill:#00aeef"/><path d="m63.25-12.23-1.25-.9.01 1.61z" style="fill:none"/><path d="m63.47-9.83 1.23.92.02-1.6z" style="fill:#00aeef"/><path d="m63.47-9.83 1.23.92.02-1.6z" style="fill:none"/><path d="m62.23-6.5.54-1.34-1.28.17z" style="fill:#00aeef"/><path d="m62.23-6.5.54-1.34-1.28.17z" style="fill:none"/><path d="m47.32-11.96-.9-1.54-.8 1.38z" style="fill:#00aeef"/><path d="m47.32-11.96-.9-1.54-.8 1.38z" style="fill:none"/><path d="m53.77-9.84 1.36-.85-1.25-.68z" style="fill:#00aeef"/><path d="m53.77-9.84 1.36-.85-1.25-.68z" style="fill:none"/><path d="m60.31-3.81 1.23-.75-1.13-.63z" style="fill:#00aeef"/><path d="m60.31-3.81 1.23-.75-1.13-.63z" style="fill:none"/><path d="m54.92-2.15 1.01 1.03.36-1.23z" style="fill:#00aeef"/><path d="m54.92-2.15 1.01 1.03.36-1.23z" style="fill:none"/><path d="m47.87-1.78 1.58.3L49-2.84z" style="fill:#00aeef"/><path d="m47.87-1.78 1.58.3L49-2.84z" style="fill:none"/><path d="m54.56-7.01 1.6.11-.62-1.29z" style="fill:#00aeef"/><path d="m54.56-7.01 1.6.11-.62-1.29z" style="fill:none"/><path d="m58.2-9.81.45 1.47.96-1.29z" style="fill:#00aeef"/><path d="m58.2-9.81.45 1.47.96-1.29z" style="fill:none"/><path d="m56.52-4.64 1.34.53-.18-1.28z" style="fill:#00aeef"/><path d="m56.52-4.64 1.34.53-.18-1.28z" style="fill:none"/><path d="m46.38-4.58 1.41-.76-1.2-.76z" style="fill:#00aeef"/><path d="m46.38-4.58 1.41-.76-1.2-.76z" style="fill:none"/><path d="m52.86-5.67-.92-1.09-.66 1.39z" style="fill:#00aeef"/><path d="m52.86-5.67-.92-1.09-.66 1.39z" style="fill:none"/><path d="m51.16-3.06.62 1.41.81-1.39z" style="fill:#00aeef"/><path d="m51.16-3.06.62 1.41.81-1.39z" style="fill:none"/><path d="m61.27-17.51-1.47-.6.07 1.7z" style="fill:#00aeef"/><path d="m61.27-17.51-1.47-.6.07 1.7z" style="fill:none"/><path d="m50.41-17.96 1.6.01-.7-1.25z" style="fill:#00aeef"/><path d="m50.41-17.96 1.6.01-.7-1.25z" style="fill:none"/><path d="m53.3-14.24.91-1.09-1.48-.41z" style="fill:#00aeef"/><path d="m53.3-14.24.91-1.09-1.48-.41z" style="fill:none"/><path d="m49.91-10.25 1.26.67.08-1.53z" style="fill:#00aeef"/><path d="m49.91-10.25 1.26.67.08-1.53z" style="fill:none"/><path d="m50.87-13.63-.66-1.46-.85 1.14z" style="fill:#00aeef"/><path d="m50.87-13.63-.66-1.46-.85 1.14z" style="fill:none"/><path d="m49.62-8.44-1.58.24.88 1.12z" style="fill:#00aeef"/><path d="m49.62-8.44-1.58.24.88 1.12z" style="fill:none"/><path d="m46.13-9.86-1.61-.06.66 1.27z" style="fill:#00aeef"/><path d="m46.13-9.86-1.61-.06.66 1.27z" style="fill:none"/><path d="m64.24-15.28-1.21-1.03-.46 1.65z" style="fill:#00aeef"/><path d="m64.24-15.28-1.21-1.03-.46 1.65z" style="fill:none"/><path d="m44.11-18.48 1.49-.11-.88-1.15z" style="fill:#00aeef"/><path d="m44.11-18.48 1.49-.11-.88-1.15z" style="fill:none"/><path d="m44.09-15.06 1.41.52-.31-1.41z" style="fill:#00aeef"/><path d="m44.09-15.06 1.41.52-.31-1.41z" style="fill:none"/><path d="m66.15-5.83-.59-1.15-.85 1.09z" style="fill:#00aeef"/><path d="m66.15-5.83-.59-1.15-.85 1.09z" style="fill:none"/><path d="m83.67-19.39.66 1.17.75-1.42z" style="fill:#00aeef"/><path d="m83.67-19.39.66 1.17.75-1.42z" style="fill:none"/><path d="m67.2-20.23 1.38.53-.03-1.51z" style="fill:#00aeef"/><path d="m67.2-20.23 1.38.53-.03-1.51z" style="fill:none"/><path d="m82.79-1.09 1.55-.41-1.15-.86z" style="fill:#00aeef"/><path d="m82.79-1.09 1.55-.41-1.15-.86z" style="fill:none"/><path d="M85.06-3.92 86-2.84l.39-1.58z" style="fill:#00aeef"/><path d="M85.06-3.92 86-2.84l.39-1.58z" style="fill:none"/><path d="m66.36-1 1.55-.42-1-1.02z" style="fill:#00aeef"/><path d="m66.36-1 1.55-.42-1-1.02z" style="fill:none"/><path d="m78.22-20.02-1.32-.92-.13 1.42z" style="fill:#00aeef"/><path d="m78.22-20.02-1.32-.92-.13 1.42z" style="fill:none"/><path d="m79.11-16.16-.09-1.43-1.35.74z" style="fill:#00aeef"/><path d="m79.11-16.16-.09-1.43-1.35.74z" style="fill:none"/><path d="m72.61-20.31-1.53.21 1.11 1.16z" style="fill:#00aeef"/><path d="m72.61-20.31-1.53.21 1.11 1.16z" style="fill:none"/><path d="m70.73-16.65-1.25-.69-.11 1.53z" style="fill:#00aeef"/><path d="m70.73-16.65-1.25-.69-.11 1.53z" style="fill:none"/><path d="m78.33-13.16-1.4.26.88 1.26z" style="fill:#00aeef"/><path d="m78.33-13.16-1.4.26.88 1.26z" style="fill:none"/><path d="m79.9-12.87 1.53.17-.79-1.4z" style="fill:#00aeef"/><path d="m79.9-12.87 1.53.17-.79-1.4z" style="fill:none"/><path d="m83.74-13.61.01 1.6 1.24-.71z" style="fill:#00aeef"/><path d="m83.74-13.61.01 1.6 1.24-.71z" style="fill:none"/><path d="m85.56-9.26.02-1.6-1.26.68z" style="fill:#00aeef"/><path d="m85.56-9.26.02-1.6-1.26.68z" style="fill:none"/><path d="m82.32-7.71.74 1.17.54-1.34z" style="fill:#00aeef"/><path d="m82.32-7.71.74 1.17.54-1.34z" style="fill:none"/><path d="m67.49-13.07-.8 1.38 1.7.16z" style="fill:#00aeef"/><path d="m67.49-13.07-.8 1.38 1.7.16z" style="fill:none"/><path d="m76.23-10.22-1.25-.69-.12 1.53z" style="fill:#00aeef"/><path d="m76.23-10.22-1.25-.69-.12 1.53z" style="fill:none"/><path d="m80.85-3.52 1.37-.84-1.25-.69z" style="fill:#00aeef"/><path d="m80.85-3.52 1.37-.84-1.25-.69z" style="fill:none"/><path d="m76.4-1.8 1.12 1.14.39-1.37z" style="fill:#00aeef"/><path d="m76.4-1.8 1.12 1.14.39-1.37z" style="fill:none"/><path d="m70.35-1.28 1.58.31-.46-1.36z" style="fill:#00aeef"/><path d="m70.35-1.28 1.58.31-.46-1.36z" style="fill:none"/><path d="m76.47-7.29 1.6.11-.62-1.29z" style="fill:#00aeef"/><path d="m76.47-7.29 1.6.11-.62-1.29z" style="fill:none"/><path d="m79.82-9.62.46 1.46.96-1.28z" style="fill:#00aeef"/><path d="m79.82-9.62.46 1.46.96-1.28z" style="fill:none"/><path d="m78.97-3.89-.2-1.41-1.29.83z" style="fill:#00aeef"/><path d="m78.97-3.89-.2-1.41-1.29.83z" style="fill:none"/><path d="m68.68-3.93 1.41-.76-1.2-.76z" style="fill:#00aeef"/><path d="m68.68-3.93 1.41-.76-1.2-.76z" style="fill:none"/><path d="m72.97-5.34 1.57-.29-.92-1.1z" style="fill:#00aeef"/><path d="m72.97-5.34 1.57-.29-.92-1.1z" style="fill:none"/><path d="m73.54-3.31.63 1.4.8-1.38z" style="fill:#00aeef"/><path d="m73.54-3.31.63 1.4.8-1.38z" style="fill:none"/><path d="m82.82-17.64-1.32-.54.06 1.54z" style="fill:#00aeef"/><path d="m82.82-17.64-1.32-.54.06 1.54z" style="fill:none"/><path d="m73.86-17.44 1.61.01-.69-1.25z" style="fill:#00aeef"/><path d="m73.86-17.44 1.61.01-.69-1.25z" style="fill:none"/><path d="m74.4-15.64.56 1.5.92-1.09z" style="fill:#00aeef"/><path d="m74.4-15.64.56 1.5.92-1.09z" style="fill:none"/><path d="m71.93-9.78.08-1.54-1.35.87z" style="fill:#00aeef"/><path d="m71.93-9.78.08-1.54-1.35.87z" style="fill:none"/><path d="m72.53-13.23-.65-1.46-.85 1.15z" style="fill:#00aeef"/><path d="m72.53-13.23-.65-1.46-.85 1.15z" style="fill:none"/><path d="m70.29-7.47.88 1.13.7-1.36z" style="fill:#00aeef"/><path d="m70.29-7.47.88 1.13.7-1.36z" style="fill:none"/><path d="m68.65-9.03-1.6-.06.66 1.27z" style="fill:#00aeef"/><path d="m68.65-9.03-1.6-.06.66 1.27z" style="fill:none"/><path d="m86.04-15.62-1.09-.92-.41 1.48z" style="fill:#00aeef"/><path d="m86.04-15.62-1.09-.92-.41 1.48z" style="fill:none"/><path d="m64.76-18.03 1.66-.13-.98-1.27z" style="fill:#00aeef"/><path d="m64.76-18.03 1.66-.13-.98-1.27z" style="fill:none"/><path d="m67.33-14.58-.34-1.56-1.22.98z" style="fill:#00aeef"/><path d="m67.33-14.58-.34-1.56-1.22.98z" style="fill:none"/><path d="m59.67 0 .11-.09-1.32-.55.02.64" style="fill:#00aeef"/><path d="m59.67 0 .11-.09-1.32-.55.02.64" style="fill:none"/><path d="m81.34 0 .11-.09-1.32-.55.03.64" style="fill:#00aeef"/><path d="m81.34 0 .11-.09-1.32-.55.03.64" style="fill:none"/><path d="M80.16 0h1.18" style="fill:#00aeef"/><path d="M80.16 0h1.18" style="fill:none"/><path d="M86.61-6.08v-1.05" style="fill:#00aeef"/><path d="M86.61-6.08v-1.05" style="fill:none"/><path d="M0-72.15v1.13" style="fill:#00aeef"/><path d="M0-72.15v1.13" style="fill:none"/><path d="M86.61-27.71v-1.05" style="fill:#00aeef"/><path d="M86.61-27.71v-1.05" style="fill:none"/><path d="M36.83 0h1.18" style="fill:#00aeef"/><path d="M36.83 0h1.18" style="fill:none"/><path d="M15.16 0h1.18" style="fill:#00aeef"/><path d="M15.16 0h1.18" style="fill:none"/><path d="M0-49.39v-1.13" style="fill:#00aeef"/><path d="M0-49.39v-1.13" style="fill:none"/><path d="M58.48 0h1.18" style="fill:#00aeef"/><path d="M58.48 0h1.18" style="fill:none"/><path d="M86.61-49.39v-1.06" style="fill:#00aeef"/><path d="M86.61-49.39v-1.06" style="fill:none"/><path d="M86.61-71.02v-1.06" style="fill:#00aeef"/><path d="M86.61-71.02v-1.06" style="fill:none"/><path d="M59.66-86.61h-1.18" style="fill:#00aeef"/><path d="M59.66-86.61h-1.18" style="fill:none"/><path d="M0-28.83v1.12" style="fill:#00aeef"/><path d="M0-28.83v1.12" style="fill:none"/><path d="M81.33-86.61h-1.17" style="fill:#00aeef"/><path d="M81.33-86.61h-1.17" style="fill:none"/><path d="M16.33-86.61h-1.17" style="fill:#00aeef"/><path d="M16.33-86.61h-1.17" style="fill:none"/><path d="M38-86.61h-1.17" style="fill:#00aeef"/><path d="M38-86.61h-1.17" style="fill:none"/><path d="M0-6.08V-7.2" style="fill:#00aeef"/><path d="M0-6.08V-7.2" style="fill:none"/></svg>