<svg xmlns="http://www.w3.org/2000/svg" xml:space="preserve" width="28.98" height="28.98" viewBox="2.16 -31.14 28.98 28.98"><path d="M2.16-31.14h28.98v28.98H2.16z" style="fill:none"/><path d="M2.16-31.14h28.98v28.98H2.16z"/><path d="M21.32-8.11h0M16.82-7.15h0M9.65-5.25h0M3.54-4.06h0M15.1-14.58h0M14.23-9.75h0M23.2-24.24h0M24.62-8.66h0M22.86-11.47h0M23.55-4.58h0M20.22-5.45h0M27.3-3.03h0M16.18-3.59h0M11.89-2.83h0M19.33-23.13h0M21.82-30.1h0M17.34-27h0M14.87-29.59h0M12.57-27.29h0M27.86-13.03h0M28.56-8.48h0M21.65-16.82h0M26.68-17.68h0M29.07-25.62h0M26.65-20.61h0M17.16-17.68h0M19.74-11.67h0M29.75-29.58h0M5.6-7.37h0M3.6-17.93h0M2.83-13.58h0M3.88-24.41h0M9.76-9.06h0M6.29-11.5h0M10.44-14.06h0M7.11-19.12h0M5.78-29.76h0M15.47-23.29h0M8.95-24.6h0M9.62-21.88h0M12.22-18.85h0" style="fill:none;stroke:#fff;stroke-width:.8;stroke-linecap:round"/><path d="m24.41-13.37 2.07-2.24M21.22-13.1l-3.19-1.48M17.92-10.5l1.26 2.82M25.17-7.18l3.34 2.68M27.19-10.04l3.04-1.36M6.82-9.4l-3.45-.87M8.43-6.66 6.47-3.54M12.16-7.51l2.76 2.59M11.3-11.06l2.93-1.79M8.23-12.39l-1.24-3.22M21.99-21.99 19.9-19.4M24.6-22.41l-.52 3.67M27.2-22.99l2.94.17M24.5-26.71l.93-3.4M21.92-25.52l-2.13-2.2M7.07-25.23l-2.63-2.39M6.8-22.11l-2.82 1.88M9.75-18.2l2.59 2.24M9.58-26.61l.59-4M12.34-23.89l2.93-1.38M14.98-18.22l1.48-3.4" style="fill:none;stroke:#fff;stroke-width:.58;stroke-linecap:round"/><path d="M26.68-28.09h0M30.71-6.16h0M30.18-20.02h0" style="fill:none;stroke:#fff;stroke-width:.8;stroke-linecap:round"/><path d="m20.07-3.85-1.51 1.69M3.97-15.43l-1.81-.95M31.13-16.36l-1.91-1M17.55-30.03l.99-1.11" style="fill:none;stroke:#fff;stroke-width:.58;stroke-linecap:round"/></svg>