<svg xmlns="http://www.w3.org/2000/svg" xml:space="preserve" width="62.36" height="62.36" viewBox="2.96 -65.39 62.36 62.36"><path d="M2.96-65.39h62.36v62.36H2.96z" style="fill:none"/><path d="M8.73-59.23h.04M26.83-65.36h.04M48.18-65.27l-.02-.12M13.09-56.33l.14-.37M10.2-54.75l.23.67M6.65-56.74l-.66.24M5.43-53.32l.41.21M20.5-63.73l.04.5M5.28-59.43l.32-.61M9.41-57.43h-.04M8.06-63.51l.62-.15M14.36-60.32h.04M6.55-61.69h-.04M12.56-61.89l.58.34M14.24-63.37h.04M14.87-58.62h.04M6.96-54.65h-.03M13.32-54.13h.43M16.7-57.27l.69.1M33.09-56.67l-.33.46M39.44-61.89l.57.34M19.87-60.8h.04M54.35-63.57h.04M62.71-59.23h.04M18.73-63h.04M16.95-55.3h-.03M21.79-53.51h.04M23.55-56.83l.16.8M18.78-58.94l.14-.36M39.24-56.68l.14-.36M27.19-60.6h-.04M33.5-64.78h.04M30.59-61.8h.04M29.01-57.46l-.25-.5M28.74-54.6l.59-.45M31.95-60.05l.31-.61M35.41-57.27h.04M43.42-60.67h-.04M33.7-61.85h.04M42.06-59.29h.04M22.84-63.83l-.1-.28M41.15-63.37h-.04M18.27-54.01h-.04M33.8-54.65h.04M29.44-53.37h-.04M19.49-57.27h.04M20.25-55.6l.01.64M24.07-60.05h.04M37.3-58.76l.46.17M38.28-63.18h.04M38.85-54.98h.04M45.42-63.3h.04M65.32-58.34l-.51-.28M45.36-63.4h-.04M43.14-55.91h-.04M49.34-53.45h.04M50.54-57.03l.16.8M46.88-61.9l.06-.18M51.41-60.58l.14-.36M53.44-60.2h.04M58.18-64.34h.04M54.45-57.18l.69.1M43.73-58.08l-.3-.13M59.05-59.43l.41-.35M63.13-57.43h.04M63.55-54.62l.23.67M61.75-63.27l.69-.39M60.27-61.69h.04M44.57-53.45h.04M52.56-55.16h.03M55.06-54.6h-.04M46.38-57.27h.04M47.15-55.6l.57.62M59.73-53.19l.42.21M8.65-5.96l-.19-.21M4.01-47.04h.03M15.51-39.05l.7.41M5.08-22.23l-.22.25M14.4-6.56h-.04M14.28-9.61h-.04M3.82-20.3l.71.41M12.8-26.21l-.7-.41M14.38-22.62l-.49.04M5.9-16.86l.45-.25M12.42-13.91l-.46.25M8.92-23.93h-.03M14.2-24.94h-.04M22.06-24.49h-.04M15.32-19.43h.04M6.51-10.79h-.04M5.82-6.17l-.32.61M12.16-11.98h-.04M6.24-14.55l-.27-.49M8.68-9.89l-.62.15M16.83-7.17h-.04M6.51-7.92h.04M11.01-49.71l-.38 1M14.2-14.17h-.04M13.14-7.79l-.58-.34M16.66-8.77h.03M8.52-20.57h-.04M7.3-24.87h-.04M14.91-4.85h-.04M5.78-12.26h.04M4.61-25.04h.04M6.05-20.87h-.04M8.77-16.11h-.04M10.74-20h-.04M12.17-16h.04M11.45-9.42h-.04M9.67-13.09h-.04M12.93-20.92h.04M5.99-29.68l.66-.24M5.54-49.11l.43.21M13.34-50.32l.49-.04M54.53-61.81l.49-.04M42.35-40.58l-.49.05M6.83-44.88l-.45.25M12.08-40.62l.45-.24M10.04-52.13H10M14.78-47.35h.03M12.68-29.64l-.14.37M6.51-38.05h-.04M5.74-33.98l-1.01.75M8.74-30.77h.03M5.52-31.51h.04M6.24-41.81l-.27-.49M8.06-37l.62-.15M14.4-33.82h-.04M6.87-35.34h-.04M15.29-40.85h.04M14.17-39.35h.04M13.14-35.05l-.58-.34M14.98-37.04h.04M8.52-47.84h-.04M7.63-51.06h-.04M15.24-31.97h.04M5.78-39.52h.04M3.87-52.06h.04M14.91-52.48h-.04M7.48-26.76l-.41-.97M11.09-32.06h.04M9.75-45.53h-.04M21.97-50.97h.04M12.68-42.78h.04M11.41-36.68h.04M10.11-40.02h-.04M12.39-47.73h.04M4.94-26.76l.41.2M26.84-22.2h.03M39.95-18.83l.71.41M26.18-6.07h-.04M18.48-20.29h-.04M16.77-25.66h.04M26.23-14.42l-.57-.33M25.67-19.27l.47.23M44.1-35.91l-.58-.33M18.54-20.23l.57.34M40.01-7.79l-.57-.34M31.48-25.04h.04M19.75-3.73h-.04M25.08-25.61l-.19-.1M22.72-21.06l-.18-.37M54.39-9.81h-.04M62.6-5.36h.04M31.73-21.98l-.7-.41M35.37-22.44l-.62.53M30.49-20.02l.49-.05M18.16-27.68l-.49.04M41.25-22.62l-.49.04M33.7-17.62l-.45.25M39.14-13.85l-.05-.51M36.13-24.04h-.04M40.13-23.93h-.04M40.36-25.57h.04M42.73-19.22h-.04M18.77-9.24h-.04M23.83-8.61l-.14.37M18.92-5.54l-.14.36M33.38-10.79h-.04M26.32-7.86h-.04M30.63-8.04h-.04M32.26-6.24l-.31.62M25.68-17.34h-.04M29.39-17.96h-.04M33.11-14.55l-.27-.49M35.9-9.72l-.63.15M41.77-6.62h-.04M33.74-8.08h-.04M29.59-9.8l.91.13M22.31-16.07h-.04M21.97-13.49l-1.2 1.19M47.02-59.2l1.2-1.18M30.93-32.06l1.2-1.19M41.21-13.94h.03M43.51-4.28h-.04M16.77-25.66l.35.76M41.08-12.09h-.03M46.85-5.9h-.04M23.42-10.15l-.11-.29M25.21-31.88l-.38-.23M30.63-13.63h-.28M41.11-9.61h.04M35.36-20.57h.04M28.63-20.85l-.36.42M20.58-18.95h-.04M37.85-18.27h.04M32.69-12.26h-.04M16.76-21.24h-.03M31.48-25.04l.31.48M16.64-14.54h-.04M17.11-11.75h-.04M20.53-9.95h-.04M15.94-17.62h-.04M19.91-7.03h-.04M32.92-20.87h-.04M28.52-12.44h-.04M3.63-65.39l.09.14M24.11-5.98h-.04M22.47-19.77h-.04M26.64-12.43h-.04M29.94-16.18l.14.72M19.09-14.86l-.82-.05M37.61-20h-.04M39.08-16h-.04M38.09-4.55 37.3-5M38.32-9.42h-.04M18.73-13.25h.04M48.9-24.82h-.04M36.95-13.15h-.04M39.84-20.92h-.04M25.62-24.9l-.73-.81M39.52-44.52l-.71-.41M36.68-51.19h-.04M33.24-35.24h-.04M19.9-40.41l.87-.27M17.41-51.13l.35-.21M32.86-29.79l.4-.55M20.35-45.74h.03M22.23-48.69l.25.17M26.84-49.46h.03M27.33-51.85h-.04M25.86-53.05h-.04M31.38-50.46l.35 1.22M30.76-47.49l.29-.04M41.25-49.88l-.49.04M33.25-44.63l.45-.25M39.37-41.35l-.46.25M37.34-50.67l-.7-.52M40.09-51.08h.04M42.19-46.69h.04M18.77-36.5h-.04M15.93-28.87h-.04M22.96-26.71h-.04M23.81-29.72l-.16-.8M21.93-44.45l.49-.03M40.1-30.19l-.14.36M26.85-33.57h-.04M33.27-38.49h-.04M9.96-43.65h-.04M25.57-34.98h-.03M29.13-30.84l-.38-.08M17.56-30.58l-.7-.1M28.74-28.31l.59-.46M35.52-30.94h.03M36.89-28l-.23-.67M25.64-44.6h.04M30.38-45.22h.04M32.84-42.3l.27.49M35.12-37.56l-.62.16M41.23-33.82h.04M33.66-35.3l-.46.06M22.2-42.69h-.04M41.47-42.38l-.04.11M18.44-47.55h.04M41.05-39.35h.03M23.69-37.69l-.65-.04M25.47-41.34l.24.42M18.54-47.49l.57.34M40.01-35.05l-.57-.34M30.55-40.57h-.28M41.04-36.76H41M35.36-47.84h.04M28.2-47.73l.41-.55M35.41-32.9h.04M34.57-51.91h.04M41.74-32.11h.04M32.61-39.99h-.04M47.41-22.93h-.04M16.6-49.1h.04M31.48-52.3h.04M17.04-41.75H17M16.52-44.11h.04M18.56-34.36h-.04M33.84-28.15h-.04M29.44-26.86h-.04M32.88-48.13h.04M19.53-30.77h-.04M21-28.02l.57.62M24.07-33.68h.04M22.17-46.73h.04M28.38-38.93l-.82-.69M24.88-39.27h.04M29.36-43.18l.72.46M18.8-43.13l-.45-.41M37.73-47.1h.04M39.04-43.26h.04M37.3-32.26l.33.55M37.95-36.68h.04M36.94-40.02h.04M39.59-48.73h-.04M38.89-28.48h-.04M31.75-26.97l.41.21M49.96-20.81l-.52-.62M62.98-24.04h.04M62.29-20.57h-.04M64.75-5.67l.57.33M49.74-21.03l-.53-.62M53.76-22.2h-.03M54.08-25.11h-.04M57.92-22.39l.71.41M57.24-19.82l.49-.04M60.14-17.37l.45-.25M42.51-15.75l-.45.25M65.19-26.42h.04M45.66-9.24h-.04M46.94-8.31l-.14.36M51.45-7.08l-.14.37M53.48-6.84h-.04M60.27-10.79h-.04M59.36-6.28l-.31.61M54.12-18.02h-.04M56.95-17.43h-.04M62.44-9.89l-.62.15M60.31-7.92h-.04M57.4-8.89l-.44-.62M49.09-15.43h-.04M46.86-12.28l1.18-.42M64.25-48.81l1.07-.38M45.37-20.29h-.04M45.22-23.98l-.46.73M43.94-25.34h-.04M51.06-10.48l-.1-.29M52.44-13.91l.58.34M46-19.89l-.57-.34M57.24-13.63h.28M55.62-21.07l-.41.55M47.47-18.95h-.04M51.31-17.07h.03M61.06-24.87h-.04M65.26-17.91h.04M59.58-12.26h-.04M43.65-21.24h-.03M58.37-25.04h.04M43.26-14.17h-.04M45.78-17.71h-.04M59.81-20.87h-.04M46.42-3.73h-.04M10.38-65.27l-.04-.12M18.07-64.7l-.55-.69M40.76-65.39l.01.29M29.76-65.12l-.39-.27M55.58-65.39l.16.27M60.6-65.39l-.19.17M50.31-65.39l.09.48M62.49-16.11h.04M49.47-19.44h-.04M55.12-12.23l.77.05M52.63-11.86h-.04M56.97-15.46l-.72-.46M45.7-14.14l-.22.24M64.5-20h-.04M21.43-33.95l-.78-.44M65.21-9.42h-.04M63.87-12.76h-.03M51.97-25.61l-.19-.1M55.63-28.09l.59-.46M60-41.81l-.27-.49M43.5-41.35h-.04M45.78-44.97h-.04M47.72-28.48l-.57-.62M63.15-45.94h-.04M64.64-32.26l.68.39M49.29-48.69l.55.17M53.73-49.46h.03M58.21-48.9l-.43-.2M60.14-44.63l.45-.25M49.85-45.23l.46-.24M65.23-40.65l.09-.05M63.76-52.13h.04M45.62-36.5h.04M45.36-28.25h.04M49.34-26.95h.04M50.17-31.04l.53 1.32M49.73-36.66l-.14.36M53.48-34.4h-.04M60.23-38.05h.04M51.5-34.94h-.03M55.98-30.79l-.7-.11M44.88-30.02l-.87-1.07M59.19-33.37l.31-.61M62.58-32.06h.04M59.32-31.51h-.04M63.78-28l-.23-.67M52.8-45.08h.03M57.09-45.02h.04M60.59-35.34h.04M56.68-36.58l.91.13M49.05-42.69h.04M46.86-39.54l1.18-.42M44.76-50.5l.27-.46M50.98-38.1l-.11-.29M51.79-41.98l.58.34M45.34-47.41l.66.26M53.67-31.92l.62-.93M57.24-40.89h.28M62.25-47.84h.04M54.76-47.59l.55-.41M48.09-46.46h-.04M61.35-51.06h.04M59.54-39.52h.04M43.62-48.5h.03M45.74-44.97l.6-.53M46.8-34.29h-.04M60.73-28.15h-.04M57.23-26.77h-.04M46.38-30.77h.04M50.5-33.04h-.04M55.26-39.2l-.77-.05M64.84-44.81l.48.03M52.7-39.69h.04M56.25-43.18l.72.46M63.84-40.02h.03M3.24-58.18l-.28-.16M3.03-63.18h.04M3.17-5.23l-.21-.12M2.96-49.19l.12-.04M2.96-31.87l.1.06M3.33-40.9l-.37.2M3.26-44.76l-.3-.02M59.19-26.82l.41.21M28.29-35.66l-.53-.06M60.42-15.01l-.41-.27M26.87-65.34h-.04M6.12-65.39l-.13.2M29.35-65.39l.41.28M26.87-3.05h-.04M48.14-3.16l.03.13M3.54-3.21l.12.18M10.25-3.32l.11.29M10.36-3.03l.02.07M17.56-3.03l-.59-.74M40.76-3.4v.37M29.44-3.03l-.65-.46M55.38-3.4l.23.37M60.88-3.33l-.33.3M50.24-3.4l.07.37M26.87-3.03h-.04M6.32-3.37l-.23.34M16.97-3.76l.58.73M28.79-3.48l.64.45M29.43-3.03h.01M17.51-65.39h.01M17.55-3.03h.01M29.35-65.39h.02" style="fill:none;stroke:#00aeef;stroke-width:.98;stroke-linecap:round"/><path d="M57.51-65.37h-.04M59.87-63.6h-.04M12.16-63.68h-.04M8.31-65.36h-.04M25.51-61l.22-.54M35.92-62.73l-.75-.5M37.3-56.38h-.03M37.3-56.38h-.03M27.85-63.35l-.56.06M16.69-63.09h-.03M24.81-64.71h-.04M31.68-64.64h-.04M42.51-65.36h-.04M33.31-53.15l.42.21M60.1-56.39l-.46.11M12.72-18.61l-.7-.41M42.07-44.95l.21-.2M42.07-44.95l.21-.2M25.54-46.44h-.04M20.59-32.65h-.04M30.38-36.21l-.59-.37M16.49-45.74h-.04M23.52-36.13h-.04M38.12-25.9v-.59M41.31-28.55h-.04M47.01-32.47h-.02M58.41-52.3h-.04M63.41-43.06l-.04-.11M56.22-28.55l-.59.46M8.31-65.34h-.04M42.51-65.34h-.04M57.51-3.06h-.04M8.31-3.05h-.04M42.51-3.05h-.04M8.31-3.03h-.04M42.51-3.03h-.04" style="fill:none;stroke:#00aeef;stroke-width:.8;stroke-linecap:round"/><path d="M13.07-56.51h-.04M4.15-55.77l.03-.42M5-63.31l.5.18M8.05-61.19l.01.29M8.7-55.34l.06-.89M8.76-56.19v-.04M9.69-62.66l.46.56M12.55-61.75h.04M15.4-61.35l.13-.48M15.5-55.39l-.36.51M6.54-58.97l.32.38M3.65-61.24l.52.03M12.84-58.32v-.92M11.69-60.7l.19.56M9.67-60.56l.57-.1M15.33-64.6l.27.28M14.97-57.08h-.03M4.11-54.33h-.03M11.55-53.28h-.04M10.61-63.84h.03M11.22-56.94h.04M5.08-58.04h-.04M8.2-53.19l.2.68M32.27-62.99l.5.17M29.37-62.41l.34-1.29M16.54-59.27l.48-.39M19.4-55.65l.65.05M19.98-53.67l-.11.69M22.83-58.79l.52.03M21.4-59.17l.03-.42M30.54-56.3l-.03.41M21.84-62.61l.04.57M26.73-57.85l.62.43M25.75-56.08l-.16.72M30.57-58.01l.08-.69M35.38-65.02l-.26-.37M35.72-59.28l.04.45M37.63-61.6h.04M34.47-55.74h.9M36.04-61.17l.46.56M39.42-61.75h.04M41.67-61.42l.13-.48M28.26-61.59l.46.21M40.77-55.14l.36-.51M25.04-57.6l.38.11M18.04-61.08l.09-.4M21.22-58.14l.37.4M23.88-53.93l.16.6M25.54-58.92l.48-.15M25.5-63.47l.32.38M33.88-59.06l.32.37M33.67-59.42l.32.38M29.71-63.7l.46.03M29.53-60l.51.03M40.19-58.76l.19-.59M38.69-60.22l.56-.1M39.22-56.85h-.04M40.38-53.65l.05.63M36.14-52.85l-.34-.6M41.38-57.04h.04M42.45-54.54l.28.14M38.38-53.28h.04M36.88-54.36h.04M39.76-64.28h.04M26.83-54.56h.04M22.93-55.11h-.04M21.15-56.48h.03M22.52-60.88h.04M16.67-60.8h-.03M32.28-58.04h-.04M27.7-56.12h.04M16.66-63.09h.03M53.95-58.83l.82.04M62.52-56.19v-.04M56.49-59.94l-.41.28M45.33-59.27l.16.44M45.38-55.06l.65.04M46.76-52.98l.11-.69M49.2-58.83l.52.04M58.01-56.26l-.96-.55M48.73-62.61l.04.57M36.77-64.64l.82.03M52.65-57.55l-.17.72M57.54-58.7l-.08.69M58.42-62.55l.29.07M61.81-61.19l.02.29M61.97-55.48l.42-.36M63.45-62.66l.46.56M46.92-63.71l.01-.62M45.37-60.67l.09-.39M51.32-53.45l.16.6M52.63-63.1l.08.48M60.77-59.06l.32.37M48.89-64.04l-.21.25M57.29-61.53l1.09.57M56.08-59.66l.54-.58M50.61-62.59l.41-.28M58.64-54.98h-.04M65.09-53.28h-.04M64.79-56.26h-.04M49.78-55.11h.04M44.85-56.48h-.04M44.3-61.8h.04M49.71-60.69h.04M59.13-58.04h.04M55.39-60.71h.04M62.99-61.34h.04M55.3-55.8h.04M56.05-58.11h.04M43.79-63.3h.04M42.88-63.84l.91.54M16.74-53.68l.05.71M42.64-52.51l-.05-.72M62.16-52.51l-.2-.68M9.47-21.61h.9M14.28-17.72l.21-.2M29.6-11.59l-.21.21M15.53-8.07l-.13.48M16.03-23.03l-.06.33M9.98-17.24l.38.55M4.35-7.83l-.81.25M15.38-15.62l.57-.07M10.3-27.73v.64M3.85-23.66h.57M6.78-23.02l-.49-.36M8.61-22.25l-.39.28M10.92-25.87l-.86.37M13.51-19.37h-.04M27.63-5.31l-.21.2M5.5-9.37 5-9.54M8.16-7.63l-.01-.29M8.64-15.04l-.48.28M14.36-11.31l-.19-.67M10.45-11.42l.53.44M10.15-8.34l-.46-.55M12.59-7.99h-.04M8.74-11.8l-.1-.42M4.06-11.9l-.09.64M7.63-4.65l-.32-.37M5.21-18.38l.62-.51M8.71-17.51l-.07-.4M8.07-19.43l-.39.41M11.5-22.21l-.1.54M12.36-23.53l-.05-.72M33.84-25.49l.04.72M33.88-24.55l.83-.63M15.82-24.4l.06-.33M13.89-22.58l.46.12M3.95-15.28l-.39-.55M10.2-14.57l.35-.33M7.34-13.32l-.42-.1M3.54-7.58 4-6.45M12.84-5.48v.93M11.88-6.37l-.19-.57M10.24-6.89l-.57.09M15.6-10.56l-.27-.27M15.47-3.73h-.03M15.34-15.66l-.29-.51M4.21-17.11h-.03M7.33-16.2h-.04M10.16-23.09h-.04M4.8-13.63l-.14-.55M9.44-19.04H9.4M12.92-10.51h-.04M11.44-4.52h-.03M13.93-16.24h-.04M14.76-21.06h-.04M4.97-4.17h-.04M12.28-13.55l-.59.07M3.95-50.48h.58M5.62-51.4l.49.37M7.63-48.98l.4-.29M14.29-45.67l-.21.21M3.66-29.8l-.02.41M5.4-36.93l.49.18M8.3-33.84l-.04-.45M9.79-35.63h.03M9.16-29.24h-.04M8.52-41.75l.12-.55M12.9-38.07l-.19-.68M10.45-38.68l.53.44M9.68-35.83l-.47-.56M12.55-35.25h.04M15.53-35.33l-.13.48M8.64-39.48l.1.42M4.39-38.31l.09-.64M7.33-32.18l-.32-.38M5.09-45.91l.5-.24M9.4-43.79l.08.39M7.29-46.8l.39.52M12.46-44.9l-.1.54M11.74-51.03l-.05-.71M15.59-50.73l-.06.33M13.19-46.15l.05-.33M9.13-32.47l.06-.33M13.34-50.32l.46.12M10.2-41.83l.35-.33M7.34-40.58l-.42-.1M4.17-34.7l-.52-.03M13.31-31.42v-.92M11.88-33.63l-.19-.57M10.69-29.92l.18.57M10.16-34.39l-.56.1M12.51-29.45h-.04M19.67-23.58l-.05-.62M9.26-26.35l-.33-.6M14.57-30.03h-.03M8.64-28.43h.03M17.84-29.35h-.04M18.48-26.05h-.04M14.72-41.79l-.29-.51M13.08-52.27h.04M4.95-43.64h.03M6.24-47.52h-.03M4.73-28.15h.03M11.33-28.42h-.04M7.29-43.46h.04M9.48-50.58h.04M4.68-41.99h-.03M10.64-47.46h-.03M11.26-46.15h-.04M13.61-36.63h-.04M11.83-30.82h-.04M4.46-36.18h-.04M14.26-48.9h.04M14.73-44.09h.04M25.41-4.52l-.48.16M42.2-10.83l.28.27M23.62-24.45l-.14-.43M23.31-23.15l.13.86M23.44-22.29h-.04M24.16-18.95l-.44.28M21.49-17.52h.04M21.49-17.37l-.47.23M24.96-16.06l-.41-.08M23.52-17.23l-.04.41M27.6-17.43l-.06.54M28.09-18.76l-.35-.33M27.95-23.49v-.63M29.4-25.48l.2.68M31.29-23.66h-.57M33.65-23.02l-.49-.36M36.72-25.28l.67.26M40.53-18.75l-.44-.01M40.97-19.72h-.03M39.3-17.48l-.2.2M17.02-5.89l-.48.38M22.83-5.03l.52.03M21.4-5.41l.03-.41M21.88-8.27l-.04-.58M30.65-4.94l-.08.7M32.27-9.23l.5.18M35.76-5.07l-.04-.45M36.7-8.37h-.04M35.03-14.76l.48-.28M39.39-11.61l-.19-.67M37.85-10.98l-.52-.44M34.81-7.38l.46.56M39.46-7.99h-.04M42.34-8.82l-.13.48M27.61-8.57l.46.2M19.75-16.07l.37.07M18.24-15l-.02.44M16.75-12.15l-.12-.7M27.27-15.73h-.04M25.02-13.25h-.03M20.54-20.86l-.36-.16M24.17-11.8l-.39-.38M33.61-4.05l-.38-.12M19.29-11.42l-.21-.31M35.61-11.8l-.09-.42M43.79-7.74l-.09-.42M30.93-11.9l-.09.64M26.3-20.6l-.13-.55M20.21-24.84l-.4.13M17.59-10.55l-.36.17M18.81-21.98l-.84.16M21.11-23.15l-.31.41M18.96-17.66l-.22-.44M23.55-14.01l-.05-.56M20.54-10.56l-.01.61M10.57-5.65l-.25.44M18.51-7.89l-.09.39M21.59-3.98l-.37-.4M25.82-9.33l-.32-.37M29.27-22.1l-.33-.37M34.2-4.92l-.32-.38M27.89-13.73l.64-.47M32.08-18.38l-.08-.41M35.59-17.51l-.08-.4M34.09-19l.39-.41M37.9-21.43l.09-.54M38.61-23.77l-.05-.71M42.41-23.14l.05-.33M41.22-22.46l-.46-.12M36.74-16.91l.39.55M36.95-15.14l.12.57M34.21-13.32l-.41-.1M27.93-10.36l-.22.24M30.04-6.21l-.51-.03M40.19-5.59l-.21.59M38.75-6.37l-.19-.57M37.03-7.13l-.56.1M43.13-10.34l-.93-.49M47.56-16.18l-.27-.27M51.34-15.42l-.27-.27M42.48-17.14l-.29-.51M26.14-19.04h-.04M24.65-20.09h-.04M31.09-17.11h-.04M24.63-21.88h.04M21.85-25.05h-.03M34.97-16.2h-.03M37.03-23.09h-.04M31.56-14.73h-.04M15.18-12.81h-.04M36.31-19.04h-.04M39.8-10.51h-.04M36.91-4.01h-.04M21.59-14.73h-.04M17.08-19.3h-.03M22.03-11.64H22M56.02-4.69h-.04M36.36-11.02h-.04M22.56-7.12h-.04M32.32-7.71h-.04M40.8-16.24h-.03M41.63-21.06h-.04M32.28-3.62h-.04M26.16-11.02h-.03M34.34-11.94h-.04M28.43-7.17h-.04M26.64-3.94h-.04M29.21-5.11h-.04M16.69-8.77h-.03M39.36-14.1l-.16.57M27.99-44.22l-.71-.44M17.25-38.12l.36-.18M20.43-49.75l.31-.42M38.05-52.06l.42.59M23.48-52.14l.14.42M23.34-50.21l.04.35M23.77-45.41l.44-.29M25.57-42.92l.41.08M23.93-43.57l-.05.41M28.29-44.5l-.3.28M45.14-26.58l.7.44M46.15-26.42l-.31.28M52.99-26.97l.31-.28M45.25-42.09l-.64-.37M28.3-46.35l.35.33M28.5-50.66v.63M29.6-51.58l-.2-.68M30.72-50.92h.57M33.16-50.64l.49.37M34.46-49.07l.39-.28M38.96-44.86l.44.01M40.52-45.39h.04M18.6-32.33l-.16-.44M17.02-33.05l-.48.39M19.98-26.73l-.11.7M23.35-32.26l-.52-.03M31.09-29.8l-.03.41M21.51-36.5l.04.9M27.88-32.29l-.82-.04M25.75-29.58l-.16.72M32.07-36.69l.5.17M34.84-34.36l-.04-.46M36.55-35.74h.04M35.71-29.55h-.04M35.03-42.02l.48-.28M39.2-39.54l.19.68M37.33-38.68l.52.44M35.98-36.5l.46.56M39.46-35.25h-.04M42.27-34.85l.14-.48M20.5-42.16l-.37-.07M18.47-39.99l-.09-.42M35.4-40.99h-.04M20.39-48.35l-.36-.16M22.55-39.82l.38.38M43.18-30.16l-.36.51M16.93-30.78l.46.4M26.99-30.74l-.38-.11M35.52-39.48l.09.42M30.93-38.76l-.09.64M26.3-47.83l.31.41M20.21-52.1l-.4.13M17.25-38.12l.63-.16M18.22-49.7l.85-.17M18.84-44.82l-.22-.44M23.55-41.27l-.05-.56M20.09-37.99l-.01.61M17.15-35.14l.09-.39M22.34-30.42l-.38-.4M24.67-27.07l-.16-.59M24.93-31.62l.48-.16M25.5-36.96l.32.37M33.98-32.29l-.32-.38M27.89-40.99l.64-.47M32.38-46.12l-.3.48M35.59-44.77l-.08-.39M34.55-46.37l-.61-.25M37.66-49.18l.09-.54M42.46-50.73l-.05.33M40.76-49.84l.46.12M36.85-44.5l.38.55M37.43-42.16l-.36.33M34.21-40.58l-.41-.1M28.65-37.73l-.22.25M31.04-34.7l-.51-.03M29.19-33.15l.41-.29M39.71-31.81v-.93M38.75-33.63l-.19-.57M36.47-34.29l.56-.1M39.9-30h.04M36.14-26.35l-.34-.6M61.66-27.06l-.28.92M42.48-37.82l-.28-.27M41.81-30.57h.04M43.47-28.4l.27.14M42.53-43.5l.29.51M26.79-45.96h.04M20.37-43.93h.04M31.28-43.88h.04M24.63-49.14h.04M21.97-52.07h.04M52.85-43.62h.04M54.32-20.18h-.04M31.64-28.37h-.04M30.58-27.52h-.04M39.81-27.1h.04M34.16-43.46h.04M36.47-49.38h-.04M31.52-41.99h.04M36.31-46.3h-.04M40.06-46.97h-.04M39.8-37.77h-.04M37.47-30.07h.03M26.87-28.53h-.04M22.93-28.61h-.04M22.01-40.98h-.04M16.77-47.04h.04M16.33-44.4h-.04M15.63-42.78h.03M21.15-29.98h.03M21.49-38.46h-.04M22.52-34.38h.04M40.77-43.5h.03M45.16-39.85h.04M46.63-41.04h.04M41.59-48.31h.04M32.24-31.43h.04M26.6-37.88h.04M28.43-34.43h-.04M27.74-29.61h-.04M16.66-36.58h.03M16.28-34.12h-.04M39.23-40.99l-.59.07M52.59-16.6l.4.08M65.09-21.81l.23.09M41.56-4.76l.41-.31M61.1-13.32l-.41-.1M50.51-24.45l-.14-.43M50.33-22.29l-.13-.86M50.33-22.29h-.04M51.25-18.67l.43-.28M48.42-17.52h-.04M48.38-17.37l-.47.23M54.88-16.72l-.05.54M55.19-19.09l.35.33M54.84-24.12v.63M56.29-25.48l.2.68M57.61-23.66h.57M60.54-23.02l-.49-.36M62.38-22.25l-.4.28M45.49-5.07l-.16-.44M50.24-5.55l-.52-.03M48.29-6.04l.03-.42M48.77-8.27l-.04-.58M54.77-5.03l-.82-.04M44.22-5.98l-.82-.03M57.54-4.94l-.08.7M59.26-9.37l-.49-.17M61.83-7.13l-.02-.29M61.93-14.76l.47-.28M64.75-10.98l-.53-.44M63.91-8.34l-.46-.55M54.5-8.26l.47.21M46.94-14.97l-.37-.07M45.54-13.59l-.09-.41M43.54-12.05l-.12-.7M47.43-20.86l-.35-.16M50.2-12.82l.39.38M46.11-10.64l-.2-.3M62.5-11.8l-.09-.42M57.83-11.9l-.1.64M53.19-20.6l-.13-.55M46.7-24.71l.4-.13M44.74-11.12l-.36.18M49.23-9.97l-.36.17M45.7-21.98l-.84.16M52.77-23.67l-.85.33M45.49-16.34l.23.44M50.44-14.01l-.05-.56M47.43-10.56l-.01.61M45.2-7.47l-.09.39M48.48-3.98l-.37-.4M52.71-8.85l-.08-.48M55.83-22.47l.33.37M61.09-4.92l-.32-.38M54.78-13.73l.64-.47M58.97-18.38l.62-.51M62.48-17.51l-.08-.4M61.44-19.02l.39-.41M64.13-16.69l-.39-.55M63.97-14.57l.35-.33M61.79-13.11l-1.1-.31M56.01-10.63l-.21.25M57.93-7.44l-.51-.04M56.49-6.17l-.41.28M51.02-9.11l-.41.28M64-6.89l-.56.09M52.99-19.04h.04M51.54-20.09h-.04M58.58-16.61h-.04M51.52-21.88h.04M64.27-25.18h-.04M48.9-24.82h-.04M48.86-24.82l-.07-.74M61.09-16.2h-.03M63.86-22.02h-.04M58.45-14.73h-.04M63.2-19.04h-.04M48.9-13.72h-.04M45.26-12.71h.04M44.3-18.89h-.04M44.04-16.93h-.03M44.32-15.37h-.04M46.85-5.9h-.04M50.88-4.64h-.04M49.45-7.12h-.04M59.17-4.28h-.04M53.53-11.18h-.04M55.32-7.17h-.04M52.26-5.59h-.04M43.79-9.54h.04M14.43-65.39v-.01M14.43-65.39l.04.18M20.13-65.3l-.02-.09M38.28-65.33h.04M52.59-65.11l.06-.28M44.78-65.39l.24.2M64.93-13.43l.39-.04M49.57-50.31l-.06-.44M53.52-52.51l.09.38M59.16-36.49l.5.18M63.17-36.52l.27.69M10.74-24.48l.45.4M50.37-52.3l.86.26M50.96-47.21l.05.44M48.38-44.63h.04M47.91-44.24l.47-.24M51.07-43.74l-.41-.08M54.49-43.9l-.06.54M54.79-45.96l.35.33M56.83-47.25l-.06.42M54.84-51.31l.16-.41M57.61-50.7h.57M60.02-50.74l-.21-.21M61.4-48.98l.39-.29M45.49-32.33l-.16-.44M43.43-32.77l.48-.38M47.42-26.84l-.11.7M48.72-33.43l-.03.41M57.43-29.8l-.03.41M48.07-36.11l.04.58M52.48-28.86l.17-.72M57.54-32.19l-.08.69M59.46-36.32l-.3-.17M62.02-34.29l.04.45M63.55-35.63h.04M62.23-28.73l.11-1.26M62.29-41.31l.11-.55M64.22-38.68l.53.44M62.39-35.68l1.05-.15M47.27-42.45l-.37-.07M43.52-39.79l.12.7M53.49-42.44h.04M47.08-48.28l.35.16M50.43-39.57l-.39-.38M52.68-30.86l.38.11M45.91-38.2l.2.3M62.41-39.48l.09.42M57.73-38.52l.1-.64M52.32-48.07l.26-.41M44.38-38.2l.36-.18M45.43-48.88l.27-.36M48-50.41l-.31.41M52.53-50.93l-.85.33M45.72-43.16l-.23-.44M50.39-41.83l.05.56M47.43-37.82l-.01.61M44.67-34.66l.09-.4M48.11-31.64l.37.4M52.2-32.08l-.48.16M56.09-49.8l-.33-.38M61.09-32.18l-.32-.38M55.42-41.46l-.64.47M58.85-45.91l.5-.24M62.3-44.29l-.46.45M61.44-46.28l-.15-.21M63.97-41.83l.35-.33M60.69-40.68l.41.1M55.33-37.48l.21-.25M57.93-34.7l-.51-.03M56.49-33.44l-.41.29M63.03-26.35l-.34-.6M53.11-46.84h-.04M58.75-43.64h-.04M59.92-47.79h-.04M56.8-51.79h.04M51.04-49.38h.04M48.66-52.07h-.03M58.53-28.15h-.04M61.09-42.69h-.03M62.79-50.14h.04M61.4-57.49h.04M58.41-41.99h.04M61.25-39.25h.04M58.5-37.78h.04M58.91-35.22h-.04M27.97-59.32h.04M29.76-49.15h-.04M34.56-60.42h.04M64.39-30.07h-.03M53.76-28.06h-.04M49.82-28.61h-.04M42.23-25.18h.04M57.21-18.58h-.04M48.86-40.98h.04M44.26-46.15h.04M44.26-46.15l-.28-.52M44.17-52.13h.04M51.86-64.09h.04M41.14-52.27h.04M44.01-44.19h.03M48.08-29.98h-.04M19.44-39.07h-.03M16.79-40.03h.04M48.95-38.41h.04M49.41-34.38h.04M53.49-38.28h.04M64.61-35.08h-.03M54.63-29.61h-.04M43.59-36.58h-.04M3.41-21.55l-.45-.18M2.96-13.47l.2-.02M62.13-30.32l1.05-.09M51.15-27.74l.05.46M50.93-28.07l1.06-.09M26.72-26.32l-.04-.45M27.51-27.2l-1.05.09M41.8-27.07l-.44.14M42.38-26.34l-.3-1.01M19.25-28.98l.05.46M19.03-29.31l1.06-.09M37.23-43.95l-1.06.48M21.51-36.5l-.83.46M12.51-65.27l.14-.12M14.43-65.4h0M35.07-3.15l.08.12M14.43-3.1h.04M14.43-3.09v-.01M14.43-3.09l.01.06M20.09-3.19l.03.16M38.32-3.02h-.04M52.74-3.52l-.1.49M44.56-3.28l.28.25M22.85-3.34l-.09.19M12.94-3.33l-.35.3M14.43-3.09h.04M14.43-3.09h0M9.57-4.33l-.69.25M43.79-63.3l-.03-1.1M52.48-33.23l-.28 1.15M43.54-45.67l.72-.48M51.68-50.6l.8.5M50.67-51.73l.56-.31M62.35-13.54l-.56.43M27.95-23.49l.84-.2" style="fill:none;stroke:#00aeef;stroke-width:.52;stroke-linecap:round"/><path d="M31.64-54.65h-.04M31.64-54.65h-.04M50.61-62.59l.41-.28M56.57-53.51l-.59.46M56.65-62.81l-.22-.46M25.03-50.76l.54-.17M64.39-47.04h-.04M64.39-47.04h-.04M43.78-27.04h-.04" style="fill:none;stroke:#00aeef;stroke-width:.9;stroke-linecap:round"/><path d="M10.99-58.52h-.04" style="fill:none;stroke:#00aeef;stroke-width:.75;stroke-linecap:round"/><path d="M11.69-55.2h-.04M23.83-62.37l-.14.36" style="fill:none;stroke:#00aeef;stroke-width:.7;stroke-linecap:round"/><path d="M53.31-53.57h-.03M53.31-53.57h-.03" style="fill:none;stroke:#00aeef;stroke-width:.75;stroke-linecap:round"/><path d="M48.58-57.19h-.04M48.58-57.19h-.04M51.76-58.85h-.04" style="fill:none;stroke:#00aeef;stroke-linecap:round"/><path d="M63.86-64.67h-.04M63.58-34.12h-.04M60.73-54.65h-.04M11.44-17.77h-.03" style="fill:none;stroke:#00aeef;stroke-width:.7;stroke-linecap:round"/><path d="M13.74-27.93h-.04" style="fill:none;stroke:#00aeef;stroke-width:.75;stroke-linecap:round"/><path d="M10.99-44.16h-.04M23.43-3.73l-.48.15M17.6-16.66h-.04M17.6-16.66h-.04M17.29-18.17h-.04" style="fill:none;stroke:#00aeef;stroke-width:.7;stroke-linecap:round"/><path d="M27.6-42.44h-.03M27.6-42.44h-.03" style="fill:none;stroke:#00aeef;stroke-width:.75;stroke-linecap:round"/><path d="m24.32-47.68.29.33M53.53-15.18h-.04" style="fill:none;stroke:#00aeef;stroke-width:.7;stroke-linecap:round"/><path d="m49.85-17.97.46-.24" style="fill:none;stroke:#00aeef;stroke-width:.75;stroke-linecap:round"/><path d="M53.53-15.18h-.04M64.55-23.67h-.04M25.22-23.94h-.04M15.24-26.97h-.03M17.8-23.82h-.03M27.01-25.04h-.04M55.46-26.23l-.72-.46M48.99-11.15h-.04M49.1-11.48h-.04M52.26-5.15h-.04M63.28-3.55h-.04" style="fill:none;stroke:#00aeef;stroke-width:.7;stroke-linecap:round"/><path d="m54.4-36.13.47.2M47-51.72l-.4.13" style="fill:none;stroke:#00aeef;stroke-linecap:round"/><path d="m52.71-36.59-.32-.37" style="fill:none;stroke:#00aeef;stroke-width:.7;stroke-linecap:round"/><path d="m60.41-29.92-.66.24" style="fill:none;stroke:#00aeef;stroke-width:.75;stroke-linecap:round"/><path d="m54.4-36.13.47.2M47-51.72l-.4.13" style="fill:none;stroke:#00aeef;stroke-linecap:round"/><path d="m52.71-36.59-.32-.37M64.48-50.55h-.04M64.61-60.38h-.03M59.8-49.31h-.04M58.36-47.25h-.04M57.12-55.16h-.04M55.32-34.43h-.04M55.32-34.43h-.04" style="fill:none;stroke:#00aeef;stroke-width:.7;stroke-linecap:round"/><path d="m60-41.81-.27-.49M62.76-37.63l-.96.56" style="fill:none;stroke:#00aeef;stroke-width:.75;stroke-linecap:round"/><path d="M34.16-26.49h-.04M43.5-41.35h-.04" style="fill:none;stroke:#00aeef;stroke-width:.7;stroke-linecap:round"/></svg>