<svg xmlns="http://www.w3.org/2000/svg" xml:space="preserve" width="87.31" height="87.31" viewBox="2.96 -90.36 87.31 87.31"><path d="M2.96-90.36h87.31v87.31H2.96z" style="fill:none"/><path d="M11.03-81.75h.06M36.38-90.32h.05M66.27-90.19l-.03-.17M17.14-77.68l.2-.51M13.09-75.47l.33.94M8.13-78.25l-.93.33M6.42-73.46l.57.28M27.52-88.03l.05.7M6.21-82.02l.44-.85M11.99-79.21h-.05M10.1-87.72l.87-.22M18.93-83.26h.05M7.99-85.18h-.06M16.41-85.46l.8.47M18.75-87.53h.05M19.64-80.88h.05M8.56-75.33h-.05M17.47-74.59h.6M22.2-79l.97.14M45.15-78.15l-.47.64M54.02-85.46l.82.47M26.64-83.93h.05M74.9-87.81h.06M86.61-81.75h.05M25.04-87.02h.05M22.55-76.23h-.05M29.32-73.72h.06M31.79-78.37l.22 1.12M25.11-81.33l.2-.51M53.76-78.16l.19-.51M36.88-83.66h-.06M45.72-89.51h.05M41.64-85.34h.06M39.43-79.26l-.35-.7M39.05-75.25l.83-.63M43.55-82.88l.43-.86M48.39-78.99h.05M59.6-83.75h-.05M46-85.4h.05M57.71-81.83h.05M30.8-88.17l-.15-.4M56.42-87.53h-.05M24.4-74.43h-.06M46.13-75.33h.06M40.03-73.53h-.06M26.1-78.99h.06M27.17-76.65l.01.89M32.51-82.88h.06M51.04-81.08l.64.25M52.41-87.27h.05M53.21-75.79h.05M62.4-87.44h.06M90.27-80.48l-.71-.41M62.32-87.58h-.06M59.21-77.09h-.05M67.89-73.65h.05M69.58-78.65l.21 1.12M64.45-85.47l.09-.25M70.78-83.62l.2-.51M73.63-83.1h.06M80.27-88.89h.05M75.05-78.87l.97.15M60.03-80.13l-.41-.18M81.48-82.02l.58-.5M87.2-79.21h.05M87.78-75.28l.33.94M85.27-87.39l.96-.55M83.2-85.18h.05M61.22-73.65h.05M72.39-76.03h.06M75.9-75.26h-.06M63.75-78.99h.06M64.82-76.65l.8.86M82.44-73.28l.58.3M10.92-7.16l-.26-.3M4.42-64.68h.06M20.53-53.48l.99.57M5.92-29.93l-.29.34M18.98-8h-.05M18.8-12.27h-.05M4.17-27.23l.98.57M16.73-35.51l-.98-.57M18.94-30.48l-.68.05M7.08-22.42l.63-.35M16.2-18.29l-.64.34M11.31-32.32h-.05M18.69-33.73h-.05M29.7-33.11h-.06M20.26-26.02h.05M7.92-13.92h-.05M6.96-7.45l-.44.86M15.84-15.59h-.06M7.55-19.19l-.38-.69M10.97-12.67l-.87.21M22.38-8.85h-.05M7.93-9.91h.06M14.23-68.41l-.53 1.4M18.69-18.66h-.05M17.21-9.72l-.8-.47M22.14-11.1h.05M10.75-27.62h-.05M9.03-33.64h-.05M19.69-5.61h-.05M6.91-15.97h.05M5.27-33.88h.06M7.28-28.04h-.05M11.09-21.36h-.06M13.85-26.82h-.06M15.85-21.21h.06M14.84-12h-.05M12.35-17.14h-.05M16.92-28.1h.05M7.2-40.37l.93-.33M6.57-67.57l.6.29M17.49-69.26l.68-.06M75.16-85.35l.68-.06M58.1-55.62l-.68.06M8.38-61.65l-.64.35M15.72-55.68l.64-.34M12.87-71.8h-.06M19.5-65.11h.06M16.57-40.31l-.2.51M7.92-52.08h-.05M6.85-46.39l-1.41 1.06M11.05-41.89h.05M6.54-42.92h.06M7.55-57.36l-.38-.68M10.1-50.62l.87-.21M18.98-46.16h-.05M8.43-48.29h-.05M20.23-56.01h.05M18.66-53.9h.05M17.21-47.89l-.8-.47M19.79-50.67h.06M10.75-65.78h-.05M9.5-70.31h-.05M20.16-43.57h.05M6.91-54.14h.05M4.23-71.7h.06M19.69-72.28h-.06M9.29-36.28l-.58-1.35M14.34-43.69h.05M12.47-62.56h-.06M29.58-70.18h.05M16.57-58.71h.05M14.79-50.16h.05M12.97-54.84h-.05M16.17-65.64h.05M5.73-36.28l.58.29M36.38-29.89h.06M54.75-25.18l.98.57M35.47-7.31h-.05M24.69-27.22h-.05M22.3-34.74h.05M35.55-19l-.81-.47M34.75-25.79l.66.32M60.56-49.09l-.81-.46M24.77-27.14l.8.48M54.84-9.72l-.82-.47M42.89-33.88h.06M26.47-4.03h-.06M33.93-34.68l-.27-.13M30.63-28.29l-.25-.53M74.96-12.54h-.06M86.45-6.32h.06M43.24-29.59l-.98-.57M48.33-30.23l-.87.74M41.5-26.85l.69-.06M24.24-37.57l-.69.06M56.56-30.48l-.68.05M46-23.48l-.64.34M53.61-18.21l-.07-.72M49.39-32.47h-.05M55-32.32h-.06M55.32-34.61h.06M58.63-25.73h-.05M25.09-11.75h-.05M32.18-10.87l-.2.51M25.31-6.57l-.2.5M45.55-13.92h-.06M35.66-9.81h-.05M41.7-10.07h-.06M43.98-7.55l-.43.86M34.77-23.1h-.06M39.96-23.96h-.05M45.17-19.19l-.37-.69M49.07-12.43l-.87.22M57.3-8.08h-.06M46.05-10.13H46M40.23-12.54l1.28.18M30.05-21.32H30M29.58-17.7l-1.68 1.66M64.64-81.69l1.68-1.66M42.12-43.7l1.68-1.66M56.51-18.32h.05M59.73-4.81h-.06M22.3-34.74l.49 1.07M56.33-15.74h-.05M64.41-7.07h-.05M31.6-13.03l-.15-.4M34.11-43.44l-.53-.33M41.7-17.9h-.39M56.37-12.27h.05M48.32-27.62h.05M38.9-28l-.51.58M27.63-25.35h-.06M51.81-24.4h.05M44.58-15.97h-.05M22.29-28.56h-.06M42.89-33.88l.43.68M22.11-19.17h-.06M22.77-15.27h-.06M27.56-12.74h-.06M21.14-23.48h-.06M26.69-8.66h-.05M44.9-28.04h-.05M38.74-16.23h-.05M3.89-90.36l.14.2M32.57-7.19h-.06M30.27-26.5h-.05M36.11-16.21h-.05M40.73-21.46l.2 1M25.54-19.63l-1.15-.06M51.47-26.82h-.06M53.53-21.21h-.05M52.14-5.19l-1.1-.62M52.46-12h-.05M25.04-17.37h.05M67.28-33.56h-.06M50.55-17.23h-.05M54.59-28.1h-.05M34.69-33.67l-1.03-1.14M54.14-61.15l-.98-.57M50.16-70.48h-.05M45.35-48.16h-.05M26.68-55.39l1.21-.38M23.19-70.4l.49-.29M44.82-40.53l.56-.75M27.3-62.85h.05M29.93-66.99l.36.25M36.38-68.06h.06M37.08-71.41h-.06M35.02-73.09h-.05M42.75-69.46l.49 1.71M41.88-65.3l.4-.06M56.56-68.65l-.68.06M45.36-61.3l.64-.35M53.93-56.7l-.64.34M51.09-69.75l-.98-.73M54.94-70.33H55M57.88-64.18h.06M25.09-49.91h-.05M21.11-39.23h-.05M30.96-36.21h-.05M32.15-40.43l-.22-1.12M29.51-61.04l.7-.04M54.96-41.08l-.19.5M36.4-45.81h-.05M45.39-52.7h-.05M12.76-59.93h-.06M34.62-47.78h-.05M39.6-41.98l-.54-.12M23.39-41.63l-.96-.14M39.05-38.45l.83-.64M48.54-42.13h.05M50.46-38.01l-.32-.94M34.71-61.26h.06M41.35-62.13h.06M44.8-58.04l.37.68M47.98-51.39l-.87.21M56.55-46.16h.05M45.94-48.24l-.64.08M29.9-58.58h-.06M56.87-58.14l-.06.15M24.64-65.38h.05M56.28-53.9h.05M31.98-51.58l-.91-.05M34.48-56.69l.33.58M24.77-65.3l.8.47M54.84-47.89l-.82-.47M41.58-55.62h-.38M56.27-50.28h-.05M48.32-65.78h.05M38.3-65.64l.57-.76M48.39-44.88h.06M47.22-71.49h.05M57.26-43.77h.05M44.47-54.8h-.05M65.19-30.91h-.05M22.05-67.56h.06M42.89-72.04h.06M22.67-57.27h-.05M21.94-60.57H22M24.8-46.92h-.05M46.19-38.22h-.06M40.03-36.43h-.06M44.85-66.2h.05M26.16-41.89h-.06M28.22-38.05l.8.87M32.51-45.97h.06M29.85-64.24h.05M38.55-53.32l-1.15-.96M33.65-53.8h.06M39.92-59.27l1.01.64M25.13-59.19l-.62-.58M51.64-64.76h.05M53.48-59.38h.05M51.04-43.98l.46.77M51.95-50.16H52M50.54-54.84h.05M54.24-67.03h-.05M53.26-38.68h-.05M43.27-36.57l.57.29M68.77-27.95l-.75-.87M86.99-32.47h.05M86.02-27.62h-.06M89.46-6.76l.81.46M68.46-28.26l-.74-.87M74.08-29.89h-.05M74.53-33.97h-.05M79.91-30.16l.98.57M78.96-26.56l.68-.06M83.01-23.14l.63-.34M58.33-20.86l-.63.34M90.09-35.8h.05M62.74-11.75h-.06M64.54-10.46l-.2.51M70.84-8.72l-.19.51M73.69-8.4h-.06M83.19-13.92h-.05M81.92-7.61l-.44.86M74.58-24.05h-.05M78.55-23.22h-.05M86.23-12.67l-.87.21M83.25-9.91h-.05M79.18-11.26l-.62-.86M67.54-20.41h-.05M64.42-16.01l1.65-.58M88.77-67.15l1.5-.54M62.34-27.22h-.06M62.12-32.39l-.65 1.03M60.33-34.3h-.05M70.31-13.49l-.15-.4M72.24-18.29l.81.47M63.22-26.66l-.81-.48M78.96-17.9h.38M76.68-28.32l-.57.77M65.27-25.35h-.05M70.65-22.71h.05M84.3-33.64h-.05M90.19-23.89h.05M82.23-15.97h-.05M59.93-28.56h-.05M80.54-33.88h.05M59.38-18.65h-.05M62.91-23.61h-.05M82.55-28.04h-.05M63.81-4.03h-.06M13.35-90.2l-.06-.16M24.11-89.4l-.77-.96M55.88-90.36l.01.41M40.48-89.98l-.54-.38M76.62-90.36l.24.38M83.66-90.36l-.26.24M69.24-90.36l.13.67M86.3-21.36h.06M68.07-26.04h-.05M75.99-15.94l1.07.07M72.5-15.43h-.06M78.57-20.46l-1-.64M62.8-18.61l-.32.33M89.12-26.82h-.06M28.82-46.34l-1.1-.63M90.11-12h-.06M88.24-16.67h-.05M71.58-34.68l-.28-.13M76.7-38.15l.82-.63M82.82-57.36l-.38-.68M59.71-56.7h-.05M62.91-61.77h-.05M65.62-38.68l-.8-.87M87.22-63.14h-.05M89.31-43.98l.96.55M67.83-66.99l.77.24M74.03-68.06h.05M80.31-67.27l-.6-.29M83.01-61.3l.63-.35M68.61-62.13l.64-.35M90.14-55.73l.13-.06M88.08-71.8h.06M62.68-49.91h.06M62.32-38.37h.05M67.89-36.55h.05M69.05-42.28l.74 1.85M68.44-50.14l-.2.51M73.69-46.98h-.06M83.14-52.08h.05M70.92-47.73h-.05M77.19-41.93l-.97-.14M61.65-40.85l-1.22-1.49M81.68-45.53l.44-.86M86.43-43.69h.05M81.86-42.92h-.05M88.11-38.01l-.33-.94M72.73-61.93h.05M78.75-61.84h.05M83.64-48.29h.06M78.17-50.03l1.28.18M67.49-58.58h.05M64.42-54.17l1.65-.59M61.47-69.52l.39-.64M70.19-52.16l-.15-.4M71.33-57.59l.8.47M62.29-65.19l.93.36M73.95-43.5l.87-1.31M78.96-56.06h.38M85.96-65.78h.06M75.48-65.45l.77-.57M66.14-63.86h-.05M84.71-70.31h.06M82.18-54.14h.05M59.88-66.72h.05M62.86-61.77l.83-.75M64.34-46.83h-.06M83.83-38.22h-.05M78.93-36.29h-.05M63.75-41.89h.06M69.51-45.08h-.05M76.18-53.7l-1.08-.07M89.6-61.55l.67.04M72.6-54.38h.05M77.57-59.27l1 .64M88.19-54.84h.05M3.35-80.27l-.39-.22M3.06-87.27h.06M3.26-6.13l-.3-.17M2.96-67.69l.16-.05M2.96-43.44l.14.09M3.48-56.07l-.52.28M3.37-61.48l-.41-.03M81.68-36.36l.58.29M38.42-48.75l-.73-.08M83.4-19.82l-.57-.39M36.43-90.29h-.05M7.39-90.36l-.19.28M39.91-90.36l.57.4M36.43-3.08h-.05M66.22-3.23l.03.17M3.77-3.31l.17.25M13.16-3.47l.15.41M13.31-3.06l.04.1M23.4-3.06l-.83-1.03M55.88-3.57v.51M40.03-3.06l-.9-.65M76.35-3.57l.32.51M84.05-3.48l-.46.42M69.16-3.58l.1.52M36.43-3.05h-.05M7.66-3.54l-.32.48M22.57-4.07l.82 1.01M39.13-3.69l.88.63M40.01-3.06h.02M23.33-90.36h.01M23.39-3.06h.01M39.91-90.36h.03" style="fill:none;stroke:#ec008c;stroke-width:.98;stroke-linecap:round"/><path d="M79.32-90.33h-.05M82.63-87.85h-.05M15.84-87.97h-.06M10.45-90.32h-.06M34.52-84.22l.32-.76M49.1-86.64l-1.05-.7M51.04-77.74h-.05M51.04-77.74h-.05M37.81-87.51l-.79.08M22.19-87.14h-.05M33.55-89.41h-.06M43.17-89.32h-.05M58.33-90.32h-.06M45.45-73.22l.58.28M82.95-77.77l-.64.16M16.62-24.88l-.98-.57M57.72-61.74l.29-.29M57.72-61.74l.29-.29M34.57-63.83h-.05M27.64-44.53h-.05M41.35-49.51l-.83-.52M21.9-62.85h-.05M31.75-49.4h-.05M52.19-35.07v-.83M56.65-38.78h-.06M64.64-44.27h-.04M80.59-72.04h-.05M87.59-59.1l-.06-.16M77.52-38.78l-.82.63M10.45-90.29h-.06M58.33-90.29h-.06M79.32-3.09h-.05M10.45-3.08h-.06M58.33-3.08h-.06M10.45-3.05h-.06M58.33-3.06h-.06" style="fill:none;stroke:#ec008c;stroke-width:.8;stroke-linecap:round"/><path d="M17.11-77.92h-.05M4.63-76.9l.04-.58M5.82-87.44l.69.24M10.08-84.48l.02.41M11-76.29l.08-1.25M11.07-77.49l.01-.05M12.38-86.54l.65.79M16.39-85.27h.05M20.37-84.7l.19-.68M20.52-76.36l-.51.71M7.97-81.37l.46.52M3.93-84.55l.72.05M16.79-80.46v-1.29M15.19-83.8l.25.79M12.36-83.6l.79-.13M20.27-89.25l.39.39M19.78-78.72h-.05M4.57-74.88h-.05M14.98-73.4h-.05M13.66-88.2h.06M14.53-78.54h.06M5.92-80.08h-.05M10.29-73.28l.28.95M43.99-87l.7.24M39.93-86.19l.48-1.81M21.96-81.8l.69-.53M25.97-76.72l.91.07M26.79-73.96l-.15.98M30.78-81.13l.72.05M28.78-81.66l.04-.58M41.57-77.64l-.04.58M29.39-86.47l.05.8M36.24-79.81l.87.61M34.87-77.33l-.22 1.01M41.61-80.02l.12-.97M48.35-89.85l-.37-.51M48.82-81.81l.06.63M51.49-85.06h.06M47.08-76.85h1.25M49.27-84.45l.65.78M54.01-85.27h.05M57.15-84.8l.19-.67M38.38-85.03l.64.28M55.9-76.01l.5-.72M33.87-79.46l.54.16M24.07-84.33l.13-.55M28.52-80.22l.52.56M32.25-74.32l.22.84M34.57-81.3l.68-.22M34.52-87.67l.45.52M46.25-81.5l.45.52M45.95-82l.45.52M40.41-88l.64.05M40.16-82.82l.72.05M55.07-81.08l.28-.83M52.98-83.13l.79-.13M53.72-78.4h-.05M55.35-73.92l.07.87M49.41-72.8l-.47-.85M56.75-78.67h.06M58.25-75.17l.38.2M52.55-73.4h.05M50.45-74.92h.05M54.48-88.8h.05M36.38-75.2h.05M30.91-75.97h-.05M28.42-77.9h.06M30.35-84.06h.05M22.16-83.94h-.05M44-80.08h-.05M37.6-77.38h.05M22.14-87.14h.05M74.35-81.18l1.15.05M86.34-77.49v-.05M77.9-82.73l-.57.4M62.28-81.8l.23.62M62.34-75.91l.92.07M64.28-72.98l.16-.98M67.7-81.17l.72.04M80.03-77.57l-1.34-.77M67.03-86.47l.06.8M50.29-89.32l1.16.05M72.52-79.38l-.22 1.01M79.37-80.99l-.11.97M80.6-86.38l.41.1M85.35-84.48l.02.41M85.57-76.48l.59-.52M87.65-86.54l.64.79M64.5-88.01l.02-.86M62.33-83.75l.13-.55M70.67-73.65l.22.84M72.5-87.15l.11.67M83.89-81.5l.46.52M67.27-88.47l-.3.34M79.03-84.95l1.52.79M77.33-82.33l.75-.83M69.67-86.44l.58-.4M80.91-75.79h-.06M89.94-73.4h-.05M89.52-77.58h-.05M68.51-75.97h.05M61.61-77.89h-.05M60.84-85.34h.05M68.42-83.78h.05M81.6-80.08h.05M76.36-83.81h.06M87.01-84.7h.05M76.24-76.94h.06M77.29-80.17h.05M60.12-87.44h.06M58.85-88.19l1.27.75M22.25-73.97l.07 1M58.51-72.33l-.07-1M85.84-72.33l-.28-.95M12.08-29.06h1.25M18.81-23.62l.29-.29M40.25-15.04l-.29.28M20.56-10.11l-.19.67M21.25-31.06l-.07.47M12.78-22.95l.54.77M4.9-9.78l-1.12.34M20.35-20.68l.8-.11M13.24-37.63v.88M4.2-31.94l.8-.01M8.31-31.04l-.68-.51M10.88-29.96l-.56.39M14.1-35.03l-1.2.51M17.73-25.93h-.05M37.49-6.25l-.29.29M6.51-11.94l-.69-.24M10.24-9.5l-.02-.41M10.91-19.88l-.67.4M18.92-14.65l-.27-.95M13.45-14.8l.74.61M13.03-10.49l-.65-.78M16.44-10h-.05M11.05-15.34l-.13-.58M4.5-15.47l-.13.9M9.5-5.32l-.45-.53M6.11-24.55l.86-.71M11.01-23.33l-.1-.55M10.11-26.02l-.54.57M14.91-29.91l-.13.75M16.12-31.75l-.07-1.01M46.19-34.5l.06 1.01M46.25-33.18l1.16-.89M20.97-32.98l.07-.46M18.26-30.43l.65.17M4.34-20.21l-.53-.77M13.1-19.21l.49-.46M9.09-17.46l-.58-.15M3.78-9.44l.64 1.59M16.79-6.49v1.3M15.44-7.74l-.25-.79M13.15-8.47l-.79.14M20.66-13.6l-.39-.38M20.48-4.04h-.05M20.3-20.75l-.41-.7M4.72-22.77h-.06M9.08-21.49h-.05M13.04-31.14h-.06M5.54-17.9l-.2-.77M12.03-25.47h-.05M16.91-13.54h-.06M14.84-5.15h-.05M18.32-21.56h-.05M19.48-28.29h-.06M5.77-4.66h-.06M16-17.79l-.82.09M4.35-69.48l.8-.01M6.68-70.77l.69.51M9.5-67.39l.56-.4M18.82-62.75l-.29.29M3.94-40.53l-.03.57M6.38-50.51l.69.24M10.44-46.19l-.06-.64M12.52-48.7h.05M11.63-39.75h-.05M10.75-57.27l.16-.77M16.88-52.12l-.27-.94M13.45-52.97l.74.62M12.36-48.98l-.64-.78M16.39-48.16h.05M20.56-48.27l-.19.67M10.92-54.08l.13.58M4.96-52.45l.13-.9M9.08-43.87l-.45-.52M5.94-63.09l.7-.33M11.98-60.13l.1.55M9.02-64.34l.55.73M16.26-61.68l-.13.76M15.25-70.25l-.06-1.01M20.64-69.83l-.08.46M17.28-63.42l.07-.47M11.6-44.27l.08-.46M17.49-69.26l.65.16M13.1-57.37l.49-.47M9.09-55.62l-.58-.15M4.65-47.4l-.72-.05M17.45-42.8v-1.3M15.44-45.9l-.25-.79M13.78-40.7l.26.79M13.04-46.96l-.79.13M16.33-40.04h-.05M26.36-31.82l-.07-.88M11.79-35.7l-.48-.85M19.22-40.85h-.05M10.91-38.62h.05M23.79-39.91h-.05M24.69-35.29h-.05M19.42-57.33l-.41-.7M17.13-71.99h.05M5.74-59.91h.05M7.56-65.35H7.5M5.43-38.22h.06M14.67-38.61h-.05M9.03-59.66h.05M12.09-69.63h.06M5.37-57.6h-.05M13.72-65.25h-.06M14.59-63.42h-.06M17.87-50.09h-.05M15.37-41.96h-.05M5.06-49.47H5M18.78-67.28h.06M19.44-60.54h.05M34.39-5.14l-.67.22M57.9-13.98l.38.38M31.89-33.05l-.2-.6M31.45-31.23l.18 1.21M31.63-30.02h-.05M32.64-25.35l-.61.4M28.91-23.35h.05M28.9-23.14l-.66.32M33.76-21.3l-.57-.1M31.75-22.95l-.05.58M37.45-23.22l-.08.75M38.15-25.09l-.49-.46M37.95-31.7v-.89M39.98-34.48l.28.95M42.62-31.95l-.8.01M45.93-31.04l-.68-.51M50.22-34.21l.94.37M55.56-25.07l-.62-.02M56.18-26.43h-.05M53.84-23.3l-.29.29M22.65-7.07l-.69.54M30.78-5.86l.72.05M28.78-6.39l.04-.58M29.44-10.4l-.05-.8M41.73-5.73l-.12.98M43.99-11.73l.7.24M48.88-5.91l-.06-.63M50.19-10.53h-.05M47.87-19.48l.66-.4M53.97-15.06l-.27-.95M51.81-14.19l-.74-.61M47.55-9.15l.64.78M54.06-10h-.05M58.1-11.17l-.19.67M37.47-10.82l.65.29M26.47-21.32l.51.11M24.35-19.82l-.03.62M22.26-15.82l-.16-.99M37-20.84h-.05M33.85-17.37h-.05M27.57-28.02l-.49-.22M32.66-15.34l-.55-.53M45.87-4.49l-.54-.16M25.82-14.8l-.29-.43M48.67-15.34l-.13-.58M60.13-9.65l-.14-.59M42.13-15.47l-.14.9M35.64-27.66l-.19-.76M27.11-33.59l-.56.18M23.45-13.59l-.51.25M25.15-29.59l-1.18.23M28.38-31.23l-.44.58M25.36-23.53l-.31-.62M31.79-18.42l-.08-.79M27.57-13.6l-.01.86M13.61-6.72l-.35.61M24.73-9.87l-.12.55M29.04-4.39l-.52-.56M34.97-11.88l-.45-.52M39.79-29.75l-.46-.53M46.7-5.71l-.45-.52M37.86-18.04l.9-.65M43.73-24.55l-.11-.57M48.63-23.33l-.1-.55M46.54-25.41l.55-.57M51.87-28.82l.13-.76M52.87-32.09l-.06-1.01M58.19-31.21l.07-.46M56.53-30.26l-.65-.17M50.25-22.49l.54.78M50.55-20.02l.17.81M46.71-17.46l-.58-.15M37.91-13.32l-.29.34M40.88-7.5l-.72-.05M55.07-6.64l-.28.82M53.06-7.74l-.25-.79M50.66-8.8l-.79.14M59.2-13.29l-1.3-.69M65.41-21.46l-.39-.38M70.7-20.4l-.39-.39M58.28-22.82l-.4-.7M35.41-25.47h-.06M33.32-26.95h-.05M42.34-22.77h-.06M33.3-29.45h.05M29.41-33.89h-.05M47.78-21.49h-.05M50.66-31.14h-.06M42.99-19.44h-.05M20.07-16.74h-.05M49.65-25.47h-.05M54.53-13.54h-.05M50.49-4.42h-.06M29.04-19.44h-.06M22.73-25.84h-.05M29.66-15.11h-.05M77.24-5.39h-.05M49.72-14.24h-.06M30.4-8.79h-.05M44.06-9.61h-.05M55.94-21.56h-.05M57.09-28.29h-.05M44-3.89h-.05M35.45-14.24h-.06M46.89-15.52h-.05M38.62-8.85h-.06M36.11-4.33h-.05M39.71-5.96h-.06M22.19-11.1h-.05M53.93-18.55l-.24.79M38-60.73l-.99-.61M22.97-52.19l.5-.24M27.42-68.47l.43-.58M52.09-71.69l.59.82M31.69-71.81l.2.59M31.49-69.1l.05.48M32.1-62.39l.61-.41M34.62-58.9l.57.11M32.31-59.81l-.06.57M38.42-61.12l-.42.39M62.01-36.03l.99.61M63.42-35.81l-.42.39M73.01-36.57l.42-.39M62.16-57.75l-.89-.51M38.43-63.71l.49.46M38.72-69.74v.88M40.26-71.03l-.28-.95M41.82-70.11h.8M45.25-69.72l.68.52M47.06-67.51l.55-.39M53.35-61.62l.63.02M55.55-62.37h.05M24.86-44.07l-.22-.62M22.65-45.08l-.69.54M26.79-36.24l-.15.98M31.5-43.98l-.72-.04M42.34-40.53l-.04.57M28.93-49.92l.05 1.27M37.85-44.02l-1.15-.05M34.87-40.22l-.22 1M43.72-50.18l.69.24M47.6-46.92l-.06-.64M49.98-48.85h.06M48.81-40.19h-.05M47.87-57.65l.66-.39M53.7-54.17l.27.94M51.07-52.97l.74.62M49.18-49.92l.65.78M54.06-48.16h-.05M57.99-47.6l.2-.67M27.51-57.84l-.51-.11M24.67-54.8l-.12-.58M48.37-56.21h-.06M27.36-66.51l-.5-.22M30.38-54.56l.55.53M59.27-41.04l-.51.71M22.52-41.91l.64.57M36.6-41.85l-.54-.16M48.54-54.08l.13.58M42.13-53.08l-.14.9M35.63-65.78l.44.58M27.11-71.75l-.56.18M22.97-52.19l.87-.21M24.33-68.4l1.18-.23M25.19-61.56l-.31-.61M31.79-56.59l-.08-.78M26.95-52.01l-.02.86M22.82-48.01l.13-.55M30.09-41.4l-.52-.56M33.35-36.71l-.22-.84M33.72-43.09l.67-.21M34.52-50.56l.45.52M46.39-44.02l-.45-.53M37.86-56.2l.9-.65M44.15-63.38l-.42.67M48.63-61.49l-.1-.56M47.18-63.74l-.84-.35M51.54-67.67l.13-.75M58.26-69.83l-.07.46M55.88-68.59l.65.17M50.4-61.11l.55.77M51.22-57.84l-.5.47M46.71-55.62l-.58-.15M38.92-51.63l-.29.34M42.27-47.4l-.72-.05M39.68-45.23l.58-.39M54.41-43.35v-1.3M53.06-45.9l-.25-.79M49.87-46.83l.79-.13M54.68-40.82h.05M49.41-35.7l-.47-.85M85.14-36.7l-.39 1.28M58.28-51.76l-.38-.39M57.35-41.62h.05M59.67-38.57l.38.19M58.36-59.72l.4.71M36.32-63.16h.05M27.33-60.31h.06M42.6-60.25h.06M33.3-67.61h.05M29.58-71.72h.05M72.81-59.88h.06M74.87-27.07h-.06M43.11-38.53h-.06M41.63-37.34h-.05M54.55-36.76h.05M46.65-59.66h.05M49.88-67.95h-.06M42.94-57.6h.05M49.65-63.63h-.05M54.9-64.57h-.05M54.53-51.7h-.05M51.27-40.92h.05M36.43-38.76h-.05M30.91-38.87h-.05M29.63-56.19h-.05M22.3-64.68h.05M21.68-60.97h-.06M20.69-58.71h.05M28.42-40.79h.06M28.9-52.66h-.05M30.35-46.95h.05M55.89-59.72h.05M62.05-54.6h.05M64.1-56.27h.05M57.04-66.46h.05M43.95-42.82H44M36.06-51.85h.05M38.62-47.02h-.06M37.65-40.28h-.05M22.14-50.03h.05M21.61-46.58h-.05M53.74-56.2l-.83.1M72.44-22.05l.57.11M89.95-29.35l.32.12M57-5.48l.58-.44M84.36-17.46l-.58-.15M69.53-33.05l-.19-.6M69.28-30.02l-.19-1.21M69.28-30.02h-.06M70.56-24.95l.61-.4M66.61-23.35h-.05M66.55-23.14l-.66.32M75.65-22.22l-.07.75M76.08-25.55l.49.46M75.6-32.59v.89M77.63-34.48l.28.95M79.47-31.94l.8-.01M83.58-31.04l-.69-.51M86.14-29.96l-.55.39M62.51-5.91l-.23-.62M69.15-6.58l-.73-.05M66.42-7.28l.05-.58M67.09-10.4l-.06-.8M75.5-5.86l-1.15-.05M60.73-7.18l-1.16-.05M79.37-5.73l-.11.98M81.78-11.94l-.69-.24M85.37-8.8l-.02-.41M85.51-19.48l.67-.4M89.46-14.19l-.74-.61M88.29-10.49l-.64-.78M75.12-10.38l.65.29M64.53-19.77l-.51-.11M62.57-17.84l-.12-.57M59.77-15.69l-.17-.98M65.22-28.02l-.5-.22M69.09-16.76l.55.53M63.38-13.71l-.3-.43M86.31-15.34l-.12-.58M79.77-15.47l-.13.9M73.29-27.66l-.19-.76M64.2-33.41l.56-.18M61.45-14.38l-.5.24M67.73-12.78l-.5.25M62.8-29.59l-1.18.23M72.69-31.95l-1.19.46M62.51-21.7l.31.62M69.44-18.42l-.08-.79M65.22-13.6l-.02.86M62.1-9.27l-.13.55M66.69-4.39l-.52-.56M72.61-11.21l-.11-.67M76.98-30.28l.45.53M84.35-5.71l-.46-.52M75.5-18.04l.9-.65M81.38-24.55l.86-.71M86.28-23.33l-.1-.55M84.84-25.45l.54-.57M88.59-22.18l-.54-.77M88.37-19.21l.49-.46M85.32-17.16l-1.54-.45M77.23-13.69l-.29.34M79.92-9.24l-.72-.04M77.9-7.46l-.57.39M70.25-11.57l-.58.4M88.42-8.47l-.79.14M73-25.47h.05M70.97-26.95h-.05M80.82-22.08h-.05M70.95-29.45H71M88.79-34.07h-.05M67.28-33.56h-.06M67.22-33.56l-.1-1.04M84.35-21.49h-.06M88.22-29.64h-.06M80.64-19.44h-.05M87.3-25.47h-.05M67.28-18.03h-.06M62.18-16.61h.05M60.83-25.25h-.05M60.48-22.52h-.06M60.86-20.34h-.05M64.41-7.07h-.05M70.04-5.31h-.05M68.05-8.79H68M81.65-4.81h-.05M73.76-14.46h-.05M76.26-8.85h-.05M71.97-6.64h-.05M60.12-12.17h.06M19.02-90.36v-.02M19.02-90.36l.05.25M27-90.23l-.02-.13M52.41-90.28h.05M72.44-89.97l.08-.39M61.51-90.36l.33.28M89.72-17.61l.55-.06M68.21-69.25l-.08-.62M73.75-72.33l.12.53M81.64-49.9l.7.24M87.25-49.95l.38.97M13.85-33.1l.64.57M69.34-72.03l1.2.35M70.16-64.91l.07.62M66.56-61.29h.05M65.89-60.76l.66-.32M70.31-60.06l-.57-.1M75.1-60.27l-.08.75M75.53-63.15l.49.45M78.38-64.97l-.09.59M75.6-70.64l.22-.59M79.47-69.8h.8M82.84-69.85l-.3-.29M84.77-67.39l.56-.4M62.51-44.07l-.23-.62M59.61-44.69l.68-.54M65.2-36.39l-.14.98M67.02-45.62l-.04.57M79.21-40.53l-.04.57M66.11-49.37l.06.81M72.3-39.22l.22-1M79.37-43.89l-.11.97M82.06-49.66l-.42-.24M85.65-46.83l.05.64M87.78-48.7h.06M85.94-39.04l.16-1.77M86.02-56.65l.16-.77M88.72-52.97l.74.62M86.16-48.76l1.47-.22M64.99-58.24l-.51-.11M59.75-54.53l.16.99M73.71-58.23h.05M64.72-66.4l.5.21M69.42-54.22l-.55-.53M72.56-42.02l.54.16M63.08-52.3l.3.43M86.19-54.08l.12.58M79.64-52.74l.13-.89M72.06-66.12l.36-.56M60.95-52.3l.5-.24M62.42-67.24l.38-.51M66.02-69.39l-.43.58M72.35-70.11l-1.18.45M62.82-59.24l-.31-.62M69.36-57.37l.08.78M65.22-51.77l-.02.86M61.35-47.35l.13-.54M66.17-43.11l.52.56M71.9-43.72l-.68.21M77.34-68.54l-.46-.53M84.35-43.87l-.46-.52M76.4-56.85l-.9.65M81.21-63.09l.7-.33M86.03-60.83l-.64.64M84.84-63.61l-.22-.3M88.37-57.37l.49-.47M83.78-55.77l.58.15M76.27-51.29l.3-.34M79.92-47.4l-.72-.05M77.9-45.62l-.57.39M87.05-35.7l-.47-.85M73.17-64.39h-.05M81.06-59.91h-.05M82.71-65.72h-.06M78.34-71.32h.05M70.28-67.95h.05M66.94-71.72h-.05M80.75-38.22h-.05M84.35-58.58h-.06M86.72-69.01h.05M84.78-79.31h.05M80.59-57.6h.05M84.57-53.77h.05M80.72-51.72h.05M81.29-48.12h-.06M37.97-81.86h.05M40.48-67.63h-.06M47.21-83.4h.05M88.97-40.92h-.06M74.08-38.09h-.05M68.56-38.87h-.05M57.94-34.07h.05M78.91-24.83h-.05M67.22-56.19h.06M60.78-63.42h.05M60.78-63.42l-.39-.73M60.65-71.8h.05M71.42-88.55h.05M56.42-71.99h.05M60.42-60.68h.06M66.12-40.79h-.05M26.04-53.51h-.06M22.33-54.86h.05M67.35-52.6h.06M68-46.95h.05M73.71-52.4h.05M89.27-47.93h-.05M75.3-40.28h-.05M59.84-50.03h-.06M3.59-28.98l-.63-.25M2.96-17.67l.29-.04M85.79-41.27l1.48-.13M70.43-37.65l.06.64M70.12-38.11l1.48-.13M36.23-35.66l-.07-.64M37.33-36.89l-1.48.13M57.33-36.71l-.61.19M58.15-35.69l-.43-1.42M25.77-39.38l.06.64M25.46-39.84l1.48-.13M50.95-60.34l-1.49.67M28.93-49.92l-1.16.64M16.32-90.2l.2-.16M19.02-90.38h0M47.91-3.22l.12.16M19.02-3.15h.05M19.02-3.14v-.01M19.02-3.14l.01.08M26.95-3.27l.04.21M52.46-3.05h-.05M72.66-3.74l-.15.68M61.2-3.4l.39.34M30.8-3.49l-.12.27M16.94-3.48l-.5.42M19.02-3.14h.05M19.02-3.14h0M12.21-4.88l-.96.34M60.12-87.44l-.04-1.53M72.29-45.34l-.39 1.62M59.77-62.75l1.01-.67M71.17-69.66l1.12.7M69.75-71.24l.79-.44M86.11-17.78l-.79.62M37.95-31.7l1.17-.29" style="fill:none;stroke:#ec008c;stroke-width:.52;stroke-linecap:round"/><path d="M43.11-75.33h-.06M43.11-75.33h-.06M69.67-86.44l.58-.4M78.01-73.72l-.82.63M78.13-86.75l-.31-.64M33.86-69.87l.76-.24M88.96-64.68h-.05M88.96-64.68h-.05M60.11-36.67h-.05" style="fill:none;stroke:#ec008c;stroke-width:.9;stroke-linecap:round"/><path d="M14.2-80.75h-.05" style="fill:none;stroke:#ec008c;stroke-width:.75;stroke-linecap:round"/><path d="M15.18-76.09h-.05M32.18-86.13l-.2.5" style="fill:none;stroke:#ec008c;stroke-width:.7;stroke-linecap:round"/><path d="M73.46-73.82h-.06M73.46-73.82h-.06" style="fill:none;stroke:#ec008c;stroke-width:.75;stroke-linecap:round"/><path d="M66.82-78.87h-.05M66.82-78.87h-.05M71.27-81.21h-.05" style="fill:none;stroke:#ec008c;stroke-linecap:round"/><path d="M88.22-89.36h-.06M87.83-46.58h-.05M83.83-75.33h-.05M14.84-23.7h-.05" style="fill:none;stroke:#ec008c;stroke-width:.7;stroke-linecap:round"/><path d="M18.05-37.92H18" style="fill:none;stroke:#ec008c;stroke-width:.75;stroke-linecap:round"/><path d="M14.2-60.63h-.05M31.62-4.04l-.67.22M23.45-22.13h-.05M23.45-22.13h-.05M23.02-24.25h-.05" style="fill:none;stroke:#ec008c;stroke-width:.7;stroke-linecap:round"/><path d="M37.46-58.23h-.05M37.46-58.23h-.05" style="fill:none;stroke:#ec008c;stroke-width:.75;stroke-linecap:round"/><path d="m32.86-65.57.41.46M73.76-20.07h-.05" style="fill:none;stroke:#ec008c;stroke-width:.7;stroke-linecap:round"/><path d="m68.61-23.97.64-.34" style="fill:none;stroke:#ec008c;stroke-width:.75;stroke-linecap:round"/><path d="M73.76-20.07h-.05M89.18-31.95h-.05M34.12-32.34h-.05M20.16-36.57h-.06M23.74-32.16h-.05M36.63-33.88h-.06M76.46-35.54l-1-.65M67.41-14.43h-.06M67.56-14.9h-.05M71.97-6.02h-.05M87.41-3.79h-.05" style="fill:none;stroke:#ec008c;stroke-width:.7;stroke-linecap:round"/><path d="m74.98-49.4.65.29M64.62-71.22l-.56.18" style="fill:none;stroke:#ec008c;stroke-linecap:round"/><path d="m72.61-50.04-.45-.52" style="fill:none;stroke:#ec008c;stroke-width:.7;stroke-linecap:round"/><path d="m83.4-40.7-.94.33" style="fill:none;stroke:#ec008c;stroke-width:.75;stroke-linecap:round"/><path d="m74.98-49.4.65.29M64.62-71.22l-.56.18" style="fill:none;stroke:#ec008c;stroke-linecap:round"/><path d="m72.61-50.04-.45-.52M89.08-69.59h-.05M89.27-83.35h-.05M82.54-67.85h-.06M80.52-64.97h-.06M78.78-76.03h-.05M76.26-47.02h-.05M76.26-47.02h-.05" style="fill:none;stroke:#ec008c;stroke-width:.7;stroke-linecap:round"/><path d="m82.82-57.36-.38-.68M86.68-51.49l-1.35.77" style="fill:none;stroke:#ec008c;stroke-width:.75;stroke-linecap:round"/><path d="M46.64-35.9h-.06M59.71-56.7h-.05" style="fill:none;stroke:#ec008c;stroke-width:.7;stroke-linecap:round"/></svg>