<svg xmlns="http://www.w3.org/2000/svg" xml:space="preserve" width="54" height="54" viewBox="2.16 -56.16 54 54"><path d="M2.16-56.16h54v54h-54z" style="fill:none"/><path d="m6.92-51.79 2.65 2.82M2.81-56.16l4.11 4.37M12.27-46.09l-2.7-2.88M16.99-41.08l-4.72-5.01M17.83-52.56l3.39 3.66M24.14-45.73l2.27 2.47M14.76-55.9l-.24-.26M14.76-55.9l3.07 3.34M24.14-45.73l-2.92-3.17M14.52-2.16l-2.78-3.01M9.86-7.2l1.88 2.03M38.25-47.53l6.86 7.95M35.37-50.88l2.88 3.35M35.37-50.88l-1.87-2.17M30.82-56.16l.47.54M33.5-53.05l-2.21-2.57M47-42.85l-6.49-7.6M47-42.85l2.31 2.71M35.8-55.95l4.71 5.5M35.8-55.95l-.17-.21M49.36-40.08l-.05-.06M41.4-56.16l4.94 5.77M46.34-50.39l1.77 2.06M51-45.18l1.68 1.85M52.68-43.33l1.36 1.5M20.64-56.03l.71.89M20.54-56.16l.1.13M33.14-48.3l3.2 3.24M33.14-48.3l-.44-.44M36.34-45.06l2.79 2.82M28.66-51.99l-2.74-3.38M25.27-56.16l.65.79M28.66-51.99l1.45 1.79M23.48-52.01l3.01 3.03M23.48-52.01l-.57-.57M30.37-45.09l-3.88-3.89M35.16-40.26l-4.79-4.83M51.31-55.17l-.77-.99M51.31-55.17l2.25 2.84M55.11-50.33l-1.55-2M9.67-55.03l-2.75 3.24M9.67-55.03l.57-.67M6.92-51.79l-.93 1.09M12.04-52.42l-.55.72M12.04-52.42l2.72-3.48M14.76-55.9l.2-.26M8.66-41.01l.55-.77M12.27-46.09l-3.06 4.31M13.24-47.45l-.97 1.36M17.83-52.56l2.81-3.47M20.74-56.16l-.1.13M14.61-48.58l3.22-3.98M22.86-43.95l1.28-1.78M31.29-55.62l.39-.54M24.14-45.73l2.35-3.25M31.29-55.62l-2.63 3.63M28.66-51.99l-2.17 3.01M35.8-55.95l-2.3 2.9M35.8-55.95l.17-.21M33.5-53.05l-1.76 2.22M42.63-53.2l-2.12 2.75M38.25-47.53l2.26-2.92M35.38-43.83l.96-1.23M38.25-47.53l-1.91 2.47M46.34-50.39l-1.1 1.06M51.31-55.17l.55-.53M51.31-55.17l-4.97 4.78M49.74-47.95l3.82-4.38M53.56-52.33l.43-.5M46.82-42.66l.18-.19M50.08-46.1 47-42.85M52.05-42.64l.63-.69M54.6-45.45l-1.92 2.12M53.73-35.67l-2.28 3.08M49.55-30.02l1.9-2.57M48.22-28.22l1.33-1.8M56.16-38.96l-2.43 3.29M2.56-39.5l-.4.54M10.34-50.01l-.77 1.04M6.37-44.66l3.2-4.31M2.56-39.5l3.81-5.16M50.84-23.48l-1.86 2.77M50.84-23.48l5.32-7.89M44.59-14.2l1.36-2.02M48.98-20.71l-3.03 4.49M2.16-31.33l3.48-5.17M6.67-38.01 5.64-36.5M42.49-37.25l-3-3.08M45.15-34.53l-2.66-2.72M45.15-34.53l4.4 4.51M50.11-29.45l-.56-.57M47.17-37.26l4.28 4.67M51.45-32.59l1.34 1.45M47.17-37.26l-.18-.19M53.73-35.67l-1.34-1.22M56.16-33.44l-2.43-2.23M45.15-34.53l-2.37 3.19M41.11-29.11l1.67-2.23M47.17-37.26l2.14-2.88M38.86-26.08l2.25-3.03M45.15-34.53l2.02-2.73M50.33-41.51l-1.02 1.37M42.49-37.25l-4.56 5.15M42.49-37.25l1.06-1.2M35.8-29.7l2.13-2.4M32.79-41.26l-2.14 2.3M26.76-34.76l3.89-4.2M14.88-36.06l-2.66-2.69M14.88-36.06l.78.8M12.22-38.75l-3.01-3.03M6.37-44.66 2.86-48.2M6.37-44.66l2.84 2.88M14.71-20.12l-2.94-3.15M5-30.51l.83.88M9.76-25.41l-3.93-4.22M11.77-23.27l-2.01-2.14M14.71-20.12l5.24 5.61M19.95-14.51l2.16 2.31M8.62-33.61 5.64-36.5M2.56-39.5l-.4-.39M2.56-39.5l3.08 3M11.99-30.33l-3.37-3.28M5.83-29.63l-1.58 2.26M8.62-33.61l-2.79 3.98M8.62-33.61l3.6-5.14M13.58-40.7l-1.36 1.95M14.88-36.06l5.66-8.16M12.04-31.97l2.84-4.09M24.93-38.77l5.44-6.32M33.14-48.3l2.23-2.58M22.02-35.41l-4.22 4.9M33.14-48.3l-2.77 3.21M15.16-27.46l-1.25 1.45M24.93-38.77l-2.91 3.36M15.16-27.46l2.64-3.05M35.37-50.88l.54-.63M34.25-35.57l-3.6-3.39M34.25-35.57l3.68 3.47M41.11-29.11l-3.18-2.99M30.65-38.96l-.79-.74M41.11-29.11l1.63 1.53M24.7-32.74l1.91 1.91M22.02-35.41l-1.61-1.6M22.02-35.41l2.68 2.67M17.8-30.51l-2.7-2.59M17.8-30.51l1.99 1.91M24.48-25.75l2.91 2.78M23.41-26.76l1.07 1.01M27.39-22.97l4.22 4.02M30.19-31.49l-5.71 5.74M34.25-35.57l-4.06 4.08M34.25-35.57l3.66-3.69M24.48-25.75l-4.1 4.13M20.38-21.62l-1.99 2M24.7-32.74l.66-.84M14.71-20.12 18-24.28M24.7-32.74 18-24.28M14.71-20.12l-1.22 1.54M14.61-28.08l.55.62M23.32-18.34l-2.94-3.28M23.32-18.34l8.23 9.23M20.38-21.62 18-24.28M15.16-27.46 18-24.28M31.55-9.11l1.28 1.43M30.48-26.48l-3.09 3.51M11.74-5.17l-.58.66M23.32-18.34l4.07-4.63M23.32-18.34l-3.37 3.83M31.99-28.2l-1.51 1.72M11.74-5.17l3.36-3.82M19.95-14.51 15.1-8.99M37.23-24.66l.38-.54M35-21.51l-5.89 8.31M37.23-24.66 35-21.51M54.95-19.48l.41.4M50.84-23.48l-8.06-7.86M42.78-31.34l-2.29-2.24M50.84-23.48l4.11 4M43.66-18.43l2.29 2.21M45.95-16.22l.46.46M40.53-21.47l3.13 3.04M40.53-21.47l-3.3-3.19M30-31.68l.19.19M30.19-31.49l7.04 6.83M47.15-22.55l-3.04-3.03M50.99-18.7l-2.01-2.01M48.98-20.71l-1.83-1.84M23.24-10.95l2.37 2.75M25.61-8.2l2.87 3.32M30.82-2.16l-2.34-2.72M34.59-3.37l1.04 1.21M38.58-5.45l2.82 3.29M36.86-7.45l1.72 2M11.98-12.92l3.12 3.93M11.98-12.92 9.36-16.2M20.54-2.16 15.1-8.99M21.99-6.2 23-4.96M23-4.96l2.27 2.8M37.99-17.98l2.65 3.19M46.83-7.3l.28.35c.53 1 1.91 2.85 3.43 4.79M37.99-17.98l-1-1.22M40.64-14.79l6.19 7.49M16.74-4.45l-1.78 2.29M27.74-10.83 25.61-8.2M23-4.96l-2.26 2.8M25.61-8.2 23-4.96M37.99-17.98l2.54-3.49M40.53-21.47l2.38-3.29M37.99-17.98l-6.44 8.87M31.55-9.11l-3.07 4.23M28.48-4.88 26.5-2.16M34.86-6.58l-3.18 4.42M38.58-5.45l4.16-5.25M38.58-5.45l-2.61 3.29M25-14.01l-4.61 5.14M47.83-23.35l-.68.8M43.66-18.43a565.8 565.8 0 0 1 3.49-4.12M40.64-14.79a71 71 0 0 0-3.3 4.28M43.66-18.43c-1 1.18-2.05 2.45-3.02 3.64M2.16-21.22l.97-1.44M4.92-25.33l-1.8 2.67M8.32-8.99 5.36-5.81M15.33-16.51l-3.35 3.59M3.74-4.08l1.62-1.73M11.98-12.92 8.32-8.99M55.76-9.61l.4-.54M55.76-9.61l-4.2 5.78M4.45-13.21l-2.29 3.15M12.94-24.89l-1.17 1.62M11.77-23.27 4.45-13.21M51.49-14.31l-2.94-3.25M55.76-9.61l-4.27-4.7M55.76-9.61l.4.44M2.99-32.7l-.83-.76M8.67-2.16 5.36-5.81M2.16-9.34l3.2 3.53M12.98-51.39l-.94-1.03M8.65-56.16l1.02 1.13M12.04-52.42l-2.37-2.61M9.76-25.41l-7.6 10.06M9.76-25.41l1.26-1.67M49.34-11.09l-2.51 3.8M49.34-11.09l2.15-3.22" style="fill:none;stroke:#ec008c;stroke-width:.58"/><path d="M45.06-4.58c.18-.3.83-1.3 1.77-2.72M54.95-19.48l-3.46 5.17M56.16-21.3l-1.21 1.82M56.16-15.41l-1.67 2.21M30.48-26.48l-2.32-2.53M35-21.51l.74.81M35-21.51l-4.52-4.97M49.34-11.09l-1.98-2.3M52.04-7.95l-2.7-3.14M45.51-2.16l-2.46-2.85M47.73-53.58l-2.22-2.58M54.3-25.85l1.86 2.16M5.06-20.41l-1.93-2.25M2.16-23.78l.97 1.12M56.16-39.89l-1.5-1.46M8.32-8.99l.89.95M4.45-13.21l3.87 4.22M4.45-13.21l-1.04-1.14M24.93-38.77l1.4 1.67M24.93-38.77l-3.35-3.99M56.16-2.85 53.6-5.58M17.36-43.59l3.86-5.31M21.22-48.9l2.26-3.11M25.92-55.37l.57-.79M25.92-55.37l-2.44 3.36" style="fill:none;stroke:#ec008c;stroke-width:.58"/></svg>