<svg xmlns="http://www.w3.org/2000/svg" xml:space="preserve" width="54" height="54" viewBox="1.86 -55.86 54 54"><path d="M1.86-55.86h54v54h-54z" style="fill:none"/><path d="m6.62-51.49 2.65 2.82M2.51-55.86l4.11 4.37M11.97-45.79l-2.7-2.88M16.69-40.78l-4.72-5.01M17.53-52.26l3.39 3.66M23.84-45.42l2.27 2.46M14.46-55.6l-.25-.26M14.46-55.6l3.07 3.34M23.84-45.42l-2.92-3.18M14.21-1.86l-2.77-3.01M9.56-6.9l1.88 2.03M37.95-47.23l6.86 7.95M35.07-50.58l2.88 3.35M35.07-50.58l-1.87-2.17M30.52-55.86l.46.54M33.2-52.75l-2.22-2.57M46.7-42.55l-6.5-7.6M46.7-42.55l2.31 2.71M35.5-55.65l4.7 5.5M35.5-55.65l-.17-.21M49.06-39.78l-.05-.06M41.1-55.86l4.95 5.77M46.05-50.09l1.76 2.06M50.7-44.88l1.68 1.85M52.38-43.03l1.36 1.5M20.34-55.73l.71.89M20.24-55.86l.1.13M32.84-48l3.2 3.24M32.84-48l-.44-.44M36.04-44.76l2.8 2.82M28.36-51.69l-2.74-3.38M24.97-55.86l.65.79M28.36-51.69l1.45 1.79M23.18-51.71l3.01 3.03M23.18-51.71l-.57-.57M30.07-44.78l-3.88-3.9M34.87-39.96l-4.8-4.82M51.01-54.87l-.77-.99M51.01-54.87l2.25 2.84M54.81-50.03l-1.55-2M9.37-54.73l-2.75 3.24M9.37-54.73l.57-.67M6.62-51.49l-.93 1.09M11.74-52.12l-.55.72M11.74-52.12l2.72-3.48M14.46-55.6l.2-.26M8.37-40.71l.54-.77M11.97-45.79l-3.06 4.31M12.94-47.15l-.97 1.36M17.53-52.26l2.81-3.47M20.44-55.86l-.1.13M14.31-48.28l3.22-3.98M22.56-43.65l1.28-1.77M30.98-55.32l.4-.54M23.84-45.42l2.35-3.26M30.98-55.32l-2.62 3.63M28.36-51.69l-2.17 3.01M35.5-55.65l-2.3 2.9M35.5-55.65l.17-.21M33.2-52.75l-1.76 2.22M42.34-52.9l-2.14 2.75M37.95-47.23l2.25-2.92M35.09-43.53l.95-1.23M37.95-47.23l-1.91 2.47M46.05-50.09l-1.11 1.06M51.01-54.87l.55-.53M51.01-54.87l-4.96 4.78M49.44-47.65l3.82-4.38M53.26-52.03l.43-.5M46.52-42.36l.18-.19M49.78-45.8l-3.08 3.25M51.75-42.34l.63-.69M54.3-45.15l-1.92 2.12M53.43-35.37l-2.28 3.08M49.25-29.73l1.9-2.56M47.92-27.92l1.33-1.81M55.86-38.66l-2.43 3.29M2.26-39.2l-.4.54M10.04-49.71l-.77 1.04M6.07-44.35l3.2-4.32M2.26-39.2l3.81-5.15M50.55-23.18l-1.87 2.77M50.55-23.18l5.31-7.89M44.29-13.9l1.36-2.02M48.68-20.41l-3.03 4.49M1.86-31.03l3.48-5.17M6.37-37.71 5.34-36.2M42.19-36.95l-3-3.08M44.85-34.23l-2.66-2.72M44.85-34.23l4.4 4.5M49.81-29.15l-.56-.58M46.87-36.96l4.28 4.67M51.15-32.29l1.34 1.45M46.87-36.96l-.18-.19M53.43-35.37l-1.34-1.22M55.86-33.14l-2.43-2.23M44.85-34.23l-2.37 3.18M40.81-28.81l1.67-2.24M46.87-36.96l2.14-2.88M38.56-25.78l2.25-3.03M44.85-34.23l2.02-2.73M50.03-41.21l-1.02 1.37M42.19-36.95l-4.56 5.15M42.19-36.95l1.06-1.2M35.5-29.4l2.13-2.4M32.49-40.96l-2.14 2.3M26.46-34.46l3.89-4.2M14.58-35.76l-2.66-2.69M14.58-35.76l.79.8M11.92-38.45l-3.01-3.03M6.07-44.35 2.56-47.9M6.07-44.35l2.84 2.87M14.41-19.82l-2.95-3.15M4.7-30.21l.83.89M9.46-25.11l-3.93-4.21M11.46-22.97l-2-2.14M14.41-19.82l5.24 5.61M19.65-14.21l2.16 2.31M8.32-33.31 5.34-36.2M2.26-39.2l-.4-.39M2.26-39.2l3.08 3M11.69-30.03l-3.37-3.28M5.53-29.32l-1.58 2.25M8.32-33.31l-2.79 3.99M8.32-33.31l3.6-5.14M13.28-40.4l-1.36 1.95M14.58-35.76l5.66-8.16M11.74-31.67l2.84-4.09M24.63-38.48l5.44-6.3M32.84-48l2.23-2.58M21.72-35.11l-4.22 4.9M32.84-48l-2.77 3.22M14.86-27.16l-1.24 1.45M24.63-38.48l-2.91 3.37M14.86-27.16l2.64-3.05M35.07-50.58l.55-.63M33.95-35.27l-3.6-3.39M33.95-35.27l3.68 3.47M40.81-28.81l-3.18-2.99M30.35-38.66l-.79-.74M40.81-28.81l1.63 1.53M24.4-32.44l1.91 1.91M21.72-35.11l-1.61-1.6M21.72-35.11l2.68 2.67M17.5-30.21l-2.7-2.59M17.5-30.21l1.99 1.91M24.18-25.45l2.91 2.78M23.11-26.46l1.07 1.01M27.09-22.67l4.22 4.02M29.89-31.19l-5.71 5.74M33.95-35.27l-4.06 4.08M33.95-35.27l3.67-3.69M24.18-25.45l-4.1 4.13M20.08-21.32l-1.99 2M24.4-32.44l.66-.84M14.41-19.82l3.29-4.16M24.4-32.44l-6.7 8.46M14.41-19.82l-1.22 1.54M14.31-27.78l.55.62M23.02-18.04l-2.94-3.28M23.02-18.04l8.23 9.23M20.08-21.32l-2.38-2.66M14.86-27.16l2.84 3.18M31.25-8.81l1.28 1.43M30.18-26.18l-3.09 3.51M11.44-4.87l-.57.66M23.02-18.04l4.07-4.63M23.02-18.04l-3.37 3.83M31.69-27.9l-1.51 1.72M11.44-4.87l3.36-3.82M19.65-14.21 14.8-8.69M36.93-24.36l.38-.54M34.7-21.21l-5.89 8.31M36.93-24.36l-2.23 3.15M54.65-19.18l.41.4M50.55-23.18l-8.07-7.87M42.48-31.05l-2.29-2.23M50.55-23.18l4.1 4M43.36-18.13l2.29 2.21M45.65-15.92l.47.46M40.23-21.17l3.13 3.04M40.23-21.17l-3.3-3.19M29.7-31.38l.19.19M29.89-31.19l7.04 6.83M46.84-22.25l-3.03-3.03M50.69-18.4l-2.01-2.01M48.68-20.41l-1.84-1.84M22.94-10.65l2.38 2.75M25.32-7.9l2.86 3.32M30.52-1.86l-2.34-2.72M34.29-3.07l1.04 1.21M38.28-5.15l2.82 3.29M36.56-7.15l1.72 2M11.68-12.62l3.12 3.93M11.68-12.62 9.06-15.9M20.24-1.86 14.8-8.69M21.69-5.9l1.01 1.24M22.7-4.66l2.27 2.8M37.69-17.68l2.65 3.2M46.53-7l.28.35c.53 1 1.91 2.85 3.43 4.79M37.69-17.68l-1-1.22M40.34-14.48 46.53-7M16.44-4.15l-1.78 2.29M27.44-10.53 25.32-7.9M22.7-4.66l-2.26 2.8M25.32-7.9 22.7-4.66M37.69-17.68l2.54-3.49M40.23-21.17l2.39-3.29M37.69-17.68l-6.44 8.87M31.25-8.81l-3.07 4.23M28.18-4.58 26.2-1.86M34.56-6.28l-3.18 4.42M38.28-5.15l4.16-5.25M38.28-5.15l-2.61 3.29M24.7-13.71l-4.61 5.14M47.53-23.05l-.69.8M43.36-18.13a565.8 565.8 0 0 1 3.49-4.12M40.34-14.48a71 71 0 0 0-3.3 4.27M43.36-18.13c-1 1.18-2.05 2.45-3.02 3.64M1.86-20.92l.97-1.44M4.62-25.03l-1.8 2.67M8.02-8.7 5.06-5.51M15.03-16.21l-3.35 3.59M3.44-3.78l1.62-1.73M11.68-12.62 8.02-8.7M55.46-9.31l.4-.55M55.46-9.31l-4.2 5.78M4.15-12.91 1.86-9.76M12.64-24.59l-1.18 1.62M11.46-22.97 4.15-12.91M51.19-14.01l-2.94-3.25M55.46-9.31l-4.27-4.7M55.46-9.31l.4.44M2.69-32.4l-.83-.76M8.37-1.86 5.06-5.51M1.86-9.04l3.2 3.53M12.68-51.09l-.94-1.03M8.35-55.86l1.02 1.13M11.74-52.12l-2.37-2.61M9.46-25.11l-7.6 10.06M9.46-25.11l1.26-1.67M49.04-10.79l-2.51 3.8M49.04-10.79 51.2-14M44.77-4.28c.17-.3.82-1.3 1.76-2.72M54.65-19.18l-3.46 5.17M55.86-21l-1.21 1.82M55.86-15.11l-1.67 2.21M30.18-26.18l-2.32-2.53M34.7-21.21l.74.81M34.7-21.21l-4.52-4.97M49.04-10.79l-1.98-2.3M51.74-7.65l-2.7-3.14M45.21-1.86l-2.46-2.85M47.43-53.28l-2.22-2.58M54-25.55l1.86 2.16M4.76-20.11l-1.93-2.25M1.86-23.48l.97 1.12M55.86-39.59l-1.5-1.46M8.02-8.7l.89.96M4.15-12.91 8.02-8.7M4.15-12.91l-1.04-1.14M24.63-38.48l1.4 1.68M24.63-38.48l-3.35-3.98M55.86-2.56 53.3-5.28M17.06-43.29l3.86-5.31M20.92-48.6l2.26-3.11M25.62-55.07l.57-.79M25.62-55.07l-2.44 3.36" style="fill:none;stroke:#000;stroke-width:.43"/></svg>