<svg xmlns="http://www.w3.org/2000/svg" xml:space="preserve" width="74.56" height="74.55" viewBox="2.16 -76.71 74.56 74.55"><path d="M2.16-76.71h74.56v74.55H2.16z" style="fill:none"/><path d="M2.16-76.71h74.56v74.55H2.16z"/><path d="M66.06-65.56c3.5-3.17 7.23-9 8.95-11.15M72.58-76.71c-.7 1.06-1.3 2.1-1.45 2.36M59.76-61.4c4.9-2.5 6.06-8.73 10.43-11.7M59.56-62.9c3.16-4.33 5.87-7.9 8.75-10.9" style="fill:none;stroke:#fff;stroke-width:.58"/><path d="M52.73-57.28c2.85-2.02 7.95-11.3 8.9-12.6a14.36 14.36 0 0 1 3.33-3.4" style="fill-rule:evenodd;clip-rule:evenodd;fill:none;stroke:#fff;stroke-width:.58"/><path d="M64.6-76.71c-1.75 1.93-4.88 6.07-6.11 8.53-1.36 2.71-4.87 3.8-6.22 6.9M52.2-63.64c2.7-3.17 3.5-8.93 7.34-12.24M55.72-73.79c-.97 1.4-1.43 2.42-2.18 3.42M40.46-64.28c1.05-.66 2.06-2.24 3.37-4.47 1.18-2 4.02-5.92 5.41-7.96M70.26-58.4c1.57-1.84 3.15-6.5 4-8.07.34-.63 1.31-1.77 2.46-3.2M76.72-75.41c-.17.26-.35.5-.56.73-1.05 1.18-4.2 4.8-4.85 5.71M61.73-59.38c2.56-4.14 6.1-4.73 9.58-9.59M75.64-65.03c.37-.6.73-1.1 1.08-1.54M70.72-76.71c-.65.99-1.49 1.95-2.4 2.9M56.21-68.44c1.8-1.61 3.72-5.47 5.93-8.27M64.57-74a18.68 18.68 0 0 0 3.49-2.71M76.72-73.07c-.54.89-.93 1.63-1.48 2.35M74.72-57.02c-.92 1.05-3.99 4.65-5.08 6.21-1.07 1.54-4.24 6.83-5.95 7.88M70.03-54.12a34.46 34.46 0 0 0-5.42 7.47c-1.57 3.02-4 4.72-5.31 5.9M65.27-50.92c2.3-4.26 6.74-6.19 10.94-13.01M71.92-64.37c-1.05 1.18-2.21 5.86-5.08 8.57M70.03-48.08c2.63-2.54 4.55-4.85 5.04-6.14.33-.88.98-1.94 1.65-2.9M59.62-51.76a24.5 24.5 0 0 1-3.6 5.9c-1.38 1.57-1.51 2.62-2.17 4.06M60.02-53.61c.65-1.31 1.97-4.4 3.87-5.97 1.9-1.58 2.76-2.5 3.61-3.42M60.08-56.37c-1.83 1.9-6.03 5.84-7.21 8.08-1.19 2.23-3.48 5.56-4.65 7.73M46.06-38.56c.59-1.57 1.27-4.53 2.58-6.04a30.23 30.23 0 0 0 2.37-2.97M45.89-42.56c.65-1.3 1.09-2.83 1.86-3.76 1.24-1.51 3.41-3.02 4.72-5.06 1.32-2.03 3.02-3.8 3.55-4.46M50.96-61.01c-1.05 1.18-1.64 3.86-2.82 6.74-1.18 2.9-4.4 5.91-5.77 7.16 0 0-1.02 1.08-1.61 2-.6.92-1.02 2.23-1.12 2.66M62.12-47.92c.33-.46 1.25-2.67 1.77-3.46 1.14-1.71 2.7-6.5 3.48-8.53.79-2.03 4.6-6.43 5.84-8M55.23-62.27c-1.25 1.5-3.87 3.87-4.4 5.64-.52 1.77-.92 2.89-1.24 3.35M58.77-61.75a19.37 19.37 0 0 0-3.87 4.6c-.92 1.64-2.37 3.12-5 6.35M56.82-55c1.52-1.99 1.46-2.27 1.43-2.22.65-1.13 1.2-1.67 2.5-3.03M51.02-68.76c-1.08 1.28-2.45 3.74-3.54 6.55-1.11 2.9-3.76 6.48-4.59 8.98M52.87-69.42c-.66 1.83-1.45 4.13-2.9 6.43a30.44 30.44 0 0 0-3.01 6.95c-.4 1.45-3.87 6.4-5.9 7.98M39.45-75.42c.26-.41.49-.85.69-1.29M73.06-57.55c.77-.85 2.88-2.25 3.66-2.76M76.72-52.5c-2.88 2.98-6.8 8.11-6.8 8.11M55.77-73.83c.57-.81 1.3-1.75 2.37-2.88M55.9-76.71c-.83 1.05-2.2 2.52-3.45 3.87l-.1.08c-1.24 1.34-2.92 2.74-3.23 3.28-.7 1.23-2.19 4.97-4.6 6.9M53.9-76.71c-.61.73-1.25 1.55-1.62 2.17M47.12-70.11c1.05-.99 2.66-3.43 2.66-3.43.9-1.22 1.48-2.26 1.85-3.17M29.75-67.2c4.09-2.29 6.25-7.37 7.97-9.51M35.3-76.71c-.7 1.06-1.3 2.1-1.45 2.36M22.47-61.4c4.9-2.5 6.06-8.73 10.44-11.7M22.86-63.58c1.57-4.16 5.29-7.22 8.16-10.22" style="fill:none;stroke:#fff;stroke-width:.58"/><path d="M15.39-57.6c2.84-2.01 8-10.97 8.96-12.29a17.26 17.26 0 0 1 3.6-3.77" style="fill-rule:evenodd;clip-rule:evenodd;fill:none;stroke:#fff;stroke-width:.58"/><path d="M27.31-76.71c-1.75 1.93-4.88 6.07-6.1 8.53a15.51 15.51 0 0 1-3.26 4.27M14-62.13c4.03-2.53 3.79-9.9 8.25-13.75M7.12-62.65c2.4-1.93 3.76-5.34 4.46-6.57.31-.54 1.23-2.83 2.48-4.17M3.18-64.28c1.05-.66 2.05-2.24 3.37-4.47 1.18-2 4.02-5.92 5.4-7.96M34.08-60.66c1.43-2.63 2.04-4.24 2.9-5.81.33-.63 1.3-1.77 2.45-3.2h.01c1.63-2.01 3.62-4.58 4.68-7.04M24.44-59.38c2.56-4.14 6.1-4.73 9.58-9.59.66-.91 3.8-4.53 4.86-5.7.2-.23.39-.48.55-.74M38.35-65.03c.37-.6 1.1-1.54 1.1-1.54 2.1-2.63 4.02-3.16 6.33-8.5M2.16-69.67c1.63-2.01 3.61-4.58 4.68-7.04M2.16-66.57c2.11-2.63 4.03-3.16 6.33-8.5M39.44-46.24c-1.25 1.14-1.33 2.24-2.73 3.4-1.5 1.24-3 2.97-3 2.97l-.27.44M33.44-76.71c-.65.99-1.5 1.95-2.42 2.9M30.77-39.44c3.01-2.86 5.96-6.8 8.66-9.7h.01c.85-.91 1.67-1.72 2.47-2.37M19.39-68.29c1.56-1.88 3.6-6.05 5.47-8.42M27.28-74a18.71 18.71 0 0 0 3.5-2.71M2.16-73.08c.6-.97 1.39-2.12 2.76-3.63M37.96-70.72c.54-.72.93-1.46 1.47-2.35l.02-.01c.6-.97 1.38-2.12 2.76-3.63M6.2-46.2c-.53.73-1.51 2.3-1.78 3.09-.26.79-.46 1.31-.46 1.31-.39.65-.7 1.5-1.1 2.36M38.27-57.16c-.92 1.05-4.7 4.8-5.91 6.35-1.17 1.48-4.25 6.83-5.95 7.88M33.39-54.35c-1.44 1.44-4.49 4.68-6.06 7.7-1.58 3.02-3.08 4.14-4.4 5.33M27.98-50.92c2.3-4.26 6.71-5.85 10.91-12.68M33.2-61.6c-.73 1.57-1.2 3.49-2.81 5.44M33.5-49.33c2.7-2.3 2.92-2.73 3.83-3.77.8-.94 1.39-1.66 2.06-2.63l.75-1.37c.79-1.14 2.34-3 2.75-3.46M4.18-59.73c-.4.45-1.23 1.47-2.02 2.6M22.6-51.7a25.07 25.07 0 0 1-3.87 5.84c-1.38 1.57-1.5 2.62-2.17 4.06M22.93-53.15c.66-1.31 1.97-4.4 3.87-5.97 1.9-1.58 2.76-2.5 3.61-3.42M22.8-56.37c-1.84 1.9-6.04 5.84-7.22 8.08-1.18 2.23-3.65 6.15-5.02 8.73M8.72-39.06c.6-1.57 1.33-4.03 2.64-5.54a30.46 30.46 0 0 0 2.36-2.97M8.06-41.23c.65-1.3 1.63-4.16 2.4-5.1 1.25-1.5 3.68-2.8 5-4.84 1.3-2.03 2.81-3.67 3.34-4.33M13.15-60.1c-1.05 1.17-1.11 2.95-2.3 5.83-1.18 2.9-4.4 5.91-5.77 7.16 0 0-1.02 1.08-1.6 2-.6.92-1.03 2.23-1.12 2.66M24.83-47.92c.33-.46 1.25-2.67 1.78-3.46 1.14-1.71 2.68-6.5 3.47-8.53.8-2.03 4.6-6.43 5.84-8M17.16-62.26c-1.25 1.51-3.09 3.86-3.61 5.63-.53 1.77-.92 2.89-1.25 3.35M21.95-62.35a24.66 24.66 0 0 0-4.34 5.2c-.91 1.64-3.05 3.42-5.39 7.42M20.17-56.17c.66-1.13 2.6-3.39 3.9-4.74M14.73-70.48c-1.12 1.3-3.42 5.39-4.53 8.27-1.12 2.9-3.28 6.57-5.32 8.2M16.06-69.73a37.69 37.69 0 0 1-3.37 6.74 30.44 30.44 0 0 0-3.02 6.95c-.4 1.45-2.5 4.27-4.52 5.84M2.16-75.42c.27-.41.49-.85.7-1.29M8.6-69.03c-.44.65-1.95 4.07-2.67 5.05-.72.98-1.87 2.4-3.48 3.48l-.29.19M35.2-56.23c.78-.85 3.45-3.57 4.23-4.08h.02l.3-.2c1.6-1.07 2.75-2.49 3.47-3.47.72-.98 2.78-3.86 3.2-4.51M31.56-42.4s5-7.12 7.87-10.1h.01c.48-.5.93-.94 1.33-1.29.96-.83 3.35-5.37 4.95-7.6M2.49-46.52l-.33.28M2.16-49.14c.85-.91 1.67-1.72 2.46-2.37M7.1-60.83c-1.6 2.23-2.65 6.2-3.62 7.04-.4.35-.84.79-1.32 1.28M20.85-76.71a25.83 25.83 0 0 0-2.37 2.88l-.04.04c-.98 1.4-1.44 2.42-2.18 3.42M18.6-76.71c-.82 1.05-2.19 2.52-3.44 3.87l-.62.74M16.62-76.71c-.62.73-1.26 1.55-1.63 2.17M9.84-70.11c1.05-.99 2.66-3.43 2.66-3.43.9-1.22 1.47-2.26 1.85-3.17M67.58-30.06c3.7-3.11 5.7-7.23 7.43-9.38.21-.26.42-.49.63-.65M75.64-2.82c-.2.17-.42.4-.63.66M71.13-37.07a52.1 52.1 0 0 1 1.8-2.89s1.3-1.64 1.92-2.03M59.76-24.12c4.9-2.5 6.77-8.56 10.43-11.7M60.15-26.31a68.44 68.44 0 0 1 8.16-10.21" style="fill:none;stroke:#fff;stroke-width:.58"/><path d="M52.73-20.01c2.85-2.01 7.95-11.29 8.9-12.6 1.02-1.38 2.03-2.07 3.5-3.14" style="fill-rule:evenodd;clip-rule:evenodd;fill:none;stroke:#fff;stroke-width:.58"/><path d="M52.1-23.67c2-3.06 5.03-4.52 6.39-7.23 1.23-2.46 4.36-6.6 6.1-8.53l1.91-2s2.45-3.26 3-4.38M65.44-5.05c-1.17.5-2.26 1.58-3.3 2.89M52-26.2c3.59-3.54 3.5-8 7.27-11.65M40.22-25.73c1-1.66 3.2-3.93 4.5-6.16 1.18-2 5.32-9.19 5.92-10.17M71.43-22.88c1.58-1.84 1.98-4.74 2.83-6.32.34-.62 1.31-1.77 2.46-3.2M76.72-38.13c-.17.25-.35.5-.56.73-1.05 1.18-4.2 4.79-4.85 5.7M61.73-22.1c2.56-4.14 6.1-4.73 9.58-9.6M75.64-27.75c.37-.6.73-1.1 1.08-1.54M72.58-2.16l.35-.53s1.3-1.64 1.92-2.03M76.72-8.97C75.47-7.82 75.4-6.73 74-5.57c-1.51 1.25-3 2.97-3 2.97l-.28.44M68.31-36.52a21.29 21.29 0 0 0 2.7-3.35s1.48-1.73 2.99-2.98c1.4-1.15 1.47-2.25 2.72-3.4M68.06-2.16c3-2.86 5.96-6.8 8.66-9.7M64.6-2.16l.5-.53s1.22-.91 1.78-2.03a72.8 72.8 0 0 1 3.77-6.17M55.89-29.73c1.57-2.27 5.1-8.38 7.32-11.18M64.57-36.72a18.71 18.71 0 0 0 3.49-2.71c3-2.87 5.96-6.8 8.66-9.7M58.12-2.16l.67-.7M63.23-10.36c-1.7 2.69-5.44 6.17-6.16 6.89-.73.72-.68.61-.68.61-.13.2-.3.44-.51.7M65.36-21.15a33.14 33.14 0 0 0-4.3 8.31c-.85 2.56-2.42 4.05-4 5.89-1.57 1.84-1.64 2.76-2.16 3.48-.53.72-.48.7-.48.7l-.53.6M49.24-2.16l.41-.61s.4-1.03.98-2.02M48.86-14.56c-.32.79-2.82 3.6-3.41 4.72-.59 1.12-1.05 4.27-1.31 5.06-.26.78-.93 1.56-.93 1.56-.37.37-.7.73-1.01 1.06M76.72-35.8c-.54.9-.93 1.63-1.48 2.36M44.33-2.69l-.2.53M43.48-8.92c-.52.72-1.5 2.3-1.77 3.08-.26.8-.46 1.32-.46 1.32-.4.64-.7 1.5-1.1 2.36M74.72-19.75c-.92 1.05-4.29 4.5-5.08 6.21-.78 1.71-4.24 6.83-5.95 7.88M70.03-16.67a32.8 32.8 0 0 0-5.42 7.3c-1.57 3.01-4 4.72-5.31 5.9M65.27-13.64c2.3-4.27 6.74-6.2 10.94-13.02M71.92-27.1c-1.05 1.18-2.15 4.83-4.16 7.8M69.9-11.44c2.98-2.18 4.68-4.22 5.17-5.5.33-.88.98-1.94 1.65-2.91M60.23-14.83c-.85 1.97-2.84 4.66-4.21 6.24-1.38 1.57-1.51 2.62-2.17 4.07M60.02-16.33c.65-1.32 1.97-4.4 3.87-5.98 1.9-1.57 2.76-2.49 3.61-3.4M60.08-19.1c-1.83 1.91-6.03 5.85-7.21 8.08-1.19 2.23-2.7 4.99-4.4 6.23M46.24-2.75c.59-1.57 1.1-3.06 2.4-4.57a30.23 30.23 0 0 0 2.37-2.98M45.5-5.3a22.2 22.2 0 0 1 2.25-3.75c1.24-1.5 3.41-3.02 4.72-5.05 1.31-2.04 3.02-3.8 3.55-4.47M50.44-22.83c-1.05 1.18-1.12 2.95-2.3 5.84-1.18 2.89-4.4 5.9-5.77 7.15 0 0-1.02 1.09-1.61 2-.6.92-1.02 2.24-1.12 2.66M62.12-10.65c.33-.46 1.25-2.67 1.77-3.45 1.14-1.72 2.7-6.5 3.48-8.54.79-2.03 4.6-6.43 5.84-8M55.23-25c-1.25 1.51-3.87 3.88-4.4 5.65-.52 1.77-.92 2.88-1.24 3.34M58.77-24.47c-1.18.98-3.75 3.7-4.66 5.35-.92 1.64-1.67 2.45-4.3 5.69M56.9-17.98c.65-.84.63-.72 1.35-1.96.65-1.14.94-1.42 2.24-2.77M52.39-33.56a41.85 41.85 0 0 0-4.9 8.63c-1.12 2.89-2.92 5.28-4.15 8.08M53.14-31.55c-.65 1.84-1.72 3.53-3.16 5.83a30.42 30.42 0 0 0-3.02 6.96c-.4 1.44-4.04 6.27-6.07 7.85" style="fill:none;stroke:#fff;stroke-width:.58"/><path d="M41.24-4.52c-.39.64-.7 1.5-1.1 2.36M73.06-20.27c.77-.85 2.88-2.26 3.66-2.76M76.72-15.23c-2.88 2.99-6.8 8.12-6.8 8.12M58.12-14.7c-2.65 3.18-5.1 7.2-5.32 7.81-.46 1.28-.3 2.66-1.18 4.73M53.54-33.1c.75-1 1.21-2.01 2.18-3.41l.05-.05c.57-.8 1.3-1.74 2.37-2.87h-.02l.67-.7M44.88-24.87c1.79-2.91 4.11-6.3 4.81-7.52.31-.54 1.42-1.75 2.66-3.1l.1-.08c1.25-1.35 2.62-2.82 3.44-3.86h-.01c.2-.27.46-.6 1.18-1.32.73-.72 4.47-4.2 6.17-6.89M52.27-37.27c.38-.61 1.02-1.44 1.63-2.16h-.01l.53-.62s-.04.02.48-.7c.53-.72.6-1.64 2.17-3.48 1.57-1.83 3.15-3.32 4-5.88a33.09 33.09 0 0 1 4.29-8.31M47.12-32.84a26.1 26.1 0 0 0 2.66-3.42c.9-1.23 1.48-2.27 1.85-3.17.86-2.07.71-3.45 1.17-4.73.66-1.84 3.67-5.84 5.32-7.8M29.75-29.92c4.09-2.3 7.42-8.16 9.14-10.3M38.35-2.82c-.2.17-.41.4-.63.66M33.85-37.07c.15-.27.53-.9 1.22-1.96.12-.17 1.13-1.2 1.25-1.37l1.84-1.19M23.3-24.63c4.42-5.1 5.76-7.43 10.09-10.93" style="fill:none;stroke:#fff;stroke-width:.58"/><path d="M15.45-20.01c2.84-2.01 7.94-11.29 8.9-12.6.96-1.31 3.43-3.06 4.87-4.12" style="fill-rule:evenodd;clip-rule:evenodd;fill:none;stroke:#fff;stroke-width:.58"/><path d="M15.43-24.12c1.35-3.1 4.42-4.07 5.77-6.78 1.23-2.46 4.36-6.6 6.11-8.53l.5-.53s1.22-.92 1.78-2.03a72.7 72.7 0 0 1 3.78-6.17M28.16-5.05c-1.17.5-2.27 1.58-3.3 2.89M14.03-24.8c3.33-3.37 4.46-10.16 8.93-14.01M6.06-23.56a84.94 84.94 0 0 0 5.52-8.16c.3-.54 2.24-2.42 3.49-3.77M3.18-27.01c1.05-.66 2.05-2.23 3.37-4.46 1.18-2 4.02-5.92 5.4-7.96l.42-.62s.39-1.02.98-2M34.16-22.88c1.57-1.84 1.96-4.74 2.81-6.32.34-.62 1.31-1.77 2.46-3.2h.01c1.63-2 4.72-5.2 5.78-7.66M24.44-22.1c2.56-4.14 6.1-4.73 9.58-9.6M38.35-27.75c.37-.6.73-1.1 1.08-1.54h.02c2.1-2.64 4.02-3.17 6.33-8.5M2.16-32.4c1.63-2 3.61-4.58 4.68-7.03M2.16-29.3c2.11-2.63 4.03-3.16 6.33-8.5M35.3-2.16l.34-.53s1.3-1.64 1.92-2.03M39.44-8.97c-1.25 1.15-1.33 2.24-2.73 3.4-1.5 1.25-3 2.97-3 2.97-.08.15-.18.3-.27.44M33.44-39.44c-.65 1-1.5 1.95-2.42 2.91-2.87 3-6.59 6.06-8.16 10.22M30.77-2.16c3.01-2.86 5.96-6.8 8.66-9.7h.01c.85-.92 2.6-3.1 3.39-3.74M27.31-2.16l.5-.53s1.22-.91 1.78-2.03c.56-1.11 4.56-6.47 5.11-7.13M19.46-31.2c1.66-2.21 3.18-5.44 5.4-8.23 1.03-1.31 2.13-2.39 3.3-2.9M27.28-36.72a18.75 18.75 0 0 0 3.5-2.71M20.83-2.16l.68-.7M25.95-10.36c-1.7 2.69-5.45 6.17-6.17 6.89-.72.72-.68.61-.68.61-.13.2-.3.44-.5.7M28.07-21.15a33.07 33.07 0 0 0-4.29 8.31c-.85 2.56-2.42 4.05-4 5.89-1.57 1.84-1.64 2.76-2.17 3.48-.52.72-.48.7-.48.7l-.53.6M11.96-2.16l.4-.61s.4-1.03.99-2.02M11.58-14.56c-.33.79-2.83 3.6-3.42 4.72-.59 1.12-1.05 4.27-1.3 5.06-.27.78-.94 1.56-.94 1.56-.37.37-.7.73-1 1.06M2.16-35.8c.6-.98 1.39-2.13 2.76-3.64l1-1.06s.67-.77.93-1.56.72-3.94 1.31-5.05c.6-1.12 3.09-3.94 3.42-4.73M37.96-33.44c.54-.73.93-1.47 1.47-2.35l.02-.02c.6-.97 1.38-2.11 2.76-3.63h-.01l1-1.06s.68-.77.94-1.56c.26-.79.72-3.94 1.31-5.05.6-1.12 3.08-3.94 3.41-4.73M7.05-2.69l-.21.53M6.2-8.92c-.53.72-1.51 2.3-1.78 3.09-.26.78-.46 1.3-.46 1.3-.39.65-.7 1.51-1.1 2.37M38.22-20.4c-.73.84-4.94 4.87-5.86 6.86-.79 1.71-4.25 6.83-5.95 7.88M34.08-18.35c-1.45 1.44-5.18 5.95-6.75 8.97-1.58 3.02-4 4.73-5.32 5.9M27.98-13.64c2.3-4.27 6.74-6.2 10.94-13.02M34.16-25.77c-1.05 1.18-1.7 4.1-4.15 7.3M32.62-11.44c1.95-1.43 4.48-4.87 5.2-5.6-1.37 1.38.71-.65 1.38-1.62l1.06-1.13c.8-1.14 1.56-2.98 1.96-3.44M4.18-22.46a30.7 30.7 0 0 0-2.02 2.61M22.2-15.09c-.85 1.97-2.1 4.92-3.47 6.5-1.38 1.57-1.5 2.62-2.17 4.07M22.73-16.33c.66-1.32 1.97-4.4 3.88-5.98 1.9-1.57 2.75-2.49 3.6-3.4M22.8-19.1c-1.84 1.91-6.04 5.85-7.22 8.08-1.18 2.23-2.7 4.99-4.4 6.23M8.95-2.75c.6-1.57 1.1-3.06 2.4-4.57a30.46 30.46 0 0 0 2.37-2.98M8.21-5.3c.66-1.3 1.48-2.82 2.25-3.75 1.25-1.5 3.41-3.02 4.73-5.05 1.3-2.04 3.01-3.8 3.54-4.47M13.15-22.83c-1.05 1.18-1.11 2.95-2.3 5.84-1.18 2.89-4.4 5.9-5.77 7.15 0 0-1.02 1.09-1.6 2-.6.92-1.02 2.23-1.12 2.66M24.83-10.65c.33-.46 1.25-2.67 1.78-3.45 1.14-1.72 2.68-6.5 3.47-8.54.8-2.03 4.6-6.43 5.84-8M17.94-25c-1.25 1.51-3.87 3.88-4.4 5.65-.52 1.77-.91 2.88-1.24 3.34M21.49-24.47a19.35 19.35 0 0 0-3.88 4.6 17.53 17.53 0 0 1-5.7 6.42M18.93-16.84c.64-.84 1.3-1.86 2.03-3.1a22.5 22.5 0 0 1 3.15-3.86M14.39-32.4c-.91 1.44-3.53 6.23-4.9 9.17-1.33 2.8-1.91 5.1-3.95 6.73M15.96-31.63c-.66 1.83-1.82 3.61-3.27 5.91a30.42 30.42 0 0 0-3.02 6.96c-.39 1.44-2.49 4.26-4.52 5.84M2.16-38.14c.27-.42.49-.86.7-1.3" style="fill:none;stroke:#fff;stroke-width:.58"/><path d="M3.96-4.52c-.4.64-.71 1.5-1.1 2.36M8.6-31.76c-.44.66-1.95 4.07-2.67 5.06-.72.98-1.87 2.4-3.48 3.48l-.29.19M35.77-20.27c.78-.85 2.89-2.26 3.66-2.76h.02l.3-.2c1.6-1.08 2.75-2.49 3.47-3.47.72-.99 2.91-3.7 3.34-4.36M32.64-7.11s3.92-5.13 6.8-8.12c.48-.5.93-.93 1.33-1.28.96-.84 2.01-4.81 3.6-7.04M2.49-9.25l-.33.28M2.16-11.86c.85-.92 1.67-1.73 2.46-2.37M7.2-22.97c-1.6 2.23-2.75 5.62-3.72 6.46-.4.35-.84.78-1.32 1.28M20.83-14.7c-1.64 1.97-4.66 5.98-5.32 7.81-.45 1.28-.3 2.66-1.17 4.73M21.72-40.4c-1.06 1.14-2.22 2.88-2.79 3.7l-.7.87c-.97 1.4-1.23 1.73-1.97 2.74M15.16-35.57c1.25-1.35 3.43-3.86 3.43-3.86.2-.27 5.65-5.52 7.36-8.2M14.99-37.27c.37-.61 1.01-1.44 1.63-2.16h-.02l.53-.62s-.04.02.49-.7c.52-.72.59-1.64 2.16-3.48 1.58-1.83 3.15-3.32 4-5.88a33.06 33.06 0 0 1 4.3-8.31M9.84-32.84a26.1 26.1 0 0 0 2.66-3.42c.9-1.23 1.47-2.27 1.85-3.17h-.01c.86-2.07.72-3.45 1.17-4.73.66-1.84 3.68-5.84 5.32-7.8M43.48-46.2c-.52.73-1.5 2.3-1.77 3.09 0 0-.46 1.31-.8 2.38a11.79 11.79 0 0 1-1.47 2.6v-.01c-.17.26-.36.51-.56.74-1.06 1.17-4.2 4.79-4.86 5.7" style="fill:none;stroke:#fff;stroke-width:.58"/></svg>