<svg xmlns="http://www.w3.org/2000/svg" width="18.53" height="19.27"><path fill="none" d="M0 0h18.53v19.27H0z"/><path d="M0 0h18.53v19.26H0z"/><path fill="none" d="M0 0h18.53v19.26H0z"/><path fill="#fff" d="M3.34.02A1.18 1.18 0 0 0 5.7 0m9.42.02a1.17 1.17 0 1 1-2.34-.01M0 3.73c.65 0 1.17-.53 1.17-1.17C1.17 1.9.65 1.4 0 1.4m18.5 2.33a1.17 1.17 0 0 1 .01-2.34M0 6.1c.65 0 1.17.5 1.17 1.16C1.17 7.9.65 8.43 0 8.43m0 0"/><circle cx="4.71" cy="9.7" r="1.17" fill="#fff"/><circle cx="9.26" cy="12.13" r="1.17" fill="#fff"/><circle cx="6.87" cy="4.73" r="1.17" fill="#fff"/><circle cx="11.57" cy="4.73" r="1.17" fill="#fff"/><circle cx="13.8" cy="9.7" r="1.17" fill="#fff"/><path fill="#fff" d="M18.5 6.1c-.64 0-1.16.5-1.16 1.16 0 .65.52 1.17 1.17 1.17"/><circle cx="9.25" cy="16.84" r="1.17" fill="#fff"/><path fill="#fff" d="M12.8 19.27c0-.64.5-1.17 1.16-1.17.65 0 1.17.53 1.17 1.17m0 0"/><circle cx="16.11" cy="14.31" r="1.17" fill="#fff"/><circle cx="2.29" cy="14.31" r="1.17" fill="#fff"/><path fill="#fff" d="M5.7 19.27c0-.64-.54-1.17-1.18-1.17-.65 0-1.17.53-1.17 1.17"/></svg>