<svg xmlns="http://www.w3.org/2000/svg" xml:space="preserve" width="22.47" height="25.96"><path fill="none" d="M0 0h22.47v25.96H0z"/><path d="M.01.03h22.45v25.92H.01z"/><path fill="none" d="M.01.03h22.45v25.92H.01z"/><path fill="#FFF" d="M0 9.35c.42 0 .75-.31.75-.7 0-.4-.33-.71-.75-.71"/><g fill="#FFF"><circle cx="4.8" cy="4.08" r=".18"/><circle cx="4.8" cy="4.08" r=".35"/></g><g fill="#FFF"><ellipse cx="12.11" cy="1.83" rx=".71" ry=".8"/><path d="M12.11 2.8c-.48 0-.88-.43-.88-.97 0-.53.4-.97.88-.97.49 0 .88.44.88.97 0 .54-.4.97-.88.97zm0-1.59c-.3 0-.53.28-.53.62 0 .34.24.62.53.62.3 0 .53-.28.53-.62 0-.34-.24-.62-.53-.62z"/></g><g fill="#FFF"><ellipse cx="8.36" cy="1.86" rx=".44" ry=".4"/><path d="M8.36 2.44c-.34 0-.61-.26-.61-.58 0-.31.27-.57.61-.57.34 0 .62.26.62.57 0 .32-.28.58-.62.58zm0-.8c-.15 0-.27.1-.27.22 0 .13.12.23.27.23.15 0 .27-.1.27-.23 0-.12-.12-.22-.27-.22z"/></g><g fill="#FFF"><ellipse cx="16.58" cy="2.14" rx=".13" ry=".22"/><path d="M16.58 2.53c-.18 0-.31-.17-.31-.4 0-.22.13-.39.3-.39s.31.17.31.4c0 .22-.13.4-.3.4z"/></g><g fill="#FFF"><ellipse cx="19.27" cy="1.86" rx=".75" ry=".49"/><path d="M19.27 2.52c-.52 0-.93-.29-.93-.66 0-.37.4-.66.93-.66.52 0 .92.3.92.66 0 .37-.4.66-.92.66zm0-.97c-.34 0-.58.17-.58.31 0 .15.24.32.58.32.33 0 .57-.17.57-.32s-.23-.3-.57-.3z"/></g><g fill="#FFF"><ellipse cx="14.8" cy="4.33" rx=".71" ry=".8"/><path d="M14.8 5.3c-.49 0-.88-.43-.88-.97 0-.53.4-.97.88-.97s.88.44.88.97c0 .54-.4.97-.88.97zm0-1.59c-.3 0-.53.28-.53.62 0 .34.24.62.53.62.3 0 .53-.28.53-.62 0-.34-.24-.62-.53-.62z"/></g><g fill="#FFF"><ellipse cx="18.49" cy="6.64" rx=".53" ry=".8"/><path d="M18.49 7.62c-.4 0-.7-.43-.7-.98 0-.54.3-.97.7-.97.4 0 .7.43.7.97 0 .55-.3.98-.7.98zm0-1.6c-.17 0-.36.26-.36.62 0 .37.19.63.36.63.16 0 .35-.26.35-.63 0-.36-.18-.62-.35-.62z"/></g><path fill="#FFF" d="M22.47 7.94c-.42 0-.75.31-.75.7 0 .4.33.71.75.71"/><g fill="#FFF"><ellipse cx="19.24" cy="10.21" rx=".88" ry=".62"/><path d="M19.24 11c-.6 0-1.06-.35-1.06-.8 0-.44.46-.79 1.06-.79s1.06.35 1.06.8c0 .44-.47.8-1.06.8zm0-1.24c-.39 0-.71.2-.71.45 0 .24.32.44.7.44s.72-.2.72-.44-.33-.45-.71-.45z"/></g><g fill="#FFF"><ellipse cx="15.64" cy="8.58" rx=".66" ry=".8"/><path d="M15.64 9.55c-.46 0-.83-.43-.83-.97 0-.53.37-.97.83-.97.46 0 .84.44.84.97 0 .54-.38.97-.84.97zm0-1.59c-.27 0-.48.28-.48.62 0 .34.22.62.48.62.27 0 .5-.28.5-.62 0-.34-.23-.62-.5-.62z"/></g><g fill="#FFF"><ellipse cx="12.17" cy="6.71" rx=".8" ry=".62"/><path d="M12.17 7.5c-.53 0-.97-.35-.97-.8 0-.43.44-.79.97-.79.54 0 .97.36.97.8 0 .43-.43.8-.97.8zm0-1.24c-.33 0-.62.2-.62.45 0 .24.29.44.62.44.34 0 .62-.2.62-.44s-.28-.45-.62-.45z"/></g><g fill="#FFF"><ellipse cx="6.83" cy="8.36" rx=".84" ry=".57"/><path d="M6.83 9.11c-.57 0-1.01-.33-1.01-.75s.44-.75 1.01-.75c.57 0 1.02.33 1.02.75s-.45.75-1.02.75zm0-1.15c-.35 0-.66.2-.66.4 0 .22.3.4.66.4.36 0 .67-.18.67-.4 0-.21-.32-.4-.67-.4z"/></g><g fill="#FFF"><ellipse cx="3.42" cy="5.99" rx=".71" ry=".75"/><path d="M3.42 6.92a.9.9 0 0 1-.88-.93c0-.51.4-.93.88-.93a.9.9 0 0 1 .89.93.9.9 0 0 1-.89.92zm0-1.5c-.29 0-.53.25-.53.57 0 .32.24.57.53.57.3 0 .54-.25.54-.57 0-.32-.24-.58-.54-.58z"/></g><g fill="#FFF"><ellipse cx="11.21" cy="4.02" rx=".31" ry=".18"/><path d="M11.2 4.37c-.27 0-.48-.15-.48-.35s.21-.35.49-.35c.27 0 .48.15.48.35s-.2.35-.48.35z"/></g><g fill="#FFF"><ellipse cx="18.36" cy="4.02" rx=".53" ry=".35"/><path d="M18.36 4.55c-.4 0-.7-.23-.7-.53s.3-.53.7-.53c.4 0 .7.23.7.53s-.3.53-.7.53zm0-.7c-.22 0-.35.1-.35.17s.13.18.35.18c.22 0 .36-.1.36-.18s-.14-.18-.36-.18z"/></g><g fill="#FFF"><ellipse cx="21.05" cy="6.21" rx=".18" ry=".27"/><path d="M21.05 6.65c-.2 0-.35-.2-.35-.44 0-.25.15-.44.35-.44.2 0 .35.2.35.44s-.15.44-.35.44z"/></g><g fill="#FFF"><ellipse cx="12.8" cy="11.11" rx=".35" ry=".4"/><path d="M12.8 11.69c-.3 0-.53-.26-.53-.58 0-.31.24-.57.53-.57s.53.26.53.57c0 .32-.24.58-.53.58zm0-.8c-.1 0-.18.1-.18.22 0 .13.08.23.18.23s.18-.1.18-.23c0-.12-.08-.22-.18-.22z"/></g><g fill="#FFF"><ellipse cx="10.8" cy="9.02" rx=".35" ry=".27"/><path d="M10.8 9.46c-.3 0-.53-.2-.53-.44 0-.25.23-.44.53-.44s.53.2.53.44c0 .25-.23.44-.53.44zm0-.53c-.11 0-.18.06-.18.09s.07.1.18.1.18-.07.18-.1-.07-.09-.18-.09z"/></g><g fill="#FFF"><ellipse cx="18.92" cy="12.49" rx=".18" ry=".22"/><ellipse cx="18.92" cy="12.49" rx=".35" ry=".4"/></g><g fill="#FFF"><ellipse cx="15.46" cy="12.21" rx=".93" ry=".62"/><path d="M15.46 13c-.62 0-1.1-.35-1.1-.8 0-.44.48-.79 1.1-.79.61 0 1.1.35 1.1.8 0 .44-.49.8-1.1.8zm0-1.24c-.4 0-.76.21-.76.45 0 .23.36.44.76.44s.75-.2.75-.44-.35-.45-.75-.45z"/></g><g fill="#FFF"><ellipse cx="10.02" cy="11.11" rx=".75" ry=".66"/><path d="M10.02 11.95c-.51 0-.93-.37-.93-.84s.42-.83.93-.83c.5 0 .92.37.92.83s-.41.84-.92.84zm0-1.32c-.32 0-.58.21-.58.48s.26.5.58.5c.32 0 .57-.23.57-.5s-.25-.48-.57-.48z"/></g><g fill="#FFF"><circle cx="5.83" cy="11.11" r=".22"/><circle cx="5.83" cy="11.11" r=".4"/></g><g fill="#FFF"><ellipse cx="3.67" cy="8.49" rx=".44" ry=".49"/><path d="M3.67 9.15c-.34 0-.61-.3-.61-.66 0-.37.27-.66.61-.66.34 0 .62.3.62.66 0 .36-.28.66-.62.66zm0-.97c-.14 0-.26.14-.26.3 0 .18.12.32.26.32.15 0 .27-.14.27-.31 0-.17-.12-.31-.27-.31z"/></g><g fill="#FFF"><ellipse cx="3.11" cy="11.05" rx=".62" ry=".84"/><path d="M3.11 12.06c-.44 0-.8-.45-.8-1.01s.36-1.01.8-1.01c.44 0 .8.45.8 1.01s-.36 1.01-.8 1.01zm0-1.67c-.24 0-.44.3-.44.66 0 .36.2.67.44.67s.45-.3.45-.67c0-.36-.2-.66-.45-.66z"/></g><g fill="#FFF"><circle cx="2.08" cy="13.49" r=".22"/><circle cx="2.08" cy="13.49" r=".4"/></g><g fill="#FFF"><ellipse cx="4.42" cy="14.77" rx=".8" ry=".62"/><path d="M4.42 15.56c-.53 0-.97-.35-.97-.8 0-.43.44-.78.97-.78.54 0 .98.35.98.79 0 .44-.44.8-.98.8zm0-1.23c-.33 0-.62.2-.62.44s.29.44.62.44c.34 0 .63-.2.63-.44s-.29-.44-.63-.44z"/></g><g fill="#FFF"><ellipse cx="9.67" cy="13.77" rx=".27" ry=".44"/><path d="M9.67 14.39c-.25 0-.44-.27-.44-.62s.2-.62.44-.62c.25 0 .44.27.44.62s-.18.62-.44.62zm0-.89c-.02.01-.09.1-.09.27 0 .16.07.25.1.27.02-.02.08-.11.08-.27 0-.16-.06-.26-.09-.27z"/></g><g fill="#FFF"><circle cx="5.67" cy="17.71" r=".35"/><path d="M5.67 18.23a.53.53 0 1 1 0-1.05.53.53 0 0 1 0 1.05zm0-.7a.18.18 0 1 0 0 .36.18.18 0 0 0 0-.36z"/></g><g fill="#FFF"><ellipse cx="11.8" cy="16.68" rx=".18" ry=".13"/><path d="M11.8 16.98c-.2 0-.35-.13-.35-.3 0-.18.15-.31.35-.31.2 0 .35.13.35.3 0 .18-.15.31-.35.31z"/></g><g fill="#FFF"><ellipse cx="12.27" cy="14.68" rx=".66" ry=".75"/><path d="M12.27 15.6c-.46 0-.84-.41-.84-.92s.38-.93.84-.93c.46 0 .84.41.84.93 0 .5-.38.92-.84.92zm0-1.5c-.27 0-.49.26-.49.58 0 .31.22.57.49.57s.49-.26.49-.57c0-.32-.22-.58-.5-.58z"/></g><g fill="#FFF"><ellipse cx="8.92" cy="16.8" rx=".8" ry=".57"/><path d="M8.92 17.55c-.53 0-.97-.34-.97-.75s.44-.75.97-.75c.55 0 .97.33.97.75s-.42.75-.97.75zm0-1.15c-.33 0-.62.18-.62.4 0 .22.29.4.62.4.34 0 .62-.18.62-.4 0-.22-.28-.4-.62-.4z"/></g><g fill="#FFF"><ellipse cx="15.21" cy="14.93" rx=".13" ry=".22"/><path d="M15.2 15.32c-.17 0-.3-.17-.3-.4 0-.22.13-.39.3-.39.18 0 .31.17.31.4 0 .22-.13.4-.3.4z"/></g><g fill="#FFF"><ellipse cx="18.39" cy="14.93" rx=".84" ry=".75"/><path d="M18.4 15.85c-.57 0-1.02-.41-1.02-.92s.45-.93 1.01-.93 1.02.41 1.02.93c0 .5-.46.92-1.02.92zm0-1.5c-.37 0-.67.26-.67.58 0 .31.3.57.66.57.37 0 .67-.26.67-.57 0-.32-.3-.58-.67-.58z"/></g><g fill="#FFF"><ellipse cx="15.84" cy="17.14" rx=".49" ry=".67"/><path d="M15.84 18c-.37 0-.67-.39-.67-.86s.3-.84.67-.84c.38 0 .67.37.67.84s-.3.85-.67.85zm0-1.35c-.17 0-.32.22-.32.5s.15.5.32.5.32-.24.32-.5-.15-.5-.32-.5z"/></g><g fill="#FFF"><circle cx="21.61" cy="15.46" r=".18"/><circle cx="21.61" cy="15.46" r=".35"/></g><g fill="#FFF"><ellipse cx="21.8" cy="10.83" rx=".27" ry=".35"/><path d="M21.8 11.36c-.25 0-.44-.23-.44-.53s.2-.53.44-.53c.25 0 .44.24.44.53s-.2.53-.44.53z"/></g><g fill="#FFF"><ellipse cx="18.77" cy="19.83" rx=".66" ry=".62"/><path d="M18.77 20.63a.82.82 0 0 1-.84-.8c0-.44.38-.8.84-.8.46 0 .84.36.84.8 0 .44-.38.8-.84.8zm0-1.24c-.27 0-.49.2-.49.44 0 .25.22.45.49.45s.49-.2.49-.45c0-.24-.22-.44-.5-.44z"/></g><g fill="#FFF"><circle cx="2.14" cy="16.61" r=".22"/><circle cx="2.14" cy="16.61" r=".4"/></g><g fill="#FFF"><ellipse cx="2.83" cy="19.11" rx=".66" ry=".84"/><path d="M2.83 20.13c-.46 0-.84-.46-.84-1.02s.38-1.01.84-1.01c.46 0 .84.45.84 1.01s-.38 1.02-.84 1.02zm0-1.68c-.27 0-.49.3-.49.66 0 .37.22.67.5.67.26 0 .48-.3.48-.67 0-.36-.22-.66-.49-.66z"/></g><g fill="#FFF"><ellipse cx="4.58" cy="21.24" rx=".49" ry=".31"/><path d="M4.58 21.72c-.37 0-.66-.21-.66-.48s.29-.48.66-.48c.37 0 .66.2.66.48 0 .27-.29.48-.66.48zm0-.62c-.19 0-.31.1-.31.14 0 .04.12.13.31.13s.31-.08.31-.13-.12-.14-.3-.14z"/></g><g fill="#FFF"><ellipse cx="3.17" cy="23.77" rx=".53" ry=".71"/><path d="M3.17 24.65c-.39 0-.7-.4-.7-.88 0-.49.31-.88.7-.88.4 0 .71.4.71.88 0 .49-.32.88-.7.88zm0-1.41c-.19 0-.35.24-.35.53 0 .29.16.53.35.53.2 0 .36-.24.36-.53 0-.29-.16-.53-.36-.53z"/></g><g fill="#FFF"><circle cx="9.21" cy="18.99" r=".22"/><circle cx="9.21" cy="18.99" r=".4"/></g><g fill="#FFF"><ellipse cx="11.9" cy="19.26" rx=".74" ry=".6"/><path d="M11.9 20.03c-.5 0-.92-.35-.92-.77s.42-.78.92-.78.92.35.92.78-.41.77-.92.77zm0-1.2c-.31 0-.57.2-.57.43s.26.42.57.42c.31 0 .57-.19.57-.42s-.25-.43-.57-.43z"/></g><g fill="#FFF"><ellipse cx="14.9" cy="19.41" rx=".31" ry=".18"/><path d="M14.9 19.76c-.28 0-.49-.15-.49-.36s.2-.35.49-.35c.27 0 .48.15.48.36s-.2.35-.48.35z"/></g><g fill="#FFF"><ellipse cx="21.33" cy="19.71" rx=".13" ry=".18"/><path d="M21.33 20.06c-.17 0-.3-.15-.3-.35s.13-.36.3-.36c.17 0 .3.16.3.36 0 .2-.13.35-.3.35z"/></g><g fill="#FFF"><ellipse cx="21.92" cy="23.89" rx=".27" ry=".18"/><path d="M21.92 24.25c-.24 0-.44-.16-.44-.36s.2-.35.44-.35c.25 0 .44.16.44.35s-.19.36-.44.36z"/></g><g fill="#FFF"><ellipse cx="19.14" cy="23.68" rx=".75" ry=".66"/><path d="M19.14 24.51c-.5 0-.92-.37-.92-.83s.41-.84.92-.84.93.37.93.84-.42.83-.93.83zm0-1.32c-.31 0-.57.22-.57.49s.26.48.57.48c.32 0 .58-.22.58-.48s-.26-.5-.58-.5z"/></g><g fill="#FFF"><ellipse cx="15.86" cy="21.83" rx=".8" ry=".71"/><path d="M15.86 22.71c-.53 0-.97-.4-.97-.88s.44-.88.97-.88c.54 0 .97.4.97.88 0 .49-.43.89-.97.89zm0-1.41c-.34 0-.62.24-.62.53 0 .3.28.54.62.54.34 0 .62-.24.62-.54 0-.3-.28-.53-.62-.53z"/></g><g fill="#FFF"><ellipse cx="14.11" cy="23.8" rx=".18" ry=".22"/><ellipse cx="14.11" cy="23.8" rx=".35" ry=".4"/></g><g fill="#FFF"><ellipse cx="11.67" cy="23.77" rx=".53" ry=".62"/><path d="M11.67 24.56c-.39 0-.7-.35-.7-.8 0-.43.31-.78.7-.78.4 0 .71.35.71.79 0 .44-.32.8-.7.8zm0-1.23c-.2 0-.35.2-.35.44s.16.44.35.44c.2 0 .36-.2.36-.44 0-.25-.16-.44-.36-.44z"/></g><g fill="#FFF"><ellipse cx="10.17" cy="25.3" rx=".35" ry=".31"/><path d="M10.17 25.79c-.29 0-.52-.22-.52-.49s.23-.48.52-.48.53.22.53.48c0 .27-.23.48-.53.48zm0-.62c-.1 0-.18.06-.18.13s.09.14.18.14.18-.07.18-.14-.08-.13-.18-.13z"/></g><g fill="#FFF"><circle cx="7.46" cy="23.11" r=".22"/><circle cx="7.46" cy="23.11" r=".4"/></g><g fill="#FFF"><ellipse cx="10.96" cy="21.58" rx=".31" ry=".18"/><path d="M10.96 21.93c-.28 0-.49-.15-.49-.35s.21-.35.49-.35c.27 0 .48.15.48.35s-.2.35-.48.35z"/></g><g fill="#FFF"><circle cx="18.77" cy="17.43" r=".22"/><circle cx="18.77" cy="17.43" r=".4"/></g><g fill="#FFF"><ellipse cx="3.71" cy="1.83" rx=".93" ry=".62"/><path d="M3.7 2.63c-.61 0-1.1-.35-1.1-.8 0-.44.49-.8 1.1-.8.62 0 1.1.36 1.1.8 0 .45-.48.8-1.1.8zm0-1.24c-.4 0-.75.2-.75.44s.35.45.76.45c.4 0 .75-.21.75-.45 0-.23-.35-.44-.75-.44z"/></g><g fill="#FFF"><ellipse cx="7.9" cy="4.38" rx=".74" ry=".6"/><path d="M7.9 5.16c-.5 0-.92-.35-.92-.78s.42-.77.92-.77.92.34.92.77-.41.78-.92.78zm0-1.2c-.31 0-.57.19-.57.42s.26.43.57.43c.31 0 .57-.2.57-.43s-.25-.42-.57-.42z"/></g><g fill="#FFF"><circle cx="8.92" cy="6.71" r=".35"/><path d="M8.92 7.24a.53.53 0 1 1 0-1.06.53.53 0 0 1 0 1.06zm0-.71a.18.18 0 1 0 0 .36.18.18 0 0 0 0-.36z"/></g><g fill="#FFF"><ellipse cx="7.3" cy="13.27" rx=".53" ry=".62"/><path d="M7.3 14.06c-.39 0-.7-.35-.7-.8 0-.43.31-.78.7-.78.39 0 .7.35.7.79 0 .44-.31.8-.7.8zm0-1.23c-.2 0-.36.2-.36.44s.16.44.36.44c.2 0 .36-.2.36-.44s-.17-.44-.36-.44z"/></g><g fill="#FFF"><ellipse cx="7.46" cy="20.64" rx=".49" ry=".67"/><path d="M7.46 21.5c-.36 0-.66-.39-.66-.86s.3-.84.66-.84c.38 0 .67.37.67.84s-.29.85-.67.85zm0-1.35c-.17 0-.31.22-.31.5s.14.5.31.5c.18 0 .32-.24.32-.5s-.14-.5-.32-.5z"/></g><path fill="#FFF" d="M7.62 25.95a.55.55 0 0 0 .22-.42c0-.37-.47-.68-1.04-.68-.58 0-1.05.3-1.05.68 0 .16.08.3.21.42h1.67zM5.96.01h1.67-.01c-.2.17-.5.27-.83.27-.34 0-.64-.1-.83-.27zM0 4.58l.23.02c.43 0 .8-.31.8-.7 0-.4-.36-.71-.8-.71A.9.9 0 0 0 0 3.2v1.36zM22.46 4.57V3.21c-.33.09-.57.36-.57.69s.24.6.57.68zM16.5 25.95c.02-.09.03-.18.03-.28 0-.55-.31-1-.7-1-.38 0-.7.45-.7 1 0 .1.02.2.03.28h1.34zM16.5.01h-1.34c.08.43.35.74.67.74.32 0 .59-.32.67-.74zM22.47 13.62a.87.87 0 0 1-.22.02c-.44 0-.8-.32-.8-.7 0-.4.36-.71.8-.71.08 0 .15 0 .22.02v1.36zM0 13.61v-1.36c.34.09.58.36.58.68s-.24.6-.57.69v-.01zM0 22.26l.22.02c.44 0 .8-.25.8-.55s-.36-.55-.8-.55c-.08 0-.15 0-.22.02v1.05zM22.47 22.25V21.2c-.34.06-.58.28-.58.53s.24.46.57.52zM22.47 18.18a.67.67 0 0 1-.22.03c-.44 0-.8-.42-.8-.94s.36-.95.8-.95c.07 0 .15.01.22.04v1.81zM0 18.17v-1.82c.34.11.58.48.58.92 0 .43-.24.8-.57.9zM22.47 25.95v-.96c-.38 0-.7.44-.7.97v-.01h.7zM0 25.95v-.96c.38 0 .7.44.7.97v-.01H0zM22.47.01v.96c-.38 0-.7-.44-.7-.97v.01h.7zM0 .01v.96C.38.97.7.53.7 0v.01H0z"/></svg>