<svg xmlns="http://www.w3.org/2000/svg" xmlns:xlink="http://www.w3.org/1999/xlink" width="22.45" height="25.92"><defs><path id="a" d="M0 0h22.45v25.92H0z"/></defs><clipPath id="b"><use xlink:href="#a" overflow="visible"/></clipPath><path fill="none" stroke="#EC008C" stroke-linecap="round" stroke-width="1.7" d="M18.66 1.8h.05m-7.23-.32h.04m-7.86.32h.05M-.1-.02h.06M.35 3.4H.4m7.26 0h.05m7.19.5h.06m3.7 1.95h.05m.39 3.81h.05m-4.61-1.62h.05m-3.43-2h.05M6.54 7.9h.05m-3.36-2h.04M.4 8.04h.06M3.8 10.6h.04m7.06 0h.06m4.58 1.13h.05m2.89 2.62h.04m-6.29 0h.04M7.66 12.6h.05m-3.67 2.3h.05m-4.24-2.36h.05m-.5 4.44h.06m.94 4.25h.06M3.3 18.9h.04m.06 4.58h.06m4.2-3.18h.05m1.02-3.82h.04m3.03 2.42h.04m3.76-1.92h.05m3.39 2.5h.05m.01 3.87h.05m-4.25-2.12h.06m-3.42 2.17h.05M22.4-.02h.06m.39 3.42h.05m0 4.64h.06m-.61 4.5h.05m-.5 4.44h.06m.94 4.25h.06m-6.99 3.92h.05m-8.49-.19h.05m-7.61.94h.05m22.38.03h.06" clip-path="url(#b)"/></svg>