<svg xmlns="http://www.w3.org/2000/svg" xml:space="preserve" width="56.69" height="56.69" viewBox="0.21 -56.83 56.69 56.69"><path d="M.21-56.83H56.9V-.14H.21z" style="fill:none"/><circle cx="45.81" cy="-4.23" r="1.06" style="fill:none;stroke:#000;stroke-width:.58"/><circle cx="11.84" cy="-16.67" r="1.06" style="fill:none;stroke:#000;stroke-width:.58"/><circle cx="11" cy="-2.05" r="1.06" style="fill:none;stroke:#000;stroke-width:.58"/><circle cx="28.91" cy="-3.61" r="1.06" style="fill:none;stroke:#000;stroke-width:.58"/><circle cx="23.52" cy="-10.85" r="1.06" style="fill:none;stroke:#000;stroke-width:.58"/><circle cx="36.99" cy="-8.36" r="1.06" style="fill:none;stroke:#000;stroke-width:.58"/><circle cx="42.25" cy="-13.73" r="1.06" style="fill:none;stroke:#000;stroke-width:.58"/><circle cx="51.64" cy="-15.4" r="1.06" style="fill:none;stroke:#000;stroke-width:.58"/><circle cx="31.64" cy="-19.9" r="1.06" style="fill:none;stroke:#000;stroke-width:.58"/><path d="m4.68-20.96 2.83-.34M34.64-15.17s2.5-3 2.17-4M42.39-16.69l-1.17-3.5M52.24-4.58c.67-.33-1.5 2-1.33 3.34M45.97-9.17c-.83-.17 2.84-1.33 3.5-2.17M10.47-6.17c-.83-.17 2.84-1.33 3.5-2.17M24.47-6.84c-1 0-4.83-1.16-4.83-1.16M6-12.32s-2.84-2.33-2.67-3.33M21.18-19.92l5 .33M35.06-10.1c-1 0-3.67-1.34-3.84-2.17M6.37-1.23c-1 0-3.67-1.34-3.83-2.17M17.14-16.34l-2 3" style="fill:none;stroke:#000;stroke-width:.58"/><circle cx="47.64" cy="-23.5" r="1.06" style="fill:none;stroke:#000;stroke-width:.58"/><circle cx="10.76" cy="-39.67" r="1.06" style="fill:none;stroke:#000;stroke-width:.58"/><circle cx="13.93" cy="-29" r="1.06" style="fill:none;stroke:#000;stroke-width:.58"/><circle cx="24.64" cy="-32.99" r="1.06" style="fill:none;stroke:#000;stroke-width:.58"/><circle cx="35.26" cy="-30.84" r="1.06" style="fill:none;stroke:#000;stroke-width:.58"/><circle cx="43.37" cy="-33" r="1.06" style="fill:none;stroke:#000;stroke-width:.58"/><circle cx="52.03" cy="-34.67" r="1.06" style="fill:none;stroke:#000;stroke-width:.58"/><circle cx="32.03" cy="-39.17" r="1.06" style="fill:none;stroke:#000;stroke-width:.58"/><path d="m7.91-40.57-2.83.34M35.77-35.27s3.63-1.43 3.82-2.47M32.43-29.75c-.19 1.03-5.58-1.71-5.58-1.71M42.95-39.59l3-2.33M51.3-19.8c-.16-1.33 2-3.66 1.34-3.33M2.01-36.63c.42-.2-.83.37-1.8 1.16M55.85-33.92c-.06-.5.42-1.06 1.02-1.54l.03-.03M46.37-28.44c-.83-.17 2.83-1.33 3.5-2.17M24.22-27.2s-4.17 2.68-5.17 2.68M13.56-23.87c-1.73.01-3.1-1.32-3.6-1.99M6.37-31.27s3.02-1.59 3.18-2.59M21.58-39.19l5 .33M32.72-23.52c.17.83 3.17-1.5 4.17-1.5M16.97-33.33l2-3M.2-26.92a1.06 1.06 0 0 0 0-2.13M56.88-29.05h-.01a1.06 1.06 0 1 0 0 2.13M56.88-26.92h.02M56.88-29.05h.02" style="fill:none;stroke:#000;stroke-width:.58"/><circle cx="2.99" cy="-8.73" r="1.06" style="fill:none;stroke:#000;stroke-width:.58"/><path d="M55.89-33.92c-.07-.5.42-1.06 1.01-1.54M56.9-29.05h-.02M56.88-26.92h.02" style="fill:none;stroke:#000;stroke-width:.58"/><circle cx="45.86" cy="-45.1" r="1.06" style="fill:none;stroke:#000;stroke-width:.58"/><circle cx="13.96" cy="-49.38" r="1.06" style="fill:none;stroke:#000;stroke-width:.58"/><circle cx="22.11" cy="-42.92" r="1.06" style="fill:none;stroke:#000;stroke-width:.58"/><circle cx="1.99" cy="-48.98" r="1.06" style="fill:none;stroke:#000;stroke-width:.58"/><circle cx="24.62" cy="-50.42" r="1.06" style="fill:none;stroke:#000;stroke-width:.58"/><circle cx="34.91" cy="-51.71" r="1.06" style="fill:none;stroke:#000;stroke-width:.58"/><circle cx="43.74" cy="-53.88" r="1.06" style="fill:none;stroke:#000;stroke-width:.58"/><circle cx="52.41" cy="-55.55" r="1.06" style="fill:none;stroke:#000;stroke-width:.58"/><path d="M37.58-2.7c.15.48-.39 1.56-1 2.56M35.12-54.48s.87-1.16 1.58-2.35M51.68-40.67c-.17-1.33 2-3.67 1.33-3.33M46.74-49.32c-.83-.16 2.84-1.33 3.5-2.16M23.37-54.13c-.83-.16 2.83-1.33 3.5-2.16M25.24-46.98c-1 0-4.83-1.17-4.83-1.17M14.41-44.12c-1-.17-3-.5-3.5-1.17M29.05-43.2c.5.68 3-1.32 4-1.16M6.74-52.15s2.17-2.5 2.34-3.5M35.74-48.48c.17.83 2.84 2.16 3.84 2.16M15.91-53.48l2-3M56.9-35.46v-.03" style="fill:none;stroke:#000;stroke-width:.58"/><circle cx="36.74" cy="-43.64" r=".53"/><circle cx="31.58" cy="-46.78" r=".53"/><circle cx="28.74" cy="-50.76" r=".53"/><circle cx="12.57" cy="-54.45" r=".53"/><circle cx="17.12" cy="-50.45" r=".53"/><circle cx="7.07" cy="-45.53" r=".53"/><circle cx="8.91" cy="-48.94" r=".53"/><circle cx="17.4" cy="-44.95" r=".53"/><circle cx="40.97" cy="-44.62" r=".53"/><circle cx="42.75" cy="-48.62" r=".53"/><circle cx="38.74" cy="-53.78" r=".53"/><circle cx="31.08" cy="-55.78" r=".53"/><circle cx="51.07" cy="-47.61" r=".53"/><circle cx="55.75" cy="-45.94" r=".53"/><circle cx="47.92" cy="-55.73" r=".53"/><circle cx="54.91" cy="-51.77" r=".53"/><circle cx="20.07" cy="-53.61" r=".53"/><circle cx="43.25" cy="-.99" r=".53"/><circle cx="37.31" cy="-27.57" r=".53"/><circle cx="29.55" cy="-27.15" r=".53"/><circle cx="42.87" cy="-36.74" r=".53"/><circle cx="24.7" cy="-36.07" r=".53"/><circle cx="15.37" cy="-37.9" r=".53"/><circle cx="12.2" cy="-33.58" r=".53"/><circle cx="17.48" cy="-29.57" r=".53"/><circle cx="6.7" cy="-24.66" r=".53"/><circle cx="11.05" cy="-21.06" r=".53"/><circle cx="8.99" cy="-28.55" r=".53"/><circle cx="4.06" cy="-28.16" r=".53"/><circle cx="20.31" cy="-27.83" r=".53"/><circle cx="43.47" cy="-23.74" r=".53"/><circle cx="41.65" cy="-27.75" r=".53"/><circle cx="39.8" cy="-31.83" r=".53"/><circle cx="30.7" cy="-34.9" r=".53"/><circle cx="38.7" cy="-40.4" r=".53"/><circle cx="19.3" cy="-40.08" r=".53"/><circle cx="50.71" cy="-26.74" r=".53"/><circle cx="55.37" cy="-25.08" r=".53"/><circle cx="54.87" cy="-39.4" r=".53"/><circle cx="47.54" cy="-35.57" r=".53"/><circle cx="49.7" cy="-39.58" r=".53"/><circle cx="54.54" cy="-30.9" r=".53"/><circle cx="19.7" cy="-32.74" r=".53"/><circle cx="7.2" cy="-36.57" r=".53"/><circle cx="4.3" cy="-33.07" r=".53"/><circle cx="2.31" cy="-22.08" r=".53"/><circle cx="2.18" cy="-42.82" r=".53"/><path d="M56.89-14.86h.01"/><circle cx="35.97" cy="-3.47" r=".53"/><circle cx="30.82" cy="-6.63" r=".53"/><circle cx="27.97" cy="-10.63" r=".53"/><circle cx="24.31" cy="-16.8" r=".53"/><circle cx="22.8" cy="-3.39" r=".53"/><circle cx="15.7" cy="-18.63" r=".53"/><circle cx="11.8" cy="-12.15" r=".53"/><circle cx="15.64" cy="-10.3" r=".53"/><circle cx="6.3" cy="-4.67" r=".53"/><circle cx="8.13" cy="-8.8" r=".53"/><circle cx="16.64" cy="-4.81" r=".53"/><circle cx="41.64" cy="-4.47" r=".53"/><circle cx="40.81" cy="-10.07" r=".53"/><circle cx="37.26" cy="-13.63" r=".53"/><circle cx="30.3" cy="-15.64" r=".53"/><circle cx="38.31" cy="-21.14" r=".53"/><circle cx="28.91" cy="-22.84" r=".53"/><circle cx="23.3" cy="-22.63" r=".53"/><circle cx="2.05" cy="-55.57" r=".46"/><circle cx="17.64" cy="-22.31" r=".53"/><circle cx="50.31" cy="-7.46" r=".53"/><circle cx="54.97" cy="-5.8" r=".53"/><circle cx="54.46" cy="-20.14" r=".53"/><circle cx="47.14" cy="-16.3" r=".53"/><circle cx="49.31" cy="-20.3" r=".53"/><circle cx="54.14" cy="-11.64" r=".53"/><circle cx="19.31" cy="-13.47" r=".53"/><circle cx="6.8" cy="-17.3" r=".53"/><path d="M56.89-14.86h.01M.2-14.88c.19-.07.31-.24.31-.44M56.9-15.32v-.52h-.01a.52.52 0 0 0-.53.52c0 .36.36.53.53.53M56.9-15.32v.46M.21-14.88v-.06"/><path d="M.56-15.32a.52.52 0 0 0-.35-.5V-14.88"/></svg>