<svg xmlns="http://www.w3.org/2000/svg" xmlns:xlink="http://www.w3.org/1999/xlink" width="10.19" height="10.19"><defs><path id="a" d="M0 0h10.2v10.2H0z"/></defs><clipPath id="b"><use xlink:href="#a" overflow="visible"/></clipPath><path fill="none" stroke="#000" stroke-width=".5" d="M10.2 7.98c-1.3 0-2.36.96-2.53 2.2m-.02-.01a2.56 2.56 0 0 0-2.53-2.2c-1.28 0-2.35.97-2.52 2.2m0 0a2.6 2.6 0 0 0-2.54-2.2H0M7.66 0v.22M2.6-.04c-.02.1-.03.17-.03.26m5.11 0v-.23M2.6.22v-.25m7.58 7.69.02.3m0-.36a2.55 2.55 0 0 0-5.08.36m.05 0c0-1.4-1.15-2.55-2.56-2.55A2.54 2.54 0 0 0 .07 7.97m.03-.01c0-.24-.03-.47-.1-.7m10.2-4.8A2.56 2.56 0 0 0 7.68.27a2.56 2.56 0 0 0-2.55 2.55m.04.01A2.55 2.55 0 0 0 2.6.3 2.51 2.51 0 0 0 .07 2.83m.03 0c0-.23-.03-.47-.1-.7m10.2.72A2.56 2.56 0 0 0 7.63 5.4m.04 0c0-1.4-1.15-2.56-2.56-2.56A2.56 2.56 0 0 0 2.57 5.4m.03 0C2.6 4 1.46 2.84.05 2.84H.01" clip-path="url(#b)"/></svg>