<svg xmlns="http://www.w3.org/2000/svg" xml:space="preserve" width="54.15" height="54.21" viewBox="2.05 -56.02 54.15 54.21"><path d="M2.05-56.02H56.2v54.21H2.05z" style="fill:none"/><path d="M3.29-43.86h0M5.29-44.02h0M7.68-43.2h0M9.17-44.19h0M10.74-42.79h0M5.71-42.05h0M3.64-40.89h0M5.29-39.08h0M7.03-39.82h0M8.26-37.42h0M6.04-37.09h0M2.73-34.45h0M3.64-31.82h0M5.21-33.38h0M6.7-34.78h0M9.34-35.53h0M10.08-38.25h0M11.64-36.1h0M12.8-38.09h0M15.03-38.17h0M12.96-40.48h0M13.21-43.12h0M15.44-41.55h0M15.15-44.23h0M16.76-39.73h0M18.57-41.22h0M18.66-38.58h0M20.23-39.98h0M20.89-37.59h0M19.48-35.77h0M21.46-35.28h0M21.71-32.97h0M19.48-32.97h0M17.17-33.71h0M14.53-35.12h0M14.78-32.23h0M12.3-34.04h0M11.97-31.4h0M9.66-30.08h0M7.19-31.4h0M7.27-28.76h0M8.51-26.78h0M11.07-28.27h0M14.2-29.84h0M13.46-27.61h0M9.58-23.65h0M7.36-22.57h0M6.86-24.8h0M5.98-26.73h0M3.32-27.23h0M3.89-24.72h0M2.49-22.74h0M2.82-20.51h0M3.73-18.29h0M6.28-18.53h0M8.51-20.02h0M10.57-21.5h0M13.05-22.49h0M13.46-24.89h0M15.61-25.96h0M15.77-23.48h0M18.41-23.98h0M18.16-26.37h0M19.65-28.27h0M20.39-30.58h0M17.75-31.32h0M22.54-29.42h0M21.71-27.03h0M20.47-25.13h0M20.39-22.91h0M20.64-20.84h0M22.62-22.25h0M18.82-19.52h0M14.62-20.68h0M16.68-19.03h0M14.37-17.95h0M14.12-15.81h0M11.23-15.48h0M9.09-17.71h0M8.68-15.4h0M6.45-16.22h0M3.81-15.89h0M2.77-14.53h0M3.81-12.68h0M7.6-13.17h0M9.83-12.59h0M12.96-13.91h0M15.69-13.91h0M16.93-16.64h0M19.48-17.3h0M21.71-19.19h0M21.79-16.72h0M20.55-14.82h0M24.35-20.43h0M25.34-22.66h0M25.75-24.8h0M24.27-27.2h0M25.09-29.34h0M26.25-27.03h0M28.06-25.71h0M29.96-26.54h0M29.55-24.47h0M27.65-23.57h0M31.11-23.57h0M34.09-23.89h0M32.35-21.91h0M34.58-21.34h0M36.48-22.57h0M39.12-21.25h0M37.63-19.52h0M39.86-18.86h0M37.55-17.3h0M39.61-16.22h0M40.02-14.08h0M37.14-15.07h0M34.58-16.06h0M33.51-19.36h0M32.44-17.13h0M31.45-19.36h0M30.29-16.64h0M29.22-18.53h0M26.99-17.54h0M26.99-20.43h0M27.57-14.74h0M25.18-15.89h0M32.6-14.49h0M35.41-13.75h0M37.8-13.01h0M43.98-20.93h0M45.72-22.66h0M46.05-20.1h0M45.39-17.54h0M43.33-18.95h0M46.46-15.73h0M47.95-17.21h0M49.51-19.52h0M50.75-21.91h0M53.06-19.77h0M55.04-19.19h0M54.13-16.55h0M51.49-17.79h0M52.15-14.98h0M54.55-13.42h0M52.81-12.1h0M50.26-12.51h0M52.48-9.71h0M54.63-8.38h0M52.07-7.39h0M55.29-5h0M53.23-5.25h0M53.9-3.4h0M50.67-5.83h0M47.78-6.24h0M48.27-4.34h0M48.9-2.4h0M46.38-3.19h0M44.56-5.25h0M46.3-8.14h0M47.86-10.12h0M47.7-13.01h0M45.3-12.1h0M43.41-10.04h0M41.92-11.93h0M44.4-14.65h0M42.83-16.22h0M42.01-5.83h0M42.65-4.15h0M41.15-3.26h0M43.74-2.44h0M40.44-7.64h0M41.02-9.21h0M39.45-11.03h0M37.8-8.38h0M38.13-6.24h0M39.78-4.75h0M38.54-2.61h0M35.32-5.99h0M35.65-8.3h0M33.92-9.71h0M35.16-11.6h0M33.34-12.35h0M31.03-11.93h0M28.56-12.59h0M30.04-10.2h0M32.19-7.81h0M32.93-5.66h0M31.36-4.26h0M32.4-2.4h0M34.15-4.23h0M35.48-2.45h0M33.9-55.4h0M30.04-2.86h0M28.48-4.75h0M27.57-7.07h0M28.97-8.22h0M26.99-9.79h0M25.26-7.56h0M26.58-5.17h0M27.48-2.86h0M23.86-5.66h0M22.12-8.3h0M21.55-5.91h0M21.15-3.77h0M23.52-2.44h0M19.57-5.42h0M19.89-7.56h0M18.91-9.79h0M21.05-10.94h0M19.57-12.51h0M22.86-12.35h0M22.86-14.41h0M25.67-12.76h0M17.42-4.92h0M15.61-3.44h0M15.28-5.75h0M12.88-5.66h0M13.65-3.4h0M14.98-55.67h0M10.82-2.86h0M11.81-7.72h0M14.45-7.39h0M13.38-9.54h0M15.85-9.71h0M17.59-11.52h0M14.86-11.6h0M10.82-9.95h0M9.25-8.14h0M8.68-6.16h0M6.48-9.4h0M8.43-10.61h0M5.87-11.52h0M3.98-9.4h0M2.82-10.9h0M2.82-6.16h0M2.49-3.1h0M4.32-4.4h0M5.54-3.02h0M8.48-3.23h0M7.11-4.42h0M6.98-7.07h0M27.16-30.08h0M25.59-32.23h0M23.86-34.7h0M25.59-36.52h0M26.66-34.04h0M28.39-32.06h0M28.56-36.02h0M27.82-37.92h0M26.91-40.48h0M23.28-40.31h0M21.55-41.8h0M22.2-43.94h0M23.94-42.05h0M26.08-42.05h0M25.01-43.86h0M27.73-43.53h0M30.45-43.94h0M31.61-41.47h0M30.54-39.24h0M31.03-36.93h0M32.93-38h0M33.67-40.23h0M33.18-42.79h0M33.01-35.45h0M32.77-32.72h0M30.7-31.57h0M29.88-29.59h0M32.52-30.08h0M35.16-33.55h0M35.57-36.1h0M37.55-33.71h0M39.94-34.37h0M38.95-36.19h0M38.46-38.74h0M37.88-40.56h0M35.57-41.55h0M37.15-42.9h0M39.61-43.78h0M42.01-42.54h0M42.58-39.98h0M41.18-38.09h0M43.08-36.35h0M45.14-37.76h0M44.23-43.61h0M46.79-44.27h0M47.62-41.88h0M47.53-38.66h0M46.95-36.68h0M45.55-34.87h0M44.98-32.8h0M43.16-31.82h0M41.18-32.39h0M39.53-30.91h0M40.44-28.68h0M38.05-29.75h0M37.96-28.1h0M35.57-29.42h0M33.76-27.94h0M32.77-25.96h0M35.41-26.54h0M38.13-26.29h0M40.69-26.45h0M38.87-24.64h0M40.52-22.99h0M42.01-25.13h0M42.91-22.82h0M44.56-24.64h0M42.34-29.92h0M45.06-28.84h0M45.72-26.62h0M46.54-30.66h0M47.95-33.05h0M49.92-32.48h0M49.51-30.41h0M47.45-24.89h0M50.67-23.89h0M50.01-26.2h0M52.81-25.63h0M55.12-23.98h0M55.12-26.45h0M54.38-28.76h0M51.82-28.02h0M52.48-30.41h0M52.07-33.38h0M54.96-33.63h0M53.88-35.53h0M51.58-35.61h0M50.26-37.01h0M52.4-38.09h0M54.79-37.59h0M50.01-39.73h0M28.06-28.27h0" style="fill:none;stroke:#000;stroke-width:.7;stroke-linecap:round"/><circle cx="49.68" cy="-8.55" r=".93" style="fill:none;stroke:#000;stroke-width:.3;stroke-linecap:round"/><circle cx="49.59" cy="-15.15" r=".93" style="fill:none;stroke:#000;stroke-width:.3;stroke-linecap:round"/><circle cx="55.04" cy="-10.86" r=".82" style="fill:none;stroke:#000;stroke-width:.3;stroke-linecap:round"/><ellipse cx="51.59" cy="-3.4" rx=".82" ry=".7" style="fill:none;stroke:#000;stroke-width:.3;stroke-linecap:round"/><circle cx="43.41" cy="-7.81" r=".93" style="fill:none;stroke:#000;stroke-width:.3;stroke-linecap:round"/><circle cx="42.25" cy="-14.49" r=".93" style="fill:none;stroke:#000;stroke-width:.3;stroke-linecap:round"/><ellipse cx="36.62" cy="-4.59" rx=".86" ry=".78" style="fill:none;stroke:#000;stroke-width:.3;stroke-linecap:round"/><circle cx="37.22" cy="-10.91" r=".86" style="fill:none;stroke:#000;stroke-width:.3;stroke-linecap:round"/><ellipse cx="30.68" cy="-6.74" rx=".78" ry=".86" style="fill:none;stroke:#000;stroke-width:.3;stroke-linecap:round"/><ellipse cx="25.07" cy="-3.82" rx=".93" ry=".86" style="fill:none;stroke:#000;stroke-width:.3;stroke-linecap:round"/><circle cx="24.07" cy="-9.93" r=".86" style="fill:none;stroke:#000;stroke-width:.3;stroke-linecap:round"/><circle cx="30.51" cy="-14.16" r=".93" style="fill:none;stroke:#000;stroke-width:.3;stroke-linecap:round"/><ellipse cx="35.41" cy="-18.73" rx=".78" ry=".86" style="fill:none;stroke:#000;stroke-width:.3;stroke-linecap:round"/><circle cx="41.56" cy="-20.54" r=".86" style="fill:none;stroke:#000;stroke-width:.3;stroke-linecap:round"/><ellipse cx="17.14" cy="-7.78" rx=".78" ry=".86" style="fill:none;stroke:#000;stroke-width:.3;stroke-linecap:round"/><ellipse cx="10.71" cy="-5.8" rx=".86" ry=".93" style="fill:none;stroke:#000;stroke-width:.3;stroke-linecap:round"/><ellipse cx="12.14" cy="-11.96" rx=".86" ry=".78" style="fill:none;stroke:#000;stroke-width:.3;stroke-linecap:round"/><circle cx="18.36" cy="-15.31" r=".78" style="fill:none;stroke:#000;stroke-width:.3;stroke-linecap:round"/><circle cx="23.8" cy="-18.5" r=".93" style="fill:none;stroke:#000;stroke-width:.3;stroke-linecap:round"/><ellipse cx="29.52" cy="-21.86" rx=".93" ry=".86" style="fill:none;stroke:#000;stroke-width:.3;stroke-linecap:round"/><ellipse cx="36.56" cy="-24.89" rx=".86" ry=".78" style="fill:none;stroke:#000;stroke-width:.3;stroke-linecap:round"/><ellipse cx="47.95" cy="-21.25" rx=".78" ry=".86" style="fill:none;stroke:#000;stroke-width:.3;stroke-linecap:round"/><circle cx="17.31" cy="-21.75" r=".78" style="fill:none;stroke:#000;stroke-width:.3;stroke-linecap:round"/><circle cx="23.41" cy="-25.05" r=".86" style="fill:none;stroke:#000;stroke-width:.3;stroke-linecap:round"/><ellipse cx="31.17" cy="-28.24" rx=".93" ry=".86" style="fill:none;stroke:#000;stroke-width:.3;stroke-linecap:round"/><ellipse cx="42.77" cy="-27.36" rx=".93" ry=".86" style="fill:none;stroke:#000;stroke-width:.3;stroke-linecap:round"/><ellipse cx="48.11" cy="-28.46" rx=".93" ry=".7" style="fill:none;stroke:#000;stroke-width:.3;stroke-linecap:round"/><ellipse cx="53.77" cy="-22.36" rx=".93" ry=".86" style="fill:none;stroke:#000;stroke-width:.3;stroke-linecap:round" transform="rotate(-4.05 53.77 -22.38)"/><circle cx="54.22" cy="-31.54" r=".86" style="fill:none;stroke:#000;stroke-width:.3;stroke-linecap:round"/><ellipse cx="48.77" cy="-35.34" rx=".93" ry=".78" style="fill:none;stroke:#000;stroke-width:.3;stroke-linecap:round"/><ellipse cx="42.23" cy="-34.62" rx=".93" ry=".7" style="fill:none;stroke:#000;stroke-width:.3;stroke-linecap:round"/><ellipse cx="36.95" cy="-31.54" rx=".93" ry=".78" style="fill:none;stroke:#000;stroke-width:.3;stroke-linecap:round"/><ellipse cx="29.8" cy="-34.18" rx="1.01" ry=".78" style="fill:none;stroke:#000;stroke-width:.3;stroke-linecap:round"/><ellipse cx="35.79" cy="-38.41" rx=".78" ry=".86" style="fill:none;stroke:#000;stroke-width:.3;stroke-linecap:round"/><ellipse cx="52.45" cy="-40.95" rx=".93" ry=".86" style="fill:none;stroke:#000;stroke-width:.3;stroke-linecap:round"/><ellipse cx="45.52" cy="-41.33" rx=".86" ry=".78" style="fill:none;stroke:#000;stroke-width:.3;stroke-linecap:round"/><circle cx="40.02" cy="-41.55" r=".86" style="fill:none;stroke:#000;stroke-width:.3;stroke-linecap:round"/><ellipse cx="29.36" cy="-41.77" rx=".86" ry=".78" style="fill:none;stroke:#000;stroke-width:.3;stroke-linecap:round"/><ellipse cx="23.52" cy="-31.7" rx=".86" ry=".7" style="fill:none;stroke:#000;stroke-width:.3;stroke-linecap:round"/><ellipse cx="38.15" cy="-54.48" rx=".86" ry=".7" style="fill:none;stroke:#000;stroke-width:.3;stroke-linecap:round"/><ellipse cx="3.15" cy="-54.85" rx=".86" ry=".7" style="fill:none;stroke:#000;stroke-width:.3;stroke-linecap:round"/><ellipse cx="23.86" cy="-38.47" rx=".78" ry=".86" style="fill:none;stroke:#000;stroke-width:.3;stroke-linecap:round"/><ellipse cx="19.68" cy="-43.31" rx=".93" ry=".86" style="fill:none;stroke:#000;stroke-width:.3;stroke-linecap:round"/><ellipse cx="16.7" cy="-36.49" rx=".86" ry=".93" style="fill:none;stroke:#000;stroke-width:.3;stroke-linecap:round"/><ellipse cx="16.32" cy="-28.9" rx=".86" ry=".93" style="fill:none;stroke:#000;stroke-width:.3;stroke-linecap:round"/><ellipse cx="9.55" cy="-41.05" rx=".86" ry=".78" style="fill:none;stroke:#000;stroke-width:.3;stroke-linecap:round"/><circle cx="9.17" cy="-33.35" r=".86" style="fill:none;stroke:#000;stroke-width:.3;stroke-linecap:round"/><circle cx="3.4" cy="-37.7" r=".86" style="fill:none;stroke:#000;stroke-width:.3;stroke-linecap:round"/><ellipse cx="4.28" cy="-29.56" rx=".93" ry="1.01" style="fill:none;stroke:#000;stroke-width:.3;stroke-linecap:round"/><ellipse cx="10.77" cy="-25.98" rx=".93" ry=".86" style="fill:none;stroke:#000;stroke-width:.3;stroke-linecap:round"/><path d="M48.4-53.15h0M49.65-44.52h0M50.21-54.34h0M12.63-54.6h0M10.41-54.6h0M8.1-55.34h0M49.4-48.02h0M5.7-53.85h0M2.9-53.03h0M47.77-49.77h0M5.13-51.46h0M4.38-49.23h0M4.38-46.51h0M6.53-47.58h0M7.48-45.73h0M11.82-44.9h0M17.48-44.57h0M9.09-48h0M10.57-49.89h0M11.31-52.2h0M8.67-52.95h0M13.46-51.05h0M12.63-48.66h0M11.4-46.76h0M16.68-46.43h0M15.19-48.82h0M16.02-50.97h0M17.17-48.66h0M18.99-47.34h0M20.88-48.16h0M20.47-46.1h0M22.82-45.9h0M36.65-44.9h0M25.01-45.52h0M18.08-51.71h0M16.51-53.85h0M51.77-52.52h0M52.65-54.23h0M20.82-55.23h0M19.32-53.69h0M54.77-52.65h0M53.52-50.52h0M52.52-48.27h0M23.69-54.35h0M21.63-53.19h0M20.8-51.21h0M23.44-51.71h0M26.08-55.17h0M55.15-48.77h0M30.15-54.57h0M51.77-42.9h0M50.82-46.73h0M54.9-43.27h0M54.77-40.52h0M36.48-54.07h0M34.08-53.44h0M32.1-54.02h0M30.45-52.53h0M31.36-50.31h0M28.97-51.38h0M28.89-49.73h0M26.49-51.05h0M24.68-49.56h0M23.69-47.58h0M26.33-48.16h0M29.05-47.91h0M31.61-48.08h0M29.79-46.26h0M33.98-44.57h0M32.98-46.9h0M35.49-46.26h0M33.26-51.54h0M35.98-50.47h0M36.64-48.24h0M37.47-52.29h0M40.9-55.52h0M40.44-52.04h0M38.37-46.51h0M39.98-45.57h0M42.32-45.23h0M49.65-42.57h0M52.65-45.23h0M40.93-47.83h0M43.74-47.25h0M44.77-45.4h0M46.05-48.08h0M45.3-50.39h0M42.9-50.4h0M42.65-53.02h0M43.48-54.57h0M46.82-55.19h0M2.4-50.52h0M18.99-49.89h0" style="fill:none;stroke:#000;stroke-width:.7;stroke-linecap:round"/><ellipse cx="27.48" cy="-46.51" rx=".86" ry=".78" style="fill:none;stroke:#000;stroke-width:.3;stroke-linecap:round"/><circle cx="14.34" cy="-46.68" r=".86" style="fill:none;stroke:#000;stroke-width:.3;stroke-linecap:round"/><ellipse cx="22.09" cy="-49.87" rx=".93" ry=".86" style="fill:none;stroke:#000;stroke-width:.3;stroke-linecap:round"/><ellipse cx="33.7" cy="-48.99" rx=".93" ry=".86" style="fill:none;stroke:#000;stroke-width:.3;stroke-linecap:round"/><ellipse cx="40.15" cy="-49.14" rx=".93" ry=".7" style="fill:none;stroke:#000;stroke-width:.3;stroke-linecap:round"/><circle cx="45.14" cy="-53.17" r=".86" style="fill:none;stroke:#000;stroke-width:.3;stroke-linecap:round"/><ellipse cx="50.47" cy="-50.52" rx=".93" ry=".78" style="fill:none;stroke:#000;stroke-width:.3;stroke-linecap:round"/><ellipse cx="27.87" cy="-53.17" rx=".93" ry=".78" style="fill:none;stroke:#000;stroke-width:.3;stroke-linecap:round"/><ellipse cx="46.77" cy="-46.05" rx="1.01" ry=".78" style="fill:none;stroke:#000;stroke-width:.3;stroke-linecap:round"/><ellipse cx="14.65" cy="-53.14" rx=".86" ry=".7" style="fill:none;stroke:#000;stroke-width:.3;stroke-linecap:round"/><ellipse cx="18.32" cy="-2.81" rx=".86" ry=".7" style="fill:none;stroke:#000;stroke-width:.3;stroke-linecap:round"/><ellipse cx="55.02" cy="-46.33" rx=".86" ry=".93" style="fill:none;stroke:#000;stroke-width:.3;stroke-linecap:round"/><ellipse cx="7.9" cy="-50.33" rx=".86" ry=".93" style="fill:none;stroke:#000;stroke-width:.3;stroke-linecap:round"/><ellipse cx="5.04" cy="-21.59" rx="1.01" ry=".78" style="fill:none;stroke:#000;stroke-width:.3;stroke-linecap:round"/><ellipse cx="11.59" cy="-19.5" rx="1.01" ry=".93" style="fill:none;stroke:#000;stroke-width:.3;stroke-linecap:round"/><ellipse cx="5.92" cy="-14.38" rx=".93" ry=".86" style="fill:none;stroke:#000;stroke-width:.3;stroke-linecap:round"/><ellipse cx="4.48" cy="-7.01" rx=".86" ry=".78" style="fill:none;stroke:#000;stroke-width:.3;stroke-linecap:round"/><path d="M54.71-55.33h0" style="fill:none;stroke:#000;stroke-width:.7;stroke-linecap:round"/><path d="M2.08-55.94h54.13v54.13H2.08z" style="fill:none"/></svg>