<svg xmlns="http://www.w3.org/2000/svg" xml:space="preserve" width="85.04" height="85.04" viewBox="2.05 -87.03 85.04 85.04"><path d="M2.05-87.03h85.04v85.04H2.05z" style="fill:none"/><path d="M10.34-75.15c.67-.78 2 .75 1.25 1-1.03.34-1.87-.29-1.25-1zM10.34-54.02c.67-.78 2 .75 1.25 1-1.03.34-1.87-.3-1.25-1zM84.6-59.05c.68-.78 2 .75 1.26 1-1.03.34-1.87-.28-1.25-1zM5.25-59.02c.68-.78 2 .75 1.25 1-1.02.34-1.87-.3-1.25-1zM11.25-58.7c.68-.77 2 .76 1.25 1-1.02.35-1.87-.28-1.25-1zM17.09-59.02c.67-.78 2 .75 1.25 1-1.03.34-1.87-.3-1.25-1zM23.12-59.35c.2-1 2.11-.34 1.59.25-.72.8-1.77.68-1.59-.25zM28.78-60.72c-.02-1.03 1.99-.78 1.6-.1-.53.94-1.58 1.04-1.6.1zM29.36-55.1c.65-.79 2.02.7 1.28.97-1.01.37-1.88-.23-1.28-.96zM36.42-54.1c.66-.79 2.02.7 1.28.97-1.01.37-1.88-.23-1.28-.96zM42.83-53.54c.14-1.02 2.08-.46 1.59.16-.67.84-1.72.78-1.6-.16zM49.8-54.1c-.07-1.04 1.95-.87 1.59-.17-.5.96-1.54 1.1-1.6.16zM56.23-55.21c-.01-1.03 2-.76 1.6-.08-.55.93-1.6 1.02-1.6.08zM33.96-63.04c-.2-1.01 1.82-1.11 1.56-.37-.37 1.02-1.38 1.3-1.56.37zM78.75-59.94c.68-.78 2 .75 1.25 1-1.02.34-1.87-.29-1.25-1zM81.75-68.32c.68-.78 2 .75 1.25 1-1.02.34-1.87-.28-1.25-1zM2.52-67.78c.68-.77 2 .75 1.25 1-1.02.35-1.86-.28-1.25-1zM9.66-68.2c.33-.97 2.13-.06 1.53.46-.81.7-1.84.44-1.53-.45zM75.65-69.59c.68-.78 2 .75 1.25 1-1.02.34-1.87-.28-1.25-1zM72.8-61c.67-.78 2 .75 1.25 1-1.03.34-1.87-.29-1.25-1zM66.84-62.02c.67-.78 2 .75 1.25 1-1.03.34-1.87-.3-1.25-1zM60.94-63.21c.68-.78 2 .75 1.25 1-1.02.34-1.87-.29-1.25-1zM55.32-64.84c.67-.78 2 .75 1.25 1-1.03.34-1.87-.28-1.25-1zM10.84-33.27c.67-.78 2 .75 1.25 1-1.03.34-1.87-.3-1.25-1zM5.84-38.52c.67-.78 2 .75 1.25 1-1.03.34-1.87-.3-1.25-1zM11.84-38.71c.67-.78 2 .75 1.25 1-1.03.34-1.87-.29-1.25-1zM17.84-38.96c.67-.78 2 .75 1.25 1-1.03.34-1.87-.29-1.25-1zM23.59-39.52c.67-.78 2 .75 1.25 1-1.03.34-1.87-.3-1.25-1zM29.59-40.21c.67-.78 2 .75 1.25 1-1.03.34-1.87-.29-1.25-1zM35.59-41.21c.67-.78 2 .75 1.25 1-1.03.34-1.87-.29-1.25-1zM41.21-42.4c.68-.78 2 .75 1.25 1-1.02.34-1.87-.29-1.25-1zM85.46-38.59c.68-.78 2 .75 1.25 1-1.02.34-1.87-.28-1.25-1zM84.46-46.21c.68-.78 2 .75 1.25 1-1.02.34-1.87-.29-1.25-1zM5.46-45.77c.68-.78 2 .75 1.25 1-1.02.34-1.87-.3-1.25-1zM11.46-45.4c.68-.78 2 .75 1.25 1-1.02.34-1.87-.29-1.25-1zM17.46-45.15c.68-.78 2 .75 1.25 1-1.02.34-1.87-.29-1.25-1zM23.46-45.02c.68-.78 2 .75 1.25 1-1.02.34-1.87-.3-1.25-1zM78.34-47.4c.67-.78 2 .75 1.25 1-1.03.34-1.87-.29-1.25-1zM79.34-38.96c.67-.78 2 .75 1.25 1-1.03.34-1.87-.29-1.25-1zM73.46-39.71c.68-.78 2 .75 1.25 1-1.02.34-1.87-.29-1.25-1zM67.46-40.77c.68-.78 2 .75 1.25 1-1.02.34-1.87-.3-1.25-1zM61.65-42.4c.68-.78 2 .75 1.25 1-1.02.34-1.87-.29-1.25-1zM47.46-43.77c.68-.78 2 .75 1.25 1-1.02.34-1.87-.3-1.25-1zM16.84-30.84c.67-.78 2 .75 1.25 1-1.03.34-1.87-.28-1.25-1zM25.34-28.52c.67-.78 2 .75 1.25 1-1.03.34-1.87-.3-1.25-1zM33.34-27.4c.67-.78 2 .75 1.25 1-1.03.34-1.87-.29-1.25-1zM30.67-35.2c.68-.77 2 .76 1.25 1-1.02.35-1.87-.28-1.25-1zM36.59-33.86c.67-.78 2 .75 1.25 1-1.03.34-1.87-.28-1.25-1zM31.59-14.53c.67-.77 2 .75 1.25 1-1.03.35-1.87-.28-1.25-1zM37.92-12.86c.68-.78 2 .75 1.25 1-1.02.34-1.87-.28-1.25-1zM43.92-12.03c.68-.77 2 .75 1.25 1-1.02.35-1.87-.28-1.25-1zM49.25-11.86c.68-.78 2 .75 1.25 1-1.02.34-1.87-.28-1.25-1zM54.25-12.36c.68-.78 2 .75 1.25 1-1.02.34-1.87-.28-1.25-1zM42.5-33.1c.68-.79 2 .74 1.25 1-1.02.33-1.87-.3-1.25-1zM48.42-32.86c.68-.78 2 .75 1.25 1-1.02.34-1.87-.28-1.25-1zM54.34-32.94c.67-.78 2 .75 1.25 1-1.03.34-1.87-.29-1.25-1zM60.34-33.52c.67-.78 2 .75 1.25 1-1.03.34-1.87-.3-1.25-1zM65-34.77c.68-.78 2 .75 1.25 1-1.02.34-1.87-.3-1.25-1zM39.21-26.9c.68-.78 2 .75 1.25 1-1.02.34-1.87-.29-1.25-1zM33.01-21.96c.75-.7 1.91.95 1.14 1.12-1.05.24-1.83-.47-1.14-1.12zM27.05-20.88c.67-.78 2 .75 1.25 1-1.03.34-1.87-.29-1.25-1zM20.75-19.7c.68-.77 2 .76 1.25 1-1.02.35-1.87-.28-1.25-1zM14.92-18.52c.68-.78 2 .75 1.25 1-1.02.34-1.87-.3-1.25-1zM8.92-17.7c.68-.77 2 .76 1.25 1-1.02.35-1.87-.28-1.25-1zM13.42-11.03c.68-.77 2 .75 1.25 1-1.02.35-1.87-.28-1.25-1zM18.92-9.03c.68-.77 2 .75 1.25 1-1.02.35-1.87-.28-1.25-1zM24.59-7.53c.67-.77 2 .75 1.25 1-1.03.35-1.87-.28-1.25-1zM30.59-6.2c.67-.77 2 .76 1.25 1-1.03.35-1.87-.28-1.25-1zM36.59-5.53c.67-.77 2 .75 1.25 1-1.03.35-1.87-.28-1.25-1zM42.42-5.36c.68-.78 2 .75 1.25 1-1.02.34-1.87-.28-1.25-1zM48.59-5.36c.67-.78 2 .75 1.25 1-1.03.34-1.87-.28-1.25-1zM54.59-5.86c.67-.78 2 .75 1.25 1-1.03.34-1.87-.28-1.25-1zM60.25-7.03c.68-.77 2 .75 1.25 1-1.02.35-1.87-.28-1.25-1zM66.09-8.36c.67-.78 2 .75 1.25 1-1.03.34-1.87-.28-1.25-1zM67.34-3.3c.67-.78 2 .75 1.25 1-1.03.34-1.87-.28-1.25-1zM71.75-10.03c.68-.77 2 .75 1.25 1-1.02.35-1.87-.28-1.25-1zM77.42-12.03c.68-.77 2 .75 1.25 1-1.02.35-1.87-.28-1.25-1zM2.92-16.86c.68-.78 2 .75 1.25 1-1.02.34-1.87-.28-1.25-1zM82.07-16.42c.67-.78 2 .75 1.25 1-1.03.34-1.87-.29-1.25-1zM76.28-16.5c.67-.78 2 .75 1.25 1-1.03.34-1.88-.29-1.25-1zM70.09-16.7c.67-.77 2 .76 1.25 1-1.03.35-1.87-.28-1.25-1zM64.25-17.52c.68-.78 2 .75 1.25 1-1.02.34-1.87-.3-1.25-1zM85.09-24.2c.67-.77 2 .76 1.25 1-1.03.35-1.87-.28-1.25-1zM79.25-24.02c.68-.78 2 .75 1.25 1-1.02.34-1.87-.3-1.25-1zM73.25-24.52c.68-.78 2 .75 1.25 1-1.02.34-1.87-.3-1.25-1zM6.27-24.4c.24-1 2.12-.25 1.57.31-.76.77-1.8.6-1.57-.31zM11.97-25.52c.22-1 2.11-.3 1.57.29-.73.78-1.77.64-1.57-.29zM58.59-18.52c.67-.78 2 .75 1.25 1-1.03.34-1.87-.3-1.25-1zM44.59-26.65c.67-.78 2 .75 1.25 1-1.03.34-1.87-.29-1.25-1zM50.59-27.02c.67-.78 2 .75 1.25 1-1.03.34-1.87-.3-1.25-1zM56.71-27.65c.68-.78 2 .75 1.25 1-1.02.34-1.87-.29-1.25-1zM62.34-28.71c.67-.78 2 .75 1.25 1-1.03.34-1.87-.29-1.25-1zM68.09-30.02c.67-.78 2 .75 1.25 1-1.03.34-1.87-.3-1.25-1zM74.03-31.22c.28-1 2.13-.18 1.56.37-.78.74-1.8.54-1.56-.37zM16.34-52.4c.67-.78 2 .75 1.25 1-1.03.34-1.87-.29-1.25-1zM22.21-50.4c.68-.78 2 .75 1.25 1-1.02.34-1.87-.29-1.25-1zM28.21-49.02c.68-.78 2 .75 1.25 1-1.02.34-1.87-.3-1.25-1zM34.21-48.15c.68-.78 2 .75 1.25 1-1.02.34-1.87-.29-1.25-1zM39.96-47.77c.68-.78 2 .75 1.25 1-1.02.34-1.87-.3-1.25-1zM46.09-47.65c.67-.78 2 .75 1.25 1-1.03.34-1.87-.29-1.25-1zM52.09-48.02c.67-.78 2 .75 1.25 1-1.03.34-1.87-.3-1.25-1zM57.9-48.84c.68-.78 2 .75 1.25 1-1.02.34-1.87-.28-1.25-1zM63.71-50.15c.68-.78 2 .75 1.25 1-1.02.34-1.87-.29-1.25-1zM69.21-52.15c.68-.78 2 .75 1.25 1-1.02.34-1.87-.29-1.25-1zM75.34-54.27c.67-.78 2 .75 1.25 1-1.03.34-1.87-.3-1.25-1zM15.75-72.78c.68-.77 2 .75 1.25 1-1.02.35-1.87-.28-1.25-1zM21.34-71.2c.67-.77 2 .76 1.25 1-1.03.35-1.87-.28-1.25-1zM27.25-70.03c.68-.77 2 .75 1.25 1-1.02.35-1.87-.28-1.25-1zM27.09-78.7c.67-.77 2 .76 1.25 1-1.03.35-1.87-.28-1.25-1zM35.09-77.44c.67-.78 2 .75 1.25 1-1.03.34-1.87-.29-1.25-1zM42.5-77.7c.68-.77 2 .76 1.25 1-1.02.35-1.87-.28-1.25-1zM33.25-69.36c.68-.78 2 .75 1.25 1-1.02.34-1.87-.28-1.25-1zM39.34-68.94c.67-.78 2 .75 1.25 1-1.03.34-1.87-.29-1.25-1zM45.09-69.03c.67-.77 2 .75 1.25 1-1.03.35-1.87-.28-1.25-1zM51.17-69.48c.68-.78 2 .75 1.25 1-1.02.34-1.87-.29-1.25-1zM57.09-70.2c.67-.77 2 .76 1.25 1-1.03.35-1.87-.28-1.25-1zM62.86-71.28c.67-.77 2 .75 1.25 1-1.02.35-1.87-.28-1.25-1zM68.71-72.65c.68-.78 2 .75 1.25 1-1.02.34-1.87-.29-1.25-1zM74.32-74.86c.67-.78 2 .75 1.25 1-1.03.34-1.87-.28-1.25-1zM77.84-78.78c.67-.77 2 .75 1.25 1-1.03.35-1.87-.28-1.25-1zM84.96-79.15c.68-.78 2 .75 1.25 1-1.02.34-1.87-.29-1.25-1zM73.92-86.36c.68-.78 2 .75 1.25 1-1.02.34-1.87-.28-1.25-1zM79.92-85.53c.68-.77 2 .75 1.25 1-1.02.35-1.87-.28-1.25-1zM85.25-85.36c.68-.78 2 .75 1.25 1-1.02.34-1.87-.28-1.25-1zM6.18-85.17c.25-1 2.13-.23 1.57.33-.76.76-1.8.59-1.57-.33zM12.69-86.07c.03-1.03 2.02-.69 1.6-.02-.58.92-1.63.97-1.6.02zM5.71-79.78c.68-.77 2 .75 1.25 1-1.02.35-1.87-.28-1.25-1zM11.46-81.28c.68-.77 2 .75 1.25 1-1.02.35-1.87-.28-1.25-1zM16.84-83.03c.67-.77 2 .75 1.25 1-1.03.35-1.87-.28-1.25-1zM22.84-85.03c.67-.77 2 .75 1.25 1-1.03.35-1.87-.28-1.25-1zM70.84-78.9c.67-.78 2 .75 1.25 1-1.03.34-1.87-.29-1.25-1zM63.71-79.78c.68-.77 2 .75 1.25 1-1.02.35-1.87-.28-1.25-1zM57.96-81.28c.68-.77 2 .75 1.25 1-1.02.35-1.87-.28-1.25-1zM52.59-83.65c.67-.78 2 .75 1.25 1-1.03.34-1.87-.29-1.25-1zM48.02-86.15c.68-.78 2 .75 1.25 1-1.02.34-1.87-.29-1.25-1zM18.88-3.78c.03-1.03 2.02-.68 1.6-.02-.58.92-1.63.97-1.6.02z" style="fill:none;stroke:#000;stroke-width:.3;stroke-linecap:round"/><path d="M3.84-84.69h0M10.4-85.59h0M4.21-82.03h0M7.09-82.46h0M10.09-82.96h0M12.84-83.84h0M14.96-84.59h0M17.4-85.4h0M19.46-86.34h0M3.71-78.9h0M9.09-79.84h0M14.9-81.53h0M20.59-83.4h0M26.15-85.59h0M30.65-86.09h0M28.96-85.03h0M27.27-83.96h0M25.52-83.09h0M23.77-82.09h0M21.96-81.34h0M20.09-80.46h0M18.21-79.78h0M16.34-79.03h0M14.46-78.46h0M12.65-77.96h0M10.65-77.4h0M8.71-77.15h0M6.71-76.78h0M4.71-76.65h0M2.77-76.59h0M4.03-75.34h0M3.27-72.71h0M5.96-72.78h0M10.15-70.78h0M7.9-70.4h0M5.59-70.15h0M3.34-70.03h0M7.03-67.65h0M13.28-68.46h0M15.71-68.9h0M21.9-66.34h0M23.96-66.9h0M19.84-65.84h0M17.59-65.34h0M14.9-64.9h0M12.03-64.46h0M5.9-63.9h0M9.03-64.09h0M3.34-63.96h0M3.27-60.96h0M2.77-58.65h0M8.84-58.21h0M11.4-55.27h0M9.21-55.36h0M6.5-55.44h0M13.4-55.21h0M15.34-55.27h0M17.27-55.34h0M19.34-55.52h0M21.34-55.84h0M23.21-56.34h0M25.09-56.77h0M27.09-57.34h0M28.96-58.09h0M30.71-58.84h0M32.59-59.65h0M34.34-60.71h0M36.15-59.09h0M39.52-58.84h0M42.52-58.77h0M45.21-58.9h0M39.21-55.9h0M35.52-56.15h0M31.65-56.77h0M42.46-55.9h0M45.84-56.15h0M48.27-56.52h0M50.77-56.84h0M53.15-57.15h0M14.84-58.15h0M20.71-58.84h0M26.65-59.71h0M32.21-61.71h0M6.34-60.77h0M9.71-60.71h0M12.96-60.71h0M16.84-61.02h0M20.46-61.71h0M23.34-62.27h0M26.09-62.9h0M28.65-63.59h0M30.9-64.34h0M32.9-65.03h0M36.09-61.65h0M37.59-63.84h0M39.27-62.84h0M42.9-63.15h0M41.02-62.02h0M42.9-61.21h0M44.77-60.52h0M46.71-59.96h0M48.65-59.27h0M50.65-58.9h0M45.46-61.84h0M40.46-64.78h0M5.71-74.46h0M7.46-73.53h0M9.28-72.71h0M11.15-72.03h0M13.03-71.4h0M15.03-70.78h0M16.96-70.28h0M18.9-69.84h0M20.84-69.34h0M22.71-68.84h0M24.65-68.46h0M26.52-68.03h0M28.52-67.65h0M32.59-66.86h0M34.75-66.61h0M36.92-66.44h0M39.17-66.44h0M41.84-66.36h0M30.59-67.19h0M24.96-69.96h0M30.9-69.09h0M36.84-68.65h0M42.77-68.46h0M44.24-66.21h0M46.52-66.21h0M48.4-66.28h0M48.65-63.96h0M51.52-62.84h0M54.4-61.71h0M58.71-63.59h0M61.84-65.53h0M64.71-64.59h0M67.46-63.9h0M70.4-63.21h0M73.53-62.59h0M76.65-62.02h0M79.53-61.65h0M82.21-61.4h0M85.21-61.09h0M82.28-59.02h0M76.34-59.96h0M70.4-61.02h0M64.65-62.21h0M57.15-60.84h0M59.96-59.96h0M62.9-59.09h0M65.71-58.34h0M68.78-57.65h0M71.65-57.02h0M86.21-55.27h0M85.15-54.15h0M85.46-52.09h0M85.4-49.59h0M85.9-42.09h0M82.9-42.15h0M79.96-42.34h0M76.96-42.71h0M73.84-43.02h0M71.03-43.52h0M68.09-44.09h0M65.09-45.02h0M82.9-38.21h0M85.96-34.34h0M83.96-34.4h0M81.96-34.46h0M79.84-34.65h0M77.71-34.77h0M75.71-35.09h0M73.71-35.4h0M71.5-35.77h0M62.59-38.02h0M64.67-37.36h0M66.75-36.69h0M69.34-36.19h0M60.52-38.9h0M58.71-39.71h0M56.96-40.65h0M55.21-41.65h0M58.4-44.65h0M56.52-43.96h0M54.52-43.27h0M52.65-42.59h0M50.65-42.02h0M48.77-41.59h0M46.84-41.15h0M44.9-40.65h0M43.02-40.21h0M41.09-39.71h0M39.09-39.27h0M37.15-38.96h0M35.34-38.46h0M33.27-38.09h0M31.34-37.77h0M29.4-37.46h0M27.46-37.15h0M25.46-36.84h0M23.46-36.59h0M21.52-36.27h0M19.59-36.02h0M17.65-35.84h0M15.65-35.52h0M13.78-35.27h0M11.65-34.96h0M9.71-34.9h0M7.78-34.71h0M5.71-34.46h0M4.03-34.34h0M5.65-32.21h0M4.03-33.02h0M6.21-29.96h0M3.4-29.71h0M3.96-27.02h0M4.03-23.96h0M9.96-24.77h0M15.71-26.15h0M21.77-24.71h0M18.77-24.15h0M15.9-23.59h0M12.9-22.96h0M9.96-22.46h0M7.03-22.09h0M4.03-21.71h0M3.46-18.65h0M6.59-16.77h0M8.71-13.4h0M6.71-13.28h0M4.88-13.28h0M2.84-13.15h0M4.96-11.34h0M4.03-8.84h0M3.34-2.77h0M6.34-3.02h0M9.34-3.34h0M12.21-3.84h0M15.15-4.46h0M16.4-2.46h0M17.77-5.09h0M21.59-2.4h0M23.9-3.4h0M28.77-2.65h0M6.28-5.78h0M3.02-5.65h0M12.15-6.65h0M9.34-6.28h0M6.84-10.53h0M8.65-9.71h0M10.59-8.96h0M12.46-8.4h0M14.34-7.71h0M16.21-7.09h0M18.15-6.53h0M20.09-6.03h0M22.15-5.59h0M23.9-5.21h0M25.84-4.84h0M27.96-4.4h0M29.9-4.03h0M31.84-3.71h0M33.84-3.34h0M35.84-3.09h0M37.84-2.9h0M39.77-2.84h0M41.77-2.77h0M43.65-2.59h0M45.9-2.65h0M47.84-2.65h0M49.9-2.77h0M51.84-3.02h0M53.84-3.34h0M55.84-3.52h0M57.84-3.84h0M59.65-4.15h0M61.52-4.53h0M63.59-5.11h0M65.75-5.69h0M68.17-6.15h0M70.67-6.86h0M73.09-7.61h0M75.17-8.11h0M65.78-3.65h0M46.15-4.71h0M52.15-5.09h0M58.02-5.78h0M63.9-7.09h0M40.21-4.84h0M41.59-6.46h0M44.46-6.28h0M47.46-6.28h0M50.52-6.4h0M53.4-6.78h0M56.46-7.09h0M59.4-7.71h0M62.34-8.46h0M65.09-9.21h0M68.09-10.21h0M69.65-8.53h0M75.34-10.46h0M77.15-8.59h0M78.96-9.21h0M80.84-9.96h0M82.65-10.84h0M84.46-11.71h0M85.65-9.34h0M80.15-7.03h0M83.03-6.34h0M86.09-5.78h0M85.84-2.71h0M83.34-2.86h0M80.92-3.11h0M78.12-3.69h0M75.25-4.44h0M72.67-5.53h0M70.78-11.28h0M43.34-8.78h0M46.34-8.71h0M49.34-8.65h0M52.27-8.96h0M55.34-9.28h0M58.09-9.84h0M60.52-10.4h0M62.77-11.03h0M64.78-11.65h0M40.34-9.21h0M41.59-11.9h0M47.34-11.4h0M52.52-11.65h0M56.71-12.21h0M58.59-12.65h0M51.4-14.53h0M48.84-14.21h0M46.02-14.15h0M43.02-14.34h0M39.84-14.15h0M48.52-17.02h0M50.34-16.21h0M52.21-15.59h0M54.15-15.09h0M56.02-14.59h0M57.96-14.21h0M59.9-13.9h0M61.9-13.71h0M63.9-13.53h0M65.9-13.46h0M67.84-13.28h0M69.9-13.28h0M71.84-13.28h0M73.84-13.28h0M75.96-13.28h0M77.96-13.21h0M79.9-13.21h0M81.96-13.15h0M84.09-13.28h0M85.84-13.15h0M56.02-19.02h0M61.99-17.38h0M67.88-16.47h0M73.84-16.21h0M79.78-15.96h0M85.71-16.09h0M62.46-21.09h0M65.46-20.34h0M68.34-19.65h0M71.21-19.21h0M74.34-18.96h0M77.21-18.84h0M80.21-18.84h0M83.21-19.02h0M86.21-19.15h0M68.09-22.59h0M70.96-21.9h0M73.9-21.46h0M76.96-21.27h0M79.96-21.27h0M82.96-21.34h0M86.03-21.46h0M36.27-15.21h0M35.71-13.15h0M37.4-9.65h0M38.59-6.84h0M35.65-7.28h0M34.15-5.34h0M34.52-10.28h0M32.65-7.78h0M28.27-6.34h0M29.77-8.4h0M31.65-10.9h0M28.71-11.84h0M25.9-12.78h0M24.02-10.21h0M26.84-9.15h0M22.52-7.78h0M21.15-11.09h0M18.4-12.09h0M16.77-9.53h0M11.21-11.71h0M10.71-13.59h0M12.71-13.71h0M14.59-13.96h0M16.65-14.09h0M18.65-14.34h0M20.65-14.46h0M22.65-14.78h0M24.52-15.03h0M26.46-15.28h0M28.46-15.59h0M30.34-15.9h0M32.4-16.27h0M34.4-16.52h0M36.21-16.96h0M38.27-17.27h0M40.21-17.77h0M42.21-18.09h0M44.09-18.46h0M46.02-18.84h0M47.9-19.4h0M49.84-19.84h0M51.84-20.27h0M53.71-20.77h0M55.65-21.4h0M57.59-21.9h0M59.46-22.52h0M61.4-23.21h0M63.27-23.9h0M65.03-24.65h0M66.96-25.4h0M10.21-15.15h0M12.53-17.59h0M13.21-15.46h0M16.21-15.71h0M18.34-18.71h0M19.02-16.02h0M22.15-16.46h0M24.52-19.77h0M25.09-17.02h0M27.96-17.4h0M30.76-20.83h0M30.9-17.96h0M33.84-18.65h0M36.66-21.98h0M36.77-19.34h0M39.52-20.02h0M42.4-20.71h0M44.84-21.52h0M47.09-22.4h0M6.4-19.09h0M9.46-19.52h0M12.4-20.15h0M15.28-20.71h0M18.27-21.46h0M21.09-22.15h0M23.84-22.77h0M26.34-23.34h0M28.77-23.9h0M6.9-27.4h0M9.78-27.96h0M7.46-31.27h0M9.28-30.52h0M11.21-29.84h0M13.21-29.21h0M15.09-28.59h0M16.84-28.09h0M18.9-27.59h0M20.77-27.09h0M22.71-26.59h0M24.65-26.21h0M26.65-25.9h0M28.52-25.59h0M30.46-25.27h0M32.5-25.11h0M34.5-24.94h0M36.75-24.77h0M39.25-24.44h0M41.59-24.19h0M44.09-24.02h0M13.84-31.65h0M19.71-29.52h0M19-33.86h0M22.59-28.65h0M28.8-27.68h0M22.84-32.86h0M28.46-35.34h0M34.27-33.96h0M40.15-32.96h0M46.02-32.4h0M51.96-32.09h0M58.02-32.59h0M63.34-33.4h0M67.59-35.15h0M36.21-36.77h0M39.34-36.02h0M42.15-35.52h0M45.09-35.15h0M48.02-34.84h0M50.9-34.84h0M53.71-34.65h0M56.15-34.71h0M58.15-34.96h0M60.02-35.21h0M61.96-35.52h0M63.84-36.02h0M59.71-37.46h0M57.65-36.96h0M54.46-39.02h0M56.71-39.15h0M53.02-36.84h0M55.52-36.84h0M51.71-39.27h0M49.84-37.09h0M49.09-39.65h0M46.46-37.77h0M43.4-38.59h0M25.84-32.02h0M29.34-31.19h0M32.84-30.69h0M36.67-30.19h0M39.96-30.09h0M42.96-29.9h0M45.84-29.9h0M48.9-29.96h0M52.27-30.09h0M55.59-30.27h0M58.59-30.65h0M61.34-31.02h0M64.34-31.59h0M67.28-32.15h0M70.03-32.71h0M72.65-33.27h0M75.4-33.9h0M31.59-27.27h0M36.84-26.52h0M42.59-26.15h0M46.34-23.94h0M48.71-24.02h0M50.77-24.15h0M52.71-24.4h0M54.65-24.65h0M56.59-24.9h0M58.65-25.09h0M60.59-25.46h0M62.59-25.84h0M64.53-26.27h0M48.27-26.52h0M54.21-26.96h0M60.09-27.52h0M65.84-28.71h0M71.71-30.21h0M77.46-31.96h0M80.28-33.09h0M85.21-33.02h0M83.46-31.96h0M81.65-31.27h0M79.84-30.46h0M77.9-29.77h0M76.03-29.15h0M74.09-28.59h0M74.46-26.59h0M71.03-24.65h0M76.96-23.71h0M82.96-23.46h0M77.4-26.02h0M80.46-25.9h0M83.34-26.02h0M86.28-26.34h0M72.21-28.02h0M70.21-27.46h0M68.34-27.02h0M66.28-26.52h0M84.78-29.84h0M2.4-34.27h0M44.84-42.4h0M39.02-41.02h0M33.15-40.15h0M27.21-39.21h0M21.27-38.59h0M15.4-38.27h0M9.34-38.02h0M3.34-38.02h0M39.15-43.71h0M36.21-43.4h0M24.34-42.27h0M26.84-42.52h0M29.34-42.69h0M31.59-42.94h0M34.17-43.19h0M21.34-42.15h0M18.4-42.02h0M15.4-41.96h0M12.34-41.96h0M9.4-41.9h0M6.46-42.02h0M3.4-42.09h0M21.15-44.52h0M15.09-44.71h0M9.15-44.96h0M3.27-45.52h0M27.02-44.52h0M76.96-38.9h0M71.09-39.71h0M65.28-41.02h0M59.17-43.02h0M81.9-46.21h0M75.96-47.52h0M82.59-50.4h0M83.53-53.27h0M81.71-52.4h0M79.84-51.59h0M77.96-50.9h0M76.09-50.21h0M72.84-52.77h0M74.15-49.59h0M72.21-49.09h0M70.21-48.65h0M68.34-48.02h0M66.46-47.59h0M64.46-47.27h0M62.46-46.9h0M60.59-46.52h0M58.59-46.15h0M56.65-45.9h0M54.59-45.59h0M52.71-45.34h0M50.77-45.21h0M48.71-44.96h0M46.52-44.84h0M43.77-44.84h0M41.71-44.96h0M39.71-45.09h0M37.77-45.34h0M35.84-45.46h0M33.77-45.77h0M31.84-46.09h0M29.9-46.4h0M27.9-46.71h0M26.02-46.96h0M24.21-47.4h0M22.15-47.77h0M20.09-48.34h0M20.9-46.65h0M17.9-46.96h0M14.96-47.21h0M11.96-47.65h0M9.03-48.15h0M6.09-48.71h0M3.15-49.21h0M14.84-48.65h0M11.84-49.09h0M9.03-49.71h0M6.09-50.65h0M3.21-51.52h0M18.21-48.84h0M16.34-49.4h0M14.46-49.96h0M12.46-50.65h0M10.53-51.27h0M8.78-51.9h0M7.03-52.65h0M5.15-53.59h0M3.46-54.52h0M67.21-50.46h0M61.4-49.09h0M55.59-48.02h0M49.52-47.46h0M43.59-47.4h0M37.65-47.77h0M31.84-48.46h0M30.59-50.96h0M27.21-51.84h0M25.84-49.46h0M20.02-51.02h0M13.71-52.52h0M23.87-52.77h0M20.46-53.96h0M37.27-50.09h0M40.46-53.34h0M33.34-54.09h0M27.46-55.46h0M34.09-50.34h0M40.21-49.9h0M46.21-53.77h0M48.52-53.96h0M43.02-49.84h0M57.15-51.52h0M59.77-52.21h0M62.15-52.9h0M64.53-53.65h0M66.96-54.52h0M54.27-50.84h0M59.27-55.84h0M54.96-54.96h0M52.84-54.52h0M51.4-50.34h0M48.77-50.09h0M46.02-49.95h0M84.21-55.4h0M82.21-55.4h0M80.21-55.46h0M78.21-55.59h0M76.15-55.65h0M74.15-55.77h0M72.15-55.84h0M70.21-56.02h0M68.28-56.21h0M66.15-56.46h0M64.21-56.65h0M62.21-56.9h0M60.34-57.15h0M58.4-57.52h0M56.34-57.84h0M54.4-58.21h0M52.52-58.59h0M50.59-66.4h0M52.46-66.65h0M54.46-66.84h0M56.46-67.15h0M58.46-67.46h0M60.4-67.71h0M62.4-68.09h0M64.4-68.53h0M66.34-68.9h0M68.21-69.34h0M70.09-69.78h0M72.03-70.28h0M73.96-70.78h0M75.9-71.4h0M77.78-71.96h0M79.71-72.65h0M81.53-73.46h0M83.34-74.28h0M85.21-75.15h0M84.96-72.96h0M85.46-70.09h0M82.34-70.84h0M79.28-68.28h0M85.21-67.53h0M85.65-63.96h0M82.78-64.4h0M79.78-64.71h0M76.9-65.4h0M73.9-66.09h0M71.09-67.09h0M48.71-68.65h0M54.65-69.28h0M60.65-70.15h0M66.4-71.34h0M72.15-73.15h0M19.15-71.28h0M13.59-73.34h0M8.9-75.53h0M14.09-76.15h0M16.65-74.65h0M19.46-73.65h0M22.27-72.65h0M25.27-72.09h0M28.15-71.59h0M31.09-71.21h0M34.15-70.9h0M37.34-70.65h0M40.34-70.59h0M43.09-70.71h0M45.96-70.78h0M48.96-71.15h0M51.27-71.59h0M53.77-72.15h0M56.21-72.65h0M58.71-73.34h0M61.15-74.15h0M63.52-74.96h0M18.15-77.96h0M20.84-76.59h0M23.52-75.65h0M26.34-74.96h0M29.71-74.34h0M32.9-74.03h0M36.34-73.84h0M39.96-74.03h0M43.21-74.4h0M46.4-74.84h0M49.02-75.28h0M51.46-75.71h0M53.71-76.21h0M24.9-78.78h0M22.4-79.46h0M30.4-77.59h0M34.09-80.28h0M31.46-80.84h0M28.46-81.65h0M36.77-79.78h0M39.34-79.46h0M41.96-79.28h0M32.21-84.53h0M34.09-83.59h0M35.77-82.96h0M37.59-82.09h0M39.52-81.34h0M41.46-80.71h0M41.4-82.34h0M39.02-84.21h0M36.71-86.03h0M43.34-80.09h0M45.21-79.53h0M47.21-79.03h0M49.09-78.59h0M51.09-78.15h0M52.96-77.84h0M52.96-79.03h0M50.34-80.53h0M48.02-82.21h0M45.52-84.09h0M43.46-86.15h0M50.84-84.21h0M55.9-81.78h0M61.52-79.78h0M67.84-78.65h0M74.84-78.03h0M82.34-78.4h0M54.9-77.46h0M56.9-77.15h0M58.9-77.03h0M60.9-76.84h0M62.84-76.59h0M64.78-76.46h0M66.78-76.28h0M68.84-76.21h0M70.84-76.15h0M72.78-76.21h0M74.78-76.15h0M76.9-76.15h0M79.09-76.28h0M81.21-76.28h0M83.46-76.53h0M85.71-76.53h0M38.27-77.09h0M40.77-77.09h0M45.59-77.46h0M33.09-77.21h0M65.65-83.4h0M62.59-84.09h0M59.71-85.09h0M56.77-86.34h0M68.59-82.84h0M71.4-82.46h0M74.34-82.21h0M71.34-86.59h0M77.65-85.4h0M83.4-84.78h0M86.17-81.86h0M83.28-81.84h0M80.53-81.9h0M77.28-82.03h0" style="fill:none;stroke:#000;stroke-width:.7;stroke-linecap:round"/></svg>