<svg xmlns="http://www.w3.org/2000/svg" xml:space="preserve" width="54.13" height="54.13" viewBox="0.09 -54.24 54.13 54.13"><path d="M.09-54.24h54.13V-.11H.09z" style="fill:none"/><path d="m20.75-26.82-2.04 2.04-2.04.51v1.87s.5.85 1.19 1.02c.68.17 3.06.34 3.9-.5.86-.86.86-3.4.86-3.4l-1.87-1.54zM19.98-28.25l-.8-1.4-1.6-.4-1 2.4 1.6.6zM21.63-38.55l-4.6 1.2-.6 4 3 .8 1.4-2.6 2.2-1zM30.05-49.3l-1.43-2.65-3.06.82.62 4.08 4.69 1.22 1.43-2.45zM23.43-22.3l4 1.75s.75-2 0-2.5-1.5-1.25-1.5-1.25l-2.5 2zM21.93-49.87h-2l-1.5.5-.5 1.75 4 1.5zM27.93-26.8l1.5 2.58 2.33-3zM18.76-17.39c.5-1.25-1.25-1.5-2.25-2l-.25 3s2 .25 2.5-1zM40.43-29.55l1.5-1.25-3.5-2 .25 1.75zM35.93-25.3l3.2 2 .4-4.8-4.2-1.2-1.6 1zM32.93-19.8l3-2-2.8-1.8-1.2-.4-1 1.6zM9.43-34.55c.4 2.2 2 3 2 3l2.4 1.6.8-3-5.2-1.6zM2.43-36.8l-2 1.25 2.25 1.75.75 2.5s2.5.25 2.75-1.25-1.75-4-3.75-4.25zM41.18-21.55h3l1.6-1.2-2.6-1.6zM36.68-16.8s1.2 2.2 2 2.2 2.6-1 3-2.4c.4-1.4-1-2.6-1-2.6l-4-.6-2 2.6 2 .8zM27.43-15.14l1.2 2.4s2.8 1.4 3.2-.4c.4-1.8-.4-3.2-.4-3.2l-4.4-1.8-1.4 2.6 1.8.4zM8.66-18.1c1 1.2 4.2 1 4.2 1l-.8-2.4-2.4-3.4c-1.4 1.2-2 3.6-1 4.8zM21.03-19.15l.6 2 .4 3.2 1.4-1.6v-3.2zM25.33-46.13l-2.2 4 4.2 1.8.47 1.15 1.4-2-1.27-2.95zM17.13-39.26l3.36-2.16.24-3.12-6.24-2.4v2.4s.96 1.92 1.68 2.16c.72.24.96 3.12.96 3.12zM12.53-41.7l-1.2 3.2 1.4 2.6 2-.2.6-3.4zM36.93-32.42l-1.4-1.4h-1.6l-1.4-1.2-1.6 3 2 2.4zM2.68-9.32l2.93 1.08 2.07-4.43-1.92-.51-1.38.8-1.81-.34zM36.18-45.17l-2.16-1.68-1.2 3.84 1.68 2.4 1.68-1.44zM17.18-9.6l2 1.8 3.6.2 3.2-1.4-2.4-2.6-2.8-.6-3 .2zM31.93-11.3l2.8 2.2 1.4-2.6-1-2zM42.63-13.15l-2.2-1.2-1 3 1.8 1.8 4 .2-.8-3.2zM50.88-22.65l-2.1-2.4-.6 3-1.8 1.5 3.6 1.8zM12.65-45.33l-2.2-1.6-3.2 1 1.4 1.8v2zM7.68-26.15l3 1.6 3.2-1.2-2.4-3.4-4-1.2-1 1.8zM6.18-41.05l-1.5 2.25.75 1.5h2l1.25-2.75zM.09-45.56l1.34-.24.5 2.25 3-.25 1.25-7-4.25-1-1.84 1.03M9.65-54.24l-1.22 1.69.75 2.75 2-.75 2.25 2.5.75-3.25-2.76-2.94M6.93-54.24v1.19H4.68l1.07-1.19M.09-26.05h1.59l2.75-2.5-4.34-3.43M.09-37.72l1.47-.33v-3.25l-1.47-.86M2.55-23.37l.75 2 2.25-1 .25-3.25-2.25.5zM.09-20.54l2.09 1.49-.5 3.5-1.59-.64M3.68-15.55l3.5-.25-1.5-4.25zM22.8-34.37l-1.25 3 2.75.5 1.25 2.5 4.5-2.75-3.25-4zM50.68-50.55l-3.5-2.25-4.25-.32-1.25 3 4 .82 1.25 2.25zM14.77-54.24l.16.69 6 2 .5-2.25-.29-.44M47.43-6.05l-1.25-2.5-1 1.5.5 2.5zM.09-53.11l3.09-.44-.12-.69M27.6-54.24l-1.17.94-3.5-.5.3-.44M34.56-54.24l.12 1.69-.5 3 3.5 1.25 2.25-3-1.84-2.94M32.43-50.55l-.5-3.5-1.25 1.5zM43.86-46.99l-3.25-1.25-2 1.25-.75 2 1 3 3.75-.75zM36.43-36.8l-1.25-1.75h-2.5l-2-1-1.75 2.5 1.25 1zM44.93-33.8v-2.75l-1.75-1.5 1.25-2.75-6.25 1.5.25 3 2.5 2.25zM4.55-5.18l.75 2 3.75.25 3.25-.75-.5-3-2.75-1.75zM12.68-9.43l.25 2h3.5l-.75-2.25zM20.37-4.96l1.5 2.5 2.75-2.5-2.25-1zM29.68-1.8l3.25-.75 1.25-3.75-2.25-3-4-1.25-1.25 4zM36.18-8.55l2 3.75 3.25-1.5-2.25-2zM49.93-9.55l2.25-5.5-3.5-2-3.75 1 1.75 3.75zM50.93-43.05l-2.25-1.75-3.5.25 2.5 2.75zM9.93-14.05l1.5 3 4.25-1.75-.5-2.25zM49.93-31.3l2.75-3.25-2-2.25-1-2.75-3.5 1.25 1 5.25zM50.18-27.55l-2.5-2.5-3.25-1.25-1.5 2.5 3.75 2.75zM.09-5.24l1.09-.81.25-2.5-1.34.17M42.68-4.05l-2.25 2 3.75 1 4.5-1.5zM54.22-50.77l-2.17 1.22.75 4.25 1.42-.26M54.22-31.98l-.42-.32-1.25 3-.75 3.25h2.42M54.22-42.16l-1.54-.89-1 2.75.75 3 1.79-.42M54.22-20.54l-1.42-1.01.5 5 .92.36M54.22-53.11l-2.17.31-.12-1.44M9.65-.12l.78-1.06.99 1.06M5.75-.12l1.18-1.31v1.31M21.14-.12l-2.71-4.06-4.5.25.84 3.81M.09-2.12l.34-.06 2-1.75.63 3.81M23.23-.12l2.45-3.56 1.5 1 .5 2.5-.08.06M34.56-.12l-.13-1.81 1.75-1.25 1.91 3.06M54.22-2.12l-2.42.44.13 1.56M54.22-8.38l-2.42.33-2.75 3L52.3-3.8l1.92-1.44M6.93-54.24H5.75" style="fill:none;stroke:#000;stroke-width:.3"/><path d="M7.43-48.89h0M7.18-51.68h0M10.68-48.43h0M2.93-52.68h0M13.05-46.43h0M15.93-48.68h0M15.43-51.93h0M18.43-50.93h0M6.55-44.05h0M2.18-42.18h0M4.3-40.68h0M2.93-38.3h0M5.93-35.8h0M12.8-43.05h0M10.3-41.05h0M9.55-37.18h0M11.18-35.43h0M7.8-33.3h0M9.8-31.05h0M5.3-29.8h0M1.68-32.3h0M14.43-27.8h0M16.18-31.3h0M15.05-34.43h0M22.43-52.93h0M23.68-50.05h0M24.18-46.93h0M22.68-44.43h0M21.68-40.8h0M19.05-38.93h0M25.3-39.68h0M25.8-36.3h0M28.8-35.18h0M30.05-33.18h0M29.18-39.18h0M30.93-41.68h0M29.18-44.68h0M31.43-44.55h0M33.3-47.8h0M33.43-52.47h0M36.51-47.72h0M37.09-45.72h0M33.09-39.8h0M37.68-42.05h0M35.93-40.05h0M37.09-37.97h0M39.51-40.72h0M43.34-41.72h0M46.01-41.72h0M45.34-39.3h0M34.34-35.14h0M37.18-35.05h0M39.51-33.55h0M42.34-32.39h0M36.43-30.39h0M38.68-29.55h0M40.93-28.39h0M40.84-25.72h0M43.93-25.89h0M46.51-24.14h0M50.09-25.89h0M52.55-23.55h0M48.51-30.72h0M50.84-29.22h0M48.26-40.47h0M50.84-41.72h0M51.09-38.8h0M53.01-35.97h0M52.59-32.3h0M51.51-20.14h0M51.51-17.22h0M47.76-18.22h0M45.34-20.89h0M45.26-18.39h0M42.59-19.89h0M40.76-23.47h0M37.93-21.89h0M40.01-20.64h0M35.34-20.14h0M43.09-17.3h0M41.43-15.22h0M44.01-14.72h0M45.51-12.72h0M46.76-10.05h0M52.68-12.22h0M52.26-9.72h0M49.34-7.89h0M44.09-8.05h0M41.26-8.05h0M39.09-9.89h0M36.43-9.64h0M37.93-12.72h0M36.43-14.97h0M33.68-14.22h0M33.51-17.14h0M32.09-18.72h0M30.26-17.89h0M43.01-5.89h0M48.05-4.18h0M52.68-2.8h0M49.05-1.3h0M40.93-4.3h0M37.43-3.93h0M34.84-7.05h0M34.84-3.72h0M33.01-9.47h0M29.68-11.05h0M32.93-1.14h0M28.26-2.39h0M26.34-4.72h0M25.01-6.89h0M26.43-10.97h0M26.51-13.72h0M24.59-15.55h0M24.09-12.55h0M16.84-12.22h0M13.84-10.64h0M17.59-7.64h0M21.34-6.39h0M19.26-4.89h0M23.76-2.72h0M21.51-.97h0M15.34-6.39h0M13.43-4.72h0M11.51-8.14h0M12.59-1.47h0M9.43-2.05h0M4.55-2.43h0M1.43-4.39h0M3.09-6.97h0M6.68-7.72h0M38.93-1.43h0M45.55-54.05h0M50.18-52.68h0M53.55-51.55h0M45.76-32.22h0M39.84-48.97h0M40.34-53.05h0M43.51-48.55h0M45.68-46.39h0M50.3-45.93h0M50.43-47.97h0M52.93-44.18h0M30.93-50.43h0M28.8-53.43h0M21.43-34.05h0M20.05-31.18h0M23.18-29.55h0M21.18-27.8h0M23.93-26.3h0M16.8-25.55h0M14.05-24.18h0M5.18-26.68h0M1.68-24.43h0M1.8-21.05h0M3.8-19.3h0M7.05-20.55h0M7.55-23.68h0M11.93-21.93h0M15.43-21.68h0M14.05-19.43h0M14.55-16.43h0M7.93-17.3h0M10.43-15.18h0M7.43-14.05h0M3.55-13.8h0M.8-14.3h0M1.05-10.3h0M9.05-10.3h0M18.55-19.93h0M22.55-20.3h0M20.05-17.3h0M20.18-13.43h0M17.43-14.8h0M26.93-25.8h0M28.8-28.55h0M28.8-23.05h0M33.18-25.18h0M35.55-23.68h0M30.55-20.05h0M27.68-19.18h0M25.18-18.68h0M31.93-28.68h0M23.55-37.8h0" style="fill:none;stroke:#000;stroke-width:.7;stroke-linecap:round"/></svg>