<svg xmlns="http://www.w3.org/2000/svg" xml:space="preserve" width="54" height="54" viewBox="1.94 -56.08 54 54"><path d="M1.94-56.08h54v54h-54z" style="fill:none"/><path d="M10.55-41.1h0M12.46-40.31h0M12.46-40.31h0M8.64-41.88h0M6.62-42.59h0M10.55-41.1h0M14.31-39.65h0M16.21-39.06h0M18.08-38.5h0M20-37.84h0M21.92-37.27h0M23.75-36.71h0M25.77-36.1h0M27.62-35.59h0M31.55-34.49h0M29.54-35.04h0M33.45-33.99h0M35.41-33.46h0M37.33-33.02h0M39.34-32.46h0M41.23-32.1h0M43.15-31.66h0M45-31.34h0M49.12-30.65h0M47.06-30.96h0M51-30.4h0M53-30.2h0M54.94-30.08h0M2.56-43.52h0M4.62-43.64h0M4.62-43.64h0M2.56-43.52h0M6.55-43.95h0M8.54-44.13h0M10.47-44.44h0M12.53-44.63h0M14.46-44.99h0M16.45-45.37h0M18.44-45.61h0M20.43-46.05h0M24.35-46.66h0M22.3-46.29h0M26.28-47.03h0M28.27-47.41h0M30.19-47.84h0M32.24-48.21h0M34.11-48.71h0M36.03-49.14h0M38.02-49.51h0M41.93-50.5h0M39.94-50.07h0M43.85-51.06h0M45.78-51.55h0M47.7-52.11h0M49.62-52.73h0M53.4-53.91h0M51.48-53.35h0M55.31-54.65h0M3.02-48.4h0M5.03-48.44h0M6.97-48.62h0M9.04-48.66h0M10.99-48.9h0M13-49.13h0M15-49.24h0M17.02-49.53h0M20.97-49.88h0M18.9-49.65h0M22.92-50.12h0M24.93-50.35h0M26.88-50.65h0M28.95-50.88h0M30.84-51.24h0M32.8-51.54h0M34.81-51.78h0M38.77-52.5h0M36.76-52.2h0M40.73-52.92h0M42.68-53.28h0M44.64-53.71h0M46.6-54.19h0M50.45-55.1h0M48.49-54.68h0M52.44-55.64h0M2.71-52.1h0M4.67-52.21h0M6.69-52.31h0M8.7-52.29h0M10.73-52.46h0M14.69-52.55h0M12.61-52.45h0M16.65-52.66h0M18.68-52.76h0M20.64-52.93h0M22.73-53.03h0M24.64-53.27h0M26.6-53.44h0M28.62-53.55h0M32.63-54.01h0M30.6-53.84h0M34.61-54.3h0M36.58-54.54h0M38.56-54.83h0M40.5-55.34h0M42.37-55.71h0M54.51-43.53h0M53.06-48.33h0M55.12-48.22h0M55.12-48.22h0M51-48.43h0M52.31-43.51h0M45.37-44.55h0M53.06-48.33h0M52.73-52.15h0M54.69-52.19h0M44.25-2.4h0M45.93-3.02h0M2.75-3.09h0M4.56-2.96h0M6.56-2.84h0M8.62-2.77h0M10.81-2.77h0M14.91-2.67h0M12.82-2.71h0M16.87-2.65h0M18.9-2.62h0M20.87-2.65h0M22.93-2.71h0M24.71-2.84h0M26.75-2.96h0M28.75-3.02h0M32.81-3.34h0M30.68-3.15h0M34.81-3.52h0M36.68-3.77h0M38.56-3.96h0M40.31-4.15h0M2.68-16.47h0M4.74-16.6h0M4.74-16.6h0M2.68-16.47h0M6.81-16.77h0M8.67-17.09h0M10.6-17.4h0M12.65-17.58h0M14.58-17.95h0M16.57-18.32h0M18.57-18.57h0M20.55-19.01h0M24.48-19.62h0M22.42-19.25h0M26.4-19.99h0M28.39-20.36h0M30.32-20.8h0M32.37-21.17h0M34.23-21.66h0M36.16-22.1h0M38.15-22.47h0M42.06-23.46h0M40.07-23.03h0M43.98-24.02h0M45.9-24.51h0M47.82-25.07h0M49.74-25.69h0M53.52-26.87h0M51.6-26.31h0M55.06-27.45h0M2.94-28.27h0M3-20.84h0M5.06-20.84h0M7.12-20.96h0M9.25-21.09h0M11.18-21.27h0M13.18-21.52h0M15.31-21.71h0M17.18-22.02h0M21.18-22.65h0M19.18-22.27h0M23.06-22.96h0M25.05-23.31h0M27-23.61h0M29.08-23.84h0M30.97-24.2h0M32.92-24.5h0M34.93-24.73h0M38.9-25.45h0M36.89-25.16h0M40.85-25.88h0M42.81-26.24h0M44.76-26.66h0M46.72-27.15h0M50.57-28.06h0M48.62-27.64h0M52.56-28.6h0M2.83-25.06h0M4.79-25.17h0M6.81-25.27h0M8.82-25.25h0M10.85-25.42h0M14.82-25.51h0M12.73-25.41h0M16.78-25.62h0M18.8-25.72h0M20.77-25.89h0M22.85-25.99h0M24.76-26.23h0M26.73-26.4h0M28.75-26.5h0M32.76-26.96h0M30.73-26.8h0M34.73-27.26h0M36.71-27.5h0M38.69-27.79h0M40.67-28.15h0M44.5-29.04h0M42.59-28.52h0M46.5-29.52h0M2.96-29.99h0M4.92-29.98h0M6.95-29.95h0M8.95-29.8h0M10.99-29.83h0M14.95-29.67h0M12.87-29.7h0M16.91-29.65h0M18.94-29.62h0M20.91-29.67h0M23-29.63h0M24.92-29.75h0M26.89-29.79h0M28.92-29.77h0M32.94-29.97h0M30.91-29.93h0M34.94-30.14h0M36.92-30.24h0M38.91-30.41h0M40.92-30.64h0M53.06-48.33h0M55.12-48.22h0M51-48.43h0M48.99-48.69h0M46.5-49.11h0M52.31-43.51h0M50.3-43.7h0M47.8-44.03h0M45.37-44.55h0M45.37-44.55h0M36.5-47.8h0M43.4-45.03h0M40.97-45.71h0M38.63-46.56h0M52.63-25.17h0M54.59-25.21h0M32.94-37.75h0M34.92-37.15h0M34.92-37.15h0M30.96-38.34h0M32.94-37.75h0M36.83-36.78h0M38.77-36.26h0M40.69-35.89h0M42.68-35.35h0M44.62-35.03h0M46.62-34.7h0M48.57-34.24h0M15.89-43.76h0M17.78-42.92h0M17.78-42.92h0M15.89-43.76h0M19.63-42.31h0M21.49-41.56h0M23.34-40.95h0M25.26-40.17h0M27.14-39.62h0M29.08-39.03h0M30.96-38.34h0M50.6-34.02h0M54.51-33.37h0M52.45-33.66h0M41.62-39.06h0M43.61-38.53h0M43.61-38.53h0M39.63-39.59h0M41.62-39.06h0M45.54-38.21h0M47.49-37.76h0M49.42-37.44h0M51.43-36.97h0M53.38-36.71h0M55.27-36.41h0M24.39-44.54h0M26.3-43.77h0M26.3-43.77h0M24.39-44.54h0M28.18-43.21h0M30.06-42.52h0M31.93-41.97h0M33.87-41.25h0M35.77-40.75h0M37.72-40.23h0M39.63-39.59h0M43.51-41.71h0M45.47-41.07h0M45.47-41.07h0M41.55-42.34h0M43.51-41.71h0M47.38-40.66h0M49.31-40.1h0M51.21-39.68h0M53.2-39.11h0M55.13-38.75h0M30.3-46.56h0M32.14-45.77h0M33.98-45.12h0M35.88-44.3h0M37.75-43.7h0M39.68-43.08h0M41.55-42.34h0M32.94-10.75h0M34.92-10.15h0M34.92-10.15h0M30.96-11.34h0M32.94-10.75h0M36.83-9.78h0M38.77-9.26h0M40.69-8.89h0M42.68-8.35h0M44.62-8.04h0M46.62-7.7h0M48.57-7.24h0M15.89-16.76h0M17.78-15.93h0M17.78-15.93h0M15.89-16.76h0M19.63-15.31h0M21.49-14.56h0M23.34-13.95h0M25.26-13.17h0M27.14-12.62h0M29.08-12.04h0M30.96-11.34h0M50.6-7.03h0M54.51-6.37h0M52.45-6.66h0M41.62-12.06h0M43.61-11.53h0M43.61-11.53h0M39.63-12.59h0M41.62-12.06h0M45.54-11.21h0M47.49-10.76h0M49.42-10.44h0M51.43-9.97h0M53.38-9.71h0M55.27-9.41h0M24.39-17.54h0M26.3-16.77h0M26.3-16.77h0M24.39-17.54h0M28.18-16.21h0M30.06-15.52h0M31.93-14.97h0M33.87-14.25h0M35.77-13.75h0M37.72-13.23h0M39.63-12.59h0M43.51-14.71h0M45.47-14.07h0M45.47-14.07h0M41.55-15.34h0M43.51-14.71h0M47.38-13.65h0M49.31-13.1h0M51.21-12.68h0M53.2-12.11h0M55.13-11.75h0M30.3-19.56h0M32.14-18.77h0M33.98-18.11h0M35.88-17.3h0M37.75-16.7h0M39.68-16.08h0M41.55-15.34h0M3.35-9.04h0M5.38-8.89h0M9.18-8.46h0M7.25-8.65h0M3.12-11.37h0M5.06-11.09h0M13.31-8.09h0M11.31-8.28h0M15.37-7.9h0M17.37-7.84h0M19.56-7.71h0M22.25-7.59h0M24.75-7.46h0M27.25-7.4h0M15.62-9.64h0M17.87-9.4h0M21.93-9.28h0M20-9.34h0M13.37-9.84h0M7.06-10.71h0M11.18-10.15h0M9.12-10.4h0M2.52-14.66h0M4.43-13.9h0M6.37-13.34h0M8.18-12.84h0M10.06-12.34h0M14.09-11.49h0M12-11.9h0M2.81-6.27h0M5-6.15h0M7-6.02h0M9.06-5.95h0M10.93-5.71h0M12.93-5.59h0M14.87-5.46h0M18.87-5.34h0M16.81-5.4h0M20.87-5.21h0M22.92-5.22h0M24.91-5.14h0M26.93-5.12h0M30.93-5.21h0M28.89-5.11h0M32.87-5.34h0M34.87-5.53h0M3.35-36.05h0M5.38-35.89h0M9.31-35.35h0M7.24-35.58h0M3.12-38.37h0M5.06-37.87h0M13.35-34.99h0M11.35-35.08h0M15.44-34.89h0M17.62-34.77h0M19.87-34.7h0M22.31-34.83h0M24.44-34.95h0M15.62-36.64h0M17.75-36.58h0M20.06-36.52h0M13.25-36.58h0M7.08-37.61h0M11.06-36.89h0M8.92-37.21h0M2.81-33.27h0M4.94-33.2h0M7-33.02h0M9.06-32.95h0M11.19-32.89h0M13.12-32.83h0M14.91-32.74h0M18.93-32.44h0M16.91-32.66h0M20.93-32.36h0M22.92-32.22h0M24.91-32.14h0M26.93-32.12h0M30.89-32.03h0M28.89-32.11h0M32.94-32.13h0M34.94-32.24h0M4.31-41.02h0M6.31-40.34h0M8.31-39.9h0M10.31-39.46h0M12.31-39.15h0M2.4-41.9h0M52.43-16.52h0M54.56-16.46h0M52.62-20.96h0M54.81-20.84h0M50.62-21.21h0M48.5-21.59h0M46.37-22.02h0M44.12-22.59h0M50.18-16.71h0M47.68-17.02h0M45.5-17.46h0M36.31-20.59h0M43.12-18.15h0M40.75-18.77h0M38.5-19.65h0M54.83-3.27h0M49.51-3.9h0M51.33-3.65h0M53.2-3.46h0M12.76-14.03h0M14.7-13.21h0M16.57-12.4h0M18.32-11.71h0M20.07-11.09h0M22.07-10.34h0M24.14-9.65h0M26.07-9.03h0M27.89-8.46h0M31.82-7.34h0M29.89-7.9h0M33.76-6.9h0M35.58-6.46h0M37.34-5.97h0M39.39-5.59h0M41.26-5.21h0M43.26-4.9h0M45.39-4.46h0M47.45-4.15h0M10.82-14.84h0M8.82-15.78h0" style="fill:none;stroke:#000;stroke-width:.7;stroke-linecap:round"/></svg>