<svg xmlns="http://www.w3.org/2000/svg" xml:space="preserve" width="54.13" height="54.13" viewBox="0 -54.13 54.13 54.13"><path d="M0-54.13h54.13V0H0z" style="fill:none"/><path d="M32.58-3.32H15.19M0-7.06h7.27M23.35-11h19.14M41.38-17.2h12.53M23.55-16.75H8.81M23.34-23.78h17.38M41.78-46.69H24.4M6.92-50.05H0M14.97-25.32H.46M39.62-29.94h14.29M11.46-33.68h15.18M14.25-39.65H.17M32.29-39.87h15.84M44.32-7.06h9.81M47.99-50.05h6.14" style="fill:none;stroke:#000;stroke-width:.3"/><path d="M50.28-41.43h0M45.99-41.1h0M51.38-37.53h0M47.31-37.2h0M48.85-34.23h0M52.48-33.79h0M39.45-42.39h0M43.95-38.22h0M34.28-41.56h0M35.45-38.06h0M28.5-39.51h0M32.58-36.54h0M30.16-30.6h0M27.95-32.91h0M26.52-36.76h0M24.1-40.06h0M21.68-35.77h0M20.48-39.18h0M17.84-36.43h0M15.74-40.28h0M11.78-37.56h0M8.48-40.94h0M5.45-42.06h0M1.95-43.72h0M1.44-35.99h0M5.28-37.56h0M9.04-36.21h0M13.32-35.55h0M7.6-32.58h0M3.31-32.58h0M12.95-43.56h0M1-29.5h0M1.23-26.64h0M6.39-26.42h0M5.4-29.39h0M9.37-28.95h0M12.66-31.04h0M12.99-27.52h0M16.18-30.16h0M16.95-26.31h0M19.78-30.89h0M19.93-25.43h0M23.23-28.51h0M24.21-31.81h0M27.07-29.17h0M24.32-25.43h0M28.73-25.43h0M32.24-27.52h0M34.45-25.21h0M16.3-22.9h0M14.43-19.93h0M12.22-22.9h0M10.9-18.72h0M8.6-21.14h0M6.72-23.78h0M6.62-18.39h0M4.3-21.14h0M1.11-23.01h0M18.61-42.89h0M2.28-19.06h0M53.11-40.22h0M4.95-14.56h0M5.45-45.72h0M3.42-9.37h0M6.39-12.12h0M8.38-9.59h0M10.57-13.44h0M14.97-14.98h0M12.12-9.15h0M15.09-11.57h0M18.6-11.46h0M19.59-14.98h0M23.55-14.43h0M22.13-11.79h0M27.95-13.22h0M.95-15.72h0M1.11-11.56h0M34.28-12.39h0M25.78-43.22h0M38.95-13.39h0M22.45-44.72h0M43.47-15.2h0M44.9-12.34h0M47.98-14.43h0M51.6-16.41h0M52.38-13.55h0M51.95-9.39h0M48.97-11.13h0M45.88-8.38h0M29.95-43.06h0M10.28-48.72h0M9.11-44.89h0M51.72-6.18h0M52.78-3.39h0M50.45-1.39h0M48.52-3.43h0M45.55-1.23h0M45.55-4.97h0M42.03-7.39h0M19.78-53.06h0M40.72-1.56h0M16.11-46.72h0M39.4-8.93h0M39.11-4.89h0M19.95-47.89h0M22.78-50.89h0M17.45-51.22h0M13.78-50.22h0M10.28-52.39h0M6.78-48.22h0M2.11-47.72h0M2.11-52.39h0M5.45-53.39h0M27.45-50.72h0M32.28-48.22h0M32.11-52.06h0M25.61-53.39h0M36.28-50.39h0M37.78-45.72h0M40.78-49.22h0M42.11-44.89h0M45.11-47.72h0M43.11-52.72h0M38.28-53.22h0M47.61-51.06h0M47.28-44.39h0M49.78-48.06h0M52.11-44.22h0M52.78-51.56h0M49.78-53.06h0M37.28-2.72h0M35.44-7.5h0M32.58-9.37h0M32.8-5.52h0M34.34-1.23h0M29.6-6.95h0M28.07-10.03h0M24.88-7.94h0M26.64-4.53h0M22.13-5.74h0M18.82-8.16h0M17.39-4.53h0M15.19-7.61h0M19.15-2h0M23.66-1.01h0M29.6-2h0M14.21-1.12h0M12.99-4.75h0M9.26-5.74h0M9.37-1.12h0M6.62-3.65h0M2.21-5.3h0M2.77-1.67h0M39.11-34.72h0M40.45-37.56h0M44.45-34.89h0M51.16-31.15h0M46.44-31.59h0M42.03-32.14h0M38.08-32.03h0M34.12-30.82h0M32.69-33.35h0M36.76-28.29h0M39.4-25.76h0M42.8-27.41h0M42.8-24h0M46.22-24.55h0M46.98-27.74h0M49.52-25.87h0M52.38-27.96h0M51.83-24.22h0M52.38-20.48h0M49.84-19.27h0M25.45-48.22h0M48.28-22.06h0M45.61-19.72h0M34.11-44.72h0M41.38-20.48h0M38.3-21.58h0M38.95-18.06h0M35.33-17.29h0M34.66-20.48h0M30.93-20.48h0M31.45-15.22h0M27.18-21.25h0M28.07-17.07h0M24.98-18.17h0M22.79-20.92h0M20.59-17.73h0M17.07-18.5h0M19.15-21.69h0" style="fill:none;stroke:#000;stroke-width:.7;stroke-linecap:round"/><path d="M0-54.13h54.13V0H0z" style="fill:none"/></svg>