<svg xmlns="http://www.w3.org/2000/svg" xml:space="preserve" width="54.13" height="54.13" viewBox="0.02 -54.13 54.13 54.13"><path d="M.02-54.13h54.13V0H.02z" style="fill:none"/><path d="M50.31-41.43h0M46.02-41.1h0M51.41-37.53h0M47.34-37.2h0M48.88-34.23h0M52.51-33.79h0M39.47-42.39h0M43.97-38.22h0M34.31-41.56h0M35.47-38.06h0M28.53-39.51h0M32.6-36.54h0M30.18-30.6h0M10.98-33.33h0M26.98-36h0M24.13-40.06h0M21.71-35.77h0M20.5-39.18h0M15.81-36.17h0M15.77-40.28h0M11.81-37.56h0M8.51-40.94h0M12.69-42h0M1.52-42.33h0M1.47-35.99h0M5.31-37.56h0M9.06-36.21h0M7.63-32.58h0M3.34-32.58h0M13.02-45.67h0M1.03-29.5h0M1.25-26.64h0M6.42-26.42h0M5.43-29.39h0M9.39-28.95h0M12.69-31.04h0M13.02-27.52h0M16.21-30.16h0M16.98-26.31h0M19.81-30.89h0M19.95-25.43h0M23.25-28.51h0M25.48-32h0M27.1-29.17h0M24.35-25.43h0M28.75-25.43h0M32.27-27.52h0M34.47-25.21h0M16.32-22.9h0M14.45-19.93h0M12.25-22.9h0M35.98-14.83h0M8.62-21.14h0M6.75-23.78h0M6.64-18.39h0M4.33-21.14h0M1.14-23.01h0M18.64-42.89h0M2.31-19.06h0M53.14-40.22h0M4.97-14.56h0M5.47-45.72h0M3.45-9.37h0M6.42-12.12h0M8.4-9.59h0M10.6-13.44h0M15-14.98h0M12.14-9.15h0M15.11-11.57h0M18.63-11.46h0M19.62-14.98h0M23.58-14.43h0M22.15-11.79h0M29.15-12.67h0M.97-15.72h0M1.14-11.56h0M34.31-12.39h0M25.81-43.22h0M38.97-13.39h0M22.47-44.72h0M43.49-15.2h0M44.92-12.34h0M48-14.43h0M51.63-16.41h0M52.4-13.55h0M50.36-9.33h0M48.99-11.13h0M45.91-8.38h0M29.97-43.06h0M10.31-48.72h0M9.14-44.89h0M51.74-6.18h0M52.81-3.39h0M50.47-1.39h0M48.55-3.43h0M45.58-1.23h0M45.58-4.97h0M42.06-7.39h0M19.81-53.06h0M40.74-1.56h0M16.14-46.72h0M39.42-8.93h0M39.14-4.89h0M19.97-47.89h0M22.81-50.89h0M17.47-51.22h0M13.81-50.22h0M10.31-52.39h0M6.81-48.22h0M2.14-47.72h0M2.14-52.39h0M5.47-53.39h0M29.82-50h0M32.31-48.22h0M32.14-52.06h0M25.64-53.39h0M36.31-50.39h0M37.81-45.72h0M40.81-49.22h0M42.14-44.89h0M45.14-47.72h0M43.14-52.72h0M38.31-53.22h0M45.81-50.83h0M47.31-44.39h0M49.81-48.06h0M52.14-44.22h0M52.81-51.56h0M46.65-53h0M37.31-2.72h0M35.46-7.5h0M32.6-9.37h0M32.82-5.52h0M34.36-1.23h0M29.63-6.95h0M28.09-10.03h0M24.9-7.94h0M26.66-4.53h0M22.15-5.74h0M18.85-8.16h0M15.22-7.61h0M19.18-2h0M23.69-1.01h0M29.63-2h0M14.23-1.12h0M13.02-4.75h0M9.28-5.74h0M9.39-1.12h0M6.64-3.65h0M2.24-5.3h0M2.79-1.67h0M39.14-34.72h0M40.47-37.56h0M44.48-34.89h0M51.19-31.15h0M46.46-31.59h0M38.1-32.03h0M34.14-30.82h0M32.71-33.35h0M36.78-28.29h0M39.42-25.76h0M42.83-27.41h0M42.83-24h0M46.24-24.55h0M47.01-27.74h0M49.54-25.87h0M52.4-27.96h0M51.85-24.22h0M52.4-20.48h0M48.15-19h0M25.47-48.22h0M48.31-22.06h0M34.14-44.72h0M41.4-20.48h0M38.32-21.58h0M38.98-18.06h0M35.35-17.29h0M34.69-20.48h0M30.95-20.48h0M31.47-15.22h0M27.21-21.25h0M28.09-17.07h0M25.01-18.17h0M22.81-20.92h0M20.61-17.73h0M17.09-18.5h0M19.18-21.69h0" style="fill:none;stroke:#000;stroke-width:.7;stroke-linecap:round"/><path d="M15.22-3.32H32.6M10.56-7.5H.02M42.51-11H23.37M41.4-17.2h12.54M23.58-16.76H8.84M23.36-23.78h17.38M19.22-46.6H36.6M0-50.05h6.95M15-25.32H.48M39.64-29.94h14.3M30.7-33.82H15.52M14.28-39.65H.2M32.32-39.87h15.84M54.14-7.5h-6.53M48.01-50.05h6.15M50.38-49.92l1.67-2.47M35.88-39.87l1.67-2.47M2.86-39.66l1.67-2.47M18.55-33.88l1.66-2.47M42.69-30.02l1.67-2.47M26.5-23.81l1.67-2.47M3.38-25.26l1.67-2.47M45.02-17.1l1.67-2.47M12.04-16.89l1.67-2.46M26.86-11.11l1.67-2.47M51.14-7.35l1.67-2.47M18.36-3.36l1.67-2.47M22.15-46.49l1.67-2.47" style="fill:none;stroke:#000;stroke-width:.3"/></svg>