<svg xmlns="http://www.w3.org/2000/svg" xml:space="preserve" width="53.58" height="53.58" viewBox="0 -53.58 53.58 53.58"><path d="M0-53.58h53.58V0H0z" style="fill:none"/><path d="M3.78-52.21H0M15.27-52.21h6.37M24.19-52.21h6.37M48.39-52.21h-6.37M50.94-52.21h2.64M8.11-49.07H1.74M17.02-49.07h-6.37M34.86-49.07h-6.37M37.41-49.07h6.36M4.35-46.1H0M15.85-46.1h6.37M24.76-46.1h6.37M42.6-46.1h6.37M51.51-46.1h2.07M7.31-43.3H.94M16.23-43.3H9.86M34.06-43.3h-6.37M36.61-43.3h6.37M1.71-40.33H0M13.2-40.33h6.37M22.12-40.33h6.37M39.95-40.33h6.37M48.87-40.33h4.71M2.97-37.32H0M5.52-37.32h6.37M23.35-37.32h6.37M32.27-37.32h6.37M50.1-37.32h3.48M2.18-34.44H0M20.05-34.44h-6.37M22.6-34.44h6.37M40.43-34.44h6.37M49.35-34.44h4.23M6.67-31.24H.31M15.59-31.24H9.22M27.06-31.24h6.36M35.97-31.24h6.37M3.46-28.27H0M21.32-28.27h-6.36M23.87-28.27h6.37M41.7-28.27h6.37M50.62-28.27h2.96M7.95-25.14H1.58M10.5-25.14h6.36M34.7-25.14h-6.37M37.25-25.14h6.37M16.71-22.33h-6.37M25.62-22.33h-6.37M43.46-22.33h-6.37M46-22.33h6.37M6.83-19.2H.47M9.38-19.2h6.37M27.21-19.2h6.37M36.13-19.2h6.37M2.18-16.23H0M13.68-16.23h6.37M22.6-16.23h6.37M46.8-16.23h-6.37M49.35-16.23h4.23M0-13.26h2.01M10.93-13.26H4.56M22.39-13.26h6.37M37.68-13.26h-6.37M49.14-13.26h4.44M3.14-10.46H0M14.64-10.46H21M23.55-10.46h6.37M41.39-10.46h6.37M50.3-10.46h3.28M8.27-7.33H1.9M17.18-7.33h-6.37M35.02-7.33h-6.37M43.93-7.33h-6.37M6.83-4.36H.46M24.7-4.36h-6.37M33.61-4.36h-6.37M51.45-4.36h-6.37M8.59-1.39H2.22M17.5-1.39h-6.37M35.34-1.39h-6.37M44.25-1.39h-6.37M9.45-52.83c-3.14.11-4.72 1.54.12 1.43 4.84-.1 3.51-1.54-.12-1.43zM36.27-52.83c-3.14.11-4.72 1.54.12 1.43 4.84-.1 3.51-1.54-.12-1.43zM22.79-49.7c-3.15.1-4.72 1.53.12 1.42 4.84-.1 3.5-1.54-.13-1.43zM49.6-49.7c-3.14.1-4.71 1.53.13 1.42 4.84-.1 3.5-1.54-.12-1.43zM10.27-45.38c4.84-.11 3.51-1.54-.12-1.43-3.14.1-4.72 1.54.12 1.43zM36.98-46.81c-3.15.1-4.72 1.54.12 1.43 4.84-.11 3.5-1.54-.13-1.43zM21.94-44.2c-3.15.1-4.72 1.53.12 1.42 4.84-.1 3.51-1.54-.12-1.43zM48.88-42.78c4.84-.1 3.51-1.54-.12-1.43-3.14.11-4.71 1.54.13 1.43zM7.44-41.2c-3.15.1-4.72 1.53.12 1.42 4.84-.1 3.51-1.54-.12-1.43zM34.26-41.2c-3.14.1-4.71 1.53.13 1.42 4.84-.1 3.5-1.54-.13-1.43zM17.5-38.04c-3.14.1-4.71 1.54.13 1.43 4.84-.11 3.5-1.54-.12-1.43zM44.33-38.04c-3.15.1-4.72 1.54.12 1.43 4.84-.11 3.5-1.54-.12-1.43zM7.9-33.78c4.84-.1 3.5-1.54-.13-1.43-3.14.11-4.71 1.54.13 1.43zM34.72-33.78c4.84-.1 3.5-1.54-.12-1.43-3.15.11-4.72 1.54.12 1.43zM21.1-32.04c-3.14.1-4.71 1.54.13 1.43 4.84-.11 3.5-1.54-.12-1.43zM47.93-32.04c-3.15.1-4.72 1.54.12 1.43 4.84-.11 3.51-1.54-.12-1.43zM9.4-27.61c4.84-.11 3.5-1.54-.12-1.43-3.15.1-4.72 1.54.12 1.43zM36.1-29.04c-3.15.1-4.72 1.54.12 1.43 4.84-.11 3.5-1.54-.12-1.43zM22.27-26.04c-3.14.1-4.71 1.54.13 1.43 4.84-.11 3.5-1.54-.13-1.43zM49.1-26.04c-3.15.1-4.72 1.54.12 1.43 4.84-.11 3.5-1.54-.12-1.43zM4.8-23.04c-3.14.1-4.72 1.54.12 1.43 4.84-.11 3.51-1.54-.12-1.43zM31.75-21.61c4.84-.11 3.5-1.54-.13-1.43-3.14.1-4.71 1.54.13 1.43zM21.73-18.44c4.84-.11 3.5-1.54-.12-1.43-3.15.1-4.72 1.54.12 1.43zM48.55-18.44c4.84-.11 3.51-1.54-.12-1.43-3.15.1-4.72 1.54.12 1.43zM7.94-16.87c-3.15.1-4.72 1.54.12 1.43 4.84-.11 3.51-1.54-.12-1.43zM34.76-16.87c-3.14.1-4.71 1.54.13 1.43 4.84-.11 3.5-1.54-.13-1.43zM16.7-12.61c4.84-.11 3.51-1.54-.12-1.43-3.14.1-4.72 1.54.12 1.43zM43.52-12.61c4.85-.11 3.51-1.54-.12-1.43-3.14.1-4.71 1.54.13 1.43zM9.11-9.73c4.84-.1 3.51-1.54-.12-1.43-3.15.11-4.72 1.54.12 1.43zM35.94-9.73c4.84-.1 3.5-1.54-.13-1.43-3.14.11-4.72 1.54.13 1.43zM22.73-6.61c4.84-.11 3.5-1.54-.12-1.43-3.15.1-4.72 1.54.12 1.43zM49.43-8.04c-3.15.1-4.72 1.54.12 1.43 4.84-.11 3.51-1.54-.12-1.43zM12.66-3.61c4.84-.11 3.5-1.54-.12-1.43-3.15.1-4.72 1.54.12 1.43zM39.48-3.61c4.84-.11 3.51-1.54-.12-1.43-3.14.1-4.72 1.54.12 1.43zM50.06-.52c4.84-.11 3.5-1.54-.12-1.43-3.15.1-4.72 1.54.12 1.43zM23.23-.56c4.84-.11 3.5-1.54-.12-1.43-3.15.1-4.72 1.54.12 1.43z" style="fill:none;stroke:#000;stroke-width:.3"/></svg>