<svg xmlns="http://www.w3.org/2000/svg" xml:space="preserve" width="54.13" height="54.13" viewBox="0 -54.13 54.13 54.13"><path d="M0-54.13h54.13V0H0z" style="fill:none"/><path d="M54.13-43.74H0M54.13-42.15H0M54.13-40.56H0M54.13-38.97H0M54.13-37.38H0M54.13-35.78H0M54.13-34.19H0M54.13-32.6H0M54.13-31.01H0M54.13-29.42H0M54.13-27.83H0M0-53.28h54.13M54.13-51.69H0M54.13-50.1H0M54.13-48.51H0M54.13-46.92H0M54.13-45.33H0M54.13-26.24H0M54.13-24.65H0M54.13-23.06H0M54.13-21.47H0M54.13-19.88H0M54.13-18.29H0M54.13-16.7H0M54.13-15.11H0M54.13-13.52H0M54.13-11.93H0M54.13-10.34H0M54.13-8.74H0M54.13-7.16H0M54.13-5.56H0M54.13-3.97H0M54.13-2.38H0M54.13-.79H0" style="fill:none;stroke:#000;stroke-width:.3"/></svg>