<svg xmlns="http://www.w3.org/2000/svg" xml:space="preserve" width="54.13" height="54.13" viewBox="0 -55.98 54.13 54.13"><path d="M0-55.98h54.13v54.13H0z" style="fill:none"/><path d="M0-44.6h54.13M54.13-2H0M0-55.97h54.13" style="fill:none;stroke:#000;stroke-width:4"/><path d="M54.13-11.67H0" style="fill:none;stroke:#000;stroke-width:4.5"/><path d="M54.13-19.17H0M54.13-26.11H0" style="fill:none;stroke:#000;stroke-width:2"/><path d="M54.13-31.11H0" style="fill:none;stroke:#000;stroke-width:.8"/><path d="M54.13-35.61H0M0-51.22h54.13M54.13-38.61H0M54.13-22.36H0" style="fill:none;stroke:#000;stroke-width:.7"/><path d="M54.13-6.99H0M54.13-16.73H0M0-15.73h54.13M54.13-23.61H0M54.13-28.73H0M54.13-36.48H0" style="fill:none;stroke:#000;stroke-width:.4"/><path d="M0-40.73h54.13M0-39.73h54.13M0-53.05h54.13M54.13-33.36H0M54.13-32.23H0M54.13-6.05H0M54.13-29.98H0M54.13-21.11H0M54.13-14.73H0M54.13-8.61H0M54.13-24.36H0" style="fill:none;stroke:#000;stroke-width:.3"/><path d="M0-47.7h54.13" style="fill:none;stroke:#000;stroke-width:.7"/><path d="M0-48.95h54.13" style="fill:none;stroke:#000;stroke-width:.4"/><path d="M0-50.09h54.13" style="fill:none;stroke:#000;stroke-width:.3"/></svg>