<svg xmlns="http://www.w3.org/2000/svg" xml:space="preserve" width="54.13" height="54.13" viewBox="2.2 -55.73 54.13 54.13"><path d="M2.2-55.73h54.13V-1.6H2.2z" style="fill:none"/><path d="M2.2-51.98h54.13M2.2-47.8h54.13M2.2-43.61h54.13M2.2-14h54.19M2.2-10.22h54.13M2.2-39.59h54.13M2.2-36.31h54.13M2.2-32.89h54.13M2.2-28.84h54.13M2.2-25.04h54.13M2.2-20.84h54.19M2.2-17.61h54.13M2.2-2.44h54.13M8.13-55.73v3.75M20.88-55.73v3.75M34.38-55.73v3.75M48.75-55.73v3.75M8.13-2.45v.85M20.88-2.45v.85M34.38-2.45v.85M48.75-2.45v.85M14.8-52.04v4.23M29.68-52.04v4.23M43.3-52.04v4.23M56.13-52.04v4.23M9.24-47.67v4.04M22.49-47.67v4.04M36.05-47.67v4.04M50.99-47.67v4.04M42.36-43.63v4M28.99-43.63v4M14.11-43.63v4M55.61-43.63v4M48.75-39.63v3.3M34.13-39.63v3.3M20.88-39.63v3.3M8.13-39.63v3.3M14.68-36.33v3.43M29.68-36.33v3.43M43.42-36.33v3.43M56.17-36.33v3.43M8.86-32.9v4.05M22.36-32.9v4.05M35.99-32.9v4.05M50.86-32.9v4.05M42.24-28.79v3.74M28.91-28.79v3.74M13.91-28.79v3.74M55.47-28.79v3.74M7.72-24.99v4.14M20.73-24.99v4.14M34.35-24.99v4.14M48.6-24.99v4.14M44.4-20.79v3.16M30.25-20.79v3.16M15.13-20.79v3.16M2.71-20.79v3.16M9.08-17.56V-14M22.33-17.56V-14M35.96-17.56V-14M50.83-17.56V-14M42.48-13.95v3.76M28.61-13.95v3.76M14.06-13.95v3.76M55.93-13.95v3.76M2.2-5.81h54.13M12.5-5.84v3.46M26.93-5.84v3.46M40.56-5.84v3.46M53.93-5.84v3.46M6.77-10.19v4.35M19.77-10.19v4.35M33.77-10.19v4.35M48.33-10.19v4.35M13.26-46.44l-1.87 1.63M16.57-44.75l-1.12-1.75M21.14-46.31l-2.38 1.5M40.45-46.44l-1.87 1.63M43.76-44.75l-1.12-1.75M48.83-46.31l-2.38 1.5M46.08-42.31l-1.88 1.62M49.39-40.63l-1.13-1.75M53.95-42.19l-2.37 1.5M18.7-42.44l-1.88 1.63M22.01-40.75l-1.12-1.75M26.57-42.31l-2.37 1.5M24.57-38.81l-1.87 1.62M27.89-37.13l-1.13-1.75M32.45-38.69l-2.38 1.5M10.39-8.75 8.51-7.13M13.7-7.06l-1.13-1.75M18.26-8.63l-2.37 1.5M16.82-4.81l-1.87 1.62M20.14-3.13l-1.13-1.75M24.7-4.69l-2.38 1.5M44.08-5 42.2-3.38M47.39-3.31l-1.13-1.75M51.95-4.88l-2.37 1.5M38.2-8.63 36.33-7M41.51-6.94l-1.12-1.75M46.08-8.5 43.7-7M32.83-12.88l-1.88 1.63M36.14-11.19l-1.13-1.75M40.7-12.75l-2.37 1.5M5.08-13 3.2-11.38M7.89-11.31l-1.13-1.75M12.45-12.88l-2.38 1.5M12.89-16.44l-1.88 1.63M16.2-14.75l-1.13-1.75M20.76-16.31l-2.37 1.5M40.26-16.63 38.39-15M43.58-14.94l-1.13-1.75M48.14-16.5 45.76-15M48.08-20.06l-1.88 1.62M51.04-18.38l-1.13-1.75M55-19.94l-2.37 1.5M19.95-19.94l-1.88 1.63M23.26-18.25 22.14-20M27.82-19.81l-2.37 1.5M24.7-23.69l-1.88 1.63M28.01-22l-1.12-1.75M32.58-23.56l-2.38 1.5M32.7-27.81l-1.88 1.62M36.01-26.13l-1.12-1.75M40.58-27.69l-2.38 1.5M4.58-27.69 2.7-26.06M7.89-26l-1.13-1.75M12.45-27.56l-2.38 1.5M7.45-31.56l-1.5 1.71M5.83-23.69l-2.38 1.5M19.07-35.31l-1.87 1.62M22.39-33.63l-1.13-1.75M26.95-35.19l-2.38 1.5M25.95-31.69l-1.88 1.63M29.26-30l-1.12-1.75M33.83-31.56l-2.38 1.5M46.7-35.44l-1.87 1.63M50.01-33.75l-1.12-1.75M54.58-35.31l-2.38 1.5M5.83-38.56l-2.38 1.5M19.2-50.69l-1.88 1.63M22.51-49l-1.12-1.75M27.07-50.56l-2.37 1.5M46.7-50.56l-1.87 1.62M50.01-48.88l-1.12-1.75M54.58-50.44l-2.38 1.5M24.89-54.86l-1.88 1.63M28.2-53.17l-1.13-1.75M32.76-54.73l-2.37 1.5M52.51-54.8l-1.87 1.63M55.83-53.11l-1.13-1.75M6.39-54.73l-2.38 1.5M54.33-44.69l-1.88-1.62M3.64-46.38l-1.13 1.75M7.45-44.81l-2.37-1.5M26.01-44.69l-1.87-1.62M29.76-46.31l-1.12 1.75M34.26-44.75l-2.37-1.5M5.06-40.75l-1.88-1.63M7.87-42.44l-1.12 1.75M12.43-40.88l-2.37-1.5M32.76-40.75l-1.87-1.63M36.08-42.44l-1.13 1.75M40.64-40.88l-2.38-1.5M38.33-37.06l-1.88-1.63M41.64-38.75 40.51-37M46.2-37.19l-2.37-1.5M33.7-33.69l-1.88-1.62M37.01-35.38l-1.12 1.75M41.58-33.81l-2.38-1.5M11.45-37l-1.88-1.63M14.76-38.69l-1.12 1.75M19.32-37.13l-2.37-1.5M5.66-33.75l-1.87-1.63M8.32-35.44 7.2-33.69M12.89-33.88l-2.38-1.5M12.45-29.81l-1.88-1.63M15.76-31.5l-1.12 1.75M20.32-29.94l-2.37-1.5M18.2-26.13l-1.88-1.62M21.51-27.81l-1.12 1.75M26.07-26.25l-2.37-1.5M11.07-22.13 9.2-23.75M14.39-23.81l-1.13 1.75M18.95-22.25l-2.38-1.5M6.4-18.38 4.53-20M9.58-20.06l-1.12 1.75M13.57-18.5 11.2-20M38.45-22l-1.87-1.63M41.76-23.69l-1.12 1.75M46.33-22.13l-2.38-1.5M45.64-26l-1.88-1.63M48.95-27.69l-1.12 1.75M53.51-26.13l-2.37-1.5M40.64-29.81l-1.88-1.63M43.95-31.5l-1.12 1.75M48.51-29.94l-2.37-1.5M34.39-18.31l-1.88-1.63M37.7-20l-1.12 1.75M42.26-18.44l-2.37-1.5M25.95-14.81l-1.88-1.63M29.26-16.5l-1.12 1.75M33.83-14.94l-2.38-1.5M3.08-16.63l-1.13 1.75M7.64-15.06l-2.38-1.5M18.01-11.19l-1.87-1.62M21.32-12.88l-1.12 1.75M25.89-11.31l-2.38-1.5M46.26-11.19l-1.87-1.62M49.58-12.88l-1.13 1.75M54.14-11.31l-2.38-1.5M23.57-7.06 21.7-8.69M26.89-8.75 25.76-7M31.45-7.19l-2.38-1.5M30.7-3.13l-1.88-1.62M34.01-4.81l-1.12 1.75M38.58-3.25l-2.38-1.5M3.48-3.19 1.6-4.81M6.79-4.88 5.66-3.13M11.1-3.31l-2.38-1.5M4.89-7.25l-2.38-1.5M38.45-52.98l-1.87-1.63M41.76-54.67l-1.12 1.75M46.33-53.11l-2.38-1.5M11.51-53.23l-1.87-1.63M14.82-54.92l-1.12 1.75M19.39-53.36l-2.38-1.5M5.56-48.88 3.69-50.5M8.32-50.56 7.2-48.81M12.89-49l-2.38-1.5M33.26-48.94l-1.87-1.62M36.58-50.63l-1.13 1.75M41.14-49.06l-2.38-1.5M55.08-31.56l-1.88 1.62M4.01-29.88l-1.12-1.75M52.08-23.81l-1.88 1.62M55.39-22.13l-1.13-1.75M52.08-38.69l-1.88 1.63M55.39-37l-1.13-1.75M53.89-14.94l-1.88-1.62M57.2-16.63l-1.12 1.75M57.6-3.19l-1.87-1.62M51.14-7.13l-1.88-1.62M54.45-8.81l-1.12 1.75" style="fill:none;stroke:#000;stroke-width:.3"/></svg>