<svg xmlns="http://www.w3.org/2000/svg" xml:space="preserve" width="54.13" height="54.13" viewBox="0.13 -54.13 54.13 54.13"><path d="M.13-54.13h54.13V0H.13z" style="fill:none"/><path d="M12.73-50.38h6.07M41.23-50.38H32.3M54.05-50.38h-7.37M41.23-50.38h5.45M12.73-50.38H6.05M54.05-50.38h.21M27.61-50.38h4.69M27.61-50.38H18.8M.13-50.38h5.92M54.26-46.2H.13M40.29-42.01h13.25M12.04-42.01H.13M40.29-42.01H26.92M26.92-42.01H12.04M54.26-42.01h-.72M33.89-12.4h14.87M7.01-12.4h13.25M20.26-12.4h13.63M48.76-12.4h5.5M54.26-12.4h.06M7.01-12.4H.13M53.86-8.63h.4M26.54-8.63h13.87M11.99-8.63h14.55M40.41-8.63h13.45M11.99-8.63H.13M46.68-37.99h7.58M18.8-37.99H6.05M32.05-37.99H18.8M32.05-37.99h14.63M6.05-37.99H.13M12.61-34.71h15M41.36-34.71H27.61M54.11-34.71h.15M12.61-34.71H.13M41.36-34.71h12.75M48.79-31.29h5.47M20.29-31.29H6.79M33.92-31.29H20.29M48.79-31.29H33.92M6.79-31.29H.13M.13-27.24h54.13M.13-23.44h54.13M54.26-19.24h.06M54.26-19.24H.13M.13-16.01h54.13M.13-.84h5.92M38.49-.84H32.3M38.49-.84h8.19M24.86-.84h7.44M51.86-.84h-5.18M10.43-.84h8.37M10.43-.84H6.05M24.86-.84H18.8M51.86-.84h2.4M6.05-54.13v3.75M18.8-54.13v3.75M32.3-54.13v3.75M46.68-54.13v3.75M6.05 0v-.84M6.05-.85v.01M18.8-.85v.01M18.8 0v-.84M32.3-.85v.01M32.3 0v-.84M46.68-.85v.01M46.68 0v-.84M12.73-50.38v-.06M12.73-50.38v4.17M27.61-50.38v4.17M27.61-50.38v-.06M41.23-50.38v4.17M41.23-50.38v-.06M54.05-50.38v-.06M54.05-50.38v4.17M7.17-42.02v-4.06M20.42-42.02v-4.06M33.98-42.02v-4.06M48.92-42.02v-4.06M40.29-42.01v3.99M40.29-42.01v-.01M26.92-42.01v-.01M26.92-42.01v3.99M12.04-42.01v-.01M12.04-42.01v3.99M53.54-42.02v.01M53.54-38.02v-3.99M46.68-37.99v-.03M46.68-37.99v3.26M32.05-37.99v-.03M32.05-37.99v3.26M18.8-37.99v-.03M18.8-37.99v3.26M6.05-37.99v-.03M6.05-37.99v3.26M12.61-34.71v-.02M12.61-34.71v3.41M27.61-34.71v3.41M27.61-34.71v-.02M41.36-34.71v-.02M41.36-34.71v3.41M54.11-34.71v-.02M54.11-34.71v3.41M6.79-31.3v.01M6.79-31.29v4.04M20.29-31.3v.01M20.29-31.29v4.04M33.92-31.29v4.04M33.92-31.3v.01M48.79-31.29v4.04M48.79-31.29v-.01M40.17-27.19v3.74M26.84-27.19v3.74M11.84-27.19v3.74M53.4-23.45v-3.74M5.66-23.39v4.14M18.66-23.39v4.14M32.28-23.39v4.14M46.53-23.39v4.14M42.33-19.19v3.17M28.18-19.19v3.17M13.05-19.19v3.17M.64-19.19v3.17M7.01-12.4v-3.56M20.26-12.4v-3.56M33.89-12.4v-3.56M48.76-12.4v-3.56M40.41-8.63v.04M40.41-8.63v-3.72M26.54-8.63v-3.72M26.54-8.63v.04M11.99-8.63v-3.72M11.99-8.63v.04M53.86-8.63v.04M53.86-8.63v-3.72M.13-4.21h10.3M51.86-4.21h2.4M38.49-4.21h13.37M38.49-4.21H24.86M10.43-4.21h14.43M10.43-4.21v-.03M10.43-4.21v3.37M10.43-.84v.06M24.86-4.21v3.37M24.86-4.21v-.03M24.86-.84v.06M38.49-.84v-3.37M38.49-.84v.06M38.49-4.21v-.03M51.86-.84v.06M51.86-4.21v-.03M51.86-4.21v3.37M4.7-8.59v4.35M17.7-8.59v4.35M31.7-8.59v4.35M46.26-8.59v4.35M22.06-6.97c1.13 2.48 3.82 2.25 4.72-.22-2.02 1.01-2.7 1.01-4.72.22zM49.5-11.28c-2.03 1.02-2.7 1.02-4.73.23 1.12 2.48 3.82 2.25 4.72-.22zM43.53-15.1c-2.02 1-2.7 1-4.72.22 1.13 2.47 3.82 2.25 4.72-.23zM33.62-18.38c1.13 2.47 3.83 2.25 4.73-.23-2.03 1.01-2.7 1.01-4.73.23zM23-22.05c1.12 2.48 3.82 2.25 4.72-.23-2.02 1.02-2.7 1.02-4.72.23zM17.06-26c1.13 2.48 3.82 2.26 4.72-.22-2.02 1.02-2.7 1.02-4.72.23zM10.85-30c1.13 2.47 3.83 2.24 4.73-.23-2.03 1-2.7 1-4.73.22zM8.58-33.98c-2.03 1.01-2.7 1.01-4.73.22 1.13 2.48 3.83 2.25 4.73-.22zM.13-35.45c.76-.21 1.45-.85 1.82-1.89-.74.38-1.3.6-1.82.72M44.27-26.13c1.12 2.47 3.82 2.25 4.72-.23-2.02 1.01-2.7 1.01-4.72.23zM38.81-29.86c1.13 2.47 3.82 2.25 4.72-.23-2.02 1.02-2.7 1.02-4.72.23zM36.95-33.8c-2.02 1.02-2.7 1.02-4.72.23 1.12 2.47 3.82 2.25 4.72-.23zM23.37-37.08c1.13 2.48 3.83 2.25 4.73-.22-2.03 1.01-2.7 1.01-4.73.22zM22.45-41.02c-2.02 1-2.7 1-4.72.22 1.12 2.47 3.82 2.25 4.72-.23zM15.5-44.84c-2.03 1.02-2.7 1.02-4.73.23 1.12 2.47 3.82 2.25 4.72-.23zM4.01-49c1.13 2.47 3.82 2.24 4.72-.23-2.02 1-2.7 1-4.72.22zM49.62-40.92c-2.03 1.01-2.7 1.01-4.73.22 1.13 2.48 3.83 2.25 4.73-.22zM43.89-44.94c-2.03 1.01-2.7 1.01-4.73.22 1.13 2.48 3.83 2.25 4.73-.22zM31.77-48.84c1.12 2.47 3.82 2.25 4.72-.23-2.02 1.02-2.7 1.02-4.72.23zM.13-51.6c.7-.26 1.32-.88 1.68-1.85-.68.34-1.2.57-1.68.69M28.01-53.36c-2.02 1.01-2.7 1.01-4.72.22 1.12 2.48 3.82 2.25 4.72-.22zM.13-6c.25-.3.46-.66.62-1.09l-.62.3M16.77-11.26c1.12 2.48 3.82 2.25 4.72-.22-2.02 1.01-2.7 1.01-4.72.22zM15.87-15.17c-2.03 1.01-2.7 1.01-4.73.22 1.13 2.48 3.83 2.25 4.73-.22zM4.68-18.42c1.13 2.48 3.83 2.25 4.73-.22-2.03 1.01-2.7 1.01-4.73.22zM.13-20.61a2.99 2.99 0 0 0 1.54-1.79c-.61.3-1.1.52-1.54.65M34.23-3.4c-2.02 1.01-2.7 1.01-4.72.23 1.12 2.47 3.82 2.24 4.72-.23zM6.7-3.4C4.69-2.39 4-2.39 1.99-3.17 3.11-.7 5.8-.93 6.71-3.4zM47.51-1.5c-.9-2.47-3.6-2.7-4.72-.22 2.02-.79 2.7-.79 4.72.22zM.13-43.72c.94-.15 1.69.08 3.03.75-.57-1.57-1.87-2.24-3.03-1.88M7.97-39.08c-.9-2.47-3.6-2.7-4.72-.22 2.02-.79 2.7-.79 4.72.22zM9.62-35.65c2.03-.8 2.7-.8 4.73.22-.9-2.47-3.6-2.7-4.73-.22zM22.5-31.87c-.9-2.47-3.6-2.7-4.73-.22 2.02-.79 2.7-.79 4.72.22zM24.75-28.5c2.02-.8 2.7-.8 4.72.22-.9-2.48-3.6-2.7-4.72-.23zM30.91-24.49c2.03-.79 2.7-.79 4.73.23-.9-2.48-3.6-2.7-4.73-.23zM36.79-20.5c2.02-.8 2.7-.8 4.73.22-.9-2.48-3.6-2.7-4.73-.23zM46.23-16.87c2.03-.78 2.7-.78 4.73.23-.9-2.48-3.6-2.7-4.73-.23zM17.77-47.49c2.02-.78 2.7-.78 4.72.23-.9-2.48-3.6-2.7-4.72-.23zM15.05-51.27c-.9-2.48-3.6-2.7-4.72-.23 2.03-.79 2.7-.79 4.72.23zM41.68-51.4c-.9-2.47-3.6-2.7-4.72-.22 2.02-.78 2.7-.78 4.72.23zM29.72-43.1c-.9-2.47-3.6-2.7-4.72-.22 2.02-.79 2.7-.79 4.72.22zM35.63-38.97c-.9-2.48-3.6-2.7-4.72-.23 2.03-.78 2.7-.78 4.72.23zM41.35-35.26c-.9-2.48-3.6-2.7-4.73-.23 2.03-.78 2.7-.78 4.73.23zM49.6-31.95c-.9-2.48-3.6-2.7-4.73-.23 2.03-.78 2.7-.78 4.73.23zM45.04-47.68c2.02-.78 2.7-.78 4.73.23-.9-2.48-3.6-2.7-4.73-.23zM19.93-1.51c-.9-2.48-3.6-2.7-4.72-.23 2.02-.78 2.7-.78 4.72.23zM8.7-5.68c2.02-.78 2.7-.78 4.72.23-.9-2.48-3.6-2.7-4.73-.23zM36.9-5.8c2.02-.79 2.7-.79 4.72.22-.9-2.47-3.6-2.7-4.73-.22zM30.52-9.8c2.02-.79 2.7-.79 4.72.23-.9-2.48-3.6-2.7-4.72-.23zM29.3-13.2c-.9-2.48-3.6-2.7-4.72-.23 2.03-.78 2.7-.78 4.73.23zM17.91-16.84c2.03-.79 2.7-.79 4.73.23-.9-2.48-3.6-2.7-4.73-.23zM9.73-20.49c2.02-.79 2.7-.79 4.72.23-.9-2.48-3.6-2.7-4.72-.23zM3.56-24.63c2.03-.8 2.7-.8 4.73.22-.9-2.47-3.6-2.7-4.73-.22zM.13-30.06c1.21-.52 2.64.12 3.25 1.8-1.44-.73-2.2-.93-3.25-.7M3.44-9.8c2.02-.79 2.7-.79 4.72.23-.9-2.48-3.6-2.7-4.72-.23zM.13-13.92c1.1-.27 1.87-.07 3.36.68-.63-1.73-2.13-2.36-3.36-1.74M54.26-36.61c-.87.17-1.6-.01-2.87-.5.65 1.42 1.82 1.95 2.87 1.67M54.26-52.75c-.94.22-1.68.05-3.01-.47.67 1.49 1.92 2 3 1.63M54.26-6.77c-1.55.68-2.28.6-4.07-.1.92 2.03 2.88 2.25 4.07.92M54.26-21.74c-1 .28-1.76.1-3.15-.44.7 1.56 2.03 2.05 3.15 1.58M54.26-44.84c-.65.22-1.26.76-1.66 1.64a8.85 8.85 0 0 1 1.66-.5M54.26-30.04a3 3 0 0 0-1.44 1.55 10.3 10.3 0 0 1 1.44-.47M54.26-14.96c-.52.27-1 .76-1.32 1.5.5-.2.93-.35 1.32-.45M50.07-3.18l-1.25 1.63M9.21-3.3 7.33-1.68M40.88-1.55 39.76-3.3M44.9-6.86l-2.19 1.31M50.38-9.49l1.88-1.62M38.38-11.18l-1.31 1.75M35.07-5.24l-1.13-1.75M28-1.49l-1.12-1.75M29.25-7.43l-1.06 1.94M20.69-5.49l-1.12-1.75M22.68-3.3 21.5-1.49M37.01-3.3l-1.88 1.62M13.57-1.61l-1.13-1.75M24.44-11.11l-1.87 1.62M16.39-7.06l-1.87 1.62M3.94-6.8 2.07-5.18M14.82-9.49l-.69-1.94M7.23-5.43 6.11-7.18M49.13-5.05 48.01-6.8M52.88-3.43l1.13 1.75M43.44-9.43l-1.81-1.62M30.75-13.24l1.88-1.62M22.15-14.99l1.13 1.75M40.8-18.36l-1.88 1.62M35.51-13.3l1.87-1.63M32.09-16.93l-1.63-1.56M30.57-22.05l-1.88 1.62M21-20.18l-1-2.12M25.25-16.68l-1.12-1.75M17.34-21.93l-1.88 1.63M16.63-18.18l-1.94 1.32M8.32-13.24l1.87-1.62M2.63-11.18 1.12-9.61M8.13-20.3 7-22.05M11.88-17.05l-1.5-1.5M4.38-15.05 5.5-13.3M10.55-9.7l-1.63-1.62M28.88-9.36l-1.13-1.75M17.19-14.99l1.13 1.75M18.71-30.05l-1.87 1.62M15.38-26.05l-1.87 1.62M4.38-21.8 2.5-20.18M3.5-18.24 2-16.93M2.99-26.24l-1.87 1.63M9.26-28.43l-1.13-1.75M10.73-24.55 9.61-26.3M32.67-29.93 30.8-28.3M30-25.99l-1.87 1.63M23.38-28.18l-1.75-1.87M37.88-24.43l-1.12-1.75M35.13-19.99l-1.12-1.75M24.38-24.55l-1.13-1.75M9.51-33.84l1.62 1.66M5.74-28.03l-1.12-1.75M25.94-33.68l-1.87 1.63M15.98-31.86l-1.12-1.75M39.76-33.61l-1.88 1.62M37.32-29.93l-1.88 1.63M43.07-26.05l-1.88 1.62M44.88-21.93l-1.87 1.63M45.09-18.49l-1.18 1.69M51.94-14.86l-1.87 1.62M30.82-31.99l-1.13-1.75M52.95-33.7l-1.87 1.63M52.03-30.11l-1.87 1.62M48.07-35.43l1.87-1.62M43.69-32.05l-1.12-1.75M46.26-28.43l-1.13-1.75M51.13-24.43l-1.12-1.75M49.69-20.3l-1.12-1.75M53.13-16.74l-1.12-1.75M45.13-14.99l1.13 1.75M44.13-35.49l-1.12-1.75M50.82-47.32l1.87-1.63M50.13-42.99l1.38-1.69M42.51-49.11l1.37 1.43M45.76-44.8l1.12 1.75M52.13-39.11l-1.12-1.75M48.38-53.49l1.13 1.75M29.32-51.8l1.87-1.63M43.38-51.93l1.88-1.62M38.01-47.43l1.87-1.62M35.82-42.99l2.19-1.94M41.26-39.55l2.37-1.38M20.67-53.43l1.44 1.98M33.63-53.43l.75 1.85M29.3-48.8l1.12 1.75M30.75-42.99l1.88-1.62M21.75-44.93l2 1.5M23.55-38.8l1.43-1.88M14.57-40.8l1.12 1.75M36.73-39.3l2.38-1.5M33.76-35.55l1.87-1.63M28.75-40.93l.63 2.13M29.19-37.11l1.13 1.75M16.38-43.05l1.87-1.63M9.19-39.05l1.88-1.63M17.63-36.99l-1.87 1.63M2.73-33.8l-1.48 1.62M22.4-37.11l-1.87 1.62M4.63-37.05l-1.88 1.62M8.88-45.05l.81 2.19M.88-40.74 2-38.99M8.51-35.43l-1.13-1.75M4.25-44.74l1.13 1.75M2.87-47.11l-1.13-1.75M26.13-48.74 24-47.43M7.75-51.93l1.88-1.62M2.87-51.86l1.87-1.63M11.52-48.86l-1.88 1.62M15.86-47.11l-1.13-1.75M16.38-53.49l.75 2.04" style="fill:none;stroke:#000;stroke-width:.3"/></svg>