<svg xmlns="http://www.w3.org/2000/svg" xml:space="preserve" width="54.13" height="54.13" viewBox="0.06 -54.13 54.13 54.13"><path d="M.06-54.13h54.13V0H.06z" style="fill:none"/><path d="M32.24-50.38h-4.7M53.99-50.38h.2M18.74-50.38h8.8M12.66-50.38H5.99M.06-50.38h5.93M18.74-50.38h-6.08M53.99-50.38h-7.38M41.16-50.38h5.45M41.16-50.38h-8.92M54.19-46.2H.06M54.19-42.01h-.72M40.22-42.01h13.25M40.22-42.01H26.85M11.97-42.01H.06M26.85-42.01H11.97M33.82-12.4H48.7M20.2-12.4h13.62M6.95-12.4H.06M6.95-12.4H20.2M48.7-12.4h5.49M53.8-8.63h.39M26.47-8.63H11.92M11.92-8.63H.06M40.34-8.63H26.47M40.34-8.63H53.8M5.99-37.99H.06M31.99-37.99H18.74M31.99-37.99h14.62M18.74-37.99H5.99M46.61-37.99h7.58M27.54-34.71h-15M41.29-34.71h12.75M54.04-34.71h.15M12.54-34.71H.06M41.29-34.71H27.54M48.72-31.29H33.85M33.85-31.29H20.22M6.72-31.29H.06M20.22-31.29H6.72M48.72-31.29h5.47M.06-27.24h54.13M.06-23.44h54.13M54.19-19.24H.06M.06-16.01h54.13M38.42-.84h-6.18M.06-.84h5.93M18.74-.84h-8.38M38.42-.84h8.19M51.8-.84h-5.19M51.8-.84h2.39M24.8-.84h-6.06M24.8-.84h7.44M5.99-.84h4.37M5.99-54.13v3.75M18.74-50.38v-3.75M32.24-54.13v3.75M46.61-54.13v3.75M5.99-.85v.01M5.99 0v-.84M18.74-.85v.01M18.74 0v-.84M32.24-.85v.01M32.24 0v-.84M46.61-.85v.01M46.61 0v-.84M12.66-50.38v4.17M12.66-50.44v.06M27.54-50.44v.06M27.54-46.21v-4.17M41.16-50.38v4.17M41.16-50.38v-.06M53.99-50.38v-.06M53.99-50.38v4.17M7.1-42.02v-4.06M20.35-42.02v-4.06M33.91-42.02v-4.06M48.85-42.02v-4.06M40.22-42.01v3.99M40.22-42.01v-.01M26.85-42.01v-.01M26.85-42.01v3.99M11.97-42.01v-.01M11.97-42.01v3.99M53.47-38.02v-3.99M53.47-42.02v.01M46.61-37.99v-.03M46.61-37.99v3.26M31.99-37.99v-.03M31.99-37.99v3.26M18.74-37.99v3.26M18.74-37.99v-.03M5.99-37.99v3.26M5.99-37.99v-.03M12.54-34.71v3.41M12.54-34.71v-.02M27.54-34.71v3.41M27.54-34.73v.02M41.29-34.71v-.02M41.29-34.71v3.41M54.04-34.71v-.02M54.04-34.71v3.41M6.72-31.29v4.04M6.72-31.3v.01M20.22-31.3v.01M20.22-31.29v4.04M33.85-31.29v4.04M33.85-31.3v.01M48.72-31.29v-.01M48.72-31.29v4.04M40.1-27.19v3.74M26.77-27.19v3.74M11.78-27.19v3.74M53.33-23.45v-3.74M5.59-23.39v4.14M18.59-23.39v4.14M32.21-23.39v4.14M46.46-23.39v4.14M42.26-19.19v3.17M28.11-19.19v3.17M12.99-19.19v3.17M.57-19.19v3.17M6.95-12.4v-3.56M20.2-12.4v-3.56M33.82-12.4v-3.56M48.7-12.4v-3.56M40.34-8.63v.04M40.34-8.63v-3.72M26.47-8.63v-3.72M26.47-8.63v.04M11.92-8.63v.04M11.92-12.35v3.72M53.8-8.63v-3.72M53.8-8.63v.04M38.42-4.21H24.8M51.8-4.21H38.42M.06-4.21h10.3M51.8-4.21h2.39M24.8-4.21H10.36M10.36-4.21v3.37M10.36-4.24v.03M10.36-.78v-.06M24.8-4.21v3.37M24.8-.84v.06M24.8-4.21v-.03M38.42-.84v-3.37M38.42-.84v.06M38.42-4.24v.03M51.8-.84v-3.37M51.8-.84v.06M51.8-4.21v-.03M4.63-8.59v4.35M17.63-8.59v4.35M31.63-8.59v4.35M46.2-4.24v-4.35M45.83-33.62l-.79 1.24h4.39l.78-1.24zM36.18-32.38l.78-1.24h-4.38l-.79 1.24zM22.18-32.38l.78-1.24h-4.38l-.79 1.24zM8.06-32.36l.79-1.24H4.46l-.78 1.24zM9.79-35.67h4.39l.78-1.23h-4.38zM8.23-40.53H3.84l-.79 1.24h4.39zM21.96-40.52h-4.38l-.79 1.24h4.39zM36.09-40.52H31.7l-.78 1.24h4.38zM44.67-39.22h4.38l.79-1.24h-4.39zM43.86-44.72h-4.38l-.79 1.23h4.39zM30.09-44.71H25.7l-.78 1.24h4.38zM16.48-44.72h-4.39l-.79 1.23h4.39zM.06-43.46h3.02l.78-1.24H.06M4.33-48.89l-.79 1.24h4.39l.78-1.24zM17.42-47.65h4.38l.79-1.24H18.2zM32.04-47.65h4.39l.78-1.24h-4.38zM46.33-48.89l-.79 1.24h4.39l.78-1.24zM28.09-52.94H23.7l-.78 1.24h4.38zM41.96-52.94h-4.38l-.79 1.24h4.39zM14.18-51.7l.78-1.24h-4.38l-.79 1.24zM.06-51.7h1.37l.78-1.24H.06M10.67-28.64h4.38l.79-1.23h-4.39zM.06-28.64h2.62l.78-1.23H.06M24.67-28.64h4.38l.79-1.23h-4.39zM38.67-28.64h4.38l.79-1.23h-4.39zM44.29-24.76h4.39l.78-1.24h-4.38zM30.79-24.76h4.39l.78-1.24h-4.38zM16.42-24.76h4.38l.79-1.24H17.2zM2.42-24.76H6.8L7.59-26H3.2zM9.29-20.79h4.39l.78-1.23h-4.38zM22.92-20.79h4.38l.79-1.23H23.7zM.06-20.79h.69l.79-1.23H.06M36.79-20.79h4.39l.78-1.23h-4.38zM46.29-17.04h4.39l.78-1.23h-4.38zM32.31-17.04h4.39l.79-1.23H33.1zM17.81-17.04h4.39l.79-1.23H18.6zM4.06-17.04h4.39l.79-1.23H4.85zM.06-13.54H2.8l.79-1.23H.06M16.36-14.77h-4.38l-.79 1.23h4.39zM29.49-14.77H25.1l-.79 1.23h4.39zM43.61-14.77h-4.38l-.79 1.23h4.39zM49.86-11.15h-4.38l-.79 1.24h4.39zM31.35-11.15l-.79 1.24h4.39l.79-1.24zM16.56-9.91h4.39l.79-1.24h-4.39zM2.69-9.91h4.39l.78-1.24H3.48zM.06-5.66h.07L.92-6.9H.06M12.7-5.66l.79-1.24H9.1l-.79 1.24zM21.81-5.66h4.39l.79-1.24H22.6zM40.83-5.66l.78-1.24h-4.38l-.79 1.24zM6.74-3.15H2.35l-.79 1.24h4.39zM14.94-1.91h4.39l.78-1.24h-4.38zM33.7-1.91l.79-1.24H30.1l-.79 1.24zM46.95-1.91l.79-1.24h-4.39l-.79 1.24zM28.1-36.85h-4.39l-.78 1.24h4.38zM37.18-35.68h4.38l.79-1.24h-4.39zM.06-35.67h.97l.79-1.23H.06M54.19-44.7h-.59l-.79 1.24h1.38M54.19-52.94h-2.24l-.78 1.24h3.02M54.19-29.87h-.99l-.78 1.23h1.77M54.19-22.02h-2.91l-.79 1.23h3.7M54.19-14.77h-.86l-.79 1.23h1.65M54.19-6.9h-3.54l-.79 1.24h4.33M54.19-36.9h-2.63l-.79 1.23h3.42" style="fill:none;stroke:#000;stroke-width:.3"/></svg>