<svg xmlns="http://www.w3.org/2000/svg" xml:space="preserve" width="85.04" height="85.04" viewBox="0.15 -85.19 85.04 85.04"><path d="M.15-85.19h85.04V-.15H.15z" style="fill:none"/><path d="m3.98-82.95-.23-2.24M13.06-85.19l.11.62M8.17-83.57v.01M8.17-83.56l.56 2.49M19.48-83.63l-.57-1.56M3.73-74.7l-.62-5.37M12.48-81.7l1.31 4.75M22.67-84.57l1.69 3M77.49-85.19l-.32 2.74M64.63-85.19l-1.71 4.31M79.92-79.39v-2.87M79.92-79.39v.01M11.47-48.07C6.81-49.55 2.75-51.31.15-53.32M33.73-43.48c2.83.34 5.42.54 7.55.6M24.85-44.82c3.08.57 6.1 1.02 8.87 1.35M24.85-44.82a113.8 113.8 0 0 1-13.38-3.25M42.67-42.85l-1.4-.03M42.67-42.85c2.6 0 6.1-.26 10.04-.76M60.7-44.86c-2.75.51-5.46.93-8 1.25M69.43-46.8c-2.85.75-5.81 1.4-8.73 1.94M81.53-51.08c1.4-.71 2.64-1.46 3.66-2.24M69.43-46.8a64.26 64.26 0 0 0 12.1-4.28M17.88-25.2c3.8.91 7.75 1.66 11.46 2.23M29.34-22.97c5.24.8 10.02 1.21 13.33 1.21M.15-32.23l-.04-.03M17.88-25.2c-7.25-1.76-14-4.14-17.73-7.03M48.67-22.07c-2.29.2-4.33.31-6 .31M79.55-29.07a59.42 59.42 0 0 1-5.4 2M79.55-29.07a26.69 26.69 0 0 0 5.64-3.16M71.54-26.28c-2.34.67-4.79 1.27-7.25 1.8M85.19-32.23l.04-.03M74.15-27.07c-.85.27-1.72.54-2.6.79M48.67-22.07c4.58-.42 10.13-1.24 15.62-2.41M.15-74.5l.08.05M6.49-71.06a28.44 28.44 0 0 1-6.26-3.39M15.27-68.15a73.08 73.08 0 0 1-8.78-2.9M24.57-66.06c-3.12-.58-6.28-1.28-9.3-2.1M24.57-66.06c2.1.4 4.18.73 6.18 1.01M30.75-65.05c4.68.66 8.91 1.01 11.92 1.01M85.19-74.5l-.08.05M55.92-65.24a95.7 95.7 0 0 1-13.25 1.2M55.92-65.24c10.75-1.62 23.43-4.82 29.19-9.2M77.23-32.66c-6.5-.65-13.64-2.1-19.51-4.76M77.23-32.66c2.83.27 5.53.4 7.96.4M51.74-40.93l-.07-.05M57.72-37.42c-2.2-1-4.24-2.16-5.98-3.5M85.19-32.26h.04M43.8-16.23c.34.27.72.53 1.11.77M62.25-11.34c-1.92-.13-3.8-.32-5.62-.57M44.91-15.46c2.93 1.8 7.09 2.9 11.72 3.55M62.25-11.34c8.51.6 17.53.18 22.94.18M37.48-60.15a41.1 41.1 0 0 0 4.1 1.56M30.67-65.17l.08.12M78.36-53.57c2.82.1 5.18.12 6.83.12M64.03-54.47c2.22.22 4.4.39 6.48.52M36.44-60.64c-2.5-1.24-4.48-2.7-5.69-4.4M70.51-53.95c2.85.19 5.5.3 7.85.38M37.48-60.15l-1.04-.49M41.57-58.59c6.5 2.12 14.75 3.38 22.46 4.12M44.58-.52c1.92-.08 4.16-.26 6.6-.54M82.42-9.22a20.45 20.45 0 0 0 2.72-1.76M42.62-.48h-.04M42.62-.48c.6 0 1.26-.01 1.96-.04M74.54-5.95c-.82.27-1.67.54-2.54.79M63.35-3.02c-4.2.87-8.42 1.53-12.17 1.96M63.35-3.02c2.94-.62 5.88-1.33 8.65-2.14M82.42-9.22c-2.2 1.2-4.9 2.3-7.88 3.27M23.46-2.7c-1.35-.27-2.7-.56-4.05-.87M6.75-7.39A34.43 34.43 0 0 1 1.8-9.83M1.78-9.83c-.59-.36-1.14-.73-1.63-1.11M42.62-.48h.05M16.46-4.28c.97.25 1.96.49 2.95.71M42.62-.48c-.74 0-1.55-.02-2.43-.06M12.7-5.32c1.22.36 2.48.71 3.76 1.04M8.12-6.85 6.75-7.4M31.52-1.38l1.1.15M40.19-.54c-2.2-.1-4.77-.34-7.56-.7M23.46-2.7c1.5.28 2.98.55 4.44.78M12.7-5.32c-1.6-.48-3.14-1-4.58-1.53M31.52-1.38c-1.18-.16-2.4-.34-3.62-.54M27.65-83.45l-.17-.09M33.74-80.55a76.76 76.76 0 0 0 11.83 3.81M85.1-74.45h.09M45.57-76.73c3.06.72 6.09 1.26 9.03 1.65M54.6-75.08c12.98 1.74 24.4.65 30.5.63M33.74-80.55a69.14 69.14 0 0 1-6.09-2.9M38.33-37.56c-2.9.61-5.88 1.18-8.86 1.7M60.7-44.86c-1.75 1.35-4.93 2.68-8.96 3.93M8.46-32.86c-3.51.37-6.4.58-8.31.6M60.7-44.86l.03-.02M47.8-39.8c1.38-.36 2.7-.74 3.94-1.13M29.46-35.85a315.32 315.32 0 0 1-21 2.99M47.8-39.8c-2.92.8-6.13 1.54-9.47 2.24M34.38-14.3l-1.73.32" style="fill:none;stroke:#000;stroke-width:.3"/><path d="M62.51-21.77c3.58-1.4 6.66-2.91 9.03-4.51M62.51-21.77a93.71 93.71 0 0 1-4.33 1.57M27.8-13.18C16.47-11.43 6.03-10.66.14-11.14M27.8-13.18c1.6-.25 3.22-.52 4.85-.8M34.38-14.3c1.64-.3 3.28-.61 4.92-.95M53.3-18.68a183.23 183.23 0 0 1-14 3.43M53.3-18.68c1.68-.49 3.31-1 4.88-1.53M71.92-26.54l-.38.26M36.44-60.64A59.28 59.28 0 0 1 33-58.57M28.25-56.25c1.53-.65 3.1-1.41 4.75-2.32M36.48-60.66l-.04.02M28.25-56.25c-11.41 4.8-19.93 2.86-28.1 2.8M23.04-80.78c1.6-.83 3.15-1.72 4.61-2.67M4.92-74.8c1.74-.24 3.51-.59 5.3-1.04M.15-74.45h.08M4.92-74.8c-1.6.22-3.18.34-4.7.35M10.21-75.84a58.8 58.8 0 0 0 7.78-2.6M27.65-83.45c.88-.56 1.72-1.14 2.53-1.73M23.04-80.78a62.34 62.34 0 0 1-5.05 2.34M24.09-85.19a90.82 90.82 0 0 1-23.94 5.4M34.6-61.6c-7.31 4.8-18.54 5.95-30.12 5.37M4.48-56.23c-1.44-.07-2.89-.17-4.33-.3M27.37-61.27a45.55 45.55 0 0 0 5.17-1.83M27.37-61.27a68.11 68.11 0 0 1-13.5 2.36M13.86-58.91c-3.99.31-8.08.34-12.13.11M.15-58.9l1.58.1M6.49-71.06l.09-.01M6.49-71.06c-1.6.24-2.86.37-4 .39" style="fill:none;stroke:#000;stroke-width:.3"/><path d="M2.5-70.67c-.83 0-1.59-.04-2.35-.16M12.17-66.93c-4 1.32-8.11 1.73-12.02 1.52M12.17-66.93c1.04-.35 2.08-.75 3.1-1.22M15.3-68.17l-.03.02M24.57-66.06l.1-.04M7.67-61.93c-2.58.2-5.1.18-7.52-.03M24.57-66.06a63.1 63.1 0 0 1-5.2 1.86M7.67-61.93a53.4 53.4 0 0 0 11.7-2.27M19.41-3.57h.01M3.73-.29a68.67 68.67 0 0 0 14.95-2.97l.73-.3M3.73-.29c-1.22.1-2.42.14-3.58.14M12.7-5.32l.06-.03M12.7-5.32l-.78.34A31.74 31.74 0 0 1 .15-3.62M72-5.16l-.02-.04M77.64-1.16c-2.36-.74-4.25-1.92-5.45-3.63L72-5.16M85.19-.15a25.96 25.96 0 0 1-7.55-1.01M85.19-3.62a30.22 30.22 0 0 1-4.65-.69M75.54-6.26l.5.25c.61.48 2.22 1.17 4.5 1.7M79.92-79.4c-2.06.06-4.17.05-6.27-.05M79.92-79.4c1.79-.04 3.54-.15 5.23-.3h.04M73.65-79.45a56.46 56.46 0 0 1-14.51-2.4M52.18-85.19a26.48 26.48 0 0 0 6.96 3.33M6.67-68.3c-2.58.48-4.73.49-6.52.24M6.67-68.3c1.3-.23 2.7-.59 4.22-1.08M74.73-57.79c-2.25-.34-4.45-.72-6.58-1.12M60.15-60.57a190.24 190.24 0 0 1-13.54-3.56M68.15-58.9c-2.82-.54-5.51-1.1-8-1.67M74.73-57.79c3.4.52 6.9.95 10.4 1.25h.06M81.23-59.26c1.33.13 2.64.25 3.9.35h.06M55.92-65.24a.3.3 0 0 1-.03-.02M81.23-59.26c-8.9-.9-18.98-2.66-24.77-5.68M55.92-65.24l.54.3M80.45-71.73c1.74.62 3.37.66 4.68.88h.06M71.2-68l-.6-.26M71.2-68c3.71 1.54 9.15 2.33 13.99 2.59M64.94-66.42c-.2-.1-.41-.22-.61-.34M64.94-66.42c3 1.58 7.03 2.61 11.12 3.31M83.07-62.17l2.06.2h.06M83.07-62.17c-2.22-.23-4.62-.52-7.01-.94M76.6-70.13c1.17.95 5.03 1.52 8.53 2.05h.06M44.83-85.13a45.03 45.03 0 0 0 7.72 4.59M83.36-74.54c-14.3-1.11-23.2-2.48-30.81-6M43.8-82.05a60.78 60.78 0 0 1-3.34-3.14M43.8-82.05c3.2 2.75 7.65 5.82 13.3 7.13M45.57-76.73l.29.13M45.57-76.73c-3.26-1.54-8.5-5.4-11.99-8.45M85.19-85.16l-1.1-.02M36.54-64.35c.57.45 1.15.9 1.75 1.33M55.48-55.54c-7.74-1.65-12.88-4.3-17.2-7.47M81.8-53.5c-13.5-.38-33.5-6.79-39.32-10.54M33.74-80.55l.12.01M33.74-80.55a50.4 50.4 0 0 1-5.14-.82M28.6-81.36a16.93 16.93 0 0 1-2.9-.87M23.04-80.78l-.15-.04M39.01-78.57c-7.07 1.49-9.7-.35-15.97-2.2M27.91-75.46c4.71.71 9.9.82 14.13.33M47.26-76.23c-1.43.5-3.22.87-5.22 1.1M27.91-75.46c-3.88-.58-7.45-1.58-9.92-2.98M18-78.44l-.08-.04M14.64-77.17c.59.56 1.4 1.12 2.4 1.67M54.6-75.08l.07-.02" style="fill:none;stroke:#000;stroke-width:.3"/><path d="M54.6-75.08c-16.3 6.06-31.05 3.15-37.56-.42M10.21-75.84l-.07-.1M23.22-70c-5.4-1.05-9.83-2.7-12.18-4.93M11.04-74.93c-.32-.3-.6-.6-.83-.91M40.67-68.68c6.52-.15 12.92-.98 17.9-2.53M23.22-70a84.22 84.22 0 0 0 17.45 1.32M64.98-74.17a22.6 22.6 0 0 1-6.4 2.96M66.93-70.04a92.28 92.28 0 0 1-18.76 3.33M76.8-74.17a43.75 43.75 0 0 1-9.87 4.13M4.92-74.8l.55.37M30.04-66.86c-9.37-.94-18.17-3.33-24.57-7.57M4.89-74.82l.03.02M30.04-66.86c5.97.6 12.17.62 18.13.15M41.57-58.59c-1.54.38-5.71 1.17-8.57.02M41.57-58.59l.07-.01M33-58.57l-.08-.03M28.25-56.25l.3.06M28.23-56.26h.02M49.7-56.45c-8.6 2.22-14.09 1.89-21.16.26M43.17-51.91c-9 .93-16.89-.07-20-2.57M58.04-55.13a68.86 68.86 0 0 1-14.87 3.22M46.92-48.23c4.42-.41 8.66-1.39 12.31-3.15M64.03-54.47l.01-.01M46.92-48.23c-5.6.53-11.5.16-16.81-.66M59.23-51.38a22.13 22.13 0 0 0 4.8-3.09M30.1-48.89c-6.55-1-12.23-2.69-15.46-4.18M76.42-53.63a48.34 48.34 0 0 1-8.94 4.39M16.99-49.15c-4.75-1.38-8.23-2.85-9.76-3.92M56.6-46.37a59.7 59.7 0 0 0 10.89-2.88M31.36-46.18a98.25 98.25 0 0 1-14.37-2.97M31.36-46.18c7.79 1.02 16.6 1.26 25.25-.2M47.73-39.85l.07.06M47.8-39.8a7.96 7.96 0 0 0 3.56 1.85M57.86-37.41l-.14-.01M57.72-37.42c-3-.1-4.9-.2-6.36-.53M58.56-35.64l2.3-.46M38.17-37.6l.16.04M38.33-37.56c2 .6 3.67 1.11 5.14 1.53M58.56-35.64c-7.22 1.38-10.13 1.03-15.09-.39M48.67-32.85c-5.64-.22-11.44-1.35-19.2-3M64.98-34.79c-6.2 1.6-11.19 2.14-16.31 1.94M29.46-35.85l-.3-.07M39.67-30.7c5.62.7 11.6.77 18.44-.08M39.67-30.7c-6.02-.73-11.62-2.17-17.44-3.9M71.17-33.29c-4.72 1.2-9.04 2.02-13.06 2.52M40.73-27.88A67.57 67.57 0 0 1 27.6-29.7M54.68-28.58c-4.79.6-9.35.89-13.95.7M27.6-29.7a89.07 89.07 0 0 1-12.3-3.97M77.23-32.66c-8.5 1.72-15.75 3.22-22.55 4.08M77.23-32.66l.31-.07M8.36-32.91l.1.05M76.64-30.43a94.77 94.77 0 0 1-12.7 3.81" style="fill:none;stroke:#000;stroke-width:.3"/><path d="M63.93-26.62c-20.22 4.55-39.78 1.79-55.47-6.24M76.64-30.43a98.41 98.41 0 0 0 4.28-1.73M39.3-15.25l-.1-.04M42.73-14c1.16.25 2.6.3 6.13.4M42.73-14c-.98-.22-1.76-.58-3.43-1.25M47.3-11.21a24.58 24.58 0 0 1-10.38-2.04M55.87-11.82l.76-.1M56.64-11.91h-.02M34.23-14.35l.15.06M34.38-14.3c.89.36 1.71.72 2.54 1.05M47.3-11.21c2.3 0 5.08-.17 8.57-.6M62.25-11.34l.1-.01M62.25-11.34l-3 .4M27.8-13.18l-.13-.05M39.73-9.86c-4.19-.43-7.45-1.55-11.94-3.32M39.73-9.86c2.7.27 5.78.26 9.82-.05M49.55-9.9c2.73-.21 5.9-.56 9.7-1.04M65.92-10.18c-7.48 2.44-13.9 3.5-19.56 3.65M46.36-6.53c-2.4.06-4.66-.03-6.81-.26M65.92-10.18c.77-.25 1.55-.52 2.34-.8M39.55-6.79c-5.81-.6-10.8-2.1-15.45-3.77M19.98-12.1c1.35.51 2.72 1.03 4.12 1.54M29.23-5.88a91.83 91.83 0 0 1-8.81-2.55M68.39-9a68.73 68.73 0 0 1-9.7 3.16M58.68-5.84a61.65 61.65 0 0 1-10.2 1.6M29.23-5.88a64.17 64.17 0 0 0 19.25 1.64M20.41-8.43c-2.85-.97-5.5-1.99-7.93-2.92M68.39-9c1.47-.59 2.96-1.25 4.47-1.98M29.48-2.96c2.69.41 5.34.67 7.94.79M73.62-8.36a94.9 94.9 0 0 0 5.99-2.52M43.6-2.13a93.46 93.46 0 0 0 30.02-6.23M37.42-2.17c1.05.05 2.09.07 3.12.08M43.6-2.13c-1 .03-2.03.05-3.06.04M15.54-6.57a70.6 70.6 0 0 0 7 2.19M22.54-4.38c2.34.6 4.65 1.06 6.94 1.42M15.54-6.57a71.69 71.69 0 0 1-9.62-4.4M5.12-28.1c-2 .38-3.6.5-4.97.44M5.12-28.1c.5-.08 1-.2 1.55-.31M12.1-26.54c-3.67.55-6.83 1.12-9.61 1.6M2.49-24.94l-2.34.39M17.88-25.2l.04-.03M15.24-24.28A74.34 74.34 0 0 1 .15-21.67M15.24-24.28c.99-.3 1.87-.61 2.63-.93M6.92-20.27c-2.23.32-4.5.57-6.77.76M11.18-20.94c3.5-.62 6.77-1.34 9.56-2.1M6.92-20.27c1.45-.2 2.87-.43 4.26-.67M20.74-23.04c1.07-.29 2.07-.58 3-.88M20.55-20.48c2.86-.77 5.79-1.61 8.79-2.5M29.34-22.97h.02M20.55-20.48c-2.64.71-5.22 1.36-7.75 1.94M12.8-18.54A106.9 106.9 0 0 1 .15-16.37M21.23-17.95c6.36-1.26 12.05-2.7 16.28-4M21.23-17.95c-2.81.55-5.75 1.07-8.76 1.52M12.47-16.43c-3.07.46-6.2.86-9.33 1.15M3.14-15.28c-1 .1-2 .18-2.99.25M49.86-21c-1.1-.13-2.5-.37-4.57-.76M49.86-21c3.11.39 3.94-.06 11-.2" style="fill:none;stroke:#000;stroke-width:.3"/><path d="M51.67-18.29c-12.94.75-11.94.66-25.63-.66M20.92-15.5l-6.63-1.2M32.65-13.98h.08M20.92-15.5c5.2.94 7.89 1.38 11.73 1.52M23.17-12.66c-2.82 0-5.14-.04-7.25-.18M3.1-15.29h.04M15.92-12.84a52.34 52.34 0 0 1-12.78-2.44M4.8-11.16c-1.7-.27-3.23-.48-4.65-.65M81.83-28.24c1 .3 2.08.52 3.36.58M79.55-29.07l-.05-.02M81.83-28.24c-.78-.23-1.51-.52-2.28-.83M75.4-23.98c2.91.35 6.01.03 9.79-.58M75.4-23.98c-1.76-.2-3.44-.65-5.18-1.42M70.22-22.4c-1.27-.3-2.43-.69-3.45-1.16M79.65-21.46c1.82 0 3.69-.07 5.54-.2M79.65-21.46c-3.42 0-6.68-.29-9.43-.94M62.51-21.77l-.08-.04M73.9-19.34c-3.25-.2-6.26-.67-8.84-1.47M73.9-19.34c3.57.23 7.42.13 11.29-.17M62.51-21.77c.8.36 1.65.68 2.55.96M75.75-16.05c3.08.13 6.22.01 9.44-.32M73.82-16.17a45.64 45.64 0 0 1-15.64-4.03M58.18-20.2l-.06-.03M75.75-16.05c-.65-.03-1.3-.07-1.94-.12M53.3-18.68l-.06-.03M60.66-16.2c7.15 1.62 15.8 1.8 24.53 1.17M53.3-18.68a34.97 34.97 0 0 0 7.36 2.48M77.98-12.67c2.13.3 4.44.52 7.21.86" style="fill:none;stroke:#000;stroke-width:.3"/><path d="M77.98-12.67a30.43 30.43 0 0 1-8.4-2.24M31.52-1.38v-.02M31.52-1.38l-.24.41-1.1.82M27.9-1.92l.06-.04M24.06-.15a47.4 47.4 0 0 0 3.23-1.38l.6-.39M23.46-2.7l-.79.4a82.8 82.8 0 0 1-7.13 2.15M23.46-2.71l.13-.06M63.29-3.13l.06.11M66.3-.15a9.16 9.16 0 0 1-2.74-2.5l-.2-.38M85.19-82.52c-7.6.6-14.7 0-18.96-2.67M8.17-83.56c2.57-.45 5.1-1 7.52-1.63M8.17-83.56c-2.67.47-5.37.83-8.02 1.04M51.18-1.06l-.01-.01M52.27-.15c-.25-.17-.49-.34-.73-.53l-.36-.38M44.58-.52l-.04-.05M44.58-.52l.28.37M40.54-.15l-.06-.06-.3-.33M40.11-.63l.08.09M32.63-1.23l.54.65c.16.14.32.29.5.43M32.63-1.23l-.02-.03M6.75-7.39h.04M6.75-7.39a37.26 37.26 0 0 1-6.6-1M82.42-9.22c.9.27 2.1.64 2.73.8l.04.02M82.42-9.22l-.12-.04M6.4-47.8a52.1 52.1 0 0 0 11.7 1.57M6.4-47.8a63 63 0 0 1-6.25-1.88M10.07-45.55c-3.38-.47-6.84-1.08-9.92-1.76M20.23-44.6c1.96.07 3.57 0 4.62-.22M24.85-44.82h.01M20.23-44.6a98.94 98.94 0 0 1-10.16-.95M10.07-42.77c1.8.1 3.58.19 5.33.24M5.82-43.07C3.9-43.23 2-43.4.15-43.63M33.86-43.5l-.14.02M33.73-43.48c-3.56.91-10.56 1.2-18.33.95M10.07-42.77c-1.42-.08-2.84-.18-4.25-.3M11.9-39.85c12.52-.13 24.5-1.19 29.1-2.92M11.9-39.85c-3.93.04-7.92 0-11.75-.15M41.45-42.95l-.17.08M41-42.77l.28-.1M52.7-43.6c-1.05.95-7.08 2.88-15.84 4.56M52.7-43.6a1 1 0 0 0 .1-.1M26.7-37.41c-3.2.4-6.56.76-10.04 1M26.7-37.41c3.65-.48 7.08-1.04 10.16-1.63M6.32-36c-2.04.01-4.1-.02-6.17-.1M6.32-36c3.52-.02 6.99-.17 10.34-.4M81.53-51.08c.74.32 1.58.67 2.5 1.02M81.53-51.08a.76.76 0 0 0-.03-.02M84.03-50.06l1.16.43M85.19-47.28c-2.64-.58-5-1.21-6.78-1.86M78.4-49.13a21.6 21.6 0 0 1-.71-.27M71.72-46.03c3.47 1 8.24 1.82 13.47 2.42M71.72-46.03a26 26 0 0 1-2.29-.77M69.43-46.8l-.11-.04M60.34-44.56c.87 1.01 2.9 1.84 5.76 2.51M66.1-42.05c4.7 1.1 11.6 1.77 19.09 2.05M79.48-36.43c1.9.16 3.81.27 5.71.34M68.98-37.8c3.45.64 6.97 1.09 10.5 1.37M54.6-41.8a77 77 0 0 0 14.38 4M3.73-.29l.02.14M12.79-1.67l.27 1.52M18.61-.98l.3.83M77.64-1.16l-.12 1.01M77.64-1.16v-.01M64.66-.15l.35-.89M79.79-.7l.75-3.61M80.54-4.31v-.01M7.29-3.88l.63 3.06M16.46-4.28l-.04-.1M17.04-2.82l-.58-1.46M3.29-7.7l.32 4.07M1.78-9.83l.01-.05M1.78-9.83l-.3 1.7M20.92-15.5l-.06 2.8M20.92-15.5v-.01M12.47-16.43l-.55 3.17M12.47-16.43l.01-.08M15.92-12.84v-.11M15.92-12.84v1.14M7.17-11.2l.25-2.87M9.11-9.32l-.99 2.47M8.12-6.85l-.01.03M15.54-6.57l-.31 1.87M12.67-7.76l1.12-3.06M22.54-4.38l-.25 1.37M20.41-8.43l.01-.02M20.41-8.43l-.87 3.17M29.48-2.96l-.06 1.2M29.48-2.96v-.05M37.42-2.17l-.06 1.35M37.42-2.17v-.03M43.61-2.13l.06 1.5M54.04-3.07l.25 1.56M64.48-5.32l.38 1.94M73.62-8.36l-.01-.02M73.62-8.36l.92 2.41M82.29-11.07l.75 1.44M68.36-9.07l.03.08M68.39-8.99l.84 2.17M58.67-5.88l.01.04M58.68-5.84l.43 1.71M48.48-4.24v-.02M48.48-4.24l.13 1.73M40.42-4.2l.12 2.11M40.54-2.09v.02M29.23-5.88l-.5 2.75M23.11-7.63l.99-2.93M24.1-10.56l.01-.01M35.04-7.45l-.37 2.57M46.36-6.53l.18 2.33M46.36-6.57v.04M57.36-5.63l-.5-2.13M65.92-10.18l.69 1.73M65.92-10.18v-.02M59.25-10.94l-.02-.07M59.25-10.94l.67 2.43M49.55-9.9l.31 3.14M49.54-9.95l.01.05M39.73-9.86l-.18 3.07M39.55-6.79l-.01.03M39.73-9.86v-.02M30.48-12.13l-1.25 3.25M36.36-10.45l.56-2.8M36.92-13.25v-.01M47.42-9.82l-.12-1.39M47.3-11.21l-.01-.11M55.86-11.88l.01.06M55.87-11.82l.24 1.25M42.73-14l-.44 2.37M42.73-14v-.01M51.98-11.45l-.06-1.31M44.91-15.46l-.24 1.64M44.91-15.46l.01-.05M25.73-14.7l1.06-4.06M37.92-21.95l-.44 4M49.86-20.99l.06 2.79M49.86-21.01v.02M20.55-20.48l.68 2.53M20.55-20.48l-.01-.03M29.04-22.88l1.07 2.87M12.8-18.54l-.01-.03M12.8-18.54l.43 1.91M5.48-17.07l.19 1.5M55.9-17.49l-2 5M64.9-15.4l-.42 4.16M73.73-11.07l-.16-2.42M77.98-12.67l.25-1.98M77.98-12.67v.02M60.66-16.2l.57-2.7M60.66-16.2l-.01.05M68.4-16.9l-.08 1.83M75.75-16.05l-.02-.1M75.98-14.74l-.23-1.31M82.98-14.99l-.08-1.08M73.9-19.34l-.08 3.17M73.9-19.34v-.06M73.82-16.17v.02M65.06-20.81l.01-.01M64.23-17.99l.83-2.82M69.82-19.9l.4-2.5M70.22-22.4l.01-.09M79.65-21.46v2.22M79.65-21.46v-.03M75.4-23.98v-.01M75.23-21.65l.17-2.33M81.83-28.24l-.01-.08M82.32-24.24l-.49-4M74.15-27.07l-.08 2.83M83.73-27.9l.42-3.5M2.73-16.76l-.37-2.94M11.18-20.94l-.01-.07M11.73-18.32l-.55-2.62M20.74-23.04l-.01-.03M21.42-20.76l-.68-2.28M15.24-24.28l.55 2.33M15.23-24.32l.01.04M6.67-22.38l.25 2.11M6.92-20.27v.01M2.49-24.94l.3 2.93M2.49-24.94l-.01-.07M10.61-26.26l.62 2.94M5.12-28.09l.74 2.52M5.11-28.13l.01.04M11.04-31.57l-1.87 3.81M21.98-24.38l.69-2.94M35.29-22.26l.07-2.62M48.67-22.07l-.31-2.44M63.93-26.62l.36 2.14M64.29-24.48v.03M63.93-26.62l-.01-.08M76.61-30.51l.03.08M76.64-30.43l.97 2.11M69.73-28.2l-.87-2.75M54.68-28.58l.49 3.45M54.67-28.63l.01.05M40.73-27.95v.07M40.73-27.88v3.31M27.59-29.7l-.73 3.38M27.59-29.7l.02-.06M23.61-34.2l-1.13 3.07M39.67-30.7l-.13 2.75M58.12-30.77l.3 1.64M58.12-30.77l-.01-.05M48.67-32.85v2.65M48.67-32.85v-.1M33.48-35.01l-.75 3.13M65.42-32.01l-.88-2.62M58.56-35.64l.48 2.01M58.56-35.64l-.02-.06M42.98-33.45l.49-2.58M43.48-36.07l-.01.04M51.36-34.82v-3.13M51.36-37.95v-.06M54.04-39.32l-.25 1.62M2.4-51.82l-.58 2.67M11.47-48.07l.01-.08M11.47-48.07l-.15 1.25M6.4-47.8v-.02M6.4-47.8l-.17 1.56M16.82-46.24l.08 1.42M10.07-45.55v2.78M10.07-42.77v.03M10.07-45.55v-.02M20.23-44.59v-.15M20.23-44.59v2.02M28.23-42.74l-.25-1.5M2.9-46.65l-.08 3.25M5.82-43.07l.16 3.08M5.82-43.15v.08M15.4-42.57v.04M15.4-39.99v-2.54M25.82-40.49l-.25-2M35.9-41.65l-.42-1.59M2.4-36.15l-.08-3.75M11.9-39.85l.33 3.7M11.9-39.85v-.05M21.4-36.82l-.42-3.25M31.65-40.9l.42 2.66M41.01-42.77l1.14 2.53M41.01-42.77l-.03-.05M6.32-36l.16 3.26M6.32-36.07v.07M16.66-36.41l.41 2.34M16.65-36.49l.01.08M26.69-37.41l.42 1.84M26.67-37.51l.02.1M36.86-39.04v-.03M37.23-37.38l-.37-1.66M45.98-41.07l.63 1.56M56.11-42.57l-.82-1.31M59.86-39.95l-.88 3M68.98-37.79l-.56 3.72M68.98-37.79v-.03M79.23-32.57l.25-3.86M79.48-36.45v.02M76.42-40.45l-.19 3.63M66.1-42.05l.01-.02M66.1-42.05l-.62 3.48M71.72-46.03l.01-.04M71.72-46.03l-.8 4.77M81.48-44.07l-.31 3.81M77.42-44.82l.99-4.31M78.42-49.2l-.01.07M83.42-47.76l.61-2.3M84.03-50.06l.01-.07M79.92-50.38l-1.56-3.19M68.23-46.63l-.74-2.61M67.49-49.24l-.01-.02M56.61-46.37v-.01M56.61-46.37l.37 2.11M43.98-45.32l.13 2.37M31.36-46.18l-.19 2.3M31.36-46.18v-.02M19.86-48.32l-.5 2.25M9.36-51.88 8.29-49.2M16.99-49.15l-.01.02M16.99-49.15l.87-2.61M34.29-48.32l-.18 2.44M47.17-45.45l-.25-2.78M46.92-48.23v-.03M60.79-47.32l-1.56-4.06M70.51-53.95l-.03-.06M71.86-51.2l-1.35-2.75M53.92-49.57l-.94-4.06M43.17-51.91l.31 3.84M43.17-51.95v.04M30.11-48.89l.43-3.06M30.11-48.89v.01M27.36-52.63l1.18-3.56M28.54-56.2v.01M39.79-51.76l.07-3.12M53.98-54.01l-.69-1.81M40.79-58.38l.63 3.31M33.67-55.32l.56-2.88M37.48-60.15v2.08M37.48-60.15v-.05M4.48-56.32v.09M4.48-56.23l.06 2.91M19.54-56.63l.63 2.81M27.36-61.32l.01.05M27.37-61.27l.8 2.57M13.86-58.91l.31 2.65M13.86-58.91v-.04M1.73-58.8v-.02M1.73-58.8l.06 2.35M7.67-61.93l.12 3.17M7.67-61.95v.02M19.37-64.2l-.01-.06M19.37-64.2l1.11 4.32M12.17-66.93v-.02M12.17-66.93l1.06 4.23M2.67-61.95l-.31-3.37M6.67-68.3l.44 2.48M6.67-68.3v-.02M2.48-70.76l.01.09M2.49-70.67l.3 2.66M1.11-73.82v3.06M28.61-81.38l-.01.02M28.11-79.2l.49-2.16M33.79-74.95l.07-3.06M22.42-76.7l1.37-3.75M27.91-75.46l.01-.05M27.91-75.46l-.49 3.2M17.04-75.5v-.01M17.04-75.5l-1.31 3.24M32.73-68.88v-2.75M23.22-70l-.36 2.05M23.22-70l.01-.07M11.04-74.95v.02M11.04-74.93 9.48-72.2M16.17-68.07l.31-1.38M4.17-72.2l1.3-2.23M5.47-74.43l.01-.02M30.04-66.86l-.12 1.66M30.04-66.86v-.02M42.54-72.13l-.5-3M48.36-73.13l.75 3.75M40.73-66.45l-.06-2.23M40.67-68.68v-.02M48.17-66.71v-.05M48.17-66.71l.19 2.26M58.57-71.21l.72 2.89M58.57-71.21l-.03-.11M66.92-70.07l.01.03M66.93-70.04l.61 2.41M81.48-72.45l-1.44-1.81M82.57-71.15l-.42 2.5M77.57-69.57l-.92 3.08M83.07-62.17v.02M83.07-62.17l.16-3.32M71.2-68l.03-.07M71.2-68l-1.55 3.35M75.48-59.99l.58-3.11M76.07-63.15l-.01.05M64.94-66.42l.04-.07M62.9-62.57l2.04-3.85M68.15-58.91v.01M68.65-61.07l-.5 2.16M81.23-59.26v-.06M81.23-59.26l-.16 2.19M74.73-57.79v-.03M74.73-57.79l-.41 3.47M60.15-60.57l-.83 3M55.32-61.82l1.15-3.12M56.48-64.99l-.01.05M47.9-57.9l1.17-3M61.9-54.74l.42-1.91M38.29-63.02l.03-.05M36.98-60.49l1.31-2.53M34.73-80.24l1.17-2.83M43.8-82.05l.02-.02M43.8-82.05l-2.15 2.9M52.55-80.54l.02-.03M52.55-80.54l-1.65 3.3M66.07-74.32l.16-2.17M58.23-78.49l.91-3.37M59.15-81.9l-.01.04M73.4-75.57l.25-3.88M73.65-79.49v.04M.15-32.26v.03M.15-74.45v-.06M.15-53.32v-.13M85.19-74.51v.06M85.19-53.45v.13" style="fill:none;stroke:#000;stroke-width:.3"/></svg>