<svg xmlns="http://www.w3.org/2000/svg" xml:space="preserve" width="54.13" height="54.13" viewBox="0.06 -54.13 54.13 54.13"><path d="M.06-54.13h54.13V0H.06z" style="fill:none"/><path d="M27.53-50.38h-8.8M27.53-50.38h4.7M12.66-50.38h6.07M41.16-50.38h5.45M53.98-50.38h-7.37M41.16-50.38h-8.93M12.66-50.38H5.98M.06-50.38h5.92M53.98-50.38h.2M.06-46.2h54.12M53.47-42.01h.71M40.22-42.01h13.25M40.22-42.01H26.84M26.84-42.01H11.97M11.97-42.01H.06M33.82-12.4h14.87M20.19-12.4h13.63M20.19-12.4H6.94M6.94-12.4H.06M48.69-12.4h5.49M26.47-8.63H11.92M40.34-8.63h13.45M40.34-8.63H26.47M53.79-8.63h.39M11.92-8.63H.06M46.61-37.99h7.57M18.73-37.99h13.25M31.98-37.99h14.63M18.73-37.99H5.98M5.98-37.99H.06M27.53-34.71h-15M54.03-34.71h.15M41.28-34.71H27.53M41.28-34.71h12.75M12.53-34.71H.06M20.22-31.29H6.72M48.72-31.29H33.84M48.72-31.29h5.46M33.84-31.29H20.22M6.72-31.29H.06M.06-27.24h54.12M.06-23.44h54.12M.06-19.24h54.12M.06-16.01h54.12M.06-.84h5.92M10.35-.84H5.98M38.42-.84h-6.19M51.79-.84h2.39M24.79-.84h-6.06M51.79-.84h-5.18M24.79-.84h7.44M10.35-.84h8.38M38.42-.84h8.19M5.98-54.13v3.75M18.73-54.13v3.75M32.23-54.13v3.75M46.61-54.13v3.75M5.98 0v-.84M5.98-.85v.01M18.73-.85v.01M18.73 0v-.84M32.23-.85v.01M32.23 0v-.84M46.61 0v-.84M46.61-.85v.01M12.66-50.38v-.06M12.66-50.38v4.17M27.53-50.38v4.17M27.53-50.38v-.06M41.16-50.38v-.06M41.16-50.38v4.17M53.98-50.38v4.17M53.98-50.38v-.06M7.09-42.02v-4.06M20.34-42.02v-4.06M33.91-42.02v-4.06M48.84-42.02v-4.06M40.22-42.01v-.01M40.22-42.01v3.99M26.84-42.01v-.01M26.84-42.01v3.99M11.97-42.01v3.99M11.97-42.01v-.01M53.47-42.01v-.01M53.47-42.01v3.99M46.61-37.99v3.26M46.61-37.99v-.03M31.98-37.99v3.26M31.98-37.99v-.03M18.73-37.99v3.26M18.73-37.99v-.03M5.98-37.99v-.03M5.98-37.99v3.26M12.53-34.71v-.02M12.53-34.71v3.41M27.53-34.71v3.41M27.53-34.73v.02M41.28-34.71v3.41M41.28-34.71v-.02M54.03-34.71v3.41M54.03-34.71v-.02M6.72-31.29v4.04M6.72-31.3v.01M20.22-31.3v.01M20.22-31.29v4.04M33.84-31.29v4.04M33.84-31.3v.01M48.72-31.29v4.04M48.72-31.29v-.01M40.09-27.19v3.74M26.77-27.19v3.74M11.77-27.19v3.74M53.33-23.45v-3.74M5.58-23.39v4.14M18.58-23.39v4.14M32.21-23.39v4.14M46.46-23.39v4.14M42.26-19.19v3.17M28.11-19.19v3.17M12.98-19.19v3.17M.57-19.19v3.17M6.94-12.4v-3.56M20.19-12.4v-3.56M33.82-12.4v-3.56M48.69-12.4v-3.56M40.34-8.63v-3.72M40.34-8.63v.04M26.47-8.63v.04M26.47-12.35v3.72M11.92-8.63v-3.72M11.92-8.63v.04M53.79-8.63v.04M53.79-12.35v3.72M51.79-4.21H38.42M38.42-4.21H24.79M24.79-4.21H10.35M10.35-4.21H.06M51.79-4.21h2.39M10.35-4.24v.03M10.35-.84v.06M10.35-.84v-3.37M24.79-.84v-3.37M24.79-4.24v.03M24.79-.84v.06M38.42-4.24v.03M38.42-.84v.06M38.42-.84v-3.37M51.79-4.21v-.03M51.79-.84v.06M51.79-.84v-3.37M4.63-4.24v-4.35M17.63-8.59v4.35M31.63-8.59v4.35M46.19-4.24v-4.35M.06-43.28c.31.05.66.07 1.03.07 1.31 0 2.38-.35 2.38-.79 0-.44-1.06-.8-2.38-.8-.37 0-.72.03-1.03.08" style="fill:none;stroke:#000;stroke-width:.3"/><ellipse cx="13.71" cy="-44" rx="2.38" ry=".79" style="fill:none;stroke:#000;stroke-width:.3"/><ellipse cx="27.34" cy="-44" rx="2.38" ry=".79" style="fill:none;stroke:#000;stroke-width:.3"/><ellipse cx="41.59" cy="-44" rx="2.38" ry=".79" style="fill:none;stroke:#000;stroke-width:.3"/><path d="M.06-51.65c.95-.1 1.64-.4 1.64-.75S1-53.05.06-53.16" style="fill:none;stroke:#000;stroke-width:.3"/><ellipse cx="12.21" cy="-52.4" rx="2.38" ry=".8" style="fill:none;stroke:#000;stroke-width:.3"/><ellipse cx="25.59" cy="-52.4" rx="2.38" ry=".8" style="fill:none;stroke:#000;stroke-width:.3"/><ellipse cx="39.34" cy="-52.4" rx="2.38" ry=".8" style="fill:none;stroke:#000;stroke-width:.3"/><ellipse cx="6.09" cy="-48.13" rx="2.38" ry=".79" style="fill:none;stroke:#000;stroke-width:.3"/><ellipse cx="20.09" cy="-48.13" rx="2.38" ry=".79" style="fill:none;stroke:#000;stroke-width:.3"/><ellipse cx="34.22" cy="-48.13" rx="2.38" ry=".79" style="fill:none;stroke:#000;stroke-width:.3"/><ellipse cx="47.72" cy="-48.13" rx="2.38" ry=".79" style="fill:none;stroke:#000;stroke-width:.3"/><ellipse cx="5.59" cy="-39.88" rx="2.38" ry=".79" style="fill:none;stroke:#000;stroke-width:.3"/><ellipse cx="19.34" cy="-39.88" rx="2.38" ry=".79" style="fill:none;stroke:#000;stroke-width:.3"/><ellipse cx="33.72" cy="-39.88" rx="2.38" ry=".79" style="fill:none;stroke:#000;stroke-width:.3"/><ellipse cx="47.34" cy="-39.88" rx="2.38" ry=".79" style="fill:none;stroke:#000;stroke-width:.3"/><path d="M.06-35.45c1.04-.09 1.81-.4 1.81-.78 0-.37-.77-.68-1.81-.77" style="fill:none;stroke:#000;stroke-width:.3"/><ellipse cx="12.34" cy="-36.23" rx="2.38" ry=".79" style="fill:none;stroke:#000;stroke-width:.3"/><ellipse cx="25.71" cy="-36.23" rx="2.38" ry=".79" style="fill:none;stroke:#000;stroke-width:.3"/><ellipse cx="39.22" cy="-36.23" rx="2.38" ry=".79" style="fill:none;stroke:#000;stroke-width:.3"/><ellipse cx="5.71" cy="-33" rx="2.38" ry=".79" style="fill:none;stroke:#000;stroke-width:.3"/><ellipse cx="19.59" cy="-33" rx="2.38" ry=".79" style="fill:none;stroke:#000;stroke-width:.3"/><ellipse cx="34.34" cy="-33" rx="2.38" ry=".79" style="fill:none;stroke:#000;stroke-width:.3"/><ellipse cx="47.59" cy="-33" rx="2.38" ry=".79" style="fill:none;stroke:#000;stroke-width:.3"/><path d="m.06-28.35.53.02c1.32 0 2.38-.36 2.38-.8 0-.44-1.06-.8-2.38-.8-.18 0-.36.02-.53.03" style="fill:none;stroke:#000;stroke-width:.3"/><ellipse cx="13.21" cy="-29.13" rx="2.38" ry=".79" style="fill:none;stroke:#000;stroke-width:.3"/><ellipse cx="26.84" cy="-29.13" rx="2.38" ry=".79" style="fill:none;stroke:#000;stroke-width:.3"/><ellipse cx="41.34" cy="-29.13" rx="2.38" ry=".79" style="fill:none;stroke:#000;stroke-width:.3"/><ellipse cx="4.84" cy="-25.25" rx="2.38" ry=".79" style="fill:none;stroke:#000;stroke-width:.3"/><ellipse cx="18.71" cy="-25.25" rx="2.38" ry=".79" style="fill:none;stroke:#000;stroke-width:.3"/><ellipse cx="33.22" cy="-25.25" rx="2.38" ry=".79" style="fill:none;stroke:#000;stroke-width:.3"/><ellipse cx="46.34" cy="-25.25" rx="2.38" ry=".79" style="fill:none;stroke:#000;stroke-width:.3"/><path d="M.06-20.4c.83-.12 1.41-.4 1.41-.73 0-.32-.58-.6-1.41-.72" style="fill:none;stroke:#000;stroke-width:.3"/><ellipse cx="11.96" cy="-21.13" rx="2.38" ry=".79" style="fill:none;stroke:#000;stroke-width:.3"/><ellipse cx="25.21" cy="-21.13" rx="2.38" ry=".79" style="fill:none;stroke:#000;stroke-width:.3"/><ellipse cx="39.09" cy="-21.13" rx="2.38" ry=".79" style="fill:none;stroke:#000;stroke-width:.3"/><ellipse cx="6.59" cy="-17.63" rx="2.38" ry=".79" style="fill:none;stroke:#000;stroke-width:.3"/><ellipse cx="20.09" cy="-17.63" rx="2.38" ry=".79" style="fill:none;stroke:#000;stroke-width:.3"/><ellipse cx="34.72" cy="-17.63" rx="2.38" ry=".79" style="fill:none;stroke:#000;stroke-width:.3"/><ellipse cx="48.22" cy="-17.63" rx="2.38" ry=".79" style="fill:none;stroke:#000;stroke-width:.3"/><path d="M.06-13.36c.2.02.43.03.65.03 1.32 0 2.39-.36 2.39-.8 0-.43-1.07-.79-2.39-.79-.22 0-.44.01-.65.03" style="fill:none;stroke:#000;stroke-width:.3"/><ellipse cx="13.21" cy="-14.13" rx="2.38" ry=".79" style="fill:none;stroke:#000;stroke-width:.3"/><ellipse cx="26.71" cy="-14.13" rx="2.38" ry=".79" style="fill:none;stroke:#000;stroke-width:.3"/><ellipse cx="41.09" cy="-14.13" rx="2.38" ry=".79" style="fill:none;stroke:#000;stroke-width:.3"/><ellipse cx="4.96" cy="-10.38" rx="2.38" ry=".79" style="fill:none;stroke:#000;stroke-width:.3"/><ellipse cx="18.84" cy="-10.38" rx="2.38" ry=".79" style="fill:none;stroke:#000;stroke-width:.3"/><ellipse cx="33.34" cy="-10.38" rx="2.38" ry=".79" style="fill:none;stroke:#000;stroke-width:.3"/><ellipse cx="47.09" cy="-10.38" rx="2.38" ry=".79" style="fill:none;stroke:#000;stroke-width:.3"/><path d="M.06-5.7c.4-.14.66-.34.66-.55s-.25-.4-.66-.55" style="fill:none;stroke:#000;stroke-width:.3"/><ellipse cx="10.96" cy="-6.25" rx="2.38" ry=".79" style="fill:none;stroke:#000;stroke-width:.3"/><ellipse cx="24.71" cy="-6.25" rx="2.38" ry=".79" style="fill:none;stroke:#000;stroke-width:.3"/><ellipse cx="38.84" cy="-6.25" rx="2.38" ry=".79" style="fill:none;stroke:#000;stroke-width:.3"/><ellipse cx="3.71" cy="-2.38" rx="2.38" ry=".79" style="fill:none;stroke:#000;stroke-width:.3"/><ellipse cx="17.21" cy="-2.38" rx="2.38" ry=".79" style="fill:none;stroke:#000;stroke-width:.3"/><ellipse cx="31.46" cy="-2.38" rx="2.38" ry=".79" style="fill:none;stroke:#000;stroke-width:.3"/><ellipse cx="44.97" cy="-2.38" rx="2.38" ry=".79" style="fill:none;stroke:#000;stroke-width:.3"/><path d="M54.18-44.72c-.8.13-1.35.4-1.35.72 0 .32.55.59 1.35.72M54.18-53.16a6.75 6.75 0 0 0-.74-.04c-1.32 0-2.38.36-2.38.8 0 .44 1.06.8 2.38.8.26 0 .5-.02.74-.04M54.18-37a6.94 6.94 0 0 0-.56-.02c-1.32 0-2.39.35-2.39.8 0 .43 1.07.79 2.39.79.2 0 .38 0 .56-.02M54.18-29.9c-1.06.08-1.85.4-1.85.77 0 .38.8.7 1.85.78M54.18-21.85c-.3-.05-.62-.07-.97-.07-1.31 0-2.38.35-2.38.8 0 .43 1.07.79 2.38.79.35 0 .68-.03.97-.07M54.18-14.89c-1 .1-1.72.4-1.72.77 0 .36.73.66 1.72.76M54.18-6.8a5.5 5.5 0 0 0-1.72-.25c-1.31 0-2.38.36-2.38.8 0 .44 1.07.8 2.38.8.68 0 1.29-.1 1.72-.25" style="fill:none;stroke:#000;stroke-width:.3"/></svg>