<svg xmlns="http://www.w3.org/2000/svg" xml:space="preserve" width="54.13" height="54.13" viewBox="0 -54.2 54.13 54.13"><path d="M0-54.2h54.13V-.07H0z" style="fill:none"/><path d="M54.13-50.45h-.2M27.48-50.45h-8.8M53.93-50.45h-7.38M13.63-50.45h5.05M4.42-50.45H0M30.68-50.45h15.87M13.63-50.45H4.42M27.48-50.45h3.2M54.13-46.28H0M54.13-42.09h-.72M41.16-42.09h12.25M26.79-42.09h14.37M26.79-42.09H0M20.13-12.48h12.13M12.66-12.48h7.47M32.26-12.48h8.84M41.1-12.48h7.53M5.38-12.48h7.28M5.38-12.48H0M48.63-12.48h5.5M38.81-8.71h-12.4M10.38-8.71h16.03M38.81-8.71h14.92M53.73-8.71h.4M10.38-8.71H0M5.93-38.07h26M47-38.07H31.93M47-38.07h7.13M5.93-38.07H0M12.48-34.79H0M41.23-34.79H28.04M54.13-34.79h-.16M41.23-34.79h12.74M28.04-34.79H12.48M48.66-31.37h5.47M48.66-31.37h-28.5M20.16-31.37H0M54.13-27.32H0M54.13-23.52H0M54.13-19.32H0M54.13-16.09H0M46.55-.92h3.72M54.13-.92h-3.86M7.31-.92h2.99M10.3-.92h8.38M38.36-.92h8.19M18.68-.92h4.59M33.44-.92H23.27M38.36-.92h-4.92M7.31-.92H0M6.77-54.2l-2.35 3.75M18.68-54.2v3.75M30.68-50.45l2.26-3.75M46.55-54.2v3.75M13.63-50.45l-2.53 4.16M27.48-50.45v-.07M27.48-50.45v4.16M42.19-50.39l-2.59 4.1M53.93-50.45v4.16M53.93-50.52v.07M5.54-42.1l2.59-4.17M20.29-42.1v-4.06M32.35-42.1l2.53-4.17M48.79-42.1v-4.06M38.66-38.1l2.5-3.99M41.16-42.09l.03-.05M26.79-42.09v-.01M26.79-42.09v3.99M10.41-38.1l2.47-3.98M53.41-38.1v-3.99M53.41-42.1v.01M47-38.07l-1.95 3.26M47-38.07v-.01M31.93-34.81v-3.26M31.93-38.07v-.03M17.18-34.81l2.01-3.21M5.93-38.07v-.03M5.93-38.07v3.26M12.48-34.79v3.41M12.48-34.79v-.02M28.04-34.79l-2.06 3.41M28.04-34.79l.02-.04M41.23-34.79v-.02M41.23-34.79v3.41M51.81-31.39l2.16-3.4M53.98-34.81l-.01.02M5.16-27.33l2.53-4M20.16-31.37v4.04M20.16-31.37v-.01M34.81-31.33l-2.52 4M48.66-31.37v-.01M48.66-31.37v4.04M38.54-23.53l2.27-3.74M26.71-23.53v-3.74M10.21-23.53l2.29-3.74M53.27-23.53v-3.74M4.03-19.33l2.53-4.06M18.52-19.33v-4.14M30.65-19.33l2.6-4.12M46.4-19.33v-4.14M40.7-16.11l1.93-3.16M28.05-16.11v-3.16M11.43-16.11l1.88-3.09M.51-16.11v-3.16M5.38-12.48l2.31-3.6M20.13-12.48v-3.56M32.26-12.48l2.24-3.6M48.63-12.48v-3.56M38.81-8.71l2.29-3.77M41.1-12.48l.03-.04M38.81-8.71l-.03.04M26.41-8.71v.04M26.41-8.71v-3.72M10.38-8.71l-.02.04M10.38-8.71l2.28-3.77M12.66-12.48l.03-.04M53.73-8.71v.04M53.73-8.71v-3.72M38.36-4.29h13.99M38.36-4.29H25.29M10.3-4.29h14.99M54.13-4.29h-1.78M10.3-4.29H0M10.3-4.29v-.03M10.3-.85v-.07M10.3-4.29v3.37M25.31-4.33l-.02.04M25.29-4.29 23.27-.92M23.23-.85l.04-.07M38.36-.92v.07M38.36-4.29v-.03M38.36-4.29v3.37M52.38-4.33l-.03.04M52.35-4.29 50.27-.92M50.23-.85l.04-.07M4.57-4.32v-4.35M18.75-8.58l-2.68 4.26M31.57-8.67v4.35M47.25-8.64l-2.62 4.32M18.68-.92v.84M46.55-.92v.84M7.31-.92l-.52.84M7.31-.92l.07-.1M32.94-.08l.5-.84M33.5-1.02l-.06.1" style="fill:none;stroke:#000;stroke-width:.3"/></svg>