<svg xmlns="http://www.w3.org/2000/svg" xml:space="preserve" width="54.13" height="54.13" viewBox="0 -54.2 54.13 54.13"><path d="M0-54.2h54.13V-.07H0z" style="fill:none"/><path d="M0-43.42h.23c1.32 0 2.39-.35 2.39-.79 0-.44-1.07-.8-2.39-.8L0-45" style="fill:none;stroke:#000;stroke-width:.3"/><ellipse cx="19.58" cy="-48.35" rx="2.38" ry=".79" style="fill:none;stroke:#000;stroke-width:.3"/><ellipse cx="39.31" cy="-52.64" rx="2.38" ry=".8" style="fill:none;stroke:#000;stroke-width:.3"/><ellipse cx="18.94" cy="-40.08" rx="2.38" ry=".8" style="fill:none;stroke:#000;stroke-width:.3"/><ellipse cx="38.76" cy="-36.43" rx="2.38" ry=".79" style="fill:none;stroke:#000;stroke-width:.3"/><ellipse cx="5.25" cy="-33.09" rx="2.38" ry=".79" style="fill:none;stroke:#000;stroke-width:.3"/><ellipse cx="26.38" cy="-29.33" rx="2.38" ry=".8" style="fill:none;stroke:#000;stroke-width:.3"/><ellipse cx="46.56" cy="-25.46" rx="2.38" ry=".8" style="fill:none;stroke:#000;stroke-width:.3"/><ellipse cx="11.51" cy="-21.33" rx="2.38" ry=".8" style="fill:none;stroke:#000;stroke-width:.3"/><ellipse cx="34.14" cy="-17.72" rx="2.38" ry=".79" style="fill:none;stroke:#000;stroke-width:.3"/><ellipse cx="18.73" cy="-10.58" rx="2.38" ry=".8" style="fill:none;stroke:#000;stroke-width:.3"/><path d="M0-13.48h.26c1.32 0 2.39-.35 2.39-.79 0-.44-1.07-.8-2.39-.8l-.26.01" style="fill:none;stroke:#000;stroke-width:.3"/><ellipse cx="38.38" cy="-6.46" rx="2.38" ry=".8" style="fill:none;stroke:#000;stroke-width:.3"/><ellipse cx="17.11" cy="-2.57" rx="2.38" ry=".8" style="fill:none;stroke:#000;stroke-width:.3"/><path d="M54.13-45c-1.21.04-2.16.38-2.16.8 0 .4.95.74 2.16.78M54.13-15.06c-1.2.04-2.13.38-2.13.8 0 .4.93.74 2.13.78M30.78-50.45h-2.43M17.34-50.45H4.59M42.02-50.45h3.13M4.59-50.45H0M54.13-50.45h-8.98M17.34-50.45h11.01M42.02-50.45H30.78M34.79-46.28H7.97M54.13-46.28H34.79M7.97-46.28H0M12.72-42.09H0M27.54-42.09h13.43M12.72-42.09h14.82M53.79-42.09h.34M53.79-42.09H40.97M54.13-12.48h.06M41.11-12.48h-14M41.11-12.48h12.58M53.69-12.48h.44M12.61-12.48H0M12.61-12.48h14.5M38.79-8.7h8.28M24.79-8.7h7.68M51.23-8.7h-4.16M18.47-8.7h-8.18M5.47-8.7H0M10.29-8.7H5.47M38.79-8.7h-6.32M24.79-8.7h-6.32M51.23-8.7h2.9M32.63-38.07H19.31M47.25-38.07H32.63M47.25-38.07h6.88M6.63-38.07H0M19.31-38.07H6.63M13.04-34.79H0M41.86-34.79h12.06M28.05-34.79h13.81M28.05-34.79H13.04M53.92-34.79h.21M7.49-31.36H0M51.72-31.36h-2.17M7.49-31.36h13.44M49.55-31.36H34.62M20.93-31.36h13.69M51.72-31.36h2.41M54.06-27.32h.07M40.87-27.32h13.19M12.5-27.32H0M40.87-27.32H27.5M27.5-27.32h-15M0-23.52h54.13M0-19.32h54.13M54.19-19.32h-.06M51.83-16.09h2.3M51.83-16.09H0M23.33-.92h13.69M37.02-.92H50.4M50.4-.92h3.73M0-.92h9.02M9.02-.92h14.31M0-4.29h54.13M5.47-8.7 2.88-4.32M5.5-8.77l-.03.07M18.5-8.77l-.03.07M18.47-8.7l-2.59 4.38M29.88-4.32l2.59-4.38M32.5-8.77l-.03.07M47.07-8.7l-2.63 4.38M50.4-.92l-.02.03M50.4-.92l2.04-3.34M37.02-.92l2.05-3.34M37.02-.92 37-.89M23.33-.92l2.05-3.34M23.33-.92l-.01.03M9.02-.92 9-.89M9.02-.92l2.05-3.34M51.23-8.7l2.46-3.78M51.23-8.7l-.04.06M53.69-12.48l.01-.02M47.32-12.52l2.12-3.56M47.38-23.45l-2.56 4.06M51.83-16.09l2.04-3.2M51.83-16.09l-.01.01M51.82-23.58l2.24-3.74M54.07-27.33l-.01.01M49.55-31.36l-2.42 4.03M49.57-31.39l-.02.03M51.72-31.36l2.2-3.43M51.72-31.36l-.03.03M53.93-34.81l-.01.02M47.25-38.07v-.01M47.25-38.07l-2 3.24M53.79-42.09l.03-.05M53.79-42.09l-2.43 4.01M46.19-42.14l2.66-4.11M53.91-50.44l-2.61 4.11M45.15-50.45v.01M45.15-50.45l2.29-3.75M38.79-8.7l-.04.06M41.11-12.48l.02-.04M41.11-12.48 38.79-8.7M27.13-12.52l-.02.04M24.79-8.7l-.04.06M27.11-12.48 24.79-8.7M12.61-12.48 10.29-8.7M10.29-8.7l-.04.06M12.61-12.48l.02-.04M32.44-12.52l2.13-3.56M18.75-12.52l2.13-3.56M5.5-12.52l2.13-3.56M40-16.14l1.94-3.13M25.75-16.14l1.94-3.13M10.69-16.14l1.94-3.13M33.07-23.45l-2.57 4.06M19.44-23.45l-2.56 4.06M6.44-23.45l-2.56 4.06M40.87-27.32l.01-.01M40.87-27.32l-2.24 3.74M27.5-27.33v.01M27.5-27.32l-2.25 3.74M12.5-27.33v.01M12.5-27.32l-2.25 3.74M34.63-31.39l-.01.03M32.19-27.33l2.43-4.03M20.93-31.36l-2.43 4.03M20.93-31.36l.01-.03M7.49-31.36l-2.42 4.03M7.49-31.36l.01-.03M41.86-34.79l.02-.04M41.86-34.79l-1.98 3.4M28.05-34.79l.02-.04M28.05-34.79l-1.98 3.4M13.04-34.79l.03-.04M13.04-34.79l-1.97 3.4M32.63-38.07l-2 3.24M32.63-38.07v-.01M19.31-38.07l-1.99 3.24M19.31-38.07l.01-.01M6.63-38.07v-.01M6.63-38.07l-2 3.24M40.97-42.09l.03-.05M38.57-38.08l2.4-4.01M27.54-42.09l.03-.05M25.13-38.08l2.41-4.01M12.72-42.09l.03-.05M12.72-42.09l-2.4 4.01M34.79-46.28l-2.54 4.14M34.79-46.28l.03-.05M18.63-42.14l2.5-4.13M7.97-46.28l.03-.05M7.97-46.28l-2.53 4.14M42.02-50.45l-2.52 4.12M42.02-50.45l.03-.04M25.82-46.33l2.53-4.12M28.38-50.49l-.03.04M13.46-50.41l-2.52 4.08M30.78-50.45l2.28-3.75M30.77-50.44l.01-.01M17.34-50.45l2.29-3.75M17.34-50.45l-.01.01M4.58-50.44l.01-.01M4.59-50.45l2.29-3.75M47.88-.83l-.45.75M33.5-.83l-.45.75M20.07-.83l-.46.75M7.32-.83l-.45.75" style="fill:none;stroke:#000;stroke-width:.3"/></svg>