<svg xmlns="http://www.w3.org/2000/svg" xml:space="preserve" width="54.13" height="54.13" viewBox="0.15 -54.35 54.13 54.13"><path d="M.15-54.35h54.13V-.22H.15z" style="fill:none"/><path d="M51.47-54.35c-.35-.02-.72-.04-1.09-.04-1.06 0-2.07-.06-3.15.04M45.84-50.55a7 7 0 0 0 2.45.33M47.23-54.35c-.6.05-1.2.15-1.86.35-.9.27-1.47 1.15-1.12 2.09.24.59.89 1 1.42 1.3l.17.06M48.3-50.22c.95 0 1.93-.1 2.9-.04 1.02.1 2.07.07 3.08-.14M51.47-54.35c.94.05 1.84.16 2.8.28M41.84-50.66c-.88.16-1.75.28-2.62.37M34.9-50.07c1.45 0 2.88-.07 4.32-.22M34.9-50.07c-.96 0-1.92-.03-2.9-.07-.34 0-.68-.07-1-.2" style="fill:none;stroke:#000;stroke-width:.3"/><path d="M31-50.33c-.83-.3-1.52-.96-1.6-1.82-.08-.92.54-1.47 1.12-1.7 1.89-.71 4.15-.33 6.28-.33 2.83 0 5.74-.85 7.22 1.68.35.59-.47 1.53-1.18 1.65l-1 .2M25.83-50.46l-1.43.29M17.9-50.22c-1.2-.32-2.36-.91-2.24-1.87.7-1.78 2.2-2.2 3.84-2.26M20.03-49.89l-.73-.05c-.42-.05-.92-.14-1.4-.28M19.5-54.35c.41-.02.83-.02 1.25 0M25.86-54.35c-.6-.05-1.25-.03-1.9 0M20.75-54.35c.67.01 1.33.05 1.95.04l1.27-.04M20.03-49.89c1.5.07 2.94-.04 4.37-.29M25.83-50.46c.8-.18 1.59-.39 2.4-.63.61-.08 1.28-.84 1.01-1.28-.62-1.46-1.9-1.89-3.37-1.98M9.73-54.35h.02c.47-.02.97-.03 1.49 0M9.4-54.35h.33M8.67-54.35l.42-.05c.11-.02.15.03.3.05M4.1-54.35c.74-.17 1.7-.06 2.74 0M6.83-54.35c.6.03 1.22.05 1.84 0" style="fill:none;stroke:#000;stroke-width:.3"/><path d="M4.1-54.35c-.86.19-1.43.75-1.5 2.2 0 .53.79 1.33 1.58 1.6 3.27 1.14 6.72.17 10.26-.18.7 0 1.01-.67 1.15-1.6.03-1.45-2.22-1.94-4.35-2.02M51.87-46.4c-1.1-.3-1.86-.9-1.99-1.95-.06-.5.7-1.68 2.17-1.72.96-.03 1.58-.15 2.23-.25M53.2-46.2c.34.03.7.04 1.08.04M53.2-46.2c-.48-.03-.93-.1-1.33-.2M41.84-50.66c.83-.02 1.65.01 2.38.01l1.62.1M48.3-50.22c-.72-.18-1.58-.27-2.46-.33" style="fill:none;stroke:#000;stroke-width:.3"/><path d="m46.33-46.52 1.7-.15c.52 0 1.58-1.18 1.78-1.68.41-1.03-.33-1.57-1.52-1.87M39.22-50.29a3.34 3.34 0 0 0-2.33 2.39c.19 1.95 3.85 1.88 7.3 1.58M46.33-46.52l-2.13.2M41.84-50.66c-.9.02-1.82.1-2.62.37M30.2-46.36c-3.5.28-6.82-.01-7.34-1.9M25.83-50.46c-.37 0-.94.13-1.43.29M22.8-48.53c-.02-.36.1-.82.7-1.27.17-.1.51-.25.9-.38M34.9-50.07c-1.2-.1-2.56-.2-3.9-.26M30.2-46.36c.84-.07 1.7-.17 2.53-.3M22.8-48.53a1.67 1.67 0 0 0 .06.28M31-50.33l-1-.05c-1.57-.07-2.53.13-3.94-.04a.85.85 0 0 0-.23-.04" style="fill:none;stroke:#000;stroke-width:.3"/><path d="m34.9-50.07.48.04c.71.18 1.46.75 1.55 1.37.27.8-.88 1.42-1.55 1.55-.8.16-1.71.32-2.65.46M22.8-48.53c.04.1.06.18.06.28M20.03-49.89c.4.05.83.1 1.3.13.8.09 1.15.53 1.46 1.2l.02.03M18.72-46.5c.95-.13 1.87-.28 2.7-.43.53-.1 1.43-.68 1.44-1.32M11.9-46.22c1.2.13 2.6.12 4.02.02M10.2-46.55c-1.04-.32-1.77-.83-2.04-1.62-.09-1.77 4.55-2.52 7.03-2.34h.26c.86.03 1.6.15 2.44.3M18.72-46.5c-.92.13-1.87.23-2.8.3M20.03-49.89c-.82-.1-1.5-.22-2.14-.33M11.9-46.22a9.23 9.23 0 0 1-1.7-.33M45.68-42.19c1.07.12 2.08.07 3.07-.06M50.22-42.5c-.49.1-.98.19-1.47.25M53.2-46.2c.44.12.8.28 1.08.5M46.33-46.52c.62 0 1.24.03 1.87.03 1.2 0 2.52-.02 3.67.08M42.14-44.35c.3.9 1.12 1.55 2.1 1.88M44.24-42.47c.3.1.63.18.96.22l.48.07M50.22-42.5c1.01-.19 2.03-.43 3.1-.63.34-.06.69-.24.96-.51M46.33-46.52a9.1 9.1 0 0 0-2.13.2M42.1-44.46c-.17-.7.8-1.32 1.5-1.68l.6-.18M53.2-46.2c-.4-.1-.85-.16-1.33-.2M42.14-44.35l-.04-.1M29.66-42.6c.68.16 1.42.23 2.01.26l.2-.01M30.2-46.36c-1.14.32-2.07.96-2.5 2.17.02.88.92 1.34 1.97 1.59M42.1-44.46c-1.03-2.15-3.98-1.89-6.27-2.03-.94-.06-2.02-.16-3.1-.16M40.09-42.69c-1.16.14-2.25.19-3.32.2M30.2-46.36a9.47 9.47 0 0 1 2.53-.3M36.77-42.48c-1.63.03-3.21 0-4.9.13M42.14-44.35a.5.5 0 0 0-.04-.1M42.14-44.35c.1.5-.54 1.45-1.36 1.57l-.7.1" style="fill:none;stroke:#000;stroke-width:.3"/><path d="M14.1-44.18c.19-1.13.88-1.72 1.82-2.02M22.9-42.36c.76-.03 1.52-.1 2.28-.23M14.09-43.95c.05.6.86 1.06 1.64 1.28M18.72-46.5c-.99 0-1.99.04-2.8.3M18.54-42.51c-.83-.05-1.66-.1-2.51-.1l-.3-.06M14.09-43.95a2.75 2.75 0 0 1 .02-.22M22.9-42.36c-1.44.04-2.89-.07-4.35-.15M25.18-42.6c.4-.06.79-.15 1.19-.27.7-.17 1.5-.75 1.26-1.56-.6-2.1-3.12-2.24-6.48-2.06-.72.04-1.57 0-2.43 0M10.2-46.55c-.84-.07-1.72-.04-2.57-.03-.95.02-2.07-.07-3.12-.04M2.25-42.57c.08.03.17.05.26.06l.46-.03M2.5-46.32c-.97.33-1.64 1-1.67 2.3 0 .48.7 1.23 1.42 1.45M10.23-42.81c-.8.05-1.6.08-2.39.11M4.5-46.62c-.72.02-1.42.1-2 .3M14.09-43.95c-.13.45-.75.86-1.15.9-.92.1-1.82.18-2.7.24M11.9-46.22c.86.3 1.6.83 2.1 1.76.06.1.1.19.1.28" style="fill:none;stroke:#000;stroke-width:.3"/><path d="M14.09-43.95a.62.62 0 0 0 .02-.23M11.9-46.22a6.94 6.94 0 0 0-1.7-.33M7.84-42.7c-1.61.06-3.22.1-4.87.17M48.85-38.9l.47.07 1.48.09M50.22-42.5c1.36-.14 2.68-.2 4.06-.11M50.22-42.5l-.91.12a2.3 2.3 0 0 0-.56.13M48.75-42.25c-.82.31-1.49 1.06-1.52 1.86-.04.92.8 1.31 1.62 1.48M50.8-38.74c1.17.07 2.33.13 3.48.12M40.09-42.69l.38.05h.44c1.07.19 2.26.1 3.33.17M38.71-38.83c2.48-.47 4.66.41 7.02-.18.82-.11 1.65-1.17 1.35-1.82a2.41 2.41 0 0 0-1.4-1.36M45.68-42.19a5.02 5.02 0 0 0-1.44-.28M37.06-38.73c.55.05 1.1.02 1.65-.1M40.09-42.69c-1.23-.11-2.14 0-3.32.2M37.06-38.73c-.5-.04-.99-.14-1.47-.28a2.24 2.24 0 0 1-1.47-1.23c-.36-.83.52-1.88 1.3-2 .5-.1.94-.17 1.35-.24" style="fill:none;stroke:#000;stroke-width:.3"/><path d="M31.16-38.89c.56-.05 1.13-.12 1.72-.23 1.1-.21 1.12-1.54 1-1.54.18-1.14-.82-1.47-1.65-1.59l-.36-.1M27.48-42.7c.9.1 1.47.07 2.18.1M25.18-42.6c.3-.02.64-.06 1.04-.12.3-.04.8.06 1.26.01M22.9-42.36l-.46.07c-.76.1-1.77.7-2 1.47M25.18-42.6c-.91.1-1.46.12-2.28.24M27.81-42.78c-.1.04-.21.06-.33.07M31.16-38.89c-.54.05-1.06.07-1.58.08M29.58-38.81c-1.97.03-3.89-.16-6-.12-1.17 0-2.78-.25-3.13-1.31l-.04-.17M29.66-42.6c.3.01.64.04 1.04.09.22-.05.76.05 1.17.16M27.48-42.7l-.08-.02M20.45-40.82c-.04.13-.05.27-.03.41M5.7-41.16l-.15.46c-.08.33-.05.6.05.8M5.7-41.16c.36-.86.96-1.18 1.97-1.49l.17-.05M10.23-42.81l-.27-.03c-.6.06-1.51-.02-2.12.14" style="fill:none;stroke:#000;stroke-width:.3"/><path d="M20.45-40.82v-.01c-.2-1.01-.93-1.47-1.9-1.68M7-39.01a2.2 2.2 0 0 1-.75-.23 1.7 1.7 0 0 1-.65-.65M10.23-42.81c.96.05 1.83-.13 2.85.03.8.13 1.73.12 2.65.1M18.54-42.51c-.82-.18-1.81-.17-2.81-.16M20.41-40.4c-.18.55-.86 1.1-1.6 1.2-3.4.49-5.86.09-9.28.09-.4-.02-.81.02-1.22.07M7-39.01c.43.06.87.01 1.31-.03M20.41-40.4a.84.84 0 0 0 .04-.42M50.8-38.74c.45.06.89.15 1.34.25 1 .3 1.95.43 2.07 1.37.1 1.31-.94 1.9-2.19 2.12M48.85-38.9c.65 0 1.3.06 1.95.16M52.02-35c-.46.08-.96.11-1.43.11M48.85-38.9c-.45-.02-.9-.01-1.36.01-2.24.12-5.6.04-5.77 2.48.38 1.14 2 1.53 3.3 1.65 1.53.11 2.95-.24 4.54-.18.31.03.66.05 1.02.05M28.93-34.94c3.19-.3 6.01-.1 9.19-.02M37.06-38.73c.55-.02 1.1-.06 1.65-.1M28.52-34.98c.13.04.27.05.41.04M37.06-38.73c-.95.04-1.89.03-2.82-.1-.42-.06-1.27-.07-1.68-.06-.46.02-.93 0-1.4 0M29.58-38.81c-.3.04-.6.11-.88.22-.9.32-1.96 1.04-1.67 2.04.15.55.77 1.37 1.49 1.57M38.12-34.96l1.07.02c.18 0 .37-.02.56-.05M31.16-38.89c-.54 0-1.07 0-1.58.08" style="fill:none;stroke:#000;stroke-width:.3"/><path d="M38.71-38.83c.42.06.89.18 1.36.18.77.17 1.47.76 1.65 1.41.25 1.16-.86 2.03-1.97 2.25M14.64-34.89c-1.24-.22-2.4-.77-2.41-1.88v-.05M25.28-35.14c.96-.35 1.72-1.01 1.65-2.16-.65-2.2-5.13-1.53-7.78-1.53-1.77 0-3.53-.35-5.12.3-.66.28-1.42.55-1.7 1.19M15.2-34.8l-.3-.05M19.15-34.73l-2.77-.03M15.2-34.8c.42.04.82.05 1.18.04M19.15-34.73a89.64 89.64 0 0 0 4.86-.12M25.28-35.14c-.4.15-.84.24-1.27.3" style="fill:none;stroke:#000;stroke-width:.3"/><path d="M12.34-37.34c-.07.15-.1.32-.11.52M14.64-34.89l.25.05M2.93-34.89c.86.1 1.72.1 2.58.08M3.23-38.88h-.05c-.39.03-.8.05-1.17.17M2.93-34.89c-.52-.06-1.04-.15-1.57-.29a1.75 1.75 0 0 1-1.2-1.21l-.01-.12M10.92-35.13l.1-.05c.7-.4.96-.9 1.2-1.64M2.01-38.71c-.13.04-.25.1-.36.18-.66.45-1.42.98-1.5 1.76" style="fill:none;stroke:#000;stroke-width:.3"/><path d="M8.31-39.04c1.84.03 3.67.44 4.03 1.7M9.46-34.7c-1.1.12-2.24-.08-3.39-.12l-.56.01M.15-36.77v.26M7-39.01l-.7.06c-1.04.12-2.03.18-3.07.07M8.31-39.04c-.44-.01-.89 0-1.3.03" style="fill:none;stroke:#000;stroke-width:.3"/><path d="m12.23-36.83.13-.42-.02-.1M10.92-35.13c-.48.24-.96.37-1.46.42M50.59-34.89c-.13.03-.26.07-.39.13-.76.4-1.93 1.2-1.58 2.14.19.54.76 1.03 1.4 1.28M52.02-35c.5.01 1.03.06 1.54.06h.72M53.13-30.85c.38.03.76.04 1.14.04M52.02-35c-.5-.02-.98 0-1.43.11" style="fill:none;stroke:#000;stroke-width:.3"/><path d="M53.13-30.85c-.82-.04-1.65-.14-2.51-.32a2.6 2.6 0 0 1-.6-.17M38.18-31.08c-1.1-.15-2.03-.82-2.35-1.68-.3-.77.53-1.6 1.23-1.94.34-.14.7-.22 1.05-.26M46.35-31.02a6.04 6.04 0 0 1-1.96.2M38.18-31.08l.3.03 1.8.06M44.39-30.82c-1.37-.03-2.72-.1-4.1-.17M46.35-31.02c1.08-.3 1.98-.94 2.16-2.08-.09-.97-.62-1.6-2.48-1.6-2.57 0-4.55-.18-4.55-.18L39.75-35M38.12-34.96a9 9 0 0 1 1.63-.03M28.93-34.94l-.41-.04M25.28-35.14c1.01-.1 2.11.05 3.24.16" style="fill:none;stroke:#000;stroke-width:.3"/><path d="m24.01-34.85-.44.2c-.77.42-1.7 1.36-1.36 2.18.53 1.36 2.52 1.14 3.94 1.14 3-.06 6 .75 8.97-.25.68-.23.63-1.17.53-2.07-.27-2.32-4.4-1.08-6.72-1.3" style="fill:none;stroke:#000;stroke-width:.3"/><path d="M25.28-35.14a4.8 4.8 0 0 0-1.27.3M15.84-30.88c-1.69.06-3.37.1-5.03-.12M15.2-34.8l-.17-.02-.14-.03M14.9-34.84l-.26-.05M10.92-35.13c1.2-.16 2.45.04 3.72.24M10.81-31c-.35-.05-.7-.1-1.05-.18M10.92-35.13a5.48 5.48 0 0 0-1.46.42M9.46-34.7c-.87.42-1.76 1.34-1.39 2.35.18.42.53.89 1 1 .23.07.46.12.7.17M15.2-34.8c.4.01.82-.12 1.18.04M15.84-30.88c1.06-.03 2.13-.07 3.2-.05.33 0 .67-.05 1.01-.13M20.05-31.06c1.1-.27 2.08-.97 1.99-2.05-.06-.77-1-1.36-1.95-1.48l-.94-.14M19.15-34.73c-.9-.12-1.8-.2-2.77-.03M46.35-31.02c-.67.04-1.36.07-1.96.2M53.3-27.28c-.27.07-.54.1-.8.12-.85.08-1.7.12-2.53.13M46.35-31.02c.7-.03 1.4-.07 1.97-.2a4.85 4.85 0 0 1 1.7-.12" style="fill:none;stroke:#000;stroke-width:.3"/><path d="M53.13-30.85c-.9-.29-1.8-.34-2.75-.44a6 6 0 0 0-.37-.05M53.44-27.32c.3-.08.58-.19.84-.33M53.13-30.85a5.64 5.64 0 0 1 1.15.51M44.39-30.82c-1.15.23-1.99.8-1.85 2.3.06.41.6.83 1.12 1 2.15.3 4.2.5 6.3.49M53.44-27.32l-.13.04M31.7-27.2c1.75-.04 3.46-.21 5.24-.02" style="fill:none;stroke:#000;stroke-width:.3"/><path d="m39.12-27.24.9-.16c1.11-.3 2.4-.88 2.58-2.12-.1-.9-1.05-1.3-2.31-1.47M38.18-31.08c-1.24.02-2.51.12-3.47.15-1.95.06-3.78-.33-5.72.06-1.03.2-1.67 1.41-1.47 1.94.24.81 1.02 1.4 1.96 1.61M31.7-27.2c-.51 0-1.02 0-1.53-.02a3.86 3.86 0 0 1-.68-.1M36.94-27.22l.48.06c.58.04 1.14 0 1.7-.08M38.18-31.08c.73-.01 1.46.01 2.1.1M15.84-30.88c.4-.11.81-.17 1.19-.17 1.05.04 2.02.05 3.02-.01M24.54-27.17c-.82.17-1.67.27-2.52.32" style="fill:none;stroke:#000;stroke-width:.3"/><path d="M22.02-26.86c-1.87.1-3.8-.08-5.7-.42-.94-.12-2.06-.53-2.24-1.41-.26-1.13.69-1.87 1.76-2.19M20.92-31.17c2.7-.47 5.75.06 6.42 1.47.3.77-.06 1.71-1.3 2.12-.49.17-.99.3-1.5.4" style="fill:none;stroke:#000;stroke-width:.3"/><path d="M21.27-31.17c-.42.05-.82.09-1.22.11M8.24-27.28c1.04.08 2.07.2 3.13.12l.17-.01M9.76-31.18a9.8 9.8 0 0 0-2.16-.1c-.57.03-1.23.03-1.9.05" style="fill:none;stroke:#000;stroke-width:.3"/><path d="M11.54-27.17c1.32-.1 2.82-.6 2.43-2.58-.07-.35-.6-.83-1.12-.89-.7-.1-1.36-.23-2.04-.36M8.24-27.28c-.47-.03-.93-.06-1.4-.06-2 .11-5.26.2-5.82-1.15M1.11-29.4c.32-.77.94-1.21 1.71-1.47M10.81-31l-1.05-.18M1.01-28.5a1.07 1.07 0 0 1-.07-.25c.04-.24.1-.45.17-.64M5.7-31.23c-1 .02-2.03.08-2.88.36M51.31-23.36l-.81-.03M53.3-27.28c-1.03 0-2.26.01-3.33.25M53.44-27.32l-.29-.02M47.67-25.49c.07-.55.64-.88 1.24-1.2a5.3 5.3 0 0 1 1.05-.34M53.45-27.28h-.15M47.73-24.98c.3 1.12 1.6 1.59 2.77 1.59M53.44-27.32c.27.02.55.03.84.03M47.67-25.49c-.02.15 0 .32.06.5M51.31-23.36c1 .04 1.98.08 2.97.06M33.94-25.27c0-.07.02-.14.04-.22M33.98-25.48c.19-.6.82-1.1 1.38-1.39a5.5 5.5 0 0 1 1.58-.35M37.65-23.34c.65.06 1.28.1 1.92.13M39.12-27.24c-.74-.01-1.47-.04-2.18.02M39.12-27.24c.63 0 1.26 0 1.9-.1 1.99-.3 4.75-.01 5.68.82.43.4.82.63.97 1.03" style="fill:none;stroke:#000;stroke-width:.3"/><path d="M47.73-24.98c.02-.2 0-.37-.06-.5M33.94-25.27v.29c.12.82 1.12 1.24 2 1.41.58.1 1.15.17 1.71.23M47.73-24.98c-.23.47-.7.94-1.18 1.06-2.41.54-4.67.78-6.98.7M24.54-27.17c-.92.03-1.82.08-2.52.32M28.34-23.27c.8.01 1.65-.03 2.48-.16M22.02-26.86c-.77.26-1.31.72-1.39 1.57M20.63-25.06c0 .51.3.85.7 1.02 2.24.83 4.53.72 7.01.77M20.63-25.3V-25.05M24.54-27.17c.88-.02 1.77-.02 2.5-.11.9-.11 1.68-.08 2.45-.04M33.94-25.27l-.01.04c-.18.53-.24.85-.89 1.15a8.2 8.2 0 0 1-2.22.65M33.98-25.48c.11-1.02-1.26-1.61-2.29-1.73M31.7-27.2l-.2-.02c-.7 0-1.36-.06-2.01-.1" style="fill:none;stroke:#000;stroke-width:.3"/><path d="M33.94-25.27c.02-.07.04-.14.04-.22M15-23.23c-1.54-.01-3.08-.13-4.7-.07M10.3-23.3l-.46.03c-.4.01-.86-.02-1.31-.1M20.63-25.06c-.16.78-1.52 1.47-2.48 1.61l-.7.1M20.63-25.06a.74.74 0 0 0 0-.23M15-23.23c.81 0 1.62-.03 2.45-.12M8.24-27.28c.27-.05.56-.07.83-.06.97 0 1.68.14 2.47.17M5.84-25.76c-.1.17-.16.35-.18.54.03.14.07.26.14.38" style="fill:none;stroke:#000;stroke-width:.3"/><path d="M20.63-25.3a.88.88 0 0 0-.23-.46c-1.76-2-4.62-1.12-7.16-1.42l-.51-.04c-.44.06-.82.06-1.2.05M5.84-25.76c.4-.73 1.36-1.32 2.4-1.52M8.53-23.37c-1.15-.2-2.3-.68-2.73-1.47M41.82-21.38c.07.77 1.05 1.36 1.79 1.7.4.14.82.22 1.23.27M46.16-19.38h.1c2.41-.18 4.77-.06 7.01-.77.47-.12 1.12-.65.88-1.24a3.44 3.44 0 0 0-2.84-1.97M41.9-21.86c-.07.17-.1.33-.08.48M41.9-21.86c1.12-2.53 4-1.18 6.24-1.53.76-.12 1.71.18 2.36 0M51.31-23.36a5 5 0 0 0-.81-.03M46.16-19.38c-.44.03-.88.02-1.32-.03M26.82-21.37v-.02a.96.96 0 0 1-.03-.4M30.82-23.43c1.26-.03 2.52 0 3.77.04M29.5-19.66l.14.04c1.38.26 2.69.42 4 .49M41.82-21.38c-.33 1.2-1.56 1.63-2.72 1.9M37.65-23.34c-1.14.05-2.26.22-3.41-.05M41.9-21.86c-.33-.74-1.34-1.15-2.33-1.35M37.31-19.23l1.58-.21.2-.05M41.9-21.86c-.01.17-.04.33-.08.48M39.57-23.21c-.27-.06-.54-.1-.8-.12a9.38 9.38 0 0 0-1.12-.01M26.79-21.8c.1-.67.87-1.28 1.55-1.47" style="fill:none;stroke:#000;stroke-width:.3"/><path d="M37.31-19.23a24.2 24.2 0 0 1-3.68.1M30.82-23.43c-.82.02-1.64.06-2.48.16M26.82-21.37c.4 1.06 1.5 1.43 2.68 1.72M15-23.23c.73-.19 1.6-.18 2.45-.12M26.82-21.37c-.06.8-.82 1.5-1.6 1.77M20.44-19.13c1.07.08 2.12.09 3.17-.08M17.45-23.35c.93.06 1.85.17 2.6.15 1.64-.04 2.93-.49 4.76-.07.82.23 1.7.64 1.94 1.35l.04.12M20.44-19.13c-1.52-.1-3.07-.35-4.63-.42M25.21-19.6l-.1.04c-.5.16-1 .28-1.5.36M26.82-21.37c.01-.14 0-.28-.03-.43M15-23.23c-.2.05-.39.11-.56.2-.37.17-1.46.8-1.54 2-.05.93 1.19 1.44 2.17 1.47M15.18-19.56h-.11M15.8-19.55a19.71 19.71 0 0 0-.62 0M10.3-23.3a16.6 16.6 0 0 0-1.77-.07M7-23.37l-.58-.02" style="fill:none;stroke:#000;stroke-width:.3"/><path d="M11.17-19.56c.68-.32 1.03-.87 1.76-1.92.33-.45-.14-1.09-.56-1.26a6.21 6.21 0 0 0-2.07-.56M7-23.37c-1.93-.17-3.9-.33-5.76.21-.65.18-1.3.91-.94 1.77.44 1.06.82 1.18 1.53 1.42.43.13.86.25 1.3.35M9.79-19.26c-1.59.16-3.14.17-4.67 0M8.53-23.37H7M7-23.37l.43.04M3.12-19.62c.66.16 1.33.27 2 .35M11.17-19.56c-.22.1-.48.18-.8.23l-.58.07M48.45-17.96c.2-.67.9-1.2 1.46-1.42 1.36-.46 2.86-.44 4.37-.35M48.39-17.48c0 .09.02.18.05.28.36.98 1.4 1.46 2.52 1.64M52.95-15.46l1.33.03M50.96-15.56l.48.07c.51 0 1.01.02 1.51.03M48.45-17.96c-.05.15-.07.31-.06.48" style="fill:none;stroke:#000;stroke-width:.3"/><path d="m45.63-15.54.69-.25c.84-.37 1.81-.9 2.07-1.7M43.79-15.16c.62-.07 1.23-.2 1.83-.39M46.16-19.38l.86.05c.6 0 1.28.7 1.4 1.17l.03.2" style="fill:none;stroke:#000;stroke-width:.3"/><path d="M48.39-17.48c.05-.15.07-.31.06-.49M44.84-19.4c-1.38-.02-2.74.03-4.18-.04a22.2 22.2 0 0 0-1.56-.05M39.42-15.38c-.77-.14-1.54-.32-2.3-.53a1.88 1.88 0 0 1-1.35-1.12c-.4-.96.72-1.92 1.54-2.2M46.16-19.38a34.5 34.5 0 0 0-1.32-.03M37.31-19.23l.1-.04c.54-.15 1.1-.21 1.69-.22M43.79-15.16c-.99.12-2 .1-3-.02M40.8-15.18a19.5 19.5 0 0 1-1.38-.2M23.61-19.2c-.78.38-1.56 1.22-1.28 2.17.18.53.71.95 1.3 1.06l.04.02M29.5-19.66a28.38 28.38 0 0 1 4.13.52M30.77-15.37c.68.05 1.3-.08 1.9-.21" style="fill:none;stroke:#000;stroke-width:.3"/><path d="M32.67-15.58c.42-.1.84-.18 1.27-.21 1.89-.12 1.65-1.06 1.65-1.89-.1-.85-1.07-1.22-1.96-1.45M25.96-15.63c-.77-.03-1.53-.12-2.29-.33M25.96-15.63c1.54.07 3.1-.06 4.74.25h.07M25.21-19.6a4.64 4.64 0 0 0-1.6.4M25.21-19.6c.94-.07 1.9.06 2.9-.02.47-.04.93-.05 1.39-.03M9.79-19.26c-.16.05-.32.1-.48.17-.77.3-1.83 1-1.47 2.06.17.53.7 1.18 1.35 1.24l.33.05M11.17-19.56c-.48.06-.94.16-1.38.3M15.18-19.56l.63.01M16.08-15.57c.69-.03 1.37-.08 2.06-.12M20.44-19.13c-1.81-.27-2.06-.4-3.97-.4l-.66-.02M9.52-15.74c.83.13 1.64.2 2.45.24M20.44-19.13l.27.04c.71.12 1.21.24 1.45.94.35 1.06-.84 2.34-1.77 2.36-.76.02-1.5.06-2.25.1M15.07-19.56h-.46a14.9 14.9 0 0 0-3.44 0M16.08-15.57c-1.36.08-2.73.13-4.11.07M15.18-19.56h-.11M45.63-15.54c-.66.04-1.3.15-1.84.38" style="fill:none;stroke:#000;stroke-width:.3"/><path d="M43.79-15.16c-.79.33-1.36.92-1.42 1.9 1 1.48 3.1 1.43 4.37 1.55.88.08 1.74.13 2.58.13M45.63-15.54c.95-.07 1.93 0 2.66.07.87.08 1.8-.03 2.67-.08M51.78-11.77c.66-.11 1.3-.27 1.96-.48.19-.06.37-.16.54-.3M52.95-15.46c.5.13.95.37 1.33.79M50.96-15.56c.71-.04 1.39-.05 2 .1M51.78-11.77c-.81.13-1.63.19-2.46.19M29.16-12.01c.18.05.36.09.54.1.63.07 1.26.12 1.88.16M30.77-15.37l-1.95.23c-.67.07-1.65.82-1.36 1.7.24.72.94 1.2 1.7 1.43M36.2-11.67c1.24-.05 2.47-.15 3.73-.34M30.77-15.37c.66-.08 1.27-.16 1.9-.21M40.8-15.18a17.65 17.65 0 0 0-1.37-.2M39.42-15.38c-1.7-.2-4.26-.38-4.89-.3h.12c-.7 0-1.34.04-1.98.1" style="fill:none;stroke:#000;stroke-width:.3"/><path d="M40.8-15.18c.65.15 1.3.53 1.5 1.16.33.94-.64 1.7-1.23 1.82l-1.14.2M36.2-11.67c-1.53.05-3.06.02-4.62-.08M16.06-12c.63.12 1.3.17 1.91.25h.05M18.14-15.69c-.7 0-1.38 0-2.06.12M21.27-15.97c-1 .34-2.06.3-3.13.28M21.93-11.76c-1.24.07-2.54.1-3.91 0M16.06-12c-.88-.17-1.68-.5-2.1-1.26l-.05-.13M21.93-11.76a48.5 48.5 0 0 0 2.27-.19M25.96-15.63c.78.28 1.2.75 1.15 1.49-.06.87-.44 1.9-1.3 2l-1.6.2M20.92-15.85a27.7 27.7 0 0 1 2.75-.1M25.96-15.63c-.58-.2-1.36-.3-2.29-.33M13.85-13.8a1 1 0 0 0 .06.4M16.08-15.57c-.3.06-.59.14-.88.25-.52.24-1.3.82-1.35 1.52M2.56-15.5c.73-.24 1.5-.33 2.27-.34M7.07-11.73a146 146 0 0 0 3.84-.18M2.42-11.91c.23.1.47.17.7.19l1 .02M13.9-13.4c-.03.65-.6 1.35-1.17 1.38l-1.82.1M7.07-11.73c-.97.03-1.95.05-2.95.03M2.56-15.5h-.03c-.53.18-.94.71-1.23 1.24-.47.94.25 1.94 1.12 2.35M9.52-15.74c-.84.02-1.7.07-2.5 0-.74-.05-1.47-.1-2.19-.1" style="fill:none;stroke:#000;stroke-width:.3"/><path d="M13.9-13.4c.02-.13 0-.27-.05-.4M13.85-13.8c0-.03-.02-.05-.03-.07a2.85 2.85 0 0 0-1.85-1.64M11.97-15.5a7.92 7.92 0 0 0-2.45-.24M51.17-7.76c1.05.08 2.08.14 3.1.12M51.78-11.77c.36.01.72.03 1.06.06.46.04.95.02 1.44-.02M47.12-9.43c.6.84 1.4 1.27 2.32 1.47M51.78-11.77c-.84-.04-1.7 0-2.46.19M47.2-9.83l-.12.34.04.05M47.2-9.83c.4-1 1.18-1.5 2.12-1.75M51.17-7.76l-.9-.08a6.64 6.64 0 0 1-.83-.12M36.3-7.94c.34.02.68.01 1-.01a30.5 30.5 0 0 1 2.34.01M47.2-9.83a1 1 0 0 1-.08.4M39.93-12c-1.24.07-2.52.07-3.73.33" style="fill:none;stroke:#000;stroke-width:.3"/><path d="M36.2-11.67c-.34.07-.69.17-1.02.3-.65.3-1.65 1.06-1.41 1.89.27 1.1 1.4 1.48 2.54 1.54M47.2-9.83c0-.1-.02-.2-.06-.3-.3-.65-1-1.24-1.89-1.54a13.79 13.79 0 0 0-5.32-.34M47.12-9.43c-.2.49-.75.9-1.16 1.07-2.11.64-4.2.5-6.31.42M20.23-10.09c-.01.12 0 .24.04.36M20.27-9.73l.06.13c.47 1.06 1.65 1.31 2.71 1.3M20.23-10.09c.05-.62.72-1.24 1.28-1.52a4 4 0 0 1 .42-.15M21.93-11.76a6.83 6.83 0 0 1 2.27-.19" style="fill:none;stroke:#000;stroke-width:.3"/><path d="M23.04-8.3c4.66-.1 4.7.74 8.06-.05.62-.15 2.43-.4 2.52-1.2.14-1.24-.77-1.89-2.03-2.2M31.58-11.75c-.73-.19-1.58-.25-2.42-.26" style="fill:none;stroke:#000;stroke-width:.3"/><path d="M24.2-11.95c.88.04 1.78.13 2.67.05.67-.06 1.48-.12 2.3-.11M10.91-11.91c-2.76-.15-3.17-.02-3.84.18M9.3-7.99l1.36.13M5.52-10.51c-.04.2-.04.4.02.61l.06.2M9.3-7.99l-.87-.08C7.26-8.24 5.99-8.61 5.6-9.7M5.52-10.51c.12-.55.62-.98 1.18-1.11l.37-.1" style="fill:none;stroke:#000;stroke-width:.3"/><path d="M16.06-12c-.79 0-1.61.04-2.46.02-.44.1-2.1.1-2.21.1l-.48-.03M14.74-7.72a32.9 32.9 0 0 1-4.08-.14M20.23-10.09l-.05-.07a4.04 4.04 0 0 0-2.16-1.6M20.27-9.73c-.09.52-.77 1.1-1.18 1.25-.8.27-1.6.46-2.4.58M16.06-12c.69 0 1.34.06 1.96.25M16.68-7.9c-.64.1-1.29.15-1.94.18M20.27-9.73a.56.56 0 0 0-.04-.36M41.72-6.26a2.44 2.44 0 0 0 0 .55M51.33-4.14c.4-.1.8-.21 1.23-.34 1.03-.3 1.71-.97 1.6-1.84-.07-.66-1.4-1.17-2.99-1.44M51.17-7.76c-.56-.1-1.15-.16-1.73-.2M45.86-3.88a9.62 9.62 0 0 1-2.22-.29M45.86-3.88c1.46.04 2.93-.15 4.44-.13M50.3-4h.14c.32-.03.6-.08.9-.14M41.73-5.7c.1.61.9 1.18 1.64 1.46l.27.08M41.72-6.26c.23-2.16 3.55-1.75 5.48-1.7l-.06.07c.65-.1 1.46-.12 2.3-.07M26.84-6.3c.15-.57 1-1 1.52-1.34 1.3-.8 7.03-.22 7.03-.22l.92-.08M37.63-3.87c-1.2.1-2.4.08-3.63 0" style="fill:none;stroke:#000;stroke-width:.3"/><path d="M36.3-7.94c1.17-.1 1.7-.2 3.24-.01l.1.01M26.84-6.3a.67.67 0 0 0 .08.5M41.73-5.7c.04-.19.04-.37 0-.56M37.63-3.87c.66-.06 1.32-.17 1.98-.33M31.05-4.1l-1.41-.08c-1.14-.12-2.23-.62-2.72-1.61M41.72-6.26a1.1 1.1 0 0 0-.06-.16 2.9 2.9 0 0 0-2.02-1.52M31.05-4.1c1 .08 1.98.17 2.95.23M41.73-5.7c-.15.62-.8 1.15-1.36 1.28-.26.08-.5.16-.76.22M23.04-8.3c-1.18.11-2.37.07-3.53.35-.93.22-1.9.1-2.83.05" style="fill:none;stroke:#000;stroke-width:.3"/><path d="m26.84-6.3.03.06c.06.15.07.3.05.45M13.12-6.34c-.07.21-.08.42.02.63M13.14-5.71c.47.97 1.5 1.42 2.6 1.6M13.12-6.34c.19-.51.81-1 1.32-1.26l.3-.12M16.68-7.9a5.23 5.23 0 0 0-1.94.18M23.04-8.3c1.45.17 3.14.57 3.8 2M15.75-4.11c.43.06.87.09 1.3.09h.13M17.18-4.02c2-.05 3.55.22 5.57.04.94-.11 2.06.03 2.82-.38.57-.28 1.25-.83 1.35-1.43M13.14-5.71a1.3 1.3 0 0 0-.02-.63M3.68-8.08c-.68-.04-1.3.02-1.95.35M2.66-4.2c.85.16 1.7.23 2.57.25M1.73-7.73l-.02.01C1-7.25 0-6.72.24-5.77c.17.65.64 1.12 1.12 1.23.43.14.86.25 1.3.34" style="fill:none;stroke:#000;stroke-width:.3"/><path d="M9.72-4.17c-1.51.11-3.01.25-4.5.22M9.72-4.17l.12-.01c.8-.06 1.1-.1 2.06-.3M13.14-5.71c-.23.58-.64 1.11-1.23 1.23M13.12-6.34c-.23-.8-1.23-1.3-2.04-1.44a8.06 8.06 0 0 0-.42-.08M9.3-7.99c-.88-.02-1.74.06-2.7.1-1.16.04-2.08-.15-2.92-.2M9.3-7.99a9 9 0 0 1 1.36.13M50.3-4c-.91.2-1.64.7-1.95 1.79M53.1-.23h-.9c-1.4.01-3-.35-3.9-1.54M48.35-2.21a3.8 3.8 0 0 0-.09.39l.04.05M50.3-4c.33-.08.67-.12 1.03-.14M51.33-4.14c.98-.05 2.04.07 2.95.08" style="fill:none;stroke:#000;stroke-width:.3"/><path d="M45.86-3.88a5 5 0 0 1 2.34 1.4c.08.09.12.17.15.27M45.86-3.88c-.7-.2-1.44-.27-2.22-.29M35.57-2.43c-.04.17-.03.35.02.55M43.64-4.17c-.55-.01-1.13 0-1.71.02l-.84-.14c-.54.03-1.02.05-1.48.09M37.63-3.87c.7-.2 1.31-.28 1.98-.33" style="fill:none;stroke:#000;stroke-width:.3"/><path d="M37.63-3.87a8.8 8.8 0 0 0-.74.25c-.63.27-1.2.66-1.32 1.2M48.3-1.77c-.2.5-.87 1-1.4 1.06-3.78.5-6.6.58-10.25-.11-.47-.1-.94-.6-1.06-1.06M48.3-1.77c.06-.15.08-.3.05-.45M33.58-.23c-.82.14-1.76.07-2.54 0M25.22-.23c.65.06 1.31.04 1.98 0" style="fill:none;stroke:#000;stroke-width:.3"/><path d="M35.6-1.88c-.24.7-.32.9-.97 1.3-.3.18-.67.29-1.05.35M31.05-4.1a7.27 7.27 0 0 1 2.95.23M31.04-.23l-.34-.03c-1.17-.15-2.34-.04-3.5.03M35.6-1.88a1.3 1.3 0 0 0-.03-.55M22.19-2.23c-.06.86.96 1.54 1.73 1.76.43.13.86.2 1.3.24M34-3.87c.73.27 1.4.78 1.57 1.44M22.19-2.23l.02-.18M22.21-2.41c.65-2.65 3.8-1.15 5.93-1.3.95-.07 1.92-.28 2.91-.38M15.75-4.11a14.9 14.9 0 0 1-1.55-.19c-.79-.15-1.55-.2-2.29-.18M9.72-4.17c.72-.18 1.44-.28 2.19-.3M15.75-4.11l1.43.09M22.19-2.23C21.92-.85 20.57-.44 19.2-.44c-3.62 0-6.54.18-10.02-.15-.76-.07-1.41-.7-1.7-1.35-.42-.89.64-1.83 1.4-2 .28-.1.55-.17.83-.23" style="fill:none;stroke:#000;stroke-width:.3"/><path d="M17.18-4.02c2.46.13 4.97.27 5.04 1.6M22.19-2.23l.02-.18M.15-50.4c.29-.05.57-.12.85-.22.64-.29 1.76-1.17 1.35-2.06-.3-.76-1-1.24-1.83-1.35l-.37-.05M4.5-46.62c.78-.13 1.5-.27 2.15-.4.52-.1 1.42-.88 1.42-1.41-.18-.89-1.33-1.5-2.4-1.68-1.23 0-2.37-.36-3.7-.36-.76 0-1.3.07-1.82.15M4.5-46.62c-.64.12-1.32.22-2 .3M.15-46.16c.75 0 1.55-.07 2.35-.16M.15-43.62c.28-.27.48-.64.5-1.1 0-.43-.18-.76-.5-1M.15-42.62l.26.02M5.6-39.9c.26-.3.4-.69.23-1.05a2.86 2.86 0 0 0-.12-.21M3.23-38.88c-.4.07-.81.13-1.22.17M2.97-42.53c1.1.08 2.12.37 2.74 1.37M.15-38.62c.62 0 1.25-.03 1.86-.1M.15-42.63c.66.07 1.39.05 2.1.06M3.23-38.88c.5-.1.99-.21 1.48-.36.28-.12.64-.36.89-.66M2.97-42.53a12.2 12.2 0 0 0-.73-.04M.15-30.81c.9 0 1.77-.03 2.67-.06M2.82-30.87c.6-.03 1.21-.05 1.83-.06.35-.04.71-.14 1.05-.3M2.93-34.89c.52 0 1.05-.01 1.6-.05.33-.02.67.03.98.13M5.7-31.23c.9-.43 1.62-1.26 1.36-2.12-.16-.66-.8-1.21-1.55-1.46M2.93-34.89c-.94 0-1.85-.03-2.78-.05M1.01-28.5c.13-.25.17-.55.1-.9M.15-27.64c.38-.21.7-.5.86-.85M.15-30.35c.47.26.87.59.96.95M5.84-25.76l.05.07c.13.26.07.56-.09.85M5.8-24.84c-.28.5-.87.95-1.39 1.1-1.44.3-2.85.42-4.26.44M5.84-25.76C4.77-27.64 2.3-27.3.15-27.3M3.12-19.62c.7.04 1.4.12 2 .35" style="fill:none;stroke:#000;stroke-width:.3"/><path d="m4.83-15.84.53-.13c.76-.17 1.7-1.12 1.3-1.88a2.6 2.6 0 0 0-1.54-1.42M.15-15.43c.81 0 1.61-.01 2.4-.07M.15-19.73l.79.05c.67.05 1.43.03 2.18.06M2.56-15.5c.76-.06 1.52-.16 2.27-.34M.15-12.54c.42-.36.7-.95.5-1.42-.15-.3-.32-.54-.5-.74M5.52-10.51l.01.02c.15.25.15.53.07.8" style="fill:none;stroke:#000;stroke-width:.3"/><path d="M5.6-9.7a2.67 2.67 0 0 1-1.92 1.62M2.42-11.91c.61-.02 1.2.03 1.7.21M5.52-10.51a2.5 2.5 0 0 0-1.4-1.19M.15-7.64c.53 0 1.06-.03 1.58-.09M1.73-7.73c.66-.07 1.3-.18 1.95-.35M2.42-11.91c-.73.02-1.51.12-2.27.18M2.66-4.2a6.4 6.4 0 0 1 2.57.25M.15-4.06h.38c.66-.02 1.4-.1 2.13-.14M.15-.23c2.33-.01 4.07-.24 4.96-.6.76-.42 1.96-1.05 1.54-1.94-.36-.6-.85-.97-1.42-1.18M54.28-50.4v.08M.15-42.63v.01M.15-50.32v-.07M.15-36.51v-.26" style="fill:none;stroke:#000;stroke-width:.3"/></svg>