<svg xmlns="http://www.w3.org/2000/svg" xml:space="preserve" width="54.13" height="54.13" viewBox="0.05 -54.13 54.13 54.13"><path d="M.05-54.13h54.13V0H.05z" style="fill:none"/><path d="M1-49.9c1.25-.25 3-1.33 6.17-.91M17.75-50.81c3.59-.67 6 .91 7.5 1.08M37.26-50.06c1.16.25 5.16.33 7.33-.75M3-45.98c-.8.4-1.87.65-2.95.78M38.26-40.06c1.25-.25 3-1.34 6.16-.92M23.42-10.9c1.83.67 4.1 1.37 6.83.25M41.59-10.23c1.5 0 2.58-.75 3.83-1.08s2.75-.5 4.42.08M7-11.48c2-.08 1.75 0 3.56.5 1.36.92 3.2.42 3.61.5M.05-.63c.34-.1.68-.2 1.04-.35M20.67-1.56a7.3 7.3 0 0 0-4.42-.09c-1.24.34-2.33 1.09-3.83 1.09M38.67-.65c-.42-.08-2.25.42-3.6-.5-1.82-.5-1.57-.58-3.57-.5M4.96-35.94c-2.23-.3-3.77.16-4.91.54M15.55-35.94c3.58-.67 6 .92 7.5 1.08M42.38-35.94c-2.17 1.08-6.17 1-7.33.75M9.21-20.9c1.84.67 4.68 1.28 7.42.17M27.38-20.23c1.5 0 2.58-.75 3.83-1.08a7.3 7.3 0 0 1 4.42.08M46.46-21.31c2-.09 1.75 0 3.56.5 1.36.91 3.2.41 3.61.5M7.34-6.44c-3.17-.41-4.92.67-6.17.92M17.92-6.44c3.58-.66 6 .92 7.5 1.09M37.42-5.69c1.17.25 5.17.34 7.33-.75M19.09-45.94c-3.17-.42-4.92.67-6.17.92M29.67-45.94c3.58-.67 6 .92 7.5 1.08M.42-41.02c3.58-.67 6 .92 7.5 1.08M19.92-40.27c1.17.25 5.17.33 7.33-.75M15.84-30.52c-2.74 1.11-5 .42-6.83-.25M35.42-31.1A7.29 7.29 0 0 0 31-31.2c-1.25.34-2.33 1.09-3.83 1.09M53.42-30.19c-.42-.08-2.25.42-3.6-.5-1.82-.5-1.57-.58-3.57-.5M22.75-25.9c1.84.67 4.1 1.37 6.84.25M49.17-26.23c-1.67-.58-3.17-.42-4.42-.08s-2.33 1.08-3.83 1.08M22-16.19c-3.16-.41-4.91.67-6.16.92M32.59-16.19c3.58-.66 6 .92 7.5 1.09M5.55-16.31c-1.48.73-3.8.93-5.5.9M13.17-25.19c-.41-.08-2.25.42-3.6-.5-1.81-.5-1.56-.58-3.56-.5M49.8-45.23c.73.16 2.57.25 4.37.03M48.38-1.23c1.6.58 3.52 1.18 5.8.6M52.92-35.02c.37-.07.78-.22 1.25-.38M52.34-15.56c.37.08 1.03.14 1.83.15" style="fill:none;stroke:#000;stroke-width:.3"/><path d="M.51-52.25h0M2.5-52.57h0M4.32-53.19h0M6.25-53.31h0M8.2-53.19h0M10.14-52.74h0M11.98-52.38h0M14.01-52.25h0M16.07-52.57h0M17.89-53.19h0M19.81-53.31h0M21.76-53.19h0M23.7-52.74h0M25.43-52.38h0M27.44-52.31h0M29.49-52.63h0M31.31-53.24h0M33.24-53.37h0M35.19-53.24h0M37.12-52.8h0M39.03-52.43h0M41.01-52.31h0M43.06-52.63h0M44.88-53.24h0M46.81-53.37h0M48.76-53.24h0M50.69-52.8h0M52.43-52.43h0M.87-47.68h0M2.69-48.3h0M4.62-48.42h0M6.56-48.3h0M8.5-47.85h0M10.35-47.48h0M12.38-47.36h0M14.43-47.68h0M16.25-48.3h0M8.46-50.45h0M10.31-50.08h0M12.34-49.96h0M14.4-50.28h0M16.21-50.7h0M18.18-48.42h0M20.13-48.3h0M22.07-47.85h0M23.8-47.48h0M25.8-47.42h0M27.86-47.73h0M29.68-48.35h0M31.6-48.48h0M33.55-48.35h0M35.49-47.91h0M26.58-50h0M28.64-50.32h0M30.45-50.94h0M32.38-51.06h0M34.33-50.94h0M36.27-50.49h0M37.39-47.54h0M39.37-47.42h0M41.43-47.73h0M43.25-48.35h0M45.17-48.48h0M47.12-48.35h0M49.06-47.91h0M50.79-47.54h0M52.78-47.47h0M45.8-50.81h0M47.75-50.69h0M49.68-50.24h0M51.42-49.88h0M53.4-49.81h0M.52-43.3h0M2.45-43.42h0M4.4-43.3h0M6.33-42.85h0M8.18-42.48h0M10.21-42.36h0M4.05-45.9h0M6-45.77h0M7.93-45.33h0M9.78-44.96h0M11.81-44.83h0M12.27-42.68h0M14.09-43.3h0M16.01-43.42h0M17.96-43.3h0M19.9-42.85h0M21.63-42.48h0M23.64-42.42h0M25.69-42.73h0M27.51-43.35h0M20.52-45.56h0M22.25-45.19h0M24.26-45.13h0M26.31-45.44h0M28.21-45.81h0M29.44-43.48h0M31.39-43.35h0M33.32-42.91h0M35.23-42.54h0M37.2-42.42h0M39.26-42.73h0M41.08-43.35h0M43.01-43.48h0M44.95-43.35h0M46.89-42.91h0M38.69-44.9h0M40.75-45.22h0M42.57-45.84h0M44.49-45.97h0M46.44-45.84h0M48.38-45.4h0M48.62-42.54h0M50.61-42.47h0M52.67-42.79h0M.69-38.47h0M2.62-38.59h0M4.56-38.47h0M6.5-38.02h0M8.35-37.65h0M10.38-37.53h0M12.43-37.85h0M14.25-38.47h0M16.18-38.59h0M18.13-38.47h0M20.07-38.02h0M9.16-39.92h0M11.22-40.23h0M13.04-40.85h0M14.96-40.98h0M16.91-40.85h0M18.85-40.41h0M21.8-37.65h0M23.8-37.58h0M25.86-37.9h0M27.68-38.52h0M29.6-38.65h0M31.55-38.52h0M33.49-38.08h0M35.39-37.71h0M28.96-41.06h0M30.81-40.85h0M32.76-40.73h0M34.69-40.29h0M36.6-39.92h0M37.37-37.58h0M39.43-37.9h0M41.25-38.52h0M43.17-38.65h0M45.12-38.52h0M47.06-38.08h0M48.79-37.71h0M50.78-37.64h0M52.84-37.96h0M45.71-40.81h0M47.65-40.37h0M49.38-40h0M51.37-39.93h0M53.43-40.25h0M1.2-32.68h0M3.02-33.3h0M4.95-33.42h0M6.9-33.3h0M8.84-32.85h0M10.68-32.48h0M12.71-32.36h0M14.77-32.68h0M6.26-35.77h0M8.2-35.32h0M10.04-34.95h0M12.07-34.83h0M14.13-35.4h0M16.59-33.3h0M18.51-33.42h0M20.46-33.3h0M22.4-32.85h0M24.13-32.48h0M26.14-32.42h0M28.19-32.73h0M30.01-33.35h0M31.94-33.48h0M33.89-33.35h0M24.05-34.98h0M26.07-35.24h0M28.13-35.56h0M29.95-36.18h0M31.85-35.97h0M33.8-35.56h0M35.82-32.91h0M37.73-32.54h0M39.7-32.42h0M41.76-32.73h0M43.58-33.35h0M45.51-33.48h0M47.45-33.35h0M49.39-32.91h0M51.12-32.54h0M44.13-35.98h0M45.89-35.85h0M47.84-35.73h0M49.78-35.29h0M51.51-34.92h0M53.11-32.47h0M1.04-28.01h0M2.86-28.63h0M4.78-28.76h0M6.73-28.63h0M1.26-30.44h0M3.25-31.17h0M5.23-31.35h0M7.3-31.23h0M8.67-28.19h0M10.52-27.82h0M12.54-27.69h0M14.6-28.01h0M16.42-28.63h0M18.34-28.76h0M20.29-28.63h0M22.23-28.19h0M14.33-25.39h0M16.15-26.01h0M18.08-26.13h0M20.03-26.01h0M21.55-26.06h0M23.96-27.82h0M25.97-27.75h0M17.63-30.98h0M19.56-31.1h0M21.51-30.98h0M23.44-30.54h0M25.18-30.17h0M28.03-28.07h0M29.84-28.69h0M31.77-28.81h0M33.72-28.69h0M35.66-28.25h0M37.56-27.88h0M39.54-27.75h0M41.59-28.07h0M43.41-28.69h0M45.34-28.81h0M36.69-30.74h0M38.6-30.37h0M40.57-30.25h0M42.63-30.56h0M44.45-31.18h0M47.29-28.69h0M49.23-28.25h0M51.47-27.88h0M53.23-27.81h0M.52-22.69h0M2.37-23.01h0M4.19-23.63h0M.88-25.13h0M2.73-25.44h0M4.55-26.06h0M6.12-23.76h0M8.06-23.63h0M1.71-20.44h0M3.59-21.06h0M5.51-21.19h0M7.46-21.06h0M10-23.19h0M11.85-22.82h0M13.88-22.69h0M15.93-23.01h0M17.75-23.63h0M19.68-23.76h0M21.63-23.63h0M23.57-23.19h0M25.3-22.82h0M27.3-22.75h0M29.36-23.07h0M31.18-23.69h0M33.1-23.81h0M35.05-23.69h0M36.99-23.25h0M38.89-22.88h0M31.3-25.98h0M33.22-26.1h0M35.17-25.98h0M37.11-25.54h0M39.01-25.17h0M40.87-22.75h0M42.93-23.07h0M44.75-23.69h0M46.67-23.81h0M48.79-23.6h0M50.73-23.23h0M52.66-22.85h0M51.2-25.62h0M52.93-25.25h0M1.37-17.69h0M3.37-18.01h0M5.19-18.63h0M7.12-18.76h0M9.06-18.63h0M11-18.19h0M12.85-17.82h0M14.88-17.69h0M16.93-18.01h0M18.75-18.63h0M20.68-18.76h0M22.63-18.63h0M24.57-18.19h0M26.3-17.82h0M18.61-21.1h0M20.54-21.22h0M22.49-21.1h0M24.43-20.66h0M26.16-20.29h0M28.3-17.75h0M30.36-18.07h0M32.18-18.69h0M34.1-18.81h0M36.05-18.69h0M37.99-18.25h0M39.89-17.88h0M41.87-17.75h0M43.93-18.07h0M45.75-18.69h0M37.21-20.87h0M39.11-20.5h0M41.09-20.38h0M43.15-20.69h0M45.13-21.06h0M47.67-18.81h0M49.62-18.69h0M51.56-18.25h0M53.29-17.88h0M1.2-12.86h0M3.2-13.18h0M5.02-13.8h0M6.95-13.92h0M8.9-13.8h0M10.84-13.36h0M12.68-12.98h0M6.71-16.31h0M8.64-16.44h0M10.59-16.31h0M12.53-15.87h0M14.3-15.31h0M14.71-12.86h0M16.77-13.18h0M18.59-13.8h0M20.51-13.92h0M22.46-13.8h0M24.4-13.36h0M26.13-12.98h0M28.14-12.92h0M30.19-13.23h0M32.01-13.86h0M23.52-15.81h0M25.25-15.44h0M27.26-15.38h0M29.31-15.69h0M31.3-15.98h0M33.94-13.98h0M35.89-13.86h0M37.82-13.41h0M39.73-13.04h0M41.7-12.92h0M43.76-13.23h0M45.58-13.86h0M47.51-13.98h0M49.45-13.86h0M51.39-13.41h0M41.53-15.4h0M43.58-15.72h0M45.4-16.34h0M47.33-16.46h0M49.28-16.34h0M51.21-15.9h0M53.12-13.04h0M1.92-8.14h0M3.74-8.76h0M5.67-8.88h0M1.22-10.4h0M3.04-11.02h0M4.96-11.15h0M7.62-8.76h0M9.55-8.31h0M11.4-7.94h0M13.43-7.82h0M15.48-8.14h0M8.7-5.99h0M10.54-5.62h0M12.57-5.5h0M14.63-5.81h0M16.3-6.15h0M17.3-8.76h0M19.23-8.88h0M21.18-8.76h0M23.11-8.31h0M15.69-10.53h0M17.51-11.15h0M19.43-11.27h0M21.38-11.15h0M24.85-7.94h0M26.85-7.88h0M28.91-8.19h0M30.73-8.81h0M32.65-8.94h0M34.6-8.81h0M36.54-8.37h0M26.69-5.4h0M28.75-5.72h0M30.57-6.34h0M32.49-6.46h0M34.44-6.34h0M36.38-5.9h0M38.44-8h0M32.05-11.15h0M33.97-11.27h0M35.92-11.15h0M37.86-10.7h0M39.76-10.33h0M40.42-7.88h0M42.48-8.19h0M44.3-8.81h0M46.22-8.94h0M48.17-8.81h0M50.15-8.48h0M52.09-8.1h0M53.83-7.93h0M46.18-6.5h0M48.13-6.38h0M50.28-5.98h0M52.09-5.67h0M53.78-5.5h0M51.38-10.81h0M53.37-10.74h0M.65-3.25h0M2.47-3.87h0M4.4-3.99h0M6.34-3.87h0M8.28-3.42h0M10.13-3.05h0M2.97-1.46h0M4.9-1.58h0M6.85-1.46h0M8.78-1.02h0M10.63-.65h0M12.16-2.93h0M14.21-3.25h0M16.03-3.87h0M17.96-3.99h0M19.91-3.87h0M21.84-3.42h0M23.58-3.05h0M25.58-2.98h0M27.64-3.3h0M29.46-3.92h0M22.35-.81h0M24.08-.44h0M26.09-.38h0M28.15-.69h0M29.96-1.31h0M31.38-4.05h0M33.33-3.92h0M35.27-3.48h0M37.17-3.11h0M39.15-2.98h0M41.21-3.3h0M43.03-3.92h0M44.95-4.05h0M46.9-3.92h0M40.77-.94h0M42.59-1.56h0M44.52-1.69h0M46.46-1.56h0M48.84-3.48h0M50.57-3.11h0M52.56-3.04h0" style="fill:none;stroke:#000;stroke-width:.7;stroke-linecap:round"/></svg>