<svg xmlns="http://www.w3.org/2000/svg" xml:space="preserve" width="54.13" height="54.13" viewBox="0.11 -54.13 54.13 54.13"><path d="M.11-54.13h54.13V0H.11z" style="fill:none"/><path d="M.11-54.13h54.13V0H.11z"/><path d="M3.38-37.9c-3.38.63-.38 2.5 1.5 2.38s3.12 0 4.12.38 4.5 1.25 7 1.12 3.5-.12 7.5-.25c6.75-.87.37-3-2.12-2.75-2.5.25-4.88-.12-7.13-1.25s-7.5-.25-10.87.38zM50.21-35.54c2.25-.75 1.13-2-3.75-2 0 0-2.75-.12-4.25-.62s-4-.13-7.37.62-1.5 1.75 0 1.88 2 0 6.12.75 7 .12 9.25-.63zM20.63-26.43c2.12 0 4.5.37 9.5 1.5s12.5-1 15.12-2 1.75-1.25.75-1.88-1.75-.62-5.62-.25c0 0-3.13 0-5.38-.37s-6.5.12-10.12.37-2.63 0-6.63.88.25 1.75 2.38 1.75zM50.84-14.91c4.25-.88.5-2.25-4.25-2.25 0 0-1.63 0-3.25-.38s-8-.87-9.88-.25c-1.87.63-5.37.63-7.25.75s-.87 1.5.63 1.5 4 .63 6.5.25 3.75-.12 6.12.88 7.13.37 11.38-.5zM17.96-50.75s-1.62 0-3.25-.37c0 0-3.41.37-5.08.87s-.17 2.17 1.2 2.25c2.38 1 7.13.38 11.38-.5s.5-2.25-4.25-2.25zM1.46-19.29c1.25.38 4.13.5 6.13.13s1.12.62.62 1 0 1.12 2 1 2.5-.13 4.13 0 1.75-.38 1.25-1 1.12-.75 2.5-.38 2.12-.12 3.62-1-1.5-1.62-5.37-1.62c0 0-2.13.12-4.38-.25s-6.87 0-9.62.37-2.13 1.38-.88 1.75zM24.34-8.16c5.12.25 2.98.08 3.73.45s3.62.38 5.37-.75 1.25-1.5-1.5-1.62-1.23-.2-3.23-.2-3.5-.26-3.5-.26c-5.62.38-6 2.13-.87 2.38zM32.09-44.29s-1.5.25-3.5.25-5.25.38-8 .5-3.25.5-1.5 1.63 4.62 1.12 5.37.75 3.38-.5 8.5-.75 4.75-2-.87-2.38zM.1-8.86c1.74.04 3.24-.05 3.24-.05 4.37.25 4.5-.5 5.25-.63s1.62-1-1.63-1H.11v1.68zM5.34-3.66c1.87-.13 5.5.5 8.75.87s2.37.13 4.25-.37-.5-1.63-1.5-1.38-.48.33-1.88.25C12.71-4.4 7.21-5.66 4.84-5.4s-1.38 1.87.5 1.75zM41.34-1.66c4.37.37 6.12.25 8.25-.75S48.52-7 43.77-6.12c0 0-3.37.12-5.5-.25s-2.8 2.83-4.18 3.46 2.87.87 7.25 1.25zM.1-27.11c1.46-.14 3.35-.25 5.61-.43 3.25-.25 2-.75.38-1.12s-3-.88-5.75-.88l-.23.04v2.39zM.1-43.27c1.22-.28 1.39-1.86 3.99-2.12 3.33-.34 1.5-2.34-.67-2.34-.7 0-1.9-.07-3.31-.18v4.64zM54.23-10.54h-.52c-1.62 0-5.25.88-2.75 1.38.97.2 2.17.27 3.27.3v-1.68zM54.23-29.5c-.34.05-1.1.17-2.4.34-1.87.25-.74 2.5.76 2.25.45-.08 1-.14 1.64-.2v-2.4zM54.23-47.9c-2.91-.24-6.72-.65-8.85-1-3.17-.5-6.5.18-7.84.84 0 0-1.5-1-1.16.34.33 1.33 3.66 3.33 6 3 2.33-.34 7.83.5 10.5 1.33.58.18 1.01.2 1.35.12v-4.64z" style="fill:#fff"/><path d="m.62-47.86-.51.52M2.82-47.73.11-44.95M2.31-44.8l2.56-2.63M39.44-6.29l-4.03 4.13M41.53-6.04l-3.87 3.97M43.95-6.12l-4.2 4.3M46.37-6.2l-4.41 4.51M48.12-5.61l-3.99 4.09M49.55-4.68l-3.08 3.17M.11-9.42l1.05-1.09M3.52-10.52 1.88-8.85M5.88-10.54 4.18-8.8M8.17-10.5 6.66-8.95M2.08-29.4.11-27.38M4.19-29.17l-1.88 1.93M6.02-28.65l-1.11 1.14M2.94-21.11l-1.76 1.8M3.22-19.01l2.32-2.37M5.43-18.87l2.56-2.63M10.4-21.58l-2.25 2.31M8.59-17.32l3.95-4.05M10.73-17.12l3.89-3.99M16.98-21.13l-3.86 3.96M16.9-18.65l2.31-2.37M21.23-20.69l-2.32 2.37M6.65-5.46 4.83-3.59M8.73-5.19 7.19-3.61M10.84-4.96 9.27-3.34M12.82-4.59 11.4-3.14M14.81-4.23l-1.36 1.39M17.48-4.57l-1.86 1.9M23.78-10.39 21.9-8.46M26.14-10.41l-2.2 2.25M28.28-10.21l-2.04 2.09M30.6-10.19l-2.41 2.46M32.77-10.02l-2.41 2.47M26.62-15.53l1.52-1.56M28.79-15.36l2.01-2.07M30.84-15.07l2.75-2.82M36.26-18.23l-2.88 2.96M35.88-15.44l2.59-2.66M40.64-17.93l-2.84 2.91M42.77-17.71l-3.21 3.29M44.78-17.38l-3.38 3.46M46.95-17.2l-3.17 3.24M49.12-17.03l-2.72 2.78M49.11-14.63l2.01-2.06M19.69-28.48l-1.7 1.74M20.1-26.5l2.38-2.44M22.37-26.43l2.59-2.66M24.41-26.13l3.09-3.16M26.31-25.68l3.7-3.79M32.43-29.55l-4.17 4.27M34.66-29.45l-4.38 4.5M36.71-29.15l-4.42 4.52M38.97-29.07l-4.32 4.42M41.36-29.12l-4.14 4.24M40.13-25.47l3.77-3.86M43.23-26.25l2.56-2.63M34.4-35.71l2.1-2.15M39.29-38.32l-2.75 2.81M38.59-35.21l2.96-3.03M40.7-34.97l2.78-2.85M42.68-34.61l2.97-3.04M45.04-34.63l2.81-2.88M47.58-34.84l2.29-2.34M3.94-38.04l-1.63 1.68M3.89-35.59l2.84-2.91M6.16-35.51l3.11-3.2M11.69-38.79l-3.4 3.48M10.1-34.76l3.61-3.7M21.07-43.61l-1.8 1.84M15.41-37.82l-3.49 3.58M21.01-41.16l2.53-2.59M17.22-37.27l-3.03 3.1M23.12-40.92l2.87-2.94M19.26-36.97l-2.8 2.88M25.94-41.42l2.53-2.59M18.73-34.02l2.98-3.06M28.45-41.59l2.47-2.53M21.23-34.19l2.53-2.59M30.93-41.74l2.32-2.37M23.68-34.3l1.88-1.93M33.44-41.92l1.85-1.89M9.65-48.45l2.2-2.25M11.39-47.84l3.27-3.35M13.38-47.48l3.27-3.35M15.89-47.66l2.99-3.07M18.31-47.74l2.74-2.81M21.25-48.36l1.76-1.8M37.2-46.66l1.88-1.93M38.51-45.6l3.24-3.32M40.19-44.92 44.17-49M42.32-44.72l4.02-4.11M44.71-44.77l3.68-3.76M46.79-44.5l3.7-3.8M48.93-44.3l3.64-3.73M50.88-43.91l3.35-3.43M52.72-43.39l1.51-1.56M52.87-10.42 51.48-9M53.65-8.83l.58-.59M51.69-27.17l2.25-2.31M53.89-27.03l.34-.35" style="fill:none;stroke:#000;stroke-width:.3"/></svg>