<svg xmlns="http://www.w3.org/2000/svg" xml:space="preserve" width="54.13" height="54.13" viewBox="0 -54.13 54.13 54.13"><path d="M0-54.13h54.13V0H0z" style="fill:none"/><path d="M0-13.39h54.13M0-27.52h54.13M0-37.89h54.13M1.33-1.58s-.12-1.38.13-2.5.12-1.25-.13-2-.25-1 0-1.63.13-.87 0-1.62 0-1 .75-2.5H.21M5.52-1.58s-.12-1.38.13-2.5.12-1.25-.13-2-.25-1 0-1.63.13-.87 0-1.62 0-1 .75-2.5H4.4M9.65-1.58s-.13-1.38.12-2.5.13-1.25-.12-2-.25-1 0-1.63.12-.87 0-1.62 0-1 .75-2.5H8.52M13.83-1.58s-.12-1.38.13-2.5.12-1.25-.13-2-.25-1 0-1.63.13-.87 0-1.62 0-1 .75-2.5h-1.87M17.96-1.58s-.13-1.38.12-2.5.13-1.25-.12-2-.25-1 0-1.63.12-.87 0-1.62 0-1 .75-2.5h-1.88M22.15-1.58s-.13-1.38.12-2.5.13-1.25-.12-2-.25-1 0-1.63.12-.87 0-1.62 0-1 .75-2.5h-1.88M26.33-1.58s-.12-1.38.13-2.5.12-1.25-.13-2-.25-1 0-1.63.13-.87 0-1.62 0-1 .75-2.5h-1.87M30.46-1.58s-.13-1.38.12-2.5.13-1.25-.12-2-.25-1 0-1.63.12-.87 0-1.62 0-1 .75-2.5h-1.88M34.65-1.58s-.13-1.38.12-2.5.13-1.25-.12-2-.25-1 0-1.63.12-.87 0-1.62 0-1 .75-2.5h-1.88M38.77-1.58s-.12-1.38.13-2.5.12-1.25-.13-2-.25-1 0-1.63.13-.87 0-1.62 0-1 .75-2.5h-1.87M42.96-1.58s-.13-1.38.12-2.5.13-1.25-.12-2-.25-1 0-1.63.12-.87 0-1.62 0-1 .75-2.5h-1.88M47.02-1.58s-.12-1.38.13-2.5.12-1.25-.13-2-.25-1 0-1.63.13-.87 0-1.62 0-1 .75-2.5H45.9M51.2-1.58s-.12-1.38.13-2.5.13-1.25-.12-2-.25-1 0-1.63.12-.87 0-1.62 0-1 .75-2.5h-1.88M1.2-19.46c.13-.5.13-1.12-.12-1.75s-.25-1.12.13-1.87.25-.75.12-1.5-.12-.5.38-1.48H.08M4.58-19.46c.13-.5.13-1.12-.12-1.75s-.25-1.12.12-1.87.25-.75.13-1.5-.13-.5.37-1.48H3.46M7.96-19.46c.12-.5.12-1.12-.13-1.75s-.25-1.12.13-1.87.25-.75.12-1.5-.12-.5.38-1.48H6.83M11.4-19.46c.12-.5.12-1.12-.13-1.75s-.25-1.12.13-1.87.25-.75.12-1.5-.12-.5.38-1.48h-1.63M14.77-19.46c.13-.5.13-1.12-.12-1.75s-.25-1.12.12-1.87.25-.75.13-1.5-.13-.5.37-1.48h-1.62M18.15-19.46c.12-.5.12-1.12-.13-1.75s-.25-1.12.13-1.87.25-.75.12-1.5-.12-.5.38-1.48h-1.63M21.58-19.46c.13-.5.13-1.12-.12-1.75s-.25-1.12.12-1.87.25-.75.13-1.5-.13-.5.37-1.48h-1.62M24.96-19.46c.12-.5.12-1.12-.13-1.75s-.25-1.12.13-1.87.25-.75.12-1.5-.12-.5.38-1.48h-1.63M28.27-19.46c.13-.5.13-1.12-.12-1.75s-.25-1.12.12-1.87.25-.75.13-1.5-.13-.5.37-1.48h-1.62M31.7-19.46c.13-.5.13-1.12-.12-1.75s-.25-1.12.13-1.87.25-.75.12-1.5-.12-.5.38-1.48h-1.63M35.08-19.46c.13-.5.13-1.12-.12-1.75s-.25-1.12.12-1.87.25-.75.13-1.5-.13-.5.37-1.48h-1.62M38.46-19.46c.12-.5.12-1.12-.13-1.75s-.25-1.12.13-1.87.25-.75.12-1.5-.12-.5.38-1.48h-1.63M41.83-19.46c.13-.5.13-1.12-.12-1.75s-.25-1.12.12-1.87.25-.75.13-1.5-.13-.5.37-1.48h-1.62M45.2-19.46c.13-.5.13-1.12-.12-1.75s-.25-1.12.13-1.87.25-.75.12-1.5-.12-.5.38-1.48h-1.63M48.65-19.46c.12-.5.12-1.12-.13-1.75s-.25-1.12.13-1.87.25-.75.12-1.5-.12-.5.38-1.48h-1.63M51.96-19.46c.12-.5.12-1.12-.13-1.75s-.25-1.12.13-1.87.25-.75.12-1.5-.12-.5.38-1.48h-1.63M0-50.89h54.13M1.2-42.83c.13-.5.59-1.13.34-1.75s-.7-1.13-.33-1.88.14-.75.01-1.5-.01-.5.49-1.47H.08M4.58-42.83c.13-.5.58-1.13.33-1.75s-.7-1.13-.33-1.88.14-.75.02-1.5-.02-.5.48-1.47H3.46M7.96-42.83c.12-.5.58-1.13.33-1.75s-.7-1.13-.33-1.88.14-.75.01-1.5-.01-.5.49-1.47H6.83M11.4-42.83c.12-.5.58-1.13.33-1.75s-.7-1.13-.33-1.88.13-.75 0-1.5 0-.5.5-1.47h-1.63M14.77-42.83c.13-.5.58-1.13.33-1.75s-.7-1.13-.33-1.88.14-.75.01-1.5 0-.5.5-1.47h-1.63M18.15-42.83c.12-.5.58-1.13.33-1.75s-.7-1.13-.33-1.88.13-.75 0-1.5 0-.5.5-1.47h-1.63M21.58-42.83c.13-.5.58-1.13.33-1.75s-.7-1.13-.33-1.88.14-.75.02-1.5-.02-.5.48-1.47h-1.62M24.96-42.83c.12-.5.58-1.13.33-1.75s-.7-1.13-.33-1.88.13-.75.01-1.5-.01-.5.49-1.47h-1.63M28.27-42.83c.13-.5.58-1.13.33-1.75s-.7-1.13-.33-1.88.14-.75.01-1.5 0-.5.5-1.47h-1.63M31.7-42.83c.13-.5.59-1.13.34-1.75-.25-.63-.7-1.13-.33-1.88s.13-.75.01-1.5-.01-.5.49-1.47h-1.63M35.08-42.83c.13-.5.58-1.13.33-1.75s-.7-1.13-.33-1.88.14-.75.02-1.5-.02-.5.48-1.47h-1.62M38.46-42.83c.12-.5.58-1.13.33-1.75s-.7-1.13-.33-1.88.13-.75.01-1.5-.01-.5.49-1.47h-1.63M41.83-42.83c.13-.5.58-1.13.33-1.75s-.7-1.13-.33-1.88.14-.75.02-1.5-.02-.5.48-1.47h-1.62M45.2-42.83c.13-.5.59-1.13.34-1.75s-.7-1.13-.33-1.88.13-.75.01-1.5-.01-.5.49-1.47h-1.63M48.65-42.83c.12-.5.58-1.13.33-1.75s-.7-1.13-.33-1.88.13-.75 0-1.5 0-.5.5-1.47h-1.63M51.96-42.83c.12-.5.58-1.13.33-1.75s-.7-1.13-.33-1.88.13-.75.01-1.5-.01-.5.49-1.47h-1.63M.96-33.92c0-.37 0-.87.12-1.5s0-.5.38-1.37H.2M3.77-33.92c0-.37 0-.87.13-1.5.12-.62 0-.5.37-1.37H3.02M6.65-33.92c0-.37 0-.87.12-1.5s0-.5.38-1.37H5.9M9.46-33.92c0-.37 0-.87.12-1.5s0-.5.38-1.37H8.7M12.4-33.92c0-.37 0-.87.12-1.5s0-.5.38-1.37h-1.25M15.2-33.92c0-.37 0-.87.13-1.5s0-.5.38-1.37h-1.25M18.08-33.92c0-.37 0-.87.13-1.5s0-.5.37-1.37h-1.25M20.9-33.92c0-.37 0-.87.12-1.5s0-.5.38-1.37h-1.25M23.77-33.92c0-.37 0-.87.13-1.5s0-.5.37-1.37h-1.25M26.58-33.92c0-.37 0-.87.13-1.5s0-.5.37-1.37h-1.25M29.46-33.92c0-.37 0-.87.12-1.5s0-.5.38-1.37H28.7M32.27-33.92c0-.37 0-.87.13-1.5s0-.5.37-1.37h-1.25M35.15-33.92c0-.37 0-.87.12-1.5s0-.5.38-1.37H34.4M38.02-33.92c0-.37 0-.87.13-1.5s0-.5.37-1.37h-1.25M40.83-33.92c0-.37 0-.87.13-1.5s0-.5.37-1.37h-1.25M43.7-33.92c0-.37 0-.87.13-1.5s0-.5.38-1.37h-1.25M46.52-33.92c0-.37 0-.87.13-1.5s0-.5.37-1.37h-1.25M49.4-33.92c0-.37 0-.87.12-1.5s0-.5.38-1.37h-1.25M52.2-33.92c0-.37 0-.87.13-1.5s0-.5.38-1.37h-1.25" style="fill:none;stroke:#000;stroke-width:.3"/></svg>