<svg xmlns="http://www.w3.org/2000/svg" xml:space="preserve" width="54.13" height="54.13" viewBox="0.11 -54.21 54.13 54.13"><path d="M.11-54.21h54.13V-.08H.11z" style="fill:none"/><path d="m53.27-53.25-.97.97M41.68-41.66l-.96.96M17.53-17.52l.97-.97M51.34-51.32l-.97.97M31.06-31.05l-.97.97M9.8-9.79l.96-.97M16.56-16.55l.97-.97M1.1-1.1l.96-.96M52.3-52.28l-.96.96M29.13-29.11l-.97.96M18.5-18.49l.96-.96M28.16-28.15l-.96.97M30.09-30.08l-.96.97M40.72-40.7l-.97.97M39.75-39.73l-.97.96M7.86-7.86l.97-.97M19.46-19.45l.97-.97M11.73-11.72l.97-.97M37.82-37.8l-.97.96M50.37-50.35l-.96.96M36.85-36.84l-.96.97M35.89-35.87l-.97.96M10.76-10.76l.97-.96M8.83-8.83l.97-.96M12.7-12.69l.96-.97M13.66-13.66l.97-.96M2.06-2.06l.97-.97M32.99-32.98l-.97.97M33.96-33.94l-.97.96M38.78-38.77l-.96.97M54.23-54.21l-.96.96M32.02-32.01l-.96.96M15.6-15.59l.96-.96M14.63-14.62l.97-.97M26.23-26.22l-.97.97M45.54-45.52l-.96.96M44.58-44.56l-.97.97M43.61-43.59l-.96.96M27.2-27.18l-.97.96M48.44-48.42l-.96.96M21.4-21.39l.96-.96M20.43-20.42l.97-.97M49.41-49.39l-.97.97M5.93-5.93l.97-.96M23.33-23.32l.97-.97M22.36-22.35l.97-.97M4.96-4.96l.97-.97M46.51-46.49l-.97.97M34.92-34.91l-.96.97M25.26-25.25l-.96.96M42.65-42.63l-.97.97M6.9-6.89l.96-.97M3.03-3.03 4-4M4.96-4.96 4-4M.11-.11l.99-.99M47.48-47.46l-.97.97M47.48-45.52l-.97.96M48.44-46.49l-.96.97M6.9-4.96l.96-.97M9.8-7.86l.96-.97M42.65-40.7l-.97.97M3.03-1.1 4-2.06M45.55-43.59l-.97.96M14.63-12.69l.97-.97M4-2.06l.96-.97M6.9-4.96 5.93-4M15.6-13.66l.96-.96M38.79-36.84l-.97.97M4.96-3.03 5.93-4M49.41-47.45l-.97.96M7.86-5.93l.97-.96M39.75-37.8l-.96.96M46.51-44.56l-.96.97M40.72-38.77l-.97.97M27.2-25.25l-.97.96M41.68-39.73l-.96.96M10.76-8.83l.97-.96M11.73-9.79l.97-.97M43.62-41.66l-.97.96M53.27-51.32l-.96.97M44.58-42.63l-.96.97M13.66-11.72l.97-.97M12.7-10.76l.96-.96M8.83-6.89l.97-.97M51.34-49.38l-.96.96M52.31-50.35l-.97.97M50.38-48.42l-.97.97M19.46-17.52l.97-.97M35.89-33.94l-.97.96M32.03-30.08l-.97.97M32.99-31.04l-.96.96M23.33-21.39l.97-.96M29.13-27.18l-.97.96M22.36-20.42l.97-.97M30.09-28.15l-.96.97M28.16-26.22l-.96.97M18.5-16.55l.96-.97M20.43-18.49l.97-.96M54.23-52.27l-.96.95M2.06-.13l.97-.97M31.06-29.11l-.97.96M33.96-32.01l-.97.97M21.4-19.45l.96-.97M24.3-22.35l.96-.97M25.26-23.32l.97-.97M37.82-35.87l-.97.96M36.85-34.91l-.96.97M16.56-14.62l.97-.97M17.53-15.59l.97-.96M34.92-32.98l-.96.97M6.9-3.03 7.86-4M26.23-22.35l.97-.97M27.2-23.32l.96-.97M30.09-26.22l-.96.97M29.13-25.25l-.97.96M33.96-30.08l-.97.97M32.99-29.11l-.96.96M31.06-27.18l-.97.96M5.93-2.06l.97-.97M47.48-43.59l-.97.96M4.96-1.1l.97-.96M46.51-42.63l-.96.97M24.3-20.42l.96-.97M51.34-47.45l-.96.96M25.26-21.39l.97-.96M48.45-44.56l-.97.97M49.41-45.52l-.96.96M52.31-48.42l-.97.97M9.8-5.93l.96-.96M53.27-49.38l-.96.96M7.86-4l.97-.96M8.83-4.96l.97-.97M50.38-46.49l-.97.97M35.89-32.01l-.97.97M42.65-38.77l-.97.97M37.82-33.94l-.97.97M36.85-32.97l-.96.96M14.63-10.76l.97-.96M54.23-50.34l-.96.96M16.56-12.69l.97-.97M32.03-28.15l-.97.97M15.6-11.72l.96-.97M40.72-36.84l-.97.97M18.5-14.62l.96-.97M39.75-35.87l-.96.97M19.46-15.59l.97-.96M17.53-13.66l.97-.96M4-.13l.96-.97M23.33-19.45l.97-.97M45.55-41.66l-.97.96M44.58-40.7l-.96.97M43.62-39.73l-.97.96M11.73-7.86l.97-.97M10.76-6.89l.97-.97M22.36-18.49l.97-.96M20.43-16.55l.97-.97M41.68-37.8l-.96.96M13.66-9.79l.97-.97M12.7-8.83l.96-.96M21.4-17.52l.96-.97M38.79-34.9l-.97.96M34.92-31.04l-.96.96M5.93-.13l.97-.97M7.86-2.06l.97-.97M54.23-48.41l-.96.96M12.7-6.89l.96-.97M35.89-30.08l-.97.97M22.36-16.55l.97-.97M37.82-32.01l-.96.97M31.06-25.25l-.97.96M36.86-31.04l-.97.96M39.75-33.94l-.96.97M6.9-1.1l.96-.96M41.69-35.87l-.97.97M40.72-34.9l-.97.96M21.4-15.59l.96-.96M20.43-14.62l.97-.97M23.33-17.52l.97-.97M25.26-19.45l.97-.97M33.96-28.15l-.97.97M29.13-23.32l.96-.97M32.03-26.22l-.97.97M28.16-22.35l.97-.97M32.99-27.18l-.96.96M34.92-29.11l-.96.96M26.23-20.42l.97-.97M24.3-18.49l.96-.96M27.2-21.39l.96-.96M38.79-32.97l-.97.96M11.73-5.93l.97-.96M10.76-4.96l.97-.97M50.38-44.56l-.97.97M48.45-42.63l-.97.97M47.48-41.66l-.97.96M53.27-47.45l-.96.96M8.83-3.03 9.8-4M51.34-45.52l-.96.96M52.31-46.49l-.97.97M49.41-43.59l-.96.96M9.8-4l.96-.96M13.66-7.86l.97-.97M18.5-12.69l.96-.97M17.53-11.72l.97-.97M42.65-36.83l-.96.96M19.46-13.66l.97-.96M45.55-39.73l-.97.96M16.56-10.76l.97-.96M44.58-38.77l-.96.97M15.6-9.79l.96-.97M46.51-40.7l-.96.97M43.62-37.8l-.97.97M14.63-8.83l.97-.96M51.34-43.59l-.96.96M52.31-44.56l-.97.97M53.27-45.52l-.96.96M35.89-28.15l-.97.97M31.06-23.32l.97-.97M54.23-46.48l-.96.96M42.65-34.9l-.96.96M28.16-20.42l.97-.97M30.09-22.35l.97-.97M38.79-31.04l-.97.96M15.6-7.86l.96-.97M16.56-8.83l.97-.96M33.96-26.21l-.97.96M7.86-.13l.97-.97M36.86-29.11l-.97.96M12.7-4.96l.96-.97M13.66-5.93l.97-.96M17.53-9.79l.97-.97M45.55-37.8l-.97.97M43.62-35.87l-.97.97M46.51-38.76l-.96.96M34.92-27.18l-.96.97M37.82-30.08l-.96.97M44.58-36.83l-.96.96M27.2-19.45l.96-.97M49.41-41.66l-.96.96M20.43-12.69l.97-.97M48.45-40.7l-.97.97M19.46-11.72l.97-.97M23.33-15.59l.97-.96M8.83-1.1l.97-.96M25.26-17.52l.97-.97M11.73-4l.97-.96M24.3-16.55l.96-.97M47.48-39.73l-.97.97M9.8-2.06l.96-.97M10.76-3.03l.97-.97M21.4-13.66l.96-.96M18.5-10.76l.96-.96M41.69-33.94l-.97.97M40.72-32.97l-.97.96M32.99-25.25l-.96.96M39.75-32.01l-.96.97M29.13-21.39l.96-.96M26.23-18.49l.97-.96M14.63-6.89l.97-.97M50.38-42.63l-.97.97M22.36-14.62l.97-.97M50.38-40.69l-.97.96M16.56-6.89l.97-.97M51.34-41.66l-.96.97M53.27-43.59l-.96.96M52.31-42.63l-.97.97M9.8-.13l.96-.97M27.2-17.52l.96-.97M35.89-26.21l-.97.96M22.36-12.69l.97-.97M10.76-1.1l.97-.96M28.16-18.49l.97-.96M17.53-7.86l.97-.97M34.92-25.25l-.96.97M11.73-2.06l.97-.97M29.13-19.45l.96-.97M32.99-23.32l.97-.96M36.86-27.18l-.97.97M32.03-22.35l.96-.97M24.3-14.62l.96-.97M54.23-44.55l-.96.96M37.82-28.14l-.96.96M45.55-35.87l-.97.97M25.26-15.59l.97-.96M26.23-16.55l.97-.97M38.79-29.11l-.97.97M30.09-20.42l.97-.97M42.65-32.97l-.96.96M41.69-32.01l-.97.97M43.62-33.94l-.97.97M44.58-34.9l-.96.96M40.72-31.04l-.96.96M39.76-30.08l-.97.97M31.06-21.39l.97-.96M23.33-13.66l.97-.96M20.43-10.76l.97-.96M21.4-11.72l.96-.97M46.52-36.83l-.97.96M13.66-4l.97-.96M12.7-3.03l.96-.97M19.46-9.79l.97-.97M15.6-5.93l.96-.96M18.5-8.83l.96-.96M47.48-37.8l-.96.97M14.63-4.96l.97-.97M49.41-39.73l-.96.97M48.45-38.76l-.97.96M15.6-4l.96-.96M14.63-3.03 15.6-4M34.93-23.32l.96-.96M27.2-15.59l.96-.96M51.34-39.73l-.96.97M26.23-14.62l.97-.97M31.06-19.45l.97-.97M46.52-34.9l-.97.96M24.3-12.69l.96-.97M30.09-18.49l.97-.96M54.23-42.61l-.95.95M32.03-20.42l.97-.97M17.53-5.93l.97-.96M16.56-4.96l.97-.97M42.65-31.04l-.96.97M19.46-7.86l.97-.97M18.5-6.89l.96-.97M33-21.39l.96-.96M25.26-13.66l.97-.96M33.96-22.35l.97-.97M52.31-40.69l-.97.96M47.48-35.87l-.96.97M44.58-32.97l-.96.96M38.79-27.18l-.97.97M37.82-26.21l-.96.96M36.86-25.25l-.97.97M40.72-29.11l-.96.97M45.55-33.94l-.97.97M43.62-32.01l-.97.97M20.43-8.83l.97-.96M21.4-9.79l.96-.97M48.45-36.83l-.97.96M49.41-37.8l-.96.97M39.76-28.14l-.97.96M11.73-.13l.97-.97M13.66-2.06l.97-.97M50.38-38.76l-.97.96M22.36-10.76l.97-.96M12.7-1.1l.96-.96M53.28-41.66l-.97.97M29.13-17.52l.96-.97M28.16-16.55l.97-.97M41.69-30.07l-.97.96M23.33-11.72l.97-.97M22.36-8.83l.97-.96M27.2-13.66l.96-.96M32.99-19.45l.97-.97M26.23-12.69l.97-.97M46.52-32.97l-.97.97M23.33-9.79l.97-.97M13.66-.13l.97-.97M34.93-21.39l.96-.96M38.79-25.25l-.96.97M47.48-33.94l-.96.97M53.28-39.73l-.97.97M36.86-23.32l.97-.96M52.31-38.76l-.97.96M43.62-30.07l-.97.96M51.34-37.8l-.96.97M19.46-5.93l.97-.96M18.5-4.96l.96-.97M48.45-34.9l-.97.96M40.72-27.18l-.96.97M21.4-7.86l.96-.97M24.3-10.76l.96-.96M25.26-11.72l.97-.97M20.43-6.89l.97-.97M33.96-20.42l.97-.97M41.69-28.14l-.97.96M35.89-22.35l.97-.97M28.16-14.62l.97-.97M15.6-2.06l.96-.97M54.23-40.68l-.95.95M30.09-16.55l.97-.97M14.63-1.1l.97-.96M31.06-17.52l.97-.97M39.76-26.21l-.97.96M42.65-29.11l-.96.97M17.53-4l.97-.96M29.13-15.59l.96-.96M50.38-36.83l-.97.96M32.03-18.49l.96-.96M45.55-32l-.96.96M44.59-31.04l-.97.97M49.41-35.87l-.96.97M16.56-3.03l.97-.97M47.48-32l-.96.96M46.52-31.04l-.97.97M41.69-26.21l-.97.96M45.55-30.07l-.96.96M44.59-29.11l-.97.97M43.62-28.14l-.96.96M28.16-12.69l.97-.97M26.23-10.76l.97-.96M27.2-11.72l.96-.97M42.66-27.18l-.97.97M31.06-15.59l.97-.96M19.46-4l.97-.96M29.13-13.66l.96-.96M30.09-14.62l.97-.97M18.5-3.03l.96-.97M49.42-33.93l-.97.96M25.26-9.79l.97-.97M34.93-19.45l.97-.97M24.3-8.83l.96-.96M23.33-7.86l.97-.97M50.38-34.9l-.96.97M20.43-4.96l.97-.97M21.4-5.93l.96-.96M37.83-22.35l.96-.97M51.35-35.87l-.97.97M53.28-37.8l-.97.97M52.31-36.83l-.96.96M40.72-25.25l-.96.97M33.96-18.49l.97-.96M54.23-38.75l-.95.95M36.86-21.39l.97-.96M48.45-32.97l-.97.97M35.9-20.42l.96-.97M38.79-23.32l.97-.96M32.03-16.55l.97-.97M17.53-2.06l.97-.97M22.36-6.89l.97-.97M15.6-.13l.96-.97M33-17.52l.96-.97M16.56-1.1l.97-.96M43.62-26.21l-.96.96M19.46-2.06l.97-.97M45.55-28.14l-.96.96M18.5-1.1l.96-.96M40.72-23.32l.97-.96M37.83-20.42l.96-.96M33-15.59l.96-.96M36.86-19.45l.97-.97M30.09-12.69l.97-.97M17.53-.13l.97-.97M38.79-21.38l.97-.97M39.76-22.35l.96-.97M32.03-14.62l.97-.97M46.52-29.11l-.97.97M35.9-18.49l.96-.96M21.4-4l.96-.96M20.43-3.03 21.4-4M26.23-8.83l.97-.96M25.26-7.86l.97-.97M24.3-6.89l.96-.97M51.35-33.93l-.97.96M52.31-34.9l-.96.97M23.33-5.93l.97-.96M47.48-30.07l-.96.96M31.06-13.66l.97-.96M22.36-4.96l.97-.97M29.13-11.72l.96-.97M50.38-32.97l-.96.97M44.59-27.18l-.97.97M34.93-17.52l.97-.97M48.45-31.04l-.97.97M28.16-10.76l.97-.96M27.2-9.79l.96-.97M54.23-36.81l-.95.95M53.28-35.86l-.97.96M42.66-25.25l-.97.97M33.96-16.55l.97-.97M49.42-32l-.97.96M35.9-16.55l.96-.97M39.76-20.42l.97-.96M36.86-17.52l.97-.97M22.36-3.03l.97-.97M45.55-26.21l-.96.96M21.4-2.06l.96-.97M26.23-6.89l.97-.97M27.2-7.86l.96-.97M20.43-1.1l.97-.96M23.33-4l.97-.96M49.42-30.07l-.97.96M40.73-21.38l.96-.97M52.31-32.97l-.96.97M19.46-.13l.97-.97M41.69-22.35l.97-.96M53.28-33.93l-.97.96M51.35-32l-.97.96M54.23-34.88l-.95.95M29.13-9.79l.96-.97M44.59-25.25l-.97.97M48.45-29.11l-.96.97M42.66-23.31l.96-.97M47.49-28.14l-.97.96M28.16-8.83l.97-.96M37.83-18.49l.96-.96M24.3-4.96l.96-.97M30.09-10.76l.97-.96M33-13.66l.96-.96M38.79-19.45l.97-.97M33.96-14.62l.97-.97M32.03-12.69l.97-.97M46.52-27.18l-.97.97M50.38-31.04l-.96.97M34.93-15.59l.97-.96M25.26-5.93l.97-.96M31.06-11.72l.97-.97M31.06-9.79l.97-.97M30.09-8.83l.97-.96M43.62-22.35l.97-.96M39.76-18.49l.97-.96M40.73-19.45l.96-.97M33.96-12.69l.97-.97M47.49-26.21l-.97.97M33-11.72l.96-.97M49.42-28.14l-.97.97M48.45-27.17l-.96.96M44.59-23.31l.96-.97M52.31-31.04l-.96.97M27.2-5.93l.96-.96M35.89-14.62l.97-.97M32.03-10.76l.97-.96M34.93-13.66l.96-.96M28.16-6.89l.97-.97M42.66-21.38l.96-.97M54.23-32.95l-.95.95M21.4-.13l.96-.97M36.86-15.59l.97-.96M37.83-16.55l.96-.97M23.33-2.06l.97-.97M25.26-4l.97-.96M46.52-25.24l-.97.96M24.3-3.03l.96-.97M53.28-32l-.97.96M51.35-30.07l-.97.97M41.69-20.42l.97-.96M22.36-1.1l.97-.96M29.13-7.86l.96-.97M38.79-17.52l.97-.97M50.38-29.1l-.96.96M26.23-4.96l.97-.97M53.28-30.07l-.96.97M34.93-11.72l.97-.97M49.42-26.21l-.97.97M52.32-29.1l-.97.96M33.96-10.76l.97-.96M50.38-27.17l-.96.96M45.56-22.35l.96-.96M51.35-28.14l-.97.97M43.63-20.42l.96-.96M46.52-23.31l.97-.97M44.59-21.38l.97-.97M41.69-18.48l.97-.97M28.16-4.96l.97-.97M30.09-6.89l.97-.97M27.2-4l.96-.96M26.23-3.03 27.2-4M31.06-7.86l.97-.97M42.66-19.45l.97-.97M36.86-13.66l.97-.96M29.13-5.93l.96-.96M38.79-15.59l.97-.96M37.83-14.62l.96-.97M32.03-8.83l.97-.96M54.23-31.02l-.95.95M33-9.79l.96-.97M35.9-12.69l.96-.97M23.33-.13l.97-.97M48.45-25.24l-.96.96M25.26-2.06l.97-.97M39.76-16.55l.97-.97M40.73-17.52l.96-.96M24.3-1.1l.96-.96M45.56-20.42l.96-.96M43.63-18.48l.96-.97M37.83-12.69l.96-.97M30.09-4.96l.97-.97M31.06-5.93l.97-.96M38.79-13.66l.97-.96M44.59-19.45l.97-.97M29.13-4l.96-.96M39.76-14.62l.97-.97M28.16-3.03l.97-.97M40.73-15.59l.96-.96M33-7.86l.96-.97M42.66-17.52l.97-.96M35.89-10.76l.97-.96M36.86-11.72l.97-.97M33.96-8.83l.97-.96M32.03-6.89l.97-.97M41.69-16.55l.97-.97M46.52-21.38l.97-.97M34.93-9.79l.96-.97M48.45-23.31l.97-.97M49.42-24.28l.96-.96M51.35-26.21l-.97.97M47.49-22.35l.96-.96M25.26-.13l.97-.97M52.32-27.17l-.97.96M26.23-1.1l.97-.96M27.2-2.06l.96-.97M53.28-28.14l-.96.97M54.23-29.09l-.95.95M52.32-25.24l.96-.97M36.86-9.79l.97-.97M35.9-8.83l.96-.96M38.79-11.72l.97-.97M37.83-10.76l.96-.96M50.39-23.31l.96-.97M48.45-21.38l.97-.96M47.49-20.41l.96-.97M54.23-27.15l-.95.94M44.59-17.52l.97-.96M43.63-16.55l.96-.97M49.42-22.34l.97-.97M29.13-2.06l.96-.97M28.16-1.1l.97-.96M30.09-3.03l.97-.97M31.06-4l.97-.96M45.56-18.48l.96-.97M46.52-19.45l.97-.96M39.76-12.69l.97-.97M34.93-7.86l.97-.97M33.96-6.89l.97-.97M32.03-4.96l.97-.97M33-5.93l.96-.96M27.2-.13l.96-.97M40.73-13.66l.97-.96M51.35-24.28l.97-.96M42.66-15.59l.97-.96M41.7-14.62l.96-.97M39.76-10.76l.97-.96M32.03-3.03 33-4M36.86-7.86l.97-.97M33-4l.96-.96M30.09-1.1l.97-.96M40.73-11.72l.97-.97M44.59-15.59l.97-.96M34.93-5.93l.97-.96M33.96-4.96l.97-.97M31.06-2.06l.97-.97M48.46-19.45l.96-.96M43.63-14.62l.96-.97M45.56-16.55l.96-.97M50.39-21.38l.96-.96M51.35-22.34l.97-.97M38.79-9.79l.97-.97M37.83-8.83l.96-.96M47.49-18.48l.97-.97M41.7-12.69l.96-.97M42.66-13.66l.97-.96M29.13-.13l.96-.97M49.42-20.41l.97-.97M52.32-23.31l.96-.96M54.23-25.22l-.95.95M35.9-6.89l.96-.97M46.52-17.52l.97-.96M45.56-14.62l.96-.97M31.06-.13l.97-.97M33.96-3.03l.97-.97M42.66-11.72l.97-.97M41.7-10.76l.96-.96M48.46-17.52l.96-.96M54.23-23.29l-.95.95M52.32-21.38l.96-.96M34.93-4l.97-.96M49.42-18.48l.97-.97M37.83-6.89l.96-.97M40.73-9.79l.97-.97M50.39-19.45l.96-.96M32.03-1.1l.97-.96M43.63-12.69l.96-.97M36.86-5.93l.97-.96M51.35-20.41l.97-.97M33-2.06l.96-.97M39.76-8.83l.97-.96M44.59-13.66l.97-.96M38.79-7.86l.97-.97M35.9-4.96l.96-.97M46.52-15.59l.97-.96M47.49-16.55l.97-.97M51.35-18.48l.97-.97M33.96-1.1l.97-.96M38.79-5.93l.97-.96M34.93-2.06l.97-.97M50.39-17.52l.96-.96M52.32-19.45l.97-.96M35.9-3.03l.96-.97M39.76-6.89l.97-.97M44.59-11.72l.97-.97M36.86-4l.97-.96M37.83-4.96l.96-.97M48.46-15.59l.96-.96M49.42-16.55l.97-.97M42.66-9.79l.97-.97M33-.13l.96-.97M46.52-13.65l.97-.97M45.56-12.69l.96-.96M54.23-21.36l-.94.95M47.49-14.62l.97-.97M41.7-8.83l.96-.96M40.73-7.86l.97-.97M43.63-10.76l.96-.96M34.93-.13l.97-.97M52.32-17.52l.97-.96M51.35-16.55l.97-.97M47.49-12.69l.97-.96M48.46-13.65l.96-.97M35.9-1.1l.96-.96M41.7-6.89l.96-.97M36.86-2.06l.97-.97M44.59-9.79l.97-.97M50.39-15.58l.96-.97M37.83-3.03l.96-.97M43.63-8.83l.96-.96M38.79-4l.97-.96M42.66-7.86l.97-.97M40.73-5.93l.97-.96M45.56-10.76l.97-.96M49.42-14.62l.97-.96M39.76-4.96l.97-.97M54.23-19.42l-.94.94M46.53-11.72l.96-.97M46.53-9.79l.96-.97M37.83-1.1l.97-.96M43.63-6.89l.96-.97M51.36-14.62l.96-.96M49.42-12.69l.97-.96M47.49-10.76l.97-.96M54.23-17.49l-.94.94M40.73-4l.97-.96M50.39-13.65l.97-.97M36.86-.13l.97-.97M45.56-8.83l.97-.96M44.59-7.86l.97-.97M52.32-15.58l.97-.97M39.76-3.03l.97-.97M48.46-11.72l.96-.97M38.8-2.06l.96-.97M41.7-4.96l.96-.97M42.66-5.93l.97-.96M45.56-6.89l.97-.97M44.59-5.93l.97-.96M39.76-1.1l.97-.96M41.7-3.03l.96-.97M46.53-7.86l.96-.97M54.23-15.56l-.94.94M40.73-2.06l.97-.97M42.66-4l.97-.96M47.49-8.83l.97-.96M38.79-.13l.97-.97M43.63-4.96l.96-.97M48.46-9.79l.96-.97M49.42-10.76l.97-.96M51.36-12.69l.96-.96M52.32-13.65l.97-.97M50.39-11.72l.97-.97M45.56-4.96l.97-.97M43.63-3.03l.96-.97M40.73-.13l.97-.97M44.59-4l.97-.96M52.32-11.72l.97-.97M46.53-5.93l.96-.96M50.39-9.79l.97-.97M42.66-2.06l.97-.97M51.36-10.76l.96-.96M41.7-1.1l.96-.96M54.23-13.63l-.94.94M49.43-8.82l.96-.97M47.49-6.89l.97-.97M48.46-7.86l.97-.96M52.33-9.79l.96-.96M49.43-6.89l.96-.97M50.39-7.86l.97-.96M43.63-1.1l.96-.96M54.23-11.7l-.94.95M44.59-2.06l.97-.97M47.49-4.96l.97-.97M51.36-8.82l.97-.97M48.46-5.93l.97-.96M42.66-.13l.97-.97M46.53-4l.96-.96M45.56-3.03l.97-.97M45.56-1.1l.97-.96M51.36-6.89l.97-.97M52.33-7.86l.96-.96M50.39-5.93l.97-.96M47.49-3.03l.97-.97M48.46-4l.97-.96M54.23-9.76l-.94.94M49.43-4.96l.96-.97M44.59-.13l.97-.97M46.53-2.06l.96-.97M46.53-.13l.96-.97M48.46-2.06l.97-.97M51.36-4.96l.97-.97M52.33-5.93l.96-.96M49.43-3.03l.96-.97M47.49-1.1l.97-.96M54.23-7.83l-.94.94M50.39-4l.97-.96M54.23-5.9l-.94.94M48.46-.13l.97-.97M49.43-1.1l.96-.96M50.39-2.06l.97-.97M52.33-4l.96-.96M52.33-4l-.97.97M50.39-.13l.97-.97M51.36-1.1l.97-.96M52.33-2.06l.96-.97M54.23-3.97l-.94.94M52.33-.13l.96-.97M53.29-1.1l.94-.93M51.34-53.25l.96-.96M23.33-25.25l-.97.97M16.56-18.49l.97-.96M41.68-43.59l-.96.96M42.65-44.56l-.97.97M40.72-42.63l-.97.97M35.89-37.8l-.97.96M3.03-4.96 4-5.93M38.78-40.7l-.96.97M6.9-8.82l.96-.97M34.92-36.84l-.96.97M36.85-38.77l-.96.97M45.54-47.46l-.96.97M10.76-12.69l.97-.97M27.2-29.11l-.97.96M17.53-19.45l.97-.97M31.06-32.98l-.97.97M4.96-6.89l.97-.97M37.82-39.73l-.97.96M49.41-51.32l-.97.97M47.48-49.39l-.97.97M48.44-50.35l-.96.96M33.96-35.87l-.97.96M32.02-33.94l-.96.96M28.16-30.08l-.96.97M11.73-13.66l.97-.96M18.5-20.42l.96-.97M8.83-10.76l.97-.96M14.63-16.55l.97-.97M44.58-46.49l-.97.97M12.7-14.62l.96-.97M43.61-45.52l-.96.96M30.09-32.01l-.96.96M19.46-21.39l.97-.96M9.8-11.72l.96-.97M5.93-7.86l.97-.96M20.43-22.35l.97-.97M25.26-27.18l-.96.96M29.13-31.05l-.97.97M3.03-4.96l-.97.97M1.1-3.03l.96-.96M24.3-26.22l-.97.97M46.51-48.42l-.97.96M26.23-28.15l-.97.97M32.99-34.91l-.97.97M39.75-41.66l-.97.96M4-5.93l.96-.96M21.4-23.32l.96-.96M15.6-17.52l.96-.97M50.37-52.28l-.96.96M7.86-9.79l.97-.97M13.66-15.59l.97-.96M51.34-53.25l-.97.97M.13-2.06l.97-.97M28.16-32.01l-.96.96M45.54-49.39l-.96.97M7.87-11.72l.96-.97M50.37-54.21l-.96.96M18.5-22.35l.96-.97M1.1-4.96l-.97.97M46.51-50.35l-.97.96M48.44-52.28l-.96.96M47.48-51.32l-.97.97M31.06-34.91l-.97.97M26.23-30.08l-.97.97M4.96-8.82l.97-.97M49.41-53.25l-.97.97M4-7.86l.96-.96M34.92-38.77l-.97.97M22.36-26.22l-.96.97M43.61-47.46l-.96.97M44.58-48.42l-.97.96M25.26-29.11l-.96.96M24.3-28.15l-.97.97M39.75-43.59l-.97.96M38.78-42.63l-.96.97M29.13-32.98l-.97.97M33.95-37.8l-.96.96M6.9-10.76l.97-.96M35.89-39.73l-.97.96M15.6-19.45l.96-.97M13.66-17.52l.97-.97M32.02-35.87l-.96.96M12.7-16.55l.96-.97M32.99-36.84l-.97.97M3.03-6.89 4-7.86M1.1-4.96l.96-.97M21.4-25.25l-.97.97M19.46-23.32l.97-.96M5.93-9.79l.97-.97M10.76-14.62l.97-.97M9.8-13.66l.96-.96M8.83-12.69l.97-.97M23.33-27.18l-.97.96M17.53-21.39l.97-.96M16.56-20.42l.97-.97M11.73-15.59l.97-.96M40.72-44.56l-.97.97M14.63-18.49l.97-.96M30.09-33.94l-.96.96M42.65-46.49l-.97.96M27.2-31.05l-.97.97M36.85-40.7l-.96.97M37.82-41.66l-.97.96M41.68-45.53l-.96.97M2.06-5.93l.97-.96M32.99-38.77l-.97.97M33.96-39.73l-.97.96M25.26-31.05l-.96.97M24.3-30.08l-.97.97M42.65-48.42l-.97.96M47.48-53.25l-.97.97M26.23-32.01l-.97.96M23.33-29.11l-.97.96M32.02-37.8l-.96.96M6.9-12.69l.97-.96M3.03-8.82 4-9.79M34.92-40.7l-.96.97M15.6-21.38l.97-.97M43.61-49.39l-.96.97M44.58-50.35l-.97.96M45.54-51.32l-.96.97M1.1-6.89l.97-.97M17.53-23.32l.97-.96M9.8-15.59l.97-.96M4-9.79l.96-.97M11.73-17.52l.97-.96M5.93-11.72l.97-.97M14.63-20.42l.97-.96M10.77-16.55l.96-.97M27.2-32.98l-.97.97M46.51-52.28l-.97.96M41.68-47.46l-.96.97M47.48-53.25l.96-.96M28.16-33.94l-.96.96M29.13-34.91l-.97.97M30.09-35.87l-.96.96M40.72-46.49l-.97.97M8.83-14.62l.97-.97M31.06-36.84l-.97.97M39.75-45.52l-.97.96M22.36-28.15l-.96.97M.13-5.92l.97-.97M7.87-13.65l.96-.97M38.78-44.56l-.96.97M36.85-42.63l-.96.97M35.89-41.66l-.97.96M12.7-18.48l.96-.97M4.96-10.76l.97-.96M19.46-25.25l-.96.97M37.82-43.59l-.97.96M16.57-22.35l.96-.97M20.43-26.21l-.97.96M2.07-7.86l.96-.96M21.4-27.18l-.97.97M13.66-19.45l.97-.97M33.96-41.66l-.97.96M34.92-42.63l-.96.97M18.5-26.21l-.97.96M3.03-10.76l.97-.96M7.87-15.59l.96-.96M2.07-9.79l.96-.97M44.58-52.28l-.97.96M24.3-32.01l-.97.96M45.54-53.25l-.96.97M43.61-51.32l-.96.97M4-11.72l.97-.97M32.02-39.73l-.96.96M21.4-29.11l-.97.96M32.99-40.7l-.97.97M4.97-12.69l.96-.96M20.43-28.15l-.97.97M12.7-20.42l.96-.96M15.6-23.32l.97-.96M25.26-32.98l-.96.97M37.82-45.53l-.97.97M14.63-22.35l.97-.97M26.23-33.94l-.97.96M42.65-50.35l-.97.96M35.89-43.59l-.97.96M1.1-8.82l.97-.97M13.66-21.38l.97-.97M36.85-44.56l-.96.97M22.36-30.08l-.96.97M39.75-47.46l-.97.97M31.06-38.77l-.97.97M40.72-48.42l-.97.96M41.68-49.39l-.96.97M28.16-35.87l-.96.96M38.78-46.49l-.96.96M29.13-36.84l-.97.97M6.9-14.62l.97-.97M11.73-19.45l.97-.97M46.51-54.21l-.97.96M.13-7.86l.97-.96M9.8-17.52l.97-.96M27.2-34.91l-.97.97M8.83-16.55l.97-.97M5.93-13.65l.97-.97M19.46-27.18l-.96.97M30.09-37.8l-.96.96M23.33-31.05l-.97.97M10.77-18.48l.96-.97M17.53-25.25l-.96.97M19.47-29.11l-.97.96M28.16-37.8l-.96.96M4.97-14.62l.96-.97M32.02-41.66l-.96.96M32.99-42.63l-.97.97M21.4-31.04l-.97.96M22.37-32.01l-.97.97M3.03-12.69l.97-.96M11.73-21.38l.97-.97M17.53-27.18l-.96.97M10.77-20.42l.96-.96M30.09-39.73l-.96.96M16.57-26.21l-.97.96M12.7-22.35l.97-.97M20.43-30.08l-.96.97M5.93-15.59l.97-.96M31.06-40.7l-.97.97M18.5-28.15l-.97.97M13.67-23.32l.96-.96M23.33-32.98l-.96.97M39.75-49.39l-.97.97M.13-9.79l.97-.96M29.13-38.77l-.97.97M2.07-11.72l.96-.97M43.61-53.25l.97-.96M40.72-50.35l-.97.96M24.3-33.94l-.97.96M9.8-19.45l.97-.97M8.83-18.48l.97-.97M42.65-52.28l-.97.96M15.6-25.25l-.97.97M37.82-47.46l-.97.97M26.23-35.87l-.97.96M25.26-34.91l-.96.97M1.1-10.75l.97-.97M6.9-16.55l.97-.97M4-13.65l.97-.97M35.89-45.53l-.97.97M27.2-36.84l-.97.97M38.78-48.42l-.96.96M43.61-53.25l-.96.97M33.96-43.59l-.97.96M41.68-51.32l-.96.97M7.87-17.52l.96-.96M36.85-46.49l-.96.96M34.92-44.56l-.96.97M22.37-33.94l-.97.96M10.77-22.35l.96-.96M3.04-14.62l.96-.97M7.87-19.45l.97-.97M4.97-16.55l.96-.97M21.4-32.98l-.97.97M31.06-42.63l-.97.97M33.95-45.52l-.96.96M4-15.59l.97-.96M42.65-54.21l-.97.96M5.93-17.52l.97-.96M32.99-44.56l-.97.97M13.67-25.25l-.97.97M1.1-12.69l.97-.96M35.89-47.46l-.97.97M25.26-36.84l-.96.97M36.85-48.42l-.96.96M38.78-50.35l-.96.96M24.3-35.87l-.97.96M27.2-38.77l-.97.97M37.82-49.39l-.97.97M.13-11.72l.97-.97M11.73-23.31l.97-.97M41.68-53.25l-.96.97M40.72-52.28l-.97.96M6.9-18.48l.97-.97M34.92-46.49l-.97.97M14.63-26.21l-.96.96M23.33-34.91l-.96.97M26.23-37.8l-.97.96M39.75-51.32l-.97.97M29.13-40.7l-.97.97M19.47-31.04l-.97.96M28.16-39.73l-.96.96M20.43-32.01l-.96.97M30.09-41.66l-.96.96M9.8-21.38l.97-.97M15.6-27.18l-.97.97M18.5-30.08l-.97.97M32.02-43.59l-.96.96M2.07-13.65l.97-.97M17.53-29.11l-.96.97M8.84-20.42l.96-.96M16.57-28.14l-.97.96M14.63-28.14l-.96.96M7.87-21.38l.97-.97M4.97-18.48l.96-.97M23.33-36.84l-.96.97M12.7-26.21l-.96.96M4-17.52l.97-.96M13.67-27.18l-.97.97M39.75-53.25l.96-.96M32.99-46.49l-.97.97M21.4-34.91l-.97.97M24.3-37.8l-.97.96M19.47-32.98l-.97.97M33.96-47.46l-.97.97M25.26-38.77l-.96.97M22.37-35.87l-.97.96M.14-13.65l.96-.97M26.23-39.73l-.97.96M38.78-52.28l-.96.96M2.07-15.58l.97-.97M17.54-31.04l-.97.96M16.57-30.08l-.97.97M39.75-53.25l-.97.97M3.04-16.55l.96-.97M9.8-23.31l.97-.97M32.02-45.52l-.96.96M20.43-33.94l-.96.96M18.5-32.01l-.96.97M31.06-44.56l-.97.97M15.6-29.11l-.97.97M8.84-22.35l.96-.96M6.9-20.41l.97-.97M30.09-43.59l-.96.96M27.2-40.7l-.97.97M28.16-41.66l-.96.96M29.13-42.63l-.97.97M1.1-14.62l.97-.96M36.85-50.35l-.96.96M11.74-25.25l-.97.97M35.89-49.39l-.97.97M34.92-48.42l-.96.96M37.82-51.32l-.97.97M5.93-19.45l.97-.96M30.09-45.52l-.96.96M29.13-44.56l-.97.97M28.16-43.59l-.96.96M5.94-21.38l.96-.97M3.04-18.48l.96-.97M4-19.45l.97-.96M38.78-54.21l-.96.96M23.33-38.77l-.96.97M19.47-34.91l-.97.97M18.5-33.94l-.96.97M9.8-25.25l-.96.97M2.07-17.52l.97-.96M27.2-42.63l-.97.97M31.06-46.49l-.97.97M15.6-31.04l-.96.96M6.9-22.35l.97-.96M17.54-32.97l-.97.96M34.92-50.35l-.96.96M.14-15.58l.96-.97M37.82-53.25l-.97.97M4.97-20.41l.97-.97M35.89-51.32l-.97.97M36.85-52.28l-.96.96M20.43-35.87l-.96.96M24.3-39.73l-.97.96M33.96-49.39l-.97.97M10.77-26.21l-.97.96M26.23-41.66l-.97.96M12.7-28.14l-.96.96M14.64-30.08l-.97.97M13.67-29.11l-.97.97M25.26-40.7l-.96.97M32.99-48.42l-.97.96M21.4-36.84l-.97.97M7.87-23.31l.97-.97M16.57-32.01l-.97.97M22.37-37.8l-.97.96M11.74-27.18l-.97.97M1.1-16.55l.97-.97M32.02-47.46l-.96.97M19.47-36.84l-.97.97M32.02-49.39l-.96.97M35.89-53.25l-.97.97M5.94-23.31l.96-.97M25.26-42.63l-.96.97M12.7-30.07l-.96.96M26.23-43.59l-.97.96M2.07-19.45l.97-.96M3.04-20.41l.96-.97M4-21.38l.97-.96M13.67-31.04l-.97.97M15.6-32.97l-.96.96M14.64-32.01l-.97.97M4.97-22.34l.97-.97M24.3-41.66l-.97.96M9.8-27.18l-.96.97M10.77-28.14l-.97.96M6.9-24.28l.97-.96M28.16-45.52l-.96.96M16.57-33.94l-.97.97M30.09-47.46l-.96.97M29.13-46.49l-.97.97M32.99-50.35l-.97.96M23.33-40.7l-.96.97M.14-17.51l.96-.97M31.06-48.42l-.97.96M11.74-29.11l-.97.97M1.1-18.48l.97-.97M35.89-53.25l.96-.96M34.92-52.28l-.96.96M33.96-51.32l-.97.97M20.43-37.8l-.96.96M21.4-38.77l-.97.97M22.37-39.73l-.97.96M18.5-35.87l-.96.96M27.2-44.56l-.97.97M8.84-26.21l-.97.97M17.54-34.91l-.97.97M34.92-54.21l-.96.96M27.2-46.49l-.97.97M5.94-25.24l.97-.97M14.64-33.94l-.97.97M32.99-52.28l-.97.96M22.37-41.66l-.97.96M2.07-21.38l.97-.96M33.96-53.25l-.97.97M24.3-43.59l-.97.96M31.06-50.35l-.97.96M25.26-44.56l-.96.97M26.23-45.52l-.97.96M.14-19.45l.96-.96M4-23.31l.97-.97M15.6-34.9l-.96.96M20.43-39.73l-.96.96M18.5-37.8l-.96.96M4.97-24.28l.97-.96M17.54-36.84l-.97.97M21.4-40.7l-.97.97M19.47-38.77l-.97.97M16.57-35.87l-.97.97M32.02-51.32l-.96.97M29.13-48.42l-.97.96M7.87-27.18l-.96.97M9.8-29.11l-.96.97M10.77-30.07l-.97.96M11.74-31.04l-.97.97M1.1-20.41l.97-.97M23.33-42.63l-.96.97M30.09-49.39l-.96.97M13.67-32.97l-.96.96M28.16-47.46l-.96.97M3.04-22.34l.96-.97M8.84-28.14l-.97.96M12.71-32.01l-.97.97M26.23-47.46l-.97.97M25.26-46.49l-.96.96M4-25.24l.97-.97M5.94-27.17l-.97.96M6.91-28.14l-.97.97M32.02-53.25l.97-.96M24.3-45.53l-.97.97M20.43-41.66l-.96.96M8.84-30.07l-.97.96M13.67-34.9l-.96.96M2.07-23.31l.97-.97M28.16-49.39l-.96.97M9.81-31.04l-.97.97M10.77-32.01l-.96.97M29.13-50.35l-.97.96M21.4-42.63l-.97.97M22.37-43.59l-.97.96M27.2-48.42l-.97.96M18.5-39.73l-.96.96M14.64-35.87l-.97.97M17.54-38.77l-.97.97M30.09-51.32l-.96.97M1.11-22.34l.96-.97M15.61-36.84l-.97.97M16.57-37.8l-.96.96M31.06-52.28l-.97.96M12.71-33.94l-.97.97M.14-21.38l.97-.96M23.33-44.56l-.96.97M7.87-29.11l-.96.97M19.47-40.7l-.97.97M11.74-32.97l-.97.96M32.02-53.25l-.96.97M3.04-24.28l.96-.96M27.2-50.35l-.97.96M.14-23.31l.97-.96M14.64-37.8l-.97.96M10.77-33.94l-.96.97M11.74-34.9l-.97.96M2.07-25.24l.97-.97M8.84-32.01l-.97.97M18.5-41.66l-.96.96M15.61-38.77l-.97.97M17.54-40.7l-.97.97M21.4-44.56l-.97.97M16.57-39.73l-.96.96M28.16-51.32l-.96.97M29.13-52.28l-.97.96M31.06-54.21l-.97.96M20.43-43.59l-.96.96M22.37-45.53l-.97.97M7.87-31.04l-.96.97M30.09-53.25l-.96.97M3.04-26.21l.97-.96M4.97-28.14l-.96.97M1.11-24.27l.96-.97M6.91-30.07l-.97.96M5.94-29.11l-.97.97M19.47-42.63l-.97.97M9.81-32.97l-.97.96M12.71-35.87l-.97.97M24.3-47.46l-.97.97M25.26-48.42l-.96.96M23.33-46.49l-.96.96M13.67-36.84l-.96.97M26.23-49.39l-.97.97M12.71-37.8l-.97.97M13.67-38.77l-.96.97M28.16-53.25l.97-.96M14.64-39.73l-.97.96M15.61-40.7l-.97.97M11.74-36.83l-.97.96M18.5-43.59l-.96.96M24.3-49.39l-.97.97M19.47-44.56l-.97.97M25.26-50.35l-.96.96M.14-25.24l.97-.97M16.57-41.66l-.96.96M26.23-51.32l-.97.97M17.54-42.63l-.97.97M28.16-53.25l-.96.97M8.84-33.94l-.97.97M27.2-52.28l-.97.96M22.37-47.46l-.97.97M9.81-34.9l-.97.96M1.11-26.21l.97-.96M10.77-35.87l-.96.97M7.87-32.97l-.96.97M2.08-27.17l.96-.97M23.33-48.42l-.96.96M4.97-30.07l-.96.97M21.4-46.49l-.97.97M20.43-45.52l-.96.96M4.01-29.1l-.97.96M6.91-32l-.97.96M5.94-31.04l-.97.97M6.91-33.94l-.97.97M12.71-39.73l-.97.96M3.04-30.07l-.96.97M7.87-34.9l-.96.96M13.68-40.7l-.97.97M5.94-32.97l-.96.97M26.23-53.25l-.97.97M15.61-42.63l-.97.97M4.01-31.04l-.97.97M22.37-49.39l-.97.97M21.4-48.42l-.97.96M14.64-41.66l-.96.96M10.78-37.8l-.97.97M8.84-35.87l-.97.97M20.43-47.46l-.96.97M9.81-36.83l-.97.96M11.74-38.77l-.96.97M18.5-45.52l-.96.96M2.08-29.1l-.97.96M.14-27.17l.97-.97M23.33-50.35l-.96.96M25.26-52.28l-.96.96M27.19-54.21l-.96.96M4.98-32l-.97.96M19.47-46.49l-.97.97M16.57-43.59l-.96.96M24.3-51.32l-.97.97M17.54-44.56l-.97.97M24.3-53.25l-.97.97M3.04-32l-.96.96M1.11-30.07l-.97.97M2.08-31.04l-.97.97M17.54-46.49l-.97.96M18.5-47.46l-.96.97M6.91-35.87l-.97.97M4.01-32.97l-.97.97M15.61-44.56l-.97.97M11.74-40.7l-.96.97M23.33-52.28l-.96.96M16.57-45.53l-.96.97M4.98-33.94l-.97.97M5.94-34.9l-.96.96M19.47-48.42l-.97.96M10.78-39.73l-.97.96M8.84-37.8l-.96.97M7.88-36.83l-.97.96M12.71-41.66l-.97.96M13.68-42.63l-.97.97M14.64-43.59l-.96.96M9.81-38.77l-.97.97M20.43-49.39l-.96.97M24.3-53.25l.96-.96M21.4-50.35l-.97.96M22.37-51.32l-.97.97M12.71-43.59l-.97.96M14.64-45.52l-.96.96M13.68-44.56l-.97.97M11.74-42.63l-.96.97M7.88-38.76l-.97.96M3.04-33.93l-.96.96M8.84-39.73l-.96.97M21.4-52.28l-.97.96M16.57-47.46l-.96.97M22.37-53.25l-.97.97M9.81-40.7l-.97.97M2.08-32.97l-.97.97M6.91-37.8l-.97.97M10.78-41.66l-.97.96M23.33-54.21l-.96.96M20.43-51.32l-.96.97M4.01-34.9l-.97.97M17.54-48.42l-.97.96M1.11-32l-.97.96M19.47-50.35l-.97.96M18.5-49.39l-.96.97M4.98-35.87l-.97.97M5.94-36.83l-.96.96M15.61-46.49l-.97.97M4.98-37.8l-.97.97M20.43-53.25l-.96.97M5.95-38.76l-.97.96M13.68-46.49l-.97.96M12.71-45.53l-.97.97M14.64-47.46l-.96.97M20.43-53.25l.97-.96M2.08-34.9l-.97.97M1.11-33.93l-.97.96M9.81-42.63l-.97.97M8.84-41.66l-.96.96M7.88-40.7l-.97.97M10.78-43.59l-.97.96M11.74-44.56l-.96.97M15.61-48.42l-.97.96M3.04-35.87l-.96.97M19.47-52.28l-.97.96M6.91-39.73l-.96.97M17.54-50.35l-.97.96M16.57-49.39l-.96.97M18.5-51.32l-.96.97M4.01-36.83l-.97.96M8.85-43.59l-.97.96M4.01-38.76l-.97.96M9.81-44.56l-.96.97M3.04-37.8l-.96.97M10.78-45.53l-.97.97M19.47-54.21l-.97.96M15.61-50.35l-.97.96M7.88-42.63l-.97.97M13.68-48.42l-.97.96M14.64-49.39l-.96.97M6.91-41.66l-.96.96M18.5-53.25l-.96.97M17.54-52.28l-.97.96M16.57-51.32l-.96.97M4.98-39.73l-.97.97M12.71-47.46l-.97.97M5.95-40.7l-.97.97M1.11-35.86l-.96.96M11.74-46.49l-.96.96M2.08-36.83l-.97.97M11.74-48.42l-.96.96M9.81-46.49l-.96.97M4.01-40.69l-.96.96M8.85-45.52l-.97.96M3.05-39.73l-.97.97M16.57-53.25l-.96.97M14.64-51.32l-.96.97M7.88-44.56l-.97.97M15.61-52.28l-.97.96M2.08-38.76l-.97.96M1.11-37.8l-.96.97M13.68-50.35l-.97.96M5.95-42.63l-.97.97M4.98-41.66l-.97.97M6.91-43.59l-.96.96M16.57-53.25l.97-.96M12.71-49.39l-.97.97M10.78-47.46l-.97.97M9.81-48.42l-.96.96M8.85-47.46l-.97.97M12.71-51.32l-.97.97M4.01-42.63l-.96.97M15.61-54.21l-.97.96M10.78-49.39l-.97.97M1.11-39.73l-.96.97M11.74-50.35l-.96.96M3.05-41.66l-.97.97M2.08-40.69l-.97.96M7.88-46.49l-.97.97M13.68-52.28l-.97.96M14.64-53.25l-.96.97M6.91-45.52l-.96.96M5.95-44.56l-.97.97M4.98-43.59l-.97.96M7.88-48.42l-.97.96M6.91-47.46l-.96.97M4.98-45.52l-.97.96M12.71-53.25l-.97.97M12.71-53.25l.96-.96M10.78-51.32l-.97.97M9.81-50.35l-.96.96M11.74-52.28l-.96.96M8.85-49.39l-.97.97M3.05-43.59l-.97.96M2.08-42.63l-.97.97M4.01-44.56l-.96.97M1.11-41.66l-.96.97M5.95-46.49l-.97.97M4.01-46.49l-.96.97M8.85-51.32l-.97.97M10.78-53.25l-.97.97M4.98-47.45l-.97.96M5.95-48.42l-.97.97M6.92-49.39l-.97.97M2.08-44.56l-.96.97M3.05-45.52l-.97.96M9.81-52.28l-.96.96M7.88-50.35l-.96.96M1.12-43.59l-.97.97M11.74-54.21l-.96.96M5.95-50.35l-.97.96M6.92-51.32l-.97.97M4.02-48.42l-.97.97M7.88-52.28l-.96.96M8.85-53.25l-.97.97M1.12-45.52l-.97.97M3.05-47.45l-.97.96M2.08-46.49l-.96.97M8.85-53.25l.96-.96M4.98-49.39l-.96.97M1.12-47.45l-.97.96M6.92-53.25l-.97.97M2.08-48.42l-.96.97M5.95-52.28l-.97.96M7.88-54.21l-.96.96M4.02-50.35l-.97.97M3.05-49.38l-.97.96M4.98-51.32l-.96.97M4.02-52.28l-.97.96M4.98-53.25l.97-.96M4.98-53.25l-.96.97M1.12-49.38l.96-.97M3.05-51.32l-.97.97M1.12-49.38l-.97.96M2.08-52.28l-.96.97M1.12-51.31l-.97.96M4.02-54.21l-.97.96M3.05-53.25l-.97.97M1.12-53.25l-.97.97M2.08-54.21l-.96.96M37.83-16.55l-.97-.97M27.2-27.18l.96.96M54.23-.16l-.94-.94M4.02-50.35l.96.96M32.03-22.35l.97.96M18.5-35.87l-.96-.97M11.74-42.63l.97.97M45.56-8.83l-.97-.96M19.47-34.91l-.97-.96M33.96-20.42l-.96-.97M43.63-10.76l.96.97M16.57-37.8l.97.96M35.9-18.49l.96.97M10.78-43.59l-.97-.97M41.7-12.69l-.97-.97M24.3-30.08l.96.97M26.23-28.15l-.97-.96M12.71-41.66l.97.96M27.2-27.18l-.97-.97M51.36-3.03 50.39-4M14.64-39.73l-.96-.97M15.61-38.77l-.97-.96M47.49-6.89l.97.96M.16-54.21l.96.96M47.49-6.89l-.96-.97M49.43-4.96l-.97-.97M45.56-8.83l.97.97M7.88-46.49l-.97-.97M23.33-31.05l.97.97M4.98-49.39l.97.97M39.76-14.62l.97.96M35.9-18.49l-.97-.96M7.88-46.49l.97.97M33.96-20.42l.97.97M30.09-24.29l.97.97M20.43-33.94l.97.96M50.39-4l-.96-.96M39.76-14.62l-.97-.97M37.83-16.55l.96.96M43.63-10.76l-.97-.96M30.09-24.29l-.96-.96M23.33-31.05l-.96-.96M41.7-12.69l.96.97M22.37-32.01l-.97-.97M32.03-22.35l-.97-.97M8.85-45.52l.96.96M11.74-42.63l-.96-.96M6.91-47.46l-.96-.96M4.02-50.35l-.97-.97M3.05-51.32l-.97-.96M19.47-34.91l.96.97M53.29-1.1l-.96-.96M28.16-26.22l.97.97M2.08-52.28l-.96-.97M51.36-3.03l.97.97M15.61-38.77l.96.97M11.74-40.7l.97.97M32.03-20.42l.96.97M33.96-18.49l-.97-.96M24.3-28.15l.96.97M51.36-1.1l-.97-.96M43.63-8.83l-.97-.96M26.23-26.22l-.97-.96M2.08-50.35l-.96-.96M50.39-2.06l-.96-.97M8.85-43.59l.96.96M15.61-36.84l.96.97M10.78-41.66l-.97-.97M11.74-40.7l-.96-.96M14.64-37.8l-.97-.97M27.2-25.25l-.97-.97M15.61-36.84l-.97-.96M19.47-32.98l.96.97M7.88-44.56l.97.97M45.56-6.89l.97.96M27.2-25.25l.96.96M45.56-6.89l-.97-.97M4.98-47.45l.97.96M12.71-39.73l.96.96M30.09-22.35l-.96-.97M6.91-45.52l-.96-.97M41.7-10.76l-.97-.96M39.76-12.69l.97.97M28.16-24.29l.97.97M7.88-44.56l-.97-.96M35.9-16.55l-.97-.97M47.49-4.96l-.96-.97M.15-52.28l.97.97M51.36-1.1l.97.97M35.9-16.55l.96.96M23.33-29.11l-.97-.97M16.57-35.87l.97.96M33.96-18.49l.97.97M23.33-29.11l.97.96M19.47-32.98l-.97-.96M43.63-8.83l.96.97M4.02-48.42l.96.97M20.43-32.01l.97.97M47.49-4.96l.97.96M49.43-3.03 48.46-4M22.36-30.08l-.96-.96M32.03-20.42l-.97-.97M18.5-33.94l-.96-.97M37.83-14.62l.96.96M37.83-14.62l-.97-.97M39.76-12.69l-.97-.97M41.7-10.76l.96.97M4.02-48.42l-.97-.96M3.05-49.38l-.97-.97M30.09-22.35l.97.96M33.96-16.55l.97.96M39.76-10.76l.97.97M28.16-22.35l.97.96M4.01-46.49l.97.97M23.33-27.18l.97.96M11.74-38.77l.97.97M12.71-37.8l.96.96M28.16-22.35l-.96-.97M32.03-18.49l-.97-.96M35.89-14.62l-.96-.97M14.64-35.87l-.97-.97M41.7-8.83l-.97-.96M30.09-20.42l-.96-.97M15.6-34.9l-.96-.97M30.09-20.42l.97.97M26.23-24.29l.97.97M37.83-12.69l-.97-.97M19.47-31.04l-.97-.97M22.36-28.15l-.96-.96M20.43-30.08l.97.97M49.43-1.1l-.97-.96M47.49-3.03l.97.97M24.3-26.22l.96.97M7.88-42.63l.96.97M47.49-3.03 46.53-4M18.5-32.01l-.96-.96M3.05-47.45l-.97-.97M1.12-49.38l.96.96M19.47-31.04l.96.96M4.01-46.49l-.96-.96M23.33-27.18l-.97-.97M26.23-24.29l-.97-.96M32.03-18.49l.97.97M15.6-34.9l.97.96M43.63-6.89l-.97-.97M43.63-6.89l.96.96M41.7-8.83l.96.97M45.56-4.96l.97.96M33.96-16.55l-.96-.97M7.88-42.63l-.97-.96M6.91-43.59l-.96-.97M45.56-4.96l-.97-.97M39.76-10.76l-.97-.96M16.57-33.94l.97.97M.15-50.35l.97.97M50.39-.13l-.96-.97M11.74-38.77l-.96-.96M37.83-12.69l.96.97M10.78-39.73l-.97-.97M4.98-45.52l.97.96M35.89-14.62l.97.96M8.84-41.66l.97.96M37.83-10.76l.96.97M39.76-8.83l-.97-.96M32.03-16.55l-.97-.97M7.88-40.7l.96.97M24.3-24.29l.96.97M26.23-22.35l-.97-.97M30.09-18.49l.97.97M15.6-32.97l.97.96M39.76-8.83l.97.97M41.7-6.89l-.97-.97M28.16-20.42l.97.97M33.96-14.62l-.96-.97M23.33-25.25l.97.96M32.03-16.55l.97.96M26.23-22.35l.97.96M4.01-44.56l-.96-.96M6.91-41.66l-.96-.97M4.98-43.59l.97.96M35.9-12.69l-.97-.97M.15-48.42l.97.97M33.96-14.62l.97.96M7.88-40.7l-.97-.96M10.78-37.8l-.97-.97M15.6-32.97l-.96-.97M47.49-1.1l.97.97M4.01-44.56l.97.97M47.49-1.1l-.96-.96M11.74-36.83l-.96-.97M19.47-29.11l.96.96M45.56-3.03l.97.97M45.56-3.03 44.59-4M35.9-12.69l.96.97M28.16-20.42l-.96-.97M18.5-30.08l-.96-.96M16.57-32.01l.97.97M1.12-47.45l.96.96M3.05-45.52l-.97-.97M41.7-6.89l.96.96M20.43-28.15l.97.97M37.83-10.76l-.97-.96M43.63-4.96l-.97-.97M8.84-39.73l.97.96M14.64-33.94l-.97-.96M12.71-35.87l.96.97M43.63-4.96l.96.96M22.36-26.22l-.96-.96M11.74-36.83l.97.96M23.33-25.25l-.97-.97M19.47-29.11l-.97-.97M30.09-18.49l-.96-.96M14.64-32.01l-.97-.96M33.96-12.69l-.96-.97M3.05-43.59l-.97-.97M15.6-31.04l.97.96M24.3-22.35l-.97-.97M11.74-34.9l.97.96M37.83-8.83l.96.97M4.01-42.63l-.96-.96M39.76-6.89l-.97-.97M1.12-45.52l.96.96M41.7-4.96l.96.96M28.16-18.49l-.96-.96M22.36-24.28l-.96-.97M43.63-3.03 42.66-4M12.71-33.94l.96.97M26.23-20.42l.97.97M.15-46.49l.97.97M33.96-12.69l.97.97M20.43-26.21l.97.96M6.91-39.73l-.96-.97M35.89-10.76l-.96-.96M4.98-41.66l.97.96M19.46-27.18l-.96-.97M16.57-30.08l.96.97M18.5-28.15l-.97-.96M32.03-14.62l-.97-.97M43.63-3.03l.96.97M30.09-16.55l.97.96M45.56-1.1l-.97-.96M32.03-14.62l.97.96M7.88-38.76l-.97-.97M45.56-1.1l.97.97M7.88-38.76l.96.96M4.01-42.63l.97.97M24.3-22.35l.96.96M26.23-20.42l-.97-.97M8.84-37.8l.97.97M37.83-8.83l-.97-.96M19.46-27.18l.97.97M15.6-31.04l-.96-.97M10.77-35.87l-.96-.96M11.74-34.9l-.97-.97M41.7-4.96l-.97-.97M22.36-24.28l.97.96M28.16-18.49l.97.97M35.89-10.76l.97.97M39.76-6.89l.97.96M30.09-16.55l-.96-.97M41.7-3.03 40.73-4M39.76-4.96l.97.96M43.63-1.1l.96.97M43.63-1.1l-.97-.96M7.88-36.83l.96.96M14.64-30.08l-.97-.96M26.23-18.49l.97.97M30.09-14.62l.97.96M1.12-43.59l.96.96M41.7-3.03l.96.97M4.01-40.69l-.96-.97M3.05-41.66l-.97-.97M30.09-14.62l-.96-.97M16.57-28.14l.96.96M26.23-18.49l-.97-.96M24.3-20.42l.96.97M18.5-26.21l-.97-.97M15.6-29.11l-.96-.97M19.46-25.25l-.96-.96M28.16-16.55l-.96-.97M33.96-10.76l-.96-.96M33.96-10.76l.97.97M19.46-25.25l.97.97M32.03-12.69l.97.97M12.71-32.01l.96.97M37.83-6.89l.96.96M39.76-4.96l-.97-.97M4.01-40.69l.97.96M24.3-20.42l-.97-.97M11.74-32.97l-.97-.97M11.74-32.97l.97.96M22.36-22.35l-.96-.97M7.88-36.83l-.97-.97M6.91-37.8l-.96-.96M15.6-29.11l.97.97M35.9-8.83l-.97-.96M37.83-6.89l-.97-.97M20.43-24.28l.97.96M35.9-8.83l.96.97M.15-44.55l.97.96M8.84-35.87l.97.97M10.77-33.94l-.96-.96M32.03-12.69l-.97-.97M4.98-39.73l.97.97M28.16-16.55l.97.96M22.36-22.35l.97.96M41.7-1.1l.96.97M15.6-27.18l.97.97M7.87-34.9l.97.96M20.43-22.35l-.97-.97M4.98-37.8l.96.97M20.43-22.35l.97.96M6.91-35.87l-.97-.96M22.36-20.42l-.96-.97M33.96-8.83 33-9.79M32.03-10.76l.97.97M24.3-18.49l.96.97M30.09-12.69l.97.97M11.74-31.04l-.97-.97M15.6-27.18l-.97-.96M12.7-30.07l.97.96M32.03-10.76l-.97-.96M4.01-38.76l-.96-.97M14.63-28.14l-.96-.97M26.23-16.55l-.97-.97M18.5-24.28l.96.96M39.76-3.03l.97.97M41.7-1.1l-.97-.96M10.77-32.01l-.96-.96M3.05-39.73l-.97-.96M7.87-34.9l-.96-.97M1.11-41.66l.97.97M28.16-14.62l.97.96M16.57-26.21l.96.96M18.5-24.28l-.97-.97M8.84-33.94l.97.97M26.23-16.55l.97.96M28.16-14.62l-.96-.97M37.83-4.96l.96.96M24.3-18.49l-.97-.96M30.09-12.69l-.96-.97M22.36-20.42l.97.97M39.76-3.03 38.79-4M33.96-8.83l.97.97M11.74-31.04l.96.97M.15-42.62l.96.96M4.01-38.76l.97.96M35.9-6.89l-.97-.97M35.9-6.89l.96.96M37.83-4.96l-.97-.97M33.96-6.89 33-7.86M26.23-14.62l-.97-.97M7.87-32.97l-.96-.97M24.3-16.55l.96.96M6.91-33.94l-.97-.96M7.87-32.97l.97.96M39.76-1.1l.97.97M33.96-6.89l.97.96M35.9-4.96l-.97-.97M24.3-16.55l-.97-.97M15.6-25.25l.97.97M4.98-35.87l.96.97M30.09-10.76l.97.97M20.43-20.42l.97.97M39.76-1.1l-.96-.96M11.74-29.11l.96.97M32.03-8.83l.97.97M22.36-18.49l.97.97M10.77-30.07l-.96-.97M11.74-29.11l-.97-.96M8.84-32.01l.97.97M12.7-28.14l.97.96M15.6-25.25l-.97-.96M14.63-26.21l-.96-.97M16.57-24.28l.96.96M3.04-37.8l-.96-.96M4.01-36.83l-.97-.97M4.01-36.83l.97.96M18.5-22.35l.96.96M18.5-22.35l-.97-.97M20.43-20.42l-.97-.97M1.11-39.73l.97.97M22.36-18.49l-.96-.96M37.83-3.03 36.86-4M28.16-12.69l.97.97M30.09-10.76l-.96-.96M37.83-3.03l.97.97M35.9-4.96l.96.96M.15-40.69l.96.96M26.23-14.62l.97.96M32.03-8.83l-.97-.96M28.16-12.69l-.96-.97M4.98-33.94l.96.97M22.36-16.55l.97.96M35.9-3.03l.96.97M24.3-14.62l-.97-.97M20.43-18.49l-.97-.96M18.5-20.42l.96.97M14.63-24.28l.97.96M1.11-37.8l.97.97M28.16-10.76l.97.97M37.83-1.1l-.97-.96M6.91-32l-.97-.97M7.87-31.04l.97.97M22.36-16.55l-.96-.97M14.63-24.28l-.96-.97M30.09-8.83l-.96-.96M4.01-34.9l.97.96M35.9-3.03 34.93-4M37.83-1.1l.96.97M33.96-4.96l.97.96M7.87-31.04 6.91-32M26.23-12.69l-.97-.97M18.5-20.42l-.97-.97M28.16-10.76l-.96-.96M.15-38.76l.96.96M24.3-14.62l.96.96M16.57-22.35l.96.96M16.57-22.35l-.97-.97M33.96-4.96 33-5.93M20.43-18.49l.97.97M32.03-6.89l.97.96M4.01-34.9l-.97-.97M3.04-35.87l-.96-.96M11.74-27.18l.96.97M10.77-28.14l-.97-.97M12.7-26.21l.97.96M8.84-30.07l.96.96M30.09-8.83l.97.97M26.23-12.69l.97.97M11.74-27.18l-.97-.96M32.03-6.89l-.97-.97M32.03-4.96l-.97-.97M30.09-6.89l.97.96M35.9-1.1l.96.97M28.16-8.83l-.96-.96M33.96-3.03l.97.97M10.77-26.21l-.97-.97M32.03-4.96 33-4M11.74-25.25l-.97-.96M12.7-24.28l.97.96M24.3-12.69l.96.97M26.23-10.76l-.97-.96M7.87-29.11l.97.97M11.74-25.25l.96.97M8.84-28.14l.96.96M16.56-20.42l.97.97M16.56-20.42l-.96-.96M20.43-16.55l.97.96M30.09-6.89l-.96-.97M26.23-10.76l.97.97M22.36-14.62l-.96-.97M14.63-22.35l.97.97M24.3-12.69l-.97-.97M1.11-35.86l.97.96M7.87-29.11l-.96-.96M22.36-14.62l.97.96M33.96-3.03 33-4M14.63-22.35l-.96-.97M28.16-8.83l.97.97M.15-36.83l.96.97M18.5-18.49l.96.97M4.98-32l.96.96M6.91-30.07l-.97-.97M18.5-18.49l-.97-.96M4.01-32.97l.97.97M20.43-16.55l-.97-.97M4.01-32.97l-.97-.96M35.9-1.1l-.97-.96M3.04-33.93l-.96-.97M12.7-22.35l-.97-.96M12.7-22.35l.96.97M20.43-14.62l-.97-.97M7.87-27.18l.97.97M18.5-16.55l.96.96M4.01-31.04l.96.97M14.63-20.42l-.97-.96M10.77-24.28l-.97-.97M33.96-1.1 33-2.06M16.56-18.49l.97.97M26.23-8.83l.97.97M18.5-16.55l-.97-.97M32.03-3.03l.97.97M.15-34.9l.96.97M28.16-6.89l-.96-.97M7.87-27.18l-.96-.96M10.77-24.28l.96.97M1.11-33.93l.97.96M30.09-4.96l.97.96M32.03-3.03 31.06-4M26.23-8.83l-.97-.96M24.3-10.76l-.97-.96M4.97-30.07l.97.96M6.91-28.14l-.97-.97M22.36-12.69l.97.97M8.84-26.21l.96.96M33.96-1.1l.97.97M20.43-14.62l.97.96M28.16-6.89l.97.96M14.63-20.42l.97.97M30.09-4.96l-.96-.97M24.3-10.76l.96.97M16.56-18.49l-.96-.96M22.36-12.69l-.96-.97M4.01-31.04 3.04-32M3.04-32l-.96-.97M10.77-22.35l-.97-.96M22.36-10.76l.97.97M8.84-24.28l.96.97M20.43-12.69l.97.97M24.3-8.83l-.97-.96M7.87-25.24l.97.96M22.36-10.76l-.96-.96M28.16-4.96l.97.96M26.23-6.89l-.97-.97M24.3-8.83l.96.97M1.11-32l.97.96M3.04-30.07l-.96-.97M18.5-14.62l.96.96M32.03-1.1l.97.97M4.01-29.1l-.97-.97M10.77-22.35l.96.97M20.43-12.69l-.97-.97M16.56-16.55l.97.96M12.7-20.42l-.97-.96M18.5-14.62l-.97-.97M30.09-3.03l.97.97M32.03-1.1l-.97-.96M.14-32.97l.97.97M14.63-18.49l-.97-.96M30.09-3.03 29.13-4M6.91-26.21l-.97-.96M28.16-4.96l-.96-.97M7.87-25.24l-.96-.97M12.7-20.42l.96.97M4.97-28.14l.97.97M4.01-29.1l.96.96M14.63-18.49l.97.97M16.56-16.55l-.96-.97M26.23-6.89l.97.96M24.3-6.89l.96.96M4.01-27.17l-.97-.97M26.23-4.96l-.97-.97M14.63-16.55l.97.96M22.36-8.83l.97.97M1.11-30.07l.97.97M3.04-28.14l-.96-.96M20.43-10.76l-.97-.96M30.09-1.1l.97.97M18.5-12.69l.96.97M24.3-6.89l-.97-.97M7.87-23.31l.97.96M5.94-25.24l.96.96M16.56-14.62l-.96-.97M6.9-24.28l.97.97M8.84-22.35l.96.97M28.16-3.03 27.2-4M22.36-8.83l-.96-.96M10.77-20.42l-.97-.96M4.01-27.17l.96.96M12.7-18.48l.96.96M14.63-16.55l-.97-.97M4.97-26.21l.97.97M12.7-18.48l-.97-.97M20.43-10.76l.97.97M10.77-20.42l.96.97M28.16-3.03l.97.97M26.23-4.96l.97.96M30.09-1.1l-.96-.96M.14-31.04l.97.97M16.56-14.62l.97.96M18.5-12.69l-.97-.97M14.63-14.62l-.97-.97M16.56-12.69l.97.97M18.5-10.76l-.97-.96M7.87-21.38l.97.96M14.63-14.62l.97.96M6.9-22.35l.97.97M16.56-12.69l-.96-.97M10.77-18.48l-.97-.97M26.23-3.03l.97.97M8.84-20.42l.96.97M26.23-3.03 25.26-4M12.7-16.55l.96.96M22.36-6.89l.97.96M24.3-4.96l.96.96M1.11-28.14l.97.97M.14-29.1l.97.96M24.3-4.96l-.97-.97M5.94-23.31l.96.96M2.08-27.17l.96.96M4.97-24.28l.97.97M4-25.24l.97.96M3.04-26.21l.96.97M28.16-1.1l-.96-.96M12.7-16.55l-.97-.97M10.77-18.48l.96.96M28.16-1.1l.97.97M22.36-6.89l-.96-.97M20.43-8.83l.97.97M20.43-8.83l-.97-.96M18.5-10.76l.96.97M6.9-20.41l.97.96M5.94-21.38l.96.97M8.83-18.48l.97.96M20.43-6.89l-.97-.97M26.23-1.1l.97.97M7.87-19.45l.96.97M16.56-10.76l.97.97M14.63-12.69l-.97-.97M18.5-8.83l-.97-.96M22.36-4.96l.97.96M24.3-3.03 23.33-4M26.23-1.1l-.97-.96M10.77-16.55l.96.96M24.3-3.03l.96.97M18.5-8.83l.96.97M12.7-14.62l.96.96M10.77-16.55l-.97-.97M14.63-12.69l.97.97M2.07-25.24l.97.96M3.04-24.28l.96.97M1.11-26.21l.96.97M16.56-10.76l-.96-.96M4-23.31l.97.97M4.97-22.34l.97.96M12.7-14.62l-.97-.97M.14-27.17l.97.96M20.43-6.89l.97.96M22.36-4.96l-.96-.97M.14-25.24l.97.97M10.76-14.62l.97.96M14.63-10.76l.97.97M16.56-8.83l-.96-.96M4.97-20.41l.96.96M5.93-19.45l.97.97M4-21.38l.97.97M20.43-4.96l.97.96M3.04-22.34l.96.96M1.11-24.27l.96.96M2.07-23.31l.97.97M22.36-3.03 21.4-4M12.7-12.69l-.97-.97M6.9-18.48l.97.96M16.56-8.83l.97.97M7.87-17.52l.96.97M18.5-6.89l-.97-.97M14.63-10.76l-.97-.96M20.43-4.96l-.97-.97M24.3-1.1l.96.97M18.5-6.89l.96.96M10.76-14.62l-.96-.97M8.83-16.55l.97.96M12.7-12.69l.96.97M22.36-3.03l.97.97M24.3-1.1l-.97-.96M.14-23.31l.97.97M10.76-12.69l-.96-.97M22.36-1.1l-.96-.96M22.36-1.1l.97.97M6.9-16.55l.97.96M10.76-12.69l.97.97M5.93-17.52l.97.97M7.87-15.59l.96.97M12.7-10.76l-.97-.96M8.83-14.62l.97.96M2.07-21.38l.97.97M20.43-3.03l.97.97M1.11-22.34l.96.96M4-19.45l.97.97M3.04-20.41l.96.96M4.97-18.48l.96.96M14.63-8.83l.97.97M18.5-4.96l-.97-.97M18.5-4.96l.96.96M16.56-6.89l-.96-.97M14.63-8.83l-.97-.96M12.7-10.76l.96.97M16.56-6.89l.97.96M20.43-3.03 19.46-4M10.76-10.76l-.96-.96M7.87-13.65l.96.96M8.83-12.69l.97.97M18.5-3.03l.96.97M10.76-10.76l.97.97M14.63-6.89l-.97-.97M16.56-4.96l-.96-.97M12.7-8.83l.96.97M14.63-6.89l.97.96M20.43-1.1l-.97-.96M12.7-8.83l-.97-.96M2.07-19.45l.97.97M6.9-14.62l.97.97M.14-21.38l.96.97M16.56-4.96l.97.96M18.5-3.03 17.53-4M1.1-20.41l.97.96M20.43-1.1l.97.97M4-17.52l.97.97M3.04-18.48l.96.96M5.93-15.59l.97.97M4.97-16.55l.96.96M14.63-4.96l-.97-.97M12.7-6.89l.96.96M2.07-17.52l.97.97M1.1-18.48l.97.96M7.87-11.72l.96.96M.14-19.45l.96.97M3.04-16.55l.96.96M4-15.59l.97.97M4.97-14.62l.96.97M6.9-12.69l.97.97M18.5-1.1l.96.97M5.93-13.65l.97.96M16.56-3.03l.97.97M18.5-1.1l-.97-.96M16.56-3.03 15.6-4M10.76-8.83l.97.97M14.63-4.96l.97.96M12.7-6.89l-.97-.97M8.83-10.76l.97.97M10.76-8.83l-.96-.96M16.56-1.1l.97.97M14.63-3.03 13.66-4M12.7-4.96l.96.96M2.07-15.58l.97.96M16.56-1.1l-.96-.96M14.63-3.03l.97.97M10.76-6.89l-.96-.97M8.83-8.83l.97.97M12.7-4.96l-.97-.97M10.76-6.89l.97.96M7.86-9.79l.97.96M3.04-14.62l.96.97M1.1-16.55l.97.97M6.9-10.76l.96.97M.14-17.51l.96.96M5.93-11.72l.97.96M4.97-12.69l.96.97M4-13.65l.97.96M10.76-4.96l-.96-.97M4.96-10.76l.97.97M5.93-9.79l.97.97M8.83-6.89l.97.96M6.9-8.82l.96.96M4-11.72l.96.96M.14-15.58l.96.96M2.07-13.65l.96.96M3.03-12.69l.97.97M1.1-14.62l.97.97M14.63-1.1l-.97-.96M12.7-3.03l.96.97M10.76-4.96l.97.96M12.7-3.03 11.73-4M7.86-7.86l.97.97M14.63-1.1l.97.97M4-9.79l.96.97M3.03-10.76l.97.97M1.1-12.69l.97.97M.14-13.65l.96.96M4.96-8.82l.97.96M5.93-7.86l.97.97M10.76-3.03 9.8-4M6.9-6.89l.96.96M7.86-5.93l.97.97M8.83-4.96 9.8-4M2.07-11.72l.96.96M12.7-1.1l.96.97M10.76-3.03l.97.97M12.7-1.1l-.97-.96M1.1-10.75l.97.96M2.07-9.79l.96.97M3.03-8.82l.97.96M.13-11.72l.97.97M4-7.86l.96.97M8.83-3.03l.97.97M10.76-1.1l-.96-.96M5.93-5.93l.97.97M4.96-6.89l.97.96M8.83-3.03 7.86-4M10.76-1.1l.97.97M6.9-4.96l.96.96M5.93-4l.97.97M4.96-4.96l.97.96M3.03-6.89l.97.96M8.83-1.1l.97.97M.13-9.79l.97.97M4-5.93l.96.97M1.1-8.82l.97.96M2.07-7.86l.96.97M6.9-3.03l.96.97M8.83-1.1l-.97-.96M2.06-5.93l.97.97M1.1-6.89l.96.96M3.03-4.96 4-4M4.96-3.03l.97.97M4-4l.96.97M5.93-2.06l.97.96M6.9-1.1l.96.97M.13-7.86l.97.97M3.03-3.03l.97.97M.13-5.92l.97.96M2.06-3.99l.97.96M1.1-4.96l.96.97M4-2.06l.96.96M4.96-1.1l.97.97M3.03-1.1 4-.13M1.1-3.03l.96.97M2.06-2.06l.97.96M.13-3.99l.97.96M1.1-1.1l.96.97M.13-2.06l.97.96M43.63-12.69l.96.97M45.56-10.76l-.97-.96M7.88-48.42l-.96-.97M41.7-14.62l-.97-.97M32.03-24.29l.96.97M53.29-3.03 52.33-4M23.33-32.98l.97.97M19.47-36.84l.96.97M41.7-14.62l.96.96M39.76-16.55l.97.96M23.33-32.98l-.96-.96M33.96-22.35l-.97-.97M43.63-12.69l-.97-.97M22.37-33.94l-.97-.97M15.61-40.7l-.97-.96M54.23-2.09l-.94-.94M14.64-41.66l-.96-.97M47.49-8.83l.97.97M4.02-52.28l-.97-.97M49.43-6.89l-.97-.97M12.71-43.59l.97.96M50.39-5.93l-.96-.96M27.2-29.11l-.97-.97M4.98-51.32l.97.97M26.23-30.08l-.97-.97M20.43-35.87l.97.96M6.92-49.39l-.97-.96M24.3-32.01l.96.96M35.9-20.42l-.97-.97M11.74-44.56l-.96-.97M10.78-45.53l-.97-.96M35.9-20.42l.96.97M19.47-36.84l-.97-.96M4.02-52.28l.96.96M18.5-37.8l-.96-.97M8.85-47.46l.96.97M39.76-16.55l-.97-.97M3.05-53.25l-.96-.96M37.83-18.49l.96.97M52.33-4l-.97-.96M27.2-29.11l.96.96M11.74-44.56l.97.97M15.61-40.7l.96.97M47.49-8.83l-.96-.96M33.96-22.35l.97.96M51.36-4.96l-.97-.97M31.06-25.25l.97.96M16.57-39.73l.97.96M30.09-26.22l-.96-.96M37.83-18.49l-.97-.96M28.16-28.15l.97.97M31.06-25.25l-.97-.97M45.56-10.76l.97.97M7.88-48.42l.97.96M23.33-34.91l.97.97M37.83-20.42l-.97-.97M7.88-50.35l.97.96M35.89-22.35l.97.96M15.61-42.63l.96.97M45.56-12.69l.97.97M32.03-26.22l.96.97M33.96-24.28l-.97-.97M4.02-54.21l.96.96M50.39-7.86l-.96-.96M41.69-16.55l.97.96M51.36-6.89l-.97-.97M43.63-14.62l.96.96M45.56-12.69l-.97-.97M27.2-31.05l.96.97M53.29-4.96l.94.94M19.47-38.77l.96.97M47.49-10.76l.97.97M49.43-8.82l-.97-.97M35.89-22.35l-.96-.97M43.63-14.62l-.97-.97M16.57-41.66l.97.96M19.47-38.77l-.97-.96M18.5-39.73l-.96-.97M39.76-18.49l.97.97M41.69-16.55l-.96-.97M47.49-10.76l-.96-.96M24.3-33.94l.96.96M23.33-34.91l-.96-.96M28.16-30.08l.97.97M31.06-27.18l-.97-.97M30.09-28.15l-.96-.96M15.61-42.63l-.97-.96M22.37-35.87l-.97-.97M27.2-31.05l-.97-.96M8.85-49.39l.96.97M26.23-32.01l-.97-.97M10.78-47.46l-.97-.96M31.06-27.18l.97.96M11.74-46.49l-.96-.97M7.88-50.35l-.96-.97M53.29-4.96l-.96-.97M52.33-5.93l-.97-.96M33.96-24.28l.97.96M14.64-43.59l-.96-.97M12.71-45.53l.97.97M20.43-37.8l.97.96M6.92-51.32l-.97-.96M4.98-53.25l.97.97M11.74-46.49l.97.96M37.83-20.42l.96.97M39.76-18.49l-.97-.96M33.96-26.21l-.97-.97M7.88-52.28l.97.96M35.89-24.28l.97.96M32.03-28.15l.96.97M37.83-22.35l-.97-.97M43.63-16.55l.96.96M45.56-14.62l-.97-.97M34.92-25.25l-.96-.96M14.64-45.52l-.96-.97M15.61-44.56l-.97-.96M12.71-47.46l.97.97M19.47-40.7l.96.97M39.76-20.42l.97.97M51.36-8.82l-.97-.97M53.29-6.89l.94.94M20.43-39.73l.97.96M41.69-18.48l-.96-.97M22.37-37.8l-.97-.97M23.33-36.84l-.96-.96M41.69-18.48l.97.96M43.63-16.55l-.97-.97M50.39-9.79l-.97-.97M47.49-12.69l-.97-.96M45.56-14.62l.96.97M52.33-7.86l-.97-.96M30.09-30.08l-.96-.97M15.61-44.56l.96.97M31.06-29.11l-.97-.97M53.29-6.89l-.96-.97M19.47-40.7l-.97-.96M18.5-41.66l-.96-.97M6.92-53.25l-.97-.96M16.57-43.59l.97.96M7.88-52.28l-.96-.97M28.16-32.01l.97.96M27.2-32.98l-.97-.96M26.23-33.94l-.97-.97M11.74-48.42l.97.96M49.42-10.76l-.96-.96M24.3-35.87l.96.96M23.33-36.84l.97.97M37.83-22.35l.96.97M47.49-12.69l.97.97M27.2-32.98l.96.97M8.85-51.32l.96.97M11.74-48.42l-.96-.97M31.06-29.11l.97.96M10.78-49.39l-.97-.96M34.92-25.25l.97.97M39.76-20.42l-.97-.96M24.3-37.8l.96.96M47.49-14.62l.97.97M53.29-8.82l-.96-.97M49.42-12.69l-.96-.96M27.2-34.91l-.97-.96M26.23-35.87l-.97-.97M7.88-54.21l.97.96M52.33-9.79l-.97-.97M19.47-42.63l.96.97M23.33-38.77l-.96-.96M22.37-39.73l-.97-.97M51.36-10.76l-.97-.96M43.63-18.48l.96.96M45.56-16.55l-.97-.97M20.43-41.66l.97.96M35.89-26.21l.97.96M50.39-11.72l-.97-.97M31.06-31.05l-.97-.96M23.33-38.77l.97.97M28.16-33.94l.97.96M30.09-32.01l-.96-.97M15.61-46.49l.96.96M27.2-34.91l.96.97M34.92-27.18l.97.97M37.83-24.28l.96.96M8.85-53.25l.96.97M11.74-50.35l-.96-.97M10.78-51.32l-.97-.96M39.76-22.35l-.97-.97M15.61-46.49l-.97-.97M14.64-47.46l-.96-.96M34.92-27.18l-.96-.97M32.03-30.08l.96.97M33.96-28.15l-.97-.96M12.71-49.39l.97.97M19.47-42.63l-.97-.96M18.5-43.59l-.96-.97M53.29-8.82l.94.94M16.57-45.53l.97.97M11.74-50.35l.97.96M37.83-24.28l-.97-.97M39.76-22.35l.97.97M43.63-18.48l-.97-.97M47.49-14.62l-.97-.97M41.69-20.42l.97.97M45.56-16.55l.96.96M31.06-31.05l.97.97M41.69-20.42l-.96-.96M41.69-22.35l.97.97M31.06-32.98l.96.97M43.63-20.42l-.97-.96M34.92-29.11l.97.96M43.63-20.42l.96.97M47.49-16.55l-.97-.97M39.76-24.28l.96.96M34.92-29.11l-.96-.97M38.79-25.25l.97.97M33.96-30.08l-.97-.96M32.02-32.01l.97.97M45.56-18.48l-.97-.97M35.89-28.15l.97.97M45.56-18.48l.96.96M41.69-22.35l-.97-.97M37.82-26.21l-.96-.97M38.79-25.25l-.97-.96M11.74-52.28l-.96-.97M23.33-40.7l.97.97M47.49-16.55l.97.96M53.29-10.75l-.97-.97M11.74-52.28l.97.96M31.06-32.98l-.97-.96M50.39-13.65l-.97-.97M30.09-33.94l-.96-.97M52.32-11.72l-.96-.97M28.16-35.87l.97.96M53.29-10.75l.94.94M27.2-36.84l.96.97M20.43-43.59l.97.96M22.37-41.66l-.97-.97M10.78-53.25l-.97-.96M23.33-40.7l-.96-.96M12.71-51.32l.97.97M19.47-44.56l.96.97M14.64-49.39l-.96-.96M15.61-48.42l-.97-.97M51.36-12.69l-.97-.96M15.61-48.42l.96.96M49.42-14.62l-.96-.97M26.23-37.8l-.97-.97M27.2-36.84l-.97-.96M24.3-39.73l.96.96M18.5-45.52l-.96-.97M16.57-47.46l.97.97M19.47-44.56l-.97-.96M31.06-34.91l-.97-.96M18.5-47.46l-.96-.96M47.49-18.48l.97.96M20.43-45.52l.97.96M27.2-38.77l.96.97M28.16-37.8l.97.96M11.75-54.21l.96.96M30.09-35.87l-.96-.97M16.57-49.39l.97.97M15.61-50.35l.96.96M34.92-31.04l.97.96M19.47-46.49l-.97-.97M33.96-32.01l-.97-.97M34.92-31.04l-.96-.97M22.37-43.59l-.97-.97M49.42-16.55l-.96-.97M32.02-33.94l.97.96M39.76-26.21l.96.96M23.33-42.63l-.96-.96M23.33-42.63l.97.97M43.62-22.35l.97.97M38.79-27.18l.97.97M45.56-20.42l-.97-.96M41.69-24.28l.97.97M50.39-15.58l-.97-.97M15.61-50.35l-.97-.97M52.32-13.65l-.96-.97M14.64-51.32l-.96-.96M37.82-28.14l-.96-.97M38.79-27.18l-.97-.96M19.47-46.49l.96.97M43.62-22.35l-.96-.96M53.29-12.69l-.97-.96M12.71-53.25l.97.97M24.3-41.66l.96.96M51.36-14.62l-.97-.96M27.2-38.77l-.97-.96M35.89-30.08l.97.97M53.29-12.69l.94.95M47.49-18.48l-.97-.97M45.56-20.42l.96.97M41.69-24.28l-.97-.97M26.23-39.73l-.97-.97M31.06-34.91l.96.97M26.23-41.66l-.97-.97M43.62-24.28l.97.97M24.3-43.59l.96.96M31.06-36.84l-.97-.96M50.39-17.52l-.97-.96M30.09-37.8l-.96-.97M27.2-40.7l.96.97M53.29-14.62l.94.94M15.61-52.28l.96.96M42.66-25.25l-.97-.96M27.2-40.7l-.97-.96M34.92-32.98l.97.97M28.16-39.73l.97.96M45.56-22.35l-.97-.96M41.69-26.21l-.97-.97M39.76-28.14l.96.96M32.02-35.87l.97.96M47.49-20.41l.97.96M14.64-53.25l-.96-.96M20.43-47.46l.97.97M45.56-22.35l.96.97M15.61-52.28l-.97-.97M22.37-45.53l-.97-.96M47.49-20.41l-.97-.97M49.42-18.48l-.96-.97M34.92-32.98l-.96-.96M38.79-29.11l.97.97M52.32-15.58l-.97-.97M42.66-25.25l.96.97M33.96-33.94l-.97-.97M23.33-44.56l-.96-.97M38.79-29.11l-.97-.97M51.35-16.55l-.96-.97M37.82-30.08l-.96-.96M53.29-14.62l-.97-.96M35.89-32.01l.97.97M16.57-51.32l.97.97M19.47-48.42l-.97-.97M18.5-49.39l-.96-.96M23.33-44.56l.97.97M31.06-36.84l.96.97M19.47-48.42l.96.96M23.33-46.49l.97.96M45.55-24.28l.97.97M39.76-30.08l.96.97M47.49-22.35l-.97-.96M15.61-54.21l.96.96M31.06-38.77l.96.97M20.43-49.39l.97.97M22.37-47.46l-.97-.96M23.33-46.49l-.96-.97M42.66-27.18l.96.97M26.23-43.59l-.97-.97M24.3-45.53l.96.97M50.39-19.45l-.97-.96M27.2-42.63l-.97-.96M31.06-38.77l-.97-.96M27.2-42.63l.96.97M38.79-31.04l.97.96M42.66-27.18l-.97-.96M30.09-39.73l-.96-.97M41.69-28.14l-.97-.97M28.16-41.66l.97.96M47.49-22.35l.96.97M51.35-18.48l-.96-.97M49.42-20.41l-.97-.97M19.47-50.35l.96.96M19.47-50.35l-.97-.97M53.29-16.55l.94.94M32.02-37.8l.97.96M43.62-26.21l.97.96M18.5-51.32l-.96-.96M45.55-24.28l-.96-.97M34.92-34.91l.97.97M33.96-35.87l-.97-.97M34.92-34.91l-.96-.96M53.29-16.55l-.97-.97M38.79-31.04l-.97-.97M37.82-32.01l-.97-.96M52.32-17.52l-.97-.96M35.89-33.94l.96.97M16.57-53.25l.97.97M20.43-51.32l.97.97M31.06-40.7l-.97-.96M30.09-41.66l-.96-.97M23.33-48.42l-.96-.97M22.37-49.39l-.97-.96M34.92-36.84l.97.97M28.16-43.59l.97.96M43.62-28.14l.97.96M46.52-25.24l-.97-.97M45.55-26.21l-.96-.97M53.29-18.48l.94.94M26.23-45.52l-.97-.97M27.2-44.56l-.97-.96M19.47-52.28l-.97-.97M24.3-47.46l.96.97M37.82-33.94l-.97-.97M38.79-32.97l-.97-.97M35.89-35.87l.96.96M23.33-48.42l.97.96M18.5-53.25l-.96-.96M53.29-18.48l-.97-.97M41.69-30.07l-.97-.97M27.2-44.56l.96.97M46.52-25.24l.97.96M51.35-20.41l-.96-.97M42.65-29.11l-.96-.96M39.75-32.01l.97.97M31.06-40.7l.96.97M50.39-21.38l-.97-.96M42.65-29.11l.97.97M38.79-32.97l.96.96M19.47-52.28l.96.96M52.32-19.45l-.97-.96M32.02-39.73l.97.96M49.42-22.34l-.97-.97M33.95-37.8l-.96-.97M47.49-24.28l.96.97M34.92-36.84l-.97-.96M42.65-31.04l-.96-.97M46.52-27.18l.97.97M38.79-34.9l.96.96M35.89-37.8l.96.96M30.09-43.59l-.96-.97M28.16-45.52l.97.96M42.65-31.04l.97.97M50.39-23.31l-.97-.97M23.33-50.35l-.96-.97M43.62-30.07l.97.96M45.55-28.14l-.96-.97M41.69-32.01l-.97-.96M46.52-27.18l-.97-.96M53.29-20.41l-.97-.97M52.32-21.38l-.97-.96M34.92-38.77l.97.97M27.2-46.49l-.97-.97M53.29-20.41l.94.94M24.3-49.39l.96.97M51.35-22.34l-.96-.97M39.75-33.94l.97.97M47.49-26.21l.96.97M49.42-24.28l-.97-.96M26.23-47.46l-.97-.96M38.79-34.9l-.97-.97M20.43-53.25l.97.97M23.33-50.35l.97.96M32.02-41.66l.97.96M31.06-42.63l.96.97M34.92-38.77l-.96-.96M33.96-39.73l-.97-.97M27.2-46.49l.96.97M22.37-51.32l-.97-.96M37.82-35.87l-.97-.97M31.06-42.63l-.97-.96M19.47-54.21l.96.96M31.06-44.56l.96.97M43.62-32.01l.97.97M46.52-29.11l-.97-.96M45.55-30.07l-.96-.97M32.02-43.59l.97.96M53.28-22.34l-.96-.97M33.96-41.66l-.97-.97M34.92-40.7l-.96-.96M38.79-36.84l-.97-.96M34.92-40.7l.97.97M38.79-36.84l.96.97M53.28-22.34l.95.94M30.09-45.52l-.96-.97M28.16-47.46l.97.97M47.49-28.14l.96.97M50.38-25.24l-.96-.97M27.2-48.42l.96.96M26.23-49.39l-.97-.96M27.2-48.42l-.97-.97M24.3-51.32l.96.97M49.42-26.21l-.97-.96M31.06-44.56l-.97-.96M23.33-52.28l-.96-.97M35.89-39.73l.96.96M22.37-53.25l-.97-.96M46.52-29.11l.97.97M52.32-23.31l-.97-.97M23.33-52.28l.97.96M42.65-32.97l.97.96M42.65-32.97l-.96-.97M41.69-33.94l-.97-.96M51.35-24.28l-.97-.96M39.75-35.87l.97.97M37.82-37.8l-.97-.97M27.2-50.35l.96.96M34.92-42.63l-.96-.96M31.06-46.49l.96.97M38.78-38.77l.97.97M42.65-34.9l.97.96M31.06-46.49l-.97-.97M47.48-30.07l.97.96M30.09-47.46l-.96-.96M28.16-49.39l.97.97M53.28-24.27l-.96-.97M49.42-28.14l-.97-.97M32.02-45.52l.97.96M33.96-43.59l-.97-.97M53.28-24.27l.95.94M46.52-31.04l.96.97M50.38-27.17l-.96-.97M45.55-32l-.97-.97M34.92-42.63l.97.97M46.52-31.04l-.97-.96M35.89-41.66l.96.96M38.78-38.77l-.96-.96M43.62-33.94l.96.97M37.82-39.73l-.97-.97M27.2-50.35l-.97-.97M23.33-54.21l.97.96M24.3-53.25l.96.97M52.32-25.24l-.97-.97M26.23-51.32l-.97-.96M50.38-27.17l.97.96M41.69-35.87l-.97-.97M42.65-34.9l-.96-.97M39.75-37.8l.97.96M30.09-49.39l-.96-.96M37.82-41.66l-.97-.97M28.16-51.32l.97.97M26.23-53.25l-.96-.96M35.89-43.59l.96.96M46.52-32.97l-.97-.97M45.55-33.94l-.97-.96M34.92-44.56l-.97-.96M31.06-48.42l-.97-.97M33.95-45.52l-.96-.97M43.62-35.87l.96.97M50.38-29.1l.97.96M42.65-36.83l.97.96M38.78-40.7l-.96-.96M27.2-52.28l-.97-.97M32.02-47.46l.97.97M42.65-36.83l-.97-.97M53.28-26.21l.95.95M39.75-39.73l.97.96M27.2-52.28l.96.96M51.35-28.14l.97.97M53.28-26.21l-.96-.96M38.78-40.7l.97.97M41.68-37.8l-.96-.97M46.52-32.97l.96.97M50.38-29.1l-.96-.97M47.48-32l.97.96M34.92-44.56l.97.97M31.06-48.42l.96.96M49.42-30.07l-.97-.97M51.35-30.07l.97.97M34.92-46.49l.97.96M42.65-38.77l-.97-.96M53.28-28.14l-.96-.96M32.02-49.39l.97.97M31.06-50.35l-.97-.97M28.16-53.25l.97.97M46.52-34.9l.96.96M33.96-47.46l-.97-.96M49.42-32l-.97-.97M47.48-33.94l.97.97M34.92-46.49l-.96-.97M50.38-31.04l-.96-.96M39.75-41.66l.97.96M41.68-39.73l-.96-.97M30.09-51.32l-.96-.96M42.65-38.77l.97.97M53.28-28.14l.95.95M50.38-31.04l.97.97M35.89-45.53l.96.97M37.82-43.59l-.97-.97M27.2-54.21l.96.96M38.78-42.63l.97.97M43.62-37.8l.96.97M31.06-50.35l.96.96M45.55-35.87l-.97-.96M46.52-34.9l-.97-.97M38.78-42.63l-.96-.96M47.48-35.87l.97.97M49.42-33.93l-.97-.97M38.78-44.56l.97.97M30.09-53.25l-.96-.96M50.38-32.97l-.96-.96M31.06-52.28l-.97-.97M37.82-45.53l-.97-.96M38.78-44.56l-.96-.97M35.89-47.46l.96.97M51.35-32l.96.96M53.28-30.07l-.97-.97M50.38-32.97l.97.97M33.96-49.39l-.97-.96M34.92-48.42l-.96-.97M31.06-52.28l.96.96M32.02-51.32l.97.97M34.92-48.42l.97.96M45.55-37.8l-.97-.97M53.28-30.07l.95.95M43.62-39.73l.96.96M46.52-36.83l.96.96M42.65-40.7l.97.97M41.68-41.66l-.96-.97M39.75-43.59l.97.96M46.52-36.83l-.97-.97M42.65-40.7l-.97-.96M45.55-39.73l-.97-.97M43.62-41.66l.96.96M46.51-38.76l-.96-.97M34.92-50.35l-.96-.97M38.78-46.49l.97.97M47.48-37.8l.97.97M33.96-51.32l-.97-.96M37.82-47.46l-.97-.96M38.78-46.49l-.96-.97M53.28-32l-.97-.97M35.89-49.39l.96.97M42.65-42.63l.97.97M34.92-50.35l.97.96M49.41-35.87l-.96-.96M41.68-43.59l-.96-.97M46.51-38.76l.97.96M39.75-45.52l.97.96M50.38-34.9l.97.97M31.06-54.21l.96.96M50.38-34.9l-.97-.97M51.35-33.93l.96.96M42.65-42.63l-.97-.96M53.28-32l.95.95M32.02-53.25l.97.97M38.78-48.42l.97.96M33.96-53.25l-.97-.96M38.78-48.42l-.96-.97M34.92-52.28l.97.96M37.82-49.39l-.97-.96M34.92-52.28l-.96-.97M35.89-51.32l.96.97M53.28-33.93l.95.95M39.75-47.46l.97.97M46.51-40.7l.97.97M50.38-36.83l-.97-.97M50.38-36.83l.97.96M49.41-37.8l-.96-.96M42.65-44.56l.96.97M43.61-43.59l.97.96M41.68-45.53l-.96-.96M42.65-44.56l-.97-.97M46.51-40.7l-.96-.96M45.55-41.66l-.97-.97M47.48-39.73l.97.97M53.28-33.93l-.97-.97M51.35-35.87l.96.97M46.51-42.63l.97.97M38.78-50.35l-.96-.97M37.82-51.32l-.97-.96M43.61-45.52l.97.96M35.89-53.25l.96.97M45.55-43.59l-.97-.97M53.28-35.86l.95.95M46.51-42.63l-.96-.96M38.78-50.35l.97.96M50.38-38.76l.96.96M51.34-37.8l.97.97M53.28-35.86l-.97-.97M47.48-41.66l.97.96M49.41-39.73l-.96-.97M34.92-54.21l.97.96M50.38-38.76l-.97-.97M41.68-47.46l-.96-.96M42.65-46.49l-.97-.97M39.75-49.39l.97.97M42.65-46.49l.96.97M38.78-52.28l-.96-.97M37.82-53.25l-.97-.96M45.54-45.52l-.96-.97M47.48-43.59l.97.96M46.51-44.56l-.97-.96M49.41-41.66l-.96-.97M43.61-47.46l.97.97M41.68-49.39l-.96-.96M39.75-51.32l.97.97M42.65-48.42l-.97-.97M38.78-52.28l.97.96M46.51-44.56l.97.97M50.38-40.69l.96.96M42.65-48.42l.96.96M53.28-37.8l.95.96M51.34-39.73l.97.97M53.28-37.8l-.97-.96M50.38-40.69l-.97-.97M47.48-45.52l.97.96M49.41-43.59l-.96-.97M41.68-51.32l-.96-.96M50.38-42.63l.96.97M42.65-50.35l.96.96M50.38-42.63l-.97-.96M43.61-49.39l.97.97M45.54-47.46l-.96-.96M46.51-46.49l-.97-.97M38.79-54.21l.96.96M42.65-50.35l-.97-.97M46.51-46.49l.97.97M39.75-53.25l.97.97M53.28-39.73l-.97-.96M53.28-39.73l.95.96M51.34-41.66l.97.97M53.28-41.66l.95.96M46.51-48.42l.97.96M42.65-52.28l.96.96M41.68-53.25l-.96-.96M51.34-43.59l.97.96M42.65-52.28l-.97-.97M53.28-41.66l-.97-.97M50.38-44.56l-.97-.96M50.38-44.56l.96.97M46.51-48.42l-.97-.97M43.61-51.32l.97.97M45.54-49.39l-.96-.96M49.41-45.52l-.97-.97M47.48-47.46l.96.97M43.61-53.25l.97.97M46.51-50.35l-.97-.97M50.38-46.49l.96.97M45.54-51.32l-.96-.96M53.27-43.59l-.96-.97M51.34-45.52l.97.96M47.48-49.39l.96.97M50.38-46.49l-.97-.96M46.51-50.35l.97.96M53.27-43.59l.96.96M49.41-47.45l-.97-.97M42.65-54.21l.96.96M53.27-45.52l.96.95M46.51-52.28l.97.96M50.38-48.42l-.97-.97M51.34-47.45l.97.96M49.41-49.39l-.97-.96M50.38-48.42l.96.97M47.48-51.32l.96.97M53.27-45.52l-.96-.97M45.54-53.25l-.96-.96M46.51-52.28l-.97-.97M51.34-49.38l.97.96M53.27-47.45l-.96-.97M49.41-51.32l-.97-.96M50.37-50.35l-.96-.97M47.48-53.25l.96.97M53.27-47.45l.96.95M46.51-54.21l.97.96M50.37-50.35l.97.97M51.34-51.32l.97.97M53.27-49.38l-.96-.97M49.41-53.25l-.97-.96M50.37-52.28l.97.96M53.27-49.38l.96.95M50.37-52.28l-.96-.97M50.38-54.21l.96.96M53.27-51.32l-.97-.96M53.27-51.32l.96.96M51.34-53.25l.96.97M53.27-53.25l-.96-.96M54.23-52.29l-.96-.96" style="fill:none;stroke:#000;stroke-width:.3"/></svg>