<svg xmlns="http://www.w3.org/2000/svg" xml:space="preserve" width="53.98" height="53.98" viewBox="0 -53.98 53.98 53.98"><path d="M0-53.98h53.98V0H0z" style="fill:none"/><path d="m10.73-43.13 1.06-1M11.79-42.13l-1.06-1M4.54-43.13h6.19M18.83-29.4l-1.06 1M17.77-28.4l1.06 1M11.58-28.4h6.19M27.02-11.88l1.06-1M27.02-11.88l1.06 1M20.83-11.88h6.19M26.73-1.52l1.06 1M26.73-1.52l1.06-1M26.73-1.52h-6.19M51.5-13.04l-1.06 1M50.44-12.04l1.06 1M50.44-12.04h-6.19M44.65-2.54l1.06 1M45.71-3.54l-1.06 1M44.65-2.54h-6.19M8.98-16.56l1.06 1M8.98-16.56l1.06-1M8.98-16.56H2.79M28.91-38.35l-1.06 1M27.85-37.35l1.06 1M21.66-37.35h6.19M46.96-41.85l-1.06-1M45.9-42.85l1.06-1M39.71-42.85h6.19M42.77-31.69l1.06 1M42.77-31.69l1.06-1M42.77-31.69h-6.19M2.48-26.67l-1.06 1M1.42-25.67l1.06 1M0-25.67h1.42M34.85-21.04l1.06 1M35.91-22.04l-1.06 1M34.85-21.04h-6.19M50.8-49.5l.98 1M51.78-50.5l-.98 1M50.8-49.5h-5.69M40.08-49.42h-5.69M29.36-49.33h-5.7M18.63-49.25h-5.69M41.06-50.42l-.98 1M40.08-49.42l.98 1M30.33-50.33l-.97 1M29.36-49.33l.97 1M19.61-50.25l-.98 1M18.63-49.25l.98 1M7.91-49.17l.97 1M8.88-50.17l-.97 1M7.91-49.17h-5.7M0-47.06h53.98M0-51.31h53.98M13.23-6.52l1.06-1M13.23-6.52l1.06 1M13.23-6.52H7.04M49.2-25.67h4.78" style="fill:none;stroke:#000;stroke-width:.3"/></svg>