<svg xmlns="http://www.w3.org/2000/svg" xml:space="preserve" width="53.98" height="53.98" viewBox="0.04 -53.98 53.98 53.98"><path d="M.04-53.98h53.98V0H.04z" style="fill:none"/><path d="M.04-48.06h53.98M.04-52.31h53.98M13.48-41.3c.5-.05 1.37-.37 1.8-1.18 1.45.69 3.38 1.81 6.07.81M4.23-35.7a5.88 5.88 0 0 1-4.19.01M22.66-6.02c-2.68 1-4.62-.13-6.06-.81a2.46 2.46 0 0 1-1.8 1.18M42.94-9.06c-2.7 1-4.63-.13-6.07-.81a2.46 2.46 0 0 1-1.81 1.18M.04-2.45c.47-.06.96-.17 1.48-.36M39.52-42.38c.5-.06 1.37-.37 1.81-1.18 1.44.68 3.38 1.8 6.06.8M28.06-32.6c.5-.07 1.38-.38 1.81-1.2 1.44.7 3.38 1.82 6.06.82M51.08-24.46c-2.69 1-4.62-.12-6.06-.81a2.46 2.46 0 0 1-1.81 1.19M33.31-19.02c-2.69 1-4.63-.13-6.06-.81a2.46 2.46 0 0 1-1.81 1.18M18.25-26.3c-2.69 1-4.63-.12-6.06-.8a2.46 2.46 0 0 1-1.82 1.18M8.2-14.85c-2.68 1-4.62-.13-6.06-.82a2.46 2.46 0 0 1-1.8 1.2M46.65-49.8c.43-.06 1.2-.31 1.59-.97 1.25.56 2.95 1.47 5.3.66M44.58-50.11c-2.36.81-4.06-.1-5.32-.66-.38.66-1.15.91-1.59.96M35.6-50.11c-2.35.81-4.05-.1-5.31-.66-.38.66-1.15.91-1.59.96M26.63-50.11c-2.35.81-4.05-.1-5.31-.66-.39.66-1.15.91-1.6.96M17.66-50.11c-2.36.81-4.06-.1-5.32-.66-.38.66-1.15.91-1.59.96M8.69-50.11c-2.36.81-4.06-.1-5.32-.66-.38.66-1.15.91-1.59.96M50.33-35.33c.5-.07 1.38-.38 1.81-1.2.55.27 1.17.6 1.88.84M47.62-2.44c.5-.06 1.38-.37 1.81-1.19 1.16.56 2.65 1.4 4.59 1.18" style="fill:none;stroke:#000;stroke-width:.3"/></svg>