<svg xmlns="http://www.w3.org/2000/svg" xml:space="preserve" width="53.98" height="53.98" viewBox="0 -53.98 53.98 53.98"><path d="M0-53.98h53.98V0H0z" style="fill:none"/><path d="M4.75-51.75c-2.63-.13-3.5 1.25 0 1.25s3.13-1.38 0-1.25zM11.5-50.38c.5.38 1.25 1 3.13.38 2.4-.8 1.24-1.75-1.26-1.88-2.37.13-2.37 1.13-1.87 1.5zM22.5-51.75c-4 .25-2.25 1.75.38 1.63s2.5-1.5-.38-1.63zM31.13-52c-2.63.13-3 1.5.25 1.38s3.62-1.5-.25-1.38zM40.75-50.13c2.38-.12 2.75-1.24 0-1.87-5-.13-2.38 2 0 1.88zM48.13-52c-2.76.25-2.13 1.63.37 1.5s2-1.5-.38-1.5zM0-45.8c.3.05.63.07 1 .05 2.63-.13 2-1.75-.75-1.75H0M10.38-47.25c-.38-1-.88-1-2.76-.38-2.37.5-.5 1.63 1.25 1.5s1.88-.12 1.5-1.12zM17.38-47.5c-3.63 0-2.25 1.63.25 1.63s2.62-1.26-.25-1.63zM27.63-47.38c-4-1.12-3 1.38-.63 1.38s2.63-.5.63-1.38zM35.88-47.63c-4.13.26-1 1.88 1.62 1.38s.63-1.13-1.63-1.38zM44.13-46.5c3.12-.13 2.62-1.38-.13-1.38-2.5-.12-3 1.5.13 1.38zM6-9.38c1.75-.12 1.88-.12 1.5-1.12s-.88-1-2.75-.38c-2.38.5-.5 1.63 1.25 1.5zM14.75-9.13c2.5 0 2.63-1.24-.25-1.62-3.63 0-2.25 1.63.25 1.63zM24.13-9.25c2.37 0 2.62-.5.62-1.38-4-1.12-3 1.38-.63 1.38zM34.63-9.5c2.62-.5.62-1.13-1.63-1.38-4.13.26-1 1.88 1.63 1.38zM41.25-9.75c3.13-.13 2.63-1.38-.13-1.38-2.5-.12-3 1.5.13 1.38zM51.13-9.38c2.87.13 2.12-1.5-.5-1.62s-3.63 1.63.5 1.63zM45.63-41.13c-1.88.38-2.13 1.63.87 1.63 3.13 0 2.63-.63 1.75-1.25s-.75-.75-2.63-.38zM34.5-39.5c-1.88 0-3 2 .25 1.88 3.88.24 1.63-1.88-.25-1.88zM9.33-2.26c3.88.25 1.63-1.88-.25-1.88s-3 2 .25 1.88zM16.88-40.5c1.5.25 1.75.25 2.62-.5s.38-1.13-1.63-1.13c-2.25 0-2.5 1.38-1 1.63zM44.75-4.75c1.5.25 1.75.25 2.63-.5s.37-1.13-1.63-1.13c-2.25 0-2.5 1.38-1 1.63zM4.38-41.38c2.37-.37 2-1.5-.25-1.74-2.75-.26-2.13 2.12.25 1.74zM8.08-35.38c-2.87 0-2.87 1.63.25 1.63s2-1.75-.25-1.63zM33.92-28.46c3.12 0 2-1.75-.25-1.62-2.88 0-2.88 1.62.25 1.62zM28.13-33.88c1.53-.53-.13-1.5-2-1.74-5.25.74-.88 2.74 2 1.74zM48-28.42c2.25-.75.75-1.5-1.5-1.5 0 0-1.25 0-1.88.25-1.62 1.63 1.13 2 3.38 1.25zM20.67-26.75c3 .13 2.87-1.5 0-1.63-3.13 0-3 1.5 0 1.63zM46.63-18.5c-3.13.13-2 1.75.37 1.75s2.75-1.88-.38-1.75zM36-20c2.75 0 2.75-1.75-.13-1.75-3.12-.13-2.62 1.75.13 1.75zM22.13-17.63c2.5 0 2.25-1.75-.5-1.75-3.38.38-2 1.75.5 1.75zM8.13-22.75c2.62 0 3-1.75-.26-1.75-3 .13-2.37 1.75.25 1.75zM29.25-2c2.63 0 3-1.75-.25-1.75-3 .13-2.38 1.75.25 1.75zM3.88-15.25c2.5-.13 2.5-1.5-.38-1.38-3.38.25-2.13 1.5.38 1.38zM53.98-47.5c-2.2.1-1.77 1.4 0 1.7"/></svg>