<svg xmlns="http://www.w3.org/2000/svg" xml:space="preserve" width="46.75" height="46.75" viewBox="0 -46.75 46.75 46.75"><path d="M0-46.75h46.75V0H0z" style="fill:none"/><path d="M5.38-45.45H0M12.95-45.45h7.82M28.44-45.45h7.82M0-33.81h3.77M19.15-33.81h-7.81M26.83-33.81h7.82M0-22.17h1.72M9.4-22.17h7.82M24.89-22.17h7.82M5.06-10.53H0M20.66-10.53h-7.82M36.26-10.53h-7.82M44.18-45.45h2.57M42.57-33.81h4.18M40.53-22.17h6.22M43.86-10.53h2.89M43.91-39.64h-7.89M20.37-39.64h7.9M4.61-39.64h7.9M34.11-28h7.9M26.36-28h-7.9M10.5-28H2.6M34.11-16.36h7.9M26.36-16.36h-7.9M10.71-16.36H2.82M43.64-4.84h-7.9M28.21-4.84h-7.9M12.45-4.84H4.56" style="fill:none;stroke:#000;stroke-width:.3"/><path d="M24.59-45.42h0M26.55-45.42h0M22.54-45.42h0M9.2-45.42h0M11.17-45.42h0M7.15-45.42h0M40.3-45.42h0M42.26-45.42h0M38.24-45.42h0M23.01-33.85h0M24.97-33.85h0M20.95-33.85h0M7.62-33.85h0M9.58-33.85h0M5.57-33.85h0M38.72-33.85h0M40.68-33.85h0M36.66-33.85h0M20.96-22.15h0M22.93-22.15h0M18.91-22.15h0M5.58-22.15h0M7.54-22.15h0M3.52-22.15h0M36.67-22.15h0M38.63-22.15h0M34.62-22.15h0M24.46-10.51h0M26.42-10.51h0M22.41-10.51h0M9.07-10.51h0M11.04-10.51h0M7.02-10.51h0M40.17-10.51h0M42.13-10.51h0M38.11-10.51h0M16.35-39.62h0M18.33-39.62h0M14.27-39.62h0M.81-39.62h0M2.79-39.62h0M32.21-39.62h0M34.19-39.62h0M30.14-39.62h0M45.6-39.62h0M14.39-28.04h0M16.37-28.04h0M12.31-28.04h0M30.26-28.04h0M32.24-28.04h0M28.18-28.04h0M45.72-28.04h0M43.65-28.04h0M14.44-16.34h0M16.43-16.34h0M12.37-16.34h0M.89-16.34h0M30.31-16.34h0M32.29-16.34h0M28.23-16.34h0M45.78-16.34h0M43.7-16.34h0M16.24-4.82h0M18.22-4.82h0M14.16-4.82h0M.7-4.82h0M2.68-4.82h0M32.1-4.82h0M34.09-4.82h0M30.03-4.82h0M45.49-4.82h0M1.12-42.5h0M4.71-42.5h0M2.92-42.5h0M8.31-42.5h0M6.51-42.5h0M11.9-42.5h0M10.1-42.5h0M15.49-42.5h0M13.7-42.5h0M19.08-42.5h0M17.29-42.5h0M22.68-42.5h0M20.88-42.5h0M26.27-42.5h0M24.47-42.5h0M29.86-42.5h0M28.06-42.5h0M33.45-42.5h0M31.65-42.5h0M37.04-42.5h0M35.25-42.5h0M40.63-42.5h0M38.84-42.5h0M44.23-42.5h0M42.43-42.5h0M46.02-42.5h0M1.12-36.62h0M4.71-36.62h0M2.92-36.62h0M8.31-36.62h0M6.51-36.62h0M11.9-36.62h0M10.1-36.62h0M15.49-36.62h0M13.7-36.62h0M19.08-36.62h0M17.29-36.62h0M22.68-36.62h0M20.88-36.62h0M26.27-36.62h0M24.47-36.62h0M29.86-36.62h0M28.06-36.62h0M33.45-36.62h0M31.65-36.62h0M37.04-36.62h0M35.25-36.62h0M40.63-36.62h0M38.84-36.62h0M44.23-36.62h0M42.43-36.62h0M46.02-36.62h0M1.12-30.93h0M4.71-30.93h0M2.92-30.93h0M8.31-30.93h0M6.51-30.93h0M11.9-30.93h0M10.1-30.93h0M15.49-30.93h0M13.7-30.93h0M19.08-30.93h0M17.29-30.93h0M22.68-30.93h0M20.88-30.93h0M26.27-30.93h0M24.47-30.93h0M29.86-30.93h0M28.06-30.93h0M33.45-30.93h0M31.65-30.93h0M37.04-30.93h0M35.25-30.93h0M40.63-30.93h0M38.84-30.93h0M44.23-30.93h0M42.43-30.93h0M46.02-30.93h0M1.12-25.04h0M4.71-25.04h0M2.92-25.04h0M8.31-25.04h0M6.51-25.04h0M11.9-25.04h0M10.1-25.04h0M15.49-25.04h0M13.7-25.04h0M19.08-25.04h0M17.29-25.04h0M22.68-25.04h0M20.88-25.04h0M26.27-25.04h0M24.47-25.04h0M29.86-25.04h0M28.06-25.04h0M33.45-25.04h0M31.65-25.04h0M37.04-25.04h0M35.25-25.04h0M40.63-25.04h0M38.84-25.04h0M44.23-25.04h0M42.43-25.04h0M46.02-25.04h0M1.12-19.22h0M4.71-19.22h0M2.92-19.22h0M8.31-19.22h0M6.51-19.22h0M11.9-19.22h0M10.1-19.22h0M15.49-19.22h0M13.7-19.22h0M19.08-19.22h0M17.29-19.22h0M22.68-19.22h0M20.88-19.22h0M26.27-19.22h0M24.47-19.22h0M29.86-19.22h0M28.06-19.22h0M33.45-19.22h0M31.65-19.22h0M37.04-19.22h0M35.25-19.22h0M40.63-19.22h0M38.84-19.22h0M44.23-19.22h0M42.43-19.22h0M46.02-19.22h0M1.12-13.46h0M4.71-13.46h0M2.92-13.46h0M8.31-13.46h0M6.51-13.46h0M11.9-13.46h0M10.1-13.46h0M15.49-13.46h0M13.7-13.46h0M19.08-13.46h0M17.29-13.46h0M22.68-13.46h0M20.88-13.46h0M26.27-13.46h0M24.47-13.46h0M29.86-13.46h0M28.06-13.46h0M33.45-13.46h0M31.65-13.46h0M37.04-13.46h0M35.25-13.46h0M40.63-13.46h0M38.84-13.46h0M44.23-13.46h0M42.43-13.46h0M46.02-13.46h0M1.12-7.58h0M4.71-7.58h0M2.92-7.58h0M8.31-7.58h0M6.51-7.58h0M11.9-7.58h0M10.1-7.58h0M15.49-7.58h0M13.7-7.58h0M19.08-7.58h0M17.29-7.58h0M22.68-7.58h0M20.88-7.58h0M26.27-7.58h0M24.47-7.58h0M29.86-7.58h0M28.06-7.58h0M33.45-7.58h0M31.65-7.58h0M37.04-7.58h0M35.25-7.58h0M40.63-7.58h0M38.84-7.58h0M44.23-7.58h0M42.43-7.58h0M46.02-7.58h0M1.12-1.82h0M4.71-1.82h0M2.92-1.82h0M8.31-1.82h0M6.51-1.82h0M11.9-1.82h0M10.1-1.82h0M15.49-1.82h0M13.7-1.82h0M19.08-1.82h0M17.29-1.82h0M22.68-1.82h0M20.88-1.82h0M26.27-1.82h0M24.47-1.82h0M29.86-1.82h0M28.06-1.82h0M33.45-1.82h0M31.65-1.82h0M37.04-1.82h0M35.25-1.82h0M40.63-1.82h0M38.84-1.82h0M44.23-1.82h0M42.43-1.82h0M46.02-1.82h0" style="fill:none;stroke:#000;stroke-width:.7;stroke-linecap:round"/></svg>