<svg xmlns="http://www.w3.org/2000/svg" xml:space="preserve" width="46.75" height="46.75" viewBox="0 -46.75 46.75 46.75"><path d="M0-46.75h46.75V0H0z" style="fill:none"/><path d="M7.68-45.44H1.06M10.33-45.44h6.62M19.84-45.44h6.63M29.26-45.44h6.62M38.59-45.44h6.63M0-39.65h3.12M12.39-39.65H5.77M21.9-39.65h-6.62M31.32-39.65h-6.63M40.65-39.65h-6.62M46.75-39.65h-3.6M7.68-33.81H1.06M16.95-33.81h-6.62M19.84-33.81h6.63M29.26-33.81h6.62M38.59-33.81h6.63M3.12-28.02H0M12.39-28.02H5.77M21.9-28.02h-6.62M31.32-28.02h-6.63M40.65-28.02h-6.62M43.15-28.02h3.6M1.06-22.18h6.62M16.95-22.18h-6.62M26.47-22.18h-6.63M29.26-22.18h6.62M38.59-22.18h6.63M3.12-16.39H0M12.39-16.39H5.77M15.28-16.39h6.62M31.32-16.39h-6.63M34.03-16.39h6.62M43.15-16.39h3.6M7.68-10.58H1.06M16.95-10.58h-6.62M19.84-10.58h6.63M29.26-10.58h6.62M38.59-10.58h6.63M3.12-4.79H0M5.77-4.79h6.62M21.9-4.79h-6.62M31.32-4.79h-6.63M40.65-4.79h-6.62M43.15-4.79h3.6" style="fill:none;stroke:#000;stroke-width:.3"/><path d="M1.12-42.5h0M4.71-42.5h0M2.92-42.5h0M8.31-42.5h0M6.51-42.5h0M11.9-42.5h0M10.1-42.5h0M15.49-42.5h0M13.7-42.5h0M19.08-42.5h0M17.29-42.5h0M22.68-42.5h0M20.88-42.5h0M26.27-42.5h0M24.47-42.5h0M29.86-42.5h0M28.06-42.5h0M33.45-42.5h0M31.65-42.5h0M37.04-42.5h0M35.25-42.5h0M40.63-42.5h0M38.84-42.5h0M44.23-42.5h0M42.43-42.5h0M46.02-42.5h0M1.12-36.62h0M4.71-36.62h0M2.92-36.62h0M8.31-36.62h0M6.51-36.62h0M11.9-36.62h0M10.1-36.62h0M15.49-36.62h0M13.7-36.62h0M19.08-36.62h0M17.29-36.62h0M22.68-36.62h0M20.88-36.62h0M26.27-36.62h0M24.47-36.62h0M29.86-36.62h0M28.06-36.62h0M33.45-36.62h0M31.65-36.62h0M37.04-36.62h0M35.25-36.62h0M40.63-36.62h0M38.84-36.62h0M44.23-36.62h0M42.43-36.62h0M46.02-36.62h0M1.12-30.93h0M4.71-30.93h0M2.92-30.93h0M8.31-30.93h0M6.51-30.93h0M11.9-30.93h0M10.1-30.93h0M15.49-30.93h0M13.7-30.93h0M19.08-30.93h0M17.29-30.93h0M22.68-30.93h0M20.88-30.93h0M26.27-30.93h0M24.47-30.93h0M29.86-30.93h0M28.06-30.93h0M33.45-30.93h0M31.65-30.93h0M37.04-30.93h0M35.25-30.93h0M40.63-30.93h0M38.84-30.93h0M44.23-30.93h0M42.43-30.93h0M46.02-30.93h0M1.12-25.04h0M4.71-25.04h0M2.92-25.04h0M8.31-25.04h0M6.51-25.04h0M11.9-25.04h0M10.1-25.04h0M15.49-25.04h0M13.7-25.04h0M19.08-25.04h0M17.29-25.04h0M22.68-25.04h0M20.88-25.04h0M26.27-25.04h0M24.47-25.04h0M29.86-25.04h0M28.06-25.04h0M33.45-25.04h0M31.65-25.04h0M37.04-25.04h0M35.25-25.04h0M40.63-25.04h0M38.84-25.04h0M44.23-25.04h0M42.43-25.04h0M46.02-25.04h0M1.12-19.22h0M4.71-19.22h0M2.92-19.22h0M8.31-19.22h0M6.51-19.22h0M11.9-19.22h0M10.1-19.22h0M15.49-19.22h0M13.7-19.22h0M19.08-19.22h0M17.29-19.22h0M22.68-19.22h0M20.88-19.22h0M26.27-19.22h0M24.47-19.22h0M29.86-19.22h0M28.06-19.22h0M33.45-19.22h0M31.65-19.22h0M37.04-19.22h0M35.25-19.22h0M40.63-19.22h0M38.84-19.22h0M44.23-19.22h0M42.43-19.22h0M46.02-19.22h0M1.12-13.46h0M4.71-13.46h0M2.92-13.46h0M8.31-13.46h0M6.51-13.46h0M11.9-13.46h0M10.1-13.46h0M15.49-13.46h0M13.7-13.46h0M19.08-13.46h0M17.29-13.46h0M22.68-13.46h0M20.88-13.46h0M26.27-13.46h0M24.47-13.46h0M29.86-13.46h0M28.06-13.46h0M33.45-13.46h0M31.65-13.46h0M37.04-13.46h0M35.25-13.46h0M40.63-13.46h0M38.84-13.46h0M44.23-13.46h0M42.43-13.46h0M46.02-13.46h0M1.12-7.58h0M4.71-7.58h0M2.92-7.58h0M8.31-7.58h0M6.51-7.58h0M11.9-7.58h0M10.1-7.58h0M15.49-7.58h0M13.7-7.58h0M19.08-7.58h0M17.29-7.58h0M22.68-7.58h0M20.88-7.58h0M26.27-7.58h0M24.47-7.58h0M29.86-7.58h0M28.06-7.58h0M33.45-7.58h0M31.65-7.58h0M37.04-7.58h0M35.25-7.58h0M40.63-7.58h0M38.84-7.58h0M44.23-7.58h0M42.43-7.58h0M46.02-7.58h0M1.12-1.82h0M4.71-1.82h0M2.92-1.82h0M8.31-1.82h0M6.51-1.82h0M11.9-1.82h0M10.1-1.82h0M15.49-1.82h0M13.7-1.82h0M19.08-1.82h0M17.29-1.82h0M22.68-1.82h0M20.88-1.82h0M26.27-1.82h0M24.47-1.82h0M29.86-1.82h0M28.06-1.82h0M33.45-1.82h0M31.65-1.82h0M37.04-1.82h0M35.25-1.82h0M40.63-1.82h0M38.84-1.82h0M44.23-1.82h0M42.43-1.82h0M46.02-1.82h0" style="fill:none;stroke:#000;stroke-width:.7;stroke-linecap:round"/></svg>