<svg xmlns="http://www.w3.org/2000/svg" xml:space="preserve" width="54.13" height="54.13" viewBox="0.05 -54.13 54.13 54.13"><path d="M.05-54.13h54.13V0H.05z" style="fill:none"/><path d="M1-49.9c1.25-.25 3-1.33 6.17-.91M9.17-50.4c1.84.67 4.1 1.37 6.84.25M17.75-50.81c3.59-.67 6 .92 7.5 1.08M27.34-49.73c1.5 0 2.58-.75 3.83-1.08a7.3 7.3 0 0 1 4.42.08M37.26-50.06c1.16.25 5.16.33 7.33-.75M46.42-50.81c2-.08 1.75 0 3.56.5 1.36.92 3.2.42 3.6.5M3-45.98a9.4 9.4 0 0 1-2.95.78M12-44.98c-.41-.08-2.24.42-3.6-.5-1.81-.5-1.56-.58-3.56-.5M38.26-40.06c1.25-.25 3-1.33 6.16-.92M46.42-40.56c1.83.67 4.1 1.36 6.83.25M21.42-11.31c-3.17-.42-4.92.67-6.17.92M30.25-10.65c-2.73 1.12-5 .42-6.83-.25M39.5-10.23C38-10.4 35.6-11.98 32-11.3M41.59-10.23c1.5 0 2.58-.75 3.83-1.08s2.75-.5 4.42.08M5.17-11.48c-1.37.69-3.47.9-5.12.9M14.17-10.48c-.41-.08-2.25.42-3.6-.5-1.81-.5-1.56-.58-3.56-.5M.05-.63c.34-.1.68-.2 1.04-.35M10.34-.56c-1.5-.17-3.92-1.75-7.5-1.08M20.67-1.56a7.29 7.29 0 0 0-4.42-.09c-1.24.34-2.33 1.09-3.83 1.09M29.67-1.65c-2.17 1.09-6.17 1-7.33.75M38.67-.65c-.42-.08-2.25.42-3.6-.5-1.82-.5-1.57-.58-3.57-.5M46.42-1.81c-3.17-.42-4.92.67-6.17.92M4.96-35.94c-2.23-.3-3.77.16-4.91.54M13.8-35.27c-2.74 1.11-5 .42-6.84-.25M23.05-34.85c-1.5-.17-3.92-1.75-7.5-1.09M33.38-35.85c-1.67-.59-3.17-.42-4.42-.09s-2.33 1.09-3.83 1.09M42.38-35.94c-2.17 1.08-6.17 1-7.33.75M44.21-35.94c2-.08 1.75 0 3.56.5 1.36.92 3.2.42 3.61.5M7.21-21.31c-3.16-.42-4.91.66-6.16.91M9.21-20.9c1.84.67 4.1 1.37 6.84.25M17.8-21.31c3.58-.67 6 .91 7.5 1.08M27.38-20.23c1.5 0 2.58-.75 3.83-1.08a7.3 7.3 0 0 1 4.42.08M37.3-20.56c1.16.25 5.16.33 7.33-.75M46.46-21.31c2-.09 1.75 0 3.56.5 1.36.91 3.2.41 3.61.5M7.34-6.44c-3.17-.41-4.92.67-6.17.92M9.34-6.02c1.83.67 4.1 1.36 6.83.25M17.92-6.44c3.58-.66 6 .92 7.5 1.09M27.5-5.35c1.5 0 2.59-.75 3.84-1.09a7.3 7.3 0 0 1 4.41.09M37.42-5.69c1.17.25 5.17.34 7.33-.75M53.76-5.44c-.42-.08-2.25.42-3.61-.5-1.81-.5-1.56-.58-3.56-.5M19.09-45.94c-3.17-.42-4.92.67-6.17.92M27.92-45.27c-2.73 1.11-5 .42-6.83-.25M29.67-45.94c3.58-.67 6 .92 7.5 1.08M39.26-44.85c1.5 0 2.58-.75 3.83-1.09s2.75-.5 4.42.09M7.92-39.94C6.42-40.1 4-41.69.42-41.02M10-39.94c1.5 0 2.59-.75 3.84-1.08a7.3 7.3 0 0 1 4.42.08M19.92-40.27c1.17.25 5.17.33 7.33-.75M29.09-41.02c2-.08 1.75 0 3.56.5 1.35.92 3.19.42 3.6.5M7-31.19c-3.16-.41-4.91.67-6.16.92M15.84-30.52c-2.74 1.11-5 .42-6.83-.25M17.59-31.19c3.58-.66 6 .92 7.5 1.09M27.17-30.1c1.5 0 2.58-.75 3.83-1.09a7.3 7.3 0 0 1 4.42.09M37.09-30.44c1.16.25 5.16.34 7.33-.75M46.26-31.19c2-.08 1.75 0 3.56.5 1.35.92 3.19.42 3.6.5M20.75-26.31c-3.16-.42-4.91.66-6.16.91M29.59-25.65c-2.74 1.12-5 .42-6.84-.25M38.84-25.23c-1.5-.17-3.92-1.75-7.5-1.08M40.92-25.23c1.5 0 2.58-.75 3.83-1.08s2.75-.5 4.42.08M15.84-15.27c1.25-.25 3-1.33 6.17-.92M24-15.77c1.84.67 4.1 1.36 6.84.25M32.59-16.19c3.58-.66 6 .92 7.5 1.09M42.17-15.1c1.5 0 2.58-.75 3.83-1.09s2.75-.5 4.42.09M5.55-16.31c-1.48.73-3.8.93-5.5.9M7.38-16.31c2-.09 1.75 0 3.56.5 1.36.91 3.19.41 3.6.5M4.17-26.19c-1.1.55-2.68.8-4.12.88M13.17-25.19c-.41-.08-2.25.42-3.6-.5-1.81-.5-1.56-.58-3.56-.5M49.8-45.23c.73.16 2.57.25 4.37.03M51.96-10.73c.43.1 1.25.16 2.21.16M48.38-1.23c1.6.58 3.52 1.18 5.8.6M52.92-35.02c.37-.07.78-.22 1.25-.38M52.34-15.56c.37.08 1.03.14 1.83.15M50.96-25.44c.57.13 1.83.2 3.21.13" style="fill:none;stroke:#000;stroke-width:.3"/><path d="M.51-52.25h0M2.5-52.57h0M4.32-53.19h0M6.25-53.31h0M8.2-53.19h0M10.14-52.74h0M11.98-52.38h0M14.01-52.25h0M16.07-52.57h0M17.89-53.19h0M19.81-53.31h0M21.76-53.19h0M23.7-52.74h0M25.43-52.38h0M27.44-52.31h0M29.49-52.63h0M31.31-53.24h0M33.24-53.37h0M35.19-53.24h0M37.12-52.8h0M39.03-52.43h0M41.01-52.31h0M43.06-52.63h0M44.88-53.24h0M46.81-53.37h0M48.76-53.24h0M50.69-52.8h0M52.43-52.43h0M.87-47.68h0M2.69-48.3h0M4.62-48.42h0M6.56-48.3h0M8.5-47.85h0M10.35-47.48h0M12.38-47.36h0M14.43-47.68h0M16.25-48.3h0M18.18-48.42h0M20.13-48.3h0M22.07-47.85h0M23.8-47.48h0M25.8-47.42h0M27.86-47.73h0M29.68-48.35h0M31.6-48.48h0M33.55-48.35h0M35.49-47.91h0M37.39-47.54h0M39.37-47.42h0M41.43-47.73h0M43.25-48.35h0M45.17-48.48h0M47.12-48.35h0M49.06-47.91h0M50.79-47.54h0M52.78-47.47h0M.52-43.3h0M2.45-43.42h0M4.4-43.3h0M6.33-42.85h0M8.18-42.48h0M10.21-42.36h0M12.27-42.68h0M14.09-43.3h0M16.01-43.42h0M17.96-43.3h0M19.9-42.85h0M21.63-42.48h0M23.64-42.42h0M25.69-42.73h0M27.51-43.35h0M29.44-43.48h0M31.39-43.35h0M33.32-42.91h0M35.23-42.54h0M37.2-42.42h0M39.26-42.73h0M41.08-43.35h0M43.01-43.48h0M44.95-43.35h0M46.89-42.91h0M48.62-42.54h0M50.61-42.47h0M52.67-42.79h0M.69-38.46h0M2.62-38.59h0M4.56-38.46h0M6.5-38.02h0M8.35-37.65h0M10.38-37.53h0M12.43-37.84h0M14.25-38.46h0M16.18-38.59h0M18.13-38.46h0M20.07-38.02h0M21.8-37.65h0M23.8-37.58h0M25.86-37.9h0M27.68-38.52h0M29.6-38.65h0M31.55-38.52h0M33.49-38.08h0M35.39-37.71h0M37.37-37.58h0M39.43-37.9h0M41.25-38.52h0M43.17-38.65h0M45.12-38.52h0M47.06-38.08h0M48.79-37.71h0M50.78-37.64h0M52.84-37.96h0M1.2-32.68h0M3.02-33.3h0M4.95-33.42h0M6.9-33.3h0M8.84-32.85h0M10.68-32.48h0M12.71-32.36h0M14.77-32.68h0M16.59-33.3h0M18.51-33.42h0M20.46-33.3h0M22.4-32.85h0M24.13-32.48h0M26.14-32.42h0M28.19-32.73h0M30.01-33.35h0M31.94-33.48h0M33.89-33.35h0M35.82-32.91h0M37.73-32.54h0M39.7-32.42h0M41.76-32.73h0M43.58-33.35h0M45.51-33.48h0M47.45-33.35h0M49.39-32.91h0M51.12-32.54h0M53.11-32.47h0M1.04-28.01h0M2.86-28.63h0M4.78-28.76h0M6.73-28.63h0M8.67-28.19h0M10.52-27.82h0M12.54-27.69h0M14.6-28.01h0M16.42-28.63h0M18.34-28.76h0M20.29-28.63h0M22.23-28.19h0M23.96-27.82h0M25.97-27.75h0M28.03-28.07h0M29.84-28.69h0M31.77-28.81h0M33.72-28.69h0M35.66-28.24h0M37.56-27.88h0M39.54-27.75h0M41.59-28.07h0M43.41-28.69h0M45.34-28.81h0M47.29-28.69h0M49.23-28.24h0M50.96-27.88h0M52.95-27.81h0M.52-22.69h0M2.37-23.01h0M4.19-23.63h0M6.12-23.76h0M8.06-23.63h0M10-23.19h0M11.85-22.82h0M13.88-22.69h0M15.93-23.01h0M17.75-23.63h0M19.68-23.76h0M21.63-23.63h0M23.57-23.19h0M25.3-22.82h0M27.3-22.75h0M29.36-23.07h0M31.18-23.69h0M33.1-23.81h0M35.05-23.69h0M36.99-23.24h0M38.89-22.88h0M40.87-22.75h0M42.93-23.07h0M44.75-23.69h0M46.67-23.81h0M48.62-23.69h0M50.56-23.24h0M52.29-22.88h0M1.37-17.69h0M3.37-18.01h0M5.19-18.63h0M7.12-18.76h0M9.06-18.63h0M11-18.19h0M12.85-17.82h0M14.88-17.69h0M16.93-18.01h0M18.75-18.63h0M20.68-18.76h0M22.63-18.63h0M24.57-18.19h0M26.3-17.82h0M28.3-17.75h0M30.36-18.07h0M32.18-18.69h0M34.1-18.81h0M36.05-18.69h0M37.99-18.24h0M39.89-17.88h0M41.87-17.75h0M43.93-18.07h0M45.75-18.69h0M47.67-18.81h0M49.62-18.69h0M51.56-18.24h0M53.29-17.88h0M1.2-12.86h0M3.2-13.18h0M5.02-13.8h0M6.95-13.92h0M8.9-13.8h0M10.84-13.35h0M12.68-12.98h0M14.71-12.86h0M16.77-13.18h0M18.59-13.8h0M20.51-13.92h0M22.46-13.8h0M24.4-13.35h0M26.13-12.98h0M28.14-12.92h0M30.19-13.23h0M32.01-13.85h0M33.94-13.98h0M35.89-13.85h0M37.82-13.41h0M39.73-13.04h0M41.7-12.92h0M43.76-13.23h0M45.58-13.85h0M47.51-13.98h0M49.45-13.85h0M51.39-13.41h0M53.12-13.04h0M1.92-8.14h0M3.74-8.76h0M5.67-8.88h0M7.62-8.76h0M9.55-8.31h0M11.4-7.94h0M13.43-7.82h0M15.48-8.14h0M17.3-8.76h0M19.23-8.88h0M21.18-8.76h0M23.11-8.31h0M24.85-7.94h0M26.85-7.88h0M28.91-8.19h0M30.73-8.81h0M32.65-8.94h0M34.6-8.81h0M36.54-8.37h0M38.44-8h0M40.42-7.88h0M42.48-8.19h0M44.3-8.81h0M46.22-8.94h0M48.17-8.81h0M50.11-8.37h0M51.84-8h0M53.83-7.93h0M.65-3.25h0M2.47-3.87h0M4.4-3.99h0M6.34-3.87h0M8.28-3.42h0M10.13-3.05h0M12.16-2.93h0M14.21-3.25h0M16.03-3.87h0M17.96-3.99h0M19.91-3.87h0M21.84-3.42h0M23.58-3.05h0M25.58-2.98h0M27.64-3.3h0M29.46-3.92h0M31.38-4.05h0M33.33-3.92h0M35.27-3.48h0M37.17-3.11h0M39.15-2.98h0M41.21-3.3h0M43.03-3.92h0M44.95-4.05h0M46.9-3.92h0M48.84-3.48h0M50.57-3.11h0M52.56-3.04h0" style="fill:none;stroke:#000;stroke-width:.7;stroke-linecap:round"/></svg>