<svg xmlns="http://www.w3.org/2000/svg" xml:space="preserve" width="54.13" height="54.13" viewBox="0 -54.13 54.13 54.13"><path d="M0-54.13h54.13V0H0z" style="fill:none"/><path d="M0-48.2h4.12M13.07-48.2H6.7M21.99-48.2h-6.37M30.91-48.2h-6.37M33.45-48.2h6.37M48.74-48.2h-6.37M51.29-48.2h2.84M1.46-39.97h6.37M10.37-39.97h6.37M19.29-39.97h6.37M34.58-39.97h-6.37M43.49-39.97h-6.37M46.04-39.97h6.37M8.1-25.25H1.73M17.05-25.25h-6.37M25.97-25.25H19.6M34.88-25.25h-6.37M43.8-25.25h-6.37M52.72-25.25h-6.37M3.48-17.61H0M12.43-17.61H6.06M21.34-17.61h-6.37M30.26-17.61h-6.37M39.17-17.61h-6.36M48.09-17.61h-6.37M50.64-17.61h3.49M0-10.46h1.52M10.47-10.46H4.1M19.38-10.46h-6.37M28.3-10.46h-6.37M37.22-10.46h-6.37M46.13-10.46h-6.37M48.68-10.46h5.45M1.52-2.47h6.37M16.84-2.47h-6.37M19.39-2.47h6.37M28.31-2.47h6.36M37.22-2.47h6.37M46.14-2.47h6.37M0-32.96h3.1M5.68-32.96h6.37M14.6-32.96h6.37M23.51-32.96h6.37M32.43-32.96h6.37M41.35-32.96h6.37M50.26-32.96h3.87M32.18-50.38h14.37M32.18-50.38h-13.5M5.93-50.38H0M5.93-50.38h12.75M54.13-50.38h-7.58M54.13-46.2H0M0-42.01h54.13M33.76-12.4h14.87M6.88-12.4h13.25M6.88-12.4H0M33.76-12.4H20.13M48.63-12.4h5.5M0-8.63h54.13M5.93-37.99H0M18.68-37.99H5.93M31.93-37.99H18.68M31.93-37.99h14.62M46.55-37.99h7.58M0-34.71h54.13M48.66-31.29h5.47M6.66-31.29H0M20.16-31.29H6.66M33.79-31.29H20.16M48.66-31.29H33.79M0-27.24h54.13M0-23.44h54.13M0-19.24h54.13M0-16.01h54.13M18.68-.84H5.93M18.68-.84h13.5M46.55-.84h7.58M0-.84h5.93M46.55-.84H32.18M5.93-50.38v-3.75M18.68-54.13v3.75M32.18-50.38v-3.75M46.55-54.13v3.75M5.93-.85v.01M5.93 0v-.84M18.68-.84V0M18.68-.84v-.01M32.18 0v-.84M32.18-.85v.01M46.55-.84v-.01M46.55-.84V0M7.04-46.08v4.06M20.29-46.08v4.06M33.85-46.08v4.06M48.79-46.08v4.06M46.55-34.73v-3.26M46.55-38.02v.03M31.93-37.99v-.03M31.93-37.99v3.26M18.68-38.02v.03M18.68-37.99v3.26M5.93-37.99v3.26M5.93-38.02v.03M6.66-31.3v.01M6.66-31.29v4.04M20.16-31.3v.01M20.16-31.29v4.04M33.79-31.3v.01M33.79-31.29v4.04M48.66-31.29v4.04M48.66-31.29v-.01M5.53-23.39v4.14M18.52-23.39v4.14M32.15-23.39v4.14M46.4-19.25v-4.14M6.88-12.4v-3.56M20.13-15.96v3.56M33.76-12.4v-3.56M48.63-12.4v-3.56M0-4.21h54.13M4.57-8.59v4.35M17.57-8.59v4.35M31.57-8.59v4.35M46.13-8.59v4.35M8.76-52.47h7.25M35.88-52.47h7.25M30.76-44.14h-7.25M4.43-44.14H0M42.68-36.39h-7.25M54.09-29.14h-2.78M43.06-21.39h-7.25M23.56-14.14h7.25M14.56-6.14H7.31M15.81-36.28H8.56M30.56-29.28h-7.25M15.68-21.28H8.43M0-14.03h3.81M42.56-6.28h-7.25M54.07-44.14h-2.81M51.26-14.03h2.81M2.63-29.14H.01" style="fill:none;stroke:#000;stroke-width:.3"/><path d="M0-54.13h54.13V0H0z" style="fill:none"/><path d="M25.34-52.44h0M22.23-52.44h0M28.09-52.44h0M1.89-52.44h0M53.39-52.44h0M51.06-52.44h0M13.73-44.16h0M16.73-44.16h0M10.56-44.16h0M13.56-29.25h0M16.56-29.25h0M10.39-29.25h0M41.39-29.25h0M44.39-29.25h0M38.23-29.25h0M25.56-21.25h0M28.56-21.25h0M22.39-21.25h0M41.56-14.09h0M44.56-14.09h0M38.39-14.09h0M13.89-14.09h0M16.89-14.09h0M10.73-14.09h0M25.06-6.32h0M28.06-6.32h0M21.89-6.32h0M53.06-6.32h0M1.73-6.32h0M49.89-6.32h0M53.06-21.25h0M49.89-21.25h0M2.39-21.25h0M41.39-44.16h0M44.56-44.16h0M37.73-44.16h0M25.39-36.25h0M28.23-36.25h0M22.06-36.25h0M53.23-36.25h0M1.96-36.25h0M49.89-36.25h0" style="fill:none;stroke:#000;stroke-width:.7;stroke-linecap:round"/></svg>