<svg xmlns="http://www.w3.org/2000/svg" xml:space="preserve" width="48.71" height="48.71" viewBox="0 -48.71 48.71 48.71"><path d="M0-48.71h48.71V0H0z" style="fill:none"/><path d="M.37-38.37H0M2.69-38.37h1.15M3.84-38.37h4.59M10.72-38.37h5.73M19.77-38.37h4.71M18.75-38.37h1.02M26.77-38.37h5.73M36.65-38.37h4.5M35.42-38.37h1.23M43.33-38.37h5.38M3.52-34.57H0M5.81-34.57h5.73M13.84-34.57h5.73M27.59-34.57h-5.73M29.89-34.57h5.73M43.65-34.57h-5.74M45.94-34.57h2.77M0-31.36h.77M4.25-31.36h4.57M4.25-31.36H3.09M16.85-31.36h-5.73M20.48-31.36h-1.34M24.87-31.36h-4.39M27.16-31.36h5.74M36.55-31.36h-1.36M36.55-31.36h4.37M43.22-31.36h5.49M11.34-45.34h5.47M24.73-45.34h-7.92M24.73-45.34h4.23M41.9-45.34h6.63M36.99-45.34h-8.03M48.53-45.34h.18M41.9-45.34h-4.91M11.34-45.34H5.33M0-45.34h5.33M0-41.58h48.71M6-28.16h12.15M43.8-28.16H30.41M30.41-28.16H18.15M6-28.16H0M43.8-28.16h4.91M0-24.51h48.71M0-21.09h48.71M0-17.31h48.71M46.56-.75H41.9M0-.75h5.33M5.33-.75h3.94M46.56-.75h2.15M16.81-.75H9.27M41.9-.75h-7.38M28.96-.75h5.56M22.26-.75h6.7M22.26-.75h-5.45M5.33-48.71v3.37M16.81-48.71v3.37M28.96-48.71v3.37M41.9-45.34v-3.37M5.33-.77v.02M5.33 0v-.75M16.81-.77v.02M16.81 0v-.75M28.96 0v-.75M28.96-.77v.02M41.9 0v-.75M41.9-.77v.02M11.34-45.34v3.75M11.34-45.34v-.05M24.73-45.34v3.75M24.73-45.34v-.05M36.99-45.34v3.75M36.99-45.39v.05M48.53-41.59v-3.75M6-28.16v3.64M6-28.17v.01M18.15-28.17v.01M18.15-24.52v-3.64M30.41-28.17v.01M30.41-28.16v3.64M43.8-28.16v3.64M43.8-28.16v-.01M36.03-24.47v3.36M24.04-24.47v3.36M10.54-24.47v3.36M47.94-24.47v3.36M4.97-21.05v3.73M16.67-21.05v3.73M28.93-21.05v3.73M41.76-17.32v-3.73M46.56-3.79H34.52M22.26-3.79H9.27M0-3.79h9.27M46.56-3.79h2.15M22.26-3.79h12.26M9.27-.7v-.05M9.27-3.79v3.04M9.27-3.81v.02M22.26-3.79v3.04M22.26-3.79v-.02M22.26-.75v.05M34.52-.7v-.05M34.52-3.79v3.04M34.52-3.81v.02M46.56-3.79v-.02M46.56-3.79v3.04M46.56-.75v.05M3.84-38.34v-.03M3.84-38.37v-1.6M19.77-38.34v-.03M19.77-38.37v-1.6M36.65-38.34v-.03M36.65-38.37v-1.6M4.25-31.36v.01M4.25-31.36v-1.62M20.48-32.98v1.62M20.48-31.36v.01M36.55-31.36v.01M36.55-31.36v-1.62M15.19-36.2v1.63M31.13-36.2v1.63M47.09-34.57v-1.63M1.22-13.49H0M3.55-13.49h1.14M9.28-13.49H4.69M17.3-13.49h-5.73M20.63-13.49H19.6M25.33-13.49h-4.7M27.62-13.49h5.73M37.5-13.49h-1.23M37.5-13.49H42M44.18-13.49h4.53M4.37-9.69H0M6.66-9.69h5.74M14.69-9.69h5.73M22.71-9.69h5.74M30.74-9.69h5.73M38.76-9.69h5.73M46.79-9.69h1.92M0-6.48h1.62M5.1-6.48H3.94M5.1-6.48h4.57M17.7-6.48h-5.73M21.32-6.48h-1.33M25.72-6.48h-4.4M33.75-6.48h-5.73M37.41-6.48h-1.37M41.77-6.48h-4.36M44.06-6.48h4.65M4.69-13.46v-.03M4.69-15.09v1.6M20.63-13.49v.03M20.63-15.09v1.6M37.5-13.49v-1.6M37.5-13.49v.03M5.1-6.48V-8.1M5.1-6.48v.01M21.32-6.48v.01M21.32-6.48V-8.1M37.41-6.48V-8.1M37.41-6.48v.01M16.04-11.32v1.63M31.98-11.32v1.63M47.94-9.69v-1.63" style="fill:none;stroke:#000;stroke-width:.3"/><path d="M0-48.71h48.71V0H0z" style="fill:none"/></svg>