<svg xmlns="http://www.w3.org/2000/svg" xml:space="preserve" width="54.13" height="54.13" viewBox="0 -54.13 54.13 54.13"><path d="M0-54.13h54.13V0H0z" style="fill:none"/><circle cx="41.52" cy="-2.1" r="1.01" style="fill:none;stroke:#000;stroke-width:.43"/><circle cx="8.02" cy="-13.74" r="1.01" style="fill:none;stroke:#000;stroke-width:.43"/><circle cx="14.94" cy="-2.79" r="1.01" style="fill:none;stroke:#000;stroke-width:.43"/><circle cx="21.39" cy="-12.69" r="1.01" style="fill:none;stroke:#000;stroke-width:.43"/><circle cx="35.12" cy="-7.85" r="1.01" style="fill:none;stroke:#000;stroke-width:.43"/><circle cx="40.82" cy="-13.41" r="1.01" style="fill:none;stroke:#000;stroke-width:.43"/><circle cx="52.88" cy="-18.81" r="1.01" style="fill:none;stroke:#000;stroke-width:.43"/><circle cx="29.39" cy="-15.35" r="1.01" style="fill:none;stroke:#000;stroke-width:.43"/><path d="M31.55-14.4s2.93-2.54 2.61-3.5M40.71-16.19l-1.11-3.35M44.85-49.7c.63-.32-1.43 1.91-1.28 3.18M46.13-9.07c-.8-.16 2.7-1.27 3.34-2.07M9.19-6.76c-.8-.16 2.7-1.27 3.34-2.07M21.39-6.73c-3.08 0-3-.62-4.62-1.11M.71-37.43l4.77.32M33.2-39.95c-.96 0-3.5-1.27-3.67-2.07M5.24-.98c-.95 0-3.5-1.27-3.66-2.07M17.57-14c.16-.67-3.02 1.24-2.76 1.9" style="fill:none;stroke:#000;stroke-width:.43"/><circle cx="10.93" cy="-37.57" r="1.01" style="fill:none;stroke:#000;stroke-width:.43"/><circle cx="14.07" cy="-30.23" r="1.01" style="fill:none;stroke:#000;stroke-width:.43"/><circle cx="32.94" cy="-30.56" r="1.01" style="fill:none;stroke:#000;stroke-width:.43"/><circle cx="52.37" cy="-37.55" r="1.01" style="fill:none;stroke:#000;stroke-width:.43"/><path d="M34.84-33.49s3.47-1.36 3.65-2.35M48.78-18.77c-.16-1.27 1.91-3.5 1.27-3.18M44.07-27.02c-.8-.16 2.7-1.28 3.34-2.07M22.92-25.83s-3.97 2.55-4.93 2.55M13.53-15.83c-1.65.01-2.97-1.26-3.44-1.9M5.88-29.73s2.88-1.51 3.04-2.46M21.73-35.65c-.17-.28 4.5-1.28 4.5-1.83M31.04-22.33c.16.8 3.02-1.43 3.98-1.43M2.24-48.31l1.91-2.86" style="fill:none;stroke:#000;stroke-width:.43"/><circle cx="45.93" cy="-41.44" r="1.01" style="fill:none;stroke:#000;stroke-width:.43"/><circle cx="13.33" cy="-43.62" r="1.01" style="fill:none;stroke:#000;stroke-width:.43"/><circle cx="27.5" cy="-45.77" r="1.01" style="fill:none;stroke:#000;stroke-width:.43"/><circle cx="41.56" cy="-51.31" r="1.01" style="fill:none;stroke:#000;stroke-width:.43"/><circle cx="52.48" cy="-52.48" r="1.01" style="fill:none;stroke:#000;stroke-width:.43"/><path d="M21.5-48.83c-.8-.16 2.7-1.27 3.34-2.07M24.01-42.56c-.87 0-.6.1-4.61-1.11M9.33-43.02c-.96-.16-2.87-.48-3.35-1.12M22.1-18.51c.48.63 2.86-1.28 3.82-1.12M35.15-50.43c.16.8 2.7 2.07 3.66 2.07M13.53-50.88l1.91-2.87" style="fill:none;stroke:#000;stroke-width:.43"/><circle cx="35.56" cy="-42.47" r=".44" style="stroke:#000;stroke-width:0"/><circle cx="25.95" cy="-49.08" r=".44" style="stroke:#000;stroke-width:0"/><circle cx="10.59" cy="-51.24" r=".44" style="stroke:#000;stroke-width:0"/><circle cx="14.16" cy="-47.81" r=".44" style="stroke:#000;stroke-width:0"/><circle cx="17.57" cy="-41.86" r=".44" style="stroke:#000;stroke-width:0"/><circle cx="40.05" cy="-41.44" r=".44" style="stroke:#000;stroke-width:0"/><circle cx="41.16" cy="-46.91" r=".44" style="stroke:#000;stroke-width:0"/><circle cx="33.35" cy="-44.44" r=".44" style="stroke:#000;stroke-width:0"/><circle cx="48.84" cy="-47.38" r=".44" style="stroke:#000;stroke-width:0"/><circle cx="53.42" cy="-44.39" r=".44" style="stroke:#000;stroke-width:0"/><circle cx="51.34" cy="-47.95" r=".44" style="stroke:#000;stroke-width:0"/><circle cx="18.97" cy="-51.05" r=".44" style="stroke:#000;stroke-width:0"/><circle cx="37.25" cy="-30.57" r=".44" style="stroke:#000;stroke-width:0"/><circle cx="29.02" cy="-27.96" r=".44" style="stroke:#000;stroke-width:0"/><circle cx="23.38" cy="-34.3" r=".44" style="stroke:#000;stroke-width:0"/><circle cx="16.09" cy="-37.15" r=".44" style="stroke:#000;stroke-width:0"/><circle cx="16.48" cy="-28.1" r=".44" style="stroke:#000;stroke-width:0"/><circle cx="3.59" cy="-18.47" r=".44" style="stroke:#000;stroke-width:0"/><circle cx="10.48" cy="-20.97" r=".44" style="stroke:#000;stroke-width:0"/><circle cx="10.23" cy="-27.89" r=".44" style="stroke:#000;stroke-width:0"/><circle cx="4.45" cy="-25.97" r=".44" style="stroke:#000;stroke-width:0"/><circle cx="17.3" cy="-25.43" r=".44" style="stroke:#000;stroke-width:0"/><circle cx="39.75" cy="-22.86" r=".44" style="stroke:#000;stroke-width:0"/><circle cx="37.48" cy="-24.77" r=".44" style="stroke:#000;stroke-width:0"/><circle cx="29.11" cy="-33.19" r=".44" style="stroke:#000;stroke-width:0"/><circle cx="36.75" cy="-38.44" r=".44" style="stroke:#000;stroke-width:0"/><circle cx="47.65" cy="-26.6" r=".44" style="stroke:#000;stroke-width:0"/><circle cx="41.58" cy="-28.63" r=".44" style="stroke:#000;stroke-width:0"/><circle cx="45.55" cy="-33.47" r=".44" style="stroke:#000;stroke-width:0"/><circle cx="49.65" cy="-34.72" r=".44" style="stroke:#000;stroke-width:0"/><circle cx="51.87" cy="-29.37" r=".44" style="stroke:#000;stroke-width:0"/><circle cx="17.95" cy="-33.54" r=".44" style="stroke:#000;stroke-width:0"/><circle cx="7.52" cy="-33.7" r=".44" style="stroke:#000;stroke-width:0"/><circle cx="3.19" cy="-31.15" r=".44" style="stroke:#000;stroke-width:0"/><circle cx="1.08" cy="-22.82" r=".44" style="stroke:#000;stroke-width:0"/><circle cx="3.66" cy="-40.3" r=".44" style="stroke:#000;stroke-width:0"/><circle cx="34.2" cy="-3.31" r=".44" style="stroke:#000;stroke-width:0"/><circle cx="29.6" cy="-7.03" r=".44" style="stroke:#000;stroke-width:0"/><circle cx="25.34" cy="-15.55" r=".44" style="stroke:#000;stroke-width:0"/><circle cx="19.46" cy="-3.05" r=".44" style="stroke:#000;stroke-width:0"/><circle cx="11.46" cy="-10.67" r=".44" style="stroke:#000;stroke-width:0"/><circle cx="14.73" cy="-9.7" r=".44" style="stroke:#000;stroke-width:0"/><circle cx="2.58" cy="-7.69" r=".44" style="stroke:#000;stroke-width:0"/><circle cx="7.57" cy="-8.27" r=".44" style="stroke:#000;stroke-width:0"/><circle cx="23.68" cy="-.79" r=".44" style="stroke:#000;stroke-width:0"/><circle cx="41.04" cy="-6.56" r=".44" style="stroke:#000;stroke-width:0"/><circle cx="38.76" cy="-9.48" r=".44" style="stroke:#000;stroke-width:0"/><circle cx="35.03" cy="-14.37" r=".44" style="stroke:#000;stroke-width:0"/><circle cx="35.03" cy="-20.34" r=".44" style="stroke:#000;stroke-width:0"/><circle cx="26.79" cy="-22.79" r=".44" style="stroke:#000;stroke-width:0"/><circle cx="21.43" cy="-22.61" r=".44" style="stroke:#000;stroke-width:0"/><circle cx="1.76" cy="-52.92" r=".44" style="stroke:#000;stroke-width:0"/><circle cx="17.24" cy="-20" r=".44" style="stroke:#000;stroke-width:0"/><circle cx="48.54" cy="-7.87" r=".44" style="stroke:#000;stroke-width:0"/><circle cx="50.78" cy="-6.4" r=".44" style="stroke:#000;stroke-width:0"/><circle cx="44.8" cy="-15.43" r=".44" style="stroke:#000;stroke-width:0"/><circle cx="47.94" cy="-23.13" r=".44" style="stroke:#000;stroke-width:0"/><circle cx="52.83" cy="-12.04" r=".44" style="stroke:#000;stroke-width:0"/><circle cx="19.4" cy="-15.79" r=".44" style="stroke:#000;stroke-width:0"/><circle cx="4.25" cy="-15.45" r=".44" style="stroke:#000;stroke-width:0"/><path d="M0-54.13h54.13V0H0z" style="fill:none"/><path d="M1.44-39.68h0M6.49-40.62h0M13.64-38.27h0M18.47-38.81h0M18.81-36.11h0M14.96-34.68h0M11.84-34.91h0M6.95-36.1h0M5.06-31.27h0M1.32-31.6h0M17.63-49.13h0M9.68-41.1h0M3.03-42.87h0M1.38-50.25h0M7.88-51.75h0M13.5-49.88h0M25.3-43.93h0M24.63-47.5h0M21.88-50.75h0M26-51.88h0M34.25-53.52h0M46.38-48.25h0M53.5-48.63h0M50.13-50.38h0M47.01-44.23h0M45-51.63h0M30.13-44.9h0M49.34-30.21h0M40.13-30.5h0M25.5-33.5h0M50.38-45.5h0M33.75-49.25h0M39.41-49.8h0M37.88-51.75h0M36.85-45.09h0M1.69-25.28h0M7.04-27.2h0M11.55-29.84h0M14.52-27.2h0M18.26-29.84h0M21.34-33.47h0M21.85-37.87h0M28.13-36.13h0M27.86-40.57h0M32.99-42.02h0M33-37.1h0M36.96-36h0M37.59-40.99h0M43-42.38h0M48.63-40.87h0M53.57-41.61h0M49.61-36.77h0M46.09-35.67h0M48.18-32.59h0M52.91-34.9h0M41.69-33.58h0M50.71-27.2h0M44.66-29.29h0M38.72-26.76h0M35.26-28.77h0M30.69-30.28h0M32.67-26.65h0M42.29-22.85h0M45.54-23.57h0M46.75-21.32h0M51.48-22.8h0M51.15-17.3h0M47.76-13.81h0M44.59-13.02h0M38.1-15.3h0M36.18-16.97h0M29.99-17.97h0M35.89-22.52h0M38.06-20.16h0M52.03-9.46h0M49.1-16.35h0M43.79-9.21h0M41.14-8.94h0M37.18-6.63h0M44.33-1.24h0M52.58-1.79h0M53.02-6.19h0M37.84-2.89h0M31.57-2.56h0M32.56-8.17h0M31.13-12.24h0M26.07-17.96h0M30.36-23.85h0M27.39-26.43h0M24.2-23.68h0M23.17-20.98h0M22.44-26.76h0M19.63-26.5h0M20.02-20.71h0M16.61-22.69h0M13.2-22.36h0M9.57-23.46h0M7.18-18.2h0M16.72-16.97h0M14.52-14.44h0M10.23-14.66h0M7.18-15.98h0M5.17-13.23h0M1.44-16.66h0M52.96-26.25h0M1.8-13.31h0M5.06-8.06h0M16.72-44.38h0M8.88-9.9h0M13.38-6.88h0M14.97-6.14h0M17.27-10.81h0M22.44-10.37h0M20.65-45.01h0M23.5-7.13h0M27.5-5.53h0M25.3-2.56h0M21.01-.47h0M22.41-2.83h0M16.83-1.24h0M13.31-4.21h0M13.09-.91h0M7.62-.46h0M4.31-3.21h0M.63-.63h0M1.76-5.53h0" style="fill:none;stroke:#000;stroke-width:.7;stroke-linecap:round"/><path d="M20.9-30.53c.76-1.26 2.64-1.48 3.46-1.24.83.25 1.16.66 1.65.58.5-.08 1.73 1.16.58 1.98-1.15.83-2.89 1.57-3.46 1.24-.58-.33-1.24-.66-1.65-.83-.42-.16-.83-1.32-.58-1.73zM41.36-38.78c.99 0 1.81.58 2.06 1.24s-.66 2.64-2.56 1.4c-1.9-1.24-1.15-2.8.5-2.64zM45.81-19.97c2.23 1.4 2.06 3.63-.41 2.89-2.47-.74-2.4-1-3.46-2.64-1.08-1.65 2.39-1.16 3.87-.25zM28.9-11.22c1.73.9 1.4 2.64-.58 2.22-1.98-.41-2.72-1.23-3.13-2.14-.41-.9.99-1.98 2.56-1 .4.42 1.15.92 1.15.92zM6.21-23.19c1.24.25 1.9.74 1.98 1.73.09 1-.57 1.98-2.88 1.82-2.31-.17-3.8-.58-2.48-2.15.83-.08 1.16-.24 1.49-.9.33-.66 1.32-.66 1.9-.5zM2.83-36.06c1.73-.66 3.3 1.4 1.24 1.98-2.07.58-3.05-1.57-1.24-1.98zM49.6-4.38c1.5-1.15 2.73.33 1.74 1.16-.99.82-2.4 1.98-3.3 1.32-.9-.66-.58-1.82.33-1.98.9-.17 1.24-.5 1.24-.5zM9.27-5.7c2.06.42 2.97 1.4 1.56 2.23-1.4.83-1.4.66-2.97.17C6.3-3.8 4.9-4.38 5.88-5.12c1-.74 2.31-.99 3.39-.58zM6.38-38.29l7.26-2.69M3.78-53.78l8.25 1.14M24.67-39.43l8.3.92M45.98-38.86l6.11-.8M42.85-53.63l7.06 1.07M45.26-31.39l-8.34-.68M17.38-32.04l-6.97-.53M20.33-47l-6.37 1.26M39.38-47.09l-6.51.55M7.04-25.44l7.41.45M27.33-24.88l7.74-1.05M22.59-52.88l8.4-.87M46.86-25.22l6.72 1.66M38.72-18.4l-6.22-.55M23.96-16.85l-6.58-1.33M3.91-10.95l8.22-1.29M38.72-11.58l7.97.78M38.94-4.67l-8.33-.66M25.01-5.66l-7.26 1.07M21.17-41.5c1.49.08 1.32 1.57.09 1.65-1.24.08-1.4-1.48-.09-1.65zM32.28-35.8c1.65 0 1.4 1.64.17 1.64-1.24 0-1.57-1.65-.17-1.65zM16.96-52.77c1.65 0 1.4 1.64.17 1.64s-1.57-1.64-.17-1.64zM52.74-31.85c0 1.32-1.4 1.15-1.48 0-.08-1.15 1.48-.99 1.48 0zM42.51-26.24c1.4 0 1.32 1.4.17 1.4-1.16 0-1.9-1.32-.17-1.4zM51.92-15.27c1.2 0 1.37 1.43.27 1.49-1.1.05-1.7-1.38-.27-1.49zM36.68-11.7c0 1.27-1.43 1.05-1.43.06s1.43-1.32 1.43-.05zM28.98-20.16c-.05 1.32-1.54.99-1.6.05-.05-.93 1.39-1.43 1.6-.05zM3.02-45.93c-.06 1.31-1.54.98-1.6.05-.05-.93 1.38-1.43 1.6-.05zM45.7-6.22c.83.6.33 1.7-.82 1.05-1.16-.66-.5-1.82.82-1.05zM28.32-1.96c1.14.42.77 1.87-.44 1.43-1.2-.44-.6-1.81.44-1.43zM19.58-9.82c1.37.1 1.15 1.48.16 1.54-.99.05-1.6-1.54-.16-1.54zM14.19-20.05c1.37.93.1 1.92-.88 1.32-1-.6-.17-1.82.88-1.32zM2.14-10.87c.82.83-.22 1.6-.88 1-.66-.6-.28-1.71.88-1zM3.97-27.71c.06 1.27-1.43 1.16-1.48.22-.06-.94 1.37-1.38 1.48-.22zM41.37-44.83c.05 1.26-1.43 1.15-1.49.22-.05-.94 1.38-1.38 1.49-.22zM30.88-50.69c1.01.61 1.25 2 .5 2.5s-2.88.38-3.38-.12-1-1.5.25-2.13 2-.62 2.63-.25zM5.5-49c.63-.75 1.63-.75 3.13-.25s1.62 1 2.12 1 1.38 2 .13 2.25-4.38.5-4.76-.38S5.5-49 5.5-49z" style="fill:none;stroke:#000;stroke-width:.3"/><path d="m34.65-.22 1.91-2.86" style="fill:none;stroke:#000;stroke-width:.43"/><circle cx="20.52" cy="-53.56" r=".44" style="stroke:#000;stroke-width:0"/><circle cx="31.57" cy="-20.51" r=".44" style="stroke:#000;stroke-width:0"/><circle cx="36.94" cy="-53.37" r=".44" style="stroke:#000;stroke-width:0"/><circle cx="32.32" cy="-52.31" r=".44" style="stroke:#000;stroke-width:0"/></svg>