<svg xmlns="http://www.w3.org/2000/svg" xml:space="preserve" width="54.13" height="54.13" viewBox="0 -54.22 54.13 54.13"><path d="M0-54.22h54.13V-.09H0z" style="fill:none"/><path d="M1.76-38.96h0M6.49-40.72h0M13.64-38.37h0M16.83-40.06h0M18.81-36.21h0M14.96-34.78h0M10.89-35.22h0M6.38-35.88h0M5.06-31.37h0M1.32-31.7h0M17.63-49.22h0M9.63-43.85h0M3.69-43.16h0M1.38-50.35h0M7.88-51.85h0M13.5-49.97h0M25.3-44.02h0M24.63-47.6h0M21.88-50.85h0M26-51.97h0M34.25-53.62h0M46.38-48.35h0M53.5-48.72h0M50.13-50.47h0M47.01-44.33h0M45-51.72h0M30.13-45h0M48.38-28.97h0M40.13-30.6h0M25.5-33.6h0M50.38-45.6h0M33.75-49.35h0M41.38-49.35h0M37.88-51.85h0M36.02-43.61h0M1.36-24.78h0M7.04-27.3h0M11.55-29.94h0M14.52-27.3h0M18.26-29.94h0M21.34-33.57h0M22.99-37.2h0M28.13-36.22h0M27.86-40.67h0M31.7-42.35h0M33-37.2h0M36.96-36.1h0M38.17-41.05h0M43-42.47h0M48.63-40.97h0M53.57-41.71h0M49.61-36.87h0M46.09-35.77h0M48.18-32.69h0M52.91-35h0M41.69-33.68h0M50.71-27.3h0M44.66-29.39h0M38.72-26.86h0M35.64-29.61h0M30.69-30.38h0M32.67-26.75h0M41.8-22.24h0M45.54-23.67h0M48.29-20.81h0M51.48-22.9h0M51.15-17.4h0M47.41-13.77h0M42.79-14.87h0M38.72-14.1h0M34.54-15.09h0M30.36-17.4h0M33.99-22.57h0M38.06-20.26h0M52.36-11.02h0M49.94-8.49h0M45.54-8.49h0M41.14-9.04h0M37.18-6.73h0M41.8-4.64h0M44.33-1.34h0M52.58-1.89h0M53.02-6.29h0M40.59-.46h0M37.84-2.99h0M31.57-2.66h0M32.56-8.27h0M31.13-12.34h0M27.39-14.65h0M26.07-18.06h0M23.1-14.43h0M29.15-22.02h0M27.39-26.53h0M24.2-23.78h0M23.32-20.15h0M22.44-26.86h0M19.47-24.99h0M20.02-20.81h0M16.61-22.79h0M13.2-22.46h0M9.57-23.56h0M9.79-18.72h0M16.72-17.07h0M19.36-13.88h0M14.52-14.54h0M10.23-14.76h0M6.82-15.97h0M5.17-13.33h0M2.42-16.96h0M.44-19.71h0M1.8-13.4h0M5.06-8.16h0M15.66-43.32h0M9.5-9.22h0M13.5-8.35h0M16.5-6.84h0M17.27-10.91h0M22.44-10.47h0M20.65-45.11h0M23.5-7.22h0M27.5-5.63h0M25.3-2.66h0M21.01-.57h0M21.94-3.62h0M16.83-1.34h0M13.31-4.31h0M13.09-1.01h0M7.59-.35h0M4.95-2.44h0M.63-.72h0M1.76-5.63h0" style="fill:none;stroke:#000;stroke-width:.7;stroke-linecap:round"/><path d="M20.9-30.63c.76-1.26 2.64-1.48 3.46-1.23.83.24 1.16.66 1.65.57.5-.08 1.73 1.16.58 1.98-1.15.83-2.89 1.57-3.46 1.24-.58-.33-1.24-.66-1.65-.82-.42-.17-.83-1.32-.58-1.74zM41.36-38.88c.99 0 1.81.58 2.06 1.24s-.66 2.64-2.56 1.4c-1.9-1.23-1.15-2.8.5-2.64zM45.81-20.07c2.23 1.4 2.06 3.63-.41 2.9-2.47-.75-2.4-1-3.46-2.65-1.08-1.65 2.39-1.16 3.87-.25zM28.9-11.32c1.73.9 1.4 2.64-.58 2.23-1.98-.42-2.72-1.24-3.13-2.15-.41-.9.99-1.98 2.56-.99.4.41 1.15.9 1.15.9zM6.21-23.28c1.24.24 1.9.74 1.98 1.73.09.99-.57 1.98-2.88 1.81-2.31-.16-3.8-.58-2.48-2.14.83-.08 1.16-.25 1.49-.9.33-.67 1.32-.67 1.9-.5zM2.83-36.15c1.73-.66 3.3 1.4 1.24 1.97-2.07.58-3.05-1.56-1.24-1.97zM49.6-4.47c1.5-1.16 2.73.33 1.74 1.15-.99.83-2.4 1.98-3.3 1.32-.9-.66-.58-1.82.33-1.98.9-.16 1.24-.5 1.24-.5zM9.27-5.8c2.06.42 2.97 1.4 1.56 2.23-1.4.83-1.4.66-2.97.17C6.3-3.9 4.9-4.47 5.88-5.22a3.62 3.62 0 0 1 3.39-.57zM6.38-38.39l7.26-2.68M3.78-53.3l8.25.56M26.3-39.47l8.3.92M45.98-38.96l6.11-.8M42.85-53.46l7.06.8M43.95-31.98l-8.34-.69M17.38-32.14l-6.97-.52M20.33-47.09l-6.37 1.25M39.38-47.19l-6.51.55M7.04-25.54l7.41.45M28.39-24.6l7.74-1.05M22.59-52.98l8.4-.43M46.86-25.32l6.72 1.66M38.72-18.5l-6.22-.54M23.96-16.95l-6.58-1.33M5.66-10.98l8.22-1.29M38.72-11.68l7.97.78M38.94-4.77l-8.33-.66M23.64-5.82l-7.26 1.07M21.17-41.6c1.49.09 1.32 1.57.09 1.65-1.24.09-1.4-1.48-.09-1.65zM32.28-35.9c1.65 0 1.4 1.64.17 1.64-1.24 0-1.57-1.65-.17-1.65zM16.96-52.87c1.65 0 1.4 1.65.17 1.65s-1.57-1.65-.17-1.65zM52.74-31.95c0 1.32-1.4 1.16-1.48 0-.08-1.15 1.48-.99 1.48 0zM42.51-26.34c1.4 0 1.32 1.4.17 1.4-1.16 0-1.9-1.31-.17-1.4zM51.92-15.36c1.2 0 1.37 1.43.27 1.48-1.1.06-1.7-1.38-.27-1.48zM36.68-11.79c0 1.27-1.43 1.05-1.43.06 0-1 1.43-1.32 1.43-.06zM28.27-20.1c-.06 1.33-1.54 1-1.6.06-.05-.94 1.38-1.43 1.6-.05zM3.02-46.03c-.06 1.32-1.54.99-1.6.05-.05-.93 1.38-1.43 1.6-.05zM45.7-6.31c.83.6.33 1.7-.82 1.04-1.16-.66-.5-1.82.82-1.04zM28.32-2.06c1.14.42.77 1.88-.44 1.44-1.2-.44-.6-1.82.44-1.44zM19.58-9.92c1.37.11 1.15 1.48.16 1.54-.99.06-1.6-1.54-.16-1.54zM14.19-20.15c1.37.94.1 1.93-.88 1.32-1-.6-.17-1.82.88-1.32zM2.14-10.96c.82.82-.22 1.6-.88.99-.66-.6-.28-1.7.88-1zM3.97-27.8c.06 1.26-1.43 1.15-1.48.21-.06-.93 1.37-1.37 1.48-.22zM41.37-44.93c.05 1.27-1.43 1.16-1.49.22-.05-.93 1.38-1.37 1.49-.22zM30.88-50.78c1.01.6 1.25 2 .5 2.5s-2.88.37-3.38-.13-1-1.5.25-2.12 2-.63 2.63-.25zM5.5-49.1c.63-.75 1.63-.75 3.13-.25s1.62 1 2.12 1 1.38 2 .13 2.25-4.38.5-4.76-.37-.62-2.63-.62-2.63z" style="fill:none;stroke:#000;stroke-width:.3"/></svg>