<svg xmlns="http://www.w3.org/2000/svg" xml:space="preserve" width="54.13" height="54.13" viewBox="0.01 -54.22 54.13 54.13"><path d="M.01-54.22h54.13V-.09H.01z" style="fill:none"/><path d="M2.28-40.12h0M6.5-40.72h0M12.11-41.05h0M16.84-40.06h0M18.82-36.21h0M14.97-34.78h0M10.9-35.22h0M6.39-35.88h0M5.07-31.37h0M1.33-31.7h0M17.64-49.22h0M9.63-43.85h0M4.26-44.35h0M1.39-50.35h0M8.09-51.23h0M13.51-49.97h0M26.12-44.73h0M24.64-47.6h0M21.89-50.85h0M25.35-51.35h0M34.26-53.62h0M46.38-48.35h0M53.51-48.72h0M50.13-50.47h0M46.63-44.97h0M45.01-51.72h0M32.65-44.53h0M48.38-28.97h0M40.13-30.6h0M25.51-33.6h0M50.39-44.42h0M33.76-49.35h0M41.38-49.35h0M37.88-51.85h0M37.03-43.72h0M1.43-24.4h0M7.05-27.3h0M11.56-29.94h0M14.53-27.3h0M18.27-29.94h0M21.35-33.57h0M23-37.2h0M28.14-36.22h0M26.96-40.5h0M32.9-40.61h0M33.01-37.2h0M36.97-36.1h0M38.18-41.05h0M43.01-42.47h0M47.31-40.94h0M53.58-41.71h0M49.62-36.87h0M46.1-35.77h0M48.19-32.69h0M52.92-35h0M41.7-33.68h0M50.72-27.3h0M44.67-29.39h0M38.73-26.86h0M35.65-29.61h0M30.7-30.38h0M32.68-26.75h0M41.81-22.24h0M45.55-23.67h0M48.3-20.81h0M51.49-22.9h0M51.16-17.4h0M47.42-13.77h0M42.8-14.87h0M38.73-14.1h0M34.55-15.09h0M30.37-17.4h0M34-22.57h0M38.07-20.26h0M52.37-11.02h0M49.95-8.49h0M45.55-8.49h0M41.15-9.04h0M37.19-6.73h0M41.81-4.64h0M44.34-1.34h0M52.59-1.89h0M53.03-6.29h0M40.6-.46h0M37.85-2.99h0M31.58-2.66h0M32.57-8.27h0M31.14-12.34h0M27.4-14.65h0M26.08-18.06h0M23.11-14.43h0M29.16-22.02h0M27.4-26.53h0M24.21-23.78h0M23.33-20.15h0M22.45-26.86h0M19.48-24.99h0M20.03-20.81h0M16.62-22.79h0M13.21-22.46h0M9.58-23.56h0M9.8-18.72h0M16.73-17.07h0M19.37-13.88h0M12.65-15.16h0M8.36-15.38h0M5.22-16.06h0M8.12-10.95h0M2.43-16.96h0M.45-19.71h0M1.77-9.81h0M5.07-8.16h0M15.31-43.61h0M9.51-9.22h0M13.51-8.35h0M16.51-6.84h0M17.28-10.91h0M22.45-10.47h0M20.51-44.94h0M23.51-7.22h0M27.51-5.63h0M25.31-2.66h0M21.02-.57h0M19.37-3.76h0M16.84-1.34h0M13.32-4.31h0M13.1-1.01h0M7.6-.35h0M4.96-2.44h0M.64-.72h0M1.77-5.63h0" style="fill:none;stroke:#000;stroke-width:.7;stroke-linecap:round"/><path d="M20.9-30.63c.77-1.26 2.65-1.48 3.47-1.23.83.24 1.16.66 1.65.57.5-.08 1.74 1.16.58 1.98-1.15.83-2.89 1.57-3.46 1.24-.58-.33-1.24-.66-1.65-.83-.42-.16-.83-1.31-.58-1.73zM41.37-38.88c.99 0 1.81.58 2.06 1.24s-.66 2.64-2.56 1.4c-1.9-1.23-1.15-2.8.5-2.64zM45.82-20.07c2.23 1.4 2.07 3.64-.4 2.9-2.48-.75-2.4-1-3.47-2.65-1.08-1.65 2.39-1.15 3.87-.25zM28.91-11.32c1.73.9 1.4 2.64-.58 2.23-1.98-.42-2.72-1.24-3.13-2.15-.41-.9.99-1.98 2.56-.99.4.41 1.15.9 1.15.9zM6.22-23.28c1.24.24 1.9.74 1.98 1.73.09.99-.57 1.98-2.88 1.81-2.31-.16-3.8-.57-2.48-2.14.83-.08 1.16-.25 1.49-.9.33-.67 1.32-.67 1.9-.5zM2.84-36.15c1.73-.66 3.3 1.4 1.24 1.98-2.06.57-3.05-1.57-1.24-1.98zM49.62-4.47c1.48-1.16 2.72.33 1.73 1.15-.99.82-2.4 1.98-3.3 1.32-.9-.66-.58-1.82.33-1.98.9-.16 1.24-.5 1.24-.5zM9.28-5.8c2.06.42 2.97 1.4 1.56 2.23-1.4.83-1.4.66-2.97.17C6.31-3.9 4.9-4.47 5.9-5.22a3.62 3.62 0 0 1 3.39-.57zM4.63-38.06h13.62M1.97-52.33H13.3M25.48-38.96h12.24M0-38.96h2.79M44.99-38.96h9.14M40.73-53.26h11.34M44.21-32.21h-15.9M17.04-32.49H6.01M22.75-47.18H13.8M39.26-46.64H28.6M3.97-25.54h10.34M27.27-25.02l11.34-.08M19.21-53.02h12.75M46.87-25.32h6.82M40.73-18.5h-8.16M24.65-18.63h-8.11M0-13.87h13.3M53.03-13.87h1.1M38.73-11.68h7.92M40.49-5.41H29.68M25.23-5.48H13.1M21-41.19c1.48.09 1.31 1.57.07 1.65-1.23.09-1.4-1.48-.08-1.65zM32.3-35.9c1.64 0 1.4 1.64.16 1.64s-1.57-1.65-.17-1.65zM16.97-52.87c1.65 0 1.4 1.65.17 1.65-1.24 0-1.57-1.65-.17-1.65zM52.75-31.95c0 1.32-1.4 1.16-1.48 0-.08-1.15 1.48-.99 1.48 0zM42.52-26.34c1.4 0 1.32 1.4.17 1.4-1.16 0-1.9-1.31-.17-1.4zM50.2-15.65c1.2 0 1.37 1.43.27 1.48s-1.7-1.37-.27-1.48zM36.7-11.79c0 1.27-1.44 1.05-1.44.06 0-1 1.43-1.32 1.43-.06zM28.28-20.1c-.06 1.33-1.54 1-1.6.06-.05-.93 1.38-1.43 1.6-.05zM3.03-46.03c-.06 1.32-1.54.99-1.6.05-.05-.93 1.38-1.43 1.6-.05zM46.11-6.48c.83.6.33 1.7-.82 1.04-1.16-.66-.5-1.81.82-1.04zM28.33-2.06c1.14.42.77 1.88-.44 1.44-1.2-.44-.6-1.82.44-1.44zM19.59-9.92c1.37.11 1.15 1.49.16 1.54-.99.06-1.6-1.54-.16-1.54zM14.2-20.15c1.37.94.1 1.93-.88 1.32-1-.6-.17-1.82.88-1.32zM5.97-11.78c.83.83-.22 1.6-.88 1-.66-.61-.27-1.71.88-1zM3.1-27.38c.06 1.26-1.42 1.15-1.48.22-.05-.94 1.38-1.38 1.49-.22zM43.32-46.1c.06 1.27-1.43 1.16-1.49.23-.05-.94 1.38-1.38 1.49-.23zM30.89-50.78c1.01.6 1.25 2 .5 2.5s-2.88.37-3.38-.13-1-1.5.25-2.12 2-.63 2.63-.25zM5.51-49.1c.63-.75 1.63-.75 3.13-.25s1.62 1 2.12 1 1.38 2 .13 2.25-4.38.5-4.76-.37-.62-2.63-.62-2.63zM53.87-46.81h-6.16M38.19-.66h-6.16M8.17-42.49H1.36M30.68-42.49h-9.97" style="fill:none;stroke:#000;stroke-width:.3"/></svg>