<svg xmlns="http://www.w3.org/2000/svg" xml:space="preserve" width="41.88" height="41.88" viewBox="0 -41.88 41.88 41.88"><path d="M0-41.88h41.88V0H0z" style="fill:none"/><path d="M41.01-30.55c.17.76.26 2.2.09 3.57M41.23-24.86c-.26 1.28-.17 3.66.08 4.34M39.36-28.74a8.14 8.14 0 0 1-.17 3.49c-.34 1.53-.34 2.21 0 3.32M37.17-30.93c.34 1.2.18 2.57-.16 4.19M36.97-24.96c-.04.9-.17.56-.26 1.54-.08.97.74 3.15 1.33 4.17M34.46-29.51c.34 1.36.25 2.38-.17 4.04-.43 1.66-.3 2.37.42 3.52M31.6-30.75c.48 1.2.69 2.64.65 3.5M32.16-25.77c-.25 1.75-.95 5.12.33 6.52M30.96-34.24c.17.9.26 1.67.26 2.01M29.9-27.56c.09 1.23 0 2.64-.25 3.75-.25 1.1.5 4.15.96 5M27.73-30.4c.26 1.65.35 3.36 0 5.19M27.4-23.64c-.26 1.02-.26 3.02.12 3.62M25.82-27.98a8.33 8.33 0 0 1-.42 3.96c-.47 1.4-.56 3.2-.13 4.17M23.44-30.54c.21 1.23.38 3.5 0 5.03M23.13-23.7c-.58 2.68-.7 5.15-.32 5.77M21.44-28.66c.12 1.87.2 2.55-.17 4.09a8.66 8.66 0 0 0-.3 3.4M19.75-31.17c.34 1.32-.06 3.53-.23 4.47M19.3-25c-.08.8-.03.47-.2 1.45-.18.98-.26 2.76.2 3.66M17.24-29.14c.2 2 .2 3.84.04 5.29-.17 1.45-.17 3.15.13 3.83M15.03-30.28c.47 1.45.68 2.43.64 3.54M15.2-24.62c-.26 1.2-.42 3.5.3 4.68M12.84-30.6c.47 2.1.92 3.77.63 5.26-.3 1.49-.34 1.36-.34 1.79M13.45-22.18c.23.86.32 2.64.38 3.35M11.31-29.13a9.4 9.4 0 0 1 .09 4.34 8.46 8.46 0 0 0 .25 4.73M8.8-30.89c.39 1.28.8 2.83.76 3.68M9.26-24.57c-.38 1.49-.51 3.76.47 5.34M7.27-29.68c.25 1.74.38 2.6.08 3.87-.3 1.28-.25 1.24-.25 1.7M26.8-40.02c.73.93.93 7.5.93 7.5M5.75-28.56c-.22 1.36-.5 3.86-.75 4.8-.26.93-.64 2.76 0 3.83M3.59-30.45c.2 1.4.42 2.3.17 3.54-.26 1.23-.17 1.57-.22 1.83M3.08-22.83c-.22.81-.3 1.75-.09 2.34.21.6.79 1.6.79 1.6M1.41-28.57c.34 1.19.6 3.27.21 4.63-.38 1.37-.64 3.15-.08 4.26M6.8-22.15c.04.85 1.22 3.7 1.6 4.26M1.1-17.04c.33 1.7.46 2.21.04 3.7-.43 1.5-.6 2.55-.22 3.7M2.67-18.32c.34.9.68 2.04.6 2.9-.1.85-.3 1.31-.26 1.44M2.75-12.83c-.34 1.02.12 3.42.59 4.36M4.8-17.25c.2 1.06.42 1.61-.09 3.19a5.73 5.73 0 0 0-.13 3.66M6.43-18.7c.26 1.05.47 2.25.26 3.31M6.84-13.55a9.8 9.8 0 0 0 .02 4.44M8.88-15.8c.04.89.09 1.01-.25 2.42-.34 1.4-.75 3.85-.29 4.74M10.88-17.55c.26 1.19.47 2.17.04 3.53-.42 1.36-.76 2.6.05 4.08M12.6-18.71c.3 1.23.88 2.1.62 3.03-.25.94-.46 1.36-.55 1.83M12.69-12.65c0 .89-.04 2 .26 2.6M14.63-17.68c.38 1.62.8 2.34.25 3.7-.55 1.37-.47 4.09-.3 5.06M16.25-18.49a7.9 7.9 0 0 1 .63 3.28M16.58-13.34c-.3 1.02-.24 3.66-.02 4.26M17.82-17.68c.47 1.57.72 2.17.38 3.58-.34 1.4-.68 2.89-.47 3.7M20.06-18.8c.17.84-.2 2.4-.2 2.9M19.66-14.06c-.08.9-.04.76-.25 1.57s.52 4.84.74 5.44M21.44-17.3c.46 1.96.8 2.94.5 4.05a7.78 7.78 0 0 0-.25 2.98M23.3-17.09c-.03.86.1 1.32.26 2.05.17.72.35 1.32 0 2.55-.34 1.24.08 2.24.17 2.75M25.4-18.32c0 .77.18 2.26.3 2.81M25.79-14.23c-.04 1.02-.04 1.06-.21 2.13-.17 1.06-.12 2.95 0 3.38M28.8-19.18c.38 1.32.78 2.52.66 3.8M29.2-13.85c-.17 1.32-.42 2.51-.25 3.32.17.8.11 2.24.11 2.24M31.25-17.51c.13 1.75.17 1.79-.17 3.06a9.59 9.59 0 0 0 .2 4.7M34.18-20.55c.77 1.26 1.07 4.79.73 6.44a7.09 7.09 0 0 0 .25 4.1M36.11-19.7c.26 1.07.9 3.91.82 4.93M36.74-13.04a14.6 14.6 0 0 0 .42 4.24M38.57-17.55c.38 1.66.6 2.21.38 3.66-.21 1.45-.3 2.68-.17 3.28M40.26-19.23c.66 1.03.6 2.27.6 3M40.91-14.15c-.17 1.02-.75 3.64.06 5.3M1.4-40.96c.34.9.05 1.9-.04 2.74-.08.85-.3 1.32-.25 1.45M.85-35.12c-.34 1.02.22 3.6.69 4.54M2.9-40.2a7 7 0 0 1-.1 3.84 5.72 5.72 0 0 0-.12 3.66M4.47-40.99c.25 1.07.46 1.83.25 2.9M4.9-36.17c-.39 1.06-.17 4.92.12 5.77M6.98-38.1c.04.9.08 1.02-.26 2.42s-.12 3.64.34 4.53M8.98-40.64c.25 1.2.47 2.96.04 4.33-.42 1.36-.76 2.6.04 4.08M10.64-41.43c.3 1.24.47 1.65.21 2.58-.25.94-.46 1.37-.55 1.84M10.55-35.77c0 .9.7 4.39.99 4.99M12.72-40.77c.39 1.62.81 2.5.26 3.87-.55 1.36-.9 2.38-.72 3.36M14.92-39.45c.46 1.03.26 2.84.17 3.48M14.13-34.83c-.3 1.02-.51 3.07-.3 3.66M15.92-41.43c.46 1.58.72 3.13.38 4.53-.34 1.4-.48 4.63-.27 5.44M18.02-40.47c.41 2.08.03 4.23.03 3.68M18.42-35.48c-.09.9-.38 1.59-.59 2.4-.21.8-.13 2.12.09 2.72M19.54-41.4c.46 1.95.8 4.12.5 5.22a7.74 7.74 0 0 0-.25 2.98M21.4-39.04c-.04.85.1.98.26 1.7.17.73.34 1.32 0 2.56a11.77 11.77 0 0 0-.09 3.83M23.32-41.11c0 .76-.43 2.25-.3 2.8M23.45-36.53c-.04 1.02-.04 1.07-.21 2.13a6.18 6.18 0 0 0 .08 2.47M24.96-41.63c.47 1.58.1 5.7-.06 7.15M26.32-34.63c-.17 1.32-.91 3-.74 3.8.17.81.3 1.15.3 1.15M29.04-41.46c.13 1.74.17 2.82-.17 4.1-.34 1.27-.56 2.33-.13 3.31M31.23-38.99c.12.94.25 1.04.08 1.94-.17.9-.38 1.4-.42 1.74M33.15-40.88c.3 1.32.43 2.17.09 3.83-.34 1.66-.5 4.3-.07 5.4M35.3-41.59c.25 1.06.17 3.32.09 4.34M34.83-35.34c-.17 1.07.2 4.24.41 4.97M36.84-39.34c.38 1.66.6 1.7.38 3.15-.2 1.45-.3 2.68-.16 3.28M38.97-41.49a16 16 0 0 1 .22 2.96M39.23-36.44c-.17 1.02-.86 3.44-.05 5.1M40.72-41.14c.26 1.4.17 3.55 0 4.74-.17 1.2-.34 2.55.13 3.7M1.78-8.06c.3 1.32.38 2.17.25 3.02M1.51-3.9C1.17-2.82.6-.98.9-.26M3.6-7.08c.17 1.23-.13 2-.34 3.06-.22 1.06-.34 2.71-.04 3.56M5.59-9.5c.17.89-.36 6.46-.79 7.78M7.18-6.37c.04 1.2-.07.94-.3 1.96a19.6 19.6 0 0 0-.46 4.39M11.22-7.08c.08 1.49.25 1.83-.26 3.15-.51 1.32-.64 1.48-.43 2.38M12.68-8.74c.26.77.86 2.38.77 3.1M12.7-4.44c-.3.76-.81 2.63-.73 3.86M14.65-7.21c.38 1.57.48 2.23 0 3.36-.4.92-.34 2.73-.34 3.84M18.15-8.53c.39 1.58.55 3.32.16 4.3a8.62 8.62 0 0 0-.4 3.85M20.2-5.63c-.09.72-.88 3.5-.7 4.05M21.58-9.01c.38 1.36.3 3.02-.05 4.06-.33.96-.45 3.43-.45 4.93M24.81-7.38c.39 1.23.39 1.96.04 3.23-.34 1.28-.55 1.6-.3 2.46M27.07-8.48c.17.81-.2 2.01-.24 2.56M27-4.85c-.3.85-.97 3.32-.84 3.91M28.29-7.3c.34 1.83.38 2.6-.13 3.7a5.04 5.04 0 0 0-.38 3.37M32.34-7.63c.6 1.58.35 2.27-.43 3.7-.49.87-.65 2.65-.64 3.9M33.35-9.45c.56.56.9 3.13.82 3.56M33.62-4.3c0 1.07-.57 3.06-.82 3.91M35.63-7.83c.13.81-.28.58.06 1.85.34 1.28.09 1.83-.25 2.73-.34.9-.1 1.66-.06 2.17M6.42-41.87c.03.98.15 1.5.42 1.81M14.3-41.86c0 .44-.01.74-.07.86M21.08-41.87c0 .66.02 1.47.05 1.52M31.27-41.87c0 .69.06 1.58.14 1.72M37.39-41.87c0 .36 0 1.14.03 1.25M37.57-7.3c.2.85.47 2.05.2 3.02-.19.76-.36 3.03-.38 4.26M41.44-7.55c.08.98.13 1.23-.13 2.25-.25 1.02-.5 3.6-.2 4.57M27.19-17.54c.13 1.54.52 1.8.26 3.74-.26 1.93-.52 2.83-.26 3.6M29.51-32.93c-.04 1.15.17 2.9.39 3.46M30.29-8.38c.2 1.07.42 1.62-.09 3.2-.39 1.2-.91 2.73-.49 3.93M33.08-17.84c.21 1.06.42 1.62-.09 3.2a5.73 5.73 0 0 0-.12 3.65M23.48-8.28c.22 1.06.23 2.1-.28 3.67-.51 1.57-.72 3.1-.43 3.94M16.21-7.68c.21 1.07.54 1.73.03 3.3-.51 1.57-.55 2.35-.25 3.2M9.76-9.31c.21 1.06-.3 3.07-.8 4.65a8.05 8.05 0 0 0-.19 4.32M39.38-8.69c.21 1.06.8 2.55.29 4.12-.51 1.58-.43 2.42-.13 3.27" style="fill:none;stroke:#000;stroke-width:.3"/><path d="M0-41.88h41.88V0H0z" style="fill:none"/></svg>