<svg xmlns="http://www.w3.org/2000/svg" xml:space="preserve" width="54.13" height="54.13" viewBox="0 -54.13 54.13 54.13"><path d="M0-54.13h54.13V0H0z" style="fill:none"/><path d="M53-39.49c.22 1 .33 2.86.11 4.62M53.28-32.12c-.33 1.65-.22 4.73.11 5.6M50.87-37.14a10.5 10.5 0 0 1-.22 4.5c-.44 1.99-.44 2.87 0 4.3M48.04-39.97c.44 1.54.23 3.32-.2 5.4M47.78-32.25c-.06 1.15-.22.71-.33 1.98-.11 1.26.94 4.08 1.71 5.4M44.53-38.14c.44 1.76.33 3.08-.22 5.23-.55 2.14-.38 3.06.55 4.54M40.85-39.73c.6 1.54.88 3.4.82 4.5M41.56-33.3c-.33 2.26-1.22 6.61.43 8.43M40.01-44.25c.22 1.16.33 2.16.33 2.6M38.65-35.62c.1 1.6 0 3.42-.33 4.85-.33 1.43.63 5.36 1.24 6.46M35.84-39.3c.33 2.15.44 4.35 0 6.72M35.4-30.55c-.33 1.32-.33 3.9.17 4.68M33.37-36.16c.22 1.93.05 3.3-.55 5.12-.6 1.81-.72 4.12-.17 5.39M30.29-39.47c.27 1.6.5 4.52 0 6.5M29.89-30.62c-.74 3.46-.9 6.64-.41 7.45M27.7-37.04c.17 2.42.28 3.3-.22 5.28a11.2 11.2 0 0 0-.38 4.4M25.52-40.28c.44 1.7-.07 4.56-.3 5.77M24.95-32.3c-.1 1.04-.05.6-.27 1.86-.22 1.27-.33 3.58.27 4.73M22.27-37.66c.28 2.58.28 4.97.06 6.84-.22 1.87-.22 4.07.16 4.95M19.42-39.13c.6 1.87.88 3.14.83 4.57M19.64-31.81c-.33 1.54-.55 4.5.39 6.05M16.6-39.53c.6 2.7 1.19 4.86.8 6.78-.38 1.93-.44 1.76-.44 2.31M17.38-28.67c.3 1.12.42 3.41.5 4.33M14.62-37.64c.44 2.25.55 3.63.1 5.6a10.9 10.9 0 0 0 .34 6.11M11.38-39.92c.5 1.65 1.03 3.65.97 4.75M11.97-31.76c-.5 1.93-.66 4.87.6 6.9M9.39-38.36c.33 2.26.5 3.36.1 5-.38 1.66-.32 1.6-.32 2.2M34.64-51.73c.94 1.21 1.2 9.7 1.2 9.7M7.43-36.91c-.28 1.76-.64 4.99-.97 6.2-.33 1.2-.83 3.57 0 4.95M4.63-39.35c.28 1.82.55 2.97.23 4.57-.33 1.6-.23 2.03-.28 2.36M3.98-29.5a5.72 5.72 0 0 0-.11 3.02c.27.77 1.01 2.06 1.01 2.06M1.82-36.93c.44 1.54.77 4.24.28 6-.5 1.76-.83 4.07-.11 5.5M8.78-28.62c.06 1.1 1.58 4.78 2.08 5.5M1.41-22.02c.44 2.2.6 2.86.06 4.78-.55 1.93-.77 3.3-.28 4.79M3.45-23.67c.44 1.15.88 2.64.77 3.74-.11 1.1-.39 1.7-.33 1.87M3.56-16.58c-.44 1.32.15 4.42.76 5.63M6.2-22.3c.27 1.38.55 2.1-.11 4.13a7.4 7.4 0 0 0-.17 4.73M8.3-24.18c.34 1.38.61 2.92.34 4.3M8.84-17.51c-.5 1.37-.36 4.64.02 5.74M11.48-20.43c.05 1.16.1 1.32-.33 3.14-.44 1.81-.97 4.97-.37 6.13M14.06-22.68c.33 1.54.6 2.8.06 4.56-.55 1.76-1 3.36.05 5.28M16.29-24.19c.38 1.6 1.13 2.72.8 3.93-.33 1.2-.6 1.76-.72 2.36M16.4-16.35c0 1.15-.05 2.59.34 3.36M18.9-22.85c.5 2.1 1.05 3.03.33 4.79s-.6 5.27-.39 6.54M21-23.9c.6 1.33.93 3.42.82 4.24M21.43-17.24a15.42 15.42 0 0 0-.03 5.5M23.03-22.85c.6 2.04.93 2.8.5 4.62-.45 1.82-.89 3.74-.61 4.79M25.93-24.3c.22 1.1-.26 3.1-.26 3.76M25.41-18.17c-.1 1.15-.05.99-.33 2.03-.27 1.05.68 6.26.96 7.03M27.7-22.35c.6 2.53 1.05 3.8.66 5.22-.38 1.43-.5 3.08-.33 3.85M30.12-22.08c-.05 1.1.11 1.7.33 2.64.22.94.44 1.7 0 3.3-.44 1.6.1 2.89.21 3.55M32.84-23.67c0 .99.22 2.91.38 3.63M33.33-18.4c-.06 1.33-.06 1.38-.27 2.76-.23 1.37-.16 3.82 0 4.37M37.22-24.8c.5 1.71 1.01 3.27.85 4.92M37.74-17.9c-.22 1.7-.55 3.25-.33 4.3.22 1.04.15 2.89.15 2.89M40.38-22.63c.17 2.26.22 2.31-.22 3.96s-.29 4.8.26 6.07M44.17-26.56c1 1.63 1.38 6.19.94 8.33a9.14 9.14 0 0 0 .33 5.28M46.67-25.45c.33 1.38 1.16 5.04 1.05 6.37M47.48-16.85c-.22 1.37.27 4.54.55 5.47M49.84-22.68c.5 2.14.77 2.86.5 4.73-.28 1.87-.39 3.46-.22 4.23M52.03-24.85c.85 1.33.79 2.94.79 3.87M52.87-18.28c-.22 1.32-.97 4.7.07 6.84M1.81-52.93c.44 1.15.06 2.44-.05 3.54s-.39 1.7-.33 1.87M1.1-45.4c-.44 1.33.28 4.68.88 5.89M3.74-51.96a9.05 9.05 0 0 1-.11 4.97 7.4 7.4 0 0 0-.17 4.73M5.77-52.97c.33 1.37.6 2.36.33 3.74M6.33-46.75c-.5 1.38-.22 6.37.16 7.47M9.02-49.24c.05 1.15.1 1.32-.33 3.13-.44 1.82-.17 4.7.44 5.86M11.6-52.52c.33 1.55.61 3.83.06 5.59-.55 1.76-.99 3.35.05 5.28M13.75-53.54c.39 1.6.6 2.13.28 3.34-.33 1.2-.6 1.76-.72 2.36M13.64-46.23c0 1.16.89 5.68 1.27 6.45M16.44-52.68c.5 2.09 1.05 3.23.33 5-.71 1.75-1.15 3.07-.93 4.34M19.28-50.98c.6 1.32.34 3.67.23 4.5M18.26-45c-.38 1.31-.66 3.95-.38 4.72M20.57-53.54c.6 2.04.93 4.04.5 5.86-.45 1.81-.63 5.98-.36 7.02M23.29-52.3c.54 2.69.04 5.47.04 4.76M23.8-45.86c-.1 1.16-.48 2.06-.75 3.1a7.48 7.48 0 0 0 .1 3.53M25.25-53.5c.6 2.52 1.04 5.32.66 6.75-.4 1.43-.5 3.08-.33 3.85M27.66-50.45c-.05 1.1.11 1.26.33 2.2.22.94.44 1.7 0 3.3-.44 1.6-.22 4.29-.11 4.95M30.14-53.13c0 .99-.56 2.92-.4 3.63M30.3-47.2c-.05 1.31-.05 1.37-.27 2.74a7.98 7.98 0 0 0 .11 3.2M32.26-53.8c.6 2.04.13 7.36-.09 9.23M34.02-44.75c-.22 1.7-1.18 3.86-.96 4.91.22 1.04.38 1.48.38 1.48M37.53-53.58c.16 2.25.22 3.64-.22 5.29s-.72 3.02-.17 4.29M40.36-50.39c.16 1.21.33 1.35.1 2.5-.21 1.16-.49 1.82-.54 2.26M42.85-52.83c.38 1.7.55 2.8.1 4.95-.43 2.14-.64 5.54-.09 6.97M45.6-53.75c.34 1.38.24 4.29.13 5.6M45.02-45.67c-.22 1.38.25 5.48.53 6.42M47.61-50.84c.5 2.14.77 2.2.5 4.07-.28 1.88-.39 3.47-.22 4.24M50.37-53.62c.27 1.49.27 2.9.27 3.83M50.7-47.1c-.23 1.32-1.12 4.45-.07 6.6M52.63-53.17c.33 1.82.22 4.59 0 6.13s-.44 3.3.16 4.78M2.3-10.42c.38 1.7.5 2.8.33 3.9M1.96-5.03C1.52-3.65.76-1.28 1.15-.34M4.65-9.15c.22 1.6-.17 2.58-.44 3.96-.28 1.37-.44 3.5-.06 4.6M7.22-12.29c.22 1.16-.46 8.36-1.02 10.07M9.28-8.23c.05 1.54-.1 1.21-.39 2.53a25.28 25.28 0 0 0-.6 5.67M14.5-9.15c.1 1.92.32 2.36-.34 4.07-.66 1.7-.82 1.92-.55 3.07M16.39-11.3c.33 1 1.1 3.08 1 4.02M16.41-5.74c-.38.99-1.05 3.4-.94 4.99M18.93-9.32c.5 2.04.62 2.9 0 4.35-.51 1.19-.43 3.52-.44 4.95M23.46-11.02c.5 2.03.7 4.29.2 5.55-.49 1.27-.79 3.77-.51 4.98M26.1-7.28c-.11.93-1.13 4.53-.9 5.24M27.89-11.65c.5 1.76.4 3.9-.07 5.26-.42 1.23-.57 4.43-.58 6.36M32.06-9.54c.5 1.6.5 2.53.06 4.18s-.71 2.08-.39 3.18M34.98-10.96c.22 1.05-.25 2.6-.3 3.32M34.88-6.26c-.38 1.1-1.24 4.28-1.07 5.05M36.56-9.43c.44 2.37.5 3.36-.17 4.79-.66 1.43-.88 3.24-.5 4.34M41.8-9.85c.77 2.03.45 2.92-.57 4.77-.62 1.13-.83 3.43-.82 5.05M43.1-12.21c.73.72 1.17 4.05 1.05 4.6M43.45-5.55c0 1.37-.73 3.95-1.06 5.05M46.05-10.12c.17 1.05-.36.75.08 2.4s.1 2.36-.33 3.52c-.44 1.15-.13 2.14-.08 2.8M8.3-54.11c.04 1.27.18 1.93.54 2.34M18.49-54.1c0 .57-.02.96-.1 1.12M27.24-54.11c0 .86.03 1.9.07 1.97M40.41-54.11c0 .9.08 2.04.18 2.22M48.32-54.11c0 .47 0 1.47.04 1.62M48.55-9.43c.27 1.1.6 2.64.27 3.9-.25.98-.48 3.91-.5 5.5M53.55-9.76c.11 1.27.17 1.6-.16 2.92-.33 1.32-.66 4.64-.27 5.9M35.14-22.67c.16 2 .66 2.33.33 4.83s-.67 3.67-.33 4.67M38.14-42.55a16.1 16.1 0 0 0 .5 4.46M39.14-10.82c.27 1.37.55 2.09-.1 4.12-.51 1.55-1.19 3.53-.64 5.08M42.75-23.05c.27 1.37.55 2.09-.11 4.12a7.4 7.4 0 0 0-.17 4.73M30.35-10.7c.27 1.37.29 2.7-.37 4.73-.66 2.04-.93 4-.55 5.1M20.95-9.92c.28 1.38.7 2.23.04 4.26-.66 2.04-.71 3.04-.33 4.14M12.62-12.04c.27 1.38-.39 3.98-1.05 6.01-.66 2.04-.62 4.5-.24 5.6M50.9-11.23c.27 1.38 1.02 3.3.36 5.33-.66 2.03-.55 3.12-.16 4.22" style="fill:none;stroke:#000;stroke-width:.3"/><path d="M0-54.13h54.13V0H0z" style="fill:none"/></svg>