<svg xmlns="http://www.w3.org/2000/svg" xml:space="preserve" width="54.13" height="54.13" viewBox="0.03 -54.13 54.13 54.13"><path d="M.03-54.13h54.13V0H.03z" style="fill:none"/><path d="M2.28-40.17h7.84M13.48-40.17h7.85M24.62-40.17h7.85M35.61-40.17h7.84M46.42-40.17h7.71M.02-24.66h5.32M8.7-24.66h7.84M19.84-24.66h7.84M30.82-24.66h7.85M41.63-24.66h7.85M0-11.46h1.21M4.57-11.46h7.85M15.71-11.46h7.85M26.7-11.46h7.84M37.51-11.46h7.84M52.44-24.66h1.72M48.31-11.46h5.85" style="fill:none;stroke:#000;stroke-width:.5"/><path d="M52.7-38.96c.22.99.33 2.86.11 4.62M52.6-32.25c-.34 1.65-.23 4.73.1 5.6M50.5-37.53a10.5 10.5 0 0 1-.22 4.5c-.44 1.99-.44 2.87 0 4.3M47.64-38.96c.44 1.54.66 2.3.22 4.4M47.8-32.25c-.05 1.15-.21.71-.32 1.98-.11 1.26-.28 2.91.5 4.23M44.56-38.14c.44 1.76.33 3.08-.22 5.23-.55 2.14-.71 4.45.22 5.94M40.88-39.73c.6 1.54.88 3.4.82 4.5M41.6-33.3c-.34 2.26-1.55 5.45.1 7.26M38.3-39.3c.21 1.16.32 1.71.32 2.15M38.68-34.67c.1 1.6 0 2.47-.33 3.9-.33 1.43-.66 3.96-.06 5.06M35.87-39.3c.33 2.15.44 4.35 0 6.72M35.43-30.55c-.33 1.32-.33 3.9.17 4.68M33.4-36.16c.22 1.93.05 3.3-.55 5.12-.6 1.81-.72 4.12-.17 5.39M30.32-39.07c.27 1.6.5 4.12 0 6.1M29.66-30.38c-.33 1.54-.17 4.07.27 4.78M27.73-37.04c.17 2.42.28 3.3-.22 5.28s-.55 3.47-.38 4.4M24.98-38.96c.44 1.7.5 3.24.28 4.45M24.98-32.3c-.1 1.04-.05.6-.27 1.86-.22 1.27-.33 3.58.27 4.73M22.58-36.7c.27 2.58 0 4-.22 5.88-.22 1.87-.22 4.07.16 4.95M19.45-39.13c.6 1.87.88 3.14.83 4.57M19.67-31.81c-.33 1.54-.55 4.5.39 6.05M16.88-38.58c.6 2.7.94 3.9.55 5.83-.38 1.93-.44 1.76-.44 2.31M16.72-28.3c.22.83.77 2.1.82 2.7M14.65-37.64c.44 2.25.55 3.63.1 5.6a10.9 10.9 0 0 0 .34 6.11M11.78-38.96c.5 1.65.66 2.7.6 3.8M12-31.76c-.5 1.93-1.27 4.07 0 6.1M9.42-38.36c.33 2.26.5 3.36.1 5-.38 1.66-.32 1.6-.32 2.2M6.49-39.07c.44 1.37.55 1.98.55 1.98M7.31-34.5a29.2 29.2 0 0 1-.82 3.79c-.33 1.2-.83 3.57 0 4.95M4.44-38.36c.28 1.82.55 2.97.22 4.57-.33 1.6-.22 2.03-.27 2.36M4-29.5a5.72 5.72 0 0 0-.1 3.02c.27.77.43 1.32.43 1.32M1.85-36.93c.44 1.54.77 4.24.27 6-.49 1.76-.82 4.07-.1 5.5M8.81-28.62c.06 1.1.44 2.36.94 3.08M1.44-22.02c.44 2.2.6 2.86.06 4.78s-.77 3.3-.28 4.79M3.48-23.67c.44 1.15.88 2.64.77 3.74-.11 1.1-.39 1.7-.33 1.87M3.59-16.58a5.92 5.92 0 0 0 .1 4.24M6.23-22.3c.27 1.38.55 2.1-.11 4.13a7.4 7.4 0 0 0-.17 4.73M8.92-23.18c.33 1.38.6 2.92.33 4.3M8.87-17.51c-.5 1.37-.72 3.57-.33 4.67M11.5-20.43c.06 1.16.12 1.32-.32 3.14-.44 1.81-.55 3.85.05 5M14.1-22.68c.32 1.54.6 2.8.05 4.56-.55 1.76-1 3.36.05 5.28M16.84-23.78c.39 1.6.6 2.3.28 3.52-.33 1.2-.6 1.76-.72 2.36M16.13-16.14c0 1.16.05 2.97.44 3.74M18.93-22.85c.5 2.1 1.05 3.03.33 4.79-.71 1.76-1.15 3.08-.93 4.34M21.02-23.9c.6 1.33.94 3.42.83 4.24M21.46-17.24c-.38 1.32-.66 3.96-.38 4.73M23.06-22.85c.6 2.04.93 2.8.5 4.62-.45 1.82-.89 3.74-.61 4.79M25.37-23.62c.22 1.1.33 2.42.33 3.08M25.7-18.17c-.11 1.15-.06.99-.33 2.03a7.5 7.5 0 0 0 .1 3.52M27.73-22.35c.6 2.53 1.05 3.8.66 5.22-.38 1.43-.5 3.08-.33 3.85M30.15-22.08c-.05 1.1.11 1.7.33 2.64.22.94.44 1.7 0 3.3-.44 1.6-.27 2.59-.16 3.25M32.86-23.67c0 .99.22 2.91.39 3.63M33.36-18.4c-.06 1.33-.06 1.38-.28 2.76a7.99 7.99 0 0 0 .11 3.19M37.71-24c.5 1.7.55 2.47.39 4.12M37.77-17.9c-.22 1.7-.55 3.25-.33 4.3.22 1.04.38 1.48.38 1.48M40.41-22.63c.17 2.26.22 2.31-.22 3.96s-.71 3.03-.16 4.3M42-16.36c-.06 1.49.22 3.03.5 3.74M42.99-23.73c.17 1.21.33 1.82.11 2.97-.22 1.16-.5 1.82-.55 2.26M45.03-23.18c.38 1.7.55 2.8.1 4.95a9.15 9.15 0 0 0 .34 5.28M47.61-23.67c.33 1.37.5 2.3.39 3.63M47.5-16.85a8 8 0 0 0 .06 3.46M49.87-22.68c.5 2.14.77 2.86.5 4.73-.28 1.87-.39 3.46-.22 4.23M52.57-23.67c.27 1.48.27 1.76.27 2.7M52.9-18.28c-.22 1.32-1.32 3.46-.28 5.6" style="fill:none;stroke:#000;stroke-width:.3"/><path d="M.02-53.48h2.86M6.24-53.48h7.85M17.38-53.48h7.84M28.36-53.48h7.85M39.17-53.48h7.85M49.98-53.48h4.16" style="fill:none;stroke:#000;stroke-width:.5"/><path d="M1.02-52.49c.44 1.16.88 2.64.77 3.74-.11 1.1-.39 1.7-.33 1.87M1.13-45.4a5.9 5.9 0 0 0 .1 4.24M3.77-51.11c.27 1.37.55 2.09-.11 4.12a7.4 7.4 0 0 0-.17 4.73M6.46-52c.33 1.38.6 2.92.33 4.3M6.4-46.33c-.49 1.38-.7 3.58-.32 4.68M9.05-49.24c.05 1.15.1 1.32-.33 3.13-.44 1.82-.55 3.85.05 5M11.63-51.5c.33 1.54.6 2.8.06 4.57-.55 1.76-1 3.35.05 5.28M14.38-52.6c.39 1.6.6 2.31.28 3.52-.33 1.21-.6 1.76-.72 2.37M13.67-44.95c0 1.15.05 2.97.44 3.74M16.47-51.66c.5 2.09 1.05 3.02.33 4.78-.71 1.76-1.15 3.08-.93 4.35M18.56-52.7c.6 1.31.94 3.4.83 4.23M19-46.05c-.38 1.32-.66 3.96-.38 4.73M20.6-51.66c.6 2.03.93 2.8.5 4.62-.45 1.81-.89 3.74-.61 4.78M22.9-52.43c.23 1.1.34 2.42.34 3.08M23.24-46.99c-.11 1.16-.06 1-.33 2.04a7.49 7.49 0 0 0 .1 3.52M25.27-51.17c.6 2.53 1.05 3.8.66 5.23-.38 1.43-.5 3.08-.33 3.85M27.7-50.9c-.06 1.1.1 1.71.32 2.65.22.93.44 1.7 0 3.3-.44 1.6-.27 2.58-.16 3.24M29.84-52.49c0 1 .22 2.92.38 3.63M30.33-47.2c-.05 1.31-.05 1.37-.27 2.74a7.99 7.99 0 0 0 .1 3.2M31.7-50.12c.61 2.03.72 3.68.5 5.55M34.4-52.82c.5 1.7.55 2.48.39 4.13M34.46-46.71c-.22 1.7-.55 3.24-.33 4.29.22 1.04.38 1.48.38 1.48M37.56-51.44c.16 2.25.22 2.3-.22 3.96-.44 1.65-.72 3.02-.17 4.29M39.37-45.17c-.05 1.48.22 3.02.5 3.74M40.36-52.54c.17 1.2.33 1.81.11 2.97-.22 1.15-.5 1.81-.55 2.25M42.51-52c.39 1.71.55 2.81.11 4.96a9.15 9.15 0 0 0 .33 5.28M45.16-52.49c.33 1.38.49 2.31.38 3.63M45.05-45.67a7.98 7.98 0 0 0 .05 3.47M47.64-51.5c.5 2.15.77 2.86.5 4.73-.28 1.87-.39 3.47-.22 4.24M50.4-52.49c.27 1.49.27 1.76.27 2.7M50.72-47.1c-.22 1.32-1.32 3.47-.27 5.61M52.65-51.39c.33 1.82.22 2.8 0 4.35-.22 1.54-.44 3.3.17 4.78M2.14-10.42c.39 1.7.5 2.8.33 3.9M2.25-5.03c-.44 1.38-.82 3.9-.44 4.84M4.68-9.15c.22 1.6-.17 2.58-.44 3.96S3.8-2.06 4.18-.96M7.16-10.09c.22 1.16.1 2.31-.44 4.02M6.33-4.37c-.1 1.21-.22 2.37.06 3.25M9.3-8.23c.06 1.54-.1 1.2-.38 2.53-.27 1.32-.33 3.9.11 4.84M11.67-10.53c.33 1.21.71 1.93.27 3.63M11.5-5.36c-.22.88-.58 2.92-.52 3.85M14.52-9.15c.11 1.92.33 2.36-.33 4.07-.66 1.7-.82 3.08-.55 4.23M16.43-9.87c.33 1 .61 1.65.5 2.59M16.71-5.74c-.39.99-1.19 2.8-1.08 4.4M18.96-9.32c.5 2.04.55 2.86 0 4.35a7.23 7.23 0 0 0-.33 4.29M20.82-10.2c.44 1.54.66 2.48.6 3.2M21.15-4.59c-.16 1.38-.25 2.75-.47 3.25M23.53-9.76c.5 2.04.66 3.03.16 4.3a8.49 8.49 0 0 0-.44 4.34M25.5-9.98c.39 1.21.44 2.37.33 3.3M25.28-4.1c-.1.94-.27 1.88-.05 2.6M28.07-10.57c.5 1.76.17 2.8-.22 4.18-.39 1.37-.6 4.56-.22 5.72M30.17-10.03c.33.71.44 1.98.28 2.86M29.67-4.1c-.28.94-.55 2.32-.33 3.14M32.1-9.54c.49 1.6.49 2.53.05 4.18s-.72 3.52-.39 4.62M34.06-9.7c.22 1.04.44 1.87.38 2.58M34.06-4.97a10.8 10.8 0 0 0-.23 4.13M36.59-9.43c.44 2.37.5 3.36-.17 4.79-.66 1.43-.88 3.24-.5 4.34M38.84-9.98c.66 1.32.72 1.93.55 2.59M38.57-4.7c-.33.88-.44 2.2-.28 2.97M41.26-9.7c.77 2.03.72 2.64 0 4.62-.71 1.98-1.15 3.63-.88 4.73M43.57-10.14c.22.82.5 1.98.39 2.53M43.48-5.14c0 1.37-.48 3.2-.81 4.3M45.55-10.09c.17 1.05.17.72.6 2.37.45 1.65.12 2.36-.32 3.52a5.43 5.43 0 0 0-.39 2.58M48.58-9.43c.27 1.1.6 2.64.27 3.9-.33 1.27-.88 3.64-.71 4.8M51.33-10.25c.22.71.38 1.7.38 2.3M51.5-6.3c-.23 1-.45 1.05-.56 2.15-.1 1.1-.05 2.82.06 3.31M53.58-9.76c.11 1.27.17 1.6-.16 2.92-.33 1.32-.5 4.56-.11 5.83M35.17-22.67c.16 2 .66 2.33.33 4.83s-.67 3.67-.33 4.67" style="fill:none;stroke:#000;stroke-width:.3"/></svg>