<svg xmlns="http://www.w3.org/2000/svg" xml:space="preserve" width="53.5" height="53.5" viewBox="1.6 -55.1 53.5 53.5"><path d="M1.6-55.1h53.5v53.5H1.6z" style="fill:none"/><path d="M1.6-47.68c1.85-1.76 4.47-4.69 5.58-5.94l.76-.97M5.68-49.87c-1 1.17-2.41 3.17-3.16 3.92-.23.23-.56.58-.92.98M10.27-53.29c-1.75 2-4.17 4.34-4.84 6-.53 1.35-2.26 3.76-3.83 5.57M10.6-44.62c-2.17 2-3.67 4.25-4.67 5.58-.86 1.15-2.29 2.5-4.33 3.97M14.43-40.79c-1 1.09-6.83 8.17-8.41 10a39.4 39.4 0 0 1-4.42 4.12M9.85-32.79c-1.42 1.34-4 4.17-5 5.59A69.45 69.45 0 0 1 1.6-23M8.35-29.12c-1.58 1.92-4.08 5-4.83 6.5a11.6 11.6 0 0 1-1.92 2.91M16.68-35.87c-2.08 2.92-5.5 5.92-7.33 8.58s-3.25 4.92-5 7.42c-1.28 1.83-1.98 2.98-2.75 3.9M14.43-26.79c-1.75 2.42-6.83 7.25-8.5 8.83-1.26 1.2-2.87 3.23-4.33 4.71M9.93-20.12c-.91.67-3.25 3.33-5.83 6.08-.93.99-1.75 1.85-2.5 2.6M17.43-28.12a62.45 62.45 0 0 0-6.16 8.08c-1.42 2.42-4.84 7.25-6.5 8.84-.96.9-1.98 1.44-3.17 2.26M26.77-33.95c-2.09 2.25-8.59 11.25-11.25 13.33-2.67 2.08-6.75 7.08-8.42 9.25-1.53 1.99-3.3 4.33-5.5 6.7M4.85-53.37c-.67.92-1.83 1.33-2.33 2.25-.27.48-.6.83-.92 1.12M47.48-40.12c.75-.81 2.43-2.81 3.68-3.94s2.94-2.73 2.94-2.73c.3-.23.63-.54 1-.89M35.66-23.8c1.75-1.57 4.57-5.07 6.94-8s5.44-6.32 7.31-7.76 2.61-2.31 2.61-2.31c.75-.98 1.77-2.19 2.58-3.1M38.43-18.87c.75-.56 3.48-3.5 4.42-5.08.81-1.38 4.75-9.3 6.19-11.23s4.98-5.36 4.98-5.36c.34-.33.7-.74 1.08-1.17M54.1-34.37l1-.7M47.23-22.99c1.25-1.37 3.56-3.62 4.44-4.94s1.92-2.7 1.92-2.7c.41-.62.94-1.2 1.51-1.78M46.36-19.8c.81-1.19 2.81-3 4.25-4.5s1.98-1.83 1.98-1.83c.9-.86 1.74-1.68 2.51-2.53M36.77-2.12l1.2-1.5c.57-.75 1.94-2.81 3.5-5.25s2.88-5.5 4.44-7.38 4.07-4.3 5.32-6.25 2.29-2.87 2.29-2.87l1.58-1.3M50.48-19.06a17.68 17.68 0 0 1 3.46-2.65c.33-.33.73-.78 1.16-1.29M53.52-18.04a35.3 35.3 0 0 0 1.58-1.67M43.79-3.68c2-2.5 5.75-6.38 6.69-7.32s3.7-4.04 3.7-4.04c.34-.29.64-.6.92-.93M46.76-1.6l.5-.56s1.22-1.58 2.34-3.46 2.17-2.83 2.17-2.83c.9-.64 2-1.63 3.33-2.98M49.36-1.6l.66-.73s.58-.92 1.08-2.1 1-1.94 1-1.94a17.68 17.68 0 0 1 3-2.57M52.15-1.6l.78-.73 1.6-1.7.57-.64M38.54-29.18c.62-1.07 3.44-5.32 4.62-7.2s7.2-9.24 8.25-10.37 2.94-2.54 2.94-2.54c.2-.23.47-.45.75-.7M11.52-31.95c.66-.75 2.66-3.09 4.41-5 1.75-1.92 4.42-6.42 5.67-8.42s5.58-7.33 7-8.83M11.77-27.45c1.5-1.92 4.33-5.5 5.66-6.92 1.34-1.42 4.59-5.17 6.84-8s8.5-8.5 10.75-11M25.27-36.79c1.66-2.25 11.41-12.33 14.16-15.5M24.35-40.12c-2.5 3.17-8.42 9.83-10.25 12s-5 5.25-6.33 6.33M38.1-48.37a35.6 35.6 0 0 1-3.17 3.25 95.06 95.06 0 0 0-5.58 5.75c-1.67 1.83-5 5.5-6.75 7.75s-6.58 7.75-9.08 10.42M35.27-42.79c-1.25 1.59-3.92 4.42-5.42 6.59-1.5 2.16-5.25 7.16-6.67 9.16-1.41 2-2.58 3.25-3.25 3.92M27.43-30.62c2.34-2.33 7.67-7.75 9.92-9.58a42.76 42.76 0 0 0 6.08-6.5M54.38-1.6l.72-.47M51.06-52.28c-.36.37-.8.84-1.09 1.22-.56.75-2.06 3.06-3.25 4.44M18.16-18.06c-1.12.88-4.62 4.56-5.37 5.56s-2.06 3.75-3.25 5.07S6.48-4.5 5.98-4L4.92-2.83l-.9 1.23M31.35-23.68c-2.5 2.62-8.94 9.37-11.31 11.93S14.4-5.8 13.1-4.05c0 0 0 .43-1.33 1.6-.31.27-.55.56-.74.85M20.1-1.6l.92-1.23s.95-1.67 2.58-4.23 7-8.56 8.69-10M24.6-1.6c.54-1.1 1.28-2.47 2-3.19M13.9-1.6l.53-.73s1.23-2.17 2.86-3.85 4.69-4.82 6.12-6.57 8.7-9.5 10.38-12.12 4.44-6.25 5.44-8.06M40.79-24.75c-.94 1.38-4 4.94-6.94 8.13s-7.19 8.44-8.13 9.87-3.04 4.5-3.04 4.5c-.2.2-.38.42-.57.65M53.35-33.68c-.94.87-2.81 3.43-4.75 5.8s-2.88 4.76-3.69 6.5-3.81 6.26-5.12 7.88-3.44 4.2-5.07 6.82-3.29 4.44-3.29 4.44c-.2.22-.37.43-.54.64M39.85-1.6c.45-.48.9-.97 1.33-1.48 0 0 3.55-3.85 5.17-6.3s5.94-9.05 7.75-11.05M43.84-1.6c.27-.32.52-.6.76-.81 0 0 1.38-1.58 3.44-4.27s5.73-5.36 5.73-5.36c.42-.32.87-.73 1.33-1.2M28.85-30.62c-.94 1-3.63 4-5.19 5.75s-3.94 3.81-5.69 5.06-7 6.56-8.18 8M35.48-33.8C34.04-32.69 26.66-22 24.9-19.88s-3.81 4.25-5.94 5.75-5.25 4.44-6.62 5.81-3.06 5.13-4.06 6.19M39.48-39.8c-1.07 1.3-5 5-6.32 6.05-1.31 1.07-4.43 4.63-6 6.94s-5.25 6.5-6.56 7.38M28.85-22.68c1.13-1.2 10.19-13.38 11.63-15.25M41.73-37.18c1.93-2.88 6.87-8.88 8.56-10.63s2.56-2.69 4.3-4.31M50.29-38.56c-1.38 1.5-4.25 4.56-5.38 7.13s-2.25 4.12-3 5.06M17.02-1.6l1.75-1.81S19.6-4.5 20.6-6s2.06-2.88 3.56-4.57 6.75-7.18 9.63-9.43 7.18-7.32 8.5-8.94M28.6-7.56c2.81-3.37 5.06-5.31 8.56-8.37l.42-.38M43.48-21.62c-1.63 2.94-5.32 6.81-7.32 9s-2.5 2.37-3.62 4.37c-1.13 2-1.25 2.7-1.88 3.57s-1.9 2.19-1.9 2.19c-.38.31-.72.6-1.03.9M45.04-24.5c1.31-2.75 4.69-7.43 6.31-8.87 1.62-1.44 2-2.19 3.12-4.13M45.6-18.8c-1.88 2.8-5.63 8.18-6.69 10.05s-2.44 3.25-3.25 4.32-1.23 1.68-1.23 1.68l-.91 1.15M48.23-16.75c-1.38 1.57-3.07 6.25-4.7 8.13s-1.37 1.75-2.56 3M31.35-9c-1.88 3.13-3.38 4.75-4.75 6.5M12.6-6.12a53.87 53.87 0 0 1 5.38-5.5" style="fill:none;stroke:#000;stroke-width:.3"/><path d="M22.79-19.8c-1.25 1.43-5.38 4.55-7.06 6.3M9.3-10.62c-1.66 2.41-3.83 5.33-6 7.25-.6.53-1.16.94-1.7 1.3M42.35-49.91c1.63-1.7 3.06-3.66 4.4-5.19M34.02-38.66c2.66-3.42 6.25-7.92 8.75-10.09 2.3-2 3.99-3.45 6.6-6.35M52.14-55.1a53.17 53.17 0 0 0-6.54 7.35c-1.58 2.34-2.92 5.75-3.83 6.84M51.64-52.96c.74-.93 1.66-1.47 2.74-2.14M4.03-55.1c-.73.99-.92 1.18-1.68 1.94M11.04-55.1c-.27.41-.45.81-.55 1.14M20.1-55.1a73.73 73.73 0 0 1-6.33 7.52c-1.75 1.75-3.5 4.75-3.5 4.75a62.85 62.85 0 0 1-5.42 7.25c-.98 1.08-2.2 2.1-3.25 3.15M24.6-55.1c-.45.94-.75 1.69-.75 1.69a41.6 41.6 0 0 0-3.67 4.66 27.19 27.19 0 0 1-4.58 5.5c-2 1.84-6.25 5.5-7.25 6.42a24.96 24.96 0 0 0-4.58 5.33 19.77 19.77 0 0 1-2.17 2.82M7.27-47.08a65.54 65.54 0 0 1 4.5-5.33c.92-1 1.24-1.45 2.13-2.69M9.52-39.41c1.75-1.59 6.58-7.25 8.75-10.17 1.83-2.46 2.82-4.27 3.84-5.52M18.85-38.25c1.75-2 6.92-9.16 8.5-11.5 1.43-2.1 1.98-3.46 3.54-5.35M19.18-30.5c1.17-1.33 3.17-4.5 5-7.25 1.84-2.75 8.5-10.33 10.09-11.92 1.3-1.3 3.46-3.18 5.58-5.43M37.18-45.5c1.85-2.21 4.6-7.16 6.66-9.6M17.02-55.1a366.87 366.87 0 0 1-3.92 4.02c-1.33 1.33-4.75 5-6.25 7s-2.83 3.92-3.67 4.92M12.77-36.16c1.91-2.09 3.83-4.92 5.41-7.09 1.59-2.16 5.17-7.41 6.59-8.83 1.11-1.11 1.82-1.98 2.96-3.02M33.52-55.1c-2 2.53-5.04 6.49-6.25 7.77" style="fill:none;stroke:#000;stroke-width:.3"/></svg>