<svg xmlns="http://www.w3.org/2000/svg" xml:space="preserve" width="53.5" height="53.5" viewBox="1.85 -55.1 53.5 53.5"><path d="M1.85-55.1h53.5v53.5H1.85z" style="fill:none"/><path d="M1.85-49.65c1.88-.9 1.67-1.44 1.88-3.08.15-1.2 1.22-1.82 2.65-2.37M1.85-42.72c1.67-1.76 1.25-2.48 1.25-3.63 0-1.25.25-1.75 1.88-2.13s1.74-3.12 2.24-4.37c.34-.83 1.88-1.5 3.36-2.25" style="fill:none;stroke:#000;stroke-width:.3"/><path d="M5.35-47.6c1.13-.5 1.5-2 2.25-3.88s1.88-1.75 3.38-2.25c1.22-.4 1.28-.48 1.53-1.37M3.23-43.35c-.1 1.44-.5 1.97-1.38 2.57" style="fill:none;stroke:#000;stroke-width:.3"/><path d="M1.85-23.44c.9-.51 1.67-.26 2.75-.16 1.38.13 1.63-.25 2.25-.88s.75-.75 1.75-1.37.88-1-.13-1.75-1.37-1.38-3.87-2-.5-1.63.75-1.88 2.38-.5 3.5-1.5c1.13-1 4-1.75 5.25-2.62s.25-2.25-1.13-2.13-.87-1.12-2.62-1.5-4.25 2.5-6.5 2.88-1-3.25-.25-4.5.62-1.25.5-2.5 1.25-3 2.38-3.88 1-1 1.24-2.37 2.38-2.75 3.75-3.13c.93-.25 1.8-1.18 2.57-2.37" style="fill:none;stroke:#000;stroke-width:.3"/><path d="M1.85-25.96c.2-.04.42-.01.88-.01 1 0 1.12.12 1.75-.63s0-1-.88-1.12c-.52-.08-1.13-.64-1.75-1.32M1.85-32.72c1.3-.84 3.12-1.33 4-1.5 1.25-.26 1.88-.88 2.75-1.88s-1.38-.25-3 .63c-1.09.58-2.4.72-3.75.6" style="fill:none;stroke:#000;stroke-width:.3"/><path d="M2.98-31.6c.5-.88 1.75-1 2.75-1.13s2.12-.87 2.74-1.62 1.88-1.13 3-1.5.88-.88-.25-1.13-.75.13-.75-.75-1.12-.62-2.5.25M3.73-28.98c1.62.38 3.62.63 3.37 1.75s-.13 1-1 1.63-1.25.75-2.25.63c-.77-.1-1.25-.27-2 .12" style="fill:none;stroke:#000;stroke-width:.3"/><path d="M1.85-21.43a6.84 6.84 0 0 1 4.38-.42c1.24.38 3.12-1.5 3.74-2.5s.63-1.5 2-1.87-.75-2.5-3-3.13-.12-1.62 1-1.87 1.5-.5 2.5-1 1.75-.88 2.88-.88 1.13-.25 1.75-1.25.63-2 0-2.62-.88-.88-.88-1.88-1-1.12-1.74-1.12-1.38.12-2.38-.38-1.88-.5-4.75.63-2.75.12-2.38-.5.38-1.13.13-2.13 2-3.25 3.38-4.75 2.74-3.88 4.37-4c1.34-.1 2.43-1.74 4.46-4M8.6-21.23c-1.25 1.13-2.13 1.75-3.63 1.5a4.77 4.77 0 0 0-3.12.57" style="fill:none;stroke:#000;stroke-width:.3"/><path d="M1.85-17.41c1.67-.79 3.08-.32 4.5-.32 1.63 0 3.38-2.12 3.88-3.5s2.87-2.87 4.37-4.12-.38-2.25-1.5-3.25.25-1.5 1.25-2.38 2.63-1 4.75-1.25c2.13-.25 2-1.75 1.63-2.5s-.5-1-.25-2.25 0-1.12-1.38-2-.88-1.37-1.38-2.25-2.24-.5-3-.5-1.5-.25-2.12-.75-2-.25-3.5.38-1.75-.13-1.62-.88.75-1.25 2-1.87.75-1.13 1.12-2 2.38-2.5 3.25-2.75 1.5-.75 2.5-1.88 1.38-1.62 2.75-2.12c.88-.32 1.5-.74 2.3-1.5" style="fill:none;stroke:#000;stroke-width:.3"/><path d="M13.97-22.48c-.75.88-.25.88-1.12 1.75s-1.5 1-2.13 2.25-1.75 2.25-4.12 2.5c-2.02.22-3.5.07-4.75.8" style="fill:none;stroke:#000;stroke-width:.3"/><path d="M1.85-12.62c2.13-1.04 1.88-1.25 3.63-1.36 2-.12 3.24-.37 4.37-1.37s.25-.25 2-.88 1.75-1 2.13-2.25c0 0-.05-.87.04-1.29s.33-.91.91-1.5c.59-.58.34-1.16.5-2.16.17-1 .59-1.42 1.09-1.92s.7-.25.7-.25c.88-.5.5-.5.88-1.38s.62-1 1.37-1.62 3.5-1.25 5.13-1.75 1.12-2 .62-3.25 0-1.13.75-2.63-1-3-2.12-3.75-1.75-1.5-2.5-2.62-2.38-1.5-4.38-1.75-2.37-1.5-2.37-2.63 1.87-2.5 3.12-3 1.25-.37 1.88-1.37.87-1 2.5-1.38a6.4 6.4 0 0 0 3.53-2.37" style="fill:none;stroke:#000;stroke-width:.3"/><path d="M23.48-42.1c-.63-.63-1.63-2-2.13-2.88s-2.13-.5-3.13-.87-.62-1.75 0-2.38.88-.37 1.13-1.12 1.38-1 2.5-1.38 1-.5 1.75-1.12 1.38-1 2.63-1.5c1-.4 1.6-.48 2.26-1.75M14.04-1.6c.38-.58.73-1.22 1.06-1.88l.44-1.37c.3-.94 1-2.75 1.62-3.69s4.7-1.8 5.57-2.19 2.12-2.56 3-4 .06-2.24-.38-2.93-.94-1.38-.69-2.44 3.06-2.13 3.94-2.19 2.44-1 3.56-1.44c1.13-.43 5.07-.18 6.13-.12s1.56.19 2.31-.06 1.88-.2 3.44-.32 3.19-1.37 3.94-2 .12-1-.38-1.18-2.12.3-3.06.5-2.56.06-3.38-.63-1.43-.5-2.87-.56-1.5-1.56-1.5-2.25-.13-1.25-.75-1.88c-.63-.62-.5-1.68-.56-2.75s1.25-1.62 2.19-2.12.43-.25.43-.25c1.25-.88.38-.88-.37-1.13s-1.25-.25-1.88-1.12-3.12-1.75-4.75-2.5c-1.62-.75-1.5-2.25-2-3.25s-1.25-1.13-1-2 3.63-2.63 5.13-3.63c1.07-.71 1.76-2.25 2.16-4.12" style="fill:none;stroke:#000;stroke-width:.3"/><path d="M38.48-29.48c-1.13-.75-.38-5-.25-6s1.12-1 2.37-1.5.88-.87.5-1.62-.63-.63-1.38-.75-1.37 0-2.87-.88-1.38-1.37-3.5-1.62-2.38-1.63-2.38-2.63.13-.62-.62-1.62-.5-1 .13-1.5.87-.88 3-2.13c1.74-1.02 2.64-2.97 3.05-5.37" style="fill:none;stroke:#000;stroke-width:.3"/><path d="M39.98-33.98c.25-.87 2.25-2.12 4.25-3.12s-.13-1.88-.75-2.75-2.63-1.13-3.63-1.13-2.25-.25-2.5-1.12-1.25-1-2.38-1.13-2-1.12-1.62-2 .38-.62 0-1.37 1-1.88 3.75-3.25c2.3-1.15 2.15-2.66 1.97-5.25" style="fill:none;stroke:#000;stroke-width:.3"/><path d="M30.94-1.6c.13-.41.19-.95.28-1.75 0 0 0-.38-.06-1.06s.2-.75-.43-2.56-.62-3.23-.32-4.5c.32-1.32 2.14-2.66 2.38-3.38.62-1.87-.63-2.06-1.19-3-.56-.94.12-1.37 1.69-2 1.56-.62 2.5-.37 4.5-.19s3.56-.43 4.37-.87 1.32-.31 2.7-.31 2.62-.32 3.93-.88 1.5-1.06 1.87-1.56.94-1.06 1.88-1.63 1.37-1.5 1.75-2.37-.63-1.88-1.56-2.38-3-.43-3.88-.18-.87.06-1.81-.32-2.25-.25-3.25.25-1.31-.18-1.44-.43-.31-.32-1.12-.2-.2-1.12.06-1.43.12-.5.19-.88c.24-1.44 2.5-1.5 3.87-2.25s.88-2.37.88-3.5-1-2.37-2.63-2.75-1.5.13-2-.25-1.12-1-1.75-1-1.25-.37-2.13-1.12-1.74-1.25-1.87-2.13 1.88-2 3.88-3.12c1.7-.96 1.13-3.48.93-5.75" style="fill:none;stroke:#000;stroke-width:.3"/><path d="M52.23-31.35c-.32-.31-.63-.81-1.25-.56-.63.25-1.2-.13-1.82-.5s-1.18.06-2.37.12-1.19-.75-.88-1.3 1.57-1.57 2.7-2.76-.13-2.75-.13-2.75c-.38-.38-.38-1.38-.88-2.38s-.88-1.12-2.38-1.37-1.62-.38-3.5-.88-1.87-2-2-3.12 1-1.13 2.5-2.13c1.31-.87 1.58-2.69 1.13-6.12" style="fill:none;stroke:#000;stroke-width:.3"/><path d="M49.23-35.1c.56-.63.8-1.63.68-2.19s.38-1.12.38-1.12c.75-.75.44-3.32-.06-4.44s-2.63-1.38-4.63-1.75-1.88-1.25-2-2.25 1.88-2.25 3.13-3.63c1.02-1.12.28-2.76-.57-4.62" style="fill:none;stroke:#000;stroke-width:.3"/><path d="M52.79-32.16c-.19-.5.87-.5 1.37-1.13s-1.43-.5-2.62-.62-1.06-1.94-.88-2.88.94-1.31.94-1.31c.63-.88 1.5-1.25.88-2.25s-.13-.88-.25-1.75-.5-1.25-1.38-2.25-1.75-1.25-4.25-1.63-.63-1.75 1.38-3.87c1.71-1.83.76-2.73-.26-5.25M15.35-20.35c-.17.67-.25 1 0 2.33s-.17 1.92-.83 2.75-2.17.67-2.17.67c-1.63.13-1.25.5-2.88 1.25s-1.87.63-3.87 1.13c-1.56.39-2.43 1.3-3.75 2.46M7-11c-.68.62.5 1.75.63 2.62s-.66 1.53-.66 1.53C5.13-5.11 3.54-5.21 1.85-4.21" style="fill:none;stroke:#000;stroke-width:.3"/><path d="M4.88-7.38c.87-.56.87-1.56.56-2s-1.09-.1-1.09-.1c-1.32.63-1.77 1.1-2.5 1.47" style="fill:none;stroke:#000;stroke-width:.3"/><path d="M1.85-3.3c.3-.35.71-.5 2-.68 2.75-.37 3.25-.5 4.88-2.37s1.87-2.88 1-3.88c0 0-1.3-.37-.55-1.04s1.92-.91 2.75-1.41c.84-.5 2.09-.75 3.17-.84 1.08-.08 3.58-.91 2.92-2.25s-.92-2.41-1-3.08c-.09-.67-.17-.83-.42-1.75-.25-.92.67-3.33 1.58-4.5a11.42 11.42 0 0 1 5.09-3.25c1.75-.42 3.41-.58 4-1.33s.66-1.34.33-2.42c-.33-1.08-.33-2.5-.33-2.5-.16-1.18 1.36-1.35 1.7-2.5.38-1.25-.12-1.5-1.87-2.5s-2-1.38-2.25-3.13-.13-.75-.88-1.5-1.75-1.37-2.12-3 1.37-2 2.25-2.87 3.37-2.13 5.12-3.25c1.1-.7 1.5-1.06 1.72-1.75" style="fill:none;stroke:#000;stroke-width:.3"/><path d="M6.38-1.6c.93-.35 2.01-.68 3.1-1.13l.62-.54c.42-.16.75-.66 1.42-1.5s.41-1.66.58-3.25c.17-1.58.75-1.83 2.42-3.25s3.91-1.08 4.83-1.25c.92-.16 1.33-.5 1.83-1.25s-.5-1.83-1.58-2.58-1.42-3.58-1.33-4.67 2.41-3.91 3.66-4.91 4.75-1.5 6.34-2 2.16-2 1.41-3.17c-.75-1.17-.58-1.75-.5-2.67.09-.92 1.3-1.96 1.3-1.96.87-.87.87-1.62.37-2.75s-2-1.75-3.5-2.87-1.25-1.5-1.37-2.63-.13-1-1.5-2.25-.38-1.75.37-2.62 1.88-1.38 4.13-2.38c1.97-.88 2.8-1.66 3.47-3.87" style="fill:none;stroke:#000;stroke-width:.3"/><path d="M10.58-1.6c.74-.38 1.47-.79 2.02-1.25 0 0 1.19-.69 1.19-2s.81-4.38 2.37-5.06 4.88-1.06 5.7-2.25 1.62-2.88.18-4.38-3.44-3.81-1.44-6.31 5-3.5 6.31-3.5 4.31-.25 5.13-1.5c.8-1.25.8-2.44.06-3.13l-1-1.12c-.88-1.38.5-3.25 1.12-4.5.63-1.25.75-1.75.38-2.88s-1.75-1.62-2.88-1.87-1.5-1.63-1.62-2.75-1.25-1.75-2.25-2.63.12-1.75 1.5-2.25 2-1.12 4-2.25a5.56 5.56 0 0 0 2.7-3.87" style="fill:none;stroke:#000;stroke-width:.3"/><path d="M31.91-22.23c-.87.57-3 .63-4.62 1.13s-1 2.25.06 4.13-1.25 4.93-2.06 6.12-3.44 2.44-4.44 2.75c-1 .31-1.19 1.44-1.31 3.06s-.81 1.94-.81 1.94c-.53.52-1 1.02-1.42 1.5" style="fill:none;stroke:#000;stroke-width:.3"/><path d="M39.98-34.16s0 .18-.13.8-.25 1.38-.5 2.57.5 1.25 1 1.19.69.06 1.25.56.94.69 1.88.31 1.8-.25 2.8.07 1.82.06 2.82-.38 2.88-.12 3.63.5.18 1.31-.7 2-2.12 1.75-2.87 2.56-2.94 1.2-4.31 1.38-3.31.5-4.06.87-3.25 0-5 0-2.88.13-3.88.82c-1 .68-1.43.3-2.93.43s-1.25 1.5-.57 2.5 1.32 2.5.82 4.07-3.13 4-3.82 5.12-.3 2.25-.68 3.38-1.75 2.18-1.75 2.18c-.63.68-1.13 1.2-1.58 1.63" style="fill:none;stroke:#000;stroke-width:.3"/><path d="M27.1-8.41c-.19.87.13 1.68.25 3.3s-.75 2.14-.75 2.14c-.32.51-.64.97-.97 1.37M29.66-19.16c-.93.62 1.32 2.25 1.5 3.75s-1.43 2.69-1.43 2.69c-.5.93-.88 1.68-1.07 3.3s.44 2.88.69 3.95-.38 2.75-.38 2.75c-.16.45-.32.82-.48 1.12M32.73-2.6l-.28 1M34.06-1.6c.08-.41.14-.83.17-1.25.12-2 0-.75 0-1.63s.18-2.24 1.06-3.8.56-1.82.19-3-.25-1.63.18-2 .38-.88.57-1.88 2-1 3.68-1.06 2.63.25 3.57-.2 1.25-.55 1.8-.55 3.32-.25 4.38-.57 2.63-1.43 3.2-2.12 1.6-1.18 1.6-1.18c.26-.23.56-.42.9-.58" style="fill:none;stroke:#000;stroke-width:.3"/><path d="M35.38-1.6c.16-.75.27-1.55.34-2.38 0 0-.1-1.02.22-1.96s.79-1.72.79-1.72c.68-1.32.37-2.19-.07-3.06s-.12-1.32.25-1.75.2-.94.13-1.63c0 0 1.31-1.31 3.12-1.13s2.75.26 3.38-.06 1.5-.62 3-.62 3-.13 4.12-.81 1.13-1.13 2.38-1.25 1.17-.37 1.17-.37c.36-.32.74-.6 1.14-.81" style="fill:none;stroke:#000;stroke-width:.3"/><path d="M36.53-1.6c.08-.52.15-1.06.2-1.63 0 0 .15-1.15.4-1.52s1.4-1.73 1.4-1.73c1-1.12-.12-2.62-.43-3.74s-.13-1.57.19-2.07-.25-.62.43-1.43 1.82-.63 2.7-.32 1.62.32 2.18-.18 2-.57 3.94-.32 2.69-.43 3.31-1.18 2.19-1.44 2.94-1.32.8.08.8.08c.26-.18.51-.32.76-.44" style="fill:none;stroke:#000;stroke-width:.3"/><path d="M39.07-1.6c-.04-.5-.08-1.04-.1-1.63 0 0-.15-1.21.16-1.71s.78-1.6.78-1.6c.31-1.37-.19-2.94-.56-3.87s-.13-1.38.5-1.94c0 0 1.75-.13 3.06-.19s.88-.06 1.38-.69 1.62-.37 2.87.06 1.63.25 2.69-.12 1.63-.69 3.19-.81 1.67-.61 1.67-.61c.2-.2.42-.35.64-.47" style="fill:none;stroke:#000;stroke-width:.3"/><path d="M41.35-9.04c.5 1.06.19 2.81-.25 3.88s-.5 2.44-.5 2.44c0 .36.02.74.06 1.12M46.16-1.6c-.19-.4-.38-.82-.56-1.25-1-2.38-.31-1.5-.31-2.44s-.31-2.69-.44-3.44.06-1.43 1.56-.93c0 0 1.94-.5 2.88-.7s2.18.57 3.18 1.38 1.62.27 1.62.27c.47-.37.88-.72 1.26-1.05M50.66-1.6c-.2-.38-.43-.8-.69-1.25" style="fill:none;stroke:#000;stroke-width:.3"/><path d="M49.16-4.79c-.25-.75.82-.69 1.5-.81s1.25.5 2.25 1.5 1.3.76 1.3.76c.39-.36.77-.64 1.14-.86" style="fill:none;stroke:#000;stroke-width:.3"/><path d="M47.72-1.6c-.17-.41-.34-.87-.5-1.38 0 0-.5-1.37-.24-1.8s.62-1.57.43-2.13.44-.94 1.57-1 1.8 0 2.56.3-.45.52 1.92.15c.9-.15 1.45-.33 1.89-.55M13.52-47.6c-.84.83-2 1.67-1.75 2.75s.33 1.42 1.33 1.42.42-.17 1.33.16c.92.34.92.17 1.67.09.75-.09 3.42.83 4.17 1.83s.58 1.25 1.83 2 1.83 1.42 1.5 2.08c-.33.67-.67 1.34-.33 2.17.33.83.91 3-.09 3.25s-3.75.92-4.75 1.33-2.5.92-2.16 2.17.66 1.67.33 2.08M33.98-39.66c1.06.87 1.8 1.18 1.3 1.8s-2.24 1.7-2.06 2.88.5 2 .63 2.7c.13.68-.06.68.38 1.24s.5.56.43 1.19.07 1.94 1.75 2.5 2.25.75 1.88 1.31-.75.06-2.31.13-3.32.25-4.32.69c-1 .43-2.3.56-3.56.8s-2.31.38-3.44.88-2.3 1.13-2.43 1.94-.32 1.38.37 2.44.5 1.25.5 1.62c0 0 1.38.82 1.13 2.2s-.5 2.37-1.38 3.24" style="fill:none;stroke:#000;stroke-width:.3"/><path d="M49.79-28.16c1.5-.13.37 1.37-1.5 3.06s-4.63 1.94-5.75 1.94-3.75.43-6.31.25-1-.32-2.25.12M12.5-1.6l.22-.75s1-.88 1.5-1.38.5-1.62 1-3.5 1.13-2 2.13-2.5M55.35-42.72c-.15.16-.32.33-.51.5l-.74.18-.88-.69c-.8-1.12 0-2.12-.24-3.5s-2.25-.87-3.75-1.25.62-2.25 1.75-3.5c.94-1.05.74-2.1-.32-4.12M46.66-18.54c.82-.19 2.44-.25 3.56-.56s2.38-1.5 3.07-2.31 1.3-1.43 1.3-1.43c.26-.27.52-.46.76-.6M55.35-32.71c-.55.35-1 .77-1.26 1.25 0 0-1-.13 0 1 .4.46.83.98 1.26 1.45M55.35-40.77c-.35.24-.76.49-1.26.8 0 0-1.05 1-.74 1.74s.41.86-.31 1.44c-.63.5-.75 1-.31 1.25s.6.33.6.33c.65.16 1.31.28 1.96.35h.06M54.34-25.34c.55-.41.76-.56 1.01-.6" style="fill:none;stroke:#000;stroke-width:.3"/><path d="M32.66-2.79s.07-2.19-.18-3.31-.7-2.38-.63-4.69.94-1.93 1.56-2.69.63-1.74.44-3.06.19-1.06 1.06-1.5 1.07-.37 2.5-.25 2.13.13 2.94-.43.94-.32 2.06-.25 3.13 0 3.94-.5 2-.75 2.81-.75 2.2-.38 2.81-1.5 1.57-1.7 2-1.94.62-.68.62-.68c.29-.23.54-.4.76-.5M43.34-1.6c-.06-.5-.14-1.05-.24-1.63v-1.43c.06-.38-.13-1.57.06-2.7s-1.19-2.37-1.69-3.18 1.7-.5 2.25-.69 1.38-.43 2-.3 1.2.37 2.13-.26 3.5.44 4.81.31 1.55-.6 1.55-.6l1.14-.54M55.35-3.3c-.29.32-.47.83-1.2 1.7M54.15-55.1c-.16.2-.34.4-.56.64 0 0-.99.42-.74 1.05s.87 1.43.31 2.3c-1.94 3.07.55 2.15.55 2.15a22 22 0 0 0 1.64-.68" style="fill:none;stroke:#000;stroke-width:.3"/></svg>