<svg xmlns="http://www.w3.org/2000/svg" xml:space="preserve" width="49.71" height="49.71" viewBox="1.05 -51.31 49.71 49.71"><path d="M1.05-51.31h49.71V-1.6H1.05z" style="fill:none"/><path d="M3.04-46.62c.44-.5.5-.8.06-1.62s-.06-1.13.5-1.38M2.16-47.62c-.56-1.68.06-2.5.88-3.12M3.48-45.05c.93-.94.8-2.94.43-3.5M8.54-44.55c-.56.25-.94.56-.5 1.37.44.81.37 1.13-.06 1.63M7.1-42.55c-.56-1.7.06-2.5.88-3.13M8.41-40c.94-.93.82-2.93.44-3.5M3.04-36.68c.44-.5.5-.81.06-1.62s-.06-1.13.5-1.38M3.04-40.8c-.81.62-1.44 1.43-.88 3.12M3.48-35.12c.93-.93.8-2.94.43-3.5M8.04-31.74c.44-.5.5-.81.06-1.63-.44-.8-.06-1.12.5-1.37M8.04-35.87c-.81.63-1.44 1.44-.88 3.13M8.47-30.18c.94-.94.82-2.94.44-3.5M3.6-29.74c-.56.25-.94.56-.5 1.37s.38 1.13-.06 1.63M3.04-30.87c-.81.63-1.44 1.44-.88 3.13M3.48-25.18c.93-.94.8-2.94.43-3.5M7.97-21.74c.44-.5.5-.81.07-1.63-.44-.8-.07-1.12.5-1.37M7.97-25.87c-.8.63-1.43 1.44-.87 3.13M8.41-20.18c.94-.94.82-2.94.44-3.5M3.6-19.8c-.56.25-.94.56-.5 1.37s.38 1.13-.06 1.63M3.04-20.93c-.81.63-1.44 1.44-.88 3.13M3.48-15.24c.93-.94.8-2.94.43-3.5M7.97-11.87c.44-.5.5-.8.07-1.62-.44-.81-.07-1.13.5-1.38M7.97-16c-.8.63-1.43 1.45-.87 3.13M8.41-10.3c.94-.94.82-2.94.44-3.5M3.6-9.8c-.56.25-.94.56-.5 1.37s.38 1.13-.06 1.63M3.04-10.93c-.81.63-1.44 1.44-.88 3.13M3.91-8.74c.38.56.5 2.56-.44 3.5M8.54-4.93c-.56.25-.94.56-.5 1.38.44.8.37 1.12-.06 1.62M7.97-6.05c-.8.62-1.43 1.43-.87 3.12M8.85-3.87c.25.37.38 1.37.18 2.27M12.97-46.62c.44-.5.5-.8.07-1.62s-.07-1.13.5-1.38M12.1-47.62c-.56-1.68.06-2.5.88-3.12M13.41-45.05c.94-.94.82-2.94.44-3.5M18.48-44.55c-.57.25-.94.56-.5 1.37s.37 1.13-.07 1.63M17.04-42.55c-.56-1.7.06-2.5.87-3.13M18.35-40c.94-.93.81-2.93.44-3.5M12.97-36.68c.44-.5.5-.81.07-1.62s-.07-1.13.5-1.38M12.97-40.8c-.8.62-1.43 1.43-.87 3.12M13.41-35.12c.94-.93.82-2.94.44-3.5M17.98-31.74c.43-.5.5-.81.06-1.63s-.06-1.12.5-1.37M17.98-35.87c-.82.63-1.44 1.44-.88 3.13M18.41-30.18c.94-.94.82-2.94.44-3.5M13.54-29.74c-.56.25-.94.56-.5 1.37s.37 1.13-.06 1.63M12.97-30.87c-.8.63-1.43 1.44-.87 3.13M13.41-25.18c.94-.94.82-2.94.44-3.5M17.91-21.74c.44-.5.5-.81.07-1.63s-.07-1.12.5-1.37M17.91-25.87c-.8.63-1.43 1.44-.87 3.13M18.35-20.18c.94-.94.81-2.94.44-3.5M13.54-19.8c-.56.25-.94.56-.5 1.37s.37 1.13-.06 1.63M12.97-20.93c-.8.63-1.43 1.44-.87 3.13M13.41-15.24c.94-.94.82-2.94.44-3.5M17.91-11.87c.44-.5.5-.8.07-1.62s-.07-1.13.5-1.38M17.91-16c-.8.63-1.43 1.45-.87 3.13M18.35-10.3c.94-.94.81-2.94.44-3.5M13.54-9.8c-.56.25-.94.56-.5 1.37s.37 1.13-.06 1.63M12.97-10.93c-.8.63-1.43 1.44-.87 3.13M13.85-8.74c.38.56.5 2.56-.44 3.5M18.48-4.93c-.57.25-.94.56-.5 1.38s.37 1.12-.07 1.62M17.91-6.05c-.8.62-1.43 1.43-.87 3.12M18.73-3.87c.24.37.38 1.37.18 2.27M22.85-46.62c.44-.5.5-.8.06-1.62s-.06-1.13.5-1.38M21.98-47.62c-.57-1.68.06-2.5.87-3.12M23.29-45.05c.94-.94.81-2.94.44-3.5M28.35-44.55c-.56.25-.94.56-.5 1.37s.38 1.13-.06 1.63M26.91-42.55c-.56-1.7.07-2.5.88-3.13M28.23-40c.93-.93.8-2.93.43-3.5M22.85-36.68c.44-.5.5-.81.06-1.62s-.06-1.13.5-1.38M22.85-40.8c-.81.62-1.44 1.43-.88 3.12M23.29-35.12c.94-.93.81-2.94.44-3.5M27.85-31.74c.44-.5.5-.81.06-1.63s-.06-1.12.5-1.37M27.85-35.87c-.81.63-1.44 1.44-.88 3.13M28.29-30.18c.94-.94.81-2.94.44-3.5M23.41-29.74c-.56.25-.93.56-.5 1.37s.38 1.13-.06 1.63M22.85-30.87c-.81.63-1.44 1.44-.88 3.13M23.29-25.18c.94-.94.81-2.94.44-3.5M27.79-21.74c.44-.5.5-.81.06-1.63s-.06-1.12.5-1.37M27.79-25.87c-.81.63-1.44 1.44-.88 3.13M28.23-20.18c.93-.94.8-2.94.43-3.5M23.41-19.8c-.56.25-.93.56-.5 1.37s.38 1.13-.06 1.63M22.85-20.93c-.81.63-1.44 1.44-.88 3.13M23.29-15.24c.94-.94.81-2.94.44-3.5M27.79-11.87c.44-.5.5-.8.06-1.62s-.06-1.13.5-1.38M27.79-16c-.81.63-1.44 1.45-.88 3.13M28.23-10.3c.93-.94.8-2.94.43-3.5M23.41-9.8c-.56.25-.93.56-.5 1.37s.38 1.13-.06 1.63M22.85-10.93c-.81.63-1.44 1.44-.88 3.13M23.73-8.74c.37.56.5 2.56-.44 3.5M28.35-4.93c-.56.25-.94.56-.5 1.38s.38 1.12-.06 1.62M27.79-6.05c-.81.62-1.44 1.43-.88 3.12M28.66-3.87c.25.37.39 1.37.19 2.27M32.83-46.62c.44-.5.5-.8.06-1.62s-.06-1.13.5-1.38M31.95-47.62c-.56-1.68.07-2.5.88-3.12M33.27-45.05c.93-.94.8-2.94.43-3.5M38.33-44.55c-.56.25-.94.56-.5 1.37s.37 1.13-.06 1.63M36.9-42.55c-.57-1.7.05-2.5.87-3.13M38.2-40c.94-.93.82-2.93.44-3.5M32.83-36.68c.44-.5.5-.81.06-1.62s-.06-1.13.5-1.38M32.83-40.8c-.81.62-1.44 1.43-.88 3.12M33.27-35.12c.93-.93.8-2.94.43-3.5M37.83-31.74c.44-.5.5-.81.06-1.63s-.06-1.12.5-1.37M37.83-35.87c-.81.63-1.44 1.44-.88 3.13M38.27-30.18c.93-.94.8-2.94.43-3.5M33.4-29.74c-.57.25-.95.56-.5 1.37s.37 1.13-.07 1.63M32.83-30.87c-.81.63-1.44 1.44-.88 3.13M33.27-25.18c.93-.94.8-2.94.43-3.5M37.77-21.74c.43-.5.5-.81.06-1.63s-.06-1.12.5-1.37M37.77-25.87c-.82.63-1.44 1.44-.88 3.13M38.2-20.18c.94-.94.82-2.94.44-3.5M33.4-19.8c-.57.25-.95.56-.5 1.37s.37 1.13-.07 1.63M32.83-20.93c-.81.63-1.44 1.44-.88 3.13M33.27-15.24c.93-.94.8-2.94.43-3.5M37.77-11.87c.43-.5.5-.8.06-1.62s-.06-1.13.5-1.38M37.77-16c-.82.63-1.44 1.45-.88 3.13M38.2-10.3c.94-.94.82-2.94.44-3.5M33.4-9.8c-.57.25-.95.56-.5 1.37s.37 1.13-.07 1.63M32.83-10.93c-.81.63-1.44 1.44-.88 3.13M33.7-8.74c.38.56.5 2.56-.43 3.5M38.33-4.93c-.56.25-.94.56-.5 1.38s.37 1.12-.06 1.62M37.77-6.05c-.82.62-1.44 1.43-.88 3.12M38.64-3.87c.25.37.39 1.37.19 2.27M42.77-46.62c.43-.5.5-.8.06-1.62s-.06-1.13.5-1.38M41.9-47.62c-.57-1.68.05-2.5.87-3.12M43.2-45.05c.94-.94.82-2.94.44-3.5M48.27-44.55c-.57.25-.94.56-.5 1.37s.37 1.13-.07 1.63M46.83-42.55c-.56-1.7.06-2.5.87-3.13M48.14-40c.94-.93.81-2.93.44-3.5M42.77-36.68c.43-.5.5-.81.06-1.62s-.06-1.13.5-1.38M42.77-40.8c-.82.62-1.44 1.43-.88 3.12M43.2-35.12c.94-.93.82-2.94.44-3.5M47.77-31.74c.43-.5.5-.81.06-1.63s-.06-1.12.5-1.37M47.77-35.87c-.82.63-1.44 1.44-.88 3.13M48.2-30.18c.94-.94.82-2.94.44-3.5M43.33-29.74c-.56.25-.94.56-.5 1.37s.37 1.13-.06 1.63M42.77-30.87c-.82.63-1.44 1.44-.88 3.13M43.2-25.18c.94-.94.82-2.94.44-3.5M47.7-21.74c.44-.5.5-.81.07-1.63s-.07-1.12.5-1.37M47.7-25.87c-.8.63-1.43 1.44-.87 3.13M48.14-20.18c.94-.94.81-2.94.44-3.5M43.33-19.8c-.56.25-.94.56-.5 1.37s.37 1.13-.06 1.63M42.77-20.93c-.82.63-1.44 1.44-.88 3.13M43.2-15.24c.94-.94.82-2.94.44-3.5M47.7-11.87c.44-.5.5-.8.07-1.62s-.07-1.13.5-1.38M47.7-16c-.8.63-1.43 1.45-.87 3.13M48.14-10.3c.94-.94.81-2.94.44-3.5M43.33-9.8c-.56.25-.94.56-.5 1.37s.37 1.13-.06 1.63M42.77-10.93c-.82.63-1.44 1.44-.88 3.13M43.64-8.74c.38.56.5 2.56-.44 3.5M48.27-4.93c-.57.25-.94.56-.5 1.38s.37 1.12-.07 1.62M47.7-6.05c-.8.62-1.43 1.43-.87 3.12M48.58-3.87c.25.37.38 1.37.18 2.27M8.41-50.05c.33-.33.53-.78.63-1.26M18.35-50.05c.33-.33.52-.78.63-1.26M28.23-50.05c.32-.33.52-.78.62-1.26M38.2-50.05c.33-.33.53-.78.63-1.26M48.14-50.05c.33-.33.52-.78.63-1.26" style="fill:none;stroke:#000;stroke-width:.3"/></svg>