<svg xmlns="http://www.w3.org/2000/svg" xml:space="preserve" width="80.56" height="80.5" viewBox="1.49 -81.88 80.56 80.5"><path d="M1.49-81.88h80.56v80.5H1.49z" style="fill:none"/><path d="m18.34-79.12-1.29 1.66M12.85-74.66l.22-1.95M9.07-70.43l-1.31 1.46M3.95-68.16 2.63-66.7M21.22-75.55l2.04-.38M12.95-72.28h-1.88M9.13-80.3l-.93 1.83M9.13-74.53l-1.37-1.25M18.38-68.72l-1.5-1.19M13.81-69.06l-.83 1.78M7.74-10.78l1.28 1.49M22.36-66.52l-1.66.86M15.95-37.16l-1.67.87M29.2-66.91l-1.88-.36M26.55-71.09l-1.73.82M30.91-65.23l.08 1.96M40.91-61.48l.08 1.96M22.48-71.75l-.83 1.78M8.99-66l-1.77-.63M28.45-73.66l-1-1.59M11.95-60.16l-1.02-1.62M18.49-62.27l-1.24 1.52M35.22-64.05l-1.23 1.53M16.46-58.13l-1.87.1M19.74-54.02l-1.56-1.11M12.42-56.08l-.21 1.95M10.3-49.43l-1.23 1.52M8.59-52.06l-1.88.09M15.26-47.05l-1.56-1.11M17.17-63.76l-1.78-.7M7.2-62.41l-1.88.4M50.2-68.16l1.93.82M3.45-78.03l2.06.44M36.24-59.71l1.25 1.69M16.84-52.27l-1.31 1.45M27.82-50.3l-1.31 1.46M3.7-54.66 2.38-53.2M31.7-55.15l2.04-.37M31.7-52.16h-1.88M27.99-61.02l-.94 1.83M27.88-54.41l-1.37-1.25M24.49-61.52l-1.38-1.25M37.13-48.59l-1.5-1.19M33.39-50.71l-.83 1.78M43.07-55.05l-.83 1.78M27.74-45.87l-1.77-.63M29.95-39.41l-1.02-1.62M39.24-42.27l-1.23 1.52M35.21-38l-1.87.1M38.51-34.55l-1.56-1.11M28.49-30.52 27.25-29M15.72-27.55l-1.23 1.53M36.02-44.73l-1.88.39M22.2-57.91l2.06.44M49.17-33.32l.05 2.1M31.75-30.47l-.26 1.95M52.61-29.43l2.04-.38M43.36-27.77h-1.87M59.07-23.91H57.2M40.93-33.11l-.94 1.84M53.74-23.27l-1.5-1.19M39.17-5.53l-.41-1.86M45.49-24.77 44.66-23M78.84-35.37l1.39 1.39M41.02-17.09l.47 1.9M21.27-17.18l.47 1.9M62.07-28.3l-.83 1.78M40.55-19.3l-1.77-.63M10.28-28.58l.44-1.82M37.38-16.63l-1.81.52M46.74-15.28l1.01-1.62M45.53-11.88l-1.88.1M53.2-7.91l-1.56-1.1M9.2-44.16l-1.56-1.1M47.49-10.03 46.26-8.5M55.18-5.18l-1.23 1.53M41.41-3.38l-1.23 1.53M31.18-11.43l-1.59 1M48.43-2.45l-1.56-1.11M42.3-9.17l-1.56-1.11M67.09-21.27l-1.23 1.46M51.74-15.78l-1.87.4M43.82-36.6l1.94.81M33.93-32.21l2.06.44M55.57-10.95l1.25 1.68M41.99-49.77l1.25 1.68M68.19-9.68l-1.31 1.46M60.99-3.27l-1.31 1.45M71.49-9.28l1.89-.85M64.51-6.1h-1.88M60.99-13.53l-.94 1.84M62.45-8.4l-1.38-1.25M69.94-1.6l-1.5-1.19M66.2-4.66l-.83 1.78M74.99-9.03l.47 1.91M79.11-8.34l-1.23 1.41M51.61-6.32l-.47 1.82M36.63-2.35l-1.5-1.12M80.71-10.49l-1.56-1.11M74.58-5.02l-1.76.75M47.68-21.46l2.06.44M61.91-19.62l.81-1.79M65.2-74.91l-1.03-1.57M53.39-17.77l.18-1.91M47.95-53.41l.17-1.9M55.45-65.66l.17-1.9M62.06-60.52l1.25 1.69M62-56.29l-1.31 1.46M54.44-50.85l-1.31 1.46M48.49-48.52l-1.31 1.45M65.65-57.08l2.04-.38M58.31-52.71h-1.87M54.5-60.73l-.94 1.84M54.5-54.96l-1.37-1.25M63.75-49.14l-1.5-1.19M59.17-49.48l-.83 1.78M70.89-55.36l-.83 1.78M54.35-46.42l-1.76-.63M58.78-78.98l-1.35-1.3M58.28-41.25l-1.01-1.62M66.22-45.8l-1.23 1.53M61.83-38.55l-1.87.1M65.49-34.77l-1.02-1.62M58.43-37.43l-1.23 1.52M57.24-27.77l-1.23 1.52M53.74-34.24l-.48-1.81M62.95-31.66l-1.56-1.1M23.74-32.77l-1.56-1.11M62.63-45.28l-1.87.39M70.57-42.47l-1.87.39M56.38-63.08l1.93.81M48.81-58.46l2.07.44M63.2-71.41l2.06.44M81.61-41.58l-1.77 1.13M55.7-76.91l-1.32 1.46M74.52-30.48l-1.31 1.46M78.25-32.16h-1.87M73.25-40.6l-.94 1.83M73.25-34.83l-1.37-1.25M70.36-22.77l-1.37-1.25M79.55-28.95l1.33-1.38M75.13-25.68l-.83 1.78M71.71-25.53l-1.76-.63M77.93-18.85l-1.02-1.62M41.74-22.77l-1.02-1.63M73.99-21.28l-1.91.41M66.76-30.43l-1.23 1.53M80.77-17.43l-.95 1.62M68.61-14.62l-1.87.09M74.2-17.03l-1.56-1.11M57.99-14.53l-1.56-1.1M72.49-14.28l-1.24 1.53M80.64-22.08l-1.61-1.04M75.13-42.96l1.93.82M67.56-38.33l2.07.44M79.33-54.74l1.37 1.41M66.86-61.76l1.36-1.34M4.06-41.02l1.25 1.69M4-36.79l-1.31 1.46M7.65-37.58l2.04-.38M6.24-28.19l-1.5-1.19M10.05-35.41l-.83 1.78M39.49-45.52l-.46-1.82M45.99-40.27l-1.02-1.63M4.45-47.91l-1.02-1.62M50.08-44.93l.88 1.75M50.33-37.27l-1.59 1M69.28-49.65l-1.58.99M55.99-39.12l-1.9-.21M29.59-22.51l-1.71.85M2.79-62.88l.88 1.75M8.7-57.07l-1.91-.21M6.24-23.27 5-21.75M3.83-19.05l-1.87.1M5.28-13.8l-1.56-1.11M4.7-11.15 3.46-9.63M5.19-3.27 3.96-1.74M3.47-5.9l-1.87.1M11.51-2.31l-1.56-1.1M4.63-25.78l-1.87.39M19.7-35.66l-.83 1.78M14.7-32.66l-1.77-.62M64.01-16.4l-1.77-.62M33.99-41.27l-1.77-.63M20.66-26.19l-1.02-1.62M24.93-29.17l-1.87.39M20.38-50.48l-.14 1.96M13.99-43.27l-1.87.04M19.73-39.51l-1.53-1.15M22.96-46.1l-1.61 1.04M26.74-35.02l-1.61 1.04M36.89-29.38l-.99 1.69M25.99-43.27 25-41.58M31.24-24.77l-1.7-.79M35.14-21.02l-.86-1.71M60.31-75.56l-.94 1.84M60.2-67.16l-1.38-1.25M51.13-71.59l2.07.43M22.81-20.89l1.25 1.69M39.84-13.7l-1.31 1.46M35.05-7.78l-1.31 1.46M26.4-17.45l2.04-.38M9-13.58l1.34-1.58M19.06-13.08h-1.87M13.99-22.27l-.94 1.83M15.25-15.33l-1.37-1.25M27.45-7.41l-1.5-1.18M20.75-11.64l-.83 1.78M32.53-15.43l-.83 1.78M13.63-8.44l-1.42 1.23M19.03-1.62l-1.01-1.62M26.7-3.24l-1.24 1.53M23.4-6.3l-1.87.39M17.13-23.45l1.93.81M9.5-19.58l2.06.44M80.51-80.53l1.25 1.69M81.78-75.09l-1.31 1.46M73.45-70.43l-1.32 1.46M77.32-72.28h-1.87M72.94-80.87 72-79.03M73.51-74.53l-1.38-1.25M81.63-69.78l-1.5-1.19M78.18-69.06l-.83 1.78M73.36-66l-1.77-.63M77.29-60.82l-1.01-1.62M80.84-58.13l-1.88.1M76.45-55.84l-1.23 1.53M75.47-48.3l-1.23 1.53M72.96-52.06l-1.87.09M77.02-49.9l-1.56-1.11M80.91-64.48l-1.87.39M76.07-80.11l1.94.81M67.82-78.03l2.06.44M80.27-45.4l-1.88.4M43.44-80.35l1.25 1.69M43.74-75.53l-1.31 1.46M35.81-70.68l-1.31 1.46M47.02-76.91l2.04-.38M39.69-72.54h-1.88M32.31-80.95l.61 1.96M35.87-74.79l-1.37-1.25M47.99-66.28l-1.5-1.18M41.38-71.09l-.83 1.78M48.99-74.03l-.83 1.78M35.73-66.26l-1.77-.62M46.7-62.16l-1.24 1.53M39.59-54.94l-1.72-.74M46.11-50.99l-1.87.1M44.01-65.11l-1.88.39M28.03-78.57l1.94.81M73.34-62.81l-1.88.09M68.33-67.23l-1.56-1.11M39.23-65.92l.28 1.99-1.92-.63M25.12-66.86l1.01 1.75-2.01.13M59.09-59.23l1.02 1.74-2.02.13M17.08-7.21l1.01 1.74-2.01.13M70.56-46.67l1.01 1.74-2.01.13M46.06-20.17l1.01 1.74-2.01.13M22.81-78.32l-.63-1.92 2 .3M31.01-72.93l1.75 1-1.68 1.13M56.41-72.59l1.76 1-1.68 1.12M18.58-45.37l.24 2.01-1.9-.68M72.43-59.36l.24 2-1.9-.68M44.08-7.88l.24 2-1.9-.68M64.25-42.28l.24 2.01-1.9-.68M65.08-53.43l.24 2-1.9-.68M50.25-53.03l.24 2.01-1.9-.68M5.25-42.54l-1.85-.82 1.56-1.28M18.49-73.51l-1.17 1.65-.95-1.78M32.92-58.2l-1.97-.41 1.25-1.59M37.71-50.99l1.11-1.69 1.02 1.75M31.45-36.51l.06 2.02-1.83-.85M52.01-80.69l.06 2.01-1.83-.85M70.76-6.44l.06 2.01-1.83-.84M17.98-57.71l1.65-1.15.29 1.99M10.63-52.77l1.69 1.09-1.74 1.03M31.06-19.71l1.7 1.1-1.74 1.02M26.04-52.1l-1.59 1.24-.4-1.98M78.32-65.93l-1.59 1.24-.4-1.98M52.54-40.64l-1.59 1.24-.4-1.98M45.99-71.78l-1.59 1.25-.4-1.98M4.11-34.07l-.1 2.02-1.76-.99M50.84-27.54l-.1 2.02-1.76-.99M10.51-23.95l-1.96-.49 1.31-1.53M59.24-4.78l-1.96-.48 1.31-1.54M18.92-17.5l-1.72-1.05 1.7-1.08M77.47-12.98l-1.73-1.04 1.71-1.08M58.8-30.88l-1.73-1.05L58.78-33M23.32-25.36l1.99-.35-.57 1.94M80.75-48.91l-1.18-1.64 2-.32M5.76-19.81l1 1.76-2.02.11M80.03-25.48l-2 .28.64-1.91M39.55-38.4l1.53-1.32.5 1.95M67.48-17.81 69-19.13l.51 1.95M56.61-44.6l1.52-1.33.51 1.96M44.07-57.68 45.6-59l.5 1.96M36.78-77.83l1.52-1.32.5 1.95M22.7-37.67l.54-1.95 1.5 1.35M62.78-63.93l.54-1.95 1.5 1.35M34.7-9.68l.54-1.94 1.5 1.35M43.24-44.21l1.39-1.47.69 1.9M10.95-40.7l1.93.59-1.39 1.46M62.89-80.27l1.93.59-1.39 1.47M78.21-75.39l-1.88.74.18-2.02M49.89-12.77l1.93.59-1.39 1.47M24.83-12.95l1.93.59-1.39 1.46M77.27-4.16l1.93.59-1.39 1.46M4.79-73.04l.78 1.86-2.01-.13M10.05-65.4l2.02-.03-.88 1.82M3.05-59.4l2.02-.03-.88 1.82M18.57-32.26l.69 1.9-2.01-.23M69.88-33.32l.69 1.89-2-.23M65.13-26.55l.69 1.9-2-.24M38.15-23.98l-2.02-.13 1.02-1.75M31.43-4.18l-2.02-.13 1.02-1.74M58.84-18.55l-2.02-.13 1.02-1.74M8.06-5.56l-2.02-.13 1.02-1.74M32.46-44.77l-2.01.16.75-1.87M70.46-71.18l-2.02.16.76-1.87M51.49-62.52l-2.01.15.75-1.87M14.27-10.96l-2.01.16.75-1.87M78.57-37.93l-2.01.16.75-1.87M66.74-11.39l-2.01.16.75-1.88M44.28-32.5l1.96.48-1.3 1.54M12.72-79.47l.81-1.85 1.29 1.54" style="fill:none;stroke:#000;stroke-width:.3"/></svg>