<svg xmlns="http://www.w3.org/2000/svg" xml:space="preserve" width="54.25" height="54.25" viewBox="1.12 -55.85 54.25 54.25"><path d="M1.12-55.85h54.25V-1.6H1.12z" style="fill:none"/><path d="m7.31-49.54-3.69-3.25M4.56-53.85l3.5 3.37M11.62-50.54l2.69-3.81M12.81-49.85l2.68-3.88M15.37-48.23l4.69-.56M15.62-47.1l4.69-.44M14.82-43.9l3.27 3.76M16.94-39.39l-3.07-3.77M9.12-40.79l2.19-4.25M7.87-41.41l2.25-4.19M7.43-47.35l-5.14.83M2.62-45.35l4.87-.85M26.81-55.85l.73 3.88M28.71-52.25l-.51-3.6M31.57-50.11l4.47-1.35M32.09-48.84l4.5-1.4M33.11-45.98l4.04 2.44M32.62-44.94l3.96 2.54M31.61-39.07l-1.44-4.76M30.25-38.86 29-43.55M26.83-44.98l-4.12 2.42M21.99-43.76l4.14-2.33M21.74-52.67l4.57 2.5M25.66-49.23l-4.37-2.32M14.86-34.58l4.1 2.7M15.64-35.77l3.93 2.85M22.72-33.48l1.09-4.53M24.07-33.27l1.07-4.6M31.2-34.96l-4.15 2.25M31.9-33.89l-4.2 2.14M32.25-27.91l-4.84-1.17M27.06-27.94l4.69 1.31M31.17-6.93l4.47 2.19M34.87-3.6l-4.29-2.29M24.11-27.57l-.47 4.75M22.8-27.66l-.55 4.72M20-28.97l-4.48 2.67M16.26-25.34l4.22-2.59M39.76-43.06l2.29 4.35M41.02-43.72l2.07 4.4M46.44-38.11l3.87-2.6M51.19-39.7l-3.89 2.66M49.93-34.61l4.58 1.15M49.76-33.47l4.54 1.26M46.93-31.7l2.77 4.14M48.47-26.96l-2.57-4.13M38.87-28.85l3.56-3.19M37.92-29.88l3.6-3.11M41.39-36.62l-5.11-1.06M41.04-35.53l-4.86-.94M2.61-37.06 1.6-41.87M3.77-37.36l-.78-4.8M6-34.61l4.43-1.45M11.01-34.85l-4.47 1.5M11.71-28.16l-4.09-2.36M7.15-29.46l4.01 2.45M4.72-28.31l1.54 4.74M4.91-23.33 3.56-28M48.16-55.54l.47-.31M51.12-55.85 49-54.46M50.56-51.99l4.56 1.23M54.89-49.51l-4.51-1.35M51.02-44.94l-2.69-4.18M47.28-48.53l2.5 4.17M41.28-47.18l3.62-3.13M40.35-48.23l3.66-3.04M37.79-55.31l5.09 1.16M42.51-53.07l-4.85-1.03M41.96-20.74l3.93-2.95M42.73-19.82l4.01-2.73M41.71-15.88l3.18 3.41M44.04-11.43l-3.25-3.42M10.1-6.5l3.19 3.41M12.43-2.06 9.19-5.48M39.11-11.47l-.41 4.7M37.96-11.46l-.53 4.68M34.62-13.87l-3.64 3.39M33.86-14.79l-3.67 3.19M34.11-17.27l-3.71-3.01M34.91-18.32l-3.64-3.05M38.84-25.33l-.24 5.2M37.47-20.3l.16-4.95M16.29-17.8l-3.14-3.79M14.24-22.49l2.94 3.88M23.95-21.47l-3.25 3.35M21.77-17.25l3.26-3.41M28.97-15.97l-4.71-.18M24.33-15l4.7.3M23.69-5.73l-4.72-.17M23.74-4.45l-4.69-.3M21.83-13.45l3.56 3.47M20.94-12.64l3.37 3.51M18.84-12.64l-2.82 3.86M17.76-13.38 14.88-9.6M16.07-15.62l-5.21.02M11.01-14.4l4.94-.08M7.97-18.25l-4.16 2.12M8.73-17.14l-4.19 2.17M10.46-10.64l-4.41-1.7M5.74-11.22l4.35 1.8M3.53-9.71l2.25 4.44M4.48-4.82 2.43-9.23M51.03-21.86l1.74 4.6M52.35-22.36l1.52 4.62M48.84-7.29l4.49-1.63M52.84-10.14 48.35-8.6M51.86-15.27l-4.94-1.67M51.38-14.23l-4.71-1.52M26.65-2.42l.15.82M28.19-1.6l-.15-1.09M43.58-1.85l-2.2-4.4M42.64-6.88l1.99 4.44M51.87-3.7l-3.25 2.1M52.74-2.67 51.1-1.6" style="fill:none;stroke:#000;stroke-width:.3"/></svg>